<?xml version="1.0" encoding="UTF-8"?>
<svg xmlns="http://www.w3.org/2000/svg" xmlns:xlink="http://www.w3.org/1999/xlink" version="1.2" >
<font id="GAPZuid-Regular" horiz-adv-x="458">
<font-face  font-family="GAP Zuid" units-per-em="1000" ascent="750" descent="-250" font-style="normal" font-weight="400" font-stretch="normal" cap-height="625" x-height="425" underline-position="-100" underline-thickness="50" />
<missing-glyph horiz-adv-x="450" d="M100 101 L100 495 L198 298 L100 101 Z M226 354 L113 580 L339 580 L226 354 Z M400 602 C400 612 392 618 383 620 C392 618 400 612 400 602 L400 602 Z M50 -2 C50 -12 58 -18 67 -20 C58 -18 50 -12 50 -2 L50 -2 Z M224 246 L337 20 L111 20 L224 246 Z M350 499 L350 105 L252 302 L350 499 Z M67 -20 C69 -20 71 -20 73 -20 L373 -20 C385 -20 400 -12 400 2 L400 602 C400 612 392 618 383 620 C381 620 379 620 377 620 L77 620 C65 620 50 612 50 598 L50 -2 C50 -12 58 -18 67 -20 L67 -20 Z " />
<glyph glyph-name="NULL" horiz-adv-x="0" >
</glyph>
<glyph glyph-name="CR" unicode="&#xd;" horiz-adv-x="250" >
</glyph>
<glyph glyph-name="space" unicode="&#x20;" horiz-adv-x="200" />
<glyph glyph-name="uni0000" horiz-adv-x="0" />
<glyph glyph-name="uni000D" horiz-adv-x="250" />
<glyph glyph-name="exclam" unicode="&#x21;" horiz-adv-x="200" d="M75 73 L75 -2 C75 -14 87 -20 98 -20 C110 -20 125 -12 125 2 L125 77 C125 89 113 95 102 95 C90 95 75 87 75 73 L75 73 Z M75 598 L75 198 C75 186 87 180 98 180 C110 180 125 188 125 202 L125 602 C125 614 113 620 102 620 C90 620 75 612 75 598 L75 598 Z " />
<glyph glyph-name="quotedbl" unicode="&#x22;" horiz-adv-x="325" d="M75 598 L75 448 C75 436 87 430 98 430 C110 430 125 438 125 452 L125 602 C125 614 113 620 102 620 C90 620 75 612 75 598 L75 598 Z M200 598 L200 448 C200 436 212 430 223 430 C235 430 250 438 250 452 L250 602 C250 614 238 620 227 620 C215 620 200 612 200 598 L200 598 Z " />
<glyph glyph-name="numbersign" unicode="&#x23;" horiz-adv-x="550" d="M230 220 L245 280 L320 280 L305 220 L230 220 Z M170 180 L155 118 C149 97 125 13 125 -2 C125 -14 137 -20 148 -20 C165 -20 172 -10 176 5 L220 180 L295 180 L280 118 C274 97 250 13 250 -2 C250 -14 262 -20 273 -20 C290 -20 297 -10 301 5 L345 180 L423 180 C435 180 450 188 450 202 C450 214 438 220 427 220 L355 220 L370 280 L448 280 C460 280 475 288 475 302 C475 314 463 320 452 320 L380 320 L395 382 C401 403 425 487 425 502 C425 514 413 520 402 520 C385 520 378 510 374 495 L330 320 L255 320 L270 382 C276 403 300 487 300 502 C300 514 288 520 277 520 C260 520 253 510 249 495 L205 320 L127 320 C115 320 100 312 100 298 C100 286 112 280 123 280 L195 280 L180 220 L102 220 C90 220 75 212 75 198 C75 186 87 180 98 180 L170 180 Z " />
<glyph glyph-name="dollar" unicode="&#x24;" horiz-adv-x="450" d="M200 -102 C200 -114 212 -120 223 -120 C235 -120 250 -112 250 -98 L250 -18 C322 -7 375 49 375 127 C375 210 314 268 233 270 C216 271 200 271 184 278 C146 294 125 338 125 377 C125 435 162 480 223 480 C275 480 310 452 321 401 C323 393 324 371 327 366 C331 358 339 355 348 355 C360 355 375 363 375 377 C375 453 324 509 250 519 L250 602 C250 614 238 620 227 620 C215 620 200 612 200 598 L200 518 C128 507 75 451 75 373 C75 290 136 232 217 230 C234 229 250 229 266 222 C304 206 325 162 325 123 C325 110 322 97 318 85 C304 41 274 20 227 20 C173 20 139 53 128 105 C127 113 126 135 123 140 C119 148 111 151 102 151 C90 151 75 143 75 129 C75 52 124 -9 200 -19 L200 -102 Z " />
<glyph glyph-name="percent" unicode="&#x25;" horiz-adv-x="750" d="M552 20 C502 20 475 58 475 105 L475 152 C475 196 502 230 548 230 C595 230 625 194 625 148 L625 110 C625 106 625 103 626 100 C625 99 625 99 625 98 C624 91 624 83 622 76 C614 41 588 20 552 20 L552 20 Z M202 270 C152 270 125 308 125 355 L125 402 C125 446 152 480 198 480 C245 480 275 444 275 398 L275 360 C275 356 275 353 276 350 C275 349 275 349 275 348 C274 341 274 333 272 326 C264 291 238 270 202 270 L202 270 Z M675 102 L675 152 C675 223 622 270 552 270 C478 270 425 220 425 145 L425 98 C425 27 478 -20 548 -20 C619 -20 675 29 675 102 L675 102 Z M325 352 L325 402 C325 473 272 520 202 520 C128 520 75 470 75 395 L75 348 C75 277 128 230 198 230 C269 230 325 279 325 352 L325 352 Z M525 502 C525 514 513 520 502 520 C475 520 465 483 455 462 L403 357 C387 326 225 8 225 -2 C225 -14 237 -20 248 -20 C275 -20 285 17 295 38 L347 143 C363 174 525 492 525 502 L525 502 Z " />
<glyph glyph-name="ampersand" unicode="&#x26;" horiz-adv-x="575" d="M373 130 C372 124 371 118 370 115 C357 53 315 20 252 20 C174 20 125 77 125 152 C125 168 128 184 133 199 C153 258 189 276 248 280 C260 281 275 287 275 302 C275 314 264 319 253 320 C216 325 194 332 181 371 C177 381 175 391 175 402 C175 446 202 480 248 480 C288 480 314 457 322 418 C326 400 322 380 348 380 C360 380 375 388 375 402 C375 473 322 520 252 520 C181 520 125 471 125 398 C125 363 142 326 170 304 C111 276 75 212 75 148 C75 106 94 56 124 26 C158 -7 201 -20 248 -20 C340 -20 411 35 423 130 L473 130 C485 130 500 138 500 152 C500 164 488 170 477 170 L327 170 C315 170 300 162 300 148 C300 136 312 130 323 130 L373 130 Z " />
<glyph glyph-name="quotesingle" unicode="&#x27;" horiz-adv-x="200" d="M75 598 L75 448 C75 436 87 430 98 430 C110 430 125 438 125 452 L125 602 C125 614 113 620 102 620 C90 620 75 612 75 598 L75 598 Z " />
<glyph glyph-name="parenleft" unicode="&#x28;" horiz-adv-x="350" d="M75 298 C75 174 137 33 239 -40 C252 -49 283 -70 298 -70 C310 -70 325 -62 325 -48 C325 -41 320 -36 314 -32 C299 -23 284 -15 269 -5 C179 62 125 190 125 302 C125 419 187 564 294 623 C305 630 325 636 325 652 C325 664 313 670 302 670 C287 670 254 648 241 639 C138 565 75 424 75 298 L75 298 Z " />
<glyph glyph-name="parenright" unicode="&#x29;" horiz-adv-x="376" d="M250 298 L250 275 C250 164 200 64 106 2 C85 -12 63 -21 41 -32 C33 -36 25 -42 25 -52 C25 -64 37 -70 48 -70 C64 -70 109 -45 124 -36 C232 29 300 149 300 275 C300 357 299 415 261 490 C231 553 182 603 122 639 C109 647 67 670 52 670 C40 670 25 662 25 648 C25 640 31 635 37 632 C60 621 82 611 103 597 C190 541 238 456 249 354 C251 335 250 317 250 298 L250 298 Z " />
<glyph glyph-name="asterisk" unicode="&#x2a;" horiz-adv-x="400" d="M175 538 C148 552 111 570 102 570 C90 570 75 562 75 548 C75 543 78 539 82 535 C84 533 139 505 169 490 C152 459 125 403 125 398 C125 386 137 380 148 380 C169 380 174 396 182 412 L199 446 L217 411 C224 396 228 380 248 380 C260 380 275 388 275 402 C275 406 248 462 232 493 C263 508 315 535 317 537 C322 541 325 546 325 552 C325 564 313 570 302 570 C292 570 252 550 225 536 L225 602 C225 614 213 620 202 620 C190 620 175 612 175 598 L175 538 Z " />
<glyph glyph-name="plus" unicode="&#x2b;" horiz-adv-x="400" d="M225 230 L298 230 C310 230 325 238 325 252 C325 264 313 270 302 270 L225 270 L225 352 C225 364 213 370 202 370 C190 370 175 362 175 348 L175 270 L102 270 C90 270 75 262 75 248 C75 236 87 230 98 230 L175 230 L175 148 C175 136 187 130 198 130 C210 130 225 138 225 152 L225 230 Z " />
<glyph glyph-name="comma" unicode="&#x2c;" horiz-adv-x="200" d="M150 2 C150 14 138 20 127 20 L77 20 C65 20 50 12 50 -2 C50 -24 80 -20 95 -20 C84 -66 71 -112 60 -157 C57 -171 50 -188 50 -202 C50 -214 62 -220 73 -220 C83 -220 91 -216 97 -208 C99 -205 150 -6 150 2 L150 2 Z " />
<glyph glyph-name="hyphen" unicode="&#x2d;" horiz-adv-x="400" d="M98 230 L298 230 C310 230 325 238 325 252 C325 264 313 270 302 270 L102 270 C90 270 75 262 75 248 C75 236 87 230 98 230 L98 230 Z " />
<glyph glyph-name="period" unicode="&#x2e;" horiz-adv-x="150" d="M50 73 L50 -2 C50 -14 62 -20 73 -20 C85 -20 100 -12 100 2 L100 77 C100 89 88 95 77 95 C65 95 50 87 50 73 L50 73 Z " />
<glyph glyph-name="slash" unicode="&#x2f;" horiz-adv-x="300" d="M325 652 C325 664 313 670 302 670 C290 670 282 665 276 654 C269 641 263 617 258 603 L215 482 C174 368 132 254 92 139 C87 125 25 -46 25 -52 C25 -64 37 -70 48 -70 C60 -70 68 -65 74 -54 C81 -41 87 -17 92 -3 L135 118 C176 232 218 346 258 461 C263 475 325 646 325 652 L325 652 Z " />
<glyph glyph-name="zero" unicode="0" horiz-adv-x="500" d="M258 20 C170 20 125 95 125 176 L125 352 C125 425 172 480 248 480 C311 480 355 446 370 384 C372 377 373 355 376 345 C374 309 376 188 376 165 C376 88 345 20 258 20 L258 20 Z M425 352 C425 394 406 444 376 474 C342 507 299 520 252 520 C149 520 75 449 75 345 L75 173 C75 65 141 -20 254 -20 C356 -20 425 54 425 155 L425 352 Z " />
<glyph glyph-name="one" unicode="1" horiz-adv-x="325" d="M250 2 L250 502 C250 514 238 520 227 520 L102 520 C90 520 75 512 75 498 C75 479 98 480 112 480 L200 480 L200 8 C200 -9 203 -20 223 -20 C235 -20 250 -12 250 2 L250 2 Z " />
<glyph glyph-name="two" unicode="2" horiz-adv-x="450" d="M223 480 C271 480 303 457 318 411 C322 399 325 386 325 374 C325 288 194 135 137 71 C124 57 112 43 98 30 C92 23 85 17 79 9 C77 6 75 2 75 -2 C75 -14 87 -20 98 -20 L348 -20 C360 -20 375 -12 375 2 C375 11 368 16 361 19 C354 22 176 20 149 20 C220 96 375 272 375 377 C375 414 358 457 331 483 C303 510 266 520 227 520 C142 520 75 461 75 374 C75 361 87 355 98 355 C129 355 123 381 128 402 C139 452 171 480 223 480 L223 480 Z " />
<glyph glyph-name="three" unicode="3" horiz-adv-x="500" d="M327 480 L226 364 C211 346 191 329 179 309 C177 305 175 302 175 298 C175 273 220 280 236 280 C252 280 268 280 283 276 C341 263 375 205 375 148 C375 76 328 20 252 20 C188 20 145 54 130 116 C128 125 126 154 123 159 C118 167 111 170 102 170 C90 170 75 162 75 148 C75 106 93 56 123 26 C157 -8 201 -20 248 -20 C346 -20 425 49 425 151 C425 194 406 244 376 274 C340 310 296 320 247 320 L348 436 C363 454 383 471 395 491 C397 495 399 498 399 502 C399 514 387 520 376 520 L126 520 C114 520 99 512 99 498 C99 489 106 484 113 481 C121 478 300 480 327 480 L327 480 Z " />
<glyph glyph-name="four" unicode="4" horiz-adv-x="500" d="M375 120 L136 120 L261 370 C271 389 325 490 325 502 C325 514 313 520 302 520 C289 520 281 513 275 502 L142 237 C133 217 75 110 75 98 C75 86 87 80 98 80 L375 80 L375 -2 C375 -14 387 -20 398 -20 C410 -20 425 -12 425 2 L425 202 C425 214 413 220 402 220 C390 220 375 212 375 198 L375 120 Z " />
<glyph glyph-name="five" unicode="5" horiz-adv-x="500" d="M377 520 L164 520 C154 520 145 516 140 507 C139 505 100 310 100 298 C100 282 117 280 129 280 L212 280 C276 280 328 279 359 214 C368 195 375 170 375 148 C375 76 328 20 252 20 C189 20 145 54 130 116 C128 125 126 154 123 159 C119 167 111 170 102 170 C90 170 75 162 75 148 C75 106 94 56 124 26 C158 -7 201 -20 248 -20 C346 -20 425 49 425 151 C425 194 406 244 376 274 C339 311 292 321 241 321 C220 321 199 320 178 320 C170 320 162 320 153 320 L183 480 C220 480 258 479 295 479 C305 479 376 479 382 481 C391 485 400 491 400 502 C400 514 388 520 377 520 L377 520 Z " />
<glyph glyph-name="six" unicode="6" horiz-adv-x="500" d="M301 520 L252 520 C138 520 75 427 75 320 L75 148 C75 106 94 56 124 26 C158 -7 201 -20 248 -20 C348 -20 425 48 425 152 C425 193 405 245 376 274 C342 307 299 320 252 320 L202 320 C190 320 175 312 175 298 C175 273 220 280 236 280 C252 280 268 280 283 276 C340 263 375 204 375 148 C375 75 328 20 252 20 C174 20 125 78 125 152 L125 327 C125 381 150 454 206 473 C231 482 258 480 284 480 C300 480 324 481 324 502 C324 514 312 520 301 520 L301 520 Z " />
<glyph glyph-name="seven" unicode="7" horiz-adv-x="500" d="M425 502 C425 514 413 520 402 520 L102 520 C90 520 75 512 75 498 C75 486 87 480 98 480 L364 480 L364 479 L210 163 C199 141 131 10 131 -2 C131 -14 143 -20 154 -20 C168 -20 176 -13 182 0 L397 440 C402 451 425 493 425 502 L425 502 Z " />
<glyph glyph-name="eight" unicode="8" horiz-adv-x="500" d="M376 152 C373 145 374 124 369 109 C354 58 307 20 252 20 C181 20 125 81 125 152 C125 220 178 280 248 280 C315 280 368 225 375 159 C375 157 375 154 376 152 L376 152 Z M326 397 C325 391 324 384 323 377 C314 345 286 320 252 320 C208 320 175 358 175 402 C175 443 205 480 248 480 C283 480 314 453 322 419 C324 412 324 404 326 397 L326 397 Z M375 402 C375 469 318 520 252 520 C184 520 125 468 125 398 C125 358 145 324 175 303 C117 275 75 217 75 148 C75 53 154 -20 248 -20 C343 -20 425 55 425 152 C425 220 383 278 324 305 C355 327 375 361 375 402 L375 402 Z " />
<glyph glyph-name="nine" unicode="9" horiz-adv-x="500" d="M197 -21 L254 -21 C367 -21 425 68 425 173 L425 319 C425 382 419 439 367 482 C334 509 294 519 252 519 C153 519 75 452 75 348 C75 306 94 255 124 225 C158 191 201 179 248 179 L298 179 C310 179 325 187 325 201 C325 226 279 219 263 219 C247 219 232 219 217 223 C159 236 125 295 125 352 C125 425 172 479 248 479 C325 479 375 422 375 348 L375 167 C375 113 353 43 296 25 C270 16 240 19 213 19 C198 19 174 18 174 -3 C174 -15 186 -21 197 -21 L197 -21 Z " />
<glyph glyph-name="colon" unicode="&#x3a;" horiz-adv-x="175" d="M75 398 L75 323 C75 311 87 305 98 305 C110 305 125 313 125 327 L125 402 C125 414 113 420 102 420 C90 420 75 412 75 398 L75 398 Z M75 73 L75 -2 C75 -14 87 -20 98 -20 C110 -20 125 -12 125 2 L125 77 C125 89 113 95 102 95 C90 95 75 87 75 73 L75 73 Z " />
<glyph glyph-name="semicolon" unicode="&#x3b;" horiz-adv-x="200" d="M150 2 C150 14 138 20 127 20 L77 20 C65 20 50 12 50 -2 C50 -24 80 -20 95 -20 C84 -66 71 -112 60 -157 C57 -171 50 -188 50 -202 C50 -214 62 -220 73 -220 C83 -220 91 -216 97 -208 C99 -205 150 -6 150 2 L150 2 Z M74 398 L74 323 C74 311 86 305 97 305 C109 305 124 313 124 327 L124 402 C124 414 112 420 101 420 C89 420 74 412 74 398 L74 398 Z " />
<glyph glyph-name="less" unicode="&#x3c;" horiz-adv-x="325" d="M75 248 C75 244 77 241 79 238 C86 229 95 222 102 214 L153 164 C170 146 187 124 207 109 C212 106 217 105 223 105 C235 105 250 113 250 127 C250 140 220 163 210 173 L132 251 L132 252 L210 329 C220 339 250 363 250 377 C250 389 238 395 227 395 C221 395 214 393 209 389 C188 374 171 352 153 333 L103 284 C95 276 87 269 80 260 C77 257 75 253 75 248 L75 248 Z " />
<glyph glyph-name="equal" unicode="&#x3d;" horiz-adv-x="400" d="M98 280 L298 280 C310 280 325 288 325 302 C325 314 313 320 302 320 L102 320 C90 320 75 312 75 298 C75 286 87 280 98 280 L98 280 Z M98 180 L298 180 C310 180 325 188 325 202 C325 214 313 220 302 220 L102 220 C90 220 75 212 75 198 C75 186 87 180 98 180 L98 180 Z " />
<glyph glyph-name="greater" unicode="&#x3e;" horiz-adv-x="325" d="M193 249 L193 248 L115 171 C105 161 75 137 75 123 C75 111 87 105 98 105 C104 105 111 107 116 111 C137 126 154 148 172 167 L222 216 C230 224 238 231 245 240 C248 243 250 247 250 252 C250 256 248 259 246 262 C239 271 230 278 223 286 L172 336 C155 354 138 376 118 391 C113 394 108 395 102 395 C90 395 75 387 75 373 C75 360 105 337 115 327 L193 249 Z " />
<glyph glyph-name="question" unicode="&#x3f;" horiz-adv-x="450" d="M223 580 C282 580 325 539 325 480 C325 362 205 412 200 254 C200 248 200 242 200 236 C200 215 192 180 223 180 C258 180 250 221 250 245 C250 249 250 254 250 258 C254 390 375 343 375 483 C375 518 358 559 333 583 C304 610 266 620 227 620 C142 620 75 561 75 474 C75 461 87 455 98 455 C129 455 124 481 128 502 C139 552 171 580 223 580 L223 580 Z M200 73 L200 -2 C200 -14 212 -20 223 -20 C235 -20 250 -12 250 2 L250 77 C250 89 238 95 227 95 C215 95 200 87 200 73 L200 73 Z " />
<glyph glyph-name="at" unicode="&#x40;" horiz-adv-x="600" d="M525 402 C525 459 498 527 456 566 C414 605 359 620 302 620 C268 620 234 615 203 602 C124 569 75 482 75 398 L75 223 C75 154 112 76 168 33 C226 -11 291 -20 362 -20 C377 -20 400 -18 400 2 C400 18 383 20 368 20 C254 20 164 56 133 176 C128 192 125 209 125 227 C125 278 124 329 124 381 C124 493 176 580 298 580 C399 580 461 516 473 420 L377 420 C277 420 200 352 200 248 C200 205 225 159 261 135 C294 113 333 105 373 105 C385 105 400 113 400 127 C400 140 388 144 377 145 C324 149 281 159 258 214 C254 225 250 239 250 252 C250 272 256 298 265 316 C295 379 344 380 406 380 L475 380 C475 370 475 361 475 351 C475 296 475 240 475 184 C475 177 475 120 477 116 C481 108 489 105 498 105 C510 105 525 113 525 127 L525 402 Z " />
<glyph glyph-name="A" unicode="A" horiz-adv-x="500" d="M364 120 C344 120 323 120 304 120 C247 120 191 120 135 120 L249 513 L364 120 Z M123 79 C147 78 172 79 196 79 C256 79 316 79 376 79 L401 -6 C404 -16 413 -20 423 -20 C435 -20 450 -12 450 2 C450 10 288 560 274 606 C271 616 262 620 252 620 C241 620 229 614 226 603 C213 557 50 6 50 -2 C50 -14 62 -20 73 -20 C84 -20 96 -14 99 -3 L123 79 Z " />
<glyph glyph-name="B" unicode="B" horiz-adv-x="550" d="M125 370 L125 580 L248 580 C300 580 346 562 367 511 C371 500 375 485 375 473 C375 429 344 390 303 377 C291 373 275 371 256 370 L125 370 Z M273 -20 C387 -20 475 58 475 177 C475 257 431 328 356 357 C396 383 425 429 425 476 C425 519 400 566 364 590 C331 612 292 620 252 620 L102 620 C90 620 75 612 75 598 L75 -2 C75 -14 87 -20 98 -20 C110 -20 125 -12 125 2 L125 330 C127 330 130 330 132 330 L248 330 C254 330 260 330 266 330 C282 330 298 329 314 326 C384 310 425 242 425 173 C425 107 386 40 318 24 C293 19 266 20 240 20 C224 20 200 19 200 -2 C200 -14 212 -20 223 -20 L273 -20 Z " />
<glyph glyph-name="C" unicode="C" horiz-adv-x="500" d="M277 620 C161 620 75 540 75 420 L75 173 C75 123 98 63 135 28 C174 -7 222 -20 273 -20 C299 -20 326 -17 351 -8 C372 -2 425 27 425 52 C425 64 413 71 402 71 C383 71 382 60 370 48 C347 26 308 20 277 20 C206 20 157 54 135 122 C128 141 125 160 125 180 L125 427 C125 445 129 464 135 481 C156 548 203 580 273 580 C303 580 343 574 366 553 C372 548 375 540 382 535 C386 531 392 530 398 530 C410 530 425 538 425 552 C425 574 379 600 361 607 C334 617 305 620 277 620 L277 620 Z " />
<glyph glyph-name="D" unicode="D" horiz-adv-x="550" d="M475 180 L475 402 C475 458 448 527 406 566 C363 605 309 620 252 620 L102 620 C90 620 75 612 75 598 L75 -2 C75 -14 87 -20 98 -20 C110 -20 125 -12 125 2 L125 580 L248 580 C330 580 387 541 413 462 C421 441 425 418 425 395 L425 173 C425 108 381 47 318 29 C289 20 259 20 228 20 C216 20 200 13 200 -2 C200 -19 219 -20 232 -20 C275 -20 314 -17 355 0 C427 29 475 102 475 180 L475 180 Z " />
<glyph glyph-name="E" unicode="E" horiz-adv-x="500" d="M273 330 C285 330 300 338 300 352 C300 364 288 370 277 370 L125 370 L125 580 C184 580 242 579 301 579 C313 579 399 578 406 581 C416 584 425 591 425 602 C425 614 413 620 402 620 L102 620 C90 620 75 612 75 598 L75 49 C75 7 107 -20 148 -20 L398 -20 C410 -20 425 -12 425 2 C425 22 400 21 387 21 C338 21 289 20 241 20 C230 20 146 19 140 23 C128 30 125 43 125 56 L125 330 L273 330 Z " />
<glyph glyph-name="F" unicode="F" horiz-adv-x="450" d="M248 330 C260 330 275 338 275 352 C275 364 263 370 252 370 L125 370 L125 580 C178 580 231 579 284 579 C295 579 374 578 381 581 C391 584 400 591 400 602 C400 614 388 620 377 620 L102 620 C90 620 75 612 75 598 L75 -2 C75 -14 87 -20 98 -20 C110 -20 125 -12 125 2 L125 330 L248 330 Z " />
<glyph glyph-name="G" unicode="G" horiz-adv-x="550" d="M425 330 L425 173 C425 155 421 136 415 118 C394 52 347 19 277 19 C206 19 157 53 135 122 C128 141 125 160 125 180 L125 427 C125 446 129 466 135 484 C166 576 229 580 314 580 L398 580 C410 580 425 588 425 602 C425 620 401 621 388 621 C344 621 254 624 211 612 C127 587 75 510 75 423 L75 173 C75 123 98 62 135 28 C173 -8 222 -21 273 -21 C391 -21 475 61 475 180 L475 352 C475 364 463 370 452 370 L277 370 C265 370 250 362 250 348 C250 339 256 335 263 331 C270 328 404 330 425 330 L425 330 Z " />
<glyph glyph-name="H" unicode="H" horiz-adv-x="550" d="M125 370 L125 602 C125 614 113 620 102 620 C90 620 75 612 75 598 L75 -2 C75 -14 87 -20 98 -20 C110 -20 125 -12 125 2 L125 330 L425 330 L425 -2 C425 -14 437 -20 448 -20 C460 -20 475 -12 475 2 L475 602 C475 614 463 620 452 620 C440 620 425 612 425 598 L425 370 L125 370 Z " />
<glyph glyph-name="I" unicode="I" horiz-adv-x="250" d="M150 2 L150 602 C150 614 138 620 127 620 C115 620 100 612 100 598 L100 -2 C100 -14 112 -20 123 -20 C135 -20 150 -12 150 2 L150 2 Z " />
<glyph glyph-name="J" unicode="J" horiz-adv-x="425" d="M202 20 C150 20 115 48 104 99 C102 108 101 128 98 134 C94 142 85 145 77 145 C65 145 50 137 50 123 C50 86 67 43 94 17 C122 -10 159 -20 198 -20 C286 -20 350 41 350 130 L350 602 C350 614 338 620 327 620 C293 620 300 587 300 564 C300 422 301 279 301 137 C301 72 273 20 202 20 L202 20 Z " />
<glyph glyph-name="K" unicode="K" horiz-adv-x="550" d="M448 -20 C460 -20 475 -12 475 2 C475 11 453 43 448 52 L238 405 C238 405 238 406 237 406 L460 581 C467 587 475 592 475 602 C475 614 463 620 452 620 C446 620 441 619 436 616 C423 608 412 597 400 587 L125 371 L125 602 C125 614 113 620 102 620 C90 620 75 612 75 598 L75 -2 C75 -14 87 -20 98 -20 C110 -20 125 -12 125 2 L125 317 C133 323 142 331 150 338 L198 375 C204 364 212 353 215 348 L424 -5 C430 -15 435 -20 448 -20 L448 -20 Z " />
<glyph glyph-name="L" unicode="L" horiz-adv-x="400" d="M125 20 L125 602 C125 614 113 620 102 620 C90 620 75 612 75 598 L75 -2 C75 -14 87 -20 98 -20 L348 -20 C360 -20 375 -12 375 2 C375 11 368 16 361 19 C351 23 154 20 125 20 L125 20 Z " />
<glyph glyph-name="M" unicode="M" horiz-adv-x="725" d="M650 2 L650 602 C650 614 638 620 627 620 C620 620 612 617 607 612 C598 604 592 593 584 584 L532 517 C472 441 414 364 352 289 L142 583 C135 593 129 605 120 614 C115 618 109 620 102 620 C90 620 75 612 75 598 L75 -2 C75 -14 87 -20 98 -20 C110 -20 125 -12 125 2 L125 524 L311 262 C321 249 329 230 348 230 C369 230 379 251 390 265 L600 533 L600 -2 C600 -14 612 -20 623 -20 C635 -20 650 -12 650 2 L650 2 Z " />
<glyph glyph-name="N" unicode="N" horiz-adv-x="550" d="M475 602 C475 614 463 620 452 620 C440 620 425 612 425 598 L425 308 L154 579 C142 592 121 620 102 620 C90 620 75 612 75 598 L75 -2 C75 -14 87 -20 98 -20 C110 -20 125 -12 125 2 L125 542 L401 266 C407 259 416 248 425 240 L425 -2 C425 -14 437 -20 448 -20 C460 -20 475 -12 475 2 L475 602 Z " />
<glyph glyph-name="O" unicode="O" horiz-adv-x="550" d="M426 176 C423 164 421 139 419 132 C402 59 352 20 277 20 C206 20 157 54 135 122 C128 141 125 160 125 180 L125 427 C125 445 129 464 135 481 C157 548 203 580 273 580 C344 580 393 546 415 478 C421 461 425 442 425 424 C425 374 425 325 425 276 C425 269 425 200 426 176 L426 176 Z M475 427 C475 477 452 537 415 572 C377 607 328 620 277 620 C159 620 75 539 75 420 L75 173 C75 123 98 63 135 28 C173 -7 222 -20 273 -20 C386 -20 475 58 475 176 L475 427 Z " />
<glyph glyph-name="P" unicode="P" horiz-adv-x="525" d="M223 330 L298 330 C384 330 450 389 450 477 C450 563 385 620 302 620 C259 621 215 621 171 621 L114 621 C99 621 75 618 75 598 L75 -2 C75 -14 87 -20 98 -20 C110 -20 125 -12 125 2 L125 580 L260 580 C316 580 361 582 388 524 C395 509 400 489 400 473 C400 456 394 435 387 419 C367 380 334 370 292 370 C276 370 259 371 242 371 C227 371 200 369 200 348 C200 336 212 330 223 330 L223 330 Z " />
<glyph glyph-name="Q" unicode="Q" horiz-adv-x="575" d="M277 170 C265 170 250 162 250 148 C250 135 283 109 293 99 L354 38 C332 26 307 20 277 20 C206 20 157 54 135 122 C128 141 125 160 125 180 L125 427 C125 445 129 464 135 481 C157 548 203 580 273 580 C344 580 393 546 415 478 C421 461 425 442 425 424 C425 374 425 325 425 276 C425 269 425 200 426 176 C423 164 421 139 419 132 C413 107 403 86 390 69 L318 141 C307 152 295 170 277 170 L277 170 Z M432 -41 C443 -52 455 -70 473 -70 C485 -70 500 -62 500 -48 C500 -35 467 -9 457 1 L421 38 C455 75 475 126 475 176 L475 427 C475 477 452 537 415 572 C377 607 328 620 277 620 C159 620 75 539 75 420 L75 173 C75 123 98 63 135 28 C173 -7 222 -20 273 -20 C312 -20 350 -11 384 8 L432 -41 Z " />
<glyph glyph-name="R" unicode="R" horiz-adv-x="525" d="M265 330 L289 330 C307 330 325 330 342 335 C408 353 450 409 450 477 C450 514 433 557 406 583 C378 610 341 620 302 620 L103 620 C90 620 75 612 75 598 L75 -2 C75 -14 87 -20 98 -20 C110 -20 125 -12 125 2 L125 580 L298 580 C360 580 400 534 400 473 C400 456 394 435 387 419 C367 380 334 370 292 370 C276 370 259 371 242 371 C227 371 200 369 200 348 C200 337 258 243 268 226 L399 -5 C405 -15 411 -20 423 -20 C435 -20 450 -12 450 2 C450 12 397 99 387 115 L265 330 Z " />
<glyph glyph-name="S" unicode="S" horiz-adv-x="501" d="M248 -20 C357 -20 425 55 425 162 C425 246 352 306 280 336 C265 343 250 352 235 357 C179 376 136 404 136 469 C136 527 173 580 235 580 C282 580 328 563 352 520 C357 512 362 493 367 488 C371 482 378 480 385 480 C397 480 412 488 412 502 C412 507 409 514 407 519 C379 590 312 620 240 620 C151 620 86 553 86 465 C86 385 139 345 208 320 C219 317 228 311 237 307 C301 280 376 237 376 159 C376 81 335 20 252 20 C202 20 158 44 135 90 C131 99 126 119 121 125 C116 130 109 133 102 133 C90 133 75 124 75 111 C75 105 78 98 80 93 C107 19 170 -20 248 -20 L248 -20 Z " />
<glyph glyph-name="T" unicode="T" horiz-adv-x="450" d="M52 620 C40 620 25 612 25 598 C25 586 37 580 48 580 L200 580 L200 -2 C200 -14 212 -20 223 -20 C235 -20 250 -12 250 2 L250 580 L398 580 C410 580 425 588 425 602 C425 614 413 620 402 620 L52 620 Z " />
<glyph glyph-name="U" unicode="U" horiz-adv-x="550" d="M75 598 L75 173 C75 123 98 63 135 28 C173 -7 222 -20 273 -20 C391 -20 475 61 475 180 L475 602 C475 614 463 620 452 620 C429 620 425 605 425 585 C425 454 426 323 426 191 C426 95 382 20 277 20 C206 20 157 54 135 122 C129 139 125 158 125 176 L125 592 C125 609 122 620 102 620 C90 620 75 612 75 598 L75 598 Z " />
<glyph glyph-name="V" unicode="V" horiz-adv-x="500" d="M251 87 L99 606 C96 616 87 620 77 620 C65 620 50 612 50 598 C50 590 212 40 226 -6 C229 -16 238 -20 248 -20 C259 -20 271 -14 274 -3 C287 43 450 594 450 602 C450 614 438 620 427 620 C416 620 404 614 401 603 L251 87 Z " />
<glyph glyph-name="W" unicode="W" horiz-adv-x="750" d="M521 82 L428 328 C423 342 403 403 397 411 C392 417 385 420 377 420 C368 420 359 416 354 409 C347 400 327 339 321 324 L230 82 L99 606 C97 616 86 620 77 620 C65 620 50 612 50 598 C50 597 50 595 51 594 L201 -6 C203 -16 214 -20 223 -20 C232 -20 241 -16 246 -9 C253 0 274 64 280 79 L374 331 L470 75 C476 60 497 -3 503 -11 C508 -17 515 -20 523 -20 C533 -20 546 -14 549 -3 L699 597 C700 599 700 600 700 602 C700 614 688 620 677 620 C667 620 654 614 651 603 L521 82 Z " />
<glyph glyph-name="X" unicode="X" horiz-adv-x="500" d="M77 620 C65 620 50 612 50 598 C50 595 51 592 52 590 L223 298 L53 7 C51 4 50 1 50 -2 C50 -14 62 -20 73 -20 C82 -20 92 -16 97 -7 L249 253 L402 -10 C407 -17 415 -20 423 -20 C435 -20 450 -12 450 2 C450 5 449 8 448 10 L277 302 L447 593 C449 596 450 599 450 602 C450 614 438 620 427 620 C418 620 408 616 403 607 L251 347 L98 610 C93 617 85 620 77 620 L77 620 Z " />
<glyph glyph-name="Y" unicode="Y" horiz-adv-x="494" d="M275 320 C291 342 315 387 328 408 L404 533 C411 544 444 592 444 602 C444 614 432 620 421 620 C413 620 406 617 400 612 C389 601 365 556 356 540 L251 370 L143 539 C130 559 111 597 95 613 C91 618 84 620 77 620 C65 620 50 612 50 598 C50 588 106 506 109 502 L225 318 L225 -2 C225 -14 237 -20 248 -20 C260 -20 275 -12 275 2 L275 320 Z " />
<glyph glyph-name="Z" unicode="Z" horiz-adv-x="500" d="M113 20 L447 593 C449 596 450 599 450 602 C450 614 438 620 427 620 L77 620 C65 620 50 612 50 598 C50 586 62 580 73 580 L387 580 L53 7 C51 4 50 1 50 -2 C50 -14 62 -20 73 -20 L423 -20 C435 -20 450 -12 450 2 C450 14 438 20 427 20 L113 20 Z " />
<glyph glyph-name="bracketleft" unicode="&#x5b;" horiz-adv-x="250" d="M227 670 L102 670 C90 670 75 662 75 648 L75 -52 C75 -64 87 -70 98 -70 L223 -70 C235 -70 250 -62 250 -48 C250 -29 227 -30 213 -30 L125 -30 L125 630 C152 630 180 629 207 629 C223 629 250 631 250 652 C250 664 238 670 227 670 L227 670 Z " />
<glyph glyph-name="backslash" unicode="&#x5c;" horiz-adv-x="300" d="M248 -70 C260 -70 275 -62 275 -48 C275 -42 213 128 208 142 C168 257 127 371 86 485 L43 605 C37 621 32 642 24 657 C19 666 13 670 2 670 C-10 670 -25 662 -25 648 C-25 642 37 472 42 458 C82 343 123 229 164 115 L207 -5 C213 -21 218 -42 226 -57 C231 -66 237 -70 248 -70 L248 -70 Z " />
<glyph glyph-name="bracketright" unicode="&#x5d;" horiz-adv-x="250" d="M125 630 L125 -30 C98 -30 70 -29 43 -29 C27 -29 0 -31 0 -52 C0 -64 12 -70 23 -70 L148 -70 C160 -70 175 -62 175 -48 L175 652 C175 664 163 670 152 670 L27 670 C15 670 0 662 0 648 C0 629 23 630 37 630 L125 630 Z " />
<glyph glyph-name="asciicircum" unicode="&#x5e;" horiz-adv-x="350" d="M174 564 L248 474 C260 460 277 430 298 430 C310 430 325 438 325 452 C325 455 324 458 322 461 C316 470 200 610 193 615 C189 619 183 620 177 620 C170 620 163 618 158 613 C138 597 121 569 104 549 L53 487 C45 478 35 469 29 459 C27 455 25 452 25 448 C25 436 37 430 48 430 C71 430 87 460 100 476 L174 564 Z " />
<glyph glyph-name="underscore" unicode="&#x5f;" horiz-adv-x="500" d="M98 -120 L398 -120 C410 -120 425 -112 425 -98 C425 -86 413 -80 402 -80 L102 -80 C90 -80 75 -88 75 -102 C75 -114 87 -120 98 -120 L98 -120 Z " />
<glyph glyph-name="grave" unicode="&#x60;" horiz-adv-x="150" d="M98 505 C110 505 125 513 125 527 C125 531 124 533 122 537 C119 540 45 614 42 616 C37 619 33 620 27 620 C15 620 0 612 0 598 C0 594 1 592 3 588 C6 585 80 511 83 509 C88 506 92 505 98 505 L98 505 Z " />
<glyph glyph-name="a" unicode="a" horiz-adv-x="400" d="M100 102 C100 135 118 170 153 178 C162 180 172 180 181 180 C221 180 260 179 300 179 C300 155 300 131 300 107 C300 97 300 -4 301 -8 C306 -16 313 -20 323 -20 C335 -20 350 -12 350 2 L350 277 C350 314 333 357 306 383 C278 410 241 420 202 420 L152 420 C140 420 125 412 125 398 C125 373 171 380 187 380 C199 380 212 380 224 377 C274 367 300 319 300 270 C300 254 300 237 300 220 L177 220 C106 220 50 171 50 98 C50 27 103 -20 173 -20 L223 -20 C235 -20 250 -12 250 2 C250 28 206 20 190 20 C157 20 129 26 112 57 C105 69 100 88 100 102 L100 102 Z " />
<glyph glyph-name="b" unicode="b" horiz-adv-x="425" d="M325 248 L325 148 C325 75 278 20 202 20 L125 20 L125 602 C125 614 113 620 102 620 C90 620 75 612 75 598 L75 -2 C75 -14 87 -20 98 -20 L198 -20 C301 -20 375 51 375 155 L375 252 C375 294 356 344 326 374 C292 408 248 420 200 420 C188 420 173 412 173 398 C173 375 206 380 221 378 C284 373 325 308 325 248 L325 248 Z " />
<glyph glyph-name="c" unicode="c" horiz-adv-x="363" d="M202 20 C138 20 100 68 100 130 L100 277 C100 335 137 380 198 380 C256 380 262 343 285 343 C297 343 312 351 312 365 C312 381 280 401 266 407 C247 416 226 420 205 420 C115 420 50 361 50 270 L50 123 C50 86 67 43 94 17 C123 -11 160 -20 200 -20 C218 -20 237 -17 254 -11 C271 -5 312 20 312 40 C312 52 300 58 290 58 C262 58 262 20 202 20 L202 20 Z " />
<glyph glyph-name="d" unicode="d" horiz-adv-x="426" d="M100 252 C100 273 107 299 116 318 C145 376 189 380 248 380 L301 380 L301 -1 C301 -13 313 -19 324 -19 C336 -19 351 -11 351 3 L351 603 C351 615 339 621 328 621 C316 621 301 613 301 599 L301 420 L227 420 C124 420 50 349 50 245 L50 148 C50 106 69 56 99 26 C133 -7 176 -20 223 -20 C235 -20 250 -12 250 2 C250 15 238 19 227 20 C166 25 129 43 108 105 C103 120 100 136 100 152 L100 252 Z " />
<glyph glyph-name="e" unicode="e" horiz-adv-x="400" d="M299 220 C276 220 158 221 100 221 C100 238 100 256 100 274 C100 335 139 380 202 380 C249 380 279 357 293 313 C297 301 300 289 300 277 C300 258 299 239 299 220 L299 220 Z M325 180 C346 180 349 194 349 211 C349 232 350 253 350 274 C350 361 281 420 198 420 C113 420 50 364 50 278 L50 130 C50 41 114 -20 202 -20 L252 -20 C263 -20 275 -14 275 -2 C275 22 246 20 230 20 C194 20 154 19 127 48 C103 75 99 111 99 146 C99 157 99 168 99 180 L325 180 Z " />
<glyph glyph-name="f" unicode="f" horiz-adv-x="275" d="M149 420 C149 435 149 449 149 464 C149 487 153 510 163 531 C200 605 275 561 275 602 C275 614 263 620 252 620 C164 620 100 559 100 470 L100 420 L52 420 C40 420 25 412 25 398 C25 386 37 380 48 380 L100 380 L100 -2 C100 -14 112 -20 123 -20 C157 -20 150 13 150 36 C150 150 150 265 149 380 L223 380 C235 380 250 388 250 402 C250 414 238 420 227 420 L149 420 Z " />
<glyph glyph-name="g" unicode="g" horiz-adv-x="475" d="M334 259 C334 196 305 145 236 145 C163 145 134 199 134 266 C134 313 149 360 198 375 C210 378 220 379 232 380 C243 378 253 379 264 375 C318 361 334 310 334 259 L334 259 Z M236 420 L237 420 L236 420 Z M210 -20 C224 -22 239 -20 247 -20 C281 -20 310 -26 327 -59 C333 -71 338 -88 338 -102 C338 -144 312 -180 267 -180 L233 -180 C227 -180 221 -180 216 -180 C168 -178 138 -146 138 -98 C138 -88 140 -78 144 -68 C156 -32 175 -23 210 -20 L210 -20 Z M236 420 C138 420 84 354 84 259 C84 208 101 166 131 139 C99 127 75 99 75 61 C75 26 96 -1 125 -13 C102 -35 88 -65 88 -102 C88 -173 141 -220 211 -220 L263 -220 C333 -220 388 -170 388 -99 C388 -28 334 20 264 20 L236 20 C229 21 223 21 218 21 C203 21 189 20 175 20 C144 20 125 33 125 65 C125 94 143 105 168 105 C182 105 196 104 210 104 C216 104 223 104 230 105 C329 105 384 169 384 266 C384 313 370 353 343 380 L448 380 C460 380 475 388 475 402 C475 414 463 420 452 420 L236 420 Z " />
<glyph glyph-name="h" unicode="h" horiz-adv-x="450" d="M375 277 C375 314 358 357 331 383 C303 410 266 420 227 420 L125 420 L125 602 C125 614 113 620 102 620 C90 620 75 612 75 598 L75 -2 C75 -14 87 -20 98 -20 C110 -20 125 -12 125 2 L125 380 L200 380 C251 380 289 376 313 324 C320 310 325 290 325 274 C325 218 325 162 325 107 C325 97 325 -4 326 -8 C331 -16 338 -20 348 -20 C360 -20 375 -12 375 2 L375 277 Z " />
<glyph glyph-name="i" unicode="i" horiz-adv-x="200" d="M125 2 L125 402 C125 414 113 420 102 420 C90 420 75 412 75 398 L75 -2 C75 -14 87 -20 98 -20 C110 -20 125 -12 125 2 L125 2 Z M125 552 L125 602 C125 614 113 620 102 620 C90 620 75 612 75 598 L75 548 C75 536 87 530 98 530 C110 530 125 538 125 552 L125 552 Z " />
<glyph glyph-name="j" unicode="j" horiz-adv-x="225" d="M-2 -219 C86 -219 150 -158 150 -69 L150 403 C150 415 138 421 127 421 C93 421 100 388 100 365 C100 223 101 80 101 -63 C101 -86 97 -109 87 -130 C50 -204 -25 -160 -25 -201 C-25 -213 -13 -219 -2 -219 L-2 -219 Z M150 553 L150 603 C150 615 138 621 127 621 C115 621 100 613 100 599 L100 549 C100 537 112 531 123 531 C135 531 150 539 150 553 L150 553 Z " />
<glyph glyph-name="k" unicode="k" horiz-adv-x="450" d="M348 -20 C360 -20 375 -12 375 2 C375 8 246 267 227 302 L361 383 C368 387 375 393 375 402 C375 414 363 420 352 420 C334 420 275 379 256 368 L125 289 L125 602 C125 614 113 620 102 620 C90 620 75 612 75 598 L75 -2 C75 -14 87 -20 98 -20 C110 -20 125 -12 125 2 L125 240 C145 250 169 267 185 277 C215 211 311 19 324 -4 C331 -15 334 -20 348 -20 L348 -20 Z " />
<glyph glyph-name="l" unicode="l" horiz-adv-x="200" d="M125 2 L125 602 C125 614 113 620 102 620 C90 620 75 612 75 598 L75 -2 C75 -14 87 -20 98 -20 C110 -20 125 -12 125 2 L125 2 Z " />
<glyph glyph-name="m" unicode="m" horiz-adv-x="700" d="M102 420 C92 420 79 414 76 403 C79 414 91 420 102 420 L102 420 Z M348 -20 C360 -20 375 -12 375 2 L375 277 C375 313 357 358 331 383 C302 410 266 420 227 420 L102 420 C91 420 79 414 76 403 C75 401 75 400 75 398 L75 -2 C75 -14 87 -20 98 -20 C110 -20 125 -12 125 2 L125 380 L199 380 C251 380 289 376 313 324 C320 309 325 290 325 274 C327 217 325 159 325 102 C325 93 324 -4 326 -8 C331 -16 338 -20 348 -20 L348 -20 Z M598 -20 C610 -20 625 -12 625 2 L625 277 C625 313 607 358 581 383 C552 410 516 420 477 420 L402 420 C390 420 375 412 375 398 C375 371 435 381 453 381 C499 381 539 373 561 327 C571 309 575 288 575 267 C575 212 575 157 575 102 C575 93 575 -4 576 -8 C581 -16 588 -20 598 -20 L598 -20 Z " />
<glyph glyph-name="n" unicode="n" horiz-adv-x="450" d="M375 2 L375 277 C375 314 358 357 331 383 C303 410 266 420 227 420 L103 420 C91 420 75 412 75 398 L75 -2 C75 -14 87 -20 98 -20 C110 -20 119 -14 124 -4 C127 3 125 340 125 380 L223 380 C287 380 325 333 325 270 C325 216 325 161 325 107 C325 97 325 -4 326 -8 C331 -16 338 -20 348 -20 C360 -20 375 -12 375 2 L375 2 Z " />
<glyph glyph-name="o" unicode="o" horiz-adv-x="400" d="M198 380 C262 380 300 332 300 270 L300 123 C300 65 263 20 202 20 C154 20 122 43 107 89 C103 101 100 114 100 126 C100 154 100 182 100 210 C100 215 100 258 99 276 C101 284 101 294 103 302 C114 352 146 380 198 380 L198 380 Z M50 273 L50 123 C50 86 67 43 94 17 C122 -10 159 -20 198 -20 C286 -20 350 41 350 130 L350 277 C350 314 333 357 306 383 C278 410 241 420 202 420 C117 420 50 361 50 274 L50 273 Z " />
<glyph glyph-name="p" unicode="p" horiz-adv-x="425" d="M198 -20 C301 -20 375 51 375 155 L375 252 C375 294 356 344 326 374 C292 407 249 420 202 420 L102 420 C90 420 75 412 75 398 L75 -202 C75 -214 87 -220 98 -220 C110 -220 125 -212 125 -198 L125 380 L198 380 C276 380 325 323 325 248 L325 148 C325 132 322 116 317 101 C297 42 261 24 202 20 C190 19 175 12 175 -2 C175 -14 187 -20 198 -20 L198 -20 Z " />
<glyph glyph-name="q" unicode="q" horiz-adv-x="450" d="M125 152 L125 252 C125 268 128 284 133 299 C157 371 205 380 274 380 L325 380 L325 -202 C325 -214 337 -220 348 -220 C360 -220 375 -212 375 -198 L375 402 C375 414 363 420 352 420 L286 420 C245 420 211 421 173 405 C111 378 75 311 75 245 L75 148 C75 106 94 56 124 26 C158 -7 201 -20 248 -20 C260 -20 275 -12 275 2 C275 14 263 20 252 20 C191 24 154 44 133 104 C128 120 125 136 125 152 L125 152 Z " />
<glyph glyph-name="r" unicode="r" horiz-adv-x="300" d="M227 420 C139 420 75 359 75 270 L75 -2 C75 -14 87 -20 98 -20 C124 -20 125 -2 125 19 L125 51 C125 114 124 177 124 241 C124 322 136 373 223 380 C235 381 250 387 250 402 C250 414 238 420 227 420 L227 420 Z " />
<glyph glyph-name="s" unicode="s" horiz-adv-x="351" d="M178 420 C114 420 63 382 63 315 C63 260 103 220 151 199 C193 181 251 157 251 103 C251 58 227 20 178 20 C144 20 116 33 103 67 C98 82 99 95 78 95 C66 95 51 87 51 73 C51 50 72 18 90 5 C115 -13 144 -20 174 -20 C248 -20 301 32 301 106 C301 157 260 196 218 218 C173 241 112 255 112 318 C112 362 137 380 179 380 L178 380 C245 377 228 330 261 330 C273 330 288 338 288 352 C288 353 288 355 287 356 C272 402 222 420 178 420 L178 420 Z " />
<glyph glyph-name="t" unicode="t" horiz-adv-x="325" d="M150 420 L150 491 C150 508 148 520 127 520 C115 520 100 512 100 498 L100 420 L52 420 C40 420 25 412 25 398 C25 386 37 380 48 380 L100 380 L100 123 C100 86 117 43 144 17 C173 -10 209 -20 248 -20 C260 -20 275 -12 275 2 C275 15 263 19 252 20 C203 24 174 39 157 88 C153 100 150 113 150 126 L150 380 L248 380 C260 380 275 388 275 402 C275 414 263 420 252 420 L150 420 Z " />
<glyph glyph-name="u" unicode="u" horiz-adv-x="450" d="M325 20 L227 20 C163 20 125 67 125 130 C125 184 125 239 125 293 C125 303 125 404 124 408 C119 416 112 420 102 420 C90 420 75 412 75 398 L75 123 C75 86 92 43 119 17 C147 -10 184 -20 223 -20 L348 -20 C360 -20 375 -12 375 2 L375 402 C375 414 363 420 352 420 C340 420 331 414 326 404 C323 397 325 60 325 20 L325 20 Z " />
<glyph glyph-name="v" unicode="v" horiz-adv-x="400" d="M201 82 L200 82 L124 328 C120 339 101 406 98 410 C92 417 86 420 77 420 C65 420 50 412 50 398 C50 388 160 38 174 0 C179 -13 182 -20 198 -20 C209 -20 216 -16 222 -7 C223 -6 350 396 350 402 C350 414 338 420 327 420 C316 420 310 416 303 408 C299 403 279 334 276 322 L201 82 Z " />
<glyph glyph-name="w" unicode="w" horiz-adv-x="600" d="M420 79 L352 248 C348 257 329 308 326 312 C320 318 315 320 306 320 C297 320 290 317 284 310 C277 303 194 104 182 75 C173 112 102 405 98 410 C92 417 87 420 77 420 C65 420 50 412 50 398 C50 386 70 318 74 300 L149 2 C152 -12 157 -20 173 -20 C182 -20 190 -16 196 -9 C201 -4 220 46 225 57 L303 237 L376 55 C380 45 400 -8 403 -12 C409 -18 414 -20 423 -20 C433 -20 442 -15 448 -6 C449 -4 550 396 550 402 C550 414 538 420 527 420 C516 420 509 416 503 407 C499 402 483 331 480 319 L420 79 Z " />
<glyph glyph-name="x" unicode="x" horiz-adv-x="450" d="M375 402 C375 414 363 420 352 420 C339 420 332 414 325 403 L226 245 L126 405 C120 415 115 420 102 420 C90 420 75 412 75 398 C75 388 96 359 103 350 L197 198 L104 50 C98 40 75 8 75 -2 C75 -14 87 -20 98 -20 C111 -20 118 -14 125 -3 L224 155 L324 -5 C330 -15 335 -20 348 -20 C360 -20 375 -12 375 2 C375 12 354 41 347 50 L253 202 L346 350 C352 360 375 392 375 402 L375 402 Z " />
<glyph glyph-name="y" unicode="y" horiz-adv-x="400" d="M350 402 C350 414 338 420 327 420 C317 420 309 416 303 408 C299 403 282 339 278 328 L203 77 C170 186 110 377 101 400 C96 413 93 420 77 420 C65 420 50 412 50 398 C50 391 162 31 174 0 C175 -3 176 -6 177 -9 L167 -43 C158 -75 151 -109 134 -138 C125 -153 113 -169 97 -175 C82 -182 50 -177 50 -202 C50 -214 62 -220 73 -220 C136 -220 176 -170 196 -114 C212 -67 225 -19 240 29 C265 113 290 197 315 282 C318 292 350 397 350 402 L350 402 Z " />
<glyph glyph-name="z" unicode="z" horiz-adv-x="400" d="M114 20 L270 270 C282 288 350 389 350 402 C350 414 338 420 327 420 L77 420 C65 420 50 412 50 398 C50 389 57 384 64 381 C73 378 256 380 286 380 L130 130 C118 112 50 11 50 -2 C50 -14 62 -20 73 -20 L323 -20 C335 -20 350 -12 350 2 C350 11 343 16 336 19 C327 22 144 20 114 20 L114 20 Z " />
<glyph glyph-name="braceleft" unicode="&#x7b;" horiz-adv-x="350" d="M327 670 C243 670 185 619 176 535 C174 517 175 499 175 481 L175 407 L93 341 C81 332 50 314 50 298 C50 284 82 265 93 256 L175 190 L175 114 C175 59 176 8 219 -33 C247 -60 284 -70 323 -70 C335 -70 350 -62 350 -48 C350 -36 338 -30 327 -30 C279 -27 248 -11 232 38 C220 73 225 113 225 150 C225 157 226 205 223 209 C218 217 203 228 195 234 L110 301 C126 314 220 386 223 395 C225 401 225 410 225 416 C225 441 224 466 224 491 C224 567 235 624 323 630 C335 630 350 638 350 652 C350 664 338 670 327 670 L327 670 Z " />
<glyph glyph-name="bar" unicode="&#x7c;" horiz-adv-x="200" d="M75 648 L75 -52 C75 -64 87 -70 98 -70 C110 -70 125 -62 125 -48 L125 652 C125 664 113 670 102 670 C90 670 75 662 75 648 L75 648 Z " />
<glyph glyph-name="braceright" unicode="&#x7d;" horiz-adv-x="350" d="M240 299 C224 286 130 214 127 205 C123 195 126 128 126 111 C126 35 116 -24 27 -30 C15 -30 0 -38 0 -52 C0 -64 12 -70 23 -70 C108 -70 175 -11 175 77 L175 193 L257 259 C269 268 300 286 300 302 C300 316 268 335 257 344 L175 410 L175 486 C175 541 174 592 131 633 C103 660 66 670 27 670 C15 670 0 662 0 648 C0 610 86 658 118 562 C130 527 125 487 125 450 C125 443 124 395 127 391 C131 383 148 372 155 366 L240 299 Z " />
<glyph glyph-name="asciitilde" unicode="&#x7e;" horiz-adv-x="400" d="M148 255 C179 255 188 205 248 205 C289 205 325 233 325 277 C325 289 313 295 302 295 C260 295 288 245 252 245 C221 245 212 295 152 295 C111 295 75 267 75 223 C75 211 87 205 98 205 C140 205 112 255 148 255 L148 255 Z " />
<glyph glyph-name="uni00A0" unicode="&#xa0;" horiz-adv-x="200" />
<glyph glyph-name="exclamdown" unicode="&#xa1;" horiz-adv-x="200" d="M75 398 L75 323 C75 311 87 305 98 305 C110 305 125 313 125 327 L125 402 C125 414 113 420 102 420 C90 420 75 412 75 398 L75 398 Z M75 198 L75 -202 C75 -214 87 -220 98 -220 C110 -220 125 -212 125 -198 L125 202 C125 214 113 220 102 220 C90 220 75 212 75 198 L75 198 Z " />
<glyph glyph-name="cent" unicode="&#xa2;" horiz-adv-x="400" d="M174 -102 C174 -114 186 -120 197 -120 C209 -120 224 -112 224 -98 L224 -18 C251 -15 312 12 312 40 C312 52 300 58 290 58 C262 58 262 20 202 20 C138 20 100 68 100 130 L100 277 C100 335 137 380 198 380 C256 380 262 343 285 343 C297 343 312 351 312 365 C312 393 248 416 224 419 L224 502 C224 514 212 520 201 520 C189 520 174 512 174 498 L174 418 C101 406 50 351 50 270 L50 123 C50 48 101 -9 174 -19 L174 -102 Z " />
<glyph glyph-name="sterling" unicode="&#xa3;" horiz-adv-x="525" d="M200 270 L200 366 C200 430 229 480 298 480 C363 480 394 435 394 373 C394 361 406 355 417 355 C432 355 444 364 444 380 C444 465 387 520 302 520 C214 520 150 459 150 370 L150 270 L102 270 C90 270 75 262 75 248 C75 236 87 230 98 230 L150 230 L150 20 L102 20 C90 20 75 12 75 -2 C75 -14 87 -20 98 -20 L423 -20 C435 -20 450 -12 450 2 C450 14 438 20 427 20 L200 20 C200 25 200 30 200 34 L200 230 L298 230 C310 230 325 238 325 252 C325 264 313 270 302 270 L200 270 Z " />
<glyph glyph-name="currency" unicode="&#xa4;" horiz-adv-x="500" d="M252 170 C209 170 175 209 175 252 C175 292 206 330 248 330 C283 330 314 303 322 270 C324 262 324 254 326 247 C325 241 324 234 323 227 C314 195 286 170 252 170 L252 170 Z M398 80 C410 80 425 88 425 102 C425 106 424 108 422 112 C420 114 373 162 352 182 C366 202 375 225 375 252 C375 278 366 302 352 321 C374 342 418 387 421 391 C423 394 425 398 425 402 C425 414 413 420 402 420 C396 420 390 418 385 415 C382 413 342 374 320 351 C300 363 277 370 252 370 C227 370 204 363 183 350 C161 373 119 415 117 416 C112 419 108 420 102 420 C90 420 75 412 75 398 C75 394 76 392 78 388 C80 386 127 338 148 318 C134 298 125 275 125 248 C125 222 134 198 148 179 C126 158 82 113 79 109 C77 106 75 102 75 98 C75 86 87 80 98 80 C104 80 110 82 115 85 C118 87 158 126 180 149 C200 137 223 130 248 130 C273 130 296 137 317 150 C339 127 381 85 383 84 C388 81 392 80 398 80 L398 80 Z " />
<glyph glyph-name="yen" unicode="&#xa5;" horiz-adv-x="450" d="M250 180 L320 180 C332 180 347 188 347 202 C347 214 335 220 324 220 L250 220 L250 280 L320 280 C332 280 347 288 347 302 C347 314 335 320 324 320 L250 320 L250 368 C267 382 282 401 297 417 L347 466 C355 474 363 481 370 490 C373 493 375 497 375 502 C375 514 363 520 352 520 C332 520 314 494 300 481 L226 407 L150 483 C138 495 121 520 102 520 C90 520 75 512 75 498 C75 494 77 491 79 488 C86 479 95 472 102 464 L153 414 C168 398 183 379 200 365 L200 320 L124 320 C112 320 97 312 97 298 C97 286 109 280 120 280 L200 280 L200 220 L124 220 C112 220 97 212 97 198 C97 186 109 180 120 180 L200 180 L200 -2 C200 -14 212 -20 223 -20 C235 -20 250 -12 250 2 L250 180 Z " />
<glyph glyph-name="brokenbar" unicode="&#xa6;" horiz-adv-x="200" d="M75 598 L75 398 C75 386 87 380 98 380 C110 380 125 388 125 402 L125 602 C125 614 113 620 102 620 C90 620 75 612 75 598 L75 598 Z M75 198 L75 -2 C75 -14 87 -20 98 -20 C110 -20 125 -12 125 2 L125 202 C125 214 113 220 102 220 C90 220 75 212 75 198 L75 198 Z " />
<glyph glyph-name="section" unicode="&#xa7;" horiz-adv-x="400" d="M202 220 C159 220 125 259 125 302 C125 342 156 380 198 380 C233 380 264 353 272 319 C274 312 274 304 276 297 C275 291 274 284 273 277 C264 245 236 220 202 220 L202 220 Z M275 98 C275 58 244 20 202 20 C167 20 136 47 128 81 C123 99 129 120 102 120 C90 120 75 112 75 98 C75 31 132 -20 198 -20 C265 -20 325 33 325 102 C325 144 302 180 269 201 C302 223 325 259 325 302 C325 369 269 420 203 420 C195 421 188 422 182 423 C148 433 125 467 125 502 C125 542 156 580 198 580 C233 580 264 553 272 519 C277 501 271 480 298 480 C310 480 325 488 325 502 C325 569 268 620 202 620 C135 620 75 567 75 498 C75 456 98 420 131 399 C98 377 75 341 75 298 C75 231 131 180 197 180 C205 179 212 178 218 177 C252 167 275 133 275 98 L275 98 Z " />
<glyph glyph-name="dieresis" unicode="&#xa8;" horiz-adv-x="200" d="M25 598 L25 523 C25 511 37 505 48 505 C60 505 75 513 75 527 L75 602 C75 614 63 620 52 620 C40 620 25 612 25 598 L25 598 Z M125 598 L125 523 C125 511 137 505 148 505 C160 505 175 513 175 527 L175 602 C175 614 163 620 152 620 C140 620 125 612 125 598 L125 598 Z " />
<glyph glyph-name="copyright" unicode="&#xa9;" horiz-adv-x="600" d="M302 20 C204 20 125 104 125 202 C125 297 201 380 298 380 C384 380 463 310 473 224 C474 216 474 207 475 199 C474 191 474 181 474 175 C465 90 388 20 302 20 L302 20 Z M525 202 C525 324 423 420 302 420 C180 420 75 322 75 198 C75 76 177 -20 298 -20 C420 -20 525 78 525 202 L525 202 Z M400 246 C400 301 354 333 302 333 C243 333 200 293 200 233 L200 161 C200 105 243 68 298 68 C354 68 400 106 400 164 C400 177 389 183 377 183 C352 183 352 167 349 150 C344 124 329 108 302 108 C267 108 250 135 250 168 L250 240 C250 269 267 293 298 293 C325 293 342 280 348 254 C353 237 350 224 373 224 C385 224 400 232 400 246 L400 246 Z " />
<glyph glyph-name="ordfeminine" unicode="&#xaa;" horiz-adv-x="275" d="M127 420 C86 420 50 392 50 348 C50 307 82 280 123 280 C135 280 150 288 150 302 C150 333 100 305 100 352 C100 374 111 380 132 380 C146 380 161 379 176 379 C175 360 174 340 174 321 C174 302 172 280 198 280 C210 280 225 288 225 302 L225 452 C225 493 193 520 152 520 L102 520 C90 520 75 512 75 498 C75 472 127 479 143 479 C148 479 156 480 160 477 C177 468 176 438 176 420 L127 420 Z " />
<glyph glyph-name="guillemotleft" unicode="&#xab;" horiz-adv-x="400" d="M50 248 C50 244 52 241 54 238 C61 229 70 222 77 214 L128 164 C145 146 162 124 182 109 C187 106 192 105 198 105 C210 105 225 113 225 127 C225 140 195 163 185 173 L107 251 L107 252 L185 329 C195 339 225 363 225 377 C225 389 213 395 202 395 C196 395 189 393 184 389 C163 374 146 352 128 333 L78 284 C70 276 62 269 55 260 C52 257 50 253 50 248 L50 248 Z M200 248 C200 245 201 241 203 238 C206 235 305 136 308 134 C313 131 317 130 323 130 C335 130 350 138 350 152 C350 155 349 159 347 162 C339 173 327 181 318 190 L257 251 L317 312 C327 321 338 330 346 341 C348 344 350 348 350 352 C350 364 338 370 327 370 C321 370 315 368 310 365 C304 361 208 266 204 259 C202 256 200 252 200 248 L200 248 Z " />
<glyph glyph-name="logicalnot" unicode="&#xac;" horiz-adv-x="325" d="M225 230 L225 177 C225 161 229 150 248 150 C260 150 275 158 275 172 L275 252 C275 264 263 270 252 270 L52 270 C40 270 25 262 25 248 C25 240 31 234 38 231 C47 228 201 230 225 230 L225 230 Z " />
<glyph glyph-name="registered" unicode="&#xae;" horiz-adv-x="550" d="M450 399 C449 391 449 381 449 375 C440 290 363 220 277 220 C179 220 100 304 100 402 C100 497 176 580 273 580 C359 580 438 510 448 424 C449 416 449 407 450 399 L450 399 Z M500 402 C500 524 398 620 277 620 C155 620 50 522 50 398 C50 276 152 180 273 180 C395 180 500 278 500 402 L500 402 Z M319 382 C351 389 375 418 375 452 C375 493 343 520 302 520 L203 520 C191 520 175 512 175 498 L175 298 C175 286 187 280 198 280 C208 280 218 285 223 295 C227 302 225 455 225 480 L297 480 C315 480 325 465 325 448 C325 422 312 420 293 420 C290 420 288 420 285 420 C271 420 250 417 250 398 C250 395 251 393 252 390 C255 384 330 287 332 285 C336 281 342 280 348 280 C360 280 375 288 375 302 C375 312 328 370 319 382 L319 382 Z " />
<glyph glyph-name="macron" unicode="&#xaf;" horiz-adv-x="250" d="M48 530 L198 530 C210 530 225 538 225 552 C225 564 213 570 202 570 L52 570 C40 570 25 562 25 548 C25 536 37 530 48 530 L48 530 Z " />
<glyph glyph-name="degree" unicode="&#xb0;" horiz-adv-x="200" d="M102 420 C86 420 75 437 75 452 C75 465 83 480 98 480 C111 480 121 469 124 457 C125 455 125 452 126 450 C122 436 121 420 102 420 L102 420 Z M175 452 C175 492 141 520 102 520 C62 520 25 490 25 448 C25 408 59 380 98 380 C138 380 175 410 175 452 L175 452 Z " />
<glyph glyph-name="plusminus" unicode="&#xb1;" horiz-adv-x="400" d="M225 230 L298 230 C310 230 325 238 325 252 C325 264 313 270 302 270 L225 270 L225 352 C225 364 213 370 202 370 C190 370 175 362 175 348 L175 270 L102 270 C90 270 75 262 75 248 C75 236 87 230 98 230 L175 230 L175 148 C175 136 187 130 198 130 C210 130 225 138 225 152 L225 230 Z M298 -20 C310 -20 325 -12 325 2 C325 14 313 20 302 20 L102 20 C90 20 75 12 75 -2 C75 -14 87 -20 98 -20 L298 -20 Z " />
<glyph glyph-name="twosuperior" unicode="&#xb2;" horiz-adv-x="250" d="M123 580 C155 580 175 555 175 524 C175 475 98 384 65 348 C53 335 38 323 29 309 C27 305 25 302 25 298 C25 286 37 280 48 280 L198 280 C210 280 225 288 225 302 C225 322 201 320 187 320 L99 320 C140 366 225 464 225 527 C225 583 182 620 127 620 C71 620 25 582 25 524 C25 511 36 505 48 505 C62 505 73 513 75 527 C79 557 88 580 123 580 L123 580 Z " />
<glyph glyph-name="threesuperior" unicode="&#xb3;" horiz-adv-x="250" d="M25 370 C25 351 36 324 49 310 C68 288 94 280 123 280 C182 280 225 320 225 380 L225 427 C225 473 193 513 146 519 C158 533 213 587 213 602 C213 614 201 620 190 620 L65 620 C53 620 38 612 38 598 C38 574 77 580 92 580 L141 580 C129 566 75 513 75 498 C75 461 141 502 167 454 C177 436 176 413 176 392 C176 358 171 320 127 320 C98 320 82 337 76 365 C73 382 75 395 52 395 C37 395 25 385 25 370 L25 370 Z " />
<glyph glyph-name="acute" unicode="&#xb4;" horiz-adv-x="175" d="M25 523 C25 511 37 505 48 505 C54 505 60 507 65 510 C70 513 142 586 146 591 C148 594 150 598 150 602 C150 614 138 620 127 620 C121 620 115 618 110 615 C105 612 33 539 29 534 C27 531 25 527 25 523 L25 523 Z " />
<glyph glyph-name="uni00B5" unicode="&#xb5;" horiz-adv-x="451" d="M125 13 C153 -11 187 -20 224 -20 L349 -20 C361 -20 376 -12 376 2 L376 402 C376 414 364 420 353 420 C341 420 332 414 327 404 C324 397 326 60 326 20 L228 20 C164 20 126 67 126 130 C126 184 126 239 126 293 C126 303 126 404 125 408 C120 416 113 420 103 420 C91 420 76 412 76 398 L76 154 C76 152 75 150 75 148 L75 -202 C75 -214 87 -220 98 -220 C110 -220 125 -212 125 -198 L125 13 Z " />
<glyph glyph-name="paragraph" unicode="&#xb6;" horiz-adv-x="475" d="M275 -2 C275 -14 287 -20 298 -20 C310 -20 325 -12 325 2 L325 580 L375 580 L375 -2 C375 -14 387 -20 398 -20 C410 -20 425 -12 425 2 L425 602 C425 614 413 620 402 620 L177 620 C91 620 25 561 25 473 C25 414 61 355 119 338 C141 331 164 330 187 330 C202 330 225 332 225 352 C225 394 134 337 90 420 C81 436 75 459 75 477 C75 535 112 580 173 580 L275 580 L275 -2 Z " />
<glyph glyph-name="periodcentered" unicode="&#xb7;" horiz-adv-x="200" d="M150 252 C150 278 127 295 102 295 C76 295 50 276 50 248 C50 222 73 205 98 205 C124 205 150 224 150 252 L150 252 Z " />
<glyph glyph-name="cedilla" unicode="&#xb8;" horiz-adv-x="200" d="M125 -55 L125 -102 C125 -116 118 -130 102 -130 C62 -130 90 -80 52 -80 C40 -80 25 -88 25 -102 C25 -143 57 -170 98 -170 C143 -170 175 -140 175 -95 L175 -48 C175 -7 143 20 102 20 C90 20 75 12 75 -2 C75 -34 125 -2 125 -55 L125 -55 Z " />
<glyph glyph-name="onesuperior" unicode="&#xb9;" horiz-adv-x="175" d="M100 580 C100 525 100 469 100 414 C100 404 100 296 101 292 C106 284 113 280 123 280 C135 280 150 288 150 302 L150 602 C150 614 138 620 127 620 L52 620 C40 620 25 612 25 598 C25 577 52 580 66 580 L100 580 Z " />
<glyph glyph-name="ordmasculine" unicode="&#xba;" horiz-adv-x="250" d="M74 376 C76 387 75 400 75 410 L75 508 C75 543 79 580 123 580 C155 580 175 554 175 523 L175 431 C175 419 176 406 176 394 C176 359 171 320 127 320 C98 320 82 337 76 365 C75 369 75 373 74 376 L74 376 Z M25 373 C25 317 68 280 123 280 C182 280 225 320 225 380 L225 527 C225 583 182 620 127 620 C68 620 25 580 25 520 L25 373 Z " />
<glyph glyph-name="guillemotright" unicode="&#xbb;" horiz-adv-x="400" d="M293 249 L293 248 L215 171 C205 161 175 137 175 123 C175 111 187 105 198 105 C204 105 211 107 216 111 C237 126 254 148 272 167 L322 216 C330 224 338 231 345 240 C348 243 350 247 350 252 C350 256 348 259 346 262 C339 271 330 278 323 286 L272 336 C255 354 238 376 218 391 C213 394 208 395 202 395 C190 395 175 387 175 373 C175 360 205 337 215 327 L293 249 Z M143 249 L83 188 C73 179 62 170 54 159 C52 156 50 152 50 148 C50 136 62 130 73 130 C79 130 85 132 90 135 C96 139 192 234 196 241 C198 244 200 248 200 252 C200 255 199 259 197 262 C194 265 95 364 92 366 C87 369 83 370 77 370 C65 370 50 362 50 348 C50 345 51 341 53 338 C61 327 73 319 82 310 L143 249 Z " />
<glyph glyph-name="onequarter" unicode="&#xbc;" horiz-adv-x="600" d="M450 652 C450 664 438 670 427 670 C415 670 407 665 401 654 C394 641 388 617 383 603 L340 482 C299 368 258 254 217 139 C212 125 150 -46 150 -52 C150 -64 162 -70 173 -70 C185 -70 193 -65 199 -54 C206 -41 212 -17 217 -3 L260 118 C301 232 343 346 383 461 C388 475 450 646 450 652 L450 652 Z M500 70 L406 70 C416 102 475 288 475 302 C475 314 463 320 452 320 C442 320 434 316 428 308 C426 305 350 54 350 48 C350 36 362 30 373 30 L500 30 L500 -2 C500 -14 512 -20 523 -20 C535 -20 550 -12 550 2 L550 102 C550 114 538 120 527 120 C515 120 500 112 500 98 L500 70 Z M125 580 C125 525 125 469 125 414 C125 404 125 296 126 292 C131 284 138 280 148 280 C160 280 175 288 175 302 L175 602 C175 614 163 620 152 620 L77 620 C65 620 50 612 50 598 C50 577 77 580 91 580 L125 580 Z " />
<glyph glyph-name="onehalf" unicode="&#xbd;" horiz-adv-x="600" d="M425 652 C425 664 413 670 402 670 C390 670 382 665 376 654 C369 641 363 617 358 603 L315 482 C274 368 233 254 192 139 C187 125 125 -46 125 -52 C125 -64 137 -70 148 -70 C160 -70 168 -65 174 -54 C181 -41 187 -17 192 -3 L235 118 C276 232 318 346 358 461 C363 475 425 646 425 652 L425 652 Z M448 280 C480 280 500 255 500 224 C500 175 423 84 390 48 C378 35 363 23 354 9 C352 5 350 2 350 -2 C350 -14 362 -20 373 -20 L523 -20 C535 -20 550 -12 550 2 C550 22 526 20 512 20 L424 20 C465 66 550 164 550 227 C550 283 507 320 452 320 C396 320 350 282 350 224 C350 211 361 205 373 205 C387 205 398 213 400 227 C404 257 413 280 448 280 L448 280 Z M100 580 C100 525 100 469 100 414 C100 404 100 296 101 292 C106 284 113 280 123 280 C135 280 150 288 150 302 L150 602 C150 614 138 620 127 620 L52 620 C40 620 25 612 25 598 C25 577 52 580 66 580 L100 580 Z " />
<glyph glyph-name="threequarters" unicode="&#xbe;" horiz-adv-x="650" d="M500 652 C500 664 488 670 477 670 C465 670 457 665 451 654 C444 641 438 617 433 603 L390 482 C349 368 308 254 267 139 C262 125 200 -46 200 -52 C200 -64 212 -70 223 -70 C235 -70 243 -65 249 -54 C256 -41 262 -17 267 -3 L310 118 C351 232 393 346 433 461 C438 475 500 646 500 652 L500 652 Z M550 70 L456 70 C466 102 525 288 525 302 C525 314 513 320 502 320 C492 320 484 316 478 308 C476 305 400 54 400 48 C400 36 412 30 423 30 L550 30 L550 -2 C550 -14 562 -20 573 -20 C585 -20 600 -12 600 2 L600 102 C600 114 588 120 577 120 C565 120 550 112 550 98 L550 70 Z M50 370 C50 351 61 324 74 310 C93 288 119 280 148 280 C207 280 250 320 250 380 L250 427 C250 473 218 513 171 519 C183 533 238 587 238 602 C238 614 226 620 215 620 L90 620 C78 620 63 612 63 598 C63 574 102 580 117 580 L166 580 C154 566 100 513 100 498 C100 461 166 502 192 454 C202 436 201 413 201 392 C201 358 196 320 152 320 C123 320 107 337 101 365 C98 382 100 395 77 395 C62 395 50 385 50 370 L50 370 Z " />
<glyph glyph-name="questiondown" unicode="&#xbf;" horiz-adv-x="400" d="M198 -180 C146 -180 114 -152 103 -102 C99 -81 104 -55 73 -55 C62 -55 50 -61 50 -74 C50 -161 117 -220 202 -220 C241 -220 279 -210 308 -183 C333 -159 350 -118 350 -83 C350 57 229 10 225 142 C225 146 225 151 225 155 C225 179 233 220 198 220 C167 220 175 185 175 164 C175 158 175 152 175 146 C180 -12 300 38 300 -80 C300 -139 257 -180 198 -180 L198 -180 Z M175 327 C175 313 190 305 202 305 C213 305 225 311 225 323 L225 398 C225 412 210 420 198 420 C187 420 175 414 175 402 L175 327 Z " />
<glyph glyph-name="Agrave" unicode="&#xc0;" horiz-adv-x="500" d="M364 120 C344 120 323 120 304 120 C247 120 191 120 135 120 L249 513 L364 120 Z M123 79 C147 78 172 79 196 79 C256 79 316 79 376 79 L401 -6 C404 -16 413 -20 423 -20 C435 -20 450 -12 450 2 C450 10 288 560 274 606 C271 616 262 620 252 620 C241 620 229 614 226 603 C213 557 50 6 50 -2 C50 -14 62 -20 73 -20 C84 -20 96 -14 99 -3 L123 79 Z M248 680 C260 680 275 688 275 702 C275 706 274 708 272 712 C269 715 195 789 192 791 C187 794 183 795 177 795 C165 795 150 787 150 773 C150 769 151 767 153 763 C156 760 230 686 233 684 C238 681 242 680 248 680 L248 680 Z " />
<glyph glyph-name="Aacute" unicode="&#xc1;" horiz-adv-x="500" d="M364 120 C344 120 323 120 304 120 C247 120 191 120 135 120 L249 513 L364 120 Z M123 79 C147 78 172 79 196 79 C256 79 316 79 376 79 L401 -6 C404 -16 413 -20 423 -20 C435 -20 450 -12 450 2 C450 10 288 560 274 606 C271 616 262 620 252 620 C241 620 229 614 226 603 C213 557 50 6 50 -2 C50 -14 62 -20 73 -20 C84 -20 96 -14 99 -3 L123 79 Z M225 698 C225 686 237 680 248 680 C254 680 260 682 265 685 C270 688 342 761 346 766 C348 769 350 773 350 777 C350 789 338 795 327 795 C321 795 315 793 310 790 C305 787 233 714 229 709 C227 706 225 702 225 698 L225 698 Z " />
<glyph glyph-name="Acircumflex" unicode="&#xc2;" horiz-adv-x="500" d="M364 120 C344 120 323 120 304 120 C247 120 191 120 135 120 L249 513 L364 120 Z M123 79 C147 78 172 79 196 79 C256 79 316 79 376 79 L401 -6 C404 -16 413 -20 423 -20 C435 -20 450 -12 450 2 C450 10 288 560 274 606 C271 616 262 620 252 620 C241 620 229 614 226 603 C213 557 50 6 50 -2 C50 -14 62 -20 73 -20 C84 -20 96 -14 99 -3 L123 79 Z M249 743 C259 732 300 688 309 683 C313 681 318 680 323 680 C335 680 350 688 350 702 C350 706 349 708 347 712 C344 715 270 789 267 791 C262 794 258 795 252 795 C246 795 240 793 235 790 C230 787 158 714 154 709 C152 706 150 702 150 698 C150 686 162 680 173 680 C178 680 183 681 188 684 C197 689 238 732 249 743 L249 743 Z " />
<glyph glyph-name="Atilde" unicode="&#xc3;" horiz-adv-x="500" d="M364 120 C344 120 323 120 304 120 C247 120 191 120 135 120 L249 513 L364 120 Z M123 79 C147 78 172 79 196 79 C256 79 316 79 376 79 L401 -6 C404 -16 413 -20 423 -20 C435 -20 450 -12 450 2 C450 10 288 560 274 606 C271 616 262 620 252 620 C241 620 229 614 226 603 C213 557 50 6 50 -2 C50 -14 62 -20 73 -20 C84 -20 96 -14 99 -3 L123 79 Z M302 720 C271 720 262 770 202 770 C161 770 125 742 125 698 C125 686 137 680 148 680 C190 680 162 730 198 730 C229 730 238 680 298 680 C339 680 375 708 375 752 C375 764 363 770 352 770 C310 770 338 720 302 720 L302 720 Z " />
<glyph glyph-name="Adieresis" unicode="&#xc4;" horiz-adv-x="500" d="M364 120 C344 120 323 120 304 120 C247 120 191 120 135 120 L249 513 L364 120 Z M123 79 C147 78 172 79 196 79 C256 79 316 79 376 79 L401 -6 C404 -16 413 -20 423 -20 C435 -20 450 -12 450 2 C450 10 288 560 274 606 C271 616 262 620 252 620 C241 620 229 614 226 603 C213 557 50 6 50 -2 C50 -14 62 -20 73 -20 C84 -20 96 -14 99 -3 L123 79 Z M175 698 C175 686 187 680 198 680 C210 680 225 688 225 702 L225 777 C225 789 213 795 202 795 C190 795 175 787 175 773 L175 698 Z M275 698 C275 686 287 680 298 680 C310 680 325 688 325 702 L325 777 C325 789 313 795 302 795 C290 795 275 787 275 773 L275 698 Z " />
<glyph glyph-name="Aring" unicode="&#xc5;" horiz-adv-x="500" d="M364 120 C344 120 323 120 304 120 C247 120 191 120 135 120 L249 513 L364 120 Z M253 642 C222 642 199 670 199 700 C199 728 218 755 248 755 C279 755 302 726 302 696 C302 668 282 642 253 642 L253 642 Z M352 700 C352 755 306 795 252 795 C197 795 149 752 149 696 C149 650 183 613 226 604 L226 603 C213 557 50 6 50 -2 C50 -14 62 -20 73 -20 C84 -20 96 -14 99 -3 L123 79 C147 78 172 79 196 79 C256 79 316 79 376 79 L401 -6 C404 -16 413 -20 423 -20 C435 -20 450 -12 450 2 C450 10 290 553 275 605 C318 616 352 653 352 700 L352 700 Z " />
<glyph glyph-name="AE" unicode="&#xc6;" horiz-adv-x="625" d="M110 120 L217 487 L273 120 L110 120 Z M227 620 C221 620 214 618 208 614 C204 611 202 607 201 602 C185 550 25 6 25 -2 C25 -14 37 -20 48 -20 C59 -20 71 -14 74 -3 L98 80 L280 80 C301 15 355 -20 423 -20 L548 -20 C560 -20 575 -12 575 2 C575 17 558 21 546 21 C517 21 489 19 460 19 C398 19 350 25 329 93 C327 98 326 104 325 108 C325 124 320 140 318 156 L291 330 L448 330 C460 330 475 338 475 352 C475 364 463 370 452 370 L285 370 L253 580 L548 580 C560 580 575 588 575 602 C575 614 563 620 552 620 L227 620 Z " />
<glyph glyph-name="Ccedilla" unicode="&#xc7;" horiz-adv-x="550" d="M300 -102 C300 -116 293 -130 277 -130 C237 -130 265 -80 227 -80 C215 -80 200 -88 200 -102 C200 -143 232 -170 273 -170 C318 -170 350 -140 350 -95 L350 -48 C350 -34 346 -22 340 -12 C366 -6 425 24 425 52 C425 64 413 71 402 71 C383 71 382 60 370 48 C347 26 308 20 277 20 C206 20 157 54 135 122 C128 141 125 160 125 180 L125 427 C125 445 129 464 135 481 C156 548 203 580 273 580 C303 580 343 574 366 553 C372 548 376 540 382 535 C386 531 392 530 398 530 C410 530 425 538 425 552 C425 574 379 600 361 607 C334 617 305 620 277 620 C161 620 75 540 75 420 L75 173 C75 123 98 63 135 28 C174 -7 222 -20 273 -20 L274 -20 C287 -23 300 -27 300 -55 L300 -102 Z " />
<glyph glyph-name="Egrave" unicode="&#xc8;" horiz-adv-x="500" d="M273 330 C285 330 300 338 300 352 C300 364 288 370 277 370 L125 370 L125 580 C184 580 242 579 301 579 C313 579 399 578 406 581 C416 584 425 591 425 602 C425 614 413 620 402 620 L102 620 C90 620 75 612 75 598 L75 49 C75 7 107 -20 148 -20 L398 -20 C410 -20 425 -12 425 2 C425 22 400 21 387 21 C338 21 289 20 241 20 C230 20 146 19 140 23 C128 30 125 43 125 56 L125 330 L273 330 Z M248 680 C260 680 275 688 275 702 C275 706 274 708 272 712 C269 715 195 789 192 791 C187 794 183 795 177 795 C165 795 150 787 150 773 C150 769 151 767 153 763 C156 760 230 686 233 684 C238 681 242 680 248 680 L248 680 Z " />
<glyph glyph-name="Eacute" unicode="&#xc9;" horiz-adv-x="500" d="M273 330 C285 330 300 338 300 352 C300 364 288 370 277 370 L125 370 L125 580 C184 580 242 579 301 579 C313 579 399 578 406 581 C416 584 425 591 425 602 C425 614 413 620 402 620 L102 620 C90 620 75 612 75 598 L75 49 C75 7 107 -20 148 -20 L398 -20 C410 -20 425 -12 425 2 C425 22 400 21 387 21 C338 21 289 20 241 20 C230 20 146 19 140 23 C128 30 125 43 125 56 L125 330 L273 330 Z M225 698 C225 686 237 680 248 680 C254 680 260 682 265 685 C270 688 342 761 346 766 C348 769 350 773 350 777 C350 789 338 795 327 795 C321 795 315 793 310 790 C305 787 233 714 229 709 C227 706 225 702 225 698 L225 698 Z " />
<glyph glyph-name="Ecircumflex" unicode="&#xca;" horiz-adv-x="500" d="M273 330 C285 330 300 338 300 352 C300 364 288 370 277 370 L125 370 L125 580 C184 580 242 579 301 579 C313 579 399 578 406 581 C416 584 425 591 425 602 C425 614 413 620 402 620 L102 620 C90 620 75 612 75 598 L75 49 C75 7 107 -20 148 -20 L398 -20 C410 -20 425 -12 425 2 C425 22 400 21 387 21 C338 21 289 20 241 20 C230 20 146 19 140 23 C128 30 125 43 125 56 L125 330 L273 330 Z M249 743 C259 732 300 688 309 683 C313 681 318 680 323 680 C335 680 350 688 350 702 C350 706 349 708 347 712 C344 715 270 789 267 791 C262 794 258 795 252 795 C246 795 240 793 235 790 C230 787 158 714 154 709 C152 706 150 702 150 698 C150 686 162 680 173 680 C178 680 183 681 188 684 C197 689 238 732 249 743 L249 743 Z " />
<glyph glyph-name="Edieresis" unicode="&#xcb;" horiz-adv-x="450" d="M248 330 C260 330 275 338 275 352 C275 364 263 370 252 370 L100 370 L100 580 C159 580 217 579 276 579 C288 579 374 578 381 581 C391 584 400 591 400 602 C400 614 388 620 377 620 L77 620 C65 620 50 612 50 598 L50 49 C50 7 82 -20 123 -20 L373 -20 C385 -20 400 -12 400 2 C400 22 375 21 362 21 C313 21 264 20 216 20 C205 20 121 19 115 23 C103 30 100 43 100 56 L100 330 L248 330 Z M150 698 C150 686 162 680 173 680 C185 680 200 688 200 702 L200 777 C200 789 188 795 177 795 C165 795 150 787 150 773 L150 698 Z M250 698 C250 686 262 680 273 680 C285 680 300 688 300 702 L300 777 C300 789 288 795 277 795 C265 795 250 787 250 773 L250 698 Z " />
<glyph glyph-name="Igrave" unicode="&#xcc;" horiz-adv-x="250" d="M150 2 L150 602 C150 614 138 620 127 620 C115 620 100 612 100 598 L100 -2 C100 -14 112 -20 123 -20 C135 -20 150 -12 150 2 L150 2 Z M123 680 C135 680 150 688 150 702 C150 706 149 708 147 712 C144 715 70 789 67 791 C62 794 58 795 52 795 C40 795 25 787 25 773 C25 769 26 767 28 763 C31 760 105 686 108 684 C113 681 117 680 123 680 L123 680 Z " />
<glyph glyph-name="Iacute" unicode="&#xcd;" horiz-adv-x="250" d="M150 2 L150 602 C150 614 138 620 127 620 C115 620 100 612 100 598 L100 -2 C100 -14 112 -20 123 -20 C135 -20 150 -12 150 2 L150 2 Z M100 698 C100 686 112 680 123 680 C129 680 135 682 140 685 C145 688 217 761 221 766 C223 769 225 773 225 777 C225 789 213 795 202 795 C196 795 190 793 185 790 C180 787 108 714 104 709 C102 706 100 702 100 698 L100 698 Z " />
<glyph glyph-name="Icircumflex" unicode="&#xce;" horiz-adv-x="250" d="M150 2 L150 602 C150 614 138 620 127 620 C115 620 100 612 100 598 L100 -2 C100 -14 112 -20 123 -20 C135 -20 150 -12 150 2 L150 2 Z M124 743 C134 732 175 688 184 683 C188 681 193 680 198 680 C210 680 225 688 225 702 C225 706 224 708 222 712 C219 715 145 789 142 791 C137 794 133 795 127 795 C121 795 115 793 110 790 C105 787 33 714 29 709 C27 706 25 702 25 698 C25 686 37 680 48 680 C53 680 58 681 63 684 C72 689 113 732 124 743 L124 743 Z " />
<glyph glyph-name="Idieresis" unicode="&#xcf;" horiz-adv-x="250" d="M150 2 L150 602 C150 614 138 620 127 620 C115 620 100 612 100 598 L100 -2 C100 -14 112 -20 123 -20 C135 -20 150 -12 150 2 L150 2 Z M50 773 L50 698 C50 686 62 680 73 680 C85 680 100 688 100 702 L100 777 C100 789 88 795 77 795 C65 795 50 787 50 773 L50 773 Z M150 773 L150 698 C150 686 162 680 173 680 C185 680 200 688 200 702 L200 777 C200 789 188 795 177 795 C165 795 150 787 150 773 L150 773 Z " />
<glyph glyph-name="Eth" unicode="&#xd0;" horiz-adv-x="575" d="M100 330 L100 -2 C100 -14 112 -20 123 -20 C135 -20 150 -12 150 2 L150 330 L273 330 C285 330 300 338 300 352 C300 364 288 370 277 370 L150 370 L150 580 L273 580 C355 580 412 541 438 462 C446 441 450 418 450 395 L450 173 C450 108 406 47 343 29 C314 20 284 20 253 20 C241 20 225 13 225 -2 C225 -19 244 -20 257 -20 C300 -20 340 -17 380 0 C452 29 500 102 500 180 L500 402 C500 458 473 527 431 566 C388 605 334 620 277 620 L127 620 C115 620 100 612 100 598 L100 370 L77 370 C65 370 50 362 50 348 C50 336 62 330 73 330 L100 330 Z " />
<glyph glyph-name="Ntilde" unicode="&#xd1;" horiz-adv-x="550" d="M475 602 C475 614 463 620 452 620 C440 620 425 612 425 598 L425 308 L154 579 C142 592 121 620 102 620 C90 620 75 612 75 598 L75 -2 C75 -14 87 -20 98 -20 C110 -20 125 -12 125 2 L125 542 L401 266 C407 259 416 248 425 240 L425 -2 C425 -14 437 -20 448 -20 C460 -20 475 -12 475 2 L475 602 Z M327 720 C296 720 287 770 227 770 C186 770 150 742 150 698 C150 686 162 680 173 680 C215 680 187 730 223 730 C254 730 263 680 323 680 C364 680 400 708 400 752 C400 764 388 770 377 770 C335 770 363 720 327 720 L327 720 Z " />
<glyph glyph-name="Ograve" unicode="&#xd2;" horiz-adv-x="550" d="M426 176 C423 164 421 139 419 132 C402 59 352 20 277 20 C206 20 157 54 135 122 C128 141 125 160 125 180 L125 427 C125 445 129 464 135 481 C157 548 203 580 273 580 C344 580 393 546 415 478 C421 461 425 442 425 424 C425 374 425 325 425 276 C425 269 425 200 426 176 L426 176 Z M475 427 C475 477 452 537 415 572 C377 607 328 620 277 620 C159 620 75 539 75 420 L75 173 C75 123 98 63 135 28 C173 -7 222 -20 273 -20 C386 -20 475 58 475 176 L475 427 Z M273 680 C285 680 300 688 300 702 C300 706 299 708 297 712 C294 715 220 789 217 791 C212 794 208 795 202 795 C190 795 175 787 175 773 C175 769 176 767 178 763 C181 760 255 686 258 684 C263 681 267 680 273 680 L273 680 Z " />
<glyph glyph-name="Oacute" unicode="&#xd3;" horiz-adv-x="550" d="M426 176 C423 164 421 139 419 132 C402 59 352 20 277 20 C206 20 157 54 135 122 C128 141 125 160 125 180 L125 427 C125 445 129 464 135 481 C157 548 203 580 273 580 C344 580 393 546 415 478 C421 461 425 442 425 424 C425 374 425 325 425 276 C425 269 425 200 426 176 L426 176 Z M475 427 C475 477 452 537 415 572 C377 607 328 620 277 620 C159 620 75 539 75 420 L75 173 C75 123 98 63 135 28 C173 -7 222 -20 273 -20 C386 -20 475 58 475 176 L475 427 Z M250 698 C250 686 262 680 273 680 C279 680 285 682 290 685 C295 688 367 761 371 766 C373 769 375 773 375 777 C375 789 363 795 352 795 C346 795 340 793 335 790 C330 787 258 714 254 709 C252 706 250 702 250 698 L250 698 Z " />
<glyph glyph-name="Ocircumflex" unicode="&#xd4;" horiz-adv-x="550" d="M426 176 C423 164 421 139 419 132 C402 59 352 20 277 20 C206 20 157 54 135 122 C128 141 125 160 125 180 L125 427 C125 445 129 464 135 481 C157 548 203 580 273 580 C344 580 393 546 415 478 C421 461 425 442 425 424 C425 374 425 325 425 276 C425 269 425 200 426 176 L426 176 Z M475 427 C475 477 452 537 415 572 C377 607 328 620 277 620 C159 620 75 539 75 420 L75 173 C75 123 98 63 135 28 C173 -7 222 -20 273 -20 C386 -20 475 58 475 176 L475 427 Z M274 743 C284 732 325 688 334 683 C338 681 343 680 348 680 C360 680 375 688 375 702 C375 706 374 708 372 712 C369 715 295 789 292 791 C287 794 283 795 277 795 C271 795 265 793 260 790 C255 787 183 714 179 709 C177 706 175 702 175 698 C175 686 187 680 198 680 C203 680 208 681 213 684 C222 689 263 732 274 743 L274 743 Z " />
<glyph glyph-name="Otilde" unicode="&#xd5;" horiz-adv-x="550" d="M426 176 C423 164 421 139 419 132 C402 59 352 20 277 20 C206 20 157 54 135 122 C128 141 125 160 125 180 L125 427 C125 445 129 464 135 481 C157 548 203 580 273 580 C344 580 393 546 415 478 C421 461 425 442 425 424 C425 374 425 325 425 276 C425 269 425 200 426 176 L426 176 Z M475 427 C475 477 452 537 415 572 C377 607 328 620 277 620 C159 620 75 539 75 420 L75 173 C75 123 98 63 135 28 C173 -7 222 -20 273 -20 C386 -20 475 58 475 176 L475 427 Z M327 720 C296 720 287 770 227 770 C186 770 150 742 150 698 C150 686 162 680 173 680 C215 680 187 730 223 730 C254 730 263 680 323 680 C364 680 400 708 400 752 C400 764 388 770 377 770 C335 770 363 720 327 720 L327 720 Z " />
<glyph glyph-name="Odieresis" unicode="&#xd6;" horiz-adv-x="550" d="M426 176 C423 164 421 139 419 132 C402 59 352 20 277 20 C206 20 157 54 135 122 C128 141 125 160 125 180 L125 427 C125 445 129 464 135 481 C157 548 203 580 273 580 C344 580 393 546 415 478 C421 461 425 442 425 424 C425 374 425 325 425 276 C425 269 425 200 426 176 L426 176 Z M475 427 C475 477 452 537 415 572 C377 607 328 620 277 620 C159 620 75 539 75 420 L75 173 C75 123 98 63 135 28 C173 -7 222 -20 273 -20 C386 -20 475 58 475 176 L475 427 Z M200 698 C200 686 212 680 223 680 C235 680 250 688 250 702 L250 777 C250 789 238 795 227 795 C215 795 200 787 200 773 L200 698 Z M300 698 C300 686 312 680 323 680 C335 680 350 688 350 702 L350 777 C350 789 338 795 327 795 C315 795 300 787 300 773 L300 698 Z " />
<glyph glyph-name="multiply" unicode="&#xd7;" horiz-adv-x="350" d="M273 130 C285 130 300 138 300 152 C300 165 267 191 257 201 L207 251 L257 302 C267 312 300 338 300 352 C300 364 288 370 277 370 C258 370 243 349 230 336 L176 282 L118 341 C107 352 95 370 77 370 C65 370 50 362 50 348 C50 335 83 309 93 299 L143 249 L93 198 C83 188 50 162 50 148 C50 136 62 130 73 130 C92 130 107 152 120 164 L174 218 L232 159 C243 148 255 130 273 130 L273 130 Z " />
<glyph glyph-name="Oslash" unicode="&#xd8;" horiz-adv-x="500" d="M290 482 C240 343 190 205 140 66 C115 95 100 142 100 180 L100 427 C100 445 104 464 110 481 C132 548 178 580 248 580 C275 580 299 575 319 565 L290 482 Z M210 118 C260 257 310 395 360 534 C383 507 400 460 400 424 C400 374 400 325 400 276 C400 269 400 200 401 176 C398 164 396 139 394 132 C377 59 327 20 252 20 C225 20 201 25 181 35 L210 118 Z M400 652 C400 664 388 670 377 670 C365 670 357 665 351 654 C345 642 339 621 334 606 C309 616 281 620 252 620 C134 620 50 539 50 420 L50 173 C50 123 73 63 110 28 C115 25 119 21 123 18 C111 -19 100 -49 100 -52 C100 -64 112 -70 123 -70 C135 -70 143 -65 149 -54 C155 -42 161 -21 166 -6 C191 -16 219 -20 248 -20 C361 -20 450 58 450 176 L450 427 C450 477 427 537 390 572 C385 575 381 579 377 582 C389 619 400 649 400 652 L400 652 Z " />
<glyph glyph-name="Ugrave" unicode="&#xd9;" horiz-adv-x="550" d="M75 598 L75 173 C75 123 98 63 135 28 C173 -7 222 -20 273 -20 C391 -20 475 61 475 180 L475 602 C475 614 463 620 452 620 C429 620 425 605 425 585 C425 454 426 323 426 191 C426 95 382 20 277 20 C206 20 157 54 135 122 C129 139 125 158 125 176 L125 592 C125 609 122 620 102 620 C90 620 75 612 75 598 L75 598 Z M273 680 C285 680 300 688 300 702 C300 706 299 708 297 712 C294 715 220 789 217 791 C212 794 208 795 202 795 C190 795 175 787 175 773 C175 769 176 767 178 763 C181 760 255 686 258 684 C263 681 267 680 273 680 L273 680 Z " />
<glyph glyph-name="Uacute" unicode="&#xda;" horiz-adv-x="550" d="M75 598 L75 173 C75 123 98 63 135 28 C173 -7 222 -20 273 -20 C391 -20 475 61 475 180 L475 602 C475 614 463 620 452 620 C429 620 425 605 425 585 C425 454 426 323 426 191 C426 95 382 20 277 20 C206 20 157 54 135 122 C129 139 125 158 125 176 L125 592 C125 609 122 620 102 620 C90 620 75 612 75 598 L75 598 Z M250 698 C250 686 262 680 273 680 C279 680 285 682 290 685 C295 688 367 761 371 766 C373 769 375 773 375 777 C375 789 363 795 352 795 C346 795 340 793 335 790 C330 787 258 714 254 709 C252 706 250 702 250 698 L250 698 Z " />
<glyph glyph-name="Ucircumflex" unicode="&#xdb;" horiz-adv-x="550" d="M75 598 L75 173 C75 123 98 63 135 28 C173 -7 222 -20 273 -20 C391 -20 475 61 475 180 L475 602 C475 614 463 620 452 620 C429 620 425 605 425 585 C425 454 426 323 426 191 C426 95 382 20 277 20 C206 20 157 54 135 122 C129 139 125 158 125 176 L125 592 C125 609 122 620 102 620 C90 620 75 612 75 598 L75 598 Z M274 743 C284 732 325 688 334 683 C338 681 343 680 348 680 C360 680 375 688 375 702 C375 706 374 708 372 712 C369 715 295 789 292 791 C287 794 283 795 277 795 C271 795 265 793 260 790 C255 787 183 714 179 709 C177 706 175 702 175 698 C175 686 187 680 198 680 C203 680 208 681 213 684 C222 689 263 732 274 743 L274 743 Z " />
<glyph glyph-name="Udieresis" unicode="&#xdc;" horiz-adv-x="550" d="M75 598 L75 173 C75 123 98 63 135 28 C173 -7 222 -20 273 -20 C391 -20 475 61 475 180 L475 602 C475 614 463 620 452 620 C429 620 425 605 425 585 C425 454 426 323 426 191 C426 95 382 20 277 20 C206 20 157 54 135 122 C129 139 125 158 125 176 L125 592 C125 609 122 620 102 620 C90 620 75 612 75 598 L75 598 Z M200 773 L200 698 C200 686 212 680 223 680 C235 680 250 688 250 702 L250 777 C250 789 238 795 227 795 C215 795 200 787 200 773 L200 773 Z M300 773 L300 698 C300 686 312 680 323 680 C335 680 350 688 350 702 L350 777 C350 789 338 795 327 795 C315 795 300 787 300 773 L300 773 Z " />
<glyph glyph-name="Yacute" unicode="&#xdd;" horiz-adv-x="494" d="M275 320 C291 342 315 387 328 408 L404 533 C411 544 444 592 444 602 C444 614 432 620 421 620 C413 620 406 617 400 612 C389 601 365 556 356 540 L251 370 L143 539 C130 559 111 597 95 613 C91 618 84 620 77 620 C65 620 50 612 50 598 C50 588 106 506 109 502 L225 318 L225 -2 C225 -14 237 -20 248 -20 C260 -20 275 -12 275 2 L275 320 Z M225 698 C225 686 237 680 248 680 C254 680 260 682 265 685 C270 688 342 761 346 766 C348 769 350 773 350 777 C350 789 338 795 327 795 C321 795 315 793 310 790 C305 787 233 714 229 709 C227 706 225 702 225 698 L225 698 Z " />
<glyph glyph-name="Thorn" unicode="&#xde;" horiz-adv-x="400" d="M50 -2 C50 -14 62 -20 73 -20 C85 -20 94 -14 99 -4 C102 2 100 338 100 380 L198 380 C262 380 300 332 300 270 L300 223 C300 206 295 185 287 169 C249 93 178 137 156 111 C153 107 151 103 151 98 C151 81 170 80 183 80 C207 80 229 81 252 88 C314 107 350 167 350 230 L350 277 C350 314 333 357 306 383 C278 410 241 420 202 420 L100 420 L100 502 C100 514 88 520 77 520 C65 520 50 512 50 498 L50 -2 Z " />
<glyph glyph-name="germandbls" unicode="&#xdf;" horiz-adv-x="625" d="M150 380 L150 -2 C150 -14 162 -20 173 -20 C207 -20 200 13 200 36 C200 157 199 277 199 398 C200 399 200 400 200 402 C200 403 200 404 199 405 C199 425 199 444 199 463 C199 528 227 580 298 580 L428 580 L327 464 C316 452 275 412 275 398 C275 381 292 380 306 380 C337 380 367 379 396 367 C462 340 500 267 500 198 C500 130 463 57 397 32 C371 21 343 20 315 20 C299 20 275 19 275 -2 C275 -19 294 -20 307 -20 C347 -20 384 -18 422 -2 C501 32 550 117 550 202 C550 259 524 327 481 366 C443 401 397 416 346 420 L448 536 C459 548 500 588 500 602 C500 614 488 620 477 620 L302 620 C214 620 150 559 150 470 L150 420 L102 420 C90 420 75 412 75 398 C75 386 87 380 98 380 L150 380 Z " />
<glyph glyph-name="agrave" unicode="&#xe0;" horiz-adv-x="375" d="M75 102 C75 135 93 170 128 178 C137 180 147 180 156 180 C196 180 235 179 275 179 C275 155 275 131 275 107 C275 97 275 -4 276 -8 C281 -16 288 -20 298 -20 C310 -20 325 -12 325 2 L325 277 C325 314 308 357 281 383 C253 410 216 420 177 420 L127 420 C115 420 100 412 100 398 C100 373 146 380 162 380 C174 380 187 380 199 377 C249 367 275 319 275 270 C275 254 275 237 275 220 L152 220 C81 220 25 171 25 98 C25 27 78 -20 148 -20 L198 -20 C210 -20 225 -12 225 2 C225 28 181 20 165 20 C132 20 104 26 87 57 C80 69 75 88 75 102 L75 102 Z M172 505 C184 505 199 513 199 527 C199 531 198 533 196 537 C193 540 119 614 116 616 C111 619 107 620 101 620 C89 620 74 612 74 598 C74 594 75 592 77 588 C80 585 154 511 157 509 C162 506 166 505 172 505 L172 505 Z " />
<glyph glyph-name="aacute" unicode="&#xe1;" horiz-adv-x="400" d="M100 102 C100 135 118 170 153 178 C162 180 172 180 181 180 C221 180 260 179 300 179 C300 155 300 131 300 107 C300 97 300 -4 301 -8 C306 -16 313 -20 323 -20 C335 -20 350 -12 350 2 L350 277 C350 314 333 357 306 383 C278 410 241 420 202 420 L152 420 C140 420 125 412 125 398 C125 373 171 380 187 380 C199 380 212 380 224 377 C274 367 300 319 300 270 C300 254 300 237 300 220 L177 220 C106 220 50 171 50 98 C50 27 103 -20 173 -20 L223 -20 C235 -20 250 -12 250 2 C250 28 206 20 190 20 C157 20 129 26 112 57 C105 69 100 88 100 102 L100 102 Z M174 523 C174 511 186 505 197 505 C203 505 209 507 214 510 C219 513 291 586 295 591 C297 594 299 598 299 602 C299 614 287 620 276 620 C270 620 264 618 259 615 C254 612 182 539 178 534 C176 531 174 527 174 523 L174 523 Z " />
<glyph glyph-name="acircumflex" unicode="&#xe2;" horiz-adv-x="400" d="M100 102 C100 135 118 170 153 178 C162 180 172 180 181 180 C221 180 260 179 300 179 C300 155 300 131 300 107 C300 97 300 -4 301 -8 C306 -16 313 -20 323 -20 C335 -20 350 -12 350 2 L350 277 C350 314 333 357 306 383 C278 410 241 420 202 420 L152 420 C140 420 125 412 125 398 C125 373 171 380 187 380 C199 380 212 380 224 377 C274 367 300 319 300 270 C300 254 300 237 300 220 L177 220 C106 220 50 171 50 98 C50 27 103 -20 173 -20 L223 -20 C235 -20 250 -12 250 2 C250 28 206 20 190 20 C157 20 129 26 112 57 C105 69 100 88 100 102 L100 102 Z M198 568 C208 557 249 513 258 508 C262 506 267 505 272 505 C284 505 299 513 299 527 C299 531 298 533 296 537 C293 540 219 614 216 616 C211 619 207 620 201 620 C195 620 189 618 184 615 C179 612 107 539 103 534 C101 531 99 527 99 523 C99 511 111 505 122 505 C127 505 132 506 137 509 C146 514 187 557 198 568 L198 568 Z " />
<glyph glyph-name="atilde" unicode="&#xe3;" horiz-adv-x="400" d="M100 102 C100 135 118 170 153 178 C162 180 172 180 181 180 C221 180 260 179 300 179 C300 155 300 131 300 107 C300 97 300 -4 301 -8 C306 -16 313 -20 323 -20 C335 -20 350 -12 350 2 L350 277 C350 314 333 357 306 383 C278 410 241 420 202 420 L152 420 C140 420 125 412 125 398 C125 373 171 380 187 380 C199 380 212 380 224 377 C274 367 300 319 300 270 C300 254 300 237 300 220 L177 220 C106 220 50 171 50 98 C50 27 103 -20 173 -20 L223 -20 C235 -20 250 -12 250 2 C250 28 206 20 190 20 C157 20 129 26 112 57 C105 69 100 88 100 102 L100 102 Z M251 545 C220 545 211 595 151 595 C110 595 74 567 74 523 C74 511 86 505 97 505 C139 505 111 555 147 555 C178 555 187 505 247 505 C288 505 324 533 324 577 C324 589 312 595 301 595 C259 595 287 545 251 545 L251 545 Z " />
<glyph glyph-name="adieresis" unicode="&#xe4;" horiz-adv-x="400" d="M100 102 C100 135 118 170 153 178 C162 180 172 180 181 180 C221 180 260 179 300 179 C300 155 300 131 300 107 C300 97 300 -4 301 -8 C306 -16 313 -20 323 -20 C335 -20 350 -12 350 2 L350 277 C350 314 333 357 306 383 C278 410 241 420 202 420 L152 420 C140 420 125 412 125 398 C125 373 171 380 187 380 C199 380 212 380 224 377 C274 367 300 319 300 270 C300 254 300 237 300 220 L177 220 C106 220 50 171 50 98 C50 27 103 -20 173 -20 L223 -20 C235 -20 250 -12 250 2 C250 28 206 20 190 20 C157 20 129 26 112 57 C105 69 100 88 100 102 L100 102 Z M124 523 C124 511 136 505 147 505 C159 505 174 513 174 527 L174 602 C174 614 162 620 151 620 C139 620 124 612 124 598 L124 523 Z M224 523 C224 511 236 505 247 505 C259 505 274 513 274 527 L274 602 C274 614 262 620 251 620 C239 620 224 612 224 598 L224 523 Z " />
<glyph glyph-name="aring" unicode="&#xe5;" horiz-adv-x="400" d="M203 467 C172 467 149 495 149 525 C149 553 168 580 198 580 C229 580 252 551 252 521 C252 493 232 467 203 467 L203 467 Z M100 102 C100 135 118 170 153 178 C162 180 172 180 181 180 C221 180 260 179 300 179 C300 155 300 131 300 107 C300 97 300 -4 301 -8 C306 -16 313 -20 323 -20 C335 -20 350 -12 350 2 L350 277 C350 314 333 357 306 383 C278 410 241 420 202 420 L152 420 C140 420 125 412 125 398 C125 373 171 380 187 380 C199 380 212 380 224 377 C274 367 300 319 300 270 C300 254 300 237 300 220 L177 220 C106 220 50 171 50 98 C50 27 103 -20 173 -20 L223 -20 C235 -20 250 -12 250 2 C250 28 206 20 190 20 C157 20 129 26 112 57 C105 69 100 88 100 102 L100 102 Z M302 525 C302 580 256 620 202 620 C147 620 99 577 99 521 C99 467 145 427 198 427 C252 427 302 468 302 525 L302 525 Z " />
<glyph glyph-name="ae" unicode="&#xe6;" horiz-adv-x="627" d="M327 278 C327 337 364 380 425 380 C474 380 506 355 521 309 C524 297 527 285 527 273 C527 255 526 238 526 220 C481 220 437 221 393 221 C386 221 353 221 327 220 L327 278 Z M327 180 L548 180 C579 180 575 208 576 230 C576 246 577 261 577 277 C577 313 559 358 532 383 C504 410 468 420 429 420 C374 420 328 397 301 357 C279 402 224 420 177 420 L127 420 C115 420 100 412 100 398 C100 373 146 380 162 380 C174 380 187 380 199 377 C246 367 275 320 275 274 C275 256 275 238 275 220 L152 220 C81 220 25 171 25 98 C25 27 78 -20 148 -20 L198 -20 C210 -20 225 -12 225 2 C225 28 181 20 165 20 C132 20 104 26 87 57 C80 69 75 88 75 102 C75 135 93 170 128 178 C137 180 147 180 156 180 C197 180 237 179 277 179 L277 144 C277 47 322 -20 425 -20 L473 -20 C485 -20 500 -12 500 2 C500 27 456 20 440 20 C427 20 415 20 403 23 C353 33 327 82 327 130 L327 180 Z " />
<glyph glyph-name="ccedilla" unicode="&#xe7;" horiz-adv-x="400" d="M224 -102 C224 -116 217 -130 201 -130 C161 -130 189 -80 151 -80 C139 -80 124 -88 124 -102 C124 -143 156 -170 197 -170 C242 -170 274 -140 274 -95 L274 -48 C274 -32 269 -19 261 -8 C280 1 312 22 312 40 C312 52 300 58 290 58 C262 58 262 20 202 20 C138 20 100 68 100 130 L100 277 C100 335 137 380 198 380 C256 380 262 343 285 343 C297 343 312 351 312 365 C312 381 280 401 266 407 C247 416 226 420 205 420 C115 420 50 361 50 270 L50 123 C50 86 67 43 94 17 C123 -10 159 -20 198 -20 C211 -23 224 -27 224 -55 L224 -102 Z " />
<glyph glyph-name="egrave" unicode="&#xe8;" horiz-adv-x="400" d="M299 220 C276 220 158 221 100 221 C100 238 100 256 100 274 C100 335 139 380 202 380 C249 380 279 357 293 313 C297 301 300 289 300 277 C300 258 299 239 299 220 L299 220 Z M325 180 C346 180 349 194 349 211 C349 232 350 253 350 274 C350 361 281 420 198 420 C113 420 50 364 50 278 L50 130 C50 41 114 -20 202 -20 L252 -20 C263 -20 275 -14 275 -2 C275 22 246 20 230 20 C194 20 154 19 127 48 C103 75 99 111 99 146 C99 157 99 168 99 180 L325 180 Z M198 505 C210 505 225 513 225 527 C225 531 224 533 222 537 C219 540 145 614 142 616 C137 619 133 620 127 620 C115 620 100 612 100 598 C100 594 101 592 103 588 C106 585 180 511 183 509 C188 506 192 505 198 505 L198 505 Z " />
<glyph glyph-name="eacute" unicode="&#xe9;" horiz-adv-x="400" d="M299 220 C276 220 158 221 100 221 C100 238 100 256 100 274 C100 335 139 380 202 380 C249 380 279 357 293 313 C297 301 300 289 300 277 C300 258 299 239 299 220 L299 220 Z M325 180 C346 180 349 194 349 211 C349 232 350 253 350 274 C350 361 281 420 198 420 C113 420 50 364 50 278 L50 130 C50 41 114 -20 202 -20 L252 -20 C263 -20 275 -14 275 -2 C275 22 246 20 230 20 C194 20 154 19 127 48 C103 75 99 111 99 146 C99 157 99 168 99 180 L325 180 Z M175 523 C175 511 187 505 198 505 C204 505 210 507 215 510 C220 513 292 586 296 591 C298 594 300 598 300 602 C300 614 288 620 277 620 C271 620 265 618 260 615 C255 612 183 539 179 534 C177 531 175 527 175 523 L175 523 Z " />
<glyph glyph-name="ecircumflex" unicode="&#xea;" horiz-adv-x="400" d="M299 220 C276 220 158 221 100 221 C100 238 100 256 100 274 C100 335 139 380 202 380 C249 380 279 357 293 313 C297 301 300 289 300 277 C300 258 299 239 299 220 L299 220 Z M325 180 C346 180 349 194 349 211 C349 232 350 253 350 274 C350 361 281 420 198 420 C113 420 50 364 50 278 L50 130 C50 41 114 -20 202 -20 L252 -20 C263 -20 275 -14 275 -2 C275 22 246 20 230 20 C194 20 154 19 127 48 C103 75 99 111 99 146 C99 157 99 168 99 180 L325 180 Z M199 568 C209 557 250 513 259 508 C263 506 268 505 273 505 C285 505 300 513 300 527 C300 531 299 533 297 537 C294 540 220 614 217 616 C212 619 208 620 202 620 C196 620 190 618 185 615 C180 612 108 539 104 534 C102 531 100 527 100 523 C100 511 112 505 123 505 C128 505 133 506 138 509 C147 514 188 557 199 568 L199 568 Z " />
<glyph glyph-name="edieresis" unicode="&#xeb;" horiz-adv-x="400" d="M299 220 C276 220 158 221 100 221 C100 238 100 256 100 274 C100 335 139 380 202 380 C249 380 279 357 293 313 C297 301 300 289 300 277 C300 258 299 239 299 220 L299 220 Z M325 180 C346 180 349 194 349 211 C349 232 350 253 350 274 C350 361 281 420 198 420 C113 420 50 364 50 278 L50 130 C50 41 114 -20 202 -20 L252 -20 C263 -20 275 -14 275 -2 C275 22 246 20 230 20 C194 20 154 19 127 48 C103 75 99 111 99 146 C99 157 99 168 99 180 L325 180 Z M125 523 C125 511 137 505 148 505 C160 505 175 513 175 527 L175 602 C175 614 163 620 152 620 C140 620 125 612 125 598 L125 523 Z M225 523 C225 511 237 505 248 505 C260 505 275 513 275 527 L275 602 C275 614 263 620 252 620 C240 620 225 612 225 598 L225 523 Z " />
<glyph glyph-name="igrave" unicode="&#xec;" horiz-adv-x="200" d="M75 398 L75 -2 C75 -14 87 -20 98 -20 C110 -20 125 -12 125 2 L125 402 C125 414 113 420 102 420 C90 420 75 412 75 398 L75 398 Z M98 505 C110 505 125 513 125 527 C125 531 124 533 122 537 C119 540 45 614 42 616 C37 619 33 620 27 620 C15 620 0 612 0 598 C0 594 1 592 3 588 C6 585 80 511 83 509 C88 506 92 505 98 505 L98 505 Z " />
<glyph glyph-name="iacute" unicode="&#xed;" horiz-adv-x="200" d="M75 398 L75 -2 C75 -14 87 -20 98 -20 C110 -20 125 -12 125 2 L125 402 C125 414 113 420 102 420 C90 420 75 412 75 398 L75 398 Z M75 523 C75 511 87 505 98 505 C104 505 110 507 115 510 C120 513 192 586 196 591 C198 594 200 598 200 602 C200 614 188 620 177 620 C171 620 165 618 160 615 C155 612 83 539 79 534 C77 531 75 527 75 523 L75 523 Z " />
<glyph glyph-name="icircumflex" unicode="&#xee;" horiz-adv-x="200" d="M75 398 L75 -2 C75 -14 87 -20 98 -20 C110 -20 125 -12 125 2 L125 402 C125 414 113 420 102 420 C90 420 75 412 75 398 L75 398 Z M99 568 C109 557 150 513 159 508 C163 506 168 505 173 505 C185 505 200 513 200 527 C200 531 199 533 197 537 C194 540 120 614 117 616 C112 619 108 620 102 620 C96 620 90 618 85 615 C80 612 8 539 4 534 C2 531 0 527 0 523 C0 511 12 505 23 505 C28 505 33 506 38 509 C47 514 88 557 99 568 L99 568 Z " />
<glyph glyph-name="idieresis" unicode="&#xef;" horiz-adv-x="200" d="M75 398 L75 -2 C75 -14 87 -20 98 -20 C110 -20 125 -12 125 2 L125 402 C125 414 113 420 102 420 C90 420 75 412 75 398 L75 398 Z M25 598 L25 523 C25 511 37 505 48 505 C60 505 75 513 75 527 L75 602 C75 614 63 620 52 620 C40 620 25 612 25 598 L25 598 Z M125 598 L125 523 C125 511 137 505 148 505 C160 505 175 513 175 527 L175 602 C175 614 163 620 152 620 C140 620 125 612 125 598 L125 598 Z " />
<glyph glyph-name="eth" unicode="&#xf0;" horiz-adv-x="400" d="M150 473 C150 461 162 455 173 455 C179 455 186 457 191 461 C208 473 223 491 239 508 C248 498 256 490 260 486 C261 486 261 485 262 485 C287 459 300 432 300 395 L300 123 C300 65 263 20 202 20 C138 20 100 68 100 130 L100 277 C100 294 105 315 113 331 C151 407 223 363 245 389 C248 393 250 397 250 402 C250 419 231 420 218 420 C194 420 171 419 148 412 C86 393 50 333 50 270 L50 123 C50 86 67 43 94 17 C122 -10 159 -20 198 -20 C286 -20 350 41 350 130 L350 402 C350 437 330 493 300 513 C296 518 285 529 272 542 L297 566 C305 574 314 581 320 590 C323 593 325 597 325 602 C325 614 313 620 302 620 C296 620 289 618 284 614 C268 603 255 587 241 573 C219 595 198 615 197 616 C192 619 188 620 182 620 C170 620 155 612 155 598 C155 595 157 591 158 588 C160 587 183 563 208 538 L178 509 C170 501 161 494 155 485 C152 482 150 478 150 473 L150 473 Z " />
<glyph glyph-name="ntilde" unicode="&#xf1;" horiz-adv-x="450" d="M375 2 L375 277 C375 314 358 357 331 383 C303 410 266 420 227 420 L103 420 C91 420 75 412 75 398 L75 -2 C75 -14 87 -20 98 -20 C110 -20 119 -14 124 -4 C127 3 125 340 125 380 L223 380 C287 380 325 333 325 270 C325 216 325 161 325 107 C325 97 325 -4 326 -8 C331 -16 338 -20 348 -20 C360 -20 375 -12 375 2 L375 2 Z M276 545 C245 545 236 595 176 595 C135 595 99 567 99 523 C99 511 111 505 122 505 C164 505 136 555 172 555 C203 555 212 505 272 505 C313 505 349 533 349 577 C349 589 337 595 326 595 C284 595 312 545 276 545 L276 545 Z " />
<glyph glyph-name="ograve" unicode="&#xf2;" horiz-adv-x="400" d="M198 380 C262 380 300 332 300 270 L300 123 C300 65 263 20 202 20 C154 20 122 43 107 89 C103 101 100 114 100 126 C100 154 100 182 100 210 C100 215 100 258 99 276 C101 284 101 294 103 302 C114 352 146 380 198 380 L198 380 Z M50 273 L50 123 C50 86 67 43 94 17 C122 -10 159 -20 198 -20 C286 -20 350 41 350 130 L350 277 C350 314 333 357 306 383 C278 410 241 420 202 420 C117 420 50 361 50 274 L50 273 Z M197 505 C209 505 224 513 224 527 C224 531 223 533 221 537 C218 540 144 614 141 616 C136 619 132 620 126 620 C114 620 99 612 99 598 C99 594 100 592 102 588 C105 585 179 511 182 509 C187 506 191 505 197 505 L197 505 Z " />
<glyph glyph-name="oacute" unicode="&#xf3;" horiz-adv-x="400" d="M199 380 C263 380 301 332 301 270 L301 123 C301 65 264 20 203 20 C155 20 123 43 108 89 C104 101 101 114 101 126 C101 154 101 182 101 210 C101 215 101 258 100 276 C102 284 102 294 104 302 C115 352 147 380 199 380 L199 380 Z M51 273 L51 123 C51 86 68 43 95 17 C123 -10 160 -20 199 -20 C287 -20 351 41 351 130 L351 277 C351 314 334 357 307 383 C279 410 242 420 203 420 C118 420 51 361 51 274 L51 273 Z M175 523 C175 511 187 505 198 505 C204 505 210 507 215 510 C220 513 292 586 296 591 C298 594 300 598 300 602 C300 614 288 620 277 620 C271 620 265 618 260 615 C255 612 183 539 179 534 C177 531 175 527 175 523 L175 523 Z " />
<glyph glyph-name="ocircumflex" unicode="&#xf4;" horiz-adv-x="400" d="M199 380 C263 380 301 332 301 270 L301 123 C301 65 264 20 203 20 C155 20 123 43 108 89 C104 101 101 114 101 126 C101 154 101 182 101 210 C101 215 101 258 100 276 C102 284 102 294 104 302 C115 352 147 380 199 380 L199 380 Z M51 273 L51 123 C51 86 68 43 95 17 C123 -10 160 -20 199 -20 C287 -20 351 41 351 130 L351 277 C351 314 334 357 307 383 C279 410 242 420 203 420 C118 420 51 361 51 274 L51 273 Z M199 568 C209 557 250 513 259 508 C263 506 268 505 273 505 C285 505 300 513 300 527 C300 531 299 533 297 537 C294 540 220 614 217 616 C212 619 208 620 202 620 C196 620 190 618 185 615 C180 612 108 539 104 534 C102 531 100 527 100 523 C100 511 112 505 123 505 C128 505 133 506 138 509 C147 514 188 557 199 568 L199 568 Z " />
<glyph glyph-name="otilde" unicode="&#xf5;" horiz-adv-x="400" d="M199 380 C263 380 301 332 301 270 L301 123 C301 65 264 20 203 20 C155 20 123 43 108 89 C104 101 101 114 101 126 C101 154 101 182 101 210 C101 215 101 258 100 276 C102 284 102 294 104 302 C115 352 147 380 199 380 L199 380 Z M51 273 L51 123 C51 86 68 43 95 17 C123 -10 160 -20 199 -20 C287 -20 351 41 351 130 L351 277 C351 314 334 357 307 383 C279 410 242 420 203 420 C118 420 51 361 51 274 L51 273 Z M252 545 C221 545 212 595 152 595 C111 595 75 567 75 523 C75 511 87 505 98 505 C140 505 112 555 148 555 C179 555 188 505 248 505 C289 505 325 533 325 577 C325 589 313 595 302 595 C260 595 288 545 252 545 L252 545 Z " />
<glyph glyph-name="odieresis" unicode="&#xf6;" horiz-adv-x="400" d="M199 380 C263 380 301 332 301 270 L301 123 C301 65 264 20 203 20 C155 20 123 43 108 89 C104 101 101 114 101 126 C101 154 101 182 101 210 C101 215 101 258 100 276 C102 284 102 294 104 302 C115 352 147 380 199 380 L199 380 Z M51 273 L51 123 C51 86 68 43 95 17 C123 -10 160 -20 199 -20 C287 -20 351 41 351 130 L351 277 C351 314 334 357 307 383 C279 410 242 420 203 420 C118 420 51 361 51 274 L51 273 Z M125 523 C125 511 137 505 148 505 C160 505 175 513 175 527 L175 602 C175 614 163 620 152 620 C140 620 125 612 125 598 L125 523 Z M225 523 C225 511 237 505 248 505 C260 505 275 513 275 527 L275 602 C275 614 263 620 252 620 C240 620 225 612 225 598 L225 523 Z " />
<glyph glyph-name="divide" unicode="&#xf7;" horiz-adv-x="350" d="M73 230 L273 230 C285 230 300 238 300 252 C300 264 288 270 277 270 L77 270 C65 270 50 262 50 248 C50 236 62 230 73 230 L73 230 Z M150 398 L150 324 C150 311 162 305 173 305 C185 305 200 313 200 327 L200 401 C200 414 188 420 177 420 C165 420 150 412 150 398 L150 398 Z M200 102 L200 177 C200 189 188 195 177 195 C165 195 150 187 150 173 L150 98 C150 86 162 80 173 80 C185 80 200 88 200 102 L200 102 Z " />
<glyph glyph-name="oslash" unicode="&#xf8;" horiz-adv-x="400" d="M242 371 C208 288 157 157 120 63 C109 78 101 108 101 126 C101 154 101 182 101 210 C101 215 101 258 100 276 C102 284 102 294 104 302 C115 352 147 380 199 380 C215 380 229 377 242 371 L242 371 Z M158 29 C192 113 244 245 281 339 C294 321 301 297 301 270 L301 123 C301 65 264 20 203 20 C186 20 171 23 158 29 L158 29 Z M325 452 C325 464 313 470 302 470 C285 470 281 462 274 449 C272 444 266 431 258 412 C241 418 222 420 203 420 C118 420 51 361 51 274 L51 123 C51 86 68 43 95 17 C97 16 98 14 100 13 C85 -26 75 -51 75 -52 C75 -64 87 -70 98 -70 C115 -70 119 -62 126 -49 C128 -44 134 -31 142 -11 C160 -18 179 -20 199 -20 C287 -20 351 41 351 130 L351 277 C351 313 331 368 300 389 C315 427 325 451 325 452 L325 452 Z " />
<glyph glyph-name="ugrave" unicode="&#xf9;" horiz-adv-x="400" d="M300 20 L202 20 C138 20 100 67 100 130 C100 184 100 239 100 293 C100 303 100 404 99 408 C94 416 87 420 77 420 C65 420 50 412 50 398 L50 123 C50 86 67 43 94 17 C122 -10 159 -20 198 -20 L323 -20 C335 -20 350 -12 350 2 L350 402 C350 414 338 420 327 420 C315 420 306 414 301 404 C298 397 300 60 300 20 L300 20 Z M197 505 C209 505 224 513 224 527 C224 531 223 533 221 537 C218 540 144 614 141 616 C136 619 132 620 126 620 C114 620 99 612 99 598 C99 594 100 592 102 588 C105 585 179 511 182 509 C187 506 191 505 197 505 L197 505 Z " />
<glyph glyph-name="uacute" unicode="&#xfa;" horiz-adv-x="400" d="M301 20 L203 20 C139 20 101 67 101 130 C101 184 101 239 101 293 C101 303 101 404 100 408 C95 416 88 420 78 420 C66 420 51 412 51 398 L51 123 C51 86 68 43 95 17 C123 -10 160 -20 199 -20 L324 -20 C336 -20 351 -12 351 2 L351 402 C351 414 339 420 328 420 C316 420 307 414 302 404 C299 397 301 60 301 20 L301 20 Z M175 523 C175 511 187 505 198 505 C204 505 210 507 215 510 C220 513 292 586 296 591 C298 594 300 598 300 602 C300 614 288 620 277 620 C271 620 265 618 260 615 C255 612 183 539 179 534 C177 531 175 527 175 523 L175 523 Z " />
<glyph glyph-name="ucircumflex" unicode="&#xfb;" horiz-adv-x="450" d="M325 20 L227 20 C163 20 125 67 125 130 C125 184 125 239 125 293 C125 303 125 404 124 408 C119 416 112 420 102 420 C90 420 75 412 75 398 L75 123 C75 86 92 43 119 17 C147 -10 184 -20 223 -20 L348 -20 C360 -20 375 -12 375 2 L375 402 C375 414 363 420 352 420 C340 420 331 414 326 404 C323 397 325 60 325 20 L325 20 Z M223 568 C233 557 274 513 283 508 C287 506 292 505 297 505 C309 505 324 513 324 527 C324 531 323 533 321 537 C318 540 244 614 241 616 C236 619 232 620 226 620 C220 620 214 618 209 615 C204 612 132 539 128 534 C126 531 124 527 124 523 C124 511 136 505 147 505 C152 505 157 506 162 509 C171 514 212 557 223 568 L223 568 Z " />
<glyph glyph-name="udieresis" unicode="&#xfc;" horiz-adv-x="450" d="M325 20 L227 20 C163 20 125 67 125 130 C125 184 125 239 125 293 C125 303 125 404 124 408 C119 416 112 420 102 420 C90 420 75 412 75 398 L75 123 C75 86 92 43 119 17 C147 -10 184 -20 223 -20 L348 -20 C360 -20 375 -12 375 2 L375 402 C375 414 363 420 352 420 C340 420 331 414 326 404 C323 397 325 60 325 20 L325 20 Z M149 598 L149 523 C149 511 161 505 172 505 C184 505 199 513 199 527 L199 602 C199 614 187 620 176 620 C164 620 149 612 149 598 L149 598 Z M249 598 L249 523 C249 511 261 505 272 505 C284 505 299 513 299 527 L299 602 C299 614 287 620 276 620 C264 620 249 612 249 598 L249 598 Z " />
<glyph glyph-name="yacute" unicode="&#xfd;" horiz-adv-x="400" d="M350 402 C350 414 338 420 327 420 C317 420 309 416 303 408 C299 403 282 339 278 328 L203 77 C170 186 110 377 101 400 C96 413 93 420 77 420 C65 420 50 412 50 398 C50 391 162 31 174 0 C175 -3 176 -6 177 -9 L167 -43 C158 -75 151 -109 134 -138 C125 -153 113 -169 97 -175 C82 -182 50 -177 50 -202 C50 -214 62 -220 73 -220 C136 -220 176 -170 196 -114 C212 -67 225 -19 240 29 C265 113 290 197 315 282 C318 292 350 397 350 402 L350 402 Z M175 523 C175 511 187 505 198 505 C204 505 210 507 215 510 C220 513 292 586 296 591 C298 594 300 598 300 602 C300 614 288 620 277 620 C271 620 265 618 260 615 C255 612 183 539 179 534 C177 531 175 527 175 523 L175 523 Z " />
<glyph glyph-name="thorn" unicode="&#xfe;" horiz-adv-x="450" d="M50 -202 C50 -214 62 -220 73 -220 C85 -220 100 -212 100 -198 L100 380 L248 380 C326 380 375 323 375 248 C375 194 343 137 287 124 C261 118 233 120 206 120 C192 120 175 114 175 98 C175 86 187 80 198 80 L248 80 C348 80 425 148 425 252 C425 294 406 344 376 374 C342 407 299 420 252 420 L100 420 L100 602 C100 614 88 620 77 620 C65 620 50 612 50 598 L50 -202 Z " />
<glyph glyph-name="ydieresis" unicode="&#xff;" horiz-adv-x="400" d="M350 402 C350 414 338 420 327 420 C317 420 309 416 303 408 C299 403 282 339 278 328 L203 77 C170 186 110 377 101 400 C96 413 93 420 77 420 C65 420 50 412 50 398 C50 391 162 31 174 0 C175 -3 176 -6 177 -9 L167 -43 C158 -75 151 -109 134 -138 C125 -153 113 -169 97 -175 C82 -182 50 -177 50 -202 C50 -214 62 -220 73 -220 C136 -220 176 -170 196 -114 C212 -67 225 -19 240 29 C265 113 290 197 315 282 C318 292 350 397 350 402 L350 402 Z M125 523 C125 511 137 505 148 505 C160 505 175 513 175 527 L175 602 C175 614 163 620 152 620 C140 620 125 612 125 598 L125 523 Z M225 523 C225 511 237 505 248 505 C260 505 275 513 275 527 L275 602 C275 614 263 620 252 620 C240 620 225 612 225 598 L225 523 Z " />
<glyph glyph-name="Amacron" unicode="&#x100;" horiz-adv-x="500" d="M364 120 C344 120 323 120 304 120 C247 120 191 120 135 120 L249 513 L364 120 Z M123 79 C147 78 172 79 196 79 C256 79 316 79 376 79 L401 -6 C404 -16 413 -20 423 -20 C435 -20 450 -12 450 2 C450 10 288 560 274 606 C271 616 262 620 252 620 C241 620 229 614 226 603 C213 557 50 6 50 -2 C50 -14 62 -20 73 -20 C84 -20 96 -14 99 -3 L123 79 Z M323 705 C335 705 350 713 350 727 C350 739 338 745 327 745 L177 745 C165 745 150 737 150 723 C150 711 162 705 173 705 L323 705 Z " />
<glyph glyph-name="amacron" unicode="&#x101;" horiz-adv-x="375" d="M76 102 C76 135 94 170 129 178 C138 180 148 180 157 180 C197 180 236 179 276 179 C276 155 276 131 276 107 C276 97 276 -4 277 -8 C282 -16 289 -20 299 -20 C311 -20 326 -12 326 2 L326 277 C326 314 309 357 282 383 C254 410 217 420 178 420 L128 420 C116 420 101 412 101 398 C101 373 147 380 163 380 C175 380 188 380 200 377 C250 367 276 319 276 270 C276 254 276 237 276 220 L153 220 C82 220 26 171 26 98 C26 27 79 -20 149 -20 L199 -20 C211 -20 226 -12 226 2 C226 28 182 20 166 20 C133 20 105 26 88 57 C81 69 76 88 76 102 L76 102 Z M248 530 C260 530 275 538 275 552 C275 564 263 570 252 570 L102 570 C90 570 75 562 75 548 C75 536 87 530 98 530 L248 530 Z " />
<glyph glyph-name="Abreve" unicode="&#x102;" horiz-adv-x="500" d="M364 120 C344 120 323 120 304 120 C247 120 191 120 135 120 L249 513 L364 120 Z M123 79 C147 78 172 79 196 79 C256 79 316 79 376 79 L401 -6 C404 -16 413 -20 423 -20 C435 -20 450 -12 450 2 C450 10 288 560 274 606 C271 616 262 620 252 620 C241 620 229 614 226 603 C213 557 50 6 50 -2 C50 -14 62 -20 73 -20 C84 -20 96 -14 99 -3 L123 79 Z M150 773 C150 719 188 680 243 680 C299 680 350 717 350 776 C350 789 339 795 327 795 C316 795 304 789 301 778 C299 773 300 767 299 762 C294 734 276 720 247 720 C220 720 207 739 201 764 C198 781 201 795 177 795 C165 795 150 787 150 773 L150 773 Z " />
<glyph glyph-name="abreve" unicode="&#x103;" horiz-adv-x="375" d="M76 102 C76 135 94 170 129 178 C138 180 148 180 157 180 C197 180 236 179 276 179 C276 155 276 131 276 107 C276 97 276 -4 277 -8 C282 -16 289 -20 299 -20 C311 -20 326 -12 326 2 L326 277 C326 314 309 357 282 383 C254 410 217 420 178 420 L128 420 C116 420 101 412 101 398 C101 373 147 380 163 380 C175 380 188 380 200 377 C250 367 276 319 276 270 C276 254 276 237 276 220 L153 220 C82 220 26 171 26 98 C26 27 79 -20 149 -20 L199 -20 C211 -20 226 -12 226 2 C226 28 182 20 166 20 C133 20 105 26 88 57 C81 69 76 88 76 102 L76 102 Z M75 598 C75 544 113 505 168 505 C224 505 275 542 275 601 C275 614 264 620 252 620 C241 620 229 614 226 603 C224 598 225 592 224 587 C219 559 201 545 172 545 C145 545 132 564 126 589 C123 606 126 620 102 620 C90 620 75 612 75 598 L75 598 Z " />
<glyph glyph-name="Aogonek" unicode="&#x104;" horiz-adv-x="500" d="M364 120 C344 120 323 120 304 120 C247 120 191 120 135 120 L249 513 L364 120 Z M350 -102 C350 -143 382 -170 423 -170 C464 -170 500 -142 500 -98 C500 -86 488 -80 477 -80 C435 -80 463 -130 427 -130 C407 -130 400 -112 400 -95 L400 -48 C400 -25 411 -22 423 -20 C435 -20 450 -12 450 2 C450 5 449 7 448 9 C430 76 287 563 274 606 C271 616 262 620 252 620 C241 620 229 614 226 603 C213 557 50 6 50 -2 C50 -14 62 -20 73 -20 C84 -20 96 -14 99 -3 L123 79 C147 78 172 79 196 79 C256 79 316 79 376 79 L395 14 C368 3 350 -22 350 -55 L350 -102 Z " />
<glyph glyph-name="aogonek" unicode="&#x105;" horiz-adv-x="400" d="M149 -102 C149 -143 181 -170 222 -170 C263 -170 299 -142 299 -98 C299 -86 287 -80 276 -80 C234 -80 262 -130 226 -130 C206 -130 199 -112 199 -95 L199 -48 C199 -25 210 -22 222 -20 L223 -20 C235 -20 250 -12 250 2 C250 12 244 16 235 19 C233 20 230 20 228 20 C214 22 198 20 190 20 C157 20 129 26 112 57 C105 69 100 88 100 102 C100 135 118 170 153 178 C162 180 172 180 181 180 C221 180 260 179 300 179 C300 155 300 131 300 107 C300 97 300 -4 301 -8 C306 -16 313 -20 323 -20 C335 -20 350 -12 350 2 L350 277 C350 314 333 357 306 383 C278 410 241 420 202 420 L152 420 C140 420 125 412 125 398 C125 373 171 380 187 380 C199 380 212 380 224 377 C274 367 300 319 300 270 C300 254 300 237 300 220 L177 220 C106 220 50 171 50 98 C50 33 95 -13 157 -19 C152 -30 149 -42 149 -55 L149 -102 Z " />
<glyph glyph-name="Cacute" unicode="&#x106;" horiz-adv-x="550" d="M277 620 C161 620 75 540 75 420 L75 173 C75 123 98 63 135 28 C174 -7 222 -20 273 -20 C299 -20 326 -17 351 -8 C372 -2 425 27 425 52 C425 64 413 71 402 71 C383 71 382 60 370 48 C347 26 308 20 277 20 C206 20 157 54 135 122 C128 141 125 160 125 180 L125 427 C125 445 129 464 135 481 C156 548 203 580 273 580 C303 580 343 574 366 553 C372 548 375 540 382 535 C386 531 392 530 398 530 C410 530 425 538 425 552 C425 574 379 600 361 607 C334 617 305 620 277 620 L277 620 Z M250 698 C250 686 262 680 273 680 C279 680 285 682 290 685 C295 688 367 761 371 766 C373 769 375 773 375 777 C375 789 363 795 352 795 C346 795 340 793 335 790 C330 787 258 714 254 709 C252 706 250 702 250 698 L250 698 Z " />
<glyph glyph-name="cacute" unicode="&#x107;" horiz-adv-x="400" d="M202 20 C138 20 100 68 100 130 L100 277 C100 335 137 380 198 380 C256 380 262 343 285 343 C297 343 312 351 312 365 C312 381 280 401 266 407 C247 416 226 420 205 420 C115 420 50 361 50 270 L50 123 C50 86 67 43 94 17 C123 -11 160 -20 200 -20 C218 -20 237 -17 254 -11 C271 -5 312 20 312 40 C312 52 300 58 290 58 C262 58 262 20 202 20 L202 20 Z M174 523 C174 511 186 505 197 505 C203 505 209 507 214 510 C219 513 291 586 295 591 C297 594 299 598 299 602 C299 614 287 620 276 620 C270 620 264 618 259 615 C254 612 182 539 178 534 C176 531 174 527 174 523 L174 523 Z " />
<glyph glyph-name="Ccircumflex" unicode="&#x108;" horiz-adv-x="550" d="M277 620 C161 620 75 540 75 420 L75 173 C75 123 98 63 135 28 C174 -7 222 -20 273 -20 C299 -20 326 -17 351 -8 C372 -2 425 27 425 52 C425 64 413 71 402 71 C383 71 382 60 370 48 C347 26 308 20 277 20 C206 20 157 54 135 122 C128 141 125 160 125 180 L125 427 C125 445 129 464 135 481 C156 548 203 580 273 580 C303 580 343 574 366 553 C372 548 375 540 382 535 C386 531 392 530 398 530 C410 530 425 538 425 552 C425 574 379 600 361 607 C334 617 305 620 277 620 L277 620 Z M274 743 C284 732 325 688 334 683 C338 681 343 680 348 680 C360 680 375 688 375 702 C375 706 374 708 372 712 C369 715 295 789 292 791 C287 794 283 795 277 795 C271 795 265 793 260 790 C255 787 183 714 179 709 C177 706 175 702 175 698 C175 686 187 680 198 680 C203 680 208 681 213 684 C222 689 263 732 274 743 L274 743 Z " />
<glyph glyph-name="ccircumflex" unicode="&#x109;" horiz-adv-x="400" d="M202 20 C138 20 100 68 100 130 L100 277 C100 335 137 380 198 380 C256 380 262 343 285 343 C297 343 312 351 312 365 C312 381 280 401 266 407 C247 416 226 420 205 420 C115 420 50 361 50 270 L50 123 C50 86 67 43 94 17 C123 -11 160 -20 200 -20 C218 -20 237 -17 254 -11 C271 -5 312 20 312 40 C312 52 300 58 290 58 C262 58 262 20 202 20 L202 20 Z M198 568 C208 557 249 513 258 508 C262 506 267 505 272 505 C284 505 299 513 299 527 C299 531 298 533 296 537 C293 540 219 614 216 616 C211 619 207 620 201 620 C195 620 189 618 184 615 C179 612 107 539 103 534 C101 531 99 527 99 523 C99 511 111 505 122 505 C127 505 132 506 137 509 C146 514 187 557 198 568 L198 568 Z " />
<glyph glyph-name="Cdotaccent" unicode="&#x10a;" horiz-adv-x="500" d="M252 620 C136 620 50 540 50 420 L50 173 C50 123 73 63 110 28 C149 -7 197 -20 248 -20 C274 -20 301 -17 326 -8 C347 -2 400 27 400 52 C400 64 388 71 377 71 C358 71 357 60 345 48 C322 26 283 20 252 20 C181 20 132 54 110 122 C103 141 100 160 100 180 L100 427 C100 445 104 464 110 481 C131 548 178 580 248 580 C278 580 318 574 341 553 C347 548 350 540 357 535 C361 531 367 530 373 530 C385 530 400 538 400 552 C400 574 354 600 336 607 C309 617 280 620 252 620 L252 620 Z M225 773 L225 698 C225 686 237 680 248 680 C260 680 275 688 275 702 L275 777 C275 789 263 795 252 795 C240 795 225 787 225 773 L225 773 Z " />
<glyph glyph-name="cdotaccent" unicode="&#x10b;" horiz-adv-x="400" d="M203 20 C139 20 101 68 101 130 L101 277 C101 335 138 380 199 380 C257 380 263 343 286 343 C298 343 313 351 313 365 C313 381 281 401 267 407 C248 416 227 420 206 420 C116 420 51 361 51 270 L51 123 C51 86 68 43 95 17 C124 -11 161 -20 201 -20 C219 -20 238 -17 255 -11 C272 -5 313 20 313 40 C313 52 301 58 291 58 C263 58 263 20 203 20 L203 20 Z M175 598 L175 523 C175 511 187 505 198 505 C210 505 225 513 225 527 L225 602 C225 614 213 620 202 620 C190 620 175 612 175 598 L175 598 Z " />
<glyph glyph-name="Ccaron" unicode="&#x10c;" horiz-adv-x="550" d="M277 620 C161 620 75 540 75 420 L75 173 C75 123 98 63 135 28 C174 -7 222 -20 273 -20 C299 -20 326 -17 351 -8 C372 -2 425 27 425 52 C425 64 413 71 402 71 C383 71 382 60 370 48 C347 26 308 20 277 20 C206 20 157 54 135 122 C128 141 125 160 125 180 L125 427 C125 445 129 464 135 481 C156 548 203 580 273 580 C303 580 343 574 366 553 C372 548 375 540 382 535 C386 531 392 530 398 530 C410 530 425 538 425 552 C425 574 379 600 361 607 C334 617 305 620 277 620 L277 620 Z M273 680 C279 680 285 682 290 685 C295 688 367 761 371 766 C373 769 375 773 375 777 C375 789 363 795 352 795 C347 795 342 794 337 791 C328 786 287 743 276 732 C266 743 225 787 216 792 C212 794 207 795 202 795 C190 795 175 787 175 773 C175 769 176 767 178 763 C181 760 255 686 258 684 C263 681 267 680 273 680 L273 680 Z " />
<glyph glyph-name="ccaron" unicode="&#x10d;" horiz-adv-x="400" d="M202 20 C138 20 100 68 100 130 L100 277 C100 335 137 380 198 380 C256 380 262 343 285 343 C297 343 312 351 312 365 C312 381 280 401 266 407 C247 416 226 420 205 420 C115 420 50 361 50 270 L50 123 C50 86 67 43 94 17 C123 -11 160 -20 200 -20 C218 -20 237 -17 254 -11 C271 -5 312 20 312 40 C312 52 300 58 290 58 C262 58 262 20 202 20 L202 20 Z M197 505 C203 505 209 507 214 510 C219 513 291 586 295 591 C297 594 299 598 299 602 C299 614 287 620 276 620 C271 620 266 619 261 616 C252 611 211 568 200 557 C190 568 149 612 140 617 C136 619 131 620 126 620 C114 620 99 612 99 598 C99 594 100 592 102 588 C105 585 179 511 182 509 C187 506 191 505 197 505 L197 505 Z " />
<glyph glyph-name="Dcaron" unicode="&#x10e;" horiz-adv-x="550" d="M475 180 L475 402 C475 458 448 527 406 566 C363 605 309 620 252 620 L102 620 C90 620 75 612 75 598 L75 -2 C75 -14 87 -20 98 -20 C110 -20 125 -12 125 2 L125 580 L248 580 C330 580 387 541 413 462 C421 441 425 418 425 395 L425 173 C425 108 381 47 318 29 C289 20 259 20 228 20 C216 20 200 13 200 -2 C200 -19 219 -20 232 -20 C275 -20 314 -17 355 0 C427 29 475 102 475 180 L475 180 Z M273 680 C279 680 285 682 290 685 C295 688 367 761 371 766 C373 769 375 773 375 777 C375 789 363 795 352 795 C347 795 342 794 337 791 C328 786 287 743 276 732 C266 743 225 787 216 792 C212 794 207 795 202 795 C190 795 175 787 175 773 C175 769 176 767 178 763 C181 760 255 686 258 684 C263 681 267 680 273 680 L273 680 Z " />
<glyph glyph-name="dcaron" unicode="&#x10f;" horiz-adv-x="476" d="M100 252 C100 273 107 299 116 318 C145 376 189 380 248 380 L301 380 L301 -1 C301 -13 313 -19 324 -19 C336 -19 351 -11 351 3 L351 603 C351 615 339 621 328 621 C316 621 301 613 301 599 L301 420 L227 420 C124 420 50 349 50 245 L50 148 C50 106 69 56 99 26 C133 -7 176 -20 223 -20 C235 -20 250 -12 250 2 C250 15 238 19 227 20 C166 25 129 43 108 105 C103 120 100 136 100 152 L100 252 Z M550 602 C550 614 538 620 527 620 L477 620 C465 620 450 612 450 598 C450 576 480 580 495 580 C484 534 471 488 460 443 C457 429 450 412 450 398 C450 386 462 380 473 380 C483 380 491 384 497 392 C499 395 550 594 550 602 L550 602 Z " />
<glyph glyph-name="Dcroat" unicode="&#x110;" horiz-adv-x="575" d="M100 330 L100 -2 C100 -14 112 -20 123 -20 C135 -20 150 -12 150 2 L150 330 L273 330 C285 330 300 338 300 352 C300 364 288 370 277 370 L150 370 L150 580 L273 580 C355 580 412 541 438 462 C446 441 450 418 450 395 L450 173 C450 108 406 47 343 29 C314 20 284 20 253 20 C241 20 225 13 225 -2 C225 -19 244 -20 257 -20 C300 -20 340 -17 380 0 C452 29 500 102 500 180 L500 402 C500 458 473 527 431 566 C388 605 334 620 277 620 L127 620 C115 620 100 612 100 598 L100 370 L77 370 C65 370 50 362 50 348 C50 336 62 330 73 330 L100 330 Z " />
<glyph glyph-name="dcroat" unicode="&#x111;" horiz-adv-x="400" d="M300 530 L300 420 L226 420 C123 420 49 349 49 245 L49 148 C49 106 68 56 98 26 C132 -7 175 -20 222 -20 C234 -20 249 -12 249 2 C249 15 237 19 226 20 C165 25 128 43 107 105 C102 120 99 136 99 152 L99 252 C99 273 106 299 115 318 C144 376 188 380 247 380 L300 380 L300 -1 C300 -13 312 -19 323 -19 C335 -19 350 -11 350 3 L350 530 L372 530 C384 530 399 538 399 552 C399 564 387 570 376 570 L350 570 L350 603 C350 615 338 621 327 621 C315 621 300 613 300 599 L300 570 L226 570 C214 570 199 562 199 548 C199 536 211 530 222 530 L300 530 Z " />
<glyph glyph-name="Emacron" unicode="&#x112;" horiz-adv-x="450" d="M248 330 C260 330 275 338 275 352 C275 364 263 370 252 370 L100 370 L100 580 C159 580 217 579 276 579 C288 579 374 578 381 581 C391 584 400 591 400 602 C400 614 388 620 377 620 L77 620 C65 620 50 612 50 598 L50 49 C50 7 82 -20 123 -20 L373 -20 C385 -20 400 -12 400 2 C400 22 375 21 362 21 C313 21 264 20 216 20 C205 20 121 19 115 23 C103 30 100 43 100 56 L100 330 L248 330 Z M298 705 C310 705 325 713 325 727 C325 739 313 745 302 745 L152 745 C140 745 125 737 125 723 C125 711 137 705 148 705 L298 705 Z " />
<glyph glyph-name="emacron" unicode="&#x113;" horiz-adv-x="400" d="M299 220 C276 220 158 221 100 221 C100 238 100 256 100 274 C100 335 139 380 202 380 C249 380 279 357 293 313 C297 301 300 289 300 277 C300 258 299 239 299 220 L299 220 Z M325 180 C346 180 349 194 349 211 C349 232 350 253 350 274 C350 361 281 420 198 420 C113 420 50 364 50 278 L50 130 C50 41 114 -20 202 -20 L252 -20 C263 -20 275 -14 275 -2 C275 22 246 20 230 20 C194 20 154 19 127 48 C103 75 99 111 99 146 C99 157 99 168 99 180 L325 180 Z M273 530 C285 530 300 538 300 552 C300 564 288 570 277 570 L127 570 C115 570 100 562 100 548 C100 536 112 530 123 530 L273 530 Z " />
<glyph glyph-name="Ebreve" unicode="&#x114;" horiz-adv-x="500" d="M273 330 C285 330 300 338 300 352 C300 364 288 370 277 370 L125 370 L125 580 C184 580 242 579 301 579 C313 579 399 578 406 581 C416 584 425 591 425 602 C425 614 413 620 402 620 L102 620 C90 620 75 612 75 598 L75 49 C75 7 107 -20 148 -20 L398 -20 C410 -20 425 -12 425 2 C425 22 400 21 387 21 C338 21 289 20 241 20 C230 20 146 19 140 23 C128 30 125 43 125 56 L125 330 L273 330 Z M150 773 C150 719 188 680 243 680 C299 680 350 717 350 776 C350 789 339 795 327 795 C316 795 304 789 301 778 C299 773 300 767 299 762 C294 734 276 720 247 720 C220 720 207 739 201 764 C198 781 201 795 177 795 C165 795 150 787 150 773 L150 773 Z " />
<glyph glyph-name="ebreve" unicode="&#x115;" horiz-adv-x="400" d="M299 220 C276 220 158 221 100 221 C100 238 100 256 100 274 C100 335 139 380 202 380 C249 380 279 357 293 313 C297 301 300 289 300 277 C300 258 299 239 299 220 L299 220 Z M325 180 C346 180 349 194 349 211 C349 232 350 253 350 274 C350 361 281 420 198 420 C113 420 50 364 50 278 L50 130 C50 41 114 -20 202 -20 L252 -20 C263 -20 275 -14 275 -2 C275 22 246 20 230 20 C194 20 154 19 127 48 C103 75 99 111 99 146 C99 157 99 168 99 180 L325 180 Z M100 598 C100 544 138 505 193 505 C249 505 300 542 300 601 C300 614 289 620 277 620 C266 620 254 614 251 603 C249 598 250 592 249 587 C244 559 226 545 197 545 C170 545 157 564 151 589 C148 606 151 620 127 620 C115 620 100 612 100 598 L100 598 Z " />
<glyph glyph-name="Edotaccent" unicode="&#x116;" horiz-adv-x="450" d="M248 330 C260 330 275 338 275 352 C275 364 263 370 252 370 L100 370 L100 580 C159 580 217 579 276 579 C288 579 374 578 381 581 C391 584 400 591 400 602 C400 614 388 620 377 620 L77 620 C65 620 50 612 50 598 L50 49 C50 7 82 -20 123 -20 L373 -20 C385 -20 400 -12 400 2 C400 22 375 21 362 21 C313 21 264 20 216 20 C205 20 121 19 115 23 C103 30 100 43 100 56 L100 330 L248 330 Z M200 698 C200 686 212 680 223 680 C235 680 250 688 250 702 L250 777 C250 789 238 795 227 795 C215 795 200 787 200 773 L200 698 Z " />
<glyph glyph-name="edotaccent" unicode="&#x117;" horiz-adv-x="400" d="M299 220 C276 220 158 221 100 221 C100 238 100 256 100 274 C100 335 139 380 202 380 C249 380 279 357 293 313 C297 301 300 289 300 277 C300 258 299 239 299 220 L299 220 Z M325 180 C346 180 349 194 349 211 C349 232 350 253 350 274 C350 361 281 420 198 420 C113 420 50 364 50 278 L50 130 C50 41 114 -20 202 -20 L252 -20 C263 -20 275 -14 275 -2 C275 22 246 20 230 20 C194 20 154 19 127 48 C103 75 99 111 99 146 C99 157 99 168 99 180 L325 180 Z M175 523 C175 511 187 505 198 505 C210 505 225 513 225 527 L225 602 C225 614 213 620 202 620 C190 620 175 612 175 598 L175 523 Z " />
<glyph glyph-name="Eogonek" unicode="&#x118;" horiz-adv-x="450" d="M238 -102 C238 -143 270 -170 311 -170 C352 -170 388 -142 388 -98 C388 -86 376 -80 365 -80 C323 -80 351 -130 315 -130 C295 -130 288 -112 288 -95 L288 -48 C288 -25 299 -22 311 -20 L373 -20 C385 -20 400 -12 400 2 C400 22 375 21 362 21 C313 21 264 20 216 20 C205 20 121 19 115 23 C103 30 100 43 100 56 L100 330 L248 330 C260 330 275 338 275 352 C275 364 263 370 252 370 L100 370 L100 580 C159 580 217 579 276 579 C288 579 374 578 381 581 C391 584 400 591 400 602 C400 614 388 620 377 620 L77 620 C65 620 50 612 50 598 L50 49 C50 7 82 -20 123 -20 L246 -20 C241 -30 238 -42 238 -55 L238 -102 Z " />
<glyph glyph-name="eogonek" unicode="&#x119;" horiz-adv-x="400" d="M299 220 C276 220 158 221 100 221 C100 238 100 256 100 274 C100 335 139 380 202 380 C249 380 279 357 293 313 C297 301 300 289 300 277 C300 258 299 239 299 220 L299 220 Z M175 -102 C175 -143 207 -170 248 -170 C289 -170 325 -142 325 -98 C325 -86 313 -80 302 -80 C260 -80 288 -130 252 -130 C232 -130 225 -112 225 -95 L225 -48 C225 -25 236 -22 248 -20 L252 -20 C267 -20 275 -13 275 2 C275 18 257 20 245 20 C238 20 230 20 223 20 C103 20 99 77 99 180 L325 180 C346 180 349 194 349 211 C349 232 350 253 350 274 C350 361 281 420 198 420 C113 420 50 364 50 278 L50 130 C50 47 105 -11 183 -19 C178 -30 175 -42 175 -55 L175 -102 Z " />
<glyph glyph-name="Ecaron" unicode="&#x11a;" horiz-adv-x="500" d="M273 330 C285 330 300 338 300 352 C300 364 288 370 277 370 L125 370 L125 580 C184 580 242 579 301 579 C313 579 399 578 406 581 C416 584 425 591 425 602 C425 614 413 620 402 620 L102 620 C90 620 75 612 75 598 L75 49 C75 7 107 -20 148 -20 L398 -20 C410 -20 425 -12 425 2 C425 22 400 21 387 21 C338 21 289 20 241 20 C230 20 146 19 140 23 C128 30 125 43 125 56 L125 330 L273 330 Z M248 680 C254 680 260 682 265 685 C270 688 342 761 346 766 C348 769 350 773 350 777 C350 789 338 795 327 795 C322 795 317 794 312 791 C303 786 262 743 251 732 C241 743 200 787 191 792 C187 794 182 795 177 795 C165 795 150 787 150 773 C150 769 151 767 153 763 C156 760 230 686 233 684 C238 681 242 680 248 680 L248 680 Z " />
<glyph glyph-name="ecaron" unicode="&#x11b;" horiz-adv-x="400" d="M299 220 C276 220 158 221 100 221 C100 238 100 256 100 274 C100 335 139 380 202 380 C249 380 279 357 293 313 C297 301 300 289 300 277 C300 258 299 239 299 220 L299 220 Z M325 180 C346 180 349 194 349 211 C349 232 350 253 350 274 C350 361 281 420 198 420 C113 420 50 364 50 278 L50 130 C50 41 114 -20 202 -20 L252 -20 C263 -20 275 -14 275 -2 C275 22 246 20 230 20 C194 20 154 19 127 48 C103 75 99 111 99 146 C99 157 99 168 99 180 L325 180 Z M198 505 C204 505 210 507 215 510 C220 513 292 586 296 591 C298 594 300 598 300 602 C300 614 288 620 277 620 C272 620 267 619 262 616 C253 611 212 568 201 557 C191 568 150 612 141 617 C137 619 132 620 127 620 C115 620 100 612 100 598 C100 594 101 592 103 588 C106 585 180 511 183 509 C188 506 192 505 198 505 L198 505 Z " />
<glyph glyph-name="Gcircumflex" unicode="&#x11c;" horiz-adv-x="550" d="M425 330 L425 173 C425 155 421 136 415 118 C394 52 347 19 277 19 C206 19 157 53 135 122 C128 141 125 160 125 180 L125 427 C125 446 129 466 135 484 C166 576 229 580 314 580 L398 580 C410 580 425 588 425 602 C425 620 401 621 388 621 C344 621 254 624 211 612 C127 587 75 510 75 423 L75 173 C75 123 98 62 135 28 C173 -8 222 -21 273 -21 C391 -21 475 61 475 180 L475 352 C475 364 463 370 452 370 L277 370 C265 370 250 362 250 348 C250 339 256 335 263 331 C270 328 404 330 425 330 L425 330 Z M274 743 C284 732 325 688 334 683 C338 681 343 680 348 680 C360 680 375 688 375 702 C375 706 374 708 372 712 C369 715 295 789 292 791 C287 794 283 795 277 795 C271 795 265 793 260 790 C255 787 183 714 179 709 C177 706 175 702 175 698 C175 686 187 680 198 680 C203 680 208 681 213 684 C222 689 263 732 274 743 L274 743 Z " />
<glyph glyph-name="gcircumflex" unicode="&#x11d;" horiz-adv-x="475" d="M334 259 C334 196 305 145 236 145 C163 145 134 199 134 266 C134 313 149 360 198 375 C210 378 220 379 232 380 C243 378 253 379 264 375 C318 361 334 310 334 259 L334 259 Z M236 420 L237 420 L236 420 Z M210 -20 C224 -22 239 -20 247 -20 C281 -20 310 -26 327 -59 C333 -71 338 -88 338 -102 C338 -144 312 -180 267 -180 L233 -180 C227 -180 221 -180 216 -180 C168 -178 138 -146 138 -98 C138 -88 140 -78 144 -68 C156 -32 175 -23 210 -20 L210 -20 Z M236 420 C138 420 84 354 84 259 C84 208 101 166 131 139 C99 127 75 99 75 61 C75 26 96 -1 125 -13 C102 -35 88 -65 88 -102 C88 -173 141 -220 211 -220 L263 -220 C333 -220 388 -170 388 -99 C388 -28 334 20 264 20 L236 20 C229 21 223 21 218 21 C203 21 189 20 175 20 C144 20 125 33 125 65 C125 94 143 105 168 105 C182 105 196 104 210 104 C216 104 223 104 230 105 C329 105 384 169 384 266 C384 313 370 353 343 380 L448 380 C460 380 475 388 475 402 C475 414 463 420 452 420 L236 420 Z M237 568 C247 557 288 513 297 508 C301 506 306 505 311 505 C323 505 338 513 338 527 C338 531 337 533 335 537 C332 540 258 614 255 616 C250 619 246 620 240 620 C234 620 228 618 223 615 C218 612 146 539 142 534 C140 531 138 527 138 523 C138 511 150 505 161 505 C166 505 171 506 176 509 C185 514 226 557 237 568 L237 568 Z " />
<glyph glyph-name="Gbreve" unicode="&#x11e;" horiz-adv-x="550" d="M425 330 L425 173 C425 155 421 136 415 118 C394 52 347 19 277 19 C206 19 157 53 135 122 C128 141 125 160 125 180 L125 427 C125 446 129 466 135 484 C166 576 229 580 314 580 L398 580 C410 580 425 588 425 602 C425 620 401 621 388 621 C344 621 254 624 211 612 C127 587 75 510 75 423 L75 173 C75 123 98 62 135 28 C173 -8 222 -21 273 -21 C391 -21 475 61 475 180 L475 352 C475 364 463 370 452 370 L277 370 C265 370 250 362 250 348 C250 339 256 335 263 331 C270 328 404 330 425 330 L425 330 Z M175 773 C175 719 213 680 268 680 C324 680 375 717 375 776 C375 789 364 795 352 795 C341 795 329 789 326 778 C324 773 325 767 324 762 C319 734 301 720 272 720 C245 720 232 739 226 764 C223 781 226 795 202 795 C190 795 175 787 175 773 L175 773 Z " />
<glyph glyph-name="gbreve" unicode="&#x11f;" horiz-adv-x="475" d="M334 259 C334 196 305 145 236 145 C163 145 134 199 134 266 C134 313 149 360 198 375 C210 378 220 379 232 380 C243 378 253 379 264 375 C318 361 334 310 334 259 L334 259 Z M236 420 L237 420 L236 420 Z M210 -20 C224 -22 239 -20 247 -20 C281 -20 310 -26 327 -59 C333 -71 338 -88 338 -102 C338 -144 312 -180 267 -180 L233 -180 C227 -180 221 -180 216 -180 C168 -178 138 -146 138 -98 C138 -88 140 -78 144 -68 C156 -32 175 -23 210 -20 L210 -20 Z M236 420 C138 420 84 354 84 259 C84 208 101 166 131 139 C99 127 75 99 75 61 C75 26 96 -1 125 -13 C102 -35 88 -65 88 -102 C88 -173 141 -220 211 -220 L263 -220 C333 -220 388 -170 388 -99 C388 -28 334 20 264 20 L236 20 C229 21 223 21 218 21 C203 21 189 20 175 20 C144 20 125 33 125 65 C125 94 143 105 168 105 C182 105 196 104 210 104 C216 104 223 104 230 105 C329 105 384 169 384 266 C384 313 370 353 343 380 L448 380 C460 380 475 388 475 402 C475 414 463 420 452 420 L236 420 Z M138 598 C138 544 176 505 231 505 C287 505 338 542 338 601 C338 614 327 620 315 620 C304 620 292 614 289 603 C287 598 288 592 287 587 C282 559 264 545 235 545 C208 545 195 564 189 589 C186 606 189 620 165 620 C153 620 138 612 138 598 L138 598 Z " />
<glyph glyph-name="Gdotaccent" unicode="&#x120;" horiz-adv-x="500" d="M400 330 L400 173 C400 155 396 136 390 118 C369 52 322 19 252 19 C181 19 132 53 110 122 C103 141 100 160 100 180 L100 427 C100 446 104 466 110 484 C141 576 204 580 289 580 L373 580 C385 580 400 588 400 602 C400 620 376 621 363 621 C319 621 229 624 186 612 C102 587 50 510 50 423 L50 173 C50 123 73 62 110 28 C148 -8 197 -21 248 -21 C366 -21 450 61 450 180 L450 352 C450 364 438 370 427 370 L252 370 C240 370 225 362 225 348 C225 339 231 335 238 331 C245 328 379 330 400 330 L400 330 Z M225 773 L225 698 C225 686 237 680 248 680 C260 680 275 688 275 702 L275 777 C275 789 263 795 252 795 C240 795 225 787 225 773 L225 773 Z " />
<glyph glyph-name="gdotaccent" unicode="&#x121;" horiz-adv-x="413" d="M309 259 C309 196 280 145 211 145 C138 145 109 199 109 266 C109 313 124 360 173 375 C185 378 195 379 207 380 C218 378 228 379 239 375 C293 361 309 310 309 259 L309 259 Z M211 420 L212 420 L211 420 Z M185 -20 C199 -22 214 -20 222 -20 C256 -20 285 -26 302 -59 C308 -71 313 -88 313 -102 C313 -144 287 -180 242 -180 L208 -180 C202 -180 196 -180 191 -180 C143 -178 113 -146 113 -98 C113 -88 115 -78 119 -68 C131 -32 150 -23 185 -20 L185 -20 Z M211 420 C113 420 59 354 59 259 C59 208 76 166 106 139 C74 127 50 99 50 61 C50 26 71 -1 100 -13 C77 -35 63 -65 63 -102 C63 -173 116 -220 186 -220 L238 -220 C308 -220 363 -170 363 -99 C363 -28 309 20 239 20 L211 20 C204 21 198 21 193 21 C178 21 164 20 150 20 C119 20 100 33 100 65 C100 94 118 105 143 105 C157 105 171 104 185 104 C191 104 198 104 205 105 C304 105 359 169 359 266 C359 313 345 353 318 380 L423 380 C435 380 450 388 450 402 C450 414 438 420 427 420 L211 420 Z M188 523 C188 511 200 505 211 505 C223 505 238 513 238 527 L238 602 C238 614 226 620 215 620 C203 620 188 612 188 598 L188 523 Z " />
<glyph glyph-name="uni0122" unicode="&#x122;" horiz-adv-x="500" d="M232 20 C148 28 100 100 100 180 L100 427 C100 446 104 466 110 484 C141 576 204 580 289 580 L373 580 C385 580 400 588 400 602 C400 620 376 621 363 621 C319 621 229 624 186 612 C102 587 50 510 50 423 L50 173 C50 123 73 62 110 28 C148 -7 195 -21 246 -21 C234 -67 222 -112 211 -157 C208 -171 201 -188 201 -202 C201 -214 213 -220 224 -220 C234 -220 242 -216 248 -208 C249 -206 285 -67 297 -16 C389 3 450 78 450 180 L450 352 C450 364 438 370 427 370 L252 370 C240 370 225 362 225 348 C225 339 231 335 238 331 C245 328 379 330 400 330 L400 173 C400 155 396 136 390 118 C371 58 331 26 273 20 L232 20 Z " />
<glyph glyph-name="uni0123" unicode="&#x123;" horiz-adv-x="413" d="M309 259 C309 196 280 145 211 145 C138 145 109 199 109 266 C109 313 124 360 173 375 C185 378 195 379 207 380 C218 378 228 379 239 375 C293 361 309 310 309 259 L309 259 Z M211 420 L212 420 L211 420 Z M185 -20 C199 -22 214 -20 222 -20 C256 -20 285 -26 302 -59 C308 -71 313 -88 313 -102 C313 -144 287 -180 242 -180 L208 -180 C202 -180 196 -180 191 -180 C143 -178 113 -146 113 -98 C113 -88 115 -78 119 -68 C131 -32 150 -23 185 -20 L185 -20 Z M211 420 C113 420 59 354 59 259 C59 208 76 166 106 139 C74 127 50 99 50 61 C50 26 71 -1 100 -13 C77 -35 63 -65 63 -102 C63 -173 116 -220 186 -220 L238 -220 C308 -220 363 -170 363 -99 C363 -28 309 20 239 20 L211 20 C204 21 198 21 193 21 C178 21 164 20 150 20 C119 20 100 33 100 65 C100 94 118 105 143 105 C157 105 171 104 185 104 C191 104 198 104 205 105 C304 105 359 169 359 266 C359 313 345 353 318 380 L423 380 C435 380 450 388 450 402 C450 414 438 420 427 420 L211 420 Z M156 623 C156 611 168 605 179 605 L229 605 C241 605 256 613 256 627 C256 641 242 645 230 645 L209 645 L209 646 L224 735 C226 749 231 763 231 777 C231 789 219 795 208 795 C199 795 189 791 184 783 C182 779 156 635 156 623 L156 623 Z " />
<glyph glyph-name="Hcircumflex" unicode="&#x124;" horiz-adv-x="550" d="M125 370 L125 602 C125 614 113 620 102 620 C90 620 75 612 75 598 L75 -2 C75 -14 87 -20 98 -20 C110 -20 125 -12 125 2 L125 330 L425 330 L425 -2 C425 -14 437 -20 448 -20 C460 -20 475 -12 475 2 L475 602 C475 614 463 620 452 620 C440 620 425 612 425 598 L425 370 L125 370 Z M274 743 C284 732 325 688 334 683 C338 681 343 680 348 680 C360 680 375 688 375 702 C375 706 374 708 372 712 C369 715 295 789 292 791 C287 794 283 795 277 795 C271 795 265 793 260 790 C255 787 183 714 179 709 C177 706 175 702 175 698 C175 686 187 680 198 680 C203 680 208 681 213 684 C222 689 263 732 274 743 L274 743 Z " />
<glyph glyph-name="hcircumflex" unicode="&#x125;" horiz-adv-x="450" d="M375 277 C375 314 358 357 331 383 C303 410 266 420 227 420 L125 420 L125 602 C125 614 113 620 102 620 C90 620 75 612 75 598 L75 -2 C75 -14 87 -20 98 -20 C110 -20 125 -12 125 2 L125 380 L200 380 C251 380 289 376 313 324 C320 310 325 290 325 274 C325 218 325 162 325 107 C325 97 325 -4 326 -8 C331 -16 338 -20 348 -20 C360 -20 375 -12 375 2 L375 277 Z M223 718 C233 707 274 663 283 658 C287 656 292 655 297 655 C309 655 324 663 324 677 C324 681 323 683 321 687 C318 690 244 764 241 766 C236 769 232 770 226 770 C220 770 214 768 209 765 C204 762 132 689 128 684 C126 681 124 677 124 673 C124 661 136 655 147 655 C152 655 157 656 162 659 C171 664 212 707 223 718 L223 718 Z " />
<glyph glyph-name="Hbar" unicode="&#x126;" horiz-adv-x="500" d="M100 370 L100 602 C100 614 88 620 77 620 C65 620 50 612 50 598 L50 -2 C50 -14 62 -20 73 -20 C85 -20 100 -12 100 2 L100 330 L400 330 L400 -2 C400 -14 412 -20 423 -20 C435 -20 450 -12 450 2 L450 602 C450 614 438 620 427 620 C415 620 400 612 400 598 L400 370 L100 370 Z M323 705 C335 705 350 713 350 727 C350 739 338 745 327 745 L177 745 C165 745 150 737 150 723 C150 711 162 705 173 705 L323 705 Z " />
<glyph glyph-name="hbar" unicode="&#x127;" horiz-adv-x="400" d="M51 530 L51 -2 C51 -14 63 -20 74 -20 C86 -20 101 -12 101 2 L101 380 L176 380 C227 380 265 376 289 324 C296 310 301 290 301 274 C301 218 301 162 301 107 C301 97 301 -4 302 -8 C307 -16 314 -20 324 -20 C336 -20 351 -12 351 2 L351 277 C351 314 334 357 307 383 C279 410 242 420 203 420 L101 420 L101 530 L173 530 C185 530 200 538 200 552 C200 564 188 570 177 570 L101 570 L101 602 C101 614 89 620 78 620 C66 620 51 612 51 598 L51 570 L27 570 C15 570 0 562 0 548 C0 536 12 530 23 530 L51 530 Z " />
<glyph glyph-name="Itilde" unicode="&#x128;" horiz-adv-x="150" d="M100 2 L100 602 C100 614 88 620 77 620 C65 620 50 612 50 598 L50 -2 C50 -14 62 -20 73 -20 C85 -20 100 -12 100 2 L100 2 Z M127 720 C96 720 87 770 27 770 C-14 770 -50 742 -50 698 C-50 686 -38 680 -27 680 C15 680 -13 730 23 730 C54 730 63 680 123 680 C164 680 200 708 200 752 C200 764 188 770 177 770 C135 770 163 720 127 720 L127 720 Z " />
<glyph glyph-name="itilde" unicode="&#x129;" horiz-adv-x="150" d="M50 398 L50 -2 C50 -14 62 -20 73 -20 C85 -20 100 -12 100 2 L100 402 C100 414 88 420 77 420 C65 420 50 412 50 398 L50 398 Z M127 545 C96 545 87 595 27 595 C-14 595 -50 567 -50 523 C-50 511 -38 505 -27 505 C15 505 -13 555 23 555 C54 555 63 505 123 505 C164 505 200 533 200 577 C200 589 188 595 177 595 C135 595 163 545 127 545 L127 545 Z " />
<glyph glyph-name="Imacron" unicode="&#x12a;" horiz-adv-x="150" d="M100 2 L100 602 C100 614 88 620 77 620 C65 620 50 612 50 598 L50 -2 C50 -14 62 -20 73 -20 C85 -20 100 -12 100 2 L100 2 Z M-2 705 L148 705 C160 705 175 713 175 727 C175 739 163 745 152 745 L2 745 C-10 745 -25 737 -25 723 C-25 711 -13 705 -2 705 L-2 705 Z " />
<glyph glyph-name="imacron" unicode="&#x12b;" horiz-adv-x="150" d="M50 398 L50 -2 C50 -14 62 -20 73 -20 C85 -20 100 -12 100 2 L100 402 C100 414 88 420 77 420 C65 420 50 412 50 398 L50 398 Z M-2 530 L148 530 C160 530 175 538 175 552 C175 564 163 570 152 570 L2 570 C-10 570 -25 562 -25 548 C-25 536 -13 530 -2 530 L-2 530 Z " />
<glyph glyph-name="Ibreve" unicode="&#x12c;" horiz-adv-x="150" d="M100 2 L100 602 C100 614 88 620 77 620 C65 620 50 612 50 598 L50 -2 C50 -14 62 -20 73 -20 C85 -20 100 -12 100 2 L100 2 Z M-25 773 C-25 719 13 680 68 680 C124 680 175 717 175 776 C175 789 164 795 152 795 C141 795 129 789 126 778 C124 773 125 767 124 762 C119 734 101 720 72 720 C45 720 32 739 26 764 C23 781 26 795 2 795 C-10 795 -25 787 -25 773 L-25 773 Z " />
<glyph glyph-name="ibreve" unicode="&#x12d;" horiz-adv-x="150" d="M50 398 L50 -2 C50 -14 62 -20 73 -20 C85 -20 100 -12 100 2 L100 402 C100 414 88 420 77 420 C65 420 50 412 50 398 L50 398 Z M-25 598 C-25 544 13 505 68 505 C124 505 175 542 175 601 C175 614 164 620 152 620 C141 620 129 614 126 603 C124 598 125 592 124 587 C119 559 101 545 72 545 C45 545 32 564 26 589 C23 606 26 620 2 620 C-10 620 -25 612 -25 598 L-25 598 Z " />
<glyph glyph-name="Iogonek" unicode="&#x12e;" horiz-adv-x="150" d="M0 -102 C0 -143 32 -170 73 -170 C114 -170 150 -142 150 -98 C150 -86 138 -80 127 -80 C85 -80 113 -130 77 -130 C57 -130 50 -112 50 -95 L50 -48 C50 -25 61 -22 73 -20 C85 -20 100 -12 100 2 L100 602 C100 614 88 620 77 620 C65 620 50 612 50 598 L50 16 C20 7 0 -20 0 -55 L0 -102 Z " />
<glyph glyph-name="iogonek" unicode="&#x12f;" horiz-adv-x="150" d="M0 -102 C0 -143 32 -170 73 -170 C114 -170 150 -142 150 -98 C150 -86 138 -80 127 -80 C85 -80 113 -130 77 -130 C57 -130 50 -112 50 -95 L50 -48 C50 -25 61 -22 74 -20 C86 -20 101 -12 101 2 L101 402 C101 414 89 420 78 420 C66 420 51 412 51 398 L51 17 C20 7 0 -19 0 -55 L0 -102 Z M101 602 C101 614 89 620 78 620 C66 620 51 612 51 598 L51 548 C51 536 63 530 74 530 C86 530 101 538 101 552 L101 602 Z " />
<glyph glyph-name="Idotaccent" unicode="&#x130;" horiz-adv-x="200" d="M125 2 L125 602 C125 614 113 620 102 620 C90 620 75 612 75 598 L75 -2 C75 -14 87 -20 98 -20 C110 -20 125 -12 125 2 L125 2 Z M75 773 L75 698 C75 686 87 680 98 680 C110 680 125 688 125 702 L125 777 C125 789 113 795 102 795 C90 795 75 787 75 773 L75 773 Z " />
<glyph glyph-name="dotlessi" unicode="&#x131;" horiz-adv-x="200" d="M75 398 L75 -2 C75 -14 87 -20 98 -20 C110 -20 125 -12 125 2 L125 402 C125 414 113 420 102 420 C90 420 75 412 75 398 L75 398 Z " />
<glyph glyph-name="IJ" unicode="&#x132;" horiz-adv-x="400" d="M202 20 C150 20 115 48 104 99 C102 108 101 128 98 134 C94 142 85 145 77 145 C65 145 50 137 50 123 C50 86 67 43 94 17 C122 -10 159 -20 198 -20 C286 -20 350 41 350 130 L350 602 C350 614 338 620 327 620 C293 620 300 587 300 564 C300 422 301 279 301 137 C301 72 273 20 202 20 L202 20 Z M50 598 L50 248 C50 236 62 230 73 230 C85 230 100 238 100 252 L100 602 C100 614 88 620 77 620 C65 620 50 612 50 598 L50 598 Z " />
<glyph glyph-name="ij" unicode="&#x133;" horiz-adv-x="400" d="M202 -180 C150 -180 115 -152 104 -101 C102 -92 101 -72 98 -66 C94 -58 85 -55 77 -55 C65 -55 50 -63 50 -77 C50 -114 67 -157 94 -183 C122 -210 159 -220 198 -220 C286 -220 350 -159 350 -70 L350 402 C350 414 338 420 327 420 C293 420 300 387 300 364 C300 222 301 79 301 -63 C301 -128 273 -180 202 -180 L202 -180 Z M50 398 L50 98 C50 86 62 80 73 80 C85 80 100 88 100 102 L100 402 C100 414 88 420 77 420 C65 420 50 412 50 398 L50 398 Z M300 598 L300 523 C300 511 312 505 323 505 C335 505 350 513 350 527 L350 602 C350 614 338 620 327 620 C315 620 300 612 300 598 L300 598 Z M50 598 L50 523 C50 511 62 505 73 505 C85 505 100 513 100 527 L100 602 C100 614 88 620 77 620 C65 620 50 612 50 598 L50 598 Z " />
<glyph glyph-name="Jcircumflex" unicode="&#x134;" horiz-adv-x="375" d="M177 20 C125 20 90 48 79 99 C77 108 76 128 73 134 C69 142 60 145 52 145 C40 145 25 137 25 123 C25 86 42 43 69 17 C97 -10 134 -20 173 -20 C261 -20 325 41 325 130 L325 602 C325 614 313 620 302 620 C268 620 275 587 275 564 C275 422 276 279 276 137 C276 72 248 20 177 20 L177 20 Z M299 743 C309 732 350 688 359 683 C363 681 368 680 373 680 C385 680 400 688 400 702 C400 706 399 708 397 712 C394 715 320 789 317 791 C312 794 308 795 302 795 C296 795 290 793 285 790 C280 787 208 714 204 709 C202 706 200 702 200 698 C200 686 212 680 223 680 C228 680 233 681 238 684 C247 689 288 732 299 743 L299 743 Z " />
<glyph glyph-name="jcircumflex" unicode="&#x135;" horiz-adv-x="175" d="M99 568 C109 557 150 513 159 508 C163 506 168 505 173 505 C185 505 200 513 200 527 C200 531 199 533 197 537 C194 540 120 614 117 616 C112 619 108 620 102 620 C96 620 90 618 85 615 C80 612 8 539 4 534 C2 531 0 527 0 523 C0 511 12 505 23 505 C28 505 33 506 38 509 C47 514 88 557 99 568 L99 568 Z M-27 -220 C61 -220 125 -159 125 -70 L125 402 C125 414 113 420 102 420 C68 420 75 387 75 364 C75 222 76 79 76 -64 C76 -87 72 -110 62 -131 C25 -205 -50 -161 -50 -202 C-50 -214 -38 -220 -27 -220 L-27 -220 Z " />
<glyph glyph-name="uni0136" unicode="&#x136;" horiz-adv-x="500" d="M423 -20 C435 -20 450 -12 450 2 C450 11 428 43 423 52 L213 405 C213 405 213 406 212 406 L435 581 C442 587 450 592 450 602 C450 614 438 620 427 620 C421 620 416 619 411 616 C398 608 387 597 375 587 L100 371 L100 602 C100 614 88 620 77 620 C65 620 50 612 50 598 L50 -2 C50 -14 62 -20 73 -20 C85 -20 100 -12 100 2 L100 317 C108 323 117 331 125 338 L173 375 C179 364 187 353 190 348 L399 -5 C405 -15 410 -20 423 -20 L423 -20 Z M300 2 C300 14 288 20 277 20 L227 20 C215 20 200 12 200 -2 C200 -24 230 -20 245 -20 C234 -66 221 -112 210 -157 C207 -171 200 -188 200 -202 C200 -214 212 -220 223 -220 C233 -220 241 -216 247 -208 C249 -205 300 -6 300 2 L300 2 Z " />
<glyph glyph-name="uni0137" unicode="&#x137;" horiz-adv-x="400" d="M324 -20 C336 -20 351 -12 351 2 C351 8 222 267 203 302 L337 383 C344 387 351 393 351 402 C351 414 339 420 328 420 C310 420 251 379 232 368 L101 289 L101 602 C101 614 89 620 78 620 C66 620 51 612 51 598 L51 -2 C51 -14 63 -20 74 -20 C86 -20 101 -12 101 2 L101 240 C121 250 145 267 161 277 C191 211 287 19 300 -4 C307 -15 310 -20 324 -20 L324 -20 Z M250 2 C250 14 238 20 227 20 L177 20 C165 20 150 12 150 -2 C150 -24 180 -20 195 -20 C184 -66 171 -112 160 -157 C157 -171 150 -188 150 -202 C150 -214 162 -220 173 -220 C183 -220 191 -216 197 -208 C199 -205 250 -6 250 2 L250 2 Z " />
<glyph glyph-name="kgreenlandic" unicode="&#x138;" horiz-adv-x="400" d="M323 -20 C335 -20 350 -12 350 2 C350 12 301 90 292 106 L183 295 L336 382 C343 387 350 393 350 402 C350 414 338 420 327 420 C309 420 251 381 233 371 L100 294 L100 402 C100 414 88 420 77 420 C65 420 50 412 50 398 L50 -2 C50 -14 62 -20 73 -20 C85 -20 100 -12 100 2 L100 246 C113 252 127 261 140 269 C155 242 181 199 188 189 L300 -6 C305 -15 311 -20 323 -20 L323 -20 Z " />
<glyph glyph-name="Lacute" unicode="&#x139;" horiz-adv-x="425" d="M100 20 L100 602 C100 614 88 620 77 620 C65 620 50 612 50 598 L50 -2 C50 -14 62 -20 73 -20 L323 -20 C335 -20 350 -12 350 2 C350 11 343 16 336 19 C326 23 129 20 100 20 L100 20 Z M150 698 C150 686 162 680 173 680 C179 680 185 682 190 685 C195 688 267 761 271 766 C273 769 275 773 275 777 C275 789 263 795 252 795 C246 795 240 793 235 790 C230 787 158 714 154 709 C152 706 150 702 150 698 L150 698 Z " />
<glyph glyph-name="lacute" unicode="&#x13a;" horiz-adv-x="150" d="M101 2 L101 602 C101 614 89 620 78 620 C66 620 51 612 51 598 L51 -2 C51 -14 63 -20 74 -20 C86 -20 101 -12 101 2 L101 2 Z M13 673 C13 661 25 655 36 655 C42 655 48 657 53 660 C58 663 130 736 134 741 C136 744 138 748 138 752 C138 764 126 770 115 770 C109 770 103 768 98 765 C93 762 21 689 17 684 C15 681 13 677 13 673 L13 673 Z " />
<glyph glyph-name="uni013B" unicode="&#x13b;" horiz-adv-x="425" d="M199 -20 C206 -21 214 -20 220 -20 C209 -66 196 -112 185 -157 C182 -171 175 -188 175 -202 C175 -214 187 -220 198 -220 C208 -220 216 -216 222 -208 C223 -206 257 -74 270 -20 L323 -20 C335 -20 350 -12 350 2 C350 11 343 16 336 19 C326 23 129 20 100 20 L100 602 C100 614 88 620 77 620 C65 620 50 612 50 598 L50 -2 C50 -14 62 -20 73 -20 L199 -20 Z " />
<glyph glyph-name="uni013C" unicode="&#x13c;" horiz-adv-x="150" d="M125 2 C125 14 113 20 102 20 L101 20 L101 602 C101 614 89 620 78 620 C66 620 51 612 51 598 L51 20 C39 20 25 11 25 -2 C25 -24 55 -20 70 -20 C59 -66 46 -112 35 -157 C32 -171 25 -188 25 -202 C25 -214 37 -220 48 -220 C58 -220 66 -216 72 -208 C74 -205 125 -6 125 2 L125 2 Z " />
<glyph glyph-name="Lcaron" unicode="&#x13d;" horiz-adv-x="425" d="M100 20 L100 602 C100 614 88 620 77 620 C65 620 50 612 50 598 L50 -2 C50 -14 62 -20 73 -20 L323 -20 C335 -20 350 -12 350 2 C350 11 343 16 336 19 C326 23 129 20 100 20 L100 20 Z M350 602 C350 614 338 620 327 620 L277 620 C265 620 250 612 250 598 C250 576 280 580 295 580 C284 534 271 488 260 443 C257 429 250 412 250 398 C250 386 262 380 273 380 C283 380 291 384 297 392 C299 395 350 594 350 602 L350 602 Z " />
<glyph glyph-name="lcaron" unicode="&#x13e;" horiz-adv-x="250" d="M125 2 L125 602 C125 614 113 620 102 620 C90 620 75 612 75 598 L75 -2 C75 -14 87 -20 98 -20 C110 -20 125 -12 125 2 L125 2 Z M299 602 C299 614 287 620 276 620 L226 620 C214 620 199 612 199 598 C199 576 229 580 244 580 C233 534 220 488 209 443 C206 429 199 412 199 398 C199 386 211 380 222 380 C232 380 240 384 246 392 C248 395 299 594 299 602 L299 602 Z " />
<glyph glyph-name="Ldot" unicode="&#x13f;" horiz-adv-x="425" d="M100 20 L100 602 C100 614 88 620 77 620 C65 620 50 612 50 598 L50 -2 C50 -14 62 -20 73 -20 L323 -20 C335 -20 350 -12 350 2 C350 11 343 16 336 19 C326 23 129 20 100 20 L100 20 Z M188 598 L188 523 C188 511 200 505 211 505 C223 505 238 513 238 527 L238 602 C238 614 226 620 215 620 C203 620 188 612 188 598 L188 598 Z " />
<glyph glyph-name="ldot" unicode="&#x140;" horiz-adv-x="200" d="M101 2 L101 602 C101 614 89 620 78 620 C66 620 51 612 51 598 L51 -2 C51 -14 63 -20 74 -20 C86 -20 101 -12 101 2 L101 2 Z M125 398 L125 323 C125 311 137 305 148 305 C160 305 175 313 175 327 L175 402 C175 414 163 420 152 420 C140 420 125 412 125 398 L125 398 Z " />
<glyph glyph-name="Lslash" unicode="&#x141;" horiz-adv-x="475" d="M225 352 C225 364 213 370 202 370 C197 370 193 369 188 367 C184 365 169 355 150 343 L150 602 C150 614 138 620 127 620 C115 620 100 612 100 598 L100 310 C66 287 35 266 32 262 C28 258 25 254 25 248 C25 236 37 230 48 230 C53 230 57 231 62 233 C66 235 81 245 100 257 L100 -2 C100 -14 112 -20 123 -20 L373 -20 C385 -20 400 -12 400 2 C400 11 393 16 386 19 C376 23 179 20 150 20 L150 290 C184 313 215 334 218 338 C222 342 225 346 225 352 L225 352 Z " />
<glyph glyph-name="lslash" unicode="&#x142;" horiz-adv-x="250" d="M225 354 C225 366 213 372 202 372 C197 372 193 371 188 369 C184 367 170 358 151 345 L151 602 C151 614 139 620 128 620 C116 620 101 612 101 598 L101 312 C67 288 35 266 32 262 C28 258 25 254 25 248 C25 236 37 230 48 230 C53 230 57 231 62 233 C66 235 81 245 101 258 L101 -2 C101 -14 113 -20 124 -20 C136 -20 151 -12 151 2 L151 292 C184 315 215 336 218 340 C222 344 225 348 225 354 L225 354 Z " />
<glyph glyph-name="Nacute" unicode="&#x143;" horiz-adv-x="550" d="M475 602 C475 614 463 620 452 620 C440 620 425 612 425 598 L425 308 L154 579 C142 592 121 620 102 620 C90 620 75 612 75 598 L75 -2 C75 -14 87 -20 98 -20 C110 -20 125 -12 125 2 L125 542 L401 266 C407 259 416 248 425 240 L425 -2 C425 -14 437 -20 448 -20 C460 -20 475 -12 475 2 L475 602 Z M250 698 C250 686 262 680 273 680 C279 680 285 682 290 685 C295 688 367 761 371 766 C373 769 375 773 375 777 C375 789 363 795 352 795 C346 795 340 793 335 790 C330 787 258 714 254 709 C252 706 250 702 250 698 L250 698 Z " />
<glyph glyph-name="nacute" unicode="&#x144;" horiz-adv-x="450" d="M375 2 L375 277 C375 314 358 357 331 383 C303 410 266 420 227 420 L103 420 C91 420 75 412 75 398 L75 -2 C75 -14 87 -20 98 -20 C110 -20 119 -14 124 -4 C127 3 125 340 125 380 L223 380 C287 380 325 333 325 270 C325 216 325 161 325 107 C325 97 325 -4 326 -8 C331 -16 338 -20 348 -20 C360 -20 375 -12 375 2 L375 2 Z M199 523 C199 511 211 505 222 505 C228 505 234 507 239 510 C244 513 316 586 320 591 C322 594 324 598 324 602 C324 614 312 620 301 620 C295 620 289 618 284 615 C279 612 207 539 203 534 C201 531 199 527 199 523 L199 523 Z " />
<glyph glyph-name="uni0145" unicode="&#x145;" horiz-adv-x="500" d="M450 602 C450 614 438 620 427 620 C415 620 400 612 400 598 L400 308 L129 579 C117 592 96 620 77 620 C65 620 50 612 50 598 L50 -2 C50 -14 62 -20 73 -20 C85 -20 100 -12 100 2 L100 542 L376 266 C382 259 391 248 400 240 L400 -2 C400 -14 412 -20 423 -20 C435 -20 450 -12 450 2 L450 602 Z M300 2 C300 14 288 20 277 20 L227 20 C215 20 200 12 200 -2 C200 -24 230 -20 245 -20 C234 -66 221 -112 210 -157 C207 -171 200 -188 200 -202 C200 -214 212 -220 223 -220 C233 -220 241 -216 247 -208 C249 -205 300 -6 300 2 L300 2 Z " />
<glyph glyph-name="uni0146" unicode="&#x146;" horiz-adv-x="400" d="M351 2 L351 277 C351 314 334 357 307 383 C279 410 242 420 203 420 L79 420 C67 420 51 412 51 398 L51 -2 C51 -14 63 -20 74 -20 C86 -20 95 -14 100 -4 C103 3 101 340 101 380 L199 380 C263 380 301 333 301 270 C301 216 301 161 301 107 C301 97 301 -4 302 -8 C307 -16 314 -20 324 -20 C336 -20 351 -12 351 2 L351 2 Z M250 2 C250 14 238 20 227 20 L177 20 C165 20 150 12 150 -2 C150 -24 180 -20 195 -20 C184 -66 171 -112 160 -157 C157 -171 150 -188 150 -202 C150 -214 162 -220 173 -220 C183 -220 191 -216 197 -208 C199 -205 250 -6 250 2 L250 2 Z " />
<glyph glyph-name="Ncaron" unicode="&#x147;" horiz-adv-x="550" d="M475 602 C475 614 463 620 452 620 C440 620 425 612 425 598 L425 308 L154 579 C142 592 121 620 102 620 C90 620 75 612 75 598 L75 -2 C75 -14 87 -20 98 -20 C110 -20 125 -12 125 2 L125 542 L401 266 C407 259 416 248 425 240 L425 -2 C425 -14 437 -20 448 -20 C460 -20 475 -12 475 2 L475 602 Z M273 680 C279 680 285 682 290 685 C295 688 367 761 371 766 C373 769 375 773 375 777 C375 789 363 795 352 795 C347 795 342 794 337 791 C328 786 287 743 276 732 C266 743 225 787 216 792 C212 794 207 795 202 795 C190 795 175 787 175 773 C175 769 176 767 178 763 C181 760 255 686 258 684 C263 681 267 680 273 680 L273 680 Z " />
<glyph glyph-name="ncaron" unicode="&#x148;" horiz-adv-x="450" d="M375 2 L375 277 C375 314 358 357 331 383 C303 410 266 420 227 420 L103 420 C91 420 75 412 75 398 L75 -2 C75 -14 87 -20 98 -20 C110 -20 119 -14 124 -4 C127 3 125 340 125 380 L223 380 C287 380 325 333 325 270 C325 216 325 161 325 107 C325 97 325 -4 326 -8 C331 -16 338 -20 348 -20 C360 -20 375 -12 375 2 L375 2 Z M222 505 C228 505 234 507 239 510 C244 513 316 586 320 591 C322 594 324 598 324 602 C324 614 312 620 301 620 C296 620 291 619 286 616 C277 611 236 568 225 557 C215 568 174 612 165 617 C161 619 156 620 151 620 C139 620 124 612 124 598 C124 594 125 592 127 588 C130 585 204 511 207 509 C212 506 216 505 222 505 L222 505 Z " />
<glyph glyph-name="napostrophe" unicode="&#x149;" horiz-adv-x="400" d="M351 2 L351 277 C351 314 334 357 307 383 C279 410 242 420 203 420 L79 420 C67 420 51 412 51 398 L51 -2 C51 -14 63 -20 74 -20 C86 -20 95 -14 100 -4 C103 3 101 340 101 380 L199 380 C263 380 301 333 301 270 C301 216 301 161 301 107 C301 97 301 -4 302 -8 C307 -16 314 -20 324 -20 C336 -20 351 -12 351 2 L351 2 Z M75 602 C75 614 63 620 52 620 L2 620 C-10 620 -25 612 -25 598 C-25 576 5 580 20 580 C9 534 -4 488 -15 443 C-18 429 -25 412 -25 398 C-25 386 -13 380 -2 380 C8 380 16 384 22 392 C24 395 75 594 75 602 L75 602 Z " />
<glyph glyph-name="Eng" unicode="&#x14a;" horiz-adv-x="500" d="M298 -220 C386 -220 450 -159 450 -70 L450 602 C450 614 438 620 427 620 C415 620 400 612 400 598 L400 396 C399 386 400 374 400 364 L400 308 L129 579 C117 592 96 620 77 620 C65 620 50 612 50 598 L50 -2 C50 -14 62 -20 73 -20 C85 -20 100 -12 100 2 L100 542 L376 266 C382 259 391 248 400 240 L400 -2 C400 -3 400 -4 401 -5 C401 -25 401 -44 401 -64 C401 -87 397 -110 387 -131 C350 -205 275 -161 275 -202 C275 -214 287 -220 298 -220 L298 -220 Z " />
<glyph glyph-name="eng" unicode="&#x14b;" horiz-adv-x="400" d="M198 -220 C286 -220 350 -159 350 -70 L350 277 C350 314 333 357 306 383 C278 410 241 420 202 420 L78 420 C66 420 50 412 50 398 L50 -2 C50 -14 62 -20 73 -20 C85 -20 94 -14 99 -4 C102 3 100 340 100 380 L198 380 C262 380 300 333 300 270 C300 216 300 161 300 107 C300 99 300 25 301 0 C301 -13 301 -27 301 -41 C301 -122 289 -173 202 -180 C190 -181 175 -187 175 -202 C175 -214 187 -220 198 -220 L198 -220 Z " />
<glyph glyph-name="Omacron" unicode="&#x14c;" horiz-adv-x="500" d="M401 176 C398 164 396 139 394 132 C377 59 327 20 252 20 C181 20 132 54 110 122 C103 141 100 160 100 180 L100 427 C100 445 104 464 110 481 C132 548 178 580 248 580 C319 580 368 546 390 478 C396 461 400 442 400 424 C400 374 400 325 400 276 C400 269 400 200 401 176 L401 176 Z M450 427 C450 477 427 537 390 572 C352 607 303 620 252 620 C134 620 50 539 50 420 L50 173 C50 123 73 63 110 28 C148 -7 197 -20 248 -20 C361 -20 450 58 450 176 L450 427 Z M323 705 C335 705 350 713 350 727 C350 739 338 745 327 745 L177 745 C165 745 150 737 150 723 C150 711 162 705 173 705 L323 705 Z " />
<glyph glyph-name="omacron" unicode="&#x14d;" horiz-adv-x="400" d="M199 380 C263 380 301 332 301 270 L301 123 C301 65 264 20 203 20 C155 20 123 43 108 89 C104 101 101 114 101 126 C101 154 101 182 101 210 C101 215 101 258 100 276 C102 284 102 294 104 302 C115 352 147 380 199 380 L199 380 Z M51 273 L51 123 C51 86 68 43 95 17 C123 -10 160 -20 199 -20 C287 -20 351 41 351 130 L351 277 C351 314 334 357 307 383 C279 410 242 420 203 420 C118 420 51 361 51 274 L51 273 Z M273 530 C285 530 300 538 300 552 C300 564 288 570 277 570 L127 570 C115 570 100 562 100 548 C100 536 112 530 123 530 L273 530 Z " />
<glyph glyph-name="Obreve" unicode="&#x14e;" horiz-adv-x="550" d="M426 176 C423 164 421 139 419 132 C402 59 352 20 277 20 C206 20 157 54 135 122 C128 141 125 160 125 180 L125 427 C125 445 129 464 135 481 C157 548 203 580 273 580 C344 580 393 546 415 478 C421 461 425 442 425 424 C425 374 425 325 425 276 C425 269 425 200 426 176 L426 176 Z M475 427 C475 477 452 537 415 572 C377 607 328 620 277 620 C159 620 75 539 75 420 L75 173 C75 123 98 63 135 28 C173 -7 222 -20 273 -20 C386 -20 475 58 475 176 L475 427 Z M175 773 C175 719 213 680 268 680 C324 680 375 717 375 776 C375 789 364 795 352 795 C341 795 329 789 326 778 C324 773 325 767 324 762 C319 734 301 720 272 720 C245 720 232 739 226 764 C223 781 226 795 202 795 C190 795 175 787 175 773 L175 773 Z " />
<glyph glyph-name="obreve" unicode="&#x14f;" horiz-adv-x="400" d="M198 380 C262 380 300 332 300 270 L300 123 C300 65 263 20 202 20 C154 20 122 43 107 89 C103 101 100 114 100 126 C100 154 100 182 100 210 C100 215 100 258 99 276 C101 284 101 294 103 302 C114 352 146 380 198 380 L198 380 Z M50 273 L50 123 C50 86 67 43 94 17 C122 -10 159 -20 198 -20 C286 -20 350 41 350 130 L350 277 C350 314 333 357 306 383 C278 410 241 420 202 420 C117 420 50 361 50 274 L50 273 Z M99 598 C99 544 137 505 192 505 C248 505 299 542 299 601 C299 614 288 620 276 620 C265 620 253 614 250 603 C248 598 249 592 248 587 C243 559 225 545 196 545 C169 545 156 564 150 589 C147 606 150 620 126 620 C114 620 99 612 99 598 L99 598 Z " />
<glyph glyph-name="Ohungarumlaut" unicode="&#x150;" horiz-adv-x="500" d="M401 176 C398 164 396 139 394 132 C377 59 327 20 252 20 C181 20 132 54 110 122 C103 141 100 160 100 180 L100 427 C100 445 104 464 110 481 C132 548 178 580 248 580 C319 580 368 546 390 478 C396 461 400 442 400 424 C400 374 400 325 400 276 C400 269 400 200 401 176 L401 176 Z M450 427 C450 477 427 537 390 572 C352 607 303 620 252 620 C134 620 50 539 50 420 L50 173 C50 123 73 63 110 28 C148 -7 197 -20 248 -20 C361 -20 450 58 450 176 L450 427 Z M137 698 C137 686 149 680 160 680 C166 680 172 682 177 685 C182 688 254 761 258 766 C260 769 262 773 262 777 C262 789 250 795 239 795 C233 795 227 793 222 790 C217 787 145 714 141 709 C139 706 137 702 137 698 L137 698 Z M312 698 C312 686 324 680 335 680 C341 680 347 682 352 685 C357 688 429 761 433 766 C435 769 437 773 437 777 C437 789 425 795 414 795 C408 795 402 793 397 790 C392 787 320 714 316 709 C314 706 312 702 312 698 L312 698 Z " />
<glyph glyph-name="ohungarumlaut" unicode="&#x151;" horiz-adv-x="400" d="M199 380 C263 380 301 332 301 270 L301 123 C301 65 264 20 203 20 C155 20 123 43 108 89 C104 101 101 114 101 126 C101 154 101 182 101 210 C101 215 101 258 100 276 C102 284 102 294 104 302 C115 352 147 380 199 380 L199 380 Z M51 273 L51 123 C51 86 68 43 95 17 C123 -10 160 -20 199 -20 C287 -20 351 41 351 130 L351 277 C351 314 334 357 307 383 C279 410 242 420 203 420 C118 420 51 361 51 274 L51 273 Z M87 523 C87 511 99 505 110 505 C116 505 122 507 127 510 C132 513 204 586 208 591 C210 594 212 598 212 602 C212 614 200 620 189 620 C183 620 177 618 172 615 C167 612 95 539 91 534 C89 531 87 527 87 523 L87 523 Z M262 523 C262 511 274 505 285 505 C291 505 297 507 302 510 C307 513 379 586 383 591 C385 594 387 598 387 602 C387 614 375 620 364 620 C358 620 352 618 347 615 C342 612 270 539 266 534 C264 531 262 527 262 523 L262 523 Z " />
<glyph glyph-name="OE" unicode="&#x152;" horiz-adv-x="800" d="M400 173 C398 161 396 139 394 132 C377 59 327 20 252 20 C181 20 132 54 110 122 C103 141 100 160 100 180 L100 427 C100 445 104 464 110 481 C132 548 178 580 248 580 C319 580 368 546 390 478 C396 461 400 442 400 424 C400 374 400 325 400 276 C400 270 400 223 400 192 L400 173 Z M598 330 C610 330 625 338 625 352 C625 364 613 370 602 370 L450 370 L450 580 C509 580 567 579 626 579 C638 579 724 578 731 581 C741 584 750 591 750 602 C750 614 738 620 727 620 L427 620 C415 620 400 612 400 598 L400 561 C397 564 393 568 390 572 C352 607 303 620 252 620 C134 620 50 539 50 420 L50 173 C50 123 73 63 110 28 C148 -7 197 -20 248 -20 C306 -20 362 -2 400 43 C403 5 434 -20 473 -20 L723 -20 C735 -20 750 -12 750 2 C750 22 725 21 712 21 C663 21 614 20 566 20 C555 20 471 19 465 23 C453 30 450 43 450 56 L450 330 L598 330 Z " />
<glyph glyph-name="oe" unicode="&#x153;" horiz-adv-x="650" d="M300 286 C300 283 300 280 300 278 L300 130 C300 125 300 120 301 115 C295 59 262 20 203 20 C155 20 123 43 108 89 C104 101 101 114 101 126 C101 154 101 182 101 210 C101 215 101 258 100 276 C102 284 102 294 104 302 C115 352 147 380 199 380 C258 380 295 340 300 286 L300 286 Z M549 220 C526 220 410 221 351 221 L351 277 C351 280 351 283 350 287 C356 341 394 380 452 380 C499 380 529 357 543 313 C547 301 550 289 550 277 C550 258 549 239 549 220 L549 220 Z M575 180 C596 180 599 194 599 211 C599 232 600 253 600 274 C600 361 531 420 448 420 C395 420 351 399 325 361 C320 369 314 377 307 383 C279 410 242 420 203 420 C118 420 51 361 51 274 L51 123 C51 86 68 43 95 17 C123 -10 160 -20 199 -20 C254 -20 299 3 326 42 C352 3 397 -20 452 -20 L502 -20 C513 -20 525 -14 525 -2 C525 22 496 20 480 20 C401 20 360 34 350 118 C351 122 351 126 351 130 L351 180 L575 180 Z " />
<glyph glyph-name="Racute" unicode="&#x154;" horiz-adv-x="475" d="M240 330 L264 330 C282 330 300 330 317 335 C383 353 425 409 425 477 C425 514 408 557 381 583 C353 610 316 620 277 620 L78 620 C65 620 50 612 50 598 L50 -2 C50 -14 62 -20 73 -20 C85 -20 100 -12 100 2 L100 580 L273 580 C335 580 375 534 375 473 C375 456 369 435 362 419 C342 380 309 370 267 370 C251 370 234 371 217 371 C202 371 175 369 175 348 C175 337 233 243 243 226 L374 -5 C380 -15 386 -20 398 -20 C410 -20 425 -12 425 2 C425 12 372 99 362 115 L240 330 Z M225 698 C225 686 237 680 248 680 C254 680 260 682 265 685 C270 688 342 761 346 766 C348 769 350 773 350 777 C350 789 338 795 327 795 C321 795 315 793 310 790 C305 787 233 714 229 709 C227 706 225 702 225 698 L225 698 Z " />
<glyph glyph-name="racute" unicode="&#x155;" horiz-adv-x="300" d="M227 420 C139 420 75 359 75 270 L75 -2 C75 -14 87 -20 98 -20 C124 -20 125 -2 125 19 L125 51 C125 114 124 177 124 241 C124 322 136 373 223 380 C235 381 250 387 250 402 C250 414 238 420 227 420 L227 420 Z M149 523 C149 511 161 505 172 505 C178 505 184 507 189 510 C194 513 266 586 270 591 C272 594 274 598 274 602 C274 614 262 620 251 620 C245 620 239 618 234 615 C229 612 157 539 153 534 C151 531 149 527 149 523 L149 523 Z " />
<glyph glyph-name="uni0156" unicode="&#x156;" horiz-adv-x="475" d="M240 330 L264 330 C282 330 300 330 317 335 C383 353 425 409 425 477 C425 514 408 557 381 583 C353 610 316 620 277 620 L78 620 C65 620 50 612 50 598 L50 -2 C50 -14 62 -20 73 -20 C85 -20 100 -12 100 2 L100 580 L273 580 C335 580 375 534 375 473 C375 456 369 435 362 419 C342 380 309 370 267 370 C251 370 234 371 217 371 C202 371 175 369 175 348 C175 337 233 243 243 226 L374 -5 C380 -15 386 -20 398 -20 C410 -20 425 -12 425 2 C425 12 372 99 362 115 L240 330 Z M287 2 C287 14 275 20 264 20 L214 20 C202 20 187 12 187 -2 C187 -24 217 -20 232 -20 C221 -66 208 -112 197 -157 C194 -171 187 -188 187 -202 C187 -214 199 -220 210 -220 C220 -220 228 -216 234 -208 C236 -205 287 -6 287 2 L287 2 Z " />
<glyph glyph-name="uni0157" unicode="&#x157;" horiz-adv-x="250" d="M125 2 C125 14 113 20 102 20 L101 20 L101 51 C101 114 100 177 100 241 C100 322 112 373 199 380 C211 381 226 387 226 402 C226 414 214 420 203 420 C115 420 51 359 51 270 L51 20 C39 20 25 11 25 -2 C25 -24 55 -20 70 -20 C59 -66 46 -112 35 -157 C32 -171 25 -188 25 -202 C25 -214 37 -220 48 -220 C58 -220 66 -216 72 -208 C74 -205 125 -6 125 2 L125 2 Z " />
<glyph glyph-name="Rcaron" unicode="&#x158;" horiz-adv-x="475" d="M240 330 L264 330 C282 330 300 330 317 335 C383 353 425 409 425 477 C425 514 408 557 381 583 C353 610 316 620 277 620 L78 620 C65 620 50 612 50 598 L50 -2 C50 -14 62 -20 73 -20 C85 -20 100 -12 100 2 L100 580 L273 580 C335 580 375 534 375 473 C375 456 369 435 362 419 C342 380 309 370 267 370 C251 370 234 371 217 371 C202 371 175 369 175 348 C175 337 233 243 243 226 L374 -5 C380 -15 386 -20 398 -20 C410 -20 425 -12 425 2 C425 12 372 99 362 115 L240 330 Z M235 680 C241 680 247 682 252 685 C257 688 329 761 333 766 C335 769 337 773 337 777 C337 789 325 795 314 795 C309 795 304 794 299 791 C290 786 249 743 238 732 C228 743 187 787 178 792 C174 794 169 795 164 795 C152 795 137 787 137 773 C137 769 138 767 140 763 C143 760 217 686 220 684 C225 681 229 680 235 680 L235 680 Z " />
<glyph glyph-name="rcaron" unicode="&#x159;" horiz-adv-x="300" d="M227 420 C139 420 75 359 75 270 L75 -2 C75 -14 87 -20 98 -20 C124 -20 125 -2 125 19 L125 51 C125 114 124 177 124 241 C124 322 136 373 223 380 C235 381 250 387 250 402 C250 414 238 420 227 420 L227 420 Z M147 505 C153 505 159 507 164 510 C169 513 241 586 245 591 C247 594 249 598 249 602 C249 614 237 620 226 620 C221 620 216 619 211 616 C202 611 161 568 150 557 C140 568 99 612 90 617 C86 619 81 620 76 620 C64 620 49 612 49 598 C49 594 50 592 52 588 C55 585 129 511 132 509 C137 506 141 505 147 505 L147 505 Z " />
<glyph glyph-name="Sacute" unicode="&#x15a;" horiz-adv-x="488" d="M249 -20 C358 -20 426 55 426 162 C426 246 353 306 281 336 C266 343 251 352 236 357 C180 376 137 404 137 469 C137 527 174 580 236 580 C283 580 329 563 353 520 C358 512 363 493 368 488 C372 482 379 480 386 480 C398 480 413 488 413 502 C413 507 410 514 408 519 C380 590 313 620 241 620 C152 620 87 553 87 465 C87 385 140 345 209 320 C220 317 229 311 238 307 C302 280 377 237 377 159 C377 81 336 20 253 20 C203 20 159 44 136 90 C132 99 127 119 122 125 C117 130 110 133 103 133 C91 133 76 124 76 111 C76 105 79 98 81 93 C108 19 171 -20 249 -20 L249 -20 Z M225 698 C225 686 237 680 248 680 C254 680 260 682 265 685 C270 688 342 761 346 766 C348 769 350 773 350 777 C350 789 338 795 327 795 C321 795 315 793 310 790 C305 787 233 714 229 709 C227 706 225 702 225 698 L225 698 Z " />
<glyph glyph-name="sacute" unicode="&#x15b;" horiz-adv-x="351" d="M178 420 C114 420 63 382 63 315 C63 260 103 220 151 199 C193 181 251 157 251 103 C251 58 227 20 178 20 C144 20 116 33 103 67 C98 82 99 95 78 95 C66 95 51 87 51 73 C51 50 72 18 90 5 C115 -13 144 -20 174 -20 C248 -20 301 32 301 106 C301 157 260 196 218 218 C173 241 112 255 112 318 C112 362 137 380 179 380 L178 380 C245 377 228 330 261 330 C273 330 288 338 288 352 C288 353 288 355 287 356 C272 402 222 420 178 420 L178 420 Z M151 523 C151 511 163 505 174 505 C180 505 186 507 191 510 C196 513 268 586 272 591 C274 594 276 598 276 602 C276 614 264 620 253 620 C247 620 241 618 236 615 C231 612 159 539 155 534 C153 531 151 527 151 523 L151 523 Z " />
<glyph glyph-name="Scircumflex" unicode="&#x15c;" horiz-adv-x="500" d="M248 -20 C357 -20 425 55 425 162 C425 246 352 306 280 336 C265 343 250 352 235 357 C179 376 136 404 136 469 C136 527 173 580 235 580 C282 580 328 563 352 520 C357 512 362 493 367 488 C371 482 378 480 385 480 C397 480 412 488 412 502 C412 507 409 514 407 519 C379 590 312 620 240 620 C151 620 86 553 86 465 C86 385 139 345 208 320 C219 317 228 311 237 307 C301 280 376 237 376 159 C376 81 335 20 252 20 C202 20 158 44 135 90 C131 99 126 119 121 125 C116 130 109 133 102 133 C90 133 75 124 75 111 C75 105 78 98 80 93 C107 19 170 -20 248 -20 L248 -20 Z M242 743 C252 732 293 688 302 683 C306 681 311 680 316 680 C328 680 343 688 343 702 C343 706 342 708 340 712 C337 715 263 789 260 791 C255 794 251 795 245 795 C239 795 233 793 228 790 C223 787 151 714 147 709 C145 706 143 702 143 698 C143 686 155 680 166 680 C171 680 176 681 181 684 C190 689 231 732 242 743 L242 743 Z " />
<glyph glyph-name="scircumflex" unicode="&#x15d;" horiz-adv-x="351" d="M178 420 C114 420 63 382 63 315 C63 260 103 220 151 199 C193 181 251 157 251 103 C251 58 227 20 178 20 C144 20 116 33 103 67 C98 82 99 95 78 95 C66 95 51 87 51 73 C51 50 72 18 90 5 C115 -13 144 -20 174 -20 C248 -20 301 32 301 106 C301 157 260 196 218 218 C173 241 112 255 112 318 C112 362 137 380 179 380 L178 380 C245 377 228 330 261 330 C273 330 288 338 288 352 C288 353 288 355 287 356 C272 402 222 420 178 420 L178 420 Z M174 568 C184 557 225 513 234 508 C238 506 243 505 248 505 C260 505 275 513 275 527 C275 531 274 533 272 537 C269 540 195 614 192 616 C187 619 183 620 177 620 C171 620 165 618 160 615 C155 612 83 539 79 534 C77 531 75 527 75 523 C75 511 87 505 98 505 C103 505 108 506 113 509 C122 514 163 557 174 568 L174 568 Z " />
<glyph glyph-name="Scedilla" unicode="&#x15e;" horiz-adv-x="500" d="M268 -102 C268 -116 261 -130 245 -130 C205 -130 233 -80 195 -80 C183 -80 168 -88 168 -102 C168 -143 200 -170 241 -170 C286 -170 318 -140 318 -95 L318 -48 C318 -34 314 -22 308 -12 C381 11 425 76 425 162 C425 246 352 307 280 336 C265 343 250 352 235 357 C179 376 136 404 136 469 C136 527 173 580 235 580 C282 580 328 563 352 520 C357 512 362 493 367 488 C371 482 378 480 385 480 C397 480 412 488 412 502 C412 507 409 514 407 519 C379 590 312 620 240 620 C151 620 86 553 86 465 C86 385 139 345 208 320 C219 317 228 311 238 307 C301 280 376 237 376 159 C376 81 335 20 252 20 C202 20 158 44 135 90 C131 99 126 119 121 125 C116 130 109 133 102 133 C90 133 75 124 75 111 C75 105 78 98 80 93 C107 21 167 -18 241 -20 C254 -23 268 -27 268 -55 L268 -102 Z " />
<glyph glyph-name="scedilla" unicode="&#x15f;" horiz-adv-x="351" d="M200 -102 C200 -116 193 -130 177 -130 C137 -130 165 -80 127 -80 C115 -80 100 -88 100 -102 C100 -143 132 -170 173 -170 C218 -170 250 -140 250 -95 L250 -48 C250 -32 245 -17 236 -6 C276 14 301 55 301 106 C301 157 260 196 218 218 C173 241 112 255 112 318 C112 362 137 380 179 380 L178 380 C245 377 228 330 261 330 C273 330 288 338 288 352 C288 353 288 355 287 356 C272 402 222 420 178 420 C114 420 63 382 63 315 C63 260 103 220 151 199 C193 181 251 157 251 103 C251 58 227 20 178 20 C144 20 116 33 103 67 C98 82 99 95 78 95 C66 95 51 87 51 73 C51 50 72 18 90 5 C115 -13 144 -20 174 -20 C187 -23 200 -27 200 -55 L200 -102 Z " />
<glyph glyph-name="Scaron" unicode="&#x160;" horiz-adv-x="500" d="M248 -20 C357 -20 425 55 425 162 C425 246 352 306 280 336 C265 343 250 352 235 357 C179 376 136 404 136 469 C136 527 173 580 235 580 C282 580 328 563 352 520 C357 512 362 493 367 488 C371 482 378 480 385 480 C397 480 412 488 412 502 C412 507 409 514 407 519 C379 590 312 620 240 620 C151 620 86 553 86 465 C86 385 139 345 208 320 C219 317 228 311 237 307 C301 280 376 237 376 159 C376 81 335 20 252 20 C202 20 158 44 135 90 C131 99 126 119 121 125 C116 130 109 133 102 133 C90 133 75 124 75 111 C75 105 78 98 80 93 C107 19 170 -20 248 -20 L248 -20 Z M248 680 C254 680 260 682 265 685 C270 688 342 761 346 766 C348 769 350 773 350 777 C350 789 338 795 327 795 C322 795 317 794 312 791 C303 786 262 743 251 732 C241 743 200 787 191 792 C187 794 182 795 177 795 C165 795 150 787 150 773 C150 769 151 767 153 763 C156 760 230 686 233 684 C238 681 242 680 248 680 L248 680 Z " />
<glyph glyph-name="scaron" unicode="&#x161;" horiz-adv-x="351" d="M178 420 C114 420 63 382 63 315 C63 260 103 220 151 199 C193 181 251 157 251 103 C251 58 227 20 178 20 C144 20 116 33 103 67 C98 82 99 95 78 95 C66 95 51 87 51 73 C51 50 72 18 90 5 C115 -13 144 -20 174 -20 C248 -20 301 32 301 106 C301 157 260 196 218 218 C173 241 112 255 112 318 C112 362 137 380 179 380 L178 380 C245 377 228 330 261 330 C273 330 288 338 288 352 C288 353 288 355 287 356 C272 402 222 420 178 420 L178 420 Z M174 505 C180 505 186 507 191 510 C196 513 268 586 272 591 C274 594 276 598 276 602 C276 614 264 620 253 620 C248 620 243 619 238 616 C229 611 188 568 177 557 C167 568 126 612 117 617 C113 619 108 620 103 620 C91 620 76 612 76 598 C76 594 77 592 79 588 C82 585 156 511 159 509 C164 506 168 505 174 505 L174 505 Z " />
<glyph glyph-name="uni0162" unicode="&#x162;" horiz-adv-x="450" d="M275 2 C275 14 263 20 252 20 L250 20 L250 580 L398 580 C410 580 425 588 425 602 C425 614 413 620 402 620 L52 620 C40 620 25 612 25 598 C25 586 37 580 48 580 L200 580 L200 20 C189 19 175 11 175 -2 C175 -24 205 -20 220 -20 C209 -66 196 -112 185 -157 C182 -171 175 -188 175 -202 C175 -214 187 -220 198 -220 C208 -220 216 -216 222 -208 C224 -205 275 -6 275 2 L275 2 Z " />
<glyph glyph-name="uni0163" unicode="&#x163;" horiz-adv-x="325" d="M325 2 C325 14 313 20 302 20 L253 20 C204 24 175 39 158 88 C154 100 151 113 151 126 L151 380 L249 380 C261 380 276 388 276 402 C276 414 264 420 253 420 L151 420 L151 491 C151 508 149 520 128 520 C116 520 101 512 101 498 L101 420 L53 420 C41 420 26 412 26 398 C26 386 38 380 49 380 L101 380 L101 123 C101 86 118 43 145 17 C173 -10 210 -20 249 -20 C256 -21 264 -20 270 -20 C259 -66 246 -112 235 -157 C232 -171 225 -188 225 -202 C225 -214 237 -220 248 -220 C258 -220 266 -216 272 -208 C274 -205 325 -6 325 2 L325 2 Z " />
<glyph glyph-name="Tcaron" unicode="&#x164;" horiz-adv-x="450" d="M52 620 C40 620 25 612 25 598 C25 586 37 580 48 580 L200 580 L200 -2 C200 -14 212 -20 223 -20 C235 -20 250 -12 250 2 L250 580 L398 580 C410 580 425 588 425 602 C425 614 413 620 402 620 L52 620 Z M223 680 C229 680 235 682 240 685 C245 688 317 761 321 766 C323 769 325 773 325 777 C325 789 313 795 302 795 C297 795 292 794 287 791 C278 786 237 743 226 732 C216 743 175 787 166 792 C162 794 157 795 152 795 C140 795 125 787 125 773 C125 769 126 767 128 763 C131 760 205 686 208 684 C213 681 217 680 223 680 L223 680 Z " />
<glyph glyph-name="tcaron" unicode="&#x165;" horiz-adv-x="325" d="M150 420 L150 491 C150 508 148 520 127 520 C115 520 100 512 100 498 L100 420 L52 420 C40 420 25 412 25 398 C25 386 37 380 48 380 L100 380 L100 123 C100 86 117 43 144 17 C173 -10 209 -20 248 -20 C260 -20 275 -12 275 2 C275 15 263 19 252 20 C203 24 174 39 157 88 C153 100 150 113 150 126 L150 380 L248 380 C260 380 275 388 275 402 C275 414 263 420 252 420 L150 420 Z M399 602 C399 614 387 620 376 620 L326 620 C314 620 299 612 299 598 C299 576 329 580 344 580 C333 534 320 488 309 443 C306 429 299 412 299 398 C299 386 311 380 322 380 C332 380 340 384 346 392 C348 395 399 594 399 602 L399 602 Z " />
<glyph glyph-name="Tbar" unicode="&#x166;" horiz-adv-x="450" d="M52 620 C40 620 25 612 25 598 C25 586 37 580 48 580 L200 580 L200 -2 C200 -14 212 -20 223 -20 C235 -20 250 -12 250 2 L250 580 L398 580 C410 580 425 588 425 602 C425 614 413 620 402 620 L52 620 Z M298 705 C310 705 325 713 325 727 C325 739 313 745 302 745 L152 745 C140 745 125 737 125 723 C125 711 137 705 148 705 L298 705 Z " />
<glyph glyph-name="tbar" unicode="&#x167;" horiz-adv-x="300" d="M101 480 L101 420 L53 420 C41 420 26 412 26 398 C26 386 38 380 49 380 L101 380 L101 123 C101 86 118 43 145 17 C174 -10 210 -20 249 -20 C261 -20 276 -12 276 2 C276 15 264 19 253 20 C204 24 175 39 158 88 C154 100 151 113 151 126 L151 380 L249 380 C261 380 276 388 276 402 C276 414 264 420 253 420 L151 420 L151 480 L223 480 C235 480 250 488 250 502 C250 514 238 520 227 520 L77 520 C65 520 50 512 50 498 C50 486 62 480 73 480 L101 480 Z " />
<glyph glyph-name="Utilde" unicode="&#x168;" horiz-adv-x="550" d="M75 598 L75 173 C75 123 98 63 135 28 C173 -7 222 -20 273 -20 C391 -20 475 61 475 180 L475 602 C475 614 463 620 452 620 C429 620 425 605 425 585 C425 454 426 323 426 191 C426 95 382 20 277 20 C206 20 157 54 135 122 C129 139 125 158 125 176 L125 592 C125 609 122 620 102 620 C90 620 75 612 75 598 L75 598 Z M327 720 C296 720 287 770 227 770 C186 770 150 742 150 698 C150 686 162 680 173 680 C215 680 187 730 223 730 C254 730 263 680 323 680 C364 680 400 708 400 752 C400 764 388 770 377 770 C335 770 363 720 327 720 L327 720 Z " />
<glyph glyph-name="utilde" unicode="&#x169;" horiz-adv-x="450" d="M325 20 L227 20 C163 20 125 67 125 130 C125 184 125 239 125 293 C125 303 125 404 124 408 C119 416 112 420 102 420 C90 420 75 412 75 398 L75 123 C75 86 92 43 119 17 C147 -10 184 -20 223 -20 L348 -20 C360 -20 375 -12 375 2 L375 402 C375 414 363 420 352 420 C340 420 331 414 326 404 C323 397 325 60 325 20 L325 20 Z M276 545 C245 545 236 595 176 595 C135 595 99 567 99 523 C99 511 111 505 122 505 C164 505 136 555 172 555 C203 555 212 505 272 505 C313 505 349 533 349 577 C349 589 337 595 326 595 C284 595 312 545 276 545 L276 545 Z " />
<glyph glyph-name="Umacron" unicode="&#x16a;" horiz-adv-x="550" d="M75 598 L75 173 C75 123 98 63 135 28 C173 -7 222 -20 273 -20 C391 -20 475 61 475 180 L475 602 C475 614 463 620 452 620 C429 620 425 605 425 585 C425 454 426 323 426 191 C426 95 382 20 277 20 C206 20 157 54 135 122 C129 139 125 158 125 176 L125 592 C125 609 122 620 102 620 C90 620 75 612 75 598 L75 598 Z M198 705 L348 705 C360 705 375 713 375 727 C375 739 363 745 352 745 L202 745 C190 745 175 737 175 723 C175 711 187 705 198 705 L198 705 Z " />
<glyph glyph-name="umacron" unicode="&#x16b;" horiz-adv-x="450" d="M325 20 L227 20 C163 20 125 67 125 130 C125 184 125 239 125 293 C125 303 125 404 124 408 C119 416 112 420 102 420 C90 420 75 412 75 398 L75 123 C75 86 92 43 119 17 C147 -10 184 -20 223 -20 L348 -20 C360 -20 375 -12 375 2 L375 402 C375 414 363 420 352 420 C340 420 331 414 326 404 C323 397 325 60 325 20 L325 20 Z M147 530 L297 530 C309 530 324 538 324 552 C324 564 312 570 301 570 L151 570 C139 570 124 562 124 548 C124 536 136 530 147 530 L147 530 Z " />
<glyph glyph-name="Ubreve" unicode="&#x16c;" horiz-adv-x="550" d="M75 598 L75 173 C75 123 98 63 135 28 C173 -7 222 -20 273 -20 C391 -20 475 61 475 180 L475 602 C475 614 463 620 452 620 C429 620 425 605 425 585 C425 454 426 323 426 191 C426 95 382 20 277 20 C206 20 157 54 135 122 C129 139 125 158 125 176 L125 592 C125 609 122 620 102 620 C90 620 75 612 75 598 L75 598 Z M175 773 C175 719 213 680 268 680 C324 680 375 717 375 776 C375 789 364 795 352 795 C341 795 329 789 326 778 C324 773 325 767 324 762 C319 734 301 720 272 720 C245 720 232 739 226 764 C223 781 226 795 202 795 C190 795 175 787 175 773 L175 773 Z " />
<glyph glyph-name="ubreve" unicode="&#x16d;" horiz-adv-x="450" d="M325 20 L227 20 C163 20 125 67 125 130 C125 184 125 239 125 293 C125 303 125 404 124 408 C119 416 112 420 102 420 C90 420 75 412 75 398 L75 123 C75 86 92 43 119 17 C147 -10 184 -20 223 -20 L348 -20 C360 -20 375 -12 375 2 L375 402 C375 414 363 420 352 420 C340 420 331 414 326 404 C323 397 325 60 325 20 L325 20 Z M124 598 C124 544 162 505 217 505 C273 505 324 542 324 601 C324 614 313 620 301 620 C290 620 278 614 275 603 C273 598 274 592 273 587 C268 559 250 545 221 545 C194 545 181 564 175 589 C172 606 175 620 151 620 C139 620 124 612 124 598 L124 598 Z " />
<glyph glyph-name="Uring" unicode="&#x16e;" horiz-adv-x="550" d="M278 642 C247 642 224 670 224 700 C224 728 243 755 273 755 C304 755 327 726 327 696 C327 668 307 642 278 642 L278 642 Z M75 173 C75 123 98 63 135 28 C173 -7 222 -20 273 -20 C391 -20 475 61 475 180 L475 602 C475 614 463 620 452 620 C429 620 425 605 425 585 C425 454 426 323 426 191 C426 95 382 20 277 20 C206 20 157 54 135 122 C129 139 125 158 125 176 L125 592 C125 609 122 620 102 620 C90 620 75 612 75 598 L75 173 Z M377 700 C377 755 331 795 277 795 C222 795 174 752 174 696 C174 642 220 602 273 602 C327 602 377 643 377 700 L377 700 Z " />
<glyph glyph-name="uring" unicode="&#x16f;" horiz-adv-x="450" d="M227 467 C196 467 173 495 173 525 C173 553 192 580 222 580 C253 580 276 551 276 521 C276 493 256 467 227 467 L227 467 Z M227 20 C163 20 125 67 125 130 C125 184 125 239 125 293 C125 303 125 404 124 408 C119 416 112 420 102 420 C90 420 75 412 75 398 L75 123 C75 86 92 43 119 17 C147 -10 184 -20 223 -20 L348 -20 C360 -20 375 -12 375 2 L375 402 C375 414 363 420 352 420 C340 420 331 414 326 404 C323 397 325 60 325 20 L227 20 Z M326 525 C326 580 280 620 226 620 C171 620 123 577 123 521 C123 467 169 427 222 427 C276 427 326 468 326 525 L326 525 Z " />
<glyph glyph-name="Uhungarumlaut" unicode="&#x170;" horiz-adv-x="550" d="M75 598 L75 173 C75 123 98 63 135 28 C173 -7 222 -20 273 -20 C391 -20 475 61 475 180 L475 602 C475 614 463 620 452 620 C429 620 425 605 425 585 C425 454 426 323 426 191 C426 95 382 20 277 20 C206 20 157 54 135 122 C129 139 125 158 125 176 L125 592 C125 609 122 620 102 620 C90 620 75 612 75 598 L75 598 Z M166 698 C166 686 178 680 189 680 C195 680 201 682 206 685 C211 688 283 761 287 766 C289 769 291 773 291 777 C291 789 279 795 268 795 C262 795 256 793 251 790 C246 787 174 714 170 709 C168 706 166 702 166 698 L166 698 Z M341 698 C341 686 353 680 364 680 C370 680 376 682 381 685 C386 688 458 761 462 766 C464 769 466 773 466 777 C466 789 454 795 443 795 C437 795 431 793 426 790 C421 787 349 714 345 709 C343 706 341 702 341 698 L341 698 Z " />
<glyph glyph-name="uhungarumlaut" unicode="&#x171;" horiz-adv-x="450" d="M325 20 L227 20 C163 20 125 67 125 130 C125 184 125 239 125 293 C125 303 125 404 124 408 C119 416 112 420 102 420 C90 420 75 412 75 398 L75 123 C75 86 92 43 119 17 C147 -10 184 -20 223 -20 L348 -20 C360 -20 375 -12 375 2 L375 402 C375 414 363 420 352 420 C340 420 331 414 326 404 C323 397 325 60 325 20 L325 20 Z M115 523 C115 511 127 505 138 505 C144 505 150 507 155 510 C160 513 232 586 236 591 C238 594 240 598 240 602 C240 614 228 620 217 620 C211 620 205 618 200 615 C195 612 123 539 119 534 C117 531 115 527 115 523 L115 523 Z M290 523 C290 511 302 505 313 505 C319 505 325 507 330 510 C335 513 407 586 411 591 C413 594 415 598 415 602 C415 614 403 620 392 620 C386 620 380 618 375 615 C370 612 298 539 294 534 C292 531 290 527 290 523 L290 523 Z " />
<glyph glyph-name="Uogonek" unicode="&#x172;" horiz-adv-x="500" d="M175 -102 C175 -143 207 -170 248 -170 C289 -170 325 -142 325 -98 C325 -86 313 -80 302 -80 C260 -80 288 -130 252 -130 C232 -130 225 -112 225 -95 L225 -48 C225 -25 236 -22 248 -20 C366 -20 450 61 450 180 L450 602 C450 614 438 620 427 620 C404 620 400 605 400 585 C400 454 401 323 401 191 C401 95 357 20 252 20 C181 20 132 54 110 122 C104 139 100 158 100 176 L100 592 C100 609 97 620 77 620 C65 620 50 612 50 598 L50 173 C50 87 103 8 187 -13 C179 -25 175 -39 175 -55 L175 -102 Z " />
<glyph glyph-name="uogonek" unicode="&#x173;" horiz-adv-x="400" d="M126 -102 C126 -143 158 -170 199 -170 C240 -170 276 -142 276 -98 C276 -86 264 -80 253 -80 C211 -80 239 -130 203 -130 C183 -130 176 -112 176 -95 L176 -48 C176 -25 187 -22 199 -20 L324 -20 C336 -20 351 -12 351 2 L351 402 C351 414 339 420 328 420 C316 420 307 414 302 404 C299 397 301 60 301 20 L203 20 C139 20 101 67 101 130 C101 184 101 239 101 293 C101 303 101 404 100 408 C95 416 88 420 78 420 C66 420 51 412 51 398 L51 123 C51 65 85 10 139 -10 C131 -22 126 -38 126 -55 L126 -102 Z " />
<glyph glyph-name="Wcircumflex" unicode="&#x174;" horiz-adv-x="700" d="M496 82 L403 328 C398 342 378 403 372 411 C367 417 360 420 352 420 C343 420 334 416 329 409 C322 400 302 339 296 324 L205 82 L74 606 C72 616 61 620 52 620 C40 620 25 612 25 598 C25 597 25 595 26 594 L176 -6 C178 -16 189 -20 198 -20 C207 -20 216 -16 221 -9 C228 0 249 64 255 79 L349 331 L445 75 C451 60 472 -3 478 -11 C483 -17 490 -20 498 -20 C508 -20 521 -14 524 -3 L674 597 C675 599 675 600 675 602 C675 614 663 620 652 620 C642 620 629 614 626 603 L496 82 Z M349 743 C359 732 400 688 409 683 C413 681 418 680 423 680 C435 680 450 688 450 702 C450 706 449 708 447 712 C444 715 370 789 367 791 C362 794 358 795 352 795 C346 795 340 793 335 790 C330 787 258 714 254 709 C252 706 250 702 250 698 C250 686 262 680 273 680 C278 680 283 681 288 684 C297 689 338 732 349 743 L349 743 Z " />
<glyph glyph-name="wcircumflex" unicode="&#x175;" horiz-adv-x="550" d="M396 79 L328 248 C324 257 305 308 302 312 C296 318 291 320 282 320 C273 320 266 317 260 310 C253 303 170 104 158 75 C149 112 78 405 74 410 C68 417 63 420 53 420 C41 420 26 412 26 398 C26 386 46 318 50 300 L125 2 C128 -12 133 -20 149 -20 C158 -20 166 -16 172 -9 C177 -4 196 46 201 57 L279 237 L352 55 C356 45 376 -8 379 -12 C385 -18 390 -20 399 -20 C409 -20 418 -15 424 -6 C425 -4 526 396 526 402 C526 414 514 420 503 420 C492 420 485 416 479 407 C475 402 459 331 456 319 L396 79 Z M274 568 C284 557 325 513 334 508 C338 506 343 505 348 505 C360 505 375 513 375 527 C375 531 374 533 372 537 C369 540 295 614 292 616 C287 619 283 620 277 620 C271 620 265 618 260 615 C255 612 183 539 179 534 C177 531 175 527 175 523 C175 511 187 505 198 505 C203 505 208 506 213 509 C222 514 263 557 274 568 L274 568 Z " />
<glyph glyph-name="Ycircumflex" unicode="&#x176;" horiz-adv-x="444" d="M250 320 C266 342 290 387 303 408 L379 533 C386 544 419 592 419 602 C419 614 407 620 396 620 C388 620 381 617 375 612 C364 601 340 556 331 540 L226 370 L118 539 C105 559 86 597 70 613 C66 618 59 620 52 620 C40 620 25 612 25 598 C25 588 81 506 84 502 L200 318 L200 -2 C200 -14 212 -20 223 -20 C235 -20 250 -12 250 2 L250 320 Z M221 743 C231 732 272 688 281 683 C285 681 290 680 295 680 C307 680 322 688 322 702 C322 706 321 708 319 712 C316 715 242 789 239 791 C234 794 230 795 224 795 C218 795 212 793 207 790 C202 787 130 714 126 709 C124 706 122 702 122 698 C122 686 134 680 145 680 C150 680 155 681 160 684 C169 689 210 732 221 743 L221 743 Z " />
<glyph glyph-name="ycircumflex" unicode="&#x177;" horiz-adv-x="350" d="M325 402 C325 414 313 420 302 420 C292 420 284 416 278 408 C274 403 257 339 253 328 L178 77 C145 186 85 377 76 400 C71 413 68 420 52 420 C40 420 25 412 25 398 C25 391 137 31 149 0 C150 -3 151 -6 152 -9 L142 -43 C133 -75 126 -109 109 -138 C100 -153 88 -169 72 -175 C57 -182 25 -177 25 -202 C25 -214 37 -220 48 -220 C111 -220 151 -170 171 -114 C187 -67 200 -19 215 29 C240 113 265 197 290 282 C293 292 325 397 325 402 L325 402 Z M174 568 C184 557 225 513 234 508 C238 506 243 505 248 505 C260 505 275 513 275 527 C275 531 274 533 272 537 C269 540 195 614 192 616 C187 619 183 620 177 620 C171 620 165 618 160 615 C155 612 83 539 79 534 C77 531 75 527 75 523 C75 511 87 505 98 505 C103 505 108 506 113 509 C122 514 163 557 174 568 L174 568 Z " />
<glyph glyph-name="Ydieresis" unicode="&#x178;" horiz-adv-x="444" d="M250 320 C266 342 290 387 303 408 L379 533 C386 544 419 592 419 602 C419 614 407 620 396 620 C388 620 381 617 375 612 C364 601 340 556 331 540 L226 370 L118 539 C105 559 86 597 70 613 C66 618 59 620 52 620 C40 620 25 612 25 598 C25 588 81 506 84 502 L200 318 L200 -2 C200 -14 212 -20 223 -20 C235 -20 250 -12 250 2 L250 320 Z M147 698 C147 686 159 680 170 680 C182 680 197 688 197 702 L197 777 C197 789 185 795 174 795 C162 795 147 787 147 773 L147 698 Z M247 698 C247 686 259 680 270 680 C282 680 297 688 297 702 L297 777 C297 789 285 795 274 795 C262 795 247 787 247 773 L247 698 Z " />
<glyph glyph-name="Zacute" unicode="&#x179;" horiz-adv-x="500" d="M113 20 L447 593 C449 596 450 599 450 602 C450 614 438 620 427 620 L77 620 C65 620 50 612 50 598 C50 586 62 580 73 580 L387 580 L53 7 C51 4 50 1 50 -2 C50 -14 62 -20 73 -20 L423 -20 C435 -20 450 -12 450 2 C450 14 438 20 427 20 L113 20 Z M224 698 C224 686 236 680 247 680 C253 680 259 682 264 685 C269 688 341 761 345 766 C347 769 349 773 349 777 C349 789 337 795 326 795 C320 795 314 793 309 790 C304 787 232 714 228 709 C226 706 224 702 224 698 L224 698 Z " />
<glyph glyph-name="zacute" unicode="&#x17a;" horiz-adv-x="400" d="M114 20 L270 270 C282 288 350 389 350 402 C350 414 338 420 327 420 L77 420 C65 420 50 412 50 398 C50 389 57 384 64 381 C73 378 256 380 286 380 L130 130 C118 112 50 11 50 -2 C50 -14 62 -20 73 -20 L323 -20 C335 -20 350 -12 350 2 C350 11 343 16 336 19 C327 22 144 20 114 20 L114 20 Z M174 523 C174 511 186 505 197 505 C203 505 209 507 214 510 C219 513 291 586 295 591 C297 594 299 598 299 602 C299 614 287 620 276 620 C270 620 264 618 259 615 C254 612 182 539 178 534 C176 531 174 527 174 523 L174 523 Z " />
<glyph glyph-name="Zdotaccent" unicode="&#x17b;" horiz-adv-x="500" d="M113 20 L447 593 C449 596 450 599 450 602 C450 614 438 620 427 620 L77 620 C65 620 50 612 50 598 C50 586 62 580 73 580 L387 580 L53 7 C51 4 50 1 50 -2 C50 -14 62 -20 73 -20 L423 -20 C435 -20 450 -12 450 2 C450 14 438 20 427 20 L113 20 Z M225 773 L225 698 C225 686 237 680 248 680 C260 680 275 688 275 702 L275 777 C275 789 263 795 252 795 C240 795 225 787 225 773 L225 773 Z " />
<glyph glyph-name="zdotaccent" unicode="&#x17c;" horiz-adv-x="350" d="M90 20 L246 270 C258 288 326 389 326 402 C326 414 314 420 303 420 L53 420 C41 420 26 412 26 398 C26 389 33 384 40 381 C49 378 232 380 262 380 L106 130 C94 112 26 11 26 -2 C26 -14 38 -20 49 -20 L299 -20 C311 -20 326 -12 326 2 C326 11 319 16 312 19 C303 22 120 20 90 20 L90 20 Z M150 598 L150 523 C150 511 162 505 173 505 C185 505 200 513 200 527 L200 602 C200 614 188 620 177 620 C165 620 150 612 150 598 L150 598 Z " />
<glyph glyph-name="Zcaron" unicode="&#x17d;" horiz-adv-x="500" d="M113 20 L447 593 C449 596 450 599 450 602 C450 614 438 620 427 620 L77 620 C65 620 50 612 50 598 C50 586 62 580 73 580 L387 580 L53 7 C51 4 50 1 50 -2 C50 -14 62 -20 73 -20 L423 -20 C435 -20 450 -12 450 2 C450 14 438 20 427 20 L113 20 Z M248 680 C254 680 260 682 265 685 C270 688 342 761 346 766 C348 769 350 773 350 777 C350 789 338 795 327 795 C322 795 317 794 312 791 C303 786 262 743 251 732 C241 743 200 787 191 792 C187 794 182 795 177 795 C165 795 150 787 150 773 C150 769 151 767 153 763 C156 760 230 686 233 684 C238 681 242 680 248 680 L248 680 Z " />
<glyph glyph-name="zcaron" unicode="&#x17e;" horiz-adv-x="400" d="M114 20 L270 270 C282 288 350 389 350 402 C350 414 338 420 327 420 L77 420 C65 420 50 412 50 398 C50 389 57 384 64 381 C73 378 256 380 286 380 L130 130 C118 112 50 11 50 -2 C50 -14 62 -20 73 -20 L323 -20 C335 -20 350 -12 350 2 C350 11 343 16 336 19 C327 22 144 20 114 20 L114 20 Z M197 505 C203 505 209 507 214 510 C219 513 291 586 295 591 C297 594 299 598 299 602 C299 614 287 620 276 620 C271 620 266 619 261 616 C252 611 211 568 200 557 C190 568 149 612 140 617 C136 619 131 620 126 620 C114 620 99 612 99 598 C99 594 100 592 102 588 C105 585 179 511 182 509 C187 506 191 505 197 505 L197 505 Z " />
<glyph glyph-name="longs" unicode="&#x17f;" horiz-adv-x="200" d="M225 602 C225 614 213 620 202 620 C114 620 50 559 50 470 L50 -2 C50 -14 62 -20 73 -20 C107 -20 100 13 100 36 C100 178 99 321 99 464 C99 487 103 510 113 531 C150 605 225 561 225 602 L225 602 Z " />
<glyph glyph-name="uni0180" unicode="&#x180;" horiz-adv-x="425" d="M75 530 L75 -2 C75 -14 87 -20 98 -20 L198 -20 C301 -20 375 51 375 155 L375 252 C375 294 356 344 326 374 C292 408 248 420 200 420 C188 420 173 412 173 398 C173 375 206 380 221 378 C234 377 246 373 258 368 C300 347 325 294 325 248 L325 148 C325 75 278 20 202 20 L125 20 L125 530 L202 530 C214 530 229 538 229 552 C229 564 217 570 206 570 L125 570 L125 602 C125 614 113 620 102 620 C90 620 75 612 75 598 L75 570 L56 570 C44 570 29 562 29 548 C29 536 41 530 52 530 L75 530 Z " />
<glyph glyph-name="uni0181" unicode="&#x181;" horiz-adv-x="700" d="M275 370 L275 580 L398 580 C450 580 496 562 517 511 C521 500 525 485 525 473 C525 429 494 390 453 377 C441 373 425 371 406 370 L275 370 Z M227 620 C144 620 75 563 75 475 C75 462 87 456 98 456 C125 456 123 474 127 494 C134 540 160 574 209 579 C214 580 220 579 225 579 L225 -2 C225 -14 237 -20 248 -20 C260 -20 275 -12 275 2 L275 330 C277 330 280 330 282 330 L398 330 C404 330 410 330 416 330 C432 330 448 329 464 326 C534 310 575 242 575 173 C575 107 536 40 468 24 C443 19 416 20 390 20 C374 20 350 19 350 -2 C350 -14 362 -20 373 -20 L423 -20 C537 -20 625 58 625 177 C625 257 581 328 506 357 C546 383 575 429 575 476 C575 519 550 566 514 590 C481 612 442 620 402 620 L227 620 Z " />
<glyph glyph-name="uni0182" unicode="&#x182;" horiz-adv-x="500" d="M60 -17 C64 -19 69 -20 73 -20 C69 -20 64 -19 60 -17 L60 -17 Z M233 580 C245 580 260 588 260 602 C260 614 248 620 237 620 L87 620 C86 620 84 620 82 620 C68 620 50 615 50 598 L50 -2 C50 -9 55 -14 60 -17 C64 -19 69 -20 73 -20 L248 -20 C366 -20 450 61 450 180 L450 227 C450 277 427 337 390 372 C352 407 303 420 252 420 L202 420 C190 420 175 412 175 398 C175 381 193 380 206 380 L248 380 C342 380 400 311 400 220 L400 173 C400 150 393 122 384 101 C346 17 281 20 201 20 L100 20 L100 580 L233 580 Z " />
<glyph glyph-name="uni0183" unicode="&#x183;" horiz-adv-x="400" d="M60 615 C54 611 50 605 50 598 C50 605 54 611 60 615 L60 615 Z M77 620 C72 620 65 618 60 615 C65 618 72 620 77 620 L77 620 Z M223 580 C235 580 250 588 250 602 C250 614 238 620 227 620 L77 620 C65 620 50 612 50 598 L50 -2 C50 -14 62 -20 73 -20 L173 -20 C276 -20 350 51 350 155 L350 252 C350 294 331 344 301 374 C267 408 223 420 175 420 C163 420 148 412 148 398 C148 375 181 380 196 378 C209 377 221 373 233 368 C275 347 300 294 300 248 L300 148 C300 75 253 20 177 20 L100 20 L100 580 L223 580 Z " />
<glyph glyph-name="uni0184" unicode="&#x184;" horiz-adv-x="600" d="M160 -17 C164 -19 169 -20 173 -20 C169 -20 164 -19 160 -17 L160 -17 Z M150 580 L150 -2 C150 -9 155 -14 160 -17 C164 -19 169 -20 173 -20 L348 -20 C466 -20 550 61 550 180 L550 227 C550 277 527 337 490 372 C452 407 403 420 352 420 L302 420 C290 420 275 412 275 398 C275 381 293 380 306 380 L348 380 C442 380 500 311 500 220 L500 173 C500 150 493 122 484 101 C446 17 381 20 301 20 L200 20 L200 602 C200 614 188 620 177 620 L27 620 C15 620 0 612 0 598 C0 586 12 580 23 580 L150 580 Z " />
<glyph glyph-name="uni0185" unicode="&#x185;" horiz-adv-x="450" d="M105 -13 C109 -18 116 -20 123 -20 C116 -20 109 -18 105 -13 L105 -13 Z M100 380 L100 -2 C100 -6 102 -10 105 -13 C109 -18 116 -20 123 -20 L248 -20 C334 -20 400 39 400 127 C400 186 364 244 306 262 C284 269 261 270 238 270 C223 270 200 268 200 248 C200 206 291 263 335 180 C344 164 350 141 350 123 C350 107 346 89 339 74 C316 20 271 19 220 19 C197 19 173 20 150 21 L150 402 C150 414 138 420 127 420 L27 420 C15 420 0 412 0 398 C0 386 12 380 23 380 L100 380 Z " />
<glyph glyph-name="uni0186" unicode="&#x186;" horiz-adv-x="500" d="M198 620 C170 620 141 617 114 607 C96 600 50 574 50 552 C50 538 65 530 77 530 C83 530 89 531 93 535 C100 540 103 548 109 553 C132 574 172 580 202 580 C272 580 319 548 340 481 C346 464 350 445 350 427 L350 180 C350 160 347 141 340 122 C318 54 269 20 198 20 C167 20 128 26 105 48 C93 60 92 71 73 71 C62 71 50 64 50 52 C50 27 103 -2 124 -8 C149 -17 176 -20 202 -20 C253 -20 301 -7 340 28 C377 63 400 123 400 173 L400 420 C400 540 314 620 198 620 L198 620 Z " />
<glyph glyph-name="uni0187" unicode="&#x187;" horiz-adv-x="525" d="M450 770 C362 770 300 708 300 620 L300 616 C284 619 268 620 252 620 C136 620 50 540 50 420 L50 173 C50 123 73 63 110 28 C149 -7 197 -20 248 -20 C274 -20 301 -17 326 -9 C347 -2 400 27 400 52 C400 64 388 71 377 71 C358 71 357 60 345 48 C322 26 283 20 252 20 C181 20 132 54 110 122 C103 141 100 160 100 180 L100 427 C100 445 104 464 110 481 C131 548 178 580 248 580 C266 580 287 578 306 572 C310 568 316 566 321 566 C329 562 335 558 341 553 C347 548 351 540 357 535 C361 531 367 530 373 530 C385 530 400 538 400 552 C400 569 372 589 351 600 C351 609 350 618 350 625 C350 648 358 676 371 695 C409 747 475 714 475 752 C475 765 462 770 450 770 L450 770 Z " />
<glyph glyph-name="uni0188" unicode="&#x188;" horiz-adv-x="450" d="M415 545 C332 545 276 495 266 412 C266 410 266 409 266 408 C246 416 225 420 205 420 C115 420 50 361 50 270 L50 123 C50 86 67 43 94 17 C123 -11 160 -20 200 -20 C218 -20 237 -17 254 -11 C271 -5 312 20 312 40 C312 52 300 58 290 58 C262 58 262 20 202 20 C138 20 100 68 100 130 L100 277 C100 335 137 380 198 380 C237 380 252 364 265 353 C265 326 264 300 264 274 C264 262 276 256 287 256 C297 256 308 261 312 271 C316 278 314 347 314 361 C314 435 322 500 411 505 C423 505 438 513 438 527 C438 539 426 545 415 545 L415 545 Z " />
<glyph glyph-name="uni0189" unicode="&#x189;" horiz-adv-x="525" d="M75 330 L75 -2 C75 -14 87 -20 98 -20 C110 -20 125 -12 125 2 L125 330 L248 330 C260 330 275 338 275 352 C275 364 263 370 252 370 L125 370 L125 580 L248 580 C330 580 387 541 413 462 C421 441 425 418 425 395 L425 173 C425 108 381 47 318 29 C289 20 259 20 228 20 C216 20 200 13 200 -2 C200 -19 219 -20 232 -20 C275 -20 315 -17 355 0 C427 29 475 102 475 180 L475 402 C475 458 448 527 406 566 C363 605 309 620 252 620 L102 620 C90 620 75 612 75 598 L75 370 L52 370 C40 370 25 362 25 348 C25 336 37 330 48 330 L75 330 Z " />
<glyph glyph-name="uni018A" unicode="&#x18a;" horiz-adv-x="600" d="M152 620 C69 620 0 563 0 475 C0 462 12 456 23 456 C50 456 48 474 52 494 C59 540 85 574 134 579 C139 580 145 579 150 579 L150 -2 C150 -14 162 -20 173 -20 C185 -20 200 -12 200 2 L200 580 L323 580 C405 580 462 541 488 462 C496 441 500 418 500 395 L500 173 C500 108 456 47 393 29 C364 20 334 20 303 20 C291 20 275 13 275 -2 C275 -19 294 -20 307 -20 C350 -20 390 -17 430 0 C502 29 550 102 550 180 L550 402 C550 458 523 527 481 566 C438 605 384 620 327 620 L152 620 Z " />
<glyph glyph-name="uni018C" unicode="&#x18c;" horiz-adv-x="400" d="M300 580 L300 420 L226 420 C123 420 49 349 49 245 L49 148 C49 106 68 56 98 26 C132 -7 175 -20 222 -20 C234 -20 249 -12 249 2 C249 15 237 19 226 20 C165 25 128 43 107 105 C102 120 99 136 99 152 L99 252 C99 273 106 299 115 318 C144 376 188 380 247 380 L300 380 L300 -1 C300 -13 312 -19 323 -19 C335 -19 350 -11 350 3 L350 603 C350 615 338 621 327 621 C325 621 322 621 320 620 L176 620 C164 620 149 612 149 598 C149 586 161 580 172 580 L300 580 Z " />
<glyph glyph-name="uni0190" unicode="&#x190;" horiz-adv-x="450" d="M350 150 C350 164 335 172 323 172 C314 172 306 169 302 161 C299 156 297 127 295 118 C280 56 236 22 173 22 C102 22 60 64 51 133 C49 152 50 171 50 190 C50 278 93 326 177 332 C188 333 200 337 200 350 C200 365 185 371 173 372 C125 376 98 389 82 437 C78 449 75 462 75 475 C75 536 115 582 177 582 C229 582 261 554 272 504 C277 483 271 457 302 457 C313 457 325 463 325 476 C325 563 258 622 173 622 C134 622 97 612 69 585 C42 559 25 516 25 479 C25 432 50 381 90 355 C11 319 0 239 0 162 C0 54 68 -18 177 -18 C224 -18 267 -5 301 28 C331 58 350 108 350 150 L350 150 Z " />
<glyph glyph-name="florin" unicode="&#x192;" horiz-adv-x="225" d="M-27 -220 C61 -220 125 -159 125 -70 L125 2 C125 2 125 3 125 4 C126 14 125 26 125 36 C125 150 125 265 124 380 L198 380 C210 380 225 388 225 402 C225 414 213 420 202 420 L124 420 C124 435 124 449 124 464 C124 487 128 510 138 531 C175 605 250 561 250 602 C250 614 238 620 227 620 C139 620 75 559 75 470 L75 420 L27 420 C15 420 0 412 0 398 C0 386 12 380 23 380 L75 380 L75 -3 C74 -20 76 -55 76 -65 C76 -133 48 -176 -23 -180 C-35 -180 -50 -188 -50 -202 C-50 -214 -38 -220 -27 -220 L-27 -220 Z " />
<glyph glyph-name="uni01B5" unicode="&#x1b5;" horiz-adv-x="500" d="M270 380 L53 7 C51 4 50 1 50 -2 C50 -14 62 -20 73 -20 L423 -20 C435 -20 450 -12 450 2 C450 14 438 20 427 20 L113 20 L323 380 L373 380 C385 380 400 388 400 402 C400 414 388 420 377 420 L347 420 L447 593 C449 596 450 599 450 602 C450 614 438 620 427 620 L77 620 C65 620 50 612 50 598 C50 586 62 580 73 580 L387 580 L294 420 L227 420 C215 420 200 412 200 398 C200 386 212 380 223 380 L270 380 Z " />
<glyph glyph-name="uni01C4" unicode="&#x1c4;" horiz-adv-x="925" d="M450 180 L450 402 C450 458 423 527 381 566 C338 605 284 620 227 620 L77 620 C65 620 50 612 50 598 L50 -2 C50 -14 62 -20 73 -20 C85 -20 100 -12 100 2 L100 580 L223 580 C305 580 362 541 388 462 C396 441 400 418 400 395 L400 173 C400 108 356 47 293 29 C264 20 234 20 203 20 C191 20 175 13 175 -2 C175 -19 194 -20 207 -20 C250 -20 289 -17 330 0 C402 29 450 102 450 180 L450 180 Z M538 20 L872 593 C874 596 875 599 875 602 C875 614 863 620 852 620 L502 620 C490 620 475 612 475 598 C475 586 487 580 498 580 L812 580 L478 7 C476 4 475 1 475 -2 C475 -14 487 -20 498 -20 L848 -20 C860 -20 875 -12 875 2 C875 14 863 20 852 20 L538 20 Z M673 680 C679 680 685 682 690 685 C695 688 767 761 771 766 C773 769 775 773 775 777 C775 789 763 795 752 795 C747 795 742 794 737 791 C728 786 687 743 676 732 C666 743 625 787 616 792 C612 794 607 795 602 795 C590 795 575 787 575 773 C575 769 576 767 578 763 C581 760 655 686 658 684 C663 681 667 680 673 680 L673 680 Z " />
<glyph glyph-name="uni01C5" unicode="&#x1c5;" horiz-adv-x="850" d="M450 180 L450 402 C450 458 423 527 381 566 C338 605 284 620 227 620 L77 620 C65 620 50 612 50 598 L50 -2 C50 -14 62 -20 73 -20 C85 -20 100 -12 100 2 L100 580 L223 580 C305 580 362 541 388 462 C396 441 400 418 400 395 L400 173 C400 108 356 47 293 29 C264 20 234 20 203 20 C191 20 175 13 175 -2 C175 -19 194 -20 207 -20 C250 -20 289 -17 330 0 C402 29 450 102 450 180 L450 180 Z M564 20 L720 270 C732 288 800 389 800 402 C800 414 788 420 777 420 L527 420 C515 420 500 412 500 398 C500 389 507 384 514 381 C523 378 706 380 736 380 L580 130 C568 112 500 11 500 -2 C500 -14 512 -20 523 -20 L773 -20 C785 -20 800 -12 800 2 C800 11 793 16 786 19 C777 22 594 20 564 20 L564 20 Z M623 480 C629 480 635 482 640 485 C645 488 717 561 721 566 C723 569 725 573 725 577 C725 589 713 595 702 595 C697 595 692 594 687 591 C678 586 637 543 626 532 C616 543 575 587 566 592 C562 594 557 595 552 595 C540 595 525 587 525 573 C525 569 526 567 528 563 C531 560 605 486 608 484 C613 481 617 480 623 480 L623 480 Z " />
<glyph glyph-name="uni01C6" unicode="&#x1c6;" horiz-adv-x="750" d="M100 252 C100 273 107 299 116 318 C145 376 189 380 248 380 L301 380 L301 -1 C301 -13 313 -19 324 -19 C336 -19 351 -11 351 3 L351 603 C351 615 339 621 328 621 C316 621 301 613 301 599 L301 420 L227 420 C124 420 50 349 50 245 L50 148 C50 106 69 56 99 26 C133 -7 176 -20 223 -20 C235 -20 250 -12 250 2 C250 15 238 19 227 20 C166 25 129 43 108 105 C103 120 100 136 100 152 L100 252 Z M620 270 C632 288 700 389 700 402 C700 414 688 420 677 420 L427 420 C415 420 400 412 400 398 C400 389 407 384 414 381 C423 378 606 380 636 380 L480 130 C468 112 400 11 400 -2 C400 -14 412 -20 423 -20 L673 -20 C685 -20 700 -12 700 2 C700 11 693 16 686 19 C677 22 494 20 464 20 L620 270 Z M523 505 C529 505 535 507 540 510 C545 513 617 586 621 591 C623 594 625 598 625 602 C625 614 613 620 602 620 C597 620 592 619 587 616 C578 611 537 568 526 557 C516 568 475 612 466 617 C462 619 457 620 452 620 C440 620 425 612 425 598 C425 594 426 592 428 588 C431 585 505 511 508 509 C513 506 517 505 523 505 L523 505 Z " />
<glyph glyph-name="uni01C7" unicode="&#x1c7;" horiz-adv-x="775" d="M100 20 L100 602 C100 614 88 620 77 620 C65 620 50 612 50 598 L50 -2 C50 -14 62 -20 73 -20 L323 -20 C335 -20 350 -12 350 2 C350 11 343 16 336 19 C326 23 129 20 100 20 L100 20 Z M577 20 C525 20 490 48 479 99 C477 108 476 128 473 134 C469 142 460 145 452 145 C440 145 425 137 425 123 C425 86 442 43 469 17 C497 -10 534 -20 573 -20 C661 -20 725 41 725 130 L725 602 C725 614 713 620 702 620 C668 620 675 587 675 564 C675 422 676 279 676 137 C676 72 648 20 577 20 L577 20 Z " />
<glyph glyph-name="uni01C8" unicode="&#x1c8;" horiz-adv-x="600" d="M100 20 L100 602 C100 614 88 620 77 620 C65 620 50 612 50 598 L50 -2 C50 -14 62 -20 73 -20 L323 -20 C335 -20 350 -12 350 2 C350 11 343 16 336 19 C326 23 129 20 100 20 L100 20 Z M398 -219 C486 -219 550 -158 550 -69 L550 403 C550 415 538 421 527 421 C493 421 500 388 500 365 C500 223 501 80 501 -63 C501 -86 497 -109 487 -130 C450 -204 375 -160 375 -201 C375 -213 387 -219 398 -219 L398 -219 Z M550 553 L550 603 C550 615 538 621 527 621 C515 621 500 613 500 599 L500 549 C500 537 512 531 523 531 C535 531 550 539 550 553 L550 553 Z " />
<glyph glyph-name="uni01C9" unicode="&#x1c9;" horiz-adv-x="375" d="M125 2 L125 602 C125 614 113 620 102 620 C90 620 75 612 75 598 L75 -2 C75 -14 87 -20 98 -20 C110 -20 125 -12 125 2 L125 2 Z M173 -219 C261 -219 325 -158 325 -69 L325 403 C325 415 313 421 302 421 C268 421 275 388 275 365 C275 223 276 80 276 -63 C276 -86 272 -109 262 -130 C225 -204 150 -160 150 -201 C150 -213 162 -219 173 -219 L173 -219 Z M325 553 L325 603 C325 615 313 621 302 621 C290 621 275 613 275 599 L275 549 C275 537 287 531 298 531 C310 531 325 539 325 553 L325 553 Z " />
<glyph glyph-name="uni01CA" unicode="&#x1ca;" horiz-adv-x="875" d="M450 602 C450 614 438 620 427 620 C415 620 400 612 400 598 L400 308 L129 579 C117 592 96 620 77 620 C65 620 50 612 50 598 L50 -2 C50 -14 62 -20 73 -20 C85 -20 100 -12 100 2 L100 542 L376 266 C382 259 391 248 400 240 L400 -2 C400 -14 412 -20 423 -20 C435 -20 450 -12 450 2 L450 602 Z M677 20 C625 20 590 48 579 99 C577 108 576 128 573 134 C569 142 560 145 552 145 C540 145 525 137 525 123 C525 86 542 43 569 17 C597 -10 634 -20 673 -20 C761 -20 825 41 825 130 L825 602 C825 614 813 620 802 620 C768 620 775 587 775 564 C775 422 776 279 776 137 C776 72 748 20 677 20 L677 20 Z " />
<glyph glyph-name="uni01CB" unicode="&#x1cb;" horiz-adv-x="675" d="M450 602 C450 614 438 620 427 620 C415 620 400 612 400 598 L400 308 L129 579 C117 592 96 620 77 620 C65 620 50 612 50 598 L50 -2 C50 -14 62 -20 73 -20 C85 -20 100 -12 100 2 L100 542 L376 266 C382 259 391 248 400 240 L400 -2 C400 -14 412 -20 423 -20 C435 -20 450 -12 450 2 L450 602 Z M473 -219 C561 -219 625 -158 625 -69 L625 403 C625 415 613 421 602 421 C568 421 575 388 575 365 C575 223 576 80 576 -63 C576 -86 572 -109 562 -130 C525 -204 450 -160 450 -201 C450 -213 462 -219 473 -219 L473 -219 Z M625 603 C625 615 613 621 602 621 C590 621 575 613 575 599 L575 549 C575 537 587 531 598 531 C610 531 625 539 625 553 L625 603 Z " />
<glyph glyph-name="uni01CC" unicode="&#x1cc;" horiz-adv-x="575" d="M350 2 L350 277 C350 314 333 357 306 383 C278 410 241 420 202 420 L78 420 C66 420 50 412 50 398 L50 -2 C50 -14 62 -20 73 -20 C85 -20 94 -14 99 -4 C102 3 100 340 100 380 L198 380 C262 380 300 333 300 270 C300 216 300 161 300 107 C300 97 300 -4 301 -8 C306 -16 313 -20 323 -20 C335 -20 350 -12 350 2 L350 2 Z M373 -219 C461 -219 525 -158 525 -69 L525 403 C525 415 513 421 502 421 C468 421 475 388 475 365 C475 223 476 80 476 -63 C476 -86 472 -109 462 -130 C425 -204 350 -160 350 -201 C350 -213 362 -219 373 -219 L373 -219 Z M525 553 L525 603 C525 615 513 621 502 621 C490 621 475 613 475 599 L475 549 C475 537 487 531 498 531 C510 531 525 539 525 553 L525 553 Z " />
<glyph glyph-name="uni01CD" unicode="&#x1cd;" horiz-adv-x="500" d="M364 120 C344 120 323 120 304 120 C247 120 191 120 135 120 L249 513 L364 120 Z M123 79 C147 78 172 79 196 79 C256 79 316 79 376 79 L401 -6 C404 -16 413 -20 423 -20 C435 -20 450 -12 450 2 C450 10 288 560 274 606 C271 616 262 620 252 620 C241 620 229 614 226 603 C213 557 50 6 50 -2 C50 -14 62 -20 73 -20 C84 -20 96 -14 99 -3 L123 79 Z M248 680 C254 680 260 682 265 685 C270 688 342 761 346 766 C348 769 350 773 350 777 C350 789 338 795 327 795 C322 795 317 794 312 791 C303 786 262 743 251 732 C241 743 200 787 191 792 C187 794 182 795 177 795 C165 795 150 787 150 773 C150 769 151 767 153 763 C156 760 230 686 233 684 C238 681 242 680 248 680 L248 680 Z " />
<glyph glyph-name="uni01CE" unicode="&#x1ce;" horiz-adv-x="400" d="M100 102 C100 135 118 170 153 178 C162 180 172 180 181 180 C221 180 260 179 300 179 C300 155 300 131 300 107 C300 97 300 -4 301 -8 C306 -16 313 -20 323 -20 C335 -20 350 -12 350 2 L350 277 C350 314 333 357 306 383 C278 410 241 420 202 420 L152 420 C140 420 125 412 125 398 C125 373 171 380 187 380 C199 380 212 380 224 377 C274 367 300 319 300 270 C300 254 300 237 300 220 L177 220 C106 220 50 171 50 98 C50 27 103 -20 173 -20 L223 -20 C235 -20 250 -12 250 2 C250 28 206 20 190 20 C157 20 129 26 112 57 C105 69 100 88 100 102 L100 102 Z M211 505 C217 505 223 507 228 510 C233 513 305 586 309 591 C311 594 313 598 313 602 C313 614 301 620 290 620 C285 620 280 619 275 616 C266 611 225 568 214 557 C204 568 163 612 154 617 C150 619 145 620 140 620 C128 620 113 612 113 598 C113 594 114 592 116 588 C119 585 193 511 196 509 C201 506 205 505 211 505 L211 505 Z " />
<glyph glyph-name="uni01CF" unicode="&#x1cf;" horiz-adv-x="150" d="M100 2 L100 602 C100 614 88 620 77 620 C65 620 50 612 50 598 L50 -2 C50 -14 62 -20 73 -20 C85 -20 100 -12 100 2 L100 2 Z M73 680 C79 680 85 682 90 685 C95 688 167 761 171 766 C173 769 175 773 175 777 C175 789 163 795 152 795 C147 795 142 794 137 791 C128 786 87 743 76 732 C66 743 25 787 16 792 C12 794 7 795 2 795 C-10 795 -25 787 -25 773 C-25 769 -24 767 -22 763 C-19 760 55 686 58 684 C63 681 67 680 73 680 L73 680 Z " />
</font>
</svg>
