<?xml version="1.0" encoding="UTF-8"?>
<svg xmlns="http://www.w3.org/2000/svg" xmlns:xlink="http://www.w3.org/1999/xlink" version="1.2" >
<font id="GAP Italic">
<font-face  font-family="GAP" units-per-em="1000" ascent="750" descent="-250" font-style="italic" font-weight="400" font-stretch="normal" cap-height="625" x-height="425" underline-position="-100" underline-thickness="50" />
<missing-glyph  horiz-adv-x="450" d="M51 3 C51 -14 57 -20 73 -20 L373 -20 C383 -20 390 -14 396 -8 C398 -6 400 -4 400 -1 L527 597 C527 614 521 620 505 620 L205 620 C195 620 188 614 182 608 C180 606 178 604 178 601 L51 3 Z M300 354 L235 580 L461 580 L300 354 Z M122 105 L206 498 C221 444 241 372 262 300 L262 301 L122 105 Z M372 102 L315 299 L456 495 L372 102 Z M117 20 L279 242 C309 139 336 44 347 7 L117 20 Z " />
<glyph glyph-name="NULL" d="" />
<glyph glyph-name="CR" unicode="&#xd;" horiz-adv-x="250" d="" />
<glyph glyph-name="space" unicode="&#x20;" horiz-adv-x="200" d="" />
<glyph glyph-name="uni0000" d="" />
<glyph glyph-name="uni000D" horiz-adv-x="250" d="" />
<glyph glyph-name="exclam" unicode="&#x21;" horiz-adv-x="150" d="M94 202 C94 187 100 180 114 180 C129 180 140 187 142 198 L227 598 C227 613 221 620 207 620 C193 620 181 613 179 602 L94 202 Z M50 -2 C47 -12 56 -20 69 -20 C84 -20 98 -10 100 2 L116 77 C119 87 110 95 97 95 C82 95 68 85 66 73 L50 -2 Z " />
<glyph glyph-name="quotedbl" unicode="&#x22;" horiz-adv-x="275" d="M146 445 C146 437 157 430 169 430 C183 430 194 439 197 455 C199 467 228 591 228 605 C228 613 217 620 205 620 C191 620 183 610 177 590 C170 566 146 453 146 445 L146 445 Z M271 445 C271 437 282 430 294 430 C308 430 319 439 322 455 C324 467 353 591 353 605 C353 613 342 620 330 620 C316 620 308 610 302 590 C295 566 271 453 271 445 L271 445 Z " />
<glyph glyph-name="numbersign" unicode="&#x23;" horiz-adv-x="450" d="M132 180 C72 50 50 0 50 -8 C50 -14 63 -20 75 -20 C84 -20 92 -16 98 -6 C102 0 106 8 110 20 L138 80 C143 91 161 129 184 179 L257 180 C197 50 175 0 175 -8 C175 -14 188 -20 200 -20 C209 -20 217 -16 223 -6 C227 0 231 8 235 20 L263 80 C268 91 286 129 309 179 L391 180 C406 180 418 190 418 202 C418 212 408 220 395 220 L328 220 C337 239 347 260 356 280 L437 280 C452 280 464 290 464 302 C464 312 454 320 441 320 L374 320 C434 450 456 500 456 508 C456 514 443 520 431 520 C421 520 414 515 408 505 C404 498 400 488 396 480 L368 420 C363 409 345 371 322 321 L249 320 C309 450 331 500 331 508 C331 514 318 520 306 520 C296 520 289 515 283 505 C279 498 275 488 271 480 L243 420 C238 409 220 371 197 321 L116 320 C101 320 89 310 89 298 C89 288 99 280 112 280 L178 280 C169 261 159 240 150 220 L70 220 C55 220 43 210 43 198 C43 188 53 180 66 180 L132 180 Z M203 220 C212 239 222 260 231 280 L303 280 C294 261 284 240 275 220 L203 220 Z " />
<glyph glyph-name="dollar" unicode="&#x24;" horiz-adv-x="400" d="M170 -18 C162 -52 153 -95 153 -103 C153 -113 163 -120 177 -120 C190 -120 198 -111 204 -94 C207 -85 219 -35 222 -19 C311 -8 378 67 378 154 C378 226 333 269 254 271 C201 272 177 294 177 343 C177 419 234 480 306 480 C354 480 382 454 382 407 C382 392 379 383 379 376 C379 363 389 355 404 355 C433 355 431 386 431 402 C431 467 397 508 335 518 C345 557 352 592 352 601 C352 612 342 620 329 620 C315 620 305 612 301 597 C296 579 287 536 284 519 C196 507 127 432 127 348 C127 309 141 275 166 255 C220 212 290 253 319 195 C325 183 329 168 329 151 C329 80 271 20 201 20 C153 20 124 49 124 97 C124 113 127 123 127 130 C127 143 117 151 102 151 C72 151 75 119 75 100 C75 35 110 -8 170 -18 L170 -18 Z " />
<glyph glyph-name="percent" unicode="&#x25;" horiz-adv-x="650" d="M173 -10 C172 -14 184 -20 194 -20 C207 -20 218 -8 242 23 C318 123 581 500 583 510 C584 514 573 520 563 520 C550 520 538 508 514 477 C438 377 175 0 173 -10 L173 -10 Z M99 348 C84 279 125 230 197 230 C270 230 335 281 350 352 L360 402 C375 471 335 520 263 520 C190 520 125 469 110 398 L99 348 Z M299 349 C295 340 294 331 288 318 C272 288 243 270 209 270 C164 270 140 304 150 352 L160 402 C170 449 207 480 251 480 C292 480 314 454 311 410 C310 390 304 370 299 349 L299 349 Z M396 98 C381 29 422 -20 494 -20 C567 -20 632 31 647 102 L657 152 C672 221 631 270 559 270 C486 270 422 219 406 148 L396 98 Z M596 99 C592 90 591 81 584 68 C569 38 540 20 506 20 C461 20 436 54 447 102 L457 152 C467 199 504 230 548 230 C589 230 610 204 608 160 C607 140 601 120 596 99 L596 99 Z " />
<glyph glyph-name="ampersand" unicode="&#x26;" horiz-adv-x="500" d="M375 130 C352 62 295 20 226 20 C164 20 129 54 129 114 C129 179 170 244 226 268 C247 277 266 278 275 279 C302 282 314 289 314 303 C314 339 233 296 233 375 C233 434 276 480 331 480 C369 480 387 459 387 415 L385 404 C385 387 392 380 407 380 C426 380 437 393 437 415 C437 481 399 520 335 520 C252 520 183 456 183 378 C183 348 193 323 211 306 C135 278 79 195 79 111 C79 29 135 -20 227 -20 C320 -20 388 31 426 130 L480 130 C495 130 507 140 507 152 C507 162 497 170 484 170 L334 170 C319 170 307 160 307 148 C307 138 317 130 330 130 L375 130 Z " />
<glyph glyph-name="quotesingle" unicode="&#x27;" horiz-adv-x="100" d="M121 445 C121 437 132 430 144 430 C158 430 169 439 172 455 C174 467 203 591 203 605 C203 613 192 620 180 620 C166 620 158 610 152 590 C145 566 121 453 121 445 L121 445 Z " />
<glyph glyph-name="parenleft" unicode="&#x28;" horiz-adv-x="325" d="M278 -120 C312 -120 329 -113 329 -98 C329 -87 320 -81 300 -79 C282 -77 259 -78 231 -69 C166 -48 127 10 127 88 C127 151 153 248 164 302 L186 404 C191 426 194 449 204 478 C237 572 305 647 390 669 C421 677 446 677 462 679 C487 682 499 689 499 702 C499 715 486 720 454 720 C305 720 179 592 147 452 L83 152 C79 135 78 114 78 94 C78 -36 157 -120 278 -120 L278 -120 Z " />
<glyph glyph-name="parenright" unicode="&#x29;" horiz-adv-x="325" d="M-46 -102 C-46 -114 -33 -120 -3 -120 C141 -120 275 11 306 148 L370 448 C373 464 376 485 376 506 C376 624 302 720 176 720 C141 720 124 713 124 698 C124 687 134 681 154 679 C171 677 194 678 222 669 C287 648 326 590 326 512 C326 449 300 352 289 298 L267 196 C262 174 259 151 249 122 C216 28 148 -47 63 -69 C32 -77 7 -77 -9 -79 C-34 -82 -46 -89 -46 -102 L-46 -102 Z " />
<glyph glyph-name="asterisk" unicode="&#x2a;" horiz-adv-x="300" d="M246 447 L261 394 C263 386 273 380 283 380 C296 380 310 390 310 398 C310 408 292 464 284 492 C309 501 360 523 375 531 C386 537 392 544 392 552 C392 561 383 570 373 570 C363 570 336 559 290 538 C299 577 303 597 303 603 C303 613 293 620 280 620 C267 620 258 613 254 601 C251 593 244 562 238 536 C198 559 175 570 166 570 C154 570 142 559 142 548 C142 542 145 538 152 533 C165 524 203 503 223 492 L164 409 C161 405 160 401 160 397 C160 387 170 380 184 380 C194 380 201 384 206 391 L246 447 Z " />
<glyph glyph-name="plus" unicode="&#x2b;" horiz-adv-x="350" d="M199 230 L181 148 C179 138 188 130 201 130 C216 130 230 140 232 152 L249 230 L322 230 C337 230 351 240 354 252 C356 262 347 270 334 270 L257 270 L275 352 C277 362 269 370 256 370 C241 370 227 360 224 348 L207 270 L134 270 C119 270 105 260 103 248 C101 238 109 230 122 230 L199 230 Z " />
<glyph glyph-name="comma" unicode="&#x2c;" horiz-adv-x="200" d="M91 -20 C70 -66 47 -111 34 -140 C21 -170 10 -189 8 -200 C5 -212 13 -220 27 -220 C39 -220 50 -213 56 -202 C70 -177 149 -7 151 6 C153 13 143 20 131 20 L81 20 C66 20 52 10 49 -3 C45 -24 76 -20 91 -20 L91 -20 Z " />
<glyph glyph-name="hyphen" unicode="&#x2d;" horiz-adv-x="350" d="M103 248 C101 238 109 230 122 230 L322 230 C337 230 351 240 354 252 C356 262 347 270 334 270 L134 270 C119 270 105 260 103 248 L103 248 Z " />
<glyph glyph-name="period" unicode="&#x2e;" horiz-adv-x="150" d="M50 -2 C47 -12 56 -20 69 -20 C84 -20 98 -10 100 2 L116 77 C119 87 110 95 97 95 C82 95 68 85 66 73 L50 -2 Z " />
<glyph glyph-name="slash" unicode="&#x2f;" horiz-adv-x="300" d="M2 -110 C1 -115 12 -120 23 -120 C37 -120 50 -107 65 -78 C82 -46 473 694 476 710 C477 715 465 720 454 720 C440 720 427 707 412 678 C395 646 5 -94 2 -110 L2 -110 Z " />
<glyph glyph-name="zero" unicode="0" horiz-adv-x="450" d="M228 -20 C308 -20 371 21 412 100 C422 119 429 137 432 152 L475 352 C478 367 480 388 477 408 C467 481 421 520 340 520 C257 520 190 479 147 405 C136 386 127 364 124 348 L87 173 C62 58 120 -20 228 -20 L228 -20 Z M424 347 L397 220 C393 204 391 187 388 172 C367 74 314 20 239 20 C159 20 118 84 138 177 L175 352 C191 427 253 480 327 480 C384 480 423 449 427 398 C428 377 424 362 424 347 L424 347 Z " />
<glyph glyph-name="one" unicode="1" horiz-adv-x="250" d="M252 480 L150 -2 C147 -12 156 -20 169 -20 C184 -20 198 -10 200 2 L307 502 C309 512 301 520 288 520 L163 520 C148 520 133 510 131 498 C129 488 137 480 150 480 L252 480 Z " />
<glyph glyph-name="two" unicode="2" horiz-adv-x="400" d="M128 20 C291 159 416 309 432 387 C448 462 396 520 312 520 C244 520 184 485 148 420 C139 403 133 388 131 379 C127 364 135 355 150 355 C164 355 173 364 181 379 C184 387 187 398 194 413 C214 455 253 480 299 480 C358 480 393 438 381 381 C369 324 279 209 158 99 C109 54 81 35 64 17 C54 7 50 2 49 -3 C47 -13 56 -20 69 -20 L319 -20 C334 -20 348 -10 350 2 C353 12 344 20 331 20 L128 20 Z " />
<glyph glyph-name="three" unicode="3" horiz-adv-x="450" d="M404 480 L221 311 C218 308 214 303 213 297 C209 275 243 280 281 280 C339 280 371 260 381 211 C385 189 386 167 381 145 C365 72 302 20 229 20 C170 20 133 52 130 106 C128 124 132 139 133 148 C133 162 126 170 114 170 C96 170 83 154 77 126 C60 45 122 -20 217 -20 C319 -20 411 52 431 147 C437 175 435 197 434 207 C427 283 374 320 290 320 L473 489 C478 493 480 498 481 502 C483 512 475 520 462 520 L212 520 C197 520 182 510 180 498 C178 488 186 480 199 480 L404 480 Z " />
<glyph glyph-name="four" unicode="4" horiz-adv-x="425" d="M112 120 C232 286 381 499 383 509 C384 514 374 520 363 520 C352 520 342 515 335 506 L50 106 C48 104 47 101 46 98 C44 88 52 80 65 80 L342 80 L325 -2 C322 -12 331 -20 344 -20 C359 -20 373 -10 375 2 L418 202 C420 212 412 220 399 220 C384 220 370 210 367 198 L351 120 L112 120 Z " />
<glyph glyph-name="five" unicode="5" horiz-adv-x="450" d="M138 298 C136 288 145 280 158 280 L246 280 C337 280 368 264 381 210 C385 189 386 167 381 145 C365 72 302 20 230 20 C171 20 133 53 130 107 C129 125 132 139 132 147 C133 162 127 170 114 170 C98 170 84 159 80 142 C78 132 77 110 80 92 C88 19 136 -20 214 -20 C319 -20 411 52 432 152 C453 250 395 320 295 320 L197 320 L260 480 L450 480 C465 480 479 490 482 502 C484 512 476 520 463 520 L250 520 C236 520 223 512 219 501 L138 298 Z " />
<glyph glyph-name="six" unicode="6" horiz-adv-x="450" d="M80 92 C87 18 136 -20 217 -20 C319 -20 409 51 432 150 C436 168 436 189 433 209 C424 282 377 320 295 320 L245 320 C230 320 216 310 213 297 C209 275 243 280 280 280 C338 280 367 259 380 210 C385 189 386 167 381 145 C365 72 302 20 230 20 C156 20 116 74 132 152 L170 327 C185 401 239 465 296 477 C321 482 347 480 360 480 C386 480 403 488 406 502 C408 512 400 520 387 520 L338 520 C253 520 187 476 143 388 C131 365 123 344 119 323 L82 148 C78 133 78 112 80 92 L80 92 Z " />
<glyph glyph-name="seven" unicode="7" horiz-adv-x="400" d="M416 480 C271 276 81 1 79 -10 C78 -14 90 -20 100 -20 C113 -20 124 -11 138 9 C157 36 480 492 483 510 C484 514 473 520 463 520 L163 520 C148 520 133 510 131 498 C129 488 137 480 150 480 L416 480 Z " />
<glyph glyph-name="eight" unicode="8" horiz-adv-x="450" d="M214 303 C147 274 95 213 81 147 C62 55 123 -20 219 -20 C316 -20 412 58 432 152 C446 217 420 277 364 305 C401 329 427 364 436 402 C449 467 406 520 338 520 C268 520 199 465 185 398 C177 360 187 325 214 303 L214 303 Z M385 398 C367 346 338 320 299 320 C254 320 226 356 236 402 C245 445 285 480 326 480 C359 480 384 457 386 424 C387 413 385 405 385 398 L385 398 Z M382 148 C377 135 374 122 366 106 C340 57 283 20 230 20 C162 20 117 80 132 152 C147 222 216 280 282 280 C335 280 381 244 384 193 C385 175 381 161 382 148 L382 148 Z " />
<glyph glyph-name="nine" unicode="9" horiz-adv-x="450" d="M148 -3 C146 -13 155 -21 168 -21 L225 -21 C329 -21 412 57 437 176 L475 352 C478 367 479 389 476 405 C464 477 417 519 337 519 C256 519 186 477 146 402 C135 383 127 363 124 348 C119 325 121 302 122 292 C128 218 181 179 261 179 L311 179 C326 179 340 189 343 202 C348 224 313 219 276 219 C218 219 187 240 176 287 C171 309 171 332 176 355 C191 427 253 479 325 479 C399 479 440 425 424 348 L387 172 C370 94 323 35 267 22 C239 16 209 19 193 19 C168 19 151 11 148 -3 L148 -3 Z " />
<glyph glyph-name="colon" unicode="&#x3a;" horiz-adv-x="175" d="M149 348 C146 338 155 330 168 330 C183 330 197 340 199 352 L215 427 C217 437 209 445 196 445 C181 445 167 435 165 423 L149 348 Z M75 -2 C72 -12 81 -20 94 -20 C109 -20 123 -10 125 2 L141 77 C143 87 135 95 122 95 C107 95 93 85 91 73 L75 -2 Z " />
<glyph glyph-name="semicolon" unicode="&#x3b;" horiz-adv-x="200" d="M91 -20 C70 -66 47 -111 34 -140 C21 -170 10 -189 7 -200 C5 -212 13 -220 27 -220 C39 -220 50 -213 56 -202 C70 -177 149 -7 151 6 C153 13 143 20 131 20 L81 20 C66 20 52 10 49 -3 C45 -24 76 -20 91 -20 L91 -20 Z M148 348 C145 338 154 330 167 330 C182 330 196 340 198 352 L214 427 C216 437 208 445 195 445 C180 445 166 435 164 423 L148 348 Z " />
<glyph glyph-name="less" unicode="&#x3c;" horiz-adv-x="225" d="M135 251 L241 338 C246 342 249 347 250 352 C252 363 244 370 230 370 C222 370 214 367 208 362 L87 262 C83 259 79 253 78 248 C77 244 78 239 80 236 L159 136 C162 132 168 130 175 130 C190 130 205 140 207 152 C208 157 207 161 205 164 L135 251 Z " />
<glyph glyph-name="equal" unicode="&#x3d;" horiz-adv-x="350" d="M113 298 C111 288 120 280 133 280 L333 280 C348 280 362 290 364 302 C366 312 358 320 345 320 L145 320 C130 320 116 310 113 298 L113 298 Z M92 198 C90 188 98 180 111 180 L311 180 C326 180 340 190 343 202 C345 212 337 220 324 220 L124 220 C109 220 95 210 92 198 L92 198 Z " />
<glyph glyph-name="greater" unicode="&#x3e;" horiz-adv-x="225" d="M196 249 L90 162 C87 159 82 152 81 147 C79 137 88 130 102 130 C110 130 117 133 123 138 L245 238 C249 242 253 247 254 252 C255 257 253 261 251 264 L172 364 C169 368 164 370 157 370 C142 370 127 360 124 349 C123 344 124 339 126 336 L196 249 Z " />
<glyph glyph-name="question" unicode="&#x3f;" horiz-adv-x="400" d="M229 255 C221 216 206 180 239 180 C271 180 271 216 282 270 C292 314 301 327 347 355 C413 395 441 428 451 477 C469 561 420 620 333 620 C264 620 210 581 169 518 C162 507 154 489 152 479 C149 464 156 455 170 455 C184 455 198 464 203 479 C206 487 207 497 214 512 C234 555 273 580 320 580 C382 580 414 537 400 472 C376 358 264 420 229 255 L229 255 Z M175 -2 C172 -12 181 -20 194 -20 C209 -20 223 -10 225 2 L241 77 C244 87 235 95 222 95 C207 95 193 85 191 73 L175 -2 Z " />
<glyph glyph-name="at" unicode="&#x40;" horiz-adv-x="500" d="M433 152 C433 137 439 130 453 130 C468 130 479 137 481 148 L533 395 C534 397 535 399 535 401 L539 423 C541 436 543 452 543 467 C543 564 482 620 377 620 C286 620 215 577 167 492 C154 468 145 447 141 427 L88 177 C85 165 84 150 84 135 C84 38 145 -20 248 -20 L373 -20 C388 -20 400 -10 400 2 C400 12 390 20 377 20 L262 20 C176 20 134 59 134 139 C134 190 151 244 162 294 C173 346 179 400 197 447 C229 531 294 580 377 580 C453 580 494 539 494 465 C494 453 493 440 490 420 L412 420 C313 420 231 341 231 246 C231 177 275 130 341 130 C367 130 382 138 382 152 C382 163 372 168 348 171 C301 177 281 199 281 246 C281 275 289 300 306 325 C335 367 363 380 434 380 L481 380 C478 369 476 358 474 347 L433 152 Z " />
<glyph glyph-name="A" unicode="A" horiz-adv-x="500" d="M140 80 L393 79 L400 -6 C400 -14 409 -20 419 -20 C430 -20 447 -12 449 -7 C450 2 420 367 404 580 C402 608 396 620 383 620 C370 620 357 608 345 584 C200 297 50 -2 48 -10 C47 -14 59 -20 69 -20 C81 -20 93 -13 98 -3 L140 80 Z M161 120 L358 513 L389 119 L161 120 Z " />
<glyph glyph-name="B" unicode="B" horiz-adv-x="500" d="M170 330 L293 330 C299 330 303 330 309 330 C316 330 323 330 323 330 C425 330 460 280 436 168 C417 81 371 30 301 21 C272 17 238 20 221 20 C194 20 178 12 175 -2 C172 -12 181 -20 194 -20 L269 -20 C376 -20 461 52 485 163 C491 195 501 240 492 280 C482 320 454 349 415 362 C457 388 492 432 501 473 C504 491 505 511 500 529 C487 588 440 620 359 620 L209 620 C194 620 180 610 177 598 L50 -2 C47 -12 56 -20 69 -20 C84 -20 98 -10 100 2 L170 330 Z M179 370 L223 580 L345 580 C420 580 464 535 450 472 C438 412 380 371 307 370 L179 370 Z " />
<glyph glyph-name="C" unicode="C" horiz-adv-x="500" d="M85 108 C96 24 149 -20 244 -20 C340 -20 415 25 461 110 C473 131 483 156 486 169 C489 185 482 195 466 195 C453 195 443 186 435 169 C429 155 428 141 415 116 C383 55 325 20 254 20 C184 20 146 56 136 124 C134 142 134 161 138 177 L191 427 C194 443 201 461 212 481 C249 547 300 580 366 580 C450 580 505 525 494 448 C492 435 490 428 491 421 C491 411 496 405 508 405 C525 405 539 417 542 435 C545 448 545 472 543 492 C531 576 479 620 384 620 C288 620 212 575 166 490 C153 467 144 443 140 423 L87 173 C83 153 82 130 85 108 L85 108 Z " />
<glyph glyph-name="D" unicode="D" horiz-adv-x="500" d="M223 580 L370 580 C442 580 481 546 491 476 C493 458 493 439 490 423 L432 149 C428 130 416 106 400 86 C348 17 278 20 243 20 C198 20 178 13 175 -2 C172 -12 181 -20 194 -20 L243 -20 C333 -20 410 21 455 90 C468 110 478 133 482 152 L541 427 C545 447 546 470 543 493 C532 577 479 620 384 620 L209 620 C194 620 180 610 177 598 L50 -2 C47 -12 56 -20 69 -20 C84 -20 98 -10 100 2 L223 580 Z " />
<glyph glyph-name="E" unicode="E" horiz-adv-x="450" d="M181 380 L329 380 C344 380 358 390 360 402 C363 412 354 420 341 420 L189 420 L223 580 L496 580 C511 580 525 590 528 602 C530 612 522 620 509 620 L209 620 C194 620 180 610 177 598 L66 73 C54 19 87 -20 144 -20 L369 -20 C384 -20 398 -10 400 2 C403 12 394 20 381 20 C314 20 246 20 246 20 C128 20 106 30 117 78 L181 380 Z " />
<glyph glyph-name="F" unicode="F" horiz-adv-x="425" d="M181 380 L304 380 C319 380 333 390 335 402 C338 412 329 420 316 420 L189 420 L223 580 L496 580 C511 580 525 590 528 602 C530 612 522 620 509 620 L209 620 C194 620 180 610 177 598 L50 -2 C47 -12 56 -20 69 -20 C84 -20 98 -10 100 2 L181 380 Z " />
<glyph glyph-name="G" unicode="G" horiz-adv-x="500" d="M481 380 L437 174 C434 158 426 139 416 121 C378 52 326 19 256 19 C184 19 146 53 136 124 C134 142 134 161 138 177 L191 427 C197 455 214 489 235 516 C273 566 311 580 404 580 C435 580 466 580 466 580 C505 580 525 587 528 602 C530 613 522 618 502 620 C480 622 434 621 414 621 C304 621 232 587 181 514 C161 485 146 451 140 423 L87 173 C82 152 82 128 85 105 C97 22 149 -21 243 -21 C339 -21 414 24 461 110 C474 133 483 157 488 177 L535 402 C538 412 529 420 516 420 L341 420 C326 420 312 410 310 398 C307 388 316 380 329 380 L481 380 Z " />
<glyph glyph-name="H" unicode="H" horiz-adv-x="500" d="M181 380 L481 380 L400 -2 C397 -12 406 -20 419 -20 C434 -20 448 -10 450 2 L578 602 C580 612 572 620 559 620 C544 620 530 610 527 598 L489 420 L189 420 L228 602 C230 612 222 620 209 620 C194 620 180 610 177 598 L50 -2 C47 -12 56 -20 69 -20 C84 -20 98 -10 100 2 L181 380 Z " />
<glyph glyph-name="I" unicode="I" horiz-adv-x="150" d="M50 -2 C47 -12 56 -20 69 -20 C84 -20 98 -10 100 2 L228 602 C230 612 222 620 209 620 C194 620 180 610 177 598 L50 -2 Z " />
<glyph glyph-name="J" unicode="J" horiz-adv-x="375" d="M50 77 C58 13 98 -20 166 -20 C237 -20 297 15 333 80 C343 97 349 114 352 127 L453 602 C455 612 447 620 434 620 C419 620 405 610 402 598 L334 277 C324 231 315 184 311 166 C290 67 248 20 182 20 C133 20 104 46 101 92 C100 106 102 116 102 123 C103 137 96 145 84 145 C68 145 53 134 50 119 C48 110 49 93 50 77 L50 77 Z " />
<glyph glyph-name="K" unicode="K" horiz-adv-x="500" d="M183 391 L254 427 L400 -9 C402 -15 410 -20 419 -20 C434 -20 448 -10 450 2 C451 5 450 7 450 9 L302 451 L562 584 C570 588 577 596 578 603 C580 613 572 620 559 620 C553 620 549 619 543 616 L193 438 L228 602 C230 612 222 620 209 620 C194 620 180 610 177 598 L50 -2 C47 -12 56 -20 69 -20 C84 -20 98 -10 100 2 L183 391 Z " />
<glyph glyph-name="L" unicode="L" horiz-adv-x="425" d="M104 20 L228 602 C230 612 222 620 209 620 C194 620 180 610 177 598 L50 -2 C47 -12 56 -20 69 -20 L369 -20 C384 -20 398 -10 400 2 C403 12 394 20 381 20 L104 20 Z " />
<glyph glyph-name="M" unicode="M" horiz-adv-x="675" d="M398 335 L226 612 C222 617 216 620 209 620 C194 620 180 610 177 598 L50 -2 C47 -12 56 -20 69 -20 C84 -20 98 -10 100 2 L213 533 L365 288 C369 283 376 280 384 280 C392 280 399 283 406 289 L690 541 L575 -2 C572 -12 581 -20 594 -20 C609 -20 623 -10 625 2 L753 602 C755 612 747 620 734 620 C726 620 717 617 710 611 L398 335 Z " />
<glyph glyph-name="N" unicode="N" horiz-adv-x="500" d="M472 340 L400 -2 C397 -12 406 -20 419 -20 C434 -20 448 -10 450 2 L578 602 C580 612 572 620 559 620 C544 620 530 610 527 598 L484 396 L224 616 C221 618 216 620 210 620 C195 620 180 610 177 598 L50 -2 C47 -12 56 -20 69 -20 C84 -20 98 -10 100 2 L218 554 L472 340 Z " />
<glyph glyph-name="O" unicode="O" horiz-adv-x="500" d="M85 108 C96 24 149 -20 244 -20 C340 -20 415 25 461 110 C474 133 483 157 488 177 L541 427 C545 447 545 470 543 492 C533 576 479 620 384 620 C288 620 212 575 166 490 C153 467 144 443 140 423 L87 173 C83 153 82 130 85 108 L85 108 Z M437 174 C430 157 427 142 417 121 C384 56 327 20 255 20 C184 20 146 56 136 124 C134 142 134 161 138 177 L191 427 C194 443 201 461 212 481 C249 547 301 580 370 580 C456 580 500 528 492 437 C489 403 478 369 471 335 L437 174 Z " />
<glyph glyph-name="P" unicode="P" horiz-adv-x="450" d="M223 580 C276 581 326 580 354 580 C432 580 458 568 471 533 C478 516 480 494 476 474 C473 459 465 442 454 425 C429 384 399 370 338 370 L281 370 C266 370 252 360 249 348 C247 338 255 330 268 330 L343 330 C412 330 468 369 508 432 C515 444 524 465 528 482 C546 568 484 620 364 620 C347 620 287 621 255 621 C199 621 181 616 177 598 L50 -2 C48 -12 56 -20 69 -20 C84 -20 98 -10 101 2 L223 580 Z " />
<glyph glyph-name="Q" unicode="Q" horiz-adv-x="500" d="M403 35 C441 67 482 134 487 175 L539 423 C542 436 543 452 543 467 C543 564 482 620 377 620 C285 620 213 576 166 491 C153 468 145 446 141 427 L88 177 C85 165 84 150 84 135 C84 38 145 -20 248 -20 C289 -20 328 -10 363 8 L418 -62 C422 -67 428 -70 436 -70 C451 -70 464 -60 464 -49 C464 -44 462 -41 460 -38 L403 35 Z M337 40 C312 27 283 20 252 20 C176 20 134 62 134 140 C134 190 151 244 162 294 C173 346 179 400 197 447 C229 531 294 580 377 580 C453 580 494 539 494 465 C494 426 483 389 475 353 L438 178 C432 161 428 144 419 125 C409 105 394 85 377 69 L303 162 C299 167 293 170 285 170 C270 170 257 160 257 149 C257 144 259 141 261 138 L337 40 Z " />
<glyph glyph-name="R" unicode="R" horiz-adv-x="475" d="M310 330 L322 330 C341 330 361 330 379 333 C450 345 512 406 527 479 C544 560 494 620 409 620 L209 620 C194 620 180 610 177 598 L50 -2 C48 -12 56 -20 69 -20 C84 -20 98 -10 101 2 L224 580 L396 580 C456 580 489 536 477 476 C473 458 464 441 454 425 C427 383 398 370 338 370 L281 370 C266 370 252 360 249 348 C249 345 249 343 250 340 L375 -10 C377 -16 385 -20 394 -20 C409 -20 423 -10 426 2 C426 5 426 8 425 10 L310 330 Z " />
<glyph glyph-name="S" unicode="S" horiz-adv-x="500" d="M85 108 C96 24 149 -20 244 -20 C340 -20 415 25 461 110 C474 133 483 157 488 178 C495 211 492 250 481 281 C458 341 402 370 309 370 C262 370 236 386 227 425 C223 442 223 461 226 477 C230 494 239 512 249 528 C274 566 303 580 360 580 C425 580 460 564 472 526 C478 507 476 492 475 482 C476 464 481 456 494 456 C510 456 524 467 528 483 C531 497 528 521 522 541 C506 595 461 620 379 620 C293 620 243 595 204 537 C191 517 180 493 176 475 C173 462 172 444 175 427 C185 360 223 330 309 330 C332 330 352 327 366 323 C421 307 452 244 437 176 C433 157 425 137 414 118 C376 52 326 20 258 20 C185 20 139 57 135 123 C134 145 137 161 138 172 C138 188 132 195 119 195 C102 195 89 183 85 165 C82 152 82 128 85 108 L85 108 Z " />
<glyph glyph-name="T" unicode="T" horiz-adv-x="450" d="M323 580 L200 -2 C197 -12 206 -20 219 -20 C234 -20 248 -10 250 2 L373 580 L521 580 C536 580 550 590 553 602 C555 612 547 620 534 620 L184 620 C169 620 155 610 152 598 C150 588 158 580 171 580 L323 580 Z " />
<glyph glyph-name="U" unicode="U" horiz-adv-x="500" d="M85 107 C95 23 149 -20 243 -20 C339 -20 415 25 461 110 C474 133 483 157 488 177 L578 602 C580 612 572 620 559 620 C544 620 530 610 527 598 L472 340 C470 328 467 315 464 303 L450 229 C447 217 444 204 444 204 C419 85 352 20 256 20 C172 20 129 71 136 160 C138 189 145 214 151 240 L228 602 C230 612 222 620 209 620 C194 620 180 610 177 598 L87 173 C83 154 82 130 85 107 L85 107 Z " />
<glyph glyph-name="V" unicode="V" horiz-adv-x="450" d="M243 87 L203 604 C202 613 192 620 180 620 C165 620 153 610 153 598 L153 597 L200 -4 C201 -13 211 -20 223 -20 C234 -20 243 -15 248 -6 L551 594 C552 597 553 600 553 602 C553 612 543 620 530 620 C519 620 510 615 505 606 L243 87 Z " />
<glyph glyph-name="W" unicode="W" horiz-adv-x="700" d="M244 85 L203 606 C203 614 194 620 184 620 C173 620 155 612 154 607 C152 598 183 233 198 20 C200 -8 207 -20 220 -20 C232 -20 243 -13 248 -4 L417 318 L450 -7 C451 -15 458 -20 469 -20 C483 -20 495 -8 507 16 C652 303 803 602 805 610 C806 614 794 620 784 620 C772 620 759 613 754 603 L493 85 L461 407 C459 415 452 420 441 420 C428 420 417 414 412 404 L244 85 Z " />
<glyph glyph-name="X" unicode="X" horiz-adv-x="475" d="M278 253 L375 -10 C377 -16 385 -20 394 -20 C409 -20 423 -10 425 2 C426 5 426 8 425 10 L316 302 L548 593 C551 596 552 599 553 602 C555 613 547 620 533 620 C523 620 514 615 507 607 L300 347 L203 610 C201 616 193 620 184 620 C169 620 155 610 152 598 C151 595 152 593 152 590 L261 298 L29 7 C27 4 25 1 25 -2 C22 -12 31 -20 45 -20 C55 -20 64 -15 71 -7 L278 253 Z " />
<glyph glyph-name="Y" unicode="Y" horiz-adv-x="444" d="M283 392 L200 -2 C197 -12 206 -20 219 -20 C234 -20 248 -10 250 2 L334 395 L539 590 C543 593 546 598 547 603 C549 613 541 620 528 620 C519 620 510 616 504 610 L318 435 L200 613 C198 617 192 620 185 620 C170 620 155 610 152 599 C151 594 152 590 155 587 L283 392 Z " />
<glyph glyph-name="Z" unicode="Z" horiz-adv-x="500" d="M54 7 C53 4 50 1 49 -3 C47 -13 56 -20 69 -20 L419 -20 C434 -20 448 -10 450 2 C453 12 444 20 431 20 L117 20 L573 593 C576 596 577 599 578 602 C580 612 572 620 559 620 L209 620 C194 620 180 610 177 598 C175 588 183 580 196 580 L510 580 L54 7 Z " />
<glyph glyph-name="bracketleft" unicode="&#x5b;" horiz-adv-x="200" d="M30 -98 C30 -114 37 -120 52 -120 L177 -120 C192 -120 204 -110 204 -98 C204 -88 194 -80 181 -80 L83 -80 L245 680 L347 680 C362 680 374 690 374 702 C374 712 364 720 351 720 L226 720 C213 720 202 713 200 702 L30 -98 Z " />
<glyph glyph-name="backslash" unicode="&#x5c;" horiz-adv-x="300" d="M254 -97 L174 704 C173 713 163 720 151 720 C136 720 124 710 124 698 L124 697 L204 -104 C205 -113 215 -120 227 -120 C242 -120 254 -110 254 -98 L254 -97 Z " />
<glyph glyph-name="bracketright" unicode="&#x5d;" horiz-adv-x="200" d="M84 -80 L-19 -80 C-34 -80 -46 -90 -46 -102 C-46 -112 -36 -120 -23 -120 L102 -120 C115 -120 126 -112 128 -102 L298 698 C298 714 292 720 276 720 L151 720 C136 720 124 710 124 698 C124 688 134 680 147 680 L245 680 L84 -80 Z " />
<glyph glyph-name="asciicircum" unicode="&#x5e;" horiz-adv-x="350" d="M297 564 L373 440 C377 434 385 430 393 430 C406 430 421 439 421 446 C421 463 337 592 330 604 C324 614 315 620 306 620 C298 620 290 617 285 612 L128 462 C123 457 121 452 121 447 C121 437 131 430 144 430 C152 430 159 433 164 438 L297 564 Z " />
<glyph glyph-name="underscore" unicode="&#x5f;" horiz-adv-x="400" d="M4 -102 C4 -112 14 -120 27 -120 L327 -120 C342 -120 354 -110 354 -98 C354 -88 344 -80 331 -80 L31 -80 C16 -80 4 -90 4 -102 L4 -102 Z " />
<glyph glyph-name="grave" unicode="&#x60;" horiz-adv-x="150" d="M188 511 C191 507 197 505 204 505 C219 505 234 515 237 527 C238 532 237 536 234 539 L175 614 C172 618 167 620 160 620 C145 620 129 610 127 599 C126 594 127 589 129 586 L188 511 Z " />
<glyph glyph-name="a" unicode="a" horiz-adv-x="375" d="M380 380 L299 -2 C297 -12 305 -20 318 -20 C333 -20 347 -10 350 2 L435 402 C437 412 429 420 416 420 L291 420 C222 420 162 385 127 320 C117 303 110 286 108 273 L76 123 C72 105 73 80 77 60 C91 5 127 -20 198 -20 C231 -20 247 -14 250 1 C253 15 240 20 205 20 C162 20 138 38 128 77 C124 94 123 111 127 127 L158 277 C172 339 219 380 278 380 L380 380 Z " />
<glyph glyph-name="b" unicode="b" horiz-adv-x="400" d="M105 20 L229 602 C231 612 223 620 210 620 C195 620 181 610 178 598 L51 -2 C49 -12 57 -20 70 -20 L195 -20 C264 -20 319 19 360 82 C367 94 375 114 378 127 L410 277 C414 295 413 320 409 341 C397 394 359 420 295 420 C263 420 247 413 244 399 C241 386 252 380 281 380 C325 380 350 362 359 323 C362 306 363 289 359 273 L327 124 C314 61 266 20 207 20 L105 20 Z " />
<glyph glyph-name="c" unicode="c" horiz-adv-x="400" d="M197 -20 C265 -20 319 19 360 82 C367 93 375 112 377 121 C380 136 373 145 359 145 C344 145 331 135 326 120 C323 113 321 102 314 88 C293 45 255 20 209 20 C149 20 115 65 128 127 L160 277 C173 339 221 380 281 380 C329 380 358 354 361 309 C362 294 359 283 359 276 C358 262 365 255 377 255 C395 255 408 270 414 295 C429 365 374 420 291 420 C222 420 168 381 128 318 C120 306 112 287 109 273 L77 123 C60 40 110 -20 197 -20 L197 -20 Z " />
<glyph glyph-name="d" unicode="d" horiz-adv-x="400" d="M382 381 L301 -1 C299 -11 307 -19 320 -19 C335 -19 349 -9 352 3 L479 603 C481 613 473 621 460 621 C445 621 431 611 428 599 L390 421 L292 421 C223 421 166 386 130 323 C120 306 112 287 109 273 L83 149 C78 128 78 99 82 74 C92 8 127 -19 201 -19 C233 -19 248 -12 252 3 C256 24 230 21 212 21 C199 21 187 23 177 26 C139 38 121 94 133 153 L160 277 C163 293 172 311 182 327 C221 386 266 381 320 381 L382 381 Z " />
<glyph glyph-name="e" unicode="e" horiz-adv-x="400" d="M137 340 C124 320 113 295 109 277 L77 127 C74 114 74 97 76 80 C84 15 129 -20 198 -20 L248 -20 C261 -20 272 -12 275 -2 C278 13 263 20 230 20 C196 20 144 12 127 75 C123 92 123 108 126 123 L158 273 C173 342 226 380 307 380 C340 380 356 368 363 339 C366 326 366 312 363 298 C353 251 314 220 265 220 C241 220 198 228 193 203 C190 190 200 180 215 180 L265 180 C337 180 399 229 414 300 C430 375 382 420 288 420 C220 420 173 393 137 340 L137 340 Z " />
<glyph glyph-name="f" unicode="f" horiz-adv-x="225" d="M156 380 L75 -2 C73 -12 81 -20 94 -20 C113 -20 129 17 146 99 C152 128 178 254 205 380 L279 380 C294 380 308 390 311 402 C313 412 304 420 291 420 L213 420 C216 434 219 448 219 448 C228 489 237 512 251 532 C302 604 369 561 377 599 C380 613 371 620 347 620 C288 620 229 582 195 520 C185 503 178 486 176 473 L164 420 L116 420 C101 420 87 410 85 398 C83 388 91 380 104 380 L156 380 Z " />
<glyph glyph-name="g" unicode="g" horiz-adv-x="412" d="M380 380 L299 -2 C299 -4 299 -6 300 -8 C296 -26 292 -43 292 -43 C284 -85 274 -109 259 -131 C207 -204 141 -160 133 -198 C130 -212 139 -219 163 -219 C222 -219 282 -181 316 -119 C326 -102 333 -85 335 -72 L436 403 C438 413 430 421 417 421 C415 421 413 421 410 420 L291 420 C222 420 162 385 127 320 C117 303 110 286 108 273 L76 123 C72 105 73 80 77 59 C89 3 127 -20 201 -20 C232 -20 248 -14 251 1 C254 15 241 20 202 20 C161 20 138 39 128 77 C124 94 123 111 127 127 L158 277 C172 339 219 380 278 380 L380 380 Z " />
<glyph glyph-name="h" unicode="h" horiz-adv-x="400" d="M182 380 C198 380 215 381 234 381 C272 381 308 377 326 370 C388 345 354 249 340 185 L301 -2 C299 -12 307 -20 320 -20 C335 -20 349 -10 352 2 L410 277 C428 360 377 420 292 420 L190 420 L229 602 C231 612 223 620 210 620 C195 620 181 610 178 598 L51 -2 C49 -12 57 -20 70 -20 C85 -20 99 -10 102 2 L182 380 Z " />
<glyph glyph-name="i" unicode="i" horiz-adv-x="150" d="M168 548 C165 538 174 530 187 530 C202 530 216 540 218 552 L229 602 C231 612 223 620 210 620 C195 620 181 610 178 598 L168 548 Z M51 -2 C49 -12 57 -20 70 -20 C85 -20 99 -10 102 2 L187 402 C189 412 180 420 167 420 C152 420 138 410 136 398 L51 -2 Z " />
<glyph glyph-name="j" unicode="j" horiz-adv-x="175" d="M192 549 C190 539 198 531 211 531 C226 531 240 541 243 553 L254 603 C256 613 247 621 234 621 C219 621 205 611 203 599 L192 549 Z M-92 -198 C-95 -212 -85 -219 -61 -219 C-2 -219 57 -181 91 -119 C101 -102 107 -85 110 -72 L211 403 C213 413 205 421 192 421 C173 421 156 378 135 280 C128 246 96 93 82 28 C59 -80 51 -108 35 -131 C-18 -203 -84 -160 -92 -198 L-92 -198 Z " />
<glyph glyph-name="k" unicode="k" horiz-adv-x="400" d="M163 289 C183 296 213 306 246 318 C252 279 296 4 302 -12 C303 -17 310 -20 318 -20 C334 -20 349 -10 352 2 C353 7 299 325 296 333 C295 334 295 335 295 336 C357 359 407 378 419 383 C428 387 435 394 437 402 C438 410 431 420 424 420 C413 420 276 373 172 333 L229 602 C231 612 223 620 210 620 C195 620 181 610 178 598 L51 -2 C49 -12 57 -20 70 -20 C85 -20 99 -10 102 2 L163 289 Z " />
<glyph glyph-name="l" unicode="l" horiz-adv-x="150" d="M51 -2 C49 -12 57 -20 70 -20 C85 -20 99 -10 102 2 L229 602 C231 612 223 620 210 620 C195 620 181 610 178 598 L51 -2 Z " />
<glyph glyph-name="m" unicode="m" horiz-adv-x="650" d="M51 2 C51 -13 57 -20 71 -20 C86 -20 97 -13 99 -2 L180 380 L273 380 C333 380 360 356 360 301 C360 266 349 232 342 197 L301 2 C301 -13 307 -20 321 -20 C336 -20 347 -13 349 -2 L407 273 C409 283 410 296 410 307 C410 377 363 420 287 420 L162 420 C161 420 161 420 160 420 C151 419 146 415 141 410 C138 407 135 405 135 401 L51 2 Z M551 2 C551 -13 557 -20 571 -20 C586 -20 597 -13 599 -2 L657 273 C659 283 660 296 660 307 C660 377 613 420 537 420 L462 420 C447 420 435 410 435 397 C435 379 458 379 472 379 C476 379 480 379 484 379 L508 380 C583 380 610 359 610 301 C610 266 599 232 592 197 L551 2 Z " />
<glyph glyph-name="n" unicode="n" horiz-adv-x="400" d="M182 380 L279 380 C336 380 363 348 360 287 C358 251 345 208 337 168 L301 -2 C299 -12 307 -20 320 -20 C335 -20 349 -10 352 2 L410 277 C428 360 377 420 292 420 L167 420 C152 420 138 410 136 398 L51 -2 C49 -12 57 -20 70 -20 C85 -20 99 -10 102 2 L182 380 Z " />
<glyph glyph-name="o" unicode="o" horiz-adv-x="400" d="M76 77 C84 13 124 -20 192 -20 C264 -20 319 18 360 82 C367 94 375 114 378 127 L410 277 C428 360 377 420 291 420 C222 420 168 381 128 318 C120 306 112 287 109 273 L77 123 C75 111 74 94 76 77 L76 77 Z M160 276 C182 346 220 380 276 380 C339 380 373 337 359 273 L327 124 C314 61 266 20 206 20 C153 20 123 52 126 108 C127 133 134 157 139 180 L160 276 Z " />
<glyph glyph-name="p" unicode="p" horiz-adv-x="400" d="M181 380 L278 380 C339 380 372 337 359 273 L327 124 C324 108 316 91 304 74 C280 38 250 20 212 20 C173 20 154 13 151 -3 C148 -15 158 -20 183 -20 C262 -20 312 4 349 61 C362 83 374 109 378 127 L409 277 C427 360 377 420 292 420 L167 420 C152 420 138 410 135 398 L8 -202 C6 -212 14 -220 27 -220 C42 -220 56 -210 59 -198 L181 380 Z " />
<glyph glyph-name="q" unicode="q" horiz-adv-x="400" d="M259 -198 C259 -213 265 -220 279 -220 C294 -220 305 -213 307 -202 L435 398 C435 414 429 420 413 420 L288 420 C203 420 127 358 110 277 L78 127 C76 116 75 105 75 94 C75 20 123 -20 210 -20 C239 -20 252 -13 252 2 C252 23 227 20 207 20 C154 20 125 42 125 84 C125 115 146 229 161 280 C180 343 226 380 284 380 L382 380 L259 -198 Z " />
<glyph glyph-name="r" unicode="r" horiz-adv-x="250" d="M51 -2 C49 -12 57 -20 70 -20 C85 -20 99 -10 102 2 L138 173 C144 204 150 235 153 251 C171 334 208 374 269 379 C294 381 309 389 312 402 C314 414 303 420 280 420 C221 420 162 382 128 320 C118 303 112 286 109 273 L51 -2 Z " />
<glyph glyph-name="s" unicode="s" horiz-adv-x="376" d="M181 -20 C260 -20 334 37 350 111 C353 127 354 144 351 161 C343 217 306 245 239 245 C226 245 217 246 211 248 C186 256 173 284 181 318 C189 356 218 380 257 380 L269 380 C315 380 332 364 330 326 C329 303 334 293 348 293 C364 293 378 306 382 326 C391 365 365 406 327 416 C311 420 293 420 293 420 C222 420 179 403 150 358 C140 341 132 324 129 311 C125 293 127 271 134 252 C167 161 276 248 299 156 C303 141 303 125 299 109 C288 56 244 20 192 20 C144 20 118 52 123 102 C124 123 119 133 106 133 C88 133 75 119 70 94 C57 32 107 -20 181 -20 L181 -20 Z " />
<glyph glyph-name="t" unicode="t" horiz-adv-x="300" d="M182 380 L127 123 C124 110 125 91 127 75 C133 15 172 -20 230 -20 C258 -20 274 -12 277 4 C284 38 202 -2 180 73 C171 104 179 131 186 165 L232 380 L330 380 C345 380 359 390 362 402 C364 412 355 420 342 420 L240 420 L258 502 C260 512 252 520 239 520 C224 520 210 510 207 498 L190 420 L142 420 C127 420 113 410 111 398 C109 388 117 380 130 380 L182 380 Z " />
<glyph glyph-name="u" unicode="u" horiz-adv-x="400" d="M305 20 L208 20 C151 20 124 53 127 114 C129 150 142 192 150 232 L187 402 C189 412 180 420 167 420 C152 420 138 410 136 398 L77 123 C74 110 75 91 77 75 C84 12 125 -20 195 -20 L320 -20 C335 -20 349 -10 352 2 L437 402 C439 412 430 420 417 420 C402 420 388 410 386 398 L305 20 Z " />
<glyph glyph-name="v" unicode="v" horiz-adv-x="350" d="M195 82 L162 407 C160 415 153 420 142 420 C131 420 114 412 113 407 C110 393 147 5 153 -12 C154 -17 161 -20 169 -20 C181 -20 192 -15 198 -6 C214 20 411 399 413 410 C414 414 401 420 391 420 C379 420 368 413 363 404 L195 82 Z " />
<glyph glyph-name="w" unicode="w" horiz-adv-x="550" d="M195 78 L162 407 C160 415 153 420 142 420 C131 420 114 412 113 407 C110 394 146 14 151 -9 C153 -16 160 -20 169 -20 C182 -20 193 -13 199 -3 L325 223 L351 -7 C352 -15 359 -20 370 -20 C383 -20 392 -13 403 3 C413 19 431 56 443 78 C461 114 609 388 613 407 C614 414 603 420 591 420 C579 420 568 413 563 404 L393 81 L369 307 C368 315 361 320 350 320 C338 320 327 314 321 304 L195 79 L195 78 Z " />
<glyph glyph-name="x" unicode="x" horiz-adv-x="350" d="M208 155 L276 -10 C279 -16 286 -20 294 -20 C309 -20 324 -10 327 2 C327 5 328 8 326 10 L247 202 L406 392 C409 395 411 399 412 402 C414 412 405 420 392 420 C382 420 372 415 366 408 L229 245 L161 410 C159 416 151 420 142 420 C127 420 113 410 111 398 C110 395 109 392 111 390 L190 198 L31 8 C28 5 26 1 26 -2 C24 -12 32 -20 45 -20 C55 -20 65 -15 71 -8 L208 155 Z " />
<glyph glyph-name="y" unicode="y" horiz-adv-x="350" d="M194 76 C181 224 162 400 159 412 C158 417 151 420 142 420 C130 420 113 413 112 407 C109 396 145 8 150 -7 C149 -8 150 -8 150 -9 L143 -24 C124 -62 104 -109 73 -146 C54 -169 36 -179 17 -180 C-1 -181 -15 -190 -18 -202 C-20 -214 -11 -220 9 -220 C60 -220 115 -176 152 -103 L408 397 C412 414 408 420 393 420 C379 420 367 413 362 403 L194 76 Z " />
<glyph glyph-name="z" unicode="z" horiz-adv-x="350" d="M94 20 L406 392 C409 395 411 399 412 402 C414 412 405 420 392 420 L142 420 C127 420 113 410 111 398 C109 388 117 380 130 380 L343 380 L31 8 C28 5 26 1 26 -2 C24 -12 32 -20 45 -20 L295 -20 C309 -20 324 -9 327 2 C329 12 320 20 307 20 L94 20 Z " />
<glyph glyph-name="braceleft" unicode="&#x7b;" horiz-adv-x="300" d="M192 192 L156 27 C154 16 153 5 153 -5 C153 -73 198 -120 263 -120 C289 -120 304 -112 304 -98 C304 -87 295 -81 272 -79 C224 -75 203 -52 203 -3 C203 25 210 51 216 77 L242 198 C242 199 243 201 243 202 C243 206 241 211 238 214 L149 299 L275 385 C280 388 283 393 284 398 L309 513 C314 534 317 556 324 579 C343 642 380 675 435 679 C461 681 474 689 474 702 C474 714 462 720 437 720 C361 720 292 663 273 577 L237 410 L99 315 C93 311 89 304 89 298 C89 294 91 289 94 286 L191 193 L192 193 L192 192 Z " />
<glyph glyph-name="bar" unicode="&#x7c;" horiz-adv-x="150" d="M30 -98 C30 -113 36 -120 50 -120 C65 -120 76 -113 78 -102 L248 698 C248 713 242 720 228 720 C214 720 202 713 200 702 L30 -98 Z " />
<glyph glyph-name="braceright" unicode="&#x7d;" horiz-adv-x="300" d="M191 190 L329 285 C335 289 339 296 339 302 C339 306 337 311 334 314 L237 407 L236 407 L236 408 L271 573 C273 585 274 597 274 607 C274 674 230 720 165 720 C139 720 124 712 124 698 C124 687 134 681 157 679 C204 675 225 652 225 605 C225 576 217 550 212 525 L186 402 C186 401 185 399 185 398 C185 394 187 389 190 386 L279 301 L153 215 C148 212 145 206 144 202 L119 87 C114 66 111 44 105 22 C88 -41 48 -74 -8 -79 C-33 -81 -46 -89 -46 -102 C-46 -114 -34 -120 -9 -120 C49 -120 103 -87 136 -24 C145 -6 151 9 154 23 L191 190 Z " />
<glyph glyph-name="asciitilde" unicode="&#x7e;" horiz-adv-x="350" d="M99 231 C95 214 103 205 120 205 C159 205 142 255 175 255 C208 255 209 205 266 205 C309 205 350 234 357 269 C361 286 354 295 337 295 C298 295 314 245 281 245 C248 245 248 295 191 295 C148 295 107 266 99 231 L99 231 Z " />
<glyph glyph-name="uni00A0" unicode="&#xa0;" horiz-adv-x="260" d="" />
<glyph glyph-name="exclamdown" unicode="&#xa1;" horiz-adv-x="200" d="M144 325 C144 313 154 305 168 305 C182 305 190 315 196 334 C201 349 210 391 210 400 C210 412 201 420 187 420 C173 420 165 411 158 391 C153 376 144 334 144 325 L144 325 Z M33 -198 C33 -213 39 -220 53 -220 C67 -220 79 -213 81 -202 L167 198 C167 213 161 220 147 220 C133 220 121 213 119 202 L33 -198 Z " />
<glyph glyph-name="cent" unicode="&#xa2;" horiz-adv-x="400" d="M197 -20 C265 -20 319 19 360 82 C367 93 375 112 377 121 C380 136 373 145 359 145 C344 145 331 135 326 120 C323 113 321 102 314 88 C293 45 255 20 209 20 C149 20 115 65 128 127 L160 277 C173 339 221 380 281 380 C329 380 358 354 361 309 C362 294 359 283 359 276 C358 262 365 255 377 255 C395 255 408 270 414 295 C429 365 374 420 291 420 C222 420 168 381 128 318 C120 306 112 287 109 273 L77 123 C60 40 110 -20 197 -20 L197 -20 Z M260 398 C260 388 270 380 284 380 C297 380 308 389 312 407 C314 416 331 487 331 502 C331 512 321 520 308 520 C294 520 283 511 279 493 C277 484 260 413 260 398 L260 398 Z M154 -102 C154 -113 164 -120 178 -120 C191 -120 202 -111 206 -93 C208 -84 225 -13 225 2 C225 12 215 20 202 20 C188 20 177 11 173 -7 C171 -16 154 -87 154 -102 L154 -102 Z " />
<glyph glyph-name="sterling" unicode="&#xa3;" horiz-adv-x="425" d="M104 20 L56 20 C41 20 27 10 25 -2 C22 -12 31 -20 44 -20 L369 -20 C384 -20 398 -10 400 2 C403 12 394 20 381 20 L154 20 L199 230 L297 230 C312 230 326 240 329 252 C331 262 322 270 309 270 L207 270 L227 365 C241 437 288 480 350 480 C406 480 438 442 427 389 C422 367 427 355 443 355 C461 355 472 368 478 395 C493 468 446 520 364 520 C295 520 234 485 198 420 C189 403 182 386 179 373 L157 270 L109 270 C94 270 80 260 78 248 C76 238 84 230 97 230 L149 230 L104 20 Z " />
<glyph glyph-name="currency" unicode="&#xa4;" horiz-adv-x="400" d="M146 168 C142 170 138 170 138 170 C127 170 120 168 115 164 L54 114 C49 110 46 104 46 98 C46 88 56 80 69 80 C76 80 83 82 88 86 L149 136 C154 140 157 146 157 152 C157 154 157 155 156 157 C176 139 202 130 231 130 C257 130 284 138 308 153 C308 151 307 150 307 148 C307 142 334 107 346 92 C353 84 359 80 368 80 C382 80 396 89 396 98 C396 106 371 141 357 158 C350 167 343 170 331 170 C355 192 375 226 378 250 C380 257 380 266 380 266 C380 295 374 315 360 332 C364 330 368 330 368 330 C379 330 386 332 391 336 L452 386 C457 390 460 396 460 402 C460 412 450 420 437 420 C430 420 423 418 418 414 L357 364 C352 360 349 354 349 348 C349 346 350 345 350 343 C331 360 304 370 276 370 C250 370 223 362 198 346 C199 348 199 350 199 352 C199 358 172 393 160 408 C153 416 147 420 138 420 C124 420 110 411 110 402 C110 394 135 359 146 345 C158 330 167 330 176 330 C144 302 126 265 126 227 C126 204 133 184 146 168 L146 168 Z M328 251 C325 243 324 236 319 225 C304 192 268 170 236 170 C201 170 176 196 176 232 C176 281 224 330 271 330 C305 330 331 305 331 273 C331 264 329 257 328 251 L328 251 Z " />
<glyph glyph-name="yen" unicode="&#xa5;" horiz-adv-x="400" d="M135 298 C133 288 142 280 155 280 L355 280 C370 280 384 290 386 302 C388 312 380 320 367 320 L167 320 C152 320 138 310 135 298 L135 298 Z M114 198 C112 188 120 180 133 180 L333 180 C348 180 362 190 365 202 C367 212 359 220 346 220 L146 220 C131 220 117 210 114 198 L114 198 Z M176 2 C176 -13 182 -20 196 -20 C211 -20 222 -13 224 -2 L303 367 L448 486 C453 490 456 496 456 502 C456 512 446 520 433 520 C426 520 419 518 414 514 L285 407 L202 512 C198 517 192 520 184 520 C169 520 156 510 156 499 C156 494 158 491 160 488 L254 369 L176 2 Z " />
<glyph glyph-name="brokenbar" unicode="&#xa6;" horiz-adv-x="150" d="M135 395 C135 387 146 380 158 380 C172 380 184 392 188 415 C189 421 228 590 228 605 C228 613 217 620 205 620 C191 620 179 608 175 585 C174 579 135 410 135 395 L135 395 Z M50 -5 C50 -13 61 -20 73 -20 C87 -20 99 -8 103 15 C104 21 143 190 143 205 C143 213 132 220 120 220 C106 220 94 208 90 185 C89 179 50 10 50 -5 L50 -5 Z " />
<glyph glyph-name="section" unicode="&#xa7;" horiz-adv-x="350" d="M274 122 C274 70 227 20 178 20 C144 20 119 46 119 80 C119 89 121 95 121 101 C121 112 111 120 96 120 C78 120 69 107 69 83 C69 23 112 -20 174 -20 C251 -20 323 48 323 122 C323 154 310 181 287 199 C315 214 338 237 352 265 C359 279 364 294 364 301 C366 307 366 315 366 315 C366 377 325 419 263 420 C224 425 204 445 204 479 C204 530 251 580 300 580 C333 580 359 555 359 522 C359 511 356 505 356 499 C356 488 366 480 381 480 C399 480 408 493 408 519 C408 578 366 620 305 620 C227 620 154 551 154 478 C154 446 167 419 191 401 C143 374 112 327 112 278 C112 222 154 181 214 180 C255 175 274 156 274 122 L274 122 Z M314 301 C311 293 310 286 305 275 C290 242 254 220 222 220 C187 220 162 246 162 282 C162 331 209 380 257 380 C291 380 316 355 316 321 C316 312 314 307 314 301 L314 301 Z " />
<glyph glyph-name="dieresis" unicode="&#xa8;" horiz-adv-x="200" d="M136 523 C134 513 142 505 155 505 C170 505 184 515 187 527 L203 602 C205 612 197 620 184 620 C169 620 155 610 152 598 L136 523 Z M236 523 C234 513 242 505 255 505 C270 505 284 515 287 527 L303 602 C305 612 297 620 284 620 C269 620 255 610 252 598 L236 523 Z " />
<glyph glyph-name="copyright" unicode="&#xa9;" horiz-adv-x="550" d="M543 199 C548 214 547 234 547 245 C547 345 467 420 361 420 C222 420 89 291 89 157 C89 54 166 -20 271 -20 C371 -20 476 48 523 143 C533 164 542 189 543 199 L543 199 Z M493 201 C491 195 490 189 487 179 C460 88 366 20 279 20 C197 20 138 79 138 162 C138 272 246 380 357 380 C437 380 498 322 498 246 C498 225 493 214 493 201 L493 201 Z M209 147 C209 98 240 68 292 68 C340 68 379 95 400 136 C403 142 410 156 410 165 C410 176 400 183 386 183 C372 183 364 173 353 147 C343 122 323 108 298 108 C272 108 258 122 258 148 C258 166 264 183 271 213 C277 242 286 293 339 293 C365 293 378 281 378 259 C378 253 377 247 377 243 C377 232 387 224 402 224 C419 224 428 236 428 259 C428 305 396 333 345 333 C285 333 241 293 225 229 C220 209 209 176 209 147 L209 147 Z " />
<glyph glyph-name="ordfeminine" unicode="&#xaa;" horiz-adv-x="275" d="M277 480 L238 298 C236 288 245 280 258 280 C273 280 287 290 289 302 L332 502 C334 512 326 520 313 520 L251 520 C200 520 153 483 142 435 L127 361 C117 316 144 280 188 280 C209 280 224 289 227 303 C234 335 164 303 178 366 L193 438 C198 463 217 480 239 480 L277 480 Z " />
<glyph glyph-name="guillemotleft" unicode="&#xab;" horiz-adv-x="325" d="M135 251 L241 338 C246 342 249 347 250 352 C252 363 244 370 230 370 C222 370 214 367 208 362 L87 262 C83 259 79 253 78 248 C77 244 78 239 80 236 L159 136 C162 132 168 130 175 130 C190 130 205 140 207 152 C208 157 207 161 205 164 L135 251 Z M283 252 L368 341 C372 345 374 349 375 353 C377 363 369 370 356 370 C347 370 337 366 330 359 L234 259 C230 255 228 251 228 247 C227 244 227 241 229 238 L282 138 C284 133 292 130 300 130 C315 130 330 141 333 153 C333 156 333 159 331 162 L283 252 Z " />
<glyph glyph-name="logicalnot" unicode="&#xac;" horiz-adv-x="325" d="M274 230 C270 210 261 188 261 173 C261 159 270 150 285 150 C299 150 303 163 314 184 C318 191 328 241 328 250 C328 262 319 270 305 270 L105 270 C90 270 78 260 78 248 C78 238 88 230 101 230 L274 230 Z " />
<glyph glyph-name="registered" unicode="&#xae;" horiz-adv-x="550" d="M543 199 C548 214 547 234 547 245 C547 345 467 420 361 420 C222 420 89 291 89 157 C89 54 166 -20 271 -20 C371 -20 476 48 523 143 C533 164 542 189 543 199 L543 199 Z M493 201 C491 195 490 189 487 179 C460 88 366 20 279 20 C197 20 138 79 138 162 C138 272 246 380 357 380 C437 380 498 322 498 246 C498 225 493 214 493 201 L493 201 Z M356 181 C396 188 429 225 429 265 C429 300 406 320 366 320 L266 320 C252 320 240 308 236 285 C235 279 196 110 196 95 C196 87 207 80 219 80 C232 80 243 87 245 98 L284 280 L361 280 C374 280 379 274 379 261 C379 251 377 243 373 236 C361 215 342 220 327 220 C309 220 293 212 293 204 C293 195 333 116 348 92 C353 84 360 80 369 80 C382 80 396 89 396 97 C396 105 378 144 356 181 L356 181 Z " />
<glyph glyph-name="macron" unicode="&#xaf;" horiz-adv-x="250" d="M142 548 C139 538 148 530 161 530 L311 530 C326 530 340 540 342 552 C344 562 336 570 323 570 L173 570 C158 570 144 560 142 548 L142 548 Z " />
<glyph glyph-name="degree" unicode="&#xb0;" horiz-adv-x="200" d="M271 451 C272 454 272 458 272 458 C272 494 246 520 208 520 C162 520 120 481 120 438 C120 405 145 380 180 380 C224 380 271 417 271 451 L271 451 Z M222 452 C215 438 209 420 190 420 C178 420 170 428 170 440 C170 460 187 480 204 480 C216 480 222 470 222 452 L222 452 Z " />
<glyph glyph-name="plusminus" unicode="&#xb1;" horiz-adv-x="350" d="M199 230 L181 148 C179 138 188 130 201 130 C216 130 230 140 232 152 L249 230 L322 230 C337 230 351 240 354 252 C356 262 347 270 334 270 L257 270 L275 352 C277 362 269 370 256 370 C241 370 227 360 224 348 L207 270 L134 270 C119 270 105 260 103 248 C101 238 109 230 122 230 L199 230 Z M50 -2 C48 -12 56 -20 69 -20 L269 -20 C284 -20 298 -10 301 2 C303 12 294 20 281 20 L81 20 C66 20 52 10 50 -2 L50 -2 Z " />
<glyph glyph-name="twosuperior" unicode="&#xb2;" horiz-adv-x="250" d="M167 320 C267 411 329 487 339 534 C349 583 314 620 259 620 C203 620 149 581 139 535 C135 516 140 505 156 505 C171 505 183 518 195 546 C199 555 208 580 243 580 C275 580 294 558 287 526 C273 462 146 359 106 320 C93 308 89 303 88 297 C86 287 95 280 108 280 L258 280 C273 280 287 290 289 302 C291 312 283 320 270 320 L167 320 Z " />
<glyph glyph-name="threesuperior" unicode="&#xb3;" horiz-adv-x="250" d="M264 580 C251 567 184 511 179 490 C176 476 204 480 219 480 C255 480 272 458 265 422 L255 374 C248 342 223 320 192 320 C166 320 152 335 154 364 C156 385 150 395 137 395 C120 395 106 382 102 361 C92 316 129 280 183 280 C241 280 293 321 305 377 L316 427 C326 475 304 509 256 519 C270 532 338 589 342 606 C343 613 334 620 322 620 L197 620 C182 620 168 610 165 598 C163 588 171 580 184 580 L264 580 Z " />
<glyph glyph-name="acute" unicode="&#xb4;" horiz-adv-x="175" d="M136 522 C134 512 142 505 156 505 C164 505 172 508 178 513 L269 588 C274 592 277 597 278 602 C280 613 272 620 258 620 C250 620 242 617 236 612 L145 537 C141 534 137 527 136 522 L136 522 Z " />
<glyph glyph-name="paragraph" unicode="&#xb6;" horiz-adv-x="475" d="M276 2 C276 -13 282 -20 296 -20 C311 -20 322 -13 324 -2 L448 580 L499 580 L376 2 C376 -13 382 -20 396 -20 C411 -20 422 -13 424 -2 L552 598 C552 614 546 620 530 620 L305 620 C206 620 124 540 124 442 C124 370 170 330 254 330 C285 330 299 337 299 352 C299 372 276 370 259 370 C201 370 173 394 173 445 C173 519 231 580 301 580 L399 580 L276 2 Z " />
<glyph glyph-name="periodcentered" unicode="&#xb7;" horiz-adv-x="200" d="M102 248 C97 224 114 205 141 205 C169 205 198 226 203 252 C208 276 191 295 164 295 C136 295 108 274 102 248 L102 248 Z " />
<glyph glyph-name="cedilla" unicode="&#xb8;" horiz-adv-x="200" d="M1 -111 C-6 -144 22 -170 62 -170 C106 -170 145 -139 154 -98 L165 -48 C173 -10 150 20 113 20 C92 20 77 11 74 -4 C68 -33 124 -5 114 -53 L103 -101 C100 -119 87 -130 70 -130 C34 -130 73 -80 37 -80 C19 -80 5 -92 1 -111 L1 -111 Z " />
<glyph glyph-name="onesuperior" unicode="&#xb9;" horiz-adv-x="175" d="M223 580 L163 298 C161 288 170 280 183 280 C198 280 212 290 214 302 L278 602 C280 612 272 620 259 620 L184 620 C169 620 155 610 152 598 C150 588 158 580 171 580 L223 580 Z " />
<glyph glyph-name="ordmasculine" unicode="&#xba;" horiz-adv-x="250" d="M104 373 C93 319 126 280 183 280 C241 280 293 321 305 377 L337 527 C349 581 316 620 259 620 C201 620 148 579 136 523 L104 373 Z M155 378 C164 420 172 463 178 487 C192 555 210 580 244 580 C276 580 293 556 286 522 L255 374 C247 341 222 320 191 320 C155 320 156 346 155 378 L155 378 Z " />
<glyph glyph-name="guillemotright" unicode="&#xbb;" horiz-adv-x="325" d="M296 249 L190 162 C187 159 182 152 181 147 C179 137 188 130 202 130 C210 130 217 133 223 138 L345 238 C349 242 353 247 354 252 C355 257 353 261 351 264 L272 364 C269 368 264 370 257 370 C242 370 227 360 224 349 C223 344 224 339 226 336 L296 249 Z M149 248 L63 159 C59 155 57 151 56 147 C54 137 63 130 76 130 C85 130 94 134 101 141 L197 241 C201 245 203 249 204 253 C204 256 204 259 203 262 L149 362 C147 367 140 370 132 370 C117 370 102 360 99 348 C98 344 98 341 100 338 L149 248 Z " />
<glyph glyph-name="onequarter" unicode="&#xbc;" horiz-adv-x="600" d="M127 -110 C126 -115 137 -120 148 -120 C162 -120 175 -107 190 -78 C207 -46 598 694 601 710 C602 715 590 720 579 720 C565 720 552 707 537 678 C520 646 130 -94 127 -110 L127 -110 Z M422 70 C423 76 443 111 448 121 C456 138 539 293 539 308 C539 314 527 320 515 320 C506 320 497 316 492 308 C474 279 361 50 361 40 C361 36 374 30 384 30 L505 30 C502 16 500 3 500 -2 C500 -12 510 -20 524 -20 C537 -20 548 -11 552 7 C554 16 571 87 571 102 C571 112 561 120 548 120 C534 120 525 112 521 99 C520 95 517 82 514 70 L422 70 Z M248 580 L188 298 C186 288 195 280 208 280 C223 280 237 290 239 302 L303 602 C305 612 297 620 284 620 L209 620 C194 620 180 610 177 598 C175 588 183 580 196 580 L248 580 Z " />
<glyph glyph-name="onehalf" unicode="&#xbd;" horiz-adv-x="600" d="M102 -110 C101 -115 112 -120 123 -120 C137 -120 150 -107 165 -78 C182 -46 573 694 576 710 C577 715 565 720 554 720 C540 720 527 707 512 678 C495 646 105 -94 102 -110 L102 -110 Z M428 20 C528 111 590 187 600 234 C610 283 575 320 520 320 C464 320 410 281 400 235 C396 216 401 205 417 205 C432 205 444 218 456 246 C460 255 469 280 504 280 C536 280 555 258 548 226 C534 162 407 59 367 20 C354 8 350 3 349 -3 C347 -13 356 -20 369 -20 L519 -20 C534 -20 548 -10 550 2 C552 12 544 20 531 20 L428 20 Z M223 580 L163 298 C161 288 170 280 183 280 C198 280 212 290 214 302 L278 602 C280 612 272 620 259 620 L184 620 C169 620 155 610 152 598 C150 588 158 580 171 580 L223 580 Z " />
<glyph glyph-name="threequarters" unicode="&#xbe;" horiz-adv-x="650" d="M177 -110 C176 -115 187 -120 198 -120 C212 -120 225 -107 240 -78 C257 -46 648 694 651 710 C652 715 640 720 629 720 C615 720 602 707 587 678 C570 646 180 -94 177 -110 L177 -110 Z M289 580 C276 567 209 511 204 490 C201 476 229 480 244 480 C280 480 297 458 290 422 L280 374 C273 342 248 320 217 320 C191 320 177 335 179 364 C181 385 175 395 162 395 C145 395 131 382 127 361 C117 316 154 280 208 280 C266 280 318 321 330 377 L341 427 C351 475 329 509 281 519 C295 532 363 589 367 606 C368 613 359 620 347 620 L222 620 C207 620 193 610 190 598 C188 588 196 580 209 580 L289 580 Z M471 70 C486 102 586 288 590 306 C591 313 582 320 570 320 C559 320 548 314 542 305 C526 281 411 52 408 41 C407 36 418 30 429 30 L556 30 L549 -2 C547 -12 556 -20 569 -20 C584 -20 598 -10 600 2 L621 102 C624 112 615 120 602 120 C587 120 573 110 571 98 L565 70 L471 70 Z " />
<glyph glyph-name="questiondown" unicode="&#xbf;" horiz-adv-x="400" d="M206 145 C171 -20 309 42 285 -72 C271 -137 221 -180 159 -180 C112 -180 83 -155 81 -112 C80 -97 84 -87 84 -79 C85 -64 75 -55 61 -55 C47 -55 36 -64 33 -79 C31 -89 31 -107 34 -118 C48 -181 85 -220 154 -220 C241 -220 316 -161 334 -77 C344 -28 330 5 281 45 C247 73 243 86 253 130 C264 184 280 220 248 220 C215 220 214 184 206 145 L206 145 Z M244 327 C242 315 252 305 267 305 C280 305 292 313 294 323 L310 398 C312 410 302 420 287 420 C274 420 263 412 260 402 L244 327 Z " />
<glyph glyph-name="Agrave" unicode="&#xc0;" horiz-adv-x="500" d="M140 80 L393 79 L400 -6 C400 -14 409 -20 419 -20 C430 -20 447 -12 449 -7 C450 2 420 367 404 580 C402 608 396 620 383 620 C370 620 357 608 345 584 C200 297 50 -2 48 -10 C47 -14 59 -20 69 -20 C81 -20 93 -13 98 -3 L140 80 Z M161 120 L358 513 L389 119 L161 120 Z M375 686 C378 682 384 680 391 680 C406 680 421 690 424 702 C425 707 424 711 421 714 L362 789 C359 793 354 795 347 795 C332 795 316 785 314 774 C313 769 314 764 316 761 L375 686 Z " />
<glyph glyph-name="Aacute" unicode="&#xc1;" horiz-adv-x="500" d="M140 80 L393 79 L400 -6 C400 -14 409 -20 419 -20 C430 -20 447 -12 449 -7 C450 2 420 367 404 580 C402 608 396 620 383 620 C370 620 357 608 345 584 C200 297 50 -2 48 -10 C47 -14 59 -20 69 -20 C81 -20 93 -13 98 -3 L140 80 Z M161 120 L358 513 L389 119 L161 120 Z M373 697 C371 687 379 680 393 680 C401 680 409 683 415 688 L506 763 C511 767 514 772 515 777 C517 788 509 795 495 795 C487 795 479 792 473 787 L382 712 C378 709 374 702 373 697 L373 697 Z " />
<glyph glyph-name="Acircumflex" unicode="&#xc2;" horiz-adv-x="500" d="M140 80 L393 79 L400 -6 C400 -14 409 -20 419 -20 C430 -20 447 -12 449 -7 C450 2 420 367 404 580 C402 608 396 620 383 620 C370 620 357 608 345 584 C200 297 50 -2 48 -10 C47 -14 59 -20 69 -20 C81 -20 93 -13 98 -3 L140 80 Z M161 120 L358 513 L389 119 L161 120 Z M407 743 L451 686 C454 682 459 680 466 680 C481 680 496 690 499 702 C500 707 499 711 497 714 L438 789 C434 793 429 795 421 795 C412 795 404 792 398 787 L307 712 C304 709 299 702 298 697 C296 687 304 680 318 680 C326 680 334 683 340 688 L407 743 Z " />
<glyph glyph-name="Atilde" unicode="&#xc3;" horiz-adv-x="500" d="M140 80 L393 79 L400 -6 C400 -14 409 -20 419 -20 C430 -20 447 -12 449 -7 C450 2 420 367 404 580 C402 608 396 620 383 620 C370 620 357 608 345 584 C200 297 50 -2 48 -10 C47 -14 59 -20 69 -20 C81 -20 93 -13 98 -3 L140 80 Z M161 120 L358 513 L389 119 L161 120 Z M275 706 C271 689 278 680 295 680 C334 680 318 730 351 730 C384 730 384 680 441 680 C484 680 526 709 533 744 C537 761 529 770 512 770 C473 770 490 720 457 720 C424 720 423 770 366 770 C323 770 282 741 275 706 L275 706 Z " />
<glyph glyph-name="Adieresis" unicode="&#xc4;" horiz-adv-x="500" d="M140 80 L393 79 L400 -6 C400 -14 409 -20 419 -20 C430 -20 447 -12 449 -7 C450 2 420 367 404 580 C402 608 396 620 383 620 C370 620 357 608 345 584 C200 297 50 -2 48 -10 C47 -14 59 -20 69 -20 C81 -20 93 -13 98 -3 L140 80 Z M161 120 L358 513 L389 119 L161 120 Z M323 698 C321 688 329 680 342 680 C357 680 371 690 374 702 L390 777 C392 787 384 795 371 795 C356 795 342 785 339 773 L323 698 Z M423 698 C421 688 429 680 442 680 C457 680 471 690 474 702 L490 777 C492 787 484 795 471 795 C456 795 442 785 439 773 L423 698 Z " />
<glyph glyph-name="Aring" unicode="&#xc5;" horiz-adv-x="500" d="M140 80 L393 79 L400 -6 C400 -14 409 -20 419 -20 C430 -20 447 -12 449 -7 C450 2 420 367 404 580 C402 608 396 620 383 620 C370 620 357 608 345 584 C200 297 50 -2 48 -10 C47 -14 59 -20 69 -20 C81 -20 93 -13 98 -3 L140 80 Z M161 120 L358 513 L389 119 L161 120 Z M297 696 C286 644 321 602 376 602 C433 602 489 646 501 700 C512 753 477 795 421 795 C364 795 308 750 297 696 L297 696 Z M389 642 C355 650 341 668 347 697 C354 730 380 755 408 755 C437 755 457 728 450 696 C447 685 442 675 436 667 C425 654 411 647 389 642 L389 642 Z " />
<glyph glyph-name="AE" unicode="&#xc6;" horiz-adv-x="625" d="M115 80 L297 80 C305 16 350 -20 419 -20 L544 -20 C559 -20 573 -10 575 2 C578 12 569 20 556 20 C517 20 479 20 479 20 C382 20 349 43 348 110 L365 380 L529 380 C544 380 558 390 560 402 C563 412 554 420 541 420 L367 420 L376 580 L671 580 C686 580 700 590 703 602 C705 612 697 620 684 620 L359 620 C347 620 333 612 329 602 C306 556 26 6 23 -10 C22 -14 34 -20 44 -20 C56 -20 68 -13 73 -3 L115 80 Z M136 120 L321 487 L299 120 L136 120 Z " />
<glyph glyph-name="Ccedilla" unicode="&#xc7;" horiz-adv-x="500" d="M85 108 C96 24 149 -20 244 -20 C340 -20 415 25 461 110 C473 131 483 156 486 169 C489 185 482 195 466 195 C453 195 443 186 435 169 C429 155 428 141 415 116 C383 55 325 20 254 20 C184 20 146 56 136 124 C134 142 134 161 138 177 L191 427 C194 443 201 461 212 481 C249 547 300 580 366 580 C450 580 505 525 494 448 C492 435 490 428 491 421 C491 411 496 405 508 405 C525 405 539 417 542 435 C545 448 545 472 543 492 C531 576 479 620 384 620 C288 620 212 575 166 490 C153 467 144 443 140 423 L87 173 C83 153 82 130 85 108 L85 108 Z M151 -111 C144 -144 172 -170 212 -170 C256 -170 295 -139 304 -98 L315 -48 C323 -10 300 20 263 20 C242 20 227 11 224 -4 C218 -33 274 -5 264 -53 L253 -101 C250 -119 237 -130 220 -130 C184 -130 223 -80 187 -80 C169 -80 155 -92 151 -111 L151 -111 Z " />
<glyph glyph-name="Egrave" unicode="&#xc8;" horiz-adv-x="450" d="M181 380 L329 380 C344 380 358 390 360 402 C363 412 354 420 341 420 L189 420 L223 580 L496 580 C511 580 525 590 528 602 C530 612 522 620 509 620 L209 620 C194 620 180 610 177 598 L66 73 C54 19 87 -20 144 -20 L369 -20 C384 -20 398 -10 400 2 C403 12 394 20 381 20 C314 20 246 20 246 20 C128 20 106 30 117 78 L181 380 Z M350 686 C353 682 359 680 366 680 C381 680 396 690 399 702 C400 707 399 711 396 714 L337 789 C334 793 329 795 322 795 C307 795 291 785 289 774 C288 769 289 764 291 761 L350 686 Z " />
<glyph glyph-name="Eacute" unicode="&#xc9;" horiz-adv-x="450" d="M181 380 L329 380 C344 380 358 390 360 402 C363 412 354 420 341 420 L189 420 L223 580 L496 580 C511 580 525 590 528 602 C530 612 522 620 509 620 L209 620 C194 620 180 610 177 598 L66 73 C54 19 87 -20 144 -20 L369 -20 C384 -20 398 -10 400 2 C403 12 394 20 381 20 C314 20 246 20 246 20 C128 20 106 30 117 78 L181 380 Z M348 697 C346 687 354 680 368 680 C376 680 384 683 390 688 L481 763 C486 767 489 772 490 777 C492 788 484 795 470 795 C462 795 454 792 448 787 L357 712 C353 709 349 702 348 697 L348 697 Z " />
<glyph glyph-name="Ecircumflex" unicode="&#xca;" horiz-adv-x="450" d="M181 380 L329 380 C344 380 358 390 360 402 C363 412 354 420 341 420 L189 420 L223 580 L496 580 C511 580 525 590 528 602 C530 612 522 620 509 620 L209 620 C194 620 180 610 177 598 L66 73 C54 19 87 -20 144 -20 L369 -20 C384 -20 398 -10 400 2 C403 12 394 20 381 20 C314 20 246 20 246 20 C128 20 106 30 117 78 L181 380 Z M382 743 L426 686 C429 682 434 680 441 680 C456 680 471 690 474 702 C475 707 474 711 472 714 L413 789 C409 793 404 795 396 795 C387 795 379 792 373 787 L282 712 C279 709 274 702 273 697 C271 687 279 680 293 680 C301 680 309 683 315 688 L382 743 Z " />
<glyph glyph-name="Edieresis" unicode="&#xcb;" horiz-adv-x="450" d="M181 380 L329 380 C344 380 358 390 360 402 C363 412 354 420 341 420 L189 420 L223 580 L496 580 C511 580 525 590 528 602 C530 612 522 620 509 620 L209 620 C194 620 180 610 177 598 L66 73 C54 19 87 -20 144 -20 L369 -20 C384 -20 398 -10 400 2 C403 12 394 20 381 20 C314 20 246 20 246 20 C128 20 106 30 117 78 L181 380 Z M298 698 C296 688 304 680 317 680 C332 680 346 690 349 702 L365 777 C367 787 359 795 346 795 C331 795 317 785 314 773 L298 698 Z M398 698 C396 688 404 680 417 680 C432 680 446 690 449 702 L465 777 C467 787 459 795 446 795 C431 795 417 785 414 773 L398 698 Z " />
<glyph glyph-name="Igrave" unicode="&#xcc;" horiz-adv-x="150" d="M50 -2 C47 -12 56 -20 69 -20 C84 -20 98 -10 100 2 L228 602 C230 612 222 620 209 620 C194 620 180 610 177 598 L50 -2 Z M200 686 C203 682 209 680 216 680 C231 680 246 690 249 702 C250 707 249 711 246 714 L187 789 C184 793 179 795 172 795 C157 795 141 785 139 774 C138 769 139 764 141 761 L200 686 Z " />
<glyph glyph-name="Iacute" unicode="&#xcd;" horiz-adv-x="150" d="M50 -2 C47 -12 56 -20 69 -20 C84 -20 98 -10 100 2 L228 602 C230 612 222 620 209 620 C194 620 180 610 177 598 L50 -2 Z M198 697 C196 687 204 680 218 680 C226 680 234 683 240 688 L331 763 C336 767 339 772 340 777 C342 788 334 795 320 795 C312 795 304 792 298 787 L207 712 C203 709 199 702 198 697 L198 697 Z " />
<glyph glyph-name="Icircumflex" unicode="&#xce;" horiz-adv-x="150" d="M50 -2 C47 -12 56 -20 69 -20 C84 -20 98 -10 100 2 L228 602 C230 612 222 620 209 620 C194 620 180 610 177 598 L50 -2 Z M232 743 L276 686 C279 682 284 680 291 680 C306 680 321 690 324 702 C325 707 324 711 322 714 L263 789 C259 793 254 795 246 795 C237 795 229 792 223 787 L132 712 C129 709 124 702 123 697 C121 687 129 680 143 680 C151 680 159 683 165 688 L232 743 Z " />
<glyph glyph-name="Idieresis" unicode="&#xcf;" horiz-adv-x="150" d="M50 -2 C47 -12 56 -20 69 -20 C84 -20 98 -10 100 2 L228 602 C230 612 222 620 209 620 C194 620 180 610 177 598 L50 -2 Z M148 698 C146 688 154 680 167 680 C182 680 196 690 199 702 L215 777 C217 787 209 795 196 795 C181 795 167 785 164 773 L148 698 Z M248 698 C246 688 254 680 267 680 C282 680 296 690 299 702 L315 777 C317 787 309 795 296 795 C281 795 267 785 264 773 L248 698 Z " />
<glyph glyph-name="Eth" unicode="&#xd0;" horiz-adv-x="525" d="M248 580 L395 580 C467 580 506 546 516 476 C518 458 518 439 515 423 L457 149 C453 130 441 106 425 86 C373 17 303 20 268 20 C223 20 203 13 200 -2 C197 -12 206 -20 219 -20 L268 -20 C358 -20 435 21 480 90 C493 110 503 133 507 152 L566 427 C570 447 571 470 568 493 C557 577 504 620 409 620 L234 620 C219 620 205 610 202 598 L75 -2 C72 -12 81 -20 94 -20 C109 -20 123 -10 125 2 L248 580 Z M110 398 C108 388 116 380 129 380 L329 380 C344 380 358 390 361 402 C363 412 354 420 341 420 L141 420 C126 420 112 410 110 398 L110 398 Z " />
<glyph glyph-name="Ntilde" unicode="&#xd1;" horiz-adv-x="500" d="M472 340 L400 -2 C397 -12 406 -20 419 -20 C434 -20 448 -10 450 2 L578 602 C580 612 572 620 559 620 C544 620 530 610 527 598 L484 396 L224 616 C221 618 216 620 210 620 C195 620 180 610 177 598 L50 -2 C47 -12 56 -20 69 -20 C84 -20 98 -10 100 2 L218 554 L472 340 Z M275 706 C271 689 278 680 295 680 C334 680 318 730 351 730 C384 730 384 680 441 680 C484 680 526 709 533 744 C537 761 529 770 512 770 C473 770 490 720 457 720 C424 720 423 770 366 770 C323 770 282 741 275 706 L275 706 Z " />
<glyph glyph-name="Ograve" unicode="&#xd2;" horiz-adv-x="500" d="M85 108 C96 24 149 -20 244 -20 C340 -20 415 25 461 110 C474 133 483 157 488 177 L541 427 C545 447 545 470 543 492 C533 576 479 620 384 620 C288 620 212 575 166 490 C153 467 144 443 140 423 L87 173 C83 153 82 130 85 108 L85 108 Z M437 174 C430 157 427 142 417 121 C384 56 327 20 255 20 C184 20 146 56 136 124 C134 142 134 161 138 177 L191 427 C194 443 201 461 212 481 C249 547 301 580 370 580 C456 580 500 528 492 437 C489 403 478 369 471 335 L437 174 Z M375 686 C378 682 384 680 391 680 C406 680 421 690 424 702 C425 707 424 711 421 714 L362 789 C359 793 354 795 347 795 C332 795 316 785 314 774 C313 769 314 764 316 761 L375 686 Z " />
<glyph glyph-name="Oacute" unicode="&#xd3;" horiz-adv-x="500" d="M85 108 C96 24 149 -20 244 -20 C340 -20 415 25 461 110 C474 133 483 157 488 177 L541 427 C545 447 545 470 543 492 C533 576 479 620 384 620 C288 620 212 575 166 490 C153 467 144 443 140 423 L87 173 C83 153 82 130 85 108 L85 108 Z M437 174 C430 157 427 142 417 121 C384 56 327 20 255 20 C184 20 146 56 136 124 C134 142 134 161 138 177 L191 427 C194 443 201 461 212 481 C249 547 301 580 370 580 C456 580 500 528 492 437 C489 403 478 369 471 335 L437 174 Z M373 697 C371 687 379 680 393 680 C401 680 409 683 415 688 L506 763 C511 767 514 772 515 777 C517 788 509 795 495 795 C487 795 479 792 473 787 L382 712 C378 709 374 702 373 697 L373 697 Z " />
<glyph glyph-name="Ocircumflex" unicode="&#xd4;" horiz-adv-x="500" d="M85 108 C96 24 149 -20 244 -20 C340 -20 415 25 461 110 C474 133 483 157 488 177 L541 427 C545 447 545 470 543 492 C533 576 479 620 384 620 C288 620 212 575 166 490 C153 467 144 443 140 423 L87 173 C83 153 82 130 85 108 L85 108 Z M437 174 C430 157 427 142 417 121 C384 56 327 20 255 20 C184 20 146 56 136 124 C134 142 134 161 138 177 L191 427 C194 443 201 461 212 481 C249 547 301 580 370 580 C456 580 500 528 492 437 C489 403 478 369 471 335 L437 174 Z M407 743 L451 686 C454 682 459 680 466 680 C481 680 496 690 499 702 C500 707 499 711 497 714 L438 789 C434 793 429 795 421 795 C412 795 404 792 398 787 L307 712 C304 709 299 702 298 697 C296 687 304 680 318 680 C326 680 334 683 340 688 L407 743 Z " />
<glyph glyph-name="Otilde" unicode="&#xd5;" horiz-adv-x="500" d="M85 108 C96 24 149 -20 244 -20 C340 -20 415 25 461 110 C474 133 483 157 488 177 L541 427 C545 447 545 470 543 492 C533 576 479 620 384 620 C288 620 212 575 166 490 C153 467 144 443 140 423 L87 173 C83 153 82 130 85 108 L85 108 Z M437 174 C430 157 427 142 417 121 C384 56 327 20 255 20 C184 20 146 56 136 124 C134 142 134 161 138 177 L191 427 C194 443 201 461 212 481 C249 547 301 580 370 580 C456 580 500 528 492 437 C489 403 478 369 471 335 L437 174 Z M275 706 C271 689 278 680 295 680 C334 680 318 730 351 730 C384 730 384 680 441 680 C484 680 526 709 533 744 C537 761 529 770 512 770 C473 770 490 720 457 720 C424 720 423 770 366 770 C323 770 282 741 275 706 L275 706 Z " />
<glyph glyph-name="Odieresis" unicode="&#xd6;" horiz-adv-x="500" d="M85 108 C96 24 149 -20 244 -20 C340 -20 415 25 461 110 C474 133 483 157 488 177 L541 427 C545 447 545 470 543 492 C533 576 479 620 384 620 C288 620 212 575 166 490 C153 467 144 443 140 423 L87 173 C83 153 82 130 85 108 L85 108 Z M437 174 C430 157 427 142 417 121 C384 56 327 20 255 20 C184 20 146 56 136 124 C134 142 134 161 138 177 L191 427 C194 443 201 461 212 481 C249 547 301 580 370 580 C456 580 500 528 492 437 C489 403 478 369 471 335 L437 174 Z M323 698 C321 688 329 680 342 680 C357 680 371 690 374 702 L390 777 C392 787 384 795 371 795 C356 795 342 785 339 773 L323 698 Z M423 698 C421 688 429 680 442 680 C457 680 471 690 474 702 L490 777 C492 787 484 795 471 795 C456 795 442 785 439 773 L423 698 Z " />
<glyph glyph-name="multiply" unicode="&#xd7;" horiz-adv-x="350" d="M223 218 L286 138 C290 133 298 130 305 130 C319 130 332 140 332 151 C332 156 330 159 328 162 L260 249 L366 336 C371 340 374 346 374 352 C374 362 364 370 351 370 C344 370 337 368 332 364 L233 282 L170 362 C166 367 160 370 152 370 C137 370 124 360 124 349 C124 344 126 341 128 338 L196 251 L90 164 C85 160 82 154 82 148 C82 138 92 130 105 130 C112 130 119 132 124 136 L223 218 Z " />
<glyph glyph-name="Oslash" unicode="&#xd8;" horiz-adv-x="500" d="M85 108 C96 24 149 -20 244 -20 C340 -20 415 25 461 110 C474 133 483 157 488 177 L541 427 C545 447 545 470 543 492 C533 576 479 620 384 620 C288 620 212 575 166 490 C153 467 144 443 140 423 L87 173 C83 153 82 130 85 108 L85 108 Z M437 174 C430 157 427 142 417 121 C384 56 327 20 255 20 C184 20 146 56 136 124 C134 142 134 161 138 177 L191 427 C194 443 201 461 212 481 C249 547 301 580 370 580 C456 580 500 528 492 437 C489 403 478 369 471 335 L437 174 Z M77 -110 C76 -115 87 -120 98 -120 C112 -120 125 -107 140 -78 C157 -46 548 694 551 710 C552 715 540 720 529 720 C515 720 502 707 487 678 C470 646 80 -94 77 -110 L77 -110 Z " />
<glyph glyph-name="Ugrave" unicode="&#xd9;" horiz-adv-x="500" d="M85 107 C95 23 149 -20 243 -20 C339 -20 415 25 461 110 C474 133 483 157 488 177 L578 602 C580 612 572 620 559 620 C544 620 530 610 527 598 L472 340 C470 328 467 315 464 303 L450 229 C447 217 444 204 444 204 C419 85 352 20 256 20 C172 20 129 71 136 160 C138 189 145 214 151 240 L228 602 C230 612 222 620 209 620 C194 620 180 610 177 598 L87 173 C83 154 82 130 85 107 L85 107 Z M375 686 C378 682 384 680 391 680 C406 680 421 690 424 702 C425 707 424 711 421 714 L362 789 C359 793 354 795 347 795 C332 795 316 785 314 774 C313 769 314 764 316 761 L375 686 Z " />
<glyph glyph-name="Uacute" unicode="&#xda;" horiz-adv-x="500" d="M85 107 C95 23 149 -20 243 -20 C339 -20 415 25 461 110 C474 133 483 157 488 177 L578 602 C580 612 572 620 559 620 C544 620 530 610 527 598 L472 340 C470 328 467 315 464 303 L450 229 C447 217 444 204 444 204 C419 85 352 20 256 20 C172 20 129 71 136 160 C138 189 145 214 151 240 L228 602 C230 612 222 620 209 620 C194 620 180 610 177 598 L87 173 C83 154 82 130 85 107 L85 107 Z M373 697 C371 687 379 680 393 680 C401 680 409 683 415 688 L506 763 C511 767 514 772 515 777 C517 788 509 795 495 795 C487 795 479 792 473 787 L382 712 C378 709 374 702 373 697 L373 697 Z " />
<glyph glyph-name="Ucircumflex" unicode="&#xdb;" horiz-adv-x="500" d="M85 107 C95 23 149 -20 243 -20 C339 -20 415 25 461 110 C474 133 483 157 488 177 L578 602 C580 612 572 620 559 620 C544 620 530 610 527 598 L472 340 C470 328 467 315 464 303 L450 229 C447 217 444 204 444 204 C419 85 352 20 256 20 C172 20 129 71 136 160 C138 189 145 214 151 240 L228 602 C230 612 222 620 209 620 C194 620 180 610 177 598 L87 173 C83 154 82 130 85 107 L85 107 Z M407 743 L451 686 C454 682 459 680 466 680 C481 680 496 690 499 702 C500 707 499 711 497 714 L438 789 C434 793 429 795 421 795 C412 795 404 792 398 787 L307 712 C304 709 299 702 298 697 C296 687 304 680 318 680 C326 680 334 683 340 688 L407 743 Z " />
<glyph glyph-name="Udieresis" unicode="&#xdc;" horiz-adv-x="500" d="M85 107 C95 23 149 -20 243 -20 C339 -20 415 25 461 110 C474 133 483 157 488 177 L578 602 C580 612 572 620 559 620 C544 620 530 610 527 598 L472 340 C470 328 467 315 464 303 L450 229 C447 217 444 204 444 204 C419 85 352 20 256 20 C172 20 129 71 136 160 C138 189 145 214 151 240 L228 602 C230 612 222 620 209 620 C194 620 180 610 177 598 L87 173 C83 154 82 130 85 107 L85 107 Z M323 698 C321 688 329 680 342 680 C357 680 371 690 374 702 L390 777 C392 787 384 795 371 795 C356 795 342 785 339 773 L323 698 Z M423 698 C421 688 429 680 442 680 C457 680 471 690 474 702 L490 777 C492 787 484 795 471 795 C456 795 442 785 439 773 L423 698 Z " />
<glyph glyph-name="Yacute" unicode="&#xdd;" horiz-adv-x="444" d="M283 392 L200 -2 C197 -12 206 -20 219 -20 C234 -20 248 -10 250 2 L334 395 L539 590 C543 593 546 598 547 603 C549 613 541 620 528 620 C519 620 510 616 504 610 L318 435 L200 613 C198 617 192 620 185 620 C170 620 155 610 152 599 C151 594 152 590 155 587 L283 392 Z M348 697 C346 687 354 680 368 680 C376 680 384 683 390 688 L481 763 C486 767 489 772 490 777 C492 788 484 795 470 795 C462 795 454 792 448 787 L357 712 C353 709 349 702 348 697 L348 697 Z " />
<glyph glyph-name="Thorn" unicode="&#xde;" horiz-adv-x="400" d="M51 2 C51 -13 57 -20 71 -20 C86 -20 97 -13 99 -2 L181 380 L282 380 C334 380 361 352 361 296 C361 219 319 145 265 127 C244 120 221 120 221 120 C188 120 172 112 172 97 C172 85 183 80 206 80 C287 80 339 108 374 169 C396 207 410 259 410 301 C410 376 364 420 287 420 L190 420 C198 454 206 493 206 502 C206 512 196 520 183 520 C169 520 161 511 155 494 C149 477 136 413 135 400 L51 2 Z " />
<glyph glyph-name="germandbls" unicode="&#xdf;" horiz-adv-x="550" d="M101 2 C101 -13 107 -20 121 -20 C136 -20 147 -13 149 -2 L240 426 C264 540 303 580 376 580 L499 580 L317 412 C312 407 310 402 310 397 C310 373 354 380 385 380 C461 380 501 337 501 257 C501 148 438 50 354 27 C321 18 286 20 271 20 C241 20 225 12 225 -2 C225 -12 235 -20 248 -20 L298 -20 C417 -20 514 61 540 189 C543 204 551 235 551 270 C551 363 493 417 389 420 L571 588 C576 593 578 598 578 603 C578 613 568 620 555 620 L380 620 C295 620 219 558 202 477 L190 420 L137 420 C122 420 110 410 110 398 C110 388 120 380 133 380 L181 380 L101 2 Z " />
<glyph glyph-name="agrave" unicode="&#xe0;" horiz-adv-x="400" d="M380 380 L299 -2 C297 -12 305 -20 318 -20 C333 -20 347 -10 350 2 L435 402 C437 412 429 420 416 420 L291 420 C222 420 162 385 127 320 C117 303 110 286 108 273 L76 123 C72 105 73 80 77 60 C91 5 127 -20 198 -20 C231 -20 247 -14 250 1 C253 15 240 20 205 20 C162 20 138 38 128 77 C124 94 123 111 127 127 L158 277 C172 339 219 380 278 380 L380 380 Z M350 511 C353 507 359 505 366 505 C381 505 396 515 399 527 C400 532 399 536 396 539 L337 614 C334 618 329 620 322 620 C307 620 291 610 289 599 C288 594 289 589 291 586 L350 511 Z " />
<glyph glyph-name="aacute" unicode="&#xe1;" horiz-adv-x="400" d="M380 380 L299 -2 C297 -12 305 -20 318 -20 C333 -20 347 -10 350 2 L435 402 C437 412 429 420 416 420 L291 420 C222 420 162 385 127 320 C117 303 110 286 108 273 L76 123 C72 105 73 80 77 60 C91 5 127 -20 198 -20 C231 -20 247 -14 250 1 C253 15 240 20 205 20 C162 20 138 38 128 77 C124 94 123 111 127 127 L158 277 C172 339 219 380 278 380 L380 380 Z M314 522 C312 512 320 505 334 505 C342 505 350 508 356 513 L447 588 C452 592 455 597 456 602 C458 613 450 620 436 620 C428 620 420 617 414 612 L323 537 C319 534 315 527 314 522 L314 522 Z " />
<glyph glyph-name="acircumflex" unicode="&#xe2;" horiz-adv-x="400" d="M380 380 L299 -2 C297 -12 305 -20 318 -20 C333 -20 347 -10 350 2 L435 402 C437 412 429 420 416 420 L291 420 C222 420 162 385 127 320 C117 303 110 286 108 273 L76 123 C72 105 73 80 77 60 C91 5 127 -20 198 -20 C231 -20 247 -14 250 1 C253 15 240 20 205 20 C162 20 138 38 128 77 C124 94 123 111 127 127 L158 277 C172 339 219 380 278 380 L380 380 Z M345 568 L389 511 C392 507 397 505 404 505 C419 505 434 515 437 527 C438 532 437 536 435 539 L376 614 C372 618 367 620 359 620 C350 620 342 617 336 612 L245 537 C242 534 237 527 236 522 C234 512 242 505 256 505 C264 505 272 508 278 513 L345 568 Z " />
<glyph glyph-name="atilde" unicode="&#xe3;" horiz-adv-x="400" d="M380 380 L299 -2 C297 -12 305 -20 318 -20 C333 -20 347 -10 350 2 L435 402 C437 412 429 420 416 420 L291 420 C222 420 162 385 127 320 C117 303 110 286 108 273 L76 123 C72 105 73 80 77 60 C91 5 127 -20 198 -20 C231 -20 247 -14 250 1 C253 15 240 20 205 20 C162 20 138 38 128 77 C124 94 123 111 127 127 L158 277 C172 339 219 380 278 380 L380 380 Z M213 531 C209 514 216 505 233 505 C272 505 256 555 289 555 C322 555 322 505 379 505 C422 505 464 534 471 569 C475 586 467 595 450 595 C411 595 428 545 395 545 C362 545 361 595 304 595 C261 595 220 566 213 531 L213 531 Z " />
<glyph glyph-name="adieresis" unicode="&#xe4;" horiz-adv-x="400" d="M380 380 L299 -2 C297 -12 305 -20 318 -20 C333 -20 347 -10 350 2 L435 402 C437 412 429 420 416 420 L291 420 C222 420 162 385 127 320 C117 303 110 286 108 273 L76 123 C72 105 73 80 77 60 C91 5 127 -20 198 -20 C231 -20 247 -14 250 1 C253 15 240 20 205 20 C162 20 138 38 128 77 C124 94 123 111 127 127 L158 277 C172 339 219 380 278 380 L380 380 Z M261 523 C259 513 267 505 280 505 C295 505 309 515 312 527 L328 602 C330 612 322 620 309 620 C294 620 280 610 277 598 L261 523 Z M361 523 C359 513 367 505 380 505 C395 505 409 515 412 527 L428 602 C430 612 422 620 409 620 C394 620 380 610 377 598 L361 523 Z " />
<glyph glyph-name="aring" unicode="&#xe5;" horiz-adv-x="400" d="M380 380 L299 -2 C297 -12 305 -20 318 -20 C333 -20 347 -10 350 2 L435 402 C437 412 429 420 416 420 L291 420 C222 420 162 385 127 320 C117 303 110 286 108 273 L76 123 C72 105 73 80 77 60 C91 5 127 -20 198 -20 C231 -20 247 -14 250 1 C253 15 240 20 205 20 C162 20 138 38 128 77 C124 94 123 111 127 127 L158 277 C172 339 219 380 278 380 L380 380 Z M236 521 C225 469 260 427 315 427 C372 427 428 471 440 525 C451 578 416 620 360 620 C303 620 247 575 236 521 L236 521 Z M328 467 C294 475 280 493 286 522 C293 555 319 580 347 580 C376 580 396 553 389 521 C386 510 381 500 375 492 C364 479 350 472 328 467 L328 467 Z " />
<glyph glyph-name="ae" unicode="&#xe6;" horiz-adv-x="650" d="M387 340 C374 320 363 295 359 277 L327 127 C324 114 324 97 326 80 C334 15 379 -20 448 -20 L498 -20 C511 -20 522 -12 525 -2 C528 13 513 20 480 20 C446 20 394 12 377 75 C373 92 373 108 376 123 L408 273 C423 342 476 380 557 380 C590 380 606 368 613 339 C616 326 616 312 613 298 C603 251 564 220 515 220 C491 220 448 228 443 203 C440 190 450 180 465 180 L515 180 C587 180 649 229 664 300 C680 375 632 420 538 420 C470 420 423 393 387 340 L387 340 Z M381 380 L358 273 C356 263 364 255 377 255 C392 255 406 265 409 277 L435 402 C438 412 429 420 416 420 L291 420 C222 420 163 385 127 320 C117 303 111 286 108 273 L76 123 C72 105 73 80 78 60 C91 5 128 -20 202 -20 C233 -20 247 -14 250 0 C253 15 241 20 205 20 C162 20 138 38 128 77 C124 94 124 111 127 127 L159 277 C172 339 220 380 279 380 L381 380 Z " />
<glyph glyph-name="ccedilla" unicode="&#xe7;" horiz-adv-x="400" d="M197 -20 C265 -20 319 19 360 82 C367 93 375 112 377 121 C380 136 373 145 359 145 C344 145 331 135 326 120 C323 113 321 102 314 88 C293 45 255 20 209 20 C149 20 115 65 128 127 L160 277 C173 339 221 380 281 380 C329 380 358 354 361 309 C362 294 359 283 359 276 C358 262 365 255 377 255 C395 255 408 270 414 295 C429 365 374 420 291 420 C222 420 168 381 128 318 C120 306 112 287 109 273 L77 123 C60 40 110 -20 197 -20 L197 -20 Z M101 -111 C94 -144 122 -170 162 -170 C206 -170 245 -139 254 -98 L265 -48 C273 -10 250 20 213 20 C192 20 177 11 174 -4 C168 -33 224 -5 214 -53 L203 -101 C200 -119 187 -130 170 -130 C134 -130 173 -80 137 -80 C119 -80 105 -92 101 -111 L101 -111 Z " />
<glyph glyph-name="egrave" unicode="&#xe8;" horiz-adv-x="400" d="M137 340 C124 320 113 295 109 277 L77 127 C74 114 74 97 76 80 C84 15 129 -20 198 -20 L248 -20 C261 -20 272 -12 275 -2 C278 13 263 20 230 20 C196 20 144 12 127 75 C123 92 123 108 126 123 L158 273 C173 342 226 380 307 380 C340 380 356 368 363 339 C366 326 366 312 363 298 C353 251 314 220 265 220 C241 220 198 228 193 203 C190 190 200 180 215 180 L265 180 C337 180 399 229 414 300 C430 375 382 420 288 420 C220 420 173 393 137 340 L137 340 Z M288 511 C291 507 297 505 304 505 C319 505 334 515 337 527 C338 532 337 536 334 539 L275 614 C272 618 267 620 260 620 C245 620 229 610 227 599 C226 594 227 589 229 586 L288 511 Z " />
<glyph glyph-name="eacute" unicode="&#xe9;" horiz-adv-x="400" d="M137 340 C124 320 113 295 109 277 L77 127 C74 114 74 97 76 80 C84 15 129 -20 198 -20 L248 -20 C261 -20 272 -12 275 -2 C278 13 263 20 230 20 C196 20 144 12 127 75 C123 92 123 108 126 123 L158 273 C173 342 226 380 307 380 C340 380 356 368 363 339 C366 326 366 312 363 298 C353 251 314 220 265 220 C241 220 198 228 193 203 C190 190 200 180 215 180 L265 180 C337 180 399 229 414 300 C430 375 382 420 288 420 C220 420 173 393 137 340 L137 340 Z M286 522 C284 512 292 505 306 505 C314 505 322 508 328 513 L419 588 C424 592 427 597 428 602 C430 613 422 620 408 620 C400 620 392 617 386 612 L295 537 C291 534 287 527 286 522 L286 522 Z " />
<glyph glyph-name="ecircumflex" unicode="&#xea;" horiz-adv-x="400" d="M137 340 C124 320 113 295 109 277 L77 127 C74 114 74 97 76 80 C84 15 129 -20 198 -20 L248 -20 C261 -20 272 -12 275 -2 C278 13 263 20 230 20 C196 20 144 12 127 75 C123 92 123 108 126 123 L158 273 C173 342 226 380 307 380 C340 380 356 368 363 339 C366 326 366 312 363 298 C353 251 314 220 265 220 C241 220 198 228 193 203 C190 190 200 180 215 180 L265 180 C337 180 399 229 414 300 C430 375 382 420 288 420 C220 420 173 393 137 340 L137 340 Z M320 568 L364 511 C367 507 372 505 379 505 C394 505 409 515 412 527 C413 532 412 536 410 539 L351 614 C347 618 342 620 334 620 C325 620 317 617 311 612 L220 537 C217 534 212 527 211 522 C209 512 217 505 231 505 C239 505 247 508 253 513 L320 568 Z " />
<glyph glyph-name="edieresis" unicode="&#xeb;" horiz-adv-x="400" d="M137 340 C124 320 113 295 109 277 L77 127 C74 114 74 97 76 80 C84 15 129 -20 198 -20 L248 -20 C261 -20 272 -12 275 -2 C278 13 263 20 230 20 C196 20 144 12 127 75 C123 92 123 108 126 123 L158 273 C173 342 226 380 307 380 C340 380 356 368 363 339 C366 326 366 312 363 298 C353 251 314 220 265 220 C241 220 198 228 193 203 C190 190 200 180 215 180 L265 180 C337 180 399 229 414 300 C430 375 382 420 288 420 C220 420 173 393 137 340 L137 340 Z M236 523 C234 513 242 505 255 505 C270 505 284 515 287 527 L303 602 C305 612 297 620 284 620 C269 620 255 610 252 598 L236 523 Z M336 523 C334 513 342 505 355 505 C370 505 384 515 387 527 L403 602 C405 612 397 620 384 620 C369 620 355 610 352 598 L336 523 Z " />
<glyph glyph-name="igrave" unicode="&#xec;" horiz-adv-x="150" d="M50 -2 C47 -12 56 -20 69 -20 C84 -20 98 -10 100 2 L185 402 C188 412 179 420 166 420 C151 420 137 410 135 398 L50 -2 Z M163 511 C166 507 172 505 179 505 C194 505 209 515 212 527 C213 532 212 536 209 539 L150 614 C147 618 142 620 135 620 C120 620 104 610 102 599 C101 594 102 589 104 586 L163 511 Z " />
<glyph glyph-name="iacute" unicode="&#xed;" horiz-adv-x="150" d="M50 -2 C47 -12 56 -20 69 -20 C84 -20 98 -10 100 2 L185 402 C188 412 179 420 166 420 C151 420 137 410 135 398 L50 -2 Z M161 522 C159 512 167 505 181 505 C189 505 197 508 203 513 L294 588 C299 592 302 597 303 602 C305 613 297 620 283 620 C275 620 267 617 261 612 L170 537 C166 534 162 527 161 522 L161 522 Z " />
<glyph glyph-name="icircumflex" unicode="&#xee;" horiz-adv-x="150" d="M50 -2 C47 -12 56 -20 69 -20 C84 -20 98 -10 100 2 L185 402 C188 412 179 420 166 420 C151 420 137 410 135 398 L50 -2 Z M195 568 L239 511 C242 507 247 505 254 505 C269 505 284 515 287 527 C288 532 287 536 285 539 L226 614 C222 618 217 620 209 620 C200 620 192 617 186 612 L95 537 C92 534 87 527 86 522 C84 512 92 505 106 505 C114 505 122 508 128 513 L195 568 Z " />
<glyph glyph-name="idieresis" unicode="&#xef;" horiz-adv-x="150" d="M50 -2 C47 -12 56 -20 69 -20 C84 -20 98 -10 100 2 L185 402 C188 412 179 420 166 420 C151 420 137 410 135 398 L50 -2 Z M111 523 C109 513 117 505 130 505 C145 505 159 515 162 527 L178 602 C180 612 172 620 159 620 C144 620 130 610 127 598 L111 523 Z M211 523 C209 513 217 505 230 505 C245 505 259 515 262 527 L278 602 C280 612 272 620 259 620 C244 620 230 610 227 598 L211 523 Z " />
<glyph glyph-name="eth" unicode="&#xf0;" horiz-adv-x="400" d="M349 508 L366 487 C382 466 387 452 387 428 C387 402 382 384 378 367 L339 181 C334 157 331 133 322 108 C302 51 256 20 202 20 C151 20 124 47 124 99 C124 135 137 171 145 208 C149 230 152 254 159 276 C176 330 211 368 257 377 C273 380 291 380 291 380 C320 380 335 388 335 403 C335 415 325 420 302 420 C221 420 165 391 130 330 C120 312 112 293 109 277 L78 127 C76 115 75 103 75 93 C75 23 121 -20 195 -20 C282 -20 359 41 376 123 L434 398 C436 406 437 415 437 427 C437 464 426 495 408 511 L387 539 L445 586 C450 590 453 596 453 602 C453 612 443 620 430 620 C423 620 416 618 411 614 L361 572 L329 612 C326 617 319 620 311 620 C296 620 283 610 283 599 C283 594 285 591 287 588 L323 541 L259 489 C254 485 251 479 251 473 C251 463 261 455 274 455 C281 455 288 457 293 461 L349 508 Z " />
<glyph glyph-name="ntilde" unicode="&#xf1;" horiz-adv-x="400" d="M182 380 L279 380 C336 380 363 348 360 287 C358 251 345 208 337 168 L301 -2 C299 -12 307 -20 320 -20 C335 -20 349 -10 352 2 L410 277 C428 360 377 420 292 420 L167 420 C152 420 138 410 136 398 L51 -2 C49 -12 57 -20 70 -20 C85 -20 99 -10 102 2 L182 380 Z M188 531 C184 514 191 505 208 505 C247 505 231 555 264 555 C297 555 297 505 354 505 C397 505 439 534 446 569 C450 586 442 595 425 595 C386 595 403 545 370 545 C337 545 336 595 279 595 C236 595 195 566 188 531 L188 531 Z " />
<glyph glyph-name="ograve" unicode="&#xf2;" horiz-adv-x="400" d="M76 77 C84 13 124 -20 192 -20 C264 -20 319 18 360 82 C367 94 375 114 378 127 L410 277 C428 360 377 420 291 420 C222 420 168 381 128 318 C120 306 112 287 109 273 L77 123 C75 111 74 94 76 77 L76 77 Z M160 276 C182 346 220 380 276 380 C339 380 373 337 359 273 L327 124 C314 61 266 20 206 20 C153 20 123 52 126 108 C127 133 134 157 139 180 L160 276 Z M288 511 C291 507 297 505 304 505 C319 505 334 515 337 527 C338 532 337 536 334 539 L275 614 C272 618 267 620 260 620 C245 620 229 610 227 599 C226 594 227 589 229 586 L288 511 Z " />
<glyph glyph-name="oacute" unicode="&#xf3;" horiz-adv-x="400" d="M76 77 C84 13 124 -20 192 -20 C264 -20 319 18 360 82 C367 94 375 114 378 127 L410 277 C428 360 377 420 291 420 C222 420 168 381 128 318 C120 306 112 287 109 273 L77 123 C75 111 74 94 76 77 L76 77 Z M160 276 C182 346 220 380 276 380 C339 380 373 337 359 273 L327 124 C314 61 266 20 206 20 C153 20 123 52 126 108 C127 133 134 157 139 180 L160 276 Z M286 522 C284 512 292 505 306 505 C314 505 322 508 328 513 L419 588 C424 592 427 597 428 602 C430 613 422 620 408 620 C400 620 392 617 386 612 L295 537 C291 534 287 527 286 522 L286 522 Z " />
<glyph glyph-name="ocircumflex" unicode="&#xf4;" horiz-adv-x="400" d="M76 77 C84 13 124 -20 192 -20 C264 -20 319 18 360 82 C367 94 375 114 378 127 L410 277 C428 360 377 420 291 420 C222 420 168 381 128 318 C120 306 112 287 109 273 L77 123 C75 111 74 94 76 77 L76 77 Z M160 276 C182 346 220 380 276 380 C339 380 373 337 359 273 L327 124 C314 61 266 20 206 20 C153 20 123 52 126 108 C127 133 134 157 139 180 L160 276 Z M320 568 L364 511 C367 507 372 505 379 505 C394 505 409 515 412 527 C413 532 412 536 410 539 L351 614 C347 618 342 620 334 620 C325 620 317 617 311 612 L220 537 C217 534 212 527 211 522 C209 512 217 505 231 505 C239 505 247 508 253 513 L320 568 Z " />
<glyph glyph-name="otilde" unicode="&#xf5;" horiz-adv-x="400" d="M76 77 C84 13 124 -20 192 -20 C264 -20 319 18 360 82 C367 94 375 114 378 127 L410 277 C428 360 377 420 291 420 C222 420 168 381 128 318 C120 306 112 287 109 273 L77 123 C75 111 74 94 76 77 L76 77 Z M160 276 C182 346 220 380 276 380 C339 380 373 337 359 273 L327 124 C314 61 266 20 206 20 C153 20 123 52 126 108 C127 133 134 157 139 180 L160 276 Z M188 531 C184 514 191 505 208 505 C247 505 231 555 264 555 C297 555 297 505 354 505 C397 505 439 534 446 569 C450 586 442 595 425 595 C386 595 403 545 370 545 C337 545 336 595 279 595 C236 595 195 566 188 531 L188 531 Z " />
<glyph glyph-name="odieresis" unicode="&#xf6;" horiz-adv-x="400" d="M76 77 C84 13 124 -20 192 -20 C264 -20 319 18 360 82 C367 94 375 114 378 127 L410 277 C428 360 377 420 291 420 C222 420 168 381 128 318 C120 306 112 287 109 273 L77 123 C75 111 74 94 76 77 L76 77 Z M160 276 C182 346 220 380 276 380 C339 380 373 337 359 273 L327 124 C314 61 266 20 206 20 C153 20 123 52 126 108 C127 133 134 157 139 180 L160 276 Z M236 523 C234 513 242 505 255 505 C270 505 284 515 287 527 L303 602 C305 612 297 620 284 620 C269 620 255 610 252 598 L236 523 Z M336 523 C334 513 342 505 355 505 C370 505 384 515 387 527 L403 602 C405 612 397 620 384 620 C369 620 355 610 352 598 L336 523 Z " />
<glyph glyph-name="divide" unicode="&#xf7;" horiz-adv-x="350" d="M103 248 C101 238 109 230 122 230 L322 230 C337 230 351 240 354 252 C356 262 347 270 334 270 L134 270 C119 270 105 260 103 248 L103 248 Z M219 325 C219 313 229 305 243 305 C257 305 265 315 271 334 C276 349 285 391 285 400 C285 412 276 420 262 420 C248 420 240 411 233 391 C228 376 219 334 219 325 L219 325 Z M171 100 C171 88 181 80 195 80 C209 80 217 90 223 109 C228 124 237 166 237 175 C237 187 228 195 214 195 C200 195 192 186 185 166 C180 151 171 109 171 100 L171 100 Z " />
<glyph glyph-name="oslash" unicode="&#xf8;" horiz-adv-x="400" d="M76 77 C84 13 124 -20 192 -20 C264 -20 319 18 360 82 C367 94 375 114 378 127 L410 277 C428 360 377 420 291 420 C222 420 168 381 128 318 C120 306 112 287 109 273 L77 123 C75 111 74 94 76 77 L76 77 Z M160 276 C182 346 220 380 276 380 C339 380 373 337 359 273 L327 124 C314 61 266 20 206 20 C153 20 123 52 126 108 C127 133 134 157 139 180 L160 276 Z M63 -58 C61 -64 73 -70 85 -70 C95 -70 104 -65 113 -54 C121 -43 128 -28 135 -17 L188 69 C229 136 289 233 335 309 C376 378 420 449 422 458 C424 464 413 470 401 470 C390 470 381 465 373 454 C364 443 357 428 350 417 L297 331 C256 264 197 167 150 91 C109 22 65 -49 63 -58 L63 -58 Z " />
<glyph glyph-name="ugrave" unicode="&#xf9;" horiz-adv-x="400" d="M305 20 L208 20 C151 20 124 53 127 114 C129 150 142 192 150 232 L187 402 C189 412 180 420 167 420 C152 420 138 410 136 398 L77 123 C74 110 75 91 77 75 C84 12 125 -20 195 -20 L320 -20 C335 -20 349 -10 352 2 L437 402 C439 412 430 420 417 420 C402 420 388 410 386 398 L305 20 Z M288 511 C291 507 297 505 304 505 C319 505 334 515 337 527 C338 532 337 536 334 539 L275 614 C272 618 267 620 260 620 C245 620 229 610 227 599 C226 594 227 589 229 586 L288 511 Z " />
<glyph glyph-name="uacute" unicode="&#xfa;" horiz-adv-x="400" d="M305 20 L208 20 C151 20 124 53 127 114 C129 150 142 192 150 232 L187 402 C189 412 180 420 167 420 C152 420 138 410 136 398 L77 123 C74 110 75 91 77 75 C84 12 125 -20 195 -20 L320 -20 C335 -20 349 -10 352 2 L437 402 C439 412 430 420 417 420 C402 420 388 410 386 398 L305 20 Z M286 522 C284 512 292 505 306 505 C314 505 322 508 328 513 L419 588 C424 592 427 597 428 602 C430 613 422 620 408 620 C400 620 392 617 386 612 L295 537 C291 534 287 527 286 522 L286 522 Z " />
<glyph glyph-name="ucircumflex" unicode="&#xfb;" horiz-adv-x="400" d="M305 20 L208 20 C151 20 124 53 127 114 C129 150 142 192 150 232 L187 402 C189 412 180 420 167 420 C152 420 138 410 136 398 L77 123 C74 110 75 91 77 75 C84 12 125 -20 195 -20 L320 -20 C335 -20 349 -10 352 2 L437 402 C439 412 430 420 417 420 C402 420 388 410 386 398 L305 20 Z M320 568 L364 511 C367 507 372 505 379 505 C394 505 409 515 412 527 C413 532 412 536 410 539 L351 614 C347 618 342 620 334 620 C325 620 317 617 311 612 L220 537 C217 534 212 527 211 522 C209 512 217 505 231 505 C239 505 247 508 253 513 L320 568 Z " />
<glyph glyph-name="udieresis" unicode="&#xfc;" horiz-adv-x="400" d="M305 20 L208 20 C151 20 124 53 127 114 C129 150 142 192 150 232 L187 402 C189 412 180 420 167 420 C152 420 138 410 136 398 L77 123 C74 110 75 91 77 75 C84 12 125 -20 195 -20 L320 -20 C335 -20 349 -10 352 2 L437 402 C439 412 430 420 417 420 C402 420 388 410 386 398 L305 20 Z M236 523 C234 513 242 505 255 505 C270 505 284 515 287 527 L303 602 C305 612 297 620 284 620 C269 620 255 610 252 598 L236 523 Z M336 523 C334 513 342 505 355 505 C370 505 384 515 387 527 L403 602 C405 612 397 620 384 620 C369 620 355 610 352 598 L336 523 Z " />
<glyph glyph-name="yacute" unicode="&#xfd;" horiz-adv-x="350" d="M194 76 C181 224 162 400 159 412 C158 417 151 420 142 420 C130 420 113 413 112 407 C109 396 145 8 150 -7 C149 -8 150 -8 150 -9 L143 -24 C124 -62 104 -109 73 -146 C54 -169 36 -179 17 -180 C-1 -181 -15 -190 -18 -202 C-20 -214 -11 -220 9 -220 C60 -220 115 -176 152 -103 L408 397 C412 414 408 420 393 420 C379 420 367 413 362 403 L194 76 Z M261 522 C259 512 267 505 281 505 C289 505 297 508 303 513 L394 588 C399 592 402 597 403 602 C405 613 397 620 383 620 C375 620 367 617 361 612 L270 537 C266 534 262 527 261 522 L261 522 Z " />
<glyph glyph-name="thorn" unicode="&#xfe;" horiz-adv-x="450" d="M8 -198 C8 -213 14 -220 28 -220 C43 -220 54 -213 56 -202 L180 380 L332 380 C396 380 431 346 431 286 C431 213 381 144 315 126 C286 118 254 120 240 120 C212 120 196 112 196 98 C196 88 206 80 219 80 L269 80 C385 80 481 172 481 285 C481 369 427 420 337 420 L189 420 C199 465 228 592 228 605 C228 613 217 620 205 620 C191 620 180 610 176 590 C174 580 140 427 136 401 L8 -198 Z " />
<glyph glyph-name="ydieresis" unicode="&#xff;" horiz-adv-x="350" d="M194 76 C181 224 162 400 159 412 C158 417 151 420 142 420 C130 420 113 413 112 407 C109 396 145 8 150 -7 C149 -8 150 -8 150 -9 L143 -24 C124 -62 104 -109 73 -146 C54 -169 36 -179 17 -180 C-1 -181 -15 -190 -18 -202 C-20 -214 -11 -220 9 -220 C60 -220 115 -176 152 -103 L408 397 C412 414 408 420 393 420 C379 420 367 413 362 403 L194 76 Z M211 523 C209 513 217 505 230 505 C245 505 259 515 262 527 L278 602 C280 612 272 620 259 620 C244 620 230 610 227 598 L211 523 Z M311 523 C309 513 317 505 330 505 C345 505 359 515 362 527 L378 602 C380 612 372 620 359 620 C344 620 330 610 327 598 L311 523 Z " />
<glyph glyph-name="Amacron" unicode="&#x100;" horiz-adv-x="500" d="M140 80 L393 79 L400 -6 C400 -14 409 -20 419 -20 C430 -20 447 -12 449 -7 C450 2 420 367 404 580 C402 608 396 620 383 620 C370 620 357 608 345 584 C200 297 50 -2 48 -10 C47 -14 59 -20 69 -20 C81 -20 93 -13 98 -3 L140 80 Z M161 120 L358 513 L389 119 L161 120 Z M304 723 C301 713 310 705 323 705 L473 705 C488 705 502 715 504 727 C506 737 498 745 485 745 L335 745 C320 745 306 735 304 723 L304 723 Z " />
<glyph glyph-name="amacron" unicode="&#x101;" horiz-adv-x="400" d="M380 380 L299 -2 C297 -12 305 -20 318 -20 C333 -20 347 -10 350 2 L435 402 C437 412 429 420 416 420 L291 420 C222 420 162 385 127 320 C117 303 110 286 108 273 L76 123 C72 105 73 80 77 60 C91 5 127 -20 198 -20 C231 -20 247 -14 250 1 C253 15 240 20 205 20 C162 20 138 38 128 77 C124 94 123 111 127 127 L158 277 C172 339 219 380 278 380 L380 380 Z M242 548 C239 538 248 530 261 530 L411 530 C426 530 440 540 442 552 C444 562 436 570 423 570 L273 570 C258 570 244 560 242 548 L242 548 Z " />
<glyph glyph-name="Abreve" unicode="&#x102;" horiz-adv-x="500" d="M140 80 L393 79 L400 -6 C400 -14 409 -20 419 -20 C430 -20 447 -12 449 -7 C450 2 420 367 404 580 C402 608 396 620 383 620 C370 620 357 608 345 584 C200 297 50 -2 48 -10 C47 -14 59 -20 69 -20 C81 -20 93 -13 98 -3 L140 80 Z M161 120 L358 513 L389 119 L161 120 Z M312 761 C302 716 336 680 389 680 C446 680 503 719 512 765 C517 785 511 795 495 795 C480 795 467 783 458 760 C448 733 430 720 404 720 C380 720 364 735 365 756 C365 783 360 795 347 795 C330 795 316 782 312 761 L312 761 Z " />
<glyph glyph-name="abreve" unicode="&#x103;" horiz-adv-x="400" d="M380 380 L299 -2 C297 -12 305 -20 318 -20 C333 -20 347 -10 350 2 L435 402 C437 412 429 420 416 420 L291 420 C222 420 162 385 127 320 C117 303 110 286 108 273 L76 123 C72 105 73 80 77 60 C91 5 127 -20 198 -20 C231 -20 247 -14 250 1 C253 15 240 20 205 20 C162 20 138 38 128 77 C124 94 123 111 127 127 L158 277 C172 339 219 380 278 380 L380 380 Z M225 586 C215 541 249 505 302 505 C359 505 416 544 425 590 C430 610 424 620 408 620 C393 620 380 608 371 585 C361 558 343 545 317 545 C293 545 277 560 278 581 C278 608 273 620 260 620 C243 620 229 607 225 586 L225 586 Z " />
<glyph glyph-name="Aogonek" unicode="&#x104;" horiz-adv-x="500" d="M140 80 L393 79 L400 -6 C400 -14 409 -20 419 -20 C430 -20 447 -12 449 -7 C450 2 420 367 404 580 C402 608 396 620 383 620 C370 620 357 608 345 584 C200 297 50 -2 48 -10 C47 -14 59 -20 69 -20 C81 -20 93 -13 98 -3 L140 80 Z M161 120 L358 513 L389 119 L161 120 Z M328 -102 C320 -142 344 -170 387 -170 C429 -170 470 -141 477 -106 C481 -89 474 -80 457 -80 C418 -80 434 -130 400 -130 C383 -130 375 -117 379 -97 L390 -49 C399 -4 443 -32 450 -1 C453 13 444 20 425 20 C386 20 347 -12 339 -52 L328 -102 Z " />
<glyph glyph-name="aogonek" unicode="&#x105;" horiz-adv-x="375" d="M381 380 L300 -2 C298 -12 306 -20 319 -20 C334 -20 348 -10 351 2 L436 402 C438 412 430 420 417 420 L292 420 C223 420 163 385 128 320 C118 303 111 286 109 273 L77 123 C73 105 74 80 78 60 C92 5 128 -20 199 -20 C232 -20 248 -14 251 1 C254 15 241 20 206 20 C163 20 139 38 129 77 C125 94 124 111 128 127 L159 277 C173 339 220 380 279 380 L381 380 Z M103 -102 C95 -142 119 -170 162 -170 C204 -170 245 -141 252 -106 C256 -89 249 -80 232 -80 C193 -80 209 -130 175 -130 C158 -130 150 -117 154 -97 L165 -49 C174 -4 218 -32 225 -1 C228 13 219 20 200 20 C161 20 122 -12 114 -52 L103 -102 Z " />
<glyph glyph-name="Cacute" unicode="&#x106;" horiz-adv-x="500" d="M85 108 C96 24 149 -20 244 -20 C340 -20 415 25 461 110 C473 131 483 156 486 169 C489 185 482 195 466 195 C453 195 443 186 435 169 C429 155 428 141 415 116 C383 55 325 20 254 20 C184 20 146 56 136 124 C134 142 134 161 138 177 L191 427 C194 443 201 461 212 481 C249 547 300 580 366 580 C450 580 505 525 494 448 C492 435 490 428 491 421 C491 411 496 405 508 405 C525 405 539 417 542 435 C545 448 545 472 543 492 C531 576 479 620 384 620 C288 620 212 575 166 490 C153 467 144 443 140 423 L87 173 C83 153 82 130 85 108 L85 108 Z M373 697 C371 687 379 680 393 680 C401 680 409 683 415 688 L506 763 C511 767 514 772 515 777 C517 788 509 795 495 795 C487 795 479 792 473 787 L382 712 C378 709 374 702 373 697 L373 697 Z " />
<glyph glyph-name="cacute" unicode="&#x107;" horiz-adv-x="400" d="M197 -20 C265 -20 319 19 360 82 C367 93 375 112 377 121 C380 136 373 145 359 145 C344 145 331 135 326 120 C323 113 321 102 314 88 C293 45 255 20 209 20 C149 20 115 65 128 127 L160 277 C173 339 221 380 281 380 C329 380 358 354 361 309 C362 294 359 283 359 276 C358 262 365 255 377 255 C395 255 408 270 414 295 C429 365 374 420 291 420 C222 420 168 381 128 318 C120 306 112 287 109 273 L77 123 C60 40 110 -20 197 -20 L197 -20 Z M286 522 C284 512 292 505 306 505 C314 505 322 508 328 513 L419 588 C424 592 427 597 428 602 C430 613 422 620 408 620 C400 620 392 617 386 612 L295 537 C291 534 287 527 286 522 L286 522 Z " />
<glyph glyph-name="Ccircumflex" unicode="&#x108;" horiz-adv-x="500" d="M85 108 C96 24 149 -20 244 -20 C340 -20 415 25 461 110 C473 131 483 156 486 169 C489 185 482 195 466 195 C453 195 443 186 435 169 C429 155 428 141 415 116 C383 55 325 20 254 20 C184 20 146 56 136 124 C134 142 134 161 138 177 L191 427 C194 443 201 461 212 481 C249 547 300 580 366 580 C450 580 505 525 494 448 C492 435 490 428 491 421 C491 411 496 405 508 405 C525 405 539 417 542 435 C545 448 545 472 543 492 C531 576 479 620 384 620 C288 620 212 575 166 490 C153 467 144 443 140 423 L87 173 C83 153 82 130 85 108 L85 108 Z M407 743 L451 686 C454 682 459 680 466 680 C481 680 496 690 499 702 C500 707 499 711 497 714 L438 789 C434 793 429 795 421 795 C412 795 404 792 398 787 L307 712 C304 709 299 702 298 697 C296 687 304 680 318 680 C326 680 334 683 340 688 L407 743 Z " />
<glyph glyph-name="ccircumflex" unicode="&#x109;" horiz-adv-x="400" d="M197 -20 C265 -20 319 19 360 82 C367 93 375 112 377 121 C380 136 373 145 359 145 C344 145 331 135 326 120 C323 113 321 102 314 88 C293 45 255 20 209 20 C149 20 115 65 128 127 L160 277 C173 339 221 380 281 380 C329 380 358 354 361 309 C362 294 359 283 359 276 C358 262 365 255 377 255 C395 255 408 270 414 295 C429 365 374 420 291 420 C222 420 168 381 128 318 C120 306 112 287 109 273 L77 123 C60 40 110 -20 197 -20 L197 -20 Z M320 568 L364 511 C367 507 372 505 379 505 C394 505 409 515 412 527 C413 532 412 536 410 539 L351 614 C347 618 342 620 334 620 C325 620 317 617 311 612 L220 537 C217 534 212 527 211 522 C209 512 217 505 231 505 C239 505 247 508 253 513 L320 568 Z " />
<glyph glyph-name="Cdotaccent" unicode="&#x10a;" horiz-adv-x="500" d="M85 108 C96 24 149 -20 244 -20 C340 -20 415 25 461 110 C473 131 483 156 486 169 C489 185 482 195 466 195 C453 195 443 186 435 169 C429 155 428 141 415 116 C383 55 325 20 254 20 C184 20 146 56 136 124 C134 142 134 161 138 177 L191 427 C194 443 201 461 212 481 C249 547 300 580 366 580 C450 580 505 525 494 448 C492 435 490 428 491 421 C491 411 496 405 508 405 C525 405 539 417 542 435 C545 448 545 472 543 492 C531 576 479 620 384 620 C288 620 212 575 166 490 C153 467 144 443 140 423 L87 173 C83 153 82 130 85 108 L85 108 Z M373 698 C371 688 379 680 392 680 C407 680 421 690 424 702 L440 777 C442 787 434 795 421 795 C406 795 392 785 389 773 L373 698 Z " />
<glyph glyph-name="cdotaccent" unicode="&#x10b;" horiz-adv-x="400" d="M197 -20 C265 -20 319 19 360 82 C367 93 375 112 377 121 C380 136 373 145 359 145 C344 145 331 135 326 120 C323 113 321 102 314 88 C293 45 255 20 209 20 C149 20 115 65 128 127 L160 277 C173 339 221 380 281 380 C329 380 358 354 361 309 C362 294 359 283 359 276 C358 262 365 255 377 255 C395 255 408 270 414 295 C429 365 374 420 291 420 C222 420 168 381 128 318 C120 306 112 287 109 273 L77 123 C60 40 110 -20 197 -20 L197 -20 Z M286 523 C284 513 292 505 305 505 C320 505 334 515 337 527 L353 602 C355 612 347 620 334 620 C319 620 305 610 302 598 L286 523 Z " />
<glyph glyph-name="Ccaron" unicode="&#x10c;" horiz-adv-x="500" d="M85 108 C96 24 149 -20 244 -20 C340 -20 415 25 461 110 C473 131 483 156 486 169 C489 185 482 195 466 195 C453 195 443 186 435 169 C429 155 428 141 415 116 C383 55 325 20 254 20 C184 20 146 56 136 124 C134 142 134 161 138 177 L191 427 C194 443 201 461 212 481 C249 547 300 580 366 580 C450 580 505 525 494 448 C492 435 490 428 491 421 C491 411 496 405 508 405 C525 405 539 417 542 435 C545 448 545 472 543 492 C531 576 479 620 384 620 C288 620 212 575 166 490 C153 467 144 443 140 423 L87 173 C83 153 82 130 85 108 L85 108 Z M406 732 L363 789 C359 793 354 795 347 795 C332 795 317 785 314 774 C313 769 314 764 317 761 L376 686 C379 682 384 680 392 680 C401 680 409 683 415 688 L506 763 C511 767 514 772 515 777 C517 788 509 795 495 795 C487 795 479 792 473 787 L406 732 Z " />
<glyph glyph-name="ccaron" unicode="&#x10d;" horiz-adv-x="400" d="M197 -20 C265 -20 319 19 360 82 C367 93 375 112 377 121 C380 136 373 145 359 145 C344 145 331 135 326 120 C323 113 321 102 314 88 C293 45 255 20 209 20 C149 20 115 65 128 127 L160 277 C173 339 221 380 281 380 C329 380 358 354 361 309 C362 294 359 283 359 276 C358 262 365 255 377 255 C395 255 408 270 414 295 C429 365 374 420 291 420 C222 420 168 381 128 318 C120 306 112 287 109 273 L77 123 C60 40 110 -20 197 -20 L197 -20 Z M319 557 L276 614 C272 618 267 620 260 620 C245 620 230 610 227 599 C226 594 227 589 230 586 L289 511 C292 507 297 505 305 505 C314 505 322 508 328 513 L419 588 C424 592 427 597 428 602 C430 613 422 620 408 620 C400 620 392 617 386 612 L319 557 Z " />
<glyph glyph-name="Dcaron" unicode="&#x10e;" horiz-adv-x="500" d="M223 580 L370 580 C442 580 481 546 491 476 C493 458 493 439 490 423 L432 149 C428 130 416 106 400 86 C348 17 278 20 243 20 C198 20 178 13 175 -2 C172 -12 181 -20 194 -20 L243 -20 C333 -20 410 21 455 90 C468 110 478 133 482 152 L541 427 C545 447 546 470 543 493 C532 577 479 620 384 620 L209 620 C194 620 180 610 177 598 L50 -2 C47 -12 56 -20 69 -20 C84 -20 98 -10 100 2 L223 580 Z M406 732 L363 789 C359 793 354 795 347 795 C332 795 317 785 314 774 C313 769 314 764 317 761 L376 686 C379 682 384 680 392 680 C401 680 409 683 415 688 L506 763 C511 767 514 772 515 777 C517 788 509 795 495 795 C487 795 479 792 473 787 L406 732 Z " />
<glyph glyph-name="dcaron" unicode="&#x10f;" horiz-adv-x="500" d="M382 381 L301 -1 C299 -11 307 -19 320 -19 C335 -19 349 -9 352 3 L479 603 C481 613 473 621 460 621 C445 621 431 611 428 599 L390 421 L292 421 C223 421 166 386 130 323 C120 306 112 287 109 273 L83 149 C78 128 78 99 82 74 C92 8 127 -19 201 -19 C233 -19 248 -12 252 3 C256 24 230 21 212 21 C199 21 187 23 177 26 C139 38 121 94 133 153 L160 277 C163 293 172 311 182 327 C221 386 266 381 320 381 L382 381 Z M569 580 C548 534 525 489 512 460 C499 430 488 411 485 400 C483 388 491 380 505 380 C517 380 528 387 534 398 C548 423 627 593 629 606 C631 613 621 620 609 620 L559 620 C544 620 530 610 527 597 C523 576 554 580 569 580 L569 580 Z " />
<glyph glyph-name="Dcroat" unicode="&#x110;" horiz-adv-x="525" d="M248 580 L395 580 C467 580 506 546 516 476 C518 458 518 439 515 423 L457 149 C453 130 441 106 425 86 C373 17 303 20 268 20 C223 20 203 13 200 -2 C197 -12 206 -20 219 -20 L268 -20 C358 -20 435 21 480 90 C493 110 503 133 507 152 L566 427 C570 447 571 470 568 493 C557 577 504 620 409 620 L234 620 C219 620 205 610 202 598 L75 -2 C72 -12 81 -20 94 -20 C109 -20 123 -10 125 2 L248 580 Z M110 398 C108 388 116 380 129 380 L329 380 C344 380 358 390 361 402 C363 412 354 420 341 420 L141 420 C126 420 112 410 110 398 L110 398 Z " />
<glyph glyph-name="dcroat" unicode="&#x111;" horiz-adv-x="400" d="M382 381 L301 -1 C299 -11 307 -19 320 -19 C335 -19 349 -9 352 3 L479 603 C481 613 473 621 460 621 C445 621 431 611 428 599 L390 421 L292 421 C223 421 166 386 130 323 C120 306 112 287 109 273 L83 149 C78 128 78 99 82 74 C92 8 127 -19 201 -19 C233 -19 248 -12 252 3 C256 24 230 21 212 21 C199 21 187 23 177 26 C139 38 121 94 133 153 L160 277 C163 293 172 311 182 327 C221 386 266 381 320 381 L382 381 Z M317 548 C314 538 323 530 336 530 L486 530 C501 530 515 540 517 552 C519 562 511 570 498 570 L348 570 C333 570 319 560 317 548 L317 548 Z " />
<glyph glyph-name="Emacron" unicode="&#x112;" horiz-adv-x="450" d="M181 380 L329 380 C344 380 358 390 360 402 C363 412 354 420 341 420 L189 420 L223 580 L496 580 C511 580 525 590 528 602 C530 612 522 620 509 620 L209 620 C194 620 180 610 177 598 L66 73 C54 19 87 -20 144 -20 L369 -20 C384 -20 398 -10 400 2 C403 12 394 20 381 20 C314 20 246 20 246 20 C128 20 106 30 117 78 L181 380 Z M279 723 C276 713 285 705 298 705 L448 705 C463 705 477 715 479 727 C481 737 473 745 460 745 L310 745 C295 745 281 735 279 723 L279 723 Z " />
<glyph glyph-name="emacron" unicode="&#x113;" horiz-adv-x="400" d="M137 340 C124 320 113 295 109 277 L77 127 C74 114 74 97 76 80 C84 15 129 -20 198 -20 L248 -20 C261 -20 272 -12 275 -2 C278 13 263 20 230 20 C196 20 144 12 127 75 C123 92 123 108 126 123 L158 273 C173 342 226 380 307 380 C340 380 356 368 363 339 C366 326 366 312 363 298 C353 251 314 220 265 220 C241 220 198 228 193 203 C190 190 200 180 215 180 L265 180 C337 180 399 229 414 300 C430 375 382 420 288 420 C220 420 173 393 137 340 L137 340 Z M217 548 C214 538 223 530 236 530 L386 530 C401 530 415 540 417 552 C419 562 411 570 398 570 L248 570 C233 570 219 560 217 548 L217 548 Z " />
<glyph glyph-name="Ebreve" unicode="&#x114;" horiz-adv-x="450" d="M181 380 L329 380 C344 380 358 390 360 402 C363 412 354 420 341 420 L189 420 L223 580 L496 580 C511 580 525 590 528 602 C530 612 522 620 509 620 L209 620 C194 620 180 610 177 598 L66 73 C54 19 87 -20 144 -20 L369 -20 C384 -20 398 -10 400 2 C403 12 394 20 381 20 C314 20 246 20 246 20 C128 20 106 30 117 78 L181 380 Z M287 761 C277 716 311 680 364 680 C421 680 478 719 487 765 C492 785 486 795 470 795 C455 795 442 783 433 760 C423 733 405 720 379 720 C355 720 339 735 340 756 C340 783 335 795 322 795 C305 795 291 782 287 761 L287 761 Z " />
<glyph glyph-name="ebreve" unicode="&#x115;" horiz-adv-x="400" d="M137 340 C124 320 113 295 109 277 L77 127 C74 114 74 97 76 80 C84 15 129 -20 198 -20 L248 -20 C261 -20 272 -12 275 -2 C278 13 263 20 230 20 C196 20 144 12 127 75 C123 92 123 108 126 123 L158 273 C173 342 226 380 307 380 C340 380 356 368 363 339 C366 326 366 312 363 298 C353 251 314 220 265 220 C241 220 198 228 193 203 C190 190 200 180 215 180 L265 180 C337 180 399 229 414 300 C430 375 382 420 288 420 C220 420 173 393 137 340 L137 340 Z M225 586 C215 541 249 505 302 505 C359 505 416 544 425 590 C430 610 424 620 408 620 C393 620 380 608 371 585 C361 558 343 545 317 545 C293 545 277 560 278 581 C278 608 273 620 260 620 C243 620 229 607 225 586 L225 586 Z " />
<glyph glyph-name="Edotaccent" unicode="&#x116;" horiz-adv-x="450" d="M181 380 L329 380 C344 380 358 390 360 402 C363 412 354 420 341 420 L189 420 L223 580 L496 580 C511 580 525 590 528 602 C530 612 522 620 509 620 L209 620 C194 620 180 610 177 598 L66 73 C54 19 87 -20 144 -20 L369 -20 C384 -20 398 -10 400 2 C403 12 394 20 381 20 C314 20 246 20 246 20 C128 20 106 30 117 78 L181 380 Z M348 698 C346 688 354 680 367 680 C382 680 396 690 399 702 L415 777 C417 787 409 795 396 795 C381 795 367 785 364 773 L348 698 Z " />
<glyph glyph-name="edotaccent" unicode="&#x117;" horiz-adv-x="400" d="M137 340 C124 320 113 295 109 277 L77 127 C74 114 74 97 76 80 C84 15 129 -20 198 -20 L248 -20 C261 -20 272 -12 275 -2 C278 13 263 20 230 20 C196 20 144 12 127 75 C123 92 123 108 126 123 L158 273 C173 342 226 380 307 380 C340 380 356 368 363 339 C366 326 366 312 363 298 C353 251 314 220 265 220 C241 220 198 228 193 203 C190 190 200 180 215 180 L265 180 C337 180 399 229 414 300 C430 375 382 420 288 420 C220 420 173 393 137 340 L137 340 Z M286 523 C284 513 292 505 305 505 C320 505 334 515 337 527 L353 602 C355 612 347 620 334 620 C319 620 305 610 302 598 L286 523 Z " />
<glyph glyph-name="Eogonek" unicode="&#x118;" horiz-adv-x="450" d="M181 380 L329 380 C344 380 358 390 360 402 C363 412 354 420 341 420 L189 420 L223 580 L496 580 C511 580 525 590 528 602 C530 612 522 620 509 620 L209 620 C194 620 180 610 177 598 L66 73 C54 19 87 -20 144 -20 L369 -20 C384 -20 398 -10 400 2 C403 12 394 20 381 20 C314 20 246 20 246 20 C128 20 106 30 117 78 L181 380 Z M216 -102 C208 -142 232 -170 275 -170 C317 -170 358 -141 365 -106 C369 -89 362 -80 345 -80 C306 -80 322 -130 288 -130 C271 -130 263 -117 267 -97 L278 -49 C287 -4 331 -32 338 -1 C341 13 332 20 313 20 C274 20 235 -12 227 -52 L216 -102 Z " />
<glyph glyph-name="eogonek" unicode="&#x119;" horiz-adv-x="400" d="M137 340 C124 320 113 295 109 277 L77 127 C74 114 74 97 76 80 C84 15 129 -20 198 -20 L248 -20 C261 -20 272 -12 275 -2 C278 13 263 20 230 20 C196 20 144 12 127 75 C123 92 123 108 126 123 L158 273 C173 342 226 380 307 380 C340 380 356 368 363 339 C366 326 366 312 363 298 C353 251 314 220 265 220 C241 220 198 228 193 203 C190 190 200 180 215 180 L265 180 C337 180 399 229 414 300 C430 375 382 420 288 420 C220 420 173 393 137 340 L137 340 Z M153 -102 C145 -142 169 -170 212 -170 C254 -170 295 -141 302 -106 C306 -89 299 -80 282 -80 C243 -80 259 -130 225 -130 C208 -130 200 -117 204 -97 L215 -49 C224 -4 268 -32 275 -1 C278 13 269 20 250 20 C211 20 172 -12 164 -52 L153 -102 Z " />
<glyph glyph-name="Ecaron" unicode="&#x11a;" horiz-adv-x="450" d="M181 380 L329 380 C344 380 358 390 360 402 C363 412 354 420 341 420 L189 420 L223 580 L496 580 C511 580 525 590 528 602 C530 612 522 620 509 620 L209 620 C194 620 180 610 177 598 L66 73 C54 19 87 -20 144 -20 L369 -20 C384 -20 398 -10 400 2 C403 12 394 20 381 20 C314 20 246 20 246 20 C128 20 106 30 117 78 L181 380 Z M381 732 L338 789 C334 793 329 795 322 795 C307 795 292 785 289 774 C288 769 289 764 292 761 L351 686 C354 682 359 680 367 680 C376 680 384 683 390 688 L481 763 C486 767 489 772 490 777 C492 788 484 795 470 795 C462 795 454 792 448 787 L381 732 Z " />
<glyph glyph-name="ecaron" unicode="&#x11b;" horiz-adv-x="400" d="M137 340 C124 320 113 295 109 277 L77 127 C74 114 74 97 76 80 C84 15 129 -20 198 -20 L248 -20 C261 -20 272 -12 275 -2 C278 13 263 20 230 20 C196 20 144 12 127 75 C123 92 123 108 126 123 L158 273 C173 342 226 380 307 380 C340 380 356 368 363 339 C366 326 366 312 363 298 C353 251 314 220 265 220 C241 220 198 228 193 203 C190 190 200 180 215 180 L265 180 C337 180 399 229 414 300 C430 375 382 420 288 420 C220 420 173 393 137 340 L137 340 Z M319 557 L276 614 C272 618 267 620 260 620 C245 620 230 610 227 599 C226 594 227 589 230 586 L289 511 C292 507 297 505 305 505 C314 505 322 508 328 513 L419 588 C424 592 427 597 428 602 C430 613 422 620 408 620 C400 620 392 617 386 612 L319 557 Z " />
<glyph glyph-name="Gcircumflex" unicode="&#x11c;" horiz-adv-x="500" d="M481 380 L437 174 C434 158 426 139 416 121 C378 52 326 19 256 19 C184 19 146 53 136 124 C134 142 134 161 138 177 L191 427 C197 455 214 489 235 516 C273 566 311 580 404 580 C435 580 466 580 466 580 C505 580 525 587 528 602 C530 613 522 618 502 620 C480 622 434 621 414 621 C304 621 232 587 181 514 C161 485 146 451 140 423 L87 173 C82 152 82 128 85 105 C97 22 149 -21 243 -21 C339 -21 414 24 461 110 C474 133 483 157 488 177 L535 402 C538 412 529 420 516 420 L341 420 C326 420 312 410 310 398 C307 388 316 380 329 380 L481 380 Z M407 743 L451 686 C454 682 459 680 466 680 C481 680 496 690 499 702 C500 707 499 711 497 714 L438 789 C434 793 429 795 421 795 C412 795 404 792 398 787 L307 712 C304 709 299 702 298 697 C296 687 304 680 318 680 C326 680 334 683 340 688 L407 743 Z " />
<glyph glyph-name="gcircumflex" unicode="&#x11d;" horiz-adv-x="413" d="M381 380 L300 -2 C300 -4 300 -6 301 -8 C297 -26 293 -43 293 -43 C285 -85 275 -109 260 -131 C208 -204 142 -160 134 -198 C131 -212 140 -219 164 -219 C223 -219 283 -181 317 -119 C327 -102 334 -85 336 -72 L437 403 C439 413 431 421 418 421 C416 421 414 421 411 420 L292 420 C223 420 163 385 128 320 C118 303 111 286 109 273 L77 123 C73 105 74 80 78 59 C90 3 128 -20 202 -20 C233 -20 249 -14 252 1 C255 15 242 20 203 20 C162 20 139 39 129 77 C125 94 124 111 128 127 L159 277 C173 339 220 380 279 380 L381 380 Z M333 568 L377 511 C380 507 385 505 392 505 C407 505 422 515 425 527 C426 532 425 536 423 539 L364 614 C360 618 355 620 347 620 C338 620 330 617 324 612 L233 537 C230 534 225 527 224 522 C222 512 230 505 244 505 C252 505 260 508 266 513 L333 568 Z " />
<glyph glyph-name="Gbreve" unicode="&#x11e;" horiz-adv-x="500" d="M481 380 L437 174 C434 158 426 139 416 121 C378 52 326 19 256 19 C184 19 146 53 136 124 C134 142 134 161 138 177 L191 427 C197 455 214 489 235 516 C273 566 311 580 404 580 C435 580 466 580 466 580 C505 580 525 587 528 602 C530 613 522 618 502 620 C480 622 434 621 414 621 C304 621 232 587 181 514 C161 485 146 451 140 423 L87 173 C82 152 82 128 85 105 C97 22 149 -21 243 -21 C339 -21 414 24 461 110 C474 133 483 157 488 177 L535 402 C538 412 529 420 516 420 L341 420 C326 420 312 410 310 398 C307 388 316 380 329 380 L481 380 Z M312 761 C302 716 336 680 389 680 C446 680 503 719 512 765 C517 785 511 795 495 795 C480 795 467 783 458 760 C448 733 430 720 404 720 C380 720 364 735 365 756 C365 783 360 795 347 795 C330 795 316 782 312 761 L312 761 Z " />
<glyph glyph-name="gbreve" unicode="&#x11f;" horiz-adv-x="413" d="M381 380 L300 -2 C300 -4 300 -6 301 -8 C297 -26 293 -43 293 -43 C285 -85 275 -109 260 -131 C208 -204 142 -160 134 -198 C131 -212 140 -219 164 -219 C223 -219 283 -181 317 -119 C327 -102 334 -85 336 -72 L437 403 C439 413 431 421 418 421 C416 421 414 421 411 420 L292 420 C223 420 163 385 128 320 C118 303 111 286 109 273 L77 123 C73 105 74 80 78 59 C90 3 128 -20 202 -20 C233 -20 249 -14 252 1 C255 15 242 20 203 20 C162 20 139 39 129 77 C125 94 124 111 128 127 L159 277 C173 339 220 380 279 380 L381 380 Z M238 586 C228 541 262 505 315 505 C372 505 429 544 438 590 C443 610 437 620 421 620 C406 620 393 608 384 585 C374 558 356 545 330 545 C306 545 290 560 291 581 C291 608 286 620 273 620 C256 620 242 607 238 586 L238 586 Z " />
<glyph glyph-name="Gdotaccent" unicode="&#x120;" horiz-adv-x="500" d="M481 380 L437 174 C434 158 426 139 416 121 C378 52 326 19 256 19 C184 19 146 53 136 124 C134 142 134 161 138 177 L191 427 C197 455 214 489 235 516 C273 566 311 580 404 580 C435 580 466 580 466 580 C505 580 525 587 528 602 C530 613 522 618 502 620 C480 622 434 621 414 621 C304 621 232 587 181 514 C161 485 146 451 140 423 L87 173 C82 152 82 128 85 105 C97 22 149 -21 243 -21 C339 -21 414 24 461 110 C474 133 483 157 488 177 L535 402 C538 412 529 420 516 420 L341 420 C326 420 312 410 310 398 C307 388 316 380 329 380 L481 380 Z M373 698 C371 688 379 680 392 680 C407 680 421 690 424 702 L440 777 C442 787 434 795 421 795 C406 795 392 785 389 773 L373 698 Z " />
<glyph glyph-name="gdotaccent" unicode="&#x121;" horiz-adv-x="413" d="M381 380 L300 -2 C300 -4 300 -6 301 -8 C297 -26 293 -43 293 -43 C285 -85 275 -109 260 -131 C208 -204 142 -160 134 -198 C131 -212 140 -219 164 -219 C223 -219 283 -181 317 -119 C327 -102 334 -85 336 -72 L437 403 C439 413 431 421 418 421 C416 421 414 421 411 420 L292 420 C223 420 163 385 128 320 C118 303 111 286 109 273 L77 123 C73 105 74 80 78 59 C90 3 128 -20 202 -20 C233 -20 249 -14 252 1 C255 15 242 20 203 20 C162 20 139 39 129 77 C125 94 124 111 128 127 L159 277 C173 339 220 380 279 380 L381 380 Z M299 523 C297 513 305 505 318 505 C333 505 347 515 350 527 L366 602 C368 612 360 620 347 620 C332 620 318 610 315 598 L299 523 Z " />
<glyph glyph-name="uni0122" unicode="&#x122;" horiz-adv-x="500" d="M481 380 L437 174 C434 158 426 139 416 121 C378 52 326 19 256 19 C184 19 146 53 136 124 C134 142 134 161 138 177 L191 427 C197 455 214 489 235 516 C273 566 311 580 404 580 C435 580 466 580 466 580 C505 580 525 587 528 602 C530 613 522 618 502 620 C480 622 434 621 414 621 C304 621 232 587 181 514 C161 485 146 451 140 423 L87 173 C82 152 82 128 85 105 C97 22 149 -21 243 -21 C339 -21 414 24 461 110 C474 133 483 157 488 177 L535 402 C538 412 529 420 516 420 L341 420 C326 420 312 410 310 398 C307 388 316 380 329 380 L481 380 Z M242 -20 C221 -66 198 -111 185 -140 C172 -170 161 -189 158 -200 C156 -212 164 -220 178 -220 C190 -220 201 -213 207 -202 C221 -177 300 -7 302 6 C304 13 294 20 282 20 L232 20 C217 20 203 10 200 -3 C196 -24 227 -20 242 -20 L242 -20 Z " />
<glyph glyph-name="uni0123" unicode="&#x123;" horiz-adv-x="413" d="M381 380 L300 -2 C300 -4 300 -6 301 -8 C297 -26 293 -43 293 -43 C285 -85 275 -109 260 -131 C208 -204 142 -160 134 -198 C131 -212 140 -219 164 -219 C223 -219 283 -181 317 -119 C327 -102 334 -85 336 -72 L437 403 C439 413 431 421 418 421 C416 421 414 421 411 420 L292 420 C223 420 163 385 128 320 C118 303 111 286 109 273 L77 123 C73 105 74 80 78 59 C90 3 128 -20 202 -20 C233 -20 249 -14 252 1 C255 15 242 20 203 20 C162 20 139 39 129 77 C125 94 124 111 128 127 L159 277 C173 339 220 380 279 380 L381 380 Z M289 626 L288 623 C286 613 294 605 307 605 L357 605 C371 605 387 616 390 629 C394 650 361 645 346 645 L395 774 L396 777 C398 787 390 795 377 795 C363 795 350 787 346 776 L289 626 Z " />
<glyph glyph-name="Hcircumflex" unicode="&#x124;" horiz-adv-x="500" d="M181 380 L481 380 L400 -2 C397 -12 406 -20 419 -20 C434 -20 448 -10 450 2 L578 602 C580 612 572 620 559 620 C544 620 530 610 527 598 L489 420 L189 420 L228 602 C230 612 222 620 209 620 C194 620 180 610 177 598 L50 -2 C47 -12 56 -20 69 -20 C84 -20 98 -10 100 2 L181 380 Z M407 743 L451 686 C454 682 459 680 466 680 C481 680 496 690 499 702 C500 707 499 711 497 714 L438 789 C434 793 429 795 421 795 C412 795 404 792 398 787 L307 712 C304 709 299 702 298 697 C296 687 304 680 318 680 C326 680 334 683 340 688 L407 743 Z " />
<glyph glyph-name="hcircumflex" unicode="&#x125;" horiz-adv-x="400" d="M182 380 C198 380 215 381 234 381 C272 381 308 377 326 370 C388 345 354 249 340 185 L301 -2 C299 -12 307 -20 320 -20 C335 -20 349 -10 352 2 L410 277 C428 360 377 420 292 420 L190 420 L229 602 C231 612 223 620 210 620 C195 620 181 610 178 598 L51 -2 C49 -12 57 -20 70 -20 C85 -20 99 -10 102 2 L182 380 Z M352 718 L396 661 C399 657 404 655 411 655 C426 655 441 665 444 677 C445 682 444 686 442 689 L383 764 C379 768 374 770 366 770 C357 770 349 767 343 762 L252 687 C249 684 244 677 243 672 C241 662 249 655 263 655 C271 655 279 658 285 663 L352 718 Z " />
<glyph glyph-name="Hbar" unicode="&#x126;" horiz-adv-x="500" d="M181 380 L481 380 L400 -2 C397 -12 406 -20 419 -20 C434 -20 448 -10 450 2 L578 602 C580 612 572 620 559 620 C544 620 530 610 527 598 L489 420 L189 420 L228 602 C230 612 222 620 209 620 C194 620 180 610 177 598 L50 -2 C47 -12 56 -20 69 -20 C84 -20 98 -10 100 2 L181 380 Z M304 723 C301 713 310 705 323 705 L473 705 C488 705 502 715 504 727 C506 737 498 745 485 745 L335 745 C320 745 306 735 304 723 L304 723 Z " />
<glyph glyph-name="hbar" unicode="&#x127;" horiz-adv-x="400" d="M182 380 C198 380 215 381 234 381 C272 381 308 377 326 370 C388 345 354 249 340 185 L301 -2 C299 -12 307 -20 320 -20 C335 -20 349 -10 352 2 L410 277 C428 360 377 420 292 420 L190 420 L229 602 C231 612 223 620 210 620 C195 620 181 610 178 598 L51 -2 C49 -12 57 -20 70 -20 C85 -20 99 -10 102 2 L182 380 Z M117 548 C114 538 123 530 136 530 L286 530 C301 530 315 540 317 552 C319 562 311 570 298 570 L148 570 C133 570 119 560 117 548 L117 548 Z " />
<glyph glyph-name="Itilde" unicode="&#x128;" horiz-adv-x="150" d="M50 -2 C47 -12 56 -20 69 -20 C84 -20 98 -10 100 2 L228 602 C230 612 222 620 209 620 C194 620 180 610 177 598 L50 -2 Z M100 706 C96 689 103 680 120 680 C159 680 143 730 176 730 C209 730 209 680 266 680 C309 680 351 709 358 744 C362 761 354 770 337 770 C298 770 315 720 282 720 C249 720 248 770 191 770 C148 770 107 741 100 706 L100 706 Z " />
<glyph glyph-name="itilde" unicode="&#x129;" horiz-adv-x="150" d="M50 -2 C47 -12 56 -20 69 -20 C84 -20 98 -10 100 2 L185 402 C188 412 179 420 166 420 C151 420 137 410 135 398 L50 -2 Z M63 531 C59 514 66 505 83 505 C122 505 106 555 139 555 C172 555 172 505 229 505 C272 505 314 534 321 569 C325 586 317 595 300 595 C261 595 278 545 245 545 C212 545 211 595 154 595 C111 595 70 566 63 531 L63 531 Z " />
<glyph glyph-name="Imacron" unicode="&#x12a;" horiz-adv-x="150" d="M50 -2 C47 -12 56 -20 69 -20 C84 -20 98 -10 100 2 L228 602 C230 612 222 620 209 620 C194 620 180 610 177 598 L50 -2 Z M129 723 C126 713 135 705 148 705 L298 705 C313 705 327 715 329 727 C331 737 323 745 310 745 L160 745 C145 745 131 735 129 723 L129 723 Z " />
<glyph glyph-name="imacron" unicode="&#x12b;" horiz-adv-x="150" d="M50 -2 C47 -12 56 -20 69 -20 C84 -20 98 -10 100 2 L185 402 C188 412 179 420 166 420 C151 420 137 410 135 398 L50 -2 Z M92 548 C89 538 98 530 111 530 L261 530 C276 530 290 540 292 552 C294 562 286 570 273 570 L123 570 C108 570 94 560 92 548 L92 548 Z " />
<glyph glyph-name="Ibreve" unicode="&#x12c;" horiz-adv-x="150" d="M50 -2 C47 -12 56 -20 69 -20 C84 -20 98 -10 100 2 L228 602 C230 612 222 620 209 620 C194 620 180 610 177 598 L50 -2 Z M137 761 C127 716 161 680 214 680 C271 680 328 719 337 765 C342 785 336 795 320 795 C305 795 292 783 283 760 C273 733 255 720 229 720 C205 720 189 735 190 756 C190 783 185 795 172 795 C155 795 141 782 137 761 L137 761 Z " />
<glyph glyph-name="ibreve" unicode="&#x12d;" horiz-adv-x="150" d="M50 -2 C47 -12 56 -20 69 -20 C84 -20 98 -10 100 2 L185 402 C188 412 179 420 166 420 C151 420 137 410 135 398 L50 -2 Z M100 586 C90 541 124 505 177 505 C234 505 291 544 300 590 C305 610 299 620 283 620 C268 620 255 608 246 585 C236 558 218 545 192 545 C168 545 152 560 153 581 C153 608 148 620 135 620 C118 620 104 607 100 586 L100 586 Z " />
<glyph glyph-name="Iogonek" unicode="&#x12e;" horiz-adv-x="150" d="M50 -2 C47 -12 56 -20 69 -20 C84 -20 98 -10 100 2 L228 602 C230 612 222 620 209 620 C194 620 180 610 177 598 L50 -2 Z M-22 -102 C-30 -142 -6 -170 37 -170 C79 -170 120 -141 127 -106 C131 -89 124 -80 107 -80 C68 -80 84 -130 50 -130 C33 -130 25 -117 29 -97 L40 -49 C49 -4 93 -32 100 -1 C103 13 94 20 75 20 C36 20 -3 -12 -11 -52 L-22 -102 Z " />
<glyph glyph-name="iogonek" unicode="&#x12f;" horiz-adv-x="150" d="M168 548 C165 538 174 530 187 530 C202 530 216 540 218 552 L229 602 C231 612 223 620 210 620 C195 620 181 610 178 598 L168 548 Z M51 -2 C49 -12 57 -20 70 -20 C85 -20 99 -10 102 2 L187 402 C189 412 180 420 167 420 C152 420 138 410 136 398 L51 -2 Z M-22 -102 C-30 -142 -6 -170 37 -170 C79 -170 120 -141 127 -106 C131 -89 124 -80 107 -80 C68 -80 84 -130 50 -130 C33 -130 25 -117 29 -97 L40 -49 C49 -4 93 -32 100 -1 C103 13 94 20 75 20 C36 20 -3 -12 -11 -52 L-22 -102 Z " />
<glyph glyph-name="Idotaccent" unicode="&#x130;" horiz-adv-x="150" d="M50 -2 C47 -12 56 -20 69 -20 C84 -20 98 -10 100 2 L228 602 C230 612 222 620 209 620 C194 620 180 610 177 598 L50 -2 Z M198 698 C196 688 204 680 217 680 C232 680 246 690 249 702 L265 777 C267 787 259 795 246 795 C231 795 217 785 214 773 L198 698 Z " />
<glyph glyph-name="dotlessi" unicode="&#x131;" horiz-adv-x="150" d="M50 -2 C47 -12 56 -20 69 -20 C84 -20 98 -10 100 2 L185 402 C188 412 179 420 166 420 C151 420 137 410 135 398 L50 -2 Z " />
<glyph glyph-name="IJ" unicode="&#x132;" horiz-adv-x="400" d="M75 77 C83 13 123 -20 191 -20 C262 -20 322 15 358 80 C368 97 374 114 377 127 L478 602 C480 612 472 620 459 620 C444 620 430 610 427 598 L359 277 C349 231 340 184 336 166 C315 67 273 20 207 20 C158 20 129 46 126 92 C125 106 127 116 127 123 C128 137 121 145 109 145 C93 145 78 134 75 119 C73 110 74 93 75 77 L75 77 Z M104 252 C104 237 110 230 124 230 C139 230 150 237 152 248 L227 598 C227 613 221 620 207 620 C193 620 181 613 179 602 L104 252 Z " />
<glyph glyph-name="ij" unicode="&#x133;" horiz-adv-x="400" d="M411 525 C411 513 421 505 435 505 C449 505 457 515 463 534 C468 549 477 591 477 600 C477 612 468 620 454 620 C440 620 432 611 425 591 C420 576 411 534 411 525 L411 525 Z M161 525 C161 513 171 505 185 505 C199 505 207 515 213 534 C218 549 227 591 227 600 C227 612 218 620 204 620 C190 620 182 611 175 591 C170 576 161 534 161 525 L161 525 Z M434 398 C434 413 428 420 414 420 C400 420 388 413 386 402 L295 -26 C291 -43 289 -60 283 -79 C263 -142 217 -180 159 -180 C109 -180 81 -154 81 -107 C81 -92 84 -83 84 -76 C84 -63 74 -55 59 -55 C30 -55 32 -86 32 -102 C32 -175 77 -220 152 -220 C239 -220 316 -159 333 -77 L434 398 Z M72 102 C72 87 78 80 92 80 C107 80 118 87 120 98 L184 398 C184 413 178 420 164 420 C150 420 138 413 136 402 L72 102 Z " />
<glyph glyph-name="Jcircumflex" unicode="&#x134;" horiz-adv-x="375" d="M50 77 C58 13 98 -20 166 -20 C237 -20 297 15 333 80 C343 97 349 114 352 127 L453 602 C455 612 447 620 434 620 C419 620 405 610 402 598 L334 277 C324 231 315 184 311 166 C290 67 248 20 182 20 C133 20 104 46 101 92 C100 106 102 116 102 123 C103 137 96 145 84 145 C68 145 53 134 50 119 C48 110 49 93 50 77 L50 77 Z M457 743 L501 686 C504 682 509 680 516 680 C531 680 546 690 549 702 C550 707 549 711 547 714 L488 789 C484 793 479 795 471 795 C462 795 454 792 448 787 L357 712 C354 709 349 702 348 697 C346 687 354 680 368 680 C376 680 384 683 390 688 L457 743 Z " />
<glyph glyph-name="jcircumflex" unicode="&#x135;" horiz-adv-x="175" d="M220 568 L264 511 C267 507 272 505 279 505 C294 505 309 515 312 527 C313 532 312 536 310 539 L251 614 C247 618 242 620 234 620 C225 620 217 617 211 612 L120 537 C117 534 112 527 111 522 C109 512 117 505 131 505 C139 505 147 508 153 513 L220 568 Z M-92 -199 C-95 -213 -86 -220 -62 -220 C-3 -220 56 -182 90 -120 C100 -103 107 -86 109 -73 L210 402 C213 412 204 420 191 420 C172 420 155 377 134 279 C127 245 96 92 82 27 C59 -81 51 -109 34 -132 C-18 -204 -84 -161 -92 -199 L-92 -199 Z " />
<glyph glyph-name="uni0136" unicode="&#x136;" horiz-adv-x="500" d="M183 391 L254 427 L400 -9 C402 -15 410 -20 419 -20 C434 -20 448 -10 450 2 C451 5 450 7 450 9 L302 451 L562 584 C570 588 577 596 578 603 C580 613 572 620 559 620 C553 620 549 619 543 616 L193 438 L228 602 C230 612 222 620 209 620 C194 620 180 610 177 598 L50 -2 C47 -12 56 -20 69 -20 C84 -20 98 -10 100 2 L183 391 Z M241 -20 C220 -66 197 -111 184 -140 C171 -170 160 -189 157 -200 C155 -212 163 -220 177 -220 C189 -220 200 -213 206 -202 C220 -177 299 -7 301 6 C303 13 293 20 281 20 L231 20 C216 20 202 10 199 -3 C195 -24 226 -20 241 -20 L241 -20 Z " />
<glyph glyph-name="uni0137" unicode="&#x137;" horiz-adv-x="400" d="M163 289 C183 296 213 306 246 318 C252 279 296 4 302 -12 C303 -17 310 -20 318 -20 C334 -20 349 -10 352 2 C353 7 299 325 296 333 C295 334 295 335 295 336 C357 359 407 378 419 383 C428 387 435 394 437 402 C438 410 431 420 424 420 C413 420 276 373 172 333 L229 602 C231 612 223 620 210 620 C195 620 181 610 178 598 L51 -2 C49 -12 57 -20 70 -20 C85 -20 99 -10 102 2 L163 289 Z M191 -20 C170 -66 147 -111 134 -140 C121 -170 110 -189 107 -200 C105 -212 113 -220 127 -220 C139 -220 150 -213 156 -202 C170 -177 249 -7 251 6 C253 13 243 20 231 20 L181 20 C166 20 152 10 149 -3 C145 -24 176 -20 191 -20 L191 -20 Z " />
<glyph glyph-name="kgreenlandic" unicode="&#x138;" horiz-adv-x="400" d="M153 247 L197 270 L300 -10 C302 -16 310 -20 319 -20 C334 -20 348 -10 350 2 C351 5 351 8 350 10 L246 295 L420 384 C429 389 434 396 435 402 C438 412 429 420 416 420 C410 420 406 419 400 416 L163 294 L185 402 C188 412 179 420 166 420 C151 420 137 410 135 398 L50 -2 C47 -12 56 -20 69 -20 C84 -20 98 -10 100 2 L153 247 Z " />
<glyph glyph-name="Lacute" unicode="&#x139;" horiz-adv-x="425" d="M104 20 L228 602 C230 612 222 620 209 620 C194 620 180 610 177 598 L50 -2 C47 -12 56 -20 69 -20 L369 -20 C384 -20 398 -10 400 2 C403 12 394 20 381 20 L104 20 Z M298 697 C296 687 304 680 318 680 C326 680 334 683 340 688 L431 763 C436 767 439 772 440 777 C442 788 434 795 420 795 C412 795 404 792 398 787 L307 712 C303 709 299 702 298 697 L298 697 Z " />
<glyph glyph-name="lacute" unicode="&#x13a;" horiz-adv-x="150" d="M51 -2 C49 -12 57 -20 70 -20 C85 -20 99 -10 102 2 L229 602 C231 612 223 620 210 620 C195 620 181 610 178 598 L51 -2 Z M156 672 C154 662 162 655 176 655 C184 655 192 658 198 663 L289 738 C294 742 297 747 298 752 C300 763 292 770 278 770 C270 770 262 767 256 762 L165 687 C161 684 157 677 156 672 L156 672 Z " />
<glyph glyph-name="uni013B" unicode="&#x13b;" horiz-adv-x="425" d="M104 20 L228 602 C230 612 222 620 209 620 C194 620 180 610 177 598 L50 -2 C47 -12 56 -20 69 -20 L369 -20 C384 -20 398 -10 400 2 C403 12 394 20 381 20 L104 20 Z M216 -20 C195 -66 172 -111 159 -140 C146 -170 135 -189 132 -200 C130 -212 138 -220 152 -220 C164 -220 175 -213 181 -202 C195 -177 274 -7 276 6 C278 13 268 20 256 20 L206 20 C191 20 177 10 174 -3 C170 -24 201 -20 216 -20 L216 -20 Z " />
<glyph glyph-name="uni013C" unicode="&#x13c;" horiz-adv-x="150" d="M51 -2 C49 -12 57 -20 70 -20 C85 -20 99 -10 102 2 L229 602 C231 612 223 620 210 620 C195 620 181 610 178 598 L51 -2 Z M66 -20 C45 -66 22 -111 9 -140 C-4 -170 -15 -189 -18 -200 C-20 -212 -12 -220 2 -220 C14 -220 25 -213 31 -202 C45 -177 124 -7 126 6 C128 13 118 20 106 20 L56 20 C41 20 27 10 24 -3 C20 -24 51 -20 66 -20 L66 -20 Z " />
<glyph glyph-name="Lcaron" unicode="&#x13d;" horiz-adv-x="425" d="M104 20 L228 602 C230 612 222 620 209 620 C194 620 180 610 177 598 L50 -2 C47 -12 56 -20 69 -20 L369 -20 C384 -20 398 -10 400 2 C403 12 394 20 381 20 L104 20 Z M419 580 C398 534 375 489 362 460 C349 430 338 411 335 400 C333 388 341 380 355 380 C367 380 378 387 384 398 C398 423 477 593 479 606 C481 613 471 620 459 620 L409 620 C394 620 380 610 377 597 C373 576 404 580 419 580 L419 580 Z " />
<glyph glyph-name="lcaron" unicode="&#x13e;" horiz-adv-x="271" d="M51 -2 C49 -12 57 -20 70 -20 C85 -20 99 -10 102 2 L229 602 C231 612 223 620 210 620 C195 620 181 610 178 598 L51 -2 Z M319 580 C298 534 275 489 262 460 C249 430 238 411 235 400 C233 388 241 380 255 380 C267 380 278 387 284 398 C298 423 377 593 379 606 C381 613 371 620 359 620 L309 620 C294 620 280 610 277 597 C273 576 304 580 319 580 L319 580 Z " />
<glyph glyph-name="Ldot" unicode="&#x13f;" horiz-adv-x="425" d="M104 20 L228 602 C230 612 222 620 209 620 C194 620 180 610 177 598 L50 -2 C47 -12 56 -20 69 -20 L369 -20 C384 -20 398 -10 400 2 C403 12 394 20 381 20 L104 20 Z M299 523 C297 513 305 505 318 505 C333 505 347 515 350 527 L366 602 C368 612 360 620 347 620 C332 620 318 610 315 598 L299 523 Z " />
<glyph glyph-name="ldot" unicode="&#x140;" horiz-adv-x="200" d="M51 -2 C49 -12 57 -20 70 -20 C85 -20 99 -10 102 2 L229 602 C231 612 223 620 210 620 C195 620 181 610 178 598 L51 -2 Z M194 325 C194 313 204 305 218 305 C232 305 240 315 246 334 C251 349 260 391 260 400 C260 412 251 420 237 420 C223 420 215 411 208 391 C203 376 194 334 194 325 L194 325 Z " />
<glyph glyph-name="Lslash" unicode="&#x141;" horiz-adv-x="475" d="M154 20 L278 602 C280 612 272 620 259 620 C244 620 230 610 227 598 L100 -2 C97 -12 106 -20 119 -20 L419 -20 C434 -20 448 -10 450 2 C453 12 444 20 431 20 L154 20 Z M78 248 C78 238 88 230 101 230 C107 230 112 231 116 234 L287 334 C295 339 299 346 299 352 C299 362 289 370 276 370 C270 370 266 369 261 366 L90 266 C82 261 78 255 78 248 L78 248 Z " />
<glyph glyph-name="lslash" unicode="&#x142;" horiz-adv-x="250" d="M101 -2 C99 -12 107 -20 120 -20 C135 -20 149 -10 152 2 L279 602 C281 612 273 620 260 620 C245 620 231 610 228 598 L101 -2 Z M78 248 C78 238 88 230 101 230 C107 230 112 231 116 234 L288 336 C296 341 300 348 300 354 C300 364 290 372 277 372 C271 372 267 371 262 368 L90 266 C82 261 78 255 78 248 L78 248 Z " />
<glyph glyph-name="Nacute" unicode="&#x143;" horiz-adv-x="500" d="M472 340 L400 -2 C397 -12 406 -20 419 -20 C434 -20 448 -10 450 2 L578 602 C580 612 572 620 559 620 C544 620 530 610 527 598 L484 396 L224 616 C221 618 216 620 210 620 C195 620 180 610 177 598 L50 -2 C47 -12 56 -20 69 -20 C84 -20 98 -10 100 2 L218 554 L472 340 Z M373 697 C371 687 379 680 393 680 C401 680 409 683 415 688 L506 763 C511 767 514 772 515 777 C517 788 509 795 495 795 C487 795 479 792 473 787 L382 712 C378 709 374 702 373 697 L373 697 Z " />
<glyph glyph-name="nacute" unicode="&#x144;" horiz-adv-x="400" d="M182 380 L279 380 C336 380 363 348 360 287 C358 251 345 208 337 168 L301 -2 C299 -12 307 -20 320 -20 C335 -20 349 -10 352 2 L410 277 C428 360 377 420 292 420 L167 420 C152 420 138 410 136 398 L51 -2 C49 -12 57 -20 70 -20 C85 -20 99 -10 102 2 L182 380 Z M286 522 C284 512 292 505 306 505 C314 505 322 508 328 513 L419 588 C424 592 427 597 428 602 C430 613 422 620 408 620 C400 620 392 617 386 612 L295 537 C291 534 287 527 286 522 L286 522 Z " />
<glyph glyph-name="uni0145" unicode="&#x145;" horiz-adv-x="500" d="M472 340 L400 -2 C397 -12 406 -20 419 -20 C434 -20 448 -10 450 2 L578 602 C580 612 572 620 559 620 C544 620 530 610 527 598 L484 396 L224 616 C221 618 216 620 210 620 C195 620 180 610 177 598 L50 -2 C47 -12 56 -20 69 -20 C84 -20 98 -10 100 2 L218 554 L472 340 Z M241 -20 C220 -66 197 -111 184 -140 C171 -170 160 -189 157 -200 C155 -212 163 -220 177 -220 C189 -220 200 -213 206 -202 C220 -177 299 -7 301 6 C303 13 293 20 281 20 L231 20 C216 20 202 10 199 -3 C195 -24 226 -20 241 -20 L241 -20 Z " />
<glyph glyph-name="uni0146" unicode="&#x146;" horiz-adv-x="400" d="M182 380 L279 380 C336 380 363 348 360 287 C358 251 345 208 337 168 L301 -2 C299 -12 307 -20 320 -20 C335 -20 349 -10 352 2 L410 277 C428 360 377 420 292 420 L167 420 C152 420 138 410 136 398 L51 -2 C49 -12 57 -20 70 -20 C85 -20 99 -10 102 2 L182 380 Z M191 -20 C170 -66 147 -111 134 -140 C121 -170 110 -189 107 -200 C105 -212 113 -220 127 -220 C139 -220 150 -213 156 -202 C170 -177 249 -7 251 6 C253 13 243 20 231 20 L181 20 C166 20 152 10 149 -3 C145 -24 176 -20 191 -20 L191 -20 Z " />
<glyph glyph-name="Ncaron" unicode="&#x147;" horiz-adv-x="500" d="M472 340 L400 -2 C397 -12 406 -20 419 -20 C434 -20 448 -10 450 2 L578 602 C580 612 572 620 559 620 C544 620 530 610 527 598 L484 396 L224 616 C221 618 216 620 210 620 C195 620 180 610 177 598 L50 -2 C47 -12 56 -20 69 -20 C84 -20 98 -10 100 2 L218 554 L472 340 Z M406 732 L363 789 C359 793 354 795 347 795 C332 795 317 785 314 774 C313 769 314 764 317 761 L376 686 C379 682 384 680 392 680 C401 680 409 683 415 688 L506 763 C511 767 514 772 515 777 C517 788 509 795 495 795 C487 795 479 792 473 787 L406 732 Z " />
<glyph glyph-name="ncaron" unicode="&#x148;" horiz-adv-x="400" d="M182 380 L279 380 C336 380 363 348 360 287 C358 251 345 208 337 168 L301 -2 C299 -12 307 -20 320 -20 C335 -20 349 -10 352 2 L410 277 C428 360 377 420 292 420 L167 420 C152 420 138 410 136 398 L51 -2 C49 -12 57 -20 70 -20 C85 -20 99 -10 102 2 L182 380 Z M319 557 L276 614 C272 618 267 620 260 620 C245 620 230 610 227 599 C226 594 227 589 230 586 L289 511 C292 507 297 505 305 505 C314 505 322 508 328 513 L419 588 C424 592 427 597 428 602 C430 613 422 620 408 620 C400 620 392 617 386 612 L319 557 Z " />
<glyph glyph-name="napostrophe" unicode="&#x149;" horiz-adv-x="400" d="M182 380 L279 380 C336 380 363 348 360 287 C358 251 345 208 337 168 L301 -2 C299 -12 307 -20 320 -20 C335 -20 349 -10 352 2 L410 277 C428 360 377 420 292 420 L167 420 C152 420 138 410 136 398 L51 -2 C49 -12 57 -20 70 -20 C85 -20 99 -10 102 2 L182 380 Z M144 580 C123 534 100 489 87 460 C74 430 63 411 60 400 C58 388 66 380 80 380 C92 380 103 387 109 398 C123 423 202 593 204 606 C206 613 196 620 184 620 L134 620 C119 620 105 610 102 597 C98 576 129 580 144 580 L144 580 Z " />
<glyph glyph-name="Eng" unicode="&#x14a;" horiz-adv-x="500" d="M472 340 L400 -2 C397 -12 406 -20 419 -20 C434 -20 448 -10 450 2 L578 602 C580 612 572 620 559 620 C544 620 530 610 527 598 L484 396 L224 616 C221 618 216 620 210 620 C195 620 180 610 177 598 L50 -2 C47 -12 56 -20 69 -20 C84 -20 98 -10 100 2 L218 554 L472 340 Z M233 -199 C230 -213 239 -220 263 -220 C322 -220 381 -182 415 -120 C425 -103 432 -86 434 -73 L535 402 C538 412 529 420 516 420 C497 420 480 377 459 279 C452 245 421 92 407 27 C384 -81 376 -109 359 -132 C307 -204 241 -161 233 -199 L233 -199 Z " />
<glyph glyph-name="eng" unicode="&#x14b;" horiz-adv-x="400" d="M51 2 C51 -13 57 -20 71 -20 C86 -20 97 -13 99 -2 L181 380 L282 380 C334 380 361 352 361 300 C361 266 349 232 342 197 L301 2 C301 1 300 -1 300 -3 C281 -105 256 -152 210 -170 C192 -177 176 -178 169 -179 C144 -183 132 -189 132 -202 C132 -214 144 -220 168 -220 C227 -220 282 -186 316 -122 C325 -105 330 -91 333 -77 L392 198 C392 199 393 201 393 202 C393 203 393 203 393 204 L407 273 C409 285 410 297 410 307 C410 377 363 420 287 420 L162 420 C149 420 138 413 136 402 L51 2 Z " />
<glyph glyph-name="Omacron" unicode="&#x14c;" horiz-adv-x="500" d="M85 108 C96 24 149 -20 244 -20 C340 -20 415 25 461 110 C474 133 483 157 488 177 L541 427 C545 447 545 470 543 492 C533 576 479 620 384 620 C288 620 212 575 166 490 C153 467 144 443 140 423 L87 173 C83 153 82 130 85 108 L85 108 Z M437 174 C430 157 427 142 417 121 C384 56 327 20 255 20 C184 20 146 56 136 124 C134 142 134 161 138 177 L191 427 C194 443 201 461 212 481 C249 547 301 580 370 580 C456 580 500 528 492 437 C489 403 478 369 471 335 L437 174 Z M304 723 C301 713 310 705 323 705 L473 705 C488 705 502 715 504 727 C506 737 498 745 485 745 L335 745 C320 745 306 735 304 723 L304 723 Z " />
<glyph glyph-name="omacron" unicode="&#x14d;" horiz-adv-x="400" d="M76 77 C84 13 124 -20 192 -20 C264 -20 319 18 360 82 C367 94 375 114 378 127 L410 277 C428 360 377 420 291 420 C222 420 168 381 128 318 C120 306 112 287 109 273 L77 123 C75 111 74 94 76 77 L76 77 Z M160 276 C182 346 220 380 276 380 C339 380 373 337 359 273 L327 124 C314 61 266 20 206 20 C153 20 123 52 126 108 C127 133 134 157 139 180 L160 276 Z M217 548 C214 538 223 530 236 530 L386 530 C401 530 415 540 417 552 C419 562 411 570 398 570 L248 570 C233 570 219 560 217 548 L217 548 Z " />
<glyph glyph-name="Obreve" unicode="&#x14e;" horiz-adv-x="500" d="M85 108 C96 24 149 -20 244 -20 C340 -20 415 25 461 110 C474 133 483 157 488 177 L541 427 C545 447 545 470 543 492 C533 576 479 620 384 620 C288 620 212 575 166 490 C153 467 144 443 140 423 L87 173 C83 153 82 130 85 108 L85 108 Z M437 174 C430 157 427 142 417 121 C384 56 327 20 255 20 C184 20 146 56 136 124 C134 142 134 161 138 177 L191 427 C194 443 201 461 212 481 C249 547 301 580 370 580 C456 580 500 528 492 437 C489 403 478 369 471 335 L437 174 Z M312 761 C302 716 336 680 389 680 C446 680 503 719 512 765 C517 785 511 795 495 795 C480 795 467 783 458 760 C448 733 430 720 404 720 C380 720 364 735 365 756 C365 783 360 795 347 795 C330 795 316 782 312 761 L312 761 Z " />
<glyph glyph-name="obreve" unicode="&#x14f;" horiz-adv-x="400" d="M76 77 C84 13 124 -20 192 -20 C264 -20 319 18 360 82 C367 94 375 114 378 127 L410 277 C428 360 377 420 291 420 C222 420 168 381 128 318 C120 306 112 287 109 273 L77 123 C75 111 74 94 76 77 L76 77 Z M160 276 C182 346 220 380 276 380 C339 380 373 337 359 273 L327 124 C314 61 266 20 206 20 C153 20 123 52 126 108 C127 133 134 157 139 180 L160 276 Z M225 586 C215 541 249 505 302 505 C359 505 416 544 425 590 C430 610 424 620 408 620 C393 620 380 608 371 585 C361 558 343 545 317 545 C293 545 277 560 278 581 C278 608 273 620 260 620 C243 620 229 607 225 586 L225 586 Z " />
<glyph glyph-name="Ohungarumlaut" unicode="&#x150;" horiz-adv-x="500" d="M85 108 C96 24 149 -20 244 -20 C340 -20 415 25 461 110 C474 133 483 157 488 177 L541 427 C545 447 545 470 543 492 C533 576 479 620 384 620 C288 620 212 575 166 490 C153 467 144 443 140 423 L87 173 C83 153 82 130 85 108 L85 108 Z M437 174 C430 157 427 142 417 121 C384 56 327 20 255 20 C184 20 146 56 136 124 C134 142 134 161 138 177 L191 427 C194 443 201 461 212 481 C249 547 301 580 370 580 C456 580 500 528 492 437 C489 403 478 369 471 335 L437 174 Z M285 697 C283 687 291 680 305 680 C313 680 321 683 327 688 L418 763 C423 767 426 772 427 777 C429 788 421 795 407 795 C399 795 391 792 385 787 L294 712 C290 709 286 702 285 697 L285 697 Z M460 697 C458 687 466 680 480 680 C488 680 496 683 502 688 L593 763 C598 767 601 772 602 777 C604 788 596 795 582 795 C574 795 566 792 560 787 L469 712 C465 709 461 702 460 697 L460 697 Z " />
<glyph glyph-name="ohungarumlaut" unicode="&#x151;" horiz-adv-x="400" d="M76 77 C84 13 124 -20 192 -20 C264 -20 319 18 360 82 C367 94 375 114 378 127 L410 277 C428 360 377 420 291 420 C222 420 168 381 128 318 C120 306 112 287 109 273 L77 123 C75 111 74 94 76 77 L76 77 Z M160 276 C182 346 220 380 276 380 C339 380 373 337 359 273 L327 124 C314 61 266 20 206 20 C153 20 123 52 126 108 C127 133 134 157 139 180 L160 276 Z M198 522 C196 512 204 505 218 505 C226 505 234 508 240 513 L331 588 C336 592 339 597 340 602 C342 613 334 620 320 620 C312 620 304 617 298 612 L207 537 C203 534 199 527 198 522 L198 522 Z M373 522 C371 512 379 505 393 505 C401 505 409 508 415 513 L506 588 C511 592 514 597 515 602 C517 613 509 620 495 620 C487 620 479 617 473 612 L382 537 C378 534 374 527 373 522 L373 522 Z " />
<glyph glyph-name="OE" unicode="&#x152;" horiz-adv-x="800" d="M85 108 C96 24 149 -20 244 -20 C340 -20 415 25 461 110 C474 133 483 157 488 177 L541 427 C545 447 545 470 543 492 C533 576 479 620 384 620 C288 620 212 575 166 490 C153 467 144 443 140 423 L87 173 C83 153 82 130 85 108 L85 108 Z M437 174 C430 157 427 142 417 121 C384 56 327 20 255 20 C184 20 146 56 136 124 C134 142 134 161 138 177 L191 427 C194 443 201 461 212 481 C249 547 301 580 370 580 C456 580 500 528 492 437 C489 403 478 369 471 335 L437 174 Z M531 380 L679 380 C694 380 708 390 710 402 C713 412 704 420 691 420 L539 420 L573 580 L846 580 C861 580 875 590 878 602 C880 612 872 620 859 620 L559 620 C544 620 530 610 527 598 L416 73 C404 19 437 -20 494 -20 L719 -20 C734 -20 748 -10 750 2 C753 12 744 20 731 20 C664 20 596 20 596 20 C478 20 456 30 467 78 L531 380 Z " />
<glyph glyph-name="oe" unicode="&#x153;" horiz-adv-x="650" d="M76 77 C84 13 124 -20 192 -20 C264 -20 319 18 360 82 C367 94 375 114 378 127 L410 277 C428 360 377 420 291 420 C222 420 168 381 128 318 C120 306 112 287 109 273 L77 123 C75 111 74 94 76 77 L76 77 Z M160 276 C182 346 220 380 276 380 C339 380 373 337 359 273 L327 124 C314 61 266 20 206 20 C153 20 123 52 126 108 C127 133 134 157 139 180 L160 276 Z M387 340 C374 320 363 295 359 277 L327 127 C324 114 324 97 326 80 C334 15 379 -20 448 -20 L498 -20 C511 -20 522 -12 525 -2 C528 13 513 20 480 20 C446 20 394 12 377 75 C373 92 373 108 376 123 L408 273 C423 342 476 380 557 380 C590 380 606 368 613 339 C616 326 616 312 613 298 C603 251 564 220 515 220 C491 220 448 228 443 203 C440 190 450 180 465 180 L515 180 C587 180 649 229 664 300 C680 375 632 420 538 420 C470 420 423 393 387 340 L387 340 Z " />
<glyph glyph-name="Racute" unicode="&#x154;" horiz-adv-x="475" d="M310 330 L322 330 C341 330 361 330 379 333 C450 345 512 406 527 479 C544 560 494 620 409 620 L209 620 C194 620 180 610 177 598 L50 -2 C48 -12 56 -20 69 -20 C84 -20 98 -10 101 2 L224 580 L396 580 C456 580 489 536 477 476 C473 458 464 441 454 425 C427 383 398 370 338 370 L281 370 C266 370 252 360 249 348 C249 345 249 343 250 340 L375 -10 C377 -16 385 -20 394 -20 C409 -20 423 -10 426 2 C426 5 426 8 425 10 L310 330 Z M373 697 C371 687 379 680 393 680 C401 680 409 683 415 688 L506 763 C511 767 514 772 515 777 C517 788 509 795 495 795 C487 795 479 792 473 787 L382 712 C378 709 374 702 373 697 L373 697 Z " />
<glyph glyph-name="racute" unicode="&#x155;" horiz-adv-x="250" d="M51 -2 C49 -12 57 -20 70 -20 C85 -20 99 -10 102 2 L138 173 C144 204 150 235 153 251 C171 334 208 374 269 379 C294 381 309 389 312 402 C314 414 303 420 280 420 C221 420 162 382 128 320 C118 303 112 286 109 273 L51 -2 Z M236 522 C234 512 242 505 256 505 C264 505 272 508 278 513 L369 588 C374 592 377 597 378 602 C380 613 372 620 358 620 C350 620 342 617 336 612 L245 537 C241 534 237 527 236 522 L236 522 Z " />
<glyph glyph-name="uni0156" unicode="&#x156;" horiz-adv-x="475" d="M310 330 L322 330 C341 330 361 330 379 333 C450 345 512 406 527 479 C544 560 494 620 409 620 L209 620 C194 620 180 610 177 598 L50 -2 C48 -12 56 -20 69 -20 C84 -20 98 -10 101 2 L224 580 L396 580 C456 580 489 536 477 476 C473 458 464 441 454 425 C427 383 398 370 338 370 L281 370 C266 370 252 360 249 348 C249 345 249 343 250 340 L375 -10 C377 -16 385 -20 394 -20 C409 -20 423 -10 426 2 C426 5 426 8 425 10 L310 330 Z M228 -20 C207 -66 184 -111 171 -140 C158 -170 147 -189 144 -200 C142 -212 150 -220 164 -220 C176 -220 187 -213 193 -202 C207 -177 286 -7 288 6 C290 13 280 20 268 20 L218 20 C203 20 189 10 186 -3 C182 -24 213 -20 228 -20 L228 -20 Z " />
<glyph glyph-name="uni0157" unicode="&#x157;" horiz-adv-x="250" d="M51 -2 C49 -12 57 -20 70 -20 C85 -20 99 -10 102 2 L138 173 C144 204 150 235 153 251 C171 334 208 374 269 379 C294 381 309 389 312 402 C314 414 303 420 280 420 C221 420 162 382 128 320 C118 303 112 286 109 273 L51 -2 Z M66 -20 C45 -66 22 -111 9 -140 C-4 -170 -15 -189 -18 -200 C-20 -212 -12 -220 2 -220 C14 -220 25 -213 31 -202 C45 -177 124 -7 126 6 C128 13 118 20 106 20 L56 20 C41 20 27 10 24 -3 C20 -24 51 -20 66 -20 L66 -20 Z " />
<glyph glyph-name="Rcaron" unicode="&#x158;" horiz-adv-x="475" d="M310 330 L322 330 C341 330 361 330 379 333 C450 345 512 406 527 479 C544 560 494 620 409 620 L209 620 C194 620 180 610 177 598 L50 -2 C48 -12 56 -20 69 -20 C84 -20 98 -10 101 2 L224 580 L396 580 C456 580 489 536 477 476 C473 458 464 441 454 425 C427 383 398 370 338 370 L281 370 C266 370 252 360 249 348 C249 345 249 343 250 340 L375 -10 C377 -16 385 -20 394 -20 C409 -20 423 -10 426 2 C426 5 426 8 425 10 L310 330 Z M393 732 L350 789 C346 793 341 795 334 795 C319 795 304 785 301 774 C300 769 301 764 304 761 L363 686 C366 682 371 680 379 680 C388 680 396 683 402 688 L493 763 C498 767 501 772 502 777 C504 788 496 795 482 795 C474 795 466 792 460 787 L393 732 Z " />
<glyph glyph-name="rcaron" unicode="&#x159;" horiz-adv-x="250" d="M51 -2 C49 -12 57 -20 70 -20 C85 -20 99 -10 102 2 L138 173 C144 204 150 235 153 251 C171 334 208 374 269 379 C294 381 309 389 312 402 C314 414 303 420 280 420 C221 420 162 382 128 320 C118 303 112 286 109 273 L51 -2 Z M244 557 L201 614 C197 618 192 620 185 620 C170 620 155 610 152 599 C151 594 152 589 155 586 L214 511 C217 507 222 505 230 505 C239 505 247 508 253 513 L344 588 C349 592 352 597 353 602 C355 613 347 620 333 620 C325 620 317 617 311 612 L244 557 Z " />
<glyph glyph-name="Sacute" unicode="&#x15a;" horiz-adv-x="488" d="M86 108 C97 24 150 -20 245 -20 C341 -20 416 25 462 110 C475 133 484 157 489 178 C496 211 493 250 482 281 C459 341 403 370 310 370 C263 370 237 386 228 425 C224 442 224 461 227 477 C231 494 240 512 250 528 C275 566 304 580 361 580 C426 580 461 564 473 526 C479 507 477 492 476 482 C477 464 482 456 495 456 C511 456 525 467 529 483 C532 497 529 521 523 541 C507 595 462 620 380 620 C294 620 244 595 205 537 C192 517 181 493 177 475 C174 462 173 444 176 427 C186 360 224 330 310 330 C333 330 353 327 367 323 C422 307 453 244 438 176 C434 157 426 137 415 118 C377 52 327 20 259 20 C186 20 140 57 136 123 C135 145 138 161 139 172 C139 188 133 195 120 195 C103 195 90 183 86 165 C83 152 83 128 86 108 L86 108 Z M373 697 C371 687 379 680 393 680 C401 680 409 683 415 688 L506 763 C511 767 514 772 515 777 C517 788 509 795 495 795 C487 795 479 792 473 787 L382 712 C378 709 374 702 373 697 L373 697 Z " />
<glyph glyph-name="sacute" unicode="&#x15b;" horiz-adv-x="376" d="M181 -20 C260 -20 334 37 350 111 C353 127 354 144 351 161 C343 217 306 245 239 245 C226 245 217 246 211 248 C186 256 173 284 181 318 C189 356 218 380 257 380 L269 380 C315 380 332 364 330 326 C329 303 334 293 348 293 C364 293 378 306 382 326 C391 365 365 406 327 416 C311 420 293 420 293 420 C222 420 179 403 150 358 C140 341 132 324 129 311 C125 293 127 271 134 252 C167 161 276 248 299 156 C303 141 303 125 299 109 C288 56 244 20 192 20 C144 20 118 52 123 102 C124 123 119 133 106 133 C88 133 75 119 70 94 C57 32 107 -20 181 -20 L181 -20 Z M274 522 C272 512 280 505 294 505 C302 505 310 508 316 513 L407 588 C412 592 415 597 416 602 C418 613 410 620 396 620 C388 620 380 617 374 612 L283 537 C279 534 275 527 274 522 L274 522 Z " />
<glyph glyph-name="Scircumflex" unicode="&#x15c;" horiz-adv-x="500" d="M85 108 C96 24 149 -20 244 -20 C340 -20 415 25 461 110 C474 133 483 157 488 178 C495 211 492 250 481 281 C458 341 402 370 309 370 C262 370 236 386 227 425 C223 442 223 461 226 477 C230 494 239 512 249 528 C274 566 303 580 360 580 C425 580 460 564 472 526 C478 507 476 492 475 482 C476 464 481 456 494 456 C510 456 524 467 528 483 C531 497 528 521 522 541 C506 595 461 620 379 620 C293 620 243 595 204 537 C191 517 180 493 176 475 C173 462 172 444 175 427 C185 360 223 330 309 330 C332 330 352 327 366 323 C421 307 452 244 437 176 C433 157 425 137 414 118 C376 52 326 20 258 20 C185 20 139 57 135 123 C134 145 137 161 138 172 C138 188 132 195 119 195 C102 195 89 183 85 165 C82 152 82 128 85 108 L85 108 Z M400 743 L444 686 C447 682 452 680 459 680 C474 680 489 690 492 702 C493 707 492 711 490 714 L431 789 C427 793 422 795 414 795 C405 795 397 792 391 787 L300 712 C297 709 292 702 291 697 C289 687 297 680 311 680 C319 680 327 683 333 688 L400 743 Z " />
<glyph glyph-name="scircumflex" unicode="&#x15d;" horiz-adv-x="376" d="M181 -20 C260 -20 334 37 350 111 C353 127 354 144 351 161 C343 217 306 245 239 245 C226 245 217 246 211 248 C186 256 173 284 181 318 C189 356 218 380 257 380 L269 380 C315 380 332 364 330 326 C329 303 334 293 348 293 C364 293 378 306 382 326 C391 365 365 406 327 416 C311 420 293 420 293 420 C222 420 179 403 150 358 C140 341 132 324 129 311 C125 293 127 271 134 252 C167 161 276 248 299 156 C303 141 303 125 299 109 C288 56 244 20 192 20 C144 20 118 52 123 102 C124 123 119 133 106 133 C88 133 75 119 70 94 C57 32 107 -20 181 -20 L181 -20 Z M307 568 L351 511 C354 507 359 505 366 505 C381 505 396 515 399 527 C400 532 399 536 397 539 L338 614 C334 618 329 620 321 620 C312 620 304 617 298 612 L207 537 C204 534 199 527 198 522 C196 512 204 505 218 505 C226 505 234 508 240 513 L307 568 Z " />
<glyph glyph-name="Scedilla" unicode="&#x15e;" horiz-adv-x="500" d="M85 108 C96 24 149 -20 244 -20 C340 -20 415 25 461 110 C474 133 483 157 488 178 C495 211 492 250 481 281 C458 341 402 370 309 370 C262 370 236 386 227 425 C223 442 223 461 226 477 C230 494 239 512 249 528 C274 566 303 580 360 580 C425 580 460 564 472 526 C478 507 476 492 475 482 C476 464 481 456 494 456 C510 456 524 467 528 483 C531 497 528 521 522 541 C506 595 461 620 379 620 C293 620 243 595 204 537 C191 517 180 493 176 475 C173 462 172 444 175 427 C185 360 223 330 309 330 C332 330 352 327 366 323 C421 307 452 244 437 176 C433 157 425 137 414 118 C376 52 326 20 258 20 C185 20 139 57 135 123 C134 145 137 161 138 172 C138 188 132 195 119 195 C102 195 89 183 85 165 C82 152 82 128 85 108 L85 108 Z M144 -111 C137 -144 165 -170 205 -170 C249 -170 288 -139 297 -98 L308 -48 C316 -10 293 20 256 20 C235 20 220 11 217 -4 C211 -33 267 -5 257 -53 L246 -101 C243 -119 230 -130 213 -130 C177 -130 216 -80 180 -80 C162 -80 148 -92 144 -111 L144 -111 Z " />
<glyph glyph-name="scedilla" unicode="&#x15f;" horiz-adv-x="376" d="M181 -20 C260 -20 334 37 350 111 C353 127 354 144 351 161 C343 217 306 245 239 245 C226 245 217 246 211 248 C186 256 173 284 181 318 C189 356 218 380 257 380 L269 380 C315 380 332 364 330 326 C329 303 334 293 348 293 C364 293 378 306 382 326 C391 365 365 406 327 416 C311 420 293 420 293 420 C222 420 179 403 150 358 C140 341 132 324 129 311 C125 293 127 271 134 252 C167 161 276 248 299 156 C303 141 303 125 299 109 C288 56 244 20 192 20 C144 20 118 52 123 102 C124 123 119 133 106 133 C88 133 75 119 70 94 C57 32 107 -20 181 -20 L181 -20 Z M88 -111 C81 -144 109 -170 149 -170 C193 -170 232 -139 241 -98 L252 -48 C260 -10 237 20 200 20 C179 20 164 11 161 -4 C155 -33 211 -5 201 -53 L190 -101 C187 -119 174 -130 157 -130 C121 -130 160 -80 124 -80 C106 -80 92 -92 88 -111 L88 -111 Z " />
<glyph glyph-name="Scaron" unicode="&#x160;" horiz-adv-x="500" d="M85 108 C96 24 149 -20 244 -20 C340 -20 415 25 461 110 C474 133 483 157 488 178 C495 211 492 250 481 281 C458 341 402 370 309 370 C262 370 236 386 227 425 C223 442 223 461 226 477 C230 494 239 512 249 528 C274 566 303 580 360 580 C425 580 460 564 472 526 C478 507 476 492 475 482 C476 464 481 456 494 456 C510 456 524 467 528 483 C531 497 528 521 522 541 C506 595 461 620 379 620 C293 620 243 595 204 537 C191 517 180 493 176 475 C173 462 172 444 175 427 C185 360 223 330 309 330 C332 330 352 327 366 323 C421 307 452 244 437 176 C433 157 425 137 414 118 C376 52 326 20 258 20 C185 20 139 57 135 123 C134 145 137 161 138 172 C138 188 132 195 119 195 C102 195 89 183 85 165 C82 152 82 128 85 108 L85 108 Z M406 732 L363 789 C359 793 354 795 347 795 C332 795 317 785 314 774 C313 769 314 764 317 761 L376 686 C379 682 384 680 392 680 C401 680 409 683 415 688 L506 763 C511 767 514 772 515 777 C517 788 509 795 495 795 C487 795 479 792 473 787 L406 732 Z " />
<glyph glyph-name="scaron" unicode="&#x161;" horiz-adv-x="376" d="M181 -20 C260 -20 334 37 350 111 C353 127 354 144 351 161 C343 217 306 245 239 245 C226 245 217 246 211 248 C186 256 173 284 181 318 C189 356 218 380 257 380 L269 380 C315 380 332 364 330 326 C329 303 334 293 348 293 C364 293 378 306 382 326 C391 365 365 406 327 416 C311 420 293 420 293 420 C222 420 179 403 150 358 C140 341 132 324 129 311 C125 293 127 271 134 252 C167 161 276 248 299 156 C303 141 303 125 299 109 C288 56 244 20 192 20 C144 20 118 52 123 102 C124 123 119 133 106 133 C88 133 75 119 70 94 C57 32 107 -20 181 -20 L181 -20 Z M307 557 L264 614 C260 618 255 620 248 620 C233 620 218 610 215 599 C214 594 215 589 218 586 L277 511 C280 507 285 505 293 505 C302 505 310 508 316 513 L407 588 C412 592 415 597 416 602 C418 613 410 620 396 620 C388 620 380 617 374 612 L307 557 Z " />
<glyph glyph-name="uni0162" unicode="&#x162;" horiz-adv-x="450" d="M323 580 L200 -2 C197 -12 206 -20 219 -20 C234 -20 248 -10 250 2 L373 580 L521 580 C536 580 550 590 553 602 C555 612 547 620 534 620 L184 620 C169 620 155 610 152 598 C150 588 158 580 171 580 L323 580 Z M216 -20 C195 -66 172 -111 159 -140 C146 -170 135 -189 132 -200 C130 -212 138 -220 152 -220 C164 -220 175 -213 181 -202 C195 -177 274 -7 276 6 C278 13 268 20 256 20 L206 20 C191 20 177 10 174 -3 C170 -24 201 -20 216 -20 L216 -20 Z " />
<glyph glyph-name="uni0163" unicode="&#x163;" horiz-adv-x="325" d="M182 380 L127 123 C124 110 125 91 127 75 C133 15 172 -20 230 -20 C258 -20 274 -12 277 4 C284 38 202 -2 180 73 C171 104 179 131 186 165 L232 380 L330 380 C345 380 359 390 362 402 C364 412 355 420 342 420 L240 420 L258 502 C260 512 252 520 239 520 C224 520 210 510 207 498 L190 420 L142 420 C127 420 113 410 111 398 C109 388 117 380 130 380 L182 380 Z M266 -20 C245 -66 222 -111 209 -140 C196 -170 185 -189 182 -200 C180 -212 188 -220 202 -220 C214 -220 225 -213 231 -202 C245 -177 324 -7 326 6 C328 13 318 20 306 20 L256 20 C241 20 227 10 224 -3 C220 -24 251 -20 266 -20 L266 -20 Z " />
<glyph glyph-name="Tcaron" unicode="&#x164;" horiz-adv-x="450" d="M323 580 L200 -2 C197 -12 206 -20 219 -20 C234 -20 248 -10 250 2 L373 580 L521 580 C536 580 550 590 553 602 C555 612 547 620 534 620 L184 620 C169 620 155 610 152 598 C150 588 158 580 171 580 L323 580 Z M381 732 L338 789 C334 793 329 795 322 795 C307 795 292 785 289 774 C288 769 289 764 292 761 L351 686 C354 682 359 680 367 680 C376 680 384 683 390 688 L481 763 C486 767 489 772 490 777 C492 788 484 795 470 795 C462 795 454 792 448 787 L381 732 Z " />
<glyph glyph-name="tcaron" unicode="&#x165;" horiz-adv-x="300" d="M182 380 L127 123 C124 110 125 91 127 75 C133 15 172 -20 230 -20 C258 -20 274 -12 277 4 C284 38 202 -2 180 73 C171 104 179 131 186 165 L232 380 L330 380 C345 380 359 390 362 402 C364 412 355 420 342 420 L240 420 L258 502 C260 512 252 520 239 520 C224 520 210 510 207 498 L190 420 L142 420 C127 420 113 410 111 398 C109 388 117 380 130 380 L182 380 Z M394 580 C373 534 350 489 337 460 C324 430 313 411 310 400 C308 388 316 380 330 380 C342 380 353 387 359 398 C373 423 452 593 454 606 C456 613 446 620 434 620 L384 620 C369 620 355 610 352 597 C348 576 379 580 394 580 L394 580 Z " />
<glyph glyph-name="Tbar" unicode="&#x166;" horiz-adv-x="450" d="M323 580 L200 -2 C197 -12 206 -20 219 -20 C234 -20 248 -10 250 2 L373 580 L521 580 C536 580 550 590 553 602 C555 612 547 620 534 620 L184 620 C169 620 155 610 152 598 C150 588 158 580 171 580 L323 580 Z M279 723 C276 713 285 705 298 705 L448 705 C463 705 477 715 479 727 C481 737 473 745 460 745 L310 745 C295 745 281 735 279 723 L279 723 Z " />
<glyph glyph-name="tbar" unicode="&#x167;" horiz-adv-x="300" d="M182 380 L127 123 C124 110 125 91 127 75 C133 15 172 -20 230 -20 C258 -20 274 -12 277 4 C284 38 202 -2 180 73 C171 104 179 131 186 165 L232 380 L330 380 C345 380 359 390 362 402 C364 412 355 420 342 420 L240 420 L258 502 C260 512 252 520 239 520 C224 520 210 510 207 498 L190 420 L142 420 C127 420 113 410 111 398 C109 388 117 380 130 380 L182 380 Z M162 523 C159 513 168 505 181 505 L331 505 C346 505 360 515 362 527 C364 537 356 545 343 545 L193 545 C178 545 164 535 162 523 L162 523 Z " />
<glyph glyph-name="Utilde" unicode="&#x168;" horiz-adv-x="500" d="M85 107 C95 23 149 -20 243 -20 C339 -20 415 25 461 110 C474 133 483 157 488 177 L578 602 C580 612 572 620 559 620 C544 620 530 610 527 598 L472 340 C470 328 467 315 464 303 L450 229 C447 217 444 204 444 204 C419 85 352 20 256 20 C172 20 129 71 136 160 C138 189 145 214 151 240 L228 602 C230 612 222 620 209 620 C194 620 180 610 177 598 L87 173 C83 154 82 130 85 107 L85 107 Z M275 706 C271 689 278 680 295 680 C334 680 318 730 351 730 C384 730 384 680 441 680 C484 680 526 709 533 744 C537 761 529 770 512 770 C473 770 490 720 457 720 C424 720 423 770 366 770 C323 770 282 741 275 706 L275 706 Z " />
<glyph glyph-name="utilde" unicode="&#x169;" horiz-adv-x="400" d="M305 20 L208 20 C151 20 124 53 127 114 C129 150 142 192 150 232 L187 402 C189 412 180 420 167 420 C152 420 138 410 136 398 L77 123 C74 110 75 91 77 75 C84 12 125 -20 195 -20 L320 -20 C335 -20 349 -10 352 2 L437 402 C439 412 430 420 417 420 C402 420 388 410 386 398 L305 20 Z M188 531 C184 514 191 505 208 505 C247 505 231 555 264 555 C297 555 297 505 354 505 C397 505 439 534 446 569 C450 586 442 595 425 595 C386 595 403 545 370 545 C337 545 336 595 279 595 C236 595 195 566 188 531 L188 531 Z " />
<glyph glyph-name="Umacron" unicode="&#x16a;" horiz-adv-x="500" d="M85 107 C95 23 149 -20 243 -20 C339 -20 415 25 461 110 C474 133 483 157 488 177 L578 602 C580 612 572 620 559 620 C544 620 530 610 527 598 L472 340 C470 328 467 315 464 303 L450 229 C447 217 444 204 444 204 C419 85 352 20 256 20 C172 20 129 71 136 160 C138 189 145 214 151 240 L228 602 C230 612 222 620 209 620 C194 620 180 610 177 598 L87 173 C83 154 82 130 85 107 L85 107 Z M304 723 C301 713 310 705 323 705 L473 705 C488 705 502 715 504 727 C506 737 498 745 485 745 L335 745 C320 745 306 735 304 723 L304 723 Z " />
<glyph glyph-name="umacron" unicode="&#x16b;" horiz-adv-x="400" d="M305 20 L208 20 C151 20 124 53 127 114 C129 150 142 192 150 232 L187 402 C189 412 180 420 167 420 C152 420 138 410 136 398 L77 123 C74 110 75 91 77 75 C84 12 125 -20 195 -20 L320 -20 C335 -20 349 -10 352 2 L437 402 C439 412 430 420 417 420 C402 420 388 410 386 398 L305 20 Z M217 548 C214 538 223 530 236 530 L386 530 C401 530 415 540 417 552 C419 562 411 570 398 570 L248 570 C233 570 219 560 217 548 L217 548 Z " />
<glyph glyph-name="Ubreve" unicode="&#x16c;" horiz-adv-x="500" d="M85 107 C95 23 149 -20 243 -20 C339 -20 415 25 461 110 C474 133 483 157 488 177 L578 602 C580 612 572 620 559 620 C544 620 530 610 527 598 L472 340 C470 328 467 315 464 303 L450 229 C447 217 444 204 444 204 C419 85 352 20 256 20 C172 20 129 71 136 160 C138 189 145 214 151 240 L228 602 C230 612 222 620 209 620 C194 620 180 610 177 598 L87 173 C83 154 82 130 85 107 L85 107 Z M312 761 C302 716 336 680 389 680 C446 680 503 719 512 765 C517 785 511 795 495 795 C480 795 467 783 458 760 C448 733 430 720 404 720 C380 720 364 735 365 756 C365 783 360 795 347 795 C330 795 316 782 312 761 L312 761 Z " />
<glyph glyph-name="ubreve" unicode="&#x16d;" horiz-adv-x="400" d="M305 20 L208 20 C151 20 124 53 127 114 C129 150 142 192 150 232 L187 402 C189 412 180 420 167 420 C152 420 138 410 136 398 L77 123 C74 110 75 91 77 75 C84 12 125 -20 195 -20 L320 -20 C335 -20 349 -10 352 2 L437 402 C439 412 430 420 417 420 C402 420 388 410 386 398 L305 20 Z M225 586 C215 541 249 505 302 505 C359 505 416 544 425 590 C430 610 424 620 408 620 C393 620 380 608 371 585 C361 558 343 545 317 545 C293 545 277 560 278 581 C278 608 273 620 260 620 C243 620 229 607 225 586 L225 586 Z " />
<glyph glyph-name="Uring" unicode="&#x16e;" horiz-adv-x="500" d="M85 107 C95 23 149 -20 243 -20 C339 -20 415 25 461 110 C474 133 483 157 488 177 L578 602 C580 612 572 620 559 620 C544 620 530 610 527 598 L472 340 C470 328 467 315 464 303 L450 229 C447 217 444 204 444 204 C419 85 352 20 256 20 C172 20 129 71 136 160 C138 189 145 214 151 240 L228 602 C230 612 222 620 209 620 C194 620 180 610 177 598 L87 173 C83 154 82 130 85 107 L85 107 Z M297 696 C286 644 321 602 376 602 C433 602 489 646 501 700 C512 753 477 795 421 795 C364 795 308 750 297 696 L297 696 Z M389 642 C355 650 341 668 347 697 C354 730 380 755 408 755 C437 755 457 728 450 696 C447 685 442 675 436 667 C425 654 411 647 389 642 L389 642 Z " />
<glyph glyph-name="uring" unicode="&#x16f;" horiz-adv-x="400" d="M305 20 L208 20 C151 20 124 53 127 114 C129 150 142 192 150 232 L187 402 C189 412 180 420 167 420 C152 420 138 410 136 398 L77 123 C74 110 75 91 77 75 C84 12 125 -20 195 -20 L320 -20 C335 -20 349 -10 352 2 L437 402 C439 412 430 420 417 420 C402 420 388 410 386 398 L305 20 Z M210 521 C199 469 234 427 289 427 C346 427 402 471 414 525 C425 578 390 620 334 620 C277 620 221 575 210 521 L210 521 Z M302 467 C268 475 254 493 260 522 C267 555 293 580 321 580 C350 580 370 553 363 521 C360 510 355 500 349 492 C338 479 324 472 302 467 L302 467 Z " />
<glyph glyph-name="Uhungarumlaut" unicode="&#x170;" horiz-adv-x="500" d="M85 107 C95 23 149 -20 243 -20 C339 -20 415 25 461 110 C474 133 483 157 488 177 L578 602 C580 612 572 620 559 620 C544 620 530 610 527 598 L472 340 C470 328 467 315 464 303 L450 229 C447 217 444 204 444 204 C419 85 352 20 256 20 C172 20 129 71 136 160 C138 189 145 214 151 240 L228 602 C230 612 222 620 209 620 C194 620 180 610 177 598 L87 173 C83 154 82 130 85 107 L85 107 Z M289 697 C287 687 295 680 309 680 C317 680 325 683 331 688 L422 763 C427 767 430 772 431 777 C433 788 425 795 411 795 C403 795 395 792 389 787 L298 712 C294 709 290 702 289 697 L289 697 Z M464 697 C462 687 470 680 484 680 C492 680 500 683 506 688 L597 763 C602 767 605 772 606 777 C608 788 600 795 586 795 C578 795 570 792 564 787 L473 712 C469 709 465 702 464 697 L464 697 Z " />
<glyph glyph-name="uhungarumlaut" unicode="&#x171;" horiz-adv-x="400" d="M305 20 L208 20 C151 20 124 53 127 114 C129 150 142 192 150 232 L187 402 C189 412 180 420 167 420 C152 420 138 410 136 398 L77 123 C74 110 75 91 77 75 C84 12 125 -20 195 -20 L320 -20 C335 -20 349 -10 352 2 L437 402 C439 412 430 420 417 420 C402 420 388 410 386 398 L305 20 Z M202 522 C200 512 208 505 222 505 C230 505 238 508 244 513 L335 588 C340 592 343 597 344 602 C346 613 338 620 324 620 C316 620 308 617 302 612 L211 537 C207 534 203 527 202 522 L202 522 Z M377 522 C375 512 383 505 397 505 C405 505 413 508 419 513 L510 588 C515 592 518 597 519 602 C521 613 513 620 499 620 C491 620 483 617 477 612 L386 537 C382 534 378 527 377 522 L377 522 Z " />
<glyph glyph-name="Uogonek" unicode="&#x172;" horiz-adv-x="500" d="M85 107 C95 23 149 -20 243 -20 C339 -20 415 25 461 110 C474 133 483 157 488 177 L578 602 C580 612 572 620 559 620 C544 620 530 610 527 598 L472 340 C470 328 467 315 464 303 L450 229 C447 217 444 204 444 204 C419 85 352 20 256 20 C172 20 129 71 136 160 C138 189 145 214 151 240 L228 602 C230 612 222 620 209 620 C194 620 180 610 177 598 L87 173 C83 154 82 130 85 107 L85 107 Z M153 -102 C145 -142 169 -170 212 -170 C254 -170 295 -141 302 -106 C306 -89 299 -80 282 -80 C243 -80 259 -130 225 -130 C208 -130 200 -117 204 -97 L215 -49 C224 -4 268 -32 275 -1 C278 13 269 20 250 20 C211 20 172 -12 164 -52 L153 -102 Z " />
<glyph glyph-name="uogonek" unicode="&#x173;" horiz-adv-x="400" d="M305 20 L208 20 C151 20 124 53 127 114 C129 150 142 192 150 232 L187 402 C189 412 180 420 167 420 C152 420 138 410 136 398 L77 123 C74 110 75 91 77 75 C84 12 125 -20 195 -20 L320 -20 C335 -20 349 -10 352 2 L437 402 C439 412 430 420 417 420 C402 420 388 410 386 398 L305 20 Z M104 -102 C96 -142 120 -170 163 -170 C205 -170 246 -141 253 -106 C257 -89 250 -80 233 -80 C194 -80 210 -130 176 -130 C159 -130 151 -117 155 -97 L166 -49 C175 -4 219 -32 226 -1 C229 13 220 20 201 20 C162 20 123 -12 115 -52 L104 -102 Z " />
<glyph glyph-name="Wcircumflex" unicode="&#x174;" horiz-adv-x="700" d="M244 85 L203 606 C203 614 194 620 184 620 C173 620 155 612 154 607 C152 598 183 233 198 20 C200 -8 207 -20 220 -20 C232 -20 243 -13 248 -4 L417 318 L450 -7 C451 -15 458 -20 469 -20 C483 -20 495 -8 507 16 C652 303 803 602 805 610 C806 614 794 620 784 620 C772 620 759 613 754 603 L493 85 L461 407 C459 415 452 420 441 420 C428 420 417 414 412 404 L244 85 Z M507 743 L551 686 C554 682 559 680 566 680 C581 680 596 690 599 702 C600 707 599 711 597 714 L538 789 C534 793 529 795 521 795 C512 795 504 792 498 787 L407 712 C404 709 399 702 398 697 C396 687 404 680 418 680 C426 680 434 683 440 688 L507 743 Z " />
<glyph glyph-name="wcircumflex" unicode="&#x175;" horiz-adv-x="550" d="M195 78 L162 407 C160 415 153 420 142 420 C131 420 114 412 113 407 C110 394 146 14 151 -9 C153 -16 160 -20 169 -20 C182 -20 193 -13 199 -3 L325 223 L351 -7 C352 -15 359 -20 370 -20 C383 -20 392 -13 403 3 C413 19 431 56 443 78 C461 114 609 388 613 407 C614 414 603 420 591 420 C579 420 568 413 563 404 L393 81 L369 307 C368 315 361 320 350 320 C338 320 327 314 321 304 L195 79 L195 78 Z M395 568 L439 511 C442 507 447 505 454 505 C469 505 484 515 487 527 C488 532 487 536 485 539 L426 614 C422 618 417 620 409 620 C400 620 392 617 386 612 L295 537 C292 534 287 527 286 522 C284 512 292 505 306 505 C314 505 322 508 328 513 L395 568 Z " />
<glyph glyph-name="Ycircumflex" unicode="&#x176;" horiz-adv-x="444" d="M283 392 L200 -2 C197 -12 206 -20 219 -20 C234 -20 248 -10 250 2 L334 395 L539 590 C543 593 546 598 547 603 C549 613 541 620 528 620 C519 620 510 616 504 610 L318 435 L200 613 C198 617 192 620 185 620 C170 620 155 610 152 599 C151 594 152 590 155 587 L283 392 Z M379 743 L423 686 C426 682 431 680 438 680 C453 680 468 690 471 702 C472 707 471 711 469 714 L410 789 C406 793 401 795 393 795 C384 795 376 792 370 787 L279 712 C276 709 271 702 270 697 C268 687 276 680 290 680 C298 680 306 683 312 688 L379 743 Z " />
<glyph glyph-name="ycircumflex" unicode="&#x177;" horiz-adv-x="350" d="M194 76 C181 224 162 400 159 412 C158 417 151 420 142 420 C130 420 113 413 112 407 C109 396 145 8 150 -7 C149 -8 150 -8 150 -9 L143 -24 C124 -62 104 -109 73 -146 C54 -169 36 -179 17 -180 C-1 -181 -15 -190 -18 -202 C-20 -214 -11 -220 9 -220 C60 -220 115 -176 152 -103 L408 397 C412 414 408 420 393 420 C379 420 367 413 362 403 L194 76 Z M295 568 L339 511 C342 507 347 505 354 505 C369 505 384 515 387 527 C388 532 387 536 385 539 L326 614 C322 618 317 620 309 620 C300 620 292 617 286 612 L195 537 C192 534 187 527 186 522 C184 512 192 505 206 505 C214 505 222 508 228 513 L295 568 Z " />
<glyph glyph-name="Ydieresis" unicode="&#x178;" horiz-adv-x="444" d="M283 392 L200 -2 C197 -12 206 -20 219 -20 C234 -20 248 -10 250 2 L334 395 L539 590 C543 593 546 598 547 603 C549 613 541 620 528 620 C519 620 510 616 504 610 L318 435 L200 613 C198 617 192 620 185 620 C170 620 155 610 152 599 C151 594 152 590 155 587 L283 392 Z M295 698 C293 688 301 680 314 680 C329 680 343 690 346 702 L362 777 C364 787 356 795 343 795 C328 795 314 785 311 773 L295 698 Z M395 698 C393 688 401 680 414 680 C429 680 443 690 446 702 L462 777 C464 787 456 795 443 795 C428 795 414 785 411 773 L395 698 Z " />
<glyph glyph-name="Zacute" unicode="&#x179;" horiz-adv-x="500" d="M54 7 C53 4 50 1 49 -3 C47 -13 56 -20 69 -20 L419 -20 C434 -20 448 -10 450 2 C453 12 444 20 431 20 L117 20 L573 593 C576 596 577 599 578 602 C580 612 572 620 559 620 L209 620 C194 620 180 610 177 598 C175 588 183 580 196 580 L510 580 L54 7 Z M372 697 C370 687 378 680 392 680 C400 680 408 683 414 688 L505 763 C510 767 513 772 514 777 C516 788 508 795 494 795 C486 795 478 792 472 787 L381 712 C377 709 373 702 372 697 L372 697 Z " />
<glyph glyph-name="zacute" unicode="&#x17a;" horiz-adv-x="350" d="M94 20 L406 392 C409 395 411 399 412 402 C414 412 405 420 392 420 L142 420 C127 420 113 410 111 398 C109 388 117 380 130 380 L343 380 L31 8 C28 5 26 1 26 -2 C24 -12 32 -20 45 -20 L295 -20 C309 -20 324 -9 327 2 C329 12 320 20 307 20 L94 20 Z M261 522 C259 512 267 505 281 505 C289 505 297 508 303 513 L394 588 C399 592 402 597 403 602 C405 613 397 620 383 620 C375 620 367 617 361 612 L270 537 C266 534 262 527 261 522 L261 522 Z " />
<glyph glyph-name="Zdotaccent" unicode="&#x17b;" horiz-adv-x="500" d="M54 7 C53 4 50 1 49 -3 C47 -13 56 -20 69 -20 L419 -20 C434 -20 448 -10 450 2 C453 12 444 20 431 20 L117 20 L573 593 C576 596 577 599 578 602 C580 612 572 620 559 620 L209 620 C194 620 180 610 177 598 C175 588 183 580 196 580 L510 580 L54 7 Z M373 698 C371 688 379 680 392 680 C407 680 421 690 424 702 L440 777 C442 787 434 795 421 795 C406 795 392 785 389 773 L373 698 Z " />
<glyph glyph-name="zdotaccent" unicode="&#x17c;" horiz-adv-x="350" d="M94 20 L406 392 C409 395 411 399 412 402 C414 412 405 420 392 420 L142 420 C127 420 113 410 111 398 C109 388 117 380 130 380 L343 380 L31 8 C28 5 26 1 26 -2 C24 -12 32 -20 45 -20 L295 -20 C309 -20 324 -9 327 2 C329 12 320 20 307 20 L94 20 Z M261 523 C259 513 267 505 280 505 C295 505 309 515 312 527 L328 602 C330 612 322 620 309 620 C294 620 280 610 277 598 L261 523 Z " />
<glyph glyph-name="Zcaron" unicode="&#x17d;" horiz-adv-x="500" d="M54 7 C53 4 50 1 49 -3 C47 -13 56 -20 69 -20 L419 -20 C434 -20 448 -10 450 2 C453 12 444 20 431 20 L117 20 L573 593 C576 596 577 599 578 602 C580 612 572 620 559 620 L209 620 C194 620 180 610 177 598 C175 588 183 580 196 580 L510 580 L54 7 Z M406 732 L363 789 C359 793 354 795 347 795 C332 795 317 785 314 774 C313 769 314 764 317 761 L376 686 C379 682 384 680 392 680 C401 680 409 683 415 688 L506 763 C511 767 514 772 515 777 C517 788 509 795 495 795 C487 795 479 792 473 787 L406 732 Z " />
<glyph glyph-name="zcaron" unicode="&#x17e;" horiz-adv-x="350" d="M94 20 L406 392 C409 395 411 399 412 402 C414 412 405 420 392 420 L142 420 C127 420 113 410 111 398 C109 388 117 380 130 380 L343 380 L31 8 C28 5 26 1 26 -2 C24 -12 32 -20 45 -20 L295 -20 C309 -20 324 -9 327 2 C329 12 320 20 307 20 L94 20 Z M294 557 L251 614 C247 618 242 620 235 620 C220 620 205 610 202 599 C201 594 202 589 205 586 L264 511 C267 507 272 505 280 505 C289 505 297 508 303 513 L394 588 C399 592 402 597 403 602 C405 613 397 620 383 620 C375 620 367 617 361 612 L294 557 Z " />
<glyph glyph-name="longs" unicode="&#x17f;" horiz-adv-x="200" d="M50 -2 C47 -12 56 -20 69 -20 C88 -20 105 23 126 122 C133 156 165 309 179 374 C201 481 209 509 226 532 C278 604 344 561 352 599 C355 613 346 620 322 620 C263 620 204 582 170 520 C160 503 153 486 151 473 L50 -2 Z " />
<glyph glyph-name="florin" unicode="&#x192;" horiz-adv-x="225" d="M156 380 L75 -2 C73 -12 81 -20 94 -20 C113 -20 129 17 146 99 C152 128 178 254 205 380 L279 380 C294 380 308 390 311 402 C313 412 304 420 291 420 L213 420 C216 434 219 448 219 448 C228 489 237 512 251 532 C302 604 369 561 377 599 C380 613 371 620 347 620 C288 620 229 582 195 520 C185 503 178 486 176 473 L164 420 L116 420 C101 420 87 410 85 398 C83 388 91 380 104 380 L156 380 Z M-93 -202 C-93 -214 -81 -220 -57 -220 C19 -220 89 -159 108 -77 C113 -55 125 -20 125 -3 C125 11 116 20 102 20 C88 20 78 11 73 -8 C69 -24 67 -51 58 -80 C39 -141 3 -174 -54 -179 C-80 -181 -93 -189 -93 -202 L-93 -202 Z " />
<glyph glyph-name="Aringacute" unicode="&#x1fa;" horiz-adv-x="500" d="M140 80 L393 79 L400 -6 C400 -14 409 -20 419 -20 C430 -20 447 -12 449 -7 C450 2 420 367 404 580 C402 608 396 620 383 620 C370 620 357 608 345 584 C200 297 50 -2 48 -10 C47 -14 59 -20 69 -20 C81 -20 93 -13 98 -3 L140 80 Z M161 120 L358 513 L389 119 L161 120 Z M297 696 C286 644 321 602 376 602 C433 602 489 646 501 700 C512 753 477 795 421 795 C364 795 308 750 297 696 L297 696 Z M389 642 C355 650 341 668 347 697 C354 730 380 755 408 755 C437 755 457 728 450 696 C447 685 442 675 436 667 C425 654 411 647 389 642 L389 642 Z M400 822 C398 812 406 805 420 805 C428 805 436 808 442 813 L533 888 C538 892 541 897 542 902 C544 913 536 920 522 920 C514 920 506 917 500 912 L409 837 C405 834 401 827 400 822 L400 822 Z " />
<glyph glyph-name="aringacute" unicode="&#x1fb;" horiz-adv-x="400" d="M380 380 L299 -2 C297 -12 305 -20 318 -20 C333 -20 347 -10 350 2 L435 402 C437 412 429 420 416 420 L291 420 C222 420 162 385 127 320 C117 303 110 286 108 273 L76 123 C72 105 73 80 77 60 C91 5 127 -20 198 -20 C231 -20 247 -14 250 1 C253 15 240 20 205 20 C162 20 138 38 128 77 C124 94 123 111 127 127 L158 277 C172 339 219 380 278 380 L380 380 Z M236 521 C225 469 260 427 315 427 C372 427 428 471 440 525 C451 578 416 620 360 620 C303 620 247 575 236 521 L236 521 Z M328 467 C294 475 280 493 286 522 C293 555 319 580 347 580 C376 580 396 553 389 521 C386 510 381 500 375 492 C364 479 350 472 328 467 L328 467 Z M345 647 C343 637 351 630 365 630 C373 630 381 633 387 638 L478 713 C483 717 486 722 487 727 C489 738 481 745 467 745 C459 745 451 742 445 737 L354 662 C350 659 346 652 345 647 L345 647 Z M380 380 L299 -2 C297 -12 305 -20 318 -20 C333 -20 347 -10 350 2 L435 402 C437 412 429 420 416 420 L291 420 C222 420 162 385 127 320 C117 303 110 286 108 273 L76 123 C72 105 73 80 77 60 C91 5 127 -20 198 -20 C231 -20 247 -14 250 1 C253 15 240 20 205 20 C162 20 138 38 128 77 C124 94 123 111 127 127 L158 277 C172 339 219 380 278 380 L380 380 Z M236 521 C225 469 260 427 315 427 C372 427 428 471 440 525 C451 578 416 620 360 620 C303 620 247 575 236 521 L236 521 Z M328 467 C294 475 280 493 286 522 C293 555 319 580 347 580 C376 580 396 553 389 521 C386 510 381 500 375 492 C364 479 350 472 328 467 L328 467 Z " />
<glyph glyph-name="AEacute" unicode="&#x1fc;" horiz-adv-x="625" d="M115 80 L297 80 C305 16 350 -20 419 -20 L544 -20 C559 -20 573 -10 575 2 C578 12 569 20 556 20 C517 20 479 20 479 20 C382 20 349 43 348 110 L365 380 L529 380 C544 380 558 390 560 402 C563 412 554 420 541 420 L367 420 L376 580 L671 580 C686 580 700 590 703 602 C705 612 697 620 684 620 L359 620 C347 620 333 612 329 602 C306 556 26 6 23 -10 C22 -14 34 -20 44 -20 C56 -20 68 -13 73 -3 L115 80 Z M136 120 L321 487 L299 120 L136 120 Z M398 697 C396 687 404 680 418 680 C426 680 434 683 440 688 L531 763 C536 767 539 772 540 777 C542 788 534 795 520 795 C512 795 504 792 498 787 L407 712 C403 709 399 702 398 697 L398 697 Z " />
<glyph glyph-name="aeacute" unicode="&#x1fd;" horiz-adv-x="627" d="M387 340 C374 320 363 295 359 277 L327 127 C324 114 324 97 326 80 C334 15 379 -20 448 -20 L498 -20 C511 -20 522 -12 525 -2 C528 13 513 20 480 20 C446 20 394 12 377 75 C373 92 373 108 376 123 L408 273 C423 342 476 380 557 380 C590 380 606 368 613 339 C616 326 616 312 613 298 C603 251 564 220 515 220 C491 220 448 228 443 203 C440 190 450 180 465 180 L515 180 C587 180 649 229 664 300 C680 375 632 420 538 420 C470 420 423 393 387 340 L387 340 Z M381 380 L358 273 C356 263 364 255 377 255 C392 255 406 265 409 277 L435 402 C438 412 429 420 416 420 L291 420 C222 420 163 385 127 320 C117 303 111 286 108 273 L76 123 C72 105 73 80 78 60 C91 5 128 -20 202 -20 C233 -20 247 -14 250 0 C253 15 241 20 205 20 C162 20 138 38 128 77 C124 94 124 111 127 127 L159 277 C172 339 220 380 279 380 L381 380 Z M386 522 C384 512 392 505 406 505 C414 505 422 508 428 513 L519 588 C524 592 527 597 528 602 C530 613 522 620 508 620 C500 620 492 617 486 612 L395 537 C391 534 387 527 386 522 L386 522 Z " />
<glyph glyph-name="Oslashacute" unicode="&#x1fe;" horiz-adv-x="500" d="M85 108 C96 24 149 -20 244 -20 C340 -20 415 25 461 110 C474 133 483 157 488 177 L541 427 C545 447 545 470 543 492 C533 576 479 620 384 620 C288 620 212 575 166 490 C153 467 144 443 140 423 L87 173 C83 153 82 130 85 108 L85 108 Z M437 174 C430 157 427 142 417 121 C384 56 327 20 255 20 C184 20 146 56 136 124 C134 142 134 161 138 177 L191 427 C194 443 201 461 212 481 C249 547 301 580 370 580 C456 580 500 528 492 437 C489 403 478 369 471 335 L437 174 Z M77 -110 C76 -115 87 -120 98 -120 C112 -120 125 -107 140 -78 C157 -46 548 694 551 710 C552 715 540 720 529 720 C515 720 502 707 487 678 C470 646 80 -94 77 -110 L77 -110 Z M373 697 C371 687 379 680 393 680 C401 680 409 683 415 688 L506 763 C511 767 514 772 515 777 C517 788 509 795 495 795 C487 795 479 792 473 787 L382 712 C378 709 374 702 373 697 L373 697 Z " />
<glyph glyph-name="oslashacute" unicode="&#x1ff;" horiz-adv-x="400" d="M76 77 C84 13 124 -20 192 -20 C264 -20 319 18 360 82 C367 94 375 114 378 127 L410 277 C428 360 377 420 291 420 C222 420 168 381 128 318 C120 306 112 287 109 273 L77 123 C75 111 74 94 76 77 L76 77 Z M160 276 C182 346 220 380 276 380 C339 380 373 337 359 273 L327 124 C314 61 266 20 206 20 C153 20 123 52 126 108 C127 133 134 157 139 180 L160 276 Z M63 -58 C61 -64 73 -70 85 -70 C95 -70 104 -65 113 -54 C121 -43 128 -28 135 -17 L188 69 C229 136 289 233 335 309 C376 378 420 449 422 458 C424 464 413 470 401 470 C390 470 381 465 373 454 C364 443 357 428 350 417 L297 331 C256 264 197 167 150 91 C109 22 65 -49 63 -58 L63 -58 Z M286 522 C284 512 292 505 306 505 C314 505 322 508 328 513 L419 588 C424 592 427 597 428 602 C430 613 422 620 408 620 C400 620 392 617 386 612 L295 537 C291 534 287 527 286 522 L286 522 Z " />
<glyph glyph-name="uni0218" unicode="&#x218;" horiz-adv-x="500" d="M85 108 C96 24 149 -20 244 -20 C340 -20 415 25 461 110 C474 133 483 157 488 178 C495 211 492 250 481 281 C458 341 402 370 309 370 C262 370 236 386 227 425 C223 442 223 461 226 477 C230 494 239 512 249 528 C274 566 303 580 360 580 C425 580 460 564 472 526 C478 507 476 492 475 482 C476 464 481 456 494 456 C510 456 524 467 528 483 C531 497 528 521 522 541 C506 595 461 620 379 620 C293 620 243 595 204 537 C191 517 180 493 176 475 C173 462 172 444 175 427 C185 360 223 330 309 330 C332 330 352 327 366 323 C421 307 452 244 437 176 C433 157 425 137 414 118 C376 52 326 20 258 20 C185 20 139 57 135 123 C134 145 137 161 138 172 C138 188 132 195 119 195 C102 195 89 183 85 165 C82 152 82 128 85 108 L85 108 Z M241 -20 C220 -66 197 -111 184 -140 C171 -170 160 -189 157 -200 C155 -212 163 -220 177 -220 C189 -220 200 -213 206 -202 C220 -177 299 -7 301 6 C303 13 293 20 281 20 L231 20 C216 20 202 10 199 -3 C195 -24 226 -20 241 -20 L241 -20 Z " />
<glyph glyph-name="uni0219" unicode="&#x219;" horiz-adv-x="376" d="M181 -20 C260 -20 334 37 350 111 C353 127 354 144 351 161 C343 217 306 245 239 245 C226 245 217 246 211 248 C186 256 173 284 181 318 C189 356 218 380 257 380 L269 380 C315 380 332 364 330 326 C329 303 334 293 348 293 C364 293 378 306 382 326 C391 365 365 406 327 416 C311 420 293 420 293 420 C222 420 179 403 150 358 C140 341 132 324 129 311 C125 293 127 271 134 252 C167 161 276 248 299 156 C303 141 303 125 299 109 C288 56 244 20 192 20 C144 20 118 52 123 102 C124 123 119 133 106 133 C88 133 75 119 70 94 C57 32 107 -20 181 -20 L181 -20 Z M191 -20 C170 -66 147 -111 134 -140 C121 -170 110 -189 107 -200 C105 -212 113 -220 127 -220 C139 -220 150 -213 156 -202 C170 -177 249 -7 251 6 C253 13 243 20 231 20 L181 20 C166 20 152 10 149 -3 C145 -24 176 -20 191 -20 L191 -20 Z " />
<glyph glyph-name="uni021A" unicode="&#x21a;" horiz-adv-x="450" d="M323 580 L200 -2 C197 -12 206 -20 219 -20 C234 -20 248 -10 250 2 L373 580 L521 580 C536 580 550 590 553 602 C555 612 547 620 534 620 L184 620 C169 620 155 610 152 598 C150 588 158 580 171 580 L323 580 Z M216 -20 C195 -66 172 -111 159 -140 C146 -170 135 -189 132 -200 C130 -212 138 -220 152 -220 C164 -220 175 -213 181 -202 C195 -177 274 -7 276 6 C278 13 268 20 256 20 L206 20 C191 20 177 10 174 -3 C170 -24 201 -20 216 -20 L216 -20 Z " />
<glyph glyph-name="uni021B" unicode="&#x21b;" horiz-adv-x="300" d="M182 380 L127 123 C124 110 125 91 127 75 C133 15 172 -20 230 -20 C258 -20 274 -12 277 4 C284 38 202 -2 180 73 C171 104 179 131 186 165 L232 380 L330 380 C345 380 359 390 362 402 C364 412 355 420 342 420 L240 420 L258 502 C260 512 252 520 239 520 C224 520 210 510 207 498 L190 420 L142 420 C127 420 113 410 111 398 C109 388 117 380 130 380 L182 380 Z M258 -20 C237 -66 214 -111 201 -140 C188 -170 177 -189 174 -200 C172 -212 180 -220 194 -220 C206 -220 217 -213 223 -202 C237 -177 316 -7 318 6 C320 13 310 20 298 20 L248 20 C233 20 219 10 216 -3 C212 -24 243 -20 258 -20 L258 -20 Z " />
<glyph glyph-name="uni0237" unicode="&#x237;" horiz-adv-x="175" d="M-92 -199 C-95 -213 -86 -220 -62 -220 C-3 -220 56 -182 90 -120 C100 -103 107 -86 109 -73 L210 402 C213 412 204 420 191 420 C172 420 155 377 134 279 C127 245 96 92 82 27 C59 -81 51 -109 34 -132 C-18 -204 -84 -161 -92 -199 L-92 -199 Z " />
<glyph glyph-name="circumflex" unicode="&#x2c6;" horiz-adv-x="250" d="M245 568 L289 511 C292 507 297 505 304 505 C319 505 334 515 337 527 C338 532 337 536 335 539 L276 614 C272 618 267 620 259 620 C250 620 242 617 236 612 L145 537 C142 534 137 527 136 522 C134 512 142 505 156 505 C164 505 172 508 178 513 L245 568 Z " />
<glyph glyph-name="caron" unicode="&#x2c7;" horiz-adv-x="250" d="M244 557 L201 614 C197 618 192 620 185 620 C170 620 155 610 152 599 C151 594 152 589 155 586 L214 511 C217 507 222 505 230 505 C239 505 247 508 253 513 L344 588 C349 592 352 597 353 602 C355 613 347 620 333 620 C325 620 317 617 311 612 L244 557 Z " />
<glyph glyph-name="uni02C9" unicode="&#x2c9;" horiz-adv-x="225" d="M142 548 C142 538 152 530 165 530 L290 530 C305 530 317 540 317 552 C317 562 307 570 294 570 L169 570 C154 570 142 560 142 548 L142 548 Z " />
<glyph glyph-name="breve" unicode="&#x2d8;" horiz-adv-x="250" d="M150 586 C140 541 174 505 227 505 C284 505 341 544 350 590 C355 610 349 620 333 620 C318 620 305 608 296 585 C286 558 268 545 242 545 C218 545 202 560 203 581 C203 608 198 620 185 620 C168 620 154 607 150 586 L150 586 Z " />
<glyph glyph-name="dotaccent" unicode="&#x2d9;" horiz-adv-x="150" d="M161 523 C159 513 167 505 180 505 C195 505 209 515 212 527 L228 602 C230 612 222 620 209 620 C194 620 180 610 177 598 L161 523 Z " />
<glyph glyph-name="ring" unicode="&#x2da;" horiz-adv-x="253" d="M136 521 C125 469 160 427 215 427 C272 427 328 471 340 525 C351 578 316 620 260 620 C203 620 147 575 136 521 L136 521 Z M228 467 C194 475 180 493 186 522 C193 555 219 580 247 580 C276 580 296 553 289 521 C286 510 281 500 275 492 C264 479 250 472 228 467 L228 467 Z " />
<glyph glyph-name="ogonek" unicode="&#x2db;" horiz-adv-x="200" d="M3 -102 C-5 -142 19 -170 62 -170 C104 -170 145 -141 152 -106 C156 -89 149 -80 132 -80 C93 -80 109 -130 75 -130 C58 -130 50 -117 54 -97 L65 -49 C74 -4 118 -32 125 -1 C128 13 119 20 100 20 C61 20 22 -12 14 -52 L3 -102 Z " />
<glyph glyph-name="tilde" unicode="&#x2dc;" horiz-adv-x="300" d="M138 531 C134 514 141 505 158 505 C197 505 181 555 214 555 C247 555 247 505 304 505 C347 505 389 534 396 569 C400 586 392 595 375 595 C336 595 353 545 320 545 C287 545 286 595 229 595 C186 595 145 566 138 531 L138 531 Z " />
<glyph glyph-name="hungarumlaut" unicode="&#x2dd;" horiz-adv-x="175" d="M136 522 C134 512 142 505 156 505 C164 505 172 508 178 513 L269 588 C274 592 277 597 278 602 C280 613 272 620 258 620 C250 620 242 617 236 612 L145 537 C141 534 137 527 136 522 L136 522 Z M311 522 C309 512 317 505 331 505 C339 505 347 508 353 513 L444 588 C449 592 452 597 453 602 C455 613 447 620 433 620 C425 620 417 617 411 612 L320 537 C316 534 312 527 311 522 L311 522 Z " />
<glyph glyph-name="gravecomb" unicode="&#x300;" horiz-adv-x="175" d="M213 511 C216 507 222 505 229 505 C244 505 259 515 262 527 C263 532 262 536 259 539 L200 614 C197 618 192 620 185 620 C170 620 154 610 152 599 C151 594 152 589 154 586 L213 511 Z " />
<glyph glyph-name="acutecomb" unicode="&#x301;" horiz-adv-x="175" d="M136 522 C134 512 142 505 156 505 C164 505 172 508 178 513 L269 588 C274 592 277 597 278 602 C280 613 272 620 258 620 C250 620 242 617 236 612 L145 537 C141 534 137 527 136 522 L136 522 Z " />
<glyph glyph-name="uni0302" unicode="&#x302;" horiz-adv-x="250" d="M245 568 L289 511 C292 507 297 505 304 505 C319 505 334 515 337 527 C338 532 337 536 335 539 L276 614 C272 618 267 620 259 620 C250 620 242 617 236 612 L145 537 C142 534 137 527 136 522 C134 512 142 505 156 505 C164 505 172 508 178 513 L245 568 Z " />
<glyph glyph-name="tildecomb" unicode="&#x303;" horiz-adv-x="300" d="M138 531 C134 514 141 505 158 505 C197 505 181 555 214 555 C247 555 247 505 304 505 C347 505 389 534 396 569 C400 586 392 595 375 595 C336 595 353 545 320 545 C287 545 286 595 229 595 C186 595 145 566 138 531 L138 531 Z " />
<glyph glyph-name="uni0304" unicode="&#x304;" horiz-adv-x="250" d="M142 548 C139 538 148 530 161 530 L311 530 C326 530 340 540 342 552 C344 562 336 570 323 570 L173 570 C158 570 144 560 142 548 L142 548 Z " />
<glyph glyph-name="uni0306" unicode="&#x306;" horiz-adv-x="250" d="M150 586 C140 541 174 505 227 505 C284 505 341 544 350 590 C355 610 349 620 333 620 C318 620 305 608 296 585 C286 558 268 545 242 545 C218 545 202 560 203 581 C203 608 198 620 185 620 C168 620 154 607 150 586 L150 586 Z " />
<glyph glyph-name="uni0307" unicode="&#x307;" horiz-adv-x="150" d="M161 523 C159 513 167 505 180 505 C195 505 209 515 212 527 L228 602 C230 612 222 620 209 620 C194 620 180 610 177 598 L161 523 Z " />
<glyph glyph-name="uni0308" unicode="&#x308;" horiz-adv-x="200" d="M136 523 C134 513 142 505 155 505 C170 505 184 515 187 527 L203 602 C205 612 197 620 184 620 C169 620 155 610 152 598 L136 523 Z M236 523 C234 513 242 505 255 505 C270 505 284 515 287 527 L303 602 C305 612 297 620 284 620 C269 620 255 610 252 598 L236 523 Z " />
<glyph glyph-name="uni030A" unicode="&#x30a;" horiz-adv-x="253" d="M136 521 C125 469 160 427 215 427 C272 427 328 471 340 525 C351 578 316 620 260 620 C203 620 147 575 136 521 L136 521 Z M228 467 C194 475 180 493 186 522 C193 555 219 580 247 580 C276 580 296 553 289 521 C286 510 281 500 275 492 C264 479 250 472 228 467 L228 467 Z " />
<glyph glyph-name="uni030B" unicode="&#x30b;" horiz-adv-x="175" d="M136 522 C134 512 142 505 156 505 C164 505 172 508 178 513 L269 588 C274 592 277 597 278 602 C280 613 272 620 258 620 C250 620 242 617 236 612 L145 537 C141 534 137 527 136 522 L136 522 Z M311 522 C309 512 317 505 331 505 C339 505 347 508 353 513 L444 588 C449 592 452 597 453 602 C455 613 447 620 433 620 C425 620 417 617 411 612 L320 537 C316 534 312 527 311 522 L311 522 Z " />
<glyph glyph-name="uni030C" unicode="&#x30c;" horiz-adv-x="250" d="M244 557 L201 614 C197 618 192 620 185 620 C170 620 155 610 152 599 C151 594 152 589 155 586 L214 511 C217 507 222 505 230 505 C239 505 247 508 253 513 L344 588 C349 592 352 597 353 602 C355 613 347 620 333 620 C325 620 317 617 311 612 L244 557 Z " />
<glyph glyph-name="uni0312" unicode="&#x312;" horiz-adv-x="150" d="M219 580 C198 534 175 489 162 460 C149 430 138 411 135 400 C133 388 141 380 155 380 C167 380 178 387 184 398 C198 423 277 593 279 606 C281 613 271 620 259 620 L209 620 C194 620 180 610 177 597 C173 576 204 580 219 580 L219 580 Z " />
<glyph glyph-name="uni0315" unicode="&#x315;" horiz-adv-x="333" d="M298 580 C277 534 254 489 241 460 C228 430 217 411 214 400 C212 388 220 380 234 380 C246 380 257 387 263 398 C277 423 356 593 358 606 C360 613 350 620 338 620 L288 620 C273 620 259 610 256 597 C252 576 283 580 298 580 L298 580 Z " />
<glyph glyph-name="uni0326" unicode="&#x326;" horiz-adv-x="175" d="M91 -20 C70 -66 47 -111 34 -140 C21 -170 10 -189 7 -200 C5 -212 13 -220 27 -220 C39 -220 50 -213 56 -202 C70 -177 149 -7 151 6 C153 13 143 20 131 20 L81 20 C66 20 52 10 49 -3 C45 -24 76 -20 91 -20 L91 -20 Z " />
<glyph glyph-name="uni0327" unicode="&#x327;" horiz-adv-x="150" d="M1 -111 C-6 -144 22 -170 62 -170 C106 -170 145 -139 154 -98 L165 -48 C173 -10 150 20 113 20 C92 20 77 11 74 -4 C68 -33 124 -5 114 -53 L103 -101 C100 -119 87 -130 70 -130 C34 -130 73 -80 37 -80 C19 -80 5 -92 1 -111 L1 -111 Z " />
<glyph glyph-name="uni0328" unicode="&#x328;" horiz-adv-x="200" d="M3 -102 C-5 -142 19 -170 62 -170 C104 -170 145 -141 152 -106 C156 -89 149 -80 132 -80 C93 -80 109 -130 75 -130 C58 -130 50 -117 54 -97 L65 -49 C74 -4 118 -32 125 -1 C128 13 119 20 100 20 C61 20 22 -12 14 -52 L3 -102 Z " />
<glyph glyph-name="uni0344" unicode="&#x344;" horiz-adv-x="300" d="M252 597 C250 587 258 580 272 580 C280 580 288 583 294 588 L385 663 C390 667 393 672 394 677 C396 688 388 695 374 695 C366 695 358 692 352 687 L261 612 C257 609 253 602 252 597 L252 597 Z M331 501 C331 488 340 480 355 480 C368 480 378 489 382 505 C384 514 392 536 392 549 C392 562 383 570 369 570 C355 570 345 562 341 545 C339 536 331 514 331 501 L331 501 Z M131 501 C131 488 140 479 155 479 C168 479 178 488 182 504 C184 513 192 535 192 548 C192 561 183 570 169 570 C155 570 145 562 141 545 C139 536 131 514 131 501 L131 501 Z " />
<glyph glyph-name="uni0374" unicode="&#x374;" horiz-adv-x="221" d="M159 522 C157 512 165 505 179 505 C187 505 195 508 201 513 L292 588 C297 592 300 597 301 602 C303 613 295 620 281 620 C273 620 265 617 259 612 L168 537 C164 534 160 527 159 522 L159 522 Z " />
<glyph glyph-name="uni0375" unicode="&#x375;" horiz-adv-x="221" d="M114 -20 C93 -66 70 -111 57 -140 C44 -170 33 -189 30 -200 C28 -212 36 -220 50 -220 C62 -220 73 -213 79 -202 C93 -177 172 -7 174 6 C176 13 166 20 154 20 L104 20 C89 20 75 10 72 -3 C68 -24 99 -20 114 -20 L114 -20 Z " />
<glyph glyph-name="uni037E" unicode="&#x37e;" horiz-adv-x="200" d="M91 -20 C70 -66 47 -111 34 -140 C21 -170 10 -189 7 -200 C5 -212 13 -220 27 -220 C39 -220 50 -213 56 -202 C70 -177 149 -7 151 6 C153 13 143 20 131 20 L81 20 C66 20 52 10 49 -3 C45 -24 76 -20 91 -20 L91 -20 Z M148 348 C145 338 154 330 167 330 C182 330 196 340 198 352 L214 427 C216 437 208 445 195 445 C180 445 166 435 164 423 L148 348 Z " />
<glyph glyph-name="tonos" unicode="&#x384;" horiz-adv-x="175" d="M136 522 C134 512 142 505 156 505 C164 505 172 508 178 513 L269 588 C274 592 277 597 278 602 C280 613 272 620 258 620 C250 620 242 617 236 612 L145 537 C141 534 137 527 136 522 L136 522 Z " />
<glyph glyph-name="dieresistonos" unicode="&#x385;" horiz-adv-x="200" d="M202 597 C200 587 208 580 222 580 C230 580 238 583 244 588 L335 663 C340 667 343 672 344 677 C346 688 338 695 324 695 C316 695 308 692 302 687 L211 612 C207 609 203 602 202 597 L202 597 Z M281 498 C279 488 287 480 300 480 C315 480 329 490 332 502 L342 552 C344 562 336 570 323 570 C308 570 294 560 292 548 L281 498 Z M81 498 C79 488 87 480 100 480 C115 480 129 490 132 502 L142 552 C144 562 136 570 123 570 C108 570 94 560 92 548 L81 498 Z " />
<glyph glyph-name="Alphatonos" unicode="&#x386;" horiz-adv-x="500" d="M140 80 L393 79 L400 -6 C400 -14 409 -20 419 -20 C430 -20 447 -12 449 -7 C450 2 420 367 404 580 C402 608 396 620 383 620 C370 620 357 608 345 584 C200 297 50 -2 48 -10 C47 -14 59 -20 69 -20 C81 -20 93 -13 98 -3 L140 80 Z M161 120 L358 513 L389 119 L161 120 Z M373 697 C371 687 379 680 393 680 C401 680 409 683 415 688 L506 763 C511 767 514 772 515 777 C517 788 509 795 495 795 C487 795 479 792 473 787 L382 712 C378 709 374 702 373 697 L373 697 Z " />
<glyph glyph-name="anoteleia" unicode="&#x387;" horiz-adv-x="200" d="M102 248 C97 224 114 205 141 205 C169 205 198 226 203 252 C208 276 191 295 164 295 C136 295 108 274 102 248 L102 248 Z " />
<glyph glyph-name="Epsilontonos" unicode="&#x388;" horiz-adv-x="450" d="M181 380 L329 380 C344 380 358 390 360 402 C363 412 354 420 341 420 L189 420 L223 580 L496 580 C511 580 525 590 528 602 C530 612 522 620 509 620 L209 620 C194 620 180 610 177 598 L66 73 C54 19 87 -20 144 -20 L369 -20 C384 -20 398 -10 400 2 C403 12 394 20 381 20 C314 20 246 20 246 20 C128 20 106 30 117 78 L181 380 Z M348 697 C346 687 354 680 368 680 C376 680 384 683 390 688 L481 763 C486 767 489 772 490 777 C492 788 484 795 470 795 C462 795 454 792 448 787 L357 712 C353 709 349 702 348 697 L348 697 Z " />
<glyph glyph-name="Etatonos" unicode="&#x389;" horiz-adv-x="500" d="M181 380 L481 380 L400 -2 C397 -12 406 -20 419 -20 C434 -20 448 -10 450 2 L578 602 C580 612 572 620 559 620 C544 620 530 610 527 598 L489 420 L189 420 L228 602 C230 612 222 620 209 620 C194 620 180 610 177 598 L50 -2 C47 -12 56 -20 69 -20 C84 -20 98 -10 100 2 L181 380 Z M373 697 C371 687 379 680 393 680 C401 680 409 683 415 688 L506 763 C511 767 514 772 515 777 C517 788 509 795 495 795 C487 795 479 792 473 787 L382 712 C378 709 374 702 373 697 L373 697 Z " />
<glyph glyph-name="Iotatonos" unicode="&#x38a;" horiz-adv-x="150" d="M50 -2 C47 -12 56 -20 69 -20 C84 -20 98 -10 100 2 L228 602 C230 612 222 620 209 620 C194 620 180 610 177 598 L50 -2 Z M198 697 C196 687 204 680 218 680 C226 680 234 683 240 688 L331 763 C336 767 339 772 340 777 C342 788 334 795 320 795 C312 795 304 792 298 787 L207 712 C203 709 199 702 198 697 L198 697 Z " />
<glyph glyph-name="Omicrontonos" unicode="&#x38c;" horiz-adv-x="500" d="M85 108 C96 24 149 -20 244 -20 C340 -20 415 25 461 110 C474 133 483 157 488 177 L541 427 C545 447 545 470 543 492 C533 576 479 620 384 620 C288 620 212 575 166 490 C153 467 144 443 140 423 L87 173 C83 153 82 130 85 108 L85 108 Z M437 174 C430 157 427 142 417 121 C384 56 327 20 255 20 C184 20 146 56 136 124 C134 142 134 161 138 177 L191 427 C194 443 201 461 212 481 C249 547 301 580 370 580 C456 580 500 528 492 437 C489 403 478 369 471 335 L437 174 Z M373 697 C371 687 379 680 393 680 C401 680 409 683 415 688 L506 763 C511 767 514 772 515 777 C517 788 509 795 495 795 C487 795 479 792 473 787 L382 712 C378 709 374 702 373 697 L373 697 Z " />
<glyph glyph-name="Upsilontonos" unicode="&#x38e;" horiz-adv-x="444" d="M283 392 L200 -2 C197 -12 206 -20 219 -20 C234 -20 248 -10 250 2 L334 395 L539 590 C543 593 546 598 547 603 C549 613 541 620 528 620 C519 620 510 616 504 610 L318 435 L200 613 C198 617 192 620 185 620 C170 620 155 610 152 599 C151 594 152 590 155 587 L283 392 Z M348 697 C346 687 354 680 368 680 C376 680 384 683 390 688 L481 763 C486 767 489 772 490 777 C492 788 484 795 470 795 C462 795 454 792 448 787 L357 712 C353 709 349 702 348 697 L348 697 Z " />
<glyph glyph-name="Omegatonos" unicode="&#x38f;" horiz-adv-x="550" d="M412 20 C504 176 566 310 583 391 C590 422 590 448 587 475 C575 570 516 620 413 620 C307 620 217 569 165 474 C150 447 138 416 132 386 C115 308 120 177 145 20 L81 20 C67 20 52 10 50 -1 C47 -12 56 -20 69 -20 L169 -20 C184 -20 198 -10 200 2 C201 4 201 6 195 50 C174 192 167 315 182 385 C203 484 270 561 350 575 C367 578 381 578 396 580 C411 578 426 578 442 575 C518 561 552 482 531 382 C516 312 457 188 376 46 C350 2 350 0 350 -2 C347 -12 356 -20 369 -20 L469 -20 C483 -20 498 -10 500 1 C503 12 494 20 481 20 L412 20 Z M398 697 C396 687 404 680 418 680 C426 680 434 683 440 688 L531 763 C536 767 539 772 540 777 C542 788 534 795 520 795 C512 795 504 792 498 787 L407 712 C403 709 399 702 398 697 L398 697 Z " />
<glyph glyph-name="iotadieresistonos" unicode="&#x390;" horiz-adv-x="175" d="M177 597 C175 587 183 580 197 580 C205 580 213 583 219 588 L310 663 C315 667 318 672 319 677 C321 688 313 695 299 695 C291 695 283 692 277 687 L186 612 C182 609 178 602 177 597 L177 597 Z M256 498 C254 488 262 480 275 480 C290 480 304 490 307 502 L317 552 C319 562 311 570 298 570 C283 570 269 560 267 548 L256 498 Z M56 498 C54 488 62 480 75 480 C90 480 104 490 107 502 L117 552 C119 562 111 570 98 570 C83 570 69 560 67 548 L56 498 Z M125 56 C113 95 134 158 142 198 L185 402 C188 412 179 420 166 420 C151 420 137 410 135 398 L71 98 C57 32 95 -20 157 -20 C182 -20 198 -11 201 4 C207 35 140 2 125 56 L125 56 Z " />
<glyph glyph-name="Alpha" unicode="&#x391;" horiz-adv-x="500" d="M140 80 L393 79 L400 -6 C400 -14 409 -20 419 -20 C430 -20 447 -12 449 -7 C450 2 420 367 404 580 C402 608 396 620 383 620 C370 620 357 608 345 584 C200 297 50 -2 48 -10 C47 -14 59 -20 69 -20 C81 -20 93 -13 98 -3 L140 80 Z M161 120 L358 513 L389 119 L161 120 Z " />
<glyph glyph-name="Beta" unicode="&#x392;" horiz-adv-x="500" d="M170 330 L293 330 C299 330 303 330 309 330 C316 330 323 330 323 330 C425 330 460 280 436 168 C417 81 371 30 301 21 C272 17 238 20 221 20 C194 20 178 12 175 -2 C172 -12 181 -20 194 -20 L269 -20 C376 -20 461 52 485 163 C491 195 501 240 492 280 C482 320 454 349 415 362 C457 388 492 432 501 473 C504 491 505 511 500 529 C487 588 440 620 359 620 L209 620 C194 620 180 610 177 598 L50 -2 C47 -12 56 -20 69 -20 C84 -20 98 -10 100 2 L170 330 Z M179 370 L223 580 L345 580 C420 580 464 535 450 472 C438 412 380 371 307 370 L179 370 Z " />
<glyph glyph-name="Gamma" unicode="&#x393;" horiz-adv-x="425" d="M51 2 C51 -13 57 -20 71 -20 C86 -20 97 -13 99 -2 L223 580 L501 580 C516 580 528 590 528 602 C528 612 518 620 505 620 L205 620 C192 620 181 613 179 602 L51 2 Z " />
<glyph glyph-name="uni0394" unicode="&#x394;" horiz-adv-x="450" d="M25 -2 C25 -12 35 -20 48 -20 L398 -20 C413 -20 425 -10 425 2 L425 4 L378 604 C377 613 367 620 355 620 C344 620 335 615 330 606 L27 6 C26 4 25 1 25 -2 L25 -2 Z M86 20 L335 513 L373 20 L86 20 Z " />
<glyph glyph-name="Epsilon" unicode="&#x395;" horiz-adv-x="450" d="M181 380 L329 380 C344 380 358 390 360 402 C363 412 354 420 341 420 L189 420 L223 580 L496 580 C511 580 525 590 528 602 C530 612 522 620 509 620 L209 620 C194 620 180 610 177 598 L66 73 C54 19 87 -20 144 -20 L369 -20 C384 -20 398 -10 400 2 C403 12 394 20 381 20 C314 20 246 20 246 20 C128 20 106 30 117 78 L181 380 Z " />
<glyph glyph-name="Zeta" unicode="&#x396;" horiz-adv-x="500" d="M54 7 C53 4 50 1 49 -3 C47 -13 56 -20 69 -20 L419 -20 C434 -20 448 -10 450 2 C453 12 444 20 431 20 L117 20 L573 593 C576 596 577 599 578 602 C580 612 572 620 559 620 L209 620 C194 620 180 610 177 598 C175 588 183 580 196 580 L510 580 L54 7 Z " />
<glyph glyph-name="Eta" unicode="&#x397;" horiz-adv-x="500" d="M181 380 L481 380 L400 -2 C397 -12 406 -20 419 -20 C434 -20 448 -10 450 2 L578 602 C580 612 572 620 559 620 C544 620 530 610 527 598 L489 420 L189 420 L228 602 C230 612 222 620 209 620 C194 620 180 610 177 598 L50 -2 C47 -12 56 -20 69 -20 C84 -20 98 -10 100 2 L181 380 Z " />
<glyph glyph-name="Theta" unicode="&#x398;" horiz-adv-x="500" d="M85 108 C96 24 149 -20 244 -20 C340 -20 415 25 461 110 C474 133 483 157 488 177 L541 427 C545 447 545 470 543 492 C533 576 479 620 384 620 C288 620 212 575 166 490 C153 467 144 443 140 423 L87 173 C83 153 82 130 85 108 L85 108 Z M437 174 C430 157 427 142 417 121 C384 56 327 20 255 20 C184 20 146 56 136 124 C134 142 134 161 138 177 L191 427 C194 443 201 461 212 481 C249 547 301 580 370 580 C456 580 500 528 492 437 C489 403 478 369 471 335 L437 174 Z M189 298 C187 288 195 280 208 280 L408 280 C423 280 437 290 440 302 C442 312 433 320 420 320 L220 320 C205 320 191 310 189 298 L189 298 Z " />
<glyph glyph-name="Iota" unicode="&#x399;" horiz-adv-x="150" d="M50 -2 C47 -12 56 -20 69 -20 C84 -20 98 -10 100 2 L228 602 C230 612 222 620 209 620 C194 620 180 610 177 598 L50 -2 Z " />
</font>
</svg>
