<?xml version="1.0" encoding="UTF-8"?>
<svg xmlns="http://www.w3.org/2000/svg" xmlns:xlink="http://www.w3.org/1999/xlink" version="1.2" >
<font id="GAP Bold">
<font-face  font-family="GAP" units-per-em="1000" ascent="750" descent="-250" font-style="normal" font-weight="700" font-stretch="normal" cap-height="625" x-height="425" underline-position="-100" underline-thickness="50" />
<missing-glyph  horiz-adv-x="500" d="M79 -38 C80 -38 81 -39 83 -39 C84 -39 85 -40 86 -40 C87 -40 86 -40 87 -40 C88 -40 89 -40 90 -40 C91 -40 90 -40 91 -40 C92 -40 94 -41 95 -41 L395 -41 C424 -41 450 -19 450 4 L450 604 C450 605 450 605 450 606 C449 621 439 632 421 638 C420 638 419 639 417 639 C416 639 415 640 414 640 C413 640 414 640 413 640 C412 640 411 640 410 640 C409 640 410 640 409 640 C408 640 406 641 405 641 L105 641 C77 641 50 619 50 596 L50 -4 C50 -5 50 -5 50 -6 C51 -21 61 -32 79 -38 L79 -38 Z M176 560 L328 560 L264 432 C260 424 256 415 252 407 L197 516 L176 560 Z M350 210 L304 303 C320 334 334 365 350 396 L350 210 Z M196 297 C180 266 166 235 150 204 L150 390 L196 297 Z M172 41 L236 168 C240 176 244 185 248 193 L324 41 C323 41 323 41 323 41 L172 41 Z " />
<glyph glyph-name="NULL" d="" />
<glyph glyph-name="CR" unicode="&#xd;" horiz-adv-x="250" d="" />
<glyph glyph-name="space" unicode="&#x20;" horiz-adv-x="322" d="" />
<glyph glyph-name="uni0000" d="" />
<glyph glyph-name="uni000D" horiz-adv-x="250" d="" />
<glyph glyph-name="exclam" unicode="&#x21;" horiz-adv-x="200" d="M50 -4 C50 -25 70 -41 95 -41 C124 -41 150 -19 150 4 L150 79 C150 100 131 116 106 116 C77 116 50 95 50 71 L50 -4 Z M50 196 C50 176 69 160 95 160 C124 160 150 181 150 204 L150 604 C150 625 131 641 106 641 C77 641 50 620 50 596 L50 196 Z " />
<glyph glyph-name="quotedbl" unicode="&#x22;" horiz-adv-x="350" d="M50 446 C50 426 69 410 95 410 C124 410 150 431 150 454 L150 604 C150 625 131 641 106 641 C77 641 50 620 50 596 L50 446 Z M200 446 C200 426 220 410 245 410 C274 410 300 431 300 454 L300 604 C300 625 281 641 256 641 C227 641 200 620 200 596 L200 446 Z " />
<glyph glyph-name="numbersign" unicode="&#x23;" horiz-adv-x="575" d="M139 160 C113 56 100 0 100 -12 C100 -27 123 -41 147 -41 C166 -41 181 -32 195 -14 C196 -13 216 62 240 159 L289 160 C263 56 250 0 250 -12 C250 -27 273 -41 297 -41 C316 -41 331 -32 345 -14 C346 -13 366 62 390 159 L445 160 C474 160 500 181 500 204 C500 225 481 241 455 241 L411 241 L422 285 L470 285 C499 285 525 306 525 329 C525 350 506 366 480 366 L442 366 C465 457 475 501 475 512 C475 527 452 541 428 541 C409 541 394 532 380 514 C380 513 363 450 342 367 L292 366 C315 457 325 501 325 512 C325 527 302 541 278 541 C259 541 244 532 230 514 C230 513 213 450 192 367 L130 366 C102 366 75 344 75 321 C75 301 94 285 120 285 L171 285 C167 271 164 255 160 240 L105 241 C76 241 50 219 50 196 C50 175 69 160 95 160 L139 160 Z M261 241 L272 285 L321 285 C317 271 314 255 310 240 L261 241 Z " />
<glyph glyph-name="dollar" unicode="&#x24;" horiz-adv-x="450" d="M275 -34 C347 -15 400 54 400 130 C400 214 336 281 250 290 C213 294 182 286 160 335 C153 351 150 366 150 381 C150 429 178 460 222 460 C260 460 287 437 296 397 C299 384 299 374 301 366 C306 347 323 335 345 335 C377 335 400 361 400 396 C400 457 343 521 275 536 L275 604 C275 625 256 641 231 641 C202 641 175 620 175 596 L175 534 C103 515 50 446 50 370 C50 287 114 219 200 210 C237 206 268 214 289 167 C296 151 300 135 300 119 C300 72 272 41 229 41 C190 41 164 66 154 108 C151 121 151 132 149 140 C144 159 127 172 106 172 C74 172 50 146 50 109 C50 46 108 -21 175 -36 L175 -104 C175 -125 195 -141 220 -141 C249 -141 275 -119 275 -96 L275 -34 Z " />
<glyph glyph-name="percent" unicode="&#x25;" horiz-adv-x="750" d="M200 -11 C200 -27 222 -41 248 -41 C293 -41 303 2 320 37 L491 378 C502 400 550 486 550 511 C550 527 528 541 502 541 C457 541 447 498 430 463 L259 122 C248 100 200 14 200 -11 L200 -11 Z M50 346 C50 267 110 210 195 210 C283 210 350 272 350 354 L350 404 C350 484 289 541 205 541 C117 541 50 478 50 396 L50 346 Z M251 347 C244 320 245 291 207 291 C173 291 150 317 150 354 L150 403 C150 438 169 460 199 460 C252 460 250 402 250 361 C250 356 250 351 251 347 L251 347 Z M400 96 C400 16 461 -41 545 -41 C633 -41 700 22 700 104 L700 154 C700 234 639 291 555 291 C467 291 400 228 400 146 L400 96 Z M601 97 C594 70 595 41 557 41 C523 41 500 67 500 104 L500 153 C500 188 519 210 549 210 C602 210 600 152 600 111 C600 106 600 101 601 97 L601 97 Z " />
<glyph glyph-name="ampersand" unicode="&#x26;" horiz-adv-x="575" d="M344 110 C331 64 302 41 256 41 C193 41 150 86 150 150 C150 170 154 189 163 208 C201 287 257 236 290 278 C297 287 300 296 300 304 C300 322 285 338 263 340 C254 341 246 340 237 343 C216 350 200 377 200 407 C200 440 220 460 252 460 C326 460 268 360 340 360 C376 360 400 385 400 422 C400 488 335 541 255 541 C168 541 100 479 100 401 C100 366 113 328 133 306 C82 270 50 209 50 150 C50 130 53 109 61 87 C91 3 154 -41 245 -41 C339 -41 409 6 437 89 C439 95 442 103 444 110 L470 110 C499 110 525 131 525 154 C525 175 506 191 480 191 L330 191 C302 191 275 169 275 146 C275 126 295 110 320 110 L344 110 Z " />
<glyph glyph-name="quotesingle" unicode="&#x27;" horiz-adv-x="200" d="M50 446 C50 426 69 410 95 410 C124 410 150 431 150 454 L150 604 C150 625 131 641 106 641 C77 641 50 620 50 596 L50 446 Z " />
<glyph glyph-name="parenleft" unicode="&#x28;" horiz-adv-x="425" d="M68 48 C107 -70 203 -141 314 -141 C368 -141 400 -123 400 -93 C400 -54 346 -60 310 -56 C219 -46 150 46 150 154 L150 453 C150 559 215 646 305 657 C339 661 369 654 390 678 C398 687 400 696 400 705 C400 729 375 741 327 741 C210 741 110 669 69 548 C57 512 50 476 50 446 L50 146 C50 117 56 83 68 48 L68 48 Z " />
<glyph glyph-name="parenright" unicode="&#x29;" horiz-adv-x="425" d="M25 -105 C25 -129 50 -141 98 -141 C215 -141 315 -69 356 52 C368 88 375 124 375 154 L375 454 C375 484 368 519 356 554 C316 670 223 741 111 741 C57 741 25 723 25 693 C25 654 79 660 115 656 C206 646 275 554 275 446 L275 147 C275 41 210 -46 120 -57 C86 -61 56 -54 35 -78 C27 -87 25 -96 25 -105 L25 -105 Z " />
<glyph glyph-name="asterisk" unicode="&#x2a;" horiz-adv-x="400" d="M150 575 C132 583 116 591 102 591 C76 591 50 569 50 547 C50 540 53 532 57 528 C64 521 98 501 139 481 L125 453 C118 439 100 411 100 393 C100 374 121 360 147 360 C169 360 187 372 198 393 C210 368 221 360 241 360 C271 360 300 378 300 398 C300 416 275 462 262 486 C299 503 332 521 340 529 C346 535 350 546 350 555 C350 575 331 591 308 591 C295 591 279 585 250 571 L250 604 C250 625 231 641 206 641 C177 641 150 620 150 596 L150 575 Z " />
<glyph glyph-name="plus" unicode="&#x2b;" horiz-adv-x="400" d="M150 210 L150 146 C150 126 170 110 195 110 C224 110 250 131 250 154 L250 210 L295 210 C324 210 350 231 350 254 C350 275 331 291 305 291 L250 291 L250 354 C250 375 231 391 206 391 C177 391 150 370 150 346 L150 291 L105 291 C77 291 50 269 50 246 C50 226 69 210 95 210 L150 210 Z " />
<glyph glyph-name="comma" unicode="&#x2c;" horiz-adv-x="250" d="M148 -207 C158 -179 200 0 200 14 C200 28 178 41 155 41 L105 41 C77 41 50 19 50 -4 C50 -23 68 -39 90 -40 C82 -70 50 -183 50 -207 C50 -225 71 -241 95 -241 C119 -241 144 -225 148 -207 L148 -207 Z " />
<glyph glyph-name="hyphen" unicode="&#x2d;" horiz-adv-x="400" d="M50 246 C50 226 69 210 95 210 L295 210 C324 210 350 231 350 254 C350 275 331 291 305 291 L105 291 C77 291 50 269 50 246 L50 246 Z " />
<glyph glyph-name="period" unicode="&#x2e;" horiz-adv-x="200" d="M50 -4 C50 -25 70 -41 95 -41 C124 -41 150 -19 150 4 L150 79 C150 100 131 116 106 116 C77 116 50 95 50 71 L50 -4 Z " />
<glyph glyph-name="slash" unicode="&#x2f;" horiz-adv-x="425" d="M50 -113 C50 -128 73 -141 98 -141 C125 -141 142 -126 152 -94 L330 477 C340 509 400 688 400 713 C400 728 377 741 352 741 C325 741 308 726 298 694 L120 123 C110 91 50 -88 50 -113 L50 -113 Z " />
<glyph glyph-name="zero" unicode="0" horiz-adv-x="500" d="M254 -41 C343 -41 410 7 439 93 C446 115 450 135 450 154 L450 354 C450 463 368 541 252 541 C160 541 92 493 62 408 C54 386 50 364 50 346 L50 171 C50 47 135 -41 254 -41 L254 -41 Z M350 344 C350 340 350 337 350 337 C350 277 351 220 351 198 C351 88 324 41 260 41 C195 41 150 97 150 179 L150 353 C150 417 189 460 248 460 C298 460 337 430 346 380 C349 364 348 354 350 344 L350 344 Z " />
<glyph glyph-name="one" unicode="1" horiz-adv-x="325" d="M175 460 C175 322 174 183 174 137 C174 7 166 -41 214 -41 C247 -41 275 -21 275 4 L275 504 C275 525 256 541 230 541 L105 541 C76 541 50 518 50 493 C50 457 96 460 124 460 L175 460 Z " />
<glyph glyph-name="two" unicode="2" horiz-adv-x="450" d="M197 41 C326 185 400 308 400 378 C400 393 397 410 391 428 C367 501 309 541 230 541 C147 541 87 497 60 423 C54 406 50 388 50 377 C50 352 68 335 95 335 C120 335 144 350 149 371 C151 380 151 390 154 403 C163 441 183 460 218 460 C265 460 300 425 300 379 C300 325 222 199 130 97 C96 59 71 40 57 18 C51 9 50 3 50 -4 C50 -25 70 -41 95 -41 L345 -41 C374 -41 400 -19 400 6 C400 52 323 41 293 41 L197 41 Z " />
<glyph glyph-name="three" unicode="3" horiz-adv-x="500" d="M291 338 L377 437 C390 452 407 468 419 488 C422 493 424 499 424 505 C424 525 404 541 379 541 L129 541 C100 541 74 518 74 493 C74 459 116 460 143 460 L281 460 L196 362 C183 347 166 333 156 316 C151 308 150 301 150 294 C150 251 212 260 242 260 C307 260 350 215 350 148 C350 83 311 41 251 41 C200 41 163 71 154 121 C151 138 152 150 149 160 C144 178 127 191 106 191 C73 191 50 163 50 121 C50 31 138 -41 248 -41 C339 -41 408 7 438 92 C446 114 450 136 450 155 C450 173 447 193 439 216 C415 286 368 324 292 338 L291 338 Z " />
<glyph glyph-name="four" unicode="4" horiz-adv-x="475" d="M147 141 L264 374 C275 397 325 485 325 511 C325 527 303 541 277 541 C233 541 222 499 205 464 L66 186 C57 168 25 112 25 91 C25 74 46 60 70 60 L325 60 L325 -4 C325 -25 345 -41 370 -41 C399 -41 425 -19 425 4 L425 204 C425 225 406 241 381 241 C352 241 325 220 325 196 L325 141 C317 141 310 141 305 141 L147 141 Z " />
<glyph glyph-name="five" unicode="5" horiz-adv-x="500" d="M204 460 L358 460 C398 460 425 477 425 503 C425 525 406 541 380 541 L167 541 C144 541 123 527 115 508 C110 496 109 480 106 466 L94 399 C89 370 75 324 75 300 C75 272 95 259 140 259 C163 259 188 261 224 261 C288 261 317 245 337 202 C345 184 350 164 350 144 C350 83 310 41 252 41 C201 41 163 71 154 121 C151 138 152 150 149 161 C144 179 126 191 106 191 C75 191 50 168 50 139 C50 127 54 108 61 87 C89 3 153 -41 244 -41 C339 -41 408 6 438 92 C446 114 450 137 450 159 C450 246 388 321 301 337 C264 344 222 341 182 341 L204 460 Z " />
<glyph glyph-name="six" unicode="6" horiz-adv-x="500" d="M61 87 C89 3 154 -41 245 -41 C339 -41 408 7 438 92 C446 114 450 136 450 155 C450 179 443 206 431 233 C399 304 340 341 260 341 C206 341 175 325 175 297 C175 287 179 281 181 278 C213 237 284 292 329 216 C342 194 350 166 350 141 C350 83 310 41 253 41 C192 41 150 87 150 154 L150 328 C150 351 155 376 164 399 C181 443 205 460 251 460 C262 460 273 459 282 459 C322 459 349 477 349 503 C349 525 330 541 304 541 L255 541 C159 541 89 489 61 391 C54 366 50 342 50 321 L50 146 C50 129 54 108 61 87 L61 87 Z " />
<glyph glyph-name="seven" unicode="7" horiz-adv-x="500" d="M329 460 L182 159 C170 133 106 15 106 -12 C106 -27 129 -41 154 -41 C198 -41 207 0 224 34 L392 377 C403 399 450 487 450 511 C450 527 429 541 405 541 L105 541 C77 541 50 519 50 496 C50 483 58 470 69 466 C95 456 291 460 329 460 L329 460 Z " />
<glyph glyph-name="eight" unicode="8" horiz-adv-x="500" d="M137 304 C82 266 50 208 50 145 C50 42 137 -41 244 -41 C356 -41 450 48 450 154 C450 217 418 274 362 309 C387 336 400 369 400 404 C400 480 335 541 255 541 C170 541 100 475 100 395 C100 361 113 329 137 304 L137 304 Z M300 395 C300 389 300 386 299 382 C293 358 275 341 253 341 C225 341 200 371 200 404 C200 435 221 459 248 459 C276 459 295 436 300 395 L300 395 Z M350 145 C349 138 349 130 347 121 C337 77 298 41 253 41 C198 41 150 93 150 153 C150 211 193 259 244 259 C289 259 331 224 344 182 C348 169 348 157 350 145 L350 145 Z " />
<glyph glyph-name="nine" unicode="9" horiz-adv-x="500" d="M149 -2 C149 -25 168 -42 194 -42 L251 -42 C371 -42 450 46 450 178 L450 354 C450 462 367 540 251 540 C160 540 92 492 62 408 C54 386 50 364 50 345 C50 321 57 294 69 267 C100 197 159 160 240 160 C295 160 325 175 325 203 C325 213 321 219 319 222 C287 263 211 207 169 285 C157 307 150 334 150 358 C150 417 190 459 246 459 C306 459 350 411 350 346 L350 170 C350 138 344 110 333 87 C315 50 295 39 244 39 L224 40 C177 40 149 24 149 -2 L149 -2 Z " />
<glyph glyph-name="colon" unicode="&#x3a;" horiz-adv-x="200" d="M50 346 C50 325 70 309 95 309 C124 309 150 331 150 354 L150 429 C150 450 131 466 106 466 C77 466 50 445 50 421 L50 346 Z M50 -4 C50 -25 70 -41 95 -41 C124 -41 150 -19 150 4 L150 79 C150 100 131 116 106 116 C77 116 50 95 50 71 L50 -4 Z " />
<glyph glyph-name="semicolon" unicode="&#x3b;" horiz-adv-x="250" d="M148 -207 C158 -179 200 0 200 14 C200 28 178 41 155 41 L105 41 C77 41 50 19 50 -4 C50 -23 68 -39 90 -40 C82 -70 50 -183 50 -207 C50 -225 71 -241 95 -241 C119 -241 144 -225 148 -207 L148 -207 Z M74 346 C74 325 94 309 119 309 C148 309 174 331 174 354 L174 429 C174 450 155 466 130 466 C101 466 74 445 74 421 L74 346 Z " />
<glyph glyph-name="less" unicode="&#x3c;" horiz-adv-x="300" d="M164 253 C181 270 235 319 246 339 C247 341 250 347 250 355 C250 375 230 391 205 391 C197 391 184 389 178 385 C164 376 65 273 55 263 C52 260 50 253 50 247 C50 242 53 236 54 233 C58 222 159 123 173 114 C176 112 186 110 194 110 C223 110 250 130 250 153 C250 158 247 165 246 167 C235 189 181 236 164 253 L164 253 Z " />
<glyph glyph-name="equal" unicode="&#x3d;" horiz-adv-x="400" d="M50 321 C50 301 69 285 95 285 L295 285 C324 285 350 306 350 329 C350 350 331 366 305 366 L105 366 C77 366 50 344 50 321 L50 321 Z M50 196 C50 176 69 160 95 160 L295 160 C324 160 350 181 350 204 C350 225 331 241 305 241 L105 241 C77 241 50 219 50 196 L50 196 Z " />
<glyph glyph-name="greater" unicode="&#x3e;" horiz-adv-x="300" d="M136 247 C119 230 65 182 55 163 C53 159 50 151 50 145 C50 125 70 110 96 110 C106 110 118 114 122 116 C134 122 237 223 245 236 C248 240 250 248 250 254 C250 259 247 264 246 267 C242 278 141 377 127 386 C123 389 113 391 105 391 C77 391 50 370 50 347 C50 342 53 335 54 333 C65 311 119 264 136 247 L136 247 Z " />
<glyph glyph-name="question" unicode="&#x3f;" horiz-adv-x="450" d="M175 196 C175 175 195 160 224 160 C259 160 275 181 275 226 C275 248 271 288 285 313 C294 329 310 338 327 350 C378 386 400 424 400 478 C400 498 396 517 390 534 C366 603 309 641 231 641 C148 641 87 599 60 523 C54 506 50 488 50 477 C50 452 68 435 95 435 C120 435 144 450 149 471 C151 480 151 490 154 503 C163 541 184 560 220 560 C269 560 300 526 300 472 C300 456 297 441 291 432 C281 417 261 406 242 393 C191 358 175 316 175 234 L175 196 Z M175 -4 C175 -25 195 -41 220 -41 C249 -41 275 -19 275 4 L275 79 C275 100 256 116 231 116 C202 116 175 95 175 71 L175 -4 Z " />
<glyph glyph-name="at" unicode="&#x40;" horiz-adv-x="550" d="M401 359 C401 295 400 231 400 203 C400 129 408 110 440 110 C473 110 500 130 500 154 L500 429 C500 450 496 474 487 500 C455 591 383 641 284 641 C149 641 50 548 50 421 L50 171 C50 150 54 126 63 100 C95 8 168 -41 270 -41 L395 -41 C424 -41 450 -19 450 6 C450 30 428 41 378 41 C355 41 327 40 305 40 C230 40 198 56 173 99 C159 123 150 154 150 179 L150 428 C150 506 201 560 276 560 C343 560 387 517 398 441 L355 441 C272 441 210 400 185 324 C178 304 175 286 175 271 C175 256 179 238 185 221 C209 152 263 110 328 110 C371 110 400 128 400 154 C400 172 385 187 363 190 C355 191 348 190 339 191 C303 195 275 234 275 278 C275 293 278 308 285 322 C300 352 315 360 360 360 L401 359 Z " />
<glyph glyph-name="A" unicode="A" horiz-adv-x="500" d="M355 59 C373 -1 381 -21 387 -29 C393 -36 405 -41 418 -41 C444 -41 475 -23 475 -8 C475 24 326 515 315 555 C309 576 304 606 295 621 C287 634 273 641 255 641 C234 641 214 630 205 614 C197 600 194 578 189 562 L155 445 C112 298 67 152 32 26 C26 2 25 -1 25 -6 C25 -25 46 -41 71 -41 C87 -41 104 -34 112 -24 C119 -15 128 9 143 58 L355 59 Z M167 141 C200 255 240 395 249 425 C258 396 297 256 331 140 L167 141 Z " />
<glyph glyph-name="B" unicode="B" horiz-adv-x="551" d="M150 309 C152 309 153 310 155 310 L245 310 C251 310 256 310 262 310 C269 310 277 310 277 310 C364 310 400 266 400 160 C400 76 368 40 292 40 C279 40 263 41 251 41 C204 41 175 25 175 -2 C175 -24 195 -41 220 -41 L295 -41 C423 -41 500 44 500 185 C500 274 467 336 403 368 C431 398 450 443 450 478 C450 494 446 514 438 533 C409 603 345 641 255 641 L105 641 C77 641 50 619 50 596 L50 -4 C50 -25 70 -41 95 -41 C117 -41 139 -28 145 -13 C151 3 150 47 150 62 L150 309 Z M150 391 L150 560 L245 560 C306 560 350 523 350 471 C350 426 318 397 264 391 L150 391 Z " />
<glyph glyph-name="C" unicode="C" horiz-adv-x="550" d="M63 101 C95 9 168 -41 270 -41 C376 -41 455 12 487 107 C495 131 500 156 500 171 C500 198 482 216 455 216 C430 216 409 201 402 179 C398 167 399 152 395 131 C384 73 343 41 283 41 C204 41 150 97 150 179 L150 428 C150 506 201 560 275 560 C336 560 381 524 394 465 C401 433 396 405 419 392 C426 388 435 385 444 385 C476 385 500 408 500 438 C500 452 495 477 487 499 C454 591 382 641 280 641 C174 641 95 588 63 493 C55 468 50 442 50 421 L50 171 C50 150 55 125 63 101 L63 101 Z " />
<glyph glyph-name="D" unicode="D" horiz-adv-x="550" d="M150 560 L270 560 C347 560 400 503 400 421 L400 147 C400 131 394 112 385 94 C357 38 309 41 274 41 C205 41 175 28 175 -1 C175 -24 194 -41 220 -41 L269 -41 C366 -41 438 -2 476 68 C491 96 500 128 500 154 L500 429 C500 451 495 477 486 502 C454 592 382 641 280 641 L105 641 C77 641 50 619 50 596 L50 -4 C50 -25 70 -41 95 -41 C117 -41 139 -28 145 -13 C151 3 150 46 150 62 L150 560 Z " />
<glyph glyph-name="E" unicode="E" horiz-adv-x="500" d="M150 360 L270 360 C299 360 325 381 325 404 C325 425 306 441 280 441 L150 441 L150 560 C224 560 297 559 332 559 C420 559 450 570 450 602 C450 625 431 641 405 641 L105 641 C77 641 50 619 50 596 L50 71 C50 6 100 -41 170 -41 L395 -41 C424 -41 450 -19 450 6 C450 32 427 41 358 41 C321 41 257 40 233 40 C166 40 150 48 150 80 L150 360 Z " />
<glyph glyph-name="F" unicode="F" horiz-adv-x="475" d="M150 360 L245 360 C274 360 300 381 300 404 C300 425 281 441 255 441 L150 441 L150 560 C223 560 298 559 332 559 C420 559 450 570 450 602 C450 625 431 641 405 641 L105 641 C77 641 50 619 50 596 L50 -4 C50 -25 70 -41 95 -41 C118 -41 140 -28 146 -11 C152 5 150 45 150 62 L150 360 Z " />
<glyph glyph-name="G" unicode="G" horiz-adv-x="550" d="M400 360 L400 172 C400 92 353 40 280 40 C203 40 150 97 150 179 L150 428 C150 451 156 475 165 496 C185 543 216 560 278 560 C296 560 304 559 312 559 L359 559 C367 559 375 559 375 559 C422 559 450 575 450 602 C450 625 431 641 405 641 L279 641 C173 641 95 588 63 493 C55 468 50 442 50 421 L50 171 C50 149 55 124 64 99 C97 8 166 -42 266 -42 C402 -42 500 51 500 179 L500 404 C500 425 481 441 455 441 L280 441 C251 441 225 418 225 393 C225 350 290 360 320 360 L400 360 Z " />
<glyph glyph-name="H" unicode="H" horiz-adv-x="550" d="M150 360 L400 360 L400 -4 C400 -25 420 -41 445 -41 C474 -41 500 -19 500 4 L500 604 C500 625 481 641 456 641 C427 641 400 620 400 596 L400 441 L150 441 L150 604 C150 625 131 641 106 641 C77 641 50 620 50 596 L50 -4 C50 -25 70 -41 95 -41 C124 -41 150 -19 150 4 L150 360 Z " />
<glyph glyph-name="I" unicode="I" horiz-adv-x="200" d="M50 -4 C50 -25 70 -41 95 -41 C124 -41 150 -19 150 4 L150 604 C150 625 131 641 106 641 C77 641 50 620 50 596 L50 -4 Z " />
<glyph glyph-name="J" unicode="J" horiz-adv-x="425" d="M35 71 C63 -1 116 -41 195 -41 C278 -41 340 0 365 76 C372 96 375 114 375 129 L375 604 C375 625 356 641 330 641 C309 641 287 629 280 614 C274 602 275 580 275 503 C275 425 276 279 276 240 C276 86 260 41 204 41 C165 41 138 63 129 103 C126 116 126 127 124 135 C120 153 102 166 81 166 C50 166 25 143 25 115 C25 104 29 87 35 71 L35 71 Z " />
<glyph glyph-name="K" unicode="K" horiz-adv-x="550" d="M150 380 C159 385 168 390 176 395 C187 375 199 354 216 324 C249 262 290 191 329 119 L382 21 C390 6 397 -12 406 -23 C416 -35 429 -41 444 -41 C473 -41 500 -20 500 3 C500 9 498 13 493 24 C479 54 459 88 433 135 C401 194 360 265 321 337 L268 435 C266 438 264 443 262 446 L439 547 C461 560 500 574 500 605 C500 625 481 641 458 641 C427 641 378 606 352 591 L150 476 L150 604 C150 625 131 641 106 641 C77 641 50 620 50 596 L50 -4 C50 -25 70 -41 95 -41 C124 -41 150 -19 150 4 L150 380 Z " />
<glyph glyph-name="L" unicode="L" horiz-adv-x="500" d="M150 41 C150 222 150 403 150 403 C150 616 144 641 110 641 C78 641 50 620 50 596 L50 -4 C50 -25 70 -41 95 -41 L395 -41 C424 -41 450 -19 450 4 C450 18 440 31 426 36 C404 44 346 41 323 41 L150 41 Z " />
<glyph glyph-name="M" unicode="M" horiz-adv-x="725" d="M355 370 L204 550 C186 572 157 614 138 629 C128 637 117 641 105 641 C77 641 50 619 50 596 L50 -4 C50 -25 70 -41 95 -41 C117 -41 140 -28 146 -12 C152 4 150 37 150 52 L150 466 L263 329 C285 303 307 260 345 260 C386 260 419 310 444 338 L575 481 C575 325 575 169 575 169 C575 -9 581 -41 615 -41 C648 -41 675 -20 675 4 L675 604 C675 625 655 641 629 641 C616 641 603 636 592 628 C570 612 540 572 519 549 L355 370 Z " />
<glyph glyph-name="N" unicode="N" horiz-adv-x="550" d="M150 508 L392 335 C395 333 398 331 401 329 L400 -4 C400 -25 420 -41 445 -41 C474 -41 500 -19 500 4 L500 604 C500 625 481 641 456 641 C427 641 400 620 400 596 L400 442 L187 594 C168 607 150 623 131 633 C121 638 113 641 104 641 C76 641 50 619 50 596 L50 -4 C50 -25 70 -41 95 -41 C117 -41 140 -28 146 -12 C152 4 150 41 150 57 L150 508 Z " />
<glyph glyph-name="O" unicode="O" horiz-adv-x="550" d="M63 100 C94 8 168 -41 270 -41 C376 -41 455 12 487 107 C495 132 500 158 500 179 L500 429 C500 450 496 474 487 500 C455 592 383 641 281 641 C174 641 95 588 63 493 C55 468 50 442 50 421 L50 171 C50 150 54 126 63 100 L63 100 Z M400 176 C397 164 399 150 394 128 C381 72 342 41 283 41 C204 41 150 97 150 179 L150 428 C150 506 201 560 276 560 C361 560 401 494 401 353 C401 331 400 260 400 191 C400 186 400 181 400 176 L400 176 Z " />
<glyph glyph-name="P" unicode="P" horiz-adv-x="500" d="M150 560 C194 560 236 560 236 560 C324 560 348 551 365 513 C371 499 375 483 375 470 C375 457 371 442 365 428 C352 399 337 391 295 391 L240 391 C202 391 175 373 175 348 C175 326 194 310 220 310 L295 310 C378 310 440 350 465 426 C472 446 475 464 475 480 C475 507 466 539 450 567 C407 642 335 641 254 641 C209 641 165 641 165 641 C82 641 50 628 50 596 L50 -4 C50 -25 70 -41 95 -41 C117 -41 139 -28 145 -13 C152 4 150 46 150 62 L150 560 Z " />
<glyph glyph-name="Q" unicode="Q" horiz-adv-x="575" d="M376 -19 C413 -56 438 -82 446 -86 C452 -89 461 -91 469 -91 C498 -91 525 -70 525 -46 C525 -38 522 -34 521 -32 C516 -24 487 5 452 41 C481 78 500 132 500 179 L500 429 C500 450 496 474 487 500 C455 592 383 641 281 641 C174 641 95 588 63 493 C55 468 50 442 50 421 L50 171 C50 150 54 126 63 100 C95 9 168 -41 269 -41 C308 -41 344 -34 376 -19 L376 -19 Z M313 44 C303 41 292 41 292 41 C206 41 150 95 150 179 L150 428 C150 506 201 560 276 560 C361 560 401 494 401 353 C401 331 400 260 400 191 C400 186 400 181 400 176 C397 164 399 150 396 136 C394 126 390 117 386 107 C345 147 311 181 304 186 C299 190 289 191 281 191 C252 191 225 170 225 146 C225 138 228 134 229 132 C233 125 263 94 313 44 L313 44 Z " />
<glyph glyph-name="R" unicode="R" horiz-adv-x="525" d="M305 310 C399 312 475 386 475 475 C475 493 472 512 465 532 C440 603 383 641 305 641 L105 641 C77 641 50 619 50 596 L50 -4 C50 -25 70 -41 95 -41 C117 -41 139 -28 145 -13 C152 4 150 46 150 62 L150 560 L295 560 C342 560 375 525 375 474 C375 458 372 443 365 428 C352 399 337 391 295 391 L240 391 C203 391 175 375 175 355 C175 329 212 274 222 256 L360 14 C376 -13 382 -41 416 -41 C448 -41 475 -20 475 4 C475 9 474 13 472 17 C467 27 460 38 454 48 L305 310 Z " />
<glyph glyph-name="S" unicode="S" horiz-adv-x="550" d="M63 100 C94 8 168 -41 270 -41 C376 -41 455 12 487 107 C496 133 500 159 500 184 C500 295 416 383 301 390 C252 393 209 381 185 436 C178 452 175 467 175 480 C175 494 179 509 185 523 C197 550 213 560 243 560 C322 560 359 542 371 498 C375 483 374 473 377 463 C382 447 399 436 419 436 C450 436 475 459 475 487 C475 504 466 529 455 550 C423 611 363 641 273 641 C179 641 120 610 91 543 C81 519 75 494 75 471 C75 444 84 413 99 387 C129 335 179 310 254 310 C319 310 354 294 377 253 C391 227 400 194 400 165 C400 92 350 41 276 41 C214 41 171 76 157 135 C149 168 155 196 132 209 C125 213 115 216 106 216 C75 216 50 192 50 162 C50 148 55 124 63 100 L63 100 Z " />
<glyph glyph-name="T" unicode="T" horiz-adv-x="500" d="M200 560 L200 -4 C200 -25 220 -41 245 -41 C274 -41 300 -19 300 4 L300 560 L420 560 C449 560 475 581 475 604 C475 625 456 641 430 641 L80 641 C52 641 25 619 25 596 C25 576 45 560 70 560 L200 560 Z " />
<glyph glyph-name="U" unicode="U" horiz-adv-x="550" d="M64 98 C97 9 168 -41 270 -41 C376 -41 454 11 486 104 C495 130 500 157 500 179 L500 604 C500 625 480 641 453 641 C415 641 400 596 400 483 C400 454 401 321 401 289 C401 107 369 41 280 41 C210 41 165 82 153 155 C149 179 150 200 150 222 L150 310 C150 334 150 358 150 382 L150 525 C150 549 150 572 150 572 C150 619 136 641 107 641 C77 641 50 620 50 596 L50 171 C50 149 55 123 64 98 L64 98 Z " />
<glyph glyph-name="V" unicode="V" horiz-adv-x="500" d="M251 175 C236 226 129 614 111 632 C106 637 93 641 82 641 C56 641 25 623 25 608 C25 576 174 85 186 43 C191 24 197 -6 205 -20 C213 -33 227 -41 245 -41 C266 -41 286 -30 295 -14 C303 0 306 22 311 38 L345 155 C388 302 433 448 468 574 C474 598 475 601 475 606 C475 625 454 641 429 641 C415 641 396 634 390 627 C372 606 266 227 251 175 L251 175 Z " />
<glyph glyph-name="W" unicode="W" horiz-adv-x="750" d="M253 169 C238 220 129 614 111 632 C106 637 93 641 82 641 C56 641 25 623 25 608 C25 576 174 85 186 43 C191 24 197 -6 205 -20 C213 -33 227 -41 245 -41 C261 -41 279 -35 285 -27 C300 -7 363 202 374 236 C384 205 449 -16 465 -32 C470 -37 484 -41 495 -41 C516 -41 536 -30 545 -14 C553 0 556 22 561 38 L595 155 C638 302 683 448 718 574 C724 598 725 601 725 606 C725 625 704 641 679 641 C665 641 646 634 640 627 C630 615 565 401 499 169 C489 200 426 416 410 432 C405 437 392 441 380 441 C364 441 346 435 340 427 C325 407 263 202 253 169 L253 169 Z " />
<glyph glyph-name="X" unicode="X" horiz-adv-x="550" d="M220 297 C191 247 161 197 137 156 C106 103 78 59 63 30 C53 11 50 3 50 -5 C50 -25 70 -41 96 -41 C113 -41 128 -32 141 -19 C157 -3 166 22 178 42 L255 175 C261 185 267 196 273 206 L400 -12 C412 -33 424 -41 442 -41 C471 -41 500 -21 500 -1 C500 21 468 67 458 84 L330 303 C359 353 389 403 413 444 C444 497 472 541 487 570 C497 589 500 597 500 605 C500 625 480 641 454 641 C438 641 423 632 410 619 C394 603 384 578 372 558 L295 425 C289 415 283 404 277 394 L150 612 C138 633 126 641 108 641 C79 641 50 621 50 601 C50 579 82 533 92 516 L220 297 Z " />
<glyph glyph-name="Y" unicode="Y" horiz-adv-x="494" d="M300 389 C309 401 314 407 319 413 L439 555 C447 564 456 573 462 582 C467 590 469 598 469 605 C469 626 449 641 423 641 C385 641 366 605 344 579 L252 470 L154 582 C133 606 115 641 81 641 C52 641 25 620 25 597 C25 589 27 584 28 583 C38 568 155 433 201 383 L200 -4 C200 -25 220 -41 245 -41 C274 -41 300 -19 300 4 L300 389 Z " />
<glyph glyph-name="Z" unicode="Z" horiz-adv-x="550" d="M177 41 L462 530 C472 546 500 587 500 609 C500 626 479 641 455 641 L105 641 C77 641 50 619 50 596 C50 582 60 569 74 564 C97 556 160 560 185 560 L373 560 L88 70 C78 54 50 13 50 -8 C50 -26 71 -41 95 -41 L445 -41 C474 -41 500 -19 500 4 C500 18 490 31 475 36 C453 43 390 41 365 41 L177 41 Z " />
<glyph glyph-name="bracketleft" unicode="&#x5b;" horiz-adv-x="300" d="M150 -60 L150 660 L209 659 C248 658 275 676 275 702 C275 725 256 741 230 741 L105 741 C77 741 50 719 50 696 L50 -104 C50 -125 70 -141 95 -141 L220 -141 C249 -141 275 -118 275 -93 C275 -57 229 -60 201 -60 L150 -60 Z " />
<glyph glyph-name="backslash" unicode="&#x5c;" horiz-adv-x="450" d="M298 -101 C307 -130 319 -141 341 -141 C370 -141 400 -123 400 -105 C400 -79 340 98 330 131 L152 701 C143 730 131 741 109 741 C80 741 50 723 50 705 C50 679 110 502 120 469 L298 -101 Z " />
<glyph glyph-name="bracketright" unicode="&#x5d;" horiz-adv-x="300" d="M150 -60 L91 -59 C52 -58 25 -76 25 -102 C25 -125 44 -141 70 -141 L195 -141 C224 -141 250 -119 250 -96 L250 704 C250 725 231 741 205 741 L80 741 C51 741 25 718 25 693 C25 657 71 660 99 660 L150 660 L150 -60 Z " />
<glyph glyph-name="asciicircum" unicode="&#x5e;" horiz-adv-x="450" d="M222 528 C237 510 304 425 320 415 C325 412 334 410 343 410 C373 410 400 430 400 454 C400 459 399 464 397 468 C389 484 264 629 254 636 C250 639 239 641 230 641 C219 641 205 638 200 634 C187 623 66 473 54 461 C52 459 50 451 50 445 C50 425 70 410 96 410 C133 410 152 443 173 468 L222 528 Z " />
<glyph glyph-name="underscore" unicode="&#x5f;" horiz-adv-x="500" d="M50 -104 C50 -125 70 -141 95 -141 L395 -141 C424 -141 450 -119 450 -96 C450 -75 431 -60 405 -60 L105 -60 C76 -60 50 -81 50 -104 L50 -104 Z " />
<glyph glyph-name="grave" unicode="&#x60;" horiz-adv-x="275" d="M54 583 C62 575 135 499 147 490 C151 487 160 485 169 485 C198 485 225 505 225 528 C225 533 222 539 221 542 C217 553 140 628 127 636 C123 639 113 641 105 641 C77 641 50 620 50 597 C50 592 52 585 54 583 L54 583 Z " />
<glyph glyph-name="a" unicode="a" horiz-adv-x="450" d="M300 159 C300 112 299 65 299 42 C299 -22 308 -41 340 -41 C373 -41 400 -20 400 4 L400 279 C400 294 397 312 390 332 C365 403 308 441 230 441 L180 441 C151 441 125 418 125 393 C125 352 185 360 215 360 C277 360 301 327 301 241 L205 241 C118 241 50 178 50 98 C50 35 90 -17 149 -34 C164 -38 185 -41 203 -41 C247 -41 275 -23 275 5 C275 40 235 40 235 40 C179 40 150 61 150 102 C150 122 157 143 166 150 C174 156 207 160 244 160 C251 160 259 160 266 160 L300 159 Z " />
<glyph glyph-name="b" unicode="b" horiz-adv-x="450" d="M150 41 C150 222 150 403 150 403 C150 615 144 641 110 641 C78 641 50 620 50 596 L50 -4 C50 -25 70 -41 95 -41 L220 -41 C303 -41 365 0 390 76 C397 96 400 114 400 129 L400 279 C400 293 397 310 391 328 C368 398 312 441 247 441 C205 441 175 422 175 396 C175 378 190 363 212 360 C220 359 227 360 236 359 C272 355 300 316 300 271 L300 122 C300 71 274 41 229 41 L150 41 Z " />
<glyph glyph-name="c" unicode="c" horiz-adv-x="450" d="M59 72 C84 -2 140 -41 220 -41 C303 -41 363 3 390 77 C396 94 400 112 400 124 C400 149 382 166 355 166 C331 166 306 150 301 129 C299 120 299 110 296 97 C287 59 268 41 232 41 C183 41 150 77 150 129 L150 278 C150 328 178 360 222 360 C260 360 287 337 296 297 C299 284 299 274 301 266 C306 247 323 235 345 235 C375 235 400 258 400 285 C400 295 397 311 391 328 C365 402 310 441 230 441 C147 441 87 397 60 323 C53 305 50 287 50 271 L50 121 C50 107 53 90 59 72 L59 72 Z " />
<glyph glyph-name="d" unicode="d" horiz-adv-x="450" d="M300 441 L230 441 C147 441 85 400 60 324 C53 304 50 286 50 271 L50 147 C50 42 117 -41 203 -41 C245 -41 275 -23 275 3 C275 22 260 36 238 40 C232 41 225 41 219 42 C181 48 150 98 150 155 L150 278 C150 293 154 309 160 323 C177 362 203 360 237 360 C261 360 281 359 300 359 L300 -4 C300 -25 320 -41 345 -41 C374 -41 400 -19 400 4 L400 604 C400 625 381 641 356 641 C327 641 300 620 300 596 L300 441 Z " />
<glyph glyph-name="e" unicode="e" horiz-adv-x="450" d="M150 160 L343 160 C369 160 393 176 397 196 C400 211 400 263 400 263 C400 290 398 311 390 332 C363 403 309 441 232 441 C126 441 50 370 50 271 L50 121 C50 106 54 88 60 71 C86 -2 141 -41 220 -41 L268 -41 C297 -41 323 -18 323 7 C323 49 264 40 237 40 C185 40 150 76 150 129 L150 160 Z M150 241 L150 279 C150 330 176 360 219 360 C266 360 300 323 300 271 C300 261 300 251 300 241 L150 241 Z " />
<glyph glyph-name="f" unicode="f" horiz-adv-x="325" d="M100 360 L100 -4 C100 -26 121 -41 151 -41 C190 -41 201 -19 201 60 C201 146 199 254 199 360 L245 360 C274 360 300 381 300 404 C300 425 281 441 255 441 L199 441 C199 449 199 455 199 455 C199 493 204 515 217 535 C237 565 252 554 278 560 C306 566 325 584 325 605 C325 628 303 641 265 641 C195 641 134 597 110 524 C103 504 100 486 100 471 L100 441 L80 441 C52 441 25 419 25 396 C25 376 44 360 70 360 L100 360 Z " />
<glyph glyph-name="g" unicode="g" horiz-adv-x="463" d="M91 -20 C74 -43 63 -79 63 -110 C63 -185 125 -241 208 -241 L260 -241 C346 -241 413 -179 413 -98 C413 -19 350 41 267 41 L231 41 C220 41 209 41 201 41 L165 40 C158 40 150 54 150 65 C150 73 154 85 156 85 C156 85 210 84 223 84 C337 84 409 155 409 266 C409 353 366 415 291 434 C295 443 299 448 304 452 C321 465 352 450 374 479 C381 488 384 497 384 505 C384 527 362 541 326 541 C263 541 212 501 190 435 C108 416 59 350 59 258 C59 212 71 173 95 143 C67 124 50 93 50 59 C50 27 65 -1 91 -20 L91 -20 Z M226 359 C236 358 245 359 257 356 C290 348 309 309 309 256 C309 198 284 166 238 166 C187 166 159 204 159 272 C159 328 179 354 226 359 L226 359 Z M205 -41 L211 -41 C226 -42 241 -40 252 -40 C290 -40 313 -65 313 -104 C313 -138 296 -160 269 -160 L219 -160 C186 -160 163 -133 163 -94 C163 -63 178 -45 205 -41 L205 -41 Z " />
<glyph glyph-name="h" unicode="h" horiz-adv-x="450" d="M150 360 C164 360 176 360 176 360 C206 360 237 361 257 353 C290 340 301 301 301 202 C301 169 300 89 300 64 C300 -17 309 -41 341 -41 C373 -41 400 -20 400 4 L400 279 C400 294 397 312 390 332 C365 403 308 441 230 441 L150 441 L150 604 C150 625 131 641 106 641 C77 641 50 620 50 596 L50 -4 C50 -25 70 -41 95 -41 C124 -41 150 -19 150 4 L150 360 Z " />
<glyph glyph-name="i" unicode="i" horiz-adv-x="200" d="M50 546 C50 526 70 510 95 510 C124 510 150 531 150 554 L150 604 C150 625 131 641 106 641 C77 641 50 620 50 596 L50 546 Z M50 -4 C50 -25 70 -41 95 -41 C124 -41 150 -19 150 4 L150 404 C150 425 131 441 106 441 C77 441 50 420 50 396 L50 -4 Z " />
<glyph glyph-name="j" unicode="j" horiz-adv-x="275" d="M125 547 C125 527 145 511 170 511 C199 511 225 532 225 555 L225 605 C225 626 206 642 181 642 C152 642 125 621 125 597 L125 547 Z M0 -204 C0 -227 22 -240 60 -240 C130 -240 191 -196 215 -123 C222 -103 225 -85 225 -70 L225 405 C225 427 205 442 174 442 C133 442 124 420 124 326 C124 220 126 79 126 5 C126 -87 123 -111 108 -134 C88 -164 73 -153 47 -159 C19 -165 0 -183 0 -204 L0 -204 Z " />
<glyph glyph-name="k" unicode="k" horiz-adv-x="450" d="M150 275 C162 280 173 285 185 290 C231 166 307 -21 314 -31 C318 -36 332 -41 344 -41 C370 -41 400 -23 400 -7 C400 22 292 290 277 328 L329 348 C346 355 365 359 380 370 C393 379 400 392 400 405 C400 425 381 441 356 441 C348 441 341 439 334 437 C297 425 262 408 225 393 L150 363 L150 604 C150 625 131 641 106 641 C77 641 50 620 50 596 L50 -4 C50 -25 70 -41 95 -41 C124 -41 150 -19 150 4 L150 275 Z " />
<glyph glyph-name="l" unicode="l" horiz-adv-x="200" d="M50 -4 C50 -25 70 -41 95 -41 C124 -41 150 -19 150 4 L150 604 C150 625 131 641 106 641 C77 641 50 620 50 596 L50 -4 Z " />
<glyph glyph-name="m" unicode="m" horiz-adv-x="700" d="M150 360 C164 360 176 360 176 360 C206 360 237 361 257 353 C290 340 301 300 301 200 C301 167 300 89 300 64 C300 -17 309 -41 341 -41 C373 -41 400 -20 400 4 L400 279 C400 304 390 340 376 364 C389 360 404 360 417 360 L459 360 C529 360 551 322 551 199 C551 172 550 94 550 60 C550 -22 557 -41 590 -41 C623 -41 650 -20 650 4 L650 279 C650 295 646 314 639 333 C613 403 558 441 480 441 L405 441 C377 441 350 419 350 396 C320 426 280 441 230 441 L105 441 C77 441 50 419 50 396 L50 -4 C50 -25 70 -41 95 -41 C124 -41 150 -19 150 4 L150 360 Z " />
<glyph glyph-name="n" unicode="n" horiz-adv-x="450" d="M150 360 L220 360 C314 360 300 255 300 190 C300 127 300 65 300 65 C300 -10 313 -41 343 -41 C373 -41 400 -20 400 4 L400 279 C400 295 396 312 390 329 C364 402 309 441 230 441 L105 441 C77 441 50 419 50 396 L50 -4 C50 -25 70 -41 95 -41 C116 -41 138 -30 144 -16 C154 6 150 95 150 120 L150 360 Z " />
<glyph glyph-name="o" unicode="o" horiz-adv-x="450" d="M59 72 C84 -2 140 -41 220 -41 C303 -41 363 3 390 77 C397 95 400 114 400 129 L400 279 C400 293 397 310 391 328 C366 402 310 441 230 441 C147 441 87 397 60 323 C53 305 50 287 50 271 L50 121 C50 107 53 90 59 72 L59 72 Z M150 277 C157 336 176 360 218 360 C267 360 300 324 300 271 L300 122 C300 71 273 41 228 41 C175 41 149 82 149 168 C149 185 150 227 150 269 C150 272 150 274 150 277 L150 277 Z " />
<glyph glyph-name="p" unicode="p" horiz-adv-x="450" d="M150 360 L220 360 C268 360 300 324 300 271 L300 122 C300 78 277 45 244 41 C235 40 227 41 218 40 C194 37 175 16 175 -4 C175 -27 198 -41 236 -41 C305 -41 366 3 390 76 C397 96 400 114 400 129 L400 279 C400 293 397 310 391 328 C366 402 310 441 230 441 L105 441 C77 441 50 419 50 396 L50 -204 C50 -225 70 -241 95 -241 C117 -241 139 -228 145 -213 C151 -197 150 -154 150 -138 L150 360 Z " />
<glyph glyph-name="q" unicode="q" horiz-adv-x="450" d="M300 360 C300 179 300 -3 300 -3 C300 -215 306 -241 340 -241 C373 -241 400 -220 400 -196 L400 404 C400 425 381 441 355 441 L230 441 C147 441 85 400 60 324 C53 304 50 286 50 271 L50 121 C50 106 54 88 60 71 C85 1 138 -41 203 -41 C245 -41 275 -22 275 4 C275 22 260 37 238 40 C230 41 223 40 214 41 C178 45 150 84 150 129 L150 278 C150 329 177 360 221 360 L300 360 Z " />
<glyph glyph-name="r" unicode="r" horiz-adv-x="300" d="M50 -4 C50 -25 70 -41 96 -41 C116 -41 139 -30 144 -18 C151 -2 150 55 150 89 C150 124 149 182 149 218 C149 269 147 302 163 330 C192 379 237 342 265 378 C272 387 275 396 275 405 C275 428 253 441 215 441 C144 441 86 394 60 323 C53 305 50 287 50 271 L50 -4 Z " />
<glyph glyph-name="s" unicode="s" horiz-adv-x="426" d="M208 -41 C303 -41 376 27 376 116 C376 190 325 254 257 263 C233 266 198 263 184 270 C172 276 163 298 163 322 C163 347 174 360 194 360 C288 360 234 273 302 273 C338 273 363 296 363 329 C363 375 321 420 271 435 C258 439 240 441 222 441 C128 441 63 388 63 312 C63 250 104 199 160 189 C192 183 225 191 247 173 C263 160 276 130 276 104 C276 67 251 41 215 41 C183 41 160 61 153 93 C150 107 152 116 149 126 C144 142 126 154 106 154 C73 154 50 127 50 90 C50 19 122 -41 208 -41 L208 -41 Z " />
<glyph glyph-name="t" unicode="t" horiz-adv-x="400" d="M125 360 L125 121 C125 106 128 88 135 68 C159 0 214 -41 278 -41 C320 -41 350 -22 350 4 C350 21 336 36 316 40 C305 42 294 40 279 44 C240 54 225 87 225 167 C225 231 225 296 225 360 L295 360 C324 360 350 381 350 404 C350 425 331 441 305 441 L225 441 C225 450 225 459 225 459 C225 504 229 541 186 541 C153 541 125 521 125 496 L125 441 L105 441 C77 441 50 419 50 396 C50 376 69 360 95 360 L125 360 Z " />
<glyph glyph-name="u" unicode="u" horiz-adv-x="450" d="M300 41 L231 41 C137 41 150 145 150 210 C150 273 150 335 150 335 C150 410 137 441 107 441 C77 441 50 420 50 396 L50 121 C50 106 54 88 60 71 C86 -2 141 -41 220 -41 L345 -41 C374 -41 400 -19 400 4 L400 404 C400 425 381 441 355 441 C334 441 312 430 306 416 C296 394 300 305 300 280 L300 41 Z " />
<glyph glyph-name="v" unicode="v" horiz-adv-x="400" d="M201 164 C191 195 126 416 110 432 C105 437 92 441 81 441 C57 441 25 423 25 410 C25 385 154 -15 165 -32 C168 -37 183 -41 195 -41 C210 -41 229 -34 234 -28 C249 -10 375 389 375 416 C375 428 351 441 329 441 C314 441 296 435 290 427 C275 407 212 198 201 164 L201 164 Z " />
<glyph glyph-name="w" unicode="w" horiz-adv-x="600" d="M204 156 C162 295 118 421 111 431 C107 436 93 441 81 441 C57 441 25 423 25 410 C25 386 153 -15 164 -32 C167 -37 184 -41 198 -41 C227 -41 240 -28 254 12 L301 146 C309 122 351 -15 364 -31 C369 -37 382 -41 395 -41 C410 -41 431 -34 436 -27 C450 -8 575 391 575 417 C575 429 551 441 529 441 C514 441 496 435 490 427 C475 407 412 196 401 162 L358 295 C346 331 337 341 312 341 C289 341 268 332 259 314 C255 306 253 297 250 288 L204 156 Z " />
<glyph glyph-name="x" unicode="x" horiz-adv-x="450" d="M223 111 C225 108 227 105 229 102 L283 15 C292 1 298 -14 307 -24 C317 -35 331 -41 345 -41 C373 -41 400 -20 400 3 C400 10 398 15 391 27 C377 51 358 79 329 128 C317 148 296 181 281 204 L340 298 C353 318 400 384 400 410 C400 427 378 441 352 441 C312 441 300 406 281 376 L227 289 C225 292 223 295 221 298 L167 385 C159 399 152 414 143 424 C133 435 119 441 105 441 C77 441 50 420 50 397 C50 390 52 385 59 373 C73 349 91 320 121 272 C133 253 154 219 169 196 L110 102 C97 82 50 16 50 -10 C50 -27 72 -41 98 -41 C138 -41 150 -6 169 24 L223 111 Z " />
<glyph glyph-name="y" unicode="y" horiz-adv-x="400" d="M203 160 C169 267 120 421 119 422 C105 437 97 441 83 441 C57 441 25 423 25 409 C25 393 99 148 152 -11 L138 -58 C133 -74 129 -91 119 -118 C108 -147 97 -158 74 -161 C45 -165 25 -183 25 -204 C25 -226 47 -241 80 -241 C136 -241 187 -195 216 -125 C225 -103 230 -81 237 -59 L275 66 C288 108 375 386 375 414 C375 428 353 441 330 441 C313 441 294 432 286 422 C274 406 254 330 248 311 L203 160 Z " />
<glyph glyph-name="z" unicode="z" horiz-adv-x="450" d="M179 41 L374 352 C383 366 400 388 400 406 C400 426 380 441 355 441 L105 441 C76 441 50 418 50 393 C50 358 93 360 120 360 L271 360 L77 48 C68 34 50 12 50 -7 C50 -25 71 -41 95 -41 L345 -41 C374 -41 400 -18 400 7 C400 42 357 41 330 41 L179 41 Z " />
<glyph glyph-name="braceleft" unicode="&#x7b;" horiz-adv-x="425" d="M175 414 L97 351 C80 337 50 321 50 297 C50 291 52 285 55 280 C65 263 155 196 175 180 L175 38 C175 -69 236 -141 325 -141 C369 -141 400 -123 400 -97 C400 -79 385 -63 365 -60 C357 -59 348 -60 338 -59 C295 -55 274 -11 274 74 C274 93 275 143 275 192 C275 204 275 213 271 220 C260 235 188 290 171 303 C189 318 257 367 269 384 C274 391 275 401 275 433 C275 464 274 513 274 534 C274 615 292 655 331 659 C340 660 348 659 357 660 C381 663 400 685 400 705 C400 728 377 741 339 741 C258 741 195 683 179 599 C174 573 175 549 175 525 L175 414 Z " />
<glyph glyph-name="bar" unicode="&#x7c;" horiz-adv-x="200" d="M50 -104 C50 -125 70 -141 95 -141 C124 -141 150 -119 150 -96 L150 704 C150 725 131 741 106 741 C77 741 50 720 50 696 L50 -104 Z " />
<glyph glyph-name="braceright" unicode="&#x7d;" horiz-adv-x="425" d="M250 186 L328 249 C345 263 375 279 375 303 C375 309 373 315 370 320 C360 337 270 404 250 420 L250 562 C250 669 189 741 100 741 C56 741 25 723 25 697 C25 679 40 663 60 660 C68 659 77 660 87 659 C131 655 151 612 151 527 C151 507 150 457 150 408 C150 396 150 387 154 381 C165 365 237 311 254 297 C236 282 168 233 156 216 C151 209 150 201 150 169 C150 137 151 87 151 67 C151 -14 133 -55 94 -59 C85 -60 77 -59 68 -60 C44 -63 25 -85 25 -105 C25 -128 48 -141 86 -141 C166 -141 230 -83 246 1 C251 27 250 51 250 75 L250 186 Z " />
<glyph glyph-name="asciitilde" unicode="&#x7e;" horiz-adv-x="400" d="M150 232 C158 226 164 219 171 213 C191 195 217 185 245 185 C302 185 350 224 350 270 C350 299 332 316 301 316 C273 316 256 300 250 268 C242 274 236 282 228 289 C209 305 183 316 155 316 C99 316 50 276 50 230 C50 202 69 185 99 185 C127 185 144 200 150 232 L150 232 Z " />
<glyph glyph-name="uni00A0" unicode="&#xa0;" horiz-adv-x="382" d="" />
<glyph glyph-name="exclamdown" unicode="&#xa1;" horiz-adv-x="200" d="M50 321 C50 301 69 285 95 285 C124 285 150 306 150 329 L150 404 C150 425 131 441 106 441 C77 441 50 420 50 396 L50 321 Z M50 -204 C50 -225 70 -241 95 -241 C124 -241 150 -219 150 -196 L150 204 C150 225 131 241 106 241 C77 241 50 220 50 196 L50 -204 Z " />
<glyph glyph-name="cent" unicode="&#xa2;" horiz-adv-x="450" d="M59 72 C84 -2 140 -41 220 -41 C303 -41 363 3 390 77 C396 94 400 112 400 124 C400 149 382 166 355 166 C331 166 306 150 301 129 C299 120 299 110 296 97 C287 59 268 41 232 41 C183 41 150 77 150 129 L150 278 C150 328 178 360 222 360 C260 360 287 337 296 297 C299 284 299 274 301 266 C306 247 323 235 345 235 C375 235 400 258 400 285 C400 295 397 311 391 328 C365 402 310 441 230 441 C147 441 87 397 60 323 C53 305 50 287 50 271 L50 121 C50 107 53 90 59 72 L59 72 Z M174 396 C174 376 194 360 219 360 C248 360 274 381 274 404 L274 504 C274 525 255 541 230 541 C201 541 174 520 174 496 L174 396 Z M174 -104 C174 -125 194 -141 219 -141 C248 -141 274 -119 274 -96 L274 4 C274 25 255 41 230 41 C201 41 174 20 174 -4 L174 -104 Z " />
<glyph glyph-name="sterling" unicode="&#xa3;" horiz-adv-x="525" d="M125 41 L105 41 C77 41 50 19 50 -4 C50 -25 70 -41 95 -41 L420 -41 C449 -41 475 -19 475 4 C475 25 456 41 430 41 L225 41 C225 97 224 154 224 210 L295 210 C324 210 350 231 350 254 C350 275 331 291 305 291 L224 291 C224 310 224 327 224 327 C224 424 243 460 295 460 C339 460 369 429 369 384 C369 354 387 335 415 335 C449 335 469 360 469 401 C469 481 398 541 303 541 C222 541 162 497 135 423 C128 405 125 387 125 371 L125 291 L105 291 C77 291 50 269 50 246 C50 226 69 210 95 210 L125 210 L125 41 Z " />
<glyph glyph-name="currency" unicode="&#xa4;" horiz-adv-x="500" d="M119 179 C106 170 96 157 86 147 C71 132 50 117 50 95 C50 75 70 60 96 60 C128 60 145 84 164 103 C171 110 178 116 184 122 C203 114 223 110 245 110 C269 110 291 115 310 123 C347 80 375 60 398 60 C424 60 450 81 450 103 C450 124 431 136 417 150 C406 161 395 176 380 184 C393 206 400 230 400 254 C400 278 394 300 381 321 C394 330 404 343 414 353 C429 368 450 383 450 405 C450 426 430 441 404 441 C372 441 355 416 336 397 C329 390 322 384 316 378 C295 387 275 391 255 391 C233 391 210 386 190 377 C170 399 134 441 102 441 C76 441 50 419 50 397 C50 376 69 364 83 350 C94 339 105 324 120 316 C107 294 100 270 100 246 C100 222 106 200 119 179 L119 179 Z M254 191 C226 191 200 221 200 254 C200 284 222 309 248 309 C276 309 300 280 300 246 C300 240 300 236 299 232 C293 209 275 191 254 191 L254 191 Z " />
<glyph glyph-name="yen" unicode="&#xa5;" horiz-adv-x="450" d="M72 321 C72 301 91 285 117 285 L317 285 C346 285 372 306 372 329 C372 350 353 366 327 366 L127 366 C99 366 72 344 72 321 L72 321 Z M72 196 C72 176 91 160 117 160 L317 160 C346 160 372 181 372 204 C372 225 353 241 327 241 L127 241 C99 241 72 219 72 196 L72 196 Z M275 364 C335 422 389 477 395 485 C398 489 400 497 400 504 C400 525 381 541 355 541 C321 541 301 512 279 490 L228 439 C211 456 147 526 127 536 C121 539 112 541 105 541 C77 541 50 519 50 496 C50 491 52 484 54 482 C61 475 124 408 176 357 L175 -4 C175 -25 195 -41 220 -41 C249 -41 275 -19 275 4 L275 364 Z " />
<glyph glyph-name="brokenbar" unicode="&#xa6;" horiz-adv-x="200" d="M50 396 C50 376 69 360 95 360 C124 360 150 381 150 404 L150 604 C150 625 131 641 106 641 C77 641 50 620 50 596 L50 396 Z M50 -4 C50 -25 70 -41 95 -41 C124 -41 150 -19 150 4 L150 204 C150 225 131 241 106 241 C77 241 50 220 50 196 L50 -4 Z " />
<glyph glyph-name="section" unicode="&#xa7;" horiz-adv-x="400" d="M198 159 C227 155 250 128 250 97 C250 66 230 41 205 41 C183 41 159 61 153 85 C151 93 151 102 149 110 C145 128 127 141 106 141 C74 141 50 115 50 80 C50 16 119 -41 195 -41 C279 -41 350 25 350 104 C350 142 334 177 305 203 C334 231 350 267 350 304 C350 380 285 441 205 441 C205 441 203 440 203 440 C202 440 203 441 202 441 C173 445 150 472 150 503 C150 534 170 559 195 559 C217 559 241 539 247 515 C249 507 249 499 251 492 C256 473 273 460 295 460 C327 460 350 485 350 520 C350 584 281 641 205 641 C121 641 50 575 50 496 C50 458 66 423 95 397 C66 369 50 333 50 295 C50 220 116 159 198 159 L198 159 Z M250 295 C250 289 250 286 249 282 C243 259 225 241 204 241 C176 241 150 271 150 304 C150 335 171 359 199 359 C226 359 245 336 250 295 L250 295 Z " />
<glyph glyph-name="dieresis" unicode="&#xa8;" horiz-adv-x="265" d="M0 521 C0 501 19 485 45 485 C74 485 100 506 100 529 L100 604 C100 625 81 641 56 641 C27 641 0 620 0 596 L0 521 Z M165 521 C165 501 185 485 210 485 C239 485 265 506 265 529 L265 604 C265 625 246 641 221 641 C192 641 165 620 165 596 L165 521 Z " />
<glyph glyph-name="copyright" unicode="&#xa9;" horiz-adv-x="600" d="M50 196 C50 65 160 -41 295 -41 C434 -41 550 70 550 204 C550 335 440 441 305 441 C166 441 50 330 50 196 L50 196 Z M450 198 C448 187 449 174 446 158 C434 93 372 41 303 41 C221 41 150 116 150 204 C150 290 215 360 295 360 C373 360 443 293 450 213 C450 209 450 203 450 198 L450 198 Z M302 157 C301 162 300 164 300 167 L300 239 C300 241 300 242 300 244 C303 223 320 210 344 210 C375 210 400 233 400 261 C400 298 358 328 306 328 C247 328 200 286 200 233 L200 158 C200 108 240 72 295 72 C352 72 400 107 400 148 C400 174 382 191 355 191 C341 191 326 186 316 177 C310 172 308 167 306 163 C304 161 304 160 303 158 L302 157 Z " />
<glyph glyph-name="ordfeminine" unicode="&#xaa;" horiz-adv-x="325" d="M185 274 C192 265 203 260 217 260 C248 260 275 280 275 304 L275 454 C275 504 235 541 180 541 L130 541 C101 541 75 518 75 493 C75 453 131 460 160 460 C162 460 170 459 171 459 C174 458 176 449 176 440 L155 441 C96 441 50 399 50 345 C50 297 89 260 140 260 C158 260 174 265 185 274 L185 274 Z M175 359 C175 351 175 344 175 336 C173 337 170 338 169 339 C165 340 162 340 159 340 C157 340 156 340 155 340 C152 341 150 348 150 354 C150 356 151 358 151 360 L175 359 Z " />
<glyph glyph-name="guillemotleft" unicode="&#xab;" horiz-adv-x="450" d="M139 253 C156 270 210 319 221 339 C222 341 225 347 225 355 C225 375 205 391 180 391 C172 391 159 389 153 385 C139 376 40 273 30 263 C27 260 25 253 25 247 C25 242 28 236 29 233 C33 222 134 123 148 114 C151 112 161 110 169 110 C198 110 225 130 225 153 C225 158 222 165 221 167 C210 189 156 236 139 253 L139 253 Z M333 253 C348 273 400 331 400 359 C400 377 379 391 354 391 C343 391 330 387 324 383 C314 376 240 285 229 263 C227 258 225 251 225 246 C225 240 227 236 227 235 C235 219 311 121 321 115 C325 112 336 110 344 110 C372 110 400 129 400 148 C400 176 348 233 333 253 L333 253 Z " />
<glyph glyph-name="logicalnot" unicode="&#xac;" horiz-adv-x="400" d="M250 210 C250 185 244 151 269 137 C276 133 285 130 294 130 C324 130 350 151 350 174 L350 254 C350 275 331 291 305 291 L105 291 C76 291 50 269 50 244 C50 198 126 210 157 210 L250 210 Z " />
<glyph glyph-name="registered" unicode="&#xae;" horiz-adv-x="600" d="M50 196 C50 65 160 -41 295 -41 C434 -41 550 70 550 204 C550 335 440 441 305 441 C166 441 50 330 50 196 L50 196 Z M379 175 C406 189 425 223 425 257 C425 305 384 341 330 341 L230 341 C229 341 227 340 226 340 C248 353 272 360 296 360 C373 360 443 293 450 213 C450 209 450 203 450 198 C448 187 449 174 446 159 C443 143 435 124 424 107 C420 127 390 160 379 175 L379 175 Z M175 115 C159 141 150 173 150 204 C150 234 159 264 175 291 L175 115 Z M275 260 L319 260 C322 260 325 254 325 246 C325 244 324 243 324 241 L310 241 C298 241 285 238 275 232 L275 260 Z M275 152 C311 104 339 69 346 65 C351 62 362 60 374 60 C352 47 328 41 303 41 C277 41 252 48 231 60 C260 65 275 84 275 118 L275 152 Z " />
<glyph glyph-name="macron" unicode="&#xaf;" horiz-adv-x="350" d="M50 546 C50 526 70 510 95 510 L245 510 C274 510 300 531 300 554 C300 575 281 591 255 591 L105 591 C77 591 50 569 50 546 L50 546 Z " />
<glyph glyph-name="degree" unicode="&#xb0;" horiz-adv-x="300" d="M50 445 C50 397 91 360 144 360 C202 360 250 403 250 455 C250 503 208 541 156 541 C99 541 50 497 50 445 L50 445 Z " />
<glyph glyph-name="plusminus" unicode="&#xb1;" horiz-adv-x="400" d="M150 210 L150 146 C150 126 170 110 195 110 C224 110 250 131 250 154 L250 210 L295 210 C324 210 350 231 350 254 C350 275 331 291 305 291 L250 291 L250 354 C250 375 231 391 206 391 C177 391 150 370 150 346 L150 291 L105 291 C77 291 50 269 50 246 C50 226 69 210 95 210 L150 210 Z M50 -4 C50 -24 69 -40 95 -40 L295 -40 C324 -40 350 -19 350 4 C350 25 331 41 305 41 L105 41 C77 41 50 19 50 -4 L50 -4 Z " />
<glyph glyph-name="twosuperior" unicode="&#xb2;" horiz-adv-x="350" d="M196 341 C267 427 300 489 300 536 C300 596 248 641 180 641 C110 641 50 592 50 534 C50 504 68 485 95 485 C106 485 117 488 126 493 C164 514 140 560 170 560 C187 560 200 544 200 524 C200 497 152 422 98 362 C80 342 67 331 57 317 C52 310 50 303 50 296 C50 276 69 260 95 260 L245 260 C274 260 300 281 300 306 C300 351 226 341 196 341 L196 341 Z " />
<glyph glyph-name="threesuperior" unicode="&#xb3;" horiz-adv-x="350" d="M144 560 C143 553 100 522 100 493 C100 477 115 462 137 460 C147 459 157 460 164 460 C188 460 200 446 200 420 L200 373 C200 353 191 341 176 341 C133 341 173 416 111 416 C75 416 50 392 50 357 C50 303 103 260 170 260 C244 260 300 311 300 379 L300 429 C300 473 270 519 235 530 C236 538 288 577 288 608 C288 626 268 641 243 641 L118 641 C89 641 63 618 63 593 C63 554 116 560 144 560 L144 560 Z " />
<glyph glyph-name="acute" unicode="&#xb4;" horiz-adv-x="275" d="M50 521 C50 501 69 485 95 485 C104 485 116 487 121 490 C133 497 211 572 220 586 C223 590 225 598 225 604 C225 625 206 641 181 641 C173 641 161 639 154 635 C142 628 64 553 55 539 C52 535 50 527 50 521 L50 521 Z " />
<glyph glyph-name="paragraph" unicode="&#xb6;" horiz-adv-x="575" d="M275 560 L275 -4 C275 -25 295 -41 320 -41 C349 -41 375 -19 375 4 L375 560 L425 560 C425 379 425 197 425 197 C425 -15 431 -41 465 -41 C498 -41 525 -20 525 4 L525 604 C525 625 506 641 480 641 L205 641 C122 641 60 600 35 524 C28 504 25 486 25 471 C25 456 29 438 35 421 C59 352 113 310 178 310 C221 310 250 328 250 354 C250 372 235 387 213 390 C205 391 198 390 189 391 C152 395 125 434 125 482 C125 529 153 560 196 560 L275 560 Z " />
<glyph glyph-name="periodcentered" unicode="&#xb7;" horiz-adv-x="250" d="M50 245 C50 211 80 185 119 185 C163 185 200 217 200 255 C200 289 169 316 131 316 C88 316 50 283 50 245 L50 245 Z " />
<glyph glyph-name="cedilla" unicode="&#xb8;" horiz-adv-x="200" d="M100 -100 C99 -95 100 -91 98 -85 C93 -70 76 -60 56 -60 C24 -60 0 -83 0 -114 C0 -157 42 -191 95 -191 C154 -191 200 -149 200 -96 L200 -46 C200 3 162 41 113 41 C78 41 50 21 50 -4 C50 -20 63 -33 82 -38 C89 -40 93 -39 95 -41 C97 -43 100 -49 100 -55 L100 -100 Z " />
<glyph glyph-name="onesuperior" unicode="&#xb9;" horiz-adv-x="275" d="M125 560 C125 482 125 402 125 402 C125 314 124 305 125 297 C128 275 145 260 170 260 C199 260 225 281 225 304 L225 604 C225 625 206 641 180 641 L105 641 C76 641 50 618 50 593 C50 556 97 560 125 560 L125 560 Z " />
<glyph glyph-name="ordmasculine" unicode="&#xba;" horiz-adv-x="350" d="M50 371 C50 306 100 260 170 260 C244 260 300 311 300 379 L300 529 C300 594 250 641 180 641 C107 641 50 589 50 521 L50 371 Z M150 380 C151 384 150 387 150 409 C150 431 149 473 149 513 C149 544 157 560 172 560 C188 560 200 543 200 520 L200 373 C200 353 192 341 177 341 C156 341 155 361 150 380 L150 380 Z " />
<glyph glyph-name="guillemotright" unicode="&#xbb;" horiz-adv-x="450" d="M311 247 C294 230 240 182 230 163 C228 159 225 151 225 145 C225 125 245 110 271 110 C281 110 293 114 297 116 C309 122 412 223 420 236 C423 240 425 248 425 254 C425 259 422 264 421 267 C417 278 316 377 302 386 C298 389 288 391 280 391 C252 391 225 370 225 347 C225 342 228 335 229 333 C240 311 294 264 311 247 L311 247 Z M117 247 C102 227 50 169 50 141 C50 124 71 110 97 110 C108 110 122 112 128 117 C137 125 212 219 221 237 C223 242 225 249 225 254 C225 260 223 264 223 265 C215 281 139 379 129 385 C124 388 113 391 105 391 C78 391 50 371 50 352 C50 324 102 267 117 247 L117 247 Z " />
<glyph glyph-name="onequarter" unicode="&#xbc;" horiz-adv-x="650" d="M150 -113 C150 -128 173 -141 198 -141 C225 -141 242 -126 252 -94 L430 477 C440 509 500 688 500 713 C500 728 477 741 452 741 C425 741 408 726 398 694 L220 123 C210 91 150 -88 150 -113 L150 -113 Z M500 10 L500 -4 C500 -25 519 -41 544 -41 C573 -41 600 -20 600 4 L600 104 C600 125 581 141 556 141 C527 141 500 120 500 96 L500 91 L462 91 C472 123 525 287 525 312 C525 327 503 341 480 341 C462 341 444 333 435 322 C430 316 429 311 427 306 C411 267 350 51 350 35 C350 23 373 10 395 10 L500 10 Z M125 560 C125 482 125 402 125 402 C125 314 124 305 125 297 C128 275 145 260 170 260 C199 260 225 281 225 304 L225 604 C225 625 206 641 180 641 L105 641 C76 641 50 618 50 593 C50 556 97 560 125 560 L125 560 Z " />
<glyph glyph-name="onehalf" unicode="&#xbd;" horiz-adv-x="675" d="M150 -113 C150 -128 173 -141 198 -141 C225 -141 242 -126 252 -94 L430 477 C440 509 500 688 500 713 C500 728 477 741 452 741 C425 741 408 726 398 694 L220 123 C210 91 150 -88 150 -113 L150 -113 Z M521 40 C591 125 625 189 625 236 C625 296 573 341 505 341 C435 341 375 292 375 234 C375 204 393 185 420 185 C431 185 442 188 451 193 C489 214 465 260 495 260 C512 260 525 244 525 224 C525 196 477 119 421 59 C405 42 392 31 382 17 C377 10 375 3 375 -4 C375 -25 395 -41 420 -41 L570 -41 C599 -41 625 -19 625 6 C625 51 551 40 521 40 L521 40 Z M125 560 C125 482 125 402 125 402 C125 314 124 305 125 297 C128 275 145 260 170 260 C199 260 225 281 225 304 L225 604 C225 625 206 641 180 641 L105 641 C76 641 50 618 50 593 C50 556 97 560 125 560 L125 560 Z " />
<glyph glyph-name="threequarters" unicode="&#xbe;" horiz-adv-x="700" d="M200 -113 C200 -128 223 -141 248 -141 C275 -141 292 -126 302 -94 L480 477 C490 509 550 688 550 713 C550 728 527 741 502 741 C475 741 458 726 448 694 L270 123 C260 91 200 -88 200 -113 L200 -113 Z M144 560 C143 553 100 522 100 493 C100 477 115 462 137 460 C147 459 157 460 164 460 C188 460 200 446 200 420 L200 373 C200 353 191 341 176 341 C133 341 173 416 111 416 C75 416 50 392 50 357 C50 303 103 260 170 260 C244 260 300 311 300 379 L300 429 C300 473 270 519 235 530 C236 538 288 577 288 608 C288 626 268 641 243 641 L118 641 C89 641 63 618 63 593 C63 554 116 560 144 560 L144 560 Z M550 10 L550 -4 C550 -24 570 -40 595 -40 C624 -40 650 -19 650 4 L650 104 C650 125 631 141 606 141 C577 141 550 120 550 96 L550 91 L512 91 C522 123 575 287 575 312 C575 327 553 341 530 341 C512 341 494 333 485 322 C480 316 479 311 477 306 C461 267 400 51 400 35 C400 23 423 10 445 10 L550 10 Z " />
<glyph glyph-name="questiondown" unicode="&#xbf;" horiz-adv-x="450" d="M175 166 C175 84 191 42 242 7 C261 -6 281 -17 291 -32 C297 -41 300 -56 300 -72 C300 -126 269 -160 220 -160 C184 -160 163 -141 154 -103 C151 -90 151 -80 149 -71 C144 -50 120 -35 95 -35 C68 -35 50 -52 50 -77 C50 -88 54 -106 60 -123 C87 -199 148 -241 231 -241 C309 -241 366 -203 390 -134 C396 -117 400 -98 400 -78 C400 -24 378 14 327 50 C310 62 294 71 285 87 C271 112 275 152 275 174 C275 219 259 240 224 240 C195 240 175 225 175 204 L175 166 Z M175 329 C175 305 202 284 231 284 C256 284 275 300 275 321 L275 396 C275 419 249 441 220 441 C195 441 175 425 175 404 L175 329 Z " />
<glyph glyph-name="Agrave" unicode="&#xc0;" horiz-adv-x="500" d="M355 59 C373 -1 381 -21 387 -29 C393 -36 405 -41 418 -41 C444 -41 475 -23 475 -8 C475 24 326 515 315 555 C309 576 304 606 295 621 C287 634 273 641 255 641 C234 641 214 630 205 614 C197 600 194 578 189 562 L155 445 C112 298 67 152 32 26 C26 2 25 -1 25 -6 C25 -25 46 -41 71 -41 C87 -41 104 -34 112 -24 C119 -15 128 9 143 58 L355 59 Z M167 141 C200 255 240 395 249 425 C258 396 297 256 331 140 L167 141 Z M129 758 C137 750 210 674 222 665 C226 662 235 660 244 660 C273 660 300 680 300 703 C300 708 297 714 296 717 C292 728 215 803 202 811 C198 814 188 816 180 816 C152 816 125 795 125 772 C125 767 127 760 129 758 L129 758 Z " />
<glyph glyph-name="Aacute" unicode="&#xc1;" horiz-adv-x="500" d="M355 59 C373 -1 381 -21 387 -29 C393 -36 405 -41 418 -41 C444 -41 475 -23 475 -8 C475 24 326 515 315 555 C309 576 304 606 295 621 C287 634 273 641 255 641 C234 641 214 630 205 614 C197 600 194 578 189 562 L155 445 C112 298 67 152 32 26 C26 2 25 -1 25 -6 C25 -25 46 -41 71 -41 C87 -41 104 -34 112 -24 C119 -15 128 9 143 58 L355 59 Z M167 141 C200 255 240 395 249 425 C258 396 297 256 331 140 L167 141 Z M200 696 C200 676 219 660 245 660 C254 660 266 662 271 665 C283 672 361 747 370 761 C373 765 375 773 375 779 C375 800 356 816 331 816 C323 816 311 814 304 810 C292 803 214 728 205 714 C202 710 200 702 200 696 L200 696 Z " />
<glyph glyph-name="Acircumflex" unicode="&#xc2;" horiz-adv-x="500" d="M355 59 C373 -1 381 -21 387 -29 C393 -36 405 -41 418 -41 C444 -41 475 -23 475 -8 C475 24 326 515 315 555 C309 576 304 606 295 621 C287 634 273 641 255 641 C234 641 214 630 205 614 C197 600 194 578 189 562 L155 445 C112 298 67 152 32 26 C26 2 25 -1 25 -6 C25 -25 46 -41 71 -41 C87 -41 104 -34 112 -24 C119 -15 128 9 143 58 L355 59 Z M167 141 C200 255 240 395 249 425 C258 396 297 256 331 140 L167 141 Z M247 711 C268 690 288 660 320 660 C349 660 375 681 375 704 C375 709 375 714 372 718 C363 731 287 805 277 811 C273 814 263 816 255 816 C247 816 236 814 229 810 C217 803 139 728 130 714 C127 710 125 702 125 696 C125 675 145 660 171 660 C204 660 225 689 247 711 L247 711 Z " />
<glyph glyph-name="Atilde" unicode="&#xc3;" horiz-adv-x="500" d="M355 59 C373 -1 381 -21 387 -29 C393 -36 405 -41 418 -41 C444 -41 475 -23 475 -8 C475 24 326 515 315 555 C309 576 304 606 295 621 C287 634 273 641 255 641 C234 641 214 630 205 614 C197 600 194 578 189 562 L155 445 C112 298 67 152 32 26 C26 2 25 -1 25 -6 C25 -25 46 -41 71 -41 C87 -41 104 -34 112 -24 C119 -15 128 9 143 58 L355 59 Z M167 141 C200 255 240 395 249 425 C258 396 297 256 331 140 L167 141 Z M200 707 C208 701 214 694 220 688 C239 669 266 660 294 660 C351 660 400 699 400 745 C400 774 382 791 351 791 C323 791 306 775 300 743 C292 749 286 757 278 764 C259 780 233 791 205 791 C149 791 100 751 100 705 C100 677 119 660 149 660 C177 660 194 675 200 707 L200 707 Z " />
<glyph glyph-name="Adieresis" unicode="&#xc4;" horiz-adv-x="500" d="M355 59 C373 -1 381 -21 387 -29 C393 -36 405 -41 418 -41 C444 -41 475 -23 475 -8 C475 24 326 515 315 555 C309 576 304 606 295 621 C287 634 273 641 255 641 C234 641 214 630 205 614 C197 600 194 578 189 562 L155 445 C112 298 67 152 32 26 C26 2 25 -1 25 -6 C25 -25 46 -41 71 -41 C87 -41 104 -34 112 -24 C119 -15 128 9 143 58 L355 59 Z M167 141 C200 255 240 395 249 425 C258 396 297 256 331 140 L167 141 Z M110 696 C110 676 129 660 155 660 C184 660 210 681 210 704 L210 779 C210 800 191 816 166 816 C137 816 110 795 110 771 L110 696 Z M275 696 C275 676 295 660 320 660 C349 660 375 681 375 704 L375 779 C375 800 356 816 331 816 C302 816 275 795 275 771 L275 696 Z " />
<glyph glyph-name="Aring" unicode="&#xc5;" horiz-adv-x="500" d="M355 59 C373 -1 381 -21 387 -29 C393 -36 405 -41 418 -41 C444 -41 475 -23 475 -8 C475 24 326 515 315 555 C309 576 304 606 295 621 C287 634 273 641 255 641 C234 641 214 630 205 614 C197 600 194 578 189 562 L155 445 C112 298 67 152 32 26 C26 2 25 -1 25 -6 C25 -25 46 -41 71 -41 C87 -41 104 -34 112 -24 C119 -15 128 9 143 58 L355 59 Z M167 141 C200 255 240 395 249 425 C258 396 297 256 331 140 L167 141 Z M124 693 C124 630 177 581 246 582 C319 583 377 637 377 703 C377 766 323 816 256 816 C184 816 124 760 124 693 L124 693 Z M248 664 C234 669 224 684 224 701 C224 720 234 734 247 734 C263 734 277 714 277 693 C277 676 268 664 254 662 C252 662 251 663 248 664 L248 664 Z " />
<glyph glyph-name="AE" unicode="&#xc6;" horiz-adv-x="700" d="M311 60 C312 57 314 54 317 47 C342 -11 400 -41 470 -41 L595 -41 C624 -41 650 -19 650 6 C650 29 629 41 587 41 C580 41 573 41 566 41 L525 40 C518 40 511 40 511 40 C441 40 416 54 403 100 C401 107 400 113 398 118 C391 172 374 287 363 360 L495 360 C524 360 550 381 550 404 C550 425 531 441 505 441 L350 441 C343 487 337 528 332 560 L595 560 C624 560 650 581 650 604 C650 625 631 641 605 641 L280 641 C279 641 278 640 277 640 C253 637 234 626 228 610 C221 595 218 577 214 562 L180 445 C137 298 92 152 57 26 C51 2 50 -1 50 -6 C50 -25 71 -41 96 -41 C112 -41 132 -33 139 -23 C146 -13 155 17 168 59 L311 60 Z M192 141 C220 237 251 347 259 374 L287 188 C288 180 290 161 293 141 L192 141 Z " />
<glyph glyph-name="Ccedilla" unicode="&#xc7;" horiz-adv-x="550" d="M63 101 C95 9 168 -41 270 -41 C376 -41 455 12 487 107 C495 131 500 156 500 171 C500 198 482 216 455 216 C430 216 409 201 402 179 C398 167 399 152 395 131 C384 73 343 41 283 41 C204 41 150 97 150 179 L150 428 C150 506 201 560 275 560 C336 560 381 524 394 465 C401 433 396 405 419 392 C426 388 435 385 444 385 C476 385 500 408 500 438 C500 452 495 477 487 499 C454 591 382 641 280 641 C174 641 95 588 63 493 C55 468 50 442 50 421 L50 171 C50 150 55 125 63 101 L63 101 Z M275 -100 C274 -95 275 -91 273 -85 C268 -70 251 -60 231 -60 C199 -60 175 -83 175 -114 C175 -157 217 -191 270 -191 C329 -191 375 -149 375 -96 L375 -46 C375 3 337 41 288 41 C253 41 225 21 225 -4 C225 -20 238 -33 257 -38 C264 -40 268 -39 270 -41 C272 -43 275 -49 275 -55 L275 -100 Z " />
<glyph glyph-name="Egrave" unicode="&#xc8;" horiz-adv-x="500" d="M150 360 L270 360 C299 360 325 381 325 404 C325 425 306 441 280 441 L150 441 L150 560 C224 560 297 559 332 559 C420 559 450 570 450 602 C450 625 431 641 405 641 L105 641 C77 641 50 619 50 596 L50 71 C50 6 100 -41 170 -41 L395 -41 C424 -41 450 -19 450 6 C450 32 427 41 358 41 C321 41 257 40 233 40 C166 40 150 48 150 80 L150 360 Z M129 758 C137 750 210 674 222 665 C226 662 235 660 244 660 C273 660 300 680 300 703 C300 708 297 714 296 717 C292 728 215 803 202 811 C198 814 188 816 180 816 C152 816 125 795 125 772 C125 767 127 760 129 758 L129 758 Z " />
<glyph glyph-name="Eacute" unicode="&#xc9;" horiz-adv-x="500" d="M150 360 L270 360 C299 360 325 381 325 404 C325 425 306 441 280 441 L150 441 L150 560 C224 560 297 559 332 559 C420 559 450 570 450 602 C450 625 431 641 405 641 L105 641 C77 641 50 619 50 596 L50 71 C50 6 100 -41 170 -41 L395 -41 C424 -41 450 -19 450 6 C450 32 427 41 358 41 C321 41 257 40 233 40 C166 40 150 48 150 80 L150 360 Z M200 696 C200 676 219 660 245 660 C254 660 266 662 271 665 C283 672 361 747 370 761 C373 765 375 773 375 779 C375 800 356 816 331 816 C323 816 311 814 304 810 C292 803 214 728 205 714 C202 710 200 702 200 696 L200 696 Z " />
<glyph glyph-name="Ecircumflex" unicode="&#xca;" horiz-adv-x="500" d="M150 360 L270 360 C299 360 325 381 325 404 C325 425 306 441 280 441 L150 441 L150 560 C224 560 297 559 332 559 C420 559 450 570 450 602 C450 625 431 641 405 641 L105 641 C77 641 50 619 50 596 L50 71 C50 6 100 -41 170 -41 L395 -41 C424 -41 450 -19 450 6 C450 32 427 41 358 41 C321 41 257 40 233 40 C166 40 150 48 150 80 L150 360 Z M247 711 C268 690 288 660 320 660 C349 660 375 681 375 704 C375 709 375 714 372 718 C363 731 287 805 277 811 C273 814 263 816 255 816 C247 816 236 814 229 810 C217 803 139 728 130 714 C127 710 125 702 125 696 C125 675 145 660 171 660 C204 660 225 689 247 711 L247 711 Z " />
<glyph glyph-name="Edieresis" unicode="&#xcb;" horiz-adv-x="500" d="M150 360 L270 360 C299 360 325 381 325 404 C325 425 306 441 280 441 L150 441 L150 560 C224 560 297 559 332 559 C420 559 450 570 450 602 C450 625 431 641 405 641 L105 641 C77 641 50 619 50 596 L50 71 C50 6 100 -41 170 -41 L395 -41 C424 -41 450 -19 450 6 C450 32 427 41 358 41 C321 41 257 40 233 40 C166 40 150 48 150 80 L150 360 Z M110 696 C110 676 129 660 155 660 C184 660 210 681 210 704 L210 779 C210 800 191 816 166 816 C137 816 110 795 110 771 L110 696 Z M275 696 C275 676 295 660 320 660 C349 660 375 681 375 704 L375 779 C375 800 356 816 331 816 C302 816 275 795 275 771 L275 696 Z " />
<glyph glyph-name="Igrave" unicode="&#xcc;" horiz-adv-x="200" d="M50 -4 C50 -25 70 -41 95 -41 C124 -41 150 -19 150 4 L150 604 C150 625 131 641 106 641 C77 641 50 620 50 596 L50 -4 Z M-21 758 C-13 750 60 674 72 665 C76 662 85 660 94 660 C123 660 150 680 150 703 C150 708 147 714 146 717 C142 728 65 803 52 811 C48 814 38 816 30 816 C2 816 -25 795 -25 772 C-25 767 -23 760 -21 758 L-21 758 Z " />
<glyph glyph-name="Iacute" unicode="&#xcd;" horiz-adv-x="200" d="M50 -4 C50 -25 70 -41 95 -41 C124 -41 150 -19 150 4 L150 604 C150 625 131 641 106 641 C77 641 50 620 50 596 L50 -4 Z M50 696 C50 676 69 660 95 660 C104 660 116 662 121 665 C133 672 211 747 220 761 C223 765 225 773 225 779 C225 800 206 816 181 816 C173 816 161 814 154 810 C142 803 64 728 55 714 C52 710 50 702 50 696 L50 696 Z " />
<glyph glyph-name="Icircumflex" unicode="&#xce;" horiz-adv-x="200" d="M50 -4 C50 -25 70 -41 95 -41 C124 -41 150 -19 150 4 L150 604 C150 625 131 641 106 641 C77 641 50 620 50 596 L50 -4 Z M97 711 C118 690 138 660 170 660 C199 660 225 681 225 704 C225 709 225 714 222 718 C213 731 137 805 127 811 C123 814 113 816 105 816 C97 816 86 814 79 810 C67 803 -11 728 -20 714 C-23 710 -25 702 -25 696 C-25 675 -5 660 21 660 C54 660 75 689 97 711 L97 711 Z " />
<glyph glyph-name="Idieresis" unicode="&#xcf;" horiz-adv-x="200" d="M50 -4 C50 -25 70 -41 95 -41 C124 -41 150 -19 150 4 L150 604 C150 625 131 641 106 641 C77 641 50 620 50 596 L50 -4 Z M-40 696 C-40 676 -21 660 5 660 C34 660 60 681 60 704 L60 779 C60 800 41 816 16 816 C-13 816 -40 795 -40 771 L-40 696 Z M125 696 C125 676 145 660 170 660 C199 660 225 681 225 704 L225 779 C225 800 206 816 181 816 C152 816 125 795 125 771 L125 696 Z " />
<glyph glyph-name="Eth" unicode="&#xd0;" horiz-adv-x="600" d="M200 560 L320 560 C397 560 450 503 450 421 L450 147 C450 131 444 112 435 94 C407 38 359 41 324 41 C255 41 225 28 225 -1 C225 -24 244 -41 270 -41 L319 -41 C416 -41 488 -2 526 68 C541 96 550 128 550 154 L550 429 C550 451 545 477 536 502 C504 592 432 641 330 641 L155 641 C127 641 100 619 100 596 L100 -4 C100 -25 120 -41 145 -41 C167 -41 189 -28 195 -13 C201 3 200 46 200 62 L200 560 Z M50 396 C50 376 69 360 95 360 L295 360 C324 360 350 381 350 404 C350 425 331 441 305 441 L105 441 C77 441 50 419 50 396 L50 396 Z " />
<glyph glyph-name="Ntilde" unicode="&#xd1;" horiz-adv-x="550" d="M150 508 L392 335 C395 333 398 331 401 329 L400 -4 C400 -25 420 -41 445 -41 C474 -41 500 -19 500 4 L500 604 C500 625 481 641 456 641 C427 641 400 620 400 596 L400 442 L187 594 C168 607 150 623 131 633 C121 638 113 641 104 641 C76 641 50 619 50 596 L50 -4 C50 -25 70 -41 95 -41 C117 -41 140 -28 146 -12 C152 4 150 41 150 57 L150 508 Z M225 707 C233 701 239 694 245 688 C264 669 291 660 319 660 C376 660 425 699 425 745 C425 774 407 791 376 791 C348 791 331 775 325 743 C317 749 311 757 303 764 C284 780 258 791 230 791 C174 791 125 751 125 705 C125 677 144 660 174 660 C202 660 219 675 225 707 L225 707 Z " />
<glyph glyph-name="Ograve" unicode="&#xd2;" horiz-adv-x="550" d="M63 100 C94 8 168 -41 270 -41 C376 -41 455 12 487 107 C495 132 500 158 500 179 L500 429 C500 450 496 474 487 500 C455 592 383 641 281 641 C174 641 95 588 63 493 C55 468 50 442 50 421 L50 171 C50 150 54 126 63 100 L63 100 Z M400 176 C397 164 399 150 394 128 C381 72 342 41 283 41 C204 41 150 97 150 179 L150 428 C150 506 201 560 276 560 C361 560 401 494 401 353 C401 331 400 260 400 191 C400 186 400 181 400 176 L400 176 Z M154 758 C162 750 235 674 247 665 C251 662 260 660 269 660 C298 660 325 680 325 703 C325 708 322 714 321 717 C317 728 240 803 227 811 C223 814 213 816 205 816 C177 816 150 795 150 772 C150 767 152 760 154 758 L154 758 Z " />
<glyph glyph-name="Oacute" unicode="&#xd3;" horiz-adv-x="550" d="M63 100 C94 8 168 -41 270 -41 C376 -41 455 12 487 107 C495 132 500 158 500 179 L500 429 C500 450 496 474 487 500 C455 592 383 641 281 641 C174 641 95 588 63 493 C55 468 50 442 50 421 L50 171 C50 150 54 126 63 100 L63 100 Z M400 176 C397 164 399 150 394 128 C381 72 342 41 283 41 C204 41 150 97 150 179 L150 428 C150 506 201 560 276 560 C361 560 401 494 401 353 C401 331 400 260 400 191 C400 186 400 181 400 176 L400 176 Z M225 696 C225 676 244 660 270 660 C279 660 291 662 296 665 C308 672 386 747 395 761 C398 765 400 773 400 779 C400 800 381 816 356 816 C348 816 336 814 329 810 C317 803 239 728 230 714 C227 710 225 702 225 696 L225 696 Z " />
<glyph glyph-name="Ocircumflex" unicode="&#xd4;" horiz-adv-x="550" d="M63 100 C94 8 168 -41 270 -41 C376 -41 455 12 487 107 C495 132 500 158 500 179 L500 429 C500 450 496 474 487 500 C455 592 383 641 281 641 C174 641 95 588 63 493 C55 468 50 442 50 421 L50 171 C50 150 54 126 63 100 L63 100 Z M400 176 C397 164 399 150 394 128 C381 72 342 41 283 41 C204 41 150 97 150 179 L150 428 C150 506 201 560 276 560 C361 560 401 494 401 353 C401 331 400 260 400 191 C400 186 400 181 400 176 L400 176 Z M272 711 C293 690 313 660 345 660 C374 660 400 681 400 704 C400 709 400 714 397 718 C388 731 312 805 302 811 C298 814 288 816 280 816 C272 816 261 814 254 810 C242 803 164 728 155 714 C152 710 150 702 150 696 C150 675 170 660 196 660 C229 660 250 689 272 711 L272 711 Z " />
<glyph glyph-name="Otilde" unicode="&#xd5;" horiz-adv-x="550" d="M63 100 C94 8 168 -41 270 -41 C376 -41 455 12 487 107 C495 132 500 158 500 179 L500 429 C500 450 496 474 487 500 C455 592 383 641 281 641 C174 641 95 588 63 493 C55 468 50 442 50 421 L50 171 C50 150 54 126 63 100 L63 100 Z M400 176 C397 164 399 150 394 128 C381 72 342 41 283 41 C204 41 150 97 150 179 L150 428 C150 506 201 560 276 560 C361 560 401 494 401 353 C401 331 400 260 400 191 C400 186 400 181 400 176 L400 176 Z M225 707 C233 701 239 694 245 688 C264 669 291 660 319 660 C376 660 425 699 425 745 C425 774 407 791 376 791 C348 791 331 775 325 743 C317 749 311 757 303 764 C284 780 258 791 230 791 C174 791 125 751 125 705 C125 677 144 660 174 660 C202 660 219 675 225 707 L225 707 Z " />
<glyph glyph-name="Odieresis" unicode="&#xd6;" horiz-adv-x="550" d="M63 100 C94 8 168 -41 270 -41 C376 -41 455 12 487 107 C495 132 500 158 500 179 L500 429 C500 450 496 474 487 500 C455 592 383 641 281 641 C174 641 95 588 63 493 C55 468 50 442 50 421 L50 171 C50 150 54 126 63 100 L63 100 Z M400 176 C397 164 399 150 394 128 C381 72 342 41 283 41 C204 41 150 97 150 179 L150 428 C150 506 201 560 276 560 C361 560 401 494 401 353 C401 331 400 260 400 191 C400 186 400 181 400 176 L400 176 Z M135 696 C135 676 154 660 180 660 C209 660 235 681 235 704 L235 779 C235 800 216 816 191 816 C162 816 135 795 135 771 L135 696 Z M300 696 C300 676 320 660 345 660 C374 660 400 681 400 704 L400 779 C400 800 381 816 356 816 C327 816 300 795 300 771 L300 696 Z " />
<glyph glyph-name="multiply" unicode="&#xd7;" horiz-adv-x="400" d="M134 248 C97 211 62 174 56 166 C52 161 50 154 50 146 C50 125 70 110 97 110 C108 110 119 113 125 117 C132 121 157 145 197 185 C234 149 264 119 271 115 C275 113 284 110 293 110 C323 110 350 130 350 154 C350 162 347 166 346 168 C342 175 314 204 266 252 C303 289 338 326 344 334 C348 339 350 347 350 354 C350 375 330 391 304 391 C295 391 283 388 276 384 C268 379 243 355 203 315 C166 351 136 381 129 386 C124 390 114 391 106 391 C77 391 50 370 50 346 C50 338 53 334 54 332 C58 325 86 296 134 248 L134 248 Z " />
<glyph glyph-name="Oslash" unicode="&#xd8;" horiz-adv-x="550" d="M63 100 C94 8 168 -41 270 -41 C376 -41 455 12 487 107 C495 132 500 158 500 179 L500 429 C500 450 496 474 487 500 C455 592 383 641 281 641 C174 641 95 588 63 493 C55 468 50 442 50 421 L50 171 C50 150 54 126 63 100 L63 100 Z M400 176 C397 164 399 150 394 128 C381 72 342 41 283 41 C204 41 150 97 150 179 L150 428 C150 506 201 560 276 560 C361 560 401 494 401 353 C401 331 400 260 400 191 C400 186 400 181 400 176 L400 176 Z M100 -113 C100 -128 123 -141 148 -141 C175 -141 192 -126 202 -94 L380 477 C390 509 450 688 450 713 C450 728 427 741 402 741 C375 741 358 726 348 694 L170 123 C160 91 100 -88 100 -113 L100 -113 Z " />
<glyph glyph-name="Ugrave" unicode="&#xd9;" horiz-adv-x="550" d="M64 98 C97 9 168 -41 270 -41 C376 -41 454 11 486 104 C495 130 500 157 500 179 L500 604 C500 625 480 641 453 641 C415 641 400 596 400 483 C400 454 401 321 401 289 C401 107 369 41 280 41 C210 41 165 82 153 155 C149 179 150 200 150 222 L150 310 C150 334 150 358 150 382 L150 525 C150 549 150 572 150 572 C150 619 136 641 107 641 C77 641 50 620 50 596 L50 171 C50 149 55 123 64 98 L64 98 Z M154 758 C162 750 235 674 247 665 C251 662 260 660 269 660 C298 660 325 680 325 703 C325 708 322 714 321 717 C317 728 240 803 227 811 C223 814 213 816 205 816 C177 816 150 795 150 772 C150 767 152 760 154 758 L154 758 Z " />
<glyph glyph-name="Uacute" unicode="&#xda;" horiz-adv-x="550" d="M64 98 C97 9 168 -41 270 -41 C376 -41 454 11 486 104 C495 130 500 157 500 179 L500 604 C500 625 480 641 453 641 C415 641 400 596 400 483 C400 454 401 321 401 289 C401 107 369 41 280 41 C210 41 165 82 153 155 C149 179 150 200 150 222 L150 310 C150 334 150 358 150 382 L150 525 C150 549 150 572 150 572 C150 619 136 641 107 641 C77 641 50 620 50 596 L50 171 C50 149 55 123 64 98 L64 98 Z M225 696 C225 676 244 660 270 660 C279 660 291 662 296 665 C308 672 386 747 395 761 C398 765 400 773 400 779 C400 800 381 816 356 816 C348 816 336 814 329 810 C317 803 239 728 230 714 C227 710 225 702 225 696 L225 696 Z " />
<glyph glyph-name="Ucircumflex" unicode="&#xdb;" horiz-adv-x="550" d="M64 98 C97 9 168 -41 270 -41 C376 -41 454 11 486 104 C495 130 500 157 500 179 L500 604 C500 625 480 641 453 641 C415 641 400 596 400 483 C400 454 401 321 401 289 C401 107 369 41 280 41 C210 41 165 82 153 155 C149 179 150 200 150 222 L150 310 C150 334 150 358 150 382 L150 525 C150 549 150 572 150 572 C150 619 136 641 107 641 C77 641 50 620 50 596 L50 171 C50 149 55 123 64 98 L64 98 Z M272 711 C293 690 313 660 345 660 C374 660 400 681 400 704 C400 709 400 714 397 718 C388 731 312 805 302 811 C298 814 288 816 280 816 C272 816 261 814 254 810 C242 803 164 728 155 714 C152 710 150 702 150 696 C150 675 170 660 196 660 C229 660 250 689 272 711 L272 711 Z " />
<glyph glyph-name="Udieresis" unicode="&#xdc;" horiz-adv-x="550" d="M64 98 C97 9 168 -41 270 -41 C376 -41 454 11 486 104 C495 130 500 157 500 179 L500 604 C500 625 480 641 453 641 C415 641 400 596 400 483 C400 454 401 321 401 289 C401 107 369 41 280 41 C210 41 165 82 153 155 C149 179 150 200 150 222 L150 310 C150 334 150 358 150 382 L150 525 C150 549 150 572 150 572 C150 619 136 641 107 641 C77 641 50 620 50 596 L50 171 C50 149 55 123 64 98 L64 98 Z M135 696 C135 676 154 660 180 660 C209 660 235 681 235 704 L235 779 C235 800 216 816 191 816 C162 816 135 795 135 771 L135 696 Z M300 696 C300 676 320 660 345 660 C374 660 400 681 400 704 L400 779 C400 800 381 816 356 816 C327 816 300 795 300 771 L300 696 Z " />
<glyph glyph-name="Yacute" unicode="&#xdd;" horiz-adv-x="494" d="M300 389 C309 401 314 407 319 413 L439 555 C447 564 456 573 462 582 C467 590 469 598 469 605 C469 626 449 641 423 641 C385 641 366 605 344 579 L252 470 L154 582 C133 606 115 641 81 641 C52 641 25 620 25 597 C25 589 27 584 28 583 C38 568 155 433 201 383 L200 -4 C200 -25 220 -41 245 -41 C274 -41 300 -19 300 4 L300 389 Z M200 696 C200 676 219 660 245 660 C254 660 266 662 271 665 C283 672 361 747 370 761 C373 765 375 773 375 779 C375 800 356 816 331 816 C323 816 311 814 304 810 C292 803 214 728 205 714 C202 710 200 702 200 696 L200 696 Z " />
<glyph glyph-name="Thorn" unicode="&#xde;" horiz-adv-x="450" d="M150 360 L220 360 C268 360 300 324 300 271 L300 222 C300 178 277 145 244 141 C235 140 227 141 218 140 C194 137 175 116 175 96 C175 73 197 60 235 60 C306 60 366 103 390 176 C397 196 400 214 400 229 L400 279 C400 293 397 310 391 328 C366 402 310 441 230 441 L150 441 L150 504 C150 525 131 541 106 541 C77 541 50 520 50 496 L50 -4 C50 -25 70 -41 96 -41 C116 -41 138 -30 144 -16 C154 6 150 96 150 120 L150 360 Z " />
<glyph glyph-name="germandbls" unicode="&#xdf;" horiz-adv-x="625" d="M125 360 L125 -4 C125 -25 145 -41 170 -41 C191 -41 213 -29 220 -15 C226 -2 225 23 225 33 C225 157 225 281 225 404 C225 406 224 407 224 408 C224 427 224 447 224 447 C224 525 246 560 296 560 L381 560 L296 462 C282 446 250 419 250 391 C250 351 313 360 347 360 C431 360 475 303 475 195 C475 103 440 50 375 42 C358 40 339 41 327 41 C279 41 250 25 250 -2 C250 -24 270 -41 295 -41 L345 -41 C487 -41 575 53 575 206 C575 337 510 420 392 438 L392 439 L478 537 C492 553 525 581 525 607 C525 626 505 641 480 641 L305 641 C222 641 160 600 135 524 C128 504 125 486 125 471 L125 441 L105 441 C77 441 50 419 50 396 C50 376 69 360 95 360 L125 360 Z " />
<glyph glyph-name="agrave" unicode="&#xe0;" horiz-adv-x="450" d="M300 159 C300 112 299 65 299 42 C299 -22 308 -41 340 -41 C373 -41 400 -20 400 4 L400 279 C400 294 397 312 390 332 C365 403 308 441 230 441 L180 441 C151 441 125 418 125 393 C125 352 185 360 215 360 C277 360 301 327 301 241 L205 241 C118 241 50 178 50 98 C50 35 90 -17 149 -34 C164 -38 185 -41 203 -41 C247 -41 275 -23 275 5 C275 40 235 40 235 40 C179 40 150 61 150 102 C150 122 157 143 166 150 C174 156 207 160 244 160 C251 160 259 160 266 160 L300 159 Z M103 583 C111 575 184 499 196 490 C200 487 209 485 218 485 C247 485 274 505 274 528 C274 533 271 539 270 542 C266 553 189 628 176 636 C172 639 162 641 154 641 C126 641 99 620 99 597 C99 592 101 585 103 583 L103 583 Z " />
<glyph glyph-name="aacute" unicode="&#xe1;" horiz-adv-x="450" d="M300 159 C300 112 299 65 299 42 C299 -22 308 -41 340 -41 C373 -41 400 -20 400 4 L400 279 C400 294 397 312 390 332 C365 403 308 441 230 441 L180 441 C151 441 125 418 125 393 C125 352 185 360 215 360 C277 360 301 327 301 241 L205 241 C118 241 50 178 50 98 C50 35 90 -17 149 -34 C164 -38 185 -41 203 -41 C247 -41 275 -23 275 5 C275 40 235 40 235 40 C179 40 150 61 150 102 C150 122 157 143 166 150 C174 156 207 160 244 160 C251 160 259 160 266 160 L300 159 Z M174 521 C174 501 193 485 219 485 C228 485 240 487 245 490 C257 497 335 572 344 586 C347 590 349 598 349 604 C349 625 330 641 305 641 C297 641 285 639 278 635 C266 628 188 553 179 539 C176 535 174 527 174 521 L174 521 Z " />
<glyph glyph-name="acircumflex" unicode="&#xe2;" horiz-adv-x="450" d="M300 159 C300 112 299 65 299 42 C299 -22 308 -41 340 -41 C373 -41 400 -20 400 4 L400 279 C400 294 397 312 390 332 C365 403 308 441 230 441 L180 441 C151 441 125 418 125 393 C125 352 185 360 215 360 C277 360 301 327 301 241 L205 241 C118 241 50 178 50 98 C50 35 90 -17 149 -34 C164 -38 185 -41 203 -41 C247 -41 275 -23 275 5 C275 40 235 40 235 40 C179 40 150 61 150 102 C150 122 157 143 166 150 C174 156 207 160 244 160 C251 160 259 160 266 160 L300 159 Z M221 536 C242 515 262 485 294 485 C323 485 349 506 349 529 C349 534 349 539 346 543 C337 556 261 630 251 636 C247 639 237 641 229 641 C221 641 210 639 203 635 C191 628 113 553 104 539 C101 535 99 527 99 521 C99 500 119 485 145 485 C178 485 199 514 221 536 L221 536 Z " />
<glyph glyph-name="atilde" unicode="&#xe3;" horiz-adv-x="450" d="M300 159 C300 112 299 65 299 42 C299 -22 308 -41 340 -41 C373 -41 400 -20 400 4 L400 279 C400 294 397 312 390 332 C365 403 308 441 230 441 L180 441 C151 441 125 418 125 393 C125 352 185 360 215 360 C277 360 301 327 301 241 L205 241 C118 241 50 178 50 98 C50 35 90 -17 149 -34 C164 -38 185 -41 203 -41 C247 -41 275 -23 275 5 C275 40 235 40 235 40 C179 40 150 61 150 102 C150 122 157 143 166 150 C174 156 207 160 244 160 C251 160 259 160 266 160 L300 159 Z M174 532 C182 526 188 519 194 513 C213 494 240 485 268 485 C325 485 374 524 374 570 C374 599 356 616 325 616 C297 616 280 600 274 568 C266 574 260 582 252 589 C233 605 207 616 179 616 C123 616 74 576 74 530 C74 502 93 485 123 485 C151 485 168 500 174 532 L174 532 Z " />
<glyph glyph-name="adieresis" unicode="&#xe4;" horiz-adv-x="450" d="M300 159 C300 112 299 65 299 42 C299 -22 308 -41 340 -41 C373 -41 400 -20 400 4 L400 279 C400 294 397 312 390 332 C365 403 308 441 230 441 L180 441 C151 441 125 418 125 393 C125 352 185 360 215 360 C277 360 301 327 301 241 L205 241 C118 241 50 178 50 98 C50 35 90 -17 149 -34 C164 -38 185 -41 203 -41 C247 -41 275 -23 275 5 C275 40 235 40 235 40 C179 40 150 61 150 102 C150 122 157 143 166 150 C174 156 207 160 244 160 C251 160 259 160 266 160 L300 159 Z M84 521 C84 501 103 485 129 485 C158 485 184 506 184 529 L184 604 C184 625 165 641 140 641 C111 641 84 620 84 596 L84 521 Z M249 521 C249 501 269 485 294 485 C323 485 349 506 349 529 L349 604 C349 625 330 641 305 641 C276 641 249 620 249 596 L249 521 Z " />
<glyph glyph-name="aring" unicode="&#xe5;" horiz-adv-x="450" d="M300 159 C300 112 299 65 299 42 C299 -22 308 -41 340 -41 C373 -41 400 -20 400 4 L400 279 C400 294 397 312 390 332 C365 403 308 441 230 441 L180 441 C151 441 125 418 125 393 C125 352 185 360 215 360 C277 360 301 327 301 241 L205 241 C118 241 50 178 50 98 C50 35 90 -17 149 -34 C164 -38 185 -41 203 -41 C247 -41 275 -23 275 5 C275 40 235 40 235 40 C179 40 150 61 150 102 C150 122 157 143 166 150 C174 156 207 160 244 160 C251 160 259 160 266 160 L300 159 Z M99 518 C99 455 152 406 221 407 C294 408 352 462 352 528 C352 591 298 641 231 641 C159 641 99 585 99 518 L99 518 Z M223 489 C209 494 199 509 199 526 C199 545 209 559 222 559 C238 559 252 539 252 518 C252 501 243 489 229 487 C227 487 226 488 223 489 L223 489 Z " />
<glyph glyph-name="ae" unicode="&#xe6;" horiz-adv-x="702" d="M302 159 L302 121 C302 106 306 88 312 71 C338 -2 393 -41 472 -41 L520 -41 C549 -41 575 -18 575 7 C575 49 516 40 489 40 C437 40 402 76 402 129 L402 160 L595 160 C621 160 645 176 649 196 C652 211 652 263 652 263 C652 290 650 311 642 332 C615 403 561 441 484 441 C433 441 387 424 354 393 C324 424 281 441 230 441 L180 441 C151 441 125 418 125 393 C125 351 184 360 215 360 C276 360 300 326 300 241 L205 241 C117 241 50 178 50 95 C50 16 111 -41 195 -41 L245 -41 C274 -41 300 -18 300 7 C300 49 241 40 216 40 C175 40 150 63 150 102 C150 122 157 143 166 150 C174 156 207 160 244 160 C251 160 259 160 266 160 L302 159 Z M402 241 L402 279 C402 330 428 360 471 360 C518 360 552 323 552 271 C552 261 552 251 552 241 L402 241 Z " />
<glyph glyph-name="ccedilla" unicode="&#xe7;" horiz-adv-x="450" d="M59 72 C84 -2 140 -41 220 -41 C303 -41 363 3 390 77 C396 94 400 112 400 124 C400 149 382 166 355 166 C331 166 306 150 301 129 C299 120 299 110 296 97 C287 59 268 41 232 41 C183 41 150 77 150 129 L150 278 C150 328 178 360 222 360 C260 360 287 337 296 297 C299 284 299 274 301 266 C306 247 323 235 345 235 C375 235 400 258 400 285 C400 295 397 311 391 328 C365 402 310 441 230 441 C147 441 87 397 60 323 C53 305 50 287 50 271 L50 121 C50 107 53 90 59 72 L59 72 Z M224 -100 C223 -95 224 -91 222 -85 C217 -70 200 -60 180 -60 C148 -60 124 -83 124 -114 C124 -157 166 -191 219 -191 C278 -191 324 -149 324 -96 L324 -46 C324 3 286 41 237 41 C202 41 174 21 174 -4 C174 -20 187 -33 206 -38 C213 -40 217 -39 219 -41 C221 -43 224 -49 224 -55 L224 -100 Z " />
<glyph glyph-name="egrave" unicode="&#xe8;" horiz-adv-x="450" d="M150 160 L343 160 C369 160 393 176 397 196 C400 211 400 263 400 263 C400 290 398 311 390 332 C363 403 309 441 232 441 C126 441 50 370 50 271 L50 121 C50 106 54 88 60 71 C86 -2 141 -41 220 -41 L268 -41 C297 -41 323 -18 323 7 C323 49 264 40 237 40 C185 40 150 76 150 129 L150 160 Z M150 241 L150 279 C150 330 176 360 219 360 C266 360 300 323 300 271 C300 261 300 251 300 241 L150 241 Z M104 583 C112 575 185 499 197 490 C201 487 210 485 219 485 C248 485 275 505 275 528 C275 533 272 539 271 542 C267 553 190 628 177 636 C173 639 163 641 155 641 C127 641 100 620 100 597 C100 592 102 585 104 583 L104 583 Z " />
<glyph glyph-name="eacute" unicode="&#xe9;" horiz-adv-x="450" d="M150 160 L343 160 C369 160 393 176 397 196 C400 211 400 263 400 263 C400 290 398 311 390 332 C363 403 309 441 232 441 C126 441 50 370 50 271 L50 121 C50 106 54 88 60 71 C86 -2 141 -41 220 -41 L268 -41 C297 -41 323 -18 323 7 C323 49 264 40 237 40 C185 40 150 76 150 129 L150 160 Z M150 241 L150 279 C150 330 176 360 219 360 C266 360 300 323 300 271 C300 261 300 251 300 241 L150 241 Z M175 521 C175 501 194 485 220 485 C229 485 241 487 246 490 C258 497 336 572 345 586 C348 590 350 598 350 604 C350 625 331 641 306 641 C298 641 286 639 279 635 C267 628 189 553 180 539 C177 535 175 527 175 521 L175 521 Z " />
<glyph glyph-name="ecircumflex" unicode="&#xea;" horiz-adv-x="450" d="M150 160 L343 160 C369 160 393 176 397 196 C400 211 400 263 400 263 C400 290 398 311 390 332 C363 403 309 441 232 441 C126 441 50 370 50 271 L50 121 C50 106 54 88 60 71 C86 -2 141 -41 220 -41 L268 -41 C297 -41 323 -18 323 7 C323 49 264 40 237 40 C185 40 150 76 150 129 L150 160 Z M150 241 L150 279 C150 330 176 360 219 360 C266 360 300 323 300 271 C300 261 300 251 300 241 L150 241 Z M222 536 C243 515 263 485 295 485 C324 485 350 506 350 529 C350 534 350 539 347 543 C338 556 262 630 252 636 C248 639 238 641 230 641 C222 641 211 639 204 635 C192 628 114 553 105 539 C102 535 100 527 100 521 C100 500 120 485 146 485 C179 485 200 514 222 536 L222 536 Z " />
<glyph glyph-name="edieresis" unicode="&#xeb;" horiz-adv-x="450" d="M150 160 L343 160 C369 160 393 176 397 196 C400 211 400 263 400 263 C400 290 398 311 390 332 C363 403 309 441 232 441 C126 441 50 370 50 271 L50 121 C50 106 54 88 60 71 C86 -2 141 -41 220 -41 L268 -41 C297 -41 323 -18 323 7 C323 49 264 40 237 40 C185 40 150 76 150 129 L150 160 Z M150 241 L150 279 C150 330 176 360 219 360 C266 360 300 323 300 271 C300 261 300 251 300 241 L150 241 Z M85 521 C85 501 104 485 130 485 C159 485 185 506 185 529 L185 604 C185 625 166 641 141 641 C112 641 85 620 85 596 L85 521 Z M250 521 C250 501 270 485 295 485 C324 485 350 506 350 529 L350 604 C350 625 331 641 306 641 C277 641 250 620 250 596 L250 521 Z " />
<glyph glyph-name="igrave" unicode="&#xec;" horiz-adv-x="200" d="M50 -4 C50 -25 70 -41 95 -41 C124 -41 150 -19 150 4 L150 404 C150 425 131 441 106 441 C77 441 50 420 50 396 L50 -4 Z M-21 583 C-13 575 60 499 72 490 C76 487 85 485 94 485 C123 485 150 505 150 528 C150 533 147 539 146 542 C142 553 65 628 52 636 C48 639 38 641 30 641 C2 641 -25 620 -25 597 C-25 592 -23 585 -21 583 L-21 583 Z " />
<glyph glyph-name="iacute" unicode="&#xed;" horiz-adv-x="200" d="M50 -4 C50 -25 70 -41 95 -41 C124 -41 150 -19 150 4 L150 404 C150 425 131 441 106 441 C77 441 50 420 50 396 L50 -4 Z M50 521 C50 501 69 485 95 485 C104 485 116 487 121 490 C133 497 211 572 220 586 C223 590 225 598 225 604 C225 625 206 641 181 641 C173 641 161 639 154 635 C142 628 64 553 55 539 C52 535 50 527 50 521 L50 521 Z " />
<glyph glyph-name="icircumflex" unicode="&#xee;" horiz-adv-x="200" d="M50 -4 C50 -25 70 -41 95 -41 C124 -41 150 -19 150 4 L150 404 C150 425 131 441 106 441 C77 441 50 420 50 396 L50 -4 Z M97 536 C118 515 138 485 170 485 C199 485 225 506 225 529 C225 534 225 539 222 543 C213 556 137 630 127 636 C123 639 113 641 105 641 C97 641 86 639 79 635 C67 628 -11 553 -20 539 C-23 535 -25 527 -25 521 C-25 500 -5 485 21 485 C54 485 75 514 97 536 L97 536 Z " />
<glyph glyph-name="idieresis" unicode="&#xef;" horiz-adv-x="200" d="M50 -4 C50 -25 70 -41 95 -41 C124 -41 150 -19 150 4 L150 404 C150 425 131 441 106 441 C77 441 50 420 50 396 L50 -4 Z M-40 521 C-40 501 -21 485 5 485 C34 485 60 506 60 529 L60 604 C60 625 41 641 16 641 C-13 641 -40 620 -40 596 L-40 521 Z M125 521 C125 501 145 485 170 485 C199 485 225 506 225 529 L225 604 C225 625 206 641 181 641 C152 641 125 620 125 596 L125 521 Z " />
<glyph glyph-name="eth" unicode="&#xf0;" horiz-adv-x="450" d="M224 442 C229 445 239 455 262 476 L265 473 C289 449 300 425 300 395 L300 122 C300 72 274 41 230 41 C183 41 150 77 150 129 L150 253 C150 304 178 335 225 335 L237 335 C274 335 300 353 300 379 C300 404 280 416 237 416 C153 416 96 384 67 320 C56 296 50 270 50 246 L50 121 C50 107 53 90 59 72 C84 -2 140 -41 220 -41 C303 -41 363 3 390 77 C397 95 400 114 400 129 L400 404 C400 449 374 506 344 528 C341 532 336 536 330 542 C351 563 365 578 369 584 C373 589 375 597 375 604 C375 625 356 641 330 641 C321 641 309 639 301 634 C294 629 281 618 268 605 C247 625 237 632 233 635 C228 639 219 641 210 641 C182 641 155 620 155 597 C155 592 158 586 159 583 C162 575 180 558 200 537 C178 515 161 497 156 491 C152 486 150 479 150 471 C150 450 170 435 196 435 C207 435 218 438 224 442 L224 442 Z " />
<glyph glyph-name="ntilde" unicode="&#xf1;" horiz-adv-x="450" d="M150 360 L220 360 C314 360 300 255 300 190 C300 127 300 65 300 65 C300 -10 313 -41 343 -41 C373 -41 400 -20 400 4 L400 279 C400 295 396 312 390 329 C364 402 309 441 230 441 L105 441 C77 441 50 419 50 396 L50 -4 C50 -25 70 -41 95 -41 C116 -41 138 -30 144 -16 C154 6 150 95 150 120 L150 360 Z M174 532 C182 526 188 519 194 513 C213 494 240 485 268 485 C325 485 374 524 374 570 C374 599 356 616 325 616 C297 616 280 600 274 568 C266 574 260 582 252 589 C233 605 207 616 179 616 C123 616 74 576 74 530 C74 502 93 485 123 485 C151 485 168 500 174 532 L174 532 Z " />
<glyph glyph-name="ograve" unicode="&#xf2;" horiz-adv-x="450" d="M59 72 C84 -2 140 -41 220 -41 C303 -41 363 3 390 77 C397 95 400 114 400 129 L400 279 C400 293 397 310 391 328 C366 402 310 441 230 441 C147 441 87 397 60 323 C53 305 50 287 50 271 L50 121 C50 107 53 90 59 72 L59 72 Z M150 277 C157 336 176 360 218 360 C267 360 300 324 300 271 L300 122 C300 71 273 41 228 41 C175 41 149 82 149 168 C149 185 150 227 150 269 C150 272 150 274 150 277 L150 277 Z M103 583 C111 575 184 499 196 490 C200 487 209 485 218 485 C247 485 274 505 274 528 C274 533 271 539 270 542 C266 553 189 628 176 636 C172 639 162 641 154 641 C126 641 99 620 99 597 C99 592 101 585 103 583 L103 583 Z " />
<glyph glyph-name="oacute" unicode="&#xf3;" horiz-adv-x="450" d="M59 72 C84 -2 140 -41 220 -41 C303 -41 363 3 390 77 C397 95 400 114 400 129 L400 279 C400 293 397 310 391 328 C366 402 310 441 230 441 C147 441 87 397 60 323 C53 305 50 287 50 271 L50 121 C50 107 53 90 59 72 L59 72 Z M150 277 C157 336 176 360 218 360 C267 360 300 324 300 271 L300 122 C300 71 273 41 228 41 C175 41 149 82 149 168 C149 185 150 227 150 269 C150 272 150 274 150 277 L150 277 Z M174 521 C174 501 193 485 219 485 C228 485 240 487 245 490 C257 497 335 572 344 586 C347 590 349 598 349 604 C349 625 330 641 305 641 C297 641 285 639 278 635 C266 628 188 553 179 539 C176 535 174 527 174 521 L174 521 Z " />
<glyph glyph-name="ocircumflex" unicode="&#xf4;" horiz-adv-x="450" d="M59 72 C84 -2 140 -41 220 -41 C303 -41 363 3 390 77 C397 95 400 114 400 129 L400 279 C400 293 397 310 391 328 C366 402 310 441 230 441 C147 441 87 397 60 323 C53 305 50 287 50 271 L50 121 C50 107 53 90 59 72 L59 72 Z M150 277 C157 336 176 360 218 360 C267 360 300 324 300 271 L300 122 C300 71 273 41 228 41 C175 41 149 82 149 168 C149 185 150 227 150 269 C150 272 150 274 150 277 L150 277 Z M221 536 C242 515 262 485 294 485 C323 485 349 506 349 529 C349 534 349 539 346 543 C337 556 261 630 251 636 C247 639 237 641 229 641 C221 641 210 639 203 635 C191 628 113 553 104 539 C101 535 99 527 99 521 C99 500 119 485 145 485 C178 485 199 514 221 536 L221 536 Z " />
<glyph glyph-name="otilde" unicode="&#xf5;" horiz-adv-x="450" d="M59 72 C84 -2 140 -41 220 -41 C303 -41 363 3 390 77 C397 95 400 114 400 129 L400 279 C400 293 397 310 391 328 C366 402 310 441 230 441 C147 441 87 397 60 323 C53 305 50 287 50 271 L50 121 C50 107 53 90 59 72 L59 72 Z M150 277 C157 336 176 360 218 360 C267 360 300 324 300 271 L300 122 C300 71 273 41 228 41 C175 41 149 82 149 168 C149 185 150 227 150 269 C150 272 150 274 150 277 L150 277 Z M174 532 C182 526 188 519 194 513 C213 494 240 485 268 485 C325 485 374 524 374 570 C374 599 356 616 325 616 C297 616 280 600 274 568 C266 574 260 582 252 589 C233 605 207 616 179 616 C123 616 74 576 74 530 C74 502 93 485 123 485 C151 485 168 500 174 532 L174 532 Z " />
<glyph glyph-name="odieresis" unicode="&#xf6;" horiz-adv-x="450" d="M59 72 C84 -2 140 -41 220 -41 C303 -41 363 3 390 77 C397 95 400 114 400 129 L400 279 C400 293 397 310 391 328 C366 402 310 441 230 441 C147 441 87 397 60 323 C53 305 50 287 50 271 L50 121 C50 107 53 90 59 72 L59 72 Z M150 277 C157 336 176 360 218 360 C267 360 300 324 300 271 L300 122 C300 71 273 41 228 41 C175 41 149 82 149 168 C149 185 150 227 150 269 C150 272 150 274 150 277 L150 277 Z M84 521 C84 501 103 485 129 485 C158 485 184 506 184 529 L184 604 C184 625 165 641 140 641 C111 641 84 620 84 596 L84 521 Z M249 521 C249 501 269 485 294 485 C323 485 349 506 349 529 L349 604 C349 625 330 641 305 641 C276 641 249 620 249 596 L249 521 Z " />
<glyph glyph-name="divide" unicode="&#xf7;" horiz-adv-x="400" d="M50 196 C50 176 69 160 95 160 L295 160 C324 160 350 181 350 204 C350 225 331 241 305 241 L105 241 C77 241 50 219 50 196 L50 196 Z M150 321 C150 301 170 285 195 285 C224 285 250 306 250 329 L250 404 C250 425 231 441 206 441 C177 441 150 420 150 396 L150 321 Z M150 -4 C150 -25 170 -41 195 -41 C224 -41 250 -19 250 4 L250 79 C250 100 231 116 206 116 C177 116 150 95 150 71 L150 -4 Z " />
<glyph glyph-name="oslash" unicode="&#xf8;" horiz-adv-x="450" d="M59 72 C84 -2 140 -41 220 -41 C303 -41 363 3 390 77 C397 95 400 114 400 129 L400 279 C400 293 397 310 391 328 C366 402 310 441 230 441 C147 441 87 397 60 323 C53 305 50 287 50 271 L50 121 C50 107 53 90 59 72 L59 72 Z M150 277 C157 336 176 360 218 360 C267 360 300 324 300 271 L300 122 C300 71 273 41 228 41 C175 41 149 82 149 168 C149 185 150 227 150 269 C150 272 150 274 150 277 L150 277 Z M82 -28 C76 -45 74 -50 74 -56 C74 -75 94 -91 119 -91 C138 -91 156 -81 167 -66 C176 -54 180 -37 186 -22 L225 76 C274 198 325 318 366 428 C372 445 374 450 374 456 C374 476 354 491 329 491 C310 491 292 481 281 466 C272 454 268 437 262 422 L223 325 C174 203 123 82 82 -28 L82 -28 Z " />
<glyph glyph-name="ugrave" unicode="&#xf9;" horiz-adv-x="450" d="M300 41 L231 41 C137 41 150 145 150 210 C150 273 150 335 150 335 C150 410 137 441 107 441 C77 441 50 420 50 396 L50 121 C50 106 54 88 60 71 C86 -2 141 -41 220 -41 L345 -41 C374 -41 400 -19 400 4 L400 404 C400 425 381 441 355 441 C334 441 312 430 306 416 C296 394 300 305 300 280 L300 41 Z M103 583 C111 575 184 499 196 490 C200 487 209 485 218 485 C247 485 274 505 274 528 C274 533 271 539 270 542 C266 553 189 628 176 636 C172 639 162 641 154 641 C126 641 99 620 99 597 C99 592 101 585 103 583 L103 583 Z " />
<glyph glyph-name="uacute" unicode="&#xfa;" horiz-adv-x="450" d="M300 41 L231 41 C137 41 150 145 150 210 C150 273 150 335 150 335 C150 410 137 441 107 441 C77 441 50 420 50 396 L50 121 C50 106 54 88 60 71 C86 -2 141 -41 220 -41 L345 -41 C374 -41 400 -19 400 4 L400 404 C400 425 381 441 355 441 C334 441 312 430 306 416 C296 394 300 305 300 280 L300 41 Z M174 521 C174 501 193 485 219 485 C228 485 240 487 245 490 C257 497 335 572 344 586 C347 590 349 598 349 604 C349 625 330 641 305 641 C297 641 285 639 278 635 C266 628 188 553 179 539 C176 535 174 527 174 521 L174 521 Z " />
<glyph glyph-name="ucircumflex" unicode="&#xfb;" horiz-adv-x="450" d="M300 41 L231 41 C137 41 150 145 150 210 C150 273 150 335 150 335 C150 410 137 441 107 441 C77 441 50 420 50 396 L50 121 C50 106 54 88 60 71 C86 -2 141 -41 220 -41 L345 -41 C374 -41 400 -19 400 4 L400 404 C400 425 381 441 355 441 C334 441 312 430 306 416 C296 394 300 305 300 280 L300 41 Z M221 536 C242 515 262 485 294 485 C323 485 349 506 349 529 C349 534 349 539 346 543 C337 556 261 630 251 636 C247 639 237 641 229 641 C221 641 210 639 203 635 C191 628 113 553 104 539 C101 535 99 527 99 521 C99 500 119 485 145 485 C178 485 199 514 221 536 L221 536 Z " />
<glyph glyph-name="udieresis" unicode="&#xfc;" horiz-adv-x="450" d="M300 41 L231 41 C137 41 150 145 150 210 C150 273 150 335 150 335 C150 410 137 441 107 441 C77 441 50 420 50 396 L50 121 C50 106 54 88 60 71 C86 -2 141 -41 220 -41 L345 -41 C374 -41 400 -19 400 4 L400 404 C400 425 381 441 355 441 C334 441 312 430 306 416 C296 394 300 305 300 280 L300 41 Z M84 521 C84 501 103 485 129 485 C158 485 184 506 184 529 L184 604 C184 625 165 641 140 641 C111 641 84 620 84 596 L84 521 Z M249 521 C249 501 269 485 294 485 C323 485 349 506 349 529 L349 604 C349 625 330 641 305 641 C276 641 249 620 249 596 L249 521 Z " />
<glyph glyph-name="yacute" unicode="&#xfd;" horiz-adv-x="400" d="M203 160 C169 267 120 421 119 422 C105 437 97 441 83 441 C57 441 25 423 25 409 C25 393 99 148 152 -11 L138 -58 C133 -74 129 -91 119 -118 C108 -147 97 -158 74 -161 C45 -165 25 -183 25 -204 C25 -226 47 -241 80 -241 C136 -241 187 -195 216 -125 C225 -103 230 -81 237 -59 L275 66 C288 108 375 386 375 414 C375 428 353 441 330 441 C313 441 294 432 286 422 C274 406 254 330 248 311 L203 160 Z M150 521 C150 501 169 485 195 485 C204 485 216 487 221 490 C233 497 311 572 320 586 C323 590 325 598 325 604 C325 625 306 641 281 641 C273 641 261 639 254 635 C242 628 164 553 155 539 C152 535 150 527 150 521 L150 521 Z " />
<glyph glyph-name="thorn" unicode="&#xfe;" horiz-adv-x="525" d="M150 360 L270 360 C332 360 375 315 375 250 C375 230 371 211 362 192 C335 135 297 141 261 141 C205 141 175 126 175 98 C175 76 194 60 220 60 L270 60 C365 60 433 107 463 192 C471 215 475 238 475 260 C475 364 392 441 280 441 L150 441 L150 604 C150 625 131 641 106 641 C77 641 50 620 50 596 L50 -204 C50 -225 70 -241 95 -241 C117 -241 139 -228 145 -213 C151 -197 150 -154 150 -138 L150 360 Z " />
<glyph glyph-name="ydieresis" unicode="&#xff;" horiz-adv-x="400" d="M203 160 C169 267 120 421 119 422 C105 437 97 441 83 441 C57 441 25 423 25 409 C25 393 99 148 152 -11 L138 -58 C133 -74 129 -91 119 -118 C108 -147 97 -158 74 -161 C45 -165 25 -183 25 -204 C25 -226 47 -241 80 -241 C136 -241 187 -195 216 -125 C225 -103 230 -81 237 -59 L275 66 C288 108 375 386 375 414 C375 428 353 441 330 441 C313 441 294 432 286 422 C274 406 254 330 248 311 L203 160 Z M60 521 C60 501 79 485 105 485 C134 485 160 506 160 529 L160 604 C160 625 141 641 116 641 C87 641 60 620 60 596 L60 521 Z M225 521 C225 501 245 485 270 485 C299 485 325 506 325 529 L325 604 C325 625 306 641 281 641 C252 641 225 620 225 596 L225 521 Z " />
<glyph glyph-name="Amacron" unicode="&#x100;" horiz-adv-x="500" d="M355 59 C373 -1 381 -21 387 -29 C393 -36 405 -41 418 -41 C444 -41 475 -23 475 -8 C475 24 326 515 315 555 C309 576 304 606 295 621 C287 634 273 641 255 641 C234 641 214 630 205 614 C197 600 194 578 189 562 L155 445 C112 298 67 152 32 26 C26 2 25 -1 25 -6 C25 -25 46 -41 71 -41 C87 -41 104 -34 112 -24 C119 -15 128 9 143 58 L355 59 Z M167 141 C200 255 240 395 249 425 C258 396 297 256 331 140 L167 141 Z M125 721 C125 701 145 685 170 685 L320 685 C349 685 375 706 375 729 C375 750 356 766 330 766 L180 766 C152 766 125 744 125 721 L125 721 Z " />
<glyph glyph-name="amacron" unicode="&#x101;" horiz-adv-x="450" d="M300 159 C300 112 299 65 299 42 C299 -22 308 -41 340 -41 C373 -41 400 -20 400 4 L400 279 C400 294 397 312 390 332 C365 403 308 441 230 441 L180 441 C151 441 125 418 125 393 C125 352 185 360 215 360 C277 360 301 327 301 241 L205 241 C118 241 50 178 50 98 C50 35 90 -17 149 -34 C164 -38 185 -41 203 -41 C247 -41 275 -23 275 5 C275 40 235 40 235 40 C179 40 150 61 150 102 C150 122 157 143 166 150 C174 156 207 160 244 160 C251 160 259 160 266 160 L300 159 Z M99 546 C99 526 119 510 144 510 L294 510 C323 510 349 531 349 554 C349 575 330 591 304 591 L154 591 C126 591 99 569 99 546 L99 546 Z " />
<glyph glyph-name="Abreve" unicode="&#x102;" horiz-adv-x="500" d="M355 59 C373 -1 381 -21 387 -29 C393 -36 405 -41 418 -41 C444 -41 475 -23 475 -8 C475 24 326 515 315 555 C309 576 304 606 295 621 C287 634 273 641 255 641 C234 641 214 630 205 614 C197 600 194 578 189 562 L155 445 C112 298 67 152 32 26 C26 2 25 -1 25 -6 C25 -25 46 -41 71 -41 C87 -41 104 -34 112 -24 C119 -15 128 9 143 58 L355 59 Z M167 141 C200 255 240 395 249 425 C258 396 297 256 331 140 L167 141 Z M125 756 C125 702 176 660 241 660 C314 660 375 709 375 767 C375 797 358 816 330 816 C318 816 306 812 297 806 C261 782 288 741 255 741 C210 741 248 816 186 816 C150 816 125 792 125 756 L125 756 Z " />
<glyph glyph-name="abreve" unicode="&#x103;" horiz-adv-x="450" d="M300 159 C300 112 299 65 299 42 C299 -22 308 -41 340 -41 C373 -41 400 -20 400 4 L400 279 C400 294 397 312 390 332 C365 403 308 441 230 441 L180 441 C151 441 125 418 125 393 C125 352 185 360 215 360 C277 360 301 327 301 241 L205 241 C118 241 50 178 50 98 C50 35 90 -17 149 -34 C164 -38 185 -41 203 -41 C247 -41 275 -23 275 5 C275 40 235 40 235 40 C179 40 150 61 150 102 C150 122 157 143 166 150 C174 156 207 160 244 160 C251 160 259 160 266 160 L300 159 Z M99 581 C99 527 150 485 215 485 C288 485 349 534 349 592 C349 622 332 641 304 641 C292 641 280 637 271 631 C235 607 262 566 229 566 C184 566 222 641 160 641 C124 641 99 617 99 581 L99 581 Z " />
<glyph glyph-name="Aogonek" unicode="&#x104;" horiz-adv-x="500" d="M355 59 C373 -1 381 -21 387 -29 C393 -36 405 -41 418 -41 C444 -41 475 -23 475 -8 C475 24 326 515 315 555 C309 576 304 606 295 621 C287 634 273 641 255 641 C234 641 214 630 205 614 C197 600 194 578 189 562 L155 445 C112 298 67 152 32 26 C26 2 25 -1 25 -6 C25 -25 46 -41 71 -41 C87 -41 104 -34 112 -24 C119 -15 128 9 143 58 L355 59 Z M167 141 C200 255 240 395 249 425 C258 396 297 256 331 140 L167 141 Z M426 -101 C425 -100 425 -98 425 -95 L425 -48 C425 -46 426 -42 426 -40 C431 -38 437 -39 444 -37 C461 -32 475 -12 475 5 C475 26 454 41 424 41 C370 41 325 -2 325 -54 L325 -104 C325 -154 365 -191 420 -191 C476 -191 525 -151 525 -105 C525 -78 508 -60 480 -60 C452 -60 428 -78 426 -101 L426 -101 Z " />
<glyph glyph-name="aogonek" unicode="&#x105;" horiz-adv-x="450" d="M300 159 C300 112 299 65 299 42 C299 -22 308 -41 340 -41 C373 -41 400 -20 400 4 L400 279 C400 294 397 312 390 332 C365 403 308 441 230 441 L180 441 C151 441 125 418 125 393 C125 352 185 360 215 360 C277 360 301 327 301 241 L205 241 C118 241 50 178 50 98 C50 35 90 -17 149 -34 C164 -38 185 -41 203 -41 C247 -41 275 -23 275 5 C275 40 235 40 235 40 C179 40 150 61 150 102 C150 122 157 143 166 150 C174 156 207 160 244 160 C251 160 259 160 266 160 L300 159 Z M250 -101 C249 -100 249 -98 249 -95 L249 -48 C249 -46 250 -42 250 -40 C255 -38 261 -39 268 -37 C285 -32 299 -12 299 5 C299 26 278 41 248 41 C194 41 149 -2 149 -54 L149 -104 C149 -154 189 -191 244 -191 C300 -191 349 -151 349 -105 C349 -78 332 -60 304 -60 C276 -60 252 -78 250 -101 L250 -101 Z " />
<glyph glyph-name="Cacute" unicode="&#x106;" horiz-adv-x="550" d="M63 101 C95 9 168 -41 270 -41 C376 -41 455 12 487 107 C495 131 500 156 500 171 C500 198 482 216 455 216 C430 216 409 201 402 179 C398 167 399 152 395 131 C384 73 343 41 283 41 C204 41 150 97 150 179 L150 428 C150 506 201 560 275 560 C336 560 381 524 394 465 C401 433 396 405 419 392 C426 388 435 385 444 385 C476 385 500 408 500 438 C500 452 495 477 487 499 C454 591 382 641 280 641 C174 641 95 588 63 493 C55 468 50 442 50 421 L50 171 C50 150 55 125 63 101 L63 101 Z M225 696 C225 676 244 660 270 660 C279 660 291 662 296 665 C308 672 386 747 395 761 C398 765 400 773 400 779 C400 800 381 816 356 816 C348 816 336 814 329 810 C317 803 239 728 230 714 C227 710 225 702 225 696 L225 696 Z " />
<glyph glyph-name="cacute" unicode="&#x107;" horiz-adv-x="450" d="M59 72 C84 -2 140 -41 220 -41 C303 -41 363 3 390 77 C396 94 400 112 400 124 C400 149 382 166 355 166 C331 166 306 150 301 129 C299 120 299 110 296 97 C287 59 268 41 232 41 C183 41 150 77 150 129 L150 278 C150 328 178 360 222 360 C260 360 287 337 296 297 C299 284 299 274 301 266 C306 247 323 235 345 235 C375 235 400 258 400 285 C400 295 397 311 391 328 C365 402 310 441 230 441 C147 441 87 397 60 323 C53 305 50 287 50 271 L50 121 C50 107 53 90 59 72 L59 72 Z M174 521 C174 501 193 485 219 485 C228 485 240 487 245 490 C257 497 335 572 344 586 C347 590 349 598 349 604 C349 625 330 641 305 641 C297 641 285 639 278 635 C266 628 188 553 179 539 C176 535 174 527 174 521 L174 521 Z " />
<glyph glyph-name="Ccircumflex" unicode="&#x108;" horiz-adv-x="550" d="M63 101 C95 9 168 -41 270 -41 C376 -41 455 12 487 107 C495 131 500 156 500 171 C500 198 482 216 455 216 C430 216 409 201 402 179 C398 167 399 152 395 131 C384 73 343 41 283 41 C204 41 150 97 150 179 L150 428 C150 506 201 560 275 560 C336 560 381 524 394 465 C401 433 396 405 419 392 C426 388 435 385 444 385 C476 385 500 408 500 438 C500 452 495 477 487 499 C454 591 382 641 280 641 C174 641 95 588 63 493 C55 468 50 442 50 421 L50 171 C50 150 55 125 63 101 L63 101 Z M272 711 C293 690 313 660 345 660 C374 660 400 681 400 704 C400 709 400 714 397 718 C388 731 312 805 302 811 C298 814 288 816 280 816 C272 816 261 814 254 810 C242 803 164 728 155 714 C152 710 150 702 150 696 C150 675 170 660 196 660 C229 660 250 689 272 711 L272 711 Z " />
<glyph glyph-name="ccircumflex" unicode="&#x109;" horiz-adv-x="450" d="M59 72 C84 -2 140 -41 220 -41 C303 -41 363 3 390 77 C396 94 400 112 400 124 C400 149 382 166 355 166 C331 166 306 150 301 129 C299 120 299 110 296 97 C287 59 268 41 232 41 C183 41 150 77 150 129 L150 278 C150 328 178 360 222 360 C260 360 287 337 296 297 C299 284 299 274 301 266 C306 247 323 235 345 235 C375 235 400 258 400 285 C400 295 397 311 391 328 C365 402 310 441 230 441 C147 441 87 397 60 323 C53 305 50 287 50 271 L50 121 C50 107 53 90 59 72 L59 72 Z M221 536 C242 515 262 485 294 485 C323 485 349 506 349 529 C349 534 349 539 346 543 C337 556 261 630 251 636 C247 639 237 641 229 641 C221 641 210 639 203 635 C191 628 113 553 104 539 C101 535 99 527 99 521 C99 500 119 485 145 485 C178 485 199 514 221 536 L221 536 Z " />
<glyph glyph-name="Cdotaccent" unicode="&#x10a;" horiz-adv-x="550" d="M63 101 C95 9 168 -41 270 -41 C376 -41 455 12 487 107 C495 131 500 156 500 171 C500 198 482 216 455 216 C430 216 409 201 402 179 C398 167 399 152 395 131 C384 73 343 41 283 41 C204 41 150 97 150 179 L150 428 C150 506 201 560 275 560 C336 560 381 524 394 465 C401 433 396 405 419 392 C426 388 435 385 444 385 C476 385 500 408 500 438 C500 452 495 477 487 499 C454 591 382 641 280 641 C174 641 95 588 63 493 C55 468 50 442 50 421 L50 171 C50 150 55 125 63 101 L63 101 Z M225 696 C225 676 244 660 270 660 C299 660 325 681 325 704 L325 779 C325 800 306 816 281 816 C252 816 225 795 225 771 L225 696 Z " />
<glyph glyph-name="cdotaccent" unicode="&#x10b;" horiz-adv-x="450" d="M59 72 C84 -2 140 -41 220 -41 C303 -41 363 3 390 77 C396 94 400 112 400 124 C400 149 382 166 355 166 C331 166 306 150 301 129 C299 120 299 110 296 97 C287 59 268 41 232 41 C183 41 150 77 150 129 L150 278 C150 328 178 360 222 360 C260 360 287 337 296 297 C299 284 299 274 301 266 C306 247 323 235 345 235 C375 235 400 258 400 285 C400 295 397 311 391 328 C365 402 310 441 230 441 C147 441 87 397 60 323 C53 305 50 287 50 271 L50 121 C50 107 53 90 59 72 L59 72 Z M174 521 C174 501 193 485 219 485 C248 485 274 506 274 529 L274 604 C274 625 255 641 230 641 C201 641 174 620 174 596 L174 521 Z " />
<glyph glyph-name="Ccaron" unicode="&#x10c;" horiz-adv-x="550" d="M63 101 C95 9 168 -41 270 -41 C376 -41 455 12 487 107 C495 131 500 156 500 171 C500 198 482 216 455 216 C430 216 409 201 402 179 C398 167 399 152 395 131 C384 73 343 41 283 41 C204 41 150 97 150 179 L150 428 C150 506 201 560 275 560 C336 560 381 524 394 465 C401 433 396 405 419 392 C426 388 435 385 444 385 C476 385 500 408 500 438 C500 452 495 477 487 499 C454 591 382 641 280 641 C174 641 95 588 63 493 C55 468 50 442 50 421 L50 171 C50 150 55 125 63 101 L63 101 Z M153 758 C159 748 234 670 247 664 C252 662 261 660 269 660 C278 660 290 662 296 665 C308 671 386 747 395 761 C398 765 400 773 400 779 C400 800 381 816 355 816 C321 816 300 786 278 764 C257 785 237 816 205 816 C177 816 150 795 150 772 C150 764 152 759 153 758 L153 758 Z " />
<glyph glyph-name="ccaron" unicode="&#x10d;" horiz-adv-x="450" d="M59 72 C84 -2 140 -41 220 -41 C303 -41 363 3 390 77 C396 94 400 112 400 124 C400 149 382 166 355 166 C331 166 306 150 301 129 C299 120 299 110 296 97 C287 59 268 41 232 41 C183 41 150 77 150 129 L150 278 C150 328 178 360 222 360 C260 360 287 337 296 297 C299 284 299 274 301 266 C306 247 323 235 345 235 C375 235 400 258 400 285 C400 295 397 311 391 328 C365 402 310 441 230 441 C147 441 87 397 60 323 C53 305 50 287 50 271 L50 121 C50 107 53 90 59 72 L59 72 Z M102 583 C108 573 183 495 196 489 C201 487 210 485 218 485 C227 485 239 487 245 490 C257 496 335 572 344 586 C347 590 349 598 349 604 C349 625 330 641 304 641 C270 641 249 611 227 589 C206 610 186 641 154 641 C126 641 99 620 99 597 C99 589 101 584 102 583 L102 583 Z " />
<glyph glyph-name="Dcaron" unicode="&#x10e;" horiz-adv-x="550" d="M150 560 L270 560 C347 560 400 503 400 421 L400 147 C400 131 394 112 385 94 C357 38 309 41 274 41 C205 41 175 28 175 -1 C175 -24 194 -41 220 -41 L269 -41 C366 -41 438 -2 476 68 C491 96 500 128 500 154 L500 429 C500 451 495 477 486 502 C454 592 382 641 280 641 L105 641 C77 641 50 619 50 596 L50 -4 C50 -25 70 -41 95 -41 C117 -41 139 -28 145 -13 C151 3 150 46 150 62 L150 560 Z M153 758 C159 748 234 670 247 664 C252 662 261 660 269 660 C278 660 290 662 296 665 C308 671 386 747 395 761 C398 765 400 773 400 779 C400 800 381 816 355 816 C321 816 300 786 278 764 C257 785 237 816 205 816 C177 816 150 795 150 772 C150 764 152 759 153 758 L153 758 Z " />
<glyph glyph-name="dcaron" unicode="&#x10f;" horiz-adv-x="475" d="M300 441 L230 441 C147 441 85 400 60 324 C53 304 50 286 50 271 L50 147 C50 42 117 -41 203 -41 C245 -41 275 -23 275 3 C275 22 260 36 238 40 C232 41 225 41 219 42 C181 48 150 98 150 155 L150 278 C150 293 154 309 160 323 C177 362 203 360 237 360 C261 360 281 359 300 359 L300 -4 C300 -25 320 -41 345 -41 C374 -41 400 -19 400 4 L400 604 C400 625 381 641 356 641 C327 641 300 620 300 596 L300 441 Z M548 393 C558 421 600 600 600 614 C600 628 578 641 555 641 L505 641 C477 641 450 619 450 596 C450 577 468 561 490 560 C482 530 450 417 450 393 C450 375 471 359 495 359 C519 359 544 375 548 393 L548 393 Z " />
<glyph glyph-name="Dcroat" unicode="&#x110;" horiz-adv-x="600" d="M200 560 L320 560 C397 560 450 503 450 421 L450 147 C450 131 444 112 435 94 C407 38 359 41 324 41 C255 41 225 28 225 -1 C225 -24 244 -41 270 -41 L319 -41 C416 -41 488 -2 526 68 C541 96 550 128 550 154 L550 429 C550 451 545 477 536 502 C504 592 432 641 330 641 L155 641 C127 641 100 619 100 596 L100 -4 C100 -25 120 -41 145 -41 C167 -41 189 -28 195 -13 C201 3 200 46 200 62 L200 560 Z M50 396 C50 376 69 360 95 360 L295 360 C324 360 350 381 350 404 C350 425 331 441 305 441 L105 441 C77 441 50 419 50 396 L50 396 Z " />
<glyph glyph-name="dcroat" unicode="&#x111;" horiz-adv-x="450" d="M300 441 L230 441 C147 441 85 400 60 324 C53 304 50 286 50 271 L50 147 C50 42 117 -41 203 -41 C245 -41 275 -23 275 3 C275 22 260 36 238 40 C232 41 225 41 219 42 C181 48 150 98 150 155 L150 278 C150 293 154 309 160 323 C177 362 203 360 237 360 C261 360 281 359 300 359 L300 -4 C300 -25 320 -41 345 -41 C374 -41 400 -19 400 4 L400 604 C400 625 381 641 356 641 C327 641 300 620 300 596 L300 441 Z M199 546 C199 526 219 510 244 510 L394 510 C423 510 449 531 449 554 C449 575 430 591 404 591 L254 591 C226 591 199 569 199 546 L199 546 Z " />
<glyph glyph-name="Emacron" unicode="&#x112;" horiz-adv-x="500" d="M150 360 L270 360 C299 360 325 381 325 404 C325 425 306 441 280 441 L150 441 L150 560 C224 560 297 559 332 559 C420 559 450 570 450 602 C450 625 431 641 405 641 L105 641 C77 641 50 619 50 596 L50 71 C50 6 100 -41 170 -41 L395 -41 C424 -41 450 -19 450 6 C450 32 427 41 358 41 C321 41 257 40 233 40 C166 40 150 48 150 80 L150 360 Z M125 721 C125 701 145 685 170 685 L320 685 C349 685 375 706 375 729 C375 750 356 766 330 766 L180 766 C152 766 125 744 125 721 L125 721 Z " />
<glyph glyph-name="emacron" unicode="&#x113;" horiz-adv-x="450" d="M150 160 L343 160 C369 160 393 176 397 196 C400 211 400 263 400 263 C400 290 398 311 390 332 C363 403 309 441 232 441 C126 441 50 370 50 271 L50 121 C50 106 54 88 60 71 C86 -2 141 -41 220 -41 L268 -41 C297 -41 323 -18 323 7 C323 49 264 40 237 40 C185 40 150 76 150 129 L150 160 Z M150 241 L150 279 C150 330 176 360 219 360 C266 360 300 323 300 271 C300 261 300 251 300 241 L150 241 Z M100 546 C100 526 120 510 145 510 L295 510 C324 510 350 531 350 554 C350 575 331 591 305 591 L155 591 C127 591 100 569 100 546 L100 546 Z " />
<glyph glyph-name="Ebreve" unicode="&#x114;" horiz-adv-x="500" d="M150 360 L270 360 C299 360 325 381 325 404 C325 425 306 441 280 441 L150 441 L150 560 C224 560 297 559 332 559 C420 559 450 570 450 602 C450 625 431 641 405 641 L105 641 C77 641 50 619 50 596 L50 71 C50 6 100 -41 170 -41 L395 -41 C424 -41 450 -19 450 6 C450 32 427 41 358 41 C321 41 257 40 233 40 C166 40 150 48 150 80 L150 360 Z M125 756 C125 702 176 660 241 660 C314 660 375 709 375 767 C375 797 358 816 330 816 C318 816 306 812 297 806 C261 782 288 741 255 741 C210 741 248 816 186 816 C150 816 125 792 125 756 L125 756 Z " />
<glyph glyph-name="ebreve" unicode="&#x115;" horiz-adv-x="450" d="M150 160 L343 160 C369 160 393 176 397 196 C400 211 400 263 400 263 C400 290 398 311 390 332 C363 403 309 441 232 441 C126 441 50 370 50 271 L50 121 C50 106 54 88 60 71 C86 -2 141 -41 220 -41 L268 -41 C297 -41 323 -18 323 7 C323 49 264 40 237 40 C185 40 150 76 150 129 L150 160 Z M150 241 L150 279 C150 330 176 360 219 360 C266 360 300 323 300 271 C300 261 300 251 300 241 L150 241 Z M100 581 C100 527 151 485 216 485 C289 485 350 534 350 592 C350 622 333 641 305 641 C293 641 281 637 272 631 C236 607 263 566 230 566 C185 566 223 641 161 641 C125 641 100 617 100 581 L100 581 Z " />
<glyph glyph-name="Edotaccent" unicode="&#x116;" horiz-adv-x="500" d="M150 360 L270 360 C299 360 325 381 325 404 C325 425 306 441 280 441 L150 441 L150 560 C224 560 297 559 332 559 C420 559 450 570 450 602 C450 625 431 641 405 641 L105 641 C77 641 50 619 50 596 L50 71 C50 6 100 -41 170 -41 L395 -41 C424 -41 450 -19 450 6 C450 32 427 41 358 41 C321 41 257 40 233 40 C166 40 150 48 150 80 L150 360 Z M200 696 C200 676 219 660 245 660 C274 660 300 681 300 704 L300 779 C300 800 281 816 256 816 C227 816 200 795 200 771 L200 696 Z " />
<glyph glyph-name="edotaccent" unicode="&#x117;" horiz-adv-x="450" d="M150 160 L343 160 C369 160 393 176 397 196 C400 211 400 263 400 263 C400 290 398 311 390 332 C363 403 309 441 232 441 C126 441 50 370 50 271 L50 121 C50 106 54 88 60 71 C86 -2 141 -41 220 -41 L268 -41 C297 -41 323 -18 323 7 C323 49 264 40 237 40 C185 40 150 76 150 129 L150 160 Z M150 241 L150 279 C150 330 176 360 219 360 C266 360 300 323 300 271 C300 261 300 251 300 241 L150 241 Z M175 521 C175 501 194 485 220 485 C249 485 275 506 275 529 L275 604 C275 625 256 641 231 641 C202 641 175 620 175 596 L175 521 Z " />
<glyph glyph-name="Eogonek" unicode="&#x118;" horiz-adv-x="500" d="M150 360 L270 360 C299 360 325 381 325 404 C325 425 306 441 280 441 L150 441 L150 560 C224 560 297 559 332 559 C420 559 450 570 450 602 C450 625 431 641 405 641 L105 641 C77 641 50 619 50 596 L50 71 C50 6 100 -41 170 -41 L395 -41 C424 -41 450 -19 450 6 C450 32 427 41 358 41 C321 41 257 40 233 40 C166 40 150 48 150 80 L150 360 Z M339 -101 C338 -100 338 -98 338 -95 L338 -48 C338 -46 339 -42 339 -40 C344 -38 350 -39 357 -37 C374 -32 388 -12 388 5 C388 26 367 41 337 41 C283 41 238 -2 238 -54 L238 -104 C238 -154 278 -191 333 -191 C389 -191 438 -151 438 -105 C438 -78 421 -60 393 -60 C365 -60 341 -78 339 -101 L339 -101 Z " />
<glyph glyph-name="eogonek" unicode="&#x119;" horiz-adv-x="450" d="M150 160 L343 160 C369 160 393 176 397 196 C400 211 400 263 400 263 C400 290 398 311 390 332 C363 403 309 441 232 441 C126 441 50 370 50 271 L50 121 C50 106 54 88 60 71 C86 -2 141 -41 220 -41 L268 -41 C297 -41 323 -18 323 7 C323 49 264 40 237 40 C185 40 150 76 150 129 L150 160 Z M150 241 L150 279 C150 330 176 360 219 360 C266 360 300 323 300 271 C300 261 300 251 300 241 L150 241 Z M276 -101 C275 -100 275 -98 275 -95 L275 -48 C275 -46 276 -42 276 -40 C281 -38 287 -39 294 -37 C311 -32 325 -12 325 5 C325 26 304 41 274 41 C220 41 175 -2 175 -54 L175 -104 C175 -154 215 -191 270 -191 C326 -191 375 -151 375 -105 C375 -78 358 -60 330 -60 C302 -60 278 -78 276 -101 L276 -101 Z " />
<glyph glyph-name="Ecaron" unicode="&#x11a;" horiz-adv-x="500" d="M150 360 L270 360 C299 360 325 381 325 404 C325 425 306 441 280 441 L150 441 L150 560 C224 560 297 559 332 559 C420 559 450 570 450 602 C450 625 431 641 405 641 L105 641 C77 641 50 619 50 596 L50 71 C50 6 100 -41 170 -41 L395 -41 C424 -41 450 -19 450 6 C450 32 427 41 358 41 C321 41 257 40 233 40 C166 40 150 48 150 80 L150 360 Z M128 758 C134 748 209 670 222 664 C227 662 236 660 244 660 C253 660 265 662 271 665 C283 671 361 747 370 761 C373 765 375 773 375 779 C375 800 356 816 330 816 C296 816 275 786 253 764 C232 785 212 816 180 816 C152 816 125 795 125 772 C125 764 127 759 128 758 L128 758 Z " />
<glyph glyph-name="ecaron" unicode="&#x11b;" horiz-adv-x="450" d="M150 160 L343 160 C369 160 393 176 397 196 C400 211 400 263 400 263 C400 290 398 311 390 332 C363 403 309 441 232 441 C126 441 50 370 50 271 L50 121 C50 106 54 88 60 71 C86 -2 141 -41 220 -41 L268 -41 C297 -41 323 -18 323 7 C323 49 264 40 237 40 C185 40 150 76 150 129 L150 160 Z M150 241 L150 279 C150 330 176 360 219 360 C266 360 300 323 300 271 C300 261 300 251 300 241 L150 241 Z M103 583 C109 573 184 495 197 489 C202 487 211 485 219 485 C228 485 240 487 246 490 C258 496 336 572 345 586 C348 590 350 598 350 604 C350 625 331 641 305 641 C271 641 250 611 228 589 C207 610 187 641 155 641 C127 641 100 620 100 597 C100 589 102 584 103 583 L103 583 Z " />
<glyph glyph-name="Gcircumflex" unicode="&#x11c;" horiz-adv-x="550" d="M400 360 L400 172 C400 92 353 40 280 40 C203 40 150 97 150 179 L150 428 C150 451 156 475 165 496 C185 543 216 560 278 560 C296 560 304 559 312 559 L359 559 C367 559 375 559 375 559 C422 559 450 575 450 602 C450 625 431 641 405 641 L279 641 C173 641 95 588 63 493 C55 468 50 442 50 421 L50 171 C50 149 55 124 64 99 C97 8 166 -42 266 -42 C402 -42 500 51 500 179 L500 404 C500 425 481 441 455 441 L280 441 C251 441 225 418 225 393 C225 350 290 360 320 360 L400 360 Z M272 711 C293 690 313 660 345 660 C374 660 400 681 400 704 C400 709 400 714 397 718 C388 731 312 805 302 811 C298 814 288 816 280 816 C272 816 261 814 254 810 C242 803 164 728 155 714 C152 710 150 702 150 696 C150 675 170 660 196 660 C229 660 250 689 272 711 L272 711 Z " />
<glyph glyph-name="gcircumflex" unicode="&#x11d;" horiz-adv-x="463" d="M91 -20 C74 -43 63 -79 63 -110 C63 -185 125 -241 208 -241 L260 -241 C346 -241 413 -179 413 -98 C413 -19 350 41 267 41 L231 41 C220 41 209 41 201 41 L165 40 C158 40 150 54 150 65 C150 73 154 85 156 85 C156 85 210 84 223 84 C337 84 409 155 409 266 C409 353 366 415 291 434 C295 443 299 448 304 452 C321 465 352 450 374 479 C381 488 384 497 384 505 C384 527 362 541 326 541 C263 541 212 501 190 435 C108 416 59 350 59 258 C59 212 71 173 95 143 C67 124 50 93 50 59 C50 27 65 -1 91 -20 L91 -20 Z M226 359 C236 358 245 359 257 356 C290 348 309 309 309 256 C309 198 284 166 238 166 C187 166 159 204 159 272 C159 328 179 354 226 359 L226 359 Z M205 -41 L211 -41 C226 -42 241 -40 252 -40 C290 -40 313 -65 313 -104 C313 -138 296 -160 269 -160 L219 -160 C186 -160 163 -133 163 -94 C163 -63 178 -45 205 -41 L205 -41 Z M235 536 C256 515 276 485 308 485 C337 485 363 506 363 529 C363 534 363 539 360 543 C351 556 275 630 265 636 C261 639 251 641 243 641 C235 641 224 639 217 635 C205 628 127 553 118 539 C115 535 113 527 113 521 C113 500 133 485 159 485 C192 485 213 514 235 536 L235 536 Z " />
<glyph glyph-name="Gbreve" unicode="&#x11e;" horiz-adv-x="550" d="M400 360 L400 172 C400 92 353 40 280 40 C203 40 150 97 150 179 L150 428 C150 451 156 475 165 496 C185 543 216 560 278 560 C296 560 304 559 312 559 L359 559 C367 559 375 559 375 559 C422 559 450 575 450 602 C450 625 431 641 405 641 L279 641 C173 641 95 588 63 493 C55 468 50 442 50 421 L50 171 C50 149 55 124 64 99 C97 8 166 -42 266 -42 C402 -42 500 51 500 179 L500 404 C500 425 481 441 455 441 L280 441 C251 441 225 418 225 393 C225 350 290 360 320 360 L400 360 Z M150 756 C150 702 201 660 266 660 C339 660 400 709 400 767 C400 797 383 816 355 816 C343 816 331 812 322 806 C286 782 313 741 280 741 C235 741 273 816 211 816 C175 816 150 792 150 756 L150 756 Z " />
<glyph glyph-name="gbreve" unicode="&#x11f;" horiz-adv-x="463" d="M91 -20 C74 -43 63 -79 63 -110 C63 -185 125 -241 208 -241 L260 -241 C346 -241 413 -179 413 -98 C413 -19 350 41 267 41 L231 41 C220 41 209 41 201 41 L165 40 C158 40 150 54 150 65 C150 73 154 85 156 85 C156 85 210 84 223 84 C337 84 409 155 409 266 C409 353 366 415 291 434 C295 443 299 448 304 452 C321 465 352 450 374 479 C381 488 384 497 384 505 C384 527 362 541 326 541 C263 541 212 501 190 435 C108 416 59 350 59 258 C59 212 71 173 95 143 C67 124 50 93 50 59 C50 27 65 -1 91 -20 L91 -20 Z M226 359 C236 358 245 359 257 356 C290 348 309 309 309 256 C309 198 284 166 238 166 C187 166 159 204 159 272 C159 328 179 354 226 359 L226 359 Z M205 -41 L211 -41 C226 -42 241 -40 252 -40 C290 -40 313 -65 313 -104 C313 -138 296 -160 269 -160 L219 -160 C186 -160 163 -133 163 -94 C163 -63 178 -45 205 -41 L205 -41 Z M113 581 C113 527 164 485 229 485 C302 485 363 534 363 592 C363 622 346 641 318 641 C306 641 294 637 285 631 C249 607 276 566 243 566 C198 566 236 641 174 641 C138 641 113 617 113 581 L113 581 Z " />
<glyph glyph-name="Gdotaccent" unicode="&#x120;" horiz-adv-x="550" d="M400 360 L400 172 C400 92 353 40 280 40 C203 40 150 97 150 179 L150 428 C150 451 156 475 165 496 C185 543 216 560 278 560 C296 560 304 559 312 559 L359 559 C367 559 375 559 375 559 C422 559 450 575 450 602 C450 625 431 641 405 641 L279 641 C173 641 95 588 63 493 C55 468 50 442 50 421 L50 171 C50 149 55 124 64 99 C97 8 166 -42 266 -42 C402 -42 500 51 500 179 L500 404 C500 425 481 441 455 441 L280 441 C251 441 225 418 225 393 C225 350 290 360 320 360 L400 360 Z M225 696 C225 676 244 660 270 660 C299 660 325 681 325 704 L325 779 C325 800 306 816 281 816 C252 816 225 795 225 771 L225 696 Z " />
<glyph glyph-name="gdotaccent" unicode="&#x121;" horiz-adv-x="463" d="M91 -20 C74 -43 63 -79 63 -110 C63 -185 125 -241 208 -241 L260 -241 C346 -241 413 -179 413 -98 C413 -19 350 41 267 41 L231 41 C220 41 209 41 201 41 L165 40 C158 40 150 54 150 65 C150 73 154 85 156 85 C156 85 210 84 223 84 C337 84 409 155 409 266 C409 353 366 415 291 434 C295 443 299 448 304 452 C321 465 352 450 374 479 C381 488 384 497 384 505 C384 527 362 541 326 541 C263 541 212 501 190 435 C108 416 59 350 59 258 C59 212 71 173 95 143 C67 124 50 93 50 59 C50 27 65 -1 91 -20 L91 -20 Z M226 359 C236 358 245 359 257 356 C290 348 309 309 309 256 C309 198 284 166 238 166 C187 166 159 204 159 272 C159 328 179 354 226 359 L226 359 Z M205 -41 L211 -41 C226 -42 241 -40 252 -40 C290 -40 313 -65 313 -104 C313 -138 296 -160 269 -160 L219 -160 C186 -160 163 -133 163 -94 C163 -63 178 -45 205 -41 L205 -41 Z M188 521 C188 501 207 485 233 485 C262 485 288 506 288 529 L288 604 C288 625 269 641 244 641 C215 641 188 620 188 596 L188 521 Z " />
<glyph glyph-name="uni0122" unicode="&#x122;" horiz-adv-x="550" d="M400 360 L400 172 C400 92 353 40 280 40 C203 40 150 97 150 179 L150 428 C150 451 156 475 165 496 C185 543 216 560 278 560 C296 560 304 559 312 559 L359 559 C367 559 375 559 375 559 C422 559 450 575 450 602 C450 625 431 641 405 641 L279 641 C173 641 95 588 63 493 C55 468 50 442 50 421 L50 171 C50 149 55 124 64 99 C97 8 166 -42 266 -42 C402 -42 500 51 500 179 L500 404 C500 425 481 441 455 441 L280 441 C251 441 225 418 225 393 C225 350 290 360 320 360 L400 360 Z M299 -207 C309 -179 351 0 351 14 C351 28 329 41 306 41 L256 41 C228 41 201 19 201 -4 C201 -23 219 -39 241 -40 C233 -70 201 -183 201 -207 C201 -225 222 -241 246 -241 C270 -241 295 -225 299 -207 L299 -207 Z " />
<glyph glyph-name="uni0123" unicode="&#x123;" horiz-adv-x="463" d="M91 -20 C74 -43 63 -79 63 -110 C63 -185 125 -241 208 -241 L260 -241 C346 -241 413 -179 413 -98 C413 -19 350 41 267 41 L231 41 C220 41 209 41 201 41 L165 40 C158 40 150 54 150 65 C150 73 154 85 156 85 C156 85 210 84 223 84 C337 84 409 155 409 266 C409 353 366 415 291 434 C295 443 299 448 304 452 C321 465 352 450 374 479 C381 488 384 497 384 505 C384 527 362 541 326 541 C263 541 212 501 190 435 C108 416 59 350 59 258 C59 212 71 173 95 143 C67 124 50 93 50 59 C50 27 65 -1 91 -20 L91 -20 Z M226 359 C236 358 245 359 257 356 C290 348 309 309 309 256 C309 198 284 166 238 166 C187 166 159 204 159 272 C159 328 179 354 226 359 L226 359 Z M205 -41 L211 -41 C226 -42 241 -40 252 -40 C290 -40 313 -65 313 -104 C313 -138 296 -160 269 -160 L219 -160 C186 -160 163 -133 163 -94 C163 -63 178 -45 205 -41 L205 -41 Z M262 665 L275 743 C277 755 281 767 281 778 C281 800 262 816 236 816 C213 816 192 803 184 784 C180 774 180 763 178 752 L170 703 C166 676 156 648 156 628 C156 602 174 585 201 585 L251 585 C280 585 306 606 306 629 C306 649 287 665 262 665 L262 665 Z " />
<glyph glyph-name="Hcircumflex" unicode="&#x124;" horiz-adv-x="550" d="M150 360 L400 360 L400 -4 C400 -25 420 -41 445 -41 C474 -41 500 -19 500 4 L500 604 C500 625 481 641 456 641 C427 641 400 620 400 596 L400 441 L150 441 L150 604 C150 625 131 641 106 641 C77 641 50 620 50 596 L50 -4 C50 -25 70 -41 95 -41 C124 -41 150 -19 150 4 L150 360 Z M272 711 C293 690 313 660 345 660 C374 660 400 681 400 704 C400 709 400 714 397 718 C388 731 312 805 302 811 C298 814 288 816 280 816 C272 816 261 814 254 810 C242 803 164 728 155 714 C152 710 150 702 150 696 C150 675 170 660 196 660 C229 660 250 689 272 711 L272 711 Z " />
<glyph glyph-name="hcircumflex" unicode="&#x125;" horiz-adv-x="450" d="M150 360 C164 360 176 360 176 360 C206 360 237 361 257 353 C290 340 301 301 301 202 C301 169 300 89 300 64 C300 -17 309 -41 341 -41 C373 -41 400 -20 400 4 L400 279 C400 294 397 312 390 332 C365 403 308 441 230 441 L150 441 L150 604 C150 625 131 641 106 641 C77 641 50 620 50 596 L50 -4 C50 -25 70 -41 95 -41 C124 -41 150 -19 150 4 L150 360 Z M221 686 C242 665 262 635 294 635 C323 635 349 656 349 679 C349 684 349 689 346 693 C337 706 261 780 251 786 C247 789 237 791 229 791 C221 791 210 789 203 785 C191 778 113 703 104 689 C101 685 99 677 99 671 C99 650 119 635 145 635 C178 635 199 664 221 686 L221 686 Z " />
<glyph glyph-name="Hbar" unicode="&#x126;" horiz-adv-x="550" d="M150 360 L400 360 L400 -4 C400 -25 420 -41 445 -41 C474 -41 500 -19 500 4 L500 604 C500 625 481 641 456 641 C427 641 400 620 400 596 L400 441 L150 441 L150 604 C150 625 131 641 106 641 C77 641 50 620 50 596 L50 -4 C50 -25 70 -41 95 -41 C124 -41 150 -19 150 4 L150 360 Z M150 721 C150 701 170 685 195 685 L345 685 C374 685 400 706 400 729 C400 750 381 766 355 766 L205 766 C177 766 150 744 150 721 L150 721 Z " />
<glyph glyph-name="hbar" unicode="&#x127;" horiz-adv-x="450" d="M150 360 C164 360 176 360 176 360 C206 360 237 361 257 353 C290 340 301 301 301 202 C301 169 300 89 300 64 C300 -17 309 -41 341 -41 C373 -41 400 -20 400 4 L400 279 C400 294 397 312 390 332 C365 403 308 441 230 441 L150 441 L150 604 C150 625 131 641 106 641 C77 641 50 620 50 596 L50 -4 C50 -25 70 -41 95 -41 C124 -41 150 -19 150 4 L150 360 Z M-1 546 C-1 526 19 510 44 510 L194 510 C223 510 249 531 249 554 C249 575 230 591 204 591 L54 591 C26 591 -1 569 -1 546 L-1 546 Z " />
<glyph glyph-name="Itilde" unicode="&#x128;" horiz-adv-x="200" d="M50 -4 C50 -25 70 -41 95 -41 C124 -41 150 -19 150 4 L150 604 C150 625 131 641 106 641 C77 641 50 620 50 596 L50 -4 Z M50 707 C58 701 64 694 70 688 C89 669 116 660 144 660 C201 660 250 699 250 745 C250 774 232 791 201 791 C173 791 156 775 150 743 C142 749 136 757 128 764 C109 780 83 791 55 791 C-1 791 -50 751 -50 705 C-50 677 -31 660 -1 660 C27 660 44 675 50 707 L50 707 Z " />
<glyph glyph-name="itilde" unicode="&#x129;" horiz-adv-x="200" d="M50 -4 C50 -25 70 -41 95 -41 C124 -41 150 -19 150 4 L150 404 C150 425 131 441 106 441 C77 441 50 420 50 396 L50 -4 Z M50 532 C58 526 64 519 70 513 C89 494 116 485 144 485 C201 485 250 524 250 570 C250 599 232 616 201 616 C173 616 156 600 150 568 C142 574 136 582 128 589 C109 605 83 616 55 616 C-1 616 -50 576 -50 530 C-50 502 -31 485 -1 485 C27 485 44 500 50 532 L50 532 Z " />
<glyph glyph-name="Imacron" unicode="&#x12a;" horiz-adv-x="200" d="M50 -4 C50 -25 70 -41 95 -41 C124 -41 150 -19 150 4 L150 604 C150 625 131 641 106 641 C77 641 50 620 50 596 L50 -4 Z M-25 721 C-25 701 -5 685 20 685 L170 685 C199 685 225 706 225 729 C225 750 206 766 180 766 L30 766 C2 766 -25 744 -25 721 L-25 721 Z " />
<glyph glyph-name="imacron" unicode="&#x12b;" horiz-adv-x="200" d="M50 -4 C50 -25 70 -41 95 -41 C124 -41 150 -19 150 4 L150 404 C150 425 131 441 106 441 C77 441 50 420 50 396 L50 -4 Z M-25 546 C-25 526 -5 510 20 510 L170 510 C199 510 225 531 225 554 C225 575 206 591 180 591 L30 591 C2 591 -25 569 -25 546 L-25 546 Z " />
<glyph glyph-name="Ibreve" unicode="&#x12c;" horiz-adv-x="200" d="M50 -4 C50 -25 70 -41 95 -41 C124 -41 150 -19 150 4 L150 604 C150 625 131 641 106 641 C77 641 50 620 50 596 L50 -4 Z M-25 756 C-25 702 26 660 91 660 C164 660 225 709 225 767 C225 797 208 816 180 816 C168 816 156 812 147 806 C111 782 138 741 105 741 C60 741 98 816 36 816 C0 816 -25 792 -25 756 L-25 756 Z " />
<glyph glyph-name="ibreve" unicode="&#x12d;" horiz-adv-x="200" d="M50 -4 C50 -25 70 -41 95 -41 C124 -41 150 -19 150 4 L150 404 C150 425 131 441 106 441 C77 441 50 420 50 396 L50 -4 Z M-25 581 C-25 527 26 485 91 485 C164 485 225 534 225 592 C225 622 208 641 180 641 C168 641 156 637 147 631 C111 607 138 566 105 566 C60 566 98 641 36 641 C0 641 -25 617 -25 581 L-25 581 Z " />
<glyph glyph-name="Iogonek" unicode="&#x12e;" horiz-adv-x="200" d="M50 -4 C50 -25 70 -41 95 -41 C124 -41 150 -19 150 4 L150 604 C150 625 131 641 106 641 C77 641 50 620 50 596 L50 -4 Z M101 -101 C100 -100 100 -98 100 -95 L100 -48 C100 -46 101 -42 101 -40 C106 -38 112 -39 119 -37 C136 -32 150 -12 150 5 C150 26 129 41 99 41 C45 41 0 -2 0 -54 L0 -104 C0 -154 40 -191 95 -191 C151 -191 200 -151 200 -105 C200 -78 183 -60 155 -60 C127 -60 103 -78 101 -101 L101 -101 Z " />
<glyph glyph-name="iogonek" unicode="&#x12f;" horiz-adv-x="200" d="M50 546 C50 526 70 510 95 510 C124 510 150 531 150 554 L150 604 C150 625 131 641 106 641 C77 641 50 620 50 596 L50 546 Z M50 -4 C50 -25 70 -41 95 -41 C124 -41 150 -19 150 4 L150 404 C150 425 131 441 106 441 C77 441 50 420 50 396 L50 -4 Z M100 -101 C99 -100 99 -98 99 -95 L99 -48 C99 -46 100 -42 100 -40 C105 -38 111 -39 118 -37 C135 -32 149 -12 149 5 C149 26 128 41 98 41 C44 41 -1 -2 -1 -54 L-1 -104 C-1 -154 39 -191 94 -191 C150 -191 199 -151 199 -105 C199 -78 182 -60 154 -60 C126 -60 102 -78 100 -101 L100 -101 Z " />
<glyph glyph-name="Idotaccent" unicode="&#x130;" horiz-adv-x="200" d="M50 -4 C50 -25 70 -41 95 -41 C124 -41 150 -19 150 4 L150 604 C150 625 131 641 106 641 C77 641 50 620 50 596 L50 -4 Z M50 696 C50 676 69 660 95 660 C124 660 150 681 150 704 L150 779 C150 800 131 816 106 816 C77 816 50 795 50 771 L50 696 Z " />
<glyph glyph-name="dotlessi" unicode="&#x131;" horiz-adv-x="200" d="M50 -4 C50 -25 70 -41 95 -41 C124 -41 150 -19 150 4 L150 404 C150 425 131 441 106 441 C77 441 50 420 50 396 L50 -4 Z " />
<glyph glyph-name="IJ" unicode="&#x132;" horiz-adv-x="450" d="M60 71 C88 -1 141 -41 220 -41 C303 -41 365 0 390 76 C397 96 400 114 400 129 L400 604 C400 625 381 641 355 641 C334 641 312 629 305 614 C299 602 300 580 300 503 C300 425 301 279 301 240 C301 86 285 41 229 41 C190 41 163 63 154 103 C151 116 151 127 149 135 C145 153 127 166 106 166 C75 166 50 143 50 115 C50 104 54 87 60 71 L60 71 Z M50 246 C50 226 69 210 95 210 C124 210 150 231 150 254 L150 604 C150 625 131 641 106 641 C77 641 50 620 50 596 L50 246 Z " />
<glyph glyph-name="ij" unicode="&#x133;" horiz-adv-x="450" d="M300 521 C300 501 320 485 345 485 C374 485 400 506 400 529 L400 604 C400 625 381 641 356 641 C327 641 300 620 300 596 L300 521 Z M50 521 C50 501 69 485 95 485 C124 485 150 506 150 529 L150 604 C150 625 131 641 106 641 C77 641 50 620 50 596 L50 521 Z M60 -129 C88 -201 141 -241 220 -241 C303 -241 365 -200 390 -124 C397 -104 400 -86 400 -71 L400 404 C400 425 381 441 355 441 C334 441 312 429 305 414 C299 402 300 380 300 303 C300 225 301 79 301 40 C301 -115 285 -160 229 -160 C190 -160 163 -137 154 -97 C151 -84 151 -74 149 -66 C144 -47 127 -35 105 -35 C75 -35 50 -58 50 -85 C50 -96 54 -113 60 -129 L60 -129 Z M50 96 C50 76 70 60 95 60 C124 60 150 81 150 104 L150 404 C150 425 131 441 106 441 C77 441 50 420 50 396 L50 96 Z " />
<glyph glyph-name="Jcircumflex" unicode="&#x134;" horiz-adv-x="450" d="M60 71 C88 -1 141 -41 220 -41 C303 -41 365 0 390 76 C397 96 400 114 400 129 L400 604 C400 625 381 641 355 641 C334 641 312 629 305 614 C299 602 300 580 300 503 C300 425 301 279 301 240 C301 86 285 41 229 41 C190 41 163 63 154 103 C151 116 151 127 149 135 C145 153 127 166 106 166 C75 166 50 143 50 115 C50 104 54 87 60 71 L60 71 Z M347 711 C368 690 388 660 420 660 C449 660 475 681 475 704 C475 709 475 714 472 718 C463 731 387 805 377 811 C373 814 363 816 355 816 C347 816 336 814 329 810 C317 803 239 728 230 714 C227 710 225 702 225 696 C225 675 245 660 271 660 C304 660 325 689 347 711 L347 711 Z " />
<glyph glyph-name="jcircumflex" unicode="&#x135;" horiz-adv-x="325" d="M222 536 C243 515 263 485 295 485 C324 485 350 506 350 529 C350 534 350 539 347 543 C338 556 262 630 252 636 C248 639 238 641 230 641 C222 641 211 639 204 635 C192 628 114 553 105 539 C102 535 100 527 100 521 C100 500 120 485 146 485 C179 485 200 514 222 536 L222 536 Z M50 -205 C50 -228 72 -241 110 -241 C180 -241 241 -197 265 -124 C272 -104 275 -86 275 -71 L275 404 C275 426 255 441 224 441 C183 441 174 419 174 325 C174 219 176 78 176 4 C176 -88 173 -112 158 -135 C138 -165 123 -154 97 -160 C69 -166 50 -184 50 -205 L50 -205 Z " />
<glyph glyph-name="uni0136" unicode="&#x136;" horiz-adv-x="550" d="M150 380 C159 385 168 390 176 395 C187 375 199 354 216 324 C249 262 290 191 329 119 L382 21 C390 6 397 -12 406 -23 C416 -35 429 -41 444 -41 C473 -41 500 -20 500 3 C500 9 498 13 493 24 C479 54 459 88 433 135 C401 194 360 265 321 337 L268 435 C266 438 264 443 262 446 L439 547 C461 560 500 574 500 605 C500 625 481 641 458 641 C427 641 378 606 352 591 L150 476 L150 604 C150 625 131 641 106 641 C77 641 50 620 50 596 L50 -4 C50 -25 70 -41 95 -41 C124 -41 150 -19 150 4 L150 380 Z M298 -207 C308 -179 350 0 350 14 C350 28 328 41 305 41 L255 41 C227 41 200 19 200 -4 C200 -23 218 -39 240 -40 C232 -70 200 -183 200 -207 C200 -225 221 -241 245 -241 C269 -241 294 -225 298 -207 L298 -207 Z " />
<glyph glyph-name="uni0137" unicode="&#x137;" horiz-adv-x="450" d="M150 275 C162 280 173 285 185 290 C231 166 307 -21 314 -31 C318 -36 332 -41 344 -41 C370 -41 400 -23 400 -7 C400 22 292 290 277 328 L329 348 C346 355 365 359 380 370 C393 379 400 392 400 405 C400 425 381 441 356 441 C348 441 341 439 334 437 C297 425 262 408 225 393 L150 363 L150 604 C150 625 131 641 106 641 C77 641 50 620 50 596 L50 -4 C50 -25 70 -41 95 -41 C124 -41 150 -19 150 4 L150 275 Z M198 -207 C208 -179 250 0 250 14 C250 28 228 41 205 41 L155 41 C127 41 100 19 100 -4 C100 -23 118 -39 140 -40 C132 -70 100 -183 100 -207 C100 -225 121 -241 145 -241 C169 -241 194 -225 198 -207 L198 -207 Z " />
<glyph glyph-name="kgreenlandic" unicode="&#x138;" horiz-adv-x="450" d="M150 237 L154 240 C160 230 166 221 169 215 L287 10 C302 -16 309 -41 341 -41 C371 -41 400 -21 400 -1 C400 20 370 63 361 79 L243 284 C242 286 241 287 240 289 L333 343 C356 356 400 372 400 405 C400 425 380 441 355 441 C332 441 314 427 295 416 L150 332 L150 404 C150 425 131 441 106 441 C77 441 50 420 50 396 L50 -4 C50 -25 70 -41 95 -41 C124 -41 150 -19 150 4 L150 237 Z " />
<glyph glyph-name="Lacute" unicode="&#x139;" horiz-adv-x="500" d="M150 41 C150 222 150 403 150 403 C150 616 144 641 110 641 C78 641 50 620 50 596 L50 -4 C50 -25 70 -41 95 -41 L395 -41 C424 -41 450 -19 450 4 C450 18 440 31 426 36 C404 44 346 41 323 41 L150 41 Z M150 696 C150 676 169 660 195 660 C204 660 216 662 221 665 C233 672 311 747 320 761 C323 765 325 773 325 779 C325 800 306 816 281 816 C273 816 261 814 254 810 C242 803 164 728 155 714 C152 710 150 702 150 696 L150 696 Z " />
<glyph glyph-name="lacute" unicode="&#x13a;" horiz-adv-x="200" d="M50 -4 C50 -25 70 -41 95 -41 C124 -41 150 -19 150 4 L150 604 C150 625 131 641 106 641 C77 641 50 620 50 596 L50 -4 Z M12 671 C12 651 31 635 57 635 C66 635 78 637 83 640 C95 647 173 722 182 736 C185 740 187 748 187 754 C187 775 168 791 143 791 C135 791 123 789 116 785 C104 778 26 703 17 689 C14 685 12 677 12 671 L12 671 Z " />
<glyph glyph-name="uni013B" unicode="&#x13b;" horiz-adv-x="500" d="M150 41 C150 222 150 403 150 403 C150 616 144 641 110 641 C78 641 50 620 50 596 L50 -4 C50 -25 70 -41 95 -41 L395 -41 C424 -41 450 -19 450 4 C450 18 440 31 426 36 C404 44 346 41 323 41 L150 41 Z M273 -207 C283 -179 325 0 325 14 C325 28 303 41 280 41 L230 41 C202 41 175 19 175 -4 C175 -23 193 -39 215 -40 C207 -70 175 -183 175 -207 C175 -225 196 -241 220 -241 C244 -241 269 -225 273 -207 L273 -207 Z " />
<glyph glyph-name="uni013C" unicode="&#x13c;" horiz-adv-x="200" d="M50 -4 C50 -25 70 -41 95 -41 C124 -41 150 -19 150 4 L150 604 C150 625 131 641 106 641 C77 641 50 620 50 596 L50 -4 Z M122 -207 C132 -179 174 0 174 14 C174 28 152 41 129 41 L79 41 C51 41 24 19 24 -4 C24 -23 42 -39 64 -40 C56 -70 24 -183 24 -207 C24 -225 45 -241 69 -241 C93 -241 118 -225 122 -207 L122 -207 Z " />
<glyph glyph-name="Lcaron" unicode="&#x13d;" horiz-adv-x="500" d="M150 41 C150 222 150 403 150 403 C150 616 144 641 110 641 C78 641 50 620 50 596 L50 -4 C50 -25 70 -41 95 -41 L395 -41 C424 -41 450 -19 450 4 C450 18 440 31 426 36 C404 44 346 41 323 41 L150 41 Z M348 393 C358 421 400 600 400 614 C400 628 378 641 355 641 L305 641 C277 641 250 619 250 596 C250 577 268 561 290 560 C282 530 250 417 250 393 C250 375 271 359 295 359 C319 359 344 375 348 393 L348 393 Z " />
<glyph glyph-name="lcaron" unicode="&#x13e;" horiz-adv-x="200" d="M50 -4 C50 -25 70 -41 95 -41 C124 -41 150 -19 150 4 L150 604 C150 625 131 641 106 641 C77 641 50 620 50 596 L50 -4 Z M272 393 C282 421 324 600 324 614 C324 628 302 641 279 641 L229 641 C201 641 174 619 174 596 C174 577 192 561 214 560 C206 530 174 417 174 393 C174 375 195 359 219 359 C243 359 268 375 272 393 L272 393 Z " />
<glyph glyph-name="Ldot" unicode="&#x13f;" horiz-adv-x="500" d="M150 41 C150 222 150 403 150 403 C150 616 144 641 110 641 C78 641 50 620 50 596 L50 -4 C50 -25 70 -41 95 -41 L395 -41 C424 -41 450 -19 450 4 C450 18 440 31 426 36 C404 44 346 41 323 41 L150 41 Z M188 521 C188 501 207 485 233 485 C262 485 288 506 288 529 L288 604 C288 625 269 641 244 641 C215 641 188 620 188 596 L188 521 Z " />
<glyph glyph-name="ldot" unicode="&#x140;" horiz-adv-x="274" d="M50 -4 C50 -25 70 -41 95 -41 C124 -41 150 -19 150 4 L150 604 C150 625 131 641 106 641 C77 641 50 620 50 596 L50 -4 Z M124 321 C124 301 144 285 169 285 C198 285 224 306 224 329 L224 404 C224 425 205 441 180 441 C151 441 124 420 124 396 L124 321 Z " />
<glyph glyph-name="Lslash" unicode="&#x141;" horiz-adv-x="575" d="M225 41 C225 222 225 403 225 403 C225 616 219 641 185 641 C153 641 125 620 125 596 L125 -4 C125 -25 145 -41 170 -41 L470 -41 C499 -41 525 -19 525 4 C525 18 515 31 501 36 C479 44 421 41 398 41 L225 41 Z M50 246 C50 225 70 210 96 210 C104 210 113 211 119 214 C139 224 283 323 293 333 C297 337 300 347 300 354 C300 375 281 391 255 391 C247 391 238 389 232 386 C213 377 68 278 57 267 C53 263 50 254 50 246 L50 246 Z " />
<glyph glyph-name="lslash" unicode="&#x142;" horiz-adv-x="350" d="M126 -4 C126 -25 146 -41 171 -41 C200 -41 226 -19 226 4 L226 604 C226 625 207 641 182 641 C153 641 126 620 126 596 L126 -4 Z M50 246 C50 225 70 210 96 210 C104 210 113 212 118 214 C136 221 282 324 293 335 C297 339 300 349 300 356 C300 377 281 393 255 393 C245 393 236 390 233 389 C212 382 68 278 57 267 C53 263 50 254 50 246 L50 246 Z " />
<glyph glyph-name="Nacute" unicode="&#x143;" horiz-adv-x="550" d="M150 508 L392 335 C395 333 398 331 401 329 L400 -4 C400 -25 420 -41 445 -41 C474 -41 500 -19 500 4 L500 604 C500 625 481 641 456 641 C427 641 400 620 400 596 L400 442 L187 594 C168 607 150 623 131 633 C121 638 113 641 104 641 C76 641 50 619 50 596 L50 -4 C50 -25 70 -41 95 -41 C117 -41 140 -28 146 -12 C152 4 150 41 150 57 L150 508 Z M225 696 C225 676 244 660 270 660 C279 660 291 662 296 665 C308 672 386 747 395 761 C398 765 400 773 400 779 C400 800 381 816 356 816 C348 816 336 814 329 810 C317 803 239 728 230 714 C227 710 225 702 225 696 L225 696 Z " />
<glyph glyph-name="nacute" unicode="&#x144;" horiz-adv-x="450" d="M150 360 L220 360 C314 360 300 255 300 190 C300 127 300 65 300 65 C300 -10 313 -41 343 -41 C373 -41 400 -20 400 4 L400 279 C400 295 396 312 390 329 C364 402 309 441 230 441 L105 441 C77 441 50 419 50 396 L50 -4 C50 -25 70 -41 95 -41 C116 -41 138 -30 144 -16 C154 6 150 95 150 120 L150 360 Z M174 521 C174 501 193 485 219 485 C228 485 240 487 245 490 C257 497 335 572 344 586 C347 590 349 598 349 604 C349 625 330 641 305 641 C297 641 285 639 278 635 C266 628 188 553 179 539 C176 535 174 527 174 521 L174 521 Z " />
<glyph glyph-name="uni0145" unicode="&#x145;" horiz-adv-x="550" d="M150 508 L392 335 C395 333 398 331 401 329 L400 -4 C400 -25 420 -41 445 -41 C474 -41 500 -19 500 4 L500 604 C500 625 481 641 456 641 C427 641 400 620 400 596 L400 442 L187 594 C168 607 150 623 131 633 C121 638 113 641 104 641 C76 641 50 619 50 596 L50 -4 C50 -25 70 -41 95 -41 C117 -41 140 -28 146 -12 C152 4 150 41 150 57 L150 508 Z M298 -207 C308 -179 350 0 350 14 C350 28 328 41 305 41 L255 41 C227 41 200 19 200 -4 C200 -23 218 -39 240 -40 C232 -70 200 -183 200 -207 C200 -225 221 -241 245 -241 C269 -241 294 -225 298 -207 L298 -207 Z " />
<glyph glyph-name="uni0146" unicode="&#x146;" horiz-adv-x="450" d="M150 360 L220 360 C314 360 300 255 300 190 C300 127 300 65 300 65 C300 -10 313 -41 343 -41 C373 -41 400 -20 400 4 L400 279 C400 295 396 312 390 329 C364 402 309 441 230 441 L105 441 C77 441 50 419 50 396 L50 -4 C50 -25 70 -41 95 -41 C116 -41 138 -30 144 -16 C154 6 150 95 150 120 L150 360 Z M247 -207 C257 -179 299 0 299 14 C299 28 277 41 254 41 L204 41 C176 41 149 19 149 -4 C149 -23 167 -39 189 -40 C181 -70 149 -183 149 -207 C149 -225 170 -241 194 -241 C218 -241 243 -225 247 -207 L247 -207 Z " />
<glyph glyph-name="Ncaron" unicode="&#x147;" horiz-adv-x="550" d="M150 508 L392 335 C395 333 398 331 401 329 L400 -4 C400 -25 420 -41 445 -41 C474 -41 500 -19 500 4 L500 604 C500 625 481 641 456 641 C427 641 400 620 400 596 L400 442 L187 594 C168 607 150 623 131 633 C121 638 113 641 104 641 C76 641 50 619 50 596 L50 -4 C50 -25 70 -41 95 -41 C117 -41 140 -28 146 -12 C152 4 150 41 150 57 L150 508 Z M153 758 C159 748 234 670 247 664 C252 662 261 660 269 660 C278 660 290 662 296 665 C308 671 386 747 395 761 C398 765 400 773 400 779 C400 800 381 816 355 816 C321 816 300 786 278 764 C257 785 237 816 205 816 C177 816 150 795 150 772 C150 764 152 759 153 758 L153 758 Z " />
<glyph glyph-name="ncaron" unicode="&#x148;" horiz-adv-x="450" d="M150 360 L220 360 C314 360 300 255 300 190 C300 127 300 65 300 65 C300 -10 313 -41 343 -41 C373 -41 400 -20 400 4 L400 279 C400 295 396 312 390 329 C364 402 309 441 230 441 L105 441 C77 441 50 419 50 396 L50 -4 C50 -25 70 -41 95 -41 C116 -41 138 -30 144 -16 C154 6 150 95 150 120 L150 360 Z M102 583 C108 573 183 495 196 489 C201 487 210 485 218 485 C227 485 239 487 245 490 C257 496 335 572 344 586 C347 590 349 598 349 604 C349 625 330 641 304 641 C270 641 249 611 227 589 C206 610 186 641 154 641 C126 641 99 620 99 597 C99 589 101 584 102 583 L102 583 Z " />
<glyph glyph-name="napostrophe" unicode="&#x149;" horiz-adv-x="450" d="M150 360 L220 360 C314 360 300 255 300 190 C300 127 300 65 300 65 C300 -10 313 -41 343 -41 C373 -41 400 -20 400 4 L400 279 C400 295 396 312 390 329 C364 402 309 441 230 441 L105 441 C77 441 50 419 50 396 L50 -4 C50 -25 70 -41 95 -41 C116 -41 138 -30 144 -16 C154 6 150 95 150 120 L150 360 Z M72 393 C82 421 124 600 124 614 C124 628 102 641 79 641 L29 641 C1 641 -26 619 -26 596 C-26 577 -8 561 14 560 C6 530 -26 417 -26 393 C-26 375 -5 359 19 359 C43 359 68 375 72 393 L72 393 Z " />
<glyph glyph-name="Eng" unicode="&#x14a;" horiz-adv-x="550" d="M150 508 L392 335 C395 333 398 331 401 329 L400 -4 C400 -25 420 -41 445 -41 C474 -41 500 -19 500 4 L500 604 C500 625 481 641 456 641 C427 641 400 620 400 596 L400 442 L187 594 C168 607 150 623 131 633 C121 638 113 641 104 641 C76 641 50 619 50 596 L50 -4 C50 -25 70 -41 95 -41 C117 -41 140 -28 146 -12 C152 4 150 41 150 57 L150 508 Z M275 -205 C275 -228 297 -241 335 -241 C405 -241 466 -197 490 -124 C497 -104 500 -86 500 -71 L500 404 C500 426 480 441 449 441 C408 441 399 419 399 325 C399 219 401 78 401 4 C401 -88 398 -112 383 -135 C363 -165 348 -154 322 -160 C294 -166 275 -184 275 -205 L275 -205 Z " />
<glyph glyph-name="eng" unicode="&#x14b;" horiz-adv-x="450" d="M150 360 L220 360 C314 360 300 255 300 190 C300 171 300 152 300 133 C300 111 300 88 300 66 C300 45 300 23 300 2 C300 -2 300 -6 301 -9 C301 -19 301 -29 301 -29 C301 -69 303 -102 287 -130 C258 -179 213 -142 185 -178 C178 -187 175 -196 175 -205 C175 -227 198 -241 236 -241 C306 -241 364 -194 390 -123 C397 -105 400 -87 400 -71 L400 279 C400 295 396 312 390 329 C364 402 309 441 230 441 L105 441 C77 441 50 419 50 396 L50 -4 C50 -25 70 -41 95 -41 C116 -41 138 -30 144 -16 C154 6 150 95 150 120 L150 360 Z " />
<glyph glyph-name="Omacron" unicode="&#x14c;" horiz-adv-x="550" d="M63 100 C94 8 168 -41 270 -41 C376 -41 455 12 487 107 C495 132 500 158 500 179 L500 429 C500 450 496 474 487 500 C455 592 383 641 281 641 C174 641 95 588 63 493 C55 468 50 442 50 421 L50 171 C50 150 54 126 63 100 L63 100 Z M400 176 C397 164 399 150 394 128 C381 72 342 41 283 41 C204 41 150 97 150 179 L150 428 C150 506 201 560 276 560 C361 560 401 494 401 353 C401 331 400 260 400 191 C400 186 400 181 400 176 L400 176 Z M150 721 C150 701 170 685 195 685 L345 685 C374 685 400 706 400 729 C400 750 381 766 355 766 L205 766 C177 766 150 744 150 721 L150 721 Z " />
<glyph glyph-name="omacron" unicode="&#x14d;" horiz-adv-x="450" d="M59 72 C84 -2 140 -41 220 -41 C303 -41 363 3 390 77 C397 95 400 114 400 129 L400 279 C400 293 397 310 391 328 C366 402 310 441 230 441 C147 441 87 397 60 323 C53 305 50 287 50 271 L50 121 C50 107 53 90 59 72 L59 72 Z M150 277 C157 336 176 360 218 360 C267 360 300 324 300 271 L300 122 C300 71 273 41 228 41 C175 41 149 82 149 168 C149 185 150 227 150 269 C150 272 150 274 150 277 L150 277 Z M99 546 C99 526 119 510 144 510 L294 510 C323 510 349 531 349 554 C349 575 330 591 304 591 L154 591 C126 591 99 569 99 546 L99 546 Z " />
<glyph glyph-name="Obreve" unicode="&#x14e;" horiz-adv-x="550" d="M63 100 C94 8 168 -41 270 -41 C376 -41 455 12 487 107 C495 132 500 158 500 179 L500 429 C500 450 496 474 487 500 C455 592 383 641 281 641 C174 641 95 588 63 493 C55 468 50 442 50 421 L50 171 C50 150 54 126 63 100 L63 100 Z M400 176 C397 164 399 150 394 128 C381 72 342 41 283 41 C204 41 150 97 150 179 L150 428 C150 506 201 560 276 560 C361 560 401 494 401 353 C401 331 400 260 400 191 C400 186 400 181 400 176 L400 176 Z M150 756 C150 702 201 660 266 660 C339 660 400 709 400 767 C400 797 383 816 355 816 C343 816 331 812 322 806 C286 782 313 741 280 741 C235 741 273 816 211 816 C175 816 150 792 150 756 L150 756 Z " />
<glyph glyph-name="obreve" unicode="&#x14f;" horiz-adv-x="450" d="M59 72 C84 -2 140 -41 220 -41 C303 -41 363 3 390 77 C397 95 400 114 400 129 L400 279 C400 293 397 310 391 328 C366 402 310 441 230 441 C147 441 87 397 60 323 C53 305 50 287 50 271 L50 121 C50 107 53 90 59 72 L59 72 Z M150 277 C157 336 176 360 218 360 C267 360 300 324 300 271 L300 122 C300 71 273 41 228 41 C175 41 149 82 149 168 C149 185 150 227 150 269 C150 272 150 274 150 277 L150 277 Z M99 581 C99 527 150 485 215 485 C288 485 349 534 349 592 C349 622 332 641 304 641 C292 641 280 637 271 631 C235 607 262 566 229 566 C184 566 222 641 160 641 C124 641 99 617 99 581 L99 581 Z " />
<glyph glyph-name="Ohungarumlaut" unicode="&#x150;" horiz-adv-x="550" d="M63 100 C94 8 168 -41 270 -41 C376 -41 455 12 487 107 C495 132 500 158 500 179 L500 429 C500 450 496 474 487 500 C455 592 383 641 281 641 C174 641 95 588 63 493 C55 468 50 442 50 421 L50 171 C50 150 54 126 63 100 L63 100 Z M400 176 C397 164 399 150 394 128 C381 72 342 41 283 41 C204 41 150 97 150 179 L150 428 C150 506 201 560 276 560 C361 560 401 494 401 353 C401 331 400 260 400 191 C400 186 400 181 400 176 L400 176 Z M137 696 C137 676 156 660 182 660 C191 660 203 662 208 665 C220 672 298 747 307 761 C310 765 312 773 312 779 C312 800 293 816 268 816 C260 816 248 814 241 810 C229 803 151 728 142 714 C139 710 137 702 137 696 L137 696 Z M312 696 C312 676 331 660 357 660 C366 660 378 662 383 665 C395 672 473 747 482 761 C485 765 487 773 487 779 C487 800 468 816 443 816 C435 816 423 814 416 810 C404 803 326 728 317 714 C314 710 312 702 312 696 L312 696 Z " />
<glyph glyph-name="ohungarumlaut" unicode="&#x151;" horiz-adv-x="450" d="M59 72 C84 -2 140 -41 220 -41 C303 -41 363 3 390 77 C397 95 400 114 400 129 L400 279 C400 293 397 310 391 328 C366 402 310 441 230 441 C147 441 87 397 60 323 C53 305 50 287 50 271 L50 121 C50 107 53 90 59 72 L59 72 Z M150 277 C157 336 176 360 218 360 C267 360 300 324 300 271 L300 122 C300 71 273 41 228 41 C175 41 149 82 149 168 C149 185 150 227 150 269 C150 272 150 274 150 277 L150 277 Z M86 521 C86 501 105 485 131 485 C140 485 152 487 157 490 C169 497 247 572 256 586 C259 590 261 598 261 604 C261 625 242 641 217 641 C209 641 197 639 190 635 C178 628 100 553 91 539 C88 535 86 527 86 521 L86 521 Z M261 521 C261 501 280 485 306 485 C315 485 327 487 332 490 C344 497 422 572 431 586 C434 590 436 598 436 604 C436 625 417 641 392 641 C384 641 372 639 365 635 C353 628 275 553 266 539 C263 535 261 527 261 521 L261 521 Z " />
<glyph glyph-name="OE" unicode="&#x152;" horiz-adv-x="850" d="M63 100 C94 8 168 -41 270 -41 C376 -41 455 12 487 107 C495 132 500 158 500 179 L500 429 C500 450 496 474 487 500 C455 592 383 641 281 641 C174 641 95 588 63 493 C55 468 50 442 50 421 L50 171 C50 150 54 126 63 100 L63 100 Z M400 176 C397 164 399 150 394 128 C381 72 342 41 283 41 C204 41 150 97 150 179 L150 428 C150 506 201 560 276 560 C361 560 401 494 401 353 C401 331 400 260 400 191 C400 186 400 181 400 176 L400 176 Z M500 360 L620 360 C649 360 675 381 675 404 C675 425 656 441 630 441 L500 441 L500 560 C574 560 647 559 682 559 C770 559 800 570 800 602 C800 625 781 641 755 641 L455 641 C427 641 400 619 400 596 L400 71 C400 6 450 -41 520 -41 L745 -41 C774 -41 800 -19 800 6 C800 32 777 41 708 41 C671 41 607 40 583 40 C516 40 500 48 500 80 L500 360 Z " />
<glyph glyph-name="oe" unicode="&#x153;" horiz-adv-x="699" d="M59 72 C84 -2 140 -41 220 -41 C303 -41 363 3 390 77 C397 95 400 114 400 129 L400 279 C400 293 397 310 391 328 C366 402 310 441 230 441 C147 441 87 397 60 323 C53 305 50 287 50 271 L50 121 C50 107 53 90 59 72 L59 72 Z M150 277 C157 336 176 360 218 360 C267 360 300 324 300 271 L300 122 C300 71 273 41 228 41 C175 41 149 82 149 168 C149 185 150 227 150 269 C150 272 150 274 150 277 L150 277 Z M399 160 L592 160 C618 160 642 176 646 196 C649 211 649 263 649 263 C649 290 647 311 639 332 C612 403 558 441 481 441 C375 441 299 370 299 271 L299 121 C299 106 303 88 309 71 C335 -2 390 -41 469 -41 L517 -41 C546 -41 572 -18 572 7 C572 49 513 40 486 40 C434 40 399 76 399 129 L399 160 Z M399 241 L399 279 C399 330 425 360 468 360 C515 360 549 323 549 271 C549 261 549 251 549 241 L399 241 Z " />
<glyph glyph-name="Racute" unicode="&#x154;" horiz-adv-x="525" d="M305 310 C399 312 475 386 475 475 C475 493 472 512 465 532 C440 603 383 641 305 641 L105 641 C77 641 50 619 50 596 L50 -4 C50 -25 70 -41 95 -41 C117 -41 139 -28 145 -13 C152 4 150 46 150 62 L150 560 L295 560 C342 560 375 525 375 474 C375 458 372 443 365 428 C352 399 337 391 295 391 L240 391 C203 391 175 375 175 355 C175 329 212 274 222 256 L360 14 C376 -13 382 -41 416 -41 C448 -41 475 -20 475 4 C475 9 474 13 472 17 C467 27 460 38 454 48 L305 310 Z M225 696 C225 676 244 660 270 660 C279 660 291 662 296 665 C308 672 386 747 395 761 C398 765 400 773 400 779 C400 800 381 816 356 816 C348 816 336 814 329 810 C317 803 239 728 230 714 C227 710 225 702 225 696 L225 696 Z " />
<glyph glyph-name="racute" unicode="&#x155;" horiz-adv-x="325" d="M50 -4 C50 -25 70 -41 96 -41 C116 -41 139 -30 144 -18 C151 -2 150 55 150 89 C150 124 149 182 149 218 C149 269 147 302 163 330 C192 379 237 342 265 378 C272 387 275 396 275 405 C275 428 253 441 215 441 C144 441 86 394 60 323 C53 305 50 287 50 271 L50 -4 Z M124 521 C124 501 143 485 169 485 C178 485 190 487 195 490 C207 497 285 572 294 586 C297 590 299 598 299 604 C299 625 280 641 255 641 C247 641 235 639 228 635 C216 628 138 553 129 539 C126 535 124 527 124 521 L124 521 Z " />
<glyph glyph-name="uni0156" unicode="&#x156;" horiz-adv-x="525" d="M305 310 C399 312 475 386 475 475 C475 493 472 512 465 532 C440 603 383 641 305 641 L105 641 C77 641 50 619 50 596 L50 -4 C50 -25 70 -41 95 -41 C117 -41 139 -28 145 -13 C152 4 150 46 150 62 L150 560 L295 560 C342 560 375 525 375 474 C375 458 372 443 365 428 C352 399 337 391 295 391 L240 391 C203 391 175 375 175 355 C175 329 212 274 222 256 L360 14 C376 -13 382 -41 416 -41 C448 -41 475 -20 475 4 C475 9 474 13 472 17 C467 27 460 38 454 48 L305 310 Z M285 -207 C295 -179 337 0 337 14 C337 28 315 41 292 41 L242 41 C214 41 187 19 187 -4 C187 -23 205 -39 227 -40 C219 -70 187 -183 187 -207 C187 -225 208 -241 232 -241 C256 -241 281 -225 285 -207 L285 -207 Z " />
<glyph glyph-name="uni0157" unicode="&#x157;" horiz-adv-x="275" d="M25 -4 C25 -25 45 -41 71 -41 C91 -41 114 -30 119 -18 C126 -2 125 55 125 89 C125 124 124 182 124 218 C124 269 122 302 138 330 C167 379 212 342 240 378 C247 387 250 396 250 405 C250 428 228 441 190 441 C119 441 61 394 35 323 C28 305 25 287 25 271 L25 -4 Z M97 -207 C107 -179 149 0 149 14 C149 28 127 41 104 41 L54 41 C26 41 -1 19 -1 -4 C-1 -23 17 -39 39 -40 C31 -70 -1 -183 -1 -207 C-1 -225 20 -241 44 -241 C68 -241 93 -225 97 -207 L97 -207 Z " />
<glyph glyph-name="Rcaron" unicode="&#x158;" horiz-adv-x="525" d="M305 310 C399 312 475 386 475 475 C475 493 472 512 465 532 C440 603 383 641 305 641 L105 641 C77 641 50 619 50 596 L50 -4 C50 -25 70 -41 95 -41 C117 -41 139 -28 145 -13 C152 4 150 46 150 62 L150 560 L295 560 C342 560 375 525 375 474 C375 458 372 443 365 428 C352 399 337 391 295 391 L240 391 C203 391 175 375 175 355 C175 329 212 274 222 256 L360 14 C376 -13 382 -41 416 -41 C448 -41 475 -20 475 4 C475 9 474 13 472 17 C467 27 460 38 454 48 L305 310 Z M140 758 C146 748 221 670 234 664 C239 662 248 660 256 660 C265 660 277 662 283 665 C295 671 373 747 382 761 C385 765 387 773 387 779 C387 800 368 816 342 816 C308 816 287 786 265 764 C244 785 224 816 192 816 C164 816 137 795 137 772 C137 764 139 759 140 758 L140 758 Z " />
<glyph glyph-name="rcaron" unicode="&#x159;" horiz-adv-x="325" d="M50 -4 C50 -25 70 -41 96 -41 C116 -41 139 -30 144 -18 C151 -2 150 55 150 89 C150 124 149 182 149 218 C149 269 147 302 163 330 C192 379 237 342 265 378 C272 387 275 396 275 405 C275 428 253 441 215 441 C144 441 86 394 60 323 C53 305 50 287 50 271 L50 -4 Z M27 583 C33 573 108 495 121 489 C126 487 135 485 143 485 C152 485 164 487 170 490 C182 496 260 572 269 586 C272 590 274 598 274 604 C274 625 255 641 229 641 C195 641 174 611 152 589 C131 610 111 641 79 641 C51 641 24 620 24 597 C24 589 26 584 27 583 L27 583 Z " />
<glyph glyph-name="Sacute" unicode="&#x15a;" horiz-adv-x="550" d="M63 100 C94 8 168 -41 270 -41 C376 -41 455 12 487 107 C496 133 500 159 500 184 C500 295 416 383 301 390 C252 393 209 381 185 436 C178 452 175 467 175 480 C175 494 179 509 185 523 C197 550 213 560 243 560 C322 560 359 542 371 498 C375 483 374 473 377 463 C382 447 399 436 419 436 C450 436 475 459 475 487 C475 504 466 529 455 550 C423 611 363 641 273 641 C179 641 120 610 91 543 C81 519 75 494 75 471 C75 444 84 413 99 387 C129 335 179 310 254 310 C319 310 354 294 377 253 C391 227 400 194 400 165 C400 92 350 41 276 41 C214 41 171 76 157 135 C149 168 155 196 132 209 C125 213 115 216 106 216 C75 216 50 192 50 162 C50 148 55 124 63 100 L63 100 Z M224 696 C224 676 243 660 269 660 C278 660 290 662 295 665 C307 672 385 747 394 761 C397 765 399 773 399 779 C399 800 380 816 355 816 C347 816 335 814 328 810 C316 803 238 728 229 714 C226 710 224 702 224 696 L224 696 Z " />
<glyph glyph-name="sacute" unicode="&#x15b;" horiz-adv-x="426" d="M208 -41 C303 -41 376 27 376 116 C376 190 325 254 257 263 C233 266 198 263 184 270 C172 276 163 298 163 322 C163 347 174 360 194 360 C288 360 234 273 302 273 C338 273 363 296 363 329 C363 375 321 420 271 435 C258 439 240 441 222 441 C128 441 63 388 63 312 C63 250 104 199 160 189 C192 183 225 191 247 173 C263 160 276 130 276 104 C276 67 251 41 215 41 C183 41 160 61 153 93 C150 107 152 116 149 126 C144 142 126 154 106 154 C73 154 50 127 50 90 C50 19 122 -41 208 -41 L208 -41 Z M163 521 C163 501 182 485 208 485 C217 485 229 487 234 490 C246 497 324 572 333 586 C336 590 338 598 338 604 C338 625 319 641 294 641 C286 641 274 639 267 635 C255 628 177 553 168 539 C165 535 163 527 163 521 L163 521 Z " />
<glyph glyph-name="Scircumflex" unicode="&#x15c;" horiz-adv-x="550" d="M63 100 C94 8 168 -41 270 -41 C376 -41 455 12 487 107 C496 133 500 159 500 184 C500 295 416 383 301 390 C252 393 209 381 185 436 C178 452 175 467 175 480 C175 494 179 509 185 523 C197 550 213 560 243 560 C322 560 359 542 371 498 C375 483 374 473 377 463 C382 447 399 436 419 436 C450 436 475 459 475 487 C475 504 466 529 455 550 C423 611 363 641 273 641 C179 641 120 610 91 543 C81 519 75 494 75 471 C75 444 84 413 99 387 C129 335 179 310 254 310 C319 310 354 294 377 253 C391 227 400 194 400 165 C400 92 350 41 276 41 C214 41 171 76 157 135 C149 168 155 196 132 209 C125 213 115 216 106 216 C75 216 50 192 50 162 C50 148 55 124 63 100 L63 100 Z M265 711 C286 690 306 660 338 660 C367 660 393 681 393 704 C393 709 393 714 390 718 C381 731 305 805 295 811 C291 814 281 816 273 816 C265 816 254 814 247 810 C235 803 157 728 148 714 C145 710 143 702 143 696 C143 675 163 660 189 660 C222 660 243 689 265 711 L265 711 Z " />
<glyph glyph-name="scircumflex" unicode="&#x15d;" horiz-adv-x="426" d="M208 -41 C303 -41 376 27 376 116 C376 190 325 254 257 263 C233 266 198 263 184 270 C172 276 163 298 163 322 C163 347 174 360 194 360 C288 360 234 273 302 273 C338 273 363 296 363 329 C363 375 321 420 271 435 C258 439 240 441 222 441 C128 441 63 388 63 312 C63 250 104 199 160 189 C192 183 225 191 247 173 C263 160 276 130 276 104 C276 67 251 41 215 41 C183 41 160 61 153 93 C150 107 152 116 149 126 C144 142 126 154 106 154 C73 154 50 127 50 90 C50 19 122 -41 208 -41 L208 -41 Z M209 536 C230 515 250 485 282 485 C311 485 337 506 337 529 C337 534 337 539 334 543 C325 556 249 630 239 636 C235 639 225 641 217 641 C209 641 198 639 191 635 C179 628 101 553 92 539 C89 535 87 527 87 521 C87 500 107 485 133 485 C166 485 187 514 209 536 L209 536 Z " />
<glyph glyph-name="Scedilla" unicode="&#x15e;" horiz-adv-x="550" d="M63 100 C94 8 168 -41 270 -41 C376 -41 455 12 487 107 C496 133 500 159 500 184 C500 295 416 383 301 390 C252 393 209 381 185 436 C178 452 175 467 175 480 C175 494 179 509 185 523 C197 550 213 560 243 560 C322 560 359 542 371 498 C375 483 374 473 377 463 C382 447 399 436 419 436 C450 436 475 459 475 487 C475 504 466 529 455 550 C423 611 363 641 273 641 C179 641 120 610 91 543 C81 519 75 494 75 471 C75 444 84 413 99 387 C129 335 179 310 254 310 C319 310 354 294 377 253 C391 227 400 194 400 165 C400 92 350 41 276 41 C214 41 171 76 157 135 C149 168 155 196 132 209 C125 213 115 216 106 216 C75 216 50 192 50 162 C50 148 55 124 63 100 L63 100 Z M268 -100 C267 -95 268 -91 266 -85 C261 -70 244 -60 224 -60 C192 -60 168 -83 168 -114 C168 -157 210 -191 263 -191 C322 -191 368 -149 368 -96 L368 -46 C368 3 330 41 281 41 C246 41 218 21 218 -4 C218 -20 231 -33 250 -38 C257 -40 261 -39 263 -41 C265 -43 268 -49 268 -55 L268 -100 Z " />
<glyph glyph-name="scedilla" unicode="&#x15f;" horiz-adv-x="426" d="M208 -41 C303 -41 376 27 376 116 C376 190 325 254 257 263 C233 266 198 263 184 270 C172 276 163 298 163 322 C163 347 174 360 194 360 C288 360 234 273 302 273 C338 273 363 296 363 329 C363 375 321 420 271 435 C258 439 240 441 222 441 C128 441 63 388 63 312 C63 250 104 199 160 189 C192 183 225 191 247 173 C263 160 276 130 276 104 C276 67 251 41 215 41 C183 41 160 61 153 93 C150 107 152 116 149 126 C144 142 126 154 106 154 C73 154 50 127 50 90 C50 19 122 -41 208 -41 L208 -41 Z M212 -100 C211 -95 212 -91 210 -85 C205 -70 188 -60 168 -60 C136 -60 112 -83 112 -114 C112 -157 154 -191 207 -191 C266 -191 312 -149 312 -96 L312 -46 C312 3 274 41 225 41 C190 41 162 21 162 -4 C162 -20 175 -33 194 -38 C201 -40 205 -39 207 -41 C209 -43 212 -49 212 -55 L212 -100 Z " />
<glyph glyph-name="Scaron" unicode="&#x160;" horiz-adv-x="550" d="M63 100 C94 8 168 -41 270 -41 C376 -41 455 12 487 107 C496 133 500 159 500 184 C500 295 416 383 301 390 C252 393 209 381 185 436 C178 452 175 467 175 480 C175 494 179 509 185 523 C197 550 213 560 243 560 C322 560 359 542 371 498 C375 483 374 473 377 463 C382 447 399 436 419 436 C450 436 475 459 475 487 C475 504 466 529 455 550 C423 611 363 641 273 641 C179 641 120 610 91 543 C81 519 75 494 75 471 C75 444 84 413 99 387 C129 335 179 310 254 310 C319 310 354 294 377 253 C391 227 400 194 400 165 C400 92 350 41 276 41 C214 41 171 76 157 135 C149 168 155 196 132 209 C125 213 115 216 106 216 C75 216 50 192 50 162 C50 148 55 124 63 100 L63 100 Z M153 758 C159 748 234 670 247 664 C252 662 261 660 269 660 C278 660 290 662 296 665 C308 671 386 747 395 761 C398 765 400 773 400 779 C400 800 381 816 355 816 C321 816 300 786 278 764 C257 785 237 816 205 816 C177 816 150 795 150 772 C150 764 152 759 153 758 L153 758 Z " />
<glyph glyph-name="scaron" unicode="&#x161;" horiz-adv-x="426" d="M208 -41 C303 -41 376 27 376 116 C376 190 325 254 257 263 C233 266 198 263 184 270 C172 276 163 298 163 322 C163 347 174 360 194 360 C288 360 234 273 302 273 C338 273 363 296 363 329 C363 375 321 420 271 435 C258 439 240 441 222 441 C128 441 63 388 63 312 C63 250 104 199 160 189 C192 183 225 191 247 173 C263 160 276 130 276 104 C276 67 251 41 215 41 C183 41 160 61 153 93 C150 107 152 116 149 126 C144 142 126 154 106 154 C73 154 50 127 50 90 C50 19 122 -41 208 -41 L208 -41 Z M91 583 C97 573 172 495 185 489 C190 487 199 485 207 485 C216 485 228 487 234 490 C246 496 324 572 333 586 C336 590 338 598 338 604 C338 625 319 641 293 641 C259 641 238 611 216 589 C195 610 175 641 143 641 C115 641 88 620 88 597 C88 589 90 584 91 583 L91 583 Z " />
<glyph glyph-name="uni0162" unicode="&#x162;" horiz-adv-x="500" d="M200 560 L200 -4 C200 -25 220 -41 245 -41 C274 -41 300 -19 300 4 L300 560 L420 560 C449 560 475 581 475 604 C475 625 456 641 430 641 L80 641 C52 641 25 619 25 596 C25 576 45 560 70 560 L200 560 Z M273 -207 C283 -179 325 0 325 14 C325 28 303 41 280 41 L230 41 C202 41 175 19 175 -4 C175 -23 193 -39 215 -40 C207 -70 175 -183 175 -207 C175 -225 196 -241 220 -241 C244 -241 269 -225 273 -207 L273 -207 Z " />
<glyph glyph-name="uni0163" unicode="&#x163;" horiz-adv-x="400" d="M125 360 L125 121 C125 106 128 88 135 68 C159 0 214 -41 278 -41 C320 -41 350 -22 350 4 C350 21 336 36 316 40 C305 42 294 40 279 44 C240 54 225 87 225 167 C225 231 225 296 225 360 L295 360 C324 360 350 381 350 404 C350 425 331 441 305 441 L225 441 C225 450 225 459 225 459 C225 504 229 541 186 541 C153 541 125 521 125 496 L125 441 L105 441 C77 441 50 419 50 396 C50 376 69 360 95 360 L125 360 Z M347 -207 C357 -179 399 0 399 14 C399 28 377 41 354 41 L304 41 C276 41 249 19 249 -4 C249 -23 267 -39 289 -40 C281 -70 249 -183 249 -207 C249 -225 270 -241 294 -241 C318 -241 343 -225 347 -207 L347 -207 Z " />
<glyph glyph-name="Tcaron" unicode="&#x164;" horiz-adv-x="500" d="M200 560 L200 -4 C200 -25 220 -41 245 -41 C274 -41 300 -19 300 4 L300 560 L420 560 C449 560 475 581 475 604 C475 625 456 641 430 641 L80 641 C52 641 25 619 25 596 C25 576 45 560 70 560 L200 560 Z M128 758 C134 748 209 670 222 664 C227 662 236 660 244 660 C253 660 265 662 271 665 C283 671 361 747 370 761 C373 765 375 773 375 779 C375 800 356 816 330 816 C296 816 275 786 253 764 C232 785 212 816 180 816 C152 816 125 795 125 772 C125 764 127 759 128 758 L128 758 Z " />
<glyph glyph-name="tcaron" unicode="&#x165;" horiz-adv-x="450" d="M125 360 L125 121 C125 106 128 88 135 68 C159 0 214 -41 278 -41 C320 -41 350 -22 350 4 C350 21 336 36 316 40 C305 42 294 40 279 44 C240 54 225 87 225 167 C225 231 225 296 225 360 L295 360 C324 360 350 381 350 404 C350 425 331 441 305 441 L225 441 C225 450 225 459 225 459 C225 504 229 541 186 541 C153 541 125 521 125 496 L125 441 L105 441 C77 441 50 419 50 396 C50 376 69 360 95 360 L125 360 Z M473 393 C483 421 525 600 525 614 C525 628 503 641 480 641 L430 641 C402 641 375 619 375 596 C375 577 393 561 415 560 C407 530 375 417 375 393 C375 375 396 359 420 359 C444 359 469 375 473 393 L473 393 Z " />
<glyph glyph-name="Tbar" unicode="&#x166;" horiz-adv-x="500" d="M200 560 L200 -4 C200 -25 220 -41 245 -41 C274 -41 300 -19 300 4 L300 560 L420 560 C449 560 475 581 475 604 C475 625 456 641 430 641 L80 641 C52 641 25 619 25 596 C25 576 45 560 70 560 L200 560 Z M125 721 C125 701 145 685 170 685 L320 685 C349 685 375 706 375 729 C375 750 356 766 330 766 L180 766 C152 766 125 744 125 721 L125 721 Z " />
<glyph glyph-name="tbar" unicode="&#x167;" horiz-adv-x="400" d="M125 360 L125 121 C125 106 128 88 135 68 C159 0 214 -41 278 -41 C320 -41 350 -22 350 4 C350 21 336 36 316 40 C305 42 294 40 279 44 C240 54 225 87 225 167 C225 231 225 296 225 360 L295 360 C324 360 350 381 350 404 C350 425 331 441 305 441 L225 441 C225 450 225 459 225 459 C225 504 229 541 186 541 C153 541 125 521 125 496 L125 441 L105 441 C77 441 50 419 50 396 C50 376 69 360 95 360 L125 360 Z M74 521 C74 501 94 485 119 485 L269 485 C298 485 324 506 324 529 C324 550 305 566 279 566 L129 566 C101 566 74 544 74 521 L74 521 Z " />
<glyph glyph-name="Utilde" unicode="&#x168;" horiz-adv-x="550" d="M64 98 C97 9 168 -41 270 -41 C376 -41 454 11 486 104 C495 130 500 157 500 179 L500 604 C500 625 480 641 453 641 C415 641 400 596 400 483 C400 454 401 321 401 289 C401 107 369 41 280 41 C210 41 165 82 153 155 C149 179 150 200 150 222 L150 310 C150 334 150 358 150 382 L150 525 C150 549 150 572 150 572 C150 619 136 641 107 641 C77 641 50 620 50 596 L50 171 C50 149 55 123 64 98 L64 98 Z M225 707 C233 701 239 694 245 688 C264 669 291 660 319 660 C376 660 425 699 425 745 C425 774 407 791 376 791 C348 791 331 775 325 743 C317 749 311 757 303 764 C284 780 258 791 230 791 C174 791 125 751 125 705 C125 677 144 660 174 660 C202 660 219 675 225 707 L225 707 Z " />
<glyph glyph-name="utilde" unicode="&#x169;" horiz-adv-x="450" d="M300 41 L231 41 C137 41 150 145 150 210 C150 273 150 335 150 335 C150 410 137 441 107 441 C77 441 50 420 50 396 L50 121 C50 106 54 88 60 71 C86 -2 141 -41 220 -41 L345 -41 C374 -41 400 -19 400 4 L400 404 C400 425 381 441 355 441 C334 441 312 430 306 416 C296 394 300 305 300 280 L300 41 Z M174 532 C182 526 188 519 194 513 C213 494 240 485 268 485 C325 485 374 524 374 570 C374 599 356 616 325 616 C297 616 280 600 274 568 C266 574 260 582 252 589 C233 605 207 616 179 616 C123 616 74 576 74 530 C74 502 93 485 123 485 C151 485 168 500 174 532 L174 532 Z " />
<glyph glyph-name="Umacron" unicode="&#x16a;" horiz-adv-x="550" d="M64 98 C97 9 168 -41 270 -41 C376 -41 454 11 486 104 C495 130 500 157 500 179 L500 604 C500 625 480 641 453 641 C415 641 400 596 400 483 C400 454 401 321 401 289 C401 107 369 41 280 41 C210 41 165 82 153 155 C149 179 150 200 150 222 L150 310 C150 334 150 358 150 382 L150 525 C150 549 150 572 150 572 C150 619 136 641 107 641 C77 641 50 620 50 596 L50 171 C50 149 55 123 64 98 L64 98 Z M150 721 C150 701 170 685 195 685 L345 685 C374 685 400 706 400 729 C400 750 381 766 355 766 L205 766 C177 766 150 744 150 721 L150 721 Z " />
<glyph glyph-name="umacron" unicode="&#x16b;" horiz-adv-x="450" d="M300 41 L231 41 C137 41 150 145 150 210 C150 273 150 335 150 335 C150 410 137 441 107 441 C77 441 50 420 50 396 L50 121 C50 106 54 88 60 71 C86 -2 141 -41 220 -41 L345 -41 C374 -41 400 -19 400 4 L400 404 C400 425 381 441 355 441 C334 441 312 430 306 416 C296 394 300 305 300 280 L300 41 Z M99 546 C99 526 119 510 144 510 L294 510 C323 510 349 531 349 554 C349 575 330 591 304 591 L154 591 C126 591 99 569 99 546 L99 546 Z " />
<glyph glyph-name="Ubreve" unicode="&#x16c;" horiz-adv-x="550" d="M64 98 C97 9 168 -41 270 -41 C376 -41 454 11 486 104 C495 130 500 157 500 179 L500 604 C500 625 480 641 453 641 C415 641 400 596 400 483 C400 454 401 321 401 289 C401 107 369 41 280 41 C210 41 165 82 153 155 C149 179 150 200 150 222 L150 310 C150 334 150 358 150 382 L150 525 C150 549 150 572 150 572 C150 619 136 641 107 641 C77 641 50 620 50 596 L50 171 C50 149 55 123 64 98 L64 98 Z M150 756 C150 702 201 660 266 660 C339 660 400 709 400 767 C400 797 383 816 355 816 C343 816 331 812 322 806 C286 782 313 741 280 741 C235 741 273 816 211 816 C175 816 150 792 150 756 L150 756 Z " />
<glyph glyph-name="ubreve" unicode="&#x16d;" horiz-adv-x="450" d="M300 41 L231 41 C137 41 150 145 150 210 C150 273 150 335 150 335 C150 410 137 441 107 441 C77 441 50 420 50 396 L50 121 C50 106 54 88 60 71 C86 -2 141 -41 220 -41 L345 -41 C374 -41 400 -19 400 4 L400 404 C400 425 381 441 355 441 C334 441 312 430 306 416 C296 394 300 305 300 280 L300 41 Z M99 581 C99 527 150 485 215 485 C288 485 349 534 349 592 C349 622 332 641 304 641 C292 641 280 637 271 631 C235 607 262 566 229 566 C184 566 222 641 160 641 C124 641 99 617 99 581 L99 581 Z " />
<glyph glyph-name="Uring" unicode="&#x16e;" horiz-adv-x="550" d="M64 98 C97 9 168 -41 270 -41 C376 -41 454 11 486 104 C495 130 500 157 500 179 L500 604 C500 625 480 641 453 641 C415 641 400 596 400 483 C400 454 401 321 401 289 C401 107 369 41 280 41 C210 41 165 82 153 155 C149 179 150 200 150 222 L150 310 C150 334 150 358 150 382 L150 525 C150 549 150 572 150 572 C150 619 136 641 107 641 C77 641 50 620 50 596 L50 171 C50 149 55 123 64 98 L64 98 Z M149 693 C149 630 202 581 271 582 C344 583 402 637 402 703 C402 766 348 816 281 816 C209 816 149 760 149 693 L149 693 Z M273 664 C259 669 249 684 249 701 C249 720 259 734 272 734 C288 734 302 714 302 693 C302 676 293 664 279 662 C277 662 276 663 273 664 L273 664 Z " />
<glyph glyph-name="uring" unicode="&#x16f;" horiz-adv-x="450" d="M300 41 L231 41 C137 41 150 145 150 210 C150 273 150 335 150 335 C150 410 137 441 107 441 C77 441 50 420 50 396 L50 121 C50 106 54 88 60 71 C86 -2 141 -41 220 -41 L345 -41 C374 -41 400 -19 400 4 L400 404 C400 425 381 441 355 441 C334 441 312 430 306 416 C296 394 300 305 300 280 L300 41 Z M98 518 C98 455 151 406 220 407 C293 408 351 462 351 528 C351 591 297 641 230 641 C158 641 98 585 98 518 L98 518 Z M222 489 C208 494 198 509 198 526 C198 545 208 559 221 559 C237 559 251 539 251 518 C251 501 242 489 228 487 C226 487 225 488 222 489 L222 489 Z " />
<glyph glyph-name="Uhungarumlaut" unicode="&#x170;" horiz-adv-x="550" d="M64 98 C97 9 168 -41 270 -41 C376 -41 454 11 486 104 C495 130 500 157 500 179 L500 604 C500 625 480 641 453 641 C415 641 400 596 400 483 C400 454 401 321 401 289 C401 107 369 41 280 41 C210 41 165 82 153 155 C149 179 150 200 150 222 L150 310 C150 334 150 358 150 382 L150 525 C150 549 150 572 150 572 C150 619 136 641 107 641 C77 641 50 620 50 596 L50 171 C50 149 55 123 64 98 L64 98 Z M141 696 C141 676 160 660 186 660 C195 660 207 662 212 665 C224 672 302 747 311 761 C314 765 316 773 316 779 C316 800 297 816 272 816 C264 816 252 814 245 810 C233 803 155 728 146 714 C143 710 141 702 141 696 L141 696 Z M316 696 C316 676 335 660 361 660 C370 660 382 662 387 665 C399 672 477 747 486 761 C489 765 491 773 491 779 C491 800 472 816 447 816 C439 816 427 814 420 810 C408 803 330 728 321 714 C318 710 316 702 316 696 L316 696 Z " />
<glyph glyph-name="uhungarumlaut" unicode="&#x171;" horiz-adv-x="450" d="M300 41 L231 41 C137 41 150 145 150 210 C150 273 150 335 150 335 C150 410 137 441 107 441 C77 441 50 420 50 396 L50 121 C50 106 54 88 60 71 C86 -2 141 -41 220 -41 L345 -41 C374 -41 400 -19 400 4 L400 404 C400 425 381 441 355 441 C334 441 312 430 306 416 C296 394 300 305 300 280 L300 41 Z M90 521 C90 501 109 485 135 485 C144 485 156 487 161 490 C173 497 251 572 260 586 C263 590 265 598 265 604 C265 625 246 641 221 641 C213 641 201 639 194 635 C182 628 104 553 95 539 C92 535 90 527 90 521 L90 521 Z M265 521 C265 501 284 485 310 485 C319 485 331 487 336 490 C348 497 426 572 435 586 C438 590 440 598 440 604 C440 625 421 641 396 641 C388 641 376 639 369 635 C357 628 279 553 270 539 C267 535 265 527 265 521 L265 521 Z " />
<glyph glyph-name="Uogonek" unicode="&#x172;" horiz-adv-x="550" d="M64 98 C97 9 168 -41 270 -41 C376 -41 454 11 486 104 C495 130 500 157 500 179 L500 604 C500 625 480 641 453 641 C415 641 400 596 400 483 C400 454 401 321 401 289 C401 107 369 41 280 41 C210 41 165 82 153 155 C149 179 150 200 150 222 L150 310 C150 334 150 358 150 382 L150 525 C150 549 150 572 150 572 C150 619 136 641 107 641 C77 641 50 620 50 596 L50 171 C50 149 55 123 64 98 L64 98 Z M276 -101 C275 -100 275 -98 275 -95 L275 -48 C275 -46 276 -42 276 -40 C281 -38 287 -39 294 -37 C311 -32 325 -12 325 5 C325 26 304 41 274 41 C220 41 175 -2 175 -54 L175 -104 C175 -154 215 -191 270 -191 C326 -191 375 -151 375 -105 C375 -78 358 -60 330 -60 C302 -60 278 -78 276 -101 L276 -101 Z " />
<glyph glyph-name="uogonek" unicode="&#x173;" horiz-adv-x="450" d="M300 41 L231 41 C137 41 150 145 150 210 C150 273 150 335 150 335 C150 410 137 441 107 441 C77 441 50 420 50 396 L50 121 C50 106 54 88 60 71 C86 -2 141 -41 220 -41 L345 -41 C374 -41 400 -19 400 4 L400 404 C400 425 381 441 355 441 C334 441 312 430 306 416 C296 394 300 305 300 280 L300 41 Z M226 -101 C225 -100 225 -98 225 -95 L225 -48 C225 -46 226 -42 226 -40 C231 -38 237 -39 244 -37 C261 -32 275 -12 275 5 C275 26 254 41 224 41 C170 41 125 -2 125 -54 L125 -104 C125 -154 165 -191 220 -191 C276 -191 325 -151 325 -105 C325 -78 308 -60 280 -60 C252 -60 228 -78 226 -101 L226 -101 Z " />
<glyph glyph-name="Wcircumflex" unicode="&#x174;" horiz-adv-x="750" d="M253 169 C238 220 129 614 111 632 C106 637 93 641 82 641 C56 641 25 623 25 608 C25 576 174 85 186 43 C191 24 197 -6 205 -20 C213 -33 227 -41 245 -41 C261 -41 279 -35 285 -27 C300 -7 363 202 374 236 C384 205 449 -16 465 -32 C470 -37 484 -41 495 -41 C516 -41 536 -30 545 -14 C553 0 556 22 561 38 L595 155 C638 302 683 448 718 574 C724 598 725 601 725 606 C725 625 704 641 679 641 C665 641 646 634 640 627 C630 615 565 401 499 169 C489 200 426 416 410 432 C405 437 392 441 380 441 C364 441 346 435 340 427 C325 407 263 202 253 169 L253 169 Z M372 711 C393 690 413 660 445 660 C474 660 500 681 500 704 C500 709 500 714 497 718 C488 731 412 805 402 811 C398 814 388 816 380 816 C372 816 361 814 354 810 C342 803 264 728 255 714 C252 710 250 702 250 696 C250 675 270 660 296 660 C329 660 350 689 372 711 L372 711 Z " />
<glyph glyph-name="wcircumflex" unicode="&#x175;" horiz-adv-x="600" d="M204 156 C162 295 118 421 111 431 C107 436 93 441 81 441 C57 441 25 423 25 410 C25 386 153 -15 164 -32 C167 -37 184 -41 198 -41 C227 -41 240 -28 254 12 L301 146 C309 122 351 -15 364 -31 C369 -37 382 -41 395 -41 C410 -41 431 -34 436 -27 C450 -8 575 391 575 417 C575 429 551 441 529 441 C514 441 496 435 490 427 C475 407 412 196 401 162 L358 295 C346 331 337 341 312 341 C289 341 268 332 259 314 C255 306 253 297 250 288 L204 156 Z M296 536 C317 515 337 485 369 485 C398 485 424 506 424 529 C424 534 424 539 421 543 C412 556 336 630 326 636 C322 639 312 641 304 641 C296 641 285 639 278 635 C266 628 188 553 179 539 C176 535 174 527 174 521 C174 500 194 485 220 485 C253 485 274 514 296 536 L296 536 Z " />
<glyph glyph-name="Ycircumflex" unicode="&#x176;" horiz-adv-x="494" d="M300 389 C309 401 314 407 319 413 L439 555 C447 564 456 573 462 582 C467 590 469 598 469 605 C469 626 449 641 423 641 C385 641 366 605 344 579 L252 470 L154 582 C133 606 115 641 81 641 C52 641 25 620 25 597 C25 589 27 584 28 583 C38 568 155 433 201 383 L200 -4 C200 -25 220 -41 245 -41 C274 -41 300 -19 300 4 L300 389 Z M244 711 C265 690 285 660 317 660 C346 660 372 681 372 704 C372 709 372 714 369 718 C360 731 284 805 274 811 C270 814 260 816 252 816 C244 816 233 814 226 810 C214 803 136 728 127 714 C124 710 122 702 122 696 C122 675 142 660 168 660 C201 660 222 689 244 711 L244 711 Z " />
<glyph glyph-name="ycircumflex" unicode="&#x177;" horiz-adv-x="400" d="M203 160 C169 267 120 421 119 422 C105 437 97 441 83 441 C57 441 25 423 25 409 C25 393 99 148 152 -11 L138 -58 C133 -74 129 -91 119 -118 C108 -147 97 -158 74 -161 C45 -165 25 -183 25 -204 C25 -226 47 -241 80 -241 C136 -241 187 -195 216 -125 C225 -103 230 -81 237 -59 L275 66 C288 108 375 386 375 414 C375 428 353 441 330 441 C313 441 294 432 286 422 C274 406 254 330 248 311 L203 160 Z M197 536 C218 515 238 485 270 485 C299 485 325 506 325 529 C325 534 325 539 322 543 C313 556 237 630 227 636 C223 639 213 641 205 641 C197 641 186 639 179 635 C167 628 89 553 80 539 C77 535 75 527 75 521 C75 500 95 485 121 485 C154 485 175 514 197 536 L197 536 Z " />
<glyph glyph-name="Ydieresis" unicode="&#x178;" horiz-adv-x="494" d="M300 389 C309 401 314 407 319 413 L439 555 C447 564 456 573 462 582 C467 590 469 598 469 605 C469 626 449 641 423 641 C385 641 366 605 344 579 L252 470 L154 582 C133 606 115 641 81 641 C52 641 25 620 25 597 C25 589 27 584 28 583 C38 568 155 433 201 383 L200 -4 C200 -25 220 -41 245 -41 C274 -41 300 -19 300 4 L300 389 Z M107 696 C107 676 126 660 152 660 C181 660 207 681 207 704 L207 779 C207 800 188 816 163 816 C134 816 107 795 107 771 L107 696 Z M272 696 C272 676 292 660 317 660 C346 660 372 681 372 704 L372 779 C372 800 353 816 328 816 C299 816 272 795 272 771 L272 696 Z " />
<glyph glyph-name="Zacute" unicode="&#x179;" horiz-adv-x="550" d="M177 41 L462 530 C472 546 500 587 500 609 C500 626 479 641 455 641 L105 641 C77 641 50 619 50 596 C50 582 60 569 74 564 C97 556 160 560 185 560 L373 560 L88 70 C78 54 50 13 50 -8 C50 -26 71 -41 95 -41 L445 -41 C474 -41 500 -19 500 4 C500 18 490 31 475 36 C453 43 390 41 365 41 L177 41 Z M224 696 C224 676 243 660 269 660 C278 660 290 662 295 665 C307 672 385 747 394 761 C397 765 399 773 399 779 C399 800 380 816 355 816 C347 816 335 814 328 810 C316 803 238 728 229 714 C226 710 224 702 224 696 L224 696 Z " />
<glyph glyph-name="zacute" unicode="&#x17a;" horiz-adv-x="450" d="M179 41 L374 352 C383 366 400 388 400 406 C400 426 380 441 355 441 L105 441 C76 441 50 418 50 393 C50 358 93 360 120 360 L271 360 L77 48 C68 34 50 12 50 -7 C50 -25 71 -41 95 -41 L345 -41 C374 -41 400 -18 400 7 C400 42 357 41 330 41 L179 41 Z M174 521 C174 501 193 485 219 485 C228 485 240 487 245 490 C257 497 335 572 344 586 C347 590 349 598 349 604 C349 625 330 641 305 641 C297 641 285 639 278 635 C266 628 188 553 179 539 C176 535 174 527 174 521 L174 521 Z " />
<glyph glyph-name="Zdotaccent" unicode="&#x17b;" horiz-adv-x="550" d="M177 41 L462 530 C472 546 500 587 500 609 C500 626 479 641 455 641 L105 641 C77 641 50 619 50 596 C50 582 60 569 74 564 C97 556 160 560 185 560 L373 560 L88 70 C78 54 50 13 50 -8 C50 -26 71 -41 95 -41 L445 -41 C474 -41 500 -19 500 4 C500 18 490 31 475 36 C453 43 390 41 365 41 L177 41 Z M225 696 C225 676 244 660 270 660 C299 660 325 681 325 704 L325 779 C325 800 306 816 281 816 C252 816 225 795 225 771 L225 696 Z " />
<glyph glyph-name="zdotaccent" unicode="&#x17c;" horiz-adv-x="450" d="M179 41 L374 352 C383 366 400 388 400 406 C400 426 380 441 355 441 L105 441 C76 441 50 418 50 393 C50 358 93 360 120 360 L271 360 L77 48 C68 34 50 12 50 -7 C50 -25 71 -41 95 -41 L345 -41 C374 -41 400 -18 400 7 C400 42 357 41 330 41 L179 41 Z M174 521 C174 501 193 485 219 485 C248 485 274 506 274 529 L274 604 C274 625 255 641 230 641 C201 641 174 620 174 596 L174 521 Z " />
<glyph glyph-name="Zcaron" unicode="&#x17d;" horiz-adv-x="550" d="M177 41 L462 530 C472 546 500 587 500 609 C500 626 479 641 455 641 L105 641 C77 641 50 619 50 596 C50 582 60 569 74 564 C97 556 160 560 185 560 L373 560 L88 70 C78 54 50 13 50 -8 C50 -26 71 -41 95 -41 L445 -41 C474 -41 500 -19 500 4 C500 18 490 31 475 36 C453 43 390 41 365 41 L177 41 Z M153 758 C159 748 234 670 247 664 C252 662 261 660 269 660 C278 660 290 662 296 665 C308 671 386 747 395 761 C398 765 400 773 400 779 C400 800 381 816 355 816 C321 816 300 786 278 764 C257 785 237 816 205 816 C177 816 150 795 150 772 C150 764 152 759 153 758 L153 758 Z " />
<glyph glyph-name="zcaron" unicode="&#x17e;" horiz-adv-x="450" d="M179 41 L374 352 C383 366 400 388 400 406 C400 426 380 441 355 441 L105 441 C76 441 50 418 50 393 C50 358 93 360 120 360 L271 360 L77 48 C68 34 50 12 50 -7 C50 -25 71 -41 95 -41 L345 -41 C374 -41 400 -18 400 7 C400 42 357 41 330 41 L179 41 Z M102 583 C108 573 183 495 196 489 C201 487 210 485 218 485 C227 485 239 487 245 490 C257 496 335 572 344 586 C347 590 349 598 349 604 C349 625 330 641 304 641 C270 641 249 611 227 589 C206 610 186 641 154 641 C126 641 99 620 99 597 C99 589 101 584 102 583 L102 583 Z " />
<glyph glyph-name="longs" unicode="&#x17f;" horiz-adv-x="325" d="M50 -4 C50 -26 71 -41 101 -41 C142 -41 151 -19 151 75 C151 181 149 322 149 396 C149 488 152 512 167 535 C187 565 202 554 228 560 C256 566 275 584 275 605 C275 628 253 641 215 641 C145 641 84 597 60 524 C53 504 50 486 50 471 L50 -4 Z " />
<glyph glyph-name="florin" unicode="&#x192;" horiz-adv-x="450" d="M175 360 L175 -4 C175 -26 196 -41 226 -41 C265 -41 276 -19 276 60 C276 146 274 254 274 360 L320 360 C349 360 375 381 375 404 C375 425 356 441 330 441 L274 441 C274 449 274 455 274 455 C274 493 279 515 292 535 C312 565 327 554 353 560 C381 566 400 584 400 605 C400 628 378 641 340 641 C270 641 209 597 185 524 C178 504 175 486 175 471 L175 441 L155 441 C127 441 100 419 100 396 C100 376 119 360 145 360 L175 360 Z M50 -205 C50 -228 72 -241 110 -241 C180 -241 241 -197 265 -124 C272 -104 275 -86 275 -71 L275 4 C275 25 256 41 230 41 C219 41 207 38 197 32 C166 13 176 -27 176 -64 C176 -119 154 -155 119 -159 C110 -160 102 -159 93 -160 C69 -163 50 -185 50 -205 L50 -205 Z " />
<glyph glyph-name="Aringacute" unicode="&#x1fa;" horiz-adv-x="500" d="M355 59 C373 -1 381 -21 387 -29 C393 -36 405 -41 418 -41 C444 -41 475 -23 475 -8 C475 24 326 515 315 555 C309 576 304 606 295 621 C287 634 273 641 255 641 C234 641 214 630 205 614 C197 600 194 578 189 562 L155 445 C112 298 67 152 32 26 C26 2 25 -1 25 -6 C25 -25 46 -41 71 -41 C87 -41 104 -34 112 -24 C119 -15 128 9 143 58 L355 59 Z M167 141 C200 255 240 395 249 425 C258 396 297 256 331 140 L167 141 Z M124 693 C124 630 177 581 246 582 C319 583 377 637 377 703 C377 766 323 816 256 816 C184 816 124 760 124 693 L124 693 Z M248 664 C234 669 224 684 224 701 C224 720 234 734 247 734 C263 734 277 714 277 693 C277 676 268 664 254 662 C252 662 251 663 248 664 L248 664 Z M225 821 C225 801 244 785 270 785 C279 785 291 787 296 790 C308 797 386 872 395 886 C398 890 400 898 400 904 C400 925 381 941 356 941 C348 941 336 939 329 935 C317 928 239 853 230 839 C227 835 225 827 225 821 L225 821 Z " />
<glyph glyph-name="aringacute" unicode="&#x1fb;" horiz-adv-x="450" d="M300 159 C300 112 299 65 299 42 C299 -22 308 -41 340 -41 C373 -41 400 -20 400 4 L400 279 C400 294 397 312 390 332 C365 403 308 441 230 441 L180 441 C151 441 125 418 125 393 C125 352 185 360 215 360 C277 360 301 327 301 241 L205 241 C118 241 50 178 50 98 C50 35 90 -17 149 -34 C164 -38 185 -41 203 -41 C247 -41 275 -23 275 5 C275 40 235 40 235 40 C179 40 150 61 150 102 C150 122 157 143 166 150 C174 156 207 160 244 160 C251 160 259 160 266 160 L300 159 Z M99 518 C99 455 152 406 221 407 C294 408 352 462 352 528 C352 591 298 641 231 641 C159 641 99 585 99 518 L99 518 Z M223 489 C209 494 199 509 199 526 C199 545 209 559 222 559 C238 559 252 539 252 518 C252 501 243 489 229 487 C227 487 226 488 223 489 L223 489 Z M200 646 C200 626 219 610 245 610 C254 610 266 612 271 615 C283 622 361 697 370 711 C373 715 375 723 375 729 C375 750 356 766 331 766 C323 766 311 764 304 760 C292 753 214 678 205 664 C202 660 200 652 200 646 L200 646 Z " />
<glyph glyph-name="AEacute" unicode="&#x1fc;" horiz-adv-x="700" d="M311 60 C312 57 314 54 317 47 C342 -11 400 -41 470 -41 L595 -41 C624 -41 650 -19 650 6 C650 29 629 41 587 41 C580 41 573 41 566 41 L525 40 C518 40 511 40 511 40 C441 40 416 54 403 100 C401 107 400 113 398 118 C391 172 374 287 363 360 L495 360 C524 360 550 381 550 404 C550 425 531 441 505 441 L350 441 C343 487 337 528 332 560 L595 560 C624 560 650 581 650 604 C650 625 631 641 605 641 L280 641 C279 641 278 640 277 640 C253 637 234 626 228 610 C221 595 218 577 214 562 L180 445 C137 298 92 152 57 26 C51 2 50 -1 50 -6 C50 -25 71 -41 96 -41 C112 -41 132 -33 139 -23 C146 -13 155 17 168 59 L311 60 Z M192 141 C220 237 251 347 259 374 L287 188 C288 180 290 161 293 141 L192 141 Z M275 696 C275 676 294 660 320 660 C329 660 341 662 346 665 C358 672 436 747 445 761 C448 765 450 773 450 779 C450 800 431 816 406 816 C398 816 386 814 379 810 C367 803 289 728 280 714 C277 710 275 702 275 696 L275 696 Z " />
<glyph glyph-name="aeacute" unicode="&#x1fd;" horiz-adv-x="702" d="M302 159 L302 121 C302 106 306 88 312 71 C338 -2 393 -41 472 -41 L520 -41 C549 -41 575 -18 575 7 C575 49 516 40 489 40 C437 40 402 76 402 129 L402 160 L595 160 C621 160 645 176 649 196 C652 211 652 263 652 263 C652 290 650 311 642 332 C615 403 561 441 484 441 C433 441 387 424 354 393 C324 424 281 441 230 441 L180 441 C151 441 125 418 125 393 C125 351 184 360 215 360 C276 360 300 326 300 241 L205 241 C117 241 50 178 50 95 C50 16 111 -41 195 -41 L245 -41 C274 -41 300 -18 300 7 C300 49 241 40 216 40 C175 40 150 63 150 102 C150 122 157 143 166 150 C174 156 207 160 244 160 C251 160 259 160 266 160 L302 159 Z M402 241 L402 279 C402 330 428 360 471 360 C518 360 552 323 552 271 C552 261 552 251 552 241 L402 241 Z M300 521 C300 501 319 485 345 485 C354 485 366 487 371 490 C383 497 461 572 470 586 C473 590 475 598 475 604 C475 625 456 641 431 641 C423 641 411 639 404 635 C392 628 314 553 305 539 C302 535 300 527 300 521 L300 521 Z " />
<glyph glyph-name="Oslashacute" unicode="&#x1fe;" horiz-adv-x="550" d="M63 100 C94 8 168 -41 270 -41 C376 -41 455 12 487 107 C495 132 500 158 500 179 L500 429 C500 450 496 474 487 500 C455 592 383 641 281 641 C174 641 95 588 63 493 C55 468 50 442 50 421 L50 171 C50 150 54 126 63 100 L63 100 Z M400 176 C397 164 399 150 394 128 C381 72 342 41 283 41 C204 41 150 97 150 179 L150 428 C150 506 201 560 276 560 C361 560 401 494 401 353 C401 331 400 260 400 191 C400 186 400 181 400 176 L400 176 Z M100 -113 C100 -128 123 -141 148 -141 C175 -141 192 -126 202 -94 L380 477 C390 509 450 688 450 713 C450 728 427 741 402 741 C375 741 358 726 348 694 L170 123 C160 91 100 -88 100 -113 L100 -113 Z M225 696 C225 676 244 660 270 660 C279 660 291 662 296 665 C308 672 386 747 395 761 C398 765 400 773 400 779 C400 800 381 816 356 816 C348 816 336 814 329 810 C317 803 239 728 230 714 C227 710 225 702 225 696 L225 696 Z " />
<glyph glyph-name="oslashacute" unicode="&#x1ff;" horiz-adv-x="437" d="M46 72 C71 -2 127 -41 207 -41 C290 -41 350 3 377 77 C384 95 387 114 387 129 L387 279 C387 293 384 310 378 328 C353 402 297 441 217 441 C134 441 74 397 47 323 C40 305 37 287 37 271 L37 121 C37 107 40 90 46 72 L46 72 Z M137 277 C144 336 163 360 205 360 C254 360 287 324 287 271 L287 122 C287 71 260 41 215 41 C162 41 136 82 136 168 C136 185 137 227 137 269 C137 272 137 274 137 277 L137 277 Z M69 -28 C63 -45 61 -50 61 -56 C61 -75 81 -91 106 -91 C125 -91 143 -81 154 -66 C163 -54 167 -37 173 -22 L212 76 C261 198 312 318 353 428 C359 445 361 450 361 456 C361 476 341 491 316 491 C297 491 279 481 268 466 C259 454 255 437 249 422 L210 325 C161 203 110 82 69 -28 L69 -28 Z M161 521 C161 501 180 485 206 485 C215 485 227 487 232 490 C244 497 322 572 331 586 C334 590 336 598 336 604 C336 625 317 641 292 641 C284 641 272 639 265 635 C253 628 175 553 166 539 C163 535 161 527 161 521 L161 521 Z " />
<glyph glyph-name="uni0218" unicode="&#x218;" horiz-adv-x="550" d="M63 100 C94 8 168 -41 270 -41 C376 -41 455 12 487 107 C496 133 500 159 500 184 C500 295 416 383 301 390 C252 393 209 381 185 436 C178 452 175 467 175 480 C175 494 179 509 185 523 C197 550 213 560 243 560 C322 560 359 542 371 498 C375 483 374 473 377 463 C382 447 399 436 419 436 C450 436 475 459 475 487 C475 504 466 529 455 550 C423 611 363 641 273 641 C179 641 120 610 91 543 C81 519 75 494 75 471 C75 444 84 413 99 387 C129 335 179 310 254 310 C319 310 354 294 377 253 C391 227 400 194 400 165 C400 92 350 41 276 41 C214 41 171 76 157 135 C149 168 155 196 132 209 C125 213 115 216 106 216 C75 216 50 192 50 162 C50 148 55 124 63 100 L63 100 Z M298 -207 C308 -179 350 0 350 14 C350 28 328 41 305 41 L255 41 C227 41 200 19 200 -4 C200 -23 218 -39 240 -40 C232 -70 200 -183 200 -207 C200 -225 221 -241 245 -241 C269 -241 294 -225 298 -207 L298 -207 Z " />
<glyph glyph-name="uni0219" unicode="&#x219;" horiz-adv-x="426" d="M208 -41 C303 -41 376 27 376 116 C376 190 325 254 257 263 C233 266 198 263 184 270 C172 276 163 298 163 322 C163 347 174 360 194 360 C288 360 234 273 302 273 C338 273 363 296 363 329 C363 375 321 420 271 435 C258 439 240 441 222 441 C128 441 63 388 63 312 C63 250 104 199 160 189 C192 183 225 191 247 173 C263 160 276 130 276 104 C276 67 251 41 215 41 C183 41 160 61 153 93 C150 107 152 116 149 126 C144 142 126 154 106 154 C73 154 50 127 50 90 C50 19 122 -41 208 -41 L208 -41 Z M248 -207 C258 -179 300 0 300 14 C300 28 278 41 255 41 L205 41 C177 41 150 19 150 -4 C150 -23 168 -39 190 -40 C182 -70 150 -183 150 -207 C150 -225 171 -241 195 -241 C219 -241 244 -225 248 -207 L248 -207 Z " />
<glyph glyph-name="uni021A" unicode="&#x21a;" horiz-adv-x="500" d="M200 560 L200 -4 C200 -25 220 -41 245 -41 C274 -41 300 -19 300 4 L300 560 L420 560 C449 560 475 581 475 604 C475 625 456 641 430 641 L80 641 C52 641 25 619 25 596 C25 576 45 560 70 560 L200 560 Z M273 -207 C283 -179 325 0 325 14 C325 28 303 41 280 41 L230 41 C202 41 175 19 175 -4 C175 -23 193 -39 215 -40 C207 -70 175 -183 175 -207 C175 -225 196 -241 220 -241 C244 -241 269 -225 273 -207 L273 -207 Z " />
<glyph glyph-name="uni021B" unicode="&#x21b;" horiz-adv-x="400" d="M125 360 L125 121 C125 106 128 88 135 68 C159 0 214 -41 278 -41 C320 -41 350 -22 350 4 C350 21 336 36 316 40 C305 42 294 40 279 44 C240 54 225 87 225 167 C225 231 225 296 225 360 L295 360 C324 360 350 381 350 404 C350 425 331 441 305 441 L225 441 C225 450 225 459 225 459 C225 504 229 541 186 541 C153 541 125 521 125 496 L125 441 L105 441 C77 441 50 419 50 396 C50 376 69 360 95 360 L125 360 Z M339 -207 C349 -179 391 0 391 14 C391 28 369 41 346 41 L296 41 C268 41 241 19 241 -4 C241 -23 259 -39 281 -40 C273 -70 241 -183 241 -207 C241 -225 262 -241 286 -241 C310 -241 335 -225 339 -207 L339 -207 Z " />
<glyph glyph-name="uni0237" unicode="&#x237;" horiz-adv-x="325" d="M50 -205 C50 -228 72 -241 110 -241 C180 -241 241 -197 265 -124 C272 -104 275 -86 275 -71 L275 404 C275 426 255 441 224 441 C183 441 174 419 174 325 C174 219 176 78 176 4 C176 -88 173 -112 158 -135 C138 -165 123 -154 97 -160 C69 -166 50 -184 50 -205 L50 -205 Z " />
<glyph glyph-name="circumflex" unicode="&#x2c6;" horiz-adv-x="250" d="M122 536 C143 515 163 485 195 485 C224 485 250 506 250 529 C250 534 250 539 247 543 C238 556 162 630 152 636 C148 639 138 641 130 641 C122 641 111 639 104 635 C92 628 14 553 5 539 C2 535 0 527 0 521 C0 500 20 485 46 485 C79 485 100 514 122 536 L122 536 Z " />
<glyph glyph-name="caron" unicode="&#x2c7;" horiz-adv-x="250" d="M3 583 C9 573 84 495 97 489 C102 487 111 485 119 485 C128 485 140 487 146 490 C158 496 236 572 245 586 C248 590 250 598 250 604 C250 625 231 641 205 641 C171 641 150 611 128 589 C107 610 87 641 55 641 C27 641 0 620 0 597 C0 589 2 584 3 583 L3 583 Z " />
<glyph glyph-name="uni02C9" unicode="&#x2c9;" horiz-adv-x="225" d="M0 546 C0 526 20 510 45 510 L170 510 C199 510 225 531 225 554 C225 575 206 591 180 591 L55 591 C27 591 0 569 0 546 L0 546 Z " />
<glyph glyph-name="breve" unicode="&#x2d8;" horiz-adv-x="250" d="M0 581 C0 527 51 485 116 485 C189 485 250 534 250 592 C250 622 233 641 205 641 C193 641 181 637 172 631 C136 607 163 566 130 566 C85 566 123 641 61 641 C25 641 0 617 0 581 L0 581 Z " />
<glyph glyph-name="dotaccent" unicode="&#x2d9;" horiz-adv-x="100" d="M0 521 C0 501 19 485 45 485 C74 485 100 506 100 529 L100 604 C100 625 81 641 56 641 C27 641 0 620 0 596 L0 521 Z " />
<glyph glyph-name="ring" unicode="&#x2da;" horiz-adv-x="253" d="M0 518 C0 455 53 406 122 407 C195 408 253 462 253 528 C253 591 199 641 132 641 C60 641 0 585 0 518 L0 518 Z M124 489 C110 494 100 509 100 526 C100 545 110 559 123 559 C139 559 153 539 153 518 C153 501 144 489 130 487 C128 487 127 488 124 489 L124 489 Z " />
<glyph glyph-name="ogonek" unicode="&#x2db;" horiz-adv-x="200" d="M101 -101 C100 -100 100 -98 100 -95 L100 -48 C100 -46 101 -42 101 -40 C106 -38 112 -39 119 -37 C136 -32 150 -12 150 5 C150 26 129 41 99 41 C45 41 0 -2 0 -54 L0 -104 C0 -154 40 -191 95 -191 C151 -191 200 -151 200 -105 C200 -78 183 -60 155 -60 C127 -60 103 -78 101 -101 L101 -101 Z " />
<glyph glyph-name="tilde" unicode="&#x2dc;" horiz-adv-x="300" d="M100 532 C108 526 114 519 120 513 C139 494 166 485 194 485 C251 485 300 524 300 570 C300 599 282 616 251 616 C223 616 206 600 200 568 C192 574 186 582 178 589 C159 605 133 616 105 616 C49 616 0 576 0 530 C0 502 19 485 49 485 C77 485 94 500 100 532 L100 532 Z " />
<glyph glyph-name="hungarumlaut" unicode="&#x2dd;" horiz-adv-x="175" d="M0 521 C0 501 19 485 45 485 C54 485 66 487 71 490 C83 497 161 572 170 586 C173 590 175 598 175 604 C175 625 156 641 131 641 C123 641 111 639 104 635 C92 628 14 553 5 539 C2 535 0 527 0 521 L0 521 Z M175 521 C175 501 194 485 220 485 C229 485 241 487 246 490 C258 497 336 572 345 586 C348 590 350 598 350 604 C350 625 331 641 306 641 C298 641 286 639 279 635 C267 628 189 553 180 539 C177 535 175 527 175 521 L175 521 Z " />
<glyph glyph-name="gravecomb" unicode="&#x300;" horiz-adv-x="275" d="M54 583 C62 575 135 499 147 490 C151 487 160 485 169 485 C198 485 225 505 225 528 C225 533 222 539 221 542 C217 553 140 628 127 636 C123 639 113 641 105 641 C77 641 50 620 50 597 C50 592 52 585 54 583 L54 583 Z " />
<glyph glyph-name="acutecomb" unicode="&#x301;" horiz-adv-x="275" d="M50 521 C50 501 69 485 95 485 C104 485 116 487 121 490 C133 497 211 572 220 586 C223 590 225 598 225 604 C225 625 206 641 181 641 C173 641 161 639 154 635 C142 628 64 553 55 539 C52 535 50 527 50 521 L50 521 Z " />
<glyph glyph-name="uni0302" unicode="&#x302;" horiz-adv-x="350" d="M172 536 C193 515 213 485 245 485 C274 485 300 506 300 529 C300 534 300 539 297 543 C288 556 212 630 202 636 C198 639 188 641 180 641 C172 641 161 639 154 635 C142 628 64 553 55 539 C52 535 50 527 50 521 C50 500 70 485 96 485 C129 485 150 514 172 536 L172 536 Z " />
<glyph glyph-name="tildecomb" unicode="&#x303;" horiz-adv-x="400" d="M150 532 C158 526 164 519 170 513 C189 494 216 485 244 485 C301 485 350 524 350 570 C350 599 332 616 301 616 C273 616 256 600 250 568 C242 574 236 582 228 589 C209 605 183 616 155 616 C99 616 50 576 50 530 C50 502 69 485 99 485 C127 485 144 500 150 532 L150 532 Z " />
<glyph glyph-name="uni0304" unicode="&#x304;" horiz-adv-x="350" d="M50 546 C50 526 70 510 95 510 L245 510 C274 510 300 531 300 554 C300 575 281 591 255 591 L105 591 C77 591 50 569 50 546 L50 546 Z " />
<glyph glyph-name="uni0306" unicode="&#x306;" horiz-adv-x="350" d="M50 581 C50 527 101 485 166 485 C239 485 300 534 300 592 C300 622 283 641 255 641 C243 641 231 637 222 631 C186 607 213 566 180 566 C135 566 173 641 111 641 C75 641 50 617 50 581 L50 581 Z " />
<glyph glyph-name="uni0307" unicode="&#x307;" horiz-adv-x="200" d="M50 521 C50 501 69 485 95 485 C124 485 150 506 150 529 L150 604 C150 625 131 641 106 641 C77 641 50 620 50 596 L50 521 Z " />
<glyph glyph-name="uni0308" unicode="&#x308;" horiz-adv-x="325" d="M10 521 C10 501 29 485 55 485 C84 485 110 506 110 529 L110 604 C110 625 91 641 66 641 C37 641 10 620 10 596 L10 521 Z M175 521 C175 501 195 485 220 485 C249 485 275 506 275 529 L275 604 C275 625 256 641 231 641 C202 641 175 620 175 596 L175 521 Z " />
<glyph glyph-name="uni030A" unicode="&#x30a;" horiz-adv-x="353" d="M50 518 C50 455 103 406 172 407 C245 408 303 462 303 528 C303 591 249 641 182 641 C110 641 50 585 50 518 L50 518 Z M174 489 C160 494 150 509 150 526 C150 545 160 559 173 559 C189 559 203 539 203 518 C203 501 194 489 180 487 C178 487 177 488 174 489 L174 489 Z " />
<glyph glyph-name="uni030B" unicode="&#x30b;" horiz-adv-x="275" d="M50 521 C50 501 69 485 95 485 C104 485 116 487 121 490 C133 497 211 572 220 586 C223 590 225 598 225 604 C225 625 206 641 181 641 C173 641 161 639 154 635 C142 628 64 553 55 539 C52 535 50 527 50 521 L50 521 Z M225 521 C225 501 244 485 270 485 C279 485 291 487 296 490 C308 497 386 572 395 586 C398 590 400 598 400 604 C400 625 381 641 356 641 C348 641 336 639 329 635 C317 628 239 553 230 539 C227 535 225 527 225 521 L225 521 Z " />
<glyph glyph-name="uni030C" unicode="&#x30c;" horiz-adv-x="350" d="M53 583 C59 573 134 495 147 489 C152 487 161 485 169 485 C178 485 190 487 196 490 C208 496 286 572 295 586 C298 590 300 598 300 604 C300 625 281 641 255 641 C221 641 200 611 178 589 C157 610 137 641 105 641 C77 641 50 620 50 597 C50 589 52 584 53 583 L53 583 Z " />
<glyph glyph-name="uni0312" unicode="&#x312;" horiz-adv-x="272" d="M184 393 C194 421 236 600 236 614 C236 628 214 641 191 641 L141 641 C113 641 86 619 86 596 C86 577 104 561 126 560 C118 530 86 417 86 393 C86 375 107 359 131 359 C155 359 180 375 184 393 L184 393 Z " />
<glyph glyph-name="uni0315" unicode="&#x315;" horiz-adv-x="455" d="M313 393 C323 421 365 600 365 614 C365 628 343 641 320 641 L270 641 C242 641 215 619 215 596 C215 577 233 561 255 560 C247 530 215 417 215 393 C215 375 236 359 260 359 C284 359 309 375 313 393 L313 393 Z " />
<glyph glyph-name="uni0326" unicode="&#x326;" horiz-adv-x="250" d="M148 -207 C158 -179 200 0 200 14 C200 28 178 41 155 41 L105 41 C77 41 50 19 50 -4 C50 -23 68 -39 90 -40 C82 -70 50 -183 50 -207 C50 -225 71 -241 95 -241 C119 -241 144 -225 148 -207 L148 -207 Z " />
<glyph glyph-name="uni0327" unicode="&#x327;" horiz-adv-x="300" d="M150 -100 C149 -95 150 -91 148 -85 C143 -70 126 -60 106 -60 C74 -60 50 -83 50 -114 C50 -157 92 -191 145 -191 C204 -191 250 -149 250 -96 L250 -46 C250 3 212 41 163 41 C128 41 100 21 100 -4 C100 -20 113 -33 132 -38 C139 -40 143 -39 145 -41 C147 -43 150 -49 150 -55 L150 -100 Z " />
<glyph glyph-name="uni0328" unicode="&#x328;" horiz-adv-x="300" d="M151 -101 C150 -100 150 -98 150 -95 L150 -48 C150 -46 151 -42 151 -40 C156 -38 162 -39 169 -37 C186 -32 200 -12 200 5 C200 26 179 41 149 41 C95 41 50 -2 50 -54 L50 -104 C50 -154 90 -191 145 -191 C201 -191 250 -151 250 -105 C250 -78 233 -60 205 -60 C177 -60 153 -78 151 -101 L151 -101 Z " />
</font>
</svg>
