<?xml version="1.0" encoding="UTF-8"?>
<svg xmlns="http://www.w3.org/2000/svg" xmlns:xlink="http://www.w3.org/1999/xlink" version="1.2" >
<font id="GAP Slab Serif Bold Italic">
<font-face  font-family="GAP Slab Serif" units-per-em="1000" ascent="750" descent="-250" font-style="italic" font-weight="700" font-stretch="normal" cap-height="625" x-height="425" underline-position="-100" underline-thickness="50" />
<missing-glyph  horiz-adv-x="452" d="M-21 -38 C-20 -38 -19 -39 -17 -39 L-15 -40 C-15 -40 -15 -40 -15 -40 L-10 -40 C-9 -40 -9 -40 -9 -40 L-7 -41 C-6 -41 -6 -41 -6 -41 L294 -41 C323 -41 354 -19 359 4 L486 604 C487 605 487 605 487 606 C489 621 481 632 465 638 C464 638 463 639 460 639 L459 640 C459 640 458 640 458 640 L453 640 C453 640 453 640 452 640 L450 641 C450 641 450 641 449 641 L149 641 C121 641 90 619 85 596 L-43 -4 C-43 -5 -43 -5 -43 -6 C-46 -21 -38 -32 -21 -38 L-21 -38 Z M203 560 L355 560 L247 407 L215 516 L203 560 Z M303 210 L276 303 C282 311 288 319 293 326 L326 373 C331 381 337 388 342 396 L303 210 Z M167 297 C145 266 124 235 101 204 L141 390 L167 297 Z M89 41 L197 193 L241 41 L89 41 Z " />
<glyph glyph-name="NULL" d="" />
<glyph glyph-name="CR" unicode="&#xd;" horiz-adv-x="250" d="" />
<glyph glyph-name="space" unicode="&#x20;" horiz-adv-x="214" d="" />
<glyph glyph-name="uni0000" d="" />
<glyph glyph-name="uni000D" horiz-adv-x="250" d="" />
<glyph glyph-name="exclam" unicode="&#x21;" horiz-adv-x="200" d="M24 196 C19 176 35 160 61 160 C90 160 121 181 125 204 L210 604 C215 625 199 641 174 641 C145 641 114 620 109 596 L24 196 Z M37 -4 C33 -25 49 -41 74 -41 C103 -41 134 -19 139 4 L155 79 C159 100 144 116 119 116 C90 116 58 95 53 71 L37 -4 Z " />
<glyph glyph-name="quotedbl" unicode="&#x22;" horiz-adv-x="275" d="M52 446 C47 425 63 410 88 410 C118 410 149 431 154 454 L185 604 C190 625 174 641 149 641 C120 641 89 620 84 596 L52 446 Z M177 446 C173 426 189 410 214 410 C243 410 274 431 279 454 L310 604 C315 625 299 641 274 641 C245 641 214 620 209 596 L177 446 Z " />
<glyph glyph-name="numbersign" unicode="&#x23;" horiz-adv-x="500" d="M76 160 C28 56 3 0 0 -12 C-3 -27 17 -41 41 -41 C60 -41 77 -32 95 -14 C96 -13 132 62 177 159 L226 160 C178 56 153 0 150 -12 C147 -27 167 -41 191 -41 C210 -41 227 -32 245 -14 C246 -13 282 62 327 159 L372 160 C401 160 432 181 436 204 C441 225 425 241 399 241 L365 241 L386 285 L424 285 C453 285 483 306 488 329 C492 350 477 366 451 366 L423 366 C465 457 485 501 487 512 C490 527 470 541 446 541 C427 541 410 532 392 514 C392 513 362 450 323 367 L273 366 C315 457 335 501 337 512 C340 527 320 541 296 541 C277 541 260 532 242 514 C242 513 212 450 173 367 L126 366 C98 366 66 344 61 321 C57 301 73 285 99 285 L135 285 C128 271 121 255 114 240 L74 241 C46 241 15 219 10 196 C5 176 21 160 47 160 L76 160 Z M215 241 L236 285 L285 285 C278 271 271 255 264 240 L215 241 Z " />
<glyph glyph-name="dollar" unicode="&#x24;" horiz-adv-x="450" d="M199 -34 C275 -15 343 54 359 130 C377 214 327 281 243 290 C207 294 174 286 163 335 C159 351 159 366 163 381 C173 429 207 460 251 460 C289 460 312 437 312 397 C312 384 310 374 310 366 C311 347 326 335 348 335 C380 335 408 361 416 396 C429 457 385 521 321 536 L335 604 C339 625 324 641 299 641 C270 641 238 620 233 596 L220 534 C144 515 76 446 60 370 C43 287 92 219 176 210 C212 206 245 214 256 167 C260 151 260 135 257 119 C247 72 212 41 169 41 C130 41 110 66 109 108 C108 121 111 132 110 140 C109 159 95 172 74 172 C41 172 13 146 5 109 C-9 46 35 -21 99 -36 L85 -104 C80 -125 97 -141 122 -141 C151 -141 181 -119 186 -96 L199 -34 Z " />
<glyph glyph-name="percent" unicode="&#x25;" horiz-adv-x="750" d="M141 -11 C137 -27 156 -41 182 -41 C227 -41 246 2 271 37 L514 378 C530 400 596 486 602 511 C605 527 586 541 560 541 C515 541 496 498 471 463 L228 122 C212 100 146 14 141 -11 L141 -11 Z M67 346 C50 267 98 210 183 210 C271 210 351 272 368 354 L379 404 C396 484 347 541 263 541 C175 541 95 478 77 396 L67 346 Z M268 347 C255 320 250 291 212 291 C178 291 160 317 168 354 L179 403 C186 438 210 460 240 460 C293 460 279 402 270 361 C269 356 268 351 268 347 L268 347 Z M363 96 C346 16 395 -41 479 -41 C567 -41 648 22 665 104 L676 154 C693 234 644 291 560 291 C472 291 392 228 374 146 L363 96 Z M565 97 C552 70 547 41 509 41 C475 41 457 67 465 104 L476 153 C483 188 507 210 537 210 C590 210 575 152 567 111 C566 106 565 101 565 97 L565 97 Z " />
<glyph glyph-name="ampersand" unicode="&#x26;" horiz-adv-x="550" d="M310 110 C288 64 254 41 208 41 C145 41 111 86 125 150 C129 170 137 189 150 208 C205 287 250 236 292 278 C301 287 306 296 308 304 C312 322 300 338 278 340 C270 341 261 340 253 343 C233 350 223 377 230 407 C237 440 261 460 293 460 C367 460 288 360 360 360 C396 360 425 385 433 422 C447 488 393 541 313 541 C226 541 145 479 128 401 C121 366 126 328 141 306 C82 270 37 209 25 150 C21 130 19 109 23 87 C35 3 88 -41 179 -41 C280 -41 370 17 410 110 L436 110 C465 110 496 131 501 154 C505 175 490 191 464 191 L314 191 C286 191 254 169 249 146 C245 126 261 110 286 110 L310 110 Z " />
<glyph glyph-name="quotesingle" unicode="&#x27;" horiz-adv-x="150" d="M52 446 C47 425 63 410 88 410 C118 410 149 431 154 454 L185 604 C190 625 174 641 149 641 C120 641 89 620 84 596 L52 446 Z " />
<glyph glyph-name="parenleft" unicode="&#x28;" horiz-adv-x="375" d="M-26 48 C-12 -70 69 -141 180 -141 C234 -141 270 -123 276 -93 C285 -54 229 -60 194 -56 C105 -46 56 46 79 154 L142 453 C165 559 248 646 341 657 C376 661 404 654 430 678 C440 687 444 696 446 705 C451 729 429 741 381 741 C264 741 148 669 82 548 C62 512 47 476 41 446 L-23 146 C-29 117 -30 83 -26 48 L-26 48 Z " />
<glyph glyph-name="parenright" unicode="&#x29;" horiz-adv-x="375" d="M-101 -105 C-106 -129 -84 -141 -36 -141 C128 -141 268 0 304 154 L368 454 C374 484 374 519 370 554 C354 670 277 741 165 741 C111 741 75 723 68 693 C60 654 115 660 151 656 C239 646 289 554 266 446 L202 147 C180 41 96 -46 4 -57 C-31 -61 -60 -54 -86 -78 C-96 -87 -99 -96 -101 -105 L-101 -105 Z " />
<glyph glyph-name="asterisk" unicode="&#x2a;" horiz-adv-x="350" d="M179 575 C163 583 149 591 135 591 C109 591 78 569 73 547 C72 540 73 532 76 528 C82 521 112 501 148 481 L128 453 C118 439 94 411 91 393 C87 374 105 360 131 360 C153 360 173 372 189 393 C195 368 205 360 225 360 C255 360 287 378 292 398 C295 416 280 462 272 486 C313 503 350 521 360 529 C367 535 373 546 375 555 C379 575 364 591 341 591 C328 591 310 585 278 571 L285 604 C290 625 274 641 249 641 C220 641 189 620 184 596 L179 575 Z " />
<glyph glyph-name="plus" unicode="&#x2b;" horiz-adv-x="350" d="M128 210 L114 146 C110 126 126 110 151 110 C180 110 211 131 216 154 L228 210 L273 210 C302 210 332 231 337 254 C342 275 326 291 300 291 L245 291 L258 354 C263 375 247 391 222 391 C193 391 162 370 157 346 L145 291 L100 291 C72 291 40 269 35 246 C31 226 47 210 73 210 L128 210 Z " />
<glyph glyph-name="comma" unicode="&#x2c;" horiz-adv-x="200" d="M75 -207 C91 -179 171 0 174 14 C177 28 158 41 135 41 L85 41 C57 41 25 19 20 -4 C16 -23 31 -39 53 -40 C38 -70 -18 -183 -23 -207 C-27 -225 -9 -241 15 -241 C39 -241 67 -225 75 -207 L75 -207 Z " />
<glyph glyph-name="hyphen" unicode="&#x2d;" horiz-adv-x="350" d="M46 246 C42 226 58 210 84 210 L284 210 C313 210 343 231 348 254 C353 275 337 291 311 291 L111 291 C83 291 51 269 46 246 L46 246 Z " />
<glyph glyph-name="period" unicode="&#x2e;" horiz-adv-x="150" d="M12 -4 C8 -25 24 -41 49 -41 C78 -41 109 -19 114 4 L130 79 C134 100 119 116 94 116 C65 116 33 95 28 71 L12 -4 Z " />
<glyph glyph-name="slash" unicode="&#x2f;" horiz-adv-x="375" d="M-78 -113 C-81 -128 -61 -141 -36 -141 C-9 -141 11 -126 28 -94 L327 477 C344 509 442 688 448 713 C451 728 431 741 406 741 C379 741 358 726 342 694 L42 123 C25 91 -73 -88 -78 -113 L-78 -113 Z " />
<glyph glyph-name="zero" unicode="0" horiz-adv-x="500" d="M188 -41 C277 -41 355 7 402 93 C413 115 422 135 426 154 L468 354 C491 463 426 541 310 541 C218 541 140 493 92 408 C79 386 70 364 67 346 L29 171 C3 47 69 -41 188 -41 L188 -41 Z M366 344 C365 340 365 337 365 337 C352 277 341 220 336 198 C313 88 276 41 212 41 C147 41 114 97 131 179 L168 353 C182 417 230 460 289 460 C339 460 371 430 370 380 C369 364 366 354 366 344 L366 344 Z " />
<glyph glyph-name="one" unicode="1" horiz-adv-x="350" d="M202 41 L300 504 C305 525 289 541 263 541 L138 541 C109 541 78 518 73 493 C65 457 112 460 140 460 L191 460 C162 322 131 183 102 45 C101 43 101 43 101 41 L82 41 C54 41 22 19 17 -4 C13 -25 29 -41 54 -41 L204 -41 C233 -41 264 -19 269 4 C273 25 258 41 232 41 L202 41 Z " />
<glyph glyph-name="two" unicode="2" horiz-adv-x="450" d="M149 41 C308 185 409 308 423 378 C427 393 427 410 425 428 C417 501 367 541 288 541 C205 541 136 497 93 423 C83 406 76 388 73 377 C68 352 82 335 109 335 C134 335 161 350 171 371 C175 380 177 390 183 403 C200 441 224 460 259 460 C306 460 333 425 324 379 C312 325 207 199 94 97 C52 59 23 40 4 18 C-4 9 -6 3 -8 -4 C-12 -25 4 -41 29 -41 L279 -41 C308 -41 339 -19 344 6 C354 52 275 41 245 41 L149 41 Z " />
<glyph glyph-name="three" unicode="3" horiz-adv-x="500" d="M306 338 L413 437 C429 452 450 468 466 488 C470 493 473 499 474 505 C479 525 462 541 437 541 L187 541 C158 541 127 518 122 493 C115 459 157 460 184 460 L322 460 L216 362 C200 347 180 333 166 316 C160 308 157 301 156 294 C146 251 210 260 240 260 C305 260 339 215 325 148 C311 83 263 41 203 41 C152 41 121 71 123 121 C123 138 127 150 126 160 C125 178 111 191 90 191 C57 191 28 163 19 121 C0 31 72 -41 182 -41 C273 -41 353 7 401 92 C413 114 422 136 426 155 C430 173 431 193 428 216 C419 286 380 324 307 338 L306 338 Z " />
<glyph glyph-name="four" unicode="4" horiz-adv-x="475" d="M120 141 L287 374 C302 397 371 485 377 511 C380 527 361 541 335 541 C291 541 271 499 247 464 L49 186 C36 168 -8 112 -13 90 C-16 74 1 60 26 60 L281 60 L267 -4 C263 -25 279 -41 304 -41 C333 -41 364 -19 369 4 L411 204 C416 225 400 241 375 241 C346 241 315 220 310 196 L298 141 L120 141 Z " />
<glyph glyph-name="five" unicode="5" horiz-adv-x="500" d="M245 460 L399 460 C439 460 469 477 475 503 C480 525 464 541 438 541 L225 541 C202 541 178 527 166 508 C158 496 154 480 148 466 L122 399 C111 370 87 324 82 300 C76 272 93 259 138 259 C161 259 187 261 223 261 C287 261 312 245 323 202 C327 184 328 164 324 144 C311 83 262 41 204 41 C153 41 121 71 123 121 C123 138 127 150 126 161 C125 179 110 191 90 191 C59 191 29 168 23 139 C20 127 20 108 23 87 C33 3 87 -41 178 -41 C298 -41 401 43 427 159 C445 246 399 321 316 337 C280 344 238 341 198 341 L245 460 Z " />
<glyph glyph-name="six" unicode="6" horiz-adv-x="475" d="M23 87 C33 3 88 -41 179 -41 C273 -41 353 7 401 92 C413 114 422 136 426 155 C431 179 430 206 424 233 C407 304 356 341 276 341 C222 341 187 325 181 297 C179 287 182 281 183 278 C206 237 289 292 318 216 C326 194 328 166 323 141 C311 83 262 41 205 41 C144 41 112 87 126 154 L163 328 C168 351 178 376 192 399 C218 443 246 460 292 460 C303 460 314 459 323 459 C363 459 393 477 399 503 C404 525 388 541 362 541 L313 541 C183 541 90 441 61 321 L24 146 C20 129 20 108 23 87 L23 87 Z " />
<glyph glyph-name="seven" unicode="7" horiz-adv-x="475" d="M370 460 L159 159 C140 133 52 15 46 -12 C43 -27 63 -41 88 -41 C132 -41 150 0 174 34 L415 377 C431 399 497 487 502 511 C505 527 487 541 463 541 L163 541 C135 541 103 519 98 496 C96 483 101 470 111 466 C135 456 332 460 370 460 L370 460 Z " />
<glyph glyph-name="eight" unicode="8" horiz-adv-x="500" d="M145 304 C82 266 37 208 24 145 C2 42 71 -41 178 -41 C290 -41 403 48 426 154 C439 217 419 274 371 309 C401 336 421 369 429 404 C445 480 393 541 313 541 C228 541 144 475 127 395 C120 361 126 329 145 304 L145 304 Z M327 395 C323 369 296 341 269 341 C241 341 222 371 229 404 C236 435 262 459 289 459 C317 459 331 436 327 395 L327 395 Z M324 145 C321 138 320 130 316 121 C296 77 250 41 205 41 C150 41 113 93 126 153 C138 211 191 259 242 259 C287 259 322 224 326 182 C327 169 324 157 324 145 L324 145 Z " />
<glyph glyph-name="nine" unicode="9" horiz-adv-x="500" d="M92 -2 C87 -25 102 -42 128 -42 L185 -42 C305 -42 403 46 431 178 L468 354 C491 462 425 540 309 540 C218 540 140 492 92 408 C79 386 70 364 66 345 C61 321 63 294 69 267 C85 197 136 160 217 160 C272 160 305 175 311 203 C313 213 311 219 309 222 C286 263 198 207 173 285 C165 307 164 334 169 358 C182 417 231 459 287 459 C347 459 380 411 367 346 L329 170 C322 138 310 110 295 87 C269 50 246 39 195 39 L176 40 C129 40 97 24 92 -2 L92 -2 Z " />
<glyph glyph-name="colon" unicode="&#x3a;" horiz-adv-x="150" d="M86 346 C82 325 98 309 123 309 C152 309 183 331 188 354 L204 429 C208 450 193 466 168 466 C139 466 107 445 102 421 L86 346 Z M12 -4 C8 -25 24 -41 49 -41 C78 -41 109 -19 114 4 L130 79 C134 100 119 116 94 116 C65 116 33 95 28 71 L12 -4 Z " />
<glyph glyph-name="semicolon" unicode="&#x3b;" horiz-adv-x="200" d="M110 346 C106 325 122 309 147 309 C176 309 207 331 212 354 L228 429 C232 450 217 466 192 466 C163 466 131 445 126 421 L110 346 Z M75 -207 C91 -179 171 0 174 14 C177 28 158 41 135 41 L85 41 C57 41 25 19 20 -4 C16 -23 31 -39 53 -40 C38 -70 -18 -183 -23 -207 C-27 -225 -9 -241 15 -241 C39 -241 67 -225 75 -207 L75 -207 Z " />
<glyph glyph-name="less" unicode="&#x3c;" horiz-adv-x="250" d="M151 253 C171 270 236 319 251 339 C253 341 257 347 259 355 C263 375 246 391 221 391 C213 391 200 389 193 385 C177 376 56 273 44 263 C40 260 37 253 36 247 C34 242 36 236 37 233 C38 222 118 123 130 114 C133 112 142 110 150 110 C179 110 211 130 216 153 C217 158 215 165 215 167 C208 189 164 236 151 253 L151 253 Z " />
<glyph glyph-name="equal" unicode="&#x3d;" horiz-adv-x="400" d="M79 321 C75 301 91 285 117 285 L317 285 C346 285 376 306 381 329 C385 350 370 366 344 366 L144 366 C116 366 84 344 79 321 L79 321 Z M53 196 C48 176 64 160 90 160 L290 160 C319 160 350 181 354 204 C359 225 343 241 317 241 L117 241 C89 241 58 219 53 196 L53 196 Z " />
<glyph glyph-name="greater" unicode="&#x3e;" horiz-adv-x="250" d="M122 247 C101 230 37 182 23 163 C20 159 15 151 14 145 C10 125 26 110 52 110 C62 110 75 114 80 116 C93 122 217 223 228 236 C232 240 236 248 237 254 C238 259 236 264 236 267 C234 278 154 377 142 386 C139 389 129 391 121 391 C93 391 62 370 57 347 C56 342 57 335 58 333 C64 311 108 264 122 247 L122 247 Z " />
<glyph glyph-name="question" unicode="&#x3f;" horiz-adv-x="450" d="M149 196 C144 175 161 160 190 160 C225 160 246 181 255 226 C260 248 264 288 284 313 C296 329 314 338 333 350 C392 386 422 424 434 478 C438 498 438 517 436 534 C426 603 377 641 299 641 C216 641 146 599 103 523 C94 506 86 488 83 477 C78 452 93 435 120 435 C145 435 172 450 181 471 C185 480 187 490 193 503 C210 541 235 560 271 560 C320 560 344 526 332 472 C329 456 323 441 315 432 C302 417 279 406 258 393 C199 358 174 316 157 234 L149 196 Z M162 -4 C158 -25 174 -41 199 -41 C228 -41 259 -19 264 4 L280 79 C284 100 269 116 244 116 C215 116 183 95 178 71 L162 -4 Z " />
<glyph glyph-name="at" unicode="&#x40;" horiz-adv-x="550" d="M409 359 C396 295 381 231 375 203 C359 129 363 110 395 110 C428 110 460 130 465 154 L523 429 C528 450 529 474 525 500 C513 591 451 641 352 641 C217 641 99 548 72 421 L18 171 C14 150 13 126 16 100 C29 8 91 -41 193 -41 L318 -41 C347 -41 378 -19 383 6 C388 30 369 41 319 41 C296 41 268 40 246 40 C171 40 142 56 126 99 C117 123 115 154 120 179 L173 428 C190 506 252 560 327 560 C394 560 429 517 424 441 L381 441 C298 441 227 400 186 324 C175 304 168 286 165 271 C161 256 162 238 164 221 C173 152 218 110 283 110 C326 110 359 128 365 154 C369 172 357 187 335 190 C328 191 320 190 312 191 C277 195 257 234 266 278 C269 293 276 308 286 322 C307 352 324 360 369 360 L409 359 Z " />
<glyph glyph-name="A" unicode="A" horiz-adv-x="650" d="M153 41 C159 54 166 68 175 84 L372 85 C375 61 376 50 377 40 L371 41 C343 41 311 19 306 -4 C302 -25 318 -41 343 -41 L493 -41 C522 -41 553 -19 558 4 C562 25 547 41 521 41 L482 41 C476 158 442 522 440 556 C438 576 440 606 434 621 C429 634 416 641 398 641 C377 641 355 630 343 614 C332 600 324 578 315 562 L257 445 C189 310 118 176 52 41 L21 41 C-8 41 -39 19 -44 -4 C-48 -25 -33 -41 -7 -41 L143 -41 C172 -41 203 -19 208 4 C212 25 197 41 171 41 L153 41 Z M216 166 C251 234 311 355 346 425 C349 398 357 275 366 165 L216 166 Z " />
<glyph glyph-name="B" unicode="B" horiz-adv-x="600" d="M198 309 C198 309 199 309 199 309 L202 310 C202 310 202 310 203 310 L325 310 C412 310 439 266 416 160 C398 76 359 40 283 40 C270 40 254 41 242 41 C195 41 162 25 157 -2 C152 -24 168 -41 193 -41 L268 -41 C396 -41 491 44 521 185 C540 274 520 336 463 368 C498 398 526 443 534 478 C537 494 537 514 533 533 C519 603 463 641 373 641 L148 641 C119 641 89 619 84 596 C79 575 95 560 121 560 L151 560 L31 -4 C27 -25 43 -41 68 -41 C90 -41 115 -28 124 -13 C134 3 142 47 145 62 L198 309 Z M215 391 L251 560 L346 560 C407 560 443 523 432 471 C423 426 384 397 329 391 L215 391 Z " />
<glyph glyph-name="C" unicode="C" horiz-adv-x="550" d="M17 101 C29 9 91 -41 193 -41 C299 -41 390 12 442 107 C455 131 465 156 468 171 C474 198 460 216 433 216 C408 216 384 201 372 179 C366 167 363 152 355 131 C332 73 284 41 224 41 C145 41 103 97 120 179 L173 428 C190 506 252 560 326 560 C387 560 424 524 425 465 C425 433 414 405 434 392 C441 388 449 385 458 385 C490 385 519 408 525 438 C528 452 528 477 525 499 C512 591 450 641 348 641 C242 641 152 588 100 493 C87 468 76 442 72 421 L18 171 C14 150 14 125 17 101 L17 101 Z " />
<glyph glyph-name="D" unicode="D" horiz-adv-x="600" d="M151 560 L31 -4 C27 -25 43 -41 68 -41 C90 -41 115 -28 124 -13 C134 3 142 46 145 62 L251 560 L371 560 C448 560 489 503 472 421 L413 147 C410 131 400 112 387 94 C347 38 300 41 265 41 C196 41 163 28 157 -1 C152 -24 167 -41 193 -41 L242 -41 C339 -41 420 -2 473 68 C493 96 509 128 515 154 L573 429 C578 451 578 477 575 502 C562 592 500 641 398 641 L148 641 C119 641 89 619 84 596 C79 575 95 560 121 560 L151 560 Z " />
<glyph glyph-name="E" unicode="E" horiz-adv-x="550" d="M209 360 L329 360 C358 360 388 381 393 404 C397 425 382 441 356 441 L226 441 L251 560 C325 560 398 559 433 559 C521 559 553 570 560 602 C565 625 549 641 523 641 L148 641 C119 641 89 619 84 596 C79 575 95 560 121 560 L151 560 L47 71 C33 6 73 -41 143 -41 L368 -41 C397 -41 428 -19 433 6 C439 32 418 41 349 41 C312 41 248 40 224 40 C157 40 142 48 149 80 L209 360 Z " />
<glyph glyph-name="F" unicode="F" horiz-adv-x="525" d="M209 360 L304 360 C333 360 363 381 368 404 C372 425 357 441 331 441 L226 441 L251 560 C324 560 399 559 433 559 C521 559 553 570 560 602 C565 625 549 641 523 641 L148 641 C119 641 89 619 84 596 C79 575 95 560 121 560 L151 560 L31 -4 C27 -25 43 -41 68 -41 C91 -41 116 -28 126 -11 C135 5 142 45 145 62 L209 360 Z " />
<glyph glyph-name="G" unicode="G" horiz-adv-x="550" d="M409 360 L369 172 C352 92 294 40 221 40 C144 40 103 97 120 179 L173 428 C178 451 189 475 202 496 C235 546 268 560 355 560 C385 560 416 560 416 560 C470 560 505 577 511 606 C516 632 497 641 435 641 C326 641 202 654 114 519 C94 487 78 452 72 421 L18 171 C14 150 13 126 16 100 C29 8 90 -42 189 -42 C325 -42 443 51 470 179 L518 404 C522 425 507 441 481 441 L306 441 C277 441 246 418 241 393 C231 350 299 360 329 360 L409 360 Z " />
<glyph glyph-name="H" unicode="H" horiz-adv-x="650" d="M41 41 L21 41 C-8 41 -39 19 -44 -4 C-48 -25 -33 -41 -7 -41 L143 -41 C172 -41 203 -19 208 4 C212 25 197 41 171 41 L141 41 L209 360 L459 360 L391 41 L371 41 C343 41 311 19 306 -4 C302 -25 318 -41 343 -41 L493 -41 C522 -41 553 -19 558 4 C562 25 547 41 521 41 L491 41 L601 560 L621 560 C650 560 681 581 685 604 C690 625 674 641 648 641 L498 641 C470 641 439 619 434 596 C430 576 446 560 471 560 L501 560 L476 441 L226 441 L251 560 L271 560 C300 560 331 581 335 604 C340 625 324 641 298 641 L148 641 C119 641 89 619 84 596 C79 575 95 560 121 560 L151 560 L41 41 Z " />
<glyph glyph-name="I" unicode="I" horiz-adv-x="300" d="M41 41 L21 41 C-8 41 -39 19 -44 -4 C-48 -25 -33 -41 -7 -41 L143 -41 C172 -41 203 -19 208 4 C212 25 197 41 171 41 L141 41 L251 560 L271 560 C300 560 331 581 335 604 C340 625 324 641 298 641 L148 641 C119 641 89 619 84 596 C79 575 95 560 121 560 L151 560 L41 41 Z " />
<glyph glyph-name="J" unicode="J" horiz-adv-x="475" d="M326 560 C296 418 267 276 259 238 C226 85 201 41 145 41 C106 41 83 63 83 103 C83 116 85 127 85 135 C85 153 69 166 48 166 C17 166 -13 143 -19 115 C-21 104 -21 87 -18 71 C-6 -2 39 -41 118 -41 C201 -41 272 0 313 76 C324 96 331 114 334 129 L426 560 L446 560 C475 560 506 581 510 604 C515 625 499 641 473 641 L273 641 C245 641 214 619 209 596 C205 576 221 560 246 560 L326 560 Z " />
<glyph glyph-name="K" unicode="K" horiz-adv-x="600" d="M41 41 L21 41 C-8 41 -39 19 -44 -4 C-48 -25 -33 -41 -7 -41 L143 -41 C172 -41 203 -19 208 4 C212 25 197 41 171 41 L141 41 L213 380 C223 385 233 390 242 395 C249 375 256 354 267 324 C287 262 313 191 336 119 L369 21 C373 6 376 -12 383 -23 C391 -35 402 -41 417 -41 C446 -41 478 -20 483 3 C484 9 483 13 480 24 C473 54 460 88 444 135 C424 194 398 265 375 337 L343 435 C342 436 342 437 342 438 L340 443 C339 444 339 445 339 446 L537 547 C562 560 604 574 611 605 C615 625 599 641 576 641 C545 641 489 606 460 591 L233 476 L260 604 C265 625 249 641 223 641 L148 641 C119 641 89 619 84 596 C79 575 95 560 121 560 L151 560 L41 41 Z " />
<glyph glyph-name="L" unicode="L" horiz-adv-x="525" d="M141 41 C178 214 214 387 251 560 L271 560 C300 560 331 581 335 604 C340 625 324 641 298 641 L148 641 C119 641 89 619 84 596 C79 575 95 560 121 560 L151 560 L31 -4 C27 -25 43 -41 68 -41 L368 -41 C397 -41 428 -19 433 4 C436 18 429 31 416 36 C395 44 337 41 314 41 L141 41 Z " />
<glyph glyph-name="M" unicode="M" horiz-adv-x="825" d="M41 41 L21 41 C-8 41 -39 19 -44 -4 C-48 -25 -33 -41 -7 -41 L143 -41 C172 -41 203 -19 208 4 C212 25 197 41 171 41 L141 41 C142 45 142 49 143 52 L231 466 L315 329 C331 303 344 260 382 260 C423 260 467 310 498 338 L659 481 C628 334 597 188 566 41 L546 41 C518 41 486 19 481 -4 C477 -25 492 -41 518 -41 L668 -41 C697 -41 728 -19 733 4 C737 25 722 41 696 41 L666 41 L785 604 C790 625 773 641 747 641 C734 641 720 636 708 628 C682 612 644 572 618 549 L416 370 L303 550 C290 572 270 614 254 629 C245 637 235 641 223 641 C195 641 164 619 159 596 L41 41 Z " />
<glyph glyph-name="N" unicode="N" horiz-adv-x="650" d="M41 41 L21 41 C-8 41 -39 19 -44 -4 C-48 -25 -33 -41 -7 -41 L143 -41 C172 -41 203 -19 208 4 C212 25 197 41 171 41 L141 41 C142 47 143 53 144 57 L240 508 L445 335 C448 333 450 331 453 329 L391 41 L371 41 C343 41 311 19 306 -4 C302 -25 318 -41 343 -41 L493 -41 C522 -41 553 -19 558 4 C562 25 547 41 521 41 L491 41 C492 49 494 57 495 62 L601 560 L616 559 C649 559 680 579 685 604 C690 625 674 641 648 641 L573 641 C545 641 514 619 509 596 L476 442 L295 594 C279 607 264 623 248 633 C239 638 231 641 222 641 C194 641 164 619 159 596 L41 41 Z " />
<glyph glyph-name="O" unicode="O" horiz-adv-x="550" d="M16 100 C28 8 91 -41 193 -41 C299 -41 390 12 442 107 C455 132 466 158 470 179 L523 429 C528 450 529 474 525 500 C513 592 451 641 349 641 C242 641 152 588 100 493 C87 468 76 442 72 421 L18 171 C14 150 13 126 16 100 L16 100 Z M224 41 C145 41 103 97 120 179 L173 428 C190 506 252 560 327 560 C412 560 438 494 408 353 C403 331 387 260 373 191 C357 112 315 41 224 41 L224 41 Z " />
<glyph glyph-name="P" unicode="P" horiz-adv-x="550" d="M41 41 L21 41 C-8 41 -39 19 -44 -4 C-48 -25 -33 -41 -7 -41 L143 -41 C172 -41 203 -19 208 4 C212 25 197 41 171 41 L141 41 C143 50 144 57 145 62 L251 560 C295 560 338 560 338 560 C425 560 447 551 456 513 C459 499 460 483 457 470 C454 457 447 442 438 428 C419 399 402 391 360 391 L305 391 C267 391 236 373 231 348 C226 326 242 310 268 310 L343 310 C426 310 497 350 538 426 C549 446 556 464 559 480 C565 507 563 539 553 567 C526 642 453 641 372 641 L148 641 C119 641 89 619 84 596 C79 575 95 560 121 560 L151 560 L41 41 Z " />
<glyph glyph-name="Q" unicode="Q" horiz-adv-x="575" d="M304 -19 C333 -56 353 -82 360 -86 C365 -89 374 -91 382 -91 C411 -91 442 -70 447 -46 C449 -38 447 -34 446 -32 C443 -24 420 5 393 41 C430 78 460 132 470 179 L523 429 C528 450 529 474 525 500 C513 592 451 641 349 641 C242 641 152 588 100 493 C87 468 76 442 72 421 L18 171 C14 150 13 126 16 100 C29 9 91 -41 192 -41 C231 -41 269 -34 304 -19 L304 -19 Z M254 44 C244 41 233 41 233 41 C147 41 102 95 120 179 L173 428 C190 506 252 560 327 560 C412 560 438 494 408 353 C403 331 387 260 373 191 C367 160 357 134 341 107 C308 147 282 181 276 186 C271 190 262 191 254 191 C225 191 193 170 188 146 C186 138 189 134 189 132 C192 125 215 94 254 44 L254 44 Z " />
<glyph glyph-name="R" unicode="R" horiz-adv-x="575" d="M41 41 L21 41 C-8 41 -39 19 -44 -4 C-48 -25 -32 -41 -6 -41 L144 -41 C173 -41 203 -19 208 4 C213 25 197 41 171 41 L141 41 C143 49 144 57 146 62 L251 560 L396 560 C443 560 469 525 458 474 C455 458 449 443 438 428 C419 399 402 391 360 391 L305 391 C268 391 237 375 233 355 C227 329 253 274 259 256 L345 14 C356 -13 356 -41 390 -41 C422 -41 453 -20 458 4 C459 9 459 13 458 17 C455 27 450 38 447 48 L353 310 C448 312 539 386 558 475 C562 493 563 512 560 532 C551 603 502 641 424 641 L149 641 C120 641 89 619 84 596 C80 575 95 560 121 560 L151 560 L41 41 Z " />
<glyph glyph-name="S" unicode="S" horiz-adv-x="550" d="M16 100 C28 8 91 -41 193 -41 C327 -41 445 53 471 184 C495 295 429 383 316 390 C268 393 222 381 210 436 C206 452 206 467 209 480 C218 522 248 560 294 560 C373 560 406 542 409 498 C410 483 407 473 407 463 C409 447 424 436 444 436 C475 436 505 459 511 487 C514 504 511 529 504 550 C485 611 431 641 341 641 C247 641 182 610 138 543 C123 519 112 494 107 471 C101 444 104 413 113 387 C132 335 177 310 252 310 C317 310 349 294 363 253 C371 227 373 194 367 165 C352 92 291 41 217 41 C155 41 119 76 118 135 C117 168 129 196 108 209 C102 213 93 216 84 216 C53 216 23 192 16 162 C14 148 13 124 16 100 L16 100 Z " />
<glyph glyph-name="T" unicode="T" horiz-adv-x="500" d="M141 41 L121 41 C93 41 61 19 56 -4 C52 -25 68 -41 93 -41 L243 -41 C272 -41 303 -19 308 4 C312 25 297 41 271 41 L241 41 L351 560 L471 560 C500 560 531 581 535 604 C540 625 524 641 498 641 L148 641 C120 641 89 619 84 596 C79 575 95 560 121 560 L251 560 L141 41 Z " />
<glyph glyph-name="U" unicode="U" horiz-adv-x="650" d="M151 560 L68 171 C64 149 63 123 67 98 C80 8 141 -41 243 -41 C349 -41 438 11 490 104 C505 130 515 157 520 179 L601 560 L621 560 C650 560 681 581 685 604 C690 625 674 641 648 641 L498 641 C470 641 439 619 434 596 C430 576 446 560 471 560 L501 560 C475 436 449 311 443 280 C406 106 359 41 271 41 C201 41 164 82 168 155 C169 179 175 200 179 222 L244 525 C246 537 249 548 251 560 L271 560 C300 560 331 581 335 604 C340 625 324 641 298 641 L148 641 C119 641 89 619 84 596 C79 575 95 560 121 560 L151 560 Z " />
<glyph glyph-name="V" unicode="V" horiz-adv-x="600" d="M135 560 C141 443 175 78 177 42 C178 24 178 -6 183 -20 C188 -33 200 -41 218 -41 C239 -41 262 -30 274 -14 C285 0 293 22 301 38 L360 155 C428 290 498 425 565 560 L571 560 C600 560 631 581 635 604 C640 625 624 641 598 641 L448 641 C420 641 389 619 384 596 C380 576 396 560 421 560 L464 560 C407 450 291 215 270 175 C265 258 246 486 240 560 L271 560 C300 560 331 581 335 604 C340 625 324 641 298 641 L148 641 C120 641 89 619 84 596 C79 575 95 560 121 560 L135 560 Z " />
<glyph glyph-name="W" unicode="W" horiz-adv-x="850" d="M135 560 C141 443 175 78 177 42 C178 24 178 -6 183 -20 C188 -33 200 -41 218 -41 C234 -41 254 -35 261 -27 C281 -7 388 202 406 236 C410 205 428 -16 440 -32 C444 -37 457 -41 468 -41 C489 -41 512 -30 524 -14 C535 0 543 22 551 38 L610 155 C678 290 748 425 815 560 L821 560 C850 560 881 581 885 604 C890 625 874 641 848 641 L698 641 C670 641 639 619 634 596 C630 576 646 560 671 560 L714 560 C657 449 538 210 517 169 C514 200 496 416 484 432 C480 437 468 441 456 441 C440 441 421 435 413 427 C394 407 288 202 271 169 C265 266 247 488 240 560 L271 560 C300 560 331 581 335 604 C340 625 324 641 298 641 L148 641 C119 641 89 619 84 596 C79 575 95 560 121 560 L135 560 Z " />
<glyph glyph-name="X" unicode="X" horiz-adv-x="600" d="M143 41 C144 42 144 42 144 42 L274 206 L336 41 L321 41 C293 41 261 19 256 -4 C252 -25 268 -41 293 -41 L443 -41 C472 -41 503 -19 508 4 C512 25 497 41 471 41 L450 41 C443 58 436 75 433 84 L351 303 C391 353 432 403 475 458 C503 492 531 528 556 560 L571 560 C600 560 631 581 635 604 C640 625 624 641 598 641 L448 641 C420 641 389 619 384 596 C380 576 396 560 421 560 L449 560 C448 559 448 559 448 558 L342 425 C334 415 326 404 318 394 L256 560 L271 560 C300 560 331 581 335 604 C340 625 324 641 298 641 L148 641 C119 641 89 619 84 596 C79 575 95 560 121 560 L142 560 C148 543 156 525 159 516 L240 297 C201 247 160 197 123 151 C92 112 63 77 36 41 L21 41 C-8 41 -39 19 -44 -4 C-48 -25 -33 -41 -7 -41 L143 -41 C172 -41 203 -19 208 4 C212 25 197 41 171 41 L143 41 Z " />
<glyph glyph-name="Y" unicode="Y" horiz-adv-x="600" d="M191 41 L171 41 C143 41 111 19 106 -4 C102 -25 118 -41 143 -41 L293 -41 C322 -41 353 -19 358 4 C362 25 347 41 321 41 L291 41 L365 389 C376 401 383 407 389 413 L539 555 C540 556 543 559 544 560 L571 560 C600 560 631 581 635 604 C640 625 624 641 598 641 L448 641 C420 641 389 619 384 596 C380 576 396 560 421 560 L428 560 L334 470 L275 560 C303 561 331 581 335 604 C340 625 324 641 298 641 L148 641 C119 641 89 619 84 596 C79 575 95 560 121 560 L147 560 C171 522 237 423 264 383 L191 41 Z " />
<glyph glyph-name="Z" unicode="Z" horiz-adv-x="500" d="M93 41 L482 530 C495 546 532 587 537 609 C540 626 522 641 498 641 L148 641 C120 641 89 619 84 596 C81 582 88 569 101 564 C122 556 186 560 211 560 L399 560 L10 70 C-4 54 -40 13 -45 -8 C-49 -26 -31 -41 -7 -41 L343 -41 C372 -41 403 -19 408 4 C411 18 404 31 390 36 C369 43 306 41 281 41 L93 41 Z " />
<glyph glyph-name="bracketleft" unicode="&#x5b;" horiz-adv-x="300" d="M58 -60 L211 660 L270 659 C309 658 340 676 345 702 C350 725 335 741 309 741 L184 741 C156 741 124 719 119 696 L-51 -104 C-56 -125 -39 -141 -14 -141 L111 -141 C140 -141 171 -118 176 -93 C184 -57 137 -60 109 -60 L58 -60 Z " />
<glyph glyph-name="backslash" unicode="&#x5c;" horiz-adv-x="400" d="M173 -101 C175 -130 185 -141 207 -141 C236 -141 270 -123 274 -105 C279 -79 257 98 254 131 L197 701 C194 730 185 741 163 741 C134 741 100 723 96 705 C90 679 113 502 116 469 L173 -101 Z " />
<glyph glyph-name="bracketright" unicode="&#x5d;" horiz-adv-x="275" d="M33 -60 L-26 -59 C-64 -58 -95 -76 -101 -102 C-105 -124 -90 -141 -64 -141 L61 -141 C90 -141 121 -119 126 -96 L296 704 C300 725 285 741 259 741 L134 741 C105 741 74 718 68 693 C61 657 107 660 135 660 L186 660 L33 -60 Z " />
<glyph glyph-name="asciicircum" unicode="&#x5e;" horiz-adv-x="350" d="M216 528 C227 510 276 425 290 415 C295 412 303 410 312 410 C342 410 373 430 379 454 C380 459 380 464 379 468 C374 484 280 629 271 636 C268 639 257 641 248 641 C237 641 223 638 217 634 C201 623 49 473 34 461 C32 459 28 451 27 445 C22 425 38 410 65 410 C102 410 128 443 155 468 L216 528 Z " />
<glyph glyph-name="underscore" unicode="&#x5f;" horiz-adv-x="450" d="M9 -104 C4 -125 20 -141 46 -141 L346 -141 C375 -141 406 -119 411 -96 C415 -75 399 -60 373 -60 L73 -60 C44 -60 14 -81 9 -104 L9 -104 Z " />
<glyph glyph-name="grave" unicode="&#x60;" horiz-adv-x="175" d="M134 489 C137 486 147 484 155 484 C183 484 214 505 219 528 C220 533 218 539 218 542 C216 553 155 628 144 636 C141 639 131 641 123 641 C95 641 64 620 59 597 C58 592 59 586 60 583 C61 572 123 499 134 489 L134 489 Z " />
<glyph glyph-name="a" unicode="a" horiz-adv-x="450" d="M252 -3 C248 -24 264 -40 289 -40 C318 -40 349 -18 354 5 L439 404 C443 426 428 442 402 442 L277 442 C175 442 81 368 60 271 L34 147 C12 42 61 -41 147 -41 C189 -41 223 -23 229 3 C233 22 221 36 199 40 C194 41 187 41 180 42 C143 47 124 99 136 155 L162 278 C165 293 173 309 182 323 C207 362 232 361 261 361 C291 361 310 360 329 360 L252 -3 Z " />
<glyph glyph-name="b" unicode="b" horiz-adv-x="501" d="M142 41 C180 222 219 403 219 403 C263 612 264 641 224 641 L148 641 C119 641 89 618 83 593 C75 556 124 560 152 560 C114 379 75 197 75 197 C31 -9 30 -41 69 -41 L194 -41 C299 -41 384 29 411 129 L442 279 C446 295 445 312 443 329 C433 399 389 441 324 441 C281 441 247 422 241 396 C240 388 241 381 245 375 C266 342 323 383 340 317 C343 302 344 286 341 271 L309 122 C298 71 266 41 221 41 L142 41 Z " />
<glyph glyph-name="c" unicode="c" horiz-adv-x="450" d="M27 72 C37 -2 84 -41 164 -41 C247 -41 317 3 359 77 C369 94 377 112 379 124 C385 149 370 166 343 166 C319 166 291 150 282 129 C278 120 276 110 270 97 C253 59 230 41 194 41 C145 41 119 77 131 129 L162 278 C173 328 208 360 252 360 C290 360 312 337 312 297 C313 284 310 274 311 266 C312 247 326 235 348 235 C378 235 408 258 414 285 C416 295 416 311 414 328 C404 402 357 441 277 441 C194 441 125 397 82 323 C71 305 64 287 61 271 L29 121 C26 107 25 90 27 72 L27 72 Z " />
<glyph glyph-name="d" unicode="d" horiz-adv-x="450" d="M326 441 L256 442 C154 443 60 368 40 271 L13 147 C-9 42 40 -41 126 -41 C168 -41 202 -23 208 3 C212 22 200 36 178 40 C173 41 166 41 159 42 C122 47 103 99 115 155 L141 278 C144 293 152 309 161 323 C186 362 211 361 240 361 C270 361 289 360 308 360 L236 17 C234 8 231 -5 233 -15 C236 -30 249 -40 268 -40 C297 -40 328 -18 333 5 L460 604 C465 625 449 641 423 641 L347 641 C318 641 287 618 282 593 C274 556 323 560 351 560 L326 441 Z " />
<glyph glyph-name="e" unicode="e" horiz-adv-x="450" d="M340 159 C371 159 389 177 397 214 C399 228 406 250 410 266 C431 366 369 441 264 441 C165 441 83 375 62 279 L30 129 C27 114 26 96 29 76 C38 0 91 -41 174 -41 L222 -41 C248 -41 271 -25 275 -3 C281 23 258 41 219 41 C216 41 214 41 211 41 L196 40 C193 40 191 40 189 40 C141 40 118 71 129 122 L137 159 L340 159 Z M161 271 C172 324 210 359 257 359 C301 359 323 327 311 275 C309 265 306 252 303 240 L154 240 L161 271 Z " />
<glyph glyph-name="f" unicode="f" horiz-adv-x="350" d="M41 41 L21 41 C-7 41 -39 19 -44 -4 C-48 -25 -33 -41 -7 -41 L143 -41 C172 -41 203 -19 208 4 C212 25 197 41 171 41 L142 41 C147 68 153 94 158 121 L191 280 C196 307 202 334 208 360 L254 360 C283 360 313 381 318 404 C322 425 307 441 281 441 L225 441 C227 449 228 455 228 455 C236 493 246 515 263 535 C289 565 302 554 329 560 C358 566 381 584 386 605 C391 628 371 641 333 641 C263 641 193 597 154 524 C142 504 135 486 132 471 L126 441 L106 441 C78 441 46 419 41 396 C37 375 53 360 79 360 L109 360 L41 41 Z " />
<glyph glyph-name="g" unicode="g" horiz-adv-x="450" d="M84 -205 C80 -227 100 -241 138 -241 C207 -241 276 -195 317 -123 C325 -109 335 -88 338 -71 L439 404 C443 426 428 442 402 442 L277 442 C175 442 81 368 61 271 L34 147 C12 42 61 -41 147 -41 C189 -41 223 -23 229 3 C233 22 221 36 199 40 C194 41 187 41 180 42 C143 47 124 99 136 155 L162 278 C165 293 173 309 182 323 C207 362 232 361 261 361 C291 361 310 360 329 360 L236 -79 C227 -103 222 -128 196 -145 C161 -169 131 -148 100 -179 C91 -188 86 -197 84 -205 L84 -205 Z " />
<glyph glyph-name="h" unicode="h" horiz-adv-x="550" d="M142 41 L210 360 C224 360 236 360 236 360 C266 360 297 361 315 353 C344 340 348 302 329 209 C322 179 306 109 292 40 C262 38 236 18 231 -4 C227 -25 243 -41 268 -41 L393 -41 C422 -41 453 -19 458 4 C462 25 447 41 421 41 L392 41 L442 279 C446 294 446 312 444 332 C434 403 385 441 307 441 L227 441 L262 604 C266 625 250 641 224 641 L148 641 C119 641 89 618 83 593 C75 556 124 560 152 560 C115 387 79 214 42 41 L21 41 C-8 41 -39 19 -44 -4 C-48 -25 -33 -41 -7 -41 L118 -41 C147 -41 178 -19 183 4 C187 25 172 41 146 41 L142 41 Z " />
<glyph glyph-name="i" unicode="i" horiz-adv-x="325" d="M148 546 C144 525 160 510 185 510 C215 510 245 531 250 554 L261 604 C265 625 249 641 224 641 C195 641 164 620 159 596 L148 546 Z M109 360 C92 282 74 203 69 180 C38 30 63 -41 149 -41 C193 -41 227 -23 233 4 C237 22 225 38 204 40 C195 41 186 40 176 43 C150 51 148 80 167 168 C177 216 196 301 202 331 C221 419 217 441 181 441 L106 441 C77 441 46 418 41 393 C33 356 81 360 109 360 L109 360 Z " />
<glyph glyph-name="j" unicode="j" horiz-adv-x="300" d="M198 547 C193 527 210 511 235 511 C264 511 295 532 299 555 L310 605 C315 626 299 642 274 642 C245 642 213 621 208 597 L198 547 Z M158 360 L65 -77 C57 -116 28 -157 -15 -158 L-28 -159 C-53 -159 -81 -178 -87 -203 C-92 -226 -73 -240 -35 -240 C60 -240 145 -160 167 -70 L268 405 C272 428 253 442 218 442 C209 442 189 441 174 441 C139 441 105 446 80 419 C73 412 67 403 65 394 C60 371 80 359 120 359 C134 359 146 360 158 360 L158 360 Z " />
<glyph glyph-name="k" unicode="k" horiz-adv-x="501" d="M142 41 L192 275 C205 280 217 285 230 290 C249 166 286 -21 291 -31 C293 -36 306 -41 318 -41 C344 -41 378 -23 382 -7 C388 22 337 290 330 328 L386 348 C405 355 424 359 442 370 C457 379 466 392 469 405 C473 425 458 441 433 441 C425 441 417 439 410 437 C370 425 332 408 292 393 L210 363 L262 604 C266 625 250 641 224 641 L148 641 C119 641 89 618 83 593 C75 556 124 560 152 560 C115 387 79 214 42 41 L21 41 C-8 41 -39 19 -44 -4 C-48 -25 -33 -41 -7 -41 L143 -41 C172 -41 203 -19 208 4 C212 25 197 41 171 41 L142 41 Z " />
<glyph glyph-name="l" unicode="l" horiz-adv-x="300" d="M142 41 L262 604 C266 625 250 641 224 641 L148 641 C119 641 89 618 83 593 C75 556 124 560 152 560 C115 387 79 214 42 41 L21 41 C-8 41 -39 19 -44 -4 C-48 -25 -33 -41 -7 -41 L143 -41 C172 -41 203 -19 208 4 C212 25 197 41 171 41 L142 41 Z " />
<glyph glyph-name="m" unicode="m" horiz-adv-x="800" d="M162 41 L230 360 C244 360 256 360 256 360 C286 360 317 361 335 353 C364 340 368 301 348 207 C342 177 326 109 312 40 C284 38 257 18 252 -4 C248 -25 264 -41 289 -41 L389 -41 C418 -41 449 -19 454 4 C458 25 443 41 417 41 L412 41 L462 279 C468 304 465 340 456 364 C469 360 484 360 497 360 L539 360 C609 360 623 322 598 205 C592 179 576 110 562 40 C534 38 507 18 502 -4 C498 -25 514 -41 539 -41 L664 -41 C693 -41 724 -19 729 4 C733 25 718 41 692 41 L662 41 L712 279 C716 295 716 314 713 333 C702 403 655 441 577 441 L502 441 C474 441 442 419 437 396 C414 426 377 441 327 441 L127 441 C98 441 67 418 62 393 C54 356 102 360 130 360 C107 254 84 147 62 41 L42 41 C14 41 -18 19 -23 -4 C-27 -25 -12 -41 14 -41 L139 -41 C168 -41 199 -19 204 4 C208 25 193 41 167 41 L162 41 Z " />
<glyph glyph-name="n" unicode="n" horiz-adv-x="550" d="M63 41 L42 41 C13 41 -18 19 -23 -4 C-27 -25 -12 -41 14 -41 L139 -41 C168 -41 199 -19 204 4 C208 25 193 41 167 41 L164 41 C170 72 177 106 180 120 L231 360 L301 360 C395 360 358 255 345 190 C334 140 323 90 313 40 C284 39 257 19 252 -4 C248 -25 264 -41 289 -41 L414 -41 C443 -41 474 -19 479 4 C483 25 468 41 442 41 L413 41 L463 279 C467 295 466 312 464 329 C454 402 407 441 328 441 L203 441 C203 441 202 440 202 440 C202 440 202 441 202 441 L127 441 C98 441 67 419 62 396 C58 375 74 360 100 360 L131 360 L63 41 Z " />
<glyph glyph-name="o" unicode="o" horiz-adv-x="450" d="M27 72 C37 -2 84 -41 164 -41 C265 -41 355 32 381 129 L412 279 C415 293 416 310 414 328 C405 402 357 441 277 441 C194 441 125 397 82 323 C71 305 64 287 61 271 L29 121 C26 107 25 90 27 72 L27 72 Z M248 360 C297 360 322 324 311 271 L279 122 C268 71 235 41 190 41 C137 41 120 82 138 168 C141 185 151 227 160 269 C175 314 192 360 248 360 L248 360 Z " />
<glyph glyph-name="p" unicode="p" horiz-adv-x="501" d="M21 -159 L0 -159 C-29 -159 -60 -181 -65 -204 C-69 -225 -54 -241 -28 -241 L122 -241 C151 -241 182 -219 187 -196 C191 -175 176 -159 150 -159 L121 -159 C123 -150 124 -143 125 -138 L231 360 L301 360 C349 360 374 324 362 271 L331 122 C321 78 291 45 257 41 C248 40 240 41 231 40 C207 37 183 16 179 -4 C174 -27 193 -40 231 -40 C302 -40 371 3 411 76 C422 96 429 114 432 129 L464 279 C467 293 468 310 465 328 C456 402 408 441 328 441 L203 441 C203 441 202 440 202 440 C202 440 202 441 202 441 L127 441 C98 441 68 419 63 396 C58 375 74 360 100 360 L131 360 L21 -159 Z " />
<glyph glyph-name="q" unicode="q" horiz-adv-x="499" d="M217 -171 L196 -171 C168 -171 137 -193 132 -216 C127 -237 144 -253 169 -253 L319 -253 C348 -253 379 -231 383 -208 C388 -187 372 -171 346 -171 L317 -171 L440 404 C444 425 428 441 402 441 L277 441 C194 441 124 400 83 324 C71 304 64 286 61 271 L29 121 C24 98 25 73 31 50 C47 -9 90 -40 163 -40 C213 -40 244 -27 253 -2 L217 -171 Z M330 360 C306 244 280 126 256 10 C257 30 238 41 204 41 C161 41 144 49 135 76 C129 93 128 113 131 129 L163 278 C174 329 207 360 251 360 L330 360 Z " />
<glyph glyph-name="r" unicode="r" horiz-adv-x="351" d="M63 41 L42 41 C13 41 -18 19 -23 -4 C-27 -25 -12 -41 14 -41 L164 -41 C193 -41 224 -19 229 4 C233 25 218 41 192 41 L163 41 C165 53 168 63 168 63 C180 124 192 182 199 218 C210 269 215 302 237 330 C277 379 314 342 349 378 C358 387 363 396 365 405 C370 428 351 441 313 441 C242 441 174 394 133 323 C122 305 115 287 112 271 L63 41 Z " />
<glyph glyph-name="s" unicode="s" horiz-adv-x="426" d="M152 -41 C247 -41 335 27 354 116 C370 190 332 254 266 263 C243 266 207 263 195 270 C184 276 179 298 185 322 C190 347 204 360 224 360 C318 360 245 273 313 273 C349 273 379 296 386 329 C396 375 363 420 317 435 C304 439 287 441 269 441 C175 441 99 388 82 312 C69 250 99 199 153 189 C184 183 219 191 237 173 C250 160 257 130 251 104 C243 67 213 41 177 41 C145 41 126 61 126 93 C126 107 130 116 129 126 C127 142 112 154 92 154 C59 154 30 127 22 90 C7 19 66 -41 152 -41 L152 -41 Z " />
<glyph glyph-name="t" unicode="t" horiz-adv-x="350" d="M119 360 L68 121 C65 106 64 88 67 68 C76 0 122 -41 186 -41 C228 -41 262 -22 268 4 C272 22 261 36 242 40 C231 42 220 40 205 44 C169 54 161 87 178 167 C191 231 205 296 219 360 L289 360 C318 360 348 381 353 404 C357 425 342 441 316 441 L236 441 C238 450 240 459 240 459 C249 504 261 541 218 541 C185 541 153 521 148 496 L136 441 L116 441 C88 441 56 419 51 396 C47 375 63 360 89 360 L119 360 Z " />
<glyph glyph-name="u" unicode="u" horiz-adv-x="550" d="M313 41 L243 41 C149 41 184 145 198 210 C211 273 224 335 224 335 C241 411 234 441 202 441 L127 441 C98 441 67 418 62 393 C54 356 102 360 130 360 C115 289 99 217 99 217 C61 38 96 -41 214 -41 L340 -41 C369 -41 400 -19 405 4 L481 360 L500 360 C529 360 559 381 564 404 C568 425 553 441 527 441 L377 441 C349 441 317 419 312 396 C308 376 325 360 350 360 L380 360 C373 329 367 294 364 280 L313 41 Z " />
<glyph glyph-name="v" unicode="v" horiz-adv-x="500" d="M116 360 C129 198 158 -21 162 -32 C164 -37 178 -41 190 -41 C205 -41 226 -34 232 -28 C246 -15 368 209 444 360 L450 360 C479 360 509 381 514 404 C518 425 503 441 477 441 L377 441 C349 441 317 419 312 396 C308 378 321 364 343 360 C321 320 277 236 240 164 C237 185 228 293 220 363 C243 370 260 386 264 404 C268 425 253 441 227 441 L127 441 C98 441 67 419 62 396 C58 375 74 360 100 360 L116 360 Z " />
<glyph glyph-name="w" unicode="w" horiz-adv-x="700" d="M241 156 C238 188 226 307 220 363 C243 370 260 386 264 404 C268 425 253 441 227 441 L127 441 C98 441 67 419 62 396 C58 375 74 360 100 360 L117 360 C130 206 156 -21 161 -31 C163 -36 178 -41 193 -41 C222 -41 238 -28 261 12 L336 146 C339 122 352 -15 362 -31 C365 -37 377 -41 390 -41 C406 -41 427 -33 435 -26 C448 -14 569 212 644 360 L650 360 C679 360 709 381 714 404 C718 425 703 441 677 441 L577 441 C549 441 517 419 512 396 C508 378 521 364 543 360 C506 292 451 185 440 162 L425 295 C420 331 414 341 389 341 C346 341 333 320 315 288 L241 156 Z " />
<glyph glyph-name="x" unicode="x" horiz-adv-x="500" d="M226 111 C227 108 228 105 230 102 L258 32 C241 23 230 10 227 -4 C223 -25 239 -41 264 -41 L364 -41 C393 -41 424 -19 429 4 C433 25 418 41 392 41 L371 41 C362 65 352 87 337 122 C330 139 317 171 303 204 L382 298 C392 309 417 336 436 360 L450 360 C479 360 509 381 514 404 C518 425 503 441 477 441 L377 441 C349 441 317 419 312 396 C309 382 316 371 331 364 L268 289 C266 292 265 295 263 298 L235 369 C250 378 261 391 264 404 C268 425 253 441 227 441 L127 441 C98 441 67 419 62 396 C58 375 74 360 100 360 L123 360 C139 315 159 265 190 196 L111 102 C101 91 77 65 58 41 L42 41 C13 41 -18 19 -23 -4 C-27 -25 -12 -41 14 -41 L114 -41 C143 -41 174 -19 179 4 C182 18 176 29 163 36 L226 111 Z " />
<glyph glyph-name="y" unicode="y" horiz-adv-x="500" d="M240 160 C233 231 224 311 218 364 C242 370 260 386 264 405 C268 425 252 441 227 441 L127 441 C98 441 67 419 62 396 C58 375 74 360 100 360 L115 360 C119 298 141 81 153 -11 L129 -58 C120 -74 113 -91 97 -118 C80 -147 66 -158 43 -161 C13 -165 -11 -183 -16 -205 C-20 -227 -2 -241 31 -241 C88 -241 149 -195 192 -125 C206 -103 216 -81 228 -59 L292 66 C309 99 402 276 444 360 L450 360 C479 360 509 381 514 404 C518 425 503 441 477 441 L377 441 C349 441 317 419 312 396 C308 378 320 364 342 360 C331 339 322 320 317 311 L240 160 Z " />
<glyph glyph-name="z" unicode="z" horiz-adv-x="400" d="M116 41 L377 352 C389 366 411 388 414 406 C419 426 402 441 377 441 L127 441 C98 441 67 418 62 393 C54 358 98 360 125 360 L276 360 L15 48 C3 34 -19 12 -23 -7 C-27 -26 -11 -41 14 -41 L264 -41 C293 -41 324 -18 330 7 C337 42 294 41 267 41 L116 41 Z " />
<glyph glyph-name="braceleft" unicode="&#x7b;" horiz-adv-x="375" d="M159 414 L68 351 C48 337 14 321 9 297 C8 291 9 285 11 280 C17 263 93 196 109 180 L79 38 C56 -69 102 -141 191 -141 C235 -141 270 -123 275 -97 C279 -79 268 -63 248 -60 C241 -59 231 -60 222 -59 C179 -55 168 -11 186 74 C190 93 201 143 212 192 C214 204 216 213 214 220 C206 235 146 290 131 303 C153 318 231 367 247 384 C253 391 256 401 263 433 C270 464 279 513 284 534 C294 582 313 658 374 659 L387 660 C412 660 440 680 446 705 C451 728 431 741 393 741 C312 741 236 683 202 599 C192 573 188 549 183 525 L159 414 Z " />
<glyph glyph-name="bar" unicode="&#x7c;" horiz-adv-x="200" d="M-51 -104 C-56 -125 -39 -141 -14 -141 C15 -141 46 -119 51 -96 L221 704 C225 725 210 741 185 741 C156 741 124 720 119 696 L-51 -104 Z " />
<glyph glyph-name="braceright" unicode="&#x7d;" horiz-adv-x="375" d="M186 186 L277 249 C297 263 330 279 335 303 C337 309 336 315 334 320 C328 337 252 404 235 420 L266 562 C288 669 243 741 154 741 C110 741 75 723 69 697 C65 679 77 663 96 660 C104 659 113 660 123 659 C166 655 177 612 159 527 C155 507 143 457 133 408 C130 396 128 387 131 381 C139 365 199 311 213 297 C192 282 114 233 98 216 C91 209 89 201 82 169 C75 137 66 87 61 67 C44 -14 17 -55 -23 -59 C-32 -60 -40 -59 -49 -60 C-73 -63 -97 -84 -101 -104 C-106 -127 -86 -141 -48 -141 C32 -141 108 -83 142 1 C153 27 157 51 162 75 L186 186 Z " />
<glyph glyph-name="asciitilde" unicode="&#x7e;" horiz-adv-x="400" d="M165 232 C172 226 177 219 182 213 C199 195 222 185 250 185 C307 185 364 224 373 270 C380 299 365 316 334 316 C306 316 286 300 273 268 C266 274 262 282 255 289 C240 305 216 316 188 316 C132 316 75 276 65 230 C59 202 74 185 104 185 C132 185 153 200 165 232 L165 232 Z " />
<glyph glyph-name="uni00A0" unicode="&#xa0;" horiz-adv-x="260" d="" />
<glyph glyph-name="exclamdown" unicode="&#xa1;" horiz-adv-x="200" d="M71 321 C67 301 83 285 109 285 C138 285 168 306 173 329 L189 404 C193 425 178 441 153 441 C124 441 92 420 87 396 L71 321 Z M-40 -204 C-45 -225 -28 -241 -3 -241 C26 -241 56 -219 61 -196 L146 204 C151 225 135 241 110 241 C81 241 50 220 45 196 L-40 -204 Z " />
<glyph glyph-name="cent" unicode="&#xa2;" horiz-adv-x="450" d="M27 72 C34 17 63 -19 110 -34 L95 -104 C90 -125 107 -141 132 -141 C161 -141 192 -119 197 -96 L209 -37 C272 -24 325 17 359 77 C369 94 377 112 379 124 C385 149 370 166 343 166 C319 166 291 150 282 129 C278 120 276 110 270 97 C253 59 230 41 194 41 C145 41 119 77 131 129 L162 278 C173 328 208 360 252 360 C290 360 312 337 312 297 C313 284 310 274 311 266 C312 247 326 235 348 235 C378 235 408 258 414 285 C416 295 416 311 414 328 C405 391 370 429 310 438 L324 504 C329 525 313 541 288 541 C259 541 228 520 222 496 L208 430 C143 409 74 341 61 271 L29 121 C26 107 25 90 27 72 L27 72 Z " />
<glyph glyph-name="sterling" unicode="&#xa3;" horiz-adv-x="475" d="M52 41 L32 41 C4 41 -28 19 -33 -4 C-37 -25 -22 -41 4 -41 L329 -41 C358 -41 389 -19 394 4 C398 25 383 41 357 41 L152 41 C155 55 158 69 160 83 L178 168 C181 182 184 196 187 210 L258 210 C287 210 317 231 322 254 C327 275 311 291 285 291 L204 291 C208 310 212 327 212 327 C232 424 259 460 311 460 C355 460 378 429 369 384 C362 354 376 335 404 335 C438 335 464 360 472 401 C489 481 431 541 336 541 C255 541 186 497 143 423 C132 405 125 387 122 371 L105 291 L85 291 C57 291 25 269 20 246 C16 225 32 210 58 210 L88 210 L52 41 Z " />
<glyph glyph-name="currency" unicode="&#xa4;" horiz-adv-x="450" d="M85 179 C70 170 57 157 45 147 C27 132 3 117 -2 95 C-6 75 10 60 37 60 C69 60 91 84 114 103 C122 110 131 116 138 122 C155 114 174 110 196 110 C220 110 243 115 264 123 C292 80 316 60 339 60 C365 60 395 81 400 103 C404 124 388 136 377 150 C368 161 360 176 347 184 C365 206 377 230 382 254 C387 278 386 300 377 321 C392 330 405 343 417 353 C435 368 459 383 464 405 C469 426 452 441 426 441 C394 441 371 416 348 397 C340 390 332 384 324 378 C305 387 286 391 266 391 C244 391 220 386 198 377 C183 399 156 441 124 441 C98 441 67 419 62 397 C58 376 74 364 85 350 C94 339 102 324 115 316 C98 294 85 270 80 246 C75 222 77 200 85 179 L85 179 Z M223 191 C195 191 175 221 182 254 C188 284 216 309 242 309 C270 309 288 280 280 246 C276 220 250 191 223 191 L223 191 Z " />
<glyph glyph-name="yen" unicode="&#xa5;" horiz-adv-x="498" d="M126 321 C122 301 138 285 164 285 L204 285 L195 241 L164 241 C136 241 105 219 100 196 C95 176 111 160 137 160 L177 160 L152 41 L132 41 C104 41 72 19 67 -4 C63 -25 79 -41 104 -41 L254 -41 C283 -41 314 -19 319 4 C323 25 308 41 282 41 L252 41 L277 160 L337 160 C366 160 397 181 401 204 C406 225 390 241 364 241 L294 241 L304 285 L364 285 C393 285 423 306 428 329 C432 350 417 366 391 366 L323 366 C365 400 413 439 438 460 L459 460 C488 460 518 481 523 504 C528 525 512 541 486 541 L363 541 C335 541 303 519 298 496 C295 481 303 469 318 463 L289 439 C285 444 278 455 268 467 C285 476 297 490 300 504 C305 525 289 541 263 541 L138 541 C110 541 78 519 73 496 C69 475 85 460 111 460 L139 460 C156 437 191 393 213 366 L191 366 C163 366 131 344 126 321 L126 321 Z " />
<glyph glyph-name="brokenbar" unicode="&#xa6;" horiz-adv-x="200" d="M66 396 C62 376 78 360 104 360 C133 360 163 381 168 404 L210 604 C215 625 199 641 174 641 C145 641 114 620 109 596 L66 396 Z M-19 -4 C-23 -25 -7 -41 18 -41 C47 -41 78 -19 83 4 L125 204 C130 225 114 241 89 241 C60 241 29 220 24 196 L-19 -4 Z " />
<glyph glyph-name="section" unicode="&#xa7;" horiz-adv-x="400" d="M164 159 C192 155 209 128 203 97 C196 66 171 41 146 41 C119 41 103 66 103 91 L104 104 C104 127 92 141 68 141 C36 141 6 115 -1 80 C-15 16 42 -41 118 -41 C202 -41 287 25 304 104 C312 142 304 177 280 203 C315 231 339 267 347 304 C363 380 311 441 231 441 C231 441 229 440 229 440 C228 441 228 441 228 441 C200 445 182 472 189 503 C196 534 221 559 246 559 C268 559 288 539 289 515 C289 507 287 499 288 492 C289 473 303 460 325 460 C357 460 385 485 393 520 C406 584 349 641 273 641 C189 641 104 575 87 496 C79 458 88 423 111 397 C76 369 53 333 45 295 C29 220 82 159 164 159 L164 159 Z M245 295 C236 269 218 241 187 241 C159 241 140 271 147 304 C153 335 179 359 207 359 C234 359 248 336 245 295 L245 295 Z " />
<glyph glyph-name="dieresis" unicode="&#xa8;" horiz-adv-x="250" d="M43 521 C38 500 54 485 79 485 C109 485 140 506 145 529 L160 604 C165 625 149 641 124 641 C95 641 64 620 59 596 L43 521 Z M193 521 C189 501 205 485 230 485 C259 485 290 506 295 529 L310 604 C315 625 299 641 274 641 C245 641 214 620 209 596 L193 521 Z " />
<glyph glyph-name="copyright" unicode="&#xa9;" horiz-adv-x="600" d="M45 196 C17 65 104 -41 239 -41 C378 -41 518 70 546 204 C574 335 487 441 352 441 C213 441 73 330 45 196 L45 196 Z M445 198 C441 187 439 174 433 158 C407 93 334 41 265 41 C183 41 128 116 146 204 C165 290 245 360 325 360 C403 360 458 293 448 213 C447 209 446 203 445 198 L445 198 Z M306 248 C305 222 316 210 339 210 C373 210 403 233 409 264 C418 306 383 341 331 341 C273 341 217 299 205 246 L184 146 C173 96 206 60 261 60 C318 60 374 99 384 145 C390 173 376 191 349 191 C321 191 293 172 286 149 C285 151 285 152 286 155 L306 249 L306 248 Z " />
<glyph glyph-name="ordfeminine" unicode="&#xaa;" horiz-adv-x="275" d="M164 269 C171 263 182 259 192 259 C221 259 252 281 257 304 L299 504 C304 525 288 541 262 541 L200 541 C135 541 72 494 60 436 L44 359 C31 302 66 259 124 259 C139 259 151 262 164 269 L164 269 Z M165 340 C161 341 158 340 156 340 C148 340 143 354 146 368 L161 442 C163 448 166 455 170 459 L190 459 L165 340 Z " />
<glyph glyph-name="guillemotleft" unicode="&#xab;" horiz-adv-x="450" d="M151 253 C171 270 236 319 251 339 C253 341 257 347 259 355 C263 375 246 391 221 391 C213 391 200 389 193 385 C177 376 56 273 44 263 C40 260 37 253 36 247 C34 242 36 236 37 233 C38 222 118 123 130 114 C133 112 142 110 150 110 C179 110 211 130 216 153 C217 158 215 165 215 167 C208 189 164 236 151 253 L151 253 Z M345 253 C364 273 428 331 434 359 C438 377 420 391 395 391 C384 391 370 387 363 383 C352 376 259 285 243 263 C236 251 235 249 235 235 C240 219 295 121 303 115 C307 112 317 110 325 110 C353 110 385 129 390 148 C395 176 356 233 345 253 L345 253 Z " />
<glyph glyph-name="logicalnot" unicode="&#xac;" horiz-adv-x="350" d="M239 210 C233 185 220 151 242 137 C248 133 257 130 266 130 C296 130 326 151 331 174 L348 254 C353 275 337 291 311 291 L111 291 C82 291 51 269 46 244 C36 198 115 210 146 210 L239 210 Z " />
<glyph glyph-name="registered" unicode="&#xae;" horiz-adv-x="550" d="M34 197 C7 72 91 -30 220 -30 C351 -30 482 75 509 203 C536 328 452 430 323 430 C192 430 61 325 34 197 L34 197 Z M429 179 C405 97 317 30 236 30 C148 30 89 109 109 202 C129 294 217 370 304 370 C387 370 448 300 437 215 C434 203 432 191 429 179 L429 179 Z M248 270 L306 270 C316 270 323 261 320 249 C319 243 314 234 310 231 C309 230 299 231 297 231 C263 231 239 223 236 209 C232 190 277 93 295 76 C299 72 308 70 316 70 C336 70 359 84 362 99 C367 123 328 171 329 178 C358 187 388 222 396 257 C405 299 375 330 327 330 L227 330 C206 330 184 314 180 297 L138 97 C134 81 147 70 167 70 C186 70 204 81 212 97 C216 106 216 116 218 126 L248 270 Z " />
<glyph glyph-name="macron" unicode="&#xaf;" horiz-adv-x="250" d="M53 546 C49 525 64 510 90 510 L240 510 C269 510 300 531 305 554 C309 575 294 591 268 591 L118 591 C90 591 58 569 53 546 L53 546 Z " />
<glyph glyph-name="degree" unicode="&#xb0;" horiz-adv-x="224" d="M64 447 C55 404 85 370 132 370 C182 370 230 407 239 453 C248 496 219 530 172 530 C122 530 74 493 64 447 L64 447 Z M151 430 C143 431 137 441 139 451 C141 461 149 470 156 470 C165 470 163 458 164 446 C163 443 163 442 162 440 C159 436 156 432 151 430 L151 430 Z " />
<glyph glyph-name="plusminus" unicode="&#xb1;" horiz-adv-x="400" d="M153 210 L139 146 C135 126 151 110 176 110 C205 110 236 131 241 154 L253 210 L298 210 C327 210 357 231 362 254 C367 275 351 291 325 291 L270 291 L283 354 C288 375 272 391 247 391 C218 391 187 370 182 346 L170 291 L125 291 C97 291 65 269 60 246 C56 226 72 210 98 210 L153 210 Z M18 -4 C14 -24 30 -40 56 -40 L256 -40 C285 -40 315 -19 320 4 C325 25 309 41 283 41 L83 41 C55 41 23 19 18 -4 L18 -4 Z " />
<glyph glyph-name="twosuperior" unicode="&#xb2;" horiz-adv-x="300" d="M176 341 C265 427 311 489 321 536 C334 596 291 641 223 641 C153 641 83 592 71 534 C64 504 77 485 105 485 C116 485 128 488 138 493 C180 514 166 560 196 560 C213 560 223 544 218 524 C213 497 149 422 82 362 C60 342 44 331 31 317 C25 310 21 303 20 296 C16 275 31 260 57 260 L207 260 C236 260 267 281 272 306 C282 351 206 341 176 341 L176 341 Z " />
<glyph glyph-name="threesuperior" unicode="&#xb3;" horiz-adv-x="300" d="M170 560 C168 553 118 522 112 493 C108 477 120 462 142 460 C152 459 162 460 169 460 C193 460 202 446 196 420 L186 373 C182 353 171 341 156 341 C113 341 168 416 106 416 C70 416 40 392 33 357 C21 303 65 260 132 260 C206 260 273 311 288 379 L298 429 C308 473 287 519 255 530 C257 538 318 577 324 608 C328 626 311 641 286 641 L161 641 C132 641 101 618 96 593 C88 554 142 560 170 560 L170 560 Z " />
<glyph glyph-name="acute" unicode="&#xb4;" horiz-adv-x="175" d="M43 521 C38 500 55 484 80 484 C88 484 99 486 107 490 C120 497 214 572 226 586 C230 590 234 598 235 604 C240 625 224 641 199 641 C191 641 179 639 171 635 C157 628 63 553 51 539 C47 535 44 527 43 521 L43 521 Z " />
<glyph glyph-name="paragraph" unicode="&#xb6;" horiz-adv-x="575" d="M326 560 L206 -4 C202 -25 218 -41 243 -41 C272 -41 303 -19 308 4 L426 560 L476 560 C438 379 399 197 399 197 C354 -15 354 -41 388 -41 C421 -41 453 -20 458 4 L585 604 C590 625 574 641 548 641 L273 641 C190 641 120 600 78 524 C67 504 60 486 57 471 C54 456 54 438 57 421 C66 352 111 310 176 310 C219 310 252 328 257 354 C261 372 249 387 228 390 C220 391 213 390 204 391 C168 395 149 434 160 482 C170 529 204 560 247 560 L326 560 Z " />
<glyph glyph-name="periodcentered" unicode="&#xb7;" horiz-adv-x="250" d="M69 245 C62 211 87 184 125 184 C168 184 213 217 221 255 C228 289 203 316 165 316 C122 316 77 283 69 245 L69 245 Z " />
<glyph glyph-name="cedilla" unicode="&#xb8;" horiz-adv-x="200" d="M75 -100 C75 -95 77 -91 76 -85 C74 -70 58 -59 39 -59 C8 -59 -22 -83 -28 -114 C-37 -157 -3 -191 50 -191 C109 -191 164 -149 176 -96 L186 -46 C197 3 167 41 118 41 C83 41 50 21 45 -4 C42 -20 52 -33 70 -38 C77 -40 81 -39 83 -40 C85 -41 86 -48 84 -55 L75 -100 Z " />
<glyph glyph-name="onesuperior" unicode="&#xb9;" horiz-adv-x="275" d="M205 341 L260 604 C265 625 249 641 223 641 L148 641 C119 641 88 618 83 593 C75 556 123 560 151 560 C136 487 120 413 104 340 C77 338 50 318 45 296 C41 276 56 260 82 260 L182 260 C211 260 242 281 247 304 C251 325 236 341 210 341 L205 341 Z " />
<glyph glyph-name="ordmasculine" unicode="&#xba;" horiz-adv-x="300" d="M36 371 C22 306 62 260 132 260 C206 260 273 311 288 379 L320 529 C333 594 293 641 223 641 C150 641 82 589 68 521 L36 371 Z M138 380 C140 384 139 387 144 409 C149 431 157 473 165 513 C172 544 183 560 198 560 C214 560 222 543 218 520 L186 373 C182 353 172 341 157 341 C136 341 139 361 138 380 L138 380 Z " />
<glyph glyph-name="guillemotright" unicode="&#xbb;" horiz-adv-x="449" d="M321 247 C300 230 236 182 222 163 C219 159 214 151 213 145 C209 125 225 110 251 110 C261 110 274 114 279 116 C292 122 416 223 427 236 C431 240 435 248 436 254 C437 259 435 264 435 267 C433 278 353 377 341 386 C338 389 328 391 320 391 C292 391 261 370 256 347 C255 342 256 335 257 333 C263 311 307 264 321 247 L321 247 Z M128 247 C108 227 44 169 38 141 C34 124 51 110 77 110 C89 110 104 112 111 117 C130 131 232 230 237 254 C238 260 237 264 237 265 C233 281 178 379 169 385 C165 388 154 391 146 391 C119 391 87 371 83 352 C77 324 117 267 128 247 L128 247 Z " />
<glyph glyph-name="onequarter" unicode="&#xbc;" horiz-adv-x="650" d="M47 -113 C44 -128 64 -141 89 -141 C116 -141 136 -126 153 -94 L452 477 C469 509 567 688 573 713 C576 728 556 741 531 741 C504 741 483 726 467 694 L271 321 C266 333 253 341 235 341 L230 341 L285 604 C290 625 274 641 248 641 L173 641 C144 641 113 618 108 593 C100 556 148 560 176 560 C161 487 145 413 129 340 C102 338 75 318 70 296 C66 276 81 260 107 260 L207 260 C220 260 234 264 245 271 L167 123 C150 91 52 -88 47 -113 L47 -113 Z M423 10 L420 -4 C416 -25 431 -41 456 -41 C485 -41 517 -20 522 4 L543 104 C548 125 532 141 507 141 C478 141 447 120 441 96 L440 91 L402 91 C419 123 507 287 512 312 C516 327 497 341 474 341 C456 341 436 333 425 322 C407 306 283 57 278 35 C276 23 296 10 318 10 L423 10 Z " />
<glyph glyph-name="onehalf" unicode="&#xbd;" horiz-adv-x="675" d="M47 -113 C44 -128 64 -141 89 -141 C116 -141 136 -126 153 -94 L452 477 C469 509 567 688 573 713 C576 728 556 741 531 741 C504 741 483 726 467 694 L271 321 C266 333 253 341 235 341 L230 341 L285 604 C290 625 274 641 248 641 L173 641 C144 641 113 618 108 593 C100 556 148 560 176 560 C161 487 145 413 129 340 C102 338 75 318 70 296 C66 276 81 260 107 260 L207 260 C220 260 234 264 245 271 L167 123 C150 91 52 -88 47 -113 L47 -113 Z M504 41 C593 127 639 189 649 236 C662 296 619 341 551 341 C481 341 411 292 399 234 C392 204 405 185 433 185 C444 185 456 188 466 193 C508 214 494 260 524 260 C541 260 551 244 546 224 C541 197 477 122 410 62 C388 42 372 31 359 17 C353 10 349 3 348 -4 C344 -25 359 -40 385 -40 L535 -40 C564 -40 595 -19 600 6 C610 51 534 41 504 41 L504 41 Z " />
<glyph glyph-name="threequarters" unicode="&#xbe;" horiz-adv-x="700" d="M97 -113 C94 -128 114 -141 139 -141 C166 -141 186 -126 203 -94 L502 477 C519 509 617 688 623 713 C626 728 606 741 581 741 C554 741 533 726 517 694 L217 123 C200 91 102 -88 97 -113 L97 -113 Z M195 560 C193 553 143 522 137 493 C133 477 145 462 167 460 C177 459 187 460 194 460 C218 460 227 446 221 420 L211 373 C207 353 196 341 181 341 C138 341 193 416 131 416 C95 416 65 392 58 357 C46 303 90 260 157 260 C231 260 298 311 313 379 L323 429 C333 473 312 519 280 530 C282 538 343 577 349 608 C353 626 336 641 311 641 L186 641 C157 641 126 618 121 593 C113 554 167 560 195 560 L195 560 Z M484 10 L481 -4 C477 -24 493 -40 518 -40 C547 -40 578 -19 583 4 L604 104 C608 125 593 141 568 141 C539 141 507 120 502 96 L501 91 L463 91 C480 123 568 287 573 312 C576 327 557 341 534 341 C507 341 487 328 474 306 C450 267 343 51 339 35 C337 22 356 10 379 10 L484 10 Z " />
<glyph glyph-name="questiondown" unicode="&#xbf;" horiz-adv-x="400" d="M208 329 C203 305 225 284 254 284 C279 284 302 300 306 321 L322 396 C327 419 306 441 277 441 C252 441 228 425 224 404 L208 329 Z M117 166 C100 84 107 42 151 7 C167 -6 184 -17 191 -32 C195 -41 195 -56 192 -72 C180 -126 142 -160 93 -160 C57 -160 40 -141 39 -103 C39 -90 41 -80 41 -71 C40 -50 20 -35 -5 -35 C-32 -35 -54 -52 -59 -77 C-62 -88 -62 -106 -59 -123 C-48 -199 4 -241 87 -241 C184 -241 271 -174 290 -78 C302 -24 288 14 245 50 C230 62 216 71 211 87 C202 112 214 152 219 174 C229 219 217 240 182 240 C153 240 130 225 125 204 L117 166 Z " />
<glyph glyph-name="Agrave" unicode="&#xc0;" horiz-adv-x="650" d="M371 664 C374 661 384 659 392 659 C420 659 451 680 456 703 C457 708 455 714 455 717 C453 728 392 803 381 811 C378 814 368 816 360 816 C332 816 301 795 296 772 C295 767 296 761 297 758 C298 747 360 674 371 664 L371 664 Z M153 41 C160 54 167 68 175 84 L372 85 C375 61 376 50 377 40 L371 41 C343 41 311 19 306 -4 C302 -25 318 -41 343 -41 L493 -41 C522 -41 553 -19 558 4 C562 25 547 41 521 41 L482 41 C476 158 442 522 440 556 C439 576 440 606 434 621 C429 634 416 641 398 641 C377 641 355 630 343 614 C332 600 324 578 316 562 L257 445 C189 310 118 176 52 41 L21 41 C-8 41 -39 19 -44 -4 C-48 -25 -33 -41 -7 -41 L143 -41 C172 -41 203 -19 208 4 C212 25 197 41 171 41 L153 41 Z M216 166 C251 234 312 355 346 425 C349 398 358 275 366 165 L216 166 Z " />
<glyph glyph-name="Aacute" unicode="&#xc1;" horiz-adv-x="650" d="M355 696 C350 675 367 659 392 659 C400 659 411 661 419 665 C432 672 526 747 538 761 C542 765 546 773 547 779 C552 800 536 816 511 816 C503 816 491 814 483 810 C469 803 375 728 363 714 C359 710 356 702 355 696 L355 696 Z M153 41 C160 54 167 68 175 84 L372 85 C375 61 376 50 377 40 L371 41 C343 41 311 19 306 -4 C302 -25 318 -41 343 -41 L493 -41 C522 -41 553 -19 558 4 C562 25 547 41 521 41 L482 41 C476 158 442 522 440 556 C439 576 440 606 434 621 C429 634 416 641 398 641 C377 641 355 630 343 614 C332 600 324 578 316 562 L257 445 C189 310 118 176 52 41 L21 41 C-8 41 -39 19 -44 -4 C-48 -25 -33 -41 -7 -41 L143 -41 C172 -41 203 -19 208 4 C212 25 197 41 171 41 L153 41 Z M216 166 C251 234 312 355 346 425 C349 398 358 275 366 165 L216 166 Z " />
<glyph glyph-name="Acircumflex" unicode="&#xc2;" horiz-adv-x="650" d="M405 711 C422 690 435 660 467 660 C496 660 527 681 532 704 C533 709 534 714 531 718 C525 731 465 805 456 811 C453 814 443 816 435 816 C427 816 416 814 408 810 C395 803 301 728 289 714 C285 710 281 702 280 696 C275 675 291 660 317 660 C351 660 378 689 405 711 L405 711 Z M153 41 C160 54 167 68 175 84 L372 85 C375 61 376 50 377 40 L371 41 C343 41 311 19 306 -4 C302 -25 318 -41 343 -41 L493 -41 C522 -41 553 -19 558 4 C562 25 547 41 521 41 L482 41 C476 158 442 522 440 556 C439 576 440 606 434 621 C429 634 416 641 398 641 C377 641 355 630 343 614 C332 600 324 578 316 562 L257 445 C189 310 118 176 52 41 L21 41 C-8 41 -39 19 -44 -4 C-48 -25 -33 -41 -7 -41 L143 -41 C172 -41 203 -19 208 4 C212 25 197 41 171 41 L153 41 Z M216 166 C251 234 312 355 346 425 C349 398 358 275 366 165 L216 166 Z " />
<glyph glyph-name="Atilde" unicode="&#xc3;" horiz-adv-x="650" d="M360 707 C367 701 371 694 376 688 C391 669 416 660 444 660 C501 660 558 699 568 745 C574 774 560 791 529 791 C501 791 481 775 468 743 C461 749 457 757 450 764 C435 780 411 791 383 791 C327 791 270 751 260 705 C254 677 268 660 299 660 C327 660 347 675 360 707 L360 707 Z M153 41 C160 54 167 68 175 84 L372 85 C375 61 376 50 377 40 L371 41 C343 41 311 19 306 -4 C302 -25 318 -41 343 -41 L493 -41 C522 -41 553 -19 558 4 C562 25 547 41 521 41 L482 41 C476 158 442 522 440 556 C439 576 440 606 434 621 C429 634 416 641 398 641 C377 641 355 630 343 614 C332 600 324 578 316 562 L257 445 C189 310 118 176 52 41 L21 41 C-8 41 -39 19 -44 -4 C-48 -25 -33 -41 -7 -41 L143 -41 C172 -41 203 -19 208 4 C212 25 197 41 171 41 L153 41 Z M216 166 C251 234 312 355 346 425 C349 398 358 275 366 165 L216 166 Z " />
<glyph glyph-name="Adieresis" unicode="&#xc4;" horiz-adv-x="650" d="M305 696 C300 675 316 660 341 660 C371 660 402 681 407 704 L422 779 C427 800 411 816 386 816 C357 816 326 795 321 771 L305 696 Z M455 696 C451 676 467 660 492 660 C521 660 552 681 557 704 L572 779 C577 800 561 816 536 816 C507 816 476 795 471 771 L455 696 Z M153 41 C160 54 167 68 175 84 L372 85 C375 61 376 50 377 40 L371 41 C343 41 311 19 306 -4 C302 -25 318 -41 343 -41 L493 -41 C522 -41 553 -19 558 4 C562 25 547 41 521 41 L482 41 C476 158 442 522 440 556 C439 576 440 606 434 621 C429 634 416 641 398 641 C377 641 355 630 343 614 C332 600 324 578 316 562 L257 445 C189 310 118 176 52 41 L21 41 C-8 41 -39 19 -44 -4 C-48 -25 -33 -41 -7 -41 L143 -41 C172 -41 203 -19 208 4 C212 25 197 41 171 41 L153 41 Z M216 166 C251 234 312 355 346 425 C349 398 358 275 366 165 L216 166 Z " />
<glyph glyph-name="Aring" unicode="&#xc5;" horiz-adv-x="650" d="M153 41 C160 54 167 68 175 84 L372 85 C375 61 376 50 377 40 L371 41 C343 41 311 19 306 -4 C302 -25 318 -41 343 -41 L493 -41 C522 -41 553 -19 558 4 C562 25 547 41 521 41 L482 41 C476 158 442 522 440 556 C439 567 439 582 438 595 C486 616 523 656 533 703 C547 766 503 816 436 816 C364 816 292 760 278 693 C268 646 289 607 329 591 C324 581 320 571 316 562 L257 445 C189 310 118 176 52 41 L21 41 C-8 41 -39 19 -44 -4 C-48 -25 -33 -41 -7 -41 L143 -41 C172 -41 203 -19 208 4 C212 25 197 41 171 41 L153 41 Z M396 664 C383 669 376 684 380 701 C384 720 397 734 410 734 C426 734 436 714 431 693 C428 676 416 664 402 662 C400 662 399 663 396 664 L396 664 Z M216 166 C251 234 312 355 346 425 C349 398 358 275 366 165 L216 166 Z " />
<glyph glyph-name="AE" unicode="&#xc6;" horiz-adv-x="750" d="M306 60 C306 57 308 54 309 47 C322 -11 373 -41 443 -41 L568 -41 C597 -41 628 -19 633 6 C638 29 620 41 578 41 C571 41 564 41 557 41 L516 40 C509 40 502 40 502 40 C432 40 410 54 406 100 C406 107 406 113 405 118 C410 172 417 287 422 360 L554 360 C583 360 613 381 618 404 C622 425 607 441 581 441 L426 441 C429 487 431 528 433 560 L696 560 C725 560 756 581 760 604 C765 625 749 641 723 641 L398 641 C398 641 398 641 398 641 L396 640 C370 637 349 626 340 610 C330 595 323 577 316 562 L257 445 C189 310 118 176 52 41 L21 41 C-8 41 -39 19 -44 -4 C-48 -25 -33 -41 -7 -41 L118 -41 C147 -41 178 -19 183 4 C187 22 175 36 153 40 C156 46 159 52 163 59 L306 60 Z M204 141 C252 237 307 347 321 374 L309 188 C308 180 306 161 305 141 L204 141 Z " />
<glyph glyph-name="Ccedilla" unicode="&#xc7;" horiz-adv-x="550" d="M17 101 C29 9 91 -41 193 -41 C210 -41 226 -40 242 -37 C243 -37 244 -38 245 -38 C252 -40 256 -39 258 -40 C260 -41 261 -48 259 -55 L250 -100 C250 -95 252 -91 251 -85 C249 -70 233 -59 214 -59 C183 -59 153 -83 147 -114 C138 -157 172 -191 225 -191 C284 -191 339 -149 351 -96 L361 -46 C366 -25 363 -7 354 8 C403 43 456 110 468 171 C474 198 460 216 433 216 C408 216 384 201 372 179 C366 167 363 152 355 131 C332 73 284 41 224 41 C145 41 103 97 120 179 L173 428 C190 506 252 560 326 560 C387 560 424 524 425 465 C425 433 414 405 434 392 C441 388 449 385 458 385 C490 385 519 408 525 438 C528 452 528 477 525 499 C512 591 450 641 348 641 C242 641 152 588 100 493 C87 468 76 442 72 421 L18 171 C14 150 14 125 17 101 L17 101 Z " />
<glyph glyph-name="Egrave" unicode="&#xc8;" horiz-adv-x="575" d="M371 664 C374 661 384 659 392 659 C420 659 451 680 456 703 C457 708 455 714 455 717 C453 728 392 803 381 811 C378 814 368 816 360 816 C332 816 301 795 296 772 C295 767 296 761 297 758 C298 747 360 674 371 664 L371 664 Z M234 360 L354 360 C383 360 413 381 418 404 C422 425 407 441 381 441 L251 441 L276 560 C350 560 423 559 458 559 C546 559 578 570 585 602 C590 625 574 641 548 641 L173 641 C144 641 114 619 109 596 C104 575 120 560 146 560 L176 560 L72 71 C58 6 98 -41 168 -41 L393 -41 C422 -41 453 -19 458 6 C464 32 443 41 374 41 C337 41 273 40 249 40 C182 40 167 48 174 80 L234 360 Z " />
<glyph glyph-name="Eacute" unicode="&#xc9;" horiz-adv-x="575" d="M355 696 C350 675 367 659 392 659 C400 659 411 661 419 665 C432 672 526 747 538 761 C542 765 546 773 547 779 C552 800 536 816 511 816 C503 816 491 814 483 810 C469 803 375 728 363 714 C359 710 356 702 355 696 L355 696 Z M234 360 L354 360 C383 360 413 381 418 404 C422 425 407 441 381 441 L251 441 L276 560 C350 560 423 559 458 559 C546 559 578 570 585 602 C590 625 574 641 548 641 L173 641 C144 641 114 619 109 596 C104 575 120 560 146 560 L176 560 L72 71 C58 6 98 -41 168 -41 L393 -41 C422 -41 453 -19 458 6 C464 32 443 41 374 41 C337 41 273 40 249 40 C182 40 167 48 174 80 L234 360 Z " />
<glyph glyph-name="Ecircumflex" unicode="&#xca;" horiz-adv-x="550" d="M380 711 C397 690 410 660 442 660 C471 660 502 681 507 704 C508 709 509 714 506 718 C500 731 440 805 431 811 C428 814 418 816 410 816 C402 816 391 814 383 810 C370 803 276 728 264 714 C260 710 256 702 255 696 C250 675 266 660 292 660 C326 660 353 689 380 711 L380 711 Z M209 360 L329 360 C358 360 388 381 393 404 C397 425 382 441 356 441 L226 441 L251 560 C325 560 398 559 433 559 C521 559 553 570 560 602 C565 625 549 641 523 641 L148 641 C119 641 89 619 84 596 C79 575 95 560 121 560 L151 560 L47 71 C33 6 73 -41 143 -41 L368 -41 C397 -41 428 -19 433 6 C439 32 418 41 349 41 C312 41 248 40 224 40 C157 40 142 48 149 80 L209 360 Z " />
<glyph glyph-name="Edieresis" unicode="&#xcb;" horiz-adv-x="550" d="M230 696 C225 675 241 660 266 660 C296 660 327 681 332 704 L347 779 C352 800 336 816 311 816 C282 816 251 795 246 771 L230 696 Z M380 696 C376 676 392 660 417 660 C446 660 477 681 482 704 L497 779 C502 800 486 816 461 816 C432 816 401 795 396 771 L380 696 Z M209 360 L329 360 C358 360 388 381 393 404 C397 425 382 441 356 441 L226 441 L251 560 C325 560 398 559 433 559 C521 559 553 570 560 602 C565 625 549 641 523 641 L148 641 C119 641 89 619 84 596 C79 575 95 560 121 560 L151 560 L47 71 C33 6 73 -41 143 -41 L368 -41 C397 -41 428 -19 433 6 C439 32 418 41 349 41 C312 41 248 40 224 40 C157 40 142 48 149 80 L209 360 Z " />
<glyph glyph-name="Igrave" unicode="&#xcc;" horiz-adv-x="300" d="M196 664 C199 661 209 659 217 659 C245 659 276 680 281 703 C282 708 280 714 280 717 C278 728 217 803 206 811 C203 814 193 816 185 816 C157 816 126 795 121 772 C120 767 121 761 122 758 C123 747 185 674 196 664 L196 664 Z M41 41 L21 41 C-8 41 -39 19 -44 -4 C-48 -25 -33 -41 -7 -41 L143 -41 C172 -41 203 -19 208 4 C212 25 197 41 171 41 L141 41 L251 560 L271 560 C300 560 331 581 335 604 C340 625 324 641 298 641 L148 641 C119 641 89 619 84 596 C79 575 95 560 121 560 L151 560 L41 41 Z " />
<glyph glyph-name="Iacute" unicode="&#xcd;" horiz-adv-x="300" d="M180 696 C175 675 192 659 217 659 C225 659 236 661 244 665 C257 672 351 747 363 761 C367 765 371 773 372 779 C377 800 361 816 336 816 C328 816 316 814 308 810 C294 803 200 728 188 714 C184 710 181 702 180 696 L180 696 Z M41 41 L21 41 C-8 41 -39 19 -44 -4 C-48 -25 -33 -41 -7 -41 L143 -41 C172 -41 203 -19 208 4 C212 25 197 41 171 41 L141 41 L251 560 L271 560 C300 560 331 581 335 604 C340 625 324 641 298 641 L148 641 C119 641 89 619 84 596 C79 575 95 560 121 560 L151 560 L41 41 Z " />
<glyph glyph-name="Icircumflex" unicode="&#xce;" horiz-adv-x="300" d="M230 711 C247 690 260 660 292 660 C321 660 352 681 357 704 C358 709 359 714 356 718 C350 731 290 805 281 811 C278 814 268 816 260 816 C252 816 241 814 233 810 C220 803 126 728 114 714 C110 710 106 702 105 696 C100 675 116 660 142 660 C176 660 203 689 230 711 L230 711 Z M41 41 L21 41 C-8 41 -39 19 -44 -4 C-48 -25 -33 -41 -7 -41 L143 -41 C172 -41 203 -19 208 4 C212 25 197 41 171 41 L141 41 L251 560 L271 560 C300 560 331 581 335 604 C340 625 324 641 298 641 L148 641 C119 641 89 619 84 596 C79 575 95 560 121 560 L151 560 L41 41 Z " />
<glyph glyph-name="Idieresis" unicode="&#xcf;" horiz-adv-x="300" d="M105 696 C100 675 116 660 141 660 C171 660 202 681 207 704 L222 779 C227 800 211 816 186 816 C157 816 126 795 121 771 L105 696 Z M255 696 C251 676 267 660 292 660 C321 660 352 681 357 704 L372 779 C377 800 361 816 336 816 C307 816 276 795 271 771 L255 696 Z M41 41 L21 41 C-8 41 -39 19 -44 -4 C-48 -25 -33 -41 -7 -41 L143 -41 C172 -41 203 -19 208 4 C212 25 197 41 171 41 L141 41 L251 560 L271 560 C300 560 331 581 335 604 C340 625 324 641 298 641 L148 641 C119 641 89 619 84 596 C79 575 95 560 121 560 L151 560 L41 41 Z " />
<glyph glyph-name="Eth" unicode="&#xd0;" horiz-adv-x="600" d="M151 560 L122 423 C112 416 105 406 103 396 C101 386 104 377 111 370 L31 -4 C27 -25 43 -41 68 -41 C90 -41 115 -28 124 -13 C134 3 142 46 145 62 L209 360 L341 360 C370 360 400 381 405 404 C410 425 394 441 368 441 L226 441 L251 560 L371 560 C448 560 489 503 472 421 L413 147 C410 131 400 112 387 94 C347 38 300 41 265 41 C196 41 163 28 157 -1 C152 -24 167 -41 193 -41 L242 -41 C339 -41 420 -2 473 68 C493 96 509 128 515 154 L573 429 C578 451 578 477 575 502 C562 592 500 641 398 641 L148 641 C119 641 89 619 84 596 C79 575 95 560 121 560 L151 560 Z " />
<glyph glyph-name="Ntilde" unicode="&#xd1;" horiz-adv-x="650" d="M360 707 C367 701 371 694 376 688 C391 669 416 660 444 660 C501 660 558 699 568 745 C574 774 560 791 529 791 C501 791 481 775 468 743 C461 749 457 757 450 764 C435 780 411 791 383 791 C327 791 270 751 260 705 C254 677 268 660 299 660 C327 660 347 675 360 707 L360 707 Z M41 41 L21 41 C-8 41 -39 19 -44 -4 C-48 -25 -33 -41 -7 -41 L143 -41 C172 -41 203 -19 208 4 C212 25 197 41 171 41 L141 41 C142 47 143 53 144 57 L240 508 L445 335 C448 333 450 331 453 329 L391 41 L371 41 C343 41 311 19 306 -4 C302 -25 318 -41 343 -41 L493 -41 C522 -41 553 -19 558 4 C562 25 547 41 521 41 L491 41 C492 49 494 57 495 62 L601 560 L616 559 C649 559 680 579 685 604 C690 625 674 641 648 641 L573 641 C545 641 514 619 509 596 L476 442 L295 594 C279 607 264 623 248 633 C239 638 231 641 222 641 C194 641 164 619 159 596 L41 41 Z " />
<glyph glyph-name="Ograve" unicode="&#xd2;" horiz-adv-x="550" d="M321 664 C324 661 334 659 342 659 C370 659 401 680 406 703 C407 708 405 714 405 717 C403 728 342 803 331 811 C328 814 318 816 310 816 C282 816 251 795 246 772 C245 767 246 761 247 758 C248 747 310 674 321 664 L321 664 Z M16 100 C28 8 91 -41 193 -41 C299 -41 390 12 442 107 C455 132 466 158 470 179 L523 429 C528 450 529 474 525 500 C513 592 451 641 349 641 C242 641 152 588 100 493 C87 468 76 442 72 421 L18 171 C14 150 13 126 16 100 L16 100 Z M224 41 C145 41 103 97 120 179 L173 428 C190 506 252 560 327 560 C412 560 438 494 408 353 C403 331 387 260 373 191 C357 112 315 41 224 41 L224 41 Z " />
<glyph glyph-name="Oacute" unicode="&#xd3;" horiz-adv-x="550" d="M305 696 C300 675 317 659 342 659 C350 659 361 661 369 665 C382 672 476 747 488 761 C492 765 496 773 497 779 C502 800 486 816 461 816 C453 816 441 814 433 810 C419 803 325 728 313 714 C309 710 306 702 305 696 L305 696 Z M16 100 C28 8 91 -41 193 -41 C299 -41 390 12 442 107 C455 132 466 158 470 179 L523 429 C528 450 529 474 525 500 C513 592 451 641 349 641 C242 641 152 588 100 493 C87 468 76 442 72 421 L18 171 C14 150 13 126 16 100 L16 100 Z M224 41 C145 41 103 97 120 179 L173 428 C190 506 252 560 327 560 C412 560 438 494 408 353 C403 331 387 260 373 191 C357 112 315 41 224 41 L224 41 Z " />
<glyph glyph-name="Ocircumflex" unicode="&#xd4;" horiz-adv-x="550" d="M355 711 C372 690 385 660 417 660 C446 660 477 681 482 704 C483 709 484 714 481 718 C475 731 415 805 406 811 C403 814 393 816 385 816 C377 816 366 814 358 810 C345 803 251 728 239 714 C235 710 231 702 230 696 C225 675 241 660 267 660 C301 660 328 689 355 711 L355 711 Z M16 100 C28 8 91 -41 193 -41 C299 -41 390 12 442 107 C455 132 466 158 470 179 L523 429 C528 450 529 474 525 500 C513 592 451 641 349 641 C242 641 152 588 100 493 C87 468 76 442 72 421 L18 171 C14 150 13 126 16 100 L16 100 Z M224 41 C145 41 103 97 120 179 L173 428 C190 506 252 560 327 560 C412 560 438 494 408 353 C403 331 387 260 373 191 C357 112 315 41 224 41 L224 41 Z " />
<glyph glyph-name="Otilde" unicode="&#xd5;" horiz-adv-x="550" d="M310 707 C317 701 321 694 326 688 C341 669 366 660 394 660 C451 660 508 699 518 745 C524 774 510 791 479 791 C451 791 431 775 418 743 C411 749 407 757 400 764 C385 780 361 791 333 791 C277 791 220 751 210 705 C204 677 218 660 249 660 C277 660 297 675 310 707 L310 707 Z M16 100 C28 8 91 -41 193 -41 C299 -41 390 12 442 107 C455 132 466 158 470 179 L523 429 C528 450 529 474 525 500 C513 592 451 641 349 641 C242 641 152 588 100 493 C87 468 76 442 72 421 L18 171 C14 150 13 126 16 100 L16 100 Z M224 41 C145 41 103 97 120 179 L173 428 C190 506 252 560 327 560 C412 560 438 494 408 353 C403 331 387 260 373 191 C357 112 315 41 224 41 L224 41 Z " />
<glyph glyph-name="Odieresis" unicode="&#xd6;" horiz-adv-x="550" d="M230 696 C225 675 241 660 266 660 C296 660 327 681 332 704 L347 779 C352 800 336 816 311 816 C282 816 251 795 246 771 L230 696 Z M380 696 C376 676 392 660 417 660 C446 660 477 681 482 704 L497 779 C502 800 486 816 461 816 C432 816 401 795 396 771 L380 696 Z M16 100 C28 8 91 -41 193 -41 C299 -41 390 12 442 107 C455 132 466 158 470 179 L523 429 C528 450 529 474 525 500 C513 592 451 641 349 641 C242 641 152 588 100 493 C87 468 76 442 72 421 L18 171 C14 150 13 126 16 100 L16 100 Z M224 41 C145 41 103 97 120 179 L173 428 C190 506 252 560 327 560 C412 560 438 494 408 353 C403 331 387 260 373 191 C357 112 315 41 224 41 L224 41 Z " />
<glyph glyph-name="multiply" unicode="&#xd7;" horiz-adv-x="400" d="M145 248 C100 211 57 174 49 166 C44 161 41 154 39 146 C35 125 51 110 78 110 C89 110 101 113 108 117 C116 121 146 145 194 185 C224 149 247 119 253 115 C257 113 265 110 274 110 C304 110 336 130 341 154 C342 162 340 166 340 168 C337 175 315 204 278 252 C322 289 365 326 373 334 C378 339 382 347 383 354 C388 375 371 391 345 391 C336 391 324 388 316 384 C307 379 277 355 228 315 C199 351 175 381 169 386 C165 390 155 391 147 391 C118 391 87 370 82 346 C80 338 82 334 83 332 C85 325 107 296 145 248 L145 248 Z " />
<glyph glyph-name="Oslash" unicode="&#xd8;" horiz-adv-x="550" d="M16 100 C21 62 35 32 56 9 C28 -45 0 -100 -3 -113 C-6 -128 14 -141 39 -141 C66 -141 86 -126 103 -94 L134 -35 C152 -39 172 -41 193 -41 C299 -41 390 12 442 107 C455 132 466 158 470 179 L523 429 C528 450 529 474 525 500 C519 546 501 581 471 605 C497 654 520 701 523 713 C526 728 506 741 481 741 C454 741 433 726 417 694 L387 638 C375 640 363 641 349 641 C242 641 152 588 100 493 C87 468 76 442 72 421 L18 171 C14 150 13 126 16 100 L16 100 Z M118 124 C115 140 116 159 120 179 L173 428 C190 506 252 560 327 560 C334 560 340 560 346 559 L118 124 Z M224 41 C207 41 191 44 178 49 L402 477 C404 481 407 486 411 494 C424 465 422 417 408 353 C403 331 387 260 373 191 C357 112 315 41 224 41 L224 41 Z " />
<glyph glyph-name="Ugrave" unicode="&#xd9;" horiz-adv-x="650" d="M371 664 C374 661 384 659 392 659 C420 659 451 680 456 703 C457 708 455 714 455 717 C453 728 392 803 381 811 C378 814 368 816 360 816 C332 816 301 795 296 772 C295 767 296 761 297 758 C298 747 360 674 371 664 L371 664 Z M151 560 L68 171 C64 149 63 123 67 98 C80 8 141 -41 243 -41 C349 -41 438 11 490 104 C505 130 515 157 520 179 L601 560 L621 560 C650 560 681 581 685 604 C690 625 674 641 648 641 L498 641 C470 641 439 619 434 596 C430 576 446 560 471 560 L501 560 C475 436 449 311 443 280 C406 106 359 41 271 41 C201 41 164 82 168 155 C169 179 175 200 179 222 L244 525 C246 537 249 548 251 560 L271 560 C300 560 331 581 335 604 C340 625 324 641 298 641 L148 641 C119 641 89 619 84 596 C79 575 95 560 121 560 L151 560 Z " />
<glyph glyph-name="Uacute" unicode="&#xda;" horiz-adv-x="650" d="M355 696 C350 675 367 659 392 659 C400 659 411 661 419 665 C432 672 526 747 538 761 C542 765 546 773 547 779 C552 800 536 816 511 816 C503 816 491 814 483 810 C469 803 375 728 363 714 C359 710 356 702 355 696 L355 696 Z M151 560 L68 171 C64 149 63 123 67 98 C80 8 141 -41 243 -41 C349 -41 438 11 490 104 C505 130 515 157 520 179 L601 560 L621 560 C650 560 681 581 685 604 C690 625 674 641 648 641 L498 641 C470 641 439 619 434 596 C430 576 446 560 471 560 L501 560 C475 436 449 311 443 280 C406 106 359 41 271 41 C201 41 164 82 168 155 C169 179 175 200 179 222 L244 525 C246 537 249 548 251 560 L271 560 C300 560 331 581 335 604 C340 625 324 641 298 641 L148 641 C119 641 89 619 84 596 C79 575 95 560 121 560 L151 560 Z " />
<glyph glyph-name="Ucircumflex" unicode="&#xdb;" horiz-adv-x="650" d="M405 711 C422 690 435 660 467 660 C496 660 527 681 532 704 C533 709 534 714 531 718 C525 731 465 805 456 811 C453 814 443 816 435 816 C427 816 416 814 408 810 C395 803 301 728 289 714 C285 710 281 702 280 696 C275 675 291 660 317 660 C351 660 378 689 405 711 L405 711 Z M151 560 L68 171 C64 149 63 123 67 98 C80 8 141 -41 243 -41 C349 -41 438 11 490 104 C505 130 515 157 520 179 L601 560 L621 560 C650 560 681 581 685 604 C690 625 674 641 648 641 L498 641 C470 641 439 619 434 596 C430 576 446 560 471 560 L501 560 C475 436 449 311 443 280 C406 106 359 41 271 41 C201 41 164 82 168 155 C169 179 175 200 179 222 L244 525 C246 537 249 548 251 560 L271 560 C300 560 331 581 335 604 C340 625 324 641 298 641 L148 641 C119 641 89 619 84 596 C79 575 95 560 121 560 L151 560 Z " />
<glyph glyph-name="Udieresis" unicode="&#xdc;" horiz-adv-x="650" d="M280 696 C275 675 291 660 316 660 C346 660 377 681 382 704 L397 779 C402 800 386 816 361 816 C332 816 301 795 296 771 L280 696 Z M430 696 C426 676 442 660 467 660 C496 660 527 681 532 704 L547 779 C552 800 536 816 511 816 C482 816 451 795 446 771 L430 696 Z M151 560 L68 171 C64 149 63 123 67 98 C80 8 141 -41 243 -41 C349 -41 438 11 490 104 C505 130 515 157 520 179 L601 560 L621 560 C650 560 681 581 685 604 C690 625 674 641 648 641 L498 641 C470 641 439 619 434 596 C430 576 446 560 471 560 L501 560 C475 436 449 311 443 280 C406 106 359 41 271 41 C201 41 164 82 168 155 C169 179 175 200 179 222 L244 525 C246 537 249 548 251 560 L271 560 C300 560 331 581 335 604 C340 625 324 641 298 641 L148 641 C119 641 89 619 84 596 C79 575 95 560 121 560 L151 560 Z " />
<glyph glyph-name="Yacute" unicode="&#xdd;" horiz-adv-x="600" d="M330 696 C325 675 342 659 367 659 C375 659 386 661 394 665 C407 672 501 747 513 761 C517 765 521 773 522 779 C527 800 511 816 486 816 C478 816 466 814 458 810 C444 803 350 728 338 714 C334 710 331 702 330 696 L330 696 Z M191 41 L171 41 C143 41 111 19 106 -4 C102 -25 118 -41 143 -41 L293 -41 C322 -41 353 -19 358 4 C362 25 347 41 321 41 L291 41 L365 389 C376 401 383 407 389 413 L539 555 C540 556 543 559 544 560 L571 560 C600 560 631 581 635 604 C640 625 624 641 598 641 L448 641 C420 641 389 619 384 596 C380 576 396 560 421 560 L428 560 L334 470 L275 560 C303 561 331 581 335 604 C340 625 324 641 298 641 L148 641 C119 641 89 619 84 596 C79 575 95 560 121 560 L147 560 C171 522 237 423 264 383 L191 41 Z " />
<glyph glyph-name="Thorn" unicode="&#xde;" horiz-adv-x="425" d="M170 360 L240 360 C288 360 312 324 301 271 L290 222 C279 171 248 143 202 141 C197 141 191 140 185 138 C164 134 145 118 139 98 C134 73 152 60 191 60 C262 60 331 103 370 176 C382 196 389 214 392 229 L402 279 C405 293 406 310 404 328 C395 402 347 441 267 441 L187 441 L200 504 C205 525 189 541 164 541 C135 541 104 520 98 496 L-8 -4 C-12 -25 4 -41 30 -41 C50 -41 75 -30 83 -17 C98 5 113 96 119 120 L170 360 Z " />
<glyph glyph-name="germandbls" unicode="&#xdf;" horiz-adv-x="600" d="M109 360 L31 -4 C27 -25 43 -41 68 -41 C89 -41 114 -29 124 -15 C133 -2 137 23 139 33 C165 157 192 281 218 404 C218 406 218 407 218 408 C222 427 226 447 226 447 C243 525 272 560 322 560 L407 560 L301 462 C284 446 246 419 240 391 C232 351 297 360 331 360 C415 360 446 303 424 195 C404 103 358 50 291 42 C274 40 255 41 243 41 C195 41 162 25 157 -2 C152 -24 168 -41 193 -41 L243 -41 C385 -41 493 53 526 206 C554 337 506 420 392 438 L392 439 L499 537 C517 553 556 581 561 607 C565 626 548 641 523 641 L348 641 C265 641 195 600 153 524 C142 504 135 486 132 471 L126 441 L106 441 C78 441 46 419 41 396 C37 375 53 360 79 360 L109 360 Z " />
<glyph glyph-name="agrave" unicode="&#xe0;" horiz-adv-x="450" d="M233 489 C236 486 246 484 254 484 C282 484 313 505 318 528 C319 533 317 539 317 542 C315 553 254 628 243 636 C240 639 230 641 222 641 C194 641 163 620 158 597 C157 592 158 586 159 583 C160 572 222 499 233 489 L233 489 Z M252 -3 C248 -24 264 -40 289 -40 C318 -40 349 -18 354 5 L439 404 C443 426 428 442 402 442 L277 442 C175 442 81 368 61 271 L34 147 C12 42 61 -41 147 -41 C189 -41 223 -23 229 3 C233 22 221 36 199 40 C194 41 187 41 180 42 C143 47 124 99 136 155 L162 278 C165 293 173 309 182 323 C207 362 232 361 261 361 C291 361 310 360 329 360 L252 -3 Z " />
<glyph glyph-name="aacute" unicode="&#xe1;" horiz-adv-x="450" d="M217 521 C212 500 229 484 254 484 C262 484 273 486 281 490 C294 497 388 572 400 586 C404 590 408 598 409 604 C414 625 398 641 373 641 C365 641 353 639 345 635 C331 628 237 553 225 539 C221 535 218 527 217 521 L217 521 Z M252 -3 C248 -24 264 -40 289 -40 C318 -40 349 -18 354 5 L439 404 C443 426 428 442 402 442 L277 442 C175 442 81 368 61 271 L34 147 C12 42 61 -41 147 -41 C189 -41 223 -23 229 3 C233 22 221 36 199 40 C194 41 187 41 180 42 C143 47 124 99 136 155 L162 278 C165 293 173 309 182 323 C207 362 232 361 261 361 C291 361 310 360 329 360 L252 -3 Z " />
<glyph glyph-name="acircumflex" unicode="&#xe2;" horiz-adv-x="450" d="M293 536 C310 515 323 485 355 485 C384 485 415 506 420 529 C421 534 422 539 419 543 C413 556 353 630 344 636 C341 639 331 641 323 641 C315 641 304 639 296 635 C283 628 189 553 177 539 C173 535 169 527 168 521 C163 500 179 485 205 485 C239 485 266 514 293 536 L293 536 Z M252 -3 C248 -24 264 -40 289 -40 C318 -40 349 -18 354 5 L439 404 C443 426 428 442 402 442 L277 442 C175 442 81 368 61 271 L34 147 C12 42 61 -41 147 -41 C189 -41 223 -23 229 3 C233 22 221 36 199 40 C194 41 187 41 180 42 C143 47 124 99 136 155 L162 278 C165 293 173 309 182 323 C207 362 232 361 261 361 C291 361 310 360 329 360 L252 -3 Z " />
<glyph glyph-name="atilde" unicode="&#xe3;" horiz-adv-x="450" d="M248 532 C255 526 259 519 264 513 C279 494 304 485 332 485 C389 485 446 524 456 570 C462 599 448 616 417 616 C389 616 369 600 356 568 C349 574 345 582 338 589 C323 605 299 616 271 616 C215 616 158 576 148 530 C142 502 156 485 187 485 C215 485 235 500 248 532 L248 532 Z M252 -3 C248 -24 264 -40 289 -40 C318 -40 349 -18 354 5 L439 404 C443 426 428 442 402 442 L277 442 C175 442 81 368 61 271 L34 147 C12 42 61 -41 147 -41 C189 -41 223 -23 229 3 C233 22 221 36 199 40 C194 41 187 41 180 42 C143 47 124 99 136 155 L162 278 C165 293 173 309 182 323 C207 362 232 361 261 361 C291 361 310 360 329 360 L252 -3 Z " />
<glyph glyph-name="adieresis" unicode="&#xe4;" horiz-adv-x="450" d="M168 521 C163 500 179 485 204 485 C234 485 265 506 270 529 L285 604 C290 625 274 641 249 641 C220 641 189 620 184 596 L168 521 Z M318 521 C314 501 330 485 355 485 C384 485 415 506 420 529 L435 604 C440 625 424 641 399 641 C370 641 339 620 334 596 L318 521 Z M252 -3 C248 -24 264 -40 289 -40 C318 -40 349 -18 354 5 L439 404 C443 426 428 442 402 442 L277 442 C175 442 81 368 61 271 L34 147 C12 42 61 -41 147 -41 C189 -41 223 -23 229 3 C233 22 221 36 199 40 C194 41 187 41 180 42 C143 47 124 99 136 155 L162 278 C165 293 173 309 182 323 C207 362 232 361 261 361 C291 361 310 360 329 360 L252 -3 Z " />
<glyph glyph-name="aring" unicode="&#xe5;" horiz-adv-x="450" d="M252 -3 C248 -24 264 -40 289 -40 C318 -40 349 -18 354 5 L439 404 C443 426 428 442 402 442 L339 442 C368 464 389 494 396 528 C410 591 366 641 299 641 C227 641 155 585 141 518 C132 475 149 439 182 420 C122 391 74 336 61 271 L34 147 C12 42 61 -41 147 -41 C189 -41 223 -23 229 3 C233 22 221 36 199 40 C194 41 187 41 180 42 C143 47 124 99 136 155 L162 278 C165 293 173 309 182 323 C207 362 232 361 261 361 C291 361 310 360 329 360 L252 -3 Z M259 489 C246 494 239 509 243 526 C247 545 260 559 273 559 C289 559 299 539 294 518 C291 501 279 489 265 487 C263 487 262 488 259 489 L259 489 Z " />
<glyph glyph-name="ae" unicode="&#xe6;" horiz-adv-x="727" d="M414 160 L607 160 C633 160 660 176 669 196 C675 211 686 263 686 263 C692 290 694 311 691 332 C679 401 636 439 563 441 C560 442 556 442 552 442 L277 442 C175 442 81 368 61 271 L34 147 C12 42 61 -41 147 -41 C189 -41 223 -23 229 3 C233 22 221 36 199 40 C194 41 187 41 180 42 C142 48 124 97 136 155 L162 278 C168 308 191 342 212 353 C238 366 286 361 312 361 L382 361 C363 339 349 313 341 284 C339 280 337 276 336 271 L320 196 C319 193 319 189 319 185 L306 121 C303 106 303 88 305 71 C316 -2 362 -41 441 -41 L489 -41 C518 -41 549 -18 555 7 C563 49 503 40 476 40 C424 40 396 76 407 129 L414 160 Z M431 241 L439 279 C450 330 483 360 526 360 C573 360 599 323 588 271 C586 261 583 251 581 241 L431 241 Z " />
<glyph glyph-name="ccedilla" unicode="&#xe7;" horiz-adv-x="450" d="M27 72 C37 -2 84 -41 164 -41 C175 -41 186 -40 197 -39 C202 -40 205 -39 207 -40 C209 -41 210 -48 208 -55 L199 -100 C199 -95 201 -91 200 -85 C198 -70 182 -59 163 -59 C132 -59 102 -83 96 -114 C87 -157 121 -191 174 -191 C233 -191 288 -149 300 -96 L310 -46 C315 -25 312 -6 303 9 C333 34 371 84 379 124 C385 149 370 166 343 166 C319 166 291 150 282 129 C278 120 276 110 270 97 C253 59 230 41 194 41 C145 41 119 77 131 129 L162 278 C173 328 208 360 252 360 C290 360 312 337 312 297 C313 284 310 274 311 266 C312 247 326 235 348 235 C378 235 408 258 414 285 C416 295 416 311 414 328 C404 402 357 441 277 441 C194 441 125 397 82 323 C71 305 64 287 61 271 L29 121 C26 107 25 90 27 72 L27 72 Z " />
<glyph glyph-name="egrave" unicode="&#xe8;" horiz-adv-x="450" d="M234 489 C237 486 247 484 255 484 C283 484 314 505 319 528 C320 533 318 539 318 542 C316 553 255 628 244 636 C241 639 231 641 223 641 C195 641 164 620 159 597 C158 592 159 586 160 583 C161 572 223 499 234 489 L234 489 Z M340 159 C371 159 389 177 397 214 C399 228 406 250 410 266 C431 366 369 441 264 441 C165 441 83 375 62 279 L30 129 C27 114 26 96 29 76 C38 0 91 -41 174 -41 L222 -41 C248 -41 271 -25 275 -3 C281 23 258 41 219 41 C216 41 214 41 211 41 L196 40 C193 40 191 40 189 40 C141 40 118 71 129 122 L137 159 L340 159 Z M161 271 C172 324 210 359 257 359 C301 359 323 327 311 275 C309 265 306 252 303 240 L154 240 L161 271 Z " />
<glyph glyph-name="eacute" unicode="&#xe9;" horiz-adv-x="450" d="M218 521 C213 500 230 484 255 484 C263 484 274 486 282 490 C295 497 389 572 401 586 C405 590 409 598 410 604 C415 625 399 641 374 641 C366 641 354 639 346 635 C332 628 238 553 226 539 C222 535 219 527 218 521 L218 521 Z M340 159 C371 159 389 177 397 214 C399 228 406 250 410 266 C431 366 369 441 264 441 C165 441 83 375 62 279 L30 129 C27 114 26 96 29 76 C38 0 91 -41 174 -41 L222 -41 C248 -41 271 -25 275 -3 C281 23 258 41 219 41 C216 41 214 41 211 41 L196 40 C193 40 191 40 189 40 C141 40 118 71 129 122 L137 159 L340 159 Z M161 271 C172 324 210 359 257 359 C301 359 323 327 311 275 C309 265 306 252 303 240 L154 240 L161 271 Z " />
<glyph glyph-name="ecircumflex" unicode="&#xea;" horiz-adv-x="450" d="M268 536 C285 515 298 485 330 485 C359 485 390 506 395 529 C396 534 397 539 394 543 C388 556 328 630 319 636 C316 639 306 641 298 641 C290 641 279 639 271 635 C258 628 164 553 152 539 C148 535 144 527 143 521 C138 500 154 485 180 485 C214 485 241 514 268 536 L268 536 Z M340 159 C371 159 389 177 397 214 C399 228 406 250 410 266 C431 366 369 441 264 441 C165 441 83 375 62 279 L30 129 C27 114 26 96 29 76 C38 0 91 -41 174 -41 L222 -41 C248 -41 271 -25 275 -3 C281 23 258 41 219 41 C216 41 214 41 211 41 L196 40 C193 40 191 40 189 40 C141 40 118 71 129 122 L137 159 L340 159 Z M161 271 C172 324 210 359 257 359 C301 359 323 327 311 275 C309 265 306 252 303 240 L154 240 L161 271 Z " />
<glyph glyph-name="edieresis" unicode="&#xeb;" horiz-adv-x="450" d="M143 521 C138 500 154 485 179 485 C209 485 240 506 245 529 L260 604 C265 625 249 641 224 641 C195 641 164 620 159 596 L143 521 Z M293 521 C289 501 305 485 330 485 C359 485 390 506 395 529 L410 604 C415 625 399 641 374 641 C345 641 314 620 309 596 L293 521 Z M340 159 C371 159 389 177 397 214 C399 228 406 250 410 266 C431 366 369 441 264 441 C165 441 83 375 62 279 L30 129 C27 114 26 96 29 76 C38 0 91 -41 174 -41 L222 -41 C248 -41 271 -25 275 -3 C281 23 258 41 219 41 C216 41 214 41 211 41 L196 40 C193 40 191 40 189 40 C141 40 118 71 129 122 L137 159 L340 159 Z M161 271 C172 324 210 359 257 359 C301 359 323 327 311 275 C309 265 306 252 303 240 L154 240 L161 271 Z " />
<glyph glyph-name="igrave" unicode="&#xec;" horiz-adv-x="300" d="M134 489 C137 486 147 484 155 484 C183 484 214 505 219 528 C220 533 218 539 218 542 C216 553 155 628 144 636 C141 639 131 641 123 641 C95 641 64 620 59 597 C58 592 59 586 60 583 C61 572 123 499 134 489 L134 489 Z M162 41 L239 404 C243 425 228 441 202 441 L127 441 C98 441 67 418 62 393 C54 356 102 360 130 360 C107 254 84 147 62 41 L42 41 C13 41 -18 19 -23 -4 C-27 -25 -12 -41 14 -41 L164 -41 C193 -41 224 -19 229 4 C233 25 218 41 192 41 L162 41 Z " />
<glyph glyph-name="iacute" unicode="&#xed;" horiz-adv-x="300" d="M143 521 C138 500 155 484 180 484 C188 484 199 486 207 490 C220 497 314 572 326 586 C330 590 334 598 335 604 C340 625 324 641 299 641 C291 641 279 639 271 635 C257 628 163 553 151 539 C147 535 144 527 143 521 L143 521 Z M162 41 L239 404 C243 425 228 441 202 441 L127 441 C98 441 67 418 62 393 C54 356 102 360 130 360 C107 254 84 147 62 41 L42 41 C13 41 -18 19 -23 -4 C-27 -25 -12 -41 14 -41 L164 -41 C193 -41 224 -19 229 4 C233 25 218 41 192 41 L162 41 Z " />
<glyph glyph-name="icircumflex" unicode="&#xee;" horiz-adv-x="300" d="M168 536 C185 515 198 485 230 485 C259 485 290 506 295 529 C296 534 297 539 294 543 C288 556 228 630 219 636 C216 639 206 641 198 641 C190 641 179 639 171 635 C158 628 64 553 52 539 C48 535 44 527 43 521 C38 500 54 485 80 485 C114 485 141 514 168 536 L168 536 Z M162 41 L239 404 C243 425 228 441 202 441 L127 441 C98 441 67 418 62 393 C54 356 102 360 130 360 C107 254 84 147 62 41 L42 41 C13 41 -18 19 -23 -4 C-27 -25 -12 -41 14 -41 L164 -41 C193 -41 224 -19 229 4 C233 25 218 41 192 41 L162 41 Z " />
<glyph glyph-name="idieresis" unicode="&#xef;" horiz-adv-x="300" d="M68 521 C63 500 79 485 104 485 C134 485 165 506 170 529 L185 604 C190 625 174 641 149 641 C120 641 89 620 84 596 L68 521 Z M218 521 C214 501 230 485 255 485 C284 485 315 506 320 529 L335 604 C340 625 324 641 299 641 C270 641 239 620 234 596 L218 521 Z M162 41 L239 404 C243 425 228 441 202 441 L127 441 C98 441 67 418 62 393 C54 356 102 360 130 360 C107 254 84 147 62 41 L42 41 C13 41 -18 19 -23 -4 C-27 -25 -12 -41 14 -41 L164 -41 C193 -41 224 -19 229 4 C233 25 218 41 192 41 L162 41 Z " />
<glyph glyph-name="eth" unicode="&#xf0;" horiz-adv-x="450" d="M250 442 C256 445 268 455 295 476 L298 473 C317 449 322 425 316 395 L258 122 C247 72 215 41 171 41 C124 41 98 77 109 129 L136 253 C145 297 175 330 209 334 C218 335 226 334 235 335 C260 338 284 360 288 380 C293 403 273 416 235 416 C143 416 56 333 34 246 L8 121 C5 107 4 90 6 72 C16 -2 63 -41 143 -41 C226 -41 296 3 338 77 C349 95 356 114 359 129 L418 404 C428 449 414 506 388 528 C386 532 382 536 377 542 C403 563 420 578 425 584 C430 589 434 597 435 604 C440 625 424 641 398 641 C370 641 349 622 329 605 C312 625 303 632 300 635 C296 639 287 641 278 641 C250 641 219 620 214 597 C213 592 215 586 215 583 C216 575 231 558 246 537 C220 515 199 497 192 491 C187 486 184 479 182 471 C178 450 195 435 221 435 C232 435 243 438 250 442 L250 442 Z " />
<glyph glyph-name="ntilde" unicode="&#xf1;" horiz-adv-x="550" d="M273 532 C280 526 284 519 289 513 C304 494 329 485 357 485 C414 485 471 524 481 570 C487 599 473 616 442 616 C414 616 394 600 381 568 C374 574 370 582 363 589 C348 605 324 616 296 616 C240 616 183 576 173 530 C167 502 181 485 212 485 C240 485 260 500 273 532 L273 532 Z M63 41 L42 41 C13 41 -18 19 -23 -4 C-27 -25 -12 -41 14 -41 L139 -41 C168 -41 199 -19 204 4 C208 25 193 41 167 41 L164 41 C170 72 177 106 180 120 L231 360 L301 360 C395 360 358 255 345 190 C334 140 323 90 313 40 C284 39 257 19 252 -4 C248 -25 264 -41 289 -41 L414 -41 C443 -41 474 -19 479 4 C483 25 468 41 442 41 L413 41 L463 279 C467 295 466 312 464 329 C454 402 407 441 328 441 L203 441 C203 441 202 440 202 440 C202 440 202 441 202 441 L127 441 C98 441 67 419 62 396 C58 375 74 360 100 360 L131 360 L63 41 Z " />
<glyph glyph-name="ograve" unicode="&#xf2;" horiz-adv-x="450" d="M233 489 C236 486 246 484 254 484 C282 484 313 505 318 528 C319 533 317 539 317 542 C315 553 254 628 243 636 C240 639 230 641 222 641 C194 641 163 620 158 597 C157 592 158 586 159 583 C160 572 222 499 233 489 L233 489 Z M27 72 C37 -2 84 -41 164 -41 C265 -41 355 32 381 129 L412 279 C415 293 416 310 414 328 C405 402 357 441 277 441 C194 441 125 397 82 323 C71 305 64 287 61 271 L29 121 C26 107 25 90 27 72 L27 72 Z M248 360 C297 360 322 324 311 271 L279 122 C268 71 235 41 190 41 C137 41 120 82 138 168 C141 185 151 227 160 269 C175 314 192 360 248 360 L248 360 Z " />
<glyph glyph-name="oacute" unicode="&#xf3;" horiz-adv-x="450" d="M217 521 C212 500 229 484 254 484 C262 484 273 486 281 490 C294 497 388 572 400 586 C404 590 408 598 409 604 C414 625 398 641 373 641 C365 641 353 639 345 635 C331 628 237 553 225 539 C221 535 218 527 217 521 L217 521 Z M27 72 C37 -2 84 -41 164 -41 C265 -41 355 32 381 129 L412 279 C415 293 416 310 414 328 C405 402 357 441 277 441 C194 441 125 397 82 323 C71 305 64 287 61 271 L29 121 C26 107 25 90 27 72 L27 72 Z M248 360 C297 360 322 324 311 271 L279 122 C268 71 235 41 190 41 C137 41 120 82 138 168 C141 185 151 227 160 269 C175 314 192 360 248 360 L248 360 Z " />
<glyph glyph-name="ocircumflex" unicode="&#xf4;" horiz-adv-x="450" d="M267 536 C284 515 297 485 329 485 C358 485 389 506 394 529 C395 534 396 539 393 543 C387 556 327 630 318 636 C315 639 305 641 297 641 C289 641 278 639 270 635 C257 628 163 553 151 539 C147 535 143 527 142 521 C137 500 153 485 179 485 C213 485 240 514 267 536 L267 536 Z M27 72 C37 -2 84 -41 164 -41 C265 -41 355 32 381 129 L412 279 C415 293 416 310 414 328 C405 402 357 441 277 441 C194 441 125 397 82 323 C71 305 64 287 61 271 L29 121 C26 107 25 90 27 72 L27 72 Z M248 360 C297 360 322 324 311 271 L279 122 C268 71 235 41 190 41 C137 41 120 82 138 168 C141 185 151 227 160 269 C175 314 192 360 248 360 L248 360 Z " />
<glyph glyph-name="otilde" unicode="&#xf5;" horiz-adv-x="450" d="M222 532 C229 526 233 519 238 513 C253 494 278 485 306 485 C363 485 420 524 430 570 C436 599 422 616 391 616 C363 616 343 600 330 568 C323 574 319 582 312 589 C297 605 273 616 245 616 C189 616 132 576 122 530 C116 502 130 485 161 485 C189 485 209 500 222 532 L222 532 Z M27 72 C37 -2 84 -41 164 -41 C265 -41 355 32 381 129 L412 279 C415 293 416 310 414 328 C405 402 357 441 277 441 C194 441 125 397 82 323 C71 305 64 287 61 271 L29 121 C26 107 25 90 27 72 L27 72 Z M248 360 C297 360 322 324 311 271 L279 122 C268 71 235 41 190 41 C137 41 120 82 138 168 C141 185 151 227 160 269 C175 314 192 360 248 360 L248 360 Z " />
<glyph glyph-name="odieresis" unicode="&#xf6;" horiz-adv-x="450" d="M167 521 C162 500 178 485 203 485 C233 485 264 506 269 529 L284 604 C289 625 273 641 248 641 C219 641 188 620 183 596 L167 521 Z M317 521 C313 501 329 485 354 485 C383 485 414 506 419 529 L434 604 C439 625 423 641 398 641 C369 641 338 620 333 596 L317 521 Z M27 72 C37 -2 84 -41 164 -41 C265 -41 355 32 381 129 L412 279 C415 293 416 310 414 328 C405 402 357 441 277 441 C194 441 125 397 82 323 C71 305 64 287 61 271 L29 121 C26 107 25 90 27 72 L27 72 Z M248 360 C297 360 322 324 311 271 L279 122 C268 71 235 41 190 41 C137 41 120 82 138 168 C141 185 151 227 160 269 C175 314 192 360 248 360 L248 360 Z " />
<glyph glyph-name="divide" unicode="&#xf7;" horiz-adv-x="350" d="M46 246 C42 226 58 210 84 210 L152 210 C133 202 118 187 114 171 L98 96 C94 76 111 60 136 60 C165 60 195 81 200 104 L216 179 C219 192 214 203 203 210 L284 210 C313 210 343 231 348 254 C353 275 337 291 311 291 L211 291 C230 299 245 313 248 329 L264 404 C268 425 253 441 228 441 C199 441 167 420 162 396 L146 321 C144 308 149 297 160 291 L111 291 C83 291 51 269 46 246 L46 246 Z " />
<glyph glyph-name="oslash" unicode="&#xf8;" horiz-adv-x="450" d="M27 72 C30 48 37 28 48 12 C40 -1 32 -15 24 -28 C14 -45 11 -50 10 -56 C6 -75 23 -91 48 -91 C84 -91 105 -64 121 -36 C134 -39 149 -41 164 -41 C265 -41 355 32 381 129 L412 279 C415 293 416 310 414 328 C410 356 401 379 387 397 C393 408 399 418 405 428 C415 445 418 450 419 456 C423 476 406 491 381 491 C347 491 325 466 309 439 C299 440 288 441 277 441 C194 441 125 397 82 323 C71 305 64 287 61 271 L29 121 C26 107 25 90 27 72 L27 72 Z M248 360 C252 360 257 360 261 359 L240 325 C205 268 170 211 135 156 C136 160 137 164 138 168 C141 185 151 227 160 269 C175 314 192 360 248 360 L248 360 Z M169 44 L189 76 C230 143 271 209 311 271 L279 122 C268 71 235 41 190 41 C182 41 175 42 169 44 L169 44 Z " />
<glyph glyph-name="ugrave" unicode="&#xf9;" horiz-adv-x="600" d="M309 489 C312 486 322 484 330 484 C358 484 389 505 394 528 C395 533 393 539 393 542 C391 553 330 628 319 636 C316 639 306 641 298 641 C270 641 239 620 234 597 C233 592 234 586 235 583 C236 572 298 499 309 489 L309 489 Z M338 41 L268 41 C174 41 209 145 223 210 C236 273 249 335 249 335 C266 411 259 441 227 441 L152 441 C123 441 92 418 87 393 C79 356 127 360 155 360 C140 289 124 217 124 217 C86 38 121 -41 239 -41 L365 -41 C394 -41 425 -19 430 4 L506 360 L525 360 C554 360 584 381 589 404 C593 425 578 441 552 441 L402 441 C374 441 342 419 337 396 C333 376 350 360 375 360 L405 360 C398 329 392 294 389 280 L338 41 Z " />
<glyph glyph-name="uacute" unicode="&#xfa;" horiz-adv-x="600" d="M293 521 C288 500 305 484 330 484 C338 484 349 486 357 490 C370 497 464 572 476 586 C480 590 484 598 485 604 C490 625 474 641 449 641 C441 641 429 639 421 635 C407 628 313 553 301 539 C297 535 294 527 293 521 L293 521 Z M338 41 L268 41 C174 41 209 145 223 210 C236 273 249 335 249 335 C266 411 259 441 227 441 L152 441 C123 441 92 418 87 393 C79 356 127 360 155 360 C140 289 124 217 124 217 C86 38 121 -41 239 -41 L365 -41 C394 -41 425 -19 430 4 L506 360 L525 360 C554 360 584 381 589 404 C593 425 578 441 552 441 L402 441 C374 441 342 419 337 396 C333 376 350 360 375 360 L405 360 C398 329 392 294 389 280 L338 41 Z " />
<glyph glyph-name="ucircumflex" unicode="&#xfb;" horiz-adv-x="550" d="M318 536 C335 515 348 485 380 485 C409 485 440 506 445 529 C446 534 447 539 444 543 C438 556 378 630 369 636 C366 639 356 641 348 641 C340 641 329 639 321 635 C308 628 214 553 202 539 C198 535 194 527 193 521 C188 500 204 485 230 485 C264 485 291 514 318 536 L318 536 Z M313 41 L243 41 C149 41 184 145 198 210 C211 273 224 335 224 335 C241 411 234 441 202 441 L127 441 C98 441 67 418 62 393 C54 356 102 360 130 360 C115 289 99 217 99 217 C61 38 96 -41 214 -41 L340 -41 C369 -41 400 -19 405 4 L481 360 L500 360 C529 360 559 381 564 404 C568 425 553 441 527 441 L377 441 C349 441 317 419 312 396 C308 376 325 360 350 360 L380 360 C373 329 367 294 364 280 L313 41 Z " />
<glyph glyph-name="udieresis" unicode="&#xfc;" horiz-adv-x="550" d="M218 521 C213 500 229 485 254 485 C284 485 315 506 320 529 L335 604 C340 625 324 641 299 641 C270 641 239 620 234 596 L218 521 Z M368 521 C364 501 380 485 405 485 C434 485 465 506 470 529 L485 604 C490 625 474 641 449 641 C420 641 389 620 384 596 L368 521 Z M313 41 L243 41 C149 41 184 145 198 210 C211 273 224 335 224 335 C241 411 234 441 202 441 L127 441 C98 441 67 418 62 393 C54 356 102 360 130 360 C115 289 99 217 99 217 C61 38 96 -41 214 -41 L340 -41 C369 -41 400 -19 405 4 L481 360 L500 360 C529 360 559 381 564 404 C568 425 553 441 527 441 L377 441 C349 441 317 419 312 396 C308 376 325 360 350 360 L380 360 C373 329 367 294 364 280 L313 41 Z " />
<glyph glyph-name="yacute" unicode="&#xfd;" horiz-adv-x="500" d="M243 521 C238 500 255 484 280 484 C288 484 299 486 307 490 C320 497 414 572 426 586 C430 590 434 598 435 604 C440 625 424 641 399 641 C391 641 379 639 371 635 C357 628 263 553 251 539 C247 535 244 527 243 521 L243 521 Z M240 160 C233 231 224 311 218 364 C242 370 260 386 264 405 C268 425 252 441 227 441 L127 441 C98 441 67 419 62 396 C58 375 74 360 100 360 L115 360 C119 298 141 81 153 -11 L129 -58 C120 -74 113 -91 97 -118 C80 -147 66 -158 43 -161 C13 -165 -11 -183 -16 -205 C-20 -227 -2 -241 31 -241 C88 -241 149 -195 192 -125 C206 -103 216 -81 228 -59 L292 66 C309 99 402 276 444 360 L450 360 C479 360 509 381 514 404 C518 425 503 441 477 441 L377 441 C349 441 317 419 312 396 C308 378 320 364 342 360 C331 339 322 320 317 311 L240 160 Z " />
<glyph glyph-name="thorn" unicode="&#xfe;" horiz-adv-x="500" d="M159 360 L279 360 C341 360 374 315 360 250 C356 230 348 211 335 192 C296 135 259 141 223 141 C167 141 134 126 128 98 C123 76 139 60 165 60 L215 60 C310 60 388 107 436 192 C449 215 458 238 462 260 C484 364 418 441 306 441 L176 441 L210 604 C215 625 199 641 174 641 C145 641 114 620 109 596 L-61 -204 C-66 -225 -49 -241 -24 -241 C-2 -241 23 -228 32 -213 C41 -197 49 -154 53 -138 L159 360 Z " />
<glyph glyph-name="ydieresis" unicode="&#xff;" horiz-adv-x="500" d="M193 521 C188 500 204 485 229 485 C259 485 290 506 295 529 L310 604 C315 625 299 641 274 641 C245 641 214 620 209 596 L193 521 Z M343 521 C339 501 355 485 380 485 C409 485 440 506 445 529 L460 604 C465 625 449 641 424 641 C395 641 364 620 359 596 L343 521 Z M240 160 C233 231 224 311 218 364 C242 370 260 386 264 405 C268 425 252 441 227 441 L127 441 C98 441 67 419 62 396 C58 375 74 360 100 360 L115 360 C119 298 141 81 153 -11 L129 -58 C120 -74 113 -91 97 -118 C80 -147 66 -158 43 -161 C13 -165 -11 -183 -16 -205 C-20 -227 -2 -241 31 -241 C88 -241 149 -195 192 -125 C206 -103 216 -81 228 -59 L292 66 C309 99 402 276 444 360 L450 360 C479 360 509 381 514 404 C518 425 503 441 477 441 L377 441 C349 441 317 419 312 396 C308 378 320 364 342 360 C331 339 322 320 317 311 L240 160 Z " />
<glyph glyph-name="Amacron" unicode="&#x100;" horiz-adv-x="650" d="M290 721 C286 700 301 685 327 685 L477 685 C506 685 537 706 542 729 C546 750 531 766 505 766 L355 766 C327 766 295 744 290 721 L290 721 Z M153 41 C160 54 167 68 175 84 L372 85 C375 61 376 50 377 40 L371 41 C343 41 311 19 306 -4 C302 -25 318 -41 343 -41 L493 -41 C522 -41 553 -19 558 4 C562 25 547 41 521 41 L482 41 C476 158 442 522 440 556 C439 576 440 606 434 621 C429 634 416 641 398 641 C377 641 355 630 343 614 C332 600 324 578 316 562 L257 445 C189 310 118 176 52 41 L21 41 C-8 41 -39 19 -44 -4 C-48 -25 -33 -41 -7 -41 L143 -41 C172 -41 203 -19 208 4 C212 25 197 41 171 41 L153 41 Z M216 166 C251 234 312 355 346 425 C349 398 358 275 366 165 L216 166 Z " />
<glyph glyph-name="amacron" unicode="&#x101;" horiz-adv-x="450" d="M178 546 C174 525 189 510 215 510 L365 510 C394 510 425 531 430 554 C434 575 419 591 393 591 L243 591 C215 591 183 569 178 546 L178 546 Z M252 -3 C248 -24 264 -40 289 -40 C318 -40 349 -18 354 5 L439 404 C443 426 428 442 402 442 L277 442 C175 442 81 368 61 271 L34 147 C12 42 61 -41 147 -41 C189 -41 223 -23 229 3 C233 22 221 36 199 40 C194 41 187 41 180 42 C143 47 124 99 136 155 L162 278 C165 293 173 309 182 323 C207 362 232 361 261 361 C291 361 310 360 329 360 L252 -3 Z " />
<glyph glyph-name="Abreve" unicode="&#x102;" horiz-adv-x="650" d="M293 756 C281 702 323 660 388 660 C461 660 533 709 545 767 C551 797 538 816 510 816 C498 816 485 812 475 806 C434 782 452 741 419 741 C374 741 428 816 366 816 C330 816 300 792 293 756 L293 756 Z M153 41 C160 54 167 68 175 84 L372 85 C375 61 376 50 377 40 L371 41 C343 41 311 19 306 -4 C302 -25 318 -41 343 -41 L493 -41 C522 -41 553 -19 558 4 C562 25 547 41 521 41 L482 41 C476 158 442 522 440 556 C439 576 440 606 434 621 C429 634 416 641 398 641 C377 641 355 630 343 614 C332 600 324 578 316 562 L257 445 C189 310 118 176 52 41 L21 41 C-8 41 -39 19 -44 -4 C-48 -25 -33 -41 -7 -41 L143 -41 C172 -41 203 -19 208 4 C212 25 197 41 171 41 L153 41 Z M216 166 C251 234 312 355 346 425 C349 398 358 275 366 165 L216 166 Z " />
<glyph glyph-name="abreve" unicode="&#x103;" horiz-adv-x="450" d="M181 581 C169 527 211 485 276 485 C349 485 421 534 433 592 C439 622 426 641 398 641 C386 641 373 637 363 631 C322 607 340 566 307 566 C262 566 316 641 254 641 C218 641 188 617 181 581 L181 581 Z M252 -3 C248 -24 264 -40 289 -40 C318 -40 349 -18 354 5 L439 404 C443 426 428 442 402 442 L277 442 C175 442 81 368 61 271 L34 147 C12 42 61 -41 147 -41 C189 -41 223 -23 229 3 C233 22 221 36 199 40 C194 41 187 41 180 42 C143 47 124 99 136 155 L162 278 C165 293 173 309 182 323 C207 362 232 361 261 361 C291 361 310 360 329 360 L252 -3 Z " />
<glyph glyph-name="Aogonek" unicode="&#x104;" horiz-adv-x="650" d="M153 41 C160 54 167 68 175 84 L372 85 C375 61 376 50 377 40 L371 41 C343 41 311 19 306 -4 C302 -25 318 -41 343 -41 L463 -41 C462 -45 460 -50 460 -54 L449 -104 C438 -154 470 -191 525 -191 C581 -191 639 -151 649 -105 C654 -78 641 -60 613 -60 C585 -60 557 -78 551 -101 C550 -100 550 -98 551 -95 L561 -48 C561 -48 561 -47 561 -46 L563 -42 C569 -38 575 -39 582 -37 C600 -32 618 -12 622 5 C627 26 609 41 579 41 C567 41 555 39 544 35 C538 39 530 41 521 41 L482 41 C476 158 442 522 440 556 C439 576 440 606 434 621 C429 634 416 641 398 641 C377 641 355 630 343 614 C332 600 324 578 316 562 L257 445 C189 310 118 176 52 41 L21 41 C-8 41 -39 19 -44 -4 C-48 -25 -33 -41 -7 -41 L143 -41 C172 -41 203 -19 208 4 C212 25 197 41 171 41 L153 41 Z M216 166 C251 234 312 355 346 425 C349 398 358 275 366 165 L216 166 Z " />
<glyph glyph-name="aogonek" unicode="&#x105;" horiz-adv-x="450" d="M225 -101 C224 -100 224 -98 225 -95 L235 -48 C235 -46 237 -42 238 -40 C243 -38 249 -39 256 -37 C259 -36 262 -35 265 -33 C271 -38 280 -40 289 -40 C318 -40 349 -18 354 5 L439 404 C443 426 428 442 402 442 L277 442 C175 442 81 368 61 271 L34 147 C13 46 57 -35 137 -41 C136 -45 134 -49 134 -54 L123 -104 C112 -154 144 -191 199 -191 C255 -191 313 -151 323 -105 C328 -78 315 -60 287 -60 C259 -60 231 -78 225 -101 L225 -101 Z M261 41 C245 41 230 40 215 34 C211 37 205 39 199 40 C194 41 187 41 180 42 C143 47 124 99 136 155 L162 278 C165 293 173 309 182 323 C207 362 232 361 261 361 C291 361 310 360 329 360 L261 41 Z " />
<glyph glyph-name="Cacute" unicode="&#x106;" horiz-adv-x="550" d="M305 696 C300 675 317 659 342 659 C350 659 361 661 369 665 C382 672 476 747 488 761 C492 765 496 773 497 779 C502 800 486 816 461 816 C453 816 441 814 433 810 C419 803 325 728 313 714 C309 710 306 702 305 696 L305 696 Z M17 101 C29 9 91 -41 193 -41 C299 -41 390 12 442 107 C455 131 465 156 468 171 C474 198 460 216 433 216 C408 216 384 201 372 179 C366 167 363 152 355 131 C332 73 284 41 224 41 C145 41 103 97 120 179 L173 428 C190 506 252 560 326 560 C387 560 424 524 425 465 C425 433 414 405 434 392 C441 388 449 385 458 385 C490 385 519 408 525 438 C528 452 528 477 525 499 C512 591 450 641 348 641 C242 641 152 588 100 493 C87 468 76 442 72 421 L18 171 C14 150 14 125 17 101 L17 101 Z " />
<glyph glyph-name="cacute" unicode="&#x107;" horiz-adv-x="450" d="M217 521 C212 500 229 484 254 484 C262 484 273 486 281 490 C294 497 388 572 400 586 C404 590 408 598 409 604 C414 625 398 641 373 641 C365 641 353 639 345 635 C331 628 237 553 225 539 C221 535 218 527 217 521 L217 521 Z M27 72 C37 -2 84 -41 164 -41 C247 -41 317 3 359 77 C369 94 377 112 379 124 C385 149 370 166 343 166 C319 166 291 150 282 129 C278 120 276 110 270 97 C253 59 230 41 194 41 C145 41 119 77 131 129 L162 278 C173 328 208 360 252 360 C290 360 312 337 312 297 C313 284 310 274 311 266 C312 247 326 235 348 235 C378 235 408 258 414 285 C416 295 416 311 414 328 C404 402 357 441 277 441 C194 441 125 397 82 323 C71 305 64 287 61 271 L29 121 C26 107 25 90 27 72 L27 72 Z " />
<glyph glyph-name="Ccircumflex" unicode="&#x108;" horiz-adv-x="550" d="M355 711 C372 690 385 660 417 660 C446 660 477 681 482 704 C483 709 484 714 481 718 C475 731 415 805 406 811 C403 814 393 816 385 816 C377 816 366 814 358 810 C345 803 251 728 239 714 C235 710 231 702 230 696 C225 675 241 660 267 660 C301 660 328 689 355 711 L355 711 Z M17 101 C29 9 91 -41 193 -41 C299 -41 390 12 442 107 C455 131 465 156 468 171 C474 198 460 216 433 216 C408 216 384 201 372 179 C366 167 363 152 355 131 C332 73 284 41 224 41 C145 41 103 97 120 179 L173 428 C190 506 252 560 326 560 C387 560 424 524 425 465 C425 433 414 405 434 392 C441 388 449 385 458 385 C490 385 519 408 525 438 C528 452 528 477 525 499 C512 591 450 641 348 641 C242 641 152 588 100 493 C87 468 76 442 72 421 L18 171 C14 150 14 125 17 101 L17 101 Z " />
<glyph glyph-name="ccircumflex" unicode="&#x109;" horiz-adv-x="450" d="M267 536 C284 515 297 485 329 485 C358 485 389 506 394 529 C395 534 396 539 393 543 C387 556 327 630 318 636 C315 639 305 641 297 641 C289 641 278 639 270 635 C257 628 163 553 151 539 C147 535 143 527 142 521 C137 500 153 485 179 485 C213 485 240 514 267 536 L267 536 Z M27 72 C37 -2 84 -41 164 -41 C247 -41 317 3 359 77 C369 94 377 112 379 124 C385 149 370 166 343 166 C319 166 291 150 282 129 C278 120 276 110 270 97 C253 59 230 41 194 41 C145 41 119 77 131 129 L162 278 C173 328 208 360 252 360 C290 360 312 337 312 297 C313 284 310 274 311 266 C312 247 326 235 348 235 C378 235 408 258 414 285 C416 295 416 311 414 328 C404 402 357 441 277 441 C194 441 125 397 82 323 C71 305 64 287 61 271 L29 121 C26 107 25 90 27 72 L27 72 Z " />
<glyph glyph-name="Cdotaccent" unicode="&#x10a;" horiz-adv-x="550" d="M305 696 C301 676 316 660 342 660 C371 660 402 681 407 704 L422 779 C427 800 411 816 386 816 C357 816 326 795 321 771 L305 696 Z M17 101 C29 9 91 -41 193 -41 C299 -41 390 12 442 107 C455 131 465 156 468 171 C474 198 460 216 433 216 C408 216 384 201 372 179 C366 167 363 152 355 131 C332 73 284 41 224 41 C145 41 103 97 120 179 L173 428 C190 506 252 560 326 560 C387 560 424 524 425 465 C425 433 414 405 434 392 C441 388 449 385 458 385 C490 385 519 408 525 438 C528 452 528 477 525 499 C512 591 450 641 348 641 C242 641 152 588 100 493 C87 468 76 442 72 421 L18 171 C14 150 14 125 17 101 L17 101 Z " />
<glyph glyph-name="cdotaccent" unicode="&#x10b;" horiz-adv-x="450" d="M217 521 C213 501 228 485 254 485 C283 485 314 506 319 529 L334 604 C339 625 323 641 298 641 C269 641 238 620 233 596 L217 521 Z M27 72 C37 -2 84 -41 164 -41 C247 -41 317 3 359 77 C369 94 377 112 379 124 C385 149 370 166 343 166 C319 166 291 150 282 129 C278 120 276 110 270 97 C253 59 230 41 194 41 C145 41 119 77 131 129 L162 278 C173 328 208 360 252 360 C290 360 312 337 312 297 C313 284 310 274 311 266 C312 247 326 235 348 235 C378 235 408 258 414 285 C416 295 416 311 414 328 C404 402 357 441 277 441 C194 441 125 397 82 323 C71 305 64 287 61 271 L29 121 C26 107 25 90 27 72 L27 72 Z " />
<glyph glyph-name="Ccaron" unicode="&#x10c;" horiz-adv-x="550" d="M372 764 C356 785 342 816 310 816 C282 816 251 794 246 771 C245 766 244 761 246 757 C251 747 310 669 320 664 C325 662 333 660 341 660 C350 660 363 662 369 665 C382 671 477 747 489 761 C492 765 496 773 497 779 C502 800 486 816 460 816 C426 816 399 786 372 764 L372 764 Z M17 101 C29 9 91 -41 193 -41 C299 -41 390 12 442 107 C455 131 465 156 468 171 C474 198 460 216 433 216 C408 216 384 201 372 179 C366 167 363 152 355 131 C332 73 284 41 224 41 C145 41 103 97 120 179 L173 428 C190 506 252 560 326 560 C387 560 424 524 425 465 C425 433 414 405 434 392 C441 388 449 385 458 385 C490 385 519 408 525 438 C528 452 528 477 525 499 C512 591 450 641 348 641 C242 641 152 588 100 493 C87 468 76 442 72 421 L18 171 C14 150 14 125 17 101 L17 101 Z " />
<glyph glyph-name="ccaron" unicode="&#x10d;" horiz-adv-x="450" d="M284 589 C268 610 254 641 222 641 C194 641 163 619 158 596 C157 591 156 586 158 582 C163 572 222 494 232 489 C237 487 245 485 253 485 C262 485 275 487 281 490 C294 496 389 572 401 586 C404 590 408 598 409 604 C414 625 398 641 372 641 C338 641 311 611 284 589 L284 589 Z M27 72 C37 -2 84 -41 164 -41 C247 -41 317 3 359 77 C369 94 377 112 379 124 C385 149 370 166 343 166 C319 166 291 150 282 129 C278 120 276 110 270 97 C253 59 230 41 194 41 C145 41 119 77 131 129 L162 278 C173 328 208 360 252 360 C290 360 312 337 312 297 C313 284 310 274 311 266 C312 247 326 235 348 235 C378 235 408 258 414 285 C416 295 416 311 414 328 C404 402 357 441 277 441 C194 441 125 397 82 323 C71 305 64 287 61 271 L29 121 C26 107 25 90 27 72 L27 72 Z " />
<glyph glyph-name="Dcaron" unicode="&#x10e;" horiz-adv-x="600" d="M397 764 C381 785 367 816 335 816 C307 816 276 794 271 771 C270 766 269 761 271 757 C276 747 335 669 345 664 C350 662 358 660 366 660 C375 660 388 662 394 665 C407 671 502 747 514 761 C517 765 521 773 522 779 C527 800 511 816 485 816 C451 816 424 786 397 764 L397 764 Z M151 560 L31 -4 C27 -25 43 -41 68 -41 C90 -41 115 -28 124 -13 C134 3 142 46 145 62 L251 560 L371 560 C448 560 489 503 472 421 L413 147 C410 131 400 112 387 94 C347 38 300 41 265 41 C196 41 163 28 157 -1 C152 -24 167 -41 193 -41 L242 -41 C339 -41 420 -2 473 68 C493 96 509 128 515 154 L573 429 C578 451 578 477 575 502 C562 592 500 641 398 641 L148 641 C119 641 89 619 84 596 C79 575 95 560 121 560 L151 560 Z " />
<glyph glyph-name="dcaron" unicode="&#x10f;" horiz-adv-x="600" d="M326 441 L256 442 C154 443 60 368 40 271 L13 147 C-9 42 40 -41 126 -41 C168 -41 202 -23 208 3 C212 22 200 36 178 40 C173 41 166 41 159 42 C122 47 103 99 115 155 L141 278 C144 293 152 309 161 323 C186 362 211 361 240 361 C270 361 289 360 308 360 L236 17 C234 8 231 -5 233 -15 C236 -30 249 -40 268 -40 C297 -40 328 -18 333 5 L460 604 C465 625 449 641 423 641 L347 641 C318 641 287 618 282 593 C274 556 323 560 351 560 L326 441 Z M628 393 C644 421 724 600 727 614 C730 628 711 641 688 641 L638 641 C610 641 578 619 573 596 C569 577 584 561 606 560 C591 530 535 417 530 393 C526 375 544 359 568 359 C592 359 620 375 628 393 L628 393 Z " />
<glyph glyph-name="Dcroat" unicode="&#x110;" horiz-adv-x="600" d="M151 560 L122 423 C112 416 105 406 103 396 C101 386 104 377 111 370 L31 -4 C27 -25 43 -41 68 -41 C90 -41 115 -28 124 -13 C134 3 142 46 145 62 L209 360 L341 360 C370 360 400 381 405 404 C410 425 394 441 368 441 L226 441 L251 560 L371 560 C448 560 489 503 472 421 L413 147 C410 131 400 112 387 94 C347 38 300 41 265 41 C196 41 163 28 157 -1 C152 -24 167 -41 193 -41 L242 -41 C339 -41 420 -2 473 68 C493 96 509 128 515 154 L573 429 C578 451 578 477 575 502 C562 592 500 641 398 641 L148 641 C119 641 89 619 84 596 C79 575 95 560 121 560 L151 560 Z " />
<glyph glyph-name="dcroat" unicode="&#x111;" horiz-adv-x="425" d="M326 441 L256 442 C154 443 60 368 40 271 L13 147 C-9 42 40 -41 126 -41 C168 -41 202 -23 208 3 C212 22 200 36 178 40 C173 41 166 41 159 42 C122 47 103 99 115 155 L141 278 C144 293 152 309 161 323 C186 362 211 361 240 361 C270 361 289 360 308 360 L236 17 C234 8 231 -5 233 -15 C236 -30 249 -40 268 -40 C297 -40 328 -18 333 5 L430 460 C458 461 488 481 493 504 C497 525 482 541 456 541 L447 541 L460 604 C465 625 449 641 423 641 L347 641 C318 641 287 618 282 593 C274 556 323 560 351 560 L347 541 L306 541 C278 541 246 519 241 496 C237 475 252 460 278 460 L330 460 L326 441 Z " />
<glyph glyph-name="Emacron" unicode="&#x112;" horiz-adv-x="550" d="M240 721 C236 700 251 685 277 685 L427 685 C456 685 487 706 492 729 C496 750 481 766 455 766 L305 766 C277 766 245 744 240 721 L240 721 Z M209 360 L329 360 C358 360 388 381 393 404 C397 425 382 441 356 441 L226 441 L251 560 C325 560 398 559 433 559 C521 559 553 570 560 602 C565 625 549 641 523 641 L148 641 C119 641 89 619 84 596 C79 575 95 560 121 560 L151 560 L47 71 C33 6 73 -41 143 -41 L368 -41 C397 -41 428 -19 433 6 C439 32 418 41 349 41 C312 41 248 40 224 40 C157 40 142 48 149 80 L209 360 Z " />
<glyph glyph-name="emacron" unicode="&#x113;" horiz-adv-x="450" d="M153 546 C149 525 164 510 190 510 L340 510 C369 510 400 531 405 554 C409 575 394 591 368 591 L218 591 C190 591 158 569 153 546 L153 546 Z M340 159 C371 159 389 177 397 214 C399 228 406 250 410 266 C431 366 369 441 264 441 C165 441 83 375 62 279 L30 129 C27 114 26 96 29 76 C38 0 91 -41 174 -41 L222 -41 C248 -41 271 -25 275 -3 C281 23 258 41 219 41 C216 41 214 41 211 41 L196 40 C193 40 191 40 189 40 C141 40 118 71 129 122 L137 159 L340 159 Z M161 271 C172 324 210 359 257 359 C301 359 323 327 311 275 C309 265 306 252 303 240 L154 240 L161 271 Z " />
<glyph glyph-name="Ebreve" unicode="&#x114;" horiz-adv-x="550" d="M268 756 C256 702 298 660 363 660 C436 660 508 709 520 767 C526 797 513 816 485 816 C473 816 460 812 450 806 C409 782 427 741 394 741 C349 741 403 816 341 816 C305 816 275 792 268 756 L268 756 Z M209 360 L329 360 C358 360 388 381 393 404 C397 425 382 441 356 441 L226 441 L251 560 C325 560 398 559 433 559 C521 559 553 570 560 602 C565 625 549 641 523 641 L148 641 C119 641 89 619 84 596 C79 575 95 560 121 560 L151 560 L47 71 C33 6 73 -41 143 -41 L368 -41 C397 -41 428 -19 433 6 C439 32 418 41 349 41 C312 41 248 40 224 40 C157 40 142 48 149 80 L209 360 Z " />
<glyph glyph-name="ebreve" unicode="&#x115;" horiz-adv-x="450" d="M156 581 C144 527 186 485 251 485 C324 485 396 534 408 592 C414 622 401 641 373 641 C361 641 348 637 338 631 C297 607 315 566 282 566 C237 566 291 641 229 641 C193 641 163 617 156 581 L156 581 Z M340 159 C371 159 389 177 397 214 C399 228 406 250 410 266 C431 366 369 441 264 441 C165 441 83 375 62 279 L30 129 C27 114 26 96 29 76 C38 0 91 -41 174 -41 L222 -41 C248 -41 271 -25 275 -3 C281 23 258 41 219 41 C216 41 214 41 211 41 L196 40 C193 40 191 40 189 40 C141 40 118 71 129 122 L137 159 L340 159 Z M161 271 C172 324 210 359 257 359 C301 359 323 327 311 275 C309 265 306 252 303 240 L154 240 L161 271 Z " />
<glyph glyph-name="Edotaccent" unicode="&#x116;" horiz-adv-x="550" d="M330 696 C326 676 341 660 367 660 C396 660 427 681 432 704 L447 779 C452 800 436 816 411 816 C382 816 351 795 346 771 L330 696 Z M209 360 L329 360 C358 360 388 381 393 404 C397 425 382 441 356 441 L226 441 L251 560 C325 560 398 559 433 559 C521 559 553 570 560 602 C565 625 549 641 523 641 L148 641 C119 641 89 619 84 596 C79 575 95 560 121 560 L151 560 L47 71 C33 6 73 -41 143 -41 L368 -41 C397 -41 428 -19 433 6 C439 32 418 41 349 41 C312 41 248 40 224 40 C157 40 142 48 149 80 L209 360 Z " />
<glyph glyph-name="edotaccent" unicode="&#x117;" horiz-adv-x="450" d="M218 521 C214 501 229 485 255 485 C284 485 315 506 320 529 L335 604 C340 625 324 641 299 641 C270 641 239 620 234 596 L218 521 Z M340 159 C371 159 389 177 397 214 C399 228 406 250 410 266 C431 366 369 441 264 441 C165 441 83 375 62 279 L30 129 C27 114 26 96 29 76 C38 0 91 -41 174 -41 L222 -41 C248 -41 271 -25 275 -3 C281 23 258 41 219 41 C216 41 214 41 211 41 L196 40 C193 40 191 40 189 40 C141 40 118 71 129 122 L137 159 L340 159 Z M161 271 C172 324 210 359 257 359 C301 359 323 327 311 275 C309 265 306 252 303 240 L154 240 L161 271 Z " />
<glyph glyph-name="Eogonek" unicode="&#x118;" horiz-adv-x="550" d="M209 360 L329 360 C358 360 388 381 393 404 C397 425 382 441 356 441 L226 441 L251 560 C325 560 398 559 433 559 C521 559 553 570 560 602 C565 625 549 641 523 641 L148 641 C119 641 89 619 84 596 C79 575 95 560 121 560 L151 560 L47 71 C33 6 73 -41 143 -41 L276 -41 C275 -45 273 -50 273 -54 L262 -104 C251 -154 283 -191 338 -191 C394 -191 452 -151 462 -105 C467 -78 454 -60 426 -60 C398 -60 370 -78 364 -101 C363 -100 363 -98 364 -95 L374 -48 C374 -48 374 -47 374 -46 L376 -42 C380 -40 383 -39 386 -38 C408 -37 430 -17 435 5 C440 26 422 41 392 41 C387 41 383 41 379 40 C370 41 360 41 349 41 C312 41 248 40 224 40 C157 40 142 48 149 80 L209 360 Z " />
<glyph glyph-name="eogonek" unicode="&#x119;" horiz-adv-x="450" d="M340 159 C371 159 389 177 397 214 C399 228 406 250 410 266 C431 366 369 441 264 441 C165 441 83 375 62 279 L30 129 C27 114 26 96 29 76 C38 3 87 -37 163 -41 C162 -45 160 -49 160 -54 L149 -104 C138 -154 170 -191 225 -191 C281 -191 339 -151 349 -105 C354 -78 341 -60 313 -60 C285 -60 257 -78 251 -101 C250 -100 250 -98 251 -95 L261 -48 C261 -46 263 -42 264 -40 C269 -38 275 -39 282 -37 C300 -32 318 -12 322 5 C327 26 309 41 279 41 C269 41 258 39 248 37 C235 40 224 41 211 41 L196 40 C193 40 191 40 189 40 C141 40 118 71 129 122 L137 159 L340 159 Z M161 271 C172 324 210 359 257 359 C301 359 323 327 311 275 C309 265 306 252 303 240 L154 240 L161 271 Z " />
<glyph glyph-name="Ecaron" unicode="&#x11a;" horiz-adv-x="550" d="M372 764 C356 785 342 816 310 816 C282 816 251 794 246 771 C245 766 244 761 246 757 C251 747 310 669 320 664 C325 662 333 660 341 660 C350 660 363 662 369 665 C382 671 477 747 489 761 C492 765 496 773 497 779 C502 800 486 816 460 816 C426 816 399 786 372 764 L372 764 Z M209 360 L329 360 C358 360 388 381 393 404 C397 425 382 441 356 441 L226 441 L251 560 C325 560 398 559 433 559 C521 559 553 570 560 602 C565 625 549 641 523 641 L148 641 C119 641 89 619 84 596 C79 575 95 560 121 560 L151 560 L47 71 C33 6 73 -41 143 -41 L368 -41 C397 -41 428 -19 433 6 C439 32 418 41 349 41 C312 41 248 40 224 40 C157 40 142 48 149 80 L209 360 Z " />
<glyph glyph-name="ecaron" unicode="&#x11b;" horiz-adv-x="450" d="M285 589 C269 610 255 641 223 641 C195 641 164 619 159 596 C158 591 157 586 159 582 C164 572 223 494 233 489 C238 487 246 485 254 485 C263 485 276 487 282 490 C295 496 390 572 402 586 C405 590 409 598 410 604 C415 625 399 641 373 641 C339 641 312 611 285 589 L285 589 Z M340 159 C371 159 389 177 397 214 C399 228 406 250 410 266 C431 366 369 441 264 441 C165 441 83 375 62 279 L30 129 C27 114 26 96 29 76 C38 0 91 -41 174 -41 L222 -41 C248 -41 271 -25 275 -3 C281 23 258 41 219 41 C216 41 214 41 211 41 L196 40 C193 40 191 40 189 40 C141 40 118 71 129 122 L137 159 L340 159 Z M161 271 C172 324 210 359 257 359 C301 359 323 327 311 275 C309 265 306 252 303 240 L154 240 L161 271 Z " />
<glyph glyph-name="Gcircumflex" unicode="&#x11c;" horiz-adv-x="550" d="M355 711 C372 690 385 660 417 660 C446 660 477 681 482 704 C483 709 484 714 481 718 C475 731 415 805 406 811 C403 814 393 816 385 816 C377 816 366 814 358 810 C345 803 251 728 239 714 C235 710 231 702 230 696 C225 675 241 660 267 660 C301 660 328 689 355 711 L355 711 Z M409 360 L369 172 C352 92 294 40 221 40 C144 40 103 97 120 179 L173 428 C178 451 189 475 202 496 C235 546 268 560 355 560 C385 560 416 560 416 560 C470 560 505 577 511 606 C516 632 497 641 435 641 C326 641 202 654 114 519 C94 487 78 452 72 421 L18 171 C14 150 13 126 16 100 C29 8 90 -42 189 -42 C325 -42 443 51 470 179 L518 404 C522 425 507 441 481 441 L306 441 C277 441 246 418 241 393 C231 350 299 360 329 360 L409 360 Z " />
<glyph glyph-name="gcircumflex" unicode="&#x11d;" horiz-adv-x="463" d="M281 536 C298 515 311 485 343 485 C372 485 403 506 408 529 C409 534 410 539 407 543 C401 556 341 630 332 636 C329 639 319 641 311 641 C303 641 292 639 284 635 C271 628 177 553 165 539 C161 535 157 527 156 521 C151 500 167 485 193 485 C227 485 254 514 281 536 L281 536 Z M84 -205 C80 -227 100 -241 138 -241 C207 -241 276 -195 317 -123 C325 -109 335 -88 338 -71 L439 404 C443 426 428 442 402 442 L277 442 C175 442 81 368 61 271 L34 147 C12 42 61 -41 147 -41 C189 -41 223 -23 229 3 C233 22 221 36 199 40 C194 41 187 41 180 42 C143 47 124 99 136 155 L162 278 C165 293 173 309 182 323 C207 362 232 361 261 361 C291 361 310 360 329 360 L236 -79 C227 -103 222 -128 196 -145 C161 -169 131 -148 100 -179 C91 -188 86 -197 84 -205 L84 -205 Z " />
<glyph glyph-name="Gbreve" unicode="&#x11e;" horiz-adv-x="550" d="M243 756 C231 702 273 660 338 660 C411 660 483 709 495 767 C501 797 488 816 460 816 C448 816 435 812 425 806 C384 782 402 741 369 741 C324 741 378 816 316 816 C280 816 250 792 243 756 L243 756 Z M409 360 L369 172 C352 92 294 40 221 40 C144 40 103 97 120 179 L173 428 C178 451 189 475 202 496 C235 546 268 560 355 560 C385 560 416 560 416 560 C470 560 505 577 511 606 C516 632 497 641 435 641 C326 641 202 654 114 519 C94 487 78 452 72 421 L18 171 C14 150 13 126 16 100 C29 8 90 -42 189 -42 C325 -42 443 51 470 179 L518 404 C522 425 507 441 481 441 L306 441 C277 441 246 418 241 393 C231 350 299 360 329 360 L409 360 Z " />
<glyph glyph-name="gbreve" unicode="&#x11f;" horiz-adv-x="463" d="M169 581 C157 527 199 485 264 485 C337 485 409 534 421 592 C427 622 414 641 386 641 C374 641 361 637 351 631 C310 607 328 566 295 566 C250 566 304 641 242 641 C206 641 176 617 169 581 L169 581 Z M84 -205 C80 -227 100 -241 138 -241 C207 -241 276 -195 317 -123 C325 -109 335 -88 338 -71 L439 404 C443 426 428 442 402 442 L277 442 C175 442 81 368 61 271 L34 147 C12 42 61 -41 147 -41 C189 -41 223 -23 229 3 C233 22 221 36 199 40 C194 41 187 41 180 42 C143 47 124 99 136 155 L162 278 C165 293 173 309 182 323 C207 362 232 361 261 361 C291 361 310 360 329 360 L236 -79 C227 -103 222 -128 196 -145 C161 -169 131 -148 100 -179 C91 -188 86 -197 84 -205 L84 -205 Z " />
<glyph glyph-name="Gdotaccent" unicode="&#x120;" horiz-adv-x="550" d="M305 696 C301 676 316 660 342 660 C371 660 402 681 407 704 L422 779 C427 800 411 816 386 816 C357 816 326 795 321 771 L305 696 Z M409 360 L369 172 C352 92 294 40 221 40 C144 40 103 97 120 179 L173 428 C178 451 189 475 202 496 C235 546 268 560 355 560 C385 560 416 560 416 560 C470 560 505 577 511 606 C516 632 497 641 435 641 C326 641 202 654 114 519 C94 487 78 452 72 421 L18 171 C14 150 13 126 16 100 C29 8 90 -42 189 -42 C325 -42 443 51 470 179 L518 404 C522 425 507 441 481 441 L306 441 C277 441 246 418 241 393 C231 350 299 360 329 360 L409 360 Z " />
<glyph glyph-name="gdotaccent" unicode="&#x121;" horiz-adv-x="463" d="M231 521 C227 501 242 485 268 485 C297 485 328 506 333 529 L348 604 C353 625 337 641 312 641 C283 641 252 620 247 596 L231 521 Z M84 -205 C80 -227 100 -241 138 -241 C207 -241 276 -195 317 -123 C325 -109 335 -88 338 -71 L439 404 C443 426 428 442 402 442 L277 442 C175 442 81 368 61 271 L34 147 C12 42 61 -41 147 -41 C189 -41 223 -23 229 3 C233 22 221 36 199 40 C194 41 187 41 180 42 C143 47 124 99 136 155 L162 278 C165 293 173 309 182 323 C207 362 232 361 261 361 C291 361 310 360 329 360 L236 -79 C227 -103 222 -128 196 -145 C161 -169 131 -148 100 -179 C91 -188 86 -197 84 -205 L84 -205 Z " />
<glyph glyph-name="uni0122" unicode="&#x122;" horiz-adv-x="550" d="M409 360 L369 172 C352 92 294 40 221 40 C144 40 103 97 120 179 L173 428 C178 451 189 475 202 496 C235 546 268 560 355 560 C385 560 416 560 416 560 C470 560 505 577 511 606 C516 632 497 641 435 641 C326 641 202 654 114 519 C94 487 78 452 72 421 L18 171 C14 150 13 126 16 100 C29 8 90 -42 189 -42 C201 -42 214 -41 225 -40 C226 -40 227 -40 229 -40 C214 -70 158 -183 153 -207 C149 -225 167 -241 191 -241 C215 -241 243 -225 251 -207 C265 -182 330 -38 346 4 C408 43 454 105 470 179 L518 404 C522 425 507 441 481 441 L306 441 C277 441 246 418 241 393 C231 350 299 360 329 360 L409 360 Z " />
<glyph glyph-name="uni0123" unicode="&#x123;" horiz-adv-x="463" d="M335 665 L365 743 C369 755 376 767 378 778 C383 800 367 816 341 816 C318 816 295 803 283 784 C276 774 274 763 270 752 L251 703 C242 676 226 648 221 628 C216 602 230 585 257 585 L307 585 C336 585 367 606 372 629 C376 649 360 665 335 665 L335 665 Z M84 -205 C80 -227 100 -241 138 -241 C207 -241 276 -195 317 -123 C325 -109 335 -88 338 -71 L439 404 C443 426 428 442 402 442 L277 442 C175 442 81 368 61 271 L34 147 C12 42 61 -41 147 -41 C189 -41 223 -23 229 3 C233 22 221 36 199 40 C194 41 187 41 180 42 C143 47 124 99 136 155 L162 278 C165 293 173 309 182 323 C207 362 232 361 261 361 C291 361 310 360 329 360 L236 -79 C227 -103 222 -128 196 -145 C161 -169 131 -148 100 -179 C91 -188 86 -197 84 -205 L84 -205 Z " />
<glyph glyph-name="Hcircumflex" unicode="&#x124;" horiz-adv-x="700" d="M430 711 C447 690 460 660 492 660 C521 660 552 681 557 704 C558 709 559 714 556 718 C550 731 490 805 481 811 C478 814 468 816 460 816 C452 816 441 814 433 810 C420 803 326 728 314 714 C310 710 306 702 305 696 C300 675 316 660 342 660 C376 660 403 689 430 711 L430 711 Z M66 41 L46 41 C17 41 -14 19 -19 -4 C-23 -25 -8 -41 18 -41 L168 -41 C197 -41 228 -19 233 4 C237 25 222 41 196 41 L166 41 L234 360 L484 360 L416 41 L396 41 C368 41 336 19 331 -4 C327 -25 343 -41 368 -41 L518 -41 C547 -41 578 -19 583 4 C587 25 572 41 546 41 L516 41 L626 560 L646 560 C675 560 706 581 710 604 C715 625 699 641 673 641 L523 641 C495 641 464 619 459 596 C455 576 471 560 496 560 L526 560 L501 441 L251 441 L276 560 L296 560 C325 560 356 581 360 604 C365 625 349 641 323 641 L173 641 C144 641 114 619 109 596 C104 575 120 560 146 560 L176 560 L66 41 Z " />
<glyph glyph-name="hcircumflex" unicode="&#x125;" horiz-adv-x="550" d="M350 686 C367 665 380 635 412 635 C441 635 472 656 477 679 C478 684 479 689 476 693 C470 706 410 780 401 786 C398 789 388 791 380 791 C372 791 361 789 353 785 C340 778 246 703 234 689 C230 685 226 677 225 671 C220 650 236 635 262 635 C296 635 323 664 350 686 L350 686 Z M142 41 L210 360 C224 360 236 360 236 360 C266 360 297 361 315 353 C344 340 348 302 329 209 C322 179 306 109 292 40 C262 38 236 18 231 -4 C227 -25 243 -41 268 -41 L393 -41 C422 -41 453 -19 458 4 C462 25 447 41 421 41 L392 41 L442 279 C446 294 446 312 444 332 C434 403 385 441 307 441 L227 441 L262 604 C266 625 250 641 224 641 L148 641 C119 641 89 618 83 593 C75 556 124 560 152 560 C115 387 79 214 42 41 L21 41 C-8 41 -39 19 -44 -4 C-48 -25 -33 -41 -7 -41 L118 -41 C147 -41 178 -19 183 4 C187 25 172 41 146 41 L142 41 Z " />
<glyph glyph-name="Hbar" unicode="&#x126;" horiz-adv-x="650" d="M290 721 C286 700 301 685 327 685 L477 685 C506 685 537 706 542 729 C546 750 531 766 505 766 L355 766 C327 766 295 744 290 721 L290 721 Z M41 41 L21 41 C-8 41 -39 19 -44 -4 C-48 -25 -33 -41 -7 -41 L143 -41 C172 -41 203 -19 208 4 C212 25 197 41 171 41 L141 41 L209 360 L459 360 L391 41 L371 41 C343 41 311 19 306 -4 C302 -25 318 -41 343 -41 L493 -41 C522 -41 553 -19 558 4 C562 25 547 41 521 41 L491 41 L601 560 L621 560 C650 560 681 581 685 604 C690 625 674 641 648 641 L498 641 C470 641 439 619 434 596 C430 576 446 560 471 560 L501 560 L476 441 L226 441 L251 560 L271 560 C300 560 331 581 335 604 C340 625 324 641 298 641 L148 641 C119 641 89 619 84 596 C79 575 95 560 121 560 L151 560 L41 41 Z " />
<glyph glyph-name="hbar" unicode="&#x127;" horiz-adv-x="550" d="M142 41 L210 360 C224 360 236 360 236 360 C266 360 297 361 315 353 C344 340 348 302 329 209 C322 179 306 109 292 40 C262 38 236 18 231 -4 C227 -25 243 -41 268 -41 L393 -41 C422 -41 453 -19 458 4 C462 25 447 41 421 41 L392 41 L442 279 C446 294 446 312 444 332 C434 403 385 441 307 441 L227 441 L231 460 L254 460 C283 460 314 481 319 504 C323 525 308 541 282 541 L248 541 L262 604 C266 625 250 641 224 641 L148 641 C119 641 89 618 83 593 C75 556 124 560 152 560 C151 554 149 547 148 541 L132 541 C104 541 72 519 67 496 C63 475 78 460 104 460 L131 460 C101 320 72 181 42 41 L21 41 C-8 41 -39 19 -44 -4 C-48 -25 -33 -41 -7 -41 L118 -41 C147 -41 178 -19 183 4 C187 25 172 41 146 41 L142 41 Z " />
<glyph glyph-name="Itilde" unicode="&#x128;" horiz-adv-x="300" d="M185 707 C192 701 196 694 201 688 C216 669 241 660 269 660 C326 660 383 699 393 745 C399 774 385 791 354 791 C326 791 306 775 293 743 C286 749 282 757 275 764 C260 780 236 791 208 791 C152 791 95 751 85 705 C79 677 93 660 124 660 C152 660 172 675 185 707 L185 707 Z M41 41 L21 41 C-8 41 -39 19 -44 -4 C-48 -25 -33 -41 -7 -41 L143 -41 C172 -41 203 -19 208 4 C212 25 197 41 171 41 L141 41 L251 560 L271 560 C300 560 331 581 335 604 C340 625 324 641 298 641 L148 641 C119 641 89 619 84 596 C79 575 95 560 121 560 L151 560 L41 41 Z " />
<glyph glyph-name="itilde" unicode="&#x129;" horiz-adv-x="300" d="M123 532 C130 526 134 519 139 513 C154 494 179 485 207 485 C264 485 321 524 331 570 C337 599 323 616 292 616 C264 616 244 600 231 568 C224 574 220 582 213 589 C198 605 174 616 146 616 C90 616 33 576 23 530 C17 502 31 485 62 485 C90 485 110 500 123 532 L123 532 Z M162 41 L239 404 C243 425 228 441 202 441 L127 441 C98 441 67 418 62 393 C54 356 102 360 130 360 C107 254 84 147 62 41 L42 41 C13 41 -18 19 -23 -4 C-27 -25 -12 -41 14 -41 L164 -41 C193 -41 224 -19 229 4 C233 25 218 41 192 41 L162 41 Z " />
<glyph glyph-name="Imacron" unicode="&#x12a;" horiz-adv-x="300" d="M115 721 C111 700 126 685 152 685 L302 685 C331 685 362 706 367 729 C371 750 356 766 330 766 L180 766 C152 766 120 744 115 721 L115 721 Z M41 41 L21 41 C-8 41 -39 19 -44 -4 C-48 -25 -33 -41 -7 -41 L143 -41 C172 -41 203 -19 208 4 C212 25 197 41 171 41 L141 41 L251 560 L271 560 C300 560 331 581 335 604 C340 625 324 641 298 641 L148 641 C119 641 89 619 84 596 C79 575 95 560 121 560 L151 560 L41 41 Z " />
<glyph glyph-name="imacron" unicode="&#x12b;" horiz-adv-x="300" d="M53 546 C49 525 64 510 90 510 L240 510 C269 510 300 531 305 554 C309 575 294 591 268 591 L118 591 C90 591 58 569 53 546 L53 546 Z M162 41 L239 404 C243 425 228 441 202 441 L127 441 C98 441 67 418 62 393 C54 356 102 360 130 360 C107 254 84 147 62 41 L42 41 C13 41 -18 19 -23 -4 C-27 -25 -12 -41 14 -41 L164 -41 C193 -41 224 -19 229 4 C233 25 218 41 192 41 L162 41 Z " />
<glyph glyph-name="Ibreve" unicode="&#x12c;" horiz-adv-x="300" d="M118 756 C106 702 148 660 213 660 C286 660 358 709 370 767 C376 797 363 816 335 816 C323 816 310 812 300 806 C259 782 277 741 244 741 C199 741 253 816 191 816 C155 816 125 792 118 756 L118 756 Z M41 41 L21 41 C-8 41 -39 19 -44 -4 C-48 -25 -33 -41 -7 -41 L143 -41 C172 -41 203 -19 208 4 C212 25 197 41 171 41 L141 41 L251 560 L271 560 C300 560 331 581 335 604 C340 625 324 641 298 641 L148 641 C119 641 89 619 84 596 C79 575 95 560 121 560 L151 560 L41 41 Z " />
<glyph glyph-name="ibreve" unicode="&#x12d;" horiz-adv-x="300" d="M56 581 C44 527 86 485 151 485 C224 485 296 534 308 592 C314 622 301 641 273 641 C261 641 248 637 238 631 C197 607 215 566 182 566 C137 566 191 641 129 641 C93 641 63 617 56 581 L56 581 Z M162 41 L239 404 C243 425 228 441 202 441 L127 441 C98 441 67 418 62 393 C54 356 102 360 130 360 C107 254 84 147 62 41 L42 41 C13 41 -18 19 -23 -4 C-27 -25 -12 -41 14 -41 L164 -41 C193 -41 224 -19 229 4 C233 25 218 41 192 41 L162 41 Z " />
<glyph glyph-name="Iogonek" unicode="&#x12e;" horiz-adv-x="300" d="M41 41 L21 41 C-8 41 -39 19 -44 -4 C-48 -25 -33 -41 -7 -41 L113 -41 C112 -45 110 -50 110 -54 L99 -104 C88 -154 120 -191 175 -191 C231 -191 289 -151 299 -105 C304 -78 291 -60 263 -60 C235 -60 207 -78 201 -101 C200 -100 200 -98 201 -95 L211 -48 C211 -46 213 -42 214 -40 C219 -38 225 -39 232 -37 C250 -32 268 -12 272 5 C277 26 259 41 229 41 C217 41 205 39 194 35 C188 39 180 41 171 41 L141 41 L251 560 L271 560 C300 560 331 581 335 604 C340 625 324 641 298 641 L148 641 C119 641 89 619 84 596 C79 575 95 560 121 560 L151 560 L41 41 Z " />
<glyph glyph-name="iogonek" unicode="&#x12f;" horiz-adv-x="300" d="M148 546 C144 525 160 510 185 510 C215 510 245 531 250 554 L261 604 C265 625 249 641 224 641 C195 641 164 620 159 596 L148 546 Z M109 360 C92 282 74 203 69 180 C42 52 57 -18 115 -36 C113 -42 111 -48 110 -54 L99 -104 C88 -154 120 -191 175 -191 C231 -191 289 -151 299 -105 C304 -78 291 -60 263 -60 C235 -60 207 -78 201 -101 C200 -100 200 -98 201 -95 L211 -48 C211 -46 213 -42 214 -40 C219 -38 225 -39 232 -37 C250 -32 268 -12 272 5 C277 26 259 41 229 41 C222 41 216 40 209 39 C207 40 205 40 204 40 C195 41 186 40 176 43 C150 51 148 80 167 168 C177 216 196 301 202 331 C221 419 217 441 181 441 L106 441 C77 441 46 418 41 393 C33 356 81 360 109 360 L109 360 Z " />
<glyph glyph-name="Idotaccent" unicode="&#x130;" horiz-adv-x="300" d="M180 696 C176 676 191 660 217 660 C246 660 277 681 282 704 L297 779 C302 800 286 816 261 816 C232 816 201 795 196 771 L180 696 Z M41 41 L21 41 C-8 41 -39 19 -44 -4 C-48 -25 -33 -41 -7 -41 L143 -41 C172 -41 203 -19 208 4 C212 25 197 41 171 41 L141 41 L251 560 L271 560 C300 560 331 581 335 604 C340 625 324 641 298 641 L148 641 C119 641 89 619 84 596 C79 575 95 560 121 560 L151 560 L41 41 Z " />
<glyph glyph-name="dotlessi" unicode="&#x131;" horiz-adv-x="300" d="M162 41 L239 404 C243 425 228 441 202 441 L127 441 C98 441 67 418 62 393 C54 356 102 360 130 360 C107 254 84 147 62 41 L42 41 C13 41 -18 19 -23 -4 C-27 -25 -12 -41 14 -41 L164 -41 C193 -41 224 -19 229 4 C233 25 218 41 192 41 L162 41 Z " />
<glyph glyph-name="IJ" unicode="&#x132;" horiz-adv-x="550" d="M401 560 C371 418 342 276 334 238 C301 85 276 41 220 41 C181 41 158 63 158 103 C158 116 160 127 160 135 C160 153 144 166 123 166 C92 166 62 143 56 115 C54 104 55 87 57 71 C69 -2 114 -41 193 -41 C276 -41 347 0 388 76 C399 96 406 114 409 129 L501 560 L521 560 C550 560 581 581 585 604 C590 625 574 641 548 641 L348 641 C320 641 289 619 284 596 C280 576 296 560 321 560 L401 560 Z M151 560 L106 350 C102 327 96 303 96 303 C84 245 74 210 116 210 C150 210 181 230 186 254 L260 604 C265 625 249 641 223 641 L148 641 C119 641 88 618 83 593 C75 556 123 560 151 560 L151 560 Z " />
<glyph glyph-name="ij" unicode="&#x133;" horiz-adv-x="500" d="M393 521 C388 501 405 485 430 485 C459 485 489 506 494 529 L510 604 C515 625 499 641 474 641 C445 641 414 620 409 596 L393 521 Z M143 521 C138 501 155 485 180 485 C209 485 239 506 244 529 L260 604 C265 625 249 641 224 641 C195 641 164 620 159 596 L143 521 Z M358 360 C328 218 299 76 291 38 C258 -115 233 -159 176 -159 C137 -159 116 -137 115 -97 C115 -84 117 -73 117 -65 C117 -47 102 -34 81 -34 C50 -34 20 -57 14 -85 C11 -96 12 -113 14 -129 C26 -202 72 -241 151 -241 C234 -241 304 -200 346 -124 C357 -104 364 -86 367 -71 L468 404 C472 425 457 441 431 441 L356 441 C328 441 296 419 291 396 C287 376 303 360 328 360 L358 360 Z M108 360 C92 282 75 202 75 202 C56 114 53 105 53 97 C51 75 65 60 90 60 C119 60 149 81 154 104 L218 404 C222 425 207 441 181 441 L106 441 C77 441 46 418 40 393 C33 356 80 360 108 360 L108 360 Z " />
<glyph glyph-name="Jcircumflex" unicode="&#x134;" horiz-adv-x="500" d="M380 711 C397 690 410 660 442 660 C471 660 502 681 507 704 C508 709 509 714 506 718 C500 731 440 805 431 811 C428 814 418 816 410 816 C402 816 391 814 383 810 C370 803 276 728 264 714 C260 710 256 702 255 696 C250 675 266 660 292 660 C326 660 353 689 380 711 L380 711 Z M326 560 C296 418 267 276 259 238 C226 85 201 41 145 41 C106 41 83 63 83 103 C83 116 85 127 85 135 C85 153 69 166 48 166 C17 166 -13 143 -19 115 C-21 104 -21 87 -18 71 C-6 -2 39 -41 118 -41 C201 -41 272 0 313 76 C324 96 331 114 334 129 L426 560 L446 560 C475 560 506 581 510 604 C515 625 499 641 473 641 L273 641 C245 641 214 619 209 596 C205 576 221 560 246 560 L326 560 Z " />
<glyph glyph-name="jcircumflex" unicode="&#x135;" horiz-adv-x="300" d="M193 536 C210 515 223 485 255 485 C284 485 315 506 320 529 C321 534 322 539 319 543 C313 556 253 630 244 636 C241 639 231 641 223 641 C215 641 204 639 196 635 C183 628 89 553 77 539 C73 535 69 527 68 521 C63 500 79 485 105 485 C139 485 166 514 193 536 L193 536 Z M180 360 L86 -78 C77 -122 47 -155 13 -159 C4 -160 -4 -159 -13 -160 C-38 -163 -61 -185 -66 -205 C-71 -228 -51 -241 -13 -241 C78 -241 170 -159 188 -71 L289 404 C293 425 278 441 252 441 L152 441 C123 441 92 418 87 393 C77 349 150 360 180 360 L180 360 Z " />
<glyph glyph-name="uni0136" unicode="&#x136;" horiz-adv-x="600" d="M41 41 L21 41 C-8 41 -39 19 -44 -4 C-48 -25 -33 -41 -7 -41 L143 -41 C156 -41 168 -37 179 -31 C185 -36 193 -40 203 -40 C188 -70 132 -183 127 -207 C123 -225 141 -241 165 -241 C189 -241 217 -225 225 -207 C241 -179 321 0 324 14 C327 28 308 41 285 41 L235 41 C223 41 211 37 200 31 C193 37 183 41 171 41 L141 41 L213 380 C223 385 233 390 242 395 C249 375 256 354 267 324 C287 262 313 191 336 119 L369 21 C373 6 376 -12 383 -23 C391 -35 402 -41 417 -41 C446 -41 478 -20 483 3 C484 9 483 13 480 24 C473 54 460 88 444 135 C424 194 398 265 375 337 L343 435 C342 436 342 437 342 438 L340 443 C339 444 339 445 339 446 L537 547 C562 560 604 574 611 605 C615 625 599 641 576 641 C545 641 489 606 460 591 L233 476 L260 604 C265 625 249 641 223 641 L148 641 C119 641 89 619 84 596 C79 575 95 560 121 560 L151 560 L41 41 Z " />
<glyph glyph-name="uni0137" unicode="&#x137;" horiz-adv-x="501" d="M226 -207 C237 -188 278 -97 304 -38 C308 -40 313 -41 318 -41 C344 -41 378 -23 382 -7 C388 22 337 290 330 328 L386 348 C405 355 424 359 442 370 C457 379 466 392 469 405 C473 425 458 441 433 441 C425 441 417 439 410 437 C370 425 332 408 292 393 L210 363 L262 604 C266 625 250 641 224 641 L148 641 C119 641 89 618 83 593 C75 556 124 560 152 560 C115 387 79 214 42 41 L21 41 C-8 41 -39 19 -44 -4 C-48 -25 -33 -41 -7 -41 L143 -41 C156 -41 169 -37 179 -31 C185 -36 194 -40 204 -40 C189 -70 133 -183 128 -207 C124 -225 142 -241 166 -241 C190 -241 218 -225 226 -207 L226 -207 Z M142 41 L192 275 C205 280 217 285 230 290 C242 212 261 109 275 41 L236 41 C224 41 211 37 200 31 C194 37 184 41 171 41 L142 41 Z " />
<glyph glyph-name="kgreenlandic" unicode="&#x138;" horiz-adv-x="500" d="M162 41 L203 237 L208 240 C212 230 216 221 218 215 L292 10 C302 -16 303 -41 335 -41 C365 -41 399 -21 403 -1 C407 20 386 63 381 79 L306 284 C306 286 305 287 304 289 L409 343 C435 356 482 372 489 405 C493 425 477 441 452 441 C429 441 408 427 386 416 L224 332 L239 404 C243 425 228 441 202 441 L127 441 C98 441 67 418 62 393 C54 356 102 360 130 360 C107 254 84 147 62 41 L42 41 C13 41 -18 19 -23 -4 C-27 -25 -12 -41 14 -41 L164 -41 C193 -41 224 -19 229 4 C233 25 218 41 192 41 L162 41 Z " />
<glyph glyph-name="Lacute" unicode="&#x139;" horiz-adv-x="525" d="M230 696 C225 675 242 659 267 659 C275 659 286 661 294 665 C307 672 401 747 413 761 C417 765 421 773 422 779 C427 800 411 816 386 816 C378 816 366 814 358 810 C344 803 250 728 238 714 C234 710 231 702 230 696 L230 696 Z M141 41 C178 214 214 387 251 560 L271 560 C300 560 331 581 335 604 C340 625 324 641 298 641 L148 641 C119 641 89 619 84 596 C79 575 95 560 121 560 L151 560 L31 -4 C27 -25 43 -41 68 -41 L368 -41 C397 -41 428 -19 433 4 C436 18 429 31 416 36 C395 44 337 41 314 41 L141 41 Z " />
<glyph glyph-name="lacute" unicode="&#x13a;" horiz-adv-x="300" d="M142 41 L262 604 C265 621 255 635 238 639 C252 647 346 722 358 736 C362 740 366 748 367 754 C372 775 356 791 331 791 C323 791 311 789 303 785 C289 778 195 703 183 689 C179 685 176 677 175 671 C172 658 177 648 186 641 L148 641 C119 641 89 618 83 593 C75 556 124 560 152 560 C115 387 79 214 42 41 L21 41 C-8 41 -39 19 -44 -4 C-48 -25 -33 -41 -7 -41 L143 -41 C172 -41 203 -19 208 4 C212 25 197 41 171 41 L142 41 Z " />
<glyph glyph-name="uni013B" unicode="&#x13b;" horiz-adv-x="525" d="M141 41 C178 214 214 387 251 560 L271 560 C300 560 331 581 335 604 C340 625 324 641 298 641 L148 641 C119 641 89 619 84 596 C79 575 95 560 121 560 L151 560 L31 -4 C27 -25 43 -41 68 -41 L252 -41 C237 -72 182 -183 177 -207 C173 -225 191 -241 215 -241 C239 -241 267 -225 275 -207 C286 -188 326 -100 352 -40 L368 -41 C397 -41 428 -19 433 4 C436 18 429 31 416 36 C395 44 337 41 314 41 L141 41 Z " />
<glyph glyph-name="uni013C" unicode="&#x13c;" horiz-adv-x="300" d="M142 41 L262 604 C266 625 250 641 224 641 L148 641 C119 641 89 618 83 593 C75 556 124 560 152 560 C115 387 79 214 42 41 L21 41 C-8 41 -39 19 -44 -4 C-48 -25 -33 -41 -7 -41 L102 -41 C87 -72 32 -183 27 -207 C23 -225 41 -241 65 -241 C89 -241 117 -225 125 -207 C141 -179 221 0 224 14 C227 28 208 41 185 41 L142 41 Z " />
<glyph glyph-name="Lcaron" unicode="&#x13d;" horiz-adv-x="525" d="M141 41 C178 214 214 387 251 560 L271 560 C300 560 331 581 335 604 C340 625 324 641 298 641 L148 641 C119 641 89 619 84 596 C79 575 95 560 121 560 L151 560 L31 -4 C27 -25 43 -41 68 -41 L368 -41 C397 -41 428 -19 433 4 C436 18 429 31 416 36 C395 44 337 41 314 41 L141 41 Z M478 393 C494 421 574 600 577 614 C580 628 561 641 538 641 L488 641 C460 641 428 619 423 596 C419 577 434 561 456 560 C441 530 385 417 380 393 C376 375 394 359 418 359 C442 359 470 375 478 393 L478 393 Z " />
<glyph glyph-name="lcaron" unicode="&#x13e;" horiz-adv-x="400" d="M142 41 L262 604 C266 625 250 641 224 641 L148 641 C119 641 89 618 83 593 C75 556 124 560 152 560 C115 387 79 214 42 41 L21 41 C-8 41 -39 19 -44 -4 C-48 -25 -33 -41 -7 -41 L143 -41 C172 -41 203 -19 208 4 C212 25 197 41 171 41 L142 41 Z M403 393 C419 421 499 600 502 614 C505 628 486 641 463 641 L413 641 C385 641 353 619 348 596 C344 577 359 561 381 560 C366 530 310 417 305 393 C301 375 319 359 343 359 C367 359 395 375 403 393 L403 393 Z " />
<glyph glyph-name="Ldot" unicode="&#x13f;" horiz-adv-x="525" d="M141 41 C178 214 214 387 251 560 L271 560 C300 560 331 581 335 604 C340 625 324 641 298 641 L148 641 C119 641 89 619 84 596 C79 575 95 560 121 560 L151 560 L31 -4 C27 -25 43 -41 68 -41 L368 -41 C397 -41 428 -19 433 4 C436 18 429 31 416 36 C395 44 337 41 314 41 L141 41 Z M368 521 C364 501 379 485 405 485 C434 485 465 506 470 529 L485 604 C490 625 474 641 449 641 C420 641 389 620 384 596 L368 521 Z " />
<glyph glyph-name="ldot" unicode="&#x140;" horiz-adv-x="350" d="M142 41 L262 604 C266 625 250 641 224 641 L148 641 C119 641 89 618 83 593 C75 556 124 560 152 560 C115 387 79 214 42 41 L21 41 C-8 41 -39 19 -44 -4 C-48 -25 -33 -41 -7 -41 L143 -41 C172 -41 203 -19 208 4 C212 25 197 41 171 41 L142 41 Z M225 321 C221 301 238 285 263 285 C292 285 322 306 327 329 L343 404 C347 425 332 441 307 441 C278 441 246 420 241 396 L225 321 Z " />
<glyph glyph-name="Lslash" unicode="&#x141;" horiz-adv-x="525" d="M141 41 C158 122 175 203 192 284 C231 308 266 329 271 333 C276 337 281 347 282 354 C287 375 271 391 245 391 C233 391 224 388 214 382 C226 441 238 501 251 560 L271 560 C300 560 331 581 335 604 C340 625 324 641 298 641 L148 641 C119 641 89 619 84 596 C79 575 95 560 121 560 L151 560 L99 316 C60 293 27 272 21 267 C16 263 11 254 9 246 C5 225 21 210 48 210 C59 210 68 212 78 217 L31 -4 C27 -25 43 -41 68 -41 L368 -41 C397 -41 428 -19 433 4 C436 18 429 31 416 36 C395 44 337 41 314 41 L141 41 Z " />
<glyph glyph-name="lslash" unicode="&#x142;" horiz-adv-x="300" d="M142 41 L194 286 C232 309 266 330 271 335 C276 339 281 349 283 356 C287 377 272 393 246 393 C235 393 225 390 215 386 L262 604 C266 625 250 641 224 641 L148 641 C119 641 89 618 83 593 C75 556 124 560 152 560 C135 480 118 399 101 319 C61 294 27 272 21 267 C16 263 11 254 9 246 C5 225 21 210 48 210 C59 210 69 213 79 218 C67 159 54 100 42 41 L21 41 C-8 41 -39 19 -44 -4 C-48 -25 -33 -41 -7 -41 L143 -41 C172 -41 203 -19 208 4 C212 25 197 41 171 41 L142 41 Z " />
<glyph glyph-name="Nacute" unicode="&#x143;" horiz-adv-x="650" d="M355 696 C350 675 367 659 392 659 C400 659 411 661 419 665 C432 672 526 747 538 761 C542 765 546 773 547 779 C552 800 536 816 511 816 C503 816 491 814 483 810 C469 803 375 728 363 714 C359 710 356 702 355 696 L355 696 Z M41 41 L21 41 C-8 41 -39 19 -44 -4 C-48 -25 -33 -41 -7 -41 L143 -41 C172 -41 203 -19 208 4 C212 25 197 41 171 41 L141 41 C142 47 143 53 144 57 L240 508 L445 335 C448 333 450 331 453 329 L391 41 L371 41 C343 41 311 19 306 -4 C302 -25 318 -41 343 -41 L493 -41 C522 -41 553 -19 558 4 C562 25 547 41 521 41 L491 41 C492 49 494 57 495 62 L601 560 L616 559 C649 559 680 579 685 604 C690 625 674 641 648 641 L573 641 C545 641 514 619 509 596 L476 442 L295 594 C279 607 264 623 248 633 C239 638 231 641 222 641 C194 641 164 619 159 596 L41 41 Z " />
<glyph glyph-name="nacute" unicode="&#x144;" horiz-adv-x="550" d="M268 521 C263 500 280 484 305 484 C313 484 324 486 332 490 C345 497 439 572 451 586 C455 590 459 598 460 604 C465 625 449 641 424 641 C416 641 404 639 396 635 C382 628 288 553 276 539 C272 535 269 527 268 521 L268 521 Z M63 41 L42 41 C13 41 -18 19 -23 -4 C-27 -25 -12 -41 14 -41 L139 -41 C168 -41 199 -19 204 4 C208 25 193 41 167 41 L164 41 C170 72 177 106 180 120 L231 360 L301 360 C395 360 358 255 345 190 C334 140 323 90 313 40 C284 39 257 19 252 -4 C248 -25 264 -41 289 -41 L414 -41 C443 -41 474 -19 479 4 C483 25 468 41 442 41 L413 41 L463 279 C467 295 466 312 464 329 C454 402 407 441 328 441 L203 441 C203 441 202 440 202 440 C202 440 202 441 202 441 L127 441 C98 441 67 419 62 396 C58 375 74 360 100 360 L131 360 L63 41 Z " />
<glyph glyph-name="uni0145" unicode="&#x145;" horiz-adv-x="650" d="M41 41 L21 41 C-8 41 -39 19 -44 -4 C-48 -25 -33 -41 -7 -41 L143 -41 C156 -41 168 -37 179 -31 C185 -36 193 -40 203 -40 C188 -70 132 -183 127 -207 C123 -225 141 -241 165 -241 C189 -241 217 -225 225 -207 C237 -186 284 -82 309 -24 C315 -34 327 -41 343 -41 L493 -41 C522 -41 553 -19 558 4 C562 25 547 41 521 41 L491 41 C492 49 494 57 495 62 L601 560 L616 559 C649 559 680 579 685 604 C690 625 674 641 648 641 L573 641 C545 641 514 619 509 596 L476 442 L295 594 C279 607 264 623 248 633 C239 638 231 641 222 641 C194 641 164 619 159 596 L41 41 Z M141 41 C142 47 143 53 144 57 L240 508 L445 335 C448 333 450 331 453 329 L391 41 L371 41 C354 41 336 33 323 22 C319 33 303 41 285 41 L235 41 C223 41 211 37 200 31 C193 37 183 41 171 41 L141 41 Z " />
<glyph glyph-name="uni0146" unicode="&#x146;" horiz-adv-x="550" d="M63 41 L42 41 C13 41 -18 19 -23 -4 C-27 -25 -12 -41 14 -41 L127 -41 C112 -72 57 -183 52 -207 C48 -225 66 -241 90 -241 C114 -241 142 -225 150 -207 C166 -179 246 0 249 14 C252 28 233 41 210 41 L164 41 C170 72 177 106 180 120 L231 360 L301 360 C395 360 358 255 345 190 C334 140 323 90 313 40 C284 39 257 19 252 -4 C248 -25 264 -41 289 -41 L414 -41 C443 -41 474 -19 479 4 C483 25 468 41 442 41 L413 41 L463 279 C467 295 466 312 464 329 C454 402 407 441 328 441 L203 441 C203 441 202 440 202 440 C202 440 202 441 202 441 L127 441 C98 441 67 419 62 396 C58 375 74 360 100 360 L131 360 L63 41 Z " />
<glyph glyph-name="Ncaron" unicode="&#x147;" horiz-adv-x="650" d="M422 764 C406 785 392 816 360 816 C332 816 301 794 296 771 C295 766 294 761 296 757 C301 747 360 669 370 664 C375 662 383 660 391 660 C400 660 413 662 419 665 C432 671 527 747 539 761 C542 765 546 773 547 779 C552 800 536 816 510 816 C476 816 449 786 422 764 L422 764 Z M41 41 L21 41 C-8 41 -39 19 -44 -4 C-48 -25 -33 -41 -7 -41 L143 -41 C172 -41 203 -19 208 4 C212 25 197 41 171 41 L141 41 C142 47 143 53 144 57 L240 508 L445 335 C448 333 450 331 453 329 L391 41 L371 41 C343 41 311 19 306 -4 C302 -25 318 -41 343 -41 L493 -41 C522 -41 553 -19 558 4 C562 25 547 41 521 41 L491 41 C492 49 494 57 495 62 L601 560 L616 559 C649 559 680 579 685 604 C690 625 674 641 648 641 L573 641 C545 641 514 619 509 596 L476 442 L295 594 C279 607 264 623 248 633 C239 638 231 641 222 641 C194 641 164 619 159 596 L41 41 Z " />
<glyph glyph-name="ncaron" unicode="&#x148;" horiz-adv-x="550" d="M310 589 C294 610 280 641 248 641 C220 641 189 619 184 596 C183 591 182 586 184 582 C189 572 248 494 258 489 C263 487 271 485 279 485 C288 485 301 487 307 490 C320 496 415 572 427 586 C430 590 434 598 435 604 C440 625 424 641 398 641 C364 641 337 611 310 589 L310 589 Z M63 41 L42 41 C13 41 -18 19 -23 -4 C-27 -25 -12 -41 14 -41 L139 -41 C168 -41 199 -19 204 4 C208 25 193 41 167 41 L164 41 C170 72 177 106 180 120 L231 360 L301 360 C395 360 358 255 345 190 C334 140 323 90 313 40 C284 39 257 19 252 -4 C248 -25 264 -41 289 -41 L414 -41 C443 -41 474 -19 479 4 C483 25 468 41 442 41 L413 41 L463 279 C467 295 466 312 464 329 C454 402 407 441 328 441 L203 441 C203 441 202 440 202 440 C202 440 202 441 202 441 L127 441 C98 441 67 419 62 396 C58 375 74 360 100 360 L131 360 L63 41 Z " />
<glyph glyph-name="napostrophe" unicode="&#x149;" horiz-adv-x="550" d="M63 41 L42 41 C13 41 -18 19 -23 -4 C-27 -25 -12 -41 14 -41 L139 -41 C168 -41 199 -19 204 4 C208 25 193 41 167 41 L164 41 C170 72 177 106 180 120 L231 360 L301 360 C395 360 358 255 345 190 C334 140 323 90 313 40 C284 39 257 19 252 -4 C248 -25 264 -41 289 -41 L414 -41 C443 -41 474 -19 479 4 C483 25 468 41 442 41 L413 41 L463 279 C467 295 466 312 464 329 C454 402 407 441 328 441 L203 441 C231 504 275 604 277 614 C280 628 261 641 238 641 L188 641 C160 641 128 619 123 596 C119 577 134 561 156 560 C145 539 114 476 95 433 C79 425 65 411 62 396 C58 375 74 360 100 360 L108 360 C111 359 114 359 118 359 C121 359 125 359 128 360 L131 360 L63 41 Z " />
<glyph glyph-name="Eng" unicode="&#x14a;" horiz-adv-x="650" d="M41 41 L21 41 C-8 41 -39 19 -44 -4 C-48 -25 -33 -41 -7 -41 L143 -41 C172 -41 203 -19 208 4 C212 25 197 41 171 41 L141 41 C142 47 143 53 144 57 L240 508 L445 335 C448 333 450 331 453 329 L365 -78 C356 -101 351 -127 325 -145 C290 -168 260 -147 229 -178 C220 -187 215 -196 214 -204 C209 -226 229 -240 267 -240 C336 -240 405 -194 446 -122 C456 -104 464 -86 467 -70 C473 -50 478 -19 481 -5 L601 560 L616 559 C649 559 680 579 685 604 C690 625 674 641 648 641 L573 641 C545 641 514 619 509 596 L476 442 L295 594 C279 607 264 623 248 633 C239 638 231 641 222 641 C194 641 164 619 159 596 L41 41 Z " />
<glyph glyph-name="eng" unicode="&#x14b;" horiz-adv-x="500" d="M62 41 L42 41 C14 41 -18 19 -23 -4 C-27 -25 -12 -41 14 -41 L164 -41 C193 -41 224 -19 229 4 C233 25 218 41 192 41 L163 41 C169 72 176 106 179 120 L230 360 L300 360 C348 360 372 324 361 271 L286 -78 C277 -122 247 -155 213 -159 C204 -160 196 -159 187 -160 C162 -163 139 -184 135 -204 C130 -227 150 -241 188 -241 C278 -241 370 -159 388 -71 L462 279 C465 293 466 310 464 328 C455 402 407 441 327 441 L127 441 C99 441 67 419 62 396 C58 375 74 360 100 360 L130 360 L62 41 Z " />
<glyph glyph-name="Omacron" unicode="&#x14c;" horiz-adv-x="550" d="M240 721 C236 700 251 685 277 685 L427 685 C456 685 487 706 492 729 C496 750 481 766 455 766 L305 766 C277 766 245 744 240 721 L240 721 Z M16 100 C28 8 91 -41 193 -41 C299 -41 390 12 442 107 C455 132 466 158 470 179 L523 429 C528 450 529 474 525 500 C513 592 451 641 349 641 C242 641 152 588 100 493 C87 468 76 442 72 421 L18 171 C14 150 13 126 16 100 L16 100 Z M224 41 C145 41 103 97 120 179 L173 428 C190 506 252 560 327 560 C412 560 438 494 408 353 C403 331 387 260 373 191 C357 112 315 41 224 41 L224 41 Z " />
<glyph glyph-name="omacron" unicode="&#x14d;" horiz-adv-x="450" d="M152 546 C148 525 163 510 189 510 L339 510 C368 510 399 531 404 554 C408 575 393 591 367 591 L217 591 C189 591 157 569 152 546 L152 546 Z M27 72 C37 -2 84 -41 164 -41 C265 -41 355 32 381 129 L412 279 C415 293 416 310 414 328 C405 402 357 441 277 441 C194 441 125 397 82 323 C71 305 64 287 61 271 L29 121 C26 107 25 90 27 72 L27 72 Z M248 360 C297 360 322 324 311 271 L279 122 C268 71 235 41 190 41 C137 41 120 82 138 168 C141 185 151 227 160 269 C175 314 192 360 248 360 L248 360 Z " />
<glyph glyph-name="Obreve" unicode="&#x14e;" horiz-adv-x="550" d="M243 756 C231 702 273 660 338 660 C411 660 483 709 495 767 C501 797 488 816 460 816 C448 816 435 812 425 806 C384 782 402 741 369 741 C324 741 378 816 316 816 C280 816 250 792 243 756 L243 756 Z M16 100 C28 8 91 -41 193 -41 C299 -41 390 12 442 107 C455 132 466 158 470 179 L523 429 C528 450 529 474 525 500 C513 592 451 641 349 641 C242 641 152 588 100 493 C87 468 76 442 72 421 L18 171 C14 150 13 126 16 100 L16 100 Z M224 41 C145 41 103 97 120 179 L173 428 C190 506 252 560 327 560 C412 560 438 494 408 353 C403 331 387 260 373 191 C357 112 315 41 224 41 L224 41 Z " />
<glyph glyph-name="obreve" unicode="&#x14f;" horiz-adv-x="450" d="M155 581 C143 527 185 485 250 485 C323 485 395 534 407 592 C413 622 400 641 372 641 C360 641 347 637 337 631 C296 607 314 566 281 566 C236 566 290 641 228 641 C192 641 162 617 155 581 L155 581 Z M27 72 C37 -2 84 -41 164 -41 C265 -41 355 32 381 129 L412 279 C415 293 416 310 414 328 C405 402 357 441 277 441 C194 441 125 397 82 323 C71 305 64 287 61 271 L29 121 C26 107 25 90 27 72 L27 72 Z M248 360 C297 360 322 324 311 271 L279 122 C268 71 235 41 190 41 C137 41 120 82 138 168 C141 185 151 227 160 269 C175 314 192 360 248 360 L248 360 Z " />
<glyph glyph-name="Ohungarumlaut" unicode="&#x150;" horiz-adv-x="550" d="M217 696 C212 675 229 659 254 659 C262 659 273 661 281 665 C294 672 388 747 400 761 C404 765 408 773 409 779 C414 800 398 816 373 816 C365 816 353 814 345 810 C331 803 237 728 225 714 C221 710 218 702 217 696 L217 696 Z M392 696 C387 675 404 659 429 659 C437 659 448 661 456 665 C469 672 563 747 575 761 C579 765 583 773 584 779 C589 800 573 816 548 816 C540 816 528 814 520 810 C506 803 412 728 400 714 C396 710 393 702 392 696 L392 696 Z M16 100 C28 8 91 -41 193 -41 C299 -41 390 12 442 107 C455 132 466 158 470 179 L523 429 C528 450 529 474 525 500 C513 592 451 641 349 641 C242 641 152 588 100 493 C87 468 76 442 72 421 L18 171 C14 150 13 126 16 100 L16 100 Z M224 41 C145 41 103 97 120 179 L173 428 C190 506 252 560 327 560 C412 560 438 494 408 353 C403 331 387 260 373 191 C357 112 315 41 224 41 L224 41 Z " />
<glyph glyph-name="ohungarumlaut" unicode="&#x151;" horiz-adv-x="450" d="M129 521 C124 500 141 484 166 484 C174 484 185 486 193 490 C206 497 300 572 312 586 C316 590 320 598 321 604 C326 625 310 641 285 641 C277 641 265 639 257 635 C243 628 149 553 137 539 C133 535 130 527 129 521 L129 521 Z M304 521 C299 500 316 484 341 484 C349 484 360 486 368 490 C381 497 475 572 487 586 C491 590 495 598 496 604 C501 625 485 641 460 641 C452 641 440 639 432 635 C418 628 324 553 312 539 C308 535 305 527 304 521 L304 521 Z M27 72 C37 -2 84 -41 164 -41 C265 -41 355 32 381 129 L412 279 C415 293 416 310 414 328 C405 402 357 441 277 441 C194 441 125 397 82 323 C71 305 64 287 61 271 L29 121 C26 107 25 90 27 72 L27 72 Z M248 360 C297 360 322 324 311 271 L279 122 C268 71 235 41 190 41 C137 41 120 82 138 168 C141 185 151 227 160 269 C175 314 192 360 248 360 L248 360 Z " />
<glyph glyph-name="OE" unicode="&#x152;" horiz-adv-x="825" d="M16 100 C28 8 91 -41 193 -41 C253 -41 307 -24 353 7 C367 -23 399 -41 443 -41 L668 -41 C697 -41 728 -19 733 6 C739 32 718 41 649 41 C612 41 548 40 524 40 C457 40 442 48 449 80 L469 175 C470 176 470 178 470 179 L509 360 L629 360 C658 360 688 381 693 404 C697 425 682 441 656 441 L526 441 L551 560 C625 560 698 559 733 559 C821 559 853 570 860 602 C865 625 849 641 823 641 L448 641 C437 641 426 638 416 633 C396 638 374 641 349 641 C242 641 152 588 100 493 C87 468 76 442 72 421 L18 171 C14 150 13 126 16 100 L16 100 Z M224 41 C145 41 103 97 120 179 L173 428 C190 506 252 560 327 560 C405 560 433 505 415 388 L374 198 C374 195 373 193 373 191 C357 112 315 41 224 41 L224 41 Z " />
<glyph glyph-name="oe" unicode="&#x153;" horiz-adv-x="700" d="M27 72 C37 -2 84 -41 164 -41 C218 -41 265 -23 304 10 C329 -24 370 -41 424 -41 L472 -41 C498 -41 521 -25 525 -3 C531 23 508 41 469 41 C466 41 464 41 461 41 L446 40 C443 40 441 40 439 40 C391 40 368 71 379 122 L379 125 C380 126 380 128 381 129 L387 159 L590 159 C621 159 639 177 647 214 C649 228 656 250 660 266 C681 366 619 441 514 441 C465 441 421 425 386 398 C363 426 326 441 277 441 C194 441 125 397 82 323 C71 305 64 287 61 271 L29 121 C26 107 25 90 27 72 L27 72 Z M248 360 C295 360 320 326 312 276 L280 129 C280 128 280 127 280 125 L279 122 C268 71 235 41 190 41 C137 41 120 82 138 168 C141 185 151 227 160 269 C175 314 192 360 248 360 L248 360 Z M404 240 L412 276 C424 326 462 359 507 359 C551 359 573 327 561 275 C559 265 556 252 553 240 L404 240 Z " />
<glyph glyph-name="Racute" unicode="&#x154;" horiz-adv-x="575" d="M330 696 C325 675 342 659 367 659 C375 659 386 661 394 665 C407 672 501 747 513 761 C517 765 521 773 522 779 C527 800 511 816 486 816 C478 816 466 814 458 810 C444 803 350 728 338 714 C334 710 331 702 330 696 L330 696 Z M41 41 L21 41 C-8 41 -39 19 -44 -4 C-48 -25 -32 -41 -6 -41 L144 -41 C173 -41 203 -19 208 4 C213 25 197 41 171 41 L141 41 C143 49 144 57 146 62 L251 560 L396 560 C443 560 469 525 458 474 C455 458 449 443 438 428 C419 399 402 391 360 391 L305 391 C268 391 237 375 233 355 C227 329 253 274 259 256 L345 14 C356 -13 356 -41 390 -41 C422 -41 453 -20 458 4 C459 9 459 13 458 17 C455 27 450 38 447 48 L353 310 C448 312 539 386 558 475 C562 493 563 512 560 532 C551 603 502 641 424 641 L149 641 C120 641 89 619 84 596 C80 575 95 560 121 560 L151 560 L41 41 Z " />
<glyph glyph-name="racute" unicode="&#x155;" horiz-adv-x="351" d="M193 521 C188 500 205 484 230 484 C238 484 249 486 257 490 C270 497 364 572 376 586 C380 590 384 598 385 604 C390 625 374 641 349 641 C341 641 329 639 321 635 C307 628 213 553 201 539 C197 535 194 527 193 521 L193 521 Z M63 41 L42 41 C13 41 -18 19 -23 -4 C-27 -25 -12 -41 14 -41 L164 -41 C193 -41 224 -19 229 4 C233 25 218 41 192 41 L163 41 C165 53 168 63 168 63 C180 124 192 182 199 218 C210 269 215 302 237 330 C277 379 314 342 349 378 C358 387 363 396 365 405 C370 428 351 441 313 441 C242 441 174 394 133 323 C122 305 115 287 112 271 L63 41 Z " />
<glyph glyph-name="uni0156" unicode="&#x156;" horiz-adv-x="575" d="M41 41 L21 41 C-8 41 -39 19 -44 -4 C-48 -25 -32 -41 -6 -41 L144 -41 C156 -41 168 -37 179 -31 C185 -36 193 -40 203 -40 C188 -70 132 -183 127 -207 C123 -225 141 -241 165 -241 C189 -241 217 -225 225 -207 C241 -179 321 0 324 14 C327 28 308 41 285 41 L235 41 C223 41 211 37 200 31 C194 37 183 41 171 41 L141 41 C143 49 144 57 146 62 L251 560 L396 560 C443 560 469 525 458 474 C455 458 449 443 438 428 C419 399 402 391 360 391 L305 391 C268 391 237 375 233 355 C227 329 253 274 259 256 L345 14 C356 -13 356 -41 390 -41 C422 -41 453 -20 458 4 C459 9 459 13 458 17 C455 27 450 38 447 48 L353 310 C448 312 539 386 558 475 C562 493 563 512 560 532 C551 603 502 641 424 641 L149 641 C120 641 89 619 84 596 C80 575 95 560 121 560 L151 560 L41 41 Z " />
<glyph glyph-name="uni0157" unicode="&#x157;" horiz-adv-x="351" d="M63 41 L42 41 C13 41 -18 19 -23 -4 C-27 -25 -12 -41 14 -41 L102 -41 C87 -72 32 -183 27 -207 C23 -225 41 -241 65 -241 C89 -241 117 -225 125 -207 C137 -186 184 -83 209 -25 C219 -17 227 -7 229 4 C233 25 218 41 192 41 L163 41 C165 53 168 63 168 63 C180 124 192 182 199 218 C210 269 215 302 237 330 C277 379 314 342 349 378 C358 387 363 396 365 405 C370 428 351 441 313 441 C242 441 174 394 133 323 C122 305 115 287 112 271 L63 41 Z " />
<glyph glyph-name="Rcaron" unicode="&#x158;" horiz-adv-x="575" d="M397 764 C381 785 367 816 335 816 C307 816 276 794 271 771 C270 766 269 761 271 757 C276 747 335 669 345 664 C350 662 358 660 366 660 C375 660 388 662 394 665 C407 671 502 747 514 761 C517 765 521 773 522 779 C527 800 511 816 485 816 C451 816 424 786 397 764 L397 764 Z M41 41 L21 41 C-8 41 -39 19 -44 -4 C-48 -25 -32 -41 -6 -41 L144 -41 C173 -41 203 -19 208 4 C213 25 197 41 171 41 L141 41 C143 49 144 57 146 62 L251 560 L396 560 C443 560 469 525 458 474 C455 458 449 443 438 428 C419 399 402 391 360 391 L305 391 C268 391 237 375 233 355 C227 329 253 274 259 256 L345 14 C356 -13 356 -41 390 -41 C422 -41 453 -20 458 4 C459 9 459 13 458 17 C455 27 450 38 447 48 L353 310 C448 312 539 386 558 475 C562 493 563 512 560 532 C551 603 502 641 424 641 L149 641 C120 641 89 619 84 596 C80 575 95 560 121 560 L151 560 L41 41 Z " />
<glyph glyph-name="rcaron" unicode="&#x159;" horiz-adv-x="351" d="M260 589 C244 610 230 641 198 641 C170 641 139 619 134 596 C133 591 132 586 134 582 C139 572 198 494 208 489 C213 487 221 485 229 485 C238 485 251 487 257 490 C270 496 365 572 377 586 C380 590 384 598 385 604 C390 625 374 641 348 641 C314 641 287 611 260 589 L260 589 Z M63 41 L42 41 C13 41 -18 19 -23 -4 C-27 -25 -12 -41 14 -41 L164 -41 C193 -41 224 -19 229 4 C233 25 218 41 192 41 L163 41 C165 53 168 63 168 63 C180 124 192 182 199 218 C210 269 215 302 237 330 C277 379 314 342 349 378 C358 387 363 396 365 405 C370 428 351 441 313 441 C242 441 174 394 133 323 C122 305 115 287 112 271 L63 41 Z " />
<glyph glyph-name="Sacute" unicode="&#x15a;" horiz-adv-x="550" d="M304 696 C299 675 316 659 341 659 C349 659 360 661 368 665 C381 672 475 747 487 761 C491 765 495 773 496 779 C501 800 485 816 460 816 C452 816 440 814 432 810 C418 803 324 728 312 714 C308 710 305 702 304 696 L304 696 Z M16 100 C28 8 91 -41 193 -41 C327 -41 445 53 471 184 C495 295 429 383 316 390 C268 393 222 381 210 436 C206 452 206 467 209 480 C218 522 248 560 294 560 C373 560 406 542 409 498 C410 483 407 473 407 463 C409 447 424 436 444 436 C475 436 505 459 511 487 C514 504 511 529 504 550 C485 611 431 641 341 641 C247 641 182 610 138 543 C123 519 112 494 107 471 C101 444 104 413 113 387 C132 335 177 310 252 310 C317 310 349 294 363 253 C371 227 373 194 367 165 C352 92 291 41 217 41 C155 41 119 76 118 135 C117 168 129 196 108 209 C102 213 93 216 84 216 C53 216 23 192 16 162 C14 148 13 124 16 100 L16 100 Z " />
<glyph glyph-name="sacute" unicode="&#x15b;" horiz-adv-x="426" d="M206 521 C201 500 218 484 243 484 C251 484 262 486 270 490 C283 497 377 572 389 586 C393 590 397 598 398 604 C403 625 387 641 362 641 C354 641 342 639 334 635 C320 628 226 553 214 539 C210 535 207 527 206 521 L206 521 Z M152 -41 C247 -41 335 27 354 116 C370 190 332 254 266 263 C243 266 207 263 195 270 C184 276 179 298 185 322 C190 347 204 360 224 360 C318 360 245 273 313 273 C349 273 379 296 386 329 C396 375 363 420 317 435 C304 439 287 441 269 441 C175 441 99 388 82 312 C69 250 99 199 153 189 C184 183 219 191 237 173 C250 160 257 130 251 104 C243 67 213 41 177 41 C145 41 126 61 126 93 C126 107 130 116 129 126 C127 142 112 154 92 154 C59 154 30 127 22 90 C7 19 66 -41 152 -41 L152 -41 Z " />
<glyph glyph-name="Scircumflex" unicode="&#x15c;" horiz-adv-x="550" d="M348 711 C365 690 378 660 410 660 C439 660 470 681 475 704 C476 709 477 714 474 718 C468 731 408 805 399 811 C396 814 386 816 378 816 C370 816 359 814 351 810 C338 803 244 728 232 714 C228 710 224 702 223 696 C218 675 234 660 260 660 C294 660 321 689 348 711 L348 711 Z M16 100 C28 8 91 -41 193 -41 C327 -41 445 53 471 184 C495 295 429 383 316 390 C268 393 222 381 210 436 C206 452 206 467 209 480 C218 522 248 560 294 560 C373 560 406 542 409 498 C410 483 407 473 407 463 C409 447 424 436 444 436 C475 436 505 459 511 487 C514 504 511 529 504 550 C485 611 431 641 341 641 C247 641 182 610 138 543 C123 519 112 494 107 471 C101 444 104 413 113 387 C132 335 177 310 252 310 C317 310 349 294 363 253 C371 227 373 194 367 165 C352 92 291 41 217 41 C155 41 119 76 118 135 C117 168 129 196 108 209 C102 213 93 216 84 216 C53 216 23 192 16 162 C14 148 13 124 16 100 L16 100 Z " />
<glyph glyph-name="scircumflex" unicode="&#x15d;" horiz-adv-x="426" d="M255 536 C272 515 285 485 317 485 C346 485 377 506 382 529 C383 534 384 539 381 543 C375 556 315 630 306 636 C303 639 293 641 285 641 C277 641 266 639 258 635 C245 628 151 553 139 539 C135 535 131 527 130 521 C125 500 141 485 167 485 C201 485 228 514 255 536 L255 536 Z M152 -41 C247 -41 335 27 354 116 C370 190 332 254 266 263 C243 266 207 263 195 270 C184 276 179 298 185 322 C190 347 204 360 224 360 C318 360 245 273 313 273 C349 273 379 296 386 329 C396 375 363 420 317 435 C304 439 287 441 269 441 C175 441 99 388 82 312 C69 250 99 199 153 189 C184 183 219 191 237 173 C250 160 257 130 251 104 C243 67 213 41 177 41 C145 41 126 61 126 93 C126 107 130 116 129 126 C127 142 112 154 92 154 C59 154 30 127 22 90 C7 19 66 -41 152 -41 L152 -41 Z " />
<glyph glyph-name="Scedilla" unicode="&#x15e;" horiz-adv-x="550" d="M16 100 C28 8 91 -41 193 -41 C208 -41 223 -40 238 -38 C245 -40 249 -39 251 -40 C253 -41 254 -48 252 -55 L243 -100 C243 -95 245 -91 244 -85 C242 -70 226 -59 207 -59 C176 -59 146 -83 140 -114 C131 -157 165 -191 218 -191 C277 -191 332 -149 344 -96 L354 -46 C358 -27 356 -10 349 5 C409 44 456 113 471 184 C495 295 429 383 316 390 C268 393 222 381 210 436 C206 452 206 467 209 480 C218 522 248 560 294 560 C373 560 406 542 409 498 C410 483 407 473 407 463 C409 447 424 436 444 436 C475 436 505 459 511 487 C514 504 511 529 504 550 C485 611 431 641 341 641 C247 641 182 610 138 543 C123 519 112 494 107 471 C101 444 104 413 113 387 C132 335 177 310 252 310 C317 310 349 294 363 253 C371 227 373 194 367 165 C352 92 291 41 217 41 C155 41 119 76 118 135 C117 168 129 196 108 209 C102 213 93 216 84 216 C53 216 23 192 16 162 C14 148 13 124 16 100 L16 100 Z " />
<glyph glyph-name="scedilla" unicode="&#x15f;" horiz-adv-x="426" d="M152 -41 C163 -41 174 -40 184 -39 C189 -40 193 -39 195 -40 C197 -41 198 -48 196 -55 L187 -100 C187 -95 189 -91 188 -85 C186 -70 170 -59 151 -59 C120 -59 90 -83 84 -114 C75 -157 109 -191 162 -191 C221 -191 276 -149 288 -96 L298 -46 C303 -24 299 -4 290 11 C322 38 345 75 354 116 C370 190 332 254 266 263 C243 266 207 263 195 270 C184 276 179 298 185 322 C190 347 204 360 224 360 C318 360 245 273 313 273 C349 273 379 296 386 329 C396 375 363 420 317 435 C304 439 287 441 269 441 C175 441 99 388 82 312 C69 250 99 199 153 189 C184 183 219 191 237 173 C250 160 257 130 251 104 C243 67 213 41 177 41 C145 41 126 61 126 93 C126 107 130 116 129 126 C127 142 112 154 92 154 C59 154 30 127 22 90 C7 19 66 -41 152 -41 L152 -41 Z " />
<glyph glyph-name="Scaron" unicode="&#x160;" horiz-adv-x="550" d="M372 764 C356 785 342 816 310 816 C282 816 251 794 246 771 C245 766 244 761 246 757 C251 747 310 669 320 664 C325 662 333 660 341 660 C350 660 363 662 369 665 C382 671 477 747 489 761 C492 765 496 773 497 779 C502 800 486 816 460 816 C426 816 399 786 372 764 L372 764 Z M16 100 C28 8 91 -41 193 -41 C327 -41 445 53 471 184 C495 295 429 383 316 390 C268 393 222 381 210 436 C206 452 206 467 209 480 C218 522 248 560 294 560 C373 560 406 542 409 498 C410 483 407 473 407 463 C409 447 424 436 444 436 C475 436 505 459 511 487 C514 504 511 529 504 550 C485 611 431 641 341 641 C247 641 182 610 138 543 C123 519 112 494 107 471 C101 444 104 413 113 387 C132 335 177 310 252 310 C317 310 349 294 363 253 C371 227 373 194 367 165 C352 92 291 41 217 41 C155 41 119 76 118 135 C117 168 129 196 108 209 C102 213 93 216 84 216 C53 216 23 192 16 162 C14 148 13 124 16 100 L16 100 Z " />
<glyph glyph-name="scaron" unicode="&#x161;" horiz-adv-x="426" d="M273 589 C257 610 243 641 211 641 C183 641 152 619 147 596 C146 591 145 586 147 582 C152 572 211 494 221 489 C226 487 234 485 242 485 C251 485 264 487 270 490 C283 496 378 572 390 586 C393 590 397 598 398 604 C403 625 387 641 361 641 C327 641 300 611 273 589 L273 589 Z M152 -41 C247 -41 335 27 354 116 C370 190 332 254 266 263 C243 266 207 263 195 270 C184 276 179 298 185 322 C190 347 204 360 224 360 C318 360 245 273 313 273 C349 273 379 296 386 329 C396 375 363 420 317 435 C304 439 287 441 269 441 C175 441 99 388 82 312 C69 250 99 199 153 189 C184 183 219 191 237 173 C250 160 257 130 251 104 C243 67 213 41 177 41 C145 41 126 61 126 93 C126 107 130 116 129 126 C127 142 112 154 92 154 C59 154 30 127 22 90 C7 19 66 -41 152 -41 L152 -41 Z " />
<glyph glyph-name="uni0162" unicode="&#x162;" horiz-adv-x="500" d="M141 41 L121 41 C93 41 61 19 56 -4 C52 -25 68 -41 93 -41 L202 -41 C187 -72 132 -183 127 -207 C123 -225 141 -241 165 -241 C189 -241 217 -225 225 -207 C241 -179 321 0 324 14 C327 28 308 41 285 41 L241 41 L351 560 L471 560 C500 560 531 581 535 604 C540 625 524 641 498 641 L148 641 C120 641 89 619 84 596 C79 575 95 560 121 560 L251 560 L141 41 Z " />
<glyph glyph-name="uni0163" unicode="&#x163;" horiz-adv-x="350" d="M119 360 L68 121 C65 106 64 88 67 68 C76 0 122 -41 186 -41 C203 -41 218 -38 231 -33 C236 -37 243 -40 252 -40 C237 -70 181 -183 176 -207 C172 -225 190 -241 214 -241 C238 -241 266 -225 274 -207 C290 -179 370 0 373 14 C376 28 357 41 334 41 L284 41 C274 41 265 39 256 34 C252 37 247 39 242 40 C231 42 220 40 205 44 C169 54 161 87 178 167 C191 231 205 296 219 360 L289 360 C318 360 348 381 353 404 C357 425 342 441 316 441 L236 441 C238 450 240 459 240 459 C249 504 261 541 218 541 C185 541 153 521 148 496 L136 441 L116 441 C88 441 56 419 51 396 C47 375 63 360 89 360 L119 360 Z " />
<glyph glyph-name="Tcaron" unicode="&#x164;" horiz-adv-x="500" d="M347 764 C331 785 317 816 285 816 C257 816 226 794 221 771 C220 766 219 761 221 757 C226 747 285 669 295 664 C300 662 308 660 316 660 C325 660 338 662 344 665 C357 671 452 747 464 761 C467 765 471 773 472 779 C477 800 461 816 435 816 C401 816 374 786 347 764 L347 764 Z M141 41 L121 41 C93 41 61 19 56 -4 C52 -25 68 -41 93 -41 L243 -41 C272 -41 303 -19 308 4 C312 25 297 41 271 41 L241 41 L351 560 L471 560 C500 560 531 581 535 604 C540 625 524 641 498 641 L148 641 C120 641 89 619 84 596 C79 575 95 560 121 560 L251 560 L141 41 Z " />
<glyph glyph-name="tcaron" unicode="&#x165;" horiz-adv-x="350" d="M119 360 L68 121 C65 106 64 88 67 68 C76 0 122 -41 186 -41 C228 -41 262 -22 268 4 C272 22 261 36 242 40 C231 42 220 40 205 44 C169 54 161 87 178 167 C191 231 205 296 219 360 L289 360 C298 360 308 362 317 366 C323 362 332 359 342 359 C366 359 394 375 402 393 C418 421 498 600 501 614 C504 628 485 641 462 641 L412 641 C384 641 352 619 347 596 C343 577 358 561 380 560 C370 540 342 483 323 441 C321 441 318 441 316 441 L236 441 C238 450 240 459 240 459 C249 504 261 541 218 541 C185 541 153 521 148 496 L136 441 L116 441 C88 441 56 419 51 396 C47 375 63 360 89 360 L119 360 Z " />
<glyph glyph-name="Tbar" unicode="&#x166;" horiz-adv-x="500" d="M215 721 C211 700 226 685 252 685 L402 685 C431 685 462 706 467 729 C471 750 456 766 430 766 L280 766 C252 766 220 744 215 721 L215 721 Z M141 41 L121 41 C93 41 61 19 56 -4 C52 -25 68 -41 93 -41 L243 -41 C272 -41 303 -19 308 4 C312 25 297 41 271 41 L241 41 L351 560 L471 560 C500 560 531 581 535 604 C540 625 524 641 498 641 L148 641 C120 641 89 619 84 596 C79 575 95 560 121 560 L251 560 L141 41 Z " />
<glyph glyph-name="tbar" unicode="&#x167;" horiz-adv-x="350" d="M119 360 L68 121 C65 106 64 88 67 68 C76 0 122 -41 186 -41 C228 -41 262 -22 268 4 C272 22 261 36 242 40 C231 42 220 40 205 44 C169 54 161 87 178 167 C191 231 205 296 219 360 L289 360 C318 360 348 381 353 404 C357 425 342 441 316 441 L236 441 C238 450 240 459 240 459 C242 468 244 477 245 485 L284 485 C313 485 344 506 349 529 C353 550 338 566 312 566 L162 566 C134 566 102 544 97 521 C93 500 108 485 134 485 L145 485 L136 441 L116 441 C88 441 56 419 51 396 C47 375 63 360 89 360 L119 360 Z " />
<glyph glyph-name="Utilde" unicode="&#x168;" horiz-adv-x="650" d="M360 707 C367 701 371 694 376 688 C391 669 416 660 444 660 C501 660 558 699 568 745 C574 774 560 791 529 791 C501 791 481 775 468 743 C461 749 457 757 450 764 C435 780 411 791 383 791 C327 791 270 751 260 705 C254 677 268 660 299 660 C327 660 347 675 360 707 L360 707 Z M151 560 L68 171 C64 149 63 123 67 98 C80 8 141 -41 243 -41 C349 -41 438 11 490 104 C505 130 515 157 520 179 L601 560 L621 560 C650 560 681 581 685 604 C690 625 674 641 648 641 L498 641 C470 641 439 619 434 596 C430 576 446 560 471 560 L501 560 C475 436 449 311 443 280 C406 106 359 41 271 41 C201 41 164 82 168 155 C169 179 175 200 179 222 L244 525 C246 537 249 548 251 560 L271 560 C300 560 331 581 335 604 C340 625 324 641 298 641 L148 641 C119 641 89 619 84 596 C79 575 95 560 121 560 L151 560 Z " />
<glyph glyph-name="utilde" unicode="&#x169;" horiz-adv-x="550" d="M273 532 C280 526 284 519 289 513 C304 494 329 485 357 485 C414 485 471 524 481 570 C487 599 473 616 442 616 C414 616 394 600 381 568 C374 574 370 582 363 589 C348 605 324 616 296 616 C240 616 183 576 173 530 C167 502 181 485 212 485 C240 485 260 500 273 532 L273 532 Z M313 41 L243 41 C149 41 184 145 198 210 C211 273 224 335 224 335 C241 411 234 441 202 441 L127 441 C98 441 67 418 62 393 C54 356 102 360 130 360 C115 289 99 217 99 217 C61 38 96 -41 214 -41 L340 -41 C369 -41 400 -19 405 4 L481 360 L500 360 C529 360 559 381 564 404 C568 425 553 441 527 441 L377 441 C349 441 317 419 312 396 C308 376 325 360 350 360 L380 360 C373 329 367 294 364 280 L313 41 Z " />
<glyph glyph-name="Umacron" unicode="&#x16a;" horiz-adv-x="650" d="M290 721 C286 700 301 685 327 685 L477 685 C506 685 537 706 542 729 C546 750 531 766 505 766 L355 766 C327 766 295 744 290 721 L290 721 Z M151 560 L68 171 C64 149 63 123 67 98 C80 8 141 -41 243 -41 C349 -41 438 11 490 104 C505 130 515 157 520 179 L601 560 L621 560 C650 560 681 581 685 604 C690 625 674 641 648 641 L498 641 C470 641 439 619 434 596 C430 576 446 560 471 560 L501 560 C475 436 449 311 443 280 C406 106 359 41 271 41 C201 41 164 82 168 155 C169 179 175 200 179 222 L244 525 C246 537 249 548 251 560 L271 560 C300 560 331 581 335 604 C340 625 324 641 298 641 L148 641 C119 641 89 619 84 596 C79 575 95 560 121 560 L151 560 Z " />
<glyph glyph-name="umacron" unicode="&#x16b;" horiz-adv-x="550" d="M203 546 C199 525 214 510 240 510 L390 510 C419 510 450 531 455 554 C459 575 444 591 418 591 L268 591 C240 591 208 569 203 546 L203 546 Z M313 41 L243 41 C149 41 184 145 198 210 C211 273 224 335 224 335 C241 411 234 441 202 441 L127 441 C98 441 67 418 62 393 C54 356 102 360 130 360 C115 289 99 217 99 217 C61 38 96 -41 214 -41 L340 -41 C369 -41 400 -19 405 4 L481 360 L500 360 C529 360 559 381 564 404 C568 425 553 441 527 441 L377 441 C349 441 317 419 312 396 C308 376 325 360 350 360 L380 360 C373 329 367 294 364 280 L313 41 Z " />
<glyph glyph-name="Ubreve" unicode="&#x16c;" horiz-adv-x="650" d="M293 756 C281 702 323 660 388 660 C461 660 533 709 545 767 C551 797 538 816 510 816 C498 816 485 812 475 806 C434 782 452 741 419 741 C374 741 428 816 366 816 C330 816 300 792 293 756 L293 756 Z M151 560 L68 171 C64 149 63 123 67 98 C80 8 141 -41 243 -41 C349 -41 438 11 490 104 C505 130 515 157 520 179 L601 560 L621 560 C650 560 681 581 685 604 C690 625 674 641 648 641 L498 641 C470 641 439 619 434 596 C430 576 446 560 471 560 L501 560 C475 436 449 311 443 280 C406 106 359 41 271 41 C201 41 164 82 168 155 C169 179 175 200 179 222 L244 525 C246 537 249 548 251 560 L271 560 C300 560 331 581 335 604 C340 625 324 641 298 641 L148 641 C119 641 89 619 84 596 C79 575 95 560 121 560 L151 560 Z " />
<glyph glyph-name="ubreve" unicode="&#x16d;" horiz-adv-x="550" d="M206 581 C194 527 236 485 301 485 C374 485 446 534 458 592 C464 622 451 641 423 641 C411 641 398 637 388 631 C347 607 365 566 332 566 C287 566 341 641 279 641 C243 641 213 617 206 581 L206 581 Z M313 41 L243 41 C149 41 184 145 198 210 C211 273 224 335 224 335 C241 411 234 441 202 441 L127 441 C98 441 67 418 62 393 C54 356 102 360 130 360 C115 289 99 217 99 217 C61 38 96 -41 214 -41 L340 -41 C369 -41 400 -19 405 4 L481 360 L500 360 C529 360 559 381 564 404 C568 425 553 441 527 441 L377 441 C349 441 317 419 312 396 C308 376 325 360 350 360 L380 360 C373 329 367 294 364 280 L313 41 Z " />
<glyph glyph-name="Uring" unicode="&#x16e;" horiz-adv-x="650" d="M151 560 L68 171 C64 149 63 123 67 98 C80 8 141 -41 243 -41 C349 -41 438 11 490 104 C505 130 515 157 520 179 L601 560 L621 560 C650 560 681 581 685 604 C690 625 674 641 648 641 L498 641 C490 641 482 639 475 636 C508 658 532 691 540 728 C554 791 510 841 443 841 C371 841 299 785 285 718 C279 688 285 661 301 641 C300 641 299 641 298 641 L148 641 C119 641 89 619 84 596 C79 575 95 560 121 560 L151 560 Z M403 689 C390 694 383 709 387 726 C391 745 404 759 417 759 C433 759 443 739 438 718 C435 701 423 689 409 687 C407 687 406 688 403 689 L403 689 Z M501 560 C475 436 449 311 443 280 C406 106 359 41 271 41 C201 41 164 82 168 155 C169 179 175 200 179 222 L244 525 C246 537 249 548 251 560 L271 560 C300 560 331 581 335 604 C336 608 336 612 336 616 C350 610 366 607 384 607 C408 607 432 614 453 624 C443 616 436 606 434 596 C430 576 446 560 471 560 L501 560 Z " />
<glyph glyph-name="uring" unicode="&#x16f;" horiz-adv-x="550" d="M191 518 C185 488 191 460 208 441 C206 441 204 441 202 441 L127 441 C98 441 67 418 62 393 C54 356 102 360 130 360 C115 289 99 217 99 217 C61 38 96 -41 214 -41 L340 -41 C369 -41 400 -19 405 4 L481 360 L500 360 C529 360 559 381 564 404 C568 425 553 441 527 441 L387 441 C417 463 439 494 446 528 C460 591 416 641 349 641 C277 641 205 585 191 518 L191 518 Z M309 489 C296 494 289 509 293 526 C297 545 310 559 323 559 C339 559 349 539 344 518 C341 501 329 489 315 487 C313 487 312 488 309 489 L309 489 Z M313 41 L243 41 C149 41 184 145 198 210 C211 273 224 335 224 335 C233 377 235 405 230 422 C246 412 266 407 290 407 C299 407 309 408 319 410 C316 406 313 401 312 396 C308 376 325 360 350 360 L380 360 C373 329 367 294 364 280 L313 41 Z " />
<glyph glyph-name="Uhungarumlaut" unicode="&#x170;" horiz-adv-x="650" d="M271 696 C266 675 283 659 308 659 C316 659 327 661 335 665 C348 672 442 747 454 761 C458 765 462 773 463 779 C468 800 452 816 427 816 C419 816 407 814 399 810 C385 803 291 728 279 714 C275 710 272 702 271 696 L271 696 Z M446 696 C441 675 458 659 483 659 C491 659 502 661 510 665 C523 672 617 747 629 761 C633 765 637 773 638 779 C643 800 627 816 602 816 C594 816 582 814 574 810 C560 803 466 728 454 714 C450 710 447 702 446 696 L446 696 Z M151 560 L68 171 C64 149 63 123 67 98 C80 8 141 -41 243 -41 C349 -41 438 11 490 104 C505 130 515 157 520 179 L601 560 L621 560 C650 560 681 581 685 604 C690 625 674 641 648 641 L498 641 C470 641 439 619 434 596 C430 576 446 560 471 560 L501 560 C475 436 449 311 443 280 C406 106 359 41 271 41 C201 41 164 82 168 155 C169 179 175 200 179 222 L244 525 C246 537 249 548 251 560 L271 560 C300 560 331 581 335 604 C340 625 324 641 298 641 L148 641 C119 641 89 619 84 596 C79 575 95 560 121 560 L151 560 Z " />
<glyph glyph-name="uhungarumlaut" unicode="&#x171;" horiz-adv-x="550" d="M184 521 C179 500 196 484 221 484 C229 484 240 486 248 490 C261 497 355 572 367 586 C371 590 375 598 376 604 C381 625 365 641 340 641 C332 641 320 639 312 635 C298 628 204 553 192 539 C188 535 185 527 184 521 L184 521 Z M359 521 C354 500 371 484 396 484 C404 484 415 486 423 490 C436 497 530 572 542 586 C546 590 550 598 551 604 C556 625 540 641 515 641 C507 641 495 639 487 635 C473 628 379 553 367 539 C363 535 360 527 359 521 L359 521 Z M313 41 L243 41 C149 41 184 145 198 210 C211 273 224 335 224 335 C241 411 234 441 202 441 L127 441 C98 441 67 418 62 393 C54 356 102 360 130 360 C115 289 99 217 99 217 C61 38 96 -41 214 -41 L340 -41 C369 -41 400 -19 405 4 L481 360 L500 360 C529 360 559 381 564 404 C568 425 553 441 527 441 L377 441 C349 441 317 419 312 396 C308 376 325 360 350 360 L380 360 C373 329 367 294 364 280 L313 41 Z " />
<glyph glyph-name="Uogonek" unicode="&#x172;" horiz-adv-x="650" d="M151 560 L68 171 C64 149 63 123 67 98 C78 17 129 -31 214 -39 C212 -44 211 -49 210 -54 L199 -104 C188 -154 220 -191 275 -191 C331 -191 389 -151 399 -105 C404 -78 391 -60 363 -60 C335 -60 307 -78 301 -101 C300 -100 300 -98 301 -95 L311 -48 C311 -48 311 -47 311 -46 L313 -42 C319 -38 325 -39 332 -37 C343 -34 353 -26 361 -17 C439 18 501 95 520 179 L601 560 L621 560 C650 560 681 581 685 604 C690 625 674 641 648 641 L498 641 C470 641 439 619 434 596 C430 576 446 560 471 560 L501 560 C475 436 449 311 443 280 C406 106 359 41 271 41 C201 41 164 82 168 155 C169 179 175 200 179 222 L244 525 C246 537 249 548 251 560 L271 560 C300 560 331 581 335 604 C340 625 324 641 298 641 L148 641 C119 641 89 619 84 596 C79 575 95 560 121 560 L151 560 Z " />
<glyph glyph-name="uogonek" unicode="&#x173;" horiz-adv-x="550" d="M313 41 L243 41 C149 41 184 145 198 210 C211 273 224 335 224 335 C241 411 234 441 202 441 L127 441 C98 441 67 418 62 393 C54 356 102 360 130 360 C115 289 99 217 99 217 C67 65 87 -15 166 -35 C164 -41 162 -48 161 -54 L150 -104 C139 -154 171 -191 226 -191 C282 -191 340 -151 350 -105 C355 -78 342 -60 314 -60 C286 -60 258 -78 252 -101 C251 -100 251 -98 252 -95 L262 -48 C262 -46 264 -43 264 -41 L340 -41 C369 -41 400 -19 405 4 L481 360 L500 360 C529 360 559 381 564 404 C568 425 553 441 527 441 L377 441 C349 441 317 419 312 396 C308 376 325 360 350 360 L380 360 C373 329 367 294 364 280 L313 41 Z " />
<glyph glyph-name="Wcircumflex" unicode="&#x174;" horiz-adv-x="850" d="M505 711 C522 690 535 660 567 660 C596 660 627 681 632 704 C633 709 634 714 631 718 C625 731 565 805 556 811 C553 814 543 816 535 816 C527 816 516 814 508 810 C495 803 401 728 389 714 C385 710 381 702 380 696 C375 675 391 660 417 660 C451 660 478 689 505 711 L505 711 Z M135 560 C141 443 175 78 177 42 C178 24 178 -6 183 -20 C188 -33 200 -41 218 -41 C234 -41 254 -35 261 -27 C281 -7 388 202 406 236 C410 205 428 -16 440 -32 C444 -37 457 -41 468 -41 C489 -41 512 -30 524 -14 C535 0 543 22 551 38 L610 155 C678 290 748 425 815 560 L821 560 C850 560 881 581 885 604 C890 625 874 641 848 641 L698 641 C670 641 639 619 634 596 C630 576 646 560 671 560 L714 560 C657 449 538 210 517 169 C514 200 496 416 484 432 C480 437 468 441 456 441 C440 441 421 435 413 427 C394 407 288 202 271 169 C265 266 247 488 240 560 L271 560 C300 560 331 581 335 604 C340 625 324 641 298 641 L148 641 C119 641 89 619 84 596 C79 575 95 560 121 560 L135 560 Z " />
<glyph glyph-name="wcircumflex" unicode="&#x175;" horiz-adv-x="700" d="M393 536 C410 515 423 485 455 485 C484 485 515 506 520 529 C521 534 522 539 519 543 C513 556 453 630 444 636 C441 639 431 641 423 641 C415 641 404 639 396 635 C383 628 289 553 277 539 C273 535 269 527 268 521 C263 500 279 485 305 485 C339 485 366 514 393 536 L393 536 Z M241 156 C238 188 226 307 220 363 C243 370 260 386 264 404 C268 425 253 441 227 441 L127 441 C98 441 67 419 62 396 C58 375 74 360 100 360 L117 360 C130 206 156 -21 161 -31 C163 -36 178 -41 193 -41 C222 -41 238 -28 261 12 L336 146 C339 122 352 -15 362 -31 C365 -37 377 -41 390 -41 C406 -41 427 -33 435 -26 C448 -14 569 212 644 360 L650 360 C679 360 709 381 714 404 C718 425 703 441 677 441 L577 441 C549 441 517 419 512 396 C508 378 521 364 543 360 C506 292 451 185 440 162 L425 295 C420 331 414 341 389 341 C346 341 333 320 315 288 L241 156 Z " />
<glyph glyph-name="Ycircumflex" unicode="&#x176;" horiz-adv-x="600" d="M377 711 C394 690 407 660 439 660 C468 660 499 681 504 704 C505 709 506 714 503 718 C497 731 437 805 428 811 C425 814 415 816 407 816 C399 816 388 814 380 810 C367 803 273 728 261 714 C257 710 253 702 252 696 C247 675 263 660 289 660 C323 660 350 689 377 711 L377 711 Z M191 41 L171 41 C143 41 111 19 106 -4 C102 -25 118 -41 143 -41 L293 -41 C322 -41 353 -19 358 4 C362 25 347 41 321 41 L291 41 L365 389 C376 401 383 407 389 413 L539 555 C540 556 543 559 544 560 L571 560 C600 560 631 581 635 604 C640 625 624 641 598 641 L448 641 C420 641 389 619 384 596 C380 576 396 560 421 560 L428 560 L334 470 L275 560 C303 561 331 581 335 604 C340 625 324 641 298 641 L148 641 C119 641 89 619 84 596 C79 575 95 560 121 560 L147 560 C171 522 237 423 264 383 L191 41 Z " />
<glyph glyph-name="ycircumflex" unicode="&#x177;" horiz-adv-x="500" d="M293 536 C310 515 323 485 355 485 C384 485 415 506 420 529 C421 534 422 539 419 543 C413 556 353 630 344 636 C341 639 331 641 323 641 C315 641 304 639 296 635 C283 628 189 553 177 539 C173 535 169 527 168 521 C163 500 179 485 205 485 C239 485 266 514 293 536 L293 536 Z M240 160 C233 231 224 311 218 364 C242 370 260 386 264 405 C268 425 252 441 227 441 L127 441 C98 441 67 419 62 396 C58 375 74 360 100 360 L115 360 C119 298 141 81 153 -11 L129 -58 C120 -74 113 -91 97 -118 C80 -147 66 -158 43 -161 C13 -165 -11 -183 -16 -205 C-20 -227 -2 -241 31 -241 C88 -241 149 -195 192 -125 C206 -103 216 -81 228 -59 L292 66 C309 99 402 276 444 360 L450 360 C479 360 509 381 514 404 C518 425 503 441 477 441 L377 441 C349 441 317 419 312 396 C308 378 320 364 342 360 C331 339 322 320 317 311 L240 160 Z " />
<glyph glyph-name="Ydieresis" unicode="&#x178;" horiz-adv-x="600" d="M255 696 C250 675 266 660 291 660 C321 660 352 681 357 704 L372 779 C377 800 361 816 336 816 C307 816 276 795 271 771 L255 696 Z M405 696 C401 676 417 660 442 660 C471 660 502 681 507 704 L522 779 C527 800 511 816 486 816 C457 816 426 795 421 771 L405 696 Z M191 41 L171 41 C143 41 111 19 106 -4 C102 -25 118 -41 143 -41 L293 -41 C322 -41 353 -19 358 4 C362 25 347 41 321 41 L291 41 L365 389 C376 401 383 407 389 413 L539 555 C540 556 543 559 544 560 L571 560 C600 560 631 581 635 604 C640 625 624 641 598 641 L448 641 C420 641 389 619 384 596 C380 576 396 560 421 560 L428 560 L334 470 L275 560 C303 561 331 581 335 604 C340 625 324 641 298 641 L148 641 C119 641 89 619 84 596 C79 575 95 560 121 560 L147 560 C171 522 237 423 264 383 L191 41 Z " />
<glyph glyph-name="Zacute" unicode="&#x179;" horiz-adv-x="500" d="M279 696 C274 675 291 659 316 659 C324 659 335 661 343 665 C356 672 450 747 462 761 C466 765 470 773 471 779 C476 800 460 816 435 816 C427 816 415 814 407 810 C393 803 299 728 287 714 C283 710 280 702 279 696 L279 696 Z M93 41 L482 530 C495 546 532 587 537 609 C540 626 522 641 498 641 L148 641 C120 641 89 619 84 596 C81 582 88 569 101 564 C122 556 186 560 211 560 L399 560 L10 70 C-4 54 -40 13 -45 -8 C-49 -26 -31 -41 -7 -41 L343 -41 C372 -41 403 -19 408 4 C411 18 404 31 390 36 C369 43 306 41 281 41 L93 41 Z " />
<glyph glyph-name="zacute" unicode="&#x17a;" horiz-adv-x="400" d="M192 521 C187 500 204 484 229 484 C237 484 248 486 256 490 C269 497 363 572 375 586 C379 590 383 598 384 604 C389 625 373 641 348 641 C340 641 328 639 320 635 C306 628 212 553 200 539 C196 535 193 527 192 521 L192 521 Z M116 41 L377 352 C389 366 411 388 414 406 C419 426 402 441 377 441 L127 441 C98 441 67 418 62 393 C54 358 98 360 125 360 L276 360 L15 48 C3 34 -19 12 -23 -7 C-27 -26 -11 -41 14 -41 L264 -41 C293 -41 324 -18 330 7 C337 42 294 41 267 41 L116 41 Z " />
<glyph glyph-name="Zdotaccent" unicode="&#x17b;" horiz-adv-x="500" d="M280 696 C276 676 291 660 317 660 C346 660 377 681 382 704 L397 779 C402 800 386 816 361 816 C332 816 301 795 296 771 L280 696 Z M93 41 L482 530 C495 546 532 587 537 609 C540 626 522 641 498 641 L148 641 C120 641 89 619 84 596 C81 582 88 569 101 564 C122 556 186 560 211 560 L399 560 L10 70 C-4 54 -40 13 -45 -8 C-49 -26 -31 -41 -7 -41 L343 -41 C372 -41 403 -19 408 4 C411 18 404 31 390 36 C369 43 306 41 281 41 L93 41 Z " />
<glyph glyph-name="zdotaccent" unicode="&#x17c;" horiz-adv-x="374" d="M192 521 C188 501 203 485 229 485 C258 485 289 506 294 529 L309 604 C314 625 298 641 273 641 C244 641 213 620 208 596 L192 521 Z M116 41 L377 352 C389 366 411 388 414 406 C419 426 402 441 377 441 L127 441 C98 441 67 418 62 393 C54 358 98 360 125 360 L276 360 L15 48 C3 34 -19 12 -23 -7 C-27 -26 -11 -41 14 -41 L264 -41 C293 -41 324 -18 330 7 C337 42 294 41 267 41 L116 41 Z " />
<glyph glyph-name="Zcaron" unicode="&#x17d;" horiz-adv-x="500" d="M347 764 C331 785 317 816 285 816 C257 816 226 794 221 771 C220 766 219 761 221 757 C226 747 285 669 295 664 C300 662 308 660 316 660 C325 660 338 662 344 665 C357 671 452 747 464 761 C467 765 471 773 472 779 C477 800 461 816 435 816 C401 816 374 786 347 764 L347 764 Z M93 41 L482 530 C495 546 532 587 537 609 C540 626 522 641 498 641 L148 641 C120 641 89 619 84 596 C81 582 88 569 101 564 C122 556 186 560 211 560 L399 560 L10 70 C-4 54 -40 13 -45 -8 C-49 -26 -31 -41 -7 -41 L343 -41 C372 -41 403 -19 408 4 C411 18 404 31 390 36 C369 43 306 41 281 41 L93 41 Z " />
<glyph glyph-name="zcaron" unicode="&#x17e;" horiz-adv-x="400" d="M259 589 C243 610 229 641 197 641 C169 641 138 619 133 596 C132 591 131 586 133 582 C138 572 197 494 207 489 C212 487 220 485 228 485 C237 485 250 487 256 490 C269 496 364 572 376 586 C379 590 383 598 384 604 C389 625 373 641 347 641 C313 641 286 611 259 589 L259 589 Z M116 41 L377 352 C389 366 411 388 414 406 C419 426 402 441 377 441 L127 441 C98 441 67 418 62 393 C54 358 98 360 125 360 L276 360 L15 48 C3 34 -19 12 -23 -7 C-27 -26 -11 -41 14 -41 L264 -41 C293 -41 324 -18 330 7 C337 42 294 41 267 41 L116 41 Z " />
<glyph glyph-name="longs" unicode="&#x17f;" horiz-adv-x="300" d="M-19 -4 C-24 -26 -6 -41 24 -41 C65 -41 79 -19 99 75 C122 181 150 322 165 396 C185 488 193 512 213 535 C239 565 252 554 279 560 C308 566 331 584 336 605 C341 628 321 641 283 641 C192 641 100 559 82 471 L-19 -4 Z " />
<glyph glyph-name="florin" unicode="&#x192;" horiz-adv-x="400" d="M159 360 L81 -4 C81 -5 81 -4 81 -5 C75 -22 74 -42 70 -63 C58 -118 29 -155 -8 -159 C-17 -160 -25 -159 -34 -160 C-59 -163 -82 -185 -87 -205 C-92 -228 -72 -241 -34 -241 C57 -241 149 -159 167 -71 L182 2 C186 14 189 28 189 28 C214 146 235 254 258 360 L329 360 C358 360 388 381 393 404 C397 425 382 441 356 441 L275 441 C277 449 278 455 278 455 C286 493 296 515 313 535 C339 565 352 554 379 560 C408 566 431 584 436 605 C440 625 423 641 398 641 L373 641 C363 641 352 637 341 634 C263 614 198 547 182 471 L176 441 L131 441 C103 441 71 419 66 396 C62 376 78 360 104 360 L159 360 Z " />
<glyph glyph-name="Aringacute" unicode="&#x1fa;" horiz-adv-x="650" d="M153 41 C160 54 167 68 175 84 L372 85 C375 61 376 50 377 40 L371 41 C343 41 311 19 306 -4 C302 -25 318 -41 343 -41 L493 -41 C522 -41 553 -19 558 4 C562 25 547 41 521 41 L482 41 C476 158 442 522 440 556 C439 567 439 582 438 595 C486 616 523 656 533 703 C544 753 519 795 474 810 C507 835 557 876 565 886 C569 890 573 898 574 904 C579 925 563 941 538 941 C530 941 518 939 510 935 C496 928 402 853 390 839 C386 835 383 827 382 821 C380 816 381 810 382 806 C331 787 289 743 278 693 C268 646 289 607 329 591 C324 581 320 571 316 562 L257 445 C189 310 118 176 52 41 L21 41 C-8 41 -39 19 -44 -4 C-48 -25 -33 -41 -7 -41 L143 -41 C172 -41 203 -19 208 4 C212 25 197 41 171 41 L153 41 Z M396 664 C383 669 376 684 380 701 C384 720 397 734 410 734 C426 734 436 714 431 693 C428 676 416 664 402 662 C400 662 399 663 396 664 L396 664 Z M216 166 C251 234 312 355 346 425 C349 398 358 275 366 165 L216 166 Z " />
<glyph glyph-name="aringacute" unicode="&#x1fb;" horiz-adv-x="450" d="M252 -3 C248 -24 264 -40 289 -40 C318 -40 349 -18 354 5 L439 404 C443 426 428 442 402 442 L339 442 C368 464 389 494 396 528 C407 578 381 621 336 635 C369 660 419 701 427 711 C431 715 435 723 436 729 C441 750 425 766 400 766 C392 766 380 764 372 760 C358 753 264 678 252 664 C248 660 245 652 244 646 C242 640 243 635 244 630 C194 611 152 568 141 518 C132 475 149 439 182 420 C122 391 74 336 61 271 L34 147 C12 42 61 -41 147 -41 C189 -41 223 -23 229 3 C233 22 221 36 199 40 C194 41 187 41 180 42 C143 47 124 99 136 155 L162 278 C165 293 173 309 182 323 C207 362 232 361 261 361 C291 361 310 360 329 360 L252 -3 Z M259 489 C246 494 239 509 243 526 C247 545 260 559 273 559 C289 559 299 539 294 518 C291 501 279 489 265 487 C263 487 262 488 259 489 L259 489 Z " />
<glyph glyph-name="AEacute" unicode="&#x1fc;" horiz-adv-x="750" d="M405 696 C400 675 417 659 442 659 C450 659 461 661 469 665 C482 672 576 747 588 761 C592 765 596 773 597 779 C602 800 586 816 561 816 C553 816 541 814 533 810 C519 803 425 728 413 714 C409 710 406 702 405 696 L405 696 Z M306 60 C306 57 308 54 309 47 C322 -11 373 -41 443 -41 L568 -41 C597 -41 628 -19 633 6 C638 29 620 41 578 41 C571 41 564 41 557 41 L516 40 C509 40 502 40 502 40 C432 40 410 54 406 100 C406 107 406 113 405 118 C410 172 417 287 422 360 L554 360 C583 360 613 381 618 404 C622 425 607 441 581 441 L426 441 C429 487 431 528 433 560 L696 560 C725 560 756 581 760 604 C765 625 749 641 723 641 L398 641 C398 641 398 641 398 641 L396 640 C370 637 349 626 340 610 C330 595 323 577 316 562 L257 445 C189 310 118 176 52 41 L21 41 C-8 41 -39 19 -44 -4 C-48 -25 -33 -41 -7 -41 L118 -41 C147 -41 178 -19 183 4 C187 22 175 36 153 40 C156 46 159 52 163 59 L306 60 Z M204 141 C252 237 307 347 321 374 L309 188 C308 180 306 161 305 141 L204 141 Z " />
<glyph glyph-name="aeacute" unicode="&#x1fd;" horiz-adv-x="702" d="M343 521 C338 500 355 484 380 484 C388 484 399 486 407 490 C420 497 514 572 526 586 C530 590 534 598 535 604 C540 625 524 641 499 641 C491 641 479 639 471 635 C457 628 363 553 351 539 C347 535 344 527 343 521 L343 521 Z M414 160 L607 160 C633 160 660 176 669 196 C675 211 686 263 686 263 C692 290 694 311 691 332 C679 401 636 439 563 441 C560 442 556 442 552 442 L277 442 C175 442 81 368 61 271 L34 147 C12 42 61 -41 147 -41 C189 -41 223 -23 229 3 C233 22 221 36 199 40 C194 41 187 41 180 42 C142 48 124 97 136 155 L162 278 C168 308 191 342 212 353 C238 366 286 361 312 361 L382 361 C363 339 349 313 341 284 C339 280 337 276 336 271 L320 196 C319 193 319 189 319 185 L306 121 C303 106 303 88 305 71 C316 -2 362 -41 441 -41 L489 -41 C518 -41 549 -18 555 7 C563 49 503 40 476 40 C424 40 396 76 407 129 L414 160 Z M431 241 L439 279 C450 330 483 360 526 360 C573 360 599 323 588 271 C586 261 583 251 581 241 L431 241 Z " />
<glyph glyph-name="Oslashacute" unicode="&#x1fe;" horiz-adv-x="550" d="M16 100 C21 62 35 32 56 9 C28 -45 0 -100 -3 -113 C-6 -128 14 -141 39 -141 C66 -141 86 -126 103 -94 L134 -35 C152 -39 172 -41 193 -41 C299 -41 390 12 442 107 C455 132 466 158 470 179 L523 429 C528 450 529 474 525 500 C519 546 501 581 471 605 C497 654 520 701 523 713 C526 728 506 741 481 741 C475 741 469 740 464 739 C476 749 485 757 488 761 C492 765 496 773 497 779 C502 800 486 816 461 816 C453 816 441 814 433 810 C419 803 325 728 313 714 C309 710 306 702 305 696 C300 675 317 659 342 659 C350 659 361 661 369 665 C375 668 399 686 423 706 C421 702 419 698 417 694 L387 638 C375 640 363 641 349 641 C242 641 152 588 100 493 C87 468 76 442 72 421 L18 171 C14 150 13 126 16 100 L16 100 Z M118 124 C115 140 116 159 120 179 L173 428 C190 506 252 560 327 560 C334 560 340 560 346 559 L118 124 Z M224 41 C207 41 191 44 178 49 L402 477 C404 481 407 486 411 494 C424 465 422 417 408 353 C403 331 387 260 373 191 C357 112 315 41 224 41 L224 41 Z " />
</font>
</svg>
