<?xml version="1.0" encoding="UTF-8"?>
<svg xmlns="http://www.w3.org/2000/svg" xmlns:xlink="http://www.w3.org/1999/xlink" version="1.2" >
<font id="GAPZuid-Bold" horiz-adv-x="458">
<font-face  font-family="GAP Zuid" units-per-em="1000" ascent="750" descent="-250" font-style="normal" font-weight="700" font-stretch="normal" cap-height="625" x-height="425" underline-position="-100" underline-thickness="50" />
<missing-glyph horiz-adv-x="450" d="M119 36 L119 564 L331 564 L331 185 L170 508 L130 586 C118 611 113 636 79 636 C58 636 31 621 31 597 C31 583 59 535 66 520 L132 388 L330 -7 C339 -26 349 -36 371 -36 C392 -36 419 -21 419 3 L419 603 C419 624 398 636 379 636 L79 636 C58 636 31 621 31 597 L31 -3 C31 -24 52 -36 71 -36 L371 -36 C392 -36 419 -21 419 3 C419 18 408 28 395 33 C378 39 158 36 119 36 L119 36 Z M31 -3 C31 -24 52 -36 71 -36 C87 -36 102 -29 112 -16 C125 0 132 23 142 42 L205 170 C253 264 301 359 348 454 C371 499 394 544 415 589 C417 594 419 598 419 603 C419 624 398 636 379 636 C363 636 348 629 338 616 C325 600 318 577 308 558 L245 430 C197 336 149 241 102 146 C79 101 56 56 35 11 C33 6 31 2 31 -3 L31 -3 Z " />
<glyph glyph-name="NULL" horiz-adv-x="0" >
</glyph>
<glyph glyph-name="CR" unicode="&#xd;" horiz-adv-x="250" >
</glyph>
<glyph glyph-name="space" unicode="&#x20;" horiz-adv-x="200" />
<glyph glyph-name="uni0000" horiz-adv-x="0" />
<glyph glyph-name="uni000D" horiz-adv-x="250" />
<glyph glyph-name="exclam" unicode="&#x21;" horiz-adv-x="200" d="M56 72 L56 -3 C56 -24 77 -36 96 -36 C117 -36 144 -21 144 3 L144 78 C144 99 123 111 104 111 C83 111 56 96 56 72 L56 72 Z M56 597 L56 197 C56 176 77 164 96 164 C117 164 144 179 144 203 L144 603 C144 624 123 636 104 636 C83 636 56 621 56 597 L56 597 Z " />
<glyph glyph-name="quotedbl" unicode="&#x22;" horiz-adv-x="325" d="M56 597 L56 447 C56 426 77 414 96 414 C117 414 144 429 144 453 L144 603 C144 624 123 636 104 636 C83 636 56 621 56 597 L56 597 Z M181 597 L181 447 C181 426 202 414 221 414 C242 414 269 429 269 453 L269 603 C269 624 248 636 229 636 C208 636 181 621 181 597 L181 597 Z " />
<glyph glyph-name="numbersign" unicode="&#x23;" horiz-adv-x="550" d="M319 503 C319 524 298 536 279 536 C258 536 248 528 236 512 C235 512 106 15 106 -3 C106 -24 127 -36 146 -36 C167 -36 177 -28 189 -12 C190 -12 319 485 319 503 L319 503 Z M231 -3 C231 -24 252 -36 271 -36 C292 -36 302 -28 314 -12 C315 -12 444 485 444 503 C444 524 423 536 404 536 C383 536 373 528 361 512 C360 512 231 15 231 -3 L231 -3 Z M121 264 L446 264 C467 264 494 279 494 303 C494 324 473 336 454 336 L129 336 C108 336 81 321 81 297 C81 276 102 264 121 264 L121 264 Z M96 164 L421 164 C442 164 469 179 469 203 C469 224 448 236 429 236 L104 236 C83 236 56 221 56 197 C56 176 77 164 96 164 L96 164 Z " />
<glyph glyph-name="dollar" unicode="&#x24;" horiz-adv-x="450" d="M181 597 L181 530 C109 512 56 453 56 372 C56 283 121 218 209 215 C225 214 240 214 254 209 C288 197 306 156 306 122 C306 75 281 36 229 36 C182 36 155 66 147 111 C145 120 145 131 143 140 C139 158 121 167 104 167 C79 167 56 150 56 124 C56 48 108 -16 181 -32 L181 -103 C181 -124 202 -136 221 -136 C242 -136 269 -121 269 -97 L269 -30 C341 -12 394 47 394 128 C394 217 329 282 241 285 C225 286 210 286 196 291 C162 303 144 344 144 378 C144 425 169 464 221 464 C268 464 295 436 304 391 C306 383 305 374 307 366 C311 348 329 339 346 339 C367 339 394 354 394 378 C394 456 343 516 269 532 L269 603 C269 624 248 636 229 636 C208 636 181 621 181 597 L181 597 Z " />
<glyph glyph-name="percent" unicode="&#x25;" horiz-adv-x="750" d="M544 503 C544 524 523 536 504 536 C488 536 473 529 463 516 C452 502 446 483 438 467 L385 361 C345 282 305 203 266 124 C247 86 228 49 210 11 C208 6 206 2 206 -3 C206 -24 227 -36 246 -36 C262 -36 277 -29 287 -16 C298 -2 304 17 312 33 L365 139 C405 218 445 297 484 376 C503 414 522 451 540 489 C542 494 544 498 544 503 L544 503 Z M204 286 C166 286 144 317 144 353 C144 363 143 373 143 383 C143 420 148 464 196 464 C257 464 256 406 256 362 C256 334 265 314 296 314 C317 314 344 329 344 353 L344 403 C344 483 282 536 204 536 C118 536 56 478 56 391 L56 347 C56 267 118 214 196 214 C276 214 344 269 344 353 C344 374 323 386 304 386 C281 386 259 371 256 347 C253 314 243 286 204 286 L204 286 Z M554 36 C516 36 494 67 494 103 C494 113 493 123 493 133 C493 170 498 214 546 214 C607 214 606 156 606 112 C606 84 615 64 646 64 C667 64 694 79 694 103 L694 153 C694 233 632 286 554 286 C468 286 406 228 406 141 L406 97 C406 17 468 -36 546 -36 C626 -36 694 19 694 103 C694 124 673 136 654 136 C631 136 609 121 606 97 C603 64 593 36 554 36 L554 36 Z " />
<glyph glyph-name="ampersand" unicode="&#x26;" horiz-adv-x="575" d="M321 114 L351 114 C340 68 311 36 254 36 C202 36 168 60 152 110 C147 123 144 138 144 153 C144 190 163 238 198 255 C214 263 230 263 248 264 C269 266 294 279 294 303 C294 341 251 332 230 340 C207 349 194 380 194 403 C194 436 211 464 246 464 C279 464 298 444 304 412 C306 405 305 397 307 389 C312 373 330 364 346 364 C367 364 394 379 394 403 C394 483 332 536 254 536 C174 536 106 481 106 397 C106 364 119 330 141 306 C89 271 56 210 56 147 C56 84 90 17 147 -13 C177 -29 211 -36 246 -36 C268 -36 291 -33 312 -26 C378 -8 426 49 440 114 L471 114 C492 114 519 129 519 153 C519 174 498 186 479 186 L329 186 C308 186 281 171 281 147 C281 126 302 114 321 114 L321 114 Z " />
<glyph glyph-name="quotesingle" unicode="&#x27;" horiz-adv-x="200" d="M56 597 L56 447 C56 426 77 414 96 414 C117 414 144 429 144 453 L144 603 C144 624 123 636 104 636 C83 636 56 621 56 597 L56 597 Z " />
<glyph glyph-name="parenleft" unicode="&#x28;" horiz-adv-x="350" d="M56 297 C56 167 122 21 230 -54 C247 -66 274 -86 296 -86 C317 -86 344 -71 344 -47 C344 -34 336 -26 325 -19 C310 -10 296 -3 282 8 C196 72 144 196 144 303 C144 410 199 544 291 603 C310 616 344 626 344 653 C344 674 323 686 304 686 C272 686 219 642 194 621 C110 544 56 411 56 297 L56 297 Z " />
<glyph glyph-name="parenright" unicode="&#x29;" horiz-adv-x="376" d="M232 271 C232 263 231 256 231 248 C221 150 178 69 96 15 C76 1 55 -8 33 -18 C19 -25 6 -36 6 -53 C6 -74 27 -86 46 -86 C69 -86 115 -60 136 -47 C248 22 320 146 320 278 L320 328 C320 462 247 586 132 653 C113 664 75 686 54 686 C33 686 6 671 6 647 C6 632 16 624 28 618 C50 607 71 598 91 585 C174 530 220 448 230 350 C233 324 232 297 232 271 L232 271 Z " />
<glyph glyph-name="asterisk" unicode="&#x2a;" horiz-adv-x="400" d="M196 464 C220 464 280 500 303 511 C320 520 344 529 344 553 C344 574 323 586 304 586 C281 586 226 553 203 542 C182 553 125 586 104 586 C83 586 56 571 56 547 C56 539 60 532 65 526 C70 521 169 470 180 467 C185 465 190 464 196 464 L196 464 Z M198 406 C210 382 216 364 246 364 C267 364 294 379 294 403 C294 417 255 487 249 499 C238 521 232 536 204 536 C172 536 163 517 150 492 L130 452 C124 439 106 410 106 397 C106 376 127 364 146 364 C176 364 186 381 198 406 L198 406 Z M156 597 L156 497 C156 476 177 464 196 464 C217 464 244 479 244 503 L244 603 C244 624 223 636 204 636 C183 636 156 621 156 597 L156 597 Z " />
<glyph glyph-name="plus" unicode="&#x2b;" horiz-adv-x="400" d="M96 214 L296 214 C317 214 344 229 344 253 C344 274 323 286 304 286 L104 286 C83 286 56 271 56 247 C56 226 77 214 96 214 L96 214 Z M244 153 L244 353 C244 374 223 386 204 386 C183 386 156 371 156 347 L156 147 C156 126 177 114 196 114 C217 114 244 129 244 153 L244 153 Z " />
<glyph glyph-name="comma" unicode="&#x2c;" horiz-adv-x="200" d="M169 3 C169 24 148 36 129 36 L79 36 C58 36 31 21 31 -3 C31 -25 53 -36 72 -36 C65 -66 31 -182 31 -203 C31 -224 52 -236 71 -236 C87 -236 102 -229 112 -216 C114 -213 116 -210 117 -206 C123 -189 169 -7 169 3 L169 3 Z " />
<glyph glyph-name="hyphen" unicode="&#x2d;" horiz-adv-x="400" d="M96 214 L296 214 C317 214 344 229 344 253 C344 274 323 286 304 286 L104 286 C83 286 56 271 56 247 C56 226 77 214 96 214 L96 214 Z " />
<glyph glyph-name="period" unicode="&#x2e;" horiz-adv-x="150" d="M31 72 L31 -3 C31 -24 52 -36 71 -36 C92 -36 119 -21 119 3 L119 78 C119 99 98 111 79 111 C58 111 31 96 31 72 L31 72 Z " />
<glyph glyph-name="slash" unicode="&#x2f;" horiz-adv-x="300" d="M344 653 C344 674 323 686 304 686 C277 686 263 671 254 647 L90 186 C79 155 6 -37 6 -53 C6 -74 27 -86 46 -86 C73 -86 87 -71 96 -47 L260 414 C271 445 344 637 344 653 L344 653 Z " />
<glyph glyph-name="zero" unicode="0" horiz-adv-x="500" d="M353 513 C323 529 289 536 254 536 C146 536 56 460 56 347 L56 172 C56 54 130 -36 252 -36 C362 -36 444 42 444 153 L444 353 C444 416 410 483 353 513 L353 513 Z M260 36 C181 36 144 107 144 178 L144 353 C144 368 147 383 152 396 C167 443 197 464 246 464 C321 464 348 415 356 350 C355 341 356 328 356 320 L356 147 C356 89 324 36 260 36 L260 36 Z " />
<glyph glyph-name="one" unicode="1" horiz-adv-x="325" d="M269 3 L269 503 C269 524 248 536 229 536 L104 536 C83 536 56 521 56 497 C56 460 102 464 127 464 L181 464 C181 314 181 163 181 13 C181 -15 186 -36 221 -36 C242 -36 269 -21 269 3 L269 3 Z " />
<glyph glyph-name="two" unicode="2" horiz-adv-x="450" d="M221 464 C274 464 306 422 306 372 C306 287 154 109 84 39 C77 31 68 24 62 15 C59 10 56 3 56 -3 C56 -24 77 -36 96 -36 L346 -36 C367 -36 394 -21 394 3 C394 37 354 36 330 36 L186 36 C255 111 394 274 394 378 C394 473 320 536 229 536 C134 536 56 470 56 372 C56 351 77 339 96 339 C120 339 141 354 144 378 C149 427 165 464 221 464 L221 464 Z " />
<glyph glyph-name="three" unicode="3" horiz-adv-x="500" d="M292 464 L202 361 C189 346 172 331 161 314 C158 308 156 303 156 297 C156 256 215 264 241 264 C286 264 318 253 340 210 C349 193 356 167 356 147 C356 133 353 120 349 107 C334 59 304 36 254 36 C195 36 159 69 147 126 C143 145 148 168 128 179 C121 184 112 186 104 186 C83 186 56 171 56 147 C56 34 139 -36 246 -36 C353 -36 444 41 444 153 C444 251 377 324 281 334 L371 437 C384 453 402 468 413 486 C416 492 418 497 418 503 C418 524 397 536 378 536 L128 536 C107 536 80 521 80 497 C80 462 121 464 146 464 L292 464 Z " />
<glyph glyph-name="four" unicode="4" horiz-adv-x="500" d="M356 197 L356 136 C289 137 189 136 163 136 L282 373 C293 394 344 487 344 503 C344 524 323 536 304 536 C261 536 252 495 236 464 L98 186 C89 169 56 112 56 97 C56 76 77 64 96 64 L356 64 L356 -3 C356 -24 377 -36 396 -36 C417 -36 444 -21 444 3 L444 203 C444 224 423 236 404 236 C383 236 356 221 356 197 L356 197 Z " />
<glyph glyph-name="five" unicode="5" horiz-adv-x="500" d="M379 536 L166 536 C120 536 119 501 112 466 L100 399 C94 370 81 324 81 297 C81 255 148 264 175 264 C191 264 207 265 223 265 C275 265 316 260 341 208 C350 190 356 167 356 147 C356 133 353 120 349 107 C334 59 304 36 254 36 C195 36 159 69 147 126 C141 157 147 186 104 186 C83 186 56 171 56 147 C56 84 90 17 147 -13 C177 -29 212 -36 246 -36 C353 -36 444 41 444 153 C444 216 410 283 353 313 C295 343 238 336 175 336 L199 464 C254 464 309 464 364 464 C387 464 419 475 419 503 C419 524 398 536 379 536 L379 536 Z " />
<glyph glyph-name="six" unicode="6" horiz-adv-x="500" d="M303 536 L254 536 C132 536 56 439 56 322 L56 147 C56 84 90 17 147 -13 C177 -29 211 -36 246 -36 C353 -36 444 40 444 153 C444 215 409 283 353 313 C322 329 288 336 254 336 L204 336 C183 336 156 321 156 297 C156 256 215 264 241 264 C286 264 317 252 340 210 C349 193 356 166 356 147 C356 132 353 118 348 104 C333 57 303 36 254 36 C182 36 144 90 144 158 L144 328 C144 352 151 383 160 405 C180 447 204 465 251 465 C262 465 273 464 284 464 C309 464 343 473 343 503 C343 524 322 536 303 536 L303 536 Z " />
<glyph glyph-name="seven" unicode="7" horiz-adv-x="500" d="M444 503 C444 524 423 536 404 536 L104 536 C83 536 56 521 56 497 C56 482 67 472 80 467 C96 461 300 464 337 464 L189 161 C177 136 112 14 112 -3 C112 -24 133 -36 152 -36 C195 -36 204 5 219 36 L386 377 C396 398 444 488 444 503 L444 503 Z " />
<glyph glyph-name="eight" unicode="8" horiz-adv-x="500" d="M254 536 C177 536 106 477 106 397 C106 359 121 327 145 304 C93 271 56 214 56 147 C56 42 143 -36 246 -36 C350 -36 444 46 444 153 C444 220 407 277 354 308 C378 333 394 366 394 403 C394 480 328 536 254 536 L254 536 Z M353 117 C342 72 301 36 254 36 C191 36 144 92 144 153 C144 210 186 264 246 264 C295 264 338 227 351 181 C354 171 355 160 356 150 C354 139 355 128 353 117 L353 117 Z M304 378 C298 355 278 336 254 336 C218 336 194 370 194 403 C194 433 214 464 246 464 C273 464 298 441 304 416 C305 409 305 403 306 396 C305 390 305 384 304 378 L304 378 Z " />
<glyph glyph-name="nine" unicode="9" horiz-adv-x="500" d="M195 -37 L252 -37 C375 -37 444 57 444 174 L444 353 C444 410 413 476 364 506 C330 526 293 535 254 535 C146 535 56 461 56 347 C56 284 90 216 147 186 C178 170 211 163 246 163 L296 163 C317 163 344 178 344 202 C344 243 283 235 257 235 C212 235 182 247 160 289 C151 306 144 333 144 353 C144 415 180 463 246 463 C318 463 356 410 356 342 L356 166 C356 142 351 116 343 94 C325 51 300 34 254 34 C241 34 228 35 215 35 C190 35 155 27 155 -4 C155 -25 176 -37 195 -37 L195 -37 Z " />
<glyph glyph-name="colon" unicode="&#x3a;" horiz-adv-x="175" d="M56 397 L56 322 C56 301 77 289 96 289 C117 289 144 304 144 328 L144 403 C144 424 123 436 104 436 C83 436 56 421 56 397 L56 397 Z M56 72 L56 -3 C56 -24 77 -36 96 -36 C117 -36 144 -21 144 3 L144 78 C144 99 123 111 104 111 C83 111 56 96 56 72 L56 72 Z " />
<glyph glyph-name="semicolon" unicode="&#x3b;" horiz-adv-x="200" d="M169 3 C169 24 148 36 129 36 L79 36 C58 36 31 21 31 -3 C31 -25 53 -36 72 -36 C65 -66 31 -182 31 -203 C31 -224 52 -236 71 -236 C87 -236 102 -229 112 -216 C114 -213 116 -210 117 -206 C123 -189 169 -7 169 3 L169 3 Z M55 397 L55 322 C55 301 76 289 95 289 C116 289 143 304 143 328 L143 403 C143 424 122 436 103 436 C82 436 55 421 55 397 L55 397 Z " />
<glyph glyph-name="less" unicode="&#x3c;" horiz-adv-x="325" d="M56 247 C56 240 58 235 62 230 C67 223 189 101 195 97 C203 92 212 89 221 89 C242 89 269 104 269 128 C269 148 243 165 230 178 L156 253 L229 325 C242 339 269 357 269 378 C269 399 248 411 229 411 C218 411 208 407 199 401 C189 395 70 277 63 266 C59 261 56 254 56 247 L56 247 Z " />
<glyph glyph-name="equal" unicode="&#x3d;" horiz-adv-x="400" d="M96 264 L296 264 C317 264 344 279 344 303 C344 324 323 336 304 336 L104 336 C83 336 56 321 56 297 C56 276 77 264 96 264 L96 264 Z M96 164 L296 164 C317 164 344 179 344 203 C344 224 323 236 304 236 L104 236 C83 236 56 221 56 197 C56 176 77 164 96 164 L96 164 Z " />
<glyph glyph-name="greater" unicode="&#x3e;" horiz-adv-x="325" d="M169 247 L96 175 C83 161 56 143 56 122 C56 101 77 89 96 89 C107 89 117 93 126 99 C136 105 255 223 262 234 C266 239 269 246 269 253 C269 260 267 265 263 270 C258 277 136 399 130 403 C122 408 113 411 104 411 C83 411 56 396 56 372 C56 352 82 335 95 322 L169 247 Z " />
<glyph glyph-name="question" unicode="&#x3f;" horiz-adv-x="450" d="M221 564 C273 564 306 528 306 478 C306 381 212 413 185 296 C181 276 181 254 181 234 C181 202 175 164 221 164 C253 164 269 184 269 215 L269 258 C269 306 277 321 315 348 C369 386 394 418 394 486 C394 534 365 588 323 612 C294 629 262 636 229 636 C134 636 56 570 56 472 C56 451 77 439 96 439 C119 439 142 454 144 478 C148 527 167 564 221 564 L221 564 Z M181 72 L181 -3 C181 -24 202 -36 221 -36 C242 -36 269 -21 269 3 L269 78 C269 99 248 111 229 111 C208 111 181 96 181 72 L181 72 Z " />
<glyph glyph-name="at" unicode="&#x40;" horiz-adv-x="600" d="M269 253 C269 271 274 292 281 308 C307 366 353 365 409 365 C436 365 463 364 490 364 C513 364 544 375 544 403 C544 424 523 436 504 436 L379 436 C357 436 334 433 313 426 C234 404 181 328 181 247 C181 195 214 141 259 116 C293 97 332 89 371 89 C392 89 419 104 419 128 C419 149 399 160 381 161 C334 163 295 171 276 220 C272 231 269 242 269 253 L269 253 Z M544 128 L544 403 C544 480 503 564 435 603 C395 626 350 636 304 636 C273 636 241 631 211 621 C113 589 56 492 56 392 L56 222 C56 133 109 42 188 0 C246 -31 303 -36 367 -36 C390 -36 419 -23 419 3 C419 39 374 36 350 36 C253 36 179 81 152 176 C147 195 144 214 144 233 L144 403 C144 423 148 445 155 464 C178 532 224 564 296 564 C372 564 423 528 446 455 C453 434 456 414 456 392 L456 122 C456 101 477 89 496 89 C517 89 544 104 544 128 L544 128 Z " />
<glyph glyph-name="A" unicode="A" horiz-adv-x="500" d="M254 636 C235 636 221 628 211 612 C208 609 31 7 31 -3 C31 -24 52 -36 71 -36 C89 -36 103 -28 114 -14 C117 -9 128 29 138 63 L360 63 C374 16 384 -17 386 -19 C397 -31 405 -36 421 -36 C442 -36 469 -21 469 3 C469 22 320 516 307 561 C304 573 296 608 290 616 C282 630 270 636 254 636 L254 636 Z M158 136 L249 445 L249 446 C258 416 303 259 339 136 L158 136 Z " />
<glyph glyph-name="B" unicode="B" horiz-adv-x="550" d="M221 -36 L271 -36 C393 -36 494 50 494 178 C494 244 453 335 388 361 C421 391 444 433 444 478 C444 530 411 584 366 609 C332 628 293 636 254 636 L104 636 C83 636 56 621 56 597 L56 -3 C56 -24 77 -36 96 -36 C115 -36 134 -26 142 -8 C146 3 144 47 144 62 L144 314 C167 314 190 314 213 314 L246 314 C250 314 254 314 258 315 L262 315 C321 315 364 298 390 242 C399 222 406 194 406 172 C406 149 399 119 388 99 C357 38 316 36 259 36 C231 36 181 35 181 -3 C181 -24 202 -36 221 -36 L221 -36 Z M144 386 L144 564 L246 564 C303 564 356 534 356 472 C356 459 352 445 346 433 C329 397 297 388 262 386 L153 386 C150 386 147 386 144 386 L144 386 Z " />
<glyph glyph-name="C" unicode="C" horiz-adv-x="537" d="M279 636 C156 636 56 551 56 422 L56 172 C56 106 90 32 147 -3 C185 -26 227 -36 271 -36 C357 -36 436 3 472 84 C476 93 481 106 481 116 C481 137 460 148 442 148 C423 148 404 139 397 122 C393 115 392 107 388 100 C368 54 327 36 279 36 C192 36 144 101 144 183 L144 428 C144 445 147 462 153 478 C171 536 210 564 271 564 C313 564 356 551 377 512 C380 507 382 502 385 497 C392 483 406 477 421 477 C442 477 469 492 469 516 C469 519 468 521 468 524 C443 602 355 636 279 636 L279 636 Z " />
<glyph glyph-name="D" unicode="D" horiz-adv-x="550" d="M233 -36 C270 -36 307 -33 342 -22 C432 7 494 88 494 183 L494 403 C494 483 449 569 377 607 C340 627 297 636 254 636 L104 636 C83 636 56 621 56 597 L56 -3 C56 -24 77 -36 96 -36 C115 -36 134 -26 142 -8 C146 3 144 48 144 62 L144 564 L246 564 C322 564 372 527 396 455 C402 436 406 416 406 397 L406 172 C406 150 398 122 387 103 C355 43 300 36 239 36 C215 36 181 27 181 -3 C181 -32 211 -36 233 -36 L233 -36 Z " />
<glyph glyph-name="E" unicode="E" horiz-adv-x="500" d="M404 636 L104 636 C83 636 56 621 56 597 L56 47 C56 -4 97 -36 146 -36 L396 -36 C417 -36 444 -21 444 3 C444 18 433 28 420 33 C411 37 357 36 345 36 C294 36 242 35 191 35 C187 35 154 35 152 36 C146 38 144 49 144 54 L144 314 L271 314 C292 314 319 329 319 353 C319 374 298 386 279 386 L144 386 L144 564 C193 564 242 564 291 564 C307 564 402 563 413 567 C428 573 444 585 444 603 C444 624 423 636 404 636 L404 636 Z " />
<glyph glyph-name="F" unicode="F" horiz-adv-x="450" d="M144 564 C216 564 287 564 359 564 C384 564 419 572 419 603 C419 624 398 636 379 636 L104 636 C83 636 56 621 56 597 L56 -3 C56 -24 77 -36 96 -36 C114 -36 135 -26 142 -8 C146 5 144 46 144 62 L144 314 L246 314 C267 314 294 329 294 353 C294 374 273 386 254 386 L144 386 L144 564 Z " />
<glyph glyph-name="G" unicode="G" horiz-adv-x="550" d="M406 314 L406 172 C406 155 402 137 397 120 C378 62 340 35 279 35 C214 35 173 66 153 126 C148 143 144 161 144 178 L144 428 C144 475 167 532 212 553 C251 571 349 564 395 564 C417 564 444 579 444 603 C444 634 411 636 388 636 L311 636 C275 636 238 635 202 625 C113 600 56 513 56 422 L56 172 C56 103 93 25 156 -9 C191 -28 230 -37 271 -37 C401 -37 494 52 494 183 L494 353 C494 374 473 386 454 386 L279 386 C258 386 231 371 231 347 C231 305 297 314 324 314 L406 314 Z " />
<glyph glyph-name="H" unicode="H" horiz-adv-x="550" d="M144 3 L144 314 L406 314 L406 -3 C406 -24 427 -36 446 -36 C467 -36 494 -21 494 3 L494 603 C494 624 473 636 454 636 C433 636 406 621 406 597 L406 386 L144 386 L144 603 C144 624 123 636 104 636 C83 636 56 621 56 597 L56 -3 C56 -24 77 -36 96 -36 C117 -36 144 -21 144 3 L144 3 Z " />
<glyph glyph-name="I" unicode="I" horiz-adv-x="250" d="M169 3 L169 603 C169 624 148 636 129 636 C108 636 81 621 81 597 L81 -3 C81 -24 102 -36 121 -36 C142 -36 169 -21 169 3 L169 3 Z " />
<glyph glyph-name="J" unicode="J" horiz-adv-x="425" d="M204 36 C157 36 130 64 121 109 C119 117 120 126 118 134 C114 152 96 161 79 161 C58 161 31 146 31 122 C31 26 104 -36 196 -36 C296 -36 369 32 369 133 L369 603 C369 624 348 636 329 636 C311 636 292 626 284 609 C281 601 281 579 281 570 C281 425 282 279 282 134 C282 82 263 36 204 36 L204 36 Z " />
<glyph glyph-name="K" unicode="K" horiz-adv-x="550" d="M144 3 L144 311 C160 323 175 337 191 349 C201 332 213 315 223 298 L385 26 C394 10 401 -8 413 -22 C421 -31 434 -36 446 -36 C467 -36 494 -21 494 3 C494 8 492 12 490 16 C477 46 456 74 440 102 L278 374 C272 384 267 395 261 405 L433 539 C451 554 494 578 494 603 C494 624 473 636 454 636 C444 636 434 633 425 627 C401 612 380 592 358 575 L144 406 L144 603 C144 624 123 636 104 636 C83 636 56 621 56 597 L56 -3 C56 -24 77 -36 96 -36 C117 -36 144 -21 144 3 L144 3 Z " />
<glyph glyph-name="L" unicode="L" horiz-adv-x="400" d="M144 36 C144 154 144 273 144 391 C144 409 145 606 142 612 C135 628 121 636 104 636 C83 636 56 621 56 597 L56 -3 C56 -24 77 -36 96 -36 L346 -36 C367 -36 394 -21 394 3 C394 40 347 36 322 36 L144 36 Z " />
<glyph glyph-name="M" unicode="M" horiz-adv-x="725" d="M669 3 L669 603 C669 624 648 636 629 636 C597 636 586 613 569 591 L354 318 L199 535 C183 558 152 610 134 625 C125 632 115 636 104 636 C83 636 56 621 56 597 L56 -3 C56 -24 77 -36 96 -36 C114 -36 135 -26 142 -8 C146 4 144 38 144 52 L144 465 L264 297 C278 277 299 240 316 225 C325 218 335 214 346 214 C358 214 370 218 379 226 C400 242 424 281 441 302 L581 481 C581 325 581 170 581 14 C581 -14 585 -36 621 -36 C642 -36 669 -21 669 3 L669 3 Z " />
<glyph glyph-name="N" unicode="N" horiz-adv-x="550" d="M494 3 L494 603 C494 624 473 636 454 636 C433 636 406 621 406 597 L406 352 L179 580 C159 600 135 636 104 636 C83 636 56 621 56 597 L56 -3 C56 -24 77 -36 96 -36 C114 -36 135 -26 142 -8 C146 4 144 41 144 55 L144 498 L391 250 C397 245 401 239 406 234 L406 -3 C406 -24 427 -36 446 -36 C467 -36 494 -21 494 3 L494 3 Z " />
<glyph glyph-name="O" unicode="O" horiz-adv-x="550" d="M494 178 L494 428 C494 494 460 568 403 603 C365 626 323 636 279 636 C250 636 221 631 194 622 C111 594 56 508 56 422 L56 172 C56 106 90 32 147 -3 C185 -26 227 -36 271 -36 C300 -36 329 -31 356 -22 C439 6 494 92 494 178 L494 178 Z M402 140 C389 73 348 36 279 36 C192 36 144 101 144 183 L144 428 C144 445 147 462 153 478 C171 536 210 564 271 564 C358 564 406 499 406 417 L406 173 C405 162 405 151 402 140 L402 140 Z " />
<glyph glyph-name="P" unicode="P" horiz-adv-x="525" d="M221 314 L296 314 C391 314 469 380 469 478 C469 529 441 585 396 612 C368 629 337 635 304 636 C261 636 218 636 174 636 L132 636 C108 636 81 639 64 617 C59 612 56 604 56 597 L56 -3 C56 -24 77 -36 96 -36 C115 -36 134 -26 142 -8 C146 4 144 47 144 62 L144 565 L282 565 C295 565 307 565 320 562 C359 552 381 510 381 472 C381 458 377 442 372 429 C355 391 332 386 293 386 L238 386 C214 386 181 377 181 347 C181 326 202 314 221 314 L221 314 Z " />
<glyph glyph-name="Q" unicode="Q" horiz-adv-x="575" d="M494 178 L494 428 C494 494 460 568 403 603 C365 626 323 636 279 636 C250 636 221 631 194 622 C111 594 56 508 56 422 L56 172 C56 106 90 32 147 -3 C185 -26 227 -36 271 -36 C300 -36 329 -31 356 -22 C364 -20 371 -16 379 -13 L416 -50 C433 -67 444 -86 471 -86 C492 -86 519 -71 519 -47 C519 -27 487 -3 473 10 L444 40 C476 78 494 128 494 178 L494 178 Z M279 186 C258 186 231 171 231 147 C231 127 263 103 277 90 L324 42 C311 38 296 36 279 36 C192 36 144 101 144 183 L144 428 C144 445 147 462 153 478 C171 536 210 564 271 564 C358 564 406 499 406 417 L406 173 C405 162 405 151 402 140 C399 124 394 109 387 96 L334 150 C317 167 306 186 279 186 L279 186 Z " />
<glyph glyph-name="R" unicode="R" horiz-adv-x="525" d="M295 314 L298 314 C391 314 469 381 469 478 C469 574 396 636 304 636 L105 636 C83 636 56 621 56 597 L56 -3 C56 -24 77 -36 96 -36 C115 -36 135 -26 142 -8 C146 4 144 47 144 62 L144 564 L295 564 C336 564 361 546 375 507 C378 496 381 484 381 472 C381 458 377 442 372 429 C356 391 332 386 293 386 L238 386 C214 386 181 377 181 347 C181 342 183 338 185 334 C197 307 215 281 229 255 L366 16 C373 4 379 -11 388 -22 C396 -31 409 -36 421 -36 C442 -36 469 -21 469 3 C469 7 468 11 466 15 C462 26 454 36 449 46 L295 314 Z " />
<glyph glyph-name="S" unicode="S" horiz-adv-x="501" d="M246 -36 C365 -36 444 45 444 164 C444 252 368 318 292 349 C286 352 280 354 273 357 C263 361 254 367 244 371 C195 388 154 411 154 469 C154 517 181 564 234 564 C279 564 318 547 339 505 C351 481 350 464 383 464 C405 464 431 479 431 503 C431 511 428 519 425 527 C393 603 320 636 242 636 C143 636 67 562 67 463 C67 379 123 335 195 308 C206 303 217 297 228 293 C285 269 357 229 357 158 C357 92 327 36 254 36 C207 36 170 59 150 102 C138 128 139 148 104 148 C83 148 56 133 56 109 C56 107 57 105 57 103 C79 15 157 -36 246 -36 L246 -36 Z " />
<glyph glyph-name="T" unicode="T" horiz-adv-x="450" d="M404 636 L54 636 C33 636 6 621 6 597 C6 576 27 564 46 564 L181 564 L181 -3 C181 -24 202 -36 221 -36 C242 -36 269 -21 269 3 L269 564 L396 564 C417 564 444 579 444 603 C444 624 423 636 404 636 L404 636 Z " />
<glyph glyph-name="U" unicode="U" horiz-adv-x="550" d="M56 597 L56 172 C56 106 90 33 147 -3 C184 -26 227 -36 271 -36 C394 -36 494 49 494 178 L494 603 C494 624 473 636 454 636 C435 636 416 626 408 608 C404 598 406 564 406 551 L406 172 C406 155 403 138 397 122 C379 64 340 36 279 36 C215 36 172 67 153 128 C148 144 144 161 144 178 C144 304 145 431 145 557 C145 591 152 636 104 636 C83 636 56 621 56 597 L56 597 Z " />
<glyph glyph-name="V" unicode="V" horiz-adv-x="500" d="M251 154 C236 205 120 612 114 619 C103 631 95 636 79 636 C58 636 31 621 31 597 C31 578 180 84 193 39 C196 27 204 -8 210 -16 C218 -30 230 -36 246 -36 C265 -36 279 -28 289 -12 C292 -9 469 593 469 603 C469 624 448 636 429 636 C411 636 397 628 386 614 C380 605 352 501 347 482 L251 155 L251 154 Z " />
<glyph glyph-name="W" unicode="W" horiz-adv-x="750" d="M517 145 C506 177 418 416 412 422 C402 431 393 436 379 436 C362 436 351 430 339 418 C332 410 247 176 234 144 L151 478 C146 496 119 612 115 618 C105 630 95 636 79 636 C58 636 31 621 31 597 C31 587 59 484 62 470 C94 342 125 215 158 87 C159 81 183 -15 185 -16 C195 -30 203 -36 221 -36 C239 -36 248 -30 261 -18 C268 -10 361 243 374 278 C387 244 480 -13 487 -20 C497 -31 506 -36 521 -36 C540 -36 554 -28 564 -12 C565 -12 719 587 719 603 C719 624 698 636 679 636 C660 636 647 628 636 614 C629 604 531 198 517 145 L517 145 Z " />
<glyph glyph-name="X" unicode="X" horiz-adv-x="500" d="M79 636 C58 636 31 621 31 597 C31 582 63 535 72 519 L202 297 L72 75 C63 59 31 13 31 -3 C31 -24 52 -36 71 -36 C93 -36 107 -25 118 -6 L248 217 L380 -9 C390 -27 400 -36 421 -36 C442 -36 469 -21 469 3 C469 18 437 65 428 81 L298 303 L428 525 C437 541 469 587 469 603 C469 624 448 636 429 636 C407 636 393 625 382 606 L252 383 L120 609 C110 627 100 636 79 636 L79 636 Z " />
<glyph glyph-name="Y" unicode="Y" horiz-adv-x="494" d="M251 403 L251 404 C215 460 180 517 144 573 C139 581 115 620 109 625 C101 632 90 636 79 636 C58 636 31 621 31 597 C31 592 33 588 35 584 C40 573 48 562 54 552 L179 356 C188 342 196 325 206 311 L206 -3 C206 -24 227 -36 246 -36 C267 -36 294 -21 294 3 L294 319 C298 326 303 334 307 342 L356 420 L425 533 C436 551 449 569 458 588 C461 593 463 598 463 603 C463 624 442 636 423 636 C410 636 397 631 387 622 C374 610 351 566 340 548 L251 403 Z " />
<glyph glyph-name="Z" unicode="Z" horiz-adv-x="500" d="M142 36 L143 36 L431 531 C440 546 469 587 469 603 C469 624 448 636 429 636 L79 636 C58 636 31 621 31 597 C31 583 42 572 55 567 C73 561 140 564 164 564 L358 564 L357 564 L69 69 C60 54 31 13 31 -3 C31 -24 52 -36 71 -36 L421 -36 C442 -36 469 -21 469 3 C469 17 458 28 445 33 C427 39 360 36 336 36 L142 36 Z " />
<glyph glyph-name="bracketleft" unicode="&#x5b;" horiz-adv-x="250" d="M229 686 L104 686 C83 686 56 671 56 647 L56 -53 C56 -74 77 -86 96 -86 L221 -86 C242 -86 269 -71 269 -47 C269 -10 223 -14 198 -14 L144 -14 L144 614 L211 614 C235 614 269 623 269 653 C269 674 248 686 229 686 L229 686 Z " />
<glyph glyph-name="backslash" unicode="&#x5c;" horiz-adv-x="300" d="M246 -86 C267 -86 294 -71 294 -47 C294 -33 221 162 210 192 L46 653 C38 674 28 686 4 686 C-17 686 -44 671 -44 647 C-44 633 29 438 40 408 L204 -53 C212 -74 222 -86 246 -86 L246 -86 Z " />
<glyph glyph-name="bracketright" unicode="&#x5d;" horiz-adv-x="250" d="M106 614 L106 -14 L39 -14 C15 -14 -19 -23 -19 -53 C-19 -74 2 -86 21 -86 L146 -86 C167 -86 194 -71 194 -47 L194 653 C194 674 173 686 154 686 L29 686 C8 686 -19 671 -19 647 C-19 610 27 614 52 614 L106 614 Z " />
<glyph glyph-name="asciicircum" unicode="&#x5e;" horiz-adv-x="350" d="M173 537 C187 519 260 428 270 422 C278 417 287 414 296 414 C317 414 344 429 344 453 C344 459 342 464 339 469 C333 479 214 621 207 626 C199 633 190 636 179 636 C167 636 157 632 147 625 C141 621 16 473 11 464 C8 458 6 453 6 447 C6 426 27 414 46 414 C81 414 101 450 121 474 L173 537 Z " />
<glyph glyph-name="underscore" unicode="&#x5f;" horiz-adv-x="500" d="M96 -136 L396 -136 C417 -136 444 -121 444 -97 C444 -76 423 -64 404 -64 L104 -64 C83 -64 56 -79 56 -103 C56 -124 77 -136 96 -136 L96 -136 Z " />
<glyph glyph-name="grave" unicode="&#x60;" horiz-adv-x="150" d="M96 489 C117 489 144 504 144 528 C144 534 142 539 139 544 C135 550 59 626 53 629 C46 634 38 636 29 636 C8 636 -19 621 -19 597 C-19 591 -17 586 -14 581 C-10 575 66 499 72 496 C79 491 87 489 96 489 L96 489 Z " />
<glyph glyph-name="a" unicode="a" horiz-adv-x="400" d="M119 103 C119 142 139 165 179 165 C213 165 247 164 281 164 C281 118 281 72 281 26 C281 -5 280 -36 321 -36 C342 -36 369 -21 369 3 L369 278 C369 374 296 436 204 436 L154 436 C133 436 106 421 106 397 C106 356 165 365 191 365 C247 365 281 327 281 272 C281 260 281 248 281 236 L179 236 C99 236 31 181 31 97 C31 16 92 -36 171 -36 L221 -36 C242 -36 269 -21 269 3 C269 42 212 37 186 37 C176 37 164 36 155 40 C132 49 119 80 119 103 L119 103 Z " />
<glyph glyph-name="b" unicode="b" horiz-adv-x="425" d="M306 242 L306 147 C306 132 303 118 298 104 C283 57 253 36 204 36 L144 36 C144 154 144 273 144 391 C144 408 145 607 142 612 C135 628 122 636 104 636 C83 636 56 621 56 597 L56 -3 C56 -24 77 -36 96 -36 L196 -36 C304 -36 394 40 394 153 L394 253 C394 316 360 383 303 413 C271 429 238 436 202 436 C181 436 154 421 154 397 C154 373 176 366 196 364 C250 361 280 344 298 290 C304 274 306 258 306 242 L306 242 Z " />
<glyph glyph-name="c" unicode="c" horiz-adv-x="375" d="M204 36 C150 36 119 78 119 129 L119 253 C119 308 127 364 196 364 C264 364 250 314 296 314 C317 314 344 329 344 353 C344 379 302 410 281 420 C257 430 230 436 204 436 C104 436 31 368 31 267 L31 122 C31 26 104 -36 196 -36 C216 -36 236 -33 255 -27 C284 -18 344 19 344 53 C344 74 323 86 304 86 C253 86 269 36 204 36 L204 36 Z " />
<glyph glyph-name="d" unicode="d" horiz-adv-x="426" d="M370 4 L370 604 C370 625 349 637 330 637 C309 637 282 622 282 598 L282 436 L229 436 C122 436 31 360 31 247 L31 147 C31 84 65 17 122 -13 C152 -29 187 -36 221 -36 C242 -36 269 -21 269 3 C269 24 249 34 231 36 C177 39 145 55 127 108 C122 125 119 141 119 158 L119 253 C119 271 124 292 132 309 C153 358 187 364 237 364 L282 364 L282 -2 C282 -23 303 -35 322 -35 C343 -35 370 -20 370 4 L370 4 Z " />
<glyph glyph-name="e" unicode="e" horiz-adv-x="400" d="M118 164 L327 164 C355 164 367 181 367 208 C367 229 369 251 369 272 C369 341 321 409 254 428 C235 433 215 436 196 436 C102 436 31 375 31 278 L31 133 C31 32 104 -36 204 -36 L254 -36 C273 -36 294 -24 294 -3 C294 28 259 36 234 36 C223 36 212 35 201 35 C120 35 118 102 118 164 L118 164 Z M119 272 C119 324 150 364 204 364 C243 364 264 345 275 309 C279 299 281 289 281 278 C281 264 281 250 280 236 L119 236 C119 248 119 260 119 272 L119 272 Z " />
<glyph glyph-name="f" unicode="f" horiz-adv-x="275" d="M229 436 L169 436 L169 439 C169 448 168 457 168 466 C168 489 172 514 185 534 C201 559 219 563 248 564 C269 566 294 580 294 603 C294 624 273 636 254 636 C154 636 81 568 81 467 L81 436 L54 436 C33 436 6 421 6 397 C6 376 27 364 46 364 L81 364 L81 -3 C81 -24 102 -36 121 -36 C139 -36 158 -26 166 -9 C171 3 169 57 169 74 L169 364 L221 364 C242 364 269 379 269 403 C269 424 248 436 229 436 L229 436 Z " />
<glyph glyph-name="g" unicode="g" horiz-adv-x="475" d="M69 -103 C69 -184 130 -236 209 -236 L261 -236 C341 -236 407 -179 407 -97 C407 -16 343 36 266 36 L237 36 C231 36 226 36 221 36 C206 36 191 35 177 35 C156 35 144 44 144 66 C144 71 148 86 152 88 C156 90 164 89 168 89 L222 89 C224 89 225 89 226 89 C323 89 403 152 403 253 L403 272 C403 308 394 339 378 364 L446 364 C467 364 494 379 494 403 C494 424 473 436 454 436 L238 436 C143 436 65 370 65 272 L65 253 C65 208 79 170 103 142 C75 125 56 96 56 60 C56 25 73 -2 98 -18 C80 -41 69 -69 69 -103 L69 -103 Z M315 259 C315 208 298 161 238 161 C184 161 153 203 153 254 C153 294 156 344 202 360 C211 363 220 363 230 364 C239 363 248 363 257 360 C303 346 315 303 315 259 L315 259 Z M217 -36 C228 -36 240 -35 251 -35 C292 -35 319 -62 319 -103 C319 -135 302 -164 268 -164 L218 -164 C179 -164 157 -134 157 -97 C157 -78 167 -49 184 -40 C192 -37 200 -36 208 -36 C211 -36 214 -36 217 -36 L217 -36 Z " />
<glyph glyph-name="h" unicode="h" horiz-adv-x="450" d="M144 3 L144 364 C160 364 176 365 191 365 C208 365 239 365 254 359 C290 345 306 303 306 267 L306 -3 C306 -24 327 -36 346 -36 C367 -36 394 -21 394 3 L394 278 C394 374 321 436 229 436 L144 436 L144 603 C144 624 123 636 104 636 C83 636 56 621 56 597 L56 -3 C56 -24 77 -36 96 -36 C117 -36 144 -21 144 3 L144 3 Z " />
<glyph glyph-name="i" unicode="i" horiz-adv-x="200" d="M144 3 L144 403 C144 424 123 436 104 436 C83 436 56 421 56 397 L56 -3 C56 -24 77 -36 96 -36 C117 -36 144 -21 144 3 L144 3 Z M144 553 L144 603 C144 624 123 636 104 636 C83 636 56 621 56 597 L56 547 C56 526 77 514 96 514 C117 514 144 529 144 553 L144 553 Z " />
<glyph glyph-name="j" unicode="j" horiz-adv-x="225" d="M169 -66 L169 404 C169 425 148 437 129 437 C111 437 92 427 84 410 C79 398 81 344 81 327 L81 -38 C81 -47 82 -56 82 -65 C82 -88 78 -113 65 -133 C49 -158 31 -162 2 -163 C-19 -165 -44 -179 -44 -202 C-44 -223 -23 -235 -4 -235 C96 -235 169 -167 169 -66 L169 -66 Z M169 554 L169 604 C169 625 148 637 129 637 C108 637 81 622 81 598 L81 548 C81 527 102 515 121 515 C142 515 169 530 169 554 L169 554 Z " />
<glyph glyph-name="k" unicode="k" horiz-adv-x="450" d="M144 3 L144 233 C150 237 157 242 163 245 L174 252 C181 239 188 226 191 220 L294 14 C307 -11 312 -36 346 -36 C367 -36 394 -21 394 3 C394 17 366 65 359 80 L256 286 C254 290 252 294 250 298 L338 351 C358 362 394 376 394 403 C394 424 373 436 354 436 C331 436 307 416 287 405 L144 318 L144 603 C144 624 123 636 104 636 C83 636 56 621 56 597 L56 -3 C56 -24 77 -36 96 -36 C117 -36 144 -21 144 3 L144 3 Z " />
<glyph glyph-name="l" unicode="l" horiz-adv-x="200" d="M144 3 L144 603 C144 624 123 636 104 636 C83 636 56 621 56 597 L56 -3 C56 -24 77 -36 96 -36 C117 -36 144 -21 144 3 L144 3 Z " />
<glyph glyph-name="m" unicode="m" horiz-adv-x="700" d="M56 -3 C56 -24 77 -36 96 -36 C117 -36 144 -21 144 3 L144 364 C159 365 175 365 190 365 C237 365 275 365 296 316 C302 303 306 286 306 272 C306 190 306 108 306 26 C306 -5 305 -36 346 -36 C367 -36 394 -21 394 3 L394 278 C394 332 363 392 313 417 C287 430 258 436 229 436 L104 436 C103 436 101 436 99 435 C96 435 93 435 90 434 C85 432 80 430 76 428 C75 427 74 427 73 426 C69 423 65 419 62 415 C62 414 61 414 61 413 C60 412 59 410 59 409 C57 406 57 403 56 399 L56 -3 Z M596 -36 C617 -36 644 -21 644 3 L644 278 C644 332 613 392 563 417 C537 430 508 436 479 436 L404 436 C383 436 356 421 356 397 C356 353 429 365 457 365 C497 365 525 359 544 320 C551 306 556 287 556 272 C556 190 556 108 556 26 C556 -5 555 -36 596 -36 L596 -36 Z " />
<glyph glyph-name="n" unicode="n" horiz-adv-x="450" d="M394 3 L394 278 C394 374 321 436 229 436 L104 436 C83 436 56 421 56 397 L56 -3 C56 -24 77 -36 96 -36 C114 -36 133 -26 141 -9 C148 6 144 99 144 121 L144 364 L220 364 C278 364 306 320 306 267 L306 -3 C306 -24 327 -36 346 -36 C367 -36 394 -21 394 3 L394 3 Z " />
<glyph glyph-name="o" unicode="o" horiz-adv-x="400" d="M79 311 C58 311 31 296 31 272 L31 122 C31 26 104 -36 196 -36 C296 -36 369 32 369 133 L369 278 C369 374 296 436 204 436 C109 436 31 370 31 272 C31 251 52 239 71 239 C95 239 116 254 119 278 C119 299 98 311 79 311 L79 311 Z M196 364 C249 364 281 323 281 272 L281 122 C281 75 256 36 204 36 C147 36 119 80 119 133 L119 278 C124 327 140 364 196 364 L196 364 Z " />
<glyph glyph-name="p" unicode="p" horiz-adv-x="425" d="M394 153 L394 253 C394 316 360 383 303 413 C273 429 238 436 204 436 L104 436 C83 436 56 421 56 397 L56 -203 C56 -224 77 -236 96 -236 C115 -236 134 -226 142 -208 C146 -197 144 -152 144 -138 L144 364 L196 364 C268 364 306 310 306 242 L306 147 C306 110 287 62 252 45 C236 37 220 37 202 36 C181 34 156 20 156 -3 C156 -24 177 -36 196 -36 C303 -36 394 40 394 153 L394 153 Z " />
<glyph glyph-name="q" unicode="q" horiz-adv-x="450" d="M144 158 L144 253 C144 268 147 282 152 296 C167 343 197 364 246 364 L306 364 C306 246 306 127 306 9 C306 -8 305 -207 308 -212 C315 -228 328 -236 346 -236 C367 -236 394 -221 394 -197 L394 403 C394 424 373 436 354 436 L254 436 C146 436 56 360 56 247 L56 147 C56 84 90 17 147 -13 C177 -29 211 -36 246 -36 C267 -36 294 -21 294 3 C294 24 274 34 256 36 C202 40 171 54 152 108 C147 125 144 141 144 158 L144 158 Z " />
<glyph glyph-name="r" unicode="r" horiz-adv-x="300" d="M56 267 L56 -3 C56 -24 77 -36 96 -36 C106 -36 116 -33 124 -28 C145 -15 144 -1 144 22 L144 63 C144 124 143 186 143 248 C143 310 152 364 223 364 C244 366 269 380 269 403 C269 424 248 436 229 436 C129 436 56 368 56 267 L56 267 Z " />
<glyph glyph-name="s" unicode="s" horiz-adv-x="351" d="M179 436 C106 436 44 391 44 313 C44 252 89 207 143 185 C178 170 232 148 232 102 C232 69 218 36 180 36 C97 36 142 111 80 111 C58 111 32 96 32 72 C32 37 63 -2 93 -17 C117 -30 145 -36 172 -36 C257 -36 319 23 319 108 C319 163 276 208 229 231 C189 251 131 264 131 319 C131 354 146 365 180 365 L180 364 C231 361 210 314 259 314 C280 314 307 329 307 353 C307 356 306 359 305 362 C288 414 230 436 179 436 L179 436 Z " />
<glyph glyph-name="t" unicode="t" horiz-adv-x="325" d="M254 436 L169 436 L169 503 C169 524 148 536 129 536 C108 536 81 521 81 497 L81 436 L54 436 C33 436 6 421 6 397 C6 376 27 364 46 364 L81 364 L81 122 C81 27 155 -36 246 -36 C267 -36 294 -21 294 3 C294 43 241 32 217 43 C183 58 169 99 169 133 L169 364 L246 364 C267 364 294 379 294 403 C294 424 273 436 254 436 L254 436 Z " />
<glyph glyph-name="u" unicode="u" horiz-adv-x="450" d="M306 36 L230 36 C172 36 144 80 144 133 L144 403 C144 424 123 436 104 436 C83 436 56 421 56 397 L56 122 C56 26 129 -36 221 -36 L346 -36 C367 -36 394 -21 394 3 L394 403 C394 424 373 436 354 436 C336 436 317 426 309 409 C302 394 306 301 306 279 L306 36 Z " />
<glyph glyph-name="v" unicode="v" horiz-adv-x="400" d="M201 144 C191 176 119 414 113 420 C102 431 94 436 79 436 C58 436 31 421 31 397 C31 386 158 -15 160 -18 C171 -30 179 -36 196 -36 C215 -36 227 -28 239 -14 C242 -9 369 394 369 403 C369 424 348 436 329 436 C312 436 300 429 288 416 C281 408 211 177 201 144 L201 144 Z " />
<glyph glyph-name="w" unicode="w" horiz-adv-x="600" d="M416 139 C407 163 347 316 340 323 C331 332 321 336 308 336 C292 336 281 330 269 319 C261 311 198 157 187 133 C179 166 120 412 114 419 C104 431 94 436 79 436 C58 436 31 421 31 397 C31 382 134 -16 135 -18 C145 -30 155 -36 171 -36 C187 -36 198 -30 210 -19 C218 -11 290 163 301 189 C312 163 382 -16 389 -23 C399 -32 408 -36 421 -36 C439 -36 453 -28 464 -14 C465 -11 467 -8 468 -5 C494 91 516 189 540 285 C546 307 569 387 569 403 C569 424 548 436 529 436 C512 436 498 428 487 415 C480 406 424 173 416 139 L416 139 Z " />
<glyph glyph-name="x" unicode="x" horiz-adv-x="450" d="M394 403 C394 424 373 436 354 436 C340 436 325 430 315 419 C303 406 296 389 286 373 L227 278 C223 284 219 290 216 296 L161 383 C153 396 147 412 136 423 C127 432 116 436 104 436 C83 436 56 421 56 397 C56 392 58 387 60 382 C78 352 97 322 116 292 C136 260 156 229 176 197 L116 101 C98 72 77 43 61 12 C58 7 56 2 56 -3 C56 -24 77 -36 96 -36 C110 -36 125 -30 135 -19 C147 -6 154 11 164 27 L223 122 C227 116 231 110 234 104 L289 17 C297 4 303 -12 314 -23 C323 -32 334 -36 346 -36 C367 -36 394 -21 394 3 C394 8 392 13 390 18 C372 48 353 78 334 108 C314 140 294 171 274 203 L334 299 C352 328 373 357 389 388 C392 393 394 398 394 403 L394 403 Z " />
<glyph glyph-name="y" unicode="y" horiz-adv-x="400" d="M369 403 C369 424 348 436 329 436 C312 436 296 428 286 414 C279 403 260 330 255 312 L203 140 C166 260 116 416 115 418 C104 430 96 436 79 436 C58 436 31 421 31 397 C31 387 140 43 158 -11 L143 -60 C138 -76 134 -92 129 -107 C123 -123 108 -153 92 -161 C82 -166 76 -164 66 -166 C49 -170 31 -185 31 -203 C31 -224 52 -236 71 -236 C149 -236 197 -174 217 -105 C254 16 290 138 327 259 C334 282 369 390 369 403 L369 403 Z " />
<glyph glyph-name="z" unicode="z" horiz-adv-x="400" d="M144 36 L342 352 C350 364 359 376 365 389 C367 394 369 398 369 403 C369 424 348 436 329 436 L79 436 C58 436 31 421 31 397 C31 362 74 364 98 364 L256 364 L58 48 C50 36 41 24 35 11 C33 6 31 2 31 -3 C31 -24 52 -36 71 -36 L321 -36 C342 -36 369 -21 369 3 C369 38 326 36 302 36 L144 36 Z " />
<glyph glyph-name="braceleft" unicode="&#x7b;" horiz-adv-x="350" d="M156 413 L77 349 C61 336 31 320 31 297 C31 275 60 260 75 248 L156 183 L156 84 C156 -18 218 -86 321 -86 C342 -86 369 -71 369 -47 C369 -7 316 -18 292 -7 C261 7 244 46 244 78 C244 117 244 157 244 196 C244 202 244 208 242 214 C240 218 238 221 235 224 C226 233 214 241 204 249 L137 302 C156 317 235 375 241 391 C247 405 244 488 244 499 C244 560 249 610 323 614 C344 616 369 630 369 653 C369 674 348 686 329 686 C235 686 156 621 156 522 L156 413 Z " />
<glyph glyph-name="bar" unicode="&#x7c;" horiz-adv-x="200" d="M56 647 L56 -53 C56 -74 77 -86 96 -86 C117 -86 144 -71 144 -47 L144 653 C144 674 123 686 104 686 C83 686 56 671 56 647 L56 647 Z " />
<glyph glyph-name="braceright" unicode="&#x7d;" horiz-adv-x="350" d="M213 298 C194 283 115 225 109 209 C103 195 106 114 106 103 C106 42 101 -10 27 -14 C6 -16 -19 -30 -19 -53 C-19 -74 2 -86 21 -86 C40 -86 60 -83 79 -78 C146 -58 194 8 194 78 L194 187 L273 251 C289 264 319 280 319 303 C319 325 290 340 275 352 L194 417 L194 516 C194 618 132 686 29 686 C8 686 -19 671 -19 647 C-19 607 34 618 58 607 C89 593 106 554 106 522 C106 483 106 443 106 404 C106 398 106 392 108 386 C110 382 112 379 115 376 C124 367 136 359 146 351 L213 298 Z " />
<glyph glyph-name="asciitilde" unicode="&#x7e;" horiz-adv-x="400" d="M146 239 L148 239 C158 239 185 189 246 189 C297 189 344 224 344 278 C344 299 323 311 304 311 C285 311 264 300 258 281 C256 274 257 268 254 261 L252 261 C242 261 215 311 154 311 C103 311 56 276 56 222 C56 201 77 189 96 189 C115 189 136 200 142 219 C144 226 143 232 146 239 L146 239 Z " />
<glyph glyph-name="uni00A0" unicode="&#xa0;" horiz-adv-x="200" />
<glyph glyph-name="exclamdown" unicode="&#xa1;" horiz-adv-x="200" d="M56 397 L56 322 C56 301 77 289 96 289 C117 289 144 304 144 328 L144 403 C144 424 123 436 104 436 C83 436 56 421 56 397 L56 397 Z M56 197 L56 -203 C56 -224 77 -236 96 -236 C117 -236 144 -221 144 -197 L144 203 C144 224 123 236 104 236 C83 236 56 221 56 197 L56 197 Z " />
<glyph glyph-name="cent" unicode="&#xa2;" horiz-adv-x="400" d="M204 36 C150 36 119 78 119 129 L119 253 C119 308 127 364 196 364 C264 364 250 314 296 314 C317 314 344 329 344 353 C344 379 302 410 281 420 C257 430 230 436 204 436 C104 436 31 368 31 267 L31 122 C31 70 58 14 104 -12 C132 -29 164 -36 196 -36 C216 -36 236 -33 255 -27 C284 -18 344 19 344 53 C344 74 323 86 304 86 C253 86 269 36 204 36 L204 36 Z M155 497 L155 397 C155 376 176 364 195 364 C216 364 243 379 243 403 L243 503 C243 524 222 536 203 536 C182 536 155 521 155 497 L155 497 Z M155 -3 L155 -103 C155 -124 176 -136 195 -136 C216 -136 243 -121 243 -97 L243 3 C243 24 222 36 203 36 C182 36 155 21 155 -3 L155 -3 Z " />
<glyph glyph-name="sterling" unicode="&#xa3;" horiz-adv-x="525" d="M463 380 C463 476 398 536 304 536 C204 536 131 468 131 367 L131 -3 C131 -24 152 -36 171 -36 C189 -36 209 -26 216 -9 C219 -1 219 16 219 25 C219 132 218 239 218 347 C218 403 226 464 296 464 C352 464 375 423 375 372 C375 351 396 339 415 339 C438 339 463 355 463 380 L463 380 Z M96 -36 L421 -36 C442 -36 469 -21 469 3 C469 24 448 36 429 36 L104 36 C83 36 56 21 56 -3 C56 -24 77 -36 96 -36 L96 -36 Z M304 286 L104 286 C83 286 56 271 56 247 C56 226 77 214 96 214 L296 214 C317 214 344 229 344 253 C344 274 323 286 304 286 L304 286 Z " />
<glyph glyph-name="currency" unicode="&#xa4;" horiz-adv-x="500" d="M254 186 C219 186 194 220 194 253 C194 283 214 314 246 314 C274 314 299 290 304 263 C306 256 305 248 307 241 C311 223 329 214 346 214 C367 214 394 229 394 253 C394 330 329 386 254 386 C177 386 106 326 106 247 C106 170 172 114 246 114 C323 114 394 174 394 253 C394 274 373 286 354 286 C334 286 312 274 307 253 C305 245 306 237 304 228 C298 206 278 186 254 186 L254 186 Z M281 322 C281 301 302 289 321 289 C331 289 340 292 348 297 C356 301 432 377 438 385 C441 390 444 396 444 403 C444 424 423 436 404 436 C394 436 385 433 377 428 C369 424 293 348 287 340 C284 335 281 329 281 322 L281 322 Z M171 289 C192 289 219 304 219 328 C219 334 217 339 214 344 C210 350 134 426 128 429 C121 434 113 436 104 436 C83 436 56 421 56 397 C56 391 58 386 61 381 C65 375 141 299 147 296 C154 291 162 289 171 289 L171 289 Z M56 97 C56 76 77 64 96 64 C106 64 115 67 123 72 C131 76 207 152 213 160 C216 165 219 171 219 178 C219 199 198 211 179 211 C169 211 160 208 152 203 C144 199 68 123 62 115 C59 110 56 104 56 97 L56 97 Z M396 64 C417 64 444 79 444 103 C444 109 442 114 439 119 C435 125 359 201 353 204 C346 209 338 211 329 211 C308 211 281 196 281 172 C281 166 283 161 286 156 C290 150 366 74 372 71 C379 66 387 64 396 64 L396 64 Z " />
<glyph glyph-name="yen" unicode="&#xa5;" horiz-adv-x="450" d="M118 264 L318 264 C339 264 366 279 366 303 C366 324 345 336 326 336 L126 336 C105 336 78 321 78 297 C78 276 99 264 118 264 L118 264 Z M118 164 L318 164 C339 164 366 179 366 203 C366 224 345 236 326 236 L126 236 C105 236 78 221 78 197 C78 176 99 164 118 164 L118 164 Z M221 339 C232 339 242 343 251 349 C259 354 381 475 387 484 C391 490 394 496 394 503 C394 524 373 536 354 536 C322 536 302 505 281 485 L228 431 C210 449 143 521 128 529 C121 533 113 536 104 536 C83 536 56 521 56 497 C56 490 58 485 62 480 C66 474 190 350 195 347 C203 342 211 339 221 339 L221 339 Z M269 3 L269 378 C269 399 248 411 229 411 C208 411 181 396 181 372 L181 -3 C181 -24 202 -36 221 -36 C242 -36 269 -21 269 3 L269 3 Z " />
<glyph glyph-name="brokenbar" unicode="&#xa6;" horiz-adv-x="200" d="M56 597 L56 397 C56 376 77 364 96 364 C117 364 144 379 144 403 L144 603 C144 624 123 636 104 636 C83 636 56 621 56 597 L56 597 Z M56 197 L56 -3 C56 -24 77 -36 96 -36 C117 -36 144 -21 144 3 L144 203 C144 224 123 236 104 236 C83 236 56 221 56 197 L56 197 Z " />
<glyph glyph-name="section" unicode="&#xa7;" horiz-adv-x="400" d="M144 503 C144 533 164 564 196 564 C223 564 247 541 254 516 C256 507 255 499 257 491 C261 473 279 464 296 464 C317 464 344 479 344 503 C344 580 278 636 204 636 C127 636 56 576 56 497 C56 420 122 364 196 364 C217 364 244 379 244 403 C244 419 230 431 215 434 C209 436 202 435 196 436 C165 441 144 473 144 503 L144 503 Z M204 236 C169 236 144 270 144 303 C144 333 164 364 196 364 C223 364 248 341 254 316 C256 307 255 299 257 291 C261 273 279 264 296 264 C317 264 344 279 344 303 C344 380 278 436 204 436 C127 436 56 376 56 297 C56 220 122 164 196 164 C273 164 344 224 344 303 C344 324 323 336 304 336 C284 336 262 324 257 303 C255 295 256 287 254 278 C248 256 228 236 204 236 L204 236 Z M256 97 C256 67 236 36 204 36 C177 36 153 59 146 84 C144 93 145 101 143 109 C139 127 121 136 104 136 C83 136 56 121 56 97 C56 20 122 -36 196 -36 C273 -36 344 24 344 103 C344 180 278 236 204 236 C183 236 156 221 156 197 C156 181 170 169 185 166 C191 164 198 165 204 164 C235 159 256 127 256 97 L256 97 Z " />
<glyph glyph-name="dieresis" unicode="&#xa8;" horiz-adv-x="225" d="M6 597 L6 522 C6 501 27 489 46 489 C67 489 94 504 94 528 L94 603 C94 624 73 636 54 636 C33 636 6 621 6 597 L6 597 Z M131 597 L131 522 C131 501 152 489 171 489 C192 489 219 504 219 528 L219 603 C219 624 198 636 179 636 C158 636 131 621 131 597 L131 597 Z " />
<glyph glyph-name="copyright" unicode="&#xa9;" horiz-adv-x="600" d="M304 36 C214 36 144 115 144 203 C144 288 209 364 296 364 C367 364 429 313 449 246 C452 236 454 226 455 215 C456 209 455 196 457 191 C463 173 477 164 496 164 C517 164 544 179 544 203 C544 335 434 436 304 436 C172 436 56 331 56 197 C56 65 166 -36 296 -36 C428 -36 544 69 544 203 C544 224 523 236 504 236 C494 236 484 233 476 228 C456 215 458 205 456 183 C449 103 386 36 304 36 L304 36 Z M419 247 C419 311 364 349 304 349 C233 349 181 301 181 230 L181 160 C181 94 233 52 296 52 C361 52 419 97 419 166 C419 187 398 199 379 199 C370 199 360 196 352 192 C316 172 343 124 304 124 C277 124 269 149 269 171 L269 241 C269 258 276 277 296 277 C351 277 309 208 371 208 C392 208 419 223 419 247 L419 247 Z " />
<glyph glyph-name="ordfeminine" unicode="&#xaa;" horiz-adv-x="275" d="M164 442 L164 429 L128 429 C81 429 39 397 39 347 C39 300 77 271 122 271 C139 271 161 283 161 303 C161 341 111 314 111 353 C111 369 117 372 131 372 C142 372 153 371 164 370 L164 297 C164 280 181 271 197 271 C214 271 236 283 236 303 L236 453 C236 500 198 529 153 529 L104 529 C86 529 64 517 64 497 C64 462 116 472 139 472 C160 472 164 462 164 442 L164 442 Z " />
<glyph glyph-name="guillemotleft" unicode="&#xab;" horiz-adv-x="400" d="M31 247 C31 240 33 235 37 230 C42 223 164 101 170 97 C178 92 187 89 196 89 C217 89 244 104 244 128 C244 148 218 165 205 178 L131 253 L204 325 C217 339 244 357 244 378 C244 399 223 411 204 411 C193 411 183 407 174 401 C164 395 45 277 38 266 C34 261 31 254 31 247 L31 247 Z M181 247 C181 241 184 235 187 230 C192 223 289 126 295 122 C303 117 312 114 321 114 C342 114 369 129 369 153 C369 172 349 184 338 196 L281 253 C298 269 355 322 364 336 C367 342 369 347 369 353 C369 374 348 386 329 386 C319 386 309 383 300 377 C293 373 192 273 187 265 C184 260 181 253 181 247 L181 247 Z " />
<glyph glyph-name="logicalnot" unicode="&#xac;" horiz-adv-x="325" d="M206 214 C206 204 206 194 206 183 C206 154 213 134 246 134 C267 134 294 149 294 173 L294 253 C294 274 273 286 254 286 L54 286 C33 286 6 271 6 247 C6 213 44 214 68 214 L206 214 Z " />
<glyph glyph-name="registered" unicode="&#xae;" horiz-adv-x="550" d="M519 403 C519 535 409 636 279 636 C147 636 31 531 31 397 C31 265 141 164 271 164 C403 164 519 269 519 403 L519 403 Z M346 376 C374 390 394 422 394 453 C394 504 353 536 304 536 L204 536 C192 536 179 531 170 523 C196 549 231 564 271 564 C353 564 423 495 430 415 C431 410 430 399 432 393 C431 390 431 386 431 383 C427 344 411 309 386 282 C391 288 394 295 394 303 C394 320 357 361 346 376 L346 376 Z M279 236 C246 236 215 247 190 265 C192 265 194 264 196 264 C205 264 215 267 223 271 C245 284 244 299 244 322 L244 370 C264 342 315 276 319 273 C327 267 336 264 346 264 C358 264 371 269 381 277 C354 252 319 236 279 236 L279 236 Z M119 403 C119 446 136 488 164 518 C159 512 156 505 156 497 L156 297 C133 326 119 364 119 403 L119 403 Z M244 423 L244 464 L294 464 C303 464 306 454 306 447 C306 443 305 439 304 436 C298 435 291 436 285 436 C271 436 255 432 244 423 L244 423 Z " />
<glyph glyph-name="macron" unicode="&#xaf;" horiz-adv-x="250" d="M46 514 L196 514 C217 514 244 529 244 553 C244 574 223 586 204 586 L54 586 C33 586 6 571 6 547 C6 526 27 514 46 514 L46 514 Z " />
<glyph glyph-name="degree" unicode="&#xb0;" horiz-adv-x="200" d="M104 536 C54 536 6 499 6 447 C6 397 49 364 96 364 C146 364 194 401 194 453 C194 503 151 536 104 536 L104 536 Z M103 436 C97 437 94 448 94 453 C94 455 96 464 97 464 C103 464 105 454 106 446 C106 442 105 439 103 436 L103 436 Z " />
<glyph glyph-name="plusminus" unicode="&#xb1;" horiz-adv-x="400" d="M96 214 L156 214 L156 147 C156 126 177 114 196 114 C217 114 244 129 244 153 L244 214 L296 214 C317 214 344 229 344 253 C344 274 323 286 304 286 L244 286 L244 353 C244 374 223 386 204 386 C183 386 156 371 156 347 L156 286 L104 286 C83 286 56 271 56 247 C56 226 77 214 96 214 L96 214 Z M96 -36 L296 -36 C317 -36 344 -21 344 3 C344 24 323 36 304 36 L104 36 C83 36 56 21 56 -3 C56 -24 77 -36 96 -36 L96 -36 Z " />
<glyph glyph-name="twosuperior" unicode="&#xb2;" horiz-adv-x="250" d="M121 564 C144 564 156 543 156 522 C156 479 78 387 48 354 C37 341 22 330 12 315 C9 310 6 304 6 297 C6 276 27 264 46 264 L196 264 C217 264 244 279 244 303 C244 337 204 336 180 336 L135 336 C174 380 244 467 244 528 C244 594 192 636 129 636 C64 636 6 591 6 522 C6 501 27 489 46 489 C55 489 65 492 73 496 C109 517 82 564 121 564 L121 564 Z " />
<glyph glyph-name="threesuperior" unicode="&#xb3;" horiz-adv-x="250" d="M14 372 C14 311 62 271 122 271 C189 271 236 316 236 383 L236 428 C236 471 207 514 164 524 L195 560 C205 571 224 587 224 603 C224 620 207 629 191 629 L66 629 C49 629 27 617 27 597 C27 569 61 571 81 571 L120 571 C111 560 64 514 64 497 C64 473 89 471 107 471 C146 471 164 459 164 417 L164 372 C164 350 153 329 128 329 C104 329 91 345 87 368 C86 373 86 379 85 384 C81 397 66 404 53 404 C36 404 14 392 14 372 L14 372 Z " />
<glyph glyph-name="acute" unicode="&#xb4;" horiz-adv-x="175" d="M6 522 C6 501 27 489 46 489 C56 489 65 492 73 497 C81 501 157 577 163 585 C166 590 169 596 169 603 C169 624 148 636 129 636 C119 636 110 633 102 628 C94 624 18 548 12 540 C9 535 6 529 6 522 L6 522 Z " />
<glyph glyph-name="uni00B5" unicode="&#xb5;" horiz-adv-x="451" d="M307 36 L231 36 C173 36 145 80 145 133 L145 403 C145 424 124 436 105 436 C84 436 57 421 57 397 L57 122 C57 70 84 14 130 -12 C158 -29 190 -36 222 -36 L347 -36 C368 -36 395 -21 395 3 L395 403 C395 424 374 436 355 436 C337 436 318 426 310 409 C303 394 307 301 307 279 L307 36 Z M144 -197 L144 153 C144 174 123 186 104 186 C83 186 56 171 56 147 L56 -203 C56 -224 77 -236 96 -236 C117 -236 144 -221 144 -197 L144 -197 Z " />
<glyph glyph-name="paragraph" unicode="&#xb6;" horiz-adv-x="475" d="M94 478 C94 526 120 564 172 564 L256 564 L256 -3 C256 -24 277 -36 296 -36 C317 -36 344 -21 344 3 L344 564 L356 564 C356 446 356 327 356 209 C356 191 355 -6 358 -12 C365 -28 379 -36 396 -36 C417 -36 444 -21 444 3 L444 603 C444 624 423 636 404 636 L179 636 C84 636 6 570 6 472 C6 421 33 364 79 338 C117 316 150 314 192 314 C215 314 244 327 244 353 C244 385 208 386 185 386 C148 386 125 393 107 427 C99 441 94 462 94 478 L94 478 Z " />
<glyph glyph-name="periodcentered" unicode="&#xb7;" horiz-adv-x="200" d="M104 311 C69 311 31 285 31 247 C31 212 63 189 96 189 C131 189 169 215 169 253 C169 288 137 311 104 311 L104 311 Z " />
<glyph glyph-name="cedilla" unicode="&#xb8;" horiz-adv-x="200" d="M107 -78 C107 -86 107 -108 103 -114 C88 -113 104 -64 54 -64 C33 -64 6 -79 6 -103 C6 -154 47 -186 96 -186 C147 -186 194 -151 194 -97 L194 -47 C194 4 153 36 104 36 C83 36 56 21 56 -3 C56 -22 71 -31 87 -34 C91 -35 95 -34 98 -36 C109 -41 107 -68 107 -78 L107 -78 Z " />
<glyph glyph-name="onesuperior" unicode="&#xb9;" horiz-adv-x="175" d="M89 571 L89 297 C89 280 106 271 122 271 C139 271 161 283 161 303 L161 603 C161 620 144 629 128 629 L53 629 C36 629 14 617 14 597 C14 563 67 571 89 571 L89 571 Z " />
<glyph glyph-name="ordmasculine" unicode="&#xba;" horiz-adv-x="250" d="M14 372 C14 311 62 271 122 271 C188 271 236 315 236 383 L236 528 C236 589 188 629 128 629 C62 629 14 585 14 517 L14 372 Z M86 380 L86 507 C86 534 85 571 122 571 C153 571 164 545 164 517 L164 372 C164 350 153 329 128 329 C103 329 91 345 87 368 C86 372 86 376 86 380 L86 380 Z " />
<glyph glyph-name="guillemotright" unicode="&#xbb;" horiz-adv-x="400" d="M269 247 L196 175 C183 161 156 143 156 122 C156 101 177 89 196 89 C207 89 217 93 226 99 C236 105 355 223 362 234 C366 239 369 246 369 253 C369 260 367 265 363 270 C358 277 236 399 230 403 C222 408 213 411 204 411 C183 411 156 396 156 372 C156 352 182 335 195 322 L269 247 Z M119 247 C102 231 45 178 36 164 C33 158 31 153 31 147 C31 126 52 114 71 114 C81 114 91 117 100 123 C107 127 208 227 213 235 C216 240 219 247 219 253 C219 259 216 265 213 270 C208 277 111 374 105 378 C97 383 88 386 79 386 C58 386 31 371 31 347 C31 328 51 316 62 304 L119 247 Z " />
<glyph glyph-name="onequarter" unicode="&#xbc;" horiz-adv-x="600" d="M469 653 C469 674 448 686 429 686 C402 686 388 671 379 647 L215 186 C204 155 131 -37 131 -53 C131 -74 152 -86 171 -86 C198 -86 212 -71 221 -47 L385 414 C396 445 469 637 469 653 L469 653 Z M481 97 L481 86 L430 86 C439 117 494 287 494 303 C494 324 473 336 454 336 C438 336 423 329 413 316 C411 313 409 310 408 306 C398 280 331 58 331 47 C331 26 352 14 371 14 L481 14 L481 -3 C481 -24 502 -36 521 -36 C542 -36 569 -21 569 3 L569 103 C569 124 548 136 529 136 C508 136 481 121 481 97 L481 97 Z M114 571 L114 297 C114 280 131 271 147 271 C164 271 186 283 186 303 L186 603 C186 620 169 629 153 629 L78 629 C61 629 39 617 39 597 C39 563 92 571 114 571 L114 571 Z " />
<glyph glyph-name="onehalf" unicode="&#xbd;" horiz-adv-x="600" d="M444 653 C444 674 423 686 404 686 C377 686 363 671 354 647 L190 186 C179 155 106 -37 106 -53 C106 -74 127 -86 146 -86 C173 -86 187 -71 196 -47 L360 414 C371 445 444 637 444 653 L444 653 Z M447 271 C474 271 489 248 489 223 C489 177 411 85 380 50 C368 38 354 27 344 12 C341 8 339 3 339 -3 C339 -20 356 -29 372 -29 L522 -29 C539 -29 561 -17 561 3 C561 34 518 29 497 29 L445 29 C485 74 561 166 561 228 C561 289 513 329 453 329 C392 329 339 287 339 223 C339 205 356 196 372 196 C434 196 392 271 447 271 L447 271 Z M89 571 L89 297 C89 280 106 271 122 271 C139 271 161 283 161 303 L161 603 C161 620 144 629 128 629 L53 629 C36 629 14 617 14 597 C14 563 67 571 89 571 L89 571 Z " />
<glyph glyph-name="threequarters" unicode="&#xbe;" horiz-adv-x="650" d="M519 653 C519 674 498 686 479 686 C452 686 438 671 429 647 L265 186 C254 155 181 -37 181 -53 C181 -74 202 -86 221 -86 C248 -86 262 -71 271 -47 L435 414 C446 445 519 637 519 653 L519 653 Z M39 372 C39 311 87 271 147 271 C214 271 261 316 261 383 L261 428 C261 471 232 514 189 524 L220 560 C230 571 249 587 249 603 C249 620 232 629 216 629 L91 629 C74 629 52 617 52 597 C52 569 86 571 106 571 L145 571 C136 560 89 514 89 497 C89 473 114 471 132 471 C171 471 189 459 189 417 L189 372 C189 350 178 329 153 329 C129 329 116 345 112 368 C111 373 111 379 110 384 C106 397 91 404 78 404 C61 404 39 392 39 372 L39 372 Z M539 97 L539 79 C538 79 538 79 537 79 L470 79 C479 111 536 287 536 303 C536 320 519 329 503 329 C489 329 477 323 469 312 C466 308 389 56 389 47 C389 30 406 21 422 21 L539 21 L539 -3 C539 -20 556 -29 572 -29 C589 -29 611 -17 611 3 L611 103 C611 120 594 129 578 129 C561 129 539 117 539 97 L539 97 Z " />
<glyph glyph-name="questiondown" unicode="&#xbf;" horiz-adv-x="400" d="M196 -164 C142 -164 123 -127 119 -78 C117 -54 94 -39 71 -39 C52 -39 31 -51 31 -72 C31 -170 109 -236 204 -236 C237 -236 269 -229 298 -212 C340 -188 369 -134 369 -86 C369 -18 344 14 290 52 C252 79 244 94 244 142 L244 185 C244 216 228 236 196 236 C150 236 156 198 156 166 C156 146 156 124 160 104 C187 -13 281 19 281 -78 C281 -128 248 -164 196 -164 L196 -164 Z M156 328 C156 304 183 289 204 289 C223 289 244 301 244 322 L244 397 C244 421 217 436 196 436 C177 436 156 424 156 403 L156 328 Z " />
<glyph glyph-name="Agrave" unicode="&#xc0;" horiz-adv-x="500" d="M254 636 C235 636 221 628 211 612 C208 609 31 7 31 -3 C31 -24 52 -36 71 -36 C89 -36 103 -28 114 -14 C120 -5 148 99 153 118 L249 445 L249 446 C264 395 380 -12 386 -19 C397 -31 405 -36 421 -36 C442 -36 469 -21 469 3 C469 22 320 516 307 561 C304 573 296 608 290 616 C282 630 270 636 254 636 L254 636 Z M61 97 C61 60 111 63 136 63 L391 63 C412 63 439 78 439 102 C439 139 389 136 364 136 L109 136 C88 136 61 121 61 97 L61 97 Z M246 664 C267 664 294 679 294 703 C294 709 292 714 289 719 C285 725 209 801 203 804 C196 809 188 811 179 811 C158 811 131 796 131 772 C131 766 133 761 136 756 C140 750 216 674 222 671 C229 666 237 664 246 664 L246 664 Z " />
<glyph glyph-name="Aacute" unicode="&#xc1;" horiz-adv-x="500" d="M254 636 C235 636 221 628 211 612 C208 609 31 7 31 -3 C31 -24 52 -36 71 -36 C89 -36 103 -28 114 -14 C120 -5 148 99 153 118 L249 445 L249 446 C264 395 380 -12 386 -19 C397 -31 405 -36 421 -36 C442 -36 469 -21 469 3 C469 22 320 516 307 561 C304 573 296 608 290 616 C282 630 270 636 254 636 L254 636 Z M61 97 C61 60 111 63 136 63 L391 63 C412 63 439 78 439 102 C439 139 389 136 364 136 L109 136 C88 136 61 121 61 97 L61 97 Z M206 697 C206 676 227 664 246 664 C256 664 265 667 273 672 C281 676 357 752 363 760 C366 765 369 771 369 778 C369 799 348 811 329 811 C319 811 310 808 302 803 C294 799 218 723 212 715 C209 710 206 704 206 697 L206 697 Z " />
<glyph glyph-name="Acircumflex" unicode="&#xc2;" horiz-adv-x="500" d="M254 636 C235 636 221 628 211 612 C208 609 31 7 31 -3 C31 -24 52 -36 71 -36 C89 -36 103 -28 114 -14 C120 -5 148 99 153 118 L249 445 L249 446 C264 395 380 -12 386 -19 C397 -31 405 -36 421 -36 C442 -36 469 -21 469 3 C469 22 320 516 307 561 C304 573 296 608 290 616 C282 630 270 636 254 636 L254 636 Z M61 97 C61 60 111 63 136 63 L391 63 C412 63 439 78 439 102 C439 139 389 136 364 136 L109 136 C88 136 61 121 61 97 L61 97 Z M247 719 L275 691 C290 676 298 664 321 664 C342 664 369 679 369 703 C369 709 367 714 364 719 C360 725 284 801 278 804 C271 809 263 811 254 811 C244 811 235 808 227 803 C219 799 143 723 137 715 C134 710 131 704 131 697 C131 676 152 664 171 664 C203 664 227 698 247 719 L247 719 Z " />
<glyph glyph-name="Atilde" unicode="&#xc3;" horiz-adv-x="500" d="M254 636 C235 636 221 628 211 612 C208 609 31 7 31 -3 C31 -24 52 -36 71 -36 C89 -36 103 -28 114 -14 C120 -5 148 99 153 118 L249 445 L249 446 C264 395 380 -12 386 -19 C397 -31 405 -36 421 -36 C442 -36 469 -21 469 3 C469 22 320 516 307 561 C304 573 296 608 290 616 C282 630 270 636 254 636 L254 636 Z M61 97 C61 60 111 63 136 63 L391 63 C412 63 439 78 439 102 C439 139 389 136 364 136 L109 136 C88 136 61 121 61 97 L61 97 Z M303 736 C290 736 266 786 204 786 C153 786 106 751 106 697 C106 676 127 664 146 664 C165 664 186 675 192 694 C194 701 193 707 196 714 L198 714 C208 714 235 664 296 664 C347 664 394 699 394 753 C394 774 373 786 354 786 C304 786 308 740 303 736 L303 736 Z " />
<glyph glyph-name="Adieresis" unicode="&#xc4;" horiz-adv-x="500" d="M254 636 C235 636 221 628 211 612 C208 609 31 7 31 -3 C31 -24 52 -36 71 -36 C89 -36 103 -28 114 -14 C120 -5 148 99 153 118 L249 445 L249 446 C264 395 380 -12 386 -19 C397 -31 405 -36 421 -36 C442 -36 469 -21 469 3 C469 22 320 516 307 561 C304 573 296 608 290 616 C282 630 270 636 254 636 L254 636 Z M61 97 C61 60 111 63 136 63 L391 63 C412 63 439 78 439 102 C439 139 389 136 364 136 L109 136 C88 136 61 121 61 97 L61 97 Z M156 772 L156 697 C156 676 177 664 196 664 C217 664 244 679 244 703 L244 778 C244 799 223 811 204 811 C183 811 156 796 156 772 L156 772 Z M281 772 L281 697 C281 676 302 664 321 664 C342 664 369 679 369 703 L369 778 C369 799 348 811 329 811 C308 811 281 796 281 772 L281 772 Z " />
<glyph glyph-name="Aring" unicode="&#xc5;" horiz-adv-x="500" d="M254 636 C235 636 221 628 211 612 C208 609 31 7 31 -3 C31 -24 52 -36 71 -36 C89 -36 103 -28 114 -14 C120 -5 148 99 153 118 L249 445 L249 446 C264 395 380 -12 386 -19 C397 -31 405 -36 421 -36 C442 -36 469 -21 469 3 C469 22 320 516 307 561 C304 573 296 608 290 616 C282 630 270 636 254 636 L254 636 Z M61 97 C61 60 111 63 136 63 L391 63 C412 63 439 78 439 102 C439 139 389 136 364 136 L109 136 C88 136 61 121 61 97 L61 97 Z M371 701 C371 766 316 811 254 811 C190 811 130 762 130 695 C130 631 185 586 246 586 C267 586 294 601 294 625 C294 642 279 654 263 657 C258 658 252 657 246 659 C229 664 218 684 218 701 C218 717 227 739 246 739 C269 739 283 715 283 695 C283 644 236 668 214 639 C209 634 206 626 206 619 C206 598 227 586 246 586 C310 586 371 634 371 701 L371 701 Z " />
<glyph glyph-name="AE" unicode="&#xc6;" horiz-adv-x="625" d="M421 -36 L546 -36 C567 -36 594 -21 594 3 C594 34 560 36 537 36 C509 36 480 35 452 35 C437 35 420 35 405 38 C375 46 355 70 347 99 C345 104 345 109 344 114 C343 126 340 139 338 150 C334 180 329 210 325 241 C321 265 317 290 314 314 L446 314 C467 314 494 329 494 353 C494 374 473 386 454 386 L303 386 C295 435 287 484 279 533 C279 535 277 549 274 564 L546 564 C567 564 594 579 594 603 C594 624 573 636 554 636 L228 636 C217 635 208 633 200 627 C190 621 182 611 181 599 C155 512 6 6 6 -3 C6 -24 27 -36 46 -36 C64 -36 76 -29 88 -15 C90 -12 100 19 113 64 L265 64 C288 1 351 -36 421 -36 L421 -36 Z M211 401 C212 393 236 221 251 136 L134 136 C166 243 203 373 211 401 L211 401 Z " />
<glyph glyph-name="Ccedilla" unicode="&#xc7;" horiz-adv-x="550" d="M279 636 C250 636 221 631 194 622 C110 594 56 509 56 422 L56 172 C56 106 90 32 147 -3 C185 -26 227 -36 271 -36 C357 -36 436 3 472 84 C476 93 481 106 481 116 C481 137 460 148 442 148 C423 148 404 139 397 122 C393 115 392 107 388 100 C368 54 327 36 279 36 C192 36 144 101 144 183 L144 428 C144 445 147 462 153 478 C171 536 210 564 271 564 C313 564 356 551 377 512 C380 507 382 502 385 497 C392 483 406 477 421 477 C442 477 469 492 469 516 C469 519 468 521 468 524 C443 602 355 636 279 636 L279 636 Z M282 -78 C282 -86 282 -108 278 -114 C263 -113 279 -64 229 -64 C208 -64 181 -79 181 -103 C181 -154 222 -186 271 -186 C322 -186 369 -151 369 -97 L369 -47 C369 4 328 36 279 36 C258 36 231 21 231 -3 C231 -22 246 -31 262 -34 C266 -35 270 -34 273 -36 C284 -41 282 -68 282 -78 L282 -78 Z " />
<glyph glyph-name="Egrave" unicode="&#xc8;" horiz-adv-x="500" d="M404 636 L104 636 C83 636 56 621 56 597 L56 47 C56 -4 97 -36 146 -36 L396 -36 C417 -36 444 -21 444 3 C444 18 433 28 420 33 C411 37 357 36 345 36 C294 36 242 35 191 35 C187 35 154 35 152 36 C146 38 144 49 144 54 L144 564 C193 564 242 564 291 564 C307 564 402 563 413 567 C428 573 444 585 444 603 C444 624 423 636 404 636 L404 636 Z M96 314 L271 314 C292 314 319 329 319 353 C319 374 298 386 279 386 L104 386 C83 386 56 371 56 347 C56 326 77 314 96 314 L96 314 Z M246 664 C267 664 294 679 294 703 C294 709 292 714 289 719 C285 725 209 801 203 804 C196 809 188 811 179 811 C158 811 131 796 131 772 C131 766 133 761 136 756 C140 750 216 674 222 671 C229 666 237 664 246 664 L246 664 Z " />
<glyph glyph-name="Eacute" unicode="&#xc9;" horiz-adv-x="500" d="M404 636 L104 636 C83 636 56 621 56 597 L56 47 C56 -4 97 -36 146 -36 L396 -36 C417 -36 444 -21 444 3 C444 18 433 28 420 33 C411 37 357 36 345 36 C294 36 242 35 191 35 C187 35 154 35 152 36 C146 38 144 49 144 54 L144 564 C193 564 242 564 291 564 C307 564 402 563 413 567 C428 573 444 585 444 603 C444 624 423 636 404 636 L404 636 Z M96 314 L271 314 C292 314 319 329 319 353 C319 374 298 386 279 386 L104 386 C83 386 56 371 56 347 C56 326 77 314 96 314 L96 314 Z M206 697 C206 676 227 664 246 664 C256 664 265 667 273 672 C281 676 357 752 363 760 C366 765 369 771 369 778 C369 799 348 811 329 811 C319 811 310 808 302 803 C294 799 218 723 212 715 C209 710 206 704 206 697 L206 697 Z " />
<glyph glyph-name="Ecircumflex" unicode="&#xca;" horiz-adv-x="500" d="M404 636 L104 636 C83 636 56 621 56 597 L56 47 C56 -4 97 -36 146 -36 L396 -36 C417 -36 444 -21 444 3 C444 18 433 28 420 33 C411 37 357 36 345 36 C294 36 242 35 191 35 C187 35 154 35 152 36 C146 38 144 49 144 54 L144 564 C193 564 242 564 291 564 C307 564 402 563 413 567 C428 573 444 585 444 603 C444 624 423 636 404 636 L404 636 Z M96 314 L271 314 C292 314 319 329 319 353 C319 374 298 386 279 386 L104 386 C83 386 56 371 56 347 C56 326 77 314 96 314 L96 314 Z M247 719 L275 691 C290 676 298 664 321 664 C342 664 369 679 369 703 C369 709 367 714 364 719 C360 725 284 801 278 804 C271 809 263 811 254 811 C244 811 235 808 227 803 C219 799 143 723 137 715 C134 710 131 704 131 697 C131 676 152 664 171 664 C203 664 227 698 247 719 L247 719 Z " />
<glyph glyph-name="Edieresis" unicode="&#xcb;" horiz-adv-x="450" d="M379 636 L79 636 C58 636 31 621 31 597 L31 47 C31 -4 72 -36 121 -36 L371 -36 C392 -36 419 -21 419 3 C419 18 408 28 395 33 C386 37 332 36 320 36 C269 36 217 35 166 35 C162 35 129 35 127 36 C121 38 119 49 119 54 L119 564 C168 564 217 564 266 564 C282 564 377 563 388 567 C403 573 419 585 419 603 C419 624 398 636 379 636 L379 636 Z M71 314 L246 314 C267 314 294 329 294 353 C294 374 273 386 254 386 L79 386 C58 386 31 371 31 347 C31 326 52 314 71 314 L71 314 Z M131 772 L131 697 C131 676 152 664 171 664 C192 664 219 679 219 703 L219 778 C219 799 198 811 179 811 C158 811 131 796 131 772 L131 772 Z M256 772 L256 697 C256 676 277 664 296 664 C317 664 344 679 344 703 L344 778 C344 799 323 811 304 811 C283 811 256 796 256 772 L256 772 Z " />
<glyph glyph-name="Igrave" unicode="&#xcc;" horiz-adv-x="250" d="M169 3 L169 603 C169 624 148 636 129 636 C108 636 81 621 81 597 L81 -3 C81 -24 102 -36 121 -36 C142 -36 169 -21 169 3 L169 3 Z M121 664 C142 664 169 679 169 703 C169 709 167 714 164 719 C160 725 84 801 78 804 C71 809 63 811 54 811 C33 811 6 796 6 772 C6 766 8 761 11 756 C15 750 91 674 97 671 C104 666 112 664 121 664 L121 664 Z " />
<glyph glyph-name="Iacute" unicode="&#xcd;" horiz-adv-x="250" d="M169 3 L169 603 C169 624 148 636 129 636 C108 636 81 621 81 597 L81 -3 C81 -24 102 -36 121 -36 C142 -36 169 -21 169 3 L169 3 Z M81 697 C81 676 102 664 121 664 C131 664 140 667 148 672 C156 676 232 752 238 760 C241 765 244 771 244 778 C244 799 223 811 204 811 C194 811 185 808 177 803 C169 799 93 723 87 715 C84 710 81 704 81 697 L81 697 Z " />
<glyph glyph-name="Icircumflex" unicode="&#xce;" horiz-adv-x="250" d="M169 3 L169 603 C169 624 148 636 129 636 C108 636 81 621 81 597 L81 -3 C81 -24 102 -36 121 -36 C142 -36 169 -21 169 3 L169 3 Z M122 719 L150 691 C165 676 173 664 196 664 C217 664 244 679 244 703 C244 709 242 714 239 719 C235 725 159 801 153 804 C146 809 138 811 129 811 C119 811 110 808 102 803 C94 799 18 723 12 715 C9 710 6 704 6 697 C6 676 27 664 46 664 C78 664 102 698 122 719 L122 719 Z " />
<glyph glyph-name="Idieresis" unicode="&#xcf;" horiz-adv-x="250" d="M169 3 L169 603 C169 624 148 636 129 636 C108 636 81 621 81 597 L81 -3 C81 -24 102 -36 121 -36 C142 -36 169 -21 169 3 L169 3 Z M31 772 L31 697 C31 676 52 664 71 664 C92 664 119 679 119 703 L119 778 C119 799 98 811 79 811 C58 811 31 796 31 772 L31 772 Z M156 772 L156 697 C156 676 177 664 196 664 C217 664 244 679 244 703 L244 778 C244 799 223 811 204 811 C183 811 156 796 156 772 L156 772 Z " />
<glyph glyph-name="Eth" unicode="&#xd0;" horiz-adv-x="575" d="M71 314 L81 314 L81 -3 C81 -24 102 -36 121 -36 C140 -36 159 -26 167 -8 C171 3 169 48 169 62 L169 314 L271 314 C292 314 319 329 319 353 C319 374 298 386 279 386 L169 386 L169 564 L271 564 C347 564 397 527 421 455 C427 436 431 416 431 397 L431 172 C431 150 423 122 412 103 C380 43 325 36 264 36 C240 36 206 27 206 -3 C206 -32 236 -36 258 -36 C295 -36 332 -33 367 -22 C457 7 519 88 519 183 L519 403 C519 483 474 569 402 607 C365 627 322 636 279 636 L129 636 C108 636 81 621 81 597 L81 386 L79 386 C58 386 31 371 31 347 C31 326 52 314 71 314 L71 314 Z " />
<glyph glyph-name="Ntilde" unicode="&#xd1;" horiz-adv-x="550" d="M104 636 C83 636 56 621 56 597 L56 -3 C56 -24 77 -36 96 -36 C114 -36 135 -26 142 -8 C146 4 144 41 144 55 L144 498 L332 309 L391 250 C408 233 419 214 446 214 C467 214 494 229 494 253 C494 260 491 266 487 272 C468 296 442 317 420 339 L280 479 L179 580 C159 600 135 636 104 636 L104 636 Z M494 3 L494 603 C494 624 473 636 454 636 C433 636 406 621 406 597 L406 -3 C406 -24 427 -36 446 -36 C467 -36 494 -21 494 3 L494 3 Z M328 736 C315 736 291 786 229 786 C178 786 131 751 131 697 C131 676 152 664 171 664 C190 664 211 675 217 694 C219 701 218 707 221 714 L223 714 C233 714 260 664 321 664 C372 664 419 699 419 753 C419 774 398 786 379 786 C329 786 333 740 328 736 L328 736 Z " />
<glyph glyph-name="Ograve" unicode="&#xd2;" horiz-adv-x="550" d="M494 178 L494 428 C494 494 460 568 403 603 C365 626 323 636 279 636 C250 636 221 631 194 622 C111 594 56 508 56 422 L56 172 C56 106 90 32 147 -3 C185 -26 227 -36 271 -36 C300 -36 329 -31 356 -22 C439 6 494 92 494 178 C494 199 473 211 454 211 C444 211 434 208 426 203 C401 188 407 164 402 140 C389 73 348 36 279 36 C192 36 144 101 144 183 L144 428 C144 445 147 462 153 478 C171 536 210 564 271 564 C358 564 406 499 406 417 L406 172 C406 151 427 139 446 139 C467 139 494 154 494 178 L494 178 Z M271 664 C292 664 319 679 319 703 C319 709 317 714 314 719 C310 725 234 801 228 804 C221 809 213 811 204 811 C183 811 156 796 156 772 C156 766 158 761 161 756 C165 750 241 674 247 671 C254 666 262 664 271 664 L271 664 Z " />
<glyph glyph-name="Oacute" unicode="&#xd3;" horiz-adv-x="550" d="M494 178 L494 428 C494 494 460 568 403 603 C365 626 323 636 279 636 C250 636 221 631 194 622 C111 594 56 508 56 422 L56 172 C56 106 90 32 147 -3 C185 -26 227 -36 271 -36 C300 -36 329 -31 356 -22 C439 6 494 92 494 178 C494 199 473 211 454 211 C444 211 434 208 426 203 C401 188 407 164 402 140 C389 73 348 36 279 36 C192 36 144 101 144 183 L144 428 C144 445 147 462 153 478 C171 536 210 564 271 564 C358 564 406 499 406 417 L406 172 C406 151 427 139 446 139 C467 139 494 154 494 178 L494 178 Z M231 697 C231 676 252 664 271 664 C281 664 290 667 298 672 C306 676 382 752 388 760 C391 765 394 771 394 778 C394 799 373 811 354 811 C344 811 335 808 327 803 C319 799 243 723 237 715 C234 710 231 704 231 697 L231 697 Z " />
<glyph glyph-name="Ocircumflex" unicode="&#xd4;" horiz-adv-x="550" d="M494 178 L494 428 C494 494 460 568 403 603 C365 626 323 636 279 636 C250 636 221 631 194 622 C111 594 56 508 56 422 L56 172 C56 106 90 32 147 -3 C185 -26 227 -36 271 -36 C300 -36 329 -31 356 -22 C439 6 494 92 494 178 C494 199 473 211 454 211 C444 211 434 208 426 203 C401 188 407 164 402 140 C389 73 348 36 279 36 C192 36 144 101 144 183 L144 428 C144 445 147 462 153 478 C171 536 210 564 271 564 C358 564 406 499 406 417 L406 172 C406 151 427 139 446 139 C467 139 494 154 494 178 L494 178 Z M272 719 L300 691 C315 676 323 664 346 664 C367 664 394 679 394 703 C394 709 392 714 389 719 C385 725 309 801 303 804 C296 809 288 811 279 811 C269 811 260 808 252 803 C244 799 168 723 162 715 C159 710 156 704 156 697 C156 676 177 664 196 664 C228 664 252 698 272 719 L272 719 Z " />
<glyph glyph-name="Otilde" unicode="&#xd5;" horiz-adv-x="550" d="M494 178 L494 428 C494 494 460 568 403 603 C365 626 323 636 279 636 C250 636 221 631 194 622 C111 594 56 508 56 422 L56 172 C56 106 90 32 147 -3 C185 -26 227 -36 271 -36 C300 -36 329 -31 356 -22 C439 6 494 92 494 178 C494 199 473 211 454 211 C444 211 434 208 426 203 C401 188 407 164 402 140 C389 73 348 36 279 36 C192 36 144 101 144 183 L144 428 C144 445 147 462 153 478 C171 536 210 564 271 564 C358 564 406 499 406 417 L406 172 C406 151 427 139 446 139 C467 139 494 154 494 178 L494 178 Z M328 736 C315 736 291 786 229 786 C178 786 131 751 131 697 C131 676 152 664 171 664 C190 664 211 675 217 694 C219 701 218 707 221 714 L223 714 C233 714 260 664 321 664 C372 664 419 699 419 753 C419 774 398 786 379 786 C329 786 333 740 328 736 L328 736 Z " />
<glyph glyph-name="Odieresis" unicode="&#xd6;" horiz-adv-x="550" d="M494 178 L494 428 C494 494 460 568 403 603 C365 626 323 636 279 636 C250 636 221 631 194 622 C111 594 56 508 56 422 L56 172 C56 106 90 32 147 -3 C185 -26 227 -36 271 -36 C300 -36 329 -31 356 -22 C439 6 494 92 494 178 C494 199 473 211 454 211 C444 211 434 208 426 203 C401 188 407 164 402 140 C389 73 348 36 279 36 C192 36 144 101 144 183 L144 428 C144 445 147 462 153 478 C171 536 210 564 271 564 C358 564 406 499 406 417 L406 172 C406 151 427 139 446 139 C467 139 494 154 494 178 L494 178 Z M181 772 L181 697 C181 676 202 664 221 664 C242 664 269 679 269 703 L269 778 C269 799 248 811 229 811 C208 811 181 796 181 772 L181 772 Z M306 772 L306 697 C306 676 327 664 346 664 C367 664 394 679 394 703 L394 778 C394 799 373 811 354 811 C333 811 306 796 306 772 L306 772 Z " />
<glyph glyph-name="multiply" unicode="&#xd7;" horiz-adv-x="350" d="M271 114 C292 114 319 129 319 153 C319 173 287 197 273 210 L231 253 L282 303 C295 316 319 333 319 353 C319 374 298 386 279 386 C247 386 230 359 210 339 L178 306 L134 350 C117 367 106 386 79 386 C58 386 31 371 31 347 C31 327 63 303 77 290 L119 247 L68 197 C55 184 31 167 31 147 C31 126 52 114 71 114 C103 114 120 141 140 161 L172 194 L216 150 C233 133 244 114 271 114 L271 114 Z " />
<glyph glyph-name="Oslash" unicode="&#xd8;" horiz-adv-x="500" d="M469 178 L469 428 C469 485 443 549 398 588 C410 621 419 648 419 653 C419 674 398 686 379 686 C352 686 338 671 329 647 L322 627 C300 633 277 636 254 636 C225 636 196 631 169 622 C86 594 31 508 31 422 L31 172 C31 115 57 51 102 12 C90 -21 81 -48 81 -53 C81 -74 102 -86 121 -86 C148 -86 162 -71 171 -47 L178 -27 C200 -33 223 -36 246 -36 C275 -36 304 -31 331 -22 C414 6 469 92 469 178 L469 178 Z M119 183 L119 428 C119 445 122 462 128 478 C146 536 185 564 246 564 C265 564 282 561 297 556 L165 186 C161 175 149 143 136 106 C124 128 119 155 119 183 L119 183 Z M377 140 C364 73 323 36 254 36 C235 36 218 39 203 44 L335 414 C339 425 351 457 364 494 C376 472 381 445 381 417 L381 173 C380 162 380 151 377 140 L377 140 Z " />
<glyph glyph-name="Ugrave" unicode="&#xd9;" horiz-adv-x="550" d="M56 597 L56 172 C56 106 90 33 147 -3 C184 -26 227 -36 271 -36 C300 -36 329 -31 356 -22 C440 6 494 91 494 178 L494 603 C494 624 473 636 454 636 C435 636 416 626 408 608 C404 598 406 564 406 551 L406 172 C406 155 403 138 397 122 C379 64 340 36 279 36 C215 36 172 67 153 128 C148 144 144 161 144 178 C144 304 145 431 145 557 C145 591 152 636 104 636 C83 636 56 621 56 597 L56 597 Z M271 664 C292 664 319 679 319 703 C319 709 317 714 314 719 C310 725 234 801 228 804 C221 809 213 811 204 811 C183 811 156 796 156 772 C156 766 158 761 161 756 C165 750 241 674 247 671 C254 666 262 664 271 664 L271 664 Z " />
<glyph glyph-name="Uacute" unicode="&#xda;" horiz-adv-x="550" d="M56 597 L56 172 C56 106 90 33 147 -3 C184 -26 227 -36 271 -36 C300 -36 329 -31 356 -22 C440 6 494 91 494 178 L494 603 C494 624 473 636 454 636 C435 636 416 626 408 608 C404 598 406 564 406 551 L406 172 C406 155 403 138 397 122 C379 64 340 36 279 36 C215 36 172 67 153 128 C148 144 144 161 144 178 C144 304 145 431 145 557 C145 591 152 636 104 636 C83 636 56 621 56 597 L56 597 Z M231 697 C231 676 252 664 271 664 C281 664 290 667 298 672 C306 676 382 752 388 760 C391 765 394 771 394 778 C394 799 373 811 354 811 C344 811 335 808 327 803 C319 799 243 723 237 715 C234 710 231 704 231 697 L231 697 Z " />
<glyph glyph-name="Ucircumflex" unicode="&#xdb;" horiz-adv-x="550" d="M56 597 L56 172 C56 106 90 33 147 -3 C184 -26 227 -36 271 -36 C300 -36 329 -31 356 -22 C440 6 494 91 494 178 L494 603 C494 624 473 636 454 636 C435 636 416 626 408 608 C404 598 406 564 406 551 L406 172 C406 155 403 138 397 122 C379 64 340 36 279 36 C215 36 172 67 153 128 C148 144 144 161 144 178 C144 304 145 431 145 557 C145 591 152 636 104 636 C83 636 56 621 56 597 L56 597 Z M272 719 L300 691 C315 676 323 664 346 664 C367 664 394 679 394 703 C394 709 392 714 389 719 C385 725 309 801 303 804 C296 809 288 811 279 811 C269 811 260 808 252 803 C244 799 168 723 162 715 C159 710 156 704 156 697 C156 676 177 664 196 664 C228 664 252 698 272 719 L272 719 Z " />
<glyph glyph-name="Udieresis" unicode="&#xdc;" horiz-adv-x="550" d="M56 597 L56 172 C56 106 90 33 147 -3 C184 -26 227 -36 271 -36 C300 -36 329 -31 356 -22 C440 6 494 91 494 178 L494 603 C494 624 473 636 454 636 C435 636 416 626 408 608 C404 598 406 564 406 551 L406 172 C406 155 403 138 397 122 C379 64 340 36 279 36 C215 36 172 67 153 128 C148 144 144 161 144 178 C144 304 145 431 145 557 C145 591 152 636 104 636 C83 636 56 621 56 597 L56 597 Z M181 772 L181 697 C181 676 202 664 221 664 C242 664 269 679 269 703 L269 778 C269 799 248 811 229 811 C208 811 181 796 181 772 L181 772 Z M306 772 L306 697 C306 676 327 664 346 664 C367 664 394 679 394 703 L394 778 C394 799 373 811 354 811 C333 811 306 796 306 772 L306 772 Z " />
<glyph glyph-name="Yacute" unicode="&#xdd;" horiz-adv-x="494" d="M251 403 L251 404 C215 460 180 517 144 573 C139 581 115 620 109 625 C101 632 90 636 79 636 C58 636 31 621 31 597 C31 592 33 588 35 584 C40 573 48 562 54 552 L96 486 L179 356 C196 330 210 289 246 289 C282 289 291 316 307 342 L356 420 L425 533 C436 551 449 569 458 588 C461 593 463 598 463 603 C463 624 442 636 423 636 C410 636 397 631 387 622 C374 610 351 566 340 548 L251 403 Z M294 3 L294 328 C294 349 273 361 254 361 C233 361 206 346 206 322 L206 -3 C206 -24 227 -36 246 -36 C267 -36 294 -21 294 3 L294 3 Z M206 697 C206 676 227 664 246 664 C256 664 265 667 273 672 C281 676 357 752 363 760 C366 765 369 771 369 778 C369 799 348 811 329 811 C319 811 310 808 302 803 C294 799 218 723 212 715 C209 710 206 704 206 697 L206 697 Z " />
<glyph glyph-name="Thorn" unicode="&#xde;" horiz-adv-x="400" d="M31 497 L31 -3 C31 -24 52 -36 71 -36 C89 -36 108 -26 116 -9 C123 6 119 98 119 121 L119 364 L195 364 C250 364 281 322 281 271 L281 248 C281 189 272 136 203 136 C195 136 188 136 180 136 C159 136 132 121 132 97 C132 66 165 64 188 64 C210 64 231 66 252 72 C321 91 369 157 369 228 L369 256 C369 363 317 436 204 436 L119 436 L119 503 C119 524 98 536 79 536 C58 536 31 521 31 497 L31 497 Z " />
<glyph glyph-name="germandbls" unicode="&#xdf;" horiz-adv-x="625" d="M308 -36 C344 -36 380 -33 414 -21 C508 11 569 105 569 203 C569 318 493 414 379 432 L471 537 C485 553 503 568 514 586 C517 592 519 597 519 603 C519 624 498 636 479 636 L304 636 C204 636 131 568 131 467 L131 -3 C131 -24 152 -36 171 -36 C189 -36 208 -26 216 -9 C219 -2 219 21 219 30 C219 175 218 321 218 466 C218 519 238 564 297 564 L393 564 L303 461 C289 446 271 431 261 414 C258 408 256 403 256 397 C256 362 298 364 323 364 C404 364 455 320 474 243 C478 228 481 212 481 197 C481 170 472 135 460 112 C428 47 380 36 313 36 C289 36 256 27 256 -3 C256 -32 286 -36 308 -36 L308 -36 Z M96 364 L171 364 C192 364 219 379 219 403 C219 424 198 436 179 436 L104 436 C83 436 56 421 56 397 C56 376 77 364 96 364 L96 364 Z " />
<glyph glyph-name="agrave" unicode="&#xe0;" horiz-adv-x="375" d="M296 -36 C317 -36 344 -21 344 3 L344 278 C344 330 317 386 271 412 C243 429 211 436 179 436 L129 436 C108 436 81 421 81 397 C81 356 140 365 166 365 C201 365 226 355 243 323 C251 309 256 288 256 272 C256 190 256 108 256 26 C256 -5 255 -36 296 -36 L296 -36 Z M94 103 C94 113 97 125 101 135 C111 160 129 165 154 165 C196 165 239 164 282 164 C307 164 344 171 344 203 C344 224 323 236 304 236 L154 236 C74 236 6 181 6 97 C6 16 67 -36 146 -36 L196 -36 C217 -36 244 -21 244 3 C244 42 187 37 161 37 C151 37 139 36 130 40 C107 49 94 80 94 103 L94 103 Z M170 489 C191 489 218 504 218 528 C218 534 216 539 213 544 C209 550 133 626 127 629 C120 634 112 636 103 636 C82 636 55 621 55 597 C55 591 57 586 60 581 C64 575 140 499 146 496 C153 491 161 489 170 489 L170 489 Z " />
<glyph glyph-name="aacute" unicode="&#xe1;" horiz-adv-x="400" d="M321 -36 C342 -36 369 -21 369 3 L369 278 C369 330 342 386 296 412 C268 429 236 436 204 436 L154 436 C133 436 106 421 106 397 C106 356 165 365 191 365 C226 365 251 355 268 323 C276 309 281 288 281 272 C281 190 281 108 281 26 C281 -5 280 -36 321 -36 L321 -36 Z M119 103 C119 113 122 125 126 135 C136 160 154 165 179 165 C221 165 264 164 307 164 C332 164 369 171 369 203 C369 224 348 236 329 236 L179 236 C99 236 31 181 31 97 C31 16 92 -36 171 -36 L221 -36 C242 -36 269 -21 269 3 C269 42 212 37 186 37 C176 37 164 36 155 40 C132 49 119 80 119 103 L119 103 Z M155 522 C155 501 176 489 195 489 C205 489 214 492 222 497 C230 501 306 577 312 585 C315 590 318 596 318 603 C318 624 297 636 278 636 C268 636 259 633 251 628 C243 624 167 548 161 540 C158 535 155 529 155 522 L155 522 Z " />
<glyph glyph-name="acircumflex" unicode="&#xe2;" horiz-adv-x="400" d="M321 -36 C342 -36 369 -21 369 3 L369 278 C369 330 342 386 296 412 C268 429 236 436 204 436 L154 436 C133 436 106 421 106 397 C106 356 165 365 191 365 C226 365 251 355 268 323 C276 309 281 288 281 272 C281 190 281 108 281 26 C281 -5 280 -36 321 -36 L321 -36 Z M119 103 C119 113 122 125 126 135 C136 160 154 165 179 165 C221 165 264 164 307 164 C332 164 369 171 369 203 C369 224 348 236 329 236 L179 236 C99 236 31 181 31 97 C31 16 92 -36 171 -36 L221 -36 C242 -36 269 -21 269 3 C269 42 212 37 186 37 C176 37 164 36 155 40 C132 49 119 80 119 103 L119 103 Z M196 544 L224 516 C239 501 247 489 270 489 C291 489 318 504 318 528 C318 534 316 539 313 544 C309 550 233 626 227 629 C220 634 212 636 203 636 C193 636 184 633 176 628 C168 624 92 548 86 540 C83 535 80 529 80 522 C80 501 101 489 120 489 C152 489 176 523 196 544 L196 544 Z " />
<glyph glyph-name="atilde" unicode="&#xe3;" horiz-adv-x="400" d="M321 -36 C342 -36 369 -21 369 3 L369 278 C369 330 342 386 296 412 C268 429 236 436 204 436 L154 436 C133 436 106 421 106 397 C106 356 165 365 191 365 C226 365 251 355 268 323 C276 309 281 288 281 272 C281 190 281 108 281 26 C281 -5 280 -36 321 -36 L321 -36 Z M119 103 C119 113 122 125 126 135 C136 160 154 165 179 165 C221 165 264 164 307 164 C332 164 369 171 369 203 C369 224 348 236 329 236 L179 236 C99 236 31 181 31 97 C31 16 92 -36 171 -36 L221 -36 C242 -36 269 -21 269 3 C269 42 212 37 186 37 C176 37 164 36 155 40 C132 49 119 80 119 103 L119 103 Z M252 561 C239 561 215 611 153 611 C102 611 55 576 55 522 C55 501 76 489 95 489 C114 489 135 500 141 519 C143 526 142 532 145 539 L147 539 C157 539 184 489 245 489 C296 489 343 524 343 578 C343 599 322 611 303 611 C253 611 257 565 252 561 L252 561 Z " />
<glyph glyph-name="adieresis" unicode="&#xe4;" horiz-adv-x="400" d="M321 -36 C342 -36 369 -21 369 3 L369 278 C369 330 342 386 296 412 C268 429 236 436 204 436 L154 436 C133 436 106 421 106 397 C106 356 165 365 191 365 C226 365 251 355 268 323 C276 309 281 288 281 272 C281 190 281 108 281 26 C281 -5 280 -36 321 -36 L321 -36 Z M119 103 C119 113 122 125 126 135 C136 160 154 165 179 165 C221 165 264 164 307 164 C332 164 369 171 369 203 C369 224 348 236 329 236 L179 236 C99 236 31 181 31 97 C31 16 92 -36 171 -36 L221 -36 C242 -36 269 -21 269 3 C269 42 212 37 186 37 C176 37 164 36 155 40 C132 49 119 80 119 103 L119 103 Z M105 597 L105 522 C105 501 126 489 145 489 C166 489 193 504 193 528 L193 603 C193 624 172 636 153 636 C132 636 105 621 105 597 L105 597 Z M230 597 L230 522 C230 501 251 489 270 489 C291 489 318 504 318 528 L318 603 C318 624 297 636 278 636 C257 636 230 621 230 597 L230 597 Z " />
<glyph glyph-name="aring" unicode="&#xe5;" horiz-adv-x="400" d="M321 -36 C342 -36 369 -21 369 3 L369 278 C369 330 342 386 296 412 C268 429 236 436 204 436 L154 436 C133 436 106 421 106 397 C106 356 165 365 191 365 C226 365 251 355 268 323 C276 309 281 288 281 272 C281 190 281 108 281 26 C281 -5 280 -36 321 -36 L321 -36 Z M119 103 C119 113 122 125 126 135 C136 160 154 165 179 165 C221 165 264 164 307 164 C332 164 369 171 369 203 C369 224 348 236 329 236 L179 236 C99 236 31 181 31 97 C31 16 92 -36 171 -36 L221 -36 C242 -36 269 -21 269 3 C269 42 212 37 186 37 C176 37 164 36 155 40 C132 49 119 80 119 103 L119 103 Z M321 526 C321 591 266 636 204 636 C140 636 80 587 80 520 C80 456 135 411 196 411 C217 411 244 426 244 450 C244 467 229 479 213 482 C208 483 202 482 196 484 C179 489 168 509 168 526 C168 542 177 564 196 564 C219 564 233 540 233 520 C233 469 186 493 164 464 C159 459 156 451 156 444 C156 423 177 411 196 411 C260 411 321 459 321 526 L321 526 Z " />
<glyph glyph-name="ae" unicode="&#xe6;" horiz-adv-x="627" d="M94 103 C94 142 114 165 154 165 C189 165 223 164 258 164 C258 155 258 146 258 137 C258 34 317 -36 423 -36 L471 -36 C492 -36 519 -21 519 3 C519 44 461 35 435 35 C378 35 346 74 346 129 L346 164 L546 164 C566 164 588 176 593 197 C595 206 596 267 596 278 C596 332 564 392 515 417 C489 430 460 436 431 436 C380 436 334 418 303 386 C272 421 225 436 179 436 L129 436 C108 436 81 421 81 397 C81 356 140 365 166 365 C222 365 256 327 256 272 C256 260 256 248 256 236 L154 236 C74 236 6 181 6 97 C6 16 67 -36 146 -36 L196 -36 C217 -36 244 -21 244 3 C244 42 187 37 161 37 C151 37 139 36 130 40 C107 49 94 80 94 103 L94 103 Z M346 236 L346 278 C346 327 371 364 423 364 C465 364 490 342 502 303 C506 293 508 282 508 271 C508 259 508 248 507 236 C453 236 400 236 346 236 L346 236 Z " />
<glyph glyph-name="ccedilla" unicode="&#xe7;" horiz-adv-x="400" d="M204 36 C150 36 119 78 119 129 L119 253 C119 308 127 364 196 364 C264 364 250 314 296 314 C317 314 344 329 344 353 C344 379 302 410 281 420 C257 430 230 436 204 436 C104 436 31 368 31 267 L31 122 C31 70 58 14 104 -12 C132 -29 164 -36 196 -36 C216 -36 236 -33 255 -27 C284 -18 344 19 344 53 C344 74 323 86 304 86 C253 86 269 36 204 36 L204 36 Z M206 -78 C206 -86 206 -108 202 -114 C187 -113 203 -64 153 -64 C132 -64 105 -79 105 -103 C105 -154 146 -186 195 -186 C246 -186 293 -151 293 -97 L293 -47 C293 4 252 36 203 36 C182 36 155 21 155 -3 C155 -22 170 -31 186 -34 C190 -35 194 -34 197 -36 C208 -41 206 -68 206 -78 L206 -78 Z " />
<glyph glyph-name="egrave" unicode="&#xe8;" horiz-adv-x="400" d="M104 236 C79 236 33 240 33 203 C33 179 60 164 81 164 L327 164 C355 164 367 181 367 208 C367 229 369 251 369 272 C369 341 321 409 254 428 C235 433 215 436 196 436 C102 436 31 375 31 278 L31 133 C31 32 104 -36 204 -36 L254 -36 C273 -36 294 -24 294 -3 C294 28 259 36 234 36 C223 36 212 35 201 35 C132 35 118 85 118 144 C118 187 119 229 119 272 C119 324 150 364 204 364 C243 364 264 345 275 309 C279 299 281 289 281 278 C281 264 281 250 280 236 L104 236 Z M196 489 C217 489 244 504 244 528 C244 534 242 539 239 544 C235 550 159 626 153 629 C146 634 138 636 129 636 C108 636 81 621 81 597 C81 591 83 586 86 581 C90 575 166 499 172 496 C179 491 187 489 196 489 L196 489 Z " />
<glyph glyph-name="eacute" unicode="&#xe9;" horiz-adv-x="400" d="M104 236 C79 236 33 240 33 203 C33 179 60 164 81 164 L327 164 C355 164 367 181 367 208 C367 229 369 251 369 272 C369 341 321 409 254 428 C235 433 215 436 196 436 C102 436 31 375 31 278 L31 133 C31 32 104 -36 204 -36 L254 -36 C273 -36 294 -24 294 -3 C294 28 259 36 234 36 C223 36 212 35 201 35 C132 35 118 85 118 144 C118 187 119 229 119 272 C119 324 150 364 204 364 C243 364 264 345 275 309 C279 299 281 289 281 278 C281 264 281 250 280 236 L104 236 Z M156 522 C156 501 177 489 196 489 C206 489 215 492 223 497 C231 501 307 577 313 585 C316 590 319 596 319 603 C319 624 298 636 279 636 C269 636 260 633 252 628 C244 624 168 548 162 540 C159 535 156 529 156 522 L156 522 Z " />
<glyph glyph-name="ecircumflex" unicode="&#xea;" horiz-adv-x="400" d="M104 236 C79 236 33 240 33 203 C33 179 60 164 81 164 L327 164 C355 164 367 181 367 208 C367 229 369 251 369 272 C369 341 321 409 254 428 C235 433 215 436 196 436 C102 436 31 375 31 278 L31 133 C31 32 104 -36 204 -36 L254 -36 C273 -36 294 -24 294 -3 C294 28 259 36 234 36 C223 36 212 35 201 35 C132 35 118 85 118 144 C118 187 119 229 119 272 C119 324 150 364 204 364 C243 364 264 345 275 309 C279 299 281 289 281 278 C281 264 281 250 280 236 L104 236 Z M225 516 C240 501 248 489 271 489 C292 489 319 504 319 528 C319 534 317 539 314 544 C310 550 234 626 228 629 C221 634 213 636 204 636 C194 636 185 633 177 628 C169 624 93 548 87 540 C84 535 81 529 81 522 C81 501 102 489 121 489 C153 489 177 523 197 544 L225 516 Z " />
<glyph glyph-name="edieresis" unicode="&#xeb;" horiz-adv-x="400" d="M104 236 C79 236 33 240 33 203 C33 179 60 164 81 164 L327 164 C355 164 367 181 367 208 C367 229 369 251 369 272 C369 341 321 409 254 428 C235 433 215 436 196 436 C102 436 31 375 31 278 L31 133 C31 32 104 -36 204 -36 L254 -36 C273 -36 294 -24 294 -3 C294 28 259 36 234 36 C223 36 212 35 201 35 C132 35 118 85 118 144 C118 187 119 229 119 272 C119 324 150 364 204 364 C243 364 264 345 275 309 C279 299 281 289 281 278 C281 264 281 250 280 236 L104 236 Z M106 522 C106 501 127 489 146 489 C167 489 194 504 194 528 L194 603 C194 624 173 636 154 636 C133 636 106 621 106 597 L106 522 Z M231 522 C231 501 252 489 271 489 C292 489 319 504 319 528 L319 603 C319 624 298 636 279 636 C258 636 231 621 231 597 L231 522 Z " />
<glyph glyph-name="igrave" unicode="&#xec;" horiz-adv-x="150" d="M31 397 L31 -3 C31 -24 52 -36 71 -36 C92 -36 119 -21 119 3 L119 403 C119 424 98 436 79 436 C58 436 31 421 31 397 L31 397 Z M71 489 C92 489 119 504 119 528 C119 534 117 539 114 544 C110 550 34 626 28 629 C21 634 13 636 4 636 C-17 636 -44 621 -44 597 C-44 591 -42 586 -39 581 C-35 575 41 499 47 496 C54 491 62 489 71 489 L71 489 Z " />
<glyph glyph-name="iacute" unicode="&#xed;" horiz-adv-x="150" d="M31 397 L31 -3 C31 -24 52 -36 71 -36 C92 -36 119 -21 119 3 L119 403 C119 424 98 436 79 436 C58 436 31 421 31 397 L31 397 Z M31 522 C31 501 52 489 71 489 C81 489 90 492 98 497 C106 501 182 577 188 585 C191 590 194 596 194 603 C194 624 173 636 154 636 C144 636 135 633 127 628 C119 624 43 548 37 540 C34 535 31 529 31 522 L31 522 Z " />
<glyph glyph-name="icircumflex" unicode="&#xee;" horiz-adv-x="150" d="M31 397 L31 -3 C31 -24 52 -36 71 -36 C92 -36 119 -21 119 3 L119 403 C119 424 98 436 79 436 C58 436 31 421 31 397 L31 397 Z M72 544 L100 516 C115 501 123 489 146 489 C167 489 194 504 194 528 C194 534 192 539 189 544 C185 550 109 626 103 629 C96 634 88 636 79 636 C69 636 60 633 52 628 C44 624 -32 548 -38 540 C-41 535 -44 529 -44 522 C-44 501 -23 489 -4 489 C28 489 52 523 72 544 L72 544 Z " />
<glyph glyph-name="idieresis" unicode="&#xef;" horiz-adv-x="150" d="M31 397 L31 -3 C31 -24 52 -36 71 -36 C92 -36 119 -21 119 3 L119 403 C119 424 98 436 79 436 C58 436 31 421 31 397 L31 397 Z M-19 597 L-19 522 C-19 501 2 489 21 489 C42 489 69 504 69 528 L69 603 C69 624 48 636 29 636 C8 636 -19 621 -19 597 L-19 597 Z M106 597 L106 522 C106 501 127 489 146 489 C167 489 194 504 194 528 L194 603 C194 624 173 636 154 636 C133 636 106 621 106 597 L106 597 Z " />
<glyph glyph-name="eth" unicode="&#xf0;" horiz-adv-x="400" d="M281 392 L281 122 C281 74 256 36 204 36 C150 36 119 78 119 129 L119 216 C119 230 118 243 118 257 C118 285 121 317 139 340 C158 363 178 364 203 364 C229 364 269 368 269 403 C269 432 239 436 217 436 C193 436 170 434 148 428 C74 408 31 341 31 267 L31 122 C31 26 104 -36 196 -36 C296 -36 369 32 369 133 L369 403 C369 437 349 500 314 525 C310 529 304 535 297 542 C318 563 335 581 337 584 C341 590 344 596 344 603 C344 624 323 636 304 636 C293 636 283 632 274 626 C271 625 259 613 242 597 C225 614 212 627 210 628 C202 633 193 636 184 636 C163 636 136 621 136 597 C136 590 138 585 142 580 C144 577 162 559 183 538 C160 514 141 495 138 491 C134 485 131 479 131 472 C131 451 152 439 171 439 C182 439 192 443 201 449 C204 450 219 465 238 483 C242 479 246 475 249 473 C262 457 281 436 281 392 L281 392 Z " />
<glyph glyph-name="ntilde" unicode="&#xf1;" horiz-adv-x="450" d="M394 3 L394 278 C394 330 367 386 321 412 C293 429 261 436 229 436 L104 436 C83 436 56 421 56 397 L56 -3 C56 -24 77 -36 96 -36 C114 -36 133 -26 141 -9 C148 6 144 99 144 121 L144 364 L220 364 C278 364 306 320 306 267 L306 -3 C306 -24 327 -36 346 -36 C367 -36 394 -21 394 3 L394 3 Z M277 561 C264 561 240 611 178 611 C127 611 80 576 80 522 C80 501 101 489 120 489 C139 489 160 500 166 519 C168 526 167 532 170 539 L172 539 C182 539 209 489 270 489 C321 489 368 524 368 578 C368 599 347 611 328 611 C278 611 282 565 277 561 L277 561 Z " />
<glyph glyph-name="ograve" unicode="&#xf2;" horiz-adv-x="400" d="M196 364 C249 364 281 323 281 272 L281 122 C281 110 279 98 275 87 C263 52 241 36 204 36 C147 36 119 80 119 133 L119 278 C119 299 98 311 79 311 C58 311 31 296 31 272 L31 122 C31 70 58 14 104 -12 C132 -29 164 -36 196 -36 C296 -36 369 32 369 133 L369 278 C369 330 342 386 296 412 C268 429 236 436 204 436 C109 436 31 370 31 272 C31 251 52 239 71 239 C95 239 116 254 119 278 C124 327 140 364 196 364 L196 364 Z M195 489 C216 489 243 504 243 528 C243 534 241 539 238 544 C234 550 158 626 152 629 C145 634 137 636 128 636 C107 636 80 621 80 597 C80 591 82 586 85 581 C89 575 165 499 171 496 C178 491 186 489 195 489 L195 489 Z " />
<glyph glyph-name="oacute" unicode="&#xf3;" horiz-adv-x="400" d="M197 364 C250 364 282 323 282 272 L282 122 C282 110 280 98 276 87 C264 52 242 36 205 36 C148 36 120 80 120 133 L120 278 C120 299 99 311 80 311 C59 311 32 296 32 272 L32 122 C32 70 59 14 105 -12 C133 -29 165 -36 197 -36 C297 -36 370 32 370 133 L370 278 C370 330 343 386 297 412 C269 429 237 436 205 436 C110 436 32 370 32 272 C32 251 53 239 72 239 C96 239 117 254 120 278 C125 327 141 364 197 364 L197 364 Z M156 522 C156 501 177 489 196 489 C206 489 215 492 223 497 C231 501 307 577 313 585 C316 590 319 596 319 603 C319 624 298 636 279 636 C269 636 260 633 252 628 C244 624 168 548 162 540 C159 535 156 529 156 522 L156 522 Z " />
<glyph glyph-name="ocircumflex" unicode="&#xf4;" horiz-adv-x="400" d="M197 364 C250 364 282 323 282 272 L282 122 C282 110 280 98 276 87 C264 52 242 36 205 36 C148 36 120 80 120 133 L120 278 C120 299 99 311 80 311 C59 311 32 296 32 272 L32 122 C32 70 59 14 105 -12 C133 -29 165 -36 197 -36 C297 -36 370 32 370 133 L370 278 C370 330 343 386 297 412 C269 429 237 436 205 436 C110 436 32 370 32 272 C32 251 53 239 72 239 C96 239 117 254 120 278 C125 327 141 364 197 364 L197 364 Z M197 544 L225 516 C240 501 248 489 271 489 C292 489 319 504 319 528 C319 534 317 539 314 544 C310 550 234 626 228 629 C221 634 213 636 204 636 C194 636 185 633 177 628 C169 624 93 548 87 540 C84 535 81 529 81 522 C81 501 102 489 121 489 C153 489 177 523 197 544 L197 544 Z " />
<glyph glyph-name="otilde" unicode="&#xf5;" horiz-adv-x="400" d="M197 364 C250 364 282 323 282 272 L282 122 C282 110 280 98 276 87 C264 52 242 36 205 36 C148 36 120 80 120 133 L120 278 C120 299 99 311 80 311 C59 311 32 296 32 272 L32 122 C32 70 59 14 105 -12 C133 -29 165 -36 197 -36 C297 -36 370 32 370 133 L370 278 C370 330 343 386 297 412 C269 429 237 436 205 436 C110 436 32 370 32 272 C32 251 53 239 72 239 C96 239 117 254 120 278 C125 327 141 364 197 364 L197 364 Z M253 561 C240 561 216 611 154 611 C103 611 56 576 56 522 C56 501 77 489 96 489 C115 489 136 500 142 519 C144 526 143 532 146 539 L148 539 C158 539 185 489 246 489 C297 489 344 524 344 578 C344 599 323 611 304 611 C254 611 258 565 253 561 L253 561 Z " />
<glyph glyph-name="odieresis" unicode="&#xf6;" horiz-adv-x="400" d="M197 364 C250 364 282 323 282 272 L282 122 C282 110 280 98 276 87 C264 52 242 36 205 36 C148 36 120 80 120 133 L120 278 C120 299 99 311 80 311 C59 311 32 296 32 272 L32 122 C32 70 59 14 105 -12 C133 -29 165 -36 197 -36 C297 -36 370 32 370 133 L370 278 C370 330 343 386 297 412 C269 429 237 436 205 436 C110 436 32 370 32 272 C32 251 53 239 72 239 C96 239 117 254 120 278 C125 327 141 364 197 364 L197 364 Z M106 597 L106 522 C106 501 127 489 146 489 C167 489 194 504 194 528 L194 603 C194 624 173 636 154 636 C133 636 106 621 106 597 L106 597 Z M231 597 L231 522 C231 501 252 489 271 489 C292 489 319 504 319 528 L319 603 C319 624 298 636 279 636 C258 636 231 621 231 597 L231 597 Z " />
<glyph glyph-name="divide" unicode="&#xf7;" horiz-adv-x="350" d="M71 214 L271 214 C292 214 319 229 319 253 C319 274 298 286 279 286 L79 286 C58 286 31 271 31 247 C31 226 52 214 71 214 L71 214 Z M131 397 L131 322 C131 301 152 289 171 289 C192 289 219 304 219 328 L219 403 C219 424 198 436 179 436 C158 436 131 421 131 397 L131 397 Z M219 103 L219 178 C219 199 198 211 179 211 C158 211 131 196 131 172 L131 97 C131 76 152 64 171 64 C192 64 219 79 219 103 L219 103 Z " />
<glyph glyph-name="oslash" unicode="&#xf8;" horiz-adv-x="400" d="M344 453 C344 474 323 486 304 486 C267 486 258 460 248 431 C234 434 219 436 205 436 C110 436 32 370 32 272 C32 251 53 239 72 239 C96 239 117 254 120 278 C120 299 99 311 80 311 C59 311 32 296 32 272 L32 122 C32 82 49 38 78 9 C71 -8 65 -25 58 -42 C57 -46 56 -49 56 -53 C56 -74 77 -86 96 -86 C131 -86 144 -59 153 -31 C167 -34 182 -36 197 -36 C297 -36 370 32 370 133 L370 278 C370 319 352 363 323 393 C329 409 335 426 342 442 C343 446 344 449 344 453 L344 453 Z M197 364 C205 364 213 363 220 362 L206 326 C178 256 149 186 121 117 C120 122 120 128 120 133 L120 278 C125 327 141 364 197 364 L197 364 Z M282 272 L282 122 C282 75 257 36 205 36 C196 36 188 37 180 39 L194 74 C223 146 252 217 281 288 C282 283 282 277 282 272 L282 272 Z " />
<glyph glyph-name="ugrave" unicode="&#xf9;" horiz-adv-x="400" d="M281 36 L205 36 C147 36 119 80 119 133 L119 403 C119 424 98 436 79 436 C58 436 31 421 31 397 L31 122 C31 70 58 14 104 -12 C132 -29 164 -36 196 -36 L321 -36 C342 -36 369 -21 369 3 L369 403 C369 424 348 436 329 436 C311 436 292 426 284 409 C277 394 281 301 281 279 L281 36 Z M195 489 C216 489 243 504 243 528 C243 534 241 539 238 544 C234 550 158 626 152 629 C145 634 137 636 128 636 C107 636 80 621 80 597 C80 591 82 586 85 581 C89 575 165 499 171 496 C178 491 186 489 195 489 L195 489 Z " />
<glyph glyph-name="uacute" unicode="&#xfa;" horiz-adv-x="400" d="M282 36 L206 36 C148 36 120 80 120 133 L120 403 C120 424 99 436 80 436 C59 436 32 421 32 397 L32 122 C32 70 59 14 105 -12 C133 -29 165 -36 197 -36 L322 -36 C343 -36 370 -21 370 3 L370 403 C370 424 349 436 330 436 C312 436 293 426 285 409 C278 394 282 301 282 279 L282 36 Z M156 522 C156 501 177 489 196 489 C206 489 215 492 223 497 C231 501 307 577 313 585 C316 590 319 596 319 603 C319 624 298 636 279 636 C269 636 260 633 252 628 C244 624 168 548 162 540 C159 535 156 529 156 522 L156 522 Z " />
<glyph glyph-name="ucircumflex" unicode="&#xfb;" horiz-adv-x="450" d="M306 36 L230 36 C172 36 144 80 144 133 L144 403 C144 424 123 436 104 436 C83 436 56 421 56 397 L56 122 C56 70 83 14 129 -12 C157 -29 189 -36 221 -36 L346 -36 C367 -36 394 -21 394 3 L394 403 C394 424 373 436 354 436 C336 436 317 426 309 409 C302 394 306 301 306 279 L306 36 Z M221 544 L249 516 C264 501 272 489 295 489 C316 489 343 504 343 528 C343 534 341 539 338 544 C334 550 258 626 252 629 C245 634 237 636 228 636 C218 636 209 633 201 628 C193 624 117 548 111 540 C108 535 105 529 105 522 C105 501 126 489 145 489 C177 489 201 523 221 544 L221 544 Z " />
<glyph glyph-name="udieresis" unicode="&#xfc;" horiz-adv-x="450" d="M306 36 L230 36 C172 36 144 80 144 133 L144 403 C144 424 123 436 104 436 C83 436 56 421 56 397 L56 122 C56 70 83 14 129 -12 C157 -29 189 -36 221 -36 L346 -36 C367 -36 394 -21 394 3 L394 403 C394 424 373 436 354 436 C336 436 317 426 309 409 C302 394 306 301 306 279 L306 36 Z M130 597 L130 522 C130 501 151 489 170 489 C191 489 218 504 218 528 L218 603 C218 624 197 636 178 636 C157 636 130 621 130 597 L130 597 Z M255 597 L255 522 C255 501 276 489 295 489 C316 489 343 504 343 528 L343 603 C343 624 322 636 303 636 C282 636 255 621 255 597 L255 597 Z " />
<glyph glyph-name="yacute" unicode="&#xfd;" horiz-adv-x="400" d="M79 436 C58 436 31 421 31 397 C31 386 158 -15 160 -18 C171 -30 179 -36 196 -36 C217 -36 244 -21 244 3 C244 14 117 415 115 418 C104 430 96 436 79 436 L79 436 Z M369 403 C369 424 348 436 329 436 C312 436 296 428 286 414 C279 403 260 330 255 312 L171 32 L143 -60 C138 -76 134 -92 129 -107 C123 -123 108 -153 92 -161 C82 -166 76 -164 66 -166 C49 -170 31 -185 31 -203 C31 -224 52 -236 71 -236 C149 -236 197 -174 217 -105 C254 16 290 138 327 259 C334 282 369 390 369 403 L369 403 Z M156 522 C156 501 177 489 196 489 C206 489 215 492 223 497 C231 501 307 577 313 585 C316 590 319 596 319 603 C319 624 298 636 279 636 C269 636 260 633 252 628 C244 624 168 548 162 540 C159 535 156 529 156 522 L156 522 Z " />
<glyph glyph-name="thorn" unicode="&#xfe;" horiz-adv-x="450" d="M196 64 L246 64 C354 64 444 140 444 253 C444 316 410 383 353 413 C323 429 288 436 254 436 L119 436 L119 603 C119 624 98 636 79 636 C58 636 31 621 31 597 L31 -203 C31 -224 52 -236 71 -236 C90 -236 109 -226 117 -208 C121 -197 119 -152 119 -138 L119 364 L246 364 C298 364 331 340 348 290 C353 277 356 262 356 247 C356 229 350 205 342 188 C314 130 274 136 219 136 C194 136 156 129 156 97 C156 76 177 64 196 64 L196 64 Z " />
<glyph glyph-name="ydieresis" unicode="&#xff;" horiz-adv-x="400" d="M79 436 C58 436 31 421 31 397 C31 386 158 -15 160 -18 C171 -30 179 -36 196 -36 C217 -36 244 -21 244 3 C244 14 117 415 115 418 C104 430 96 436 79 436 L79 436 Z M369 403 C369 424 348 436 329 436 C312 436 296 428 286 414 C279 403 260 330 255 312 L171 32 L143 -60 C138 -76 134 -92 129 -107 C123 -123 108 -153 92 -161 C82 -166 76 -164 66 -166 C49 -170 31 -185 31 -203 C31 -224 52 -236 71 -236 C149 -236 197 -174 217 -105 C254 16 290 138 327 259 C334 282 369 390 369 403 L369 403 Z M106 597 L106 522 C106 501 127 489 146 489 C167 489 194 504 194 528 L194 603 C194 624 173 636 154 636 C133 636 106 621 106 597 L106 597 Z M231 597 L231 522 C231 501 252 489 271 489 C292 489 319 504 319 528 L319 603 C319 624 298 636 279 636 C258 636 231 621 231 597 L231 597 Z " />
<glyph glyph-name="Amacron" unicode="&#x100;" horiz-adv-x="500" d="M254 636 C235 636 221 628 211 612 C208 609 31 7 31 -3 C31 -24 52 -36 71 -36 C89 -36 103 -28 114 -14 C117 -9 128 29 138 63 L360 63 C374 16 384 -17 386 -19 C397 -31 405 -36 421 -36 C442 -36 469 -21 469 3 C469 22 320 516 307 561 C304 573 296 608 290 616 C282 630 270 636 254 636 L254 636 Z M171 689 L321 689 C342 689 369 704 369 728 C369 749 348 761 329 761 L179 761 C158 761 131 746 131 722 C131 701 152 689 171 689 L171 689 Z M158 136 L249 445 L249 446 C258 416 303 259 339 136 L158 136 Z " />
<glyph glyph-name="amacron" unicode="&#x101;" horiz-adv-x="375" d="M297 -36 C318 -36 345 -21 345 3 L345 278 C345 330 318 386 272 412 C244 429 212 436 180 436 L130 436 C109 436 82 421 82 397 C82 356 141 365 167 365 C202 365 227 355 244 323 C252 309 257 288 257 272 C257 190 257 108 257 26 C257 -5 256 -36 297 -36 L297 -36 Z M95 103 C95 113 98 125 102 135 C112 160 130 165 155 165 C197 165 240 164 283 164 C308 164 345 171 345 203 C345 224 324 236 305 236 L155 236 C75 236 7 181 7 97 C7 16 68 -36 147 -36 L197 -36 C218 -36 245 -21 245 3 C245 42 188 37 162 37 C152 37 140 36 131 40 C108 49 95 80 95 103 L95 103 Z M96 514 L246 514 C267 514 294 529 294 553 C294 574 273 586 254 586 L104 586 C83 586 56 571 56 547 C56 526 77 514 96 514 L96 514 Z " />
<glyph glyph-name="Abreve" unicode="&#x102;" horiz-adv-x="500" d="M254 636 C235 636 221 628 211 612 C208 609 31 7 31 -3 C31 -24 52 -36 71 -36 C89 -36 103 -28 114 -14 C120 -5 148 99 153 118 L249 445 L249 446 C264 395 380 -12 386 -19 C397 -31 405 -36 421 -36 C442 -36 469 -21 469 3 C469 22 320 516 307 561 C304 573 296 608 290 616 C282 630 270 636 254 636 L254 636 Z M61 97 C61 60 111 63 136 63 L391 63 C412 63 439 78 439 102 C439 139 389 136 364 136 L109 136 C88 136 61 121 61 97 L61 97 Z M131 772 C131 708 178 664 241 664 C307 664 369 708 369 778 C369 799 348 811 329 811 C320 811 310 808 302 804 C266 783 295 736 249 736 C202 736 242 811 179 811 C158 811 131 796 131 772 L131 772 Z " />
<glyph glyph-name="abreve" unicode="&#x103;" horiz-adv-x="375" d="M297 -36 C318 -36 345 -21 345 3 L345 278 C345 330 318 386 272 412 C244 429 212 436 180 436 L130 436 C109 436 82 421 82 397 C82 356 141 365 167 365 C202 365 227 355 244 323 C252 309 257 288 257 272 C257 190 257 108 257 26 C257 -5 256 -36 297 -36 L297 -36 Z M95 103 C95 113 98 125 102 135 C112 160 130 165 155 165 C197 165 240 164 283 164 C308 164 345 171 345 203 C345 224 324 236 305 236 L155 236 C75 236 7 181 7 97 C7 16 68 -36 147 -36 L197 -36 C218 -36 245 -21 245 3 C245 42 188 37 162 37 C152 37 140 36 131 40 C108 49 95 80 95 103 L95 103 Z M56 597 C56 533 103 489 166 489 C232 489 294 533 294 603 C294 624 273 636 254 636 C245 636 235 633 227 629 C191 608 220 561 174 561 C127 561 167 636 104 636 C83 636 56 621 56 597 L56 597 Z " />
<glyph glyph-name="Aogonek" unicode="&#x104;" horiz-adv-x="500" d="M254 636 C235 636 221 628 211 612 C208 609 31 7 31 -3 C31 -24 52 -36 71 -36 C89 -36 103 -28 114 -14 C120 -5 148 99 153 118 L249 445 L249 446 C264 395 380 -12 386 -19 C397 -31 405 -36 421 -36 C442 -36 469 -21 469 3 C469 22 320 516 307 561 C304 573 296 608 290 616 C282 630 270 636 254 636 L254 636 Z M61 97 C61 60 111 63 136 63 L391 63 C412 63 439 78 439 102 C439 139 389 136 364 136 L109 136 C88 136 61 121 61 97 L61 97 Z M331 -53 L331 -103 C331 -154 372 -186 421 -186 C472 -186 519 -151 519 -97 C519 -76 498 -64 479 -64 C429 -64 433 -110 428 -114 C416 -112 418 -81 418 -71 C418 -63 418 -42 422 -35 L425 -35 C445 -35 469 -18 469 3 C469 24 448 36 429 36 C378 36 331 1 331 -53 L331 -53 Z " />
<glyph glyph-name="aogonek" unicode="&#x105;" horiz-adv-x="400" d="M321 -36 C342 -36 369 -21 369 3 L369 278 C369 330 342 386 296 412 C268 429 236 436 204 436 L154 436 C133 436 106 421 106 397 C106 356 165 365 191 365 C226 365 251 355 268 323 C276 309 281 288 281 272 C281 190 281 108 281 26 C281 -5 280 -36 321 -36 L321 -36 Z M119 103 C119 113 122 125 126 135 C136 160 154 165 179 165 C221 165 264 164 307 164 C332 164 369 171 369 203 C369 224 348 236 329 236 L179 236 C99 236 31 181 31 97 C31 16 92 -36 171 -36 L221 -36 C242 -36 269 -21 269 3 C269 42 212 37 186 37 C176 37 164 36 155 40 C132 49 119 80 119 103 L119 103 Z M130 -53 L130 -103 C130 -154 171 -186 220 -186 C271 -186 318 -151 318 -97 C318 -76 297 -64 278 -64 C228 -64 232 -110 227 -114 C215 -112 217 -81 217 -71 C217 -63 217 -42 221 -35 L224 -35 C244 -35 268 -18 268 3 C268 24 247 36 228 36 C177 36 130 1 130 -53 L130 -53 Z " />
<glyph glyph-name="Cacute" unicode="&#x106;" horiz-adv-x="550" d="M279 636 C250 636 221 631 194 622 C110 594 56 509 56 422 L56 172 C56 106 90 32 147 -3 C185 -26 227 -36 271 -36 C357 -36 436 3 472 84 C476 93 481 106 481 116 C481 137 460 148 442 148 C423 148 404 139 397 122 C393 115 392 107 388 100 C368 54 327 36 279 36 C192 36 144 101 144 183 L144 428 C144 445 147 462 153 478 C171 536 210 564 271 564 C313 564 356 551 377 512 C380 507 382 502 385 497 C392 483 406 477 421 477 C442 477 469 492 469 516 C469 519 468 521 468 524 C443 602 355 636 279 636 L279 636 Z M231 697 C231 676 252 664 271 664 C281 664 290 667 298 672 C306 676 382 752 388 760 C391 765 394 771 394 778 C394 799 373 811 354 811 C344 811 335 808 327 803 C319 799 243 723 237 715 C234 710 231 704 231 697 L231 697 Z " />
<glyph glyph-name="cacute" unicode="&#x107;" horiz-adv-x="400" d="M204 36 C150 36 119 78 119 129 L119 253 C119 308 127 364 196 364 C264 364 250 314 296 314 C317 314 344 329 344 353 C344 379 302 410 281 420 C257 430 230 436 204 436 C104 436 31 368 31 267 L31 122 C31 70 58 14 104 -12 C132 -29 164 -36 196 -36 C216 -36 236 -33 255 -27 C284 -18 344 19 344 53 C344 74 323 86 304 86 C253 86 269 36 204 36 L204 36 Z M155 522 C155 501 176 489 195 489 C205 489 214 492 222 497 C230 501 306 577 312 585 C315 590 318 596 318 603 C318 624 297 636 278 636 C268 636 259 633 251 628 C243 624 167 548 161 540 C158 535 155 529 155 522 L155 522 Z " />
<glyph glyph-name="Ccircumflex" unicode="&#x108;" horiz-adv-x="550" d="M279 636 C250 636 221 631 194 622 C110 594 56 509 56 422 L56 172 C56 106 90 32 147 -3 C185 -26 227 -36 271 -36 C357 -36 436 3 472 84 C476 93 481 106 481 116 C481 137 460 148 442 148 C423 148 404 139 397 122 C393 115 392 107 388 100 C368 54 327 36 279 36 C192 36 144 101 144 183 L144 428 C144 445 147 462 153 478 C171 536 210 564 271 564 C313 564 356 551 377 512 C380 507 382 502 385 497 C392 483 406 477 421 477 C442 477 469 492 469 516 C469 519 468 521 468 524 C443 602 355 636 279 636 L279 636 Z M272 719 L300 691 C315 676 323 664 346 664 C367 664 394 679 394 703 C394 709 392 714 389 719 C385 725 309 801 303 804 C296 809 288 811 279 811 C269 811 260 808 252 803 C244 799 168 723 162 715 C159 710 156 704 156 697 C156 676 177 664 196 664 C228 664 252 698 272 719 L272 719 Z " />
<glyph glyph-name="ccircumflex" unicode="&#x109;" horiz-adv-x="400" d="M204 36 C150 36 119 78 119 129 L119 253 C119 308 127 364 196 364 C264 364 250 314 296 314 C317 314 344 329 344 353 C344 379 302 410 281 420 C257 430 230 436 204 436 C104 436 31 368 31 267 L31 122 C31 70 58 14 104 -12 C132 -29 164 -36 196 -36 C216 -36 236 -33 255 -27 C284 -18 344 19 344 53 C344 74 323 86 304 86 C253 86 269 36 204 36 L204 36 Z M196 544 L224 516 C239 501 247 489 270 489 C291 489 318 504 318 528 C318 534 316 539 313 544 C309 550 233 626 227 629 C220 634 212 636 203 636 C193 636 184 633 176 628 C168 624 92 548 86 540 C83 535 80 529 80 522 C80 501 101 489 120 489 C152 489 176 523 196 544 L196 544 Z " />
<glyph glyph-name="Cdotaccent" unicode="&#x10a;" horiz-adv-x="500" d="M254 636 C131 636 31 551 31 422 L31 172 C31 106 65 32 122 -3 C160 -26 202 -36 246 -36 C332 -36 411 3 447 84 C451 93 456 106 456 116 C456 137 435 148 417 148 C398 148 379 139 372 122 C368 115 367 107 363 100 C343 54 302 36 254 36 C167 36 119 101 119 183 L119 428 C119 445 122 462 128 478 C146 536 185 564 246 564 C288 564 331 551 352 512 C355 507 357 502 360 497 C367 483 381 477 396 477 C417 477 444 492 444 516 C444 519 443 521 443 524 C418 602 330 636 254 636 L254 636 Z M206 772 L206 697 C206 676 227 664 246 664 C267 664 294 679 294 703 L294 778 C294 799 273 811 254 811 C233 811 206 796 206 772 L206 772 Z " />
<glyph glyph-name="cdotaccent" unicode="&#x10b;" horiz-adv-x="400" d="M205 36 C151 36 120 78 120 129 L120 253 C120 308 128 364 197 364 C265 364 251 314 297 314 C318 314 345 329 345 353 C345 379 303 410 282 420 C258 430 231 436 205 436 C105 436 32 368 32 267 L32 122 C32 70 59 14 105 -12 C133 -29 165 -36 197 -36 C217 -36 237 -33 256 -27 C285 -18 345 19 345 53 C345 74 324 86 305 86 C254 86 270 36 205 36 L205 36 Z M156 597 L156 522 C156 501 177 489 196 489 C217 489 244 504 244 528 L244 603 C244 624 223 636 204 636 C183 636 156 621 156 597 L156 597 Z " />
<glyph glyph-name="Ccaron" unicode="&#x10c;" horiz-adv-x="550" d="M279 636 C250 636 221 631 194 622 C110 594 56 509 56 422 L56 172 C56 106 90 32 147 -3 C185 -26 227 -36 271 -36 C357 -36 436 3 472 84 C476 93 481 106 481 116 C481 137 460 148 442 148 C423 148 404 139 397 122 C393 115 392 107 388 100 C368 54 327 36 279 36 C192 36 144 101 144 183 L144 428 C144 445 147 462 153 478 C171 536 210 564 271 564 C313 564 356 551 377 512 C380 507 382 502 385 497 C392 483 406 477 421 477 C442 477 469 492 469 516 C469 519 468 521 468 524 C443 602 355 636 279 636 L279 636 Z M271 664 C281 664 290 667 298 672 C306 676 382 752 388 760 C391 765 394 771 394 778 C394 799 373 811 354 811 C322 811 298 777 278 756 L250 784 C235 799 227 811 204 811 C183 811 156 796 156 772 C156 766 158 761 161 756 C165 750 241 674 247 671 C254 666 262 664 271 664 L271 664 Z " />
<glyph glyph-name="ccaron" unicode="&#x10d;" horiz-adv-x="400" d="M204 36 C150 36 119 78 119 129 L119 253 C119 308 127 364 196 364 C264 364 250 314 296 314 C317 314 344 329 344 353 C344 379 302 410 281 420 C257 430 230 436 204 436 C104 436 31 368 31 267 L31 122 C31 70 58 14 104 -12 C132 -29 164 -36 196 -36 C216 -36 236 -33 255 -27 C284 -18 344 19 344 53 C344 74 323 86 304 86 C253 86 269 36 204 36 L204 36 Z M195 489 C205 489 214 492 222 497 C230 501 306 577 312 585 C315 590 318 596 318 603 C318 624 297 636 278 636 C246 636 222 602 202 581 L174 609 C159 624 151 636 128 636 C107 636 80 621 80 597 C80 591 82 586 85 581 C89 575 165 499 171 496 C178 491 186 489 195 489 L195 489 Z " />
<glyph glyph-name="Dcaron" unicode="&#x10e;" horiz-adv-x="550" d="M233 -36 C270 -36 307 -33 342 -22 C432 7 494 88 494 183 L494 403 C494 483 449 569 377 607 C340 627 297 636 254 636 L104 636 C83 636 56 621 56 597 L56 -3 C56 -24 77 -36 96 -36 C115 -36 134 -26 142 -8 C146 3 144 48 144 62 L144 564 L246 564 C322 564 372 527 396 455 C402 436 406 416 406 397 L406 172 C406 150 398 122 387 103 C355 43 300 36 239 36 C215 36 181 27 181 -3 C181 -32 211 -36 233 -36 L233 -36 Z M271 664 C281 664 290 667 298 672 C306 676 382 752 388 760 C391 765 394 771 394 778 C394 799 373 811 354 811 C322 811 298 777 278 756 L250 784 C235 799 227 811 204 811 C183 811 156 796 156 772 C156 766 158 761 161 756 C165 750 241 674 247 671 C254 666 262 664 271 664 L271 664 Z " />
<glyph glyph-name="dcaron" unicode="&#x10f;" horiz-adv-x="476" d="M370 4 L370 604 C370 625 349 637 330 637 C309 637 282 622 282 598 L282 436 L229 436 C122 436 31 360 31 247 L31 147 C31 84 65 17 122 -13 C152 -29 187 -36 221 -36 C242 -36 269 -21 269 3 C269 24 249 34 231 36 C177 39 145 55 127 108 C122 125 119 141 119 158 L119 253 C119 271 124 292 132 309 C153 358 187 364 237 364 L282 364 L282 -2 C282 -23 303 -35 322 -35 C343 -35 370 -20 370 4 L370 4 Z M569 603 C569 624 548 636 529 636 L479 636 C458 636 431 621 431 597 C431 575 453 564 472 564 C465 534 431 418 431 397 C431 376 452 364 471 364 C487 364 502 371 512 384 C514 387 516 390 517 394 C523 411 569 593 569 603 L569 603 Z " />
<glyph glyph-name="Dcroat" unicode="&#x110;" horiz-adv-x="575" d="M71 314 L81 314 L81 -3 C81 -24 102 -36 121 -36 C140 -36 159 -26 167 -8 C171 3 169 48 169 62 L169 314 L271 314 C292 314 319 329 319 353 C319 374 298 386 279 386 L169 386 L169 564 L271 564 C347 564 397 527 421 455 C427 436 431 416 431 397 L431 172 C431 150 423 122 412 103 C380 43 325 36 264 36 C240 36 206 27 206 -3 C206 -32 236 -36 258 -36 C295 -36 332 -33 367 -22 C457 7 519 88 519 183 L519 403 C519 483 474 569 402 607 C365 627 322 636 279 636 L129 636 C108 636 81 621 81 597 L81 386 L79 386 C58 386 31 371 31 347 C31 326 52 314 71 314 L71 314 Z " />
<glyph glyph-name="dcroat" unicode="&#x111;" horiz-adv-x="400" d="M220 514 L281 514 L281 436 L228 436 C121 436 30 360 30 247 L30 147 C30 84 64 17 121 -13 C151 -29 186 -36 220 -36 C241 -36 268 -21 268 3 C268 24 248 34 230 36 C176 39 144 55 126 108 C121 125 118 141 118 158 L118 253 C118 271 123 292 131 309 C152 358 186 364 236 364 L281 364 L281 -2 C281 -23 302 -35 321 -35 C342 -35 369 -20 369 4 L369 514 L370 514 C391 514 418 529 418 553 C418 574 397 586 378 586 L369 586 L369 604 C369 625 348 637 329 637 C308 637 281 622 281 598 L281 586 L228 586 C207 586 180 571 180 547 C180 526 201 514 220 514 L220 514 Z " />
<glyph glyph-name="Emacron" unicode="&#x112;" horiz-adv-x="450" d="M379 636 L79 636 C58 636 31 621 31 597 L31 47 C31 -4 72 -36 121 -36 L371 -36 C392 -36 419 -21 419 3 C419 18 408 28 395 33 C386 37 332 36 320 36 C269 36 217 35 166 35 C162 35 129 35 127 36 C121 38 119 49 119 54 L119 314 L246 314 C267 314 294 329 294 353 C294 374 273 386 254 386 L119 386 L119 564 C168 564 217 564 266 564 C282 564 377 563 388 567 C403 573 419 585 419 603 C419 624 398 636 379 636 L379 636 Z M146 689 L296 689 C317 689 344 704 344 728 C344 749 323 761 304 761 L154 761 C133 761 106 746 106 722 C106 701 127 689 146 689 L146 689 Z " />
<glyph glyph-name="emacron" unicode="&#x113;" horiz-adv-x="400" d="M118 164 L327 164 C355 164 367 181 367 208 C367 229 369 251 369 272 C369 341 321 409 254 428 C235 433 215 436 196 436 C102 436 31 375 31 278 L31 133 C31 32 104 -36 204 -36 L254 -36 C273 -36 294 -24 294 -3 C294 28 259 36 234 36 C223 36 212 35 201 35 C120 35 118 102 118 164 L118 164 Z M119 272 C119 324 150 364 204 364 C243 364 264 345 275 309 C279 299 281 289 281 278 C281 264 281 250 280 236 L119 236 C119 248 119 260 119 272 L119 272 Z M271 514 C292 514 319 529 319 553 C319 574 298 586 279 586 L129 586 C108 586 81 571 81 547 C81 526 102 514 121 514 L271 514 Z " />
<glyph glyph-name="Ebreve" unicode="&#x114;" horiz-adv-x="500" d="M404 636 L104 636 C83 636 56 621 56 597 L56 47 C56 -4 97 -36 146 -36 L396 -36 C417 -36 444 -21 444 3 C444 18 433 28 420 33 C411 37 357 36 345 36 C294 36 242 35 191 35 C187 35 154 35 152 36 C146 38 144 49 144 54 L144 564 C193 564 242 564 291 564 C307 564 402 563 413 567 C428 573 444 585 444 603 C444 624 423 636 404 636 L404 636 Z M96 314 L271 314 C292 314 319 329 319 353 C319 374 298 386 279 386 L104 386 C83 386 56 371 56 347 C56 326 77 314 96 314 L96 314 Z M131 772 C131 708 178 664 241 664 C307 664 369 708 369 778 C369 799 348 811 329 811 C320 811 310 808 302 804 C266 783 295 736 249 736 C202 736 242 811 179 811 C158 811 131 796 131 772 L131 772 Z " />
<glyph glyph-name="ebreve" unicode="&#x115;" horiz-adv-x="400" d="M104 236 C79 236 33 240 33 203 C33 179 60 164 81 164 L327 164 C355 164 367 181 367 208 C367 229 369 251 369 272 C369 341 321 409 254 428 C235 433 215 436 196 436 C102 436 31 375 31 278 L31 133 C31 32 104 -36 204 -36 L254 -36 C273 -36 294 -24 294 -3 C294 28 259 36 234 36 C223 36 212 35 201 35 C132 35 118 85 118 144 C118 187 119 229 119 272 C119 324 150 364 204 364 C243 364 264 345 275 309 C279 299 281 289 281 278 C281 264 281 250 280 236 L104 236 Z M81 597 C81 533 128 489 191 489 C257 489 319 533 319 603 C319 624 298 636 279 636 C270 636 260 633 252 629 C216 608 245 561 199 561 C152 561 192 636 129 636 C108 636 81 621 81 597 L81 597 Z " />
<glyph glyph-name="Edotaccent" unicode="&#x116;" horiz-adv-x="450" d="M379 636 L79 636 C58 636 31 621 31 597 L31 47 C31 -4 72 -36 121 -36 L371 -36 C392 -36 419 -21 419 3 C419 18 408 28 395 33 C386 37 332 36 320 36 C269 36 217 35 166 35 C162 35 129 35 127 36 C121 38 119 49 119 54 L119 314 L246 314 C267 314 294 329 294 353 C294 374 273 386 254 386 L119 386 L119 564 C168 564 217 564 266 564 C282 564 377 563 388 567 C403 573 419 585 419 603 C419 624 398 636 379 636 L379 636 Z M181 772 L181 697 C181 676 202 664 221 664 C242 664 269 679 269 703 L269 778 C269 799 248 811 229 811 C208 811 181 796 181 772 L181 772 Z " />
<glyph glyph-name="edotaccent" unicode="&#x117;" horiz-adv-x="400" d="M118 164 L327 164 C355 164 367 181 367 208 C367 229 369 251 369 272 C369 341 321 409 254 428 C235 433 215 436 196 436 C102 436 31 375 31 278 L31 133 C31 32 104 -36 204 -36 L254 -36 C273 -36 294 -24 294 -3 C294 28 259 36 234 36 C223 36 212 35 201 35 C120 35 118 102 118 164 L118 164 Z M119 272 C119 324 150 364 204 364 C243 364 264 345 275 309 C279 299 281 289 281 278 C281 264 281 250 280 236 L119 236 C119 248 119 260 119 272 L119 272 Z M156 522 C156 501 177 489 196 489 C217 489 244 504 244 528 L244 603 C244 624 223 636 204 636 C183 636 156 621 156 597 L156 522 Z " />
<glyph glyph-name="Eogonek" unicode="&#x118;" horiz-adv-x="450" d="M379 636 L79 636 C58 636 31 621 31 597 L31 47 C31 -4 72 -36 121 -36 L371 -36 C392 -36 419 -21 419 3 C419 18 408 28 395 33 C386 37 332 36 320 36 C269 36 217 35 166 35 C162 35 129 35 127 36 C121 38 119 49 119 54 L119 564 C168 564 217 564 266 564 C282 564 377 563 388 567 C403 573 419 585 419 603 C419 624 398 636 379 636 L379 636 Z M71 314 L246 314 C267 314 294 329 294 353 C294 374 273 386 254 386 L79 386 C58 386 31 371 31 347 C31 326 52 314 71 314 L71 314 Z M219 -53 L219 -103 C219 -154 260 -186 309 -186 C360 -186 407 -151 407 -97 C407 -76 386 -64 367 -64 C317 -64 321 -110 316 -114 C304 -112 306 -81 306 -71 C306 -63 306 -42 310 -35 L313 -35 C333 -35 357 -18 357 3 C357 24 336 36 317 36 C266 36 219 1 219 -53 L219 -53 Z " />
<glyph glyph-name="eogonek" unicode="&#x119;" horiz-adv-x="400" d="M104 236 C79 236 33 240 33 203 C33 179 60 164 81 164 L327 164 C355 164 367 181 367 208 C367 229 369 251 369 272 C369 341 321 409 254 428 C235 433 215 436 196 436 C102 436 31 375 31 278 L31 133 C31 32 104 -36 204 -36 L254 -36 C273 -36 294 -24 294 -3 C294 28 259 36 234 36 C223 36 212 35 201 35 C132 35 118 85 118 144 C118 187 119 229 119 272 C119 324 150 364 204 364 C243 364 264 345 275 309 C279 299 281 289 281 278 C281 264 281 250 280 236 L104 236 Z M156 -103 C156 -154 197 -186 246 -186 C297 -186 344 -151 344 -97 C344 -76 323 -64 304 -64 C254 -64 258 -110 253 -114 C241 -112 243 -81 243 -71 C243 -63 243 -42 247 -35 L250 -35 C270 -35 294 -18 294 3 C294 24 273 36 254 36 C203 36 156 1 156 -53 L156 -103 Z " />
<glyph glyph-name="Ecaron" unicode="&#x11a;" horiz-adv-x="500" d="M404 636 L104 636 C83 636 56 621 56 597 L56 47 C56 -4 97 -36 146 -36 L396 -36 C417 -36 444 -21 444 3 C444 18 433 28 420 33 C411 37 357 36 345 36 C294 36 242 35 191 35 C187 35 154 35 152 36 C146 38 144 49 144 54 L144 564 C193 564 242 564 291 564 C307 564 402 563 413 567 C428 573 444 585 444 603 C444 624 423 636 404 636 L404 636 Z M96 314 L271 314 C292 314 319 329 319 353 C319 374 298 386 279 386 L104 386 C83 386 56 371 56 347 C56 326 77 314 96 314 L96 314 Z M246 664 C256 664 265 667 273 672 C281 676 357 752 363 760 C366 765 369 771 369 778 C369 799 348 811 329 811 C297 811 273 777 253 756 L225 784 C210 799 202 811 179 811 C158 811 131 796 131 772 C131 766 133 761 136 756 C140 750 216 674 222 671 C229 666 237 664 246 664 L246 664 Z " />
<glyph glyph-name="ecaron" unicode="&#x11b;" horiz-adv-x="400" d="M104 236 C79 236 33 240 33 203 C33 179 60 164 81 164 L327 164 C355 164 367 181 367 208 C367 229 369 251 369 272 C369 341 321 409 254 428 C235 433 215 436 196 436 C102 436 31 375 31 278 L31 133 C31 32 104 -36 204 -36 L254 -36 C273 -36 294 -24 294 -3 C294 28 259 36 234 36 C223 36 212 35 201 35 C132 35 118 85 118 144 C118 187 119 229 119 272 C119 324 150 364 204 364 C243 364 264 345 275 309 C279 299 281 289 281 278 C281 264 281 250 280 236 L104 236 Z M196 489 C206 489 215 492 223 497 C231 501 307 577 313 585 C316 590 319 596 319 603 C319 624 298 636 279 636 C247 636 223 602 203 581 L175 609 C160 624 152 636 129 636 C108 636 81 621 81 597 C81 591 83 586 86 581 C90 575 166 499 172 496 C179 491 187 489 196 489 L196 489 Z " />
<glyph glyph-name="Gcircumflex" unicode="&#x11c;" horiz-adv-x="550" d="M406 314 L406 172 C406 155 402 137 397 120 C378 62 340 35 279 35 C214 35 173 66 153 126 C148 143 144 161 144 178 L144 428 C144 475 167 532 212 553 C251 571 349 564 395 564 C417 564 444 579 444 603 C444 634 411 636 388 636 L311 636 C275 636 238 635 202 625 C113 600 56 513 56 422 L56 172 C56 103 93 25 156 -9 C191 -28 230 -37 271 -37 C401 -37 494 52 494 183 L494 353 C494 374 473 386 454 386 L279 386 C258 386 231 371 231 347 C231 305 297 314 324 314 L406 314 Z M272 719 L300 691 C315 676 323 664 346 664 C367 664 394 679 394 703 C394 709 392 714 389 719 C385 725 309 801 303 804 C296 809 288 811 279 811 C269 811 260 808 252 803 C244 799 168 723 162 715 C159 710 156 704 156 697 C156 676 177 664 196 664 C228 664 252 698 272 719 L272 719 Z " />
<glyph glyph-name="gcircumflex" unicode="&#x11d;" horiz-adv-x="475" d="M238 161 L167 161 C109 161 56 120 56 60 C56 2 103 -36 159 -36 L230 -36 C251 -36 278 -21 278 3 C278 34 244 36 221 36 C206 36 191 35 177 35 C156 35 144 44 144 66 C144 71 148 86 152 88 C156 90 164 89 168 89 L222 89 C246 89 278 99 278 128 C278 149 257 161 238 161 L238 161 Z M69 -103 C69 -184 130 -236 209 -236 L261 -236 C341 -236 407 -179 407 -97 C407 -58 386 -11 352 11 C326 28 297 36 266 36 L216 36 C195 36 168 21 168 -3 C168 -30 196 -36 217 -36 C228 -36 240 -35 251 -35 C276 -35 295 -41 308 -64 C314 -74 319 -91 319 -103 C319 -135 302 -164 268 -164 L218 -164 C179 -164 157 -134 157 -97 C157 -78 167 -49 184 -40 C193 -36 202 -36 211 -36 C232 -34 257 -21 257 3 C257 24 236 36 217 36 C137 36 69 -19 69 -103 L69 -103 Z M454 436 L238 436 C217 436 190 421 190 397 C190 376 211 364 230 364 L446 364 C467 364 494 379 494 403 C494 424 473 436 454 436 L454 436 Z M315 259 C315 208 298 161 238 161 C184 161 153 203 153 254 C153 294 156 344 202 360 C212 363 221 363 232 364 C253 366 278 379 278 403 C278 424 257 436 238 436 C143 436 65 370 65 272 L65 253 C65 154 131 89 230 89 C325 89 403 155 403 253 L403 272 C403 371 337 436 238 436 C217 436 190 421 190 397 C190 376 210 366 228 364 C238 363 247 363 257 360 C303 346 315 303 315 259 L315 259 Z M235 544 L263 516 C278 501 286 489 309 489 C330 489 357 504 357 528 C357 534 355 539 352 544 C348 550 272 626 266 629 C259 634 251 636 242 636 C232 636 223 633 215 628 C207 624 131 548 125 540 C122 535 119 529 119 522 C119 501 140 489 159 489 C191 489 215 523 235 544 L235 544 Z " />
<glyph glyph-name="Gbreve" unicode="&#x11e;" horiz-adv-x="550" d="M406 314 L406 172 C406 155 402 137 397 120 C378 62 340 35 279 35 C214 35 173 66 153 126 C148 143 144 161 144 178 L144 428 C144 475 167 532 212 553 C251 571 349 564 395 564 C417 564 444 579 444 603 C444 634 411 636 388 636 L311 636 C275 636 238 635 202 625 C113 600 56 513 56 422 L56 172 C56 103 93 25 156 -9 C191 -28 230 -37 271 -37 C401 -37 494 52 494 183 L494 353 C494 374 473 386 454 386 L279 386 C258 386 231 371 231 347 C231 305 297 314 324 314 L406 314 Z M156 772 C156 708 203 664 266 664 C332 664 394 708 394 778 C394 799 373 811 354 811 C345 811 335 808 327 804 C291 783 320 736 274 736 C227 736 267 811 204 811 C183 811 156 796 156 772 L156 772 Z " />
<glyph glyph-name="gbreve" unicode="&#x11f;" horiz-adv-x="475" d="M238 161 L167 161 C109 161 56 120 56 60 C56 2 103 -36 159 -36 L230 -36 C251 -36 278 -21 278 3 C278 34 244 36 221 36 C206 36 191 35 177 35 C156 35 144 44 144 66 C144 71 148 86 152 88 C156 90 164 89 168 89 L222 89 C246 89 278 99 278 128 C278 149 257 161 238 161 L238 161 Z M69 -103 C69 -184 130 -236 209 -236 L261 -236 C341 -236 407 -179 407 -97 C407 -58 386 -11 352 11 C326 28 297 36 266 36 L216 36 C195 36 168 21 168 -3 C168 -30 196 -36 217 -36 C228 -36 240 -35 251 -35 C276 -35 295 -41 308 -64 C314 -74 319 -91 319 -103 C319 -135 302 -164 268 -164 L218 -164 C179 -164 157 -134 157 -97 C157 -78 167 -49 184 -40 C193 -36 202 -36 211 -36 C232 -34 257 -21 257 3 C257 24 236 36 217 36 C137 36 69 -19 69 -103 L69 -103 Z M454 436 L238 436 C217 436 190 421 190 397 C190 376 211 364 230 364 L446 364 C467 364 494 379 494 403 C494 424 473 436 454 436 L454 436 Z M315 259 C315 208 298 161 238 161 C184 161 153 203 153 254 C153 294 156 344 202 360 C212 363 221 363 232 364 C253 366 278 379 278 403 C278 424 257 436 238 436 C143 436 65 370 65 272 L65 253 C65 154 131 89 230 89 C325 89 403 155 403 253 L403 272 C403 371 337 436 238 436 C217 436 190 421 190 397 C190 376 210 366 228 364 C238 363 247 363 257 360 C303 346 315 303 315 259 L315 259 Z M119 597 C119 533 166 489 229 489 C295 489 357 533 357 603 C357 624 336 636 317 636 C308 636 298 633 290 629 C254 608 283 561 237 561 C190 561 230 636 167 636 C146 636 119 621 119 597 L119 597 Z " />
<glyph glyph-name="Gdotaccent" unicode="&#x120;" horiz-adv-x="500" d="M381 314 L381 172 C381 155 377 137 372 120 C353 62 315 35 254 35 C189 35 148 66 128 126 C123 143 119 161 119 178 L119 428 C119 475 142 532 187 553 C226 571 324 564 370 564 C392 564 419 579 419 603 C419 634 386 636 363 636 L286 636 C250 636 213 635 177 625 C88 600 31 513 31 422 L31 172 C31 103 68 25 131 -9 C166 -28 205 -37 246 -37 C376 -37 469 52 469 183 L469 353 C469 374 448 386 429 386 L254 386 C233 386 206 371 206 347 C206 305 272 314 299 314 L381 314 Z M206 772 L206 697 C206 676 227 664 246 664 C267 664 294 679 294 703 L294 778 C294 799 273 811 254 811 C233 811 206 796 206 772 L206 772 Z " />
<glyph glyph-name="gdotaccent" unicode="&#x121;" horiz-adv-x="413" d="M44 -103 C44 -184 105 -236 184 -236 L236 -236 C316 -236 382 -179 382 -97 C382 -16 318 36 241 36 L212 36 C206 36 201 36 196 36 C181 36 166 35 152 35 C131 35 119 44 119 66 C119 71 123 86 127 88 C131 90 139 89 143 89 L197 89 C199 89 200 89 201 89 C298 89 378 152 378 253 L378 272 C378 308 369 339 353 364 L421 364 C442 364 469 379 469 403 C469 424 448 436 429 436 L213 436 C118 436 40 370 40 272 L40 253 C40 208 54 170 78 142 C50 125 31 96 31 60 C31 25 48 -2 73 -18 C55 -41 44 -69 44 -103 L44 -103 Z M290 259 C290 208 273 161 213 161 C159 161 128 203 128 254 C128 294 131 344 177 360 C186 363 195 363 205 364 C214 363 223 363 232 360 C278 346 290 303 290 259 L290 259 Z M192 -36 C203 -36 215 -35 226 -35 C267 -35 294 -62 294 -103 C294 -135 277 -164 243 -164 L193 -164 C154 -164 132 -134 132 -97 C132 -78 142 -49 159 -40 C167 -37 175 -36 183 -36 C186 -36 189 -36 192 -36 L192 -36 Z M169 597 L169 522 C169 501 190 489 209 489 C230 489 257 504 257 528 L257 603 C257 624 236 636 217 636 C196 636 169 621 169 597 L169 597 Z " />
<glyph glyph-name="uni0122" unicode="&#x122;" horiz-adv-x="500" d="M381 314 L381 172 C381 155 377 137 372 120 C353 62 315 35 254 35 C189 35 148 66 128 126 C123 143 119 161 119 178 L119 428 C119 475 142 532 187 553 C226 571 324 564 370 564 C392 564 419 579 419 603 C419 634 386 636 363 636 L286 636 C250 636 213 635 177 625 C88 600 31 513 31 422 L31 172 C31 103 68 25 131 -9 C166 -28 205 -37 246 -37 C376 -37 469 52 469 183 L469 353 C469 374 448 386 429 386 L254 386 C233 386 206 371 206 347 C206 305 272 314 299 314 L381 314 Z M320 3 C320 24 299 36 280 36 L230 36 C209 36 182 21 182 -3 C182 -25 204 -36 223 -36 C216 -66 182 -182 182 -203 C182 -224 203 -236 222 -236 C238 -236 253 -229 263 -216 C265 -213 267 -210 268 -206 C274 -189 320 -7 320 3 L320 3 Z " />
<glyph glyph-name="uni0123" unicode="&#x123;" horiz-adv-x="413" d="M44 -103 C44 -184 105 -236 184 -236 L236 -236 C316 -236 382 -179 382 -97 C382 -16 318 36 241 36 L212 36 C206 36 201 36 196 36 C181 36 166 35 152 35 C131 35 119 44 119 66 C119 71 123 86 127 88 C131 90 139 89 143 89 L197 89 C199 89 200 89 201 89 C298 89 378 152 378 253 L378 272 C378 308 369 339 353 364 L421 364 C442 364 469 379 469 403 C469 424 448 436 429 436 L213 436 C118 436 40 370 40 272 L40 253 C40 208 54 170 78 142 C50 125 31 96 31 60 C31 25 48 -2 73 -18 C55 -41 44 -69 44 -103 L44 -103 Z M290 259 C290 208 273 161 213 161 C159 161 128 203 128 254 C128 294 131 344 177 360 C186 363 195 363 205 364 C214 363 223 363 232 360 C278 346 290 303 290 259 L290 259 Z M137 622 C137 601 158 589 177 589 L227 589 C248 589 275 604 275 628 C275 652 251 661 230 661 L244 741 C246 753 250 765 250 778 C250 799 229 811 210 811 C192 811 171 801 164 783 C161 773 160 763 159 752 L151 704 C146 678 137 649 137 622 L137 622 Z M192 -36 C203 -36 215 -35 226 -35 C267 -35 294 -62 294 -103 C294 -135 277 -164 243 -164 L193 -164 C154 -164 132 -134 132 -97 C132 -78 142 -49 159 -40 C167 -37 175 -36 183 -36 C186 -36 189 -36 192 -36 L192 -36 Z " />
<glyph glyph-name="Hcircumflex" unicode="&#x124;" horiz-adv-x="550" d="M144 3 L144 603 C144 624 123 636 104 636 C83 636 56 621 56 597 L56 -3 C56 -24 77 -36 96 -36 C117 -36 144 -21 144 3 L144 3 Z M494 3 L494 603 C494 624 473 636 454 636 C433 636 406 621 406 597 L406 -3 C406 -24 427 -36 446 -36 C467 -36 494 -21 494 3 L494 3 Z M454 386 L104 386 C83 386 56 371 56 347 C56 326 77 314 96 314 L446 314 C467 314 494 329 494 353 C494 374 473 386 454 386 L454 386 Z M272 719 L300 691 C315 676 323 664 346 664 C367 664 394 679 394 703 C394 709 392 714 389 719 C385 725 309 801 303 804 C296 809 288 811 279 811 C269 811 260 808 252 803 C244 799 168 723 162 715 C159 710 156 704 156 697 C156 676 177 664 196 664 C228 664 252 698 272 719 L272 719 Z " />
<glyph glyph-name="hcircumflex" unicode="&#x125;" horiz-adv-x="450" d="M144 3 L144 603 C144 624 123 636 104 636 C83 636 56 621 56 597 L56 -3 C56 -24 77 -36 96 -36 C117 -36 144 -21 144 3 L144 3 Z M394 3 L394 278 C394 330 367 386 321 412 C293 429 261 436 229 436 L104 436 C83 436 56 421 56 397 C56 366 90 364 113 364 C139 364 165 365 191 365 C208 365 239 365 254 359 C290 345 306 303 306 267 L306 -3 C306 -24 327 -36 346 -36 C367 -36 394 -21 394 3 L394 3 Z M221 694 L249 666 C264 651 272 639 295 639 C316 639 343 654 343 678 C343 684 341 689 338 694 C334 700 258 776 252 779 C245 784 237 786 228 786 C218 786 209 783 201 778 C193 774 117 698 111 690 C108 685 105 679 105 672 C105 651 126 639 145 639 C177 639 201 673 221 694 L221 694 Z " />
<glyph glyph-name="Hbar" unicode="&#x126;" horiz-adv-x="500" d="M119 3 L119 314 L381 314 L381 -3 C381 -24 402 -36 421 -36 C442 -36 469 -21 469 3 L469 603 C469 624 448 636 429 636 C408 636 381 621 381 597 L381 386 L119 386 L119 603 C119 624 98 636 79 636 C58 636 31 621 31 597 L31 -3 C31 -24 52 -36 71 -36 C92 -36 119 -21 119 3 L119 3 Z M171 689 L321 689 C342 689 369 704 369 728 C369 749 348 761 329 761 L179 761 C158 761 131 746 131 722 C131 701 152 689 171 689 L171 689 Z " />
<glyph glyph-name="hbar" unicode="&#x127;" horiz-adv-x="400" d="M21 514 L32 514 L32 -3 C32 -24 53 -36 72 -36 C93 -36 120 -21 120 3 L120 364 C136 364 152 365 167 365 C184 365 215 365 230 359 C266 345 282 303 282 267 L282 -3 C282 -24 303 -36 322 -36 C343 -36 370 -21 370 3 L370 278 C370 374 297 436 205 436 L120 436 L120 514 L171 514 C192 514 219 529 219 553 C219 574 198 586 179 586 L120 586 L120 603 C120 624 99 636 80 636 C59 636 32 621 32 597 L32 586 L29 586 C8 586 -19 571 -19 547 C-19 526 2 514 21 514 L21 514 Z " />
<glyph glyph-name="Itilde" unicode="&#x128;" horiz-adv-x="150" d="M119 3 L119 603 C119 624 98 636 79 636 C58 636 31 621 31 597 L31 -3 C31 -24 52 -36 71 -36 C92 -36 119 -21 119 3 L119 3 Z M128 736 C115 736 91 786 29 786 C-22 786 -69 751 -69 697 C-69 676 -48 664 -29 664 C-10 664 11 675 17 694 C19 701 18 707 21 714 L23 714 C33 714 60 664 121 664 C172 664 219 699 219 753 C219 774 198 786 179 786 C129 786 133 740 128 736 L128 736 Z " />
<glyph glyph-name="itilde" unicode="&#x129;" horiz-adv-x="150" d="M31 397 L31 -3 C31 -24 52 -36 71 -36 C92 -36 119 -21 119 3 L119 403 C119 424 98 436 79 436 C58 436 31 421 31 397 L31 397 Z M128 561 C115 561 91 611 29 611 C-22 611 -69 576 -69 522 C-69 501 -48 489 -29 489 C-10 489 11 500 17 519 C19 526 18 532 21 539 L23 539 C33 539 60 489 121 489 C172 489 219 524 219 578 C219 599 198 611 179 611 C129 611 133 565 128 561 L128 561 Z " />
<glyph glyph-name="Imacron" unicode="&#x12a;" horiz-adv-x="150" d="M119 3 L119 603 C119 624 98 636 79 636 C58 636 31 621 31 597 L31 -3 C31 -24 52 -36 71 -36 C92 -36 119 -21 119 3 L119 3 Z M-4 689 L146 689 C167 689 194 704 194 728 C194 749 173 761 154 761 L4 761 C-17 761 -44 746 -44 722 C-44 701 -23 689 -4 689 L-4 689 Z " />
<glyph glyph-name="imacron" unicode="&#x12b;" horiz-adv-x="150" d="M31 397 L31 -3 C31 -24 52 -36 71 -36 C92 -36 119 -21 119 3 L119 403 C119 424 98 436 79 436 C58 436 31 421 31 397 L31 397 Z M-4 514 L146 514 C167 514 194 529 194 553 C194 574 173 586 154 586 L4 586 C-17 586 -44 571 -44 547 C-44 526 -23 514 -4 514 L-4 514 Z " />
<glyph glyph-name="Ibreve" unicode="&#x12c;" horiz-adv-x="150" d="M119 3 L119 603 C119 624 98 636 79 636 C58 636 31 621 31 597 L31 -3 C31 -24 52 -36 71 -36 C92 -36 119 -21 119 3 L119 3 Z M-44 772 C-44 708 3 664 66 664 C132 664 194 708 194 778 C194 799 173 811 154 811 C145 811 135 808 127 804 C91 783 120 736 74 736 C27 736 67 811 4 811 C-17 811 -44 796 -44 772 L-44 772 Z " />
<glyph glyph-name="ibreve" unicode="&#x12d;" horiz-adv-x="150" d="M31 397 L31 -3 C31 -24 52 -36 71 -36 C92 -36 119 -21 119 3 L119 403 C119 424 98 436 79 436 C58 436 31 421 31 397 L31 397 Z M-44 597 C-44 533 3 489 66 489 C132 489 194 533 194 603 C194 624 173 636 154 636 C145 636 135 633 127 629 C91 608 120 561 74 561 C27 561 67 636 4 636 C-17 636 -44 621 -44 597 L-44 597 Z " />
<glyph glyph-name="Iogonek" unicode="&#x12e;" horiz-adv-x="150" d="M119 3 L119 603 C119 624 98 636 79 636 C58 636 31 621 31 597 L31 -3 C31 -24 52 -36 71 -36 C92 -36 119 -21 119 3 L119 3 Z M-19 -53 L-19 -103 C-19 -154 22 -186 71 -186 C122 -186 169 -151 169 -97 C169 -76 148 -64 129 -64 C79 -64 83 -110 78 -114 C66 -112 68 -81 68 -71 C68 -63 68 -42 72 -35 L75 -35 C95 -35 119 -18 119 3 C119 24 98 36 79 36 C28 36 -19 1 -19 -53 L-19 -53 Z " />
<glyph glyph-name="iogonek" unicode="&#x12f;" horiz-adv-x="150" d="M120 3 L120 403 C120 424 99 436 80 436 C59 436 32 421 32 397 L32 -3 C32 -24 53 -36 72 -36 C93 -36 120 -21 120 3 L120 3 Z M120 553 L120 603 C120 624 99 636 80 636 C59 636 32 621 32 597 L32 547 C32 526 53 514 72 514 C93 514 120 529 120 553 L120 553 Z M-19 -53 L-19 -103 C-19 -154 22 -186 71 -186 C122 -186 169 -151 169 -97 C169 -76 148 -64 129 -64 C79 -64 83 -110 78 -114 C66 -112 68 -81 68 -71 C68 -63 68 -42 72 -35 L75 -35 C95 -35 119 -18 119 3 C119 24 98 36 79 36 C28 36 -19 1 -19 -53 L-19 -53 Z " />
<glyph glyph-name="Idotaccent" unicode="&#x130;" horiz-adv-x="150" d="M119 3 L119 603 C119 624 98 636 79 636 C58 636 31 621 31 597 L31 -3 C31 -24 52 -36 71 -36 C92 -36 119 -21 119 3 L119 3 Z M31 772 L31 697 C31 676 52 664 71 664 C92 664 119 679 119 703 L119 778 C119 799 98 811 79 811 C58 811 31 796 31 772 L31 772 Z " />
<glyph glyph-name="dotlessi" unicode="&#x131;" horiz-adv-x="150" d="M31 397 L31 -3 C31 -24 52 -36 71 -36 C92 -36 119 -21 119 3 L119 403 C119 424 98 436 79 436 C58 436 31 421 31 397 L31 397 Z " />
<glyph glyph-name="IJ" unicode="&#x132;" horiz-adv-x="400" d="M204 36 C157 36 130 64 121 109 C119 117 120 126 118 134 C114 152 96 161 79 161 C58 161 31 146 31 122 C31 26 104 -36 196 -36 C296 -36 369 32 369 133 L369 603 C369 624 348 636 329 636 C311 636 292 626 284 609 C281 601 281 579 281 570 C281 425 282 279 282 134 C282 82 263 36 204 36 L204 36 Z M31 597 L31 247 C31 226 52 214 71 214 C92 214 119 229 119 253 L119 603 C119 624 98 636 79 636 C58 636 31 621 31 597 L31 597 Z " />
<glyph glyph-name="ij" unicode="&#x133;" horiz-adv-x="400" d="M204 -164 C157 -164 130 -136 121 -91 C119 -83 120 -74 118 -66 C114 -48 96 -39 79 -39 C58 -39 31 -54 31 -78 C31 -174 104 -236 196 -236 C296 -236 369 -168 369 -67 L369 403 C369 424 348 436 329 436 C311 436 292 426 284 409 C281 401 281 379 281 370 C281 225 282 79 282 -66 C282 -118 263 -164 204 -164 L204 -164 Z M31 397 L31 97 C31 76 52 64 71 64 C92 64 119 79 119 103 L119 403 C119 424 98 436 79 436 C58 436 31 421 31 397 L31 397 Z M281 597 L281 522 C281 501 302 489 321 489 C342 489 369 504 369 528 L369 603 C369 624 348 636 329 636 C308 636 281 621 281 597 L281 597 Z M31 597 L31 522 C31 501 52 489 71 489 C92 489 119 504 119 528 L119 603 C119 624 98 636 79 636 C58 636 31 621 31 597 L31 597 Z " />
<glyph glyph-name="Jcircumflex" unicode="&#x134;" horiz-adv-x="375" d="M179 36 C132 36 105 64 96 109 C94 117 95 126 93 134 C89 152 71 161 54 161 C33 161 6 146 6 122 C6 26 79 -36 171 -36 C271 -36 344 32 344 133 L344 603 C344 624 323 636 304 636 C286 636 267 626 259 609 C256 601 256 579 256 570 C256 425 257 279 257 134 C257 82 238 36 179 36 L179 36 Z M297 719 L325 691 C340 676 348 664 371 664 C392 664 419 679 419 703 C419 709 417 714 414 719 C410 725 334 801 328 804 C321 809 313 811 304 811 C294 811 285 808 277 803 C269 799 193 723 187 715 C184 710 181 704 181 697 C181 676 202 664 221 664 C253 664 277 698 297 719 L297 719 Z " />
<glyph glyph-name="jcircumflex" unicode="&#x135;" horiz-adv-x="175" d="M144 -67 L144 403 C144 424 123 436 104 436 C86 436 67 426 59 409 C54 397 56 343 56 326 L56 -39 C56 -48 57 -57 57 -66 C57 -89 53 -114 40 -134 C24 -159 6 -163 -23 -164 C-44 -166 -69 -180 -69 -203 C-69 -224 -48 -236 -29 -236 C71 -236 144 -168 144 -67 L144 -67 Z M97 544 L125 516 C140 501 148 489 171 489 C192 489 219 504 219 528 C219 534 217 539 214 544 C210 550 134 626 128 629 C121 634 113 636 104 636 C94 636 85 633 77 628 C69 624 -7 548 -13 540 C-16 535 -19 529 -19 522 C-19 501 2 489 21 489 C53 489 77 523 97 544 L97 544 Z " />
<glyph glyph-name="uni0136" unicode="&#x136;" horiz-adv-x="500" d="M119 3 L119 603 C119 624 98 636 79 636 C58 636 31 621 31 597 L31 -3 C31 -24 52 -36 71 -36 C92 -36 119 -21 119 3 L119 3 Z M31 322 C31 301 52 289 71 289 C81 289 91 292 100 298 C124 313 145 333 167 350 L302 456 L408 539 C426 554 469 578 469 603 C469 624 448 636 429 636 C419 636 409 633 400 627 C376 612 355 592 333 575 L198 469 L92 386 C74 371 31 347 31 322 L31 322 Z M421 -36 C442 -36 469 -21 469 3 C469 8 467 12 465 16 C452 46 431 74 415 102 L312 274 L253 374 C244 390 236 408 224 422 C216 431 204 436 192 436 C170 436 144 421 144 397 C144 392 145 388 147 384 C161 354 181 326 198 298 L300 126 L360 26 C369 10 376 -8 388 -22 C396 -31 409 -36 421 -36 L421 -36 Z M319 3 C319 24 298 36 279 36 L229 36 C208 36 181 21 181 -3 C181 -25 203 -36 222 -36 C215 -66 181 -182 181 -203 C181 -224 202 -236 221 -236 C237 -236 252 -229 262 -216 C264 -213 266 -210 267 -206 C273 -189 319 -7 319 3 L319 3 Z " />
<glyph glyph-name="uni0137" unicode="&#x137;" horiz-adv-x="400" d="M120 3 L120 603 C120 624 99 636 80 636 C59 636 32 621 32 597 L32 -3 C32 -24 53 -36 72 -36 C93 -36 120 -21 120 3 L120 3 Z M370 403 C370 424 349 436 330 436 C307 436 283 416 263 405 L176 352 L88 299 C68 288 32 274 32 247 C32 226 53 214 72 214 C95 214 119 234 139 245 L226 298 L314 351 C334 362 370 376 370 403 L370 403 Z M322 -36 C343 -36 370 -21 370 3 C370 17 342 65 335 80 L269 210 L232 286 C219 311 214 336 180 336 C159 336 132 321 132 297 C132 283 160 235 167 220 L233 90 L270 14 C283 -11 288 -36 322 -36 L322 -36 Z M269 3 C269 24 248 36 229 36 L179 36 C158 36 131 21 131 -3 C131 -25 153 -36 172 -36 C165 -66 131 -182 131 -203 C131 -224 152 -236 171 -236 C187 -236 202 -229 212 -216 C214 -213 216 -210 217 -206 C223 -189 269 -7 269 3 L269 3 Z " />
<glyph glyph-name="kgreenlandic" unicode="&#x138;" horiz-adv-x="400" d="M119 3 L119 239 C121 241 124 242 127 244 L131 247 C139 234 147 222 151 215 L268 12 C282 -12 288 -36 321 -36 C342 -36 369 -21 369 3 C369 18 338 63 329 79 L212 282 C210 285 209 288 207 290 L305 347 C326 359 369 374 369 403 C369 424 348 436 329 436 C308 436 291 422 273 412 L119 323 L119 403 C119 424 98 436 79 436 C58 436 31 421 31 397 L31 -3 C31 -24 52 -36 71 -36 C92 -36 119 -21 119 3 L119 3 Z " />
<glyph glyph-name="Lacute" unicode="&#x139;" horiz-adv-x="425" d="M119 36 C119 154 119 273 119 391 C119 409 120 606 117 612 C110 628 96 636 79 636 C58 636 31 621 31 597 L31 -3 C31 -24 52 -36 71 -36 L321 -36 C342 -36 369 -21 369 3 C369 40 322 36 297 36 L119 36 Z M131 697 C131 676 152 664 171 664 C181 664 190 667 198 672 C206 676 282 752 288 760 C291 765 294 771 294 778 C294 799 273 811 254 811 C244 811 235 808 227 803 C219 799 143 723 137 715 C134 710 131 704 131 697 L131 697 Z " />
<glyph glyph-name="lacute" unicode="&#x13a;" horiz-adv-x="150" d="M120 3 L120 603 C120 624 99 636 80 636 C59 636 32 621 32 597 L32 -3 C32 -24 53 -36 72 -36 C93 -36 120 -21 120 3 L120 3 Z M-6 672 C-6 651 15 639 34 639 C44 639 53 642 61 647 C69 651 145 727 151 735 C154 740 157 746 157 753 C157 774 136 786 117 786 C107 786 98 783 90 778 C82 774 6 698 0 690 C-3 685 -6 679 -6 672 L-6 672 Z " />
<glyph glyph-name="uni013B" unicode="&#x13b;" horiz-adv-x="425" d="M119 36 C119 154 119 273 119 391 C119 409 120 606 117 612 C110 628 96 636 79 636 C58 636 31 621 31 597 L31 -3 C31 -24 52 -36 71 -36 L321 -36 C342 -36 369 -21 369 3 C369 40 322 36 297 36 L119 36 Z M294 3 C294 24 273 36 254 36 L204 36 C183 36 156 21 156 -3 C156 -25 178 -36 197 -36 C190 -66 156 -182 156 -203 C156 -224 177 -236 196 -236 C212 -236 227 -229 237 -216 C239 -213 241 -210 242 -206 C248 -189 294 -7 294 3 L294 3 Z " />
<glyph glyph-name="uni013C" unicode="&#x13c;" horiz-adv-x="150" d="M120 3 L120 603 C120 624 99 636 80 636 C59 636 32 621 32 597 L32 -3 C32 -24 53 -36 72 -36 C93 -36 120 -21 120 3 L120 3 Z M144 3 C144 24 123 36 104 36 L54 36 C33 36 6 21 6 -3 C6 -25 28 -36 47 -36 C40 -66 6 -182 6 -203 C6 -224 27 -236 46 -236 C62 -236 77 -229 87 -216 C89 -213 91 -210 92 -206 C98 -189 144 -7 144 3 L144 3 Z " />
<glyph glyph-name="Lcaron" unicode="&#x13d;" horiz-adv-x="425" d="M119 36 C119 154 119 273 119 391 C119 409 120 606 117 612 C110 628 96 636 79 636 C58 636 31 621 31 597 L31 -3 C31 -24 52 -36 71 -36 L321 -36 C342 -36 369 -21 369 3 C369 40 322 36 297 36 L119 36 Z M369 603 C369 624 348 636 329 636 L279 636 C258 636 231 621 231 597 C231 575 253 564 272 564 C265 534 231 418 231 397 C231 376 252 364 271 364 C287 364 302 371 312 384 C314 387 316 390 317 394 C323 411 369 593 369 603 L369 603 Z " />
<glyph glyph-name="lcaron" unicode="&#x13e;" horiz-adv-x="250" d="M144 3 L144 603 C144 624 123 636 104 636 C83 636 56 621 56 597 L56 -3 C56 -24 77 -36 96 -36 C117 -36 144 -21 144 3 L144 3 Z M318 603 C318 624 297 636 278 636 L228 636 C207 636 180 621 180 597 C180 575 202 564 221 564 C214 534 180 418 180 397 C180 376 201 364 220 364 C236 364 251 371 261 384 C263 387 265 390 266 394 C272 411 318 593 318 603 L318 603 Z " />
<glyph glyph-name="Ldot" unicode="&#x13f;" horiz-adv-x="425" d="M119 36 C119 154 119 273 119 391 C119 409 120 606 117 612 C110 628 96 636 79 636 C58 636 31 621 31 597 L31 -3 C31 -24 52 -36 71 -36 L321 -36 C342 -36 369 -21 369 3 C369 40 322 36 297 36 L119 36 Z M169 597 L169 522 C169 501 190 489 209 489 C230 489 257 504 257 528 L257 603 C257 624 236 636 217 636 C196 636 169 621 169 597 L169 597 Z " />
<glyph glyph-name="ldot" unicode="&#x140;" horiz-adv-x="200" d="M120 3 L120 297 C127 292 137 289 146 289 C167 289 194 304 194 328 L194 403 C194 424 173 436 154 436 C142 436 129 431 120 423 L120 603 C120 624 99 636 80 636 C59 636 32 621 32 597 L32 -3 C32 -24 53 -36 72 -36 C93 -36 120 -21 120 3 L120 3 Z " />
<glyph glyph-name="Lslash" unicode="&#x141;" horiz-adv-x="475" d="M244 353 C244 374 223 386 204 386 C196 386 188 384 180 380 C179 379 175 377 169 374 L169 391 C169 409 170 606 167 612 C160 628 146 636 129 636 C108 636 81 621 81 597 L81 316 C48 293 19 273 17 270 C11 264 6 256 6 247 C6 226 27 214 46 214 C59 214 71 219 81 227 L81 -3 C81 -24 102 -36 121 -36 L371 -36 C392 -36 419 -21 419 3 C419 40 372 36 347 36 L169 36 C169 119 169 202 169 285 C202 307 231 327 233 330 C239 336 244 344 244 353 L244 353 Z " />
<glyph glyph-name="lslash" unicode="&#x142;" horiz-adv-x="250" d="M170 3 L170 286 C202 309 231 329 233 332 C239 338 244 346 244 355 C244 376 223 388 204 388 C196 388 188 386 180 382 C179 381 175 379 170 376 L170 603 C170 624 149 636 130 636 C109 636 82 621 82 597 L82 317 C49 294 19 273 17 270 C11 264 6 256 6 247 C6 226 27 214 46 214 C59 214 72 220 82 228 L82 -3 C82 -24 103 -36 122 -36 C143 -36 170 -21 170 3 L170 3 Z " />
<glyph glyph-name="Nacute" unicode="&#x143;" horiz-adv-x="550" d="M104 636 C83 636 56 621 56 597 L56 -3 C56 -24 77 -36 96 -36 C114 -36 135 -26 142 -8 C146 4 144 41 144 55 L144 498 L332 309 L391 250 C408 233 419 214 446 214 C467 214 494 229 494 253 C494 260 491 266 487 272 C468 296 442 317 420 339 L280 479 L179 580 C159 600 135 636 104 636 L104 636 Z M494 3 L494 603 C494 624 473 636 454 636 C433 636 406 621 406 597 L406 -3 C406 -24 427 -36 446 -36 C467 -36 494 -21 494 3 L494 3 Z M231 697 C231 676 252 664 271 664 C281 664 290 667 298 672 C306 676 382 752 388 760 C391 765 394 771 394 778 C394 799 373 811 354 811 C344 811 335 808 327 803 C319 799 243 723 237 715 C234 710 231 704 231 697 L231 697 Z " />
<glyph glyph-name="nacute" unicode="&#x144;" horiz-adv-x="450" d="M394 3 L394 278 C394 330 367 386 321 412 C293 429 261 436 229 436 L104 436 C83 436 56 421 56 397 L56 -3 C56 -24 77 -36 96 -36 C114 -36 133 -26 141 -9 C148 6 144 99 144 121 L144 364 L220 364 C278 364 306 320 306 267 L306 -3 C306 -24 327 -36 346 -36 C367 -36 394 -21 394 3 L394 3 Z M180 522 C180 501 201 489 220 489 C230 489 239 492 247 497 C255 501 331 577 337 585 C340 590 343 596 343 603 C343 624 322 636 303 636 C293 636 284 633 276 628 C268 624 192 548 186 540 C183 535 180 529 180 522 L180 522 Z " />
<glyph glyph-name="uni0145" unicode="&#x145;" horiz-adv-x="500" d="M79 636 C58 636 31 621 31 597 L31 -3 C31 -24 52 -36 71 -36 C89 -36 110 -26 117 -8 C121 4 119 41 119 55 L119 498 L307 309 L366 250 C383 233 394 214 421 214 C442 214 469 229 469 253 C469 260 466 266 462 272 C443 296 417 317 395 339 L255 479 L154 580 C134 600 110 636 79 636 L79 636 Z M469 3 L469 603 C469 624 448 636 429 636 C408 636 381 621 381 597 L381 -3 C381 -24 402 -36 421 -36 C442 -36 469 -21 469 3 L469 3 Z M319 3 C319 24 298 36 279 36 L229 36 C208 36 181 21 181 -3 C181 -25 203 -36 222 -36 C215 -66 181 -182 181 -203 C181 -224 202 -236 221 -236 C237 -236 252 -229 262 -216 C264 -213 266 -210 267 -206 C273 -189 319 -7 319 3 L319 3 Z " />
<glyph glyph-name="uni0146" unicode="&#x146;" horiz-adv-x="400" d="M370 3 L370 278 C370 330 343 386 297 412 C269 429 237 436 205 436 L80 436 C59 436 32 421 32 397 L32 -3 C32 -24 53 -36 72 -36 C90 -36 109 -26 117 -9 C124 6 120 99 120 121 L120 364 L196 364 C254 364 282 320 282 267 L282 -3 C282 -24 303 -36 322 -36 C343 -36 370 -21 370 3 L370 3 Z M269 3 C269 24 248 36 229 36 L179 36 C158 36 131 21 131 -3 C131 -25 153 -36 172 -36 C165 -66 131 -182 131 -203 C131 -224 152 -236 171 -236 C187 -236 202 -229 212 -216 C214 -213 216 -210 217 -206 C223 -189 269 -7 269 3 L269 3 Z " />
<glyph glyph-name="Ncaron" unicode="&#x147;" horiz-adv-x="550" d="M104 636 C83 636 56 621 56 597 L56 -3 C56 -24 77 -36 96 -36 C114 -36 135 -26 142 -8 C146 4 144 41 144 55 L144 498 L332 309 L391 250 C408 233 419 214 446 214 C467 214 494 229 494 253 C494 260 491 266 487 272 C468 296 442 317 420 339 L280 479 L179 580 C159 600 135 636 104 636 L104 636 Z M494 3 L494 603 C494 624 473 636 454 636 C433 636 406 621 406 597 L406 -3 C406 -24 427 -36 446 -36 C467 -36 494 -21 494 3 L494 3 Z M271 664 C281 664 290 667 298 672 C306 676 382 752 388 760 C391 765 394 771 394 778 C394 799 373 811 354 811 C322 811 298 777 278 756 L250 784 C235 799 227 811 204 811 C183 811 156 796 156 772 C156 766 158 761 161 756 C165 750 241 674 247 671 C254 666 262 664 271 664 L271 664 Z " />
<glyph glyph-name="ncaron" unicode="&#x148;" horiz-adv-x="450" d="M394 3 L394 278 C394 330 367 386 321 412 C293 429 261 436 229 436 L104 436 C83 436 56 421 56 397 L56 -3 C56 -24 77 -36 96 -36 C114 -36 133 -26 141 -9 C148 6 144 99 144 121 L144 364 L220 364 C278 364 306 320 306 267 L306 -3 C306 -24 327 -36 346 -36 C367 -36 394 -21 394 3 L394 3 Z M220 489 C230 489 239 492 247 497 C255 501 331 577 337 585 C340 590 343 596 343 603 C343 624 322 636 303 636 C271 636 247 602 227 581 L199 609 C184 624 176 636 153 636 C132 636 105 621 105 597 C105 591 107 586 110 581 C114 575 190 499 196 496 C203 491 211 489 220 489 L220 489 Z " />
<glyph glyph-name="napostrophe" unicode="&#x149;" horiz-adv-x="400" d="M370 3 L370 278 C370 330 343 386 297 412 C269 429 237 436 205 436 L80 436 C59 436 32 421 32 397 L32 -3 C32 -24 53 -36 72 -36 C90 -36 109 -26 117 -9 C124 6 120 99 120 121 L120 364 L196 364 C254 364 282 320 282 267 L282 -3 C282 -24 303 -36 322 -36 C343 -36 370 -21 370 3 L370 3 Z M94 603 C94 624 73 636 54 636 L4 636 C-17 636 -44 621 -44 597 C-44 575 -22 564 -3 564 C-10 534 -44 418 -44 397 C-44 376 -23 364 -4 364 C12 364 27 371 37 384 C39 387 41 390 42 394 C48 411 94 593 94 603 L94 603 Z " />
<glyph glyph-name="Eng" unicode="&#x14a;" horiz-adv-x="500" d="M469 -67 L469 603 C469 624 448 636 429 636 C408 636 381 621 381 597 L381 393 C381 381 381 366 381 353 L154 580 C134 600 110 636 79 636 C58 636 31 621 31 597 L31 -3 C31 -24 52 -36 71 -36 C89 -36 110 -26 117 -8 C121 4 119 41 119 55 L119 498 L366 250 C372 245 376 239 381 234 L381 -39 C381 -48 382 -57 382 -66 C382 -89 378 -114 365 -134 C349 -159 331 -163 302 -164 C281 -166 256 -180 256 -203 C256 -224 277 -236 296 -236 C396 -236 469 -168 469 -67 L469 -67 Z " />
<glyph glyph-name="eng" unicode="&#x14b;" horiz-adv-x="400" d="M369 -67 L369 278 C369 374 296 436 204 436 L79 436 C58 436 31 421 31 397 L31 -3 C31 -24 52 -36 71 -36 C89 -36 108 -26 116 -9 C123 6 119 99 119 121 L119 364 L195 364 C253 364 281 320 281 267 L281 191 C281 187 281 184 281 180 L281 -3 C281 -6 282 -8 282 -10 C282 -23 282 -35 282 -48 C282 -110 273 -164 202 -164 C181 -166 156 -180 156 -203 C156 -224 177 -236 196 -236 C296 -236 369 -168 369 -67 L369 -67 Z " />
<glyph glyph-name="Omacron" unicode="&#x14c;" horiz-adv-x="500" d="M469 178 L469 428 C469 494 435 568 378 603 C340 626 298 636 254 636 C225 636 196 631 169 622 C86 594 31 508 31 422 L31 172 C31 106 65 32 122 -3 C160 -26 202 -36 246 -36 C275 -36 304 -31 331 -22 C414 6 469 92 469 178 L469 178 Z M377 140 C364 73 323 36 254 36 C167 36 119 101 119 183 L119 428 C119 445 122 462 128 478 C146 536 185 564 246 564 C333 564 381 499 381 417 L381 173 C380 162 380 151 377 140 L377 140 Z M171 689 L321 689 C342 689 369 704 369 728 C369 749 348 761 329 761 L179 761 C158 761 131 746 131 722 C131 701 152 689 171 689 L171 689 Z " />
<glyph glyph-name="omacron" unicode="&#x14d;" horiz-adv-x="400" d="M80 311 C59 311 32 296 32 272 L32 122 C32 26 105 -36 197 -36 C297 -36 370 32 370 133 L370 278 C370 374 297 436 205 436 C110 436 32 370 32 272 C32 251 53 239 72 239 C96 239 117 254 120 278 C120 299 99 311 80 311 L80 311 Z M121 514 L271 514 C292 514 319 529 319 553 C319 574 298 586 279 586 L129 586 C108 586 81 571 81 547 C81 526 102 514 121 514 L121 514 Z M197 364 C250 364 282 323 282 272 L282 122 C282 75 257 36 205 36 C148 36 120 80 120 133 L120 278 C125 327 141 364 197 364 L197 364 Z " />
<glyph glyph-name="Obreve" unicode="&#x14e;" horiz-adv-x="550" d="M494 178 L494 428 C494 494 460 568 403 603 C365 626 323 636 279 636 C250 636 221 631 194 622 C111 594 56 508 56 422 L56 172 C56 106 90 32 147 -3 C185 -26 227 -36 271 -36 C300 -36 329 -31 356 -22 C439 6 494 92 494 178 C494 199 473 211 454 211 C444 211 434 208 426 203 C401 188 407 164 402 140 C389 73 348 36 279 36 C192 36 144 101 144 183 L144 428 C144 445 147 462 153 478 C171 536 210 564 271 564 C358 564 406 499 406 417 L406 172 C406 151 427 139 446 139 C467 139 494 154 494 178 L494 178 Z M156 772 C156 708 203 664 266 664 C332 664 394 708 394 778 C394 799 373 811 354 811 C345 811 335 808 327 804 C291 783 320 736 274 736 C227 736 267 811 204 811 C183 811 156 796 156 772 L156 772 Z " />
<glyph glyph-name="obreve" unicode="&#x14f;" horiz-adv-x="400" d="M196 364 C249 364 281 323 281 272 L281 122 C281 110 279 98 275 87 C263 52 241 36 204 36 C147 36 119 80 119 133 L119 278 C119 299 98 311 79 311 C58 311 31 296 31 272 L31 122 C31 70 58 14 104 -12 C132 -29 164 -36 196 -36 C296 -36 369 32 369 133 L369 278 C369 330 342 386 296 412 C268 429 236 436 204 436 C109 436 31 370 31 272 C31 251 52 239 71 239 C95 239 116 254 119 278 C124 327 140 364 196 364 L196 364 Z M80 597 C80 533 127 489 190 489 C256 489 318 533 318 603 C318 624 297 636 278 636 C269 636 259 633 251 629 C215 608 244 561 198 561 C151 561 191 636 128 636 C107 636 80 621 80 597 L80 597 Z " />
<glyph glyph-name="Ohungarumlaut" unicode="&#x150;" horiz-adv-x="500" d="M469 178 L469 428 C469 494 435 568 378 603 C340 626 298 636 254 636 C225 636 196 631 169 622 C86 594 31 508 31 422 L31 172 C31 106 65 32 122 -3 C160 -26 202 -36 246 -36 C275 -36 304 -31 331 -22 C414 6 469 92 469 178 L469 178 Z M377 140 C364 73 323 36 254 36 C167 36 119 101 119 183 L119 428 C119 445 122 462 128 478 C146 536 185 564 246 564 C333 564 381 499 381 417 L381 173 C380 162 380 151 377 140 L377 140 Z M293 697 C293 676 314 664 333 664 C343 664 352 667 360 672 C368 676 444 752 450 760 C453 765 456 771 456 778 C456 799 435 811 416 811 C406 811 397 808 389 803 C381 799 305 723 299 715 C296 710 293 704 293 697 L293 697 Z M118 697 C118 676 139 664 158 664 C168 664 177 667 185 672 C193 676 269 752 275 760 C278 765 281 771 281 778 C281 799 260 811 241 811 C231 811 222 808 214 803 C206 799 130 723 124 715 C121 710 118 704 118 697 L118 697 Z " />
<glyph glyph-name="ohungarumlaut" unicode="&#x151;" horiz-adv-x="400" d="M80 311 C59 311 32 296 32 272 L32 122 C32 26 105 -36 197 -36 C297 -36 370 32 370 133 L370 278 C370 374 297 436 205 436 C110 436 32 370 32 272 C32 251 53 239 72 239 C96 239 117 254 120 278 C120 299 99 311 80 311 L80 311 Z M68 522 C68 501 89 489 108 489 C118 489 127 492 135 497 C143 501 219 577 225 585 C228 590 231 596 231 603 C231 624 210 636 191 636 C181 636 172 633 164 628 C156 624 80 548 74 540 C71 535 68 529 68 522 L68 522 Z M243 522 C243 501 264 489 283 489 C293 489 302 492 310 497 C318 501 394 577 400 585 C403 590 406 596 406 603 C406 624 385 636 366 636 C356 636 347 633 339 628 C331 624 255 548 249 540 C246 535 243 529 243 522 L243 522 Z M197 364 C250 364 282 323 282 272 L282 122 C282 75 257 36 205 36 C148 36 120 80 120 133 L120 278 C125 327 141 364 197 364 L197 364 Z " />
<glyph glyph-name="OE" unicode="&#x152;" horiz-adv-x="800" d="M729 636 L429 636 C409 636 384 622 382 600 C380 601 379 602 378 603 C340 626 298 636 254 636 C225 636 196 631 169 622 C86 594 31 508 31 422 L31 172 C31 106 65 32 122 -3 C160 -26 202 -36 246 -36 C298 -36 349 -22 390 10 C404 -19 435 -36 471 -36 L721 -36 C742 -36 769 -21 769 3 C769 18 758 28 745 33 C736 37 682 36 670 36 C619 36 567 35 516 35 C512 35 479 35 477 36 C471 38 469 49 469 54 L469 314 L596 314 C617 314 644 329 644 353 C644 374 623 386 604 386 L469 386 L469 564 C518 564 567 564 616 564 C632 564 727 563 738 567 C753 573 769 585 769 603 C769 624 748 636 729 636 L729 636 Z M377 140 C364 73 323 36 254 36 C167 36 119 101 119 183 L119 428 C119 445 122 462 128 478 C146 536 185 564 246 564 C333 564 381 499 381 417 L381 173 C380 162 380 151 377 140 L377 140 Z " />
<glyph glyph-name="oe" unicode="&#x153;" horiz-adv-x="650" d="M80 311 C59 311 32 296 32 272 L32 122 C32 26 105 -36 197 -36 C250 -36 295 -17 325 16 C356 -17 401 -36 454 -36 L504 -36 C523 -36 544 -24 544 -3 C544 28 509 36 484 36 C473 36 462 35 451 35 C392 35 373 71 369 118 C369 123 370 128 370 133 L370 164 L577 164 C605 164 617 181 617 208 C617 229 619 251 619 272 C619 341 571 409 504 428 C485 433 465 436 446 436 C397 436 355 419 325 390 C297 422 246 436 205 436 C110 436 32 370 32 272 C32 251 53 239 72 239 C96 239 117 254 120 278 C120 299 99 311 80 311 L80 311 Z M197 364 C245 364 276 330 282 286 C281 283 281 281 281 278 L281 133 C281 127 282 121 282 116 C277 70 256 36 205 36 C148 36 120 80 120 133 L120 278 C125 327 141 364 197 364 L197 364 Z M370 236 L370 278 C370 281 370 283 369 286 C375 331 405 364 454 364 C493 364 514 345 525 309 C529 299 531 289 531 278 C531 264 531 250 530 236 L370 236 Z " />
<glyph glyph-name="Racute" unicode="&#x154;" horiz-adv-x="475" d="M270 314 L273 314 C366 314 444 381 444 478 C444 530 417 586 371 612 C343 629 311 636 279 636 L80 636 C58 636 31 621 31 597 L31 -3 C31 -24 52 -36 71 -36 C90 -36 110 -26 117 -8 C121 4 119 47 119 62 L119 564 L270 564 C311 564 336 546 350 507 C353 496 356 484 356 472 C356 458 352 442 347 429 C331 391 307 386 268 386 L213 386 C189 386 156 377 156 347 C156 342 158 338 160 334 C172 307 190 281 204 255 L294 99 L341 16 C348 4 354 -11 363 -22 C371 -31 384 -36 396 -36 C417 -36 444 -21 444 3 C444 7 443 11 441 15 C437 26 429 36 424 46 L386 112 L270 314 Z M206 697 C206 676 227 664 246 664 C256 664 265 667 273 672 C281 676 357 752 363 760 C366 765 369 771 369 778 C369 799 348 811 329 811 C319 811 310 808 302 803 C294 799 218 723 212 715 C209 710 206 704 206 697 L206 697 Z " />
<glyph glyph-name="racute" unicode="&#x155;" horiz-adv-x="300" d="M56 267 L56 -3 C56 -24 77 -36 96 -36 C106 -36 116 -33 124 -28 C145 -15 144 -1 144 22 L144 63 C144 124 143 186 143 248 C143 286 146 340 186 358 C198 363 210 364 223 364 C244 366 269 380 269 403 C269 424 248 436 229 436 C129 436 56 368 56 267 L56 267 Z M130 522 C130 501 151 489 170 489 C180 489 189 492 197 497 C205 501 281 577 287 585 C290 590 293 596 293 603 C293 624 272 636 253 636 C243 636 234 633 226 628 C218 624 142 548 136 540 C133 535 130 529 130 522 L130 522 Z " />
<glyph glyph-name="uni0156" unicode="&#x156;" horiz-adv-x="475" d="M270 314 L273 314 C366 314 444 381 444 478 C444 530 417 586 371 612 C343 629 311 636 279 636 L80 636 C58 636 31 621 31 597 L31 -3 C31 -24 52 -36 71 -36 C90 -36 110 -26 117 -8 C121 4 119 47 119 62 L119 564 L270 564 C311 564 336 546 350 507 C353 496 356 484 356 472 C356 458 352 442 347 429 C331 391 307 386 268 386 L213 386 C189 386 156 377 156 347 C156 342 158 338 160 334 C172 307 190 281 204 255 L294 99 L341 16 C348 4 354 -11 363 -22 C371 -31 384 -36 396 -36 C417 -36 444 -21 444 3 C444 7 443 11 441 15 C437 26 429 36 424 46 L386 112 L270 314 Z M306 3 C306 24 285 36 266 36 L216 36 C195 36 168 21 168 -3 C168 -25 190 -36 209 -36 C202 -66 168 -182 168 -203 C168 -224 189 -236 208 -236 C224 -236 239 -229 249 -216 C251 -213 253 -210 254 -206 C260 -189 306 -7 306 3 L306 3 Z " />
<glyph glyph-name="uni0157" unicode="&#x157;" horiz-adv-x="250" d="M32 267 L32 -3 C32 -24 53 -36 72 -36 C82 -36 92 -33 100 -28 C121 -15 120 -1 120 22 L120 63 C120 124 119 186 119 248 C119 286 122 340 162 358 C174 363 186 364 199 364 C220 366 245 380 245 403 C245 424 224 436 205 436 C105 436 32 368 32 267 L32 267 Z M144 3 C144 24 123 36 104 36 L54 36 C33 36 6 21 6 -3 C6 -25 28 -36 47 -36 C40 -66 6 -182 6 -203 C6 -224 27 -236 46 -236 C62 -236 77 -229 87 -216 C89 -213 91 -210 92 -206 C98 -189 144 -7 144 3 L144 3 Z " />
<glyph glyph-name="Rcaron" unicode="&#x158;" horiz-adv-x="475" d="M270 314 L273 314 C366 314 444 381 444 478 C444 530 417 586 371 612 C343 629 311 636 279 636 L80 636 C58 636 31 621 31 597 L31 -3 C31 -24 52 -36 71 -36 C90 -36 110 -26 117 -8 C121 4 119 47 119 62 L119 564 L270 564 C311 564 336 546 350 507 C353 496 356 484 356 472 C356 458 352 442 347 429 C331 391 307 386 268 386 L213 386 C189 386 156 377 156 347 C156 342 158 338 160 334 C172 307 190 281 204 255 L294 99 L341 16 C348 4 354 -11 363 -22 C371 -31 384 -36 396 -36 C417 -36 444 -21 444 3 C444 7 443 11 441 15 C437 26 429 36 424 46 L386 112 L270 314 Z M233 664 C243 664 252 667 260 672 C268 676 344 752 350 760 C353 765 356 771 356 778 C356 799 335 811 316 811 C284 811 260 777 240 756 L212 784 C197 799 189 811 166 811 C145 811 118 796 118 772 C118 766 120 761 123 756 C127 750 203 674 209 671 C216 666 224 664 233 664 L233 664 Z " />
<glyph glyph-name="rcaron" unicode="&#x159;" horiz-adv-x="300" d="M56 267 L56 -3 C56 -24 77 -36 96 -36 C106 -36 116 -33 124 -28 C145 -15 144 -1 144 22 L144 63 C144 124 143 186 143 248 C143 286 146 340 186 358 C198 363 210 364 223 364 C244 366 269 380 269 403 C269 424 248 436 229 436 C129 436 56 368 56 267 L56 267 Z M145 489 C155 489 164 492 172 497 C180 501 256 577 262 585 C265 590 268 596 268 603 C268 624 247 636 228 636 C196 636 172 602 152 581 L124 609 C109 624 101 636 78 636 C57 636 30 621 30 597 C30 591 32 586 35 581 C39 575 115 499 121 496 C128 491 136 489 145 489 L145 489 Z " />
<glyph glyph-name="Sacute" unicode="&#x15a;" horiz-adv-x="488" d="M247 -36 C366 -36 445 45 445 164 C445 252 369 318 293 349 C287 352 281 354 274 357 C264 361 255 367 245 371 C196 388 155 411 155 469 C155 517 182 564 235 564 C280 564 319 547 340 505 C352 481 351 464 384 464 C406 464 432 479 432 503 C432 511 429 519 426 527 C394 603 321 636 243 636 C144 636 68 562 68 463 C68 379 124 335 196 308 C207 303 218 297 229 293 C286 269 358 229 358 158 C358 92 328 36 255 36 C208 36 171 59 151 102 C139 128 140 148 105 148 C84 148 57 133 57 109 C57 107 58 105 58 103 C80 15 158 -36 247 -36 L247 -36 Z M206 697 C206 676 227 664 246 664 C256 664 265 667 273 672 C281 676 357 752 363 760 C366 765 369 771 369 778 C369 799 348 811 329 811 C319 811 310 808 302 803 C294 799 218 723 212 715 C209 710 206 704 206 697 L206 697 Z " />
<glyph glyph-name="sacute" unicode="&#x15b;" horiz-adv-x="351" d="M179 436 C106 436 44 391 44 313 C44 252 89 207 143 185 C178 170 232 148 232 102 C232 69 218 36 180 36 C97 36 142 111 80 111 C58 111 32 96 32 72 C32 37 63 -2 93 -17 C117 -30 145 -36 172 -36 C257 -36 319 23 319 108 C319 163 276 208 229 231 C189 251 131 264 131 319 C131 354 146 365 180 365 L180 364 C231 361 210 314 259 314 C280 314 307 329 307 353 C307 356 306 359 305 362 C288 414 230 436 179 436 L179 436 Z M132 522 C132 501 153 489 172 489 C182 489 191 492 199 497 C207 501 283 577 289 585 C292 590 295 596 295 603 C295 624 274 636 255 636 C245 636 236 633 228 628 C220 624 144 548 138 540 C135 535 132 529 132 522 L132 522 Z " />
<glyph glyph-name="Scircumflex" unicode="&#x15c;" horiz-adv-x="500" d="M246 -36 C365 -36 444 45 444 164 C444 252 368 318 292 349 C286 352 280 354 273 357 C263 361 254 367 244 371 C195 388 154 411 154 469 C154 517 181 564 234 564 C279 564 318 547 339 505 C351 481 350 464 383 464 C405 464 431 479 431 503 C431 511 428 519 425 527 C393 603 320 636 242 636 C143 636 67 562 67 463 C67 379 123 335 195 308 C206 303 217 297 228 293 C285 269 357 229 357 158 C357 92 327 36 254 36 C207 36 170 59 150 102 C138 128 139 148 104 148 C83 148 56 133 56 109 C56 107 57 105 57 103 C79 15 157 -36 246 -36 L246 -36 Z M240 719 L268 691 C283 676 291 664 314 664 C335 664 362 679 362 703 C362 709 360 714 357 719 C353 725 277 801 271 804 C264 809 256 811 247 811 C237 811 228 808 220 803 C212 799 136 723 130 715 C127 710 124 704 124 697 C124 676 145 664 164 664 C196 664 220 698 240 719 L240 719 Z " />
<glyph glyph-name="scircumflex" unicode="&#x15d;" horiz-adv-x="351" d="M179 436 C106 436 44 391 44 313 C44 252 89 207 143 185 C178 170 232 148 232 102 C232 69 218 36 180 36 C97 36 142 111 80 111 C58 111 32 96 32 72 C32 37 63 -2 93 -17 C117 -30 145 -36 172 -36 C257 -36 319 23 319 108 C319 163 276 208 229 231 C189 251 131 264 131 319 C131 354 146 365 180 365 L180 364 C231 361 210 314 259 314 C280 314 307 329 307 353 C307 356 306 359 305 362 C288 414 230 436 179 436 L179 436 Z M172 544 L200 516 C215 501 223 489 246 489 C267 489 294 504 294 528 C294 534 292 539 289 544 C285 550 209 626 203 629 C196 634 188 636 179 636 C169 636 160 633 152 628 C144 624 68 548 62 540 C59 535 56 529 56 522 C56 501 77 489 96 489 C128 489 152 523 172 544 L172 544 Z " />
<glyph glyph-name="Scedilla" unicode="&#x15e;" horiz-adv-x="500" d="M246 -36 C365 -36 444 45 444 164 C444 252 368 318 292 349 C286 352 280 354 273 357 C263 361 254 367 244 371 C195 388 154 411 154 469 C154 517 181 564 234 564 C279 564 318 547 339 505 C351 481 350 464 383 464 C405 464 431 479 431 503 C431 511 428 519 425 527 C393 603 320 636 242 636 C143 636 67 562 67 463 C67 379 123 335 195 308 C206 303 217 297 228 293 C285 269 357 229 357 158 C357 92 327 36 254 36 C207 36 170 59 150 102 C138 128 139 148 104 148 C83 148 56 133 56 109 C56 107 57 105 57 103 C79 15 157 -36 246 -36 L246 -36 Z M250 -78 C250 -86 250 -108 246 -114 C231 -113 247 -64 197 -64 C176 -64 149 -79 149 -103 C149 -154 190 -186 239 -186 C290 -186 337 -151 337 -97 L337 -47 C337 4 296 36 247 36 C226 36 199 21 199 -3 C199 -22 214 -31 230 -34 C234 -35 238 -34 241 -36 C252 -41 250 -68 250 -78 L250 -78 Z " />
<glyph glyph-name="scedilla" unicode="&#x15f;" horiz-adv-x="351" d="M179 436 C106 436 44 391 44 313 C44 252 89 207 143 185 C178 170 232 148 232 102 C232 69 218 36 180 36 C97 36 142 111 80 111 C58 111 32 96 32 72 C32 37 63 -2 93 -17 C117 -30 145 -36 172 -36 C257 -36 319 23 319 108 C319 163 276 208 229 231 C189 251 131 264 131 319 C131 354 146 365 180 365 L180 364 C231 361 210 314 259 314 C280 314 307 329 307 353 C307 356 306 359 305 362 C288 414 230 436 179 436 L179 436 Z M182 -78 C182 -86 182 -108 178 -114 C163 -113 179 -64 129 -64 C108 -64 81 -79 81 -103 C81 -154 122 -186 171 -186 C222 -186 269 -151 269 -97 L269 -47 C269 4 228 36 179 36 C158 36 131 21 131 -3 C131 -22 146 -31 162 -34 C166 -35 170 -34 173 -36 C184 -41 182 -68 182 -78 L182 -78 Z " />
<glyph glyph-name="Scaron" unicode="&#x160;" horiz-adv-x="500" d="M246 -36 C365 -36 444 45 444 164 C444 252 368 318 292 349 C286 352 280 354 273 357 C263 361 254 367 244 371 C195 388 154 411 154 469 C154 517 181 564 234 564 C279 564 318 547 339 505 C351 481 350 464 383 464 C405 464 431 479 431 503 C431 511 428 519 425 527 C393 603 320 636 242 636 C143 636 67 562 67 463 C67 379 123 335 195 308 C206 303 217 297 228 293 C285 269 357 229 357 158 C357 92 327 36 254 36 C207 36 170 59 150 102 C138 128 139 148 104 148 C83 148 56 133 56 109 C56 107 57 105 57 103 C79 15 157 -36 246 -36 L246 -36 Z M246 664 C256 664 265 667 273 672 C281 676 357 752 363 760 C366 765 369 771 369 778 C369 799 348 811 329 811 C297 811 273 777 253 756 L225 784 C210 799 202 811 179 811 C158 811 131 796 131 772 C131 766 133 761 136 756 C140 750 216 674 222 671 C229 666 237 664 246 664 L246 664 Z " />
<glyph glyph-name="scaron" unicode="&#x161;" horiz-adv-x="351" d="M179 436 C106 436 44 391 44 313 C44 252 89 207 143 185 C178 170 232 148 232 102 C232 69 218 36 180 36 C97 36 142 111 80 111 C58 111 32 96 32 72 C32 37 63 -2 93 -17 C117 -30 145 -36 172 -36 C257 -36 319 23 319 108 C319 163 276 208 229 231 C189 251 131 264 131 319 C131 354 146 365 180 365 L180 364 C231 361 210 314 259 314 C280 314 307 329 307 353 C307 356 306 359 305 362 C288 414 230 436 179 436 L179 436 Z M172 489 C182 489 191 492 199 497 C207 501 283 577 289 585 C292 590 295 596 295 603 C295 624 274 636 255 636 C223 636 199 602 179 581 L151 609 C136 624 128 636 105 636 C84 636 57 621 57 597 C57 591 59 586 62 581 C66 575 142 499 148 496 C155 491 163 489 172 489 L172 489 Z " />
<glyph glyph-name="uni0162" unicode="&#x162;" horiz-adv-x="450" d="M294 3 C294 19 282 29 269 33 L269 564 L396 564 C417 564 444 579 444 603 C444 624 423 636 404 636 L54 636 C33 636 6 621 6 597 C6 576 27 564 46 564 L181 564 L181 31 C168 24 156 12 156 -3 C156 -25 178 -36 197 -36 C190 -66 156 -182 156 -203 C156 -224 177 -236 196 -236 C212 -236 227 -229 237 -216 C239 -213 241 -210 242 -206 C248 -189 294 -7 294 3 L294 3 Z " />
<glyph glyph-name="uni0163" unicode="&#x163;" horiz-adv-x="325" d="M344 3 C344 24 323 36 304 36 L255 36 C241 38 227 38 218 43 C184 58 170 99 170 133 L170 364 L247 364 C268 364 295 379 295 403 C295 424 274 436 255 436 L170 436 L170 503 C170 524 149 536 130 536 C109 536 82 521 82 497 L82 436 L55 436 C34 436 7 421 7 397 C7 376 28 364 47 364 L82 364 L82 122 C82 27 155 -36 247 -36 C240 -66 206 -182 206 -203 C206 -224 227 -236 246 -236 C262 -236 277 -229 287 -216 C289 -213 291 -210 292 -206 C298 -189 344 -7 344 3 L344 3 Z " />
<glyph glyph-name="Tcaron" unicode="&#x164;" horiz-adv-x="450" d="M404 636 L54 636 C33 636 6 621 6 597 C6 576 27 564 46 564 L181 564 L181 -3 C181 -24 202 -36 221 -36 C242 -36 269 -21 269 3 L269 564 L396 564 C417 564 444 579 444 603 C444 624 423 636 404 636 L404 636 Z M221 664 C231 664 240 667 248 672 C256 676 332 752 338 760 C341 765 344 771 344 778 C344 799 323 811 304 811 C272 811 248 777 228 756 L200 784 C185 799 177 811 154 811 C133 811 106 796 106 772 C106 766 108 761 111 756 C115 750 191 674 197 671 C204 666 212 664 221 664 L221 664 Z " />
<glyph glyph-name="tcaron" unicode="&#x165;" horiz-adv-x="325" d="M418 603 C418 624 397 636 378 636 L328 636 C307 636 280 621 280 597 C280 575 302 564 321 564 C315 541 294 466 285 424 C277 432 265 436 254 436 L169 436 L169 503 C169 524 148 536 129 536 C108 536 81 521 81 497 L81 436 L54 436 C33 436 6 421 6 397 C6 376 27 364 46 364 L81 364 L81 122 C81 27 155 -36 246 -36 C267 -36 294 -21 294 3 C294 43 241 32 217 43 C183 58 169 99 169 133 L169 364 L246 364 C260 364 275 370 285 381 C292 370 307 364 320 364 C336 364 351 371 361 384 C363 387 365 390 366 394 C372 411 418 593 418 603 L418 603 Z " />
<glyph glyph-name="Tbar" unicode="&#x166;" horiz-adv-x="450" d="M404 636 L54 636 C33 636 6 621 6 597 C6 576 27 564 46 564 L181 564 L181 -3 C181 -24 202 -36 221 -36 C242 -36 269 -21 269 3 L269 564 L396 564 C417 564 444 579 444 603 C444 624 423 636 404 636 L404 636 Z M146 689 L296 689 C317 689 344 704 344 728 C344 749 323 761 304 761 L154 761 C133 761 106 746 106 722 C106 701 127 689 146 689 L146 689 Z " />
<glyph glyph-name="tbar" unicode="&#x167;" horiz-adv-x="300" d="M255 436 L170 436 L170 464 L221 464 C242 464 269 479 269 503 C269 524 248 536 229 536 L79 536 C58 536 31 521 31 497 C31 476 52 464 71 464 L82 464 L82 436 L55 436 C34 436 7 421 7 397 C7 376 28 364 47 364 L82 364 L82 122 C82 27 156 -36 247 -36 C268 -36 295 -21 295 3 C295 43 242 32 218 43 C184 58 170 99 170 133 L170 364 L247 364 C268 364 295 379 295 403 C295 424 274 436 255 436 L255 436 Z " />
<glyph glyph-name="Utilde" unicode="&#x168;" horiz-adv-x="550" d="M56 597 L56 172 C56 106 90 33 147 -3 C184 -26 227 -36 271 -36 C300 -36 329 -31 356 -22 C440 6 494 91 494 178 L494 603 C494 624 473 636 454 636 C435 636 416 626 408 608 C404 598 406 564 406 551 L406 172 C406 155 403 138 397 122 C379 64 340 36 279 36 C215 36 172 67 153 128 C148 144 144 161 144 178 C144 304 145 431 145 557 C145 591 152 636 104 636 C83 636 56 621 56 597 L56 597 Z M328 736 C315 736 291 786 229 786 C178 786 131 751 131 697 C131 676 152 664 171 664 C190 664 211 675 217 694 C219 701 218 707 221 714 L223 714 C233 714 260 664 321 664 C372 664 419 699 419 753 C419 774 398 786 379 786 C329 786 333 740 328 736 L328 736 Z " />
<glyph glyph-name="utilde" unicode="&#x169;" horiz-adv-x="450" d="M306 36 L230 36 C172 36 144 80 144 133 L144 403 C144 424 123 436 104 436 C83 436 56 421 56 397 L56 122 C56 70 83 14 129 -12 C157 -29 189 -36 221 -36 L346 -36 C367 -36 394 -21 394 3 L394 403 C394 424 373 436 354 436 C336 436 317 426 309 409 C302 394 306 301 306 279 L306 36 Z M277 561 C264 561 240 611 178 611 C127 611 80 576 80 522 C80 501 101 489 120 489 C139 489 160 500 166 519 C168 526 167 532 170 539 L172 539 C182 539 209 489 270 489 C321 489 368 524 368 578 C368 599 347 611 328 611 C278 611 282 565 277 561 L277 561 Z " />
<glyph glyph-name="Umacron" unicode="&#x16a;" horiz-adv-x="550" d="M56 597 L56 172 C56 106 90 33 147 -3 C184 -26 227 -36 271 -36 C394 -36 494 49 494 178 L494 603 C494 624 473 636 454 636 C435 636 416 626 408 608 C404 598 406 564 406 551 L406 172 C406 155 403 138 397 122 C379 64 340 36 279 36 C215 36 172 67 153 128 C148 144 144 161 144 178 C144 304 145 431 145 557 C145 591 152 636 104 636 C83 636 56 621 56 597 L56 597 Z M196 689 L346 689 C367 689 394 704 394 728 C394 749 373 761 354 761 L204 761 C183 761 156 746 156 722 C156 701 177 689 196 689 L196 689 Z " />
<glyph glyph-name="umacron" unicode="&#x16b;" horiz-adv-x="450" d="M306 36 L230 36 C172 36 144 80 144 133 L144 403 C144 424 123 436 104 436 C83 436 56 421 56 397 L56 122 C56 26 129 -36 221 -36 L346 -36 C367 -36 394 -21 394 3 L394 403 C394 424 373 436 354 436 C336 436 317 426 309 409 C302 394 306 301 306 279 L306 36 Z M145 514 L295 514 C316 514 343 529 343 553 C343 574 322 586 303 586 L153 586 C132 586 105 571 105 547 C105 526 126 514 145 514 L145 514 Z " />
<glyph glyph-name="Ubreve" unicode="&#x16c;" horiz-adv-x="550" d="M56 597 L56 172 C56 106 90 33 147 -3 C184 -26 227 -36 271 -36 C300 -36 329 -31 356 -22 C440 6 494 91 494 178 L494 603 C494 624 473 636 454 636 C435 636 416 626 408 608 C404 598 406 564 406 551 L406 172 C406 155 403 138 397 122 C379 64 340 36 279 36 C215 36 172 67 153 128 C148 144 144 161 144 178 C144 304 145 431 145 557 C145 591 152 636 104 636 C83 636 56 621 56 597 L56 597 Z M156 772 C156 708 203 664 266 664 C332 664 394 708 394 778 C394 799 373 811 354 811 C345 811 335 808 327 804 C291 783 320 736 274 736 C227 736 267 811 204 811 C183 811 156 796 156 772 L156 772 Z " />
<glyph glyph-name="ubreve" unicode="&#x16d;" horiz-adv-x="450" d="M306 36 L230 36 C172 36 144 80 144 133 L144 403 C144 424 123 436 104 436 C83 436 56 421 56 397 L56 122 C56 70 83 14 129 -12 C157 -29 189 -36 221 -36 L346 -36 C367 -36 394 -21 394 3 L394 403 C394 424 373 436 354 436 C336 436 317 426 309 409 C302 394 306 301 306 279 L306 36 Z M105 597 C105 533 152 489 215 489 C281 489 343 533 343 603 C343 624 322 636 303 636 C294 636 284 633 276 629 C240 608 269 561 223 561 C176 561 216 636 153 636 C132 636 105 621 105 597 L105 597 Z " />
<glyph glyph-name="Uring" unicode="&#x16e;" horiz-adv-x="550" d="M56 597 L56 172 C56 106 90 33 147 -3 C184 -26 227 -36 271 -36 C300 -36 329 -31 356 -22 C440 6 494 91 494 178 L494 603 C494 624 473 636 454 636 C435 636 416 626 408 608 C404 598 406 564 406 551 L406 172 C406 155 403 138 397 122 C379 64 340 36 279 36 C215 36 172 67 153 128 C148 144 144 161 144 178 C144 304 145 431 145 557 C145 591 152 636 104 636 C83 636 56 621 56 597 L56 597 Z M396 701 C396 766 341 811 279 811 C215 811 155 762 155 695 C155 631 210 586 271 586 C292 586 319 601 319 625 C319 642 304 654 288 657 C283 658 277 657 271 659 C254 664 243 684 243 701 C243 717 252 739 271 739 C294 739 308 715 308 695 C308 644 261 668 239 639 C234 634 231 626 231 619 C231 598 252 586 271 586 C335 586 396 634 396 701 L396 701 Z " />
<glyph glyph-name="uring" unicode="&#x16f;" horiz-adv-x="450" d="M306 36 L230 36 C172 36 144 80 144 133 L144 403 C144 424 123 436 104 436 C83 436 56 421 56 397 L56 122 C56 70 83 14 129 -12 C157 -29 189 -36 221 -36 L346 -36 C367 -36 394 -21 394 3 L394 403 C394 424 373 436 354 436 C336 436 317 426 309 409 C302 394 306 301 306 279 L306 36 Z M345 526 C345 591 290 636 228 636 C164 636 104 587 104 520 C104 456 159 411 220 411 C241 411 268 426 268 450 C268 467 253 479 237 482 C232 483 226 482 220 484 C203 489 192 509 192 526 C192 542 201 564 220 564 C243 564 257 540 257 520 C257 469 210 493 188 464 C183 459 180 451 180 444 C180 423 201 411 220 411 C284 411 345 459 345 526 L345 526 Z " />
<glyph glyph-name="Uhungarumlaut" unicode="&#x170;" horiz-adv-x="550" d="M56 597 L56 172 C56 106 90 33 147 -3 C184 -26 227 -36 271 -36 C300 -36 329 -31 356 -22 C440 6 494 91 494 178 L494 603 C494 624 473 636 454 636 C435 636 416 626 408 608 C404 598 406 564 406 551 L406 172 C406 155 403 138 397 122 C379 64 340 36 279 36 C215 36 172 67 153 128 C148 144 144 161 144 178 C144 304 145 431 145 557 C145 591 152 636 104 636 C83 636 56 621 56 597 L56 597 Z M147 697 C147 676 168 664 187 664 C197 664 206 667 214 672 C222 676 298 752 304 760 C307 765 310 771 310 778 C310 799 289 811 270 811 C260 811 251 808 243 803 C235 799 159 723 153 715 C150 710 147 704 147 697 L147 697 Z M322 697 C322 676 343 664 362 664 C372 664 381 667 389 672 C397 676 473 752 479 760 C482 765 485 771 485 778 C485 799 464 811 445 811 C435 811 426 808 418 803 C410 799 334 723 328 715 C325 710 322 704 322 697 L322 697 Z " />
<glyph glyph-name="uhungarumlaut" unicode="&#x171;" horiz-adv-x="450" d="M306 36 L230 36 C172 36 144 80 144 133 L144 403 C144 424 123 436 104 436 C83 436 56 421 56 397 L56 122 C56 70 83 14 129 -12 C157 -29 189 -36 221 -36 L346 -36 C367 -36 394 -21 394 3 L394 403 C394 424 373 436 354 436 C336 436 317 426 309 409 C302 394 306 301 306 279 L306 36 Z M96 522 C96 501 117 489 136 489 C146 489 155 492 163 497 C171 501 247 577 253 585 C256 590 259 596 259 603 C259 624 238 636 219 636 C209 636 200 633 192 628 C184 624 108 548 102 540 C99 535 96 529 96 522 L96 522 Z M271 522 C271 501 292 489 311 489 C321 489 330 492 338 497 C346 501 422 577 428 585 C431 590 434 596 434 603 C434 624 413 636 394 636 C384 636 375 633 367 628 C359 624 283 548 277 540 C274 535 271 529 271 522 L271 522 Z " />
<glyph glyph-name="Uogonek" unicode="&#x172;" horiz-adv-x="500" d="M31 597 L31 172 C31 86 81 7 162 -22 C158 -31 156 -42 156 -53 L156 -103 C156 -154 197 -186 246 -186 C297 -186 344 -151 344 -97 C344 -76 323 -64 304 -64 C254 -64 258 -110 253 -114 C241 -112 243 -81 243 -71 C243 -63 243 -42 247 -36 C369 -36 469 50 469 178 L469 603 C469 624 448 636 429 636 C410 636 391 626 383 608 C379 598 381 564 381 551 L381 172 C381 155 378 138 372 122 C354 64 315 36 254 36 C190 36 147 67 128 128 C123 144 119 161 119 178 C119 304 120 431 120 557 C120 591 127 636 79 636 C58 636 31 621 31 597 L31 597 Z " />
<glyph glyph-name="uogonek" unicode="&#x173;" horiz-adv-x="400" d="M282 36 L206 36 C148 36 120 80 120 133 L120 403 C120 424 99 436 80 436 C59 436 32 421 32 397 L32 122 C32 70 59 14 105 -12 C108 -14 112 -16 115 -18 C110 -28 107 -40 107 -53 L107 -103 C107 -154 148 -186 197 -186 C248 -186 295 -151 295 -97 C295 -76 274 -64 255 -64 C205 -64 209 -110 204 -114 C192 -112 194 -81 194 -71 C194 -63 194 -42 198 -36 L322 -36 C343 -36 370 -21 370 3 L370 403 C370 424 349 436 330 436 C312 436 293 426 285 409 C278 394 282 301 282 279 L282 36 Z " />
<glyph glyph-name="Wcircumflex" unicode="&#x174;" horiz-adv-x="700" d="M492 145 C481 177 393 416 387 422 C377 431 368 436 354 436 C337 436 326 430 314 418 C307 410 222 176 209 144 L126 478 C121 496 94 612 90 618 C80 630 70 636 54 636 C33 636 6 621 6 597 C6 587 34 484 37 470 C69 342 100 215 133 87 C134 81 158 -15 160 -16 C170 -30 178 -36 196 -36 C214 -36 223 -30 236 -18 C243 -10 336 243 349 278 C362 244 455 -13 462 -20 C472 -31 481 -36 496 -36 C515 -36 529 -28 539 -12 C540 -12 694 587 694 603 C694 624 673 636 654 636 C635 636 622 628 611 614 C604 604 506 198 492 145 L492 145 Z M347 719 L375 691 C390 676 398 664 421 664 C442 664 469 679 469 703 C469 709 467 714 464 719 C460 725 384 801 378 804 C371 809 363 811 354 811 C344 811 335 808 327 803 C319 799 243 723 237 715 C234 710 231 704 231 697 C231 676 252 664 271 664 C303 664 327 698 347 719 L347 719 Z " />
<glyph glyph-name="wcircumflex" unicode="&#x175;" horiz-adv-x="550" d="M392 139 C383 163 323 316 316 323 C307 332 297 336 284 336 C268 336 257 330 245 319 C237 311 174 157 163 133 C155 166 96 412 90 419 C80 431 70 436 55 436 C34 436 7 421 7 397 C7 382 110 -16 111 -18 C121 -30 131 -36 147 -36 C163 -36 174 -30 186 -19 C194 -11 266 163 277 189 C288 163 358 -16 365 -23 C375 -32 384 -36 397 -36 C415 -36 429 -28 440 -14 C441 -11 443 -8 444 -5 C470 91 492 189 516 285 C522 307 545 387 545 403 C545 424 524 436 505 436 C488 436 474 428 463 415 C456 406 400 173 392 139 L392 139 Z M272 544 L300 516 C315 501 323 489 346 489 C367 489 394 504 394 528 C394 534 392 539 389 544 C385 550 309 626 303 629 C296 634 288 636 279 636 C269 636 260 633 252 628 C244 624 168 548 162 540 C159 535 156 529 156 522 C156 501 177 489 196 489 C228 489 252 523 272 544 L272 544 Z " />
<glyph glyph-name="Ycircumflex" unicode="&#x176;" horiz-adv-x="444" d="M226 403 L226 404 C190 460 155 517 119 573 C114 581 90 620 84 625 C76 632 65 636 54 636 C33 636 6 621 6 597 C6 592 8 588 10 584 C15 573 23 562 29 552 L154 356 C163 342 171 325 181 311 L181 -3 C181 -24 202 -36 221 -36 C242 -36 269 -21 269 3 L269 319 C273 326 278 334 282 342 L331 420 L400 533 C411 551 424 569 433 588 C436 593 438 598 438 603 C438 624 417 636 398 636 C385 636 372 631 362 622 C349 610 326 566 315 548 L226 403 Z M219 719 L247 691 C262 676 270 664 293 664 C314 664 341 679 341 703 C341 709 339 714 336 719 C332 725 256 801 250 804 C243 809 235 811 226 811 C216 811 207 808 199 803 C191 799 115 723 109 715 C106 710 103 704 103 697 C103 676 124 664 143 664 C175 664 199 698 219 719 L219 719 Z " />
<glyph glyph-name="ycircumflex" unicode="&#x177;" horiz-adv-x="350" d="M344 403 C344 424 323 436 304 436 C287 436 271 428 261 414 C254 403 235 330 230 312 L178 140 C141 260 91 416 90 418 C79 430 71 436 54 436 C33 436 6 421 6 397 C6 387 115 43 133 -11 L118 -60 C113 -76 109 -92 104 -107 C98 -123 83 -153 67 -161 C57 -166 51 -164 41 -166 C24 -170 6 -185 6 -203 C6 -224 27 -236 46 -236 C124 -236 172 -174 192 -105 C229 16 265 138 302 259 C309 282 344 390 344 403 L344 403 Z M172 544 L200 516 C215 501 223 489 246 489 C267 489 294 504 294 528 C294 534 292 539 289 544 C285 550 209 626 203 629 C196 634 188 636 179 636 C169 636 160 633 152 628 C144 624 68 548 62 540 C59 535 56 529 56 522 C56 501 77 489 96 489 C128 489 152 523 172 544 L172 544 Z " />
<glyph glyph-name="Ydieresis" unicode="&#x178;" horiz-adv-x="444" d="M226 403 L226 404 C190 460 155 517 119 573 C114 581 90 620 84 625 C76 632 65 636 54 636 C33 636 6 621 6 597 C6 592 8 588 10 584 C15 573 23 562 29 552 L154 356 C163 342 171 325 181 311 L181 -3 C181 -24 202 -36 221 -36 C242 -36 269 -21 269 3 L269 319 C273 326 278 334 282 342 L331 420 L400 533 C411 551 424 569 433 588 C436 593 438 598 438 603 C438 624 417 636 398 636 C385 636 372 631 362 622 C349 610 326 566 315 548 L226 403 Z M253 772 L253 697 C253 676 274 664 293 664 C314 664 341 679 341 703 L341 778 C341 799 320 811 301 811 C280 811 253 796 253 772 L253 772 Z M128 772 L128 697 C128 676 149 664 168 664 C189 664 216 679 216 703 L216 778 C216 799 195 811 176 811 C155 811 128 796 128 772 L128 772 Z " />
<glyph glyph-name="Zacute" unicode="&#x179;" horiz-adv-x="500" d="M142 36 L143 36 L359 407 L431 531 C440 546 469 587 469 603 C469 624 448 636 429 636 L79 636 C58 636 31 621 31 597 C31 583 42 572 55 567 C73 561 140 564 164 564 L358 564 L357 564 L141 193 L69 69 C60 54 31 13 31 -3 C31 -24 52 -36 71 -36 L421 -36 C442 -36 469 -21 469 3 C469 17 458 28 445 33 C427 39 360 36 336 36 L142 36 Z M205 697 C205 676 226 664 245 664 C255 664 264 667 272 672 C280 676 356 752 362 760 C365 765 368 771 368 778 C368 799 347 811 328 811 C318 811 309 808 301 803 C293 799 217 723 211 715 C208 710 205 704 205 697 L205 697 Z " />
<glyph glyph-name="zacute" unicode="&#x17a;" horiz-adv-x="400" d="M144 36 L294 275 L342 352 C350 364 359 376 365 389 C367 394 369 398 369 403 C369 424 348 436 329 436 L79 436 C58 436 31 421 31 397 C31 362 74 364 98 364 L256 364 L106 125 L58 48 C50 36 41 24 35 11 C33 6 31 2 31 -3 C31 -24 52 -36 71 -36 L321 -36 C342 -36 369 -21 369 3 C369 38 326 36 302 36 L144 36 Z M155 522 C155 501 176 489 195 489 C205 489 214 492 222 497 C230 501 306 577 312 585 C315 590 318 596 318 603 C318 624 297 636 278 636 C268 636 259 633 251 628 C243 624 167 548 161 540 C158 535 155 529 155 522 L155 522 Z " />
<glyph glyph-name="Zdotaccent" unicode="&#x17b;" horiz-adv-x="500" d="M142 36 L143 36 L431 531 C440 546 469 587 469 603 C469 624 448 636 429 636 L79 636 C58 636 31 621 31 597 C31 583 42 572 55 567 C73 561 140 564 164 564 L358 564 L357 564 L69 69 C60 54 31 13 31 -3 C31 -24 52 -36 71 -36 L421 -36 C442 -36 469 -21 469 3 C469 17 458 28 445 33 C427 39 360 36 336 36 L142 36 Z M206 772 L206 697 C206 676 227 664 246 664 C267 664 294 679 294 703 L294 778 C294 799 273 811 254 811 C233 811 206 796 206 772 L206 772 Z " />
<glyph glyph-name="zdotaccent" unicode="&#x17c;" horiz-adv-x="350" d="M120 36 L318 352 C326 364 335 376 341 389 C343 394 345 398 345 403 C345 424 324 436 305 436 L55 436 C34 436 7 421 7 397 C7 362 50 364 74 364 L232 364 L34 48 C26 36 17 24 11 11 C9 6 7 2 7 -3 C7 -24 28 -36 47 -36 L297 -36 C318 -36 345 -21 345 3 C345 38 302 36 278 36 L120 36 Z M131 597 L131 522 C131 501 152 489 171 489 C192 489 219 504 219 528 L219 603 C219 624 198 636 179 636 C158 636 131 621 131 597 L131 597 Z " />
<glyph glyph-name="Zcaron" unicode="&#x17d;" horiz-adv-x="500" d="M142 36 L143 36 L359 407 L431 531 C440 546 469 587 469 603 C469 624 448 636 429 636 L79 636 C58 636 31 621 31 597 C31 583 42 572 55 567 C73 561 140 564 164 564 L358 564 L357 564 L141 193 L69 69 C60 54 31 13 31 -3 C31 -24 52 -36 71 -36 L421 -36 C442 -36 469 -21 469 3 C469 17 458 28 445 33 C427 39 360 36 336 36 L142 36 Z M246 664 C256 664 265 667 273 672 C281 676 357 752 363 760 C366 765 369 771 369 778 C369 799 348 811 329 811 C297 811 273 777 253 756 L225 784 C210 799 202 811 179 811 C158 811 131 796 131 772 C131 766 133 761 136 756 C140 750 216 674 222 671 C229 666 237 664 246 664 L246 664 Z " />
<glyph glyph-name="zcaron" unicode="&#x17e;" horiz-adv-x="400" d="M144 36 L294 275 L342 352 C350 364 359 376 365 389 C367 394 369 398 369 403 C369 424 348 436 329 436 L79 436 C58 436 31 421 31 397 C31 362 74 364 98 364 L256 364 L106 125 L58 48 C50 36 41 24 35 11 C33 6 31 2 31 -3 C31 -24 52 -36 71 -36 L321 -36 C342 -36 369 -21 369 3 C369 38 326 36 302 36 L144 36 Z M195 489 C205 489 214 492 222 497 C230 501 306 577 312 585 C315 590 318 596 318 603 C318 624 297 636 278 636 C246 636 222 602 202 581 L174 609 C159 624 151 636 128 636 C107 636 80 621 80 597 C80 591 82 586 85 581 C89 575 165 499 171 496 C178 491 186 489 195 489 L195 489 Z " />
<glyph glyph-name="longs" unicode="&#x17f;" horiz-adv-x="200" d="M244 603 C244 624 223 636 204 636 C104 636 31 568 31 467 L31 -3 C31 -24 52 -36 71 -36 C89 -36 108 -26 116 -9 C121 3 119 57 119 74 L119 439 C119 448 118 457 118 466 C118 489 122 514 135 534 C151 559 169 563 198 564 C219 566 244 580 244 603 L244 603 Z " />
<glyph glyph-name="uni0180" unicode="&#x180;" horiz-adv-x="425" d="M306 242 L306 147 C306 132 303 118 298 104 C283 57 253 36 204 36 L144 36 C144 154 144 273 144 391 C144 408 145 607 142 612 C135 628 122 636 104 636 C83 636 56 621 56 597 L56 -3 C56 -24 77 -36 96 -36 L196 -36 C218 -36 241 -32 262 -26 C341 -5 394 73 394 153 L394 253 C394 316 360 383 303 413 C271 429 238 436 202 436 C181 436 154 421 154 397 C154 373 176 366 196 364 C250 361 280 344 298 290 C304 274 306 258 306 242 L306 242 Z M50 514 L200 514 C221 514 248 529 248 553 C248 574 227 586 208 586 L58 586 C37 586 10 571 10 547 C10 526 31 514 50 514 L50 514 Z " />
<glyph glyph-name="uni0181" unicode="&#x181;" horiz-adv-x="700" d="M371 -36 L421 -36 C450 -36 479 -31 506 -22 C590 7 644 91 644 178 C644 244 610 317 553 353 C516 376 473 386 429 386 L254 386 C233 386 206 371 206 347 C206 326 227 314 246 314 L396 314 C426 314 457 319 485 330 C546 352 594 412 594 478 C594 530 561 584 516 609 C482 628 443 636 404 636 L254 636 C233 636 206 621 206 597 L206 -3 C206 -24 227 -36 246 -36 C265 -36 284 -26 292 -8 C296 3 294 47 294 62 L294 564 L396 564 C441 564 481 550 499 505 C503 495 506 483 506 472 C506 459 502 445 496 433 C473 385 423 385 376 385 C338 385 299 386 261 386 C238 386 206 375 206 347 C206 320 235 314 256 314 C308 314 360 315 412 315 C471 315 514 298 540 242 C549 222 556 194 556 172 C556 149 549 119 538 99 C505 34 461 36 398 36 C372 36 331 31 331 -3 C331 -24 352 -36 371 -36 L371 -36 Z M294 603 C294 624 273 636 254 636 L229 636 C135 636 56 571 56 473 C56 452 77 440 96 440 C119 440 141 455 144 479 C148 531 168 564 224 564 L234 564 C259 564 294 572 294 603 L294 603 Z " />
<glyph glyph-name="uni0182" unicode="&#x182;" horiz-adv-x="500" d="M31 597 L31 -3 C31 -24 52 -36 71 -36 C92 -36 119 -21 119 3 L119 603 C119 624 98 636 79 636 C58 636 31 621 31 597 L31 597 Z M71 -36 L246 -36 C275 -36 304 -31 331 -22 C415 6 469 91 469 178 L469 228 C469 294 435 367 378 403 C341 426 298 436 254 436 L204 436 C183 436 156 421 156 397 C156 357 215 364 240 364 C295 364 333 351 361 300 C372 279 381 246 381 222 L381 172 C381 151 375 126 367 107 C335 34 284 36 215 36 C173 36 131 36 89 36 C65 36 31 27 31 -3 C31 -24 52 -36 71 -36 L71 -36 Z M81 564 L231 564 C252 564 279 579 279 603 C279 624 258 636 239 636 L89 636 C68 636 41 621 41 597 C41 576 62 564 81 564 L81 564 Z " />
<glyph glyph-name="uni0183" unicode="&#x183;" horiz-adv-x="400" d="M281 242 L281 147 C281 132 278 118 273 104 C258 57 228 36 179 36 L119 36 C119 154 119 273 119 391 C119 408 120 607 117 612 C110 628 97 636 79 636 C58 636 31 621 31 597 L31 -3 C31 -24 52 -36 71 -36 L171 -36 C193 -36 216 -32 237 -26 C316 -5 369 73 369 153 L369 253 C369 316 335 383 278 413 C246 429 213 436 177 436 C156 436 129 421 129 397 C129 373 151 366 171 364 C225 361 255 344 273 290 C279 274 281 258 281 242 L281 242 Z M71 564 L221 564 C242 564 269 579 269 603 C269 624 248 636 229 636 L79 636 C58 636 31 621 31 597 C31 576 52 564 71 564 L71 564 Z " />
<glyph glyph-name="uni0184" unicode="&#x184;" horiz-adv-x="600" d="M131 597 L131 -3 C131 -24 152 -36 171 -36 C192 -36 219 -21 219 3 L219 603 C219 624 198 636 179 636 C158 636 131 621 131 597 L131 597 Z M171 -36 L346 -36 C375 -36 404 -31 431 -22 C515 6 569 91 569 178 L569 228 C569 294 535 367 478 403 C441 426 398 436 354 436 L304 436 C283 436 256 421 256 397 C256 357 315 364 340 364 C395 364 433 351 461 300 C472 279 481 246 481 222 L481 172 C481 151 475 126 467 107 C435 34 384 36 315 36 C273 36 231 36 189 36 C165 36 131 27 131 -3 C131 -24 152 -36 171 -36 L171 -36 Z M21 564 L171 564 C192 564 219 579 219 603 C219 624 198 636 179 636 L29 636 C8 636 -19 621 -19 597 C-19 576 2 564 21 564 L21 564 Z " />
<glyph glyph-name="uni0185" unicode="&#x185;" horiz-adv-x="450" d="M121 -36 L246 -36 C341 -36 419 30 419 128 C419 180 392 236 346 262 C309 284 275 286 233 286 C210 286 181 273 181 247 C181 215 217 214 240 214 C277 214 300 207 318 173 C326 159 331 138 331 122 C331 91 315 52 285 41 C271 35 240 35 225 35 C197 35 170 37 143 37 C118 37 81 29 81 -3 C81 -24 102 -36 121 -36 L121 -36 Z M81 397 L81 -3 C81 -24 102 -36 121 -36 C142 -36 169 -21 169 3 L169 403 C169 424 148 436 129 436 C108 436 81 421 81 397 L81 397 Z M21 364 L121 364 C142 364 169 379 169 403 C169 424 148 436 129 436 L29 436 C8 436 -19 421 -19 397 C-19 376 2 364 21 364 L21 364 Z " />
<glyph glyph-name="uni0186" unicode="&#x186;" horiz-adv-x="500" d="M196 636 C120 636 32 602 7 524 C7 521 6 519 6 516 C6 492 33 477 54 477 C69 477 83 483 90 497 C93 502 95 507 98 512 C119 551 162 564 204 564 C265 564 304 536 322 478 C328 462 331 445 331 428 L331 183 C331 101 283 36 196 36 C148 36 107 54 87 100 C83 107 82 115 78 122 C71 139 52 148 33 148 C15 148 -6 137 -6 116 C-6 106 -1 93 3 84 C39 3 118 -36 204 -36 C248 -36 290 -26 328 -3 C385 32 419 106 419 172 L419 422 C419 509 365 594 281 622 C254 631 225 636 196 636 L196 636 Z " />
<glyph glyph-name="uni0187" unicode="&#x187;" horiz-adv-x="525" d="M254 636 C225 636 196 631 169 622 C85 594 31 509 31 422 L31 172 C31 106 65 32 122 -3 C160 -26 202 -36 246 -36 C332 -36 411 3 447 84 C451 93 456 106 456 116 C456 137 435 148 417 148 C398 148 379 139 372 122 C368 115 367 107 363 100 C343 54 302 36 254 36 C167 36 119 101 119 183 L119 428 C119 445 122 462 128 478 C146 536 185 564 246 564 C288 564 331 551 352 512 C355 507 357 502 360 497 C367 483 381 477 396 477 C417 477 444 492 444 516 C444 519 443 521 443 524 C418 602 330 636 254 636 L254 636 Z M452 786 C351 786 281 716 281 615 L281 583 C281 562 302 550 321 550 C342 550 369 565 369 589 C369 629 366 687 410 708 C434 719 494 708 494 753 C494 776 472 786 452 786 L452 786 Z " />
<glyph glyph-name="uni0188" unicode="&#x188;" horiz-adv-x="450" d="M204 36 C150 36 119 78 119 129 L119 253 C119 308 127 364 196 364 C264 364 250 314 296 314 C317 314 344 329 344 353 C344 379 302 410 281 420 C257 430 230 436 204 436 C104 436 31 368 31 267 L31 122 C31 70 58 14 104 -12 C132 -29 164 -36 196 -36 C216 -36 236 -33 255 -27 C284 -18 344 19 344 53 C344 74 323 86 304 86 C253 86 269 36 204 36 L204 36 Z M282 273 C282 252 303 240 322 240 C332 240 342 243 350 248 C376 264 370 289 370 314 L370 374 C371 435 376 485 448 489 C469 491 494 504 494 528 C494 549 473 561 454 561 C411 561 368 548 336 519 C285 472 284 419 283 355 C283 328 282 300 282 273 L282 273 Z " />
<glyph glyph-name="uni0189" unicode="&#x189;" horiz-adv-x="525" d="M233 -36 C270 -36 307 -33 342 -22 C432 7 494 88 494 183 L494 403 C494 483 449 569 377 607 C340 627 297 636 254 636 L104 636 C83 636 56 621 56 597 L56 -3 C56 -24 77 -36 96 -36 C115 -36 134 -26 142 -8 C146 3 144 48 144 62 L144 564 L246 564 C322 564 372 527 396 455 C402 436 406 416 406 397 L406 172 C406 150 398 122 387 103 C355 43 300 36 239 36 C215 36 181 27 181 -3 C181 -32 211 -36 233 -36 L233 -36 Z M46 314 L246 314 C267 314 294 329 294 353 C294 374 273 386 254 386 L54 386 C33 386 6 371 6 347 C6 326 27 314 46 314 L46 314 Z " />
<glyph glyph-name="uni018A" unicode="&#x18a;" horiz-adv-x="600" d="M308 -36 C345 -36 382 -33 417 -22 C507 7 569 88 569 183 L569 403 C569 483 524 569 452 607 C415 627 372 636 329 636 L179 636 C158 636 131 621 131 597 L131 -3 C131 -24 152 -36 171 -36 C190 -36 209 -26 217 -8 C221 3 219 48 219 62 L219 564 L321 564 C397 564 447 527 471 455 C477 436 481 416 481 397 L481 172 C481 150 473 122 462 103 C430 43 375 36 314 36 C290 36 256 27 256 -3 C256 -32 286 -36 308 -36 L308 -36 Z M219 603 C219 624 198 636 179 636 L154 636 C60 636 -19 571 -19 473 C-19 452 2 440 21 440 C44 440 66 455 69 479 C73 531 93 564 149 564 L159 564 C184 564 219 572 219 603 L219 603 Z " />
<glyph glyph-name="uni018C" unicode="&#x18c;" horiz-adv-x="400" d="M369 4 L369 604 C369 625 348 637 329 637 C308 637 281 622 281 598 L281 -2 C281 -23 302 -35 321 -35 C342 -35 369 -20 369 4 L369 4 Z M118 158 L118 253 C118 271 123 292 131 309 C152 358 186 364 236 364 L310 364 C334 364 368 373 368 403 C368 424 347 436 328 436 L228 436 C206 436 183 433 162 426 C83 404 30 327 30 247 L30 147 C30 84 64 17 121 -13 C151 -29 186 -36 220 -36 C241 -36 268 -21 268 3 C268 24 248 34 230 36 C176 39 144 55 126 108 C121 125 118 141 118 158 L118 158 Z M170 564 L320 564 C341 564 368 579 368 603 C368 624 347 636 328 636 L178 636 C157 636 130 621 130 597 C130 576 151 564 170 564 L170 564 Z " />
<glyph glyph-name="uni0190" unicode="&#x190;" horiz-adv-x="450" d="M369 149 C369 173 342 188 321 188 C278 188 284 159 278 128 C266 71 230 38 171 38 C89 38 69 99 69 170 C69 198 68 217 77 244 C96 298 127 312 181 316 C199 318 219 328 219 349 C219 373 194 386 173 388 C160 388 148 389 136 394 C109 407 94 445 94 474 C94 485 96 496 100 507 C112 546 138 566 179 566 C223 566 246 541 254 499 C256 490 255 481 257 472 C263 453 285 441 304 441 C323 441 344 453 344 474 C344 572 266 638 171 638 C138 638 107 631 79 614 C33 588 6 531 6 480 C6 437 27 385 60 358 C-2 317 -19 252 -19 182 L-19 153 C-19 77 30 3 102 -21 C127 -30 153 -34 179 -34 C286 -34 369 39 369 149 L369 149 Z " />
<glyph glyph-name="florin" unicode="&#x192;" horiz-adv-x="225" d="M144 -67 L144 3 C144 27 144 50 144 74 L144 364 L196 364 C217 364 244 379 244 403 C244 424 223 436 204 436 L144 436 L144 439 C144 448 143 457 143 466 C143 489 147 514 160 534 C176 559 194 563 223 564 C244 566 269 580 269 603 C269 624 248 636 229 636 C129 636 56 568 56 467 L56 436 L29 436 C8 436 -19 421 -19 397 C-19 376 2 364 21 364 L56 364 L56 -3 C56 -4 56 -5 56 -6 C56 -8 56 -10 56 -13 C56 -28 57 -43 57 -58 C57 -83 54 -110 41 -133 C25 -159 6 -163 -23 -164 C-44 -166 -69 -180 -69 -203 C-69 -224 -48 -236 -29 -236 C71 -236 144 -168 144 -67 L144 -67 Z " />
<glyph glyph-name="uni01B5" unicode="&#x1b5;" horiz-adv-x="500" d="M142 36 L143 36 L359 407 L431 531 C440 546 469 587 469 603 C469 624 448 636 429 636 L79 636 C58 636 31 621 31 597 C31 583 42 572 55 567 C73 561 140 564 164 564 L358 564 L357 564 L141 193 L69 69 C60 54 31 13 31 -3 C31 -24 52 -36 71 -36 L421 -36 C442 -36 469 -21 469 3 C469 17 458 28 445 33 C427 39 360 36 336 36 L142 36 Z M221 364 L371 364 C392 364 419 379 419 403 C419 424 398 436 379 436 L229 436 C208 436 181 421 181 397 C181 376 202 364 221 364 L221 364 Z " />
<glyph glyph-name="uni01C4" unicode="&#x1c4;" horiz-adv-x="925" d="M208 -36 C245 -36 282 -33 317 -22 C407 7 469 88 469 183 L469 403 C469 483 424 569 352 607 C315 627 272 636 229 636 L79 636 C58 636 31 621 31 597 L31 -3 C31 -24 52 -36 71 -36 C90 -36 109 -26 117 -8 C121 3 119 48 119 62 L119 564 L221 564 C297 564 347 527 371 455 C377 436 381 416 381 397 L381 172 C381 150 373 122 362 103 C330 43 275 36 214 36 C190 36 156 27 156 -3 C156 -32 186 -36 208 -36 L208 -36 Z M567 36 L568 36 L784 407 L856 531 C865 546 894 587 894 603 C894 624 873 636 854 636 L504 636 C483 636 456 621 456 597 C456 583 467 572 480 567 C498 561 565 564 589 564 L783 564 L782 564 L566 193 L494 69 C485 54 456 13 456 -3 C456 -24 477 -36 496 -36 L846 -36 C867 -36 894 -21 894 3 C894 17 883 28 870 33 C852 39 785 36 761 36 L567 36 Z M671 664 C681 664 690 667 698 672 C706 676 782 752 788 760 C791 765 794 771 794 778 C794 799 773 811 754 811 C722 811 698 777 678 756 L650 784 C635 799 627 811 604 811 C583 811 556 796 556 772 C556 766 558 761 561 756 C565 750 641 674 647 671 C654 666 662 664 671 664 L671 664 Z " />
</font>
</svg>
