<?xml version="1.0" encoding="UTF-8"?>
<svg xmlns="http://www.w3.org/2000/svg" xmlns:xlink="http://www.w3.org/1999/xlink" version="1.2" >
<font id="Advocaat Bold">
<font-face  font-family="Advocaat" units-per-em="1000" ascent="750" descent="-250" font-style="normal" font-weight="700" font-stretch="normal" cap-height="700" x-height="500" underline-position="-75" underline-thickness="50" />
<missing-glyph  horiz-adv-x="182" d="" />
<glyph glyph-name="NULL" d="" />
<glyph glyph-name="CR" unicode="&#xd;" horiz-adv-x="182" d="" />
<glyph glyph-name="space" unicode="&#x20;" horiz-adv-x="182" d="" />
<glyph glyph-name="exclam" unicode="&#x21;" horiz-adv-x="246" d="M29 315 C40 385 47 462 47 533 C47 543 42 552 42 561 C42 576 46 592 46 607 L46 618 C46 652 76 697 98 697 C123 697 177 674 177 643 C177 588 170 534 170 479 C170 465 171 452 171 438 L171 416 C171 394 172 372 183 351 C189 338 192 325 192 311 C192 265 159 213 98 213 C56 213 39 247 29 315 L29 315 Z M183 53 C183 17 145 -7 101 -7 C69 -7 48 34 48 68 C48 98 69 118 103 118 C139 118 183 88 183 57 L183 53 L183 53 Z " />
<glyph glyph-name="quotedbl" unicode="&#x22;" horiz-adv-x="394" d="M245 739 L251 739 C295 739 341 700 341 662 L341 655 C333 619 326 584 319 548 L319 542 C319 531 312 524 312 513 C312 499 319 480 319 466 C319 445 304 419 279 419 C241 419 198 466 198 503 C198 513 197 524 197 535 C197 574 200 613 211 649 C212 657 214 664 214 672 C214 678 212 685 212 691 C212 715 218 740 238 740 C240 740 242 739 245 739 L245 739 Z M88 423 C85 422 82 422 79 422 C22 422 7 477 7 518 C8 529 9 541 9 553 C9 571 8 589 8 607 C8 657 5 741 55 741 C107 741 121 680 121 669 C121 659 119 649 119 639 C119 593 130 546 130 499 C130 433 123 425 88 423 L88 423 Z " />
<glyph glyph-name="numbersign" unicode="&#x23;" horiz-adv-x="765" d="M127 98 C101 98 85 96 73 96 C45 96 -28 114 -28 169 C-28 234 52 238 103 238 C115 238 127 235 139 235 C155 235 193 240 193 263 C193 273 185 278 172 278 C154 278 136 272 118 272 C86 272 45 297 45 357 C45 407 104 418 149 418 C162 418 174 417 186 417 C202 417 219 418 236 418 C242 442 249 464 249 488 L249 503 C249 541 281 564 315 564 C339 564 389 520 389 501 C389 485 381 459 376 436 C383 433 390 432 397 432 C472 432 456 571 528 571 C569 571 617 520 617 488 C617 475 605 462 592 443 C612 436 630 437 647 437 C689 435 745 407 745 367 C745 331 700 307 668 307 C652 307 636 315 623 315 C614 315 603 309 593 309 C583 309 574 311 565 313 C553 293 549 285 549 274 C549 268 550 262 552 252 C572 251 592 249 612 249 L628 249 C670 249 701 229 728 196 C732 190 735 184 735 178 C735 144 693 122 662 122 C642 122 621 128 600 128 C548 128 542 120 542 87 C542 39 504 -22 460 -22 C427 -22 378 1 378 45 C376 72 361 112 342 112 C319 112 302 46 290 13 C279 -15 250 -29 220 -29 C191 -29 169 -24 160 2 C148 34 138 65 127 98 L127 98 Z M345 299 C341 289 331 274 331 264 C331 249 348 246 360 246 C391 246 397 262 412 297 C400 301 395 303 385 303 C377 303 366 302 345 299 L345 299 Z " />
<glyph glyph-name="dollar" unicode="&#x24;" horiz-adv-x="486" d="M282 587 C281 576 280 566 280 557 C280 489 289 432 294 364 C332 325 384 284 408 228 C424 188 443 172 443 134 C443 56 452 -32 366 -46 C345 -50 325 -57 301 -63 C299 -131 305 -250 231 -250 C205 -250 169 -225 169 -200 C169 -198 169 -195 170 -193 C177 -175 181 -157 181 -139 C181 -114 175 -90 164 -64 C155 -56 141 -57 128 -55 C87 -51 70 -18 39 15 C32 22 29 30 29 39 C29 67 55 85 79 85 C109 85 124 54 151 54 C189 54 177 178 177 190 C178 210 179 230 179 251 C179 264 178 277 177 288 C117 328 47 360 23 430 C7 476 8 525 0 572 C-1 575 -1 578 -1 581 C-1 622 65 676 87 687 C132 703 180 715 180 732 C180 737 178 734 178 742 C178 778 215 813 236 813 C272 813 298 773 298 739 L298 725 C298 722 298 721 299 721 C300 721 301 722 301 722 C302 722 302 721 302 719 L302 713 C332 694 360 677 387 658 C415 637 468 581 468 553 C468 513 415 493 397 493 C377 493 364 502 352 525 C337 553 316 573 282 587 L282 587 Z M157 572 C134 566 121 550 121 528 C121 515 129 503 129 492 L129 484 C129 461 146 452 164 442 C169 456 171 475 171 494 C171 523 166 554 157 572 L157 572 Z M295 69 C297 69 300 68 302 68 C320 68 320 80 320 102 C320 132 326 157 294 185 C292 147 290 114 289 81 C289 77 293 73 295 69 L295 69 Z " />
<glyph glyph-name="percent" unicode="&#x25;" horiz-adv-x="792" d="M598 300 C604 301 609 301 614 301 C684 301 750 226 750 158 C750 127 743 84 727 52 C685 -30 586 -50 515 -50 C421 -50 412 66 412 140 C412 205 488 280 556 296 C570 299 584 299 598 300 L598 300 Z M626 137 C622 137 627 171 605 171 C555 171 534 143 534 115 C534 85 551 70 578 70 C625 70 620 107 626 137 L626 137 Z M182 225 C174 223 166 222 158 222 C120 222 48 272 28 327 C24 344 10 357 10 374 C10 442 33 505 91 536 C125 554 155 576 197 576 C230 576 277 557 285 517 C291 484 332 442 332 413 C332 353 319 281 267 244 C252 231 236 225 217 225 L182 225 L182 225 Z M158 423 C149 409 144 397 144 388 C144 371 159 360 189 354 C195 366 199 375 199 384 C199 400 186 412 158 423 L158 423 Z M538 517 C557 500 572 489 572 472 C572 423 539 389 514 352 C510 347 503 345 502 340 C481 292 443 256 418 211 C411 199 403 190 393 180 C348 135 319 77 274 25 C235 -21 254 -63 180 -63 C150 -63 120 -40 120 2 C120 74 196 120 231 180 C251 211 289 232 312 262 C353 315 382 393 398 411 C433 451 475 513 518 513 C524 513 530 515 538 517 L538 517 Z " />
<glyph glyph-name="ampersand" unicode="&#x26;" horiz-adv-x="539" d="M326 39 C283 16 234 -14 194 -14 C168 -14 140 -2 113 -2 L105 -2 C40 -2 21 84 1 140 C-1 147 -2 155 -2 163 C-2 205 51 280 83 333 C88 341 90 349 90 357 C90 381 50 441 40 483 C37 497 34 511 34 524 C34 551 43 596 66 608 C120 637 177 656 240 656 C279 656 305 622 333 599 C357 579 363 554 363 525 C363 506 363 475 354 466 C325 430 311 384 277 353 C272 348 270 341 265 334 C297 292 316 243 358 207 C368 214 378 218 384 226 C406 256 463 306 492 306 C511 306 525 289 525 272 C525 217 476 173 441 133 C433 125 429 119 429 113 C429 97 506 32 506 0 C506 -22 480 -81 438 -81 C402 -81 354 5 326 39 L326 39 Z M173 242 C153 212 122 177 122 152 C122 97 194 106 198 106 C220 106 235 116 245 137 C233 174 210 209 173 242 L173 242 Z M232 508 C231 526 222 537 208 537 C180 537 159 522 159 507 C162 482 178 439 192 439 C219 439 230 486 232 508 L232 508 Z " />
<glyph glyph-name="quotesingle" unicode="&#x27;" horiz-adv-x="174" d="M88 423 C85 422 82 422 79 422 C22 422 7 477 7 518 C8 529 9 541 9 553 C9 571 8 589 8 607 C8 657 5 741 55 741 C107 741 121 680 121 669 C121 659 119 649 119 639 C119 593 130 546 130 499 C130 433 123 425 88 423 L88 423 Z " />
<glyph glyph-name="parenleft" unicode="&#x28;" horiz-adv-x="374" d="M26 197 C24 208 24 219 24 231 C24 314 48 402 76 478 C103 552 144 603 215 644 C226 650 240 652 255 652 C282 652 313 635 313 596 C313 538 243 519 225 482 C219 469 198 457 199 439 L199 432 L199 431 C178 397 180 355 163 320 C153 289 154 248 154 214 C156 175 169 126 187 85 C228 -10 343 28 343 -46 C343 -107 291 -123 230 -123 C205 -123 156 -87 119 -66 C65 -37 51 52 30 115 C24 132 26 171 26 197 L26 197 Z " />
<glyph glyph-name="parenright" unicode="&#x29;" horiz-adv-x="308" d="M263 309 C268 279 273 246 273 216 C273 159 252 95 240 35 C234 5 215 -28 201 -56 C189 -90 154 -127 117 -127 C97 -125 74 -127 63 -105 C55 -88 49 -71 49 -54 C49 -23 92 31 113 76 C124 100 128 126 128 153 L128 165 C128 192 136 224 136 254 C136 294 123 331 116 370 C106 427 71 468 29 519 C12 539 -4 569 -4 596 C-4 623 32 650 63 650 C102 650 172 548 211 488 C236 449 233 407 252 368 C258 347 263 331 265 309 L263 309 L263 309 Z " />
<glyph glyph-name="asterisk" unicode="&#x2a;" horiz-adv-x="496" d="M330 633 C346 628 362 627 377 627 C394 627 411 629 427 629 C444 629 461 627 478 620 C486 604 491 593 491 584 C491 562 443 519 400 519 C386 519 368 525 350 525 L333 525 C336 518 337 513 339 512 C366 500 381 465 381 440 C381 414 338 389 309 389 C296 389 283 392 268 399 C252 419 235 442 215 467 C185 414 166 396 121 396 C94 396 73 434 73 459 C73 473 77 490 84 506 C62 509 42 511 23 513 C-4 515 -36 547 -36 569 C-36 622 52 622 98 630 C84 655 65 681 65 702 C65 728 86 750 127 750 C172 750 170 722 205 693 C214 686 223 682 231 682 C240 682 247 687 250 699 C257 727 293 742 314 742 C347 742 368 715 368 696 C368 677 355 662 330 633 L330 633 Z " />
<glyph glyph-name="plus" unicode="&#x2b;" horiz-adv-x="833" d="M199 352 C211 420 210 490 275 490 C309 490 337 468 337 426 C337 414 332 407 332 397 C330 384 330 371 329 357 C366 348 400 346 434 346 L449 346 C499 346 554 326 554 271 C554 234 520 215 487 215 C441 215 392 226 343 230 C325 230 325 220 325 205 C325 165 338 126 338 85 C338 46 302 11 268 11 C185 11 194 145 194 198 C190 215 183 220 166 220 C148 220 129 214 111 214 C68 214 -3 228 -3 277 C0 348 138 345 199 352 L199 352 Z " />
<glyph glyph-name="comma" unicode="&#x2c;" horiz-adv-x="254" d="M10 -104 L10 -97 C10 -69 25 -47 33 -23 C48 22 70 51 70 112 C70 141 113 168 134 168 C156 168 211 128 218 110 C218 105 219 100 219 95 C219 66 211 43 190 23 C160 -6 139 -70 138 -86 C138 -90 139 -94 139 -97 C139 -134 109 -164 76 -164 C42 -164 11 -137 10 -104 L10 -104 Z " />
<glyph glyph-name="hyphen" unicode="&#x2d;" horiz-adv-x="472" d="M10 261 C36 314 58 331 109 331 C128 331 146 330 165 330 C223 330 281 337 340 337 C402 337 435 309 435 285 C435 260 401 210 362 210 C351 210 337 215 324 215 C251 215 183 210 112 201 C106 200 100 200 95 200 C57 200 31 219 10 261 L10 261 Z " />
<glyph glyph-name="period" unicode="&#x2e;" horiz-adv-x="185" d="M23 51 C36 80 51 110 78 110 C116 110 149 73 149 36 C149 10 121 -19 106 -19 C63 -19 39 3 23 51 L23 51 Z " />
<glyph glyph-name="slash" unicode="&#x2f;" horiz-adv-x="326" d="M232 697 C265 697 291 670 291 638 C291 613 274 574 265 548 C250 505 236 463 235 417 C235 414 234 412 233 410 C216 373 223 330 212 291 C210 281 205 270 205 260 C206 255 206 250 206 246 C206 221 196 198 190 174 C183 144 181 113 176 83 C173 62 167 41 167 20 C166 -13 122 -54 99 -54 C61 -54 14 -20 14 16 C14 24 14 38 21 47 C44 82 42 126 53 165 C77 251 91 339 113 424 C128 481 133 537 150 594 C164 656 171 697 232 697 L232 697 Z " />
<glyph glyph-name="zero" unicode="0" horiz-adv-x="520" d="M6 287 C4 299 4 312 4 324 L4 364 L4 393 C4 428 22 462 32 496 C52 553 88 584 131 627 C160 657 211 683 255 682 C277 682 296 667 310 652 C325 634 345 623 362 608 C417 560 475 516 480 437 C483 380 494 321 493 268 C493 233 472 181 457 141 C427 63 345 -9 246 -9 C215 -9 157 -1 141 14 C104 47 37 94 36 130 C36 136 34 142 30 148 C8 192 7 240 6 287 L6 287 Z M126 261 C125 256 124 251 124 246 C124 194 172 112 234 112 C324 112 342 186 364 271 C366 279 368 287 368 296 C368 325 358 356 358 387 L358 420 C358 490 292 531 237 554 C149 537 123 411 123 349 C123 322 125 294 126 261 L126 261 Z " />
<glyph glyph-name="one" unicode="1" horiz-adv-x="280" d="M108 513 C76 491 55 467 19 457 C-4 472 -39 489 -39 521 C-39 549 0 569 17 599 C19 609 76 657 100 680 C120 699 143 710 170 710 C230 710 238 660 238 606 C238 569 229 531 229 494 C229 438 239 384 243 328 C246 288 246 249 248 209 C248 179 243 148 241 118 C241 97 252 63 252 39 C252 12 241 2 206 -15 C197 -20 189 -22 181 -22 C149 -22 108 15 108 52 C108 79 109 118 116 139 C132 187 129 254 129 299 C129 370 122 445 108 513 L108 513 Z " />
<glyph glyph-name="two" unicode="2" horiz-adv-x="441" d="M199 131 C210 128 219 126 228 126 C241 126 254 133 268 133 C287 133 306 125 324 125 C330 125 336 126 342 126 C391 126 410 116 424 71 C397 37 351 6 312 6 C301 6 291 8 281 8 C230 8 181 6 138 -1 C121 -4 100 -10 82 -10 C43 -10 9 25 9 64 C9 91 31 119 52 142 C91 193 116 253 152 307 C164 326 178 345 192 364 C222 412 244 464 269 515 C269 523 273 535 273 542 C273 557 268 564 248 564 C194 564 178 549 159 506 C148 481 123 468 99 468 C65 468 39 488 39 527 C39 587 90 650 138 664 C176 675 216 683 255 683 C327 683 398 643 398 551 C398 522 392 461 360 433 C351 392 325 359 303 325 C278 286 253 246 229 206 C220 191 199 146 198 147 C198 143 199 139 199 134 L199 131 L199 131 Z " />
<glyph glyph-name="three" unicode="3" horiz-adv-x="426" d="M210 594 C149 588 118 584 74 575 C72 575 69 574 67 574 C38 574 0 600 0 628 C0 659 34 688 63 694 C132 707 204 720 276 720 C327 720 395 691 395 644 C395 606 329 544 294 500 C280 482 268 461 254 439 C265 422 281 406 302 402 C327 397 339 379 353 362 C405 310 403 261 403 179 C403 131 379 73 339 46 C333 43 326 40 321 35 C287 0 247 -10 204 -10 C136 -10 62 10 16 69 C8 79 4 92 3 104 C3 132 27 152 53 152 C72 152 94 152 108 132 C118 117 156 114 181 114 C229 114 277 145 281 188 C281 225 284 280 256 296 C203 327 115 349 115 413 C115 488 194 574 210 594 L210 594 Z " />
<glyph glyph-name="four" unicode="4" horiz-adv-x="531" d="M0 261 C3 304 27 342 43 380 C73 452 97 535 139 599 C155 631 190 706 233 706 C283 706 292 696 311 631 C262 565 215 515 192 437 C183 406 172 371 161 337 C179 332 203 330 226 330 C253 330 279 333 295 339 C297 360 300 383 300 405 L300 413 C300 452 342 505 372 505 C402 505 428 459 428 431 C428 414 412 394 412 376 C412 339 433 344 459 338 C495 329 518 307 518 267 C518 234 490 214 453 206 C425 199 423 166 423 139 C423 106 444 67 444 35 C444 6 413 -13 380 -13 C288 -13 295 90 295 133 C295 154 300 181 308 197 C295 221 238 213 206 213 C165 213 126 204 87 204 C34 204 33 212 0 261 L0 261 Z " />
<glyph glyph-name="five" unicode="5" horiz-adv-x="424" d="M152 459 C157 456 161 455 166 455 C186 455 209 464 232 464 C280 464 354 423 370 360 C378 329 381 299 381 269 C381 258 380 246 380 235 L380 219 L380 210 L380 196 C380 191 380 186 378 182 C348 94 315 26 203 -13 C198 -14 194 -15 189 -15 C157 -15 122 -7 89 -5 C50 -2 -4 41 -4 72 C-4 100 28 114 54 114 C77 114 107 100 135 100 C178 100 204 120 238 176 C257 201 263 228 263 256 C263 322 259 340 194 340 C163 340 133 338 107 319 C98 312 76 307 63 307 C20 307 -1 340 -1 386 C-1 421 19 458 31 497 C53 567 84 715 140 716 C159 716 182 697 206 697 C255 697 303 700 352 700 C393 700 420 665 420 638 C420 611 402 579 371 579 C319 579 267 590 214 590 C162 590 182 542 158 505 C152 496 149 487 149 477 C149 471 150 465 152 459 L152 459 Z " />
<glyph glyph-name="six" unicode="6" horiz-adv-x="496" d="M199 514 C235 519 259 522 289 522 C355 522 401 492 444 438 C464 413 485 316 485 286 C485 285 484 284 484 283 C467 256 472 223 460 194 C445 159 443 126 422 92 C391 42 320 -26 242 -26 C182 -26 138 -21 83 26 C23 77 -8 135 -7 233 C-7 312 18 405 50 474 C69 525 70 554 102 592 C141 639 184 714 252 714 C287 714 320 684 320 645 C320 631 312 622 298 614 C239 582 238 580 199 514 L199 514 Z M356 313 C341 366 342 410 286 410 C262 410 205 387 184 373 C157 356 129 338 126 303 C124 275 120 247 120 220 C120 140 154 119 197 97 C202 94 207 93 212 93 C233 93 252 112 273 116 C301 121 324 196 338 237 C346 262 349 288 356 313 L356 313 Z " />
<glyph glyph-name="seven" unicode="7" horiz-adv-x="451" d="M160 426 C176 454 189 483 208 508 C227 533 247 557 264 587 C241 596 219 599 198 599 C142 599 83 582 32 582 C3 582 -41 609 -41 640 C-41 702 61 698 116 704 C135 706 157 711 173 711 C179 711 184 710 190 710 C229 710 267 717 307 717 C350 717 441 716 449 679 C455 659 462 649 462 635 C462 597 416 560 381 529 C375 523 369 516 367 509 C356 478 329 457 309 434 C314 432 318 430 321 430 C329 430 337 435 344 435 C379 435 420 396 420 364 C420 331 397 316 380 302 C349 303 318 307 287 307 C271 307 255 306 238 303 C211 227 197 169 196 95 C196 37 186 -22 118 -22 C78 -22 52 19 52 52 C52 84 72 116 72 140 C72 180 91 216 95 255 C95 266 106 281 106 293 C106 314 86 314 68 350 C65 357 63 364 63 371 C63 412 125 416 160 426 L160 426 Z " />
<glyph glyph-name="eight" unicode="8" horiz-adv-x="517" d="M133 397 C121 426 104 449 104 475 C104 478 105 481 105 484 C105 510 88 538 88 566 C88 632 121 684 182 698 C211 705 245 707 271 720 C281 724 292 726 302 726 C396 726 473 646 497 543 C498 537 498 531 498 526 C498 471 443 392 398 347 C386 335 381 326 380 317 C380 302 410 269 418 241 C424 217 421 190 430 167 C436 150 438 132 438 116 C438 22 391 -13 233 -26 C228 -27 223 -27 219 -27 C155 -27 76 -7 48 57 C36 84 29 114 9 138 C3 150 5 177 5 195 C5 217 4 246 16 264 C50 315 81 356 133 397 L133 397 Z M233 82 C258 90 317 101 317 126 C317 129 316 133 315 138 C303 181 309 230 272 266 C261 277 250 315 223 315 C194 315 122 224 122 201 C122 164 140 109 171 97 C189 90 208 87 233 82 L233 82 Z M307 412 C337 434 370 480 370 519 C370 561 340 608 307 608 C281 608 225 583 209 571 C224 474 252 429 307 412 L307 412 Z " />
<glyph glyph-name="nine" unicode="9" horiz-adv-x="530" d="M351 374 C298 316 223 265 145 265 C68 265 -14 354 -14 402 C-14 459 27 538 63 587 C83 615 105 646 139 660 C188 681 235 704 291 705 C306 705 322 714 338 714 C390 714 429 634 429 577 C429 570 428 562 428 555 C428 520 450 490 455 455 C456 447 459 438 464 431 C483 403 489 373 489 342 C489 235 467 156 418 84 C400 57 370 39 349 15 C326 -12 279 -29 246 -29 C214 -29 175 -12 142 -4 C101 6 49 43 49 79 C49 109 72 126 95 126 C103 126 111 123 119 120 C155 105 188 103 227 103 C317 103 366 239 366 329 C366 343 367 359 351 374 L351 374 Z M274 588 C270 588 265 589 261 589 C233 589 177 549 174 544 C145 510 131 468 119 426 C118 423 117 420 117 416 C117 399 133 383 151 383 C177 383 210 399 231 417 C251 434 258 460 271 481 C282 499 288 518 288 537 C288 553 283 570 274 588 L274 588 Z " />
<glyph glyph-name="colon" unicode="&#x3a;" horiz-adv-x="215" d="M164 377 C140 355 115 330 87 330 C56 330 18 361 18 406 C18 429 42 460 82 460 C135 460 145 431 164 377 L164 377 Z M111 -12 C81 -4 42 15 42 40 C42 78 51 116 107 116 C160 116 172 71 172 36 C172 20 134 2 111 -12 L111 -12 Z " />
<glyph glyph-name="semicolon" unicode="&#x3b;" horiz-adv-x="232" d="M15 -170 C-8 -169 -30 -142 -30 -116 C-30 -90 -4 -46 9 -19 C26 17 45 52 52 93 C57 125 81 144 107 144 C137 144 180 116 180 88 C178 67 179 45 164 27 C158 20 155 10 152 1 C136 -42 116 -83 85 -117 C78 -123 74 -132 69 -141 C59 -163 39 -169 15 -170 L15 -170 Z M102 462 C133 459 176 442 176 407 C176 371 142 337 109 337 C77 337 47 369 47 401 C47 437 72 463 95 463 C97 463 99 462 102 462 L102 462 Z " />
<glyph glyph-name="less" unicode="&#x3c;" horiz-adv-x="388" d="M278 523 C313 523 338 497 338 468 C338 438 299 403 269 378 C232 347 182 268 182 245 C182 211 231 179 262 151 C266 148 270 144 275 143 C313 134 360 85 360 51 C360 7 311 -23 285 -23 C266 -23 245 -13 221 8 C143 60 90 144 47 178 C27 193 15 221 15 245 C15 282 99 358 134 411 C157 446 191 469 217 501 C228 514 257 522 278 523 L278 523 Z " />
<glyph glyph-name="equal" unicode="&#x3d;" horiz-adv-x="481" d="M153 256 C218 258 287 252 351 268 C358 269 365 270 372 270 C399 270 450 240 450 203 C450 158 401 130 365 130 C343 130 319 138 295 138 C233 138 170 129 110 129 C65 129 9 148 9 199 C9 266 97 254 153 256 L153 256 Z M316 303 C240 303 164 294 89 286 L82 286 C47 286 15 312 15 352 C15 380 35 392 72 399 C134 411 194 410 255 415 C265 417 277 418 288 418 C372 418 447 405 447 357 C447 324 412 305 384 305 C380 305 376 306 373 306 C361 306 348 302 336 302 C329 302 323 303 316 303 L316 303 Z " />
<glyph glyph-name="greater" unicode="&#x3e;" horiz-adv-x="371" d="M164 250 C139 344 10 364 10 456 C10 505 56 516 91 516 C129 508 151 450 179 429 C206 408 254 382 267 365 C296 329 338 292 338 251 C338 178 238 153 210 102 C186 58 144 -4 92 -4 C52 -4 16 36 16 73 C16 110 79 163 124 198 C140 211 150 232 164 250 L164 250 Z " />
<glyph glyph-name="question" unicode="&#x3f;" horiz-adv-x="323" d="M109 698 L120 698 C165 698 224 683 250 653 C269 624 292 580 292 555 C292 461 206 379 192 329 C188 318 183 307 183 295 C183 280 199 261 199 246 C199 212 160 181 121 181 C71 181 45 216 45 279 C45 325 69 391 105 420 C134 443 143 501 161 541 C162 544 163 548 163 552 C163 570 149 589 130 589 C120 589 108 583 97 583 C62 583 17 600 17 641 C17 682 70 698 99 698 L109 698 L109 698 Z M142 2 C109 2 71 29 71 66 C71 89 97 109 120 109 C162 109 206 83 206 53 C206 33 191 2 142 2 L142 2 Z " />
<glyph glyph-name="at" unicode="&#x40;" horiz-adv-x="790" d="M501 187 C464 155 440 126 400 126 C320 126 206 166 206 276 C206 411 316 449 417 476 C442 483 466 489 492 489 C581 489 592 412 592 349 C592 335 588 321 588 307 C588 305 589 303 591 299 C620 311 629 388 629 422 L629 433 L629 435 C629 453 614 464 610 475 C587 535 516 549 466 549 L431 549 L418 549 C365 549 297 521 267 494 C256 484 247 472 234 463 C202 440 183 405 157 377 C146 366 142 295 142 280 C142 233 180 179 194 127 C213 74 330 23 386 23 C437 23 501 58 557 79 C592 64 611 47 611 18 C611 -9 589 -43 560 -52 C503 -71 444 -103 382 -103 C325 -103 276 -74 220 -66 C148 -56 75 62 69 94 C65 138 34 171 34 214 L34 217 C34 237 16 257 16 281 C16 389 63 481 134 548 C194 599 263 643 344 655 C357 657 368 667 380 667 C420 669 459 669 498 669 C526 655 558 664 583 642 C591 634 606 637 617 632 C703 595 744 492 744 396 C744 381 743 368 736 353 C726 332 726 307 721 283 C702 196 646 162 593 162 C566 162 533 176 501 187 L501 187 Z M439 353 C383 347 332 314 332 281 C332 258 355 244 374 244 C416 244 437 309 439 353 L439 353 Z " />
<glyph glyph-name="A" unicode="A" horiz-adv-x="454" d="M163 137 C131 135 118 99 118 61 C118 57 119 51 119 46 C119 11 96 -12 66 -33 C66 -33 65 -34 64 -34 C15 -34 -5 -1 -5 33 C-5 67 3 68 23 148 C33 187 51 229 59 281 L66 313 C66 314 65 315 65 316 C65 320 67 330 72 335 C86 357 96 392 96 416 C102 441 109 466 116 491 L138 575 L138 574 C138 574 144 595 144 604 L151 627 C160 673 171 717 196 720 C219 723 246 731 266 731 C297 731 322 704 326 677 C335 612 358 550 368 485 L369 458 C370 422 377 387 378 356 C379 332 380 307 390 285 C391 283 391 280 391 278 C391 272 390 267 390 261 C390 228 401 196 410 166 L413 153 C426 118 448 66 448 33 C448 -2 419 -33 384 -33 C345 -33 324 26 309 64 L309 63 L303 80 C302 81 302 84 302 87 C302 93 304 100 304 110 C304 147 244 137 214 140 L163 137 L163 137 Z M275 257 C276 265 276 274 276 283 C276 297 276 321 273 327 L273 326 C272 328 272 333 272 335 C273 340 274 346 274 351 C274 390 263 416 263 450 C262 453 262 456 261 459 L261 471 C256 492 254 517 241 536 L241 535 L229 552 L198 431 L198 428 C198 416 195 406 193 397 L174 336 C170 323 165 309 162 296 L162 297 C159 287 157 277 157 267 C157 257 159 246 164 235 C210 240 234 233 271 254 L275 257 L275 257 Z " />
<glyph glyph-name="B" unicode="B" horiz-adv-x="435" d="M145 -58 C131 -46 120 -37 107 -26 C98 -28 89 -31 80 -31 C41 -31 28 15 28 47 C28 86 45 129 45 162 C45 196 35 230 33 266 C34 307 38 348 38 390 C38 480 36 572 31 662 C31 667 30 671 30 675 C30 726 68 750 146 750 C222 750 271 710 328 663 C348 647 353 596 353 573 C353 536 327 470 306 426 C295 404 276 386 261 364 C345 329 403 299 425 217 C426 213 427 208 427 204 C427 197 425 190 420 184 C384 135 354 72 301 41 C283 31 266 20 252 7 C221 -22 183 -36 145 -58 L145 -58 Z M132 283 C131 277 129 272 129 267 C132 237 135 208 135 178 C135 150 128 122 128 94 C128 70 129 52 147 36 C169 45 187 58 203 73 C245 111 324 160 324 219 C324 241 273 270 272 270 C236 280 202 289 166 289 C155 289 143 287 132 283 L132 283 Z M126 402 C129 401 133 399 136 398 C176 428 219 446 231 495 C238 521 254 547 254 574 C254 626 207 669 151 669 C126 669 118 650 118 609 C120 541 124 471 126 402 L126 402 Z " />
<glyph glyph-name="C" unicode="C" horiz-adv-x="419" d="M218 625 C177 605 173 580 151 536 C126 496 113 452 112 405 L112 380 C112 343 101 308 101 270 C101 252 93 233 93 215 C93 191 98 167 100 143 C103 114 117 72 162 38 C245 43 288 96 360 147 C368 153 375 155 381 155 C395 155 404 142 404 129 C404 122 402 115 397 109 C340 36 274 -47 153 -47 C81 -47 14 44 5 118 C1 151 -1 185 -1 218 C-1 262 9 302 9 344 C9 402 21 478 41 524 C58 565 72 609 102 644 C111 691 189 717 222 717 C262 717 356 675 356 635 C356 610 336 597 312 597 C280 597 247 614 218 625 L218 625 Z " />
<glyph glyph-name="D" unicode="D" horiz-adv-x="437" d="M37 163 C37 186 35 210 35 233 C35 255 39 275 39 296 C39 336 30 376 30 416 C34 491 35 569 35 645 C35 663 29 682 29 699 C29 724 48 745 71 745 C76 745 81 744 87 742 C121 727 159 725 194 711 C240 693 286 672 332 648 C382 621 419 550 418 500 C418 454 410 404 392 362 C369 309 349 255 320 204 C284 139 274 90 220 50 C176 20 154 -36 104 -36 C85 -36 52 -28 50 -9 C48 15 40 38 40 63 C40 71 41 79 41 87 C41 95 39 163 37 163 L37 163 Z M148 110 C217 170 229 247 280 343 C301 383 321 435 321 480 C321 525 302 575 255 592 C213 607 184 626 132 632 C123 569 120 501 120 438 C120 386 127 334 127 282 C126 272 125 262 125 252 C125 221 137 193 137 165 C137 153 135 142 135 131 C135 124 137 117 148 110 L148 110 Z " />
<glyph glyph-name="E" unicode="E" horiz-adv-x="351" d="M325 454 C304 434 284 427 262 427 C232 427 201 431 172 431 C160 431 150 428 135 427 C135 383 131 347 131 306 C131 280 133 254 133 229 C133 215 127 198 127 183 C127 156 133 130 133 105 C133 96 131 87 131 79 C131 75 134 70 135 67 C169 70 202 77 235 77 C260 77 287 56 287 29 C287 -29 159 -15 124 -36 C110 -44 97 -48 82 -48 C60 -48 21 -38 19 -9 C18 5 17 19 17 33 C17 82 37 132 37 184 C37 209 34 234 34 259 C34 295 39 330 39 366 C39 379 36 392 36 405 C36 424 41 443 41 462 C41 481 37 502 37 522 C37 561 39 601 39 640 L39 662 C39 685 59 714 82 714 C90 714 101 709 110 709 C142 709 207 732 248 732 C281 732 325 702 325 673 C325 647 287 630 253 630 C240 630 227 631 213 631 C182 631 144 639 139 604 C135 582 128 556 128 535 C128 524 134 517 144 517 C146 517 148 517 151 518 C178 525 205 519 232 525 C237 526 242 527 247 527 C271 527 296 514 313 494 C321 484 321 467 325 454 L325 454 Z " />
<glyph glyph-name="F" unicode="F" horiz-adv-x="367" d="M105 593 C120 564 103 532 120 503 C127 503 134 502 141 502 C178 507 217 516 253 516 C291 516 336 504 336 460 C336 419 288 418 250 418 C227 418 204 421 181 421 C163 421 151 417 133 412 C129 357 121 303 121 248 C121 176 126 89 146 24 L146 19 C146 -2 134 -41 88 -41 C52 -41 34 -12 34 27 L34 51 C34 87 24 127 24 156 C24 182 34 206 34 231 C34 244 30 257 30 270 C30 282 33 294 33 306 C33 315 29 325 29 335 C29 344 31 353 32 361 C32 380 29 399 29 418 L29 431 C29 479 17 525 17 573 C17 587 18 602 18 617 C18 624 17 631 17 639 C17 663 18 688 22 712 C36 721 47 726 58 726 C73 726 88 717 111 698 C162 705 216 711 268 719 C274 720 280 721 286 721 C322 721 362 697 362 664 C362 607 181 617 147 617 C130 617 117 609 105 593 L105 593 Z " />
<glyph glyph-name="G" unicode="G" horiz-adv-x="457" d="M103 228 C102 224 102 220 102 216 C102 161 130 63 188 63 C233 63 309 123 309 140 C309 143 308 147 308 150 C308 173 329 184 329 205 C329 236 329 270 320 300 C318 307 316 315 316 321 C316 346 336 370 369 370 C399 370 429 345 429 313 C429 308 428 304 428 299 C428 285 431 272 431 258 C431 232 421 205 421 178 C421 159 426 139 426 119 C426 77 391 56 348 22 C316 -3 274 -9 240 -29 C215 -29 189 -33 164 -33 C112 -33 30 10 28 74 C6 111 -5 175 -5 206 C-5 260 -2 324 14 375 C25 410 27 450 48 482 C59 499 58 524 69 542 C107 629 185 732 291 732 C335 732 421 719 421 674 C421 645 398 630 378 630 C356 630 332 635 312 635 C266 635 222 599 201 557 C189 533 169 514 161 487 C146 440 128 394 120 344 C120 340 118 335 115 331 C104 310 100 289 100 265 C100 253 101 241 103 228 L103 228 Z " />
<glyph glyph-name="H" unicode="H" horiz-adv-x="497" d="M118 515 C135 506 135 507 144 507 C165 507 186 513 208 513 C238 513 268 510 297 510 C321 510 324 511 327 534 C330 563 334 592 334 621 L334 630 C334 661 345 688 350 717 C354 737 379 751 401 751 C430 751 453 735 453 707 C453 670 430 629 430 587 C430 573 435 559 435 544 C430 516 429 488 429 460 C429 430 431 400 431 370 C431 327 431 276 423 230 C423 227 422 225 422 222 C422 206 429 190 429 175 C429 167 425 159 425 149 C425 147 426 146 426 145 C440 106 427 64 440 25 C442 19 442 14 442 9 C442 -22 419 -52 386 -52 C351 -52 316 -24 315 13 C317 32 321 53 321 72 C321 83 313 96 313 106 C313 122 319 137 319 153 C319 166 315 182 315 195 C315 220 323 251 327 273 C328 300 329 329 329 357 C329 399 331 408 300 413 C268 417 236 424 204 424 C177 424 130 421 130 397 C130 381 134 363 134 346 C134 331 133 317 133 302 C133 287 141 266 141 247 C141 230 135 213 135 197 C135 161 155 126 155 88 L155 73 C155 54 161 35 161 15 C161 -19 135 -37 87 -37 C18 -37 37 71 36 113 C35 163 32 214 32 264 C32 299 37 331 37 364 C37 426 23 488 23 551 C23 580 27 608 27 637 C27 656 23 676 23 695 C23 721 52 736 74 736 C104 736 131 707 131 683 C131 623 123 568 118 515 L118 515 Z " />
<glyph glyph-name="I" unicode="I" horiz-adv-x="227" d="M35 15 C40 75 50 137 50 195 C50 211 44 228 44 245 C44 265 45 285 45 304 C45 349 40 394 40 439 C40 460 43 481 45 502 C50 563 54 623 59 684 C62 716 81 730 114 730 C148 730 167 707 167 670 C167 585 143 500 143 415 C143 387 151 360 151 331 C151 309 145 289 145 269 C145 232 156 197 156 160 L156 146 C156 124 162 102 162 80 C162 74 161 68 161 62 C161 49 166 34 166 20 C166 -14 150 -49 97 -49 C80 -49 64 -38 47 -27 C37 -20 38 -18 35 15 L35 15 Z " />
<glyph glyph-name="J" unicode="J" horiz-adv-x="316" d="M264 533 C266 506 267 479 267 452 C267 395 255 335 255 275 C255 261 258 246 258 231 C258 193 249 154 245 116 C238 46 159 -18 101 -22 C72 -24 44 -37 15 -37 C-8 -37 -32 -19 -32 8 C-30 24 -23 38 -8 40 C69 52 154 129 154 207 C156 260 160 314 162 367 C161 374 161 382 161 390 C161 415 166 439 166 464 C166 532 156 600 156 668 C156 694 169 725 197 725 C252 725 257 674 259 637 C261 602 264 567 264 533 L264 533 Z " />
<glyph glyph-name="K" unicode="K" horiz-adv-x="460" d="M157 171 C153 145 151 121 151 97 C151 86 152 76 152 66 C152 24 147 -38 81 -38 C45 -38 21 -19 21 15 C21 52 45 78 45 108 C45 123 43 140 43 156 L43 180 C43 204 36 228 36 252 L36 259 C39 293 44 330 44 364 C44 383 39 403 39 423 C39 440 42 457 42 474 L42 503 C42 547 46 590 46 632 C46 648 45 663 45 678 C45 709 67 731 96 731 C128 731 144 709 144 679 C144 667 142 655 142 644 C142 632 146 620 146 608 C146 577 140 547 140 516 C140 499 141 482 141 464 C141 450 138 437 138 423 C138 417 139 412 140 402 C165 418 165 430 176 445 C225 515 282 584 309 664 C318 690 342 718 372 718 C395 718 416 700 418 676 C418 612 366 538 327 484 C287 433 255 374 219 319 C211 307 207 296 207 286 C207 258 259 230 288 192 C313 159 342 130 380 111 C414 94 463 39 463 13 C463 -16 428 -35 405 -35 C375 -35 351 -6 324 12 C259 46 223 115 167 166 C165 168 161 169 157 171 L157 171 Z " />
<glyph glyph-name="L" unicode="L" horiz-adv-x="367" d="M162 77 C174 77 186 76 197 76 C231 76 267 89 300 89 C328 89 357 62 357 35 C357 1 308 -10 272 -10 C264 -10 257 -9 249 -9 C198 -9 152 -35 108 -35 C67 -35 41 -16 41 14 C41 45 60 81 60 114 C60 140 57 166 57 191 C57 244 64 297 64 350 C64 393 65 438 60 481 C57 504 55 525 55 547 C55 561 56 574 56 588 C56 608 47 627 47 647 C47 661 48 675 48 688 L48 699 C48 718 82 728 100 728 C139 728 164 699 164 650 C164 626 150 605 150 580 C155 489 157 395 159 301 C159 264 151 229 151 194 C151 158 158 121 162 77 L162 77 Z " />
<glyph glyph-name="M" unicode="M" horiz-adv-x="732" d="M567 568 C514 528 508 451 488 401 C461 346 432 252 382 252 C365 252 302 284 294 321 C283 374 215 444 169 502 C167 505 162 508 157 512 C148 501 146 489 146 477 C146 468 147 458 147 449 C147 415 141 381 141 347 C141 315 147 283 147 251 C147 227 145 203 145 179 C145 121 160 63 160 -1 C160 -21 146 -36 99 -36 C41 -36 41 36 41 92 C41 111 45 130 45 149 C45 160 44 172 44 184 C44 220 54 253 54 289 C54 310 49 331 49 352 C49 398 54 446 54 492 C54 529 42 567 42 602 C42 613 44 623 44 634 C44 646 42 658 37 670 C52 698 75 707 102 707 C131 707 145 696 151 674 C157 648 172 631 191 615 C236 574 269 526 311 483 C331 463 352 437 369 417 C398 428 402 479 417 511 C445 585 499 692 546 714 C569 727 578 750 612 750 C659 750 676 706 676 649 C674 598 669 547 666 496 C661 449 653 406 650 359 C647 316 651 273 644 231 C643 227 643 223 643 219 C643 165 663 107 663 49 L663 34 C663 22 668 11 668 0 C668 -27 651 -44 621 -44 C593 -44 553 -30 550 -1 C548 25 540 50 541 76 C541 87 542 98 542 109 C542 136 540 163 540 190 C540 248 544 306 548 364 C549 403 552 441 561 480 C568 508 565 538 567 568 L567 568 Z " />
<glyph glyph-name="N" unicode="N" horiz-adv-x="546" d="M150 516 C148 458 146 414 144 368 C144 328 148 293 148 257 C148 238 142 218 142 199 C142 184 151 168 151 153 C151 137 149 121 149 106 C149 74 161 49 161 15 C161 -17 139 -40 106 -40 C63 -40 39 -21 39 24 C39 26 40 29 40 32 C47 61 40 92 51 120 C52 124 53 127 53 130 C53 144 48 158 48 171 C48 194 56 216 56 238 C56 243 55 247 55 251 C50 297 56 342 48 388 C47 392 47 397 47 401 C47 413 49 426 49 439 L49 456 C49 515 54 573 54 631 L54 660 C54 685 76 707 104 707 C125 707 141 691 156 672 C185 635 220 602 244 561 C272 505 319 480 370 452 C372 459 377 465 377 471 C377 508 373 544 373 581 C373 634 369 736 428 736 C466 736 488 710 488 680 C488 607 484 534 483 462 C482 392 472 323 472 251 C472 194 480 135 486 76 C486 61 497 45 497 32 C497 7 483 -14 468 -36 C451 -38 433 -42 416 -42 C402 -42 385 -19 377 -6 C361 20 364 49 363 77 C361 106 359 134 359 163 C359 183 362 203 364 223 C364 230 363 238 363 245 C363 248 363 252 364 255 C364 284 321 323 299 360 C285 384 265 406 241 418 C200 438 181 472 150 516 L150 516 Z " />
<glyph glyph-name="O" unicode="O" horiz-adv-x="498" d="M456 459 C460 438 464 418 464 398 C464 336 435 272 430 206 C426 154 403 114 380 70 C357 7 283 -15 222 -15 C158 -15 64 34 54 95 C48 127 35 159 27 190 C22 211 22 256 17 261 C13 268 12 275 12 282 C12 304 24 325 24 338 C24 349 22 360 22 371 C22 409 31 447 35 485 C39 564 75 648 152 683 C176 696 200 711 228 711 C270 711 309 677 353 653 C381 637 409 616 417 580 C419 574 421 568 425 563 C450 531 451 495 456 459 L456 459 Z M222 602 C196 593 177 577 170 553 C160 520 146 488 146 451 L146 441 C146 413 130 382 129 352 C128 338 127 324 127 310 C127 269 130 226 135 185 C140 137 175 110 209 82 C210 81 213 80 215 80 C237 80 266 82 280 100 C328 163 329 271 345 357 C348 375 350 394 350 412 C350 470 324 572 263 586 C250 589 236 596 222 602 L222 602 Z " />
<glyph glyph-name="P" unicode="P" horiz-adv-x="463" d="M47 652 C57 694 74 722 108 722 C131 722 164 711 188 706 C219 699 252 696 282 683 C347 654 405 605 436 528 C441 518 443 509 443 499 C443 453 416 398 385 360 C321 287 230 273 139 236 C138 230 138 223 138 217 C138 162 156 105 156 50 C156 -7 144 -50 95 -50 C21 -50 43 31 31 101 C29 113 28 126 28 139 C28 229 44 319 44 409 C48 433 51 457 51 482 C51 492 49 503 49 514 C49 542 60 570 60 597 C60 616 56 634 47 652 L47 652 Z M165 603 C157 534 151 464 151 393 C151 378 151 362 152 347 C224 361 292 408 323 475 C324 479 325 483 325 487 C325 558 263 584 203 609 C198 611 193 612 189 612 C181 612 174 609 165 603 L165 603 Z " />
<glyph glyph-name="Q" unicode="Q" horiz-adv-x="525" d="M206 -104 C205 -95 204 -86 204 -77 C204 -61 215 -43 215 -30 C215 -4 153 8 123 35 C119 38 113 40 107 42 C10 66 3 202 3 293 C3 332 6 372 20 409 C20 460 48 489 63 534 C74 625 197 700 237 700 C270 700 316 684 348 672 C438 639 505 514 505 412 C505 394 503 376 496 358 C489 340 489 318 485 299 C460 191 418 84 343 3 C324 -25 319 -47 319 -77 C319 -105 338 -136 338 -156 C338 -194 323 -212 275 -212 C255 -212 231 -217 223 -195 C214 -170 205 -146 205 -120 C205 -115 205 -110 206 -104 L206 -104 Z M222 113 C222 122 223 131 223 139 C223 187 200 242 200 288 C200 315 209 335 241 349 C244 351 247 352 251 352 C275 341 309 331 309 304 C309 264 326 221 338 185 C369 232 373 284 390 331 C397 350 392 410 393 417 C393 483 337 592 284 592 C241 592 195 575 176 537 C135 457 113 373 113 278 C113 255 114 201 127 177 C142 149 185 113 212 112 C215 112 219 113 222 113 L222 113 Z " />
<glyph glyph-name="R" unicode="R" horiz-adv-x="449" d="M232 266 C286 217 322 177 372 137 C396 118 430 68 430 40 C430 14 413 -11 380 -11 C343 -11 309 33 278 67 C241 107 196 167 151 192 C145 181 143 171 143 161 C143 129 155 99 155 68 C155 35 130 -5 95 -5 C75 -5 24 21 24 43 C24 85 29 130 29 171 C29 186 21 201 21 216 C21 244 29 273 29 304 C29 320 26 336 26 352 C26 386 37 420 37 453 L37 456 C30 473 28 490 28 507 C28 521 29 536 29 550 C29 566 27 583 27 599 C27 647 56 702 113 702 C139 702 164 686 189 684 C233 681 267 652 308 642 C320 639 331 626 342 616 C384 579 435 542 435 476 C435 395 300 327 254 292 C247 286 241 277 232 266 L232 266 Z M142 347 C144 347 147 346 149 346 C185 346 197 379 226 393 C263 414 322 469 322 490 C322 515 297 519 281 538 C252 572 189 596 153 596 C139 596 136 585 136 561 C136 536 140 510 140 484 C140 446 134 408 134 370 C134 362 136 354 142 347 L142 347 Z " />
<glyph glyph-name="S" unicode="S" horiz-adv-x="430" d="M168 704 C206 704 236 691 269 685 C320 675 360 635 387 590 C392 581 398 572 398 561 C398 538 377 522 358 522 C335 522 293 537 285 571 C279 596 219 610 188 610 C143 610 105 579 105 532 C105 463 178 439 237 404 C238 404 239 403 240 402 C276 356 354 327 370 278 C373 269 379 260 385 253 C402 231 407 208 407 184 C407 151 399 92 367 63 C338 37 311 9 268 9 C236 9 206 -6 170 -6 C139 -6 93 1 71 29 C41 67 21 105 0 149 C0 178 4 198 26 198 C65 198 119 124 133 105 C139 95 147 90 157 90 C182 90 220 102 247 111 C275 120 290 139 290 166 C290 226 229 284 174 318 C169 322 163 323 159 328 C139 356 107 366 77 380 C12 410 6 446 -8 523 C-9 528 -9 533 -9 538 C-9 620 57 695 137 700 C149 701 161 703 168 704 L168 704 Z " />
<glyph glyph-name="T" unicode="T" horiz-adv-x="499" d="M153 606 C143 607 134 609 125 609 C94 607 62 601 31 601 C-2 601 -47 618 -47 650 C-47 712 65 705 127 710 C142 710 157 706 172 706 C189 706 203 723 218 723 C235 723 259 704 282 704 C309 704 340 713 370 713 C428 713 509 703 509 660 C509 644 492 623 470 623 C462 623 454 624 446 624 C397 624 344 615 295 608 C279 605 272 599 272 586 C272 568 278 550 278 532 C278 512 276 492 276 472 C276 453 278 435 278 417 C278 369 274 320 274 270 C274 252 277 235 277 217 C277 207 275 197 275 187 C275 160 282 128 296 103 C303 90 305 76 305 62 C305 18 287 -12 247 -12 C151 -12 185 52 163 117 C161 125 160 133 160 141 C160 191 165 241 168 292 C170 323 176 362 176 389 C176 430 170 472 170 513 L170 543 C170 564 167 584 153 606 L153 606 Z " />
<glyph glyph-name="U" unicode="U" horiz-adv-x="485" d="M95 685 C121 665 137 623 137 604 C137 589 132 574 132 559 C132 539 141 516 141 494 C141 462 133 430 133 397 C133 362 139 322 142 288 C144 264 142 240 148 216 C153 193 161 173 160 150 L160 136 C160 111 193 79 214 79 C257 79 296 169 301 215 C312 310 320 405 329 500 C330 517 331 534 331 551 C331 568 328 585 328 602 C328 632 332 689 391 689 C422 689 456 663 456 628 C456 600 451 564 448 534 C446 506 434 478 434 450 C434 442 438 435 438 426 C438 422 437 417 435 412 C427 361 412 304 412 256 C412 243 413 231 413 218 C413 180 403 145 387 112 C385 107 381 104 380 99 C364 11 264 -26 237 -26 C219 -26 195 -15 169 -11 C114 -4 66 33 55 90 C46 156 38 214 35 275 C32 317 25 358 25 401 C25 423 27 446 32 468 C33 470 34 473 34 476 L34 478 C21 519 35 562 19 603 C17 609 16 617 16 624 C16 667 30 689 64 689 C74 689 85 687 95 685 L95 685 Z " />
<glyph glyph-name="V" unicode="V" horiz-adv-x="435" d="M184 216 C189 220 192 221 192 223 C197 301 228 378 248 454 C267 528 281 604 308 676 C315 694 322 699 337 699 C387 699 407 680 407 654 C407 647 406 638 404 628 C387 565 371 503 358 439 C343 366 300 291 300 215 C300 207 300 200 301 192 C301 154 291 118 289 79 C287 50 280 24 250 8 C223 -6 207 -36 173 -36 C86 -36 79 127 67 187 C54 250 32 325 32 383 C32 393 34 404 34 415 C34 434 18 450 18 464 C13 510 -15 559 -15 600 C-15 626 -15 667 23 667 C48 667 94 640 94 621 C100 581 112 542 125 502 C146 434 141 356 160 290 C167 266 176 242 184 216 L184 216 Z " />
<glyph glyph-name="W" unicode="W" horiz-adv-x="754" d="M343 286 C320 233 307 175 292 119 C290 115 289 112 289 106 C289 61 268 23 255 -17 C248 -37 238 -46 219 -46 C164 -46 116 13 116 73 C116 122 107 169 90 217 C77 253 65 290 64 329 C59 371 36 416 19 459 C19 460 18 461 18 462 C12 517 -12 566 -26 618 C-28 626 -29 633 -29 640 C-29 673 -8 695 16 695 C41 692 67 690 76 647 C97 543 160 448 175 346 C178 315 184 284 207 255 C236 308 246 381 263 441 C279 498 296 571 340 571 C402 571 406 460 424 423 C449 372 467 320 481 267 C489 237 498 217 515 189 C531 191 536 202 539 213 C545 258 562 299 564 346 C565 370 575 394 574 419 L574 426 C574 429 574 431 575 433 C620 515 599 616 664 695 C674 707 686 714 699 714 C724 714 759 687 759 662 C759 654 757 645 751 636 C722 591 717 518 703 459 C702 451 700 443 696 435 C682 407 678 377 675 346 C670 294 662 242 641 194 C622 151 629 83 626 28 C621 -17 562 -32 526 -32 C461 -32 435 1 408 83 C406 86 405 90 405 94 C405 101 407 107 407 113 C407 139 386 162 381 188 C376 210 363 229 364 252 L364 261 C364 271 355 279 343 286 L343 286 Z " />
<glyph glyph-name="X" unicode="X" horiz-adv-x="465" d="M226 499 C239 502 242 515 247 525 C276 585 338 679 393 679 C410 679 444 662 444 631 C444 593 379 539 350 494 C327 458 299 413 299 375 C299 334 329 307 332 276 C337 224 372 206 389 157 C399 135 411 115 431 99 C446 87 454 64 454 43 C454 3 423 -1 399 -1 C363 -1 312 26 300 66 C293 88 273 136 270 138 C245 160 234 189 226 220 C226 223 223 226 219 230 C182 213 133 79 127 58 C110 2 94 -33 40 -33 C9 -33 -21 -8 -21 20 C-21 42 -2 62 11 85 C33 123 54 163 74 203 C85 224 90 248 103 267 C123 298 158 335 158 361 C158 380 124 461 101 496 C71 542 44 589 15 639 C11 645 10 652 10 659 C10 690 37 707 68 707 C119 707 133 646 165 600 C176 584 190 570 199 554 C208 538 214 507 226 499 L226 499 Z " />
<glyph glyph-name="Y" unicode="Y" horiz-adv-x="483" d="M163 43 C160 48 159 54 159 59 C159 77 174 93 174 116 C174 139 169 162 169 185 C169 211 190 230 190 255 C190 264 188 272 186 280 C176 305 174 330 174 355 L174 372 C174 419 126 411 108 450 C71 515 2 563 -34 626 C-40 635 -42 645 -42 655 C-42 687 -30 712 7 712 C31 712 53 698 63 672 C83 619 160 545 186 545 C231 545 292 641 341 672 C345 675 350 677 352 681 C365 703 400 714 424 714 C434 714 473 690 473 668 C473 644 457 619 435 607 C368 571 276 481 276 428 C276 408 286 386 286 364 L286 358 C286 329 303 302 303 276 C303 242 291 207 291 172 C291 152 296 133 296 114 C289 96 286 78 286 60 C286 48 289 36 289 25 C289 2 264 -21 240 -21 C210 -21 160 -6 160 19 C160 25 161 36 163 43 L163 43 Z " />
<glyph glyph-name="Z" unicode="Z" horiz-adv-x="513" d="M301 601 C252 607 211 613 164 613 C144 613 124 610 104 602 C97 599 91 598 84 598 C56 598 18 615 18 648 C18 714 157 709 184 709 C190 709 196 710 203 710 C223 710 244 704 265 704 C307 704 347 723 388 723 C422 723 478 711 478 660 C478 644 472 631 455 624 C421 609 406 581 396 549 C369 467 327 389 280 315 C260 256 229 212 201 158 C193 143 180 130 180 109 C193 102 207 100 221 100 C278 100 336 106 393 111 C407 112 421 118 431 118 C458 118 500 83 500 57 C500 22 462 11 433 10 C369 7 305 1 240 1 L222 1 C183 1 145 -8 107 -19 C97 -23 86 -24 76 -24 C41 -24 -6 -9 -6 38 C-6 73 31 116 55 146 C85 183 110 223 128 266 C170 350 228 429 274 515 C288 541 296 569 301 601 L301 601 Z " />
<glyph glyph-name="bracketleft" unicode="&#x5b;" horiz-adv-x="417" d="M337 668 C319 565 284 578 183 569 C162 567 151 559 151 541 C151 509 148 469 160 436 C165 422 167 408 167 394 C167 362 154 326 154 299 C154 290 156 281 159 271 C167 240 159 207 168 179 C173 164 177 151 177 136 C177 131 175 125 175 119 C175 113 179 105 181 98 C215 96 246 94 278 94 C297 94 312 105 332 105 C356 105 397 87 397 64 C397 -2 350 -14 298 -36 C295 -37 292 -38 288 -38 C267 -38 246 -32 226 -32 C180 -32 124 -46 106 -46 C68 -46 20 -24 20 11 C20 55 38 109 38 146 C38 185 27 226 24 262 C28 298 36 333 36 369 C36 401 25 434 25 467 C25 486 27 505 27 524 C27 557 24 590 24 622 C24 680 30 701 102 701 C124 701 147 697 170 697 C199 697 229 704 259 704 C286 704 309 688 337 668 L337 668 Z " />
<glyph glyph-name="backslash" unicode="&#x5c;" horiz-adv-x="358" d="M288 -24 C285 -24 283 -25 280 -25 C227 -25 205 42 185 91 C170 127 155 162 129 192 C111 212 107 262 97 299 C89 326 74 354 69 381 C59 429 31 469 12 513 C-6 553 -40 607 -40 630 C-40 678 -19 711 29 711 C49 711 62 698 75 672 C88 630 112 593 132 555 C155 512 177 469 196 425 C211 391 209 349 225 318 C250 269 282 217 300 168 C316 123 365 65 365 39 C365 6 327 -25 296 -25 C294 -25 291 -24 288 -24 L288 -24 Z " />
<glyph glyph-name="bracketright" unicode="&#x5d;" horiz-adv-x="353" d="M157 529 C133 536 110 539 87 539 C66 539 43 535 22 535 C-11 535 -38 568 -38 596 C-38 658 25 663 72 663 C119 663 167 673 214 673 C258 673 273 671 298 624 C305 611 307 597 308 584 C308 578 307 571 305 565 C287 515 278 456 278 404 C278 388 280 372 280 357 C280 339 278 320 278 302 C278 279 286 256 286 233 C286 223 285 213 285 203 C285 170 299 144 302 106 C302 83 315 70 315 38 C315 -27 286 -73 245 -73 C221 -73 195 -62 169 -62 C150 -62 130 -66 110 -66 C75 -66 25 -41 25 9 C25 38 62 73 99 73 C104 73 109 72 114 72 C151 72 172 85 172 112 C172 127 160 145 160 157 C158 193 155 229 155 265 L155 278 L155 293 C155 362 162 429 162 497 C162 507 158 518 157 529 L157 529 Z " />
<glyph glyph-name="asciicircum" unicode="&#x5e;" horiz-adv-x="338" d="M221 711 C235 684 254 661 281 642 C302 627 319 596 319 573 C319 549 297 530 272 530 C230 530 199 570 158 603 C156 603 153 604 151 604 C140 604 127 598 117 585 C95 558 44 531 12 532 C-5 532 -21 556 -21 573 C-21 601 18 650 44 672 C75 698 91 749 135 749 C155 749 183 731 221 711 L221 711 Z " />
<glyph glyph-name="underscore" unicode="&#x5f;" horiz-adv-x="537" d="M-28 -159 C9 -103 43 -89 121 -89 C142 -89 164 -90 185 -90 C266 -90 345 -83 425 -83 C485 -83 555 -103 555 -135 C555 -158 509 -210 454 -210 C439 -210 422 -205 404 -205 C307 -205 208 -211 110 -219 C102 -220 94 -220 87 -220 C35 -220 -1 -201 -28 -159 L-28 -159 Z " />
<glyph glyph-name="grave" unicode="&#x60;" horiz-adv-x="197" d="M171 596 L171 589 C171 562 152 545 125 545 C69 545 23 629 -10 680 C-16 689 -19 698 -19 707 C-19 732 11 752 26 752 C65 752 109 693 141 659 C160 639 171 620 171 596 L171 596 Z " />
<glyph glyph-name="a" unicode="a" horiz-adv-x="488" d="M308 103 C255 50 196 -20 109 -20 C49 -20 -6 41 -6 100 C-6 157 40 191 72 230 C116 284 172 315 240 327 C278 334 314 336 314 372 C312 401 297 456 258 456 C217 456 159 441 131 408 C121 396 110 391 95 391 C67 391 55 404 55 424 C55 446 59 466 79 480 C106 498 132 519 166 526 C202 533 247 553 281 553 C345 553 370 504 396 459 C421 427 417 334 433 294 C440 275 443 258 443 239 C443 225 442 211 442 196 L442 184 C442 182 442 179 441 177 C428 152 425 126 425 100 C425 75 427 50 427 26 C423 -24 387 -37 353 -37 C324 -37 327 -19 313 8 C306 21 300 33 300 46 C300 61 315 76 315 88 C315 93 313 98 308 103 L308 103 Z M312 252 C294 254 279 259 264 259 C179 259 120 144 110 135 C103 128 99 122 99 116 C99 102 115 83 127 83 C134 83 139 86 150 92 C211 128 283 192 312 252 L312 252 Z " />
<glyph glyph-name="b" unicode="b" horiz-adv-x="424" d="M155 457 C212 484 230 498 277 498 C299 498 323 500 340 487 C383 454 408 417 408 362 C404 275 351 187 291 89 C272 58 217 8 177 -19 C161 -30 116 -40 87 -40 C51 -40 32 -2 32 21 C32 63 38 105 38 145 C38 180 28 216 28 252 C28 258 28 264 29 270 C43 350 42 432 42 513 C42 551 32 589 32 627 C32 655 34 693 77 693 C146 693 147 604 159 544 C160 539 161 535 161 530 C161 508 157 486 155 457 L155 457 Z M164 103 C193 136 217 167 235 203 C243 218 251 234 261 249 C283 282 293 326 293 366 C293 384 282 394 266 394 C191 394 160 290 140 238 C139 236 139 234 139 232 C139 190 146 141 164 103 L164 103 Z " />
<glyph glyph-name="c" unicode="c" horiz-adv-x="362" d="M344 82 C295 37 246 -18 168 -18 C144 -18 92 -9 81 7 C64 30 49 55 36 81 C21 108 -1 160 -1 176 C-1 179 -1 182 0 185 C9 264 10 385 70 439 C83 451 94 465 109 474 C142 495 190 518 230 518 C269 518 296 500 296 466 C290 393 213 451 167 390 C133 345 109 299 109 241 C109 210 117 177 134 151 C156 126 131 87 183 87 C213 87 241 96 267 111 C280 118 296 131 312 131 C333 131 336 115 344 82 L344 82 Z " />
<glyph glyph-name="d" unicode="d" horiz-adv-x="513" d="M307 160 C274 120 272 66 248 45 C226 26 205 7 174 5 C149 0 143 -16 121 -16 C26 -16 1 101 1 163 C1 189 30 255 31 256 C57 285 72 319 88 353 C110 398 149 425 186 453 C209 471 237 486 268 489 C299 492 324 500 324 531 C324 561 330 592 329 623 C329 634 327 645 327 656 C327 706 355 729 391 729 C416 729 451 704 451 677 L451 673 C443 625 445 575 432 528 C430 521 429 514 429 506 C429 472 439 439 439 407 C439 398 438 388 436 379 C436 364 439 348 439 333 C439 288 424 239 424 191 C424 153 429 122 441 82 C447 62 456 40 456 20 C456 -13 432 -34 397 -34 C311 -23 333 12 317 138 C316 144 312 149 307 160 L307 160 Z M270 384 C233 361 207 355 183 305 C160 257 112 202 112 150 C112 129 122 91 140 91 C175 91 184 144 196 167 C210 195 225 221 238 249 C257 294 266 330 270 384 L270 384 Z " />
<glyph glyph-name="e" unicode="e" horiz-adv-x="424" d="M28 148 C28 206 1 235 1 289 L1 301 C1 401 76 508 155 508 L159 508 C175 508 191 515 208 515 C281 515 301 463 347 401 C370 375 396 313 396 288 C396 258 343 232 308 232 C288 232 264 239 241 239 C206 239 133 236 133 212 C133 170 162 80 195 80 C227 82 252 99 275 99 C292 99 315 83 315 60 C315 0 194 -37 176 -37 C107 -37 27 87 27 136 C27 140 27 144 28 148 L28 148 Z M259 350 C245 384 235 413 202 413 C173 413 125 362 125 345 C125 340 125 334 127 328 C174 334 223 332 259 350 L259 350 Z " />
<glyph glyph-name="f" unicode="f" horiz-adv-x="324" d="M148 494 C155 492 162 492 169 492 C194 492 216 501 239 501 C277 501 304 477 304 445 C304 415 278 381 248 381 C235 381 217 388 200 388 C139 388 135 375 135 301 C135 288 140 274 140 260 C140 245 135 232 135 217 C135 153 163 120 163 86 C163 17 147 -29 86 -29 C44 -29 38 24 28 61 C28 62 27 63 27 64 C27 76 39 84 39 97 C39 115 30 139 30 162 C30 193 36 224 36 255 C36 278 32 300 32 323 C32 393 34 464 35 535 C36 589 46 651 81 694 C114 734 140 749 181 749 C251 749 317 730 317 680 C317 651 281 631 259 631 C238 631 213 644 197 644 C163 644 145 595 145 544 L145 525 L145 513 C145 507 147 501 148 494 L148 494 Z " />
<glyph glyph-name="g" unicode="g" horiz-adv-x="413" d="M144 564 C153 635 158 717 210 717 C264 717 254 648 256 600 C289 590 325 586 325 548 C325 535 327 522 327 508 C345 492 375 468 375 442 C375 438 374 435 373 431 C373 416 384 401 384 386 C384 364 378 339 374 315 C374 313 375 311 375 309 C375 307 374 306 374 305 C355 277 343 247 310 232 C286 221 276 220 276 198 C275 170 270 143 270 116 C270 69 340 17 359 -34 C368 -59 372 -83 372 -108 C372 -117 372 -126 371 -135 C324 -207 231 -250 167 -250 C114 -250 64 -240 15 -209 C-3 -200 -15 -134 -15 -100 C-15 -34 51 70 110 74 C154 96 168 109 168 160 C168 175 166 191 166 208 C129 216 87 217 72 241 C43 287 9 331 9 386 C9 467 71 539 144 564 L144 564 Z M226 490 C159 475 121 448 121 375 C121 331 153 299 199 299 C229 299 271 307 273 343 C274 361 274 379 276 397 C276 409 273 422 262 429 C239 443 227 461 226 490 L226 490 Z M161 -158 C225 -149 260 -136 260 -80 C260 -37 235 -28 205 -12 C197 -8 190 -6 182 -6 C135 -6 93 -66 93 -115 C93 -131 110 -136 120 -147 C131 -160 146 -157 161 -158 L161 -158 Z " />
<glyph glyph-name="h" unicode="h" horiz-adv-x="469" d="M147 421 C212 470 274 532 331 532 C359 532 414 511 419 466 C424 423 429 381 429 338 C425 294 417 248 417 205 C417 190 422 173 422 158 C422 132 417 105 417 80 C417 66 428 52 428 41 C428 9 384 -24 356 -24 C323 -24 293 18 293 54 C293 64 294 74 298 85 C323 157 311 269 312 309 L312 313 C312 323 316 333 316 343 C316 357 312 375 302 400 C299 399 295 399 292 398 C245 360 201 317 169 267 C154 244 133 217 133 192 C133 188 133 183 134 178 C143 136 156 85 156 44 C156 11 128 -33 84 -33 C44 -33 16 9 16 44 C19 73 30 99 30 128 C30 140 24 153 24 165 C24 227 37 291 37 352 C37 399 36 445 33 492 C33 506 26 520 24 534 C20 559 19 584 12 609 C11 612 10 616 10 620 C10 652 46 701 79 701 C116 701 127 664 127 637 L127 632 C127 559 138 486 147 421 L147 421 Z " />
<glyph glyph-name="i" unicode="i" horiz-adv-x="215" d="M153 255 C154 228 159 201 159 174 C159 155 155 136 155 119 C155 97 163 75 163 53 C163 11 133 -18 93 -18 C42 -18 29 32 29 72 C29 125 49 186 49 238 C49 281 29 325 29 368 C29 416 30 481 91 481 C137 481 150 467 150 435 C150 398 144 359 144 323 C144 303 151 277 155 255 L153 255 L153 255 Z M82 643 C122 643 146 625 146 593 C146 562 118 533 90 533 C67 533 35 559 35 577 C35 620 50 642 82 643 L82 643 Z " />
<glyph glyph-name="j" unicode="j" horiz-adv-x="225" d="M110 480 C113 480 117 481 120 481 C137 481 164 461 164 436 C164 433 163 429 162 425 C148 384 144 342 144 299 C144 215 145 123 160 38 C161 35 161 31 161 28 C161 -14 156 -60 156 -104 C156 -122 169 -142 169 -160 C169 -217 128 -236 92 -236 C58 -236 33 -200 33 -147 C33 -132 42 -104 42 -81 C42 -76 41 -71 41 -66 C41 -35 52 -1 52 32 C52 73 43 115 43 158 C43 174 44 189 44 205 C44 262 30 318 30 375 C30 414 33 470 74 477 C84 478 93 479 110 480 L110 480 Z M144 593 C142 587 137 565 124 559 C110 552 98 537 83 537 C53 537 30 582 30 603 C30 630 52 651 77 651 C109 648 142 635 144 593 L144 593 Z " />
<glyph glyph-name="k" unicode="k" horiz-adv-x="490" d="M171 356 C237 401 275 433 313 481 C335 509 346 529 377 529 C406 529 438 504 438 477 C438 418 367 375 322 339 C293 315 254 291 234 264 C246 239 263 219 289 209 C348 185 390 136 440 101 C453 91 462 78 462 64 C462 32 432 1 404 1 C383 1 350 14 333 34 C292 83 234 114 175 138 C171 125 169 113 169 101 C169 82 176 64 176 47 C176 11 147 -24 107 -24 C74 -24 41 21 41 55 C41 59 41 63 42 68 C52 142 66 218 66 294 C66 320 64 346 58 373 C42 444 41 525 41 591 C41 618 48 699 93 699 C126 699 165 677 165 655 C165 615 147 572 147 529 C147 469 153 432 171 356 L171 356 Z " />
<glyph glyph-name="l" unicode="l" horiz-adv-x="207" d="M139 599 C138 566 137 533 137 500 C137 421 148 343 151 264 C152 241 159 218 159 194 C159 186 158 177 155 168 C159 157 160 146 160 134 C160 129 159 124 159 119 C159 102 169 85 169 69 C169 30 136 -14 103 -14 C77 -14 39 12 39 47 C39 61 30 75 30 90 C30 109 45 128 45 147 C45 165 41 184 41 202 L41 225 C36 335 30 447 30 554 C30 578 28 603 28 628 C28 658 56 689 86 689 C133 689 137 643 140 599 L139 599 L139 599 Z " />
<glyph glyph-name="m" unicode="m" horiz-adv-x="763" d="M165 384 C222 437 279 486 338 535 C344 540 353 541 361 541 C433 541 416 453 435 396 C492 429 534 482 592 517 C603 524 615 527 627 526 C657 526 671 513 690 491 C693 487 695 484 695 480 C695 466 683 447 683 427 C683 387 699 353 699 313 C699 307 698 300 696 295 C685 270 681 244 681 218 C681 193 687 168 687 143 C687 116 683 91 683 64 C683 50 684 37 684 24 C684 -4 655 -29 621 -29 C558 -29 558 45 558 87 C558 159 579 237 579 301 C579 321 577 341 572 369 C529 353 509 308 476 280 C464 270 457 252 451 237 C439 209 423 182 422 150 C424 110 441 75 441 39 C441 1 419 -27 379 -27 C338 -27 306 5 306 48 C306 79 313 113 313 148 C313 168 311 187 311 207 C311 214 313 222 318 229 C330 245 329 265 329 284 C329 313 326 354 318 378 C295 368 299 352 278 348 C263 345 207 259 184 228 C168 207 160 189 160 165 C160 152 163 137 163 123 C163 105 161 87 161 70 C161 51 174 36 174 13 C174 -16 149 -41 104 -41 C82 -41 34 -17 34 28 C34 71 41 136 47 190 C50 221 60 251 60 282 C60 346 33 420 33 454 C33 487 40 539 71 544 C82 545 94 545 106 545 C144 545 168 522 168 486 C168 459 157 432 157 407 C157 399 159 391 165 384 L165 384 Z " />
<glyph glyph-name="n" unicode="n" horiz-adv-x="524" d="M164 374 C230 419 273 476 330 526 C343 538 370 547 384 547 C413 547 444 521 444 494 C444 485 442 476 442 467 C442 392 466 318 466 244 C466 227 464 210 464 193 C464 151 465 110 473 68 C474 62 475 57 475 52 C475 15 445 -14 408 -14 C371 -14 345 18 345 62 C348 125 357 191 357 253 C357 289 342 373 323 373 C309 373 260 317 236 294 C210 269 168 235 167 207 C167 203 169 198 169 193 C169 167 159 141 159 115 C159 91 175 67 175 45 C175 4 137 -31 106 -31 C75 -31 37 -12 37 46 C37 69 42 93 48 115 C58 155 61 199 61 239 C61 304 43 368 41 435 C41 488 52 549 113 549 C139 549 173 527 173 499 C173 477 159 451 159 424 C159 408 161 391 164 374 L164 374 Z " />
<glyph glyph-name="o" unicode="o" horiz-adv-x="435" d="M10 157 C10 209 10 262 12 314 L12 318 C12 358 47 415 79 446 C90 457 97 472 109 481 C139 502 173 517 213 520 C249 520 275 483 308 468 C351 448 383 429 394 382 C401 351 412 321 412 289 C412 147 297 -27 204 -27 C175 -27 145 -20 116 -18 C67 -16 16 30 16 82 C16 107 11 132 8 157 L10 157 L10 157 Z M189 416 C145 375 118 347 118 299 C118 274 125 249 125 225 C125 206 118 187 118 169 C118 117 133 85 188 85 C247 85 281 180 291 213 C299 239 307 263 307 290 C307 368 245 383 189 416 L189 416 Z " />
<glyph glyph-name="p" unicode="p" horiz-adv-x="479" d="M163 53 C162 36 159 20 159 4 C159 -9 163 -23 163 -36 C163 -55 152 -77 152 -104 C154 -127 162 -153 162 -177 C162 -207 141 -235 105 -235 C98 -235 66 -224 54 -211 C40 -196 36 -170 37 -154 L37 -141 C37 -129 35 -117 35 -106 C35 -78 40 -51 51 -25 C52 -23 53 -20 53 -17 C53 -3 46 9 46 22 C46 31 47 41 47 51 C47 93 40 135 40 177 C40 209 46 241 46 274 C46 340 44 407 37 473 C37 476 36 479 36 481 C36 511 56 533 85 533 C127 533 141 486 147 450 C149 440 150 429 159 422 C170 424 175 432 177 441 C183 478 246 510 286 510 C342 510 419 486 436 421 C445 386 454 352 454 317 C454 225 417 126 334 78 C289 56 212 60 163 53 L163 53 Z M346 335 C337 364 337 402 306 402 C272 402 256 345 239 320 C225 299 213 276 202 253 C189 227 185 197 154 182 C148 180 146 174 146 167 C146 149 157 141 168 141 C223 141 289 166 318 217 C342 260 340 295 346 335 L346 335 Z " />
<glyph glyph-name="q" unicode="q" horiz-adv-x="491" d="M296 134 C268 109 241 90 220 67 C194 39 139 13 111 13 C78 13 36 34 25 74 C19 103 4 119 4 158 C4 175 16 189 16 203 L16 211 C18 267 36 315 73 355 C92 375 113 395 130 417 C141 432 156 434 170 445 C206 474 251 496 296 513 C322 523 365 523 395 523 C422 523 435 511 435 487 C435 415 407 347 407 275 C407 223 413 168 414 115 C420 80 428 46 428 11 C428 -25 419 -61 419 -97 C419 -119 425 -139 425 -161 C425 -196 399 -225 364 -225 C316 -225 299 -162 299 -122 C299 -116 299 -110 300 -104 C307 -68 306 -30 312 4 C313 10 314 17 314 24 C314 58 304 92 296 134 L296 134 Z M289 398 C254 391 261 383 213 353 C167 329 138 290 128 240 C123 219 121 198 116 177 C118 158 115 134 135 134 C155 134 210 193 226 221 C252 268 292 302 292 385 C292 390 293 391 289 398 L289 398 Z " />
<glyph glyph-name="r" unicode="r" horiz-adv-x="397" d="M163 450 C165 450 166 449 168 449 C185 449 197 463 208 473 C241 503 279 517 322 516 C365 516 404 502 404 458 C399 419 350 416 315 409 C289 404 241 365 221 339 C189 297 154 226 154 186 C154 164 164 140 164 118 C164 96 154 75 154 51 C154 43 157 34 157 26 C157 -16 138 -43 105 -43 C62 -43 34 1 34 33 C34 62 48 89 48 122 C48 150 47 179 47 208 C47 252 52 296 51 339 C51 348 50 356 49 365 C39 405 36 450 36 489 C36 521 54 558 85 558 C137 558 146 534 151 482 C151 470 152 458 163 450 L163 450 Z " />
<glyph glyph-name="s" unicode="s" horiz-adv-x="339" d="M301 442 C281 427 273 415 255 415 C241 415 227 418 213 418 C173 418 134 409 134 362 C134 344 191 304 215 290 C271 257 312 206 312 135 C312 60 276 -23 188 -23 C127 -20 46 0 15 56 C12 61 11 66 11 72 C11 89 24 115 42 115 C74 111 106 97 137 97 C164 97 189 125 189 148 C189 171 101 243 55 270 C18 291 13 325 13 358 C13 453 77 530 180 530 C261 530 295 508 301 442 L301 442 Z " />
<glyph glyph-name="t" unicode="t" horiz-adv-x="335" d="M178 411 C171 402 169 393 169 385 C169 348 176 312 176 275 C176 236 171 199 171 161 C171 123 173 86 173 48 C173 14 148 -10 110 -10 C72 -10 32 17 32 56 C32 105 61 156 61 208 C61 217 58 228 58 238 C58 256 67 275 67 293 C67 335 62 399 39 422 C27 434 22 446 22 464 C26 491 53 497 53 517 C53 555 43 597 43 634 C43 670 68 709 105 709 C169 709 154 604 157 543 C158 518 163 514 187 512 C250 507 364 525 364 457 C364 403 230 412 178 411 L178 411 Z " />
<glyph glyph-name="u" unicode="u" horiz-adv-x="516" d="M171 149 C173 152 176 155 177 158 C178 180 191 197 201 216 C238 284 296 341 297 420 C297 463 333 512 370 512 C417 512 436 490 439 459 C447 416 452 376 452 334 C452 318 451 303 451 287 C451 266 453 247 457 227 C464 191 458 153 467 113 C471 95 474 76 474 58 C474 18 457 -22 411 -22 C382 -22 341 3 341 37 C341 86 342 134 342 183 C342 191 340 199 335 208 C310 198 277 96 239 48 C236 44 232 41 231 37 C220 4 164 -25 149 -25 C91 -25 30 38 30 95 C30 122 39 150 39 177 C39 217 28 258 28 297 C28 310 29 323 29 336 C29 351 28 366 28 381 C28 438 34 482 74 517 C81 523 90 526 99 526 C131 526 153 496 153 466 C153 446 137 424 137 400 C137 319 154 234 163 152 C166 151 169 150 171 149 L171 149 Z " />
<glyph glyph-name="v" unicode="v" horiz-adv-x="456" d="M211 207 C219 218 224 222 225 227 C236 282 265 330 280 383 C288 412 299 441 307 470 C316 502 352 514 380 514 C405 514 437 490 437 462 C437 438 408 404 392 375 C375 344 365 300 351 263 C333 217 316 169 303 122 C290 76 281 -13 210 -13 C130 -13 131 102 114 138 C91 185 77 237 51 284 C25 330 3 378 -10 431 C-12 436 -12 441 -12 445 C-12 470 13 498 35 498 C103 498 111 411 132 356 C155 304 187 259 211 207 L211 207 Z " />
<glyph glyph-name="w" unicode="w" horiz-adv-x="609" d="M179 218 C198 251 221 274 221 311 C221 341 263 374 292 374 C365 374 339 278 401 219 C405 254 422 278 433 305 C449 343 460 384 477 424 C489 465 483 483 518 495 C528 498 537 504 548 504 C588 504 608 470 608 435 C608 425 606 416 598 406 C571 369 557 324 541 282 C525 240 503 187 503 145 C503 140 504 135 504 130 C504 66 472 -7 421 -7 C367 -7 365 34 355 79 C343 113 319 132 297 157 C274 155 263 118 257 95 C244 48 215 -18 169 -18 C129 -18 102 24 97 62 C94 85 96 110 78 130 C77 131 76 133 76 135 C76 140 78 145 78 149 C78 175 58 197 52 221 C44 250 30 278 19 306 C17 310 12 314 11 318 C11 361 -21 397 -21 437 C-21 489 5 513 36 513 C58 513 93 504 95 477 C102 395 128 333 161 250 C164 241 170 233 179 218 L179 218 Z " />
<glyph glyph-name="x" unicode="x" horiz-adv-x="439" d="M70 -23 C36 -6 -6 8 -6 40 C-6 86 69 185 82 210 C99 234 135 274 135 294 C135 309 105 353 86 373 C59 401 44 434 34 470 C32 476 31 482 28 488 C42 508 53 531 80 531 C106 531 129 514 135 491 C142 465 160 444 171 420 C177 405 189 391 211 388 C251 445 302 542 351 542 C381 542 414 511 414 481 C414 461 314 356 311 346 C301 314 266 302 266 270 C266 212 337 150 365 121 C388 96 437 83 437 46 C437 12 405 -13 384 -13 C341 -13 288 43 259 79 C239 103 214 123 190 146 C184 141 176 139 173 133 C162 111 148 90 142 66 C130 20 112 9 70 -23 L70 -23 Z " />
<glyph glyph-name="y" unicode="y" horiz-adv-x="408" d="M228 318 C260 355 275 409 282 459 C289 492 316 513 338 513 C367 513 397 486 397 454 C397 424 381 378 370 347 C346 278 340 205 315 134 C291 64 287 -12 259 -81 C232 -148 251 -199 186 -199 C156 -199 113 -174 113 -140 C113 -117 135 -92 135 -65 L135 -54 C135 -51 136 -48 138 -46 C163 -18 161 21 178 52 C185 65 181 85 186 101 C189 112 191 122 191 132 C191 171 152 219 113 243 C80 263 72 301 50 337 C14 385 -22 439 -36 496 C-37 500 -38 504 -38 507 C-38 525 -19 539 8 539 C46 539 64 517 81 478 C108 407 156 355 228 318 L228 318 Z " />
<glyph glyph-name="z" unicode="z" horiz-adv-x="439" d="M201 388 C167 394 137 404 108 404 C89 404 69 395 52 395 C22 395 -15 419 -15 453 C-15 477 1 499 22 499 C30 499 39 497 47 497 C77 497 104 508 134 508 C155 508 177 502 199 502 C236 502 287 512 330 516 C365 516 386 493 386 471 C386 434 338 387 309 347 C306 345 307 340 304 338 C254 287 225 201 199 145 C210 141 218 136 225 136 C234 137 243 137 252 137 C283 137 314 129 346 129 C360 129 375 130 389 130 C418 130 445 107 445 74 C445 29 403 12 360 12 C328 12 294 27 261 27 C212 27 164 12 118 -6 C105 -11 94 -14 83 -14 C60 -14 24 8 24 54 C24 73 34 94 47 105 C105 157 123 246 154 306 C167 331 183 357 201 388 L201 388 Z " />
<glyph glyph-name="braceleft" unicode="&#x7b;" horiz-adv-x="357" d="M208 262 C236 221 268 184 268 140 C268 106 255 86 252 49 C266 47 277 42 288 42 C292 42 296 43 300 43 C331 43 377 15 377 -12 C377 -72 258 -77 251 -79 C240 -82 230 -83 219 -83 C159 -83 113 -44 113 34 C113 43 114 52 116 61 C123 85 117 110 126 134 C126 136 127 138 127 140 C127 198 11 168 11 259 C11 308 61 336 95 366 C86 402 73 426 73 460 C73 550 93 616 170 640 C197 648 224 658 254 657 C286 656 305 632 305 604 C305 577 269 534 230 531 C210 529 205 505 205 486 C205 453 243 406 243 360 C243 330 230 299 208 262 L208 262 Z " />
<glyph glyph-name="bar" unicode="&#x7c;" horiz-adv-x="280" d="M188 653 L188 635 C188 567 193 490 197 419 C197 396 192 373 192 350 C192 337 195 323 195 310 C195 287 194 265 194 243 C194 199 192 143 202 95 C206 75 209 55 209 33 C209 -12 176 -49 130 -49 C108 -49 64 -23 64 13 C64 41 72 67 72 95 C72 109 60 122 60 135 C60 148 70 164 70 179 C70 200 61 224 61 248 C61 276 65 303 65 330 C65 345 63 360 63 375 C63 413 72 449 72 489 C76 549 59 653 105 675 C122 683 132 688 141 688 C155 688 164 677 188 653 L188 653 Z " />
<glyph glyph-name="braceright" unicode="&#x7d;" horiz-adv-x="366" d="M132 51 C135 68 137 85 137 101 C137 156 110 209 110 265 C110 289 118 313 118 337 C118 367 95 393 95 422 C95 433 97 443 97 454 C97 492 75 519 35 524 C-2 529 -34 568 -34 596 C-34 628 12 657 48 657 C77 657 115 635 149 621 C197 601 240 526 240 494 C240 480 231 465 231 448 C231 417 263 408 292 402 C326 395 344 362 344 332 C344 279 301 267 252 258 C251 250 250 243 250 236 C250 170 282 108 282 43 C282 -69 189 -77 115 -77 C72 -77 20 -72 20 -17 C20 29 78 33 132 51 L132 51 Z " />
<glyph glyph-name="asciitilde" unicode="&#x7e;" horiz-adv-x="729" d="M227 403 C314 403 355 343 409 299 C422 288 435 284 448 284 C531 284 572 383 625 383 C657 383 680 362 680 333 C680 316 672 302 663 287 C618 212 534 157 445 157 C376 157 320 202 263 253 C249 266 233 273 217 273 C146 273 163 153 85 153 C49 153 27 181 27 220 C27 263 63 295 83 331 C115 388 162 401 227 403 L227 403 Z " />
<glyph glyph-name="exclamdown" unicode="&#xa1;" horiz-adv-x="246" d="M166 -167 C147 -168 128 -171 108 -171 C73 -171 42 -140 42 -104 C42 -83 46 -62 46 -42 C46 -18 41 7 41 32 C41 68 44 105 44 142 C44 167 43 193 43 218 C43 283 55 358 116 358 C146 358 179 339 179 306 C176 274 170 243 170 211 C170 179 180 149 180 117 C180 96 173 77 173 56 C173 9 189 -36 189 -84 C189 -112 184 -140 166 -167 L166 -167 Z M115 428 C69 428 45 453 45 485 C45 514 78 546 107 546 C153 546 185 510 185 475 C185 442 130 432 115 428 L115 428 Z " />
<glyph glyph-name="cent" unicode="&#xa2;" horiz-adv-x="505" d="M376 112 C379 111 382 110 385 110 C405 110 433 144 467 144 C489 144 506 123 506 100 C506 54 430 9 425 6 C416 -1 405 -6 394 -12 C366 -28 355 -52 355 -82 C355 -111 361 -141 361 -168 C361 -202 321 -248 292 -248 C242 -248 230 -194 230 -160 C230 -144 235 -130 235 -116 C235 -92 229 -49 205 -47 C175 -42 150 -27 131 -5 C128 -2 125 1 122 3 C62 37 31 127 31 177 C31 195 35 212 41 228 C79 321 100 435 201 488 C235 506 246 532 246 562 C246 587 238 614 238 639 C238 680 255 744 289 744 C329 744 365 708 365 671 C365 656 360 636 360 619 C360 598 364 577 367 556 C403 556 426 561 446 528 C461 510 460 493 460 481 C460 450 414 437 364 425 C344 420 342 408 342 387 C342 335 359 281 359 224 C359 210 356 196 356 183 C356 157 365 135 376 112 L376 112 Z M224 339 C202 311 204 293 192 274 C171 243 162 208 162 170 C162 145 187 83 231 83 C247 83 244 96 244 105 C242 149 239 194 239 238 L239 260 C239 286 233 310 224 339 L224 339 Z " />
<glyph glyph-name="yen" unicode="&#xa5;" horiz-adv-x="475" d="M137 410 C126 447 100 491 80 508 C24 553 -43 625 -43 681 C-43 725 -28 721 16 732 C26 723 50 706 50 701 C56 678 74 669 91 657 C123 634 154 609 188 583 C223 606 253 640 285 668 C308 687 334 703 355 725 C371 741 390 750 413 750 C440 750 478 733 478 705 C478 648 418 620 380 595 C360 582 342 568 328 548 C325 542 319 537 313 534 C274 513 272 470 270 429 C284 419 299 420 313 420 C346 420 375 395 375 358 C375 313 340 288 307 288 L292 288 C279 288 278 285 273 266 C280 261 286 259 293 259 C302 259 313 263 323 263 C350 263 375 233 375 208 C375 179 351 139 324 136 C299 133 271 132 271 113 C271 88 280 53 280 29 C280 -15 249 -44 217 -44 C157 -44 140 25 140 83 C140 94 142 109 142 117 C142 154 59 120 59 183 C59 231 138 226 138 256 C138 292 108 290 83 290 C55 292 31 323 31 347 C31 407 116 369 137 410 L137 410 Z " />
<glyph glyph-name="section" unicode="&#xa7;" horiz-adv-x="455" d="M301 95 C322 57 358 -2 358 -43 C358 -99 318 -161 266 -170 C241 -174 217 -193 188 -193 C148 -193 107 -167 107 -131 C107 -100 138 -78 171 -78 C192 -76 226 -50 226 -36 C226 -17 202 18 190 39 C169 73 124 54 97 87 C91 95 85 103 76 107 C37 124 20 198 20 244 C20 325 62 394 118 426 C98 453 82 467 82 487 C82 498 104 567 131 589 C171 622 220 648 278 648 C309 648 336 638 365 630 C390 623 416 587 416 565 C416 533 380 514 353 514 C332 514 313 527 294 527 L288 527 C274 527 255 531 246 531 C233 531 229 524 218 501 C226 486 240 480 254 474 C294 458 337 418 357 384 C361 376 366 367 372 360 C395 333 406 308 406 282 C406 221 339 143 301 95 L301 95 Z M141 257 C146 204 154 188 190 188 C229 191 287 230 287 260 C287 297 246 341 208 341 C180 341 141 286 141 264 L141 257 L141 257 Z " />
<glyph glyph-name="dieresis" unicode="&#xa8;" horiz-adv-x="372" d="M119 687 C119 658 100 632 62 632 C34 632 3 668 3 698 C3 722 33 747 54 747 C90 747 116 722 119 687 L119 687 Z M323 655 C294 634 291 621 270 621 C236 621 211 643 211 670 C211 698 228 731 253 731 C287 731 320 711 322 676 C322 670 322 664 323 655 L323 655 Z " />
<glyph glyph-name="copyright" unicode="&#xa9;" horiz-adv-x="792" d="M27 198 C24 216 16 250 16 275 C16 277 16 278 17 280 C31 319 30 363 51 399 C67 425 82 453 100 476 C124 506 173 559 191 564 C222 576 251 596 287 597 C332 598 375 610 420 610 C439 610 464 609 476 596 C502 567 538 559 573 550 C673 530 747 406 747 344 C747 340 746 337 746 334 C737 291 739 248 736 206 C733 168 719 135 704 102 C699 91 689 84 682 74 C662 50 643 25 624 -1 C597 -37 556 -55 519 -78 C517 -79 515 -80 512 -80 C477 -83 443 -95 408 -95 C394 -95 381 -91 367 -91 C355 -91 343 -94 331 -94 C329 -94 328 -94 326 -93 C265 -80 180 -73 155 -20 C121 3 111 43 85 72 C57 102 26 137 26 181 C26 187 26 192 27 198 L27 198 Z M378 27 C445 30 491 36 543 94 C564 117 571 148 598 167 C609 175 621 279 621 320 C621 351 610 382 585 400 C566 413 553 434 531 442 C498 454 463 462 435 483 C428 487 420 488 413 488 C378 488 296 483 259 447 C211 439 183 372 158 327 C156 323 156 319 156 315 L156 306 C155 279 150 247 150 225 C150 171 213 133 246 79 C276 29 332 34 378 27 L378 27 Z M395 216 C413 219 427 223 441 223 C478 223 503 201 503 158 C503 117 431 87 386 87 C339 87 300 112 265 148 C233 181 219 232 220 275 C220 303 253 355 267 366 C299 390 329 409 371 415 C387 417 401 428 417 428 C447 428 492 409 492 377 C492 324 442 301 395 301 C373 301 350 277 350 265 C350 250 359 237 395 216 L395 216 Z " />
<glyph glyph-name="guillemotleft" unicode="&#xab;" horiz-adv-x="617" d="M260 -5 C210 12 167 40 137 81 C111 116 82 153 49 182 C28 200 16 221 16 246 C16 287 67 352 103 400 C137 445 188 527 234 527 C273 527 304 497 304 464 C304 439 281 418 261 400 C214 365 175 298 175 250 C175 206 248 155 299 131 C331 116 337 88 337 57 C337 16 302 7 260 -5 L260 -5 Z M631 88 C621 48 587 15 541 15 C524 15 488 38 475 56 C432 105 370 138 317 178 C298 193 287 212 287 233 C287 265 316 300 336 329 C356 358 378 386 396 416 C418 453 443 501 487 501 C517 501 555 475 555 435 C555 410 537 372 513 361 C489 350 455 276 455 268 C455 232 522 193 561 169 C591 150 620 128 631 88 L631 88 Z " />
<glyph glyph-name="registered" unicode="&#xae;" horiz-adv-x="867" d="M837 264 C838 250 839 236 839 223 C839 178 814 148 804 111 C794 75 759 79 753 48 C746 28 687 -24 656 -35 C622 -48 593 -66 561 -83 C556 -86 550 -91 543 -93 C480 -105 417 -116 352 -118 L341 -118 C330 -118 317 -122 306 -122 C275 -122 247 -110 219 -91 C209 -85 199 -81 188 -79 C104 -61 62 -6 30 82 C20 111 1 144 1 173 C1 206 5 241 5 275 C5 278 4 282 4 285 C4 287 5 288 5 289 C20 306 17 327 18 347 C20 388 39 419 49 458 C83 588 221 631 338 658 C343 659 349 659 355 659 C370 659 386 658 402 658 L414 658 C435 658 462 641 490 636 C513 632 535 630 558 625 C614 613 668 578 704 533 C726 505 743 474 767 450 C819 397 837 341 838 264 L837 264 L837 264 Z M374 10 L374 6 C404 9 434 10 462 17 C550 40 637 90 685 168 C698 188 709 211 709 236 C709 313 674 362 623 426 C570 492 493 536 414 536 C329 536 196 509 177 430 C172 410 150 390 148 375 C142 341 135 306 135 272 C135 229 133 176 165 138 C170 132 170 122 174 114 C187 85 206 61 235 44 C259 30 301 8 315 9 C327 9 338 12 349 12 C355 12 360 10 366 10 L374 10 L374 10 Z M489 246 C504 214 591 221 591 169 C591 145 552 105 524 105 C470 105 426 134 370 163 C345 122 341 100 306 100 C277 100 229 118 229 150 C229 178 242 206 242 233 C242 247 238 261 238 275 C238 288 244 300 244 310 C244 328 225 335 225 367 C225 438 287 474 354 474 C403 474 486 464 519 431 C552 403 562 382 562 347 C562 304 521 278 489 246 L489 246 Z " />
<glyph glyph-name="degree" unicode="&#xb0;" horiz-adv-x="351" d="M48 469 C21 509 -7 543 -7 590 C-7 684 65 680 127 717 C144 727 178 740 197 740 C224 740 256 717 276 698 C296 680 295 642 307 619 C313 608 315 598 315 587 C315 503 253 424 156 424 C129 424 48 451 48 469 L48 469 Z M163 618 C127 616 98 580 98 556 C98 533 125 532 150 532 C181 532 192 561 192 574 C192 591 182 594 163 618 L163 618 Z " />
<glyph glyph-name="plusminus" unicode="&#xb1;" horiz-adv-x="617" d="M362 286 C357 278 355 270 355 263 C355 248 365 231 365 216 C365 190 322 135 280 135 C232 135 199 179 199 217 C199 235 203 252 206 274 C189 278 171 282 154 282 C136 282 119 278 102 278 C49 278 -4 289 -4 349 C-4 382 38 404 72 404 C84 404 97 402 109 402 C156 402 213 405 213 454 C213 463 209 474 209 484 C209 513 239 550 269 550 C322 550 323 488 329 446 C334 414 335 413 366 410 C387 408 407 407 428 407 C465 407 501 414 537 414 C570 414 594 390 594 353 C594 266 456 286 362 286 L362 286 Z M154 113 C163 114 172 115 181 115 C199 115 218 109 236 109 C260 109 285 117 310 117 C336 117 363 109 390 109 C414 109 437 115 461 115 C511 115 573 109 573 53 C573 10 536 -16 496 -16 C438 -16 381 -6 323 -6 C300 -6 275 -5 253 -9 C207 -18 157 -16 110 -16 C68 -16 35 14 35 48 C35 93 87 115 128 115 C139 114 148 114 154 113 L154 113 Z " />
<glyph glyph-name="acute" unicode="&#xb4;" horiz-adv-x="226" d="M32 561 C3 561 -17 581 -17 608 C-17 667 92 750 140 750 C177 750 199 717 199 690 C199 645 135 621 84 580 C69 568 52 562 32 561 L32 561 Z " />
<glyph glyph-name="paragraph" unicode="&#xb6;" horiz-adv-x="631" d="M226 266 C192 248 163 231 134 231 C49 231 9 332 6 370 C5 381 4 392 4 404 C4 456 18 501 48 543 C111 631 205 672 303 685 C310 689 317 691 325 691 C339 691 355 685 370 685 C397 685 447 700 466 700 C499 700 526 680 562 656 C564 633 571 606 571 582 C571 580 571 577 570 575 C555 532 560 486 557 441 C556 422 555 402 555 382 C555 317 566 252 573 187 L573 182 C573 170 569 159 569 147 C569 138 572 130 572 121 C572 110 570 98 570 87 C570 74 572 62 578 50 C563 8 554 -49 489 -49 C455 -49 420 -2 420 30 C420 49 441 106 441 115 C441 205 431 297 431 386 C431 407 437 427 437 448 C437 466 435 484 435 501 C435 514 437 527 438 540 C437 551 429 558 420 558 C367 558 362 466 362 441 C362 433 367 425 367 417 C367 414 366 411 365 408 C359 387 357 366 357 344 C357 312 365 280 365 248 C365 233 360 218 360 202 C360 150 369 99 369 46 C369 7 327 -19 299 -19 C278 -19 259 -4 240 9 C234 29 233 50 233 71 C233 101 234 131 234 161 C234 196 240 233 226 266 L226 266 Z " />
<glyph glyph-name="onesuperior" unicode="&#xb9;" horiz-adv-x="215" d="M85 749 C110 745 147 738 147 706 C147 694 139 677 139 662 C139 648 141 634 142 621 L142 596 C142 575 143 553 150 532 C152 526 152 521 152 516 C152 459 110 452 87 452 C57 452 16 469 16 511 C16 533 19 555 19 576 C19 611 18 645 18 679 C18 735 26 746 85 749 L85 749 Z " />
<glyph glyph-name="guillemotright" unicode="&#xbb;" horiz-adv-x="594" d="M16 512 C35 514 45 517 57 517 C85 517 105 501 123 479 C130 469 138 458 147 452 C188 422 222 383 267 358 C312 333 321 290 322 278 C322 181 213 145 207 50 C205 18 170 -34 122 -34 C98 -34 58 -16 58 10 C58 43 59 75 78 104 C106 146 157 211 157 253 C157 297 38 380 21 398 C6 413 -3 429 -2 449 C-2 465 6 489 16 512 L16 512 Z M384 489 L388 489 C411 489 467 431 491 392 C500 377 517 366 529 353 C554 324 590 287 590 255 C590 216 526 164 495 121 C472 89 467 41 448 15 C430 -11 400 -20 369 -19 C339 -18 321 21 321 49 C321 97 365 168 407 207 C420 217 428 238 428 249 C428 298 313 373 313 411 C313 416 314 422 314 427 C313 432 313 436 313 440 C313 478 339 484 384 489 L384 489 Z " />
<glyph glyph-name="onequarter" unicode="&#xbc;" horiz-adv-x="835" d="M544 196 C559 191 574 189 588 189 C610 189 634 190 638 213 C649 282 652 320 705 320 C740 320 772 282 772 248 C772 239 770 229 770 219 C770 194 780 170 780 144 C780 106 777 68 776 29 C776 18 778 6 778 -5 C778 -36 739 -52 708 -52 C677 -52 643 -38 643 2 C643 13 646 24 646 34 C646 49 643 64 638 81 C621 88 603 91 586 91 C547 91 504 75 460 75 C414 75 357 98 357 141 C357 198 462 281 485 316 C496 332 512 340 529 340 C575 340 604 314 604 295 C604 268 562 223 544 196 L544 196 Z M479 540 C511 532 544 525 544 481 C544 465 539 449 522 438 C466 403 432 339 382 291 C368 277 357 261 345 245 C332 227 323 203 302 190 C298 188 295 183 293 179 C270 113 202 79 173 20 C157 -6 129 -32 98 -32 C84 -32 72 -23 61 -17 C33 -3 22 10 22 27 C22 97 133 145 176 230 C179 235 183 240 187 244 C223 278 250 319 282 356 C306 385 332 412 357 440 C360 444 366 446 367 450 C375 479 401 490 418 512 C432 530 451 540 479 540 L479 540 Z M144 313 C79 313 65 377 65 435 C65 453 66 470 66 487 L66 507 C66 530 101 547 123 547 C162 547 190 537 190 484 C190 471 186 459 186 448 C186 419 214 396 214 377 C214 336 181 313 144 313 L144 313 Z " />
<glyph glyph-name="onehalf" unicode="&#xbd;" horiz-adv-x="687" d="M441 549 C469 549 495 536 495 499 C495 483 481 464 470 454 C393 385 365 276 290 202 C283 194 278 182 271 172 C240 128 182 64 182 31 C182 -5 146 -27 111 -27 C71 -27 53 -8 34 37 C33 38 33 39 33 41 C33 71 78 126 97 141 C117 157 132 178 147 200 C214 300 286 399 350 499 C374 536 398 549 441 549 L441 549 Z M477 210 C428 213 379 217 379 271 C379 314 457 334 494 334 C554 334 619 303 619 224 C619 173 591 140 557 101 C573 101 585 102 595 102 C630 102 662 69 662 39 C662 -41 538 -5 449 -29 C438 -32 428 -33 417 -33 C374 -33 329 -8 329 37 C329 57 337 75 353 86 C392 112 420 158 454 172 C468 177 477 187 477 205 L477 210 L477 210 Z M93 564 C127 557 154 549 154 520 C154 507 147 491 147 475 C147 437 144 388 156 347 C158 341 159 335 159 329 C159 285 130 266 94 266 C63 266 23 286 23 326 C23 348 26 370 26 391 C26 426 25 460 25 494 C25 547 31 561 93 564 L93 564 Z " />
<glyph glyph-name="threequarters" unicode="&#xbe;" horiz-adv-x="831" d="M242 223 C201 211 176 195 136 195 C94 195 13 217 13 268 C13 292 48 318 77 318 C93 318 110 302 127 302 C132 302 137 304 143 307 C100 346 66 357 66 391 C66 408 73 423 83 452 C64 471 38 494 38 517 C38 534 62 562 86 562 L88 562 C107 562 126 565 145 565 C253 565 272 488 272 448 C272 424 260 415 246 388 C266 368 284 349 305 328 C325 335 331 354 341 370 C379 434 451 563 499 563 C542 563 570 557 570 524 C570 483 494 388 498 391 C479 374 468 351 455 330 C424 278 392 226 360 173 C349 154 341 133 322 119 C319 116 317 111 316 107 C308 63 274 34 255 -3 C239 -42 213 -81 174 -81 C139 -81 106 -41 106 -21 C106 15 162 73 181 105 C203 142 226 182 242 223 L242 223 Z M552 180 C568 177 583 175 598 175 C609 175 620 176 631 179 C639 227 645 319 708 319 C748 319 783 305 783 264 C783 238 765 216 765 195 C765 172 792 151 792 126 C792 104 778 88 759 66 C768 43 773 13 790 -4 C795 -15 798 -25 798 -35 C798 -63 776 -84 740 -84 C668 -84 650 -23 638 47 C634 68 624 78 607 78 C562 78 513 62 472 62 C434 62 393 76 393 117 C393 158 429 219 453 262 C477 305 526 354 571 354 C597 354 633 338 633 311 C633 295 624 270 608 261 C576 244 567 212 552 180 L552 180 Z " />
<glyph glyph-name="questiondown" unicode="&#xbf;" horiz-adv-x="289" d="M127 -60 C141 -70 155 -74 169 -74 C186 -74 203 -65 220 -65 C250 -65 290 -83 290 -108 C290 -153 177 -190 149 -190 C133 -190 114 -183 92 -183 C62 -183 4 -148 4 -136 C1 -104 -20 -78 -20 -44 C-20 -8 -12 26 0 59 C16 93 26 130 55 156 C71 204 110 240 110 296 C110 319 139 341 162 341 C192 341 210 338 222 313 C231 294 235 275 235 257 C235 228 224 201 207 175 C194 144 182 115 161 89 C136 58 120 -2 120 -31 C120 -41 122 -51 127 -60 L127 -60 Z M184 527 C203 527 248 512 248 479 C248 437 209 409 169 409 C143 409 115 431 115 464 C115 500 144 527 184 527 L184 527 Z " />
<glyph glyph-name="Agrave" unicode="&#xc0;" horiz-adv-x="441" d="M284 594 L284 587 C284 560 265 543 238 543 C182 543 136 627 103 678 C97 687 94 696 94 705 C94 730 124 750 139 750 C178 750 222 691 254 657 C273 637 284 618 284 594 L284 594 Z M166 151 C145 79 141 3 72 3 C43 3 10 27 10 59 C10 62 10 64 11 67 C19 104 31 141 40 177 C42 184 45 191 45 198 L45 205 C45 225 52 242 63 258 C79 282 87 309 96 336 C104 360 105 387 122 408 C124 410 125 412 125 415 L125 421 C125 477 190 546 204 565 C213 578 224 584 237 584 C264 584 279 570 298 550 C317 481 331 423 347 364 C372 270 414 182 431 89 C433 80 434 72 434 64 C434 38 414 -7 378 -7 C316 -7 306 49 301 108 C294 144 232 153 192 153 C183 153 175 153 166 151 L166 151 Z M221 358 C213 328 194 303 193 269 C205 266 217 260 229 260 C241 260 251 268 251 280 C251 303 237 337 221 358 L221 358 Z " />
<glyph glyph-name="Aacute" unicode="&#xc1;" horiz-adv-x="448" d="M250.92 570.933 C222.899 570.933 203.574 589.896 203.574 615.497 C203.574 671.44 308.895 750.14 355.274 750.14 C391.025 750.14 412.283 718.85 412.283 693.249 C412.283 650.58 350.443 627.824 301.165 588.948 C286.671 577.57 270.245 571.881 250.92 570.933 L250.92 570.933 Z M166 151 C145 79 141 3 72 3 C43 3 10 27 10 59 C10 62 10 64 11 67 C19 104 31 141 40 177 C42 184 45 191 45 198 L45 205 C45 225 52 242 63 258 C79 282 87 309 96 336 C104 360 105 387 122 408 C124 410 125 412 125 415 L125 421 C125 477 190 546 204 565 C213 578 224 584 237 584 C264 584 279 570 298 550 C317 481 331 423 347 364 C372 270 414 182 431 89 C433 80 434 72 434 64 C434 38 414 -7 378 -7 C316 -7 306 49 301 108 C294 144 232 153 192 153 C183 153 175 153 166 151 L166 151 Z M221 358 C213 328 194 303 193 269 C205 266 217 260 229 260 C241 260 251 268 251 280 C251 303 237 337 221 358 L221 358 Z " />
<glyph glyph-name="Acircumflex" unicode="&#xc2;" horiz-adv-x="464" d="M316 714.675 C330 689.662 349 668.355 376 650.753 C397 636.857 414 608.139 414 586.831 C414 564.597 392 546.996 367 546.996 C325 546.996 294 584.052 253 614.623 C251 614.623 248 615.55 246 615.55 C235 615.55 222 609.991 212 597.948 C190 572.935 139 547.922 107 548.848 C90 548.848 74 571.082 74 586.831 C74 612.771 113 658.165 139 678.545 C170 702.632 186 749.879 230 749.879 C250 749.879 278 733.203 316 714.675 L316 714.675 Z M166 151 C145 79 141 3 72 3 C43 3 10 27 10 59 C10 62 10 64 11 67 C19 104 31 141 40 177 C42 184 45 191 45 198 L45 205 C45 225 52 242 63 258 C79 282 87 309 96 336 C104 360 105 387 122 408 C124 410 125 412 125 415 L125 421 C125 477 190 546 204 565 C213 578 224 584 237 584 C264 584 279 570 298 550 C317 481 331 423 347 364 C372 270 414 182 431 89 C433 80 434 72 434 64 C434 38 414 -7 378 -7 C316 -7 306 49 301 108 C294 144 232 153 192 153 C183 153 175 153 166 151 L166 151 Z M221 358 C213 328 194 303 193 269 C205 266 217 260 229 260 C241 260 251 268 251 280 C251 303 237 337 221 358 L221 358 Z " />
<glyph glyph-name="Atilde" unicode="&#xc3;" horiz-adv-x="440" d="M317 699 C321 740 322 759 366 759 C403 759 430 730 430 680 C430 612 384 586 297 560 C286 556 275 555 264 555 C229 555 203 572 171 596 C162 601 156 603 149 603 C131 603 112 567 86 567 C57 567 29 586 29 618 C29 651 52 672 70 699 C87 725 106 736 131 736 C160 736 201 726 225 700 C236 688 249 682 263 682 C280 682 296 692 317 699 L317 699 Z M166 151 C145 79 141 3 72 3 C43 3 10 27 10 59 C10 62 10 64 11 67 C19 104 31 141 40 177 C42 184 45 191 45 198 L45 205 C45 225 52 242 63 258 C79 282 87 309 96 336 C104 360 105 387 122 408 C124 410 125 412 125 415 L125 421 C125 477 190 546 204 565 C213 578 224 584 237 584 C264 584 279 570 298 550 C317 481 331 423 347 364 C372 270 414 182 431 89 C433 80 434 72 434 64 C434 38 414 -7 378 -7 C316 -7 306 49 301 108 C294 144 232 153 192 153 C183 153 175 153 166 151 L166 151 Z M221 358 C213 328 194 303 193 269 C205 266 217 260 229 260 C241 260 251 268 251 280 C251 303 237 337 221 358 L221 358 Z " />
<glyph glyph-name="Adieresis" unicode="&#xc4;" horiz-adv-x="454" d="M188 689 C188 660 169 634 131 634 C103 634 72 670 72 700 C72 724 102 749 123 749 C159 749 185 724 188 689 L188 689 Z M392 657 C363 636 360 623 339 623 C305 623 280 645 280 672 C280 700 297 733 322 733 C356 733 389 713 391 678 C391 672 391 666 392 657 L392 657 Z M166 151 C145 79 141 3 72 3 C43 3 10 27 10 59 C10 62 10 64 11 67 C19 104 31 141 40 177 C42 184 45 191 45 198 L45 205 C45 225 52 242 63 258 C79 282 87 309 96 336 C104 360 105 387 122 408 C124 410 125 412 125 415 L125 421 C125 477 190 546 204 565 C213 578 224 584 237 584 C264 584 279 570 298 550 C317 481 331 423 347 364 C372 270 414 182 431 89 C433 80 434 72 434 64 C434 38 414 -7 378 -7 C316 -7 306 49 301 108 C294 144 232 153 192 153 C183 153 175 153 166 151 L166 151 Z M221 358 C213 328 194 303 193 269 C205 266 217 260 229 260 C241 260 251 268 251 280 C251 303 237 337 221 358 L221 358 Z " />
<glyph glyph-name="Aring" unicode="&#xc5;" horiz-adv-x="457" d="M132.701 514.151 C103 546.846 76.3716 581.308 76.3716 621.072 C76.3716 703.252 151.136 704.135 212.586 734.179 C229.997 743.016 263.795 754.503 282.23 754.503 C311.931 754.503 346.752 734.179 366.211 717.39 C386.695 699.717 383.622 665.255 396.937 646.698 C403.082 637.862 405.13 629.025 405.13 619.305 C405.13 543.311 339.583 475.27 242.287 475.27 C215.659 475.27 132.701 498.245 132.701 514.151 L132.701 514.151 Z M249.456 645.814 C213.61 644.047 182.885 613.119 182.885 590.145 C182.885 571.588 211.562 570.704 235.118 570.704 C264.819 570.704 280.181 592.796 280.181 606.934 C280.181 618.421 269.94 631.676 249.456 645.814 L249.456 645.814 Z M166 151 C145 79 141 3 72 3 C43 3 10 27 10 59 C10 62 10 64 11 67 C19 104 31 141 40 177 C42 184 45 191 45 198 L45 205 C45 225 52 242 63 258 C79 282 87 309 96 336 C104 360 105 387 122 408 C124 410 125 412 125 415 L125 421 C125 477 190 546 204 565 C213 578 224 584 237 584 C264 584 279 570 298 550 C317 481 331 423 347 364 C372 270 414 182 431 89 C433 80 434 72 434 64 C434 38 414 -7 378 -7 C316 -7 306 49 301 108 C294 144 232 153 192 153 C183 153 175 153 166 151 L166 151 Z M221 358 C213 328 194 303 193 269 C205 266 217 260 229 260 C241 260 251 268 251 280 C251 303 237 337 221 358 L221 358 Z " />
<glyph glyph-name="AE" unicode="&#xc6;" horiz-adv-x="700" d="M338 170 C325 182 313 182 301 182 C236 180 177 189 161 132 C151 97 130 66 127 28 C107 -7 89 -26 62 -26 C16 -26 -4 7 -4 48 C-4 85 24 129 30 172 C32 182 40 191 47 199 C77 239 103 283 115 333 C118 345 126 356 132 368 C148 404 165 440 182 476 C184 482 183 489 187 493 C217 527 217 572 232 611 C251 663 303 745 354 745 C378 745 416 717 454 717 C462 717 471 718 479 720 C510 726 543 727 576 727 C610 727 669 717 669 664 C669 614 634 592 588 592 C561 592 533 596 506 596 C455 596 444 589 444 550 C444 526 442 516 474 516 C512 516 547 528 585 528 C625 528 657 504 657 465 C657 448 644 438 642 424 C632 404 619 396 600 396 C580 396 559 400 540 400 C511 400 483 398 454 398 C449 385 446 372 446 359 C446 314 462 266 462 221 C462 209 460 197 460 185 C460 157 472 107 495 102 C515 97 539 97 560 97 L588 97 C637 97 670 78 670 37 C670 -6 634 -31 604 -31 C573 -31 539 -23 507 -23 C470 -23 433 -29 397 -29 C363 -29 313 -2 313 34 C313 64 335 91 335 122 C335 129 332 137 332 145 C332 153 336 161 338 170 L338 170 Z M324 315 C324 322 323 329 323 335 C323 351 332 365 332 381 C332 408 332 432 313 459 C279 418 261 374 239 329 C236 324 234 319 234 314 C234 298 249 298 260 298 C282 298 303 306 324 315 L324 315 Z " />
<glyph glyph-name="Ccedilla" unicode="&#xc7;" horiz-adv-x="419" d="M218 625 C177 605 173 580 151 536 C126 496 113 452 112 405 L112 380 C112 343 101 308 101 270 C101 252 93 233 93 215 C93 191 98 167 100 143 C103 114 117 72 162 38 C245 43 288 96 360 147 C368 153 375 155 381 155 C395 155 404 142 404 129 C404 122 402 115 397 109 C340 36 274 -47 153 -47 C81 -47 14 44 5 118 C1 151 -1 185 -1 218 C-1 262 9 302 9 344 C9 402 21 478 41 524 C58 565 72 609 102 644 C111 691 189 717 222 717 C262 717 356 675 356 635 C356 610 336 597 312 597 C280 597 247 614 218 625 L218 625 Z M207 -247 C204 -248 202 -248 199 -248 C146 -248 134 -197 134 -162 C135 -151 135 -141 135 -130 L135 -85 C135 -41 131 38 178 38 C229 38 237 -21 237 -28 C237 -37 236 -46 236 -55 C236 -95 245 -137 246 -179 C241 -239 242 -245 207 -247 L207 -247 Z " />
<glyph glyph-name="Egrave" unicode="&#xc8;" horiz-adv-x="369" d="M243 590 L243 583 C243 556 224 539 197 539 C141 539 95 623 62 674 C56 683 53 692 53 701 C53 726 83 746 98 746 C137 746 181 687 213 653 C232 633 243 614 243 590 L243 590 Z M130 400 C130 391 129 383 129 374 C129 339 145 346 165 346 C193 346 219 353 249 353 C280 353 297 338 315 303 C320 294 323 285 323 277 C323 234 260 231 215 231 C196 231 177 232 158 232 C153 232 150 229 143 226 C145 214 146 203 146 191 C146 173 144 155 144 137 C144 120 145 104 150 87 C163 84 176 83 188 83 C220 83 257 96 290 96 C320 96 344 76 344 40 C344 -19 278 -32 236 -33 C184 -35 136 -61 91 -61 C40 -61 13 -36 13 9 C16 60 25 110 25 162 C25 195 24 228 24 262 C24 265 24 269 23 273 C12 324 7 360 7 399 C7 440 11 539 57 539 C63 539 77 537 81 534 C106 518 147 519 174 519 C203 519 234 523 263 523 C311 523 361 510 361 455 C352 427 335 398 299 398 C276 398 254 405 231 405 C210 405 189 404 169 404 C159 404 149 404 140 405 C138 405 136 403 130 400 L130 400 Z " />
<glyph glyph-name="Eacute" unicode="&#xc9;" horiz-adv-x="376" d="M147 562 C118 562 98 582 98 609 C98 668 207 751 255 751 C292 751 314 718 314 691 C314 646 250 622 199 581 C184 569 167 563 147 562 L147 562 Z M132 415 C132 396 132 382 136 362 C147 362 158 361 168 361 C196 361 222 368 252 368 C284 368 299 354 317 318 C322 309 325 300 325 292 C325 248 260 246 218 246 C199 246 180 247 161 247 C156 247 152 244 145 241 C147 229 148 217 148 204 C148 187 147 170 147 152 C147 135 148 119 153 102 C166 99 178 98 190 98 C222 98 261 111 293 111 C324 111 346 90 346 55 C346 -3 281 -17 238 -18 C185 -20 138 -46 93 -46 C43 -46 16 -21 16 24 C18 78 28 130 28 184 C28 208 27 233 27 258 L27 277 C27 280 27 284 25 288 C15 338 10 375 10 414 C10 452 14 554 59 554 C65 554 79 552 83 549 C109 533 150 534 177 534 C206 534 237 538 266 538 C317 538 347 527 363 484 C363 482 364 479 364 477 C364 446 333 413 301 413 C279 413 256 420 233 420 C213 420 192 419 172 419 C162 419 152 419 143 420 C141 420 139 418 132 415 L132 415 Z " />
<glyph glyph-name="Ecircumflex" unicode="&#xca;" horiz-adv-x="351" d="M235.722 720.636 C249.324 700.182 267.784 682.758 294.017 668.364 C314.42 657 330.938 633.515 330.938 616.091 C330.938 597.909 309.562 583.515 285.273 583.515 C244.466 583.515 214.347 613.818 174.511 638.818 C172.568 638.818 169.653 639.576 167.71 639.576 C157.023 639.576 144.392 635.03 134.676 625.182 C113.301 604.727 63.75 584.273 32.6591 585.03 C16.142 585.03 0.596591 603.212 0.596591 616.091 C0.596591 637.303 38.4886 674.424 63.75 691.091 C93.8693 710.788 109.415 749.424 152.165 749.424 C171.597 749.424 198.801 735.788 235.722 720.636 L235.722 720.636 Z M116 436 C117 418 116 402 120 383 C131 383 142 382 152 382 C180 382 206 389 236 389 C271 389 278 375 302 339 C307 330 309 322 309 313 C309 270 246 267 202 267 C183 267 164 268 145 268 C140 268 136 265 129 262 C131 249 132 236 132 223 C132 206 131 190 131 174 C131 157 132 140 137 123 C150 120 162 119 174 119 C206 119 245 132 277 132 C307 132 331 113 331 76 C331 19 266 4 222 3 C170 1 122 -25 77 -25 C27 -25 0 0 0 45 C3 102 12 156 12 214 C12 243 15 283 10 309 C-1 359 -5 396 -5 434 C-5 473 -3 575 44 575 C49 575 65 573 68 570 C93 554 134 555 161 555 C190 555 221 559 250 559 C301 559 331 548 347 505 C347 503 348 500 348 498 C348 467 317 434 285 434 C263 434 240 441 217 441 C197 441 176 440 156 440 C146 440 136 440 127 441 C125 441 123 439 116 436 L116 436 Z " />
<glyph glyph-name="Edieresis" unicode="&#xcb;" horiz-adv-x="379" d="M139 684 C139 655 120 629 82 629 C54 629 23 665 23 695 C23 719 53 744 74 744 C110 744 136 719 139 684 L139 684 Z M343 652 C314 631 311 618 290 618 C256 618 231 640 231 667 C231 695 248 728 273 728 C307 728 340 708 342 673 C342 667 342 661 343 652 L343 652 Z M143 416 C143 397 143 383 147 363 C158 363 169 362 179 362 C207 362 233 369 263 369 C295 369 310 355 328 319 C333 310 336 301 336 293 C336 249 271 247 229 247 C210 247 191 248 172 248 C167 248 163 245 156 242 C158 230 159 218 159 205 C159 188 158 171 158 153 C158 136 159 120 164 103 C177 100 189 99 201 99 C233 99 272 112 304 112 C335 112 357 91 357 56 C357 -2 292 -16 249 -17 C196 -19 149 -45 104 -45 C54 -45 27 -20 27 25 C29 79 39 131 39 185 C39 209 38 234 38 259 L38 278 C38 281 38 285 36 289 C26 339 21 376 21 415 C21 455 24 555 70 555 C76 555 90 553 94 550 C120 534 161 535 188 535 C217 535 248 539 277 539 C328 539 358 528 374 485 C374 483 375 480 375 478 C375 447 344 414 312 414 C290 414 267 421 244 421 C224 421 203 420 183 420 C173 420 163 420 154 421 C152 421 150 419 143 416 L143 416 Z " />
<glyph glyph-name="Igrave" unicode="&#xcc;" horiz-adv-x="227" d="M130 595 L130 588 C130 561 111 544 84 544 C28 544 -18 628 -51 679 C-57 688 -60 697 -60 706 C-60 731 -30 751 -15 751 C24 751 68 692 100 658 C119 638 130 619 130 595 L130 595 Z M32 48 C32 94 42 145 42 193 C42 213 40 233 40 254 C40 275 42 296 42 317 C42 334 39 352 39 369 C39 398 44 427 44 456 C44 469 42 482 42 494 C42 526 64 564 100 564 C141 561 170 519 170 484 C170 477 170 470 168 464 C158 426 159 386 159 347 C159 291 156 235 155 179 C156 149 162 120 165 91 C167 75 170 56 170 42 C170 -1 136 -33 100 -33 C56 -33 36 -4 32 48 L32 48 Z " />
<glyph glyph-name="Iacute" unicode="&#xcd;" horiz-adv-x="227" d="M95 561 C66 561 46 581 46 608 C46 667 155 750 203 750 C240 750 262 717 262 690 C262 645 198 621 147 580 C132 568 115 562 95 561 L95 561 Z M32 48 C32 94 42 145 42 193 C42 213 40 233 40 254 C40 275 42 296 42 317 C42 334 39 352 39 369 C39 398 44 427 44 456 C44 469 42 482 42 494 C42 526 64 564 100 564 C141 561 170 519 170 484 C170 477 170 470 168 464 C158 426 159 386 159 347 C159 291 156 235 155 179 C156 149 162 120 165 91 C167 75 170 56 170 42 C170 -1 136 -33 100 -33 C56 -33 36 -4 32 48 L32 48 Z " />
<glyph glyph-name="Icircumflex" unicode="&#xce;" horiz-adv-x="227" d="M182.744 713.143 C196.665 687.429 215.557 665.524 242.403 647.429 C263.284 633.143 280.188 603.619 280.188 581.714 C280.188 558.857 258.312 540.762 233.455 540.762 C191.693 540.762 160.869 578.857 120.102 610.286 C118.114 610.286 115.131 611.238 113.142 611.238 C102.205 611.238 89.2784 605.524 79.3352 593.143 C57.4602 567.429 6.75 541.714 -25.0682 542.667 C-41.9716 542.667 -57.8807 565.524 -57.8807 581.714 C-57.8807 608.381 -19.1023 655.048 6.75 676 C37.5739 700.762 53.483 749.333 97.233 749.333 C117.119 749.333 144.96 732.19 182.744 713.143 L182.744 713.143 Z M32 48 C32 94 42 145 42 193 C42 213 40 233 40 254 C40 275 42 296 42 317 C42 334 39 352 39 369 C39 398 44 427 44 456 C44 469 42 482 42 494 C42 526 64 564 100 564 C141 561 170 519 170 484 C170 477 170 470 168 464 C158 426 159 386 159 347 C159 291 156 235 155 179 C156 149 162 120 165 91 C167 75 170 56 170 42 C170 -1 136 -33 100 -33 C56 -33 36 -4 32 48 L32 48 Z " />
<glyph glyph-name="Idieresis" unicode="&#xcf;" horiz-adv-x="227" d="M74 686 C74 657 55 631 17 631 C-11 631 -42 667 -42 697 C-42 721 -12 746 9 746 C45 746 71 721 74 686 L74 686 Z M278 654 C249 633 246 620 225 620 C191 620 166 642 166 669 C166 697 183 730 208 730 C242 730 275 710 277 675 C277 669 277 663 278 654 L278 654 Z M32 48 C32 94 42 145 42 193 C42 213 40 233 40 254 C40 275 42 296 42 317 C42 334 39 352 39 369 C39 398 44 427 44 456 C44 469 42 482 42 494 C42 526 64 564 100 564 C141 561 170 519 170 484 C170 477 170 470 168 464 C158 426 159 386 159 347 C159 291 156 235 155 179 C156 149 162 120 165 91 C167 75 170 56 170 42 C170 -1 136 -33 100 -33 C56 -33 36 -4 32 48 L32 48 Z " />
<glyph glyph-name="Ntilde" unicode="&#xd1;" horiz-adv-x="480" d="M306.862 696.596 C310.755 733.083 311.729 749.991 354.557 749.991 C390.571 749.991 416.852 724.183 416.852 679.688 C416.852 619.174 372.077 596.037 287.395 572.899 C276.688 569.339 265.981 568.45 255.274 568.45 C221.206 568.45 195.898 583.578 164.751 604.936 C155.99 609.385 150.15 611.165 143.337 611.165 C125.816 611.165 107.322 579.128 82.0145 579.128 C53.7869 579.128 26.5327 596.037 26.5327 624.514 C26.5327 653.881 48.9201 672.569 66.4407 696.596 C82.9879 719.734 101.482 729.523 125.816 729.523 C154.044 729.523 193.952 720.624 217.312 697.486 C228.019 686.807 240.673 681.468 254.3 681.468 C270.847 681.468 286.421 690.367 306.862 696.596 L306.862 696.596 Z M151 340 C150 333 148 328 148 322 C151 279 160 237 160 195 C160 168 155 141 155 114 C155 98 161 81 161 67 C161 30 126 2 92 2 C79 2 56 5 50 17 C38 40 24 61 24 88 C24 121 40 171 40 206 C40 232 33 255 33 280 C33 286 34 293 34 300 C34 314 28 326 28 339 C28 352 29 365 29 378 C29 415 21 452 21 489 C21 529 52 561 89 561 C114 561 138 546 153 523 C191 465 236 413 300 375 C317 421 312 471 314 518 C322 558 341 579 369 579 C409 579 447 539 447 502 C447 496 446 490 444 483 C434 457 434 431 433 405 C431 374 427 344 427 314 C427 292 427 263 437 243 C444 228 447 213 447 197 C447 156 436 113 436 70 C436 33 414 -13 362 -13 C327 -13 291 22 291 57 C291 66 293 74 298 83 C314 113 316 152 316 184 C316 210 306 232 280 249 C236 276 195 308 151 340 L151 340 Z " />
<glyph glyph-name="Ograve" unicode="&#xd2;" horiz-adv-x="440" d="M250 594 L250 587 C250 560 231 543 204 543 C148 543 102 627 69 678 C63 687 60 696 60 705 C60 730 90 750 105 750 C144 750 188 691 220 657 C239 637 250 618 250 594 L250 594 Z M297 -7 C271 -9 253 -14 232 -14 C157 -14 97 13 40 85 C15 117 2 152 2 188 C2 223 18 264 20 307 C21 330 27 351 39 371 C52 394 59 420 76 443 C115 497 172 549 238 549 C282 549 326 531 336 483 C339 459 350 441 368 424 C410 384 419 324 419 262 C419 218 413 176 404 133 C391 73 336 32 297 -7 L297 -7 Z M295 310 C295 337 242 405 220 405 C211 405 186 388 181 375 C171 351 149 333 149 306 C149 303 150 299 150 296 C150 293 148 290 147 287 C142 256 127 220 127 190 C127 148 166 116 198 116 C296 116 287 225 295 310 L295 310 Z " />
<glyph glyph-name="Oacute" unicode="&#xd3;" horiz-adv-x="441" d="M200 559 C171 559 151 579 151 606 C151 665 260 748 308 748 C345 748 367 715 367 688 C367 643 303 619 252 578 C237 566 220 560 200 559 L200 559 Z M297 -7 C271 -9 253 -14 232 -14 C157 -14 97 13 40 85 C15 117 2 152 2 188 C2 223 18 264 20 307 C21 330 27 351 39 371 C52 394 59 420 76 443 C115 497 172 549 238 549 C282 549 326 531 336 483 C339 459 350 441 368 424 C410 384 419 324 419 262 C419 218 413 176 404 133 C391 73 336 32 297 -7 L297 -7 Z M295 310 C295 337 242 405 220 405 C211 405 186 388 181 375 C171 351 149 333 149 306 C149 303 150 299 150 296 C150 293 148 290 147 287 C142 256 127 220 127 190 C127 148 166 116 198 116 C296 116 287 225 295 310 L295 310 Z " />
<glyph glyph-name="Ocircumflex" unicode="&#xd4;" horiz-adv-x="441" d="M296 713 C310 686 329 663 356 644 C377 629 394 598 394 575 C394 551 372 532 347 532 C305 532 274 572 233 605 C231 605 228 606 226 606 C215 606 202 600 192 587 C170 560 119 533 87 534 C70 534 54 558 54 575 C54 603 93 652 119 674 C150 700 166 751 210 751 C230 751 258 733 296 713 L296 713 Z M297 -7 C271 -9 253 -14 232 -14 C157 -14 97 13 40 85 C15 117 2 152 2 188 C2 223 18 264 20 307 C21 330 27 351 39 371 C52 394 59 420 76 443 C115 497 172 549 238 549 C282 549 326 531 336 483 C339 459 350 441 368 424 C410 384 419 324 419 262 C419 218 413 176 404 133 C391 73 336 32 297 -7 L297 -7 Z M295 310 C295 337 242 405 220 405 C211 405 186 388 181 375 C171 351 149 333 149 306 C149 303 150 299 150 296 C150 293 148 290 147 287 C142 256 127 220 127 190 C127 148 166 116 198 116 C296 116 287 225 295 310 L295 310 Z " />
<glyph glyph-name="Otilde" unicode="&#xd5;" horiz-adv-x="439" d="M288 693 C292 734 293 753 337 753 C374 753 401 724 401 674 C401 606 355 580 268 554 C257 550 246 549 235 549 C200 549 174 566 142 590 C133 595 127 597 120 597 C102 597 83 561 57 561 C28 561 0 580 0 612 C0 645 23 666 41 693 C58 719 77 730 102 730 C131 730 172 720 196 694 C207 682 220 676 234 676 C251 676 267 686 288 693 L288 693 Z M297 -7 C271 -9 253 -14 232 -14 C157 -14 97 13 40 85 C15 117 2 152 2 188 C2 223 18 264 20 307 C21 330 27 351 39 371 C52 394 59 420 76 443 C115 497 172 549 238 549 C282 549 326 531 336 483 C339 459 350 441 368 424 C410 384 419 324 419 262 C419 218 413 176 404 133 C391 73 336 32 297 -7 L297 -7 Z M295 310 C295 337 242 405 220 405 C211 405 186 388 181 375 C171 351 149 333 149 306 C149 303 150 299 150 296 C150 293 148 290 147 287 C142 256 127 220 127 190 C127 148 166 116 198 116 C296 116 287 225 295 310 L295 310 Z " />
<glyph glyph-name="Odieresis" unicode="&#xd6;" horiz-adv-x="444" d="M179 686 C179 657 160 631 122 631 C94 631 63 667 63 697 C63 721 93 746 114 746 C150 746 176 721 179 686 L179 686 Z M383 654 C354 633 351 620 330 620 C296 620 271 642 271 669 C271 697 288 730 313 730 C347 730 380 710 382 675 C382 669 382 663 383 654 L383 654 Z M297 -7 C271 -9 253 -14 232 -14 C157 -14 97 13 40 85 C15 117 2 152 2 188 C2 223 18 264 20 307 C21 330 27 351 39 371 C52 394 59 420 76 443 C115 497 172 549 238 549 C282 549 326 531 336 483 C339 459 350 441 368 424 C410 384 419 324 419 262 C419 218 413 176 404 133 C391 73 336 32 297 -7 L297 -7 Z M295 310 C295 337 242 405 220 405 C211 405 186 388 181 375 C171 351 149 333 149 306 C149 303 150 299 150 296 C150 293 148 290 147 287 C142 256 127 220 127 190 C127 148 166 116 198 116 C296 116 287 225 295 310 L295 310 Z " />
<glyph glyph-name="Oslash" unicode="&#xd8;" horiz-adv-x="568" d="M380 598 C420 627 452 689 493 689 C541 689 540 644 540 616 C540 587 524 571 497 540 C483 524 476 509 476 493 C476 484 479 462 490 452 C525 406 535 336 535 280 C535 146 435 -3 316 -3 C270 -3 219 8 174 8 C125 8 95 -97 43 -97 C24 -97 -25 -73 -25 -48 C-25 -30 16 46 53 80 C64 90 69 96 69 103 C69 109 65 117 58 129 C38 164 34 203 23 239 C22 240 22 242 22 243 C22 248 24 252 25 257 C31 299 39 341 45 384 C46 390 48 396 48 402 C48 405 47 408 47 411 C47 432 70 448 77 470 C107 560 216 654 305 654 C342 654 359 631 380 598 L380 598 Z M154 219 C207 269 234 338 269 400 C283 424 310 467 310 486 C310 508 276 525 262 525 C237 525 216 485 202 456 C180 411 156 369 157 318 L157 306 C157 293 144 277 144 261 C144 247 148 233 154 219 L154 219 Z M393 368 C370 342 350 318 339 288 C319 232 282 196 253 147 C250 141 248 137 248 132 C248 123 255 119 268 119 C319 119 359 127 383 186 C396 225 409 255 409 293 C409 319 409 340 393 368 L393 368 Z " />
<glyph glyph-name="Ugrave" unicode="&#xd9;" horiz-adv-x="485" d="M308 592 L308 585 C308 558 289 541 262 541 C206 541 160 625 127 676 C121 685 118 694 118 703 C118 728 148 748 163 748 C202 748 246 689 278 655 C297 635 308 616 308 592 L308 592 Z M23 194 C26 217 31 241 31 264 C31 307 28 350 28 393 C28 451 32 489 77 513 C84 517 92 519 100 519 C155 519 163 470 163 433 C163 420 155 405 155 395 C155 353 149 310 149 268 C149 224 160 115 203 115 C278 115 316 248 316 288 C316 341 316 394 314 446 C314 481 342 513 379 513 C419 513 456 481 456 452 C456 446 454 439 451 432 C442 410 438 387 438 365 C438 345 443 324 443 304 C443 257 427 202 416 151 C410 102 356 31 316 18 C271 0 251 -15 212 -15 C151 -15 71 18 45 91 C33 125 26 159 23 194 L23 194 Z " />
<glyph glyph-name="Uacute" unicode="&#xda;" horiz-adv-x="485" d="M212 557 C183 557 163 577 163 604 C163 663 272 746 320 746 C357 746 379 713 379 686 C379 641 315 617 264 576 C249 564 232 558 212 557 L212 557 Z M23 194 C26 217 31 241 31 264 C31 307 28 350 28 393 C28 451 32 489 77 513 C84 517 92 519 100 519 C155 519 163 470 163 433 C163 420 155 405 155 395 C155 353 149 310 149 268 C149 224 160 115 203 115 C278 115 316 248 316 288 C316 341 316 394 314 446 C314 481 342 513 379 513 C419 513 456 481 456 452 C456 446 454 439 451 432 C442 410 438 387 438 365 C438 345 443 324 443 304 C443 257 427 202 416 151 C410 102 356 31 316 18 C271 0 251 -15 212 -15 C151 -15 71 18 45 91 C33 125 26 159 23 194 L23 194 Z " />
<glyph glyph-name="Ucircumflex" unicode="&#xdb;" horiz-adv-x="485" d="M324.139 712.974 C338.338 689.013 357.608 668.602 384.991 651.74 C406.29 638.429 423.531 610.918 423.531 590.506 C423.531 569.208 401.219 552.346 375.864 552.346 C333.267 552.346 301.827 587.844 260.244 617.13 C258.216 617.13 255.173 618.017 253.145 618.017 C241.989 618.017 228.804 612.693 218.662 601.156 C196.349 577.195 144.625 553.234 112.17 554.121 C94.929 554.121 78.7017 575.42 78.7017 590.506 C78.7017 615.355 118.256 658.84 144.625 678.364 C176.065 701.437 192.293 746.697 236.918 746.697 C257.202 746.697 285.599 730.723 324.139 712.974 L324.139 712.974 Z M23 194 C26 217 31 241 31 264 C31 307 28 350 28 393 C28 451 32 489 77 513 C84 517 92 519 100 519 C155 519 163 470 163 433 C163 420 155 405 155 395 C155 353 149 310 149 268 C149 224 160 115 203 115 C278 115 316 248 316 288 C316 341 316 394 314 446 C314 481 342 513 379 513 C419 513 456 481 456 452 C456 446 454 439 451 432 C442 410 438 387 438 365 C438 345 443 324 443 304 C443 257 427 202 416 151 C410 102 356 31 316 18 C271 0 251 -15 212 -15 C151 -15 71 18 45 91 C33 125 26 159 23 194 L23 194 Z " />
<glyph glyph-name="Udieresis" unicode="&#xdc;" horiz-adv-x="480" d="M184 678 C184 649 165 623 127 623 C99 623 68 659 68 689 C68 713 98 738 119 738 C155 738 181 713 184 678 L184 678 Z M388 646 C359 625 356 612 335 612 C301 612 276 634 276 661 C276 689 293 722 318 722 C352 722 385 702 387 667 C387 661 387 655 388 646 L388 646 Z M23 194 C26 217 31 241 31 264 C31 307 28 350 28 393 C28 451 32 489 77 513 C84 517 92 519 100 519 C155 519 163 470 163 433 C163 420 155 405 155 395 C155 353 149 310 149 268 C149 224 160 115 203 115 C278 115 316 248 316 288 C316 341 316 394 314 446 C314 481 342 513 379 513 C419 513 456 481 456 452 C456 446 454 439 451 432 C442 410 438 387 438 365 C438 345 443 324 443 304 C443 257 427 202 416 151 C410 102 356 31 316 18 C271 0 251 -15 212 -15 C151 -15 71 18 45 91 C33 125 26 159 23 194 L23 194 Z " />
<glyph glyph-name="germandbls" unicode="&#xdf;" horiz-adv-x="517" d="M44 49 C44 61 45 74 45 86 C45 175 38 274 27 367 C26 374 25 381 25 389 C25 441 38 502 59 550 C70 576 74 606 84 634 C109 703 177 711 251 726 C256 727 262 728 267 728 C296 728 357 699 377 674 C387 661 397 649 411 641 C448 618 460 580 460 542 C460 511 455 480 434 455 C420 438 398 391 399 386 C399 372 426 356 446 346 C485 325 498 263 498 221 C498 165 478 112 459 60 C439 -6 349 -14 292 -14 C263 -14 218 3 218 40 C218 60 229 72 253 78 C295 79 360 115 364 147 C367 173 372 199 372 225 C372 275 271 292 238 310 C219 320 215 344 215 363 C215 393 225 421 254 439 C288 460 337 506 337 536 C337 558 283 603 243 603 C178 603 175 521 162 460 C158 439 146 414 146 392 C146 378 154 363 154 349 C154 340 153 330 153 321 C153 251 167 179 167 110 C167 84 164 58 164 33 L164 24 C164 -11 132 -39 105 -39 C79 -39 46 -7 46 26 L46 49 L44 49 L44 49 Z " />
<glyph glyph-name="agrave" unicode="&#xe0;" horiz-adv-x="488" d="M308 103 C255 50 196 -20 109 -20 C49 -20 -6 41 -6 100 C-6 157 40 191 72 230 C116 284 172 315 240 327 C278 334 314 336 314 372 C312 401 297 456 258 456 C217 456 159 441 131 408 C121 396 110 391 95 391 C67 391 55 404 55 424 C55 446 59 466 79 480 C106 498 132 519 166 526 C202 533 247 553 281 553 C345 553 370 504 396 459 C421 427 417 334 433 294 C440 275 443 258 443 239 C443 225 442 211 442 196 L442 184 C442 182 442 179 441 177 C428 152 425 126 425 100 C425 75 427 50 427 26 C423 -24 387 -37 353 -37 C324 -37 327 -19 313 8 C306 21 300 33 300 46 C300 61 315 76 315 88 C315 93 313 98 308 103 L308 103 Z M312 252 C294 254 279 259 264 259 C179 259 120 144 110 135 C103 128 99 122 99 116 C99 102 115 83 127 83 C134 83 139 86 150 92 C211 128 283 192 312 252 L312 252 Z M317 596 L317 589 C317 562 298 545 271 545 C215 545 169 629 136 680 C130 689 127 698 127 707 C127 732 157 752 172 752 C211 752 255 693 287 659 C306 639 317 620 317 596 L317 596 Z " />
<glyph glyph-name="aacute" unicode="&#xe1;" horiz-adv-x="488" d="M308 103 C255 50 196 -20 109 -20 C49 -20 -6 41 -6 100 C-6 157 40 191 72 230 C116 284 172 315 240 327 C278 334 314 336 314 372 C312 401 297 456 258 456 C217 456 159 441 131 408 C121 396 110 391 95 391 C67 391 55 404 55 424 C55 446 59 466 79 480 C106 498 132 519 166 526 C202 533 247 553 281 553 C345 553 370 504 396 459 C421 427 417 334 433 294 C440 275 443 258 443 239 C443 225 442 211 442 196 L442 184 C442 182 442 179 441 177 C428 152 425 126 425 100 C425 75 427 50 427 26 C423 -24 387 -37 353 -37 C324 -37 327 -19 313 8 C306 21 300 33 300 46 C300 61 315 76 315 88 C315 93 313 98 308 103 L308 103 Z M312 252 C294 254 279 259 264 259 C179 259 120 144 110 135 C103 128 99 122 99 116 C99 102 115 83 127 83 C134 83 139 86 150 92 C211 128 283 192 312 252 L312 252 Z M197 561 C168 561 148 581 148 608 C148 667 257 750 305 750 C342 750 364 717 364 690 C364 645 300 621 249 580 C234 568 217 562 197 561 L197 561 Z " />
<glyph glyph-name="acircumflex" unicode="&#xe2;" horiz-adv-x="488" d="M308 103 C255 50 196 -20 109 -20 C49 -20 -6 41 -6 100 C-6 157 40 191 72 230 C116 284 172 315 240 327 C278 334 314 336 314 372 C312 401 297 456 258 456 C217 456 159 441 131 408 C121 396 110 391 95 391 C67 391 55 404 55 424 C55 446 59 466 79 480 C106 498 132 519 166 526 C202 533 247 553 281 553 C345 553 370 504 396 459 C421 427 417 334 433 294 C440 275 443 258 443 239 C443 225 442 211 442 196 L442 184 C442 182 442 179 441 177 C428 152 425 126 425 100 C425 75 427 50 427 26 C423 -24 387 -37 353 -37 C324 -37 327 -19 313 8 C306 21 300 33 300 46 C300 61 315 76 315 88 C315 93 313 98 308 103 L308 103 Z M312 252 C294 254 279 259 264 259 C179 259 120 144 110 135 C103 128 99 122 99 116 C99 102 115 83 127 83 C134 83 139 86 150 92 C211 128 283 192 312 252 L312 252 Z M295.884 714.753 C310.003 689.623 329.165 668.216 356.395 650.532 C377.574 636.571 394.719 607.719 394.719 586.312 C394.719 563.974 372.531 546.29 347.318 546.29 C304.96 546.29 273.696 583.519 232.347 614.234 C230.33 614.234 227.304 615.165 225.287 615.165 C214.193 615.165 201.082 609.58 190.997 597.481 C168.81 572.351 117.375 547.221 85.1023 548.152 C67.9574 548.152 51.821 570.489 51.821 586.312 C51.821 612.372 91.1534 657.978 117.375 678.455 C148.639 702.654 164.776 750.121 209.151 750.121 C229.321 750.121 257.56 733.368 295.884 714.753 L295.884 714.753 Z " />
<glyph glyph-name="atilde" unicode="&#xe3;" horiz-adv-x="488" d="M308 103 C255 50 196 -20 109 -20 C49 -20 -6 41 -6 100 C-6 157 40 191 72 230 C116 284 172 315 240 327 C278 334 314 336 314 372 C312 401 297 456 258 456 C217 456 159 441 131 408 C121 396 110 391 95 391 C67 391 55 404 55 424 C55 446 59 466 79 480 C106 498 132 519 166 526 C202 533 247 553 281 553 C345 553 370 504 396 459 C421 427 417 334 433 294 C440 275 443 258 443 239 C443 225 442 211 442 196 L442 184 C442 182 442 179 441 177 C428 152 425 126 425 100 C425 75 427 50 427 26 C423 -24 387 -37 353 -37 C324 -37 327 -19 313 8 C306 21 300 33 300 46 C300 61 315 76 315 88 C315 93 313 98 308 103 L308 103 Z M312 252 C294 254 279 259 264 259 C179 259 120 144 110 135 C103 128 99 122 99 116 C99 102 115 83 127 83 C134 83 139 86 150 92 C211 128 283 192 312 252 L312 252 Z M305 694 C309 735 310 754 354 754 C391 754 418 725 418 675 C418 607 372 581 285 555 C274 551 263 550 252 550 C217 550 191 567 159 591 C150 596 144 598 137 598 C119 598 100 562 74 562 C45 562 17 581 17 613 C17 646 40 667 58 694 C75 720 94 731 119 731 C148 731 189 721 213 695 C224 683 237 677 251 677 C268 677 284 687 305 694 L305 694 Z " />
<glyph glyph-name="adieresis" unicode="&#xe4;" horiz-adv-x="488" d="M308 103 C255 50 196 -20 109 -20 C49 -20 -6 41 -6 100 C-6 157 40 191 72 230 C116 284 172 315 240 327 C278 334 314 336 314 372 C312 401 297 456 258 456 C217 456 159 441 131 408 C121 396 110 391 95 391 C67 391 55 404 55 424 C55 446 59 466 79 480 C106 498 132 519 166 526 C202 533 247 553 281 553 C345 553 370 504 396 459 C421 427 417 334 433 294 C440 275 443 258 443 239 C443 225 442 211 442 196 L442 184 C442 182 442 179 441 177 C428 152 425 126 425 100 C425 75 427 50 427 26 C423 -24 387 -37 353 -37 C324 -37 327 -19 313 8 C306 21 300 33 300 46 C300 61 315 76 315 88 C315 93 313 98 308 103 L308 103 Z M312 252 C294 254 279 259 264 259 C179 259 120 144 110 135 C103 128 99 122 99 116 C99 102 115 83 127 83 C134 83 139 86 150 92 C211 128 283 192 312 252 L312 252 Z M165 685 C165 656 146 630 108 630 C80 630 49 666 49 696 C49 720 79 745 100 745 C136 745 162 720 165 685 L165 685 Z M369 653 C340 632 337 619 316 619 C282 619 257 641 257 668 C257 696 274 729 299 729 C333 729 366 709 368 674 C368 668 368 662 369 653 L369 653 Z " />
<glyph glyph-name="aring" unicode="&#xe5;" horiz-adv-x="488" d="M308 103 C255 50 196 -20 109 -20 C49 -20 -6 41 -6 100 C-6 157 40 191 72 230 C116 284 172 315 240 327 C278 334 314 336 314 372 C312 401 297 456 258 456 C217 456 159 441 131 408 C121 396 110 391 95 391 C67 391 55 404 55 424 C55 446 59 466 79 480 C106 498 132 519 166 526 C202 533 247 553 281 553 C345 553 370 504 396 459 C421 427 417 334 433 294 C440 275 443 258 443 239 C443 225 442 211 442 196 L442 184 C442 182 442 179 441 177 C428 152 425 126 425 100 C425 75 427 50 427 26 C423 -24 387 -37 353 -37 C324 -37 327 -19 313 8 C306 21 300 33 300 46 C300 61 315 76 315 88 C315 93 313 98 308 103 L308 103 Z M312 252 C294 254 279 259 264 259 C179 259 120 144 110 135 C103 128 99 122 99 116 C99 102 115 83 127 83 C134 83 139 86 150 92 C211 128 283 192 312 252 L312 252 Z M127 501 C99 541 71 577 71 622 C71 683 111 716 157 729 C175 734 190 731 206 740 C221 748 260 751 274 751 C317 751 369 704 377 682 C384 663 393 638 393 621 C393 535 331 457 235 457 C205 457 127 485 127 501 L127 501 Z M241 650 C206 648 176 613 176 588 C176 566 204 565 227 565 C257 565 271 591 271 606 C271 619 261 634 241 650 L241 650 Z " />
<glyph glyph-name="ae" unicode="&#xe6;" horiz-adv-x="788" d="M347 437 C356 450 362 456 364 463 C382 516 445 526 491 544 C508 551 526 554 543 554 C586 554 649 537 677 500 C680 495 685 491 690 488 C748 452 750 373 760 316 C761 309 762 303 762 296 C762 245 715 212 661 212 C655 212 648 213 641 214 C601 223 554 218 509 225 C501 226 493 227 485 227 C471 227 456 226 456 203 C456 184 470 171 470 159 C471 127 513 108 535 108 C577 108 646 159 671 159 C696 159 714 141 724 106 C704 71 678 45 641 27 C606 10 578 -17 533 -17 C451 -17 413 29 362 70 C357 65 347 60 345 52 C331 15 289 -3 262 -22 C241 -37 220 -44 197 -44 C152 -44 95 -26 74 22 C57 60 36 98 36 143 C36 194 59 255 92 293 C121 326 130 343 163 345 C186 346 210 347 238 348 C234 382 213 419 178 419 C139 419 105 350 56 350 C25 350 -5 357 -5 399 C-5 480 69 500 109 527 C137 546 165 554 197 554 C273 554 311 501 347 437 L347 437 Z M458 351 C467 349 473 347 478 347 C488 347 499 349 509 349 C531 349 554 339 577 339 C598 339 624 346 624 368 C624 398 575 424 538 424 C468 424 470 395 458 351 L458 351 Z M261 218 C253 220 246 220 240 220 C198 220 156 181 156 143 C156 126 173 89 193 89 C229 89 263 146 263 180 C263 191 261 200 261 218 L261 218 Z " />
<glyph glyph-name="ccedilla" unicode="&#xe7;" horiz-adv-x="427" d="M256 -33 C256 -37 254 -44 254 -51 C257 -92 267 -134 267 -176 C267 -207 241 -232 210 -232 C180 -232 146 -197 146 -165 C146 -155 150 -144 150 -132 C150 -100 140 -63 134 -31 C127 3 100 19 72 30 C-11 61 -1 138 -1 213 C-1 260 20 311 36 361 C46 393 64 419 90 437 C138 471 204 526 260 526 C273 526 285 524 297 524 C309 524 321 526 332 526 C369 526 401 492 401 458 C397 427 364 405 334 405 C317 405 301 409 285 409 C260 409 238 402 219 387 C152 343 152 347 124 249 C119 232 116 217 116 199 C116 169 114 141 143 123 C167 108 194 91 219 91 C268 91 333 163 377 163 C405 163 417 154 417 127 C407 48 312 2 256 -33 L256 -33 Z " />
<glyph glyph-name="egrave" unicode="&#xe8;" horiz-adv-x="424" d="M28 148 C28 206 1 235 1 289 L1 301 C1 401 76 508 155 508 L159 508 C175 508 191 515 208 515 C281 515 301 463 347 401 C370 375 396 313 396 288 C396 258 343 232 308 232 C288 232 264 239 241 239 C206 239 133 236 133 212 C133 170 162 80 195 80 C227 82 252 99 275 99 C292 99 315 83 315 60 C315 0 194 -37 176 -37 C107 -37 27 87 27 136 C27 140 27 144 28 148 L28 148 Z M259 350 C245 384 235 413 202 413 C173 413 125 362 125 345 C125 340 125 334 127 328 C174 334 223 332 259 350 L259 350 Z M285 596 L285 589 C285 562 266 545 239 545 C183 545 137 629 104 680 C98 689 95 698 95 707 C95 732 125 752 140 752 C179 752 223 693 255 659 C274 639 285 620 285 596 L285 596 Z " />
<glyph glyph-name="eacute" unicode="&#xe9;" horiz-adv-x="424" d="M28 148 C28 206 1 235 1 289 L1 301 C1 401 76 508 155 508 L159 508 C175 508 191 515 208 515 C281 515 301 463 347 401 C370 375 396 313 396 288 C396 258 343 232 308 232 C288 232 264 239 241 239 C206 239 133 236 133 212 C133 170 162 80 195 80 C227 82 252 99 275 99 C292 99 315 83 315 60 C315 0 194 -37 176 -37 C107 -37 27 87 27 136 C27 140 27 144 28 148 L28 148 Z M259 350 C245 384 235 413 202 413 C173 413 125 362 125 345 C125 340 125 334 127 328 C174 334 223 332 259 350 L259 350 Z M125 561 C96 561 76 581 76 608 C76 667 185 750 233 750 C270 750 292 717 292 690 C292 645 228 621 177 580 C162 568 145 562 125 561 L125 561 Z " />
<glyph glyph-name="ecircumflex" unicode="&#xea;" horiz-adv-x="424" d="M28 148 C28 206 1 235 1 289 L1 301 C1 401 76 508 155 508 L159 508 C175 508 191 515 208 515 C281 515 301 463 347 401 C370 375 396 313 396 288 C396 258 343 232 308 232 C288 232 264 239 241 239 C206 239 133 236 133 212 C133 170 162 80 195 80 C227 82 252 99 275 99 C292 99 315 83 315 60 C315 0 194 -37 176 -37 C107 -37 27 87 27 136 C27 140 27 144 28 148 L28 148 Z M259 350 C245 384 235 413 202 413 C173 413 125 362 125 345 C125 340 125 334 127 328 C174 334 223 332 259 350 L259 350 Z M264 711 C278 684 297 661 324 642 C345 627 362 596 362 573 C362 549 340 530 315 530 C273 530 242 570 201 603 C199 603 196 604 194 604 C183 604 170 598 160 585 C138 558 87 531 55 532 C38 532 22 556 22 573 C22 601 61 650 87 672 C118 698 134 749 178 749 C198 749 226 731 264 711 L264 711 Z " />
<glyph glyph-name="edieresis" unicode="&#xeb;" horiz-adv-x="424" d="M28 148 C28 206 1 235 1 289 L1 301 C1 401 76 508 155 508 L159 508 C175 508 191 515 208 515 C281 515 301 463 347 401 C370 375 396 313 396 288 C396 258 343 232 308 232 C288 232 264 239 241 239 C206 239 133 236 133 212 C133 170 162 80 195 80 C227 82 252 99 275 99 C292 99 315 83 315 60 C315 0 194 -37 176 -37 C107 -37 27 87 27 136 C27 140 27 144 28 148 L28 148 Z M259 350 C245 384 235 413 202 413 C173 413 125 362 125 345 C125 340 125 334 127 328 C174 334 223 332 259 350 L259 350 Z M144 687 C144 658 125 632 87 632 C59 632 28 668 28 698 C28 722 58 747 79 747 C115 747 141 722 144 687 L144 687 Z M348 655 C319 634 316 621 295 621 C261 621 236 643 236 670 C236 698 253 731 278 731 C312 731 345 711 347 676 C347 670 347 664 348 655 L348 655 Z " />
<glyph glyph-name="igrave" unicode="&#xec;" horiz-adv-x="215" d="M180 596 L180 589 C180 562 161 545 134 545 C78 545 32 629 -1 680 C-7 689 -10 698 -10 707 C-10 732 20 752 35 752 C74 752 118 693 150 659 C169 639 180 620 180 596 L180 596 Z M153 255 C154 228 159 201 159 174 C159 155 155 136 155 119 C155 97 163 75 163 53 C163 11 133 -18 93 -18 C42 -18 29 32 29 72 C29 125 49 186 49 238 C49 281 29 325 29 368 C29 416 30 481 91 481 C137 481 150 467 150 435 C150 398 144 359 144 323 C144 303 151 277 155 255 L153 255 L153 255 Z " />
<glyph glyph-name="iacute" unicode="&#xed;" horiz-adv-x="215" d="M21 561 C-8 561 -28 581 -28 608 C-28 667 81 750 129 750 C166 750 188 717 188 690 C188 645 124 621 73 580 C58 568 41 562 21 561 L21 561 Z M153 255 C154 228 159 201 159 174 C159 155 155 136 155 119 C155 97 163 75 163 53 C163 11 133 -18 93 -18 C42 -18 29 32 29 72 C29 125 49 186 49 238 C49 281 29 325 29 368 C29 416 30 481 91 481 C137 481 150 467 150 435 C150 398 144 359 144 323 C144 303 151 277 155 255 L153 255 L153 255 Z " />
<glyph glyph-name="icircumflex" unicode="&#xee;" horiz-adv-x="215" d="M160 711 C174 684 193 661 220 642 C241 627 258 596 258 573 C258 549 236 530 211 530 C169 530 138 570 97 603 C95 603 92 604 90 604 C79 604 66 598 56 585 C34 558 -17 531 -49 532 C-66 532 -82 556 -82 573 C-82 601 -43 650 -17 672 C14 698 30 749 74 749 C94 749 122 731 160 711 L160 711 Z M153 255 C154 228 159 201 159 174 C159 155 155 136 155 119 C155 97 163 75 163 53 C163 11 133 -18 93 -18 C42 -18 29 32 29 72 C29 125 49 186 49 238 C49 281 29 325 29 368 C29 416 30 481 91 481 C137 481 150 467 150 435 C150 398 144 359 144 323 C144 303 151 277 155 255 L153 255 L153 255 Z " />
<glyph glyph-name="idieresis" unicode="&#xef;" horiz-adv-x="215" d="M48 621 C48 592 29 566 -9 566 C-37 566 -68 602 -68 632 C-68 656 -38 681 -17 681 C19 681 45 656 48 621 L48 621 Z M252 589 C223 568 220 555 199 555 C165 555 140 577 140 604 C140 632 157 665 182 665 C216 665 249 645 251 610 C251 604 251 598 252 589 L252 589 Z M153 255 C154 228 159 201 159 174 C159 155 155 136 155 119 C155 97 163 75 163 53 C163 11 133 -18 93 -18 C42 -18 29 32 29 72 C29 125 49 186 49 238 C49 281 29 325 29 368 C29 416 30 481 91 481 C137 481 150 467 150 435 C150 398 144 359 144 323 C144 303 151 277 155 255 L153 255 L153 255 Z " />
<glyph glyph-name="ntilde" unicode="&#xf1;" horiz-adv-x="524" d="M164 374 C230 419 273 476 330 526 C343 538 370 547 384 547 C413 547 444 521 444 494 C444 485 442 476 442 467 C442 392 466 318 466 244 C466 227 464 210 464 193 C464 151 465 110 473 68 C474 62 475 57 475 52 C475 15 445 -14 408 -14 C371 -14 345 18 345 62 C348 125 357 191 357 253 C357 289 342 373 323 373 C309 373 260 317 236 294 C210 269 168 235 167 207 C167 203 169 198 169 193 C169 167 159 141 159 115 C159 91 175 67 175 45 C175 4 137 -31 106 -31 C75 -31 37 -12 37 46 C37 69 42 93 48 115 C58 155 61 199 61 239 C61 304 43 368 41 435 C41 488 52 549 113 549 C139 549 173 527 173 499 C173 477 159 451 159 424 C159 408 161 391 164 374 L164 374 Z M323 694 C327 735 328 754 372 754 C409 754 436 725 436 675 C436 607 390 581 303 555 C292 551 281 550 270 550 C235 550 209 567 177 591 C168 596 162 598 155 598 C137 598 118 562 92 562 C63 562 35 581 35 613 C35 646 58 667 76 694 C93 720 112 731 137 731 C166 731 207 721 231 695 C242 683 255 677 269 677 C286 677 302 687 323 694 L323 694 Z " />
<glyph glyph-name="ograve" unicode="&#xf2;" horiz-adv-x="435" d="M10 157 C10 209 10 262 12 314 L12 318 C12 358 47 415 79 446 C90 457 97 472 109 481 C139 502 173 517 213 520 C249 520 275 483 308 468 C351 448 383 429 394 382 C401 351 412 321 412 289 C412 147 297 -27 204 -27 C175 -27 145 -20 116 -18 C67 -16 16 30 16 82 C16 107 11 132 8 157 L10 157 L10 157 Z M189 416 C145 375 118 347 118 299 C118 274 125 249 125 225 C125 206 118 187 118 169 C118 117 133 85 188 85 C247 85 281 180 291 213 C299 239 307 263 307 290 C307 368 245 383 189 416 L189 416 Z M290 596 L290 589 C290 562 271 545 244 545 C188 545 142 629 109 680 C103 689 100 698 100 707 C100 732 130 752 145 752 C184 752 228 693 260 659 C279 639 290 620 290 596 L290 596 Z " />
<glyph glyph-name="oacute" unicode="&#xf3;" horiz-adv-x="435" d="M10 157 C10 209 10 262 12 314 L12 318 C12 358 47 415 79 446 C90 457 97 472 109 481 C139 502 173 517 213 520 C249 520 275 483 308 468 C351 448 383 429 394 382 C401 351 412 321 412 289 C412 147 297 -27 204 -27 C175 -27 145 -20 116 -18 C67 -16 16 30 16 82 C16 107 11 132 8 157 L10 157 L10 157 Z M189 416 C145 375 118 347 118 299 C118 274 125 249 125 225 C125 206 118 187 118 169 C118 117 133 85 188 85 C247 85 281 180 291 213 C299 239 307 263 307 290 C307 368 245 383 189 416 L189 416 Z M201 556 C172 556 152 576 152 603 C152 662 261 745 309 745 C346 745 368 712 368 685 C368 640 304 616 253 575 C238 563 221 557 201 556 L201 556 Z " />
<glyph glyph-name="ocircumflex" unicode="&#xf4;" horiz-adv-x="435" d="M10 157 C10 209 10 262 12 314 L12 318 C12 358 47 415 79 446 C90 457 97 472 109 481 C139 502 173 517 213 520 C249 520 275 483 308 468 C351 448 383 429 394 382 C401 351 412 321 412 289 C412 147 297 -27 204 -27 C175 -27 145 -20 116 -18 C67 -16 16 30 16 82 C16 107 11 132 8 157 L10 157 L10 157 Z M189 416 C145 375 118 347 118 299 C118 274 125 249 125 225 C125 206 118 187 118 169 C118 117 133 85 188 85 C247 85 281 180 291 213 C299 239 307 263 307 290 C307 368 245 383 189 416 L189 416 Z M269 711 C283 684 302 661 329 642 C350 627 367 596 367 573 C367 549 345 530 320 530 C278 530 247 570 206 603 C204 603 201 604 199 604 C188 604 175 598 165 585 C143 558 92 531 60 532 C43 532 27 556 27 573 C27 601 66 650 92 672 C123 698 139 749 183 749 C203 749 231 731 269 711 L269 711 Z " />
<glyph glyph-name="otilde" unicode="&#xf5;" horiz-adv-x="435" d="M10 157 C10 209 10 262 12 314 L12 318 C12 358 47 415 79 446 C90 457 97 472 109 481 C139 502 173 517 213 520 C249 520 275 483 308 468 C351 448 383 429 394 382 C401 351 412 321 412 289 C412 147 297 -27 204 -27 C175 -27 145 -20 116 -18 C67 -16 16 30 16 82 C16 107 11 132 8 157 L10 157 L10 157 Z M189 416 C145 375 118 347 118 299 C118 274 125 249 125 225 C125 206 118 187 118 169 C118 117 133 85 188 85 C247 85 281 180 291 213 C299 239 307 263 307 290 C307 368 245 383 189 416 L189 416 Z M279 694 C283 735 284 754 328 754 C365 754 392 725 392 675 C392 607 346 581 259 555 C248 551 237 550 226 550 C191 550 165 567 133 591 C124 596 118 598 111 598 C93 598 74 562 48 562 C19 562 -9 581 -9 613 C-9 646 14 667 32 694 C49 720 68 731 93 731 C122 731 163 721 187 695 C198 683 211 677 225 677 C242 677 258 687 279 694 L279 694 Z " />
<glyph glyph-name="odieresis" unicode="&#xf6;" horiz-adv-x="435" d="M10 157 C10 209 10 262 12 314 L12 318 C12 358 47 415 79 446 C90 457 97 472 109 481 C139 502 173 517 213 520 C249 520 275 483 308 468 C351 448 383 429 394 382 C401 351 412 321 412 289 C412 147 297 -27 204 -27 C175 -27 145 -20 116 -18 C67 -16 16 30 16 82 C16 107 11 132 8 157 L10 157 L10 157 Z M189 416 C145 375 118 347 118 299 C118 274 125 249 125 225 C125 206 118 187 118 169 C118 117 133 85 188 85 C247 85 281 180 291 213 C299 239 307 263 307 290 C307 368 245 383 189 416 L189 416 Z M150 687 C150 658 131 632 93 632 C65 632 34 668 34 698 C34 722 64 747 85 747 C121 747 147 722 150 687 L150 687 Z M354 655 C325 634 322 621 301 621 C267 621 242 643 242 670 C242 698 259 731 284 731 C318 731 351 711 353 676 C353 670 353 664 354 655 L354 655 Z " />
<glyph glyph-name="ugrave" unicode="&#xf9;" horiz-adv-x="516" d="M171 149 C173 152 176 155 177 158 C178 180 191 197 201 216 C238 284 296 341 297 420 C297 463 333 512 370 512 C417 512 436 490 439 459 C447 416 452 376 452 334 C452 318 451 303 451 287 C451 266 453 247 457 227 C464 191 458 153 467 113 C471 95 474 76 474 58 C474 18 457 -22 411 -22 C382 -22 341 3 341 37 C341 86 342 134 342 183 C342 191 340 199 335 208 C310 198 277 96 239 48 C236 44 232 41 231 37 C220 4 164 -25 149 -25 C91 -25 30 38 30 95 C30 122 39 150 39 177 C39 217 28 258 28 297 C28 310 29 323 29 336 C29 351 28 366 28 381 C28 438 34 482 74 517 C81 523 90 526 99 526 C131 526 153 496 153 466 C153 446 137 424 137 400 C137 319 154 234 163 152 C166 151 169 150 171 149 L171 149 Z M331 596 L331 589 C331 562 312 545 285 545 C229 545 183 629 150 680 C144 689 141 698 141 707 C141 732 171 752 186 752 C225 752 269 693 301 659 C320 639 331 620 331 596 L331 596 Z " />
<glyph glyph-name="uacute" unicode="&#xfa;" horiz-adv-x="516" d="M171 149 C173 152 176 155 177 158 C178 180 191 197 201 216 C238 284 296 341 297 420 C297 463 333 512 370 512 C417 512 436 490 439 459 C447 416 452 376 452 334 C452 318 451 303 451 287 C451 266 453 247 457 227 C464 191 458 153 467 113 C471 95 474 76 474 58 C474 18 457 -22 411 -22 C382 -22 341 3 341 37 C341 86 342 134 342 183 C342 191 340 199 335 208 C310 198 277 96 239 48 C236 44 232 41 231 37 C220 4 164 -25 149 -25 C91 -25 30 38 30 95 C30 122 39 150 39 177 C39 217 28 258 28 297 C28 310 29 323 29 336 C29 351 28 366 28 381 C28 438 34 482 74 517 C81 523 90 526 99 526 C131 526 153 496 153 466 C153 446 137 424 137 400 C137 319 154 234 163 152 C166 151 169 150 171 149 L171 149 Z M171 561 C142 561 122 581 122 608 C122 667 231 750 279 750 C316 750 338 717 338 690 C338 645 274 621 223 580 C208 568 191 562 171 561 L171 561 Z " />
<glyph glyph-name="ucircumflex" unicode="&#xfb;" horiz-adv-x="516" d="M171 149 C173 152 176 155 177 158 C178 180 191 197 201 216 C238 284 296 341 297 420 C297 463 333 512 370 512 C417 512 436 490 439 459 C447 416 452 376 452 334 C452 318 451 303 451 287 C451 266 453 247 457 227 C464 191 458 153 467 113 C471 95 474 76 474 58 C474 18 457 -22 411 -22 C382 -22 341 3 341 37 C341 86 342 134 342 183 C342 191 340 199 335 208 C310 198 277 96 239 48 C236 44 232 41 231 37 C220 4 164 -25 149 -25 C91 -25 30 38 30 95 C30 122 39 150 39 177 C39 217 28 258 28 297 C28 310 29 323 29 336 C29 351 28 366 28 381 C28 438 34 482 74 517 C81 523 90 526 99 526 C131 526 153 496 153 466 C153 446 137 424 137 400 C137 319 154 234 163 152 C166 151 169 150 171 149 L171 149 Z M303.744 714.597 C317.665 689.701 336.557 668.494 363.403 650.974 C384.284 637.143 401.188 608.558 401.188 587.351 C401.188 565.221 379.312 547.701 354.455 547.701 C312.693 547.701 281.869 584.584 241.102 615.013 C239.114 615.013 236.131 615.935 234.142 615.935 C223.205 615.935 210.278 610.403 200.335 598.416 C178.46 573.519 127.75 548.623 95.9318 549.545 C79.0284 549.545 63.1193 571.675 63.1193 587.351 C63.1193 613.169 101.898 658.351 127.75 678.636 C158.574 702.61 174.483 749.636 218.233 749.636 C238.119 749.636 265.96 733.039 303.744 714.597 L303.744 714.597 Z " />
<glyph glyph-name="udieresis" unicode="&#xfc;" horiz-adv-x="516" d="M171 149 C173 152 176 155 177 158 C178 180 191 197 201 216 C238 284 296 341 297 420 C297 463 333 512 370 512 C417 512 436 490 439 459 C447 416 452 376 452 334 C452 318 451 303 451 287 C451 266 453 247 457 227 C464 191 458 153 467 113 C471 95 474 76 474 58 C474 18 457 -22 411 -22 C382 -22 341 3 341 37 C341 86 342 134 342 183 C342 191 340 199 335 208 C310 198 277 96 239 48 C236 44 232 41 231 37 C220 4 164 -25 149 -25 C91 -25 30 38 30 95 C30 122 39 150 39 177 C39 217 28 258 28 297 C28 310 29 323 29 336 C29 351 28 366 28 381 C28 438 34 482 74 517 C81 523 90 526 99 526 C131 526 153 496 153 466 C153 446 137 424 137 400 C137 319 154 234 163 152 C166 151 169 150 171 149 L171 149 Z M190 687 C190 658 171 632 133 632 C105 632 74 668 74 698 C74 722 104 747 125 747 C161 747 187 722 190 687 L190 687 Z M394 655 C365 634 362 621 341 621 C307 621 282 643 282 670 C282 698 299 731 324 731 C358 731 391 711 393 676 C393 670 393 664 394 655 L394 655 Z " />
<glyph glyph-name="ydieresis" unicode="&#xff;" horiz-adv-x="408" d="M228 318 C260 355 275 409 282 459 C289 492 316 513 338 513 C367 513 397 486 397 454 C397 424 381 378 370 347 C346 278 340 205 315 134 C291 64 287 -12 259 -81 C232 -148 251 -199 186 -199 C156 -199 113 -174 113 -140 C113 -117 135 -92 135 -65 L135 -54 C135 -51 136 -48 138 -46 C163 -18 161 21 178 52 C185 65 181 85 186 101 C189 112 191 122 191 132 C191 171 152 219 113 243 C80 263 72 301 50 337 C14 385 -22 439 -36 496 C-37 500 -38 504 -38 507 C-38 525 -19 539 8 539 C46 539 64 517 81 478 C108 407 156 355 228 318 L228 318 Z M136 687 C136 658 117 632 79 632 C51 632 20 668 20 698 C20 722 50 747 71 747 C107 747 133 722 136 687 L136 687 Z M340 655 C311 634 308 621 287 621 C253 621 228 643 228 670 C228 698 245 731 270 731 C304 731 337 711 339 676 C339 670 339 664 340 655 L340 655 Z " />
<glyph glyph-name="OE" unicode="&#x152;" horiz-adv-x="673" d="M435 566 C442 531 446 482 480 482 C493 482 506 481 519 481 C535 481 550 485 566 485 C593 485 644 456 644 431 C644 392 620 353 575 353 C540 353 507 365 495 365 C461 365 466 303 447 259 C428 214 425 174 402 125 C408 119 416 116 425 116 C428 116 431 116 434 117 C476 124 523 127 565 127 C595 127 634 103 634 73 C634 -11 477 -4 427 -4 C377 -4 329 6 279 6 C258 6 239 -8 217 -8 C130 -8 46 80 28 144 C25 156 19 167 14 178 C3 204 0 230 0 258 L0 266 C0 288 -5 310 -5 332 C-5 335 -4 337 -3 339 C16 370 5 409 19 442 C38 488 45 541 86 577 C113 601 130 635 164 650 C215 672 255 686 324 686 C341 686 358 685 375 685 C433 685 488 694 547 694 L549 694 C576 659 646 670 646 609 C646 569 610 546 583 546 C553 546 525 558 496 558 C489 557 481 556 474 556 C459 556 451 560 435 566 L435 566 Z M123 298 C139 224 170 127 213 127 C229 127 296 168 305 204 C320 261 346 304 346 371 C346 397 340 425 336 454 C330 495 306 539 251 539 C145 539 138 395 124 322 C123 320 123 317 123 315 L123 305 L123 298 L123 298 Z " />
<glyph glyph-name="oe" unicode="&#x153;" horiz-adv-x="773" d="M467 197 C481 149 495 105 548 105 C564 105 578 113 591 130 C606 149 631 159 655 159 C681 159 700 140 700 116 C700 82 664 51 641 25 C616 -3 588 -20 551 -20 C484 -20 421 13 381 67 C378 72 374 76 369 80 C350 73 339 59 334 42 C320 -4 261 -30 233 -30 C159 -30 61 -6 33 72 C12 130 18 210 17 272 C17 276 18 280 18 284 C18 288 17 291 17 295 C17 333 71 456 87 471 C123 504 165 531 215 531 C246 530 277 531 308 514 C334 499 361 486 383 467 C399 470 411 495 425 507 C436 516 454 519 468 529 C480 538 495 543 510 543 C537 543 590 516 626 501 C664 485 691 462 701 419 C711 374 738 326 738 285 C738 250 714 214 682 214 C654 214 625 219 596 219 L547 219 C532 219 518 220 504 220 C489 220 476 214 467 197 L467 197 Z M142 204 L139 204 C146 151 146 91 210 91 C231 91 241 100 251 128 C263 165 287 198 290 238 C291 245 295 251 297 258 C307 281 310 304 310 328 C310 340 311 355 308 366 C295 391 262 406 232 406 C130 406 142 254 142 204 L142 204 Z M520 421 C497 409 481 389 481 364 C481 343 534 338 556 338 C572 338 592 346 592 361 C592 384 554 417 520 421 L520 421 Z " />
<glyph glyph-name="scaron" unicode="&#x161;" horiz-adv-x="391" d="M109 536 C87 573 69 607 48 640 C34 661 34 682 34 706 C34 739 79 746 98 746 C132 746 150 677 190 636 C231 659 205 743 275 743 C311 743 326 721 326 681 C326 652 322 632 308 605 C300 591 297 583 297 575 C297 562 327 534 327 501 C327 467 302 440 272 440 C260 440 247 445 235 445 C199 445 144 434 144 399 C144 375 171 350 203 341 C260 320 333 282 350 212 C361 163 365 114 365 64 C365 19 297 -22 258 -27 C240 -32 217 -35 200 -35 C132 -35 67 7 39 68 C37 72 37 75 37 79 C37 100 65 116 82 116 C114 116 145 84 178 84 C209 84 237 90 237 127 C237 179 194 217 147 228 C67 247 8 315 8 403 C8 460 36 490 109 536 L109 536 Z " />
<glyph glyph-name="circumflex" unicode="&#x2c6;" horiz-adv-x="338" d="M221 711 C235 684 254 661 281 642 C302 627 319 596 319 573 C319 549 297 530 272 530 C230 530 199 570 158 603 C156 603 153 604 151 604 C140 604 127 598 117 585 C95 558 44 531 12 532 C-5 532 -21 556 -21 573 C-21 601 18 650 44 672 C75 698 91 749 135 749 C155 749 183 731 221 711 L221 711 Z " />
<glyph glyph-name="ring" unicode="&#x2da;" horiz-adv-x="318" d="M29 480 C0 517 -26 556 -26 601 C-26 694 47 695 107 729 C124 739 157 752 175 752 C204 752 238 729 257 710 C277 690 274 651 287 630 C293 620 295 610 295 599 C295 513 231 436 136 436 C110 436 29 462 29 480 L29 480 Z M143 629 C108 627 78 592 78 566 C78 545 106 544 129 544 C158 544 173 569 173 585 C173 598 163 613 143 629 L143 629 Z " />
<glyph glyph-name="tilde" unicode="&#x2dc;" horiz-adv-x="407" d="M268 694 C272 735 273 754 317 754 C354 754 381 725 381 675 C381 607 335 581 248 555 C237 551 226 550 215 550 C180 550 154 567 122 591 C113 596 107 598 100 598 C82 598 63 562 37 562 C8 562 -20 581 -20 613 C-20 646 3 667 21 694 C38 720 57 731 82 731 C111 731 152 721 176 695 C187 683 200 677 214 677 C231 677 247 687 268 694 L268 694 Z " />
<glyph glyph-name="endash" unicode="&#x2013;" horiz-adv-x="472" d="M10 261 C36 314 58 331 109 331 C128 331 146 330 165 330 C223 330 281 337 340 337 C402 337 435 309 435 285 C435 260 401 210 362 210 C351 210 337 215 324 215 C251 215 183 210 112 201 C106 200 100 200 95 200 C57 200 31 219 10 261 L10 261 Z " />
<glyph glyph-name="emdash" unicode="&#x2014;" horiz-adv-x="645" d="M10 259 C46 313 80 331 152 331 C179 331 205 330 231 330 C313 330 397 337 480 337 C563 337 614 310 614 284 C614 262 568 207 509 207 C493 207 474 212 455 212 C352 212 254 206 155 198 C147 197 139 197 131 197 C76 197 39 216 10 259 L10 259 Z " />
<glyph glyph-name="quoteleft" unicode="&#x2018;" horiz-adv-x="193" d="M162 448 C143 443 121 437 101 437 C57 437 31 506 18 558 C7 601 -28 664 -28 698 C-28 728 3 747 19 747 C52 747 85 703 97 667 C109 632 127 599 142 565 C152 542 174 500 173 484 C173 471 167 460 162 448 L162 448 Z " />
<glyph glyph-name="quoteright" unicode="&#x2019;" horiz-adv-x="200" d="M118 747 C157 746 191 721 191 681 C191 656 127 544 123 540 C99 516 115 431 51 431 C18 431 -8 468 -8 499 C-8 505 -7 511 -5 518 C10 568 26 616 54 661 C73 691 75 748 110 748 C113 748 115 747 118 747 L118 747 Z " />
<glyph glyph-name="quotesinglbase" unicode="&#x201a;" horiz-adv-x="204" d="M36 -200 C8 -184 -8 -169 -8 -139 C-8 -111 -2 -81 3 -53 C9 -33 19 -14 26 6 C44 55 57 137 109 137 C149 137 177 98 177 73 C177 42 144 8 138 -34 C134 -59 120 -83 112 -107 C98 -147 101 -197 55 -197 C50 -197 45 -198 36 -200 L36 -200 Z " />
<glyph glyph-name="quotedblleft" unicode="&#x201c;" horiz-adv-x="390" d="M153 448 C134 443 112 437 92 437 C48 437 22 506 9 558 C-2 601 -37 664 -37 698 C-37 728 -6 747 10 747 C43 747 76 703 88 667 C100 632 118 599 133 565 C143 542 165 500 164 484 C164 471 158 460 153 448 L153 448 Z M305 436 C271 436 253 451 238 486 C220 529 201 572 167 607 C154 620 141 654 141 669 C141 692 173 717 190 717 C266 717 336 556 357 525 C363 516 367 509 367 501 C367 458 340 436 305 436 L305 436 Z " />
<glyph glyph-name="quotedblright" unicode="&#x201d;" horiz-adv-x="395" d="M311 735 C349 734 383 709 383 669 C383 642 318 531 315 528 C292 505 307 419 243 419 C210 419 184 456 184 487 C184 493 185 499 187 506 C202 556 218 605 247 649 C261 678 269 736 303 736 C306 736 308 735 311 735 L311 735 Z M52 434 C50 434 47 433 45 433 C23 433 -5 456 -5 473 L-5 476 L-5 485 C-5 522 19 584 35 632 C52 674 72 748 119 748 C155 748 166 719 166 691 C166 682 164 675 161 668 C133 603 133 530 101 465 C87 436 83 434 52 434 L52 434 Z " />
<glyph glyph-name="quotedblbase" unicode="&#x201e;" horiz-adv-x="414" d="M229 -200 C200 -183 184 -169 184 -139 C184 -112 189 -81 196 -53 C201 -33 214 -14 219 6 C238 55 249 137 302 137 C342 137 370 98 370 73 C370 42 337 8 331 -34 C327 -59 313 -83 305 -107 C291 -147 294 -197 248 -197 C243 -197 238 -198 229 -200 L229 -200 Z M179 64 C175 31 154 2 143 -29 C126 -68 113 -114 105 -151 C100 -175 76 -186 54 -186 C-1 -186 2 -135 2 -98 C2 -41 48 31 55 83 C57 116 91 135 113 135 C146 135 177 103 179 64 L179 64 Z " />
<glyph glyph-name="bullet" unicode="&#x2022;" horiz-adv-x="401" d="M76 173 C52 211 21 247 21 295 C21 389 99 386 156 422 C171 431 205 444 223 444 C253 444 285 421 305 402 C325 382 324 345 335 323 C340 311 344 302 344 290 C344 205 280 129 182 129 C144 129 108 151 77 169 C77 170 76 172 76 173 L76 173 Z " />
<glyph glyph-name="ellipsis" unicode="&#x2026;" horiz-adv-x="539" d="M504 48 C503 18 483 1 456 1 C414 4 390 30 390 63 C390 88 423 109 450 109 C482 109 504 80 504 48 L504 48 Z M269 108 C297 102 321 92 321 61 C321 24 307 2 282 2 C251 2 212 31 212 62 C212 88 236 105 268 105 C269 106 269 107 269 108 L269 108 Z M38 68 C56 80 70 98 92 98 C116 98 134 65 134 45 C134 26 116 8 99 8 C58 8 42 38 38 68 L38 68 Z " />
<glyph glyph-name="guilsinglleft" unicode="&#x2039;" horiz-adv-x="388" d="M278 523 C313 523 338 497 338 468 C338 438 299 403 269 378 C232 347 182 268 182 245 C182 211 231 179 262 151 C266 148 270 144 275 143 C313 134 360 85 360 51 C360 7 311 -23 285 -23 C266 -23 245 -13 221 8 C143 60 90 144 47 178 C27 193 15 221 15 245 C15 282 99 358 134 411 C157 446 191 469 217 501 C228 514 257 522 278 523 L278 523 Z " />
<glyph glyph-name="guilsinglright" unicode="&#x203a;" horiz-adv-x="371" d="M164 250 C139 344 10 364 10 456 C10 505 56 516 91 516 C129 508 151 450 179 429 C206 408 254 382 267 365 C296 329 338 292 338 251 C338 178 238 153 210 102 C186 58 144 -4 92 -4 C52 -4 16 36 16 73 C16 110 79 163 124 198 C140 211 150 232 164 250 L164 250 Z " />
<glyph glyph-name="fraction" unicode="&#x2044;" horiz-adv-x="305" d="M280 717 C310 716 332 693 332 665 C332 640 310 595 296 567 C275 525 257 483 249 437 C249 434 247 432 246 430 C229 399 228 365 218 332 C212 321 201 293 201 281 C201 250 186 224 175 195 C164 165 157 134 149 104 C143 83 135 63 132 42 C125 3 92 -9 65 -27 C63 -29 60 -30 56 -30 C24 -30 -20 1 -20 31 C-20 42 -18 61 -8 71 C18 106 20 150 37 189 C53 227 67 266 82 305 C84 309 87 314 87 318 C96 387 133 451 149 516 C161 563 182 608 200 656 C211 696 241 717 280 717 L280 717 Z " />
<glyph glyph-name="Euro" unicode="&#x20ac;" horiz-adv-x="556" d="M95 354 C46 362 -2 366 -4 408 C-4 495 115 452 125 499 C161 628 245 725 392 725 C424 725 488 726 488 671 C488 644 476 605 444 605 C427 605 409 606 393 606 C325 606 292 568 261 507 C264 494 271 490 282 490 C300 490 322 492 339 492 C376 492 410 453 410 427 C410 374 364 366 327 366 C304 366 280 369 258 369 C241 369 234 365 234 351 C234 318 258 324 282 324 C297 324 313 328 329 328 C370 328 404 305 404 269 C404 224 373 200 318 200 C312 200 305 201 298 201 C261 201 265 187 265 167 C265 122 307 102 341 102 C369 104 395 106 420 120 C445 134 474 152 505 152 C528 152 543 136 543 112 C543 75 483 27 445 3 C412 -18 369 -26 327 -26 C259 -26 183 2 147 69 C127 106 113 146 97 188 C57 188 -14 194 -14 236 C-14 275 27 295 55 301 C82 307 93 325 95 354 L95 354 Z " />
<glyph glyph-name="trademark" unicode="&#x2122;" horiz-adv-x="1239" d="" />
<glyph glyph-name="minus" unicode="&#x2212;" horiz-adv-x="474" d="M10 266 C36 319 58 336 109 336 C128 336 146 335 165 335 C223 335 281 342 340 342 C400 342 435 315 435 291 C435 266 401 215 362 215 C351 215 337 220 324 220 C251 220 183 215 112 206 C106 205 100 205 95 205 C57 205 31 224 10 266 L10 266 Z " />
<glyph glyph-name="infinity" unicode="&#x221e;" horiz-adv-x="798" d="M379 243 C326 210 267 160 210 160 C110 160 65 182 27 271 C25 274 22 279 22 283 C22 396 130 456 218 456 C270 456 342 433 379 397 C385 390 393 388 400 388 C408 388 415 390 423 393 C479 413 549 448 598 448 C689 448 747 337 747 280 C747 249 748 227 720 201 C684 168 649 157 590 157 C537 157 449 171 415 211 C404 222 391 232 379 243 L379 243 Z M271 333 C259 343 248 346 236 346 C199 346 161 309 161 298 C161 283 173 271 184 271 C213 271 267 314 271 333 L271 333 Z M586 331 C537 319 522 310 513 289 C534 276 563 268 587 268 C596 268 602 273 602 281 C602 294 591 315 586 331 L586 331 Z " />
<glyph glyph-name="f_f" unicode="&#xfb00;" horiz-adv-x="627" d="M466 495 C473 493 481 493 488 493 C513 493 535 502 558 502 C595 502 623 480 623 445 C623 415 596 382 567 382 C553 382 535 390 517 390 C452 390 453 363 453 300 C453 287 458 274 458 261 C458 247 454 234 454 220 C454 151 481 121 481 84 C481 16 464 -28 405 -28 C363 -28 357 25 347 62 C347 63 346 64 346 66 C346 78 357 87 357 98 C357 116 349 138 349 158 C349 190 354 221 354 253 C354 274 351 294 351 315 C350 333 353 351 352 369 L351 392 C302 392 237 393 210 393 C192 393 175 391 157 392 C151 378 150 365 150 351 C150 340 151 329 152 319 C159 267 159 211 159 159 L159 116 C159 90 163 65 163 38 C163 -7 139 -35 100 -35 C18 -35 30 58 28 87 C28 94 29 102 33 107 C43 125 46 143 46 163 C46 181 44 201 44 220 C44 242 46 264 46 286 C46 334 39 388 38 439 L38 452 C38 468 31 482 31 497 C31 615 66 708 167 723 C196 727 228 734 258 734 C291 734 308 713 308 691 C308 645 261 650 230 644 C149 622 146 556 146 487 C157 486 165 485 172 485 C207 487 308 488 352 489 L354 536 C356 588 362 658 400 695 C432 735 457 750 499 750 C577 750 635 727 635 681 C635 653 600 632 577 632 C559 632 532 645 516 645 C481 645 464 594 464 542 L464 514 L464 510 C464 505 465 501 466 495 L466 495 Z " />
<glyph glyph-name="f_i" unicode="&#xfb01;" horiz-adv-x="539" d="M317 384 C295 393 274 397 252 397 C228 397 203 392 178 384 C176 376 174 367 174 358 C176 308 179 258 179 209 C179 188 177 166 177 145 C177 111 185 74 185 44 C185 5 162 -19 119 -19 C74 -19 47 7 47 51 C47 109 59 167 59 225 C59 236 58 246 58 257 L58 282 C58 332 45 381 45 431 C45 455 55 471 57 492 C67 582 151 679 241 694 C268 701 287 708 312 708 C381 708 458 696 458 657 C450 606 382 610 344 610 L327 610 C279 610 233 582 202 514 C220 501 239 499 258 499 C297 499 337 514 376 514 C414 514 464 485 464 445 C464 397 441 337 441 281 C441 252 449 223 449 194 L449 181 L449 177 C449 171 448 165 448 160 C448 156 448 153 450 150 C460 123 460 88 460 62 C460 25 423 4 390 4 C310 4 318 97 318 162 C318 198 322 233 322 270 C322 284 316 299 316 313 C316 327 322 345 322 361 C322 369 321 376 317 384 L317 384 Z " />
<glyph glyph-name="fl" unicode="&#xfb02;" horiz-adv-x="600" d="M388 700 L388 704 C388 723 420 738 444 738 C500 738 518 698 518 641 C518 604 511 564 511 524 C511 479 514 456 513 412 L513 377 C517 341 518 306 518 270 C518 240 517 210 517 180 C517 154 520 128 533 103 C535 98 536 91 536 85 C536 43 523 -10 476 -10 C414 -10 387 18 387 79 C389 144 390 212 390 277 C390 335 392 421 357 421 C332 421 307 414 282 414 C254 414 226 421 198 421 C174 421 163 414 163 395 C163 358 175 322 175 285 C175 250 163 216 163 182 C163 138 176 97 187 54 C188 50 188 46 188 41 C188 6 160 -19 126 -19 C69 -19 34 6 34 64 C34 80 35 97 35 113 C35 138 32 163 32 188 C32 230 39 270 39 312 C39 345 32 378 32 411 C32 471 39 532 39 593 C39 680 154 738 225 738 C251 738 302 721 302 696 C302 612 172 664 172 572 C172 525 219 528 259 528 C288 528 321 529 349 540 C381 552 386 555 386 581 C386 598 385 616 385 633 C385 655 386 678 388 700 L388 700 Z " />
</font>
</svg>
