<?xml version="1.0" encoding="UTF-8"?>
<svg xmlns="http://www.w3.org/2000/svg" xmlns:xlink="http://www.w3.org/1999/xlink" version="1.2" >
<font id="Advocaat Regular">
<font-face  font-family="Advocaat" units-per-em="1000" ascent="750" descent="-250" font-style="normal" font-weight="400" font-stretch="normal" cap-height="700" x-height="500" underline-position="-75" underline-thickness="50" />
<missing-glyph  horiz-adv-x="227" d="" />
<glyph glyph-name="NULL" d="" />
<glyph glyph-name="CR" unicode="&#xd;" horiz-adv-x="152" d="" />
<glyph glyph-name="space" unicode="&#x20;" horiz-adv-x="152" d="" />
<glyph glyph-name="exclam" unicode="&#x21;" horiz-adv-x="187" d="M129 231 C130 231 107 204 88 204 C74 204 50 211 49 229 C49 232 50 236 52 240 C66 273 61 308 61 342 C62 370 62 398 61 426 C59 459 51 491 50 524 C49 552 57 579 56 606 C55 635 64 681 89 681 C116 681 124 664 125 639 C126 601 115 563 116 525 C117 499 125 474 126 449 C128 387 125 323 127 261 C128 252 129 242 129 231 L129 231 Z M127 41 C128 21 107 -1 84 -1 C65 -1 48 18 47 41 C46 63 63 80 86 80 C107 80 125 62 127 41 L127 41 Z " />
<glyph glyph-name="quotedbl" unicode="&#x22;" horiz-adv-x="267" d="M145 565 C147 580 148 594 147 608 C146 633 143 656 143 680 C142 706 163 750 183 750 C202 750 215 730 215 713 C216 692 208 670 209 649 C210 612 217 570 219 530 C219 513 205 487 186 487 C154 487 150 539 145 565 L145 565 Z M54 751 C85 744 98 744 99 728 C99 724 98 719 96 712 C89 689 87 666 88 643 C89 605 97 564 100 523 C101 505 90 484 64 484 C37 484 31 508 29 541 C29 564 34 588 33 612 C32 627 30 644 29 659 C28 691 40 720 54 751 L54 751 Z " />
<glyph glyph-name="numbersign" unicode="&#x23;" horiz-adv-x="463" d="M83 178 C69 177 57 174 46 174 C27 174 2 189 1 212 C0 234 49 234 78 242 C111 251 113 258 115 298 C85 304 59 304 58 329 C56 372 132 341 150 390 C163 428 173 461 180 503 C183 514 195 522 207 522 C218 522 230 510 230 494 C227 457 230 420 216 385 C214 380 213 374 213 368 C221 366 229 366 236 366 C276 366 303 388 315 434 C321 457 324 490 342 490 C368 490 383 464 384 452 C384 430 373 404 365 376 C375 370 385 367 396 367 C405 367 414 369 425 369 C439 369 451 362 451 346 C452 317 398 309 380 309 C373 309 365 310 358 310 C337 309 328 299 329 274 C329 264 331 253 332 240 C366 233 405 236 406 200 C407 183 387 174 371 174 C357 174 339 179 320 182 C302 122 283 53 245 53 C227 53 214 67 213 85 C215 120 238 152 245 187 C231 193 218 196 205 196 C185 196 160 194 153 171 C141 128 141 44 96 44 C83 44 69 54 68 70 C67 102 86 130 85 165 C85 169 84 173 83 178 L83 178 Z M262 297 C253 303 245 305 237 305 C197 305 185 285 182 256 C201 253 213 252 222 252 C234 252 243 254 258 259 C260 270 261 283 262 297 L262 297 Z " />
<glyph glyph-name="dollar" unicode="&#x24;" horiz-adv-x="389" d="M208 21 C200 -2 197 -29 172 -29 C157 -29 132 -14 131 5 L131 14 C130 60 68 64 48 112 C40 130 7 168 6 187 C6 201 24 202 36 202 C52 202 94 168 103 138 C105 129 112 123 122 123 C141 123 152 275 150 341 C149 363 105 380 79 385 C35 393 0 446 -2 495 C-3 521 6 548 15 573 C26 609 78 654 112 654 C123 654 135 652 146 652 C173 652 177 660 175 698 L175 701 C175 716 190 731 203 731 C234 731 224 665 265 650 C305 634 354 586 355 561 C356 546 342 536 313 530 C293 552 273 573 242 588 C231 534 228 484 223 431 C224 396 256 377 284 356 C337 316 376 249 378 183 C381 103 304 15 239 15 C229 15 219 17 208 21 L208 21 Z M201 90 C210 87 217 85 224 85 C277 85 309 150 308 190 C307 216 299 250 279 272 C264 288 244 300 226 313 C203 289 195 178 197 121 C198 110 200 99 201 90 L201 90 Z M170 586 C158 589 146 591 136 591 C86 591 69 555 67 492 C69 456 116 433 152 433 C170 477 172 521 171 567 C171 573 170 580 170 586 L170 586 Z " />
<glyph glyph-name="percent" unicode="&#x25;" horiz-adv-x="494" d="M215 349 C176 309 154 270 106 270 C64 270 17 322 15 365 C14 398 35 421 49 455 C70 506 121 534 174 534 C191 534 208 510 224 496 C243 478 249 455 250 429 C250 425 250 421 253 416 C268 452 283 510 326 510 C341 510 353 493 353 478 C353 473 352 469 350 465 C322 429 310 385 288 346 C261 300 261 242 226 201 C194 164 180 115 160 72 C147 43 136 13 129 -18 C126 -32 117 -38 102 -38 C81 -38 70 -28 69 -10 C69 -2 69 7 71 15 C98 90 129 158 172 228 C195 261 203 299 218 335 L218 336 C218 339 216 343 215 349 L215 349 Z M174 471 C137 462 133 462 122 451 C100 428 83 387 83 356 C84 344 94 335 106 335 C145 335 187 420 186 441 C186 450 184 461 174 471 L174 471 Z M487 147 C478 114 479 80 454 52 C417 11 405 -9 368 -9 C314 -9 256 27 254 82 C252 151 275 243 342 275 C351 279 360 283 368 283 C382 283 392 264 404 264 L413 264 C468 264 475 194 487 147 L487 147 Z M368 49 C407 72 426 106 425 150 C424 181 406 222 373 222 C319 222 316 104 317 89 C318 64 330 58 368 49 L368 49 Z " />
<glyph glyph-name="ampersand" unicode="&#x26;" horiz-adv-x="488" d="M315 742 C384 705 431 648 434 574 C435 540 432 506 411 476 C389 443 376 407 341 383 C316 366 271 333 272 314 C273 298 303 260 316 236 C329 211 352 152 357 152 C375 152 415 221 415 221 C418 224 430 226 441 226 C461 226 468 215 468 199 C469 165 383 103 384 91 C384 80 415 0 424 -13 C436 -35 459 -65 460 -83 C460 -97 449 -106 434 -106 C388 -106 342 22 336 37 C334 43 330 47 325 47 C320 47 311 41 306 35 C271 -1 182 -26 141 -26 C78 -26 20 47 18 108 C15 213 84 251 180 326 C185 331 189 338 189 345 C188 366 156 414 143 441 C125 476 114 514 104 552 C103 556 100 560 100 564 L100 566 C114 616 113 687 164 712 C180 720 198 731 219 731 C232 731 242 740 256 740 C267 740 280 738 291 738 C299 738 310 737 315 742 L315 742 Z M239 383 C286 410 305 424 340 475 C357 499 374 516 373 554 C371 614 348 682 269 682 C208 682 162 649 165 577 C167 508 214 437 239 383 L239 383 Z M211 281 C164 226 75 197 78 120 C79 83 108 37 146 37 C168 40 191 44 210 53 C229 61 254 61 267 82 C276 96 302 103 302 116 C300 167 213 278 211 281 L211 281 Z " />
<glyph glyph-name="quotesingle" unicode="&#x27;" horiz-adv-x="131" d="M15 565 C17 580 18 594 17 608 C16 633 13 656 13 680 C12 706 33 750 53 750 C72 750 85 730 85 713 C86 692 78 670 79 649 C80 612 87 570 89 530 C89 513 75 487 56 487 C24 487 20 539 15 565 L15 565 Z " />
<glyph glyph-name="parenleft" unicode="&#x28;" horiz-adv-x="257" d="M5 243 L5 247 C12 293 2 340 16 385 C17 387 17 388 17 390 C17 394 16 398 16 402 C13 473 55 596 90 633 C109 652 126 670 153 676 C170 679 182 705 204 705 C220 705 234 695 235 678 C236 637 143 628 115 563 C83 489 72 419 68 338 C66 311 61 283 62 259 C63 205 130 79 181 60 C197 54 203 34 204 24 C204 9 187 -8 174 -8 C153 -8 90 42 76 84 C74 89 72 94 69 97 C49 114 41 140 28 161 C12 187 6 214 5 243 L5 243 Z " />
<glyph glyph-name="parenright" unicode="&#x29;" horiz-adv-x="225" d="M212 376 C202 335 208 289 204 245 C199 184 177 126 138 79 C127 67 119 53 111 38 C101 16 69 -6 49 -6 C35 -6 15 7 15 21 C15 27 17 33 22 38 C44 55 52 81 68 100 C115 153 128 189 141 241 C143 249 145 258 144 267 L144 273 C143 297 144 321 153 343 C154 346 153 350 153 353 C153 363 151 373 150 383 C150 388 151 394 151 399 C150 431 136 460 124 489 C101 539 80 620 47 639 C33 647 17 659 16 674 C16 687 28 706 40 706 C65 706 111 662 126 631 C145 587 165 543 185 499 C204 461 204 419 212 376 L212 376 Z " />
<glyph glyph-name="asterisk" unicode="&#x2a;" horiz-adv-x="371" d="M104 570 C88 572 80 574 72 574 L64 574 C38 574 3 602 3 618 C2 632 24 644 39 644 C53 644 67 637 81 637 C94 637 107 640 121 646 C110 672 67 710 67 725 C66 737 77 748 89 748 C120 748 157 702 180 675 C213 686 224 737 255 737 C270 737 286 718 286 706 C287 684 255 677 252 648 C263 643 274 643 284 643 C297 643 305 647 322 647 C336 647 353 633 354 617 C355 574 253 590 253 581 C254 549 282 535 283 506 C284 491 273 480 256 480 C219 480 203 526 179 565 C147 542 136 468 83 468 C70 468 58 487 58 498 C57 510 83 541 104 570 L104 570 Z " />
<glyph glyph-name="plus" unicode="&#x2b;" horiz-adv-x="412" d="M-2 277 C6 286 16 290 27 290 C38 290 49 287 59 287 C87 287 113 295 140 308 C141 335 144 366 143 393 C143 418 132 444 131 467 C130 481 142 497 163 497 C204 497 205 426 207 383 C207 363 201 340 202 322 C202 313 206 310 218 310 C236 310 256 312 274 312 C310 312 347 304 382 304 C389 304 396 305 403 305 C405 297 406 289 406 283 C407 268 400 261 385 261 C377 261 367 263 359 263 C318 263 265 251 214 246 C205 224 210 186 211 157 C211 134 213 111 214 89 C215 52 210 37 178 37 C158 37 153 45 152 67 C151 92 155 116 154 141 C153 169 149 200 145 231 C136 233 128 234 120 234 C101 234 83 223 63 223 C26 223 -3 226 -4 260 C-4 266 -2 272 -2 277 L-2 277 Z " />
<glyph glyph-name="comma" unicode="&#x2c;" horiz-adv-x="163" d="M101 126 C141 119 142 70 144 36 C145 -20 106 -92 70 -92 C54 -92 36 -81 35 -66 C35 -57 39 -53 46 -45 C65 -18 78 10 77 43 C77 54 74 67 74 79 C73 99 81 115 101 126 L101 126 Z " />
<glyph glyph-name="hyphen" unicode="&#x2d;" horiz-adv-x="484" d="M248 215 L83 215 C52 215 30 226 30 245 C29 269 41 288 61 288 C96 288 132 282 167 282 C253 282 339 286 425 293 C431 293 437 295 443 295 C459 294 474 279 474 261 C476 221 342 214 283 214 C271 214 260 216 248 216 L248 215 L248 215 Z " />
<glyph glyph-name="period" unicode="&#x2e;" horiz-adv-x="139" d="M119 28 C120 11 100 -13 83 -13 C61 -13 42 6 41 28 C40 46 59 67 75 67 C96 67 117 49 119 28 L119 28 Z " />
<glyph glyph-name="slash" unicode="&#x2f;" horiz-adv-x="257" d="M43 -13 C20 -13 6 2 5 22 C4 44 15 76 21 101 C33 150 39 201 53 250 C61 278 67 307 69 337 C71 369 89 406 99 438 C116 496 142 564 147 616 C148 666 201 709 214 709 C229 709 238 702 239 688 C239 664 213 625 208 590 C194 500 150 419 136 334 C120 241 94 153 79 57 C75 30 70 -13 43 -13 L43 -13 Z " />
<glyph glyph-name="zero" unicode="0" horiz-adv-x="456" d="M425 365 C426 354 428 342 428 331 C431 244 403 167 363 91 C333 34 259 27 203 10 C197 8 191 7 185 7 C141 7 33 140 31 184 C26 218 23 255 22 289 C19 363 34 432 39 508 C45 596 102 662 179 695 C181 695 184 696 186 696 C203 696 219 690 233 690 C251 690 267 688 273 667 C275 661 286 657 294 654 C385 627 422 463 425 394 C425 384 426 375 425 365 L425 365 Z M195 643 C172 633 143 622 127 596 C92 541 92 492 80 423 C73 388 72 354 73 319 C75 283 74 235 85 205 C107 144 153 71 212 71 C260 71 305 101 327 139 C333 151 336 166 341 178 C367 231 371 287 370 346 C368 352 368 358 368 364 L368 387 C365 470 330 584 257 614 C237 622 218 632 195 643 L195 643 Z " />
<glyph glyph-name="one" unicode="1" horiz-adv-x="260" d="M154 622 C145 629 136 632 127 632 C107 632 87 625 66 625 C51 625 36 626 21 626 L11 626 C0 626 -15 629 -16 646 C-17 684 92 692 148 692 C194 692 212 687 214 645 L214 602 C215 595 215 588 215 581 C217 522 215 463 214 405 C212 315 186 228 189 140 C190 105 196 65 204 32 C205 11 194 -7 174 -7 C140 -7 134 63 133 104 C131 171 145 236 152 302 C159 377 166 452 163 528 C162 559 155 592 154 622 L154 622 Z " />
<glyph glyph-name="two" unicode="2" horiz-adv-x="384" d="M103 60 C110 57 117 55 123 55 C131 55 138 57 144 61 C174 74 206 76 239 76 L248 76 C272 76 298 81 321 81 C338 81 347 73 348 50 C349 14 301 16 272 16 C258 16 243 18 229 18 C182 18 132 -2 80 -2 C46 -2 18 3 17 27 C16 34 19 42 26 49 C75 104 106 181 137 237 C157 273 177 309 199 344 C220 378 234 415 261 446 C283 472 307 520 306 549 C305 595 268 649 224 649 C141 649 100 598 85 548 C81 532 67 518 48 518 C38 518 28 524 28 534 C28 537 29 539 30 542 C55 597 88 666 150 683 C177 690 202 705 232 705 C315 705 358 611 360 553 C363 481 320 435 280 379 C249 322 221 267 185 210 C157 160 131 113 103 60 L103 60 Z " />
<glyph glyph-name="three" unicode="3" horiz-adv-x="349" d="M214 629 C205 636 197 637 188 637 C139 637 86 629 47 629 C34 629 22 633 14 647 C17 687 125 686 178 688 C209 691 243 696 271 696 C294 696 309 686 310 668 C311 628 223 549 199 497 C269 420 316 364 321 223 C325 128 273 45 215 -22 C186 -52 141 -55 96 -55 C68 -55 6 -39 5 -9 C5 13 38 9 53 9 C74 9 94 7 114 7 C164 7 217 45 232 99 C242 138 267 166 266 217 C264 262 259 330 226 368 C222 373 221 379 219 385 C203 427 181 439 134 448 C119 453 110 464 109 476 C109 497 159 550 183 578 C196 593 207 609 214 629 L214 629 Z " />
<glyph glyph-name="four" unicode="4" horiz-adv-x="486" d="M323 469 C323 456 321 447 321 438 C323 422 324 407 325 391 C326 349 323 308 313 267 C309 249 307 230 307 211 C308 198 313 185 314 173 C314 155 310 137 310 119 C312 85 327 52 328 18 C329 -1 316 -12 296 -12 C263 -12 257 51 256 86 C253 151 253 222 267 285 C273 315 276 346 275 376 C274 406 266 439 263 468 C256 473 250 474 244 474 C235 474 227 471 220 469 C157 450 117 441 52 437 C14 437 -9 449 -10 471 C-11 502 27 538 30 576 C34 616 79 706 96 706 C103 706 127 700 128 680 C128 670 123 661 119 653 C89 609 78 558 72 503 C79 502 85 499 92 499 C158 499 177 516 256 534 C279 539 281 540 281 565 C281 616 265 697 302 697 C311 697 320 694 333 682 C332 634 332 586 332 535 C351 525 366 521 381 521 C402 521 422 529 448 536 C466 521 474 508 474 497 C475 472 418 463 393 463 C375 463 364 466 323 469 L323 469 Z " />
<glyph glyph-name="five" unicode="5" horiz-adv-x="376" d="M84 704 C100 693 115 690 130 690 C151 690 174 699 189 699 C197 699 205 697 213 697 C231 697 250 701 269 701 C300 701 348 709 349 673 C349 653 336 642 318 642 C305 642 291 647 277 647 C234 647 191 635 148 635 C131 635 115 636 98 639 C86 615 67 573 68 546 C69 522 95 531 111 531 C188 531 289 446 321 372 C339 332 351 292 353 250 C354 217 357 165 347 141 C310 63 253 -39 158 -39 C124 -39 92 -23 62 9 C59 13 57 17 57 21 C56 37 81 42 97 48 C119 37 137 28 159 28 C242 28 299 156 297 220 C294 292 265 397 204 424 C191 430 180 440 168 447 C146 458 118 472 100 472 C73 472 48 445 26 445 C9 445 -2 458 -2 476 C-3 508 18 543 24 580 C29 628 46 673 84 704 L84 704 Z " />
<glyph glyph-name="six" unicode="6" horiz-adv-x="435" d="M284 722 C298 710 304 699 304 690 C305 681 299 672 286 667 C232 644 178 568 158 529 C183 533 196 536 215 536 C266 536 330 499 353 450 C370 412 398 377 405 336 C410 294 419 250 420 208 C393 165 415 111 384 72 C340 16 295 -35 207 -36 C173 -36 116 -24 94 2 C38 70 11 145 7 237 C6 266 19 295 18 324 C17 368 44 413 59 455 C85 533 138 577 168 625 C190 663 216 700 264 712 C271 714 276 718 284 722 L284 722 Z M109 429 C94 392 76 362 72 332 C68 302 63 272 64 242 C65 221 74 199 74 180 L74 174 C77 105 134 22 211 22 C329 22 364 153 361 253 C359 290 352 328 336 363 C309 419 281 478 217 478 C182 478 138 445 109 429 L109 429 Z " />
<glyph glyph-name="seven" unicode="7" horiz-adv-x="432" d="M337 660 C217 653 131 640 19 633 L16 633 C-2 633 -11 644 -11 659 C-13 698 154 698 160 699 C166 701 172 703 178 703 C190 703 202 701 213 701 C256 701 304 713 340 713 C377 713 413 698 414 675 C415 653 366 604 341 572 C336 566 333 558 327 547 C394 547 403 554 406 504 C390 495 374 493 357 493 C349 493 341 494 333 494 C321 494 309 493 297 489 C257 412 213 338 185 256 C166 201 139 134 132 80 C127 46 129 18 109 -16 C68 -12 71 -11 69 31 C68 75 80 116 94 157 C115 217 136 278 162 336 C179 372 199 406 218 442 C244 493 265 548 296 601 C306 619 319 635 337 660 L337 660 Z " />
<glyph glyph-name="eight" unicode="8" horiz-adv-x="456" d="M339 356 C370 295 407 234 409 182 C410 157 408 117 396 98 C348 41 321 -9 210 -9 C179 -9 138 -10 115 14 C70 53 13 92 11 151 C9 216 24 307 66 350 C95 379 120 408 154 438 C135 474 94 503 93 539 C92 552 91 565 90 579 C87 672 174 717 262 717 C296 717 351 682 378 651 C405 619 418 585 419 550 C421 496 391 404 339 356 L339 356 Z M192 414 C150 359 99 315 83 258 C76 232 69 196 70 170 C71 121 139 53 176 53 C188 51 200 50 212 50 C299 50 353 105 350 185 C349 211 342 236 327 260 C319 271 312 283 307 295 C287 349 235 384 192 414 L192 414 Z M312 403 C336 440 362 516 361 548 C356 604 307 652 244 652 C227 652 210 649 195 649 L188 649 C163 626 145 606 146 566 C149 491 267 430 312 403 L312 403 Z " />
<glyph glyph-name="nine" unicode="9" horiz-adv-x="345" d="M244 487 C208 447 180 415 123 415 C61 415 -3 468 -5 538 C-7 579 6 643 30 658 C66 682 102 707 148 707 C204 707 257 691 293 644 C302 634 305 623 305 613 C306 592 293 568 294 547 C295 500 315 442 317 392 C319 325 295 253 282 185 C267 115 233 82 170 20 C155 6 139 0 122 0 C111 0 69 8 69 25 C68 49 120 52 144 72 C194 113 242 189 244 261 C244 306 264 350 263 391 C262 421 253 445 244 487 L244 487 Z M162 651 C133 651 70 629 63 608 C57 587 50 565 51 543 C52 504 84 476 120 476 C178 476 220 538 240 585 C242 590 244 595 244 601 C243 632 196 651 162 651 L162 651 Z " />
<glyph glyph-name="colon" unicode="&#x3a;" horiz-adv-x="125" d="M97 37 C97 15 80 -6 60 -6 C41 -6 16 16 16 34 C15 53 34 72 53 72 C66 72 96 61 96 40 C96 39 97 38 97 37 L97 37 Z M107 368 C101 337 88 324 69 315 C42 326 23 329 23 352 C22 376 42 391 60 391 C77 391 93 376 107 368 L107 368 Z " />
<glyph glyph-name="semicolon" unicode="&#x3b;" horiz-adv-x="138" d="M11 -107 C7 -101 5 -96 5 -91 C4 -57 58 -10 57 28 C57 32 56 36 56 40 C55 58 63 77 82 77 C104 77 119 58 120 35 C120 19 110 -14 105 -35 C98 -63 60 -110 40 -110 C34 -110 26 -109 11 -107 L11 -107 Z M49 375 C59 380 76 391 87 391 C102 391 123 371 124 354 C124 336 109 320 89 320 C68 320 49 342 48 364 C48 367 48 371 49 375 L49 375 Z " />
<glyph glyph-name="less" unicode="&#x3c;" horiz-adv-x="341" d="M274 488 C285 469 290 458 290 450 C291 429 218 381 180 350 C151 326 123 302 92 276 C123 241 156 233 191 201 C230 164 295 120 295 85 C296 77 285 53 260 53 C240 53 214 82 198 102 C149 159 83 189 19 225 C4 234 -2 247 -4 259 C-5 290 94 360 141 397 C182 429 227 470 274 488 L274 488 Z " />
<glyph glyph-name="equal" unicode="&#x3d;" horiz-adv-x="400" d="M20 235 C111 247 206 247 300 247 C324 247 364 240 365 217 C366 181 316 184 286 184 C260 184 234 186 209 186 C164 186 120 182 76 182 C52 182 19 192 19 218 C18 223 19 228 20 235 L20 235 Z M262 297 C198 290 131 282 67 282 C51 282 34 289 34 305 C32 358 140 356 190 356 C252 356 368 362 369 327 C370 297 301 298 262 293 L262 297 L262 297 Z " />
<glyph glyph-name="greater" unicode="&#x3e;" horiz-adv-x="342" d="M115 39 C86 42 68 48 67 71 C66 106 162 198 218 229 C230 235 242 240 246 256 C181 319 107 358 34 407 C19 416 13 428 13 438 C12 453 24 464 47 472 C126 428 216 389 277 323 C297 301 335 287 337 256 C338 228 291 197 259 179 C200 146 157 88 115 39 L115 39 Z " />
<glyph glyph-name="question" unicode="&#x3f;" horiz-adv-x="272" d="M214 552 C208 508 211 452 177 426 C141 398 133 331 135 281 L135 270 C136 252 135 222 111 222 C85 222 68 248 67 270 C65 327 84 416 119 452 C144 474 151 517 150 551 C149 593 118 619 84 619 C72 619 62 613 49 613 C33 613 18 626 17 644 C16 675 68 677 98 677 C127 677 187 642 200 619 C212 597 212 575 214 552 L214 552 Z M147 35 C148 15 128 -4 105 -4 C86 -4 61 19 60 35 C59 55 86 76 106 76 C129 76 146 58 147 35 L147 35 Z " />
<glyph glyph-name="at" unicode="&#x40;" horiz-adv-x="596" d="M357 163 C322 133 275 95 240 95 C227 95 214 99 203 106 C152 137 132 162 130 210 C126 345 292 390 384 410 C387 411 391 411 394 411 C428 411 423 377 425 330 C426 302 419 273 420 245 C421 226 422 189 438 189 C496 189 502 324 501 351 C498 448 399 477 333 477 C281 477 200 426 166 407 C147 396 133 380 126 359 C108 307 83 256 85 197 C88 92 168 -10 311 -10 C361 -10 408 17 452 36 C456 37 459 38 463 38 C474 38 487 26 487 14 C489 -43 367 -73 301 -73 C240 -73 194 -53 132 -25 C114 -19 82 25 67 46 C33 92 19 140 17 197 C14 286 59 427 128 462 C195 495 269 544 347 544 C384 544 434 523 472 506 C532 478 564 427 567 346 C570 251 538 139 426 111 C423 110 419 110 416 110 C388 110 374 136 357 163 L357 163 Z M358 337 C293 330 187 274 189 209 C190 191 210 162 242 162 C302 162 333 252 345 280 C352 297 359 315 358 337 L358 337 Z " />
<glyph glyph-name="A" unicode="A" horiz-adv-x="414" d="M195 722 C238 709 236 647 247 605 C264 523 286 441 315 361 C328 321 328 276 349 239 C357 225 359 207 361 191 C367 128 399 77 412 17 C413 14 413 11 413 8 C414 -8 399 -29 381 -29 C374 -29 366 -25 358 -20 C355 15 340 48 329 82 C315 123 318 198 282 204 C270 206 258 207 246 207 C201 205 164 201 112 201 C83 163 80 72 71 7 C68 -15 62 -31 40 -31 C25 -31 9 -15 9 0 C12 97 73 206 76 298 C76 319 86 341 91 363 C111 455 130 542 161 628 C168 650 176 669 175 693 C175 707 182 715 195 722 L195 722 Z M196 566 C151 478 135 351 121 262 C141 262 159 261 176 261 C210 261 254 257 281 271 C269 361 227 444 209 533 C208 543 201 552 196 566 L196 566 Z " />
<glyph glyph-name="B" unicode="B" horiz-adv-x="354" d="M189 358 C290 331 333 331 338 190 C341 87 243 -3 138 -3 C119 -3 97 -16 82 -16 C58 -16 49 21 47 61 C47 77 53 93 53 109 C52 118 51 126 51 135 C46 262 53 383 49 508 C47 551 44 598 28 619 C22 627 18 633 18 638 C18 643 39 684 69 692 C81 680 95 677 111 677 C120 677 130 678 139 678 C231 678 315 606 318 519 C319 486 310 443 282 427 C249 407 226 389 189 358 L189 358 Z M99 317 C97 268 97 222 98 174 C99 145 101 117 103 88 C105 68 103 45 118 27 C145 42 170 57 197 70 C256 98 277 166 275 216 C273 268 266 288 121 317 C119 318 117 318 115 318 C110 318 105 317 99 317 L99 317 Z M88 617 C86 605 87 580 88 550 C91 483 97 392 102 375 C107 372 112 371 116 371 C142 371 172 430 214 453 C239 468 260 491 259 523 C258 567 188 623 131 623 C117 623 103 621 88 617 L88 617 Z " />
<glyph glyph-name="C" unicode="C" horiz-adv-x="369" d="M335 214 C340 202 344 198 344 184 C344 178 344 172 343 166 C324 97 281 -6 210 -6 C164 -6 114 45 76 84 C22 139 9 231 7 310 C3 412 28 485 84 569 C98 587 112 609 129 626 C158 653 195 690 226 690 C248 690 277 668 300 653 C317 641 333 612 333 592 C333 581 320 571 312 571 C300 571 252 636 227 636 C183 636 134 553 100 501 C63 438 57 383 60 298 C64 189 85 144 175 69 C188 58 199 53 208 52 C264 52 288 198 335 214 L335 214 Z " />
<glyph glyph-name="D" unicode="D" horiz-adv-x="398" d="M42 444 C45 511 42 578 43 645 C42 670 49 683 68 683 C71 683 75 683 80 682 C128 673 177 663 221 639 C266 614 318 574 337 531 C358 483 387 425 388 379 C391 308 339 217 280 161 C274 156 270 148 266 141 C242 100 176 49 134 40 C106 34 97 4 79 3 C68 3 51 16 51 28 C50 52 38 76 37 101 C35 149 45 200 43 247 C42 271 39 296 38 320 C37 360 42 403 46 444 L42 444 L42 444 Z M102 77 L108 77 C109 77 111 77 112 78 C197 155 330 262 326 381 C324 438 276 526 242 556 C199 594 154 611 97 621 C96 549 102 475 94 404 C91 368 89 332 90 296 C91 265 94 234 95 203 C97 171 94 140 95 110 C95 99 97 87 102 77 L102 77 Z " />
<glyph glyph-name="E" unicode="E" horiz-adv-x="339" d="M105 449 C90 418 92 388 89 358 C84 304 89 251 91 197 L91 173 C92 142 87 112 89 83 C89 61 99 49 116 49 C120 49 126 50 132 52 C168 65 218 69 255 69 C268 69 277 60 278 44 C279 10 235 8 206 8 C161 8 120 -9 76 -9 C51 -9 36 10 34 55 C35 130 39 205 43 279 C47 379 47 474 43 572 C43 596 42 620 41 644 C40 670 111 686 147 686 C169 686 192 683 213 683 C239 683 264 684 289 684 C313 684 321 675 321 656 C323 625 240 626 203 626 C180 626 155 631 132 631 C89 631 93 622 94 573 C95 549 97 523 98 498 C104 496 108 494 113 494 C167 496 220 507 274 507 C292 507 313 495 314 474 C315 451 287 452 268 452 L157 452 C140 452 123 451 105 449 L105 449 Z " />
<glyph glyph-name="F" unicode="F" horiz-adv-x="332" d="M96 454 C82 423 91 377 87 341 C85 318 85 295 86 272 C89 188 97 102 100 13 C101 -17 99 -48 74 -48 C47 -48 37 -23 36 -3 C38 25 45 54 44 82 C43 116 39 151 38 185 C33 311 48 454 44 588 C43 602 42 617 41 631 C40 675 96 681 139 681 C189 681 241 688 291 688 C304 688 314 673 314 659 C315 623 254 629 220 628 C180 626 141 625 102 623 C94 606 90 576 91 544 C92 528 94 513 97 498 C106 496 116 494 127 494 C181 496 237 501 291 501 C303 501 315 493 315 476 C317 440 234 443 190 443 C162 443 135 446 107 454 L96 454 L96 454 Z " />
<glyph glyph-name="G" unicode="G" horiz-adv-x="420" d="M360 286 C359 246 357 207 359 167 C359 149 367 132 368 114 C370 40 351 -6 250 -6 C174 -6 75 25 47 107 C46 110 46 114 43 117 C14 159 12 214 10 261 C9 300 14 338 26 375 C36 401 37 429 46 455 C87 571 172 696 294 697 C325 697 387 687 388 650 C388 637 379 626 364 626 C343 626 315 642 290 642 C220 642 140 547 114 490 C83 421 61 333 63 263 C65 208 87 117 132 88 C168 65 208 49 250 49 C302 49 305 59 303 120 C303 138 301 157 300 177 C299 204 307 232 306 260 C306 287 303 315 302 342 C301 362 309 379 324 379 C349 379 359 343 359 322 C359 316 361 286 360 286 L360 286 Z " />
<glyph glyph-name="H" unicode="H" horiz-adv-x="406" d="M282 460 C251 460 219 461 188 461 C162 461 135 460 109 455 C107 447 106 442 106 438 C102 320 104 206 101 90 C100 66 101 41 100 17 C101 7 102 -2 102 -12 C103 -32 86 -55 70 -55 C55 -55 34 -34 34 -17 C33 -12 34 -8 37 -2 C49 29 45 64 47 97 C51 153 55 209 53 267 C51 303 57 337 56 372 C55 412 49 453 48 493 C46 552 31 679 72 679 C90 679 96 664 97 635 C98 609 93 583 94 557 C94 538 99 528 102 505 C164 509 240 499 294 522 C298 551 308 585 307 614 C306 630 294 647 294 662 C293 674 303 685 318 685 C340 685 359 656 360 634 C362 570 348 506 348 442 C345 310 345 177 347 44 C349 13 356 -39 311 -39 C294 -39 284 -28 283 -8 C286 125 289 257 290 390 C290 400 291 410 290 421 C290 433 288 446 282 460 L282 460 Z " />
<glyph glyph-name="I" unicode="I" horiz-adv-x="161" d="M69 -23 C62 -10 55 1 47 14 C62 43 56 95 55 133 C52 206 54 276 48 348 C46 388 42 428 40 468 C35 533 40 593 46 655 C46 675 61 700 84 700 C94 700 101 690 102 678 L102 675 C88 634 93 588 88 545 C85 503 88 459 90 416 C94 304 103 195 108 85 C110 64 112 42 114 21 C117 -16 113 -20 69 -23 L69 -23 Z " />
<glyph glyph-name="J" unicode="J" horiz-adv-x="280" d="M215 702 C237 697 235 684 236 657 C238 618 229 578 231 537 C231 513 235 489 236 465 C237 425 229 389 230 352 C231 319 237 286 238 254 C240 196 232 139 222 84 C211 19 133 -41 69 -41 C41 -41 6 -22 5 1 C5 10 13 15 29 15 C34 14 39 14 44 14 C104 14 155 69 168 122 C189 209 178 304 181 392 C181 424 183 456 182 488 C182 501 180 514 180 527 C178 584 176 685 215 702 L215 702 Z " />
<glyph glyph-name="K" unicode="K" horiz-adv-x="404" d="M110 363 C185 477 255 590 364 669 C376 664 381 657 381 649 C381 637 368 614 357 602 C274 518 200 412 145 312 C212 243 269 177 330 105 C351 79 391 65 392 37 C393 19 374 5 358 5 C342 5 315 24 303 40 C245 120 179 193 104 257 C96 200 96 133 98 74 C98 61 101 48 101 35 C103 3 91 -14 75 -14 C66 -14 53 -9 39 1 C41 177 52 356 55 528 L55 534 C54 557 46 581 46 603 C44 646 48 717 79 717 C92 717 101 706 102 689 C102 663 96 637 97 611 C98 589 104 566 105 544 C105 524 100 503 101 482 C102 459 104 435 105 412 C106 400 104 387 105 375 C105 374 107 370 110 363 L110 363 Z " />
<glyph glyph-name="L" unicode="L" horiz-adv-x="314" d="M93 43 C125 48 155 52 184 52 C196 52 208 50 220 50 C240 50 261 55 283 55 C309 55 318 48 319 23 C320 -11 280 -10 243 -10 C217 -10 192 -6 167 -6 C143 -6 103 -22 73 -22 C48 -22 33 6 32 34 C32 40 33 46 35 52 C49 116 47 184 45 249 C44 269 41 288 41 307 C39 360 46 414 44 468 C44 477 43 487 43 496 C41 548 50 600 49 651 C48 657 48 663 48 669 C47 686 53 701 73 701 C93 701 97 676 97 657 C99 606 89 553 91 501 C91 492 92 483 92 473 C93 430 84 381 85 344 C87 308 92 273 93 238 C95 174 92 118 93 43 L93 43 Z " />
<glyph glyph-name="M" unicode="M" horiz-adv-x="578" d="M456 567 C440 555 432 540 425 526 C401 475 373 423 353 372 C345 352 335 336 336 313 C336 296 320 281 304 281 C278 281 260 335 238 358 C198 401 159 445 124 492 C121 497 117 501 109 508 C101 473 103 443 104 414 C105 388 106 361 107 335 C109 279 101 226 102 173 C103 144 110 115 111 85 C111 60 113 -18 85 -18 C66 -18 53 9 53 27 C51 74 52 122 51 170 C50 176 49 182 49 189 C49 192 50 196 50 199 C49 204 49 210 49 215 C49 223 48 231 50 238 C59 270 60 302 59 335 C58 354 56 374 56 393 C54 436 58 478 56 522 C55 561 20 590 19 618 C18 633 29 642 32 667 C34 684 36 705 55 705 C75 705 83 682 85 663 C94 599 95 599 142 557 C182 521 198 469 242 437 C260 424 272 402 289 385 C306 393 311 408 318 421 C357 497 394 573 443 643 C457 663 450 712 488 712 C505 712 519 678 520 659 C520 636 512 594 513 552 L516 510 C518 453 513 395 515 338 C516 291 526 241 528 191 C530 126 531 -21 492 -21 C468 -21 459 -6 458 18 C458 24 458 30 459 37 C468 88 471 140 469 193 C465 290 466 387 465 484 C464 510 464 541 456 567 L456 567 Z " />
<glyph glyph-name="N" unicode="N" horiz-adv-x="449" d="M334 413 C337 496 334 581 331 667 C330 687 334 702 352 712 C380 705 387 702 388 684 C389 646 384 608 386 569 C387 532 390 495 391 457 C393 408 386 357 388 308 C389 300 389 292 390 284 C390 258 388 232 389 206 C390 184 397 163 397 141 C398 124 395 106 395 89 C396 58 411 26 411 1 C412 -18 399 -34 379 -34 C348 -34 340 25 338 60 C338 81 341 103 340 125 C338 181 331 241 329 297 C326 317 317 333 302 347 C232 414 166 476 99 549 C92 541 90 533 90 525 C91 493 95 460 96 428 C99 369 91 309 93 249 C94 225 102 203 103 180 C103 175 103 171 104 166 C106 118 111 70 122 23 C123 19 123 15 123 10 C124 -9 115 -23 95 -23 C80 -23 64 -11 63 7 C62 40 49 73 50 107 C49 115 49 123 49 131 C48 157 46 184 45 211 C45 223 44 235 44 247 C43 262 43 278 42 293 C41 324 49 355 48 386 C44 450 34 517 32 581 C32 592 33 603 33 614 C32 631 19 652 18 664 C18 683 55 703 67 703 C81 703 95 694 96 682 C96 676 93 669 93 664 C94 637 117 621 132 603 C191 536 262 473 326 411 C329 412 332 413 334 413 L334 413 Z " />
<glyph glyph-name="O" unicode="O" horiz-adv-x="425" d="M389 497 C390 472 391 450 392 431 C394 364 387 300 378 237 C365 138 305 3 200 3 C107 3 79 111 42 170 C23 200 17 233 17 267 C15 365 30 465 56 559 C76 633 127 678 201 694 C204 694 207 695 211 695 C237 695 296 668 311 656 C366 610 379 547 389 497 L389 497 Z M72 298 L72 279 C74 204 119 125 173 73 C181 64 191 61 200 61 C263 61 316 189 320 237 C325 285 334 334 332 384 C332 391 331 399 330 406 C330 427 335 448 334 468 C333 514 307 609 258 624 C241 629 218 637 203 637 C163 637 118 590 109 545 C92 463 75 382 72 298 L72 298 Z " />
<glyph glyph-name="P" unicode="P" horiz-adv-x="365" d="M104 267 C103 197 105 129 107 59 C108 28 98 13 77 13 C54 13 48 36 47 55 C44 131 54 206 51 281 C50 315 46 349 44 384 C43 434 45 484 43 534 C41 582 34 630 32 679 C31 696 45 708 59 708 C72 708 99 689 121 687 C170 682 233 680 276 657 C320 633 350 596 352 539 C355 443 289 398 215 322 C189 296 158 279 122 275 C116 274 111 270 104 267 L104 267 Z M90 631 C91 590 98 556 100 518 C100 499 95 481 96 463 C96 460 97 458 97 455 C98 420 98 384 100 348 C100 340 101 331 112 324 C200 368 297 471 295 533 C292 615 199 632 127 632 C115 632 103 631 90 631 L90 631 Z " />
<glyph glyph-name="Q" unicode="Q" horiz-adv-x="390" d="M244 1 C245 -36 243 -74 245 -112 C245 -135 250 -158 251 -181 C251 -195 241 -214 219 -214 C185 -214 184 -176 183 -148 C182 -123 187 -101 186 -78 C186 -57 181 -35 178 -15 C113 26 54 53 30 119 C9 177 0 238 0 299 C-3 387 24 453 55 540 C64 567 83 588 100 610 C136 654 195 685 252 685 C270 685 279 677 280 661 C280 653 277 642 276 630 C307 592 326 586 336 544 C350 482 366 418 368 355 C373 209 349 78 244 1 L244 1 Z M247 84 C253 88 254 89 256 91 C308 174 319 274 316 370 C314 405 310 440 297 475 C295 479 294 485 294 489 C293 492 294 495 294 497 C293 530 247 582 222 621 C162 613 131 570 103 525 C74 478 73 421 56 369 C56 368 55 366 55 365 C55 362 56 358 56 355 C56 338 55 322 56 305 C57 267 63 228 72 190 C79 161 83 130 104 107 C126 83 152 67 179 53 C192 60 191 72 191 82 C185 140 178 199 176 258 C175 278 183 290 199 290 C231 285 236 128 247 84 L247 84 Z " />
<glyph glyph-name="R" unicode="R" horiz-adv-x="375" d="M93 271 L93 262 C94 232 87 203 88 172 C90 127 111 82 112 40 C113 21 107 -9 86 -9 C72 -9 55 2 55 16 C55 20 56 25 55 29 C55 49 46 66 41 85 C36 106 33 127 32 149 C32 163 32 178 34 192 C44 303 51 421 47 532 C46 548 42 565 41 582 C40 610 44 655 56 692 L154 692 C238 689 341 631 344 552 C348 446 291 327 197 294 C189 292 189 291 183 281 C219 198 295 119 346 55 C349 50 351 45 351 40 C352 24 341 13 328 13 C301 13 276 35 262 56 C212 134 165 214 102 275 C99 273 96 272 93 271 L93 271 Z M94 632 C95 616 94 601 95 585 C96 557 101 528 102 500 C104 449 89 400 91 351 C92 341 94 332 99 323 C126 323 145 340 167 348 C212 363 241 395 261 437 C279 474 284 511 282 551 C280 615 188 638 137 638 C122 638 107 639 94 632 L94 632 Z " />
<glyph glyph-name="S" unicode="S" horiz-adv-x="390" d="M54 137 C62 131 69 128 73 123 C107 85 177 48 208 48 C270 48 317 103 315 159 C313 219 214 317 176 331 C119 352 59 395 34 443 C22 465 4 499 3 518 C2 569 35 666 75 685 C101 698 130 704 157 704 C186 704 217 695 248 676 C281 655 304 624 336 605 C345 601 353 583 353 575 C354 560 339 549 326 549 C299 549 249 605 216 626 C193 640 169 644 144 644 C87 644 57 583 59 537 C62 450 160 410 234 362 C303 316 369 231 372 156 C375 67 323 22 232 -10 C222 -13 213 -14 204 -14 C135 -14 86 50 50 102 C46 107 44 112 43 117 C43 123 47 130 54 137 L54 137 Z " />
<glyph glyph-name="T" unicode="T" horiz-adv-x="333" d="M114 5 C114 37 116 63 115 87 C115 100 113 112 113 124 C111 196 119 269 122 341 C124 425 124 513 121 599 C120 637 79 626 58 629 C33 633 -15 633 -16 656 C-16 677 1 687 16 687 C36 687 58 680 78 680 C97 679 115 679 134 679 C171 679 209 680 246 680 C273 680 314 684 315 655 C317 621 266 630 237 629 L208 629 C181 629 174 626 173 606 C172 574 171 542 173 510 L173 487 C177 391 169 297 169 202 C169 151 172 100 172 48 C172 36 179 24 179 12 C180 -4 168 -15 152 -15 C138 -15 117 2 114 5 L114 5 Z " />
<glyph glyph-name="U" unicode="U" horiz-adv-x="417" d="M321 453 C318 483 311 533 309 583 C308 619 299 689 338 689 C353 689 363 677 364 660 C365 626 365 594 366 562 C368 510 375 459 376 407 C378 350 376 292 363 237 C342 147 359 -3 215 -3 C200 -3 134 19 109 36 C39 83 38 171 35 257 C33 297 37 335 36 375 C35 393 33 411 33 429 C30 506 35 583 41 658 C42 678 49 704 67 704 C82 704 93 695 94 683 C94 672 95 657 92 647 C82 611 85 574 85 537 C85 460 84 383 84 307 C86 255 96 204 102 153 C110 85 167 58 236 55 C300 55 319 275 320 311 C320 351 320 392 321 453 L321 453 Z " />
<glyph glyph-name="V" unicode="V" horiz-adv-x="362" d="M146 -2 C119 55 108 113 97 171 C86 227 77 283 67 338 C63 359 61 381 54 402 C27 473 9 547 -4 622 C-5 627 -6 633 -6 639 C-7 668 -5 689 24 689 C47 689 49 666 50 641 C52 594 62 545 78 500 C118 393 136 276 159 166 C161 157 165 149 172 132 C203 246 207 345 237 452 C251 519 260 706 310 706 C326 706 340 694 341 678 C342 642 317 615 318 584 L318 579 C318 576 319 572 317 569 C295 520 290 466 280 413 C270 358 258 303 254 248 C251 202 236 159 230 115 C222 68 203 -7 171 -7 C164 -7 156 -5 146 -2 L146 -2 Z " />
<glyph glyph-name="W" unicode="W" horiz-adv-x="598" d="M270 315 C262 303 255 298 254 292 C243 219 242 136 220 71 C206 27 210 -34 161 -34 C131 -34 121 37 120 71 C120 83 114 97 112 110 C94 193 78 277 56 360 C46 400 46 441 37 481 C23 540 6 601 3 661 C3 677 15 690 33 690 C65 690 70 592 82 533 C102 407 126 288 169 161 C169 159 172 158 176 156 C191 193 194 237 200 277 C201 283 200 289 203 294 C226 348 225 413 226 470 C227 497 235 508 265 508 C286 508 320 366 340 309 C358 256 378 205 398 151 C412 159 414 172 415 183 C423 248 440 311 442 377 C445 425 461 476 469 524 C482 576 502 636 507 687 C506 705 516 731 535 731 C546 731 561 715 561 698 C561 652 554 610 541 568 C504 440 498 306 473 175 C470 157 470 139 470 121 C471 99 474 77 475 56 C475 35 458 15 459 -10 C459 -23 447 -29 433 -29 C379 -29 357 78 338 131 C317 190 299 251 270 315 L270 315 Z " />
<glyph glyph-name="X" unicode="X" horiz-adv-x="374" d="M170 229 C161 186 139 154 124 118 C110 80 104 -10 72 -9 C49 -9 34 9 34 24 C34 29 33 33 35 38 C51 102 85 160 109 221 C126 265 149 320 148 358 C148 369 145 380 141 392 C110 470 89 560 50 633 C45 644 43 656 42 668 C42 683 48 708 65 708 C82 708 109 652 120 627 C142 575 155 525 181 466 C202 479 206 500 215 517 C241 570 261 628 283 684 C287 696 300 703 309 703 C323 703 334 686 334 672 C331 632 314 605 298 577 C266 517 243 454 220 391 C215 379 215 366 215 354 C217 306 236 252 250 204 C265 154 282 105 312 62 C321 50 329 37 330 22 C330 5 323 -4 306 -4 C280 -4 234 49 231 63 C216 109 200 156 185 203 C182 211 182 221 170 229 L170 229 Z " />
<glyph glyph-name="Y" unicode="Y" horiz-adv-x="433" d="M402 687 C408 675 411 664 412 653 C413 619 389 562 378 520 C342 373 312 225 289 84 C282 23 264 -36 252 -97 C242 -148 242 -247 200 -247 C184 -247 163 -232 163 -214 C163 -211 164 -208 165 -204 C173 -167 179 -129 191 -93 C201 -58 201 -20 210 16 L210 18 C210 22 208 26 207 29 C183 93 176 155 150 222 C97 356 54 494 -1 626 C-7 638 -13 653 -14 664 C-14 678 -3 693 16 693 C48 693 93 540 99 522 C108 495 118 467 128 440 C159 350 196 265 231 174 C232 171 236 168 240 163 C244 168 247 172 248 177 C262 240 275 304 288 368 C310 464 335 559 355 658 C360 680 368 688 388 688 C392 688 397 688 402 687 L402 687 Z " />
<glyph glyph-name="Z" unicode="Z" horiz-adv-x="435" d="M79 61 C82 59 91 59 99 59 C124 59 127 62 143 62 C158 62 175 61 190 61 C238 61 303 67 360 70 C386 70 403 65 404 47 C405 22 369 5 348 5 C338 5 326 7 315 7 C292 7 267 4 254 4 C240 4 210 9 191 9 C152 9 95 3 47 -4 C44 -4 41 -5 39 -5 C27 -5 12 2 12 24 C11 34 16 45 23 52 C44 73 30 72 41 108 C53 151 72 179 87 219 C131 308 172 403 221 488 C224 492 229 496 230 500 C232 542 265 578 282 614 C270 620 253 621 236 621 C173 621 126 620 65 620 C48 620 33 633 33 650 C32 667 58 674 75 676 C118 676 161 674 204 674 C261 674 315 680 372 687 C376 687 380 688 383 688 C400 688 411 678 411 661 C412 651 408 641 399 635 C316 573 282 489 232 395 C225 384 218 373 214 361 C196 314 168 273 146 229 C123 181 107 112 79 61 L79 61 Z " />
<glyph glyph-name="bracketleft" unicode="&#x5b;" horiz-adv-x="255" d="M221 644 C198 625 165 623 134 623 L107 623 L93 623 C94 607 97 593 97 580 C98 552 92 524 92 496 C91 458 92 419 93 383 C95 337 102 291 104 245 C106 192 102 139 104 87 C105 66 116 56 133 56 C156 56 178 65 200 65 C228 65 259 51 260 22 C260 2 251 -5 231 -5 C215 -5 197 -1 180 -1 C155 -1 130 -4 107 -13 C100 -16 92 -17 84 -17 C54 -17 48 7 47 35 C45 99 53 163 50 228 C47 320 38 412 35 502 C34 521 37 540 37 559 C36 588 21 617 20 643 C19 668 30 678 57 680 C87 681 116 685 146 685 C164 685 182 683 200 681 C216 678 219 671 221 644 L221 644 Z " />
<glyph glyph-name="backslash" unicode="&#x5c;" horiz-adv-x="339" d="M16 673 C43 673 72 606 88 572 C103 540 116 507 138 479 C147 469 152 456 157 444 C178 389 201 337 229 285 C232 279 236 272 237 265 C241 233 258 206 270 178 C286 142 301 107 320 73 C328 56 343 36 344 17 C344 -2 329 -17 310 -17 C272 -17 235 101 210 159 C192 200 176 242 159 283 C151 304 147 327 133 346 C115 370 112 401 97 425 C67 473 44 527 17 576 C5 598 -15 621 -16 645 C-17 661 -5 671 16 673 L16 673 Z " />
<glyph glyph-name="bracketright" unicode="&#x5d;" horiz-adv-x="267" d="M153 625 C112 623 78 619 42 619 C22 619 12 629 12 651 C11 679 45 681 70 681 C78 681 88 680 96 680 C116 680 136 693 154 693 C215 693 217 617 219 568 C220 536 217 504 211 472 C195 388 223 299 202 216 C201 213 200 210 200 206 C202 152 218 93 220 41 C221 11 215 -14 185 -14 C150 -14 114 6 77 6 L68 6 L52 6 C46 6 39 5 33 5 C19 5 5 15 4 33 C3 55 57 68 90 68 C102 68 116 66 126 66 C147 66 152 77 151 107 C150 135 146 161 145 188 C143 242 154 299 152 352 C149 432 163 513 160 593 C159 603 155 612 153 625 L153 625 Z " />
<glyph glyph-name="asciicircum" unicode="&#x5e;" horiz-adv-x="301" d="M154 627 C131 621 120 606 110 592 C90 566 46 526 23 525 C11 525 0 538 0 554 C0 587 56 618 83 654 C100 675 118 695 144 709 C173 695 198 675 218 651 C232 632 246 615 269 606 C281 601 288 590 288 575 C289 559 277 546 262 546 C219 546 179 601 154 627 L154 627 Z " />
<glyph glyph-name="underscore" unicode="&#x5f;" horiz-adv-x="717" d="M147 -166 C176 -166 204 -167 233 -167 C256 -167 280 -166 303 -166 C350 -166 396 -177 441 -177 C465 -177 489 -174 512 -174 C570 -174 688 -174 689 -216 C690 -233 677 -244 655 -244 C584 -240 514 -236 443 -236 L433 -236 C376 -236 318 -222 259 -222 C198 -222 131 -237 67 -237 C46 -237 37 -226 36 -205 C35 -163 91 -173 115 -171 C121 -171 147 -172 147 -166 L147 -166 Z " />
<glyph glyph-name="grave" unicode="&#x60;" horiz-adv-x="185" d="M160 519 C88 519 53 627 3 668 C-11 681 -13 694 -13 709 C-14 724 -1 735 12 735 C36 735 68 693 84 670 C110 630 175 576 176 553 C176 545 171 536 160 519 L160 519 Z " />
<glyph glyph-name="a" unicode="a" horiz-adv-x="393" d="M36 322 C35 359 47 387 83 419 C108 441 133 467 167 478 C197 487 225 513 258 513 C308 513 338 467 341 388 C342 365 341 343 342 321 C342 310 345 299 346 288 C346 271 340 254 340 237 C342 191 345 145 346 99 C348 44 359 -18 318 -18 C296 -15 294 -5 293 25 C291 64 293 90 291 140 C242 72 181 -29 99 -29 C52 -29 12 10 11 56 C8 132 61 218 116 265 C157 300 206 326 263 326 C265 326 267 325 270 325 C276 325 282 326 289 327 L289 407 C288 426 277 444 261 458 C166 436 130 387 64 324 C61 321 59 319 55 319 C52 319 46 320 36 322 L36 322 Z M290 260 C276 272 261 275 248 275 C170 275 92 170 80 125 C74 102 70 79 71 55 C72 33 89 27 102 27 C148 27 199 99 232 149 C253 183 278 222 290 260 L290 260 Z " />
<glyph glyph-name="b" unicode="b" horiz-adv-x="354" d="M48 -34 C42 -20 41 -7 40 6 C39 47 46 88 45 128 C44 161 37 199 36 233 C35 281 54 330 52 379 C51 398 45 417 44 436 C44 447 46 457 46 468 C45 504 42 540 41 575 C39 632 31 710 71 710 C87 710 94 695 94 685 C96 636 86 588 88 539 C88 529 89 492 98 492 C127 492 149 517 182 517 C271 517 345 413 348 322 C349 302 340 284 338 264 C319 130 213 30 100 -32 C90 -38 83 -41 76 -41 C69 -41 62 -39 48 -34 L48 -34 Z M92 38 C97 35 102 34 106 34 C141 34 205 105 232 142 C268 190 299 255 297 311 C295 371 266 400 238 440 C229 455 183 464 180 464 C168 464 156 459 133 448 C106 430 96 435 97 402 C99 360 94 319 87 278 C79 202 89 117 92 38 L92 38 Z " />
<glyph glyph-name="c" unicode="c" horiz-adv-x="351" d="M63 195 C74 132 103 27 184 27 C234 27 272 69 313 95 C313 96 314 96 316 96 C323 96 330 91 330 83 C331 59 305 31 289 17 C261 -8 219 -28 182 -28 C135 -28 73 20 62 40 C34 93 13 143 11 200 C7 317 87 483 163 504 C189 511 221 524 249 524 C280 524 321 495 321 469 C322 456 312 448 302 448 C279 448 262 477 239 477 C130 477 58 313 62 204 C62 201 63 198 63 195 L63 195 Z " />
<glyph glyph-name="d" unicode="d" horiz-adv-x="442" d="M325 199 C317 177 307 156 299 133 C261 19 187 -33 116 -33 C83 -33 43 -27 32 10 C25 29 21 60 16 69 C6 84 3 100 2 116 C-1 224 41 348 107 419 C135 449 155 490 197 506 C229 518 263 527 298 527 C304 527 311 526 317 526 C324 548 332 568 331 591 C331 600 329 611 328 621 C327 648 329 674 353 674 C389 674 384 622 386 589 C387 546 380 504 382 463 C382 455 384 446 384 438 C384 421 384 404 385 386 C385 366 387 345 388 325 C390 250 381 176 384 101 C385 69 391 38 392 5 C393 -17 383 -27 364 -27 C338 -27 327 -11 326 17 C330 61 336 105 335 149 C334 163 336 199 325 199 L325 199 Z M315 469 C296 477 289 481 281 481 C230 481 170 419 132 372 C85 315 65 244 53 155 C52 149 52 143 52 138 C53 103 69 69 81 37 C86 23 102 16 117 16 C144 16 185 35 199 63 C204 75 210 87 218 97 C291 195 315 356 315 469 L315 469 Z " />
<glyph glyph-name="e" unicode="e" horiz-adv-x="373" d="M277 69 C278 63 280 57 280 51 C281 10 211 -11 180 -11 C155 -11 146 -2 120 11 C31 43 37 139 21 221 C19 235 17 248 17 262 C13 362 85 508 204 508 C245 508 280 468 309 438 C319 427 323 391 332 367 C342 341 360 302 361 279 C362 257 343 257 313 257 C262 257 214 265 164 265 C131 265 74 269 75 241 C77 207 86 170 91 136 C98 89 130 64 170 44 C173 43 177 42 180 42 C207 42 248 74 263 74 C267 74 272 73 277 69 L277 69 Z M79 314 C88 314 95 313 102 313 C123 313 145 317 166 317 C204 317 240 309 278 306 C285 306 291 310 297 312 C289 336 278 357 275 379 C267 415 226 459 195 459 C148 459 122 412 104 381 C92 363 79 344 79 314 L79 314 Z " />
<glyph glyph-name="f" unicode="f" horiz-adv-x="307" d="M85 491 C138 491 187 494 239 497 C269 497 291 495 292 470 C292 457 283 451 268 450 C216 446 163 443 111 439 C84 437 76 429 76 403 C74 333 75 261 78 190 C80 138 90 85 92 32 C93 8 90 -14 68 -14 C45 -14 32 9 31 26 C30 70 36 114 35 156 C34 184 28 212 27 240 C25 289 28 338 26 387 C26 391 26 394 25 398 C20 548 66 684 259 689 C277 689 289 679 289 663 C290 645 276 640 258 640 L248 640 C163 640 97 581 85 491 L85 491 Z " />
<glyph glyph-name="g" unicode="g" horiz-adv-x="335" d="M187 535 C212 529 234 522 239 495 C295 473 318 462 320 410 C323 324 276 236 218 203 C202 194 193 177 194 159 C195 125 257 84 287 44 C301 25 307 4 308 -17 C311 -113 211 -233 124 -233 C73 -233 22 -198 20 -131 C19 -105 16 -77 26 -50 C43 -2 72 40 105 79 C108 84 112 88 118 91 C144 100 141 127 140 151 C139 171 142 199 119 204 C86 211 43 254 39 269 C30 300 19 335 18 367 C16 424 55 465 104 501 C122 514 125 540 124 564 C123 578 118 593 117 608 C116 634 121 682 143 682 C184 682 177 597 187 535 L187 535 Z M181 471 C129 471 69 412 71 360 C73 308 111 251 165 251 C235 251 263 348 261 410 C260 445 209 467 181 471 L181 471 Z M198 68 C151 52 130 38 103 -9 C84 -42 71 -71 72 -109 C74 -152 92 -177 123 -177 C174 -177 244 -97 244 -53 L244 -39 C242 0 233 38 198 68 L198 68 Z " />
<glyph glyph-name="h" unicode="h" horiz-adv-x="376" d="M102 368 C153 429 209 516 262 516 C306 516 330 485 331 431 C333 386 320 343 321 300 C322 263 331 226 332 190 C333 163 329 135 330 108 C331 75 342 42 343 9 C344 -9 332 -28 309 -28 C274 -28 276 40 275 80 C274 105 279 130 278 155 C277 180 273 206 272 232 C272 244 273 257 274 270 C272 279 270 288 270 296 C269 341 282 383 281 428 C280 449 277 462 264 462 C236 462 202 414 182 394 C165 377 152 358 145 334 C142 323 137 311 128 304 C92 269 92 224 93 176 C95 130 101 84 104 38 C105 6 104 -20 72 -20 C57 -20 44 -5 43 16 C42 38 46 60 46 82 C44 117 40 152 39 187 C37 251 47 315 44 379 C43 420 32 465 31 504 C29 550 40 595 38 641 C38 655 37 668 37 682 C36 701 43 716 63 716 C87 716 93 675 94 651 C94 636 93 621 90 607 C84 569 80 529 81 489 C83 451 89 404 102 368 L102 368 Z " />
<glyph glyph-name="i" unicode="i" horiz-adv-x="161" d="M53 325 C50 359 46 394 43 428 C42 455 36 511 68 511 C78 511 89 502 89 492 L89 470 C90 427 102 384 103 340 C105 303 97 265 98 228 C99 198 107 168 108 139 C111 73 121 -19 79 -19 C59 -19 49 -6 49 8 C47 50 59 94 57 135 C57 155 50 176 49 196 C48 231 54 266 53 301 C52 309 52 316 52 324 C52 325 53 325 53 325 L53 325 Z M55 672 C71 672 80 662 81 644 C81 629 67 620 52 620 C37 620 26 636 26 647 C25 663 37 672 55 672 L55 672 Z " />
<glyph glyph-name="j" unicode="j" horiz-adv-x="188" d="M63 51 C59 70 57 90 57 109 C55 153 60 196 66 239 C67 244 69 249 69 254 L57 440 C56 454 49 468 49 481 C48 501 61 515 81 515 C113 515 110 449 111 415 C112 389 106 364 107 338 C108 311 116 282 117 255 C117 249 117 244 116 239 C109 201 104 163 105 124 C106 106 109 88 110 71 C110 66 110 62 111 57 C111 32 113 7 114 -17 C115 -49 112 -80 113 -111 C114 -133 122 -155 123 -177 C124 -202 111 -212 90 -212 C70 -212 65 -197 65 -174 C64 -142 67 -110 66 -77 C66 -60 63 -43 62 -26 C62 0 63 31 63 51 L63 51 Z M31 643 C36 662 45 676 66 676 C81 676 97 662 98 643 C99 622 68 619 66 619 C51 619 41 629 31 643 L31 643 Z " />
<glyph glyph-name="k" unicode="k" horiz-adv-x="352" d="M91 280 C139 310 173 354 209 393 C239 425 299 512 316 512 C331 512 340 489 341 479 C342 438 260 385 244 358 C217 314 132 246 133 221 C133 204 165 176 186 155 C226 114 269 72 320 45 C347 30 353 9 355 -17 C340 -26 332 -30 323 -30 C270 -30 135 138 105 143 C96 138 95 130 95 121 C96 94 102 67 103 40 C104 10 97 -16 73 -16 C52 -16 43 -7 42 14 C40 59 47 104 44 146 C42 199 36 251 34 304 C33 337 45 370 42 403 C40 413 39 424 38 434 C37 473 47 511 45 550 C44 591 37 634 36 675 C35 693 44 713 62 713 C87 713 90 691 91 670 C92 646 90 623 91 599 C91 585 94 570 94 556 C96 511 87 468 89 423 C90 385 86 347 86 309 C86 300 88 291 91 280 L91 280 Z " />
<glyph glyph-name="l" unicode="l" horiz-adv-x="183" d="M59 -13 C49 5 47 22 46 39 C44 110 63 187 60 260 C60 283 58 306 57 329 C55 382 58 435 56 487 C54 549 50 613 46 675 C45 691 55 710 72 710 C110 710 104 638 106 599 C107 565 101 531 102 497 C103 483 108 468 109 453 C110 407 103 359 105 313 C105 296 108 279 108 262 C111 198 104 135 101 72 C102 51 115 31 116 11 C117 -10 106 -21 88 -21 C78 -21 69 -17 59 -13 L59 -13 Z " />
<glyph glyph-name="m" unicode="m" horiz-adv-x="641" d="M112 335 C146 372 180 409 212 447 C231 468 274 492 295 492 C342 492 360 372 366 339 C406 370 445 421 468 457 C482 480 524 500 543 500 C579 500 590 412 592 365 C593 334 586 303 587 273 C590 183 601 95 604 6 C604 -11 593 -19 582 -27 C549 -18 542 -15 542 7 C541 33 545 60 544 86 C543 106 537 125 536 145 C535 161 540 179 540 194 C541 242 542 290 540 338 C539 371 538 402 522 432 C475 408 440 340 402 295 C371 259 356 219 358 172 C360 117 361 61 373 4 C368 -16 352 -27 341 -27 C325 -27 302 -12 302 8 C302 10 301 12 302 14 C307 42 308 70 307 98 C307 124 304 150 303 176 C301 225 304 278 311 328 C312 332 312 337 312 342 C311 358 294 429 280 429 C223 429 139 280 124 262 C103 238 96 214 97 183 C99 136 105 88 106 40 C108 7 86 5 67 -3 C41 6 47 32 46 54 C45 86 43 118 42 150 C40 200 55 262 53 309 C53 318 52 328 52 338 C51 360 51 383 51 405 C50 435 40 465 39 494 C38 509 45 527 63 527 C104 527 99 438 100 391 C101 373 98 340 112 335 L112 335 Z " />
<glyph glyph-name="n" unicode="n" horiz-adv-x="387" d="M277 451 C258 448 250 441 242 432 C208 396 171 363 142 322 C123 293 87 268 89 234 C91 177 98 122 100 66 C102 35 103 3 104 -30 C95 -34 84 -39 76 -42 C41 -25 46 17 45 48 C40 194 53 340 52 484 C51 499 50 529 80 529 C103 529 106 477 107 450 C108 428 102 399 100 374 C104 372 107 372 111 372 C133 372 203 466 238 504 C249 516 266 523 281 523 C308 523 331 490 332 437 C333 426 332 414 331 403 C322 351 321 299 323 246 C324 211 328 176 329 140 C330 102 327 64 326 24 C327 -14 320 -28 301 -28 C282 -28 267 -13 266 8 C272 78 278 151 276 224 C275 241 273 260 272 277 C270 336 279 391 277 451 L277 451 Z " />
<glyph glyph-name="o" unicode="o" horiz-adv-x="402" d="M374 238 C376 228 377 219 377 210 C380 147 352 101 317 58 C272 3 233 -13 173 -13 C106 -13 31 55 29 120 C28 125 28 129 28 134 C27 162 20 188 19 216 C18 240 22 263 31 286 C32 289 34 292 33 296 C42 468 189 502 195 502 C216 502 232 483 253 481 C332 473 371 329 374 238 L374 238 Z M68 201 C78 140 97 36 175 36 C292 36 329 157 326 246 C325 285 320 337 294 366 C280 381 268 395 263 415 C257 440 224 447 203 447 C119 447 65 287 68 201 L68 201 Z " />
<glyph glyph-name="p" unicode="p" horiz-adv-x="373" d="M107 397 C120 414 133 442 150 452 C183 472 232 506 270 506 C344 506 361 396 363 344 C366 251 293 117 222 69 C198 52 170 43 140 43 C129 43 116 46 107 46 C106 44 104 43 104 42 C105 -7 96 -56 98 -106 C99 -139 112 -172 113 -206 C114 -235 107 -250 86 -250 C50 -250 45 -204 44 -167 C42 -126 49 -93 52 -52 C58 84 44 223 52 359 C54 394 53 429 52 463 C51 473 44 484 44 495 C43 509 54 521 72 521 C91 521 96 507 97 484 C98 463 95 441 96 420 C96 412 98 404 107 397 L107 397 Z M103 87 C142 91 177 99 201 131 C242 187 283 203 293 268 C297 297 312 320 311 348 C309 392 294 446 264 446 C231 446 177 410 165 392 C123 326 114 239 101 165 C99 150 95 134 96 118 C96 108 98 98 103 87 L103 87 Z " />
<glyph glyph-name="q" unicode="q" horiz-adv-x="390" d="M275 138 C252 134 244 117 232 108 C188 74 149 28 98 28 C63 28 3 43 1 80 C0 105 -2 131 -2 156 C-5 243 31 340 88 397 C142 451 143 451 217 479 C244 489 280 489 297 513 C302 519 308 523 315 523 C332 523 341 507 342 493 C338 376 341 259 332 143 C330 117 330 92 331 66 L331 50 C332 27 328 4 329 -19 C330 -49 335 -79 336 -109 C337 -130 330 -151 331 -171 C331 -177 331 -183 333 -189 C334 -217 321 -234 302 -234 C276 -234 270 -220 269 -187 C268 -179 269 -171 272 -164 C280 -142 281 -119 280 -96 C280 -83 279 -70 279 -56 C277 -11 279 35 277 80 C278 98 275 117 275 138 L275 138 Z M272 439 C188 435 145 383 108 338 C71 292 47 239 46 177 C48 115 54 86 94 86 C182 86 265 192 269 278 C272 332 274 383 272 439 L272 439 Z " />
<glyph glyph-name="r" unicode="r" horiz-adv-x="287" d="M94 371 C110 396 131 421 146 448 C175 497 246 531 289 531 C316 531 335 523 336 502 C336 486 321 473 302 473 C209 470 169 391 126 316 C115 297 118 269 113 247 C106 223 95 202 96 176 C96 168 99 160 99 152 C100 130 95 108 96 86 C97 68 106 48 107 34 C108 11 91 -1 82 -1 C46 -1 41 10 39 48 C38 86 46 125 44 164 C44 179 39 193 39 208 C36 277 39 346 39 415 C37 451 41 514 72 514 C88 514 94 505 95 490 C96 453 88 414 89 376 C89 375 91 373 94 371 L94 371 Z " />
<glyph glyph-name="s" unicode="s" horiz-adv-x="344" d="M34 91 C40 88 49 87 54 82 C87 51 147 33 187 33 C221 33 255 95 254 121 C252 159 162 218 118 256 C82 287 37 309 31 339 C25 364 22 388 21 413 C19 490 145 526 188 526 C224 526 268 513 288 480 C297 465 313 446 314 435 C314 422 304 408 293 408 C280 408 264 428 253 439 C233 458 215 468 192 468 C159 468 72 437 73 385 C75 351 111 330 141 307 C142 307 143 306 144 306 C189 268 234 232 278 194 C298 177 313 139 314 117 C315 95 298 65 283 42 C262 7 237 -21 189 -21 C129 -21 23 10 21 55 C21 64 25 75 34 91 L34 91 Z " />
<glyph glyph-name="t" unicode="t" horiz-adv-x="263" d="M280 466 C271 454 260 448 246 448 C218 448 198 453 180 453 C161 453 91 449 91 413 C88 349 86 283 88 216 C90 179 95 142 96 105 C98 65 104 10 93 -25 C85 -29 74 -35 63 -35 C46 -35 38 -25 36 -6 C36 -1 36 4 37 8 C46 52 46 106 45 151 C39 170 37 188 37 207 C36 240 39 274 38 307 C38 318 35 329 35 340 C34 372 41 405 40 435 C39 443 34 450 34 458 C34 463 37 470 38 475 C44 495 47 514 46 535 C46 546 44 558 44 570 C43 605 33 662 75 662 C89 662 101 655 102 639 C102 623 97 606 97 590 C98 581 99 572 99 563 C100 551 98 538 99 526 C99 517 101 508 110 500 C155 503 153 507 185 507 C198 507 213 506 232 505 C240 505 246 506 250 506 C262 506 279 500 280 471 L280 466 L280 466 Z " />
<glyph glyph-name="u" unicode="u" horiz-adv-x="454" d="M340 234 C314 200 305 158 277 122 C232 68 187 -9 118 -9 C69 -9 44 20 42 91 C41 94 41 97 41 100 C41 112 36 124 36 136 C34 180 47 224 45 268 C43 334 43 398 45 465 C48 486 59 497 80 498 C91 492 95 484 95 474 L95 464 C88 436 86 408 87 379 C88 346 94 312 95 279 C96 243 91 206 92 170 C93 131 90 77 112 49 C161 49 204 109 238 150 C277 199 298 259 321 316 C333 345 337 376 335 409 C334 450 355 498 376 498 C400 498 403 474 404 453 C404 446 403 439 403 432 C397 391 395 351 396 310 C397 276 403 245 404 211 C405 184 393 155 394 132 C395 104 397 65 409 37 C412 32 412 28 412 23 C413 6 399 -3 382 -3 C345 -3 339 62 337 98 C336 134 350 167 349 206 C348 215 350 234 340 234 L340 234 Z " />
<glyph glyph-name="v" unicode="v" horiz-adv-x="360" d="M177 115 C199 149 208 174 222 206 C228 263 266 311 270 369 C275 412 275 502 311 502 C313 502 341 498 342 478 C343 448 319 427 320 397 C321 359 306 325 294 290 C277 243 258 196 240 148 C239 144 239 139 238 134 C230 79 223 30 211 -28 C200 -29 193 -30 185 -30 C169 -30 156 -21 151 -5 C115 95 73 189 55 294 C47 347 22 397 2 448 C-1 459 -6 471 -6 484 C-7 497 1 503 13 503 C51 503 92 374 102 312 C112 247 138 166 177 115 L177 115 Z " />
<glyph glyph-name="w" unicode="w" horiz-adv-x="626" d="M190 80 C215 117 220 160 230 196 C241 240 254 345 289 345 C322 345 353 242 376 190 C392 153 412 124 436 86 C440 93 445 98 446 104 C465 181 481 260 501 340 C514 394 532 517 567 516 C585 516 597 506 597 492 C598 489 597 486 596 483 C574 405 542 327 533 247 C530 222 522 199 515 175 C497 121 496 -25 454 -25 C407 -25 329 153 323 169 C315 187 309 205 292 220 C242 148 250 53 206 -27 C199 -38 188 -43 176 -43 C124 -43 124 74 108 134 C99 169 73 199 64 240 C56 277 55 314 44 350 C33 390 33 433 11 471 C9 475 8 479 8 483 C7 497 21 508 39 508 C90 508 94 349 108 291 C125 220 155 152 178 91 C180 88 184 86 190 80 L190 80 Z " />
<glyph glyph-name="x" unicode="x" horiz-adv-x="342" d="M160 327 C202 386 207 457 259 511 C267 519 275 523 282 523 C294 523 301 512 301 498 C302 479 277 452 264 431 C238 390 222 333 200 287 C196 279 194 272 195 265 C195 258 197 250 203 243 C247 185 265 112 312 51 C317 43 324 34 324 23 C325 8 311 0 283 -6 C248 15 237 74 209 116 C194 137 186 163 169 183 C134 146 103 63 96 5 C93 -16 81 -26 64 -26 C44 -26 36 -12 35 12 C35 37 61 102 71 115 C96 150 131 220 130 250 C128 323 10 439 7 460 C6 463 6 467 5 470 C5 480 10 496 26 496 C40 496 92 432 117 400 C134 377 143 351 160 327 L160 327 Z " />
<glyph glyph-name="y" unicode="y" horiz-adv-x="349" d="M162 131 C239 238 239 311 279 479 C282 497 289 521 308 521 C329 521 333 511 334 481 C335 449 322 400 311 367 C287 295 285 224 246 155 C207 88 202 9 183 -67 C169 -124 149 -243 109 -244 C93 -244 80 -230 79 -211 C79 -208 79 -205 80 -202 C95 -147 109 -92 125 -38 C128 -29 130 -21 129 -13 C129 -6 128 1 125 9 C113 37 110 67 104 97 C81 208 54 318 25 427 C18 451 5 474 4 502 C4 514 14 522 29 522 C74 522 108 325 123 263 C133 221 141 149 162 131 L162 131 Z " />
<glyph glyph-name="z" unicode="z" horiz-adv-x="411" d="M107 35 C110 34 114 33 117 33 C135 33 152 43 172 43 C182 43 192 42 202 42 C227 42 251 51 272 51 C296 51 320 32 336 32 C349 32 361 46 374 46 C389 46 408 33 408 19 C409 -6 371 -26 342 -26 C314 -26 289 2 259 2 C241 2 226 -8 202 -8 C153 -8 105 -26 53 -35 C49 -36 46 -37 42 -37 C25 -37 13 -27 12 -14 C12 0 27 18 35 32 C50 59 65 85 81 111 C89 126 102 139 103 159 C104 165 107 173 112 178 C173 254 203 353 256 436 C261 446 269 455 268 468 C264 469 260 470 258 470 L257 470 C199 449 136 458 77 443 L73 443 C59 443 43 453 43 465 C42 493 92 508 124 508 C137 508 159 504 172 504 C205 504 248 523 291 525 C315 525 359 513 360 488 C360 484 359 480 359 476 C315 439 284 392 258 343 C223 278 190 213 158 147 C144 119 133 89 110 65 C107 62 103 51 103 45 C103 42 105 38 107 35 L107 35 Z " />
<glyph glyph-name="braceleft" unicode="&#x7b;" horiz-adv-x="282" d="M91 347 C117 330 130 323 131 298 C133 245 156 196 158 144 C159 113 155 82 157 50 C158 2 268 15 269 -15 C270 -36 236 -47 202 -47 C129 -47 96 10 94 53 C94 75 100 104 99 130 C97 176 82 217 74 261 C64 300 -4 280 -6 333 C-8 385 93 404 91 467 C90 497 75 536 73 570 C70 655 124 700 200 714 C206 715 212 716 217 716 C243 716 257 705 257 684 C258 658 222 652 194 646 C151 636 129 608 130 572 C131 546 147 515 148 485 C148 483 149 480 149 478 C149 460 155 440 155 426 C157 388 112 369 91 347 L91 347 Z " />
<glyph glyph-name="bar" unicode="&#x7c;" horiz-adv-x="122" d="M23 709 C36 712 47 716 59 716 C78 716 87 704 88 683 C91 589 86 498 89 409 C92 307 77 206 80 104 C81 78 83 52 84 26 C85 2 84 -22 85 -46 C86 -82 91 -117 92 -154 C93 -178 79 -196 56 -196 C35 -196 23 -176 22 -148 C21 -117 27 -87 26 -59 C25 -34 21 -8 20 17 C19 54 23 91 22 129 C21 141 20 152 19 164 C17 227 33 298 32 367 C32 383 28 399 28 416 C26 451 33 485 32 520 C30 575 22 631 20 687 C20 694 22 701 23 709 L23 709 Z " />
<glyph glyph-name="braceright" unicode="&#x7d;" horiz-adv-x="269" d="M173 412 C206 395 260 379 261 351 C262 307 177 297 178 264 C179 241 195 208 197 180 C199 154 204 128 205 102 C206 72 193 47 186 17 C176 -21 141 -58 102 -58 C67 -58 8 -43 7 -21 C6 7 62 2 99 6 C108 22 123 34 130 54 C138 75 140 96 139 117 C138 153 134 203 118 244 C114 252 112 261 112 269 C111 299 131 316 157 348 C128 365 109 380 108 409 C108 418 110 428 110 438 C109 452 109 465 108 479 C107 518 116 556 114 595 C114 621 90 650 63 656 C45 660 8 658 7 689 C7 701 16 712 30 712 C78 712 124 710 146 664 C157 641 168 617 168 591 C167 551 166 510 168 470 C168 452 171 434 173 412 L173 412 Z " />
<glyph glyph-name="asciitilde" unicode="&#x7e;" horiz-adv-x="479" d="M341 207 C321 213 298 216 276 225 C236 242 179 283 153 283 C136 283 88 258 79 227 C76 216 63 205 51 205 C35 205 27 218 26 237 C25 263 70 312 76 312 C78 312 80 311 82 311 C112 311 123 342 158 342 C221 342 297 264 349 264 C382 264 419 294 446 294 C457 294 469 290 470 274 C470 262 449 242 435 234 C407 217 374 215 341 207 L341 207 Z " />
<glyph glyph-name="sterling" unicode="&#xa3;" horiz-adv-x="570" d="M153 187 C171 215 174 226 172 282 C146 282 99 280 98 311 C97 338 164 347 171 350 C179 354 187 369 186 377 C186 386 171 398 157 398 C148 398 140 396 132 396 C116 396 101 405 101 422 C100 447 162 458 178 462 C181 462 184 472 184 481 C181 588 253 706 372 706 C440 706 481 669 490 603 C478 595 469 591 461 591 C443 591 416 639 375 639 C291 639 250 517 252 474 C253 439 339 473 341 429 C339 412 323 400 308 400 C300 400 290 401 283 401 C257 401 252 395 253 367 C254 320 359 368 361 314 C362 279 318 287 284 287 C248 287 245 286 239 260 C233 226 227 192 221 159 C233 138 257 134 275 124 C327 94 390 65 449 65 C473 65 497 77 496 110 C496 122 499 172 520 172 C541 172 550 111 551 85 C551 65 549 42 531 30 C503 10 473 -3 440 -3 C422 -3 403 1 384 10 C380 12 377 14 374 14 C327 20 291 44 250 64 C236 71 221 73 206 80 C169 27 155 -2 104 -18 C99 -20 95 -20 91 -20 C47 -20 7 41 5 91 C3 147 34 202 87 202 C108 202 133 192 153 187 L153 187 Z M135 119 C122 125 104 136 93 136 C75 136 67 112 67 96 C68 77 78 51 92 51 C117 51 132 90 135 119 L135 119 Z " />
<glyph glyph-name="yen" unicode="&#xa5;" horiz-adv-x="436" d="M185 248 C181 248 178 247 175 247 C154 247 120 259 119 284 C118 322 201 291 199 340 C199 352 191 359 179 359 C161 359 143 356 126 356 C111 356 87 364 87 379 C85 419 191 408 198 431 C199 436 200 441 200 445 C199 464 152 504 132 529 C113 551 91 565 66 576 C35 590 -15 633 -16 651 C-16 666 0 679 14 679 C19 679 23 677 28 674 C51 650 81 639 108 623 C148 600 202 538 222 538 C255 538 327 610 353 641 C362 653 377 662 395 662 C408 662 417 646 417 633 C418 612 362 567 338 546 C301 514 257 500 259 442 C259 431 266 426 275 426 C289 427 305 430 322 430 C335 430 347 421 348 404 C349 366 278 370 260 370 C259 359 257 353 257 348 C257 341 259 335 265 321 C294 319 323 316 353 313 C358 298 361 294 361 285 C362 267 340 260 319 260 C311 260 302 264 290 264 C254 264 248 254 250 205 C251 171 257 138 261 105 C266 68 268 30 269 -6 C270 -30 250 -41 234 -41 C220 -41 205 -31 204 -8 C203 39 206 87 206 135 C187 170 196 209 185 248 L185 248 Z " />
<glyph glyph-name="section" unicode="&#xa7;" horiz-adv-x="252" d="M155 266 C191 223 210 205 211 164 C212 153 209 141 209 130 C210 126 211 121 211 117 C213 58 166 -25 106 -32 C97 -33 88 -35 78 -36 C55 -36 42 -28 42 -15 C41 -3 56 16 72 19 C133 30 149 107 148 149 C145 232 1 283 0 355 C-2 403 0 438 30 471 C38 481 43 493 43 504 C43 516 31 539 30 560 C29 611 53 635 125 664 C132 667 138 668 143 668 C159 668 175 656 176 638 C177 602 90 617 93 554 C93 535 106 516 125 512 C181 501 238 443 240 387 C241 333 199 291 155 266 L155 266 Z M116 329 C154 340 178 352 176 392 C175 420 127 446 109 446 C80 446 60 412 61 382 C61 374 62 367 64 359 C67 360 70 360 73 360 C92 360 102 342 116 329 L116 329 Z " />
<glyph glyph-name="dieresis" unicode="&#xa8;" horiz-adv-x="274" d="M94 650 C95 630 84 618 63 618 C45 618 28 633 27 653 C27 669 43 685 60 685 C75 685 93 666 94 650 L94 650 Z M227 648 C228 633 212 618 194 618 C179 618 166 633 165 650 C165 662 184 680 198 680 C210 680 227 662 227 648 L227 648 Z " />
<glyph glyph-name="copyright" unicode="&#xa9;" horiz-adv-x="600" d="M17 246 C16 253 15 261 15 268 C12 331 55 375 81 427 C120 507 218 529 303 529 C388 529 489 513 528 431 C547 390 561 348 562 302 C566 195 561 51 453 0 C424 -14 395 -26 362 -26 C350 -26 339 -24 328 -24 C310 -24 293 -26 276 -26 C205 -26 108 51 75 100 C47 142 18 183 17 233 C17 237 16 242 17 246 L17 246 Z M498 289 C497 298 498 307 498 316 C495 408 451 440 408 450 C373 458 338 464 302 464 C258 464 179 454 160 426 C125 375 74 316 76 263 C79 167 187 32 313 32 C384 32 424 46 464 91 C468 97 472 105 474 113 C492 170 499 229 498 289 L498 289 Z M303 184 C313 185 326 189 339 189 C358 189 369 179 369 162 C370 128 319 122 293 122 C235 122 165 155 162 243 C159 328 214 382 318 382 C341 382 359 369 360 348 C360 328 346 317 329 317 C319 317 310 318 301 318 C256 318 222 291 223 243 C225 207 252 184 303 184 L303 184 Z " />
<glyph glyph-name="ordfeminine" unicode="&#xaa;" horiz-adv-x="324" d="M196 573 C164 571 119 499 63 499 C32 499 9 526 8 553 C7 589 46 685 74 692 C109 707 142 730 182 730 C190 730 199 727 208 727 C214 727 221 729 227 729 C263 729 264 646 263 651 C264 642 264 633 264 624 C266 591 277 557 278 524 C278 509 266 492 243 492 C203 492 214 549 196 573 L196 573 Z M184 669 C121 667 73 636 72 564 C113 570 164 617 184 669 L184 669 Z " />
<glyph glyph-name="guillemotleft" unicode="&#xab;" horiz-adv-x="474" d="M83 266 C143 227 188 178 241 132 C253 121 262 106 263 91 C264 69 248 56 230 56 C204 56 174 97 151 125 C116 168 69 194 24 223 C7 234 0 242 -1 255 C-2 278 59 341 84 361 C132 401 187 454 242 476 C245 477 246 478 249 478 C260 478 274 465 274 451 C275 437 237 403 218 390 C166 354 133 320 83 266 L83 266 Z M279 261 C298 239 315 216 335 198 C364 172 441 143 442 107 C443 89 425 75 406 75 C382 75 320 130 291 157 C266 180 243 201 213 216 C198 222 193 236 192 251 C191 278 238 322 266 342 C309 372 350 403 385 442 C391 450 405 453 416 454 C430 454 441 440 441 424 C442 403 391 367 367 345 C338 319 298 291 279 261 L279 261 Z " />
<glyph glyph-name="registered" unicode="&#xae;" horiz-adv-x="580" d="M310 522 C319 523 330 524 341 524 C345 524 348 524 352 522 C384 498 428 499 456 467 C513 454 550 345 550 329 C552 274 544 208 526 161 C524 157 519 153 520 149 C521 118 499 96 488 71 C455 -2 335 -37 275 -37 C150 -37 73 90 43 128 C27 150 18 178 17 205 C13 294 47 383 104 450 C153 507 236 511 308 526 C308 525 309 524 310 522 L310 522 Z M487 287 C478 339 478 396 425 416 C374 435 335 459 291 459 C253 459 216 447 179 432 C121 408 77 283 80 204 C81 164 175 26 279 26 C333 26 414 60 433 109 C460 178 489 216 487 287 L487 287 Z M370 118 C327 123 300 164 255 175 C253 138 249 117 226 117 C212 117 189 131 188 151 C188 154 188 156 189 159 C194 224 199 289 203 354 C204 368 215 376 229 376 C267 376 308 351 345 341 C365 335 379 326 390 306 C387 261 345 251 314 228 C339 199 389 180 390 153 C391 143 384 132 370 118 L370 118 Z M260 274 C279 279 293 278 310 300 C288 310 278 317 267 317 C257 317 254 309 255 289 C255 285 255 282 260 274 L260 274 Z " />
<glyph glyph-name="degree" unicode="&#xb0;" horiz-adv-x="254" d="M216 654 C218 638 220 623 220 608 C222 556 208 529 150 482 C139 474 128 469 114 469 C46 469 16 504 14 574 C11 634 55 692 145 692 C172 692 185 677 216 654 L216 654 Z M153 629 C142 631 134 632 128 632 C93 632 71 602 71 580 C72 556 84 535 98 535 C139 535 155 577 154 607 C154 613 154 621 153 629 L153 629 Z " />
<glyph glyph-name="plusminus" unicode="&#xb1;" horiz-adv-x="480" d="M251 355 C314 351 379 352 442 352 C464 352 472 346 472 329 C474 289 388 294 369 294 C339 294 310 295 280 296 C268 296 257 295 242 294 C244 254 247 216 244 182 C244 176 243 170 243 164 C244 147 254 129 262 102 C239 90 234 81 219 81 C203 81 182 104 181 147 C180 167 186 188 185 209 C185 235 185 259 177 285 C151 287 126 292 100 292 C82 292 64 289 46 282 C39 279 32 277 25 277 C8 277 -5 295 -5 311 C-6 337 43 354 74 354 C92 354 111 347 128 347 C168 347 189 358 189 377 C187 408 177 445 176 473 C175 498 197 515 210 515 C231 515 242 496 243 479 C243 470 241 461 241 452 C244 421 248 391 251 355 L251 355 Z M363 -30 C301 -26 242 -20 183 -20 C146 -20 110 -33 73 -33 C48 -33 20 -31 19 -3 C17 38 92 30 121 35 C139 38 157 39 176 39 C226 39 277 33 324 33 L333 33 C385 33 468 31 469 -2 C470 -41 395 -30 363 -30 L363 -30 Z " />
<glyph glyph-name="twosuperior" unicode="&#xb2;" horiz-adv-x="211" d="M121 559 L153 559 C176 559 189 552 189 535 C191 499 147 491 114 491 L83 491 C67 491 47 484 38 484 C24 484 7 501 6 515 C4 566 106 602 104 663 C104 668 103 674 101 680 C79 678 83 648 62 648 C44 648 37 666 36 681 C35 710 60 739 107 739 C142 739 155 709 157 668 C158 628 145 606 121 559 L121 559 Z " />
<glyph glyph-name="threesuperior" unicode="&#xb3;" horiz-adv-x="211" d="M92 689 C50 694 25 693 24 716 C23 748 91 747 127 747 C156 747 174 741 175 720 C176 697 155 659 133 637 C162 595 175 585 177 550 C177 538 177 505 170 497 C156 473 97 445 65 445 C45 445 32 457 31 472 C30 511 125 496 123 549 C121 585 54 583 52 621 C51 642 72 660 92 689 L92 689 Z " />
<glyph glyph-name="acute" unicode="&#xb4;" horiz-adv-x="165" d="M118 724 C130 714 141 704 151 695 C148 678 143 667 130 660 C84 637 66 598 31 562 C26 557 20 554 14 554 C4 554 -5 567 -6 578 C-3 606 10 638 32 655 C60 677 78 709 118 724 L118 724 Z " />
<glyph glyph-name="paragraph" unicode="&#xb6;" horiz-adv-x="478" d="M190 495 C185 491 181 489 180 486 C161 447 103 428 75 428 C42 428 -10 450 -11 499 C-13 538 13 559 28 590 C69 676 192 687 237 693 C243 693 250 695 256 695 C268 695 279 687 290 687 C315 687 353 702 382 702 C412 702 422 674 423 634 C423 624 423 613 421 603 C409 524 410 443 408 364 C410 326 414 287 415 249 C417 209 414 170 416 131 C417 99 424 67 425 35 C426 2 415 -59 374 -59 C350 -59 347 -34 346 -18 C346 -17 347 -16 347 -15 C357 15 357 47 356 78 C356 95 355 112 355 129 C354 157 354 185 362 212 C363 215 362 218 362 222 C362 241 355 259 354 279 C354 389 355 498 362 611 C361 642 322 646 296 646 C266 646 259 578 260 538 C261 516 264 493 265 472 C266 436 262 400 263 364 C264 339 268 314 269 289 C270 252 259 214 258 177 C256 134 250 86 252 44 C252 33 254 22 255 12 C256 -15 246 -40 224 -40 C201 -40 188 -26 187 -9 C185 47 201 102 198 162 C195 248 209 325 205 421 C204 449 201 476 190 495 L190 495 Z " />
<glyph glyph-name="onesuperior" unicode="&#xb9;" horiz-adv-x="171" d="M61 643 C38 627 22 611 9 611 C0 611 -11 621 -11 633 C-12 671 94 728 99 728 C111 727 120 721 120 710 C121 698 116 685 117 673 C117 648 125 623 126 598 C128 560 139 486 95 486 C80 486 66 502 65 518 C64 550 69 583 69 616 C68 622 65 629 61 643 L61 643 Z " />
<glyph glyph-name="guillemotright" unicode="&#xbb;" horiz-adv-x="505" d="M407 251 C403 259 401 264 398 267 C361 301 329 340 288 368 C266 383 246 410 245 423 C245 436 255 446 276 457 C347 417 491 286 492 260 C493 219 394 155 350 98 C340 84 323 77 314 61 C308 51 297 48 285 48 C265 48 249 59 248 79 C247 98 261 115 275 127 C321 165 365 205 407 251 L407 251 Z M213 257 C158 323 82 365 13 414 C13 436 7 459 34 459 C44 459 54 454 62 449 C143 400 211 354 285 286 C297 274 303 264 303 254 C304 223 242 189 208 158 C172 124 135 71 107 71 C89 71 73 81 72 104 C72 126 91 142 110 155 C146 180 193 221 213 257 L213 257 Z " />
<glyph glyph-name="onequarter" unicode="&#xbc;" horiz-adv-x="468" d="M297 174 C304 171 311 170 318 170 C333 170 347 176 362 178 C373 214 353 296 399 296 C419 296 422 265 422 249 C423 226 421 203 421 179 C438 165 456 152 456 134 C457 123 450 111 438 105 C418 95 416 79 417 61 C418 40 424 20 425 -1 C426 -20 413 -34 394 -34 C365 -34 353 22 352 50 C352 67 357 85 356 101 C356 106 355 111 352 116 C318 111 287 100 254 100 C230 100 212 115 211 137 C211 149 218 170 227 179 C260 213 267 295 302 295 C316 295 327 292 327 276 C326 242 310 207 297 174 L297 174 Z M331 514 C302 438 264 371 236 298 C223 265 203 235 189 202 C165 146 146 87 121 32 C110 8 100 -38 67 -38 C51 -38 35 -22 34 -4 C34 4 38 17 44 24 C71 55 82 94 98 130 C121 178 134 235 161 280 C181 313 194 347 209 382 C230 434 270 542 305 542 C319 542 322 528 331 514 L331 514 Z M66 389 C64 412 61 436 60 460 C58 505 59 554 95 554 C112 554 125 535 126 518 C127 500 118 480 119 461 C120 434 127 408 128 381 C130 328 132 272 97 272 C81 272 63 294 62 316 C61 340 66 360 66 389 L66 389 Z " />
<glyph glyph-name="onehalf" unicode="&#xbd;" horiz-adv-x="451" d="M348 234 C340 240 333 242 327 242 C311 242 295 231 280 231 C267 231 249 235 248 257 C247 290 312 311 337 311 C390 311 412 258 413 225 C415 173 353 105 327 56 C334 52 341 50 348 50 C364 50 381 53 398 53 C424 53 442 41 442 18 C444 -21 373 -15 334 -15 L318 -15 C295 -15 271 -17 249 -24 C244 -26 238 -27 233 -27 C215 -27 198 -9 198 6 C197 23 234 69 257 87 C296 117 345 180 348 234 L348 234 Z M352 553 C325 464 257 395 238 311 C238 310 237 308 237 307 C218 263 199 219 180 174 C159 126 130 81 118 29 C112 2 86 -42 67 -42 C54 -42 36 -23 35 -4 C34 21 71 45 73 75 C79 131 122 181 147 239 C165 283 184 328 200 373 C226 441 276 530 323 567 C326 569 331 571 335 571 C343 571 347 561 352 553 L352 553 Z M119 316 C104 308 92 299 79 299 C61 299 49 320 48 340 C47 364 60 392 59 419 C59 436 54 454 54 471 C52 507 54 568 95 568 C107 567 120 554 120 541 C121 520 115 501 115 483 C116 467 120 451 121 435 C122 401 118 368 117 334 C118 330 119 325 119 316 L119 316 Z " />
<glyph glyph-name="threequarters" unicode="&#xbe;" horiz-adv-x="520" d="M381 92 C374 92 367 93 362 93 C341 93 315 77 293 77 C268 77 256 95 255 125 C254 159 295 220 317 266 C326 283 330 289 342 289 C350 289 370 292 370 266 C372 228 338 202 339 166 C345 161 350 160 356 160 C364 160 371 162 380 162 C383 199 379 265 415 265 C439 265 436 253 436 238 C437 227 436 215 437 203 C437 189 439 176 442 162 C481 162 514 152 515 130 C516 121 511 110 501 97 C485 95 469 93 450 90 C444 63 431 38 432 10 C433 0 436 -12 436 -21 C437 -40 428 -51 412 -51 C389 -51 367 -17 367 3 C367 31 382 59 381 92 L381 92 Z M369 502 C348 431 317 357 288 307 C247 238 200 174 183 93 C174 48 136 -63 99 -63 C81 -63 66 -31 66 -24 C65 -17 69 -9 79 2 C108 37 115 82 132 124 C142 146 156 167 155 193 C155 199 159 205 161 210 C194 262 227 313 258 365 C263 372 264 380 267 388 C279 441 317 527 344 527 C356 527 368 516 369 502 L369 502 Z M109 484 C81 484 56 481 55 509 C54 549 126 549 151 549 C181 549 210 536 211 509 C212 486 185 463 168 446 C169 419 207 407 208 378 C208 362 193 326 183 303 C169 270 138 252 106 252 C71 252 40 275 16 309 C13 313 12 317 12 320 C11 328 17 334 28 334 C56 334 80 315 104 315 C118 315 126 322 133 338 C132 351 140 361 140 368 C139 389 77 379 75 414 C75 436 99 463 109 484 L109 484 Z " />
<glyph glyph-name="Agrave" unicode="&#xc0;" horiz-adv-x="423" d="M249.263 537.103 C180.295 537.103 146.768 609.749 98.8737 637.327 C85.4632 646.072 83.5474 654.816 83.5474 664.906 C82.5895 674.996 95.0421 682.395 107.495 682.395 C130.484 682.395 161.137 654.143 176.463 638.673 C201.368 611.767 263.632 575.444 264.589 559.973 C264.589 554.592 259.8 548.538 249.263 537.103 L249.263 537.103 Z M75 -7 C66 -14 55 -21 43 -21 C27 -21 16 -9 16 9 C15 18 19 32 24 42 C69 168 133 292 171 425 C180 457 198 487 203 521 C205 540 221 550 238 550 C259 550 268 544 275 522 C293 461 311 399 327 338 C329 333 332 328 332 324 C343 256 374 193 392 127 C400 98 409 70 420 42 C422 37 422 33 422 29 C423 11 411 -4 393 -4 C352 -4 341 83 327 131 C325 181 300 195 268 195 C232 195 194 187 159 183 C109 176 80 18 75 -7 L75 -7 Z M167 251 C175 246 177 244 179 244 C213 246 286 241 285 267 C284 302 261 341 256 382 C253 403 245 419 231 436 C200 377 190 312 167 251 L167 251 Z " />
<glyph glyph-name="Aacute" unicode="&#xc1;" horiz-adv-x="418" d="M299.38 700.04 C311.012 690.965 321.675 681.89 331.368 673.723 C328.46 658.295 323.613 648.312 311.012 641.96 C266.423 621.087 248.975 585.694 215.049 553.023 C210.202 548.486 204.387 545.763 198.571 545.763 C188.877 545.763 180.153 557.561 179.184 567.543 C182.092 592.954 194.693 621.994 216.018 637.422 C243.16 657.387 260.607 686.428 299.38 700.04 L299.38 700.04 Z M63 -7 C54 -14 43 -21 31 -21 C15 -21 4 -9 4 9 C3 18 7 32 12 42 C57 168 121 292 159 425 C168 457 186 487 191 521 C193 540 209 550 226 550 C247 550 256 544 263 522 C281 461 299 399 315 338 C317 333 320 328 320 324 C331 256 362 193 380 127 C388 97 409 54 410 29 C411 11 399 -4 381 -4 C340 -4 329 83 315 131 C313 181 288 195 256 195 C220 195 182 187 147 183 C97 176 69 17 63 -7 L63 -7 Z M155 251 C163 246 165 244 167 244 C201 246 274 241 273 267 C272 302 249 341 244 382 C241 403 233 419 219 436 C188 377 178 312 155 251 L155 251 Z " />
<glyph glyph-name="Acircumflex" unicode="&#xc2;" horiz-adv-x="426" d="M236 633 C211 627 201 612 190 598 C170 573 127 531 105 531 C93 531 82 545 82 561 C82 594 138 624 165 660 C181 681 200 701 224 715 C255 701 279 681 299 657 C314 639 328 620 350 612 C362 607 369 596 370 582 C371 565 359 552 343 552 C302 552 261 607 236 633 L236 633 Z M70 -7 C61 -14 50 -21 38 -21 C22 -21 11 -9 11 9 C10 18 14 32 19 42 C64 168 128 292 166 425 C175 457 193 487 198 521 C200 540 216 550 233 550 C254 550 263 544 270 522 C288 461 306 399 322 338 C324 333 327 328 327 324 C338 256 369 193 387 127 C395 98 404 70 415 42 C417 37 417 33 417 29 C418 11 406 -4 388 -4 C347 -4 336 83 322 131 C320 181 295 195 263 195 C227 195 189 187 154 183 C104 176 75 18 70 -7 L70 -7 Z M162 251 C170 246 172 244 174 244 C208 246 281 241 280 267 C279 302 256 341 251 382 C248 403 240 419 226 436 C195 377 185 312 162 251 L162 251 Z " />
<glyph glyph-name="Atilde" unicode="&#xc3;" horiz-adv-x="432" d="M324 597 C280 597 241 611 204 631 C195 636 188 638 183 638 C168 638 152 591 127 591 C114 591 102 603 101 619 C100 651 163 689 197 689 C211 689 222 682 233 675 C258 659 284 653 312 653 C339 653 339 695 365 695 C383 695 390 680 391 659 C392 619 369 597 324 597 L324 597 Z M70 -7 C61 -14 50 -21 38 -21 C22 -21 11 -9 11 9 C10 18 14 32 19 42 C64 168 128 292 166 425 C175 457 193 487 198 521 C200 540 216 550 233 550 C254 550 263 544 270 522 C288 461 306 399 322 338 C324 333 327 328 327 324 C338 256 369 193 387 127 C395 98 404 70 415 42 C417 37 417 33 417 29 C418 11 406 -4 388 -4 C347 -4 336 83 322 131 C320 181 295 195 263 195 C227 195 189 187 154 183 C104 176 75 18 70 -7 L70 -7 Z M162 251 C170 246 172 244 174 244 C208 246 281 241 280 267 C279 302 256 341 251 382 C248 403 240 419 226 436 C195 377 185 312 162 251 L162 251 Z " />
<glyph glyph-name="Adieresis" unicode="&#xc4;" horiz-adv-x="413" d="M65 -26 C53 -34 45 -40 33 -40 C18 -40 6 -29 6 -12 C5 -1 9 12 13 23 C59 149 123 273 161 406 C170 438 188 468 193 502 C195 521 211 531 228 531 C249 531 258 525 265 503 C284 437 303 371 323 305 C333 237 364 174 382 108 C390 79 398 51 410 23 C413 18 413 14 413 10 C413 -8 402 -23 383 -23 C343 -23 331 64 316 112 C315 162 290 176 258 176 C222 176 183 168 148 164 C100 157 70 -1 65 -26 L65 -26 Z M157 232 C164 227 167 225 169 225 C202 227 275 222 274 248 C273 284 250 323 245 363 C243 384 235 400 221 417 C191 358 181 293 157 232 L157 232 Z M201 653 C202 633 191 621 170 621 C152 621 135 636 134 656 C134 672 150 688 167 688 C182 688 200 669 201 653 L201 653 Z M334 651 C335 636 319 621 301 621 C286 621 273 636 272 653 C272 665 291 683 305 683 C317 683 334 665 334 651 L334 651 Z " />
<glyph glyph-name="Aring" unicode="&#xc5;" horiz-adv-x="431" d="M161 232 C168 227 171 225 173 225 C206 227 280 222 279 248 C277 284 254 323 250 363 C247 384 239 400 225 417 C195 358 185 293 161 232 L161 232 Z M344 665 C347 649 348 634 349 619 C350 567 336 539 278 493 C276.297 491.762 274.594 490.595 272.884 489.508 C290.594 428.005 308.363 366.503 327 305 C337 237 368 174 387 108 C395 79 402 51 414 23 C417 18 417 14 417 10 C418 -8 406 -23 387 -23 C347 -23 335 64 320 112 C319 162 294 176 262 176 C226 176 187 168 153 164 C104 157 74 -2 69 -26 C57 -34 49 -40 37 -40 C22 -40 10 -29 10 -12 C9 -1 13 12 17 23 C63 149 127 273 165 406 C172.771 433.631 187.253 459.771 194.281 488.283 C159.873 502.422 143.438 534.661 142 585 C140 645 184 703 274 703 C301 703 313 688 344 665 L344 665 Z M281 640 C270 642 262 643 256 643 C221 643 199 613 200 591 C200 567 212 546 226 546 C267 546 284 588 283 618 C282 624 282 632 281 640 L281 640 Z " />
<glyph glyph-name="AE" unicode="&#xc6;" horiz-adv-x="630" d="M349 676 C368 674 385 672 403 672 C443 672 484 682 524 682 C562 682 604 680 605 641 C606 628 595 617 580 617 C567 617 554 622 542 622 C518 622 495 617 471 617 C451 607 432 603 412 603 C399 603 385 608 372 608 C358 608 358 591 358 581 C359 565 363 549 364 533 C364 524 363 516 361 507 C368 507 374 506 379 506 C404 506 430 513 456 513 C475 513 494 507 514 507 C526 507 538 511 550 511 C570 511 583 497 584 478 C585 453 567 449 542 449 C524 449 507 452 489 452 C450 452 412 446 372 442 C369 432 366 425 366 417 C370 314 384 209 388 106 C388 91 384 75 384 59 C385 28 500 27 529 24 C542 22 553 20 553 0 C554 -18 535 -31 518 -31 C497 -31 476 -28 456 -28 C432 -28 409 -31 385 -31 C345 -31 321 -9 319 35 C318 84 328 134 326 181 C326 198 325 209 293 209 C255 209 216 204 176 204 C166 204 155 204 145 205 C120 136 99 66 76 -2 C71 -15 58 -27 44 -27 C27 -27 12 -9 11 9 C11 12 12 16 13 20 C38 96 69 169 92 247 C108 302 125 358 141 413 C145 430 156 445 160 462 C180 547 252 716 301 716 C320 716 333 705 349 676 L349 676 Z M310 272 C310 295 314 317 314 339 C313 358 306 378 306 397 C305 412 311 428 310 442 C309 458 304 474 303 490 C303 512 306 533 305 555 C304 574 300 592 286 611 C232 518 215 414 177 318 C171 302 170 284 164 263 C178 262 192 262 206 262 C242 262 275 265 310 272 L310 272 Z " />
<glyph glyph-name="Ccedilla" unicode="&#xc7;" horiz-adv-x="345" d="M325 214 C330 202 334 198 334 184 C334 178 334 172 333 166 C314 97 271 -6 200 -6 C154 -6 104 45 66 84 C12 139 -1 231 -3 310 C-7 412 18 485 74 569 C88 587 102 609 119 626 C148 653 185 690 216 690 C238 690 267 668 290 653 C307 641 323 612 323 592 C323 581 310 571 302 571 C290 571 242 636 217 636 C173 636 124 553 90 501 C53 438 47 383 50 298 C54 189 75 144 165 69 C178 58 189 53 198 52 C254 52 278 198 325 214 L325 214 Z M184 48 C216 41 228 41 228 25 C228 21 227 16 226 9 C219 -13 217 -36 218 -58 C219 -98 228 -140 229 -184 C230 -199 218 -219 194 -219 C168 -219 161 -195 160 -162 C159 -139 164 -117 163 -94 C163 -78 160 -60 160 -44 C158 -12 170 17 184 48 L184 48 Z " />
<glyph glyph-name="Egrave" unicode="&#xc8;" horiz-adv-x="327" d="M209.947 554.013 C140.221 554.013 106.326 633.924 57.9053 664.26 C44.3474 673.879 42.4105 683.498 42.4105 694.596 C41.4421 705.695 54.0316 713.834 66.6211 713.834 C89.8632 713.834 120.853 682.758 136.347 665.74 C161.526 636.143 224.474 596.188 225.442 579.17 C225.442 573.251 220.6 566.592 209.947 554.013 L209.947 554.013 Z M62 505 C71 502 80 501 89 501 C116 501 144 512 171 512 C197 512 222 513 248 513 C275 513 299 511 300 483 C301 437 248 450 211 450 C172 450 133 450 93 447 C95 398 93 365 91 317 C103 316 115 316 126 316 C147 316 165 323 184 323 C209 323 255 315 256 291 C256 276 247 268 228 268 C185 268 143 262 101 262 C92 239 91 211 92 182 C93 153 96 124 97 99 C98 77 105 71 125 71 C179 74 234 79 287 79 C313 79 328 66 329 51 C330 31 316 16 299 16 C290 16 281 17 271 17 C228 17 186 8 143 8 C114 8 100 -7 72 -19 C66 -22 61 -24 55 -24 C43 -24 25 -11 25 3 C24 8 26 14 29 19 C37 31 35 43 36 56 C37 117 39 178 39 239 C39 251 38 263 37 275 C36 330 40 389 38 443 C37 467 46 487 62 505 L62 505 Z " />
<glyph glyph-name="Eacute" unicode="&#xc9;" horiz-adv-x="318" d="M207 733 C219 723 230 713 240 704 C237 687 232 676 219 669 C173 646 155 607 120 571 C115 566 109 563 103 563 C93 563 84 576 83 587 C86 615 99 647 121 664 C149 686 167 718 207 733 L207 733 Z M53 500 C62 497 71 496 80 496 C107 496 135 507 162 507 C185 507 207 508 229 508 C260 508 290 510 291 478 C292 453 282 445 261 445 C202 445 144 446 84 442 C86 393 84 360 82 312 C94 311 106 311 117 311 C138 311 157 318 176 318 C201 318 246 310 247 286 C247 271 239 263 220 263 C177 261 134 259 92 257 C75 211 87 145 88 94 C89 72 96 66 116 66 C170 69 225 74 278 74 C304 74 320 61 320 46 C321 26 307 11 290 11 C281 11 272 12 262 12 C219 12 178 3 135 3 C106 3 91 -12 64 -24 C57 -27 52 -29 46 -29 C34 -29 16 -16 16 -2 C16 3 17 9 20 14 C28 26 26 38 27 51 C28 112 30 173 31 234 L28 270 C27 321 32 375 30 425 C30 429 30 433 29 438 C29 462 37 482 53 500 L53 500 Z " />
<glyph glyph-name="Ecircumflex" unicode="&#xca;" horiz-adv-x="331" d="M174.302 637.585 C150.064 632.511 140.369 619.824 129.705 607.984 C110.315 586.84 68.6271 551.319 47.2983 551.319 C35.6644 551.319 25 563.16 25 576.691 C25 604.601 79.2915 629.973 105.468 660.42 C120.98 678.181 139.4 695.096 162.668 706.936 C192.722 695.096 215.99 678.181 235.38 657.883 C249.922 642.66 263.495 626.59 284.824 619.824 C296.458 615.596 303.244 606.293 304.214 594.452 C305.183 580.074 293.549 569.08 278.037 569.08 C238.288 569.08 198.539 615.596 174.302 637.585 L174.302 637.585 Z M63 505 C72 502 81 501 90 501 C117 501 145 512 172 512 C198 512 223 513 249 513 C276 513 300 511 301 483 C302 437 249 450 212 450 C173 450 134 450 94 447 C96 398 94 365 92 317 C104 316 116 316 127 316 C148 316 166 323 185 323 C210 323 256 315 257 291 C257 276 248 268 229 268 C186 268 144 262 102 262 C93 239 92 211 93 182 C94 153 97 124 98 99 C99 77 106 71 126 71 C180 74 235 79 288 79 C314 79 329 66 330 51 C331 31 317 16 300 16 C291 16 282 17 272 17 C229 17 187 8 144 8 C115 8 101 -7 73 -19 C67 -22 62 -24 56 -24 C44 -24 26 -11 26 3 C25 8 27 14 30 19 C38 31 36 43 37 56 C38 117 40 178 40 239 C40 251 39 263 38 275 C37 330 41 389 39 443 C38 467 47 487 63 505 L63 505 Z " />
<glyph glyph-name="Edieresis" unicode="&#xcb;" horiz-adv-x="320" d="M149 621 C150 601 139 589 118 589 C100 589 83 604 82 624 C82 640 98 656 115 656 C130 656 148 637 149 621 L149 621 Z M282 619 C283 604 267 589 249 589 C234 589 221 604 220 621 C220 633 239 651 253 651 C265 651 282 633 282 619 L282 619 Z M55 505 C64 502 73 501 82 501 C109 501 137 512 164 512 C190 512 215 513 241 513 C268 513 292 511 293 483 C294 437 241 450 204 450 C165 450 126 450 86 447 C88 398 86 365 84 317 C96 316 108 316 119 316 C140 316 158 323 177 323 C202 323 248 315 249 291 C249 276 240 268 221 268 C178 268 136 262 94 262 C85 239 84 211 85 182 C86 153 89 124 90 99 C91 77 98 71 118 71 C172 74 227 79 280 79 C306 79 321 66 322 51 C323 31 309 16 292 16 C283 16 274 17 264 17 C221 17 179 8 136 8 C107 8 93 -7 65 -19 C59 -22 54 -24 48 -24 C36 -24 18 -11 18 3 C17 8 19 14 22 19 C30 31 28 43 29 56 C30 117 32 178 32 239 C32 251 31 263 30 275 C29 330 33 389 31 443 C30 467 39 487 55 505 L55 505 Z " />
<glyph glyph-name="Igrave" unicode="&#xcc;" horiz-adv-x="176" d="M138.947 564.852 C76.4211 564.852 46.0263 657.839 2.60526 693.139 C-9.55263 704.332 -11.2895 715.525 -11.2895 728.439 C-12.1579 741.354 -0.868421 750.825 10.4211 750.825 C31.2632 750.825 59.0526 714.664 72.9474 694.861 C95.5263 660.422 151.974 613.928 152.842 594.126 C152.842 587.238 148.5 579.489 138.947 564.852 L138.947 564.852 Z M90 279 C92 346 92 413 94 480 C93 506 104 519 120 519 C139 519 149 507 150 491 C151 452 145 411 143 372 C139 298 134 221 137 147 C138 102 150 56 152 10 C152 -5 143 -19 121 -19 C105 -19 90 -6 89 19 C86 106 88 192 92 279 L90 279 L90 279 Z " />
<glyph glyph-name="Iacute" unicode="&#xcd;" horiz-adv-x="181" d="M138 734 C150 724 161 714 171 705 C168 688 163 677 150 670 C104 647 86 608 51 572 C46 567 40 564 34 564 C24 564 15 577 14 588 C17 616 30 648 52 665 C80 687 98 719 138 734 L138 734 Z M26 279 C28 346 28 413 30 480 C29 506 40 519 56 519 C75 519 85 507 86 491 C87 452 81 411 79 372 C75 298 70 221 73 147 C74 102 86 56 88 10 C88 -5 79 -19 57 -19 C41 -19 26 -6 25 19 C22 106 24 192 28 279 L26 279 L26 279 Z " />
<glyph glyph-name="Icircumflex" unicode="&#xce;" horiz-adv-x="289" d="M150 635 C125 629 115 614 104 600 C84 575 41 533 19 533 C7 533 -4 547 -4 563 C-4 596 52 626 79 662 C95 683 114 703 138 717 C169 703 193 683 213 659 C228 641 242 622 264 614 C276 609 283 598 284 584 C285 567 273 554 257 554 C216 554 175 609 150 635 L150 635 Z M110 279 C112 346 112 413 114 480 C113 506 124 519 140 519 C159 519 169 507 170 491 C171 452 165 411 163 372 C159 298 154 221 157 147 C158 102 170 56 172 10 C172 -5 163 -19 141 -19 C125 -19 110 -6 109 19 C106 106 108 192 112 279 L110 279 L110 279 Z " />
<glyph glyph-name="Idieresis" unicode="&#xcf;" horiz-adv-x="201" d="M62 627 C63 607 52 595 31 595 C13 595 -4 610 -5 630 C-5 646 11 662 28 662 C43 662 61 643 62 627 L62 627 Z M195 625 C196 610 180 595 162 595 C147 595 134 610 133 627 C133 639 152 657 166 657 C178 657 195 639 195 625 L195 625 Z M47 279 C49 346 49 413 51 480 C50 506 61 519 77 519 C96 519 106 507 107 491 C108 452 102 411 100 372 C96 298 91 221 94 147 C95 102 107 56 109 10 C109 -5 100 -19 78 -19 C62 -19 47 -6 46 19 C43 106 45 192 49 279 L47 279 L47 279 Z " />
<glyph glyph-name="Eth" unicode="&#xd0;" horiz-adv-x="512" d="M141 422 C123 429 106 434 89 434 C75 434 62 431 48 431 C24 431 -8 436 -9 460 C-9 481 24 496 49 496 C64 496 78 494 93 494 C137 494 150 492 149 517 C148 568 137 619 135 669 C135 685 142 692 160 692 C213 692 265 682 313 659 C386 628 420 586 461 529 C486 494 490 452 491 412 C494 321 449 242 407 165 C382 120 329 82 290 44 C265 20 223 27 205 4 C199 -4 190 -9 181 -9 C159 -9 145 11 143 29 C143 39 146 50 146 61 C148 172 148 282 144 394 C143 403 142 413 141 422 L141 422 Z M207 427 C202 382 195 345 197 304 C197 295 198 285 198 275 C198 268 198 260 199 253 C200 206 212 158 214 110 L214 99 C214 87 213 78 227 78 C246 78 271 121 297 138 C338 171 358 216 381 257 C412 309 428 372 426 430 C423 533 333 583 245 620 C236 624 228 628 218 628 C199 628 196 611 197 599 C197 582 203 566 203 550 C203 543 204 536 204 529 C204 517 206 505 212 493 C228 494 244 496 259 496 C274 496 290 489 291 465 C293 427 246 431 207 427 L207 427 Z " />
<glyph glyph-name="Ntilde" unicode="&#xd1;" horiz-adv-x="381" d="M275 255 C210 305 158 338 96 379 C86 367 86 352 86 338 C87 317 91 295 92 274 C93 237 87 199 89 162 C90 114 94 68 102 22 C102 21 103 20 103 19 C104 -12 83 -14 71 -14 C53 -14 40 0 39 28 C36 120 43 210 40 303 C39 324 34 345 33 367 C33 379 40 391 39 404 C38 432 22 459 21 486 C21 507 35 534 52 534 C61 534 78 525 78 514 C87 461 129 434 167 405 C201 379 238 357 275 333 C280 347 283 360 282 376 C281 415 275 455 274 494 C273 514 288 523 303 523 C319 523 335 507 335 494 C336 477 333 461 334 445 C334 425 336 406 337 387 C338 360 330 332 331 306 C331 288 335 269 335 251 C337 213 326 177 327 136 C329 96 333 56 335 16 C335 -7 317 -26 295 -26 C284 -26 277 -19 275 -8 C275 2 276 13 275 24 C274 42 272 60 271 78 C270 122 272 166 277 210 C278 215 278 220 277 225 C277 235 276 246 275 255 L275 255 Z M256 583 C212 583 173 597 136 617 C126 622 120 624 115 624 C100 624 84 577 59 577 C46 577 34 590 33 606 C33 610 34 614 37 617 C63 646 84 675 129 675 C143 675 154 668 165 661 C190 645 216 639 244 639 C271 639 271 681 297 681 C314 681 322 667 323 647 C324 605 302 583 256 583 L256 583 Z " />
<glyph glyph-name="Ograve" unicode="&#xd2;" horiz-adv-x="457" d="M248.947 545.287 C179.221 545.287 145.326 630.04 96.9053 662.215 C83.3474 672.417 81.4105 682.619 81.4105 694.39 C80.4421 706.161 93.0316 714.794 105.621 714.794 C128.863 714.794 159.853 681.834 175.347 663.785 C200.526 632.395 263.474 590.018 264.442 571.969 C264.442 565.691 259.6 558.628 248.947 545.287 L248.947 545.287 Z M290 486 C345 479 365 466 389 426 C392 421 393 413 398 410 C432 387 436 330 440 303 C443 287 445 271 446 255 C446 242 446 228 441 214 C437 200 439 183 434 168 C422 133 419 93 402 60 C377 12 338 -20 278 -20 C173 -16 127 -15 75 49 C40 93 15 164 14 210 C21 263 15 320 44 369 C46 373 47 378 48 383 C74 464 131 506 215 515 C228 515 244 520 252 520 C268 520 274 512 290 486 L290 486 Z M244 42 C244 44 251 44 258 44 C271 44 272 43 278 43 C375 43 391 232 389 290 C386 367 329 431 256 459 C251 460 246 461 241 461 C218 461 182 447 160 439 C89 416 71 256 73 196 C74 169 106 100 108 98 C132 77 153 52 187 48 L244 42 L244 42 Z " />
<glyph glyph-name="Oacute" unicode="&#xd3;" horiz-adv-x="456" d="M291 698 C303 688 314 678 324 669 C321 652 316 641 303 634 C257 611 239 572 204 536 C199 531 193 528 187 528 C177 528 168 541 167 552 C170 580 183 612 205 629 C233 651 251 683 291 698 L291 698 Z M281 486 C336 479 356 466 380 426 C383 421 384 413 389 410 C423 387 427 330 431 303 C434 287 436 271 437 255 C437 242 437 228 432 214 C428 200 430 183 425 168 C413 133 410 93 393 60 C368 12 329 -20 269 -20 C164 -16 118 -15 66 49 C33 90 6 160 5 205 L5 210 C12 263 6 320 35 369 C37 373 38 378 39 383 C65 464 122 506 206 515 C219 515 235 520 243 520 C259 520 265 512 281 486 L281 486 Z M235 42 C235 45 256 44 260 44 C263 44 266 43 269 43 C366 43 382 232 380 290 C377 367 320 431 247 459 C242 460 237 461 232 461 C209 461 173 447 151 439 C80 416 62 256 64 196 C65 169 97 100 99 98 C123 77 144 52 178 48 L235 42 L235 42 Z " />
<glyph glyph-name="Ocircumflex" unicode="&#xd4;" horiz-adv-x="464" d="M224 637.277 C199 631.66 189 617.617 178 604.511 C158 581.106 115 541.787 93 541.787 C81 541.787 70 554.894 70 569.872 C70 600.766 126 628.851 153 662.553 C169 682.213 188 700.936 212 714.043 C243 700.936 267 682.213 287 659.745 C302 642.894 316 625.106 338 617.617 C350 612.936 357 602.638 358 589.532 C359 573.617 347 561.447 331 561.447 C290 561.447 249 612.936 224 637.277 L224 637.277 Z M289 486 C344 479 364 466 388 426 C391 421 392 413 397 410 C431 387 435 330 439 303 C442 287 444 271 445 255 C445 242 445 228 440 214 C436 200 438 183 433 168 C421 133 418 93 401 60 C376 12 337 -20 277 -20 C172 -16 126 -15 74 49 C39 93 14 164 13 210 C20 263 14 320 43 369 C45 373 46 378 47 383 C73 464 130 506 214 515 C227 515 243 520 251 520 C267 520 273 512 289 486 L289 486 Z M243 42 C243 44 250 44 257 44 C270 44 271 43 277 43 C374 43 390 232 388 290 C385 367 328 431 255 459 C250 460 245 461 240 461 C217 461 181 447 159 439 C88 416 70 256 72 196 C73 169 105 100 107 98 C131 77 152 52 186 48 L243 42 L243 42 Z " />
<glyph glyph-name="Otilde" unicode="&#xd5;" horiz-adv-x="471" d="M331 575 C287 575 248 589 211 609 C202 614 195 616 190 616 C175 616 159 569 134 569 C121 569 109 581 108 597 C107 629 170 667 204 667 C218 667 229 660 240 653 C265 637 291 631 319 631 C346 631 346 673 372 673 C390 673 397 658 398 637 C399 597 376 575 331 575 L331 575 Z M288 486 C343 479 363 466 387 426 C390 421 391 413 396 410 C430 387 434 330 438 303 C441 287 443 271 444 255 C444 242 444 228 439 214 C435 200 437 183 432 168 C420 133 417 93 400 60 C375 12 336 -20 276 -20 C171 -16 125 -15 73 49 C40 90 13 160 12 205 L12 210 C19 263 13 320 42 369 C44 373 45 378 46 383 C72 464 129 506 213 515 C226 515 242 520 250 520 C266 520 272 512 288 486 L288 486 Z M242 42 C242 45 263 44 267 44 C270 44 273 43 276 43 C373 43 389 232 387 290 C384 367 327 431 254 459 C249 460 244 461 239 461 C216 461 180 447 158 439 C87 416 69 256 71 196 C72 169 104 100 106 98 C130 77 151 52 185 48 L242 42 L242 42 Z " />
<glyph glyph-name="Odieresis" unicode="&#xd6;" horiz-adv-x="454" d="M215 633 C216 613 205 601 184 601 C166 601 149 616 148 636 C148 652 164 668 181 668 C196 668 214 649 215 633 L215 633 Z M348 631 C349 616 333 601 315 601 C300 601 287 616 286 633 C286 645 305 663 319 663 C331 663 348 645 348 631 L348 631 Z M281 484 C336 477 356 464 380 424 C383 419 384 411 389 408 C423 385 427 328 431 301 C434 285 436 269 437 253 C437 240 437 226 432 212 C428 198 431 181 425 166 C413 131 410 91 393 58 C368 10 329 -22 269 -22 C164 -18 118 -17 66 47 C33 88 6 158 5 203 L5 208 C12 261 6 318 35 367 C37 371 38 376 40 381 C65 462 122 504 206 513 C219 513 235 518 243 518 C259 518 265 510 281 484 L281 484 Z M235 40 C235 43 256 42 260 42 C263 42 266 41 269 41 C366 41 382 230 380 288 C377 365 320 429 247 457 C242 458 237 459 232 459 C209 459 173 445 151 437 C80 414 62 254 64 194 C65 167 97 98 99 96 C123 75 144 50 178 46 L235 40 L235 40 Z " />
<glyph glyph-name="multiply" unicode="&#xd7;" horiz-adv-x="343" d="M161 347 C204 410 208 477 260 531 C267 539 275 543 282 543 C292 543 302 533 302 519 C303 500 277 472 264 452 C239 412 221 354 200 307 C197 299 195 292 195 285 C195 278 198 270 204 263 C248 203 267 131 313 71 C319 63 324 53 325 44 C325 25 307 23 284 14 C267 24 256 38 250 56 C236 103 197 169 169 203 C134 157 103 86 96 25 C94 4 81 -6 64 -6 C45 -6 37 6 36 30 C35 59 62 122 71 135 C96 170 132 241 131 270 C128 338 11 457 7 481 C6 484 6 488 6 492 C6 502 10 516 26 516 C41 516 91 453 117 420 C134 396 145 370 161 347 L161 347 Z " />
<glyph glyph-name="Oslash" unicode="&#xd8;" horiz-adv-x="567" d="M424 603 C442 626 461 644 469 667 C474 680 483 687 496 687 C509 687 521 678 521 664 C522 628 474 576 461 558 C495 506 515 468 517 412 C518 390 515 368 516 346 C517 323 522 301 523 278 C524 223 507 145 469 97 C443 64 428 15 388 2 C352 -10 330 -22 296 -22 C241 -22 182 -9 160 30 C153 43 141 52 131 63 C93 47 75 -2 35 -25 C20 -25 15 -13 14 -2 C13 43 93 98 91 148 C90 175 68 210 67 244 C65 293 71 339 78 387 C93 508 199 673 304 673 C334 673 371 658 399 636 C408 628 414 617 424 603 L424 603 Z M167 118 C197 65 228 38 306 38 C358 38 378 61 413 111 C424 129 439 146 444 166 C455 209 469 252 468 297 C467 320 461 343 460 367 C459 409 460 482 426 497 C398 477 369 421 348 386 C331 358 311 334 284 317 C256 299 231 246 212 210 C197 181 183 151 167 118 L167 118 Z M338 612 L302 612 C222 612 172 497 135 424 C134 420 132 415 132 411 C133 367 120 327 121 285 C122 257 124 224 139 200 C166 243 186 287 219 322 C241 345 266 368 287 393 C320 436 383 522 382 554 C381 572 349 600 338 612 L338 612 Z " />
<glyph glyph-name="Ugrave" unicode="&#xd9;" horiz-adv-x="395" d="M230.368 510.215 C156.853 510.215 121.116 600.78 70.0632 635.161 C55.7684 646.063 53.7263 656.964 53.7263 669.543 C52.7053 682.121 65.9789 691.345 79.2526 691.345 C103.758 691.345 136.432 656.126 152.768 636.839 C179.316 603.296 245.684 558.013 246.705 538.726 C246.705 532.018 241.6 524.471 230.368 510.215 L230.368 510.215 Z M325 299 C324 348 304 396 302 444 C301 465 316 481 333 481 C348 481 358 473 361 459 C370 402 379 347 381 290 C383 230 363 173 365 113 C366 63 307 -5 242 -11 C226 -13 211 -14 195 -14 C109 -14 37 37 34 134 C33 156 40 180 40 203 C38 242 24 283 23 319 C22 332 23 346 22 359 C22 370 18 381 18 392 C17 416 42 486 55 491 C58 492 63 493 68 493 C79 493 90 487 90 475 C91 438 70 400 71 359 C73 316 92 266 94 219 C95 194 90 169 91 144 C93 85 143 45 201 45 C302 45 312 98 325 299 L325 299 Z " />
<glyph glyph-name="Uacute" unicode="&#xda;" horiz-adv-x="390" d="M215 703 C227 693 238 683 248 674 C245 657 240 646 227 639 C181 616 163 577 128 541 C123 536 117 533 111 533 C101 533 92 546 91 557 C94 585 107 617 129 634 C157 656 175 688 215 703 L215 703 Z M316 299 C315 348 295 396 293 444 C292 465 307 481 324 481 C339 481 349 473 352 459 C361 402 370 347 372 290 C374 230 354 173 356 113 C357 63 298 -5 233 -11 C217 -13 202 -14 186 -14 C100 -14 28 37 25 134 C24 156 31 180 31 203 C29 242 15 283 14 319 C13 332 14 346 13 359 C13 370 9 381 9 392 C8 416 33 486 46 491 C49 492 54 493 59 493 C70 493 81 487 81 475 C82 438 61 400 62 359 C64 316 83 266 85 219 C86 194 81 169 82 144 C84 85 134 45 192 45 C293 45 303 98 316 299 L316 299 Z " />
<glyph glyph-name="Ucircumflex" unicode="&#xdb;" horiz-adv-x="402" d="M199 639 C174 633 164 618 153 604 C133 579 90 537 68 537 C56 537 45 551 45 567 C45 600 101 630 128 666 C144 687 163 707 187 721 C218 707 242 687 262 663 C277 645 291 626 313 618 C325 613 332 602 333 588 C334 571 322 558 306 558 C265 558 224 613 199 639 L199 639 Z M321 299 C320 348 300 396 298 444 C297 465 312 481 329 481 C344 481 354 473 357 459 C366 402 375 347 377 290 C379 230 359 173 361 113 C362 63 303 -5 238 -11 C222 -13 207 -14 191 -14 C105 -14 33 37 30 134 C29 156 36 180 36 203 C34 242 20 283 19 319 C18 332 19 346 18 359 C18 370 14 381 14 392 C13 416 38 486 51 491 C54 492 59 493 64 493 C75 493 86 487 86 475 C87 438 66 400 67 359 C69 316 88 266 90 219 C91 194 86 169 87 144 C89 85 139 45 197 45 C298 45 308 98 321 299 L321 299 Z " />
<glyph glyph-name="Udieresis" unicode="&#xdc;" horiz-adv-x="392" d="M174 608 C175 588 164 576 143 576 C125 576 108 591 107 611 C107 627 123 643 140 643 C155 643 173 624 174 608 L174 608 Z M307 606 C308 591 292 576 274 576 C259 576 246 591 245 608 C245 620 264 638 278 638 C290 638 307 620 307 606 L307 606 Z M313 297 L313 309 C311 354 292 398 290 442 C289 463 304 479 321 479 C336 479 346 471 349 457 C358 400 367 345 369 288 C371 228 351 171 353 111 C355 61 295 -7 230 -13 C214 -15 199 -16 183 -16 C97 -16 25 35 22 132 C21 154 28 178 28 201 C26 240 12 281 11 317 C10 330 11 344 10 357 C10 368 6 379 6 390 C5 414 30 484 43 489 C47 490 51 491 56 491 C67 491 78 485 78 473 C79 436 58 398 59 357 C61 314 80 264 82 217 C83 192 78 167 79 142 C81 83 131 43 189 43 C290 43 300 96 313 297 L313 297 Z " />
<glyph glyph-name="Yacute" unicode="&#xdd;" horiz-adv-x="448" d="M254 402 C291 448 340 491 365 533 C374 546 390 558 407 558 C421 558 432 548 432 535 C433 503 379 459 351 426 C324 395 291 363 293 321 C295 269 291 217 293 165 C294 152 298 141 299 128 C299 108 293 89 294 69 C294 58 296 47 297 37 C297 19 286 2 266 2 C242 2 228 23 227 49 C226 80 238 113 237 146 C236 169 231 192 231 215 C230 235 235 252 235 269 C232 352 157 406 92 459 C62 483 -11 507 -12 546 C-12 559 -3 568 10 568 C48 568 110 515 136 495 C174 464 212 435 254 402 L254 402 Z M341 747 C355 741 371 726 371 710 C372 691 358 683 344 676 C328 667 314 653 299 642 C274 626 239 597 215 597 C199 597 193 610 192 625 C191 660 269 685 291 709 C306 725 319 741 341 747 L341 747 Z " />
<glyph glyph-name="germandbls" unicode="&#xdf;" horiz-adv-x="421" d="M259 470 C345 408 391 379 394 300 C396 255 389 207 389 160 C388 125 380 91 358 64 C328 27 301 -27 246 -27 C224 -27 201 -25 200 3 C200 13 204 23 215 25 C251 33 268 61 292 87 C318 117 323 150 324 189 C324 227 331 266 330 305 C329 331 316 352 294 367 C262 388 233 416 194 424 C179 427 162 442 162 455 C160 501 282 570 280 608 C279 632 262 630 230 649 C219 656 209 658 198 658 C92 658 107 519 106 472 C101 405 99 335 101 269 C102 243 105 218 106 192 C108 142 98 97 100 48 C101 25 101 -22 71 -22 C55 -22 40 -11 39 3 C38 36 42 71 41 105 C38 196 41 284 43 373 C43 381 44 390 44 398 C42 410 42 421 41 433 C39 493 39 592 58 625 C73 652 97 697 120 704 C147 712 174 720 202 720 C254 720 348 683 350 613 C352 556 286 508 259 470 L259 470 Z " />
<glyph glyph-name="agrave" unicode="&#xe0;" horiz-adv-x="433" d="M340 303 C337 387 338 455 266 455 C225 455 185 445 152 421 C139 412 120 397 108 397 C99 397 87 405 86 415 C85 463 151 471 179 500 C180 503 180 506 180 509 C179 533 133 589 128 606 C125 611 124 616 124 620 C124 634 134 643 147 643 C179 643 219 577 234 551 C245 529 260 518 289 518 L294 518 C398 518 397 355 407 299 C409 294 409 288 409 283 C410 252 397 221 398 190 C398 185 403 180 403 175 C405 119 388 60 384 2 C382 -24 370 -36 351 -36 C332 -36 313 -29 312 -11 C312 -8 313 -5 314 -1 C323 34 328 62 329 103 C321 94 316 90 312 84 C273 26 207 -32 130 -32 C106 -32 66 1 41 20 C18 37 9 56 8 78 C4 183 130 274 243 285 C275 288 307 297 340 303 L340 303 Z M324 231 C307 237 300 238 289 238 C242 238 181 224 149 194 C132 178 115 160 98 146 C81 133 72 106 73 87 C74 63 138 33 146 33 C213 33 301 122 313 205 C313 213 318 220 324 231 L324 231 Z " />
<glyph glyph-name="aacute" unicode="&#xe1;" horiz-adv-x="409" d="M268 534 C305 506 321 497 336 467 C351 435 363 404 364 370 C366 320 350 259 352 208 C352 191 359 175 360 156 L360 138 C361 111 365 83 366 56 C367 14 367 -33 327 -33 C308 -33 298 -24 297 -9 C297 12 304 37 303 60 C302 77 302 113 293 123 C263 115 249 66 212 44 C191 31 155 -2 142 -2 C119 -3 97 -8 74 -8 C38 -8 5 10 3 45 C1 109 50 154 79 204 C124 280 212 296 295 321 C302 335 306 350 305 365 C303 417 279 457 234 477 C207 472 180 468 153 460 C104 446 65 407 21 393 C19 392 17 392 15 392 C2 392 -7 400 -7 410 C-9 444 107 498 171 519 C190 525 204 544 220 558 C223 561 224 567 228 569 C266 585 280 658 322 658 C343 658 351 635 351 620 C349 604 297 562 268 534 L268 534 Z M292 245 C286 246 282 247 280 247 C164 247 118 167 83 106 C76 93 67 79 69 61 C69 49 90 48 98 48 C167 48 214 144 262 173 C288 190 294 207 292 245 L292 245 Z " />
<glyph glyph-name="acircumflex" unicode="&#xe2;" horiz-adv-x="455" d="M333 306 C333 332 334 358 333 383 C331 436 298 476 247 476 C213 476 170 444 130 432 C91 420 56 369 26 369 C13 369 5 379 5 394 C7 452 158 503 178 516 C199 530 220 535 246 534 C337 531 388 472 391 372 C395 262 380 169 373 73 L373 68 C373 59 376 49 376 40 C375 14 377 -22 348 -22 C328 -22 312 0 312 21 C311 45 317 75 316 102 L309 102 C309 102 254 58 242 48 C201 18 146 -23 94 -23 C71 -23 33 -17 31 29 C30 79 29 157 65 193 C117 246 187 288 261 288 L276 288 C295 288 313 293 333 306 L333 306 Z M94 43 C97 43 100 42 104 42 C154 42 185 78 222 99 C268 125 286 174 317 215 C320 218 320 225 320 231 C308 233 297 233 286 233 C212 233 153 197 100 149 C86 135 85 104 86 82 C86 70 88 57 94 43 L94 43 Z M62 554 L62 557 C61 581 133 623 166 648 C190 667 221 700 245 700 C281 700 404 607 416 593 C420 587 422 580 422 574 C423 557 408 542 390 542 C376 542 356 556 344 569 C323 590 257 629 244 629 C213 629 111 524 89 524 C74 524 64 535 62 554 L62 554 Z " />
<glyph glyph-name="atilde" unicode="&#xe3;" horiz-adv-x="415" d="M303 328 C305 348 307 368 306 388 C304 452 264 495 212 495 C173 495 146 465 116 438 C110 433 102 427 94 427 C84 427 73 438 72 447 C71 485 156 543 209 543 C287 543 352 492 355 404 C356 385 353 366 354 348 C355 322 383 311 384 293 C384 287 382 282 379 277 C364 251 362 223 363 194 C364 176 367 157 367 138 C369 83 364 30 358 -24 C345 -35 335 -44 326 -44 C313 -44 302 -31 301 -14 C301 -10 302 -6 303 -2 C311 38 314 78 313 119 C312 134 311 145 307 162 C274 150 250 103 223 72 C190 32 146 -8 85 -8 C51 -8 8 17 7 50 C7 55 8 59 9 64 C44 197 155 280 283 317 C290 319 296 321 303 328 L303 328 Z M309 266 C301 267 294 268 287 268 C217 268 154 216 108 166 C85 141 60 93 61 62 C61 47 74 39 95 39 C157 39 240 166 299 237 C303 244 305 254 309 266 L309 266 Z M282 575 C238 575 199 589 162 609 C153 614 146 616 141 616 C126 616 110 569 85 569 C72 569 60 581 59 597 C58 629 121 667 155 667 C169 667 180 660 191 653 C216 637 242 631 270 631 C297 631 297 673 323 673 C341 673 348 658 349 637 C350 597 327 575 282 575 L282 575 Z " />
<glyph glyph-name="adieresis" unicode="&#xe4;" horiz-adv-x="418" d="M312 137 C270 98 241 91 214 56 C184 18 123 -24 88 -24 C34 -24 18 19 16 70 C14 133 48 199 105 246 C147 280 212 304 266 304 C321 304 326 310 324 360 C322 424 319 477 247 477 C213 477 181 466 151 454 C116 440 79 430 48 408 C41 401 23 396 17 396 C9 396 -2 409 -3 422 C-4 454 123 509 194 525 C223 532 254 535 285 535 C316 535 370 487 373 442 C375 415 380 388 381 361 C385 252 365 161 369 62 C369 54 369 46 370 38 L370 24 C370 19 370 15 371 11 C371 -7 367 -24 343 -24 C316 -24 311 5 310 27 C309 61 311 95 312 137 L312 137 Z M89 40 C127 52 155 75 182 100 C192 109 202 121 213 128 C253 151 312 215 312 238 C311 251 298 247 289 247 C191 247 73 194 77 88 C77 73 81 57 89 40 L89 40 Z M137 581 C116 581 99 595 99 612 C98 631 115 647 131 647 C148 647 166 628 167 612 C167 592 158 581 137 581 L137 581 Z M316 572 C294 572 282 583 281 598 C280 618 297 638 315 638 C329 638 347 616 348 603 C348 587 333 572 316 572 L316 572 Z " />
<glyph glyph-name="aring" unicode="&#xe5;" horiz-adv-x="454" d="M346 517 C379 465 403 438 405 387 C406 357 400 327 401 298 C403 242 416 187 418 130 C419 82 420 -21 380 -21 C360 -21 346 -11 345 10 C344 41 359 82 359 107 C358 118 355 129 349 140 C332 137 318 130 311 115 C291 71 242 57 208 23 C166 -17 114 -32 57 -32 C29 -32 10 -12 9 15 L9 27 C36 164 132 290 302 297 C313 298 324 299 336 300 C343 322 346 344 346 366 C344 400 321 475 283 475 C268 475 249 473 233 472 C230 472 226 473 223 473 C222 473 220 473 219 472 C195 458 167 456 145 439 C123 422 77 399 55 399 C42 399 35 406 35 416 C34 442 65 453 82 461 C114 474 140 493 162 516 C157 540 148 566 147 588 C146 614 167 631 178 652 C194 685 236 702 269 702 C286 702 328 678 351 662 C371 648 381 629 382 609 C383 580 362 549 346 517 L346 517 Z M339 218 C331 231 322 234 310 234 C277 231 243 233 215 212 C212 210 209 208 205 207 C145 184 104 140 81 80 C77 69 72 58 73 47 C73 31 85 27 94 27 C100 27 106 29 112 32 C166 57 219 89 257 136 C272 155 286 171 306 185 C318 193 332 199 339 218 L339 218 Z M321 616 C303 629 275 638 255 638 C230 638 206 600 207 578 C208 556 227 538 248 538 C289 542 316 571 321 616 L321 616 Z " />
<glyph glyph-name="ccedilla" unicode="&#xe7;" horiz-adv-x="324" d="M52 195 C63 132 92 27 173 27 C223 27 261 69 302 95 C302 96 303 96 305 96 C312 96 319 91 319 83 C320 59 294 31 278 17 C250 -8 208 -28 171 -28 C124 -28 62 20 51 40 C23 93 2 143 0 200 C-4 317 76 483 152 504 C178 511 210 524 238 524 C269 524 310 495 310 469 C311 456 301 448 291 448 C268 448 251 477 228 477 C119 477 47 313 51 204 C51 201 52 198 52 195 L52 195 Z M193 -228 C182 -239 179 -240 171 -240 C152 -240 151 -217 147 -190 L147 -174 C145 -127 133 -97 131 -41 C130 -12 133 22 159 22 C179 22 187 12 188 -3 C188 -24 187 -45 188 -66 C189 -100 193 -137 194 -168 C195 -190 193 -204 193 -228 L193 -228 Z " />
<glyph glyph-name="egrave" unicode="&#xe8;" horiz-adv-x="396" d="M341 131 C343 125 346 120 347 117 C348 88 316 57 302 33 C281 -1 255 -10 206 -10 C169 -10 115 -4 98 30 C74 76 36 140 34 186 C34 192 35 197 35 203 C34 232 11 250 7 278 C6 299 30 309 33 335 C39 395 77 469 141 482 C129 506 124 528 109 546 C102 554 99 563 99 570 C98 588 115 605 130 605 C158 605 177 541 186 528 C202 506 216 484 247 480 C280 475 293 451 327 432 C373 412 356 354 382 313 C387 302 389 289 389 280 C390 255 371 243 325 243 C308 243 290 245 273 245 C246 245 219 241 192 241 C169 241 142 247 122 247 C112 247 93 243 94 209 C96 169 121 122 135 83 C144 55 175 50 202 50 C232 50 257 61 280 85 C296 102 311 122 341 131 L341 131 Z M315 314 C309 338 308 363 291 382 C265 411 230 431 189 431 C123 431 101 372 93 320 C93 307 132 306 162 306 C217 306 260 309 315 314 L315 314 Z " />
<glyph glyph-name="eacute" unicode="&#xe9;" horiz-adv-x="370" d="M288 117 C290 110 291 105 291 99 C293 48 200 -5 164 -5 C106 -5 29 91 18 121 C7 148 3 176 2 205 C1 232 1 259 12 286 C15 297 23 307 25 319 C28 358 53 385 71 417 C86 443 117 481 141 488 C194 504 235 559 271 597 C283 610 298 613 313 613 C325 613 340 598 340 585 C341 554 254 510 255 488 C255 479 274 452 286 437 C322 389 337 330 339 272 C340 254 328 243 309 243 C234 243 156 243 82 234 C62 231 61 225 62 198 C64 147 82 130 136 78 C148 66 160 61 173 61 C210 61 247 109 288 117 L288 117 Z M82 299 C101 300 118 303 134 303 C146 303 157 301 169 301 C202 301 269 306 268 327 C267 371 222 439 187 439 C132 439 89 331 82 299 L82 299 Z " />
<glyph glyph-name="ecircumflex" unicode="&#xea;" horiz-adv-x="426" d="M394 245 C379 250 365 252 350 252 C323 252 295 244 267 244 C232 244 196 250 159 250 C124 250 79 248 79 228 C80 226 80 224 81 222 C94 169 103 115 141 72 C153 58 156 34 176 34 C226 34 244 94 267 94 C278 94 284 91 285 65 C287 7 218 -29 165 -29 C69 -29 16 207 16 207 C14 268 22 331 35 391 C54 486 144 495 236 508 C240 509 244 509 248 509 C281 509 329 468 343 445 C368 400 390 353 415 307 C418 299 420 292 420 285 C421 270 413 256 394 245 L394 245 Z M340 324 C312 380 294 449 231 449 C148 449 84 410 88 310 C98 306 107 305 117 305 C152 305 188 311 224 311 C240 311 256 308 272 308 C295 308 316 313 340 324 L340 324 Z M206 624 C157 612 124 522 74 522 C62 522 52 536 51 552 C50 585 108 615 135 651 C150 672 169 692 194 706 C224 692 248 672 269 648 C283 630 297 611 319 603 C332 598 339 586 339 573 C340 556 328 543 312 543 C271 543 231 598 206 624 L206 624 Z " />
<glyph glyph-name="edieresis" unicode="&#xeb;" horiz-adv-x="398" d="M15 188 C15 248 10 305 24 340 C46 397 63 445 114 474 C141 489 163 512 199 512 C281 512 326 401 365 347 C379 326 389 293 389 270 C390 252 372 236 352 236 C350 236 348 236 346 237 C313 243 280 245 247 245 C199 245 151 241 102 241 C74 241 76 210 77 185 C79 127 118 45 177 45 C210 45 239 70 275 99 C280 107 291 111 298 111 C311 111 318 97 319 88 C319 83 318 79 315 74 C281 28 241 -19 169 -19 C84 -19 18 96 15 188 L15 188 Z M316 306 C284 365 237 447 195 447 C186 447 176 444 165 439 C108 410 88 358 79 297 C92 293 103 292 115 292 C143 292 168 299 195 299 C233 299 271 303 316 306 L316 306 Z M253 565 C260 588 288 602 308 602 C324 602 335 582 336 569 C336 552 320 537 303 537 C283 537 266 550 253 565 L253 565 Z M108 624 C121 624 139 608 139 591 C140 574 127 556 111 556 C94 556 76 573 75 592 C75 607 91 623 108 624 L108 624 Z " />
<glyph glyph-name="igrave" unicode="&#xec;" horiz-adv-x="191" d="M88 23 C86 77 95 131 93 186 C91 221 82 255 81 289 L81 292 C89 351 97 410 105 468 C104 490 123 503 138 503 C151 503 170 494 170 479 L170 473 C160 413 141 346 143 292 C144 255 151 218 153 181 C154 158 151 136 152 113 C153 99 155 86 156 72 C157 34 156 -22 118 -22 C95 -22 89 -7 88 23 L88 23 Z M109 532 C66 553 -15 604 -16 634 C-17 648 -2 664 13 664 C49 664 109 609 135 584 C142 577 146 569 147 560 C147 533 128 534 109 532 L109 532 Z " />
<glyph glyph-name="iacute" unicode="&#xed;" horiz-adv-x="228" d="M31 12 C25 51 15 88 14 125 C12 178 11 232 23 284 C32 330 26 375 35 419 C39 455 42 497 68 497 C88 497 94 470 95 455 C96 429 80 403 81 376 C82 360 89 343 89 327 C89 316 88 304 84 293 C69 242 72 186 74 136 C75 107 89 76 92 43 C93 22 77 1 65 1 C57 1 44 6 31 12 L31 12 Z M180 690 C195 684 210 669 211 653 C211 634 198 626 184 619 C167 610 154 596 138 585 C114 569 79 540 55 540 C39 540 32 553 32 568 C30 603 109 628 131 652 C145 668 159 684 180 690 L180 690 Z " />
<glyph glyph-name="icircumflex" unicode="&#xee;" horiz-adv-x="269" d="M174 440 C168 398 161 354 163 310 C163 307 164 305 164 303 C162 282 162 262 163 242 C164 207 167 173 169 139 C169 116 168 94 169 72 C169 61 170 50 170 39 C171 15 169 -13 139 -13 C116 -13 103 4 102 26 C102 31 103 37 104 43 C111 92 105 141 106 190 C106 240 107 292 105 343 C105 350 104 356 104 363 C104 366 103 369 104 372 C112 398 113 424 112 450 C111 462 111 473 110 485 C111 504 120 516 133 516 C165 516 168 470 174 440 L174 440 Z M129 608 C97 572 47 504 19 504 C6 504 -12 516 -12 530 C-13 566 91 665 102 676 C109 682 115 685 123 685 C153 685 253 592 253 571 C254 553 238 538 220 538 C197 538 159 581 129 608 L129 608 Z " />
<glyph glyph-name="idieresis" unicode="&#xef;" horiz-adv-x="196" d="M103 515 C109 443 118 372 120 302 C122 259 119 217 121 175 L121 159 C122 138 111 114 112 91 C113 64 121 37 121 11 C122 -9 108 -22 91 -22 C50 -22 49 31 47 71 C46 107 63 143 62 177 C62 181 61 184 61 188 C60 228 66 267 64 306 C62 363 52 419 50 477 C50 496 60 511 103 515 L103 515 Z M121 582 C119 590 117 597 117 604 C116 623 128 633 150 633 C168 633 179 622 180 605 C180 590 166 578 149 578 C140 578 131 580 121 582 L121 582 Z M14 562 C-5 576 -15 586 -15 597 C-16 617 0 625 16 625 C35 625 43 614 44 597 C45 580 31 571 14 562 L14 562 Z " />
<glyph glyph-name="eth" unicode="&#xf0;" horiz-adv-x="384" d="M158 547 C134 572 108 585 77 593 C62 597 48 605 47 625 C47 642 67 650 86 650 C107 650 157 630 179 609 C186 595 212 587 220 587 C232 587 243 594 256 610 C267 626 311 648 318 648 C330 648 341 631 341 621 C342 596 283 559 262 544 C316 464 357 396 361 302 C362 253 339 221 327 169 C321 142 299 91 282 82 C235 51 178 1 131 1 C52 1 35 56 18 107 C17 111 16 115 16 119 C15 154 54 228 65 242 C87 272 109 304 133 332 C147 349 172 358 189 374 C210 393 229 416 253 438 C249 463 232 481 212 498 C166 482 142 423 105 423 C93 423 77 433 77 446 C75 479 122 514 158 547 L158 547 Z M281 370 C230 327 179 291 140 242 C113 208 100 167 87 126 C85 122 85 118 85 114 C86 94 105 68 124 68 C147 68 182 95 207 111 C257 141 252 177 280 236 C290 259 296 283 295 309 C295 328 290 348 281 370 L281 370 Z " />
<glyph glyph-name="ntilde" unicode="&#xf1;" horiz-adv-x="422" d="M105 333 C167 386 197 421 247 481 C261 497 278 509 300 509 C305 509 311 507 317 507 C326 507 336 511 346 511 C378 511 378 471 379 434 C381 372 370 309 364 247 C363 245 363 243 363 241 C364 220 373 199 374 177 C374 170 375 163 374 155 C379 140 381 126 381 111 C383 66 390 -11 353 -11 C327 -11 322 3 321 27 C320 54 325 81 324 108 C323 151 307 194 306 235 C305 269 319 299 318 334 C317 362 323 391 322 419 C321 431 315 441 303 441 C265 441 207 348 188 332 C122 278 92 199 95 116 C96 88 100 60 101 32 C102 12 91 -8 71 -8 C50 -8 34 11 33 31 C32 53 41 72 40 93 C40 104 33 114 33 126 C31 182 47 240 45 296 C43 355 30 413 28 471 C29 491 40 508 64 508 C80 508 88 458 89 433 C90 402 98 372 105 333 L105 333 Z M272 574 C228 574 191 588 152 608 C143 613 138 615 133 615 C116 615 100 567 75 567 C61 567 50 582 49 597 C49 601 50 605 53 608 C77 635 99 665 139 665 C156 665 169 661 182 652 C206 636 232 629 261 629 C289 629 289 672 315 672 C333 672 339 656 340 636 C341 595 318 574 272 574 L272 574 Z " />
<glyph glyph-name="ograve" unicode="&#xf2;" horiz-adv-x="472" d="M166 507 C134 538 85 569 83 611 C83 625 95 634 105 634 C141 634 159 588 186 569 C219 545 255 510 287 510 C328 510 371 457 402 418 C437 374 458 293 460 249 C462 196 447 141 432 93 C410 19 308 -38 246 -38 C159 -38 116 -17 68 34 C49 54 42 89 37 114 C31 146 21 177 19 209 C16 319 55 446 155 500 C158 501 161 503 166 507 L166 507 Z M244 27 C284 29 344 57 370 104 C393 146 400 212 399 251 C397 294 386 330 362 374 C341 410 282 460 264 460 C239 460 174 438 162 428 C104 383 74 295 77 232 C78 185 100 94 125 66 C154 33 192 27 244 27 L244 27 Z " />
<glyph glyph-name="oacute" unicode="&#xf3;" horiz-adv-x="458" d="M215 -33 C156 -24 58 17 48 59 C46 63 44 69 41 72 C9 103 1 180 1 204 C-1 286 44 413 104 447 C147 468 203 481 234 509 C252 526 274 540 292 559 C318 585 355 637 380 637 C398 637 409 627 409 614 C410 584 320 529 321 510 C322 482 399 449 403 386 C404 376 408 365 412 355 C422 327 428 298 429 270 C433 162 372 33 278 -13 C258 -23 234 -27 215 -33 L215 -33 Z M257 458 C238 450 221 439 204 436 C171 430 125 398 114 382 C81 331 56 267 59 203 C61 133 113 37 207 37 C326 37 378 218 376 275 C375 311 350 388 338 402 C316 427 294 451 257 458 L257 458 Z " />
<glyph glyph-name="ocircumflex" unicode="&#xf4;" horiz-adv-x="453" d="M16 237 C16 248 13 258 13 269 C13 286 13 303 17 319 C20 331 35 340 37 351 C46 436 140 493 187 505 C207 510 225 512 245 512 C376 512 425 348 428 263 C429 235 414 208 415 183 L415 169 C419 59 321 -18 217 -18 C147 -18 45 9 37 99 C35 113 30 127 27 140 C22 172 18 205 14 237 L16 237 L16 237 Z M366 308 C348 374 310 457 231 457 C148 457 125 395 86 339 C70 318 63 295 64 271 C65 230 82 184 86 141 C93 73 121 60 188 47 C198 44 209 43 219 43 C310 43 353 108 354 162 C354 203 370 243 368 285 C368 292 367 300 366 308 L366 308 Z M374 519 C322 527 290 567 240 601 C229 609 221 613 213 613 C189 613 110 528 88 515 C84 513 80 512 77 512 C65 512 56 521 56 535 C55 551 64 565 76 574 C98 588 110 614 137 622 C151 629 175 690 211 690 C237 690 277 652 306 631 C343 604 405 575 407 540 C407 527 395 519 374 519 L374 519 Z " />
<glyph glyph-name="otilde" unicode="&#xf5;" horiz-adv-x="400" d="M374 238 C376 228 377 219 377 210 C380 147 352 101 317 58 C272 3 233 -13 173 -13 C106 -13 31 55 29 120 C28 125 28 129 28 134 C27 162 20 188 19 216 C18 240 22 263 31 286 C32 289 34 292 33 296 C42 468 189 502 195 502 C216 502 232 483 253 481 C332 473 371 329 374 238 L374 238 Z M68 201 C78 140 97 36 175 36 C292 36 329 157 326 246 C325 285 320 337 294 366 C280 381 268 395 263 415 C257 440 224 447 203 447 C119 447 65 287 68 201 L68 201 Z M271 595 C227 595 188 609 151 629 C142 634 135 636 130 636 C115 636 99 589 74 589 C61 589 49 601 48 617 C47 649 110 687 144 687 C158 687 169 680 180 673 C205 657 231 651 259 651 C286 651 286 693 312 693 C330 693 337 678 338 657 C339 617 316 595 271 595 L271 595 Z " />
<glyph glyph-name="odieresis" unicode="&#xf6;" horiz-adv-x="448" d="M11 198 C15 232 26 279 25 303 C23 358 49 426 81 456 C87 462 97 463 101 469 C134 509 211 532 251 532 C278 532 308 502 345 485 C392 463 400 418 410 374 C414 345 424 319 425 294 C427 237 404 183 392 129 C364 26 301 -22 211 -22 C167 -22 91 -13 73 33 C45 91 13 135 11 198 L11 198 Z M194 42 C203 42 210 41 216 41 C307 41 332 125 355 206 C364 236 367 267 366 297 C364 338 354 410 329 426 C300 444 273 471 244 471 C197 471 154 443 119 418 C87 396 85 299 79 272 C74 253 73 234 73 216 C75 157 103 42 170 42 L188 42 L194 42 L194 42 Z M379 597 C380 577 365 560 346 560 C333 560 306 571 305 591 C305 610 330 624 346 624 C363 624 369 615 379 597 L379 597 Z M155 611 C155 594 141 577 126 577 C111 577 97 592 97 608 C96 621 113 638 127 638 C142 638 153 627 155 611 L155 611 Z " />
<glyph glyph-name="ugrave" unicode="&#xf9;" horiz-adv-x="429" d="M102 476 C91 447 88 417 89 387 C90 351 97 316 98 280 C100 230 93 180 95 130 C96 94 127 69 167 69 C191 69 215 72 227 97 C256 156 304 190 315 258 C325 316 327 375 332 435 C334 458 339 490 366 490 C392 490 392 467 393 438 C394 415 392 391 392 368 C394 319 407 270 408 222 C409 200 406 179 407 157 C408 118 415 79 417 40 C418 15 406 2 385 2 C378 2 371 3 363 9 C345 56 355 104 345 154 C308 139 297 92 277 61 C253 24 219 6 177 6 C156 6 134 11 116 16 C57 31 51 34 30 130 C29 133 27 137 27 140 C26 164 39 189 39 214 C39 236 39 259 38 281 C37 310 32 340 31 368 C30 417 41 493 78 493 C88 493 95 486 102 476 L102 476 Z M69 614 C75 636 82 646 94 646 C109 646 170 613 174 605 C193 567 254 548 255 520 C255 507 246 491 225 491 C173 491 89 588 69 614 L69 614 Z " />
<glyph glyph-name="uacute" unicode="&#xfa;" horiz-adv-x="410" d="M302 236 C280 182 236 146 214 93 C195 48 133 -9 89 -9 C41 -9 18 37 16 85 C12 192 12 300 11 407 C11 436 16 479 42 479 C58 479 66 473 66 457 C67 421 64 383 65 346 C67 299 73 252 75 206 C76 166 73 125 74 85 C75 76 77 68 86 61 C118 69 149 88 164 120 C197 189 256 242 272 317 C273 321 274 324 276 327 C311 375 295 418 306 478 C310 494 322 503 335 503 C355 503 366 489 367 474 C368 423 362 372 364 321 C366 256 369 190 375 127 C375 106 380 86 381 66 C382 42 384 2 354 2 C328 2 321 31 318 52 C317 92 319 133 317 174 C316 195 312 216 302 236 L302 236 Z M278 661 C289 651 301 641 311 632 C308 615 303 604 289 597 C244 574 226 535 191 499 C186 494 180 491 174 491 C164 491 154 504 153 515 C156 543 170 575 192 592 C220 614 238 646 278 661 L278 661 Z " />
<glyph glyph-name="ucircumflex" unicode="&#xfb;" horiz-adv-x="427" d="M117 66 C164 66 185 121 209 161 C225 188 240 216 255 244 C259 250 263 256 265 262 C272 302 293 335 308 370 C324 404 323 491 358 491 C376 491 384 484 385 468 L385 445 C385 427 387 409 388 392 C389 351 378 309 379 269 C380 250 383 232 384 213 C385 188 378 163 379 138 C379 111 387 83 388 55 C389 32 378 22 350 15 C315 35 318 98 317 120 C316 145 318 170 328 194 C329 198 329 203 329 207 C329 223 320 237 319 254 C276 161 236 44 139 6 C130 2 122 1 114 1 C29 1 45 142 33 220 C29 245 26 270 25 295 C23 352 36 409 46 464 C49 485 62 496 72 496 C91 496 103 480 103 469 C104 440 87 401 82 371 C78 350 76 329 77 307 C77 283 89 256 90 235 C90 226 89 216 89 207 C90 176 98 146 100 115 C101 99 102 81 117 66 L117 66 Z M195 608 C162 583 114 532 88 532 C72 532 57 544 57 560 C56 589 132 617 155 641 C169 661 189 669 211 669 C216 669 222 669 227 668 C256 638 291 617 330 604 C351 597 359 580 370 564 C356 542 344 531 329 531 C299 531 217 593 195 608 L195 608 Z " />
<glyph glyph-name="udieresis" unicode="&#xfc;" horiz-adv-x="408" d="M111 47 C138 57 149 83 160 103 C189 156 226 204 249 259 C272 316 306 402 307 440 L304 473 C306 492 316 504 332 504 C348 504 365 488 365 473 C366 464 364 454 364 445 C366 408 377 370 378 333 C381 264 377 197 375 129 C377 98 379 67 380 36 C381 13 366 5 342 5 C323 5 315 44 314 74 C313 119 325 163 324 211 C323 234 320 258 316 284 C267 187 236 134 200 59 C181 20 149 -16 114 -16 C75 -16 27 31 25 75 C25 90 29 107 29 123 C27 161 19 201 18 240 C17 262 22 285 21 306 C21 324 15 342 14 360 C13 403 16 507 48 507 C68 507 77 495 77 478 C73 428 67 379 68 331 C70 294 74 257 77 221 C81 175 81 130 86 85 C88 63 88 63 111 47 L111 47 Z M262 580 C241 580 229 592 229 612 C228 630 241 645 259 645 C279 645 296 626 297 608 C297 592 280 580 262 580 L262 580 Z M133 633 C149 625 161 621 162 601 C163 584 146 575 128 575 C111 575 105 586 104 597 C104 614 116 620 133 633 L133 633 Z " />
<glyph glyph-name="yacute" unicode="&#xfd;" horiz-adv-x="331" d="M156 131 C233 238 233 311 273 479 C276 497 283 521 302 521 C323 521 327 511 328 481 C329 449 316 400 305 367 C281 295 279 224 240 155 C201 88 196 9 177 -67 C163 -124 143 -243 103 -244 C87 -244 74 -230 73 -211 C73 -208 73 -205 74 -202 C89 -147 103 -92 119 -38 C122 -29 124 -21 123 -13 C123 -6 122 1 119 9 C107 37 104 67 98 97 C75 208 48 318 19 427 C12 451 -1 474 -2 502 C-2 514 8 522 23 522 C68 522 102 325 117 263 C127 221 135 149 156 131 L156 131 Z M251 744 C265 738 281 723 281 707 C282 688 268 680 255 673 C238 664 224 650 209 639 C184 623 149 594 125 594 C109 594 103 607 102 622 C101 657 179 682 202 706 C216 722 229 738 251 744 L251 744 Z " />
<glyph glyph-name="ydieresis" unicode="&#xff;" horiz-adv-x="405" d="M391 474 C388 403 346 315 320 237 C291 145 261 56 241 -39 C227 -106 193 -250 158 -250 C146 -250 125 -239 124 -220 C124 -195 139 -169 149 -147 C170 -100 187 -25 185 21 C184 40 180 60 171 79 C145 136 125 196 91 250 C73 278 67 316 50 350 C30 388 -11 449 -12 486 C-13 500 -2 516 14 516 C45 516 59 466 76 434 C92 401 119 358 125 332 C132 299 151 270 167 240 C187 204 199 166 219 128 C232 147 238 165 243 184 C271 277 299 372 328 466 C334 482 343 490 355 490 C366 490 373 487 391 474 L391 474 Z M161 588 C162 568 151 556 130 556 C110 556 96 572 95 593 C95 608 111 623 128 623 C143 623 161 604 161 588 L161 588 Z M294 586 C295 571 280 556 262 556 C248 556 234 572 232 587 C232 599 252 618 265 618 C277 618 294 600 294 586 L294 586 Z " />
<glyph glyph-name="Ydieresis" unicode="&#x178;" horiz-adv-x="445" d="M200 630 C201 610 190 598 169 598 C151 598 134 613 133 633 C133 649 149 665 166 665 C181 665 199 646 200 630 L200 630 Z M333 628 C334 613 318 598 300 598 C285 598 272 613 271 630 C271 642 290 660 304 660 C316 660 333 642 333 628 L333 628 Z M253 383 C289 428 338 469 364 514 C373 528 389 539 406 539 C419 539 431 529 431 516 C432 486 378 440 350 407 C323 376 290 346 292 302 C293 250 290 198 292 146 C292 134 297 122 297 110 C298 90 292 70 292 51 C293 40 295 29 295 19 C296 0 284 -16 264 -16 C239 -16 227 9 226 31 C225 60 237 93 236 125 C235 149 230 173 229 197 C229 217 234 234 233 251 C230 337 151 392 91 440 C60 464 -12 491 -13 527 C-14 540 -3 550 9 550 C44 550 112 498 135 476 C173 446 211 416 253 383 L253 383 Z " />
<glyph glyph-name="circumflex" unicode="&#x2c6;" horiz-adv-x="302" d="M154 638 C129 632 119 617 108 603 C88 578 45 536 23 536 C11 536 0 550 0 566 C0 599 56 629 83 665 C99 686 118 706 142 720 C173 706 197 686 217 662 C232 644 246 625 268 617 C280 612 287 601 288 587 C289 570 277 557 261 557 C220 557 179 612 154 638 L154 638 Z " />
<glyph glyph-name="caron" unicode="&#x2c7;" horiz-adv-x="833" d="" />
<glyph glyph-name="ring" unicode="&#x2da;" horiz-adv-x="254" d="M216 652 C218 636 220 621 220 606 C222 554 208 526 150 480 C139 472 127 467 114 467 C46 467 16 502 14 572 C12 632 55 690 145 690 C172 690 185 675 216 652 L216 652 Z M153 627 C142 629 134 630 128 630 C93 630 71 600 71 578 C72 554 84 533 98 533 C139 533 156 575 154 605 C154 611 154 619 153 627 L153 627 Z " />
<glyph glyph-name="tilde" unicode="&#x2dc;" horiz-adv-x="348" d="M237 595 C193 595 154 609 117 629 C108 634 101 636 96 636 C81 636 65 589 40 589 C27 589 15 601 14 617 C13 649 76 687 110 687 C124 687 135 680 146 673 C171 657 197 651 225 651 C252 651 252 693 278 693 C296 693 303 678 304 657 C305 617 282 595 237 595 L237 595 Z " />
<glyph glyph-name="quoteleft" unicode="&#x2018;" horiz-adv-x="136" d="M-1 729 C6 730 13 731 18 731 C37 731 43 723 52 701 C77 639 104 578 127 516 C116 499 105 487 88 487 C75 487 64 495 60 511 C47 569 12 625 -7 680 C-10 686 -11 693 -11 699 C-12 709 -9 719 -1 729 L-1 729 Z " />
<glyph glyph-name="quoteright" unicode="&#x2019;" horiz-adv-x="142" d="M85 736 C107 736 125 738 126 709 C127 691 110 658 101 632 C83 577 62 487 28 487 C9 487 -5 506 -6 524 C-7 556 40 632 46 658 C52 687 66 712 85 736 L85 736 Z " />
<glyph glyph-name="quotesinglbase" unicode="&#x201a;" horiz-adv-x="131" d="M26 -84 C28 -69 29 -55 28 -41 C28 -16 25 7 24 31 C23 57 44 101 64 101 C83 101 96 81 97 64 C97 43 89 21 90 0 C91 -37 99 -79 100 -119 C101 -136 87 -162 68 -162 C36 -162 32 -110 26 -84 L26 -84 Z " />
<glyph glyph-name="quotedblleft" unicode="&#x201c;" horiz-adv-x="295" d="M12 729 C20 730 27 731 32 731 C51 731 57 723 66 701 C91 639 118 578 141 516 C130 499 119 487 102 487 C89 487 78 495 74 511 C61 569 26 625 6 680 C3 686 2 693 2 699 C1 709 4 719 12 729 L12 729 Z M148 683 C153 704 152 738 177 738 C194 738 212 718 213 701 C213 696 212 691 212 687 C214 638 244 583 263 538 C266 533 267 527 267 522 C268 505 256 489 239 489 C192 489 164 609 152 668 C152 669 151 671 151 672 L151 682 C150 682 149 682 148 683 L148 683 Z " />
<glyph glyph-name="quotedblright" unicode="&#x201d;" horiz-adv-x="288" d="M97 736 C119 736 137 738 138 709 C139 691 122 658 113 632 C95 577 74 487 40 487 C21 487 5 506 5 524 C4 556 52 632 58 658 C64 687 78 712 97 736 L97 736 Z M263 687 C231 646 230 599 214 555 C200 526 188 480 161 480 C142 480 130 492 129 505 C129 522 138 551 147 565 C178 611 175 720 222 720 C240 720 247 704 263 687 L263 687 Z " />
<glyph glyph-name="quotedblbase" unicode="&#x201e;" horiz-adv-x="267" d="M156 -84 C158 -69 159 -55 158 -41 C158 -16 155 7 154 31 C153 57 174 101 194 101 C213 101 226 81 227 64 C227 43 219 21 220 0 C221 -37 229 -79 230 -119 C231 -136 217 -162 198 -162 C166 -162 162 -110 156 -84 L156 -84 Z M65 102 C97 95 110 95 110 79 C110 75 110 70 108 63 C101 40 98 17 99 -6 C100 -44 108 -85 111 -126 C112 -144 102 -165 76 -165 C49 -165 42 -141 41 -108 C40 -85 45 -61 44 -37 C44 -22 41 -5 41 10 C39 42 51 71 65 102 L65 102 Z " />
<glyph glyph-name="bullet" unicode="&#x2022;" horiz-adv-x="212" d="M183 296 C182 251 152 206 107 206 C60 206 15 251 13 290 C12 331 69 359 101 359 C132 359 182 339 183 296 L183 296 Z " />
<glyph glyph-name="ellipsis" unicode="&#x2026;" horiz-adv-x="475" d="M362 11 C358 18 357 24 357 30 C356 59 376 77 401 77 C424 77 435 61 436 37 C437 12 419 -1 397 -1 C385 -1 374 3 362 11 L362 11 Z M114 40 C114 23 95 -2 78 -2 C57 -2 36 18 36 39 C35 57 53 79 69 79 C91 79 112 60 114 40 L114 40 Z M190 31 C189 53 204 73 225 73 C248 73 268 55 269 33 C270 17 245 -8 227 -8 C210 -8 192 11 190 31 L190 31 Z " />
<glyph glyph-name="guilsinglleft" unicode="&#x2039;" horiz-adv-x="340" d="M275 457 C284 438 291 428 291 419 C292 398 217 349 181 319 C151 296 122 271 92 246 C120 211 157 201 192 171 C232 136 295 87 296 55 C296 47 286 22 261 22 C243 22 213 52 197 71 C148 129 84 155 20 195 C5 204 -3 216 -3 228 C-4 260 94 328 142 366 C183 398 229 442 275 457 L275 457 Z " />
<glyph glyph-name="guilsinglright" unicode="&#x203a;" horiz-adv-x="343" d="M116 26 C87 29 70 35 69 58 C67 93 164 184 220 215 C231 221 243 227 247 243 C183 304 111 345 36 394 C22 403 14 415 14 425 C14 435 26 458 50 458 C127 415 217 375 278 310 C301 286 337 272 338 242 C339 214 291 184 260 166 C200 131 161 75 116 26 L116 26 Z " />
<glyph glyph-name="fraction" unicode="&#x2044;" horiz-adv-x="257" d="M43 -21 C20 -21 6 -6 5 14 C4 36 15 68 21 93 C33 142 39 193 53 242 C61 270 67 299 69 329 C71 361 90 398 99 430 C116 488 142 556 147 608 C148 658 201 701 214 701 C229 701 238 694 239 680 C240 656 213 617 208 582 C194 492 150 411 136 326 C120 233 94 145 79 49 C75 22 70 -21 43 -21 L43 -21 Z " />
<glyph glyph-name="Euro" unicode="&#x20ac;" horiz-adv-x="542" d="M115 300 C72 302 8 297 7 330 C5 363 46 364 76 364 C110 364 118 371 127 402 C156 503 218 659 423 670 C454 670 486 668 487 640 C489 589 379 614 321 583 C290 566 262 548 246 516 C228 479 203 446 193 405 C191 399 190 394 188 386 C236 380 322 384 323 347 C324 322 290 319 256 319 C235 319 217 320 201 320 C183 320 177 315 178 301 C180 238 325 293 326 250 C327 221 311 213 286 213 C260 213 234 214 208 214 C202 214 197 211 189 210 C201 155 223 70 269 53 C299 42 328 35 357 35 C402 35 441 58 488 78 C495 81 499 83 503 83 C508 83 513 79 526 69 C497 -4 422 -30 357 -30 C241 -30 187 8 136 146 C133 156 130 166 130 176 C130 182 131 190 131 196 C131 208 124 212 109 212 C80 212 49 202 25 202 C8 202 -1 213 -2 227 C-3 270 61 269 96 275 C110 277 113 281 115 300 L115 300 Z " />
<glyph glyph-name="trademark" unicode="&#x2122;" horiz-adv-x="501" d="M394 635 C391 636 388 636 386 636 C357 636 335 580 309 572 C282 581 254 615 242 615 C223 615 242 504 213 504 C198 504 184 540 184 561 C183 581 193 601 192 621 C191 651 190 668 158 668 C147 668 136 667 136 650 C137 634 141 619 141 604 C142 576 147 521 112 505 C97 507 89 522 88 539 C87 564 95 589 94 614 C93 626 92 639 90 653 C66 653 53 652 32 652 C17 652 2 653 2 672 C0.0235395 712.517 123.052 714.947 124.018 714.999 C164.023 713.001 241.001 717.997 246 695 C251 672 297 636 301 636 C328 636 395 705 423 705 C436 705 446 700 446 689 C446 679 438 668 438 659 C438 649 446 638 446 628 C447 615 444 602 445 589 C445 573 452 557 452 541 C453 525 440 510 430 510 C412 510 394 543 393 565 C393 578 399 593 399 608 C399 617 397 626 394 635 L394 635 Z " />
<glyph glyph-name="minus" unicode="&#x2212;" horiz-adv-x="512" d="M247 252 L82 252 C51 252 29 263 29 282 C28 306 40 325 60 325 C95 325 131 319 166 319 C252 319 338 323 424 330 C430 330 436 332 442 332 C458 331 473 316 473 298 C475 258 341 251 282 251 C270 251 259 253 247 253 L247 252 L247 252 Z " />
<glyph glyph-name="approxequal" unicode="&#x2248;" horiz-adv-x="477" d="M333 244 C313 249 290 252 269 261 C227 279 172 320 146 320 C128 320 80 294 72 264 C68 252 56 242 44 242 C27 242 19 255 18 274 C17 301 65 348 69 348 C102 348 112 378 148 378 C216 378 282 300 343 300 C375 300 412 327 438 331 C448 331 462 326 462 310 C464 268 382 256 333 244 L333 244 Z M58 146 C55 154 53 161 53 167 C52 208 122 246 154 246 C208 246 252 185 318 185 C333 185 348 191 362 191 C367 191 373 188 378 188 C394 188 406 204 420 204 C434 204 447 194 447 184 C449 127 344 127 296 127 C249 127 225 155 180 180 C171 184 163 187 156 187 C127 187 108 140 80 140 C73 140 66 142 58 146 L58 146 Z " />
<glyph glyph-name="apple" unicode="&#xf8ff;" horiz-adv-x="678" d="M583 503 C593 527 597 537 596 549 C596 556 594 564 590 578 C563 566 517 461 518 441 C518 431 522 422 527 413 C556 357 566 293 568 232 C569 200 555 185 547 150 C522 61 468 8 366 -18 C348 -23 329 -25 311 -25 C267 -25 218 -6 173 7 C166 9 161 10 156 10 C133 10 98 -84 79 -122 C71 -136 54 -144 38 -144 C24 -144 13 -129 12 -116 C11 -74 84 -1 83 43 C83 50 80 57 75 66 C41 116 27 168 25 224 C21 336 78 452 154 480 C176 488 198 500 220 512 C253 530 302 537 336 537 C360 537 389 535 408 520 C426 506 444 495 468 488 C492 524 504 564 520 604 C508 596 494 586 479 586 C458 586 437 594 436 614 C435 646 517 678 561 704 C575 709 583 709 599 709 C625 709 655 706 656 680 C656 662 652 644 653 626 C654 593 660 559 661 526 C659 498 640 477 622 477 C606 477 593 487 583 503 L583 503 Z M165 76 C205 59 236 58 275 46 C291 41 305 38 321 38 C380 38 443 69 470 128 C490 174 502 228 501 268 C500 288 498 312 482 323 C460 275 443 183 410 183 C396 183 329 219 306 254 C297 266 277 280 268 280 C237 280 206 136 165 76 L165 76 Z M440 426 C400 450 350 478 323 478 C260 478 183 443 144 392 C120 361 111 322 94 287 C93 283 92 278 92 273 C95 230 99 187 103 144 C104 138 111 131 117 120 C157 208 183 276 220 351 C227 364 238 371 252 371 C291 371 333 301 382 273 C399 292 425 361 440 426 L440 426 Z " />
<glyph glyph-name="f_f" unicode="&#xfb00;" horiz-adv-x="632" d="M416 436 C399 366 400 282 402 219 C404 146 408 69 421 -2 C421 -4 422 -6 422 -8 C422 -25 410 -46 393 -46 C369 -46 353 -8 352 18 C352 108 349 199 348 290 C348 310 351 328 350 347 C350 359 348 370 348 382 C347 398 348 415 347 430 C333 442 319 441 306 441 L105 441 C89 411 92 397 93 372 C94 353 97 334 97 315 C98 295 88 276 88 255 C90 209 97 163 98 117 C99 90 99 62 100 34 C100 27 101 20 101 13 C101 -3 78 -23 60 -23 C39 -23 27 -3 27 24 C26 28 26 32 27 36 C49 118 21 209 41 288 C45 299 46 311 46 322 C45 340 40 359 39 379 C38 406 46 432 45 459 C45 477 41 495 40 512 C40 533 52 553 51 571 C52 666 115 710 181 715 C185 715 188 715 194 716 C204 705 213 696 213 683 C214 662 182 652 158 643 C117 628 101 570 104 524 C104 520 105 515 106 511 C128 505 189 501 247 501 C291 501 333 503 353 508 C361 548 365 608 393 639 C429 678 433 709 517 709 C543 709 583 697 584 668 C585 653 573 642 555 642 L546 642 C536 641 526 641 517 641 C446 640 429 597 423 506 C429 504 436 500 443 500 C455 500 467 502 479 502 C504 502 528 495 553 495 C564 495 576 500 587 500 C599 500 613 485 614 473 C615 438 549 437 536 437 C521 437 506 443 490 443 C465 443 441 436 416 436 L416 436 Z " />
<glyph glyph-name="f_i" unicode="&#xfb01;" horiz-adv-x="397" d="M285 447 C274 449 264 450 254 450 C215 450 155 436 105 430 C96 414 93 397 94 380 C94 370 96 361 96 351 C97 318 87 286 88 252 C91 182 98 111 103 40 C104 10 101 -22 65 -22 C51 -22 40 -10 39 8 C38 39 45 69 44 100 C43 127 37 155 36 183 C33 261 38 338 47 418 L47 429 C47 440 44 451 43 462 C39 592 101 697 249 697 L272 697 C283 697 294 698 304 698 C320 698 330 682 331 668 C331 654 319 642 301 642 C295 643 288 643 282 643 C190 643 109 593 112 505 C112 497 122 496 129 496 C168 496 208 508 246 508 C286 508 356 519 358 465 C359 437 355 400 344 373 C332 344 338 297 339 260 C341 203 336 147 338 90 C339 63 351 36 352 10 C353 -8 340 -34 319 -34 C283 -34 281 38 280 77 C278 128 284 178 282 229 C281 252 281 277 280 301 C279 332 279 363 286 395 C287 404 291 414 290 426 C290 432 289 439 285 447 L285 447 Z " />
<glyph glyph-name="f_l" unicode="&#xfb02;" horiz-adv-x="471" d="M398 682 C407 663 415 643 416 622 C417 593 409 563 410 533 C410 521 411 510 411 499 C414 423 394 348 397 271 C399 222 406 173 408 123 C409 105 403 88 404 71 C405 50 415 30 416 9 C417 -17 393 -20 381 -20 C362 -20 350 -5 349 21 C348 45 354 68 354 92 C354 126 354 161 353 195 C352 209 352 223 351 236 C349.004 299.877 352.985 364.751 355.983 428.632 C345.382 435.061 335.691 436 326 436 L119 436 C103 406 107 392 108 367 C108 348 111 329 112 310 C112 290 102 271 103 250 C104 204 111 158 113 112 C113 85 113 57 114 29 C115 23 115 16 115 9 C116 -7 93 -28 74 -28 C53 -28 42 -8 41 19 L41 31 C59 96 50 163 50 230 C49 261 61 290 60 317 C60 335 54 354 53 374 C52 401 61 427 60 454 C59 472 55 490 55 507 C54 528 66 548 66 566 C66 661 129 705 196 710 C200 710 203 710 209 711 C218 700 227 691 228 678 C229 657 196 647 172 638 C130 622 117 561 118 519 C118 515 120 510 120 506 C141 500 200 496 257 496 C299 496 339 498 362 502 L362 542 C361 569 359 596 358 623 C357 638 346 653 345 669 C345 681 350 698 365 698 C378 698 389 696 398 682 L398 682 Z " />
</font>
</svg>
