<?xml version="1.0" encoding="UTF-8"?>
<svg xmlns="http://www.w3.org/2000/svg" xmlns:xlink="http://www.w3.org/1999/xlink" version="1.2" >
<font id="Advocaat Bold Italic">
<font-face  font-family="Advocaat" units-per-em="1000" ascent="750" descent="-250" font-style="italic" font-weight="700" font-stretch="normal" cap-height="700" x-height="500" underline-position="-75" underline-thickness="50" />
<missing-glyph  horiz-adv-x="202" d="" />
<glyph glyph-name="NULL" d="" />
<glyph glyph-name="CR" unicode="&#xd;" horiz-adv-x="202" d="" />
<glyph glyph-name="space" unicode="&#x20;" horiz-adv-x="202" d="" />
<glyph glyph-name="exclam" unicode="&#x21;" horiz-adv-x="274" d="M151 219 C105 219 77 246 77 275 C77 305 108 347 121 386 C128 408 131 432 138 453 C160 499 172 549 192 596 C202 619 234 650 251 650 C287 650 325 625 325 591 C325 562 301 515 297 481 C290 422 259 378 244 320 C231 269 217 219 151 219 L151 219 Z M2 43 C3 75 36 122 58 122 C96 122 144 90 144 56 C144 31 118 0 86 0 C52 0 19 5 2 43 L2 43 Z " />
<glyph glyph-name="quotedbl" unicode="&#x22;" horiz-adv-x="484" d="M447 401 C438 399 429 398 421 398 C387 398 354 421 354 461 C354 539 412 647 432 711 C442 742 459 754 482 754 C536 754 566 726 566 703 C566 632 490 523 481 453 C478 429 464 410 447 401 L447 401 Z M242 437 C233 434 225 433 217 433 C181 433 154 459 154 497 C154 523 161 556 174 582 C190 614 194 649 200 682 C205 729 219 750 255 750 C290 750 343 744 343 698 C343 671 329 636 321 610 C311 577 295 533 295 511 C295 477 275 448 242 437 L242 437 Z " />
<glyph glyph-name="numbersign" unicode="&#x23;" horiz-adv-x="833" d="M189 160 L178 160 C160 160 148 158 138 158 C110 158 38 176 38 229 C38 295 122 300 179 300 C192 300 205 297 219 297 C240 297 268 307 268 326 C268 333 263 338 254 340 C234 340 215 333 196 333 C160 333 127 357 127 415 C127 467 187 480 235 480 C260 480 291 479 324 478 C333 506 343 531 343 559 C343 600 380 624 413 624 C436 624 483 582 483 562 C483 543 471 517 465 495 C472 492 479 491 485 491 C553 491 559 628 627 628 C663 628 710 585 710 546 C710 530 696 522 682 500 C701 492 719 494 736 493 C775 490 829 465 829 424 C829 387 780 362 746 362 C729 362 713 371 701 371 C691 371 680 366 669 366 C660 366 652 367 644 369 C629 347 624 340 624 327 C624 322 625 317 626 309 C646 307 666 305 686 305 L699 305 C742 305 774 286 798 251 C801 245 803 240 803 235 C803 203 759 177 728 177 C706 177 686 184 664 184 C612 184 607 178 604 144 C600 99 560 36 513 36 C480 36 436 59 436 99 L436 104 C436 125 426 171 405 171 C381 171 361 107 345 73 C333 48 311 37 284 32 C244 32 224 33 215 64 C206 95 198 128 189 160 L189 160 Z M423 358 C419 349 407 333 407 322 C407 308 424 305 436 305 C462 305 477 322 490 356 C478 360 473 361 463 361 C455 361 443 360 423 358 L423 358 Z " />
<glyph glyph-name="dollar" unicode="&#x24;" horiz-adv-x="493" d="M67.021 -150.11 C67.0069 -150.106 67 -150.071 67 -150 C67 -150.018 67.0068 -150.054 67.021 -150.11 L67.021 -150.11 Z M454 480 C450 477 448 476 448 476 C429 428 410 381 392 334 C390 329 389 325 389 321 C389 293 438 263 458 235 C479 205 494 161 494 125 C494 55 444 8 390 -29 C363 -48 316 -62 289 -63 C255 -64 249 -74 244 -79 C227 -133 183 -215 135 -215 C90.7906 -215 67.8147 -153.229 67.021 -150.11 C67.607 -150.258 80.141 -94 86 -94 C86 -94 83 -93 83 -84 C83 -72 108 -47 108 -22 C108 38 19 124 19 170 C19 194 45 220 77 220 C130 220 126 159 174 132 C183 157 193 180 201 203 C210 228 222 265 222 282 C222 318 179 334 173 360 C155 413 113 471 113 518 C113 613 260 674 335 674 C351 674 366 673 382 672 C396 690 393 679 395 698 C398 732 417 745 438 780 C455 788 469 791 481 791 C513 791 559 750 559 714 C559 705 556 696 547 687 C526 666 530 667 519 643 C517 639 516 636 516 632 C516 600 596 565 596 510 C596 485 554 457 524 457 C499 458 479 467 454 480 L454 480 Z M322 546 C293 531 268 524 268 500 C268 489 279 473 293 473 C308 473 324 511 324 530 C324 535 323 540 322 546 L322 546 Z M311 79 C330 83 349 113 349 121 C349 129 342 137 330 143 C321 124 306 101 306 90 C306 86 307 83 311 79 L311 79 Z " />
<glyph glyph-name="ampersand" unicode="&#x26;" horiz-adv-x="531" d="M178 341 C168 387 167 431 155 472 C150 488 148 505 148 520 C148 568 178 647 228 673 C267 693 311 719 348 719 C390 719 445 705 489 693 C519 684 538 654 538 622 C538 533 469 477 412 420 C383 394 324 350 324 329 C324 326 324 324 325 322 C334 281 342 239 363 199 C371 204 378 207 380 211 C391 242 434 265 457 265 C502 265 515 236 515 207 C515 172 416 106 405 97 C432 53 460 30 460 10 C460 -37 388 -59 359 -59 C324 -59 307 -3 292 -3 C277 -3 246 -27 217 -27 C202 -27 188 -18 171 -18 C134 -18 80 16 75 47 C69 83 65 121 59 159 C80 200 108 237 124 281 C132 304 152 317 178 341 L178 341 Z M403 573 C384 593 360 601 338 601 C304 601 272 564 272 528 C272 502 283 480 295 458 C340 478 385 534 403 573 L403 573 Z M211 209 C186 192 180 138 180 132 C180 109 199 98 220 98 C238 98 249 102 249 114 C249 146 221 193 211 209 L211 209 Z " />
<glyph glyph-name="quotesingle" unicode="&#x27;" horiz-adv-x="233" d="M237 401 C228 399 219 398 211 398 C177 398 144 421 144 461 C144 539 202 647 222 711 C232 742 249 754 272 754 C326 754 356 726 356 703 C356 632 280 523 271 453 C268 429 254 410 237 401 L237 401 Z " />
<glyph glyph-name="parenleft" unicode="&#x28;" horiz-adv-x="375" d="M54 241 C54 290 66 334 92 376 C115 413 129 459 151 498 C188 563 251 614 309 663 C335 685 386 712 403 712 C438 712 483 676 483 639 C483 602 429 578 397 555 C344 516 299 472 267 415 C252 387 248 352 228 331 C205 306 203 264 203 233 C203 181 204 124 241 81 C256 63 275 38 275 12 C275 -34 242 -54 201 -54 C140 -54 109 5 90 50 C80 72 67 94 67 118 L67 124 C67 155 54 183 54 215 L54 241 L54 241 Z " />
<glyph glyph-name="parenright" unicode="&#x29;" horiz-adv-x="336" d="M374 356 C361 295 345 237 314 181 C304 163 285 147 281 136 C256 85 194 34 159 7 C127 -17 92 -35 56 -35 C12 -35 -14 -12 -14 21 C-14 52 43 87 74 115 C123 159 171 200 191 247 C213 300 235 354 235 403 C235 462 211 532 178 584 C166 603 151 635 151 655 C151 686 179 727 213 727 C265 727 310 674 316 622 C320 609 331 602 335 592 C354 548 376 497 376 449 C376 432 373 415 373 398 C373 384 374 370 374 356 L374 356 Z " />
<glyph glyph-name="asterisk" unicode="&#x2a;" horiz-adv-x="524" d="M477 627 C494 622 511 621 527 621 L568 621 C595 621 628 621 628 580 C628 554 572 512 530 512 C511 512 489 518 462 520 C463 513 463 508 465 507 C492 494 495 462 495 436 C495 409 443 385 415 385 C402 385 389 388 374 395 C362 416 349 439 335 464 C289 410 277 398 230 395 C207 395 190 427 190 450 C190 470 200 487 210 506 C188 509 169 512 149 514 C127 516 99 544 99 565 C99 623 197 622 245 629 C235 652 223 677 223 694 C223 726 251 749 300 749 C345 749 348 678 385 678 C394 678 403 683 408 695 C419 722 454 736 476 736 C508 736 526 713 526 695 C526 672 505 657 477 627 L477 627 Z " />
<glyph glyph-name="comma" unicode="&#x2c;" horiz-adv-x="206" d="M197 64 C172 -4 132 -50 86 -134 C71 -161 39 -182 14 -182 C-22 -182 -50 -146 -50 -118 C-50 -93 -16 -37 4 -2 C29 41 71 126 104 126 C146 126 174 110 197 64 L197 64 Z " />
<glyph glyph-name="hyphen" unicode="&#x2d;" horiz-adv-x="402" d="M275 169 C252 173 224 174 199 174 C178 174 157 170 136 170 C94 170 37 185 37 237 C37 272 70 304 117 304 C142 304 168 293 194 293 C236 293 279 297 321 297 C354 297 375 274 397 254 C398 253 399 252 399 251 C396 221 399 179 360 176 C330 174 307 173 275 169 L275 169 Z " />
<glyph glyph-name="period" unicode="&#x2e;" horiz-adv-x="201" d="M8 34 C23 78 43 103 79 103 C110 103 172 72 172 28 C172 5 123 -32 101 -32 C52 -32 35 3 8 34 L8 34 Z " />
<glyph glyph-name="slash" unicode="&#x2f;" horiz-adv-x="345" d="M523 624 C501 592 480 554 452 525 C396 466 356 398 312 331 C298 310 285 288 269 269 C239 232 225 183 200 148 C152 80 157 -21 64 -21 C6 -21 -15 5 -15 45 C-15 100 12 152 50 192 C74 217 91 250 110 280 C151 345 205 408 243 475 C283 545 353 600 379 675 C386 696 412 710 438 710 C486 710 517 668 523 624 L523 624 Z " />
<glyph glyph-name="zero" unicode="0" horiz-adv-x="833" d="M233 23 C197 23 165 30 139 59 C101 101 47 126 47 186 C47 221 54 256 64 290 C82 348 101 402 123 463 C136 500 162 529 183 563 C220 622 282 644 340 669 C363 681 387 688 410 688 C476 688 572 626 588 564 C598 526 603 491 603 452 C595 328 532 239 467 151 C417 84 323 24 233 23 L233 23 Z M181 188 C207 162 217 150 233 150 C263 150 334 198 364 243 C380 267 392 294 411 315 C448 355 466 415 466 461 C466 514 449 548 404 548 C381 548 370 532 350 527 C279 510 256 419 233 361 C211 304 191 248 181 188 L181 188 Z " />
<glyph glyph-name="one" unicode="1" horiz-adv-x="261" d="M170 508 C133 499 112 489 81 489 C52 489 28 491 28 525 C28 548 62 575 88 591 C132 620 176 649 213 691 C228 707 248 715 268 715 C297 715 364 679 364 645 C364 628 348 580 334 557 C304 506 292 453 279 398 C266 341 238 294 223 241 C211 200 205 155 200 116 C194 69 184 -14 103 -14 C72 -14 28 3 28 40 C28 71 52 117 60 144 C80 218 106 285 131 360 C146 396 158 414 158 446 C158 459 174 473 174 493 C174 497 173 502 170 508 L170 508 Z " />
<glyph glyph-name="two" unicode="2" horiz-adv-x="473" d="M359 556 C352 558 345 559 339 559 C314 559 278 528 261 505 C240 477 223 480 191 470 C155 496 137 504 137 531 C137 540 140 550 144 561 C171 634 244 693 324 693 C354 693 380 677 412 672 C456 665 501 609 501 576 C501 538 501 498 477 465 C467 452 463 435 456 420 C411 319 313 245 250 165 C242 156 237 144 232 134 C238 123 246 122 254 122 L263 122 L299 122 C322 122 344 125 366 125 C402 125 451 98 451 59 C451 2 354 -12 317 -12 C273 -12 228 -3 184 -3 C181 -3 179 -3 177 -4 C153 -20 105 -18 82 -18 C33 -18 0 26 0 50 C0 91 66 144 110 189 C118 197 123 208 131 218 C212 326 318 406 361 541 L361 543 C361 547 360 551 359 556 L359 556 Z " />
<glyph glyph-name="three" unicode="3" horiz-adv-x="483" d="M354 559 C317 553 283 544 253 544 C217 544 174 570 174 609 C174 651 205 667 252 675 C327 687 407 700 484 700 C524 700 584 659 584 619 C584 604 579 588 569 580 C514 533 434 452 434 404 C434 397 435 391 437 384 C453 338 459 289 459 241 C459 213 449 130 440 124 C416 94 397 60 369 34 C330 -2 286 -16 235 -19 C213 -20 188 -24 167 -24 C98 -24 27 33 27 99 C27 155 53 176 88 176 C150 176 129 98 168 98 C241 98 310 159 315 233 C316 250 318 267 318 284 C318 326 299 357 282 397 C277 408 267 418 267 431 C267 473 312 504 342 534 C347 540 349 548 354 559 L354 559 Z " />
<glyph glyph-name="four" unicode="4" horiz-adv-x="555" d="M438 166 C434 161 433 155 433 148 C433 138 435 126 435 116 C435 112 434 109 432 106 C417 88 417 65 408 46 C389 8 373 -12 337 -13 C302 -13 245 2 245 42 C245 54 255 74 264 86 C282 112 285 142 296 169 C296 170 297 171 297 172 C297 176 294 182 292 189 C250 179 214 169 179 167 C161 166 141 160 124 160 C84 160 30 193 30 233 C30 300 88 343 120 397 C151 449 199 498 239 548 C275 605 355 707 399 707 C423 707 475 672 475 639 C475 615 448 586 428 569 C396 542 369 514 343 482 C342 481 341 481 341 480 C319 433 277 400 251 357 C242 343 235 328 227 313 C231 309 234 306 237 306 C267 306 325 307 332 327 C360 383 379 484 422 484 C450 484 509 442 509 409 C509 384 489 359 489 337 C489 308 546 296 546 246 C546 197 491 187 438 166 L438 166 Z " />
<glyph glyph-name="five" unicode="5" horiz-adv-x="458" d="M281 486 C353 402 426 390 426 241 C426 194 413 151 388 112 C378 96 371 80 365 63 C349 18 303 -5 258 -5 C255 -5 251 -4 248 -4 C234 -4 221 -9 208 -9 C133 -9 34 21 34 97 C34 125 52 143 91 143 C117 143 145 119 177 119 C250 119 287 188 287 259 C287 361 194 374 120 427 C113 432 110 438 110 446 C110 471 144 533 164 566 C197 620 244 703 301 703 C342 703 385 696 426 696 C467 696 517 710 563 710 C601 710 653 682 653 643 C650 589 578 576 530 576 C477 576 425 579 372 581 C334 581 289 529 281 486 L281 486 Z " />
<glyph glyph-name="six" unicode="6" horiz-adv-x="579" d="M339 482 C368 485 387 489 407 489 C427 489 447 476 467 476 L478 476 C498 476 510 464 522 449 C550 413 565 409 574 371 C580 342 587 315 587 287 C587 262 586 238 568 215 C556 200 552 178 543 160 C521 115 495 77 451 49 C399 15 319 -6 270 -6 C225 -6 169 3 139 35 C108 69 79 116 79 161 C79 218 77 285 98 338 C114 379 134 420 142 463 C150 507 228 572 256 598 C301 639 316 663 385 663 C419 663 466 640 482 601 C458 565 448 542 411 533 C379 525 364 513 339 482 L339 482 Z M377 358 C329 358 230 329 222 264 C220 253 220 241 220 230 C220 169 222 124 264 124 C286 124 313 141 338 145 C398 156 441 272 441 300 C441 349 425 358 397 358 L377 358 L377 358 Z " />
<glyph glyph-name="seven" unicode="7" horiz-adv-x="375" d="M235 562 C210 556 175 545 147 545 C114 545 59 565 59 613 C59 661 99 686 132 686 C148 686 167 680 187 680 C222 680 256 689 291 689 C309 689 327 681 347 681 C370 681 393 683 416 683 C474 683 528 657 528 599 C528 568 490 532 465 517 C428 495 413 458 389 425 C356 379 292 317 281 275 C276 258 272 241 264 225 C238 174 238 112 233 61 C228 8 190 -9 146 -9 C107 -9 83 21 83 68 C83 102 103 149 103 191 C103 236 125 275 149 312 C169 348 189 383 208 418 C238 448 297 522 297 540 C297 560 265 558 235 562 L235 562 Z " />
<glyph glyph-name="eight" unicode="8" horiz-adv-x="534" d="M237 384 C220 435 188 492 188 536 C188 574 219 618 245 649 C281 693 320 705 380 713 C386 714 393 716 399 716 C401 716 403 716 405 715 C438 702 474 699 507 684 C582 649 625 560 625 522 C625 411 451 309 451 255 C451 221 462 187 462 153 C462 131 462 94 453 84 C426 54 402 20 363 5 C320 -12 284 -28 233 -28 C204 -28 175 -25 147 -24 C71 -20 12 55 12 127 C12 150 19 199 40 226 C53 243 54 279 66 288 C97 313 118 351 160 362 C184 368 208 376 237 384 L237 384 Z M306 247 C290 248 274 251 257 251 C195 251 145 177 145 121 C145 93 194 92 224 92 C279 92 320 126 320 180 C320 203 316 225 306 247 L306 247 Z M386 394 C402 412 413 424 424 437 C444 462 474 495 474 519 C474 577 421 579 381 579 C357 579 334 544 334 520 C334 489 368 429 386 394 L386 394 Z " />
<glyph glyph-name="nine" unicode="9" horiz-adv-x="567" d="M372 276 C324 266 277 255 233 255 C204 255 176 262 149 262 C118 274 88 324 88 358 C88 365 90 369 93 377 C151 502 217 658 375 684 C407 689 439 698 470 698 C508 698 578 682 587 658 C588 656 589 654 591 653 C614 634 625 611 625 585 C625 524 583 446 562 373 C541 303 514 244 482 171 C469 152 438 105 438 105 C430 77 407 62 390 42 C348 -7 290 -6 228 -6 C188 -6 120 12 120 60 C120 109 160 125 204 125 C216 125 228 123 238 123 C258 123 274 141 286 141 C324 144 372 224 372 276 L372 276 Z M244 376 C250 374 256 373 261 373 L264 373 C312 387 347 399 394 433 C442 461 459 504 460 555 C460 559 456 563 454 566 C329 557 274 478 244 376 L244 376 Z " />
<glyph glyph-name="colon" unicode="&#x3a;" horiz-adv-x="162" d="M1 109 C19 118 36 127 53 127 C92 127 141 101 141 62 C141 24 99 -12 66 -12 C29 -12 -8 17 -8 59 C-8 75 -4 93 1 109 L1 109 Z M245 403 C239 362 212 328 177 328 C148 328 97 366 97 399 C97 424 119 463 136 463 C143 463 149 464 156 464 C198 464 219 446 245 403 L245 403 Z " />
<glyph glyph-name="semicolon" unicode="&#x3b;" horiz-adv-x="221" d="M-83 -98 C-81 -31 34 49 71 107 C80 122 92 124 110 124 C151 124 183 95 187 54 C187 40 180 27 169 19 C102 -27 45 -158 -34 -158 C-60 -158 -84 -138 -84 -109 C-84 -106 -84 -102 -83 -98 L-83 -98 Z M154 390 C167 442 178 467 219 467 C259 467 304 432 304 397 C304 356 264 330 227 330 C185 330 160 350 154 390 L154 390 Z " />
<glyph glyph-name="less" unicode="&#x3c;" horiz-adv-x="425" d="M40 257 C62 310 83 332 146 377 C206 420 268 459 332 494 C366 513 386 547 427 547 C455 547 501 525 501 477 C501 437 411 396 362 364 C317 334 277 309 236 268 C250 246 283 180 290 180 C321 154 342 118 376 96 C393 85 402 67 402 47 C402 3 358 -21 321 -21 C277 -21 247 17 208 57 C165 100 150 175 90 200 C63 211 47 228 40 257 L40 257 Z " />
<glyph glyph-name="equal" unicode="&#x3d;" horiz-adv-x="424" d="M370 168 C316 172 260 181 205 181 C184 181 163 176 144 176 C113 176 72 202 72 234 C72 309 184 296 241 296 C276 296 310 295 345 295 C364 295 384 301 402 301 C433 301 462 284 476 255 C481 245 488 231 488 224 C488 171 409 170 370 168 L370 168 Z M349 339 C299 340 248 340 198 340 C179 340 160 339 142 339 C91 339 76 363 76 406 C76 432 105 455 135 455 C154 455 173 454 191 454 C268 454 344 462 420 462 C466 462 500 411 500 395 C500 345 405 342 349 337 L349 339 L349 339 Z " />
<glyph glyph-name="greater" unicode="&#x3e;" horiz-adv-x="433" d="M143 553 C169 566 182 574 203 574 C222 574 238 566 252 550 C255 546 258 541 263 538 C283 527 298 509 313 491 C352 443 395 398 446 355 C461 342 476 307 476 292 C476 275 452 241 431 233 C377 212 336 160 294 127 C270 108 244 90 228 62 C208 28 110 -14 73 -14 C40 -14 3 15 3 41 C3 90 58 100 91 143 C99 154 115 162 128 169 C182 197 280 275 280 299 C280 339 209 405 171 433 C146 451 132 476 132 505 C132 519 135 535 143 553 L143 553 Z " />
<glyph glyph-name="question" unicode="&#x3f;" horiz-adv-x="327" d="M238 634 L245 634 C280 634 344 616 358 591 C373 563 403 513 403 489 C403 416 323 352 280 304 C254 275 259 232 242 206 C226 181 200 168 172 168 C122 168 87 206 87 238 C87 339 257 450 257 483 C257 521 153 511 153 562 C153 572 157 583 164 594 C184 626 192 631 238 634 L238 634 Z M129 -2 C126 -2 123 -3 121 -3 C91 -3 53 21 53 47 C53 94 96 119 121 119 C161 119 198 90 198 55 C198 28 169 -3 136 -3 C134 -3 131 -2 129 -2 L129 -2 Z " />
<glyph glyph-name="at" unicode="&#x40;" horiz-adv-x="858" d="M511 184 C487 173 480 161 464 150 C430 126 385 96 352 96 C273 96 225 143 225 207 C225 260 305 339 356 359 C428 384 492 415 577 415 C617 415 687 413 687 350 C687 330 672 297 672 283 L672 272 C715 277 733 322 733 355 C733 403 688 466 631 468 C605 469 580 470 554 470 C528 470 502 469 477 467 C442 464 414 444 382 434 C335 419 279 381 257 337 C229 272 203 213 203 139 C203 106 197 67 230 48 C269 25 310 12 356 12 C444 12 526 57 609 84 C613 85 617 86 621 86 C639 86 655 68 655 46 C655 27 640 10 624 4 C571 -17 525 -53 470 -70 C426 -84 385 -99 339 -99 C278 -99 207 -94 155 -57 C148 -52 142 -46 134 -43 C88 -22 83 19 73 64 C70 79 63 94 63 109 C63 138 75 164 77 199 C79 252 132 332 155 397 C180 461 267 497 312 521 C317 523 324 524 328 528 C368 557 434 583 471 583 C509 583 547 592 584 592 C658 592 767 581 801 526 C802 524 803 522 805 520 C848 480 862 409 862 351 C862 240 743 197 669 146 C645 130 619 122 591 122 C548 122 537 138 511 184 L511 184 Z M462 294 C397 263 392 258 363 225 C361 224 360 221 360 218 C360 213 362 208 371 208 C372 208 372 208 373 209 C402 228 431 247 459 268 C462 270 461 280 462 294 L462 294 Z " />
<glyph glyph-name="A" unicode="A" horiz-adv-x="474" d="M312 172 C286 183 264 188 241 188 C216 188 178 186 159 183 C123 127 86 66 78 32 C69 -3 29 -19 -1 -19 C-21 -19 -48 -3 -48 23 C-48 46 -43 69 -28 88 C1 125 38 204 60 244 C72 265 97 298 100 309 C118 361 153 405 173 455 C197 513 236 563 264 620 C284 661 316 721 360 721 C397 721 422 692 422 659 C420 629 420 599 419 569 C420 553 424 535 424 520 C424 507 423 495 423 483 C423 331 445 195 445 28 C445 -17 391 -34 366 -34 C309 -34 316 26 316 66 C316 87 312 138 312 165 L312 172 L312 172 Z M212 300 C215 298 218 296 221 296 C293 296 317 304 317 334 C317 348 313 373 313 392 C313 408 317 425 317 441 C317 460 312 478 308 497 C302 494 299 494 298 492 C272 437 251 381 222 327 C217 319 215 309 212 300 L212 300 Z " />
<glyph glyph-name="B" unicode="B" horiz-adv-x="467" d="M387 382 C394 363 411 359 424 352 C452 336 489 299 489 277 C489 223 403 138 371 122 C326 104 277 90 240 67 C196 39 140 36 105 3 C85 -16 53 -22 26 -22 C-3 -22 -17 15 -17 39 C-17 74 19 142 36 188 C69 277 86 380 120 464 C133 497 139 533 159 562 C161 592 179 616 186 645 C197 686 229 705 263 705 C365 699 446 699 520 612 C529 601 532 589 532 574 C532 499 496 461 447 430 C424 415 407 397 387 382 L387 382 Z M197 278 C181 233 161 196 161 165 C161 160 162 154 164 148 C225 171 293 202 333 247 C337 251 340 257 340 261 C340 276 299 288 281 288 C254 288 227 281 197 278 L197 278 Z M243 427 C284 443 321 473 357 499 C379 515 391 544 391 549 C391 552 371 582 330 582 C277 582 255 497 241 445 C241 444 240 443 240 441 C240 438 241 433 243 427 L243 427 Z " />
<glyph glyph-name="C" unicode="C" horiz-adv-x="404" d="M385 147 L385 136 C385 67 261 -6 207 -6 C167 -6 132 13 96 32 C83 38 62 87 57 107 C52 125 48 153 48 169 C48 273 75 382 133 469 C174 530 190 615 266 644 C308 660 343 679 392 679 C438 679 530 657 530 605 C530 572 494 547 465 547 C439 547 405 565 387 565 C340 565 293 501 269 459 C224 379 176 290 176 203 C176 180 182 125 197 110 C202 109 207 109 212 109 C262 109 304 159 342 159 C355 159 369 155 385 147 L385 147 Z " />
<glyph glyph-name="D" unicode="D" horiz-adv-x="496" d="M546 405 C540 334 483 283 439 233 C429 221 418 210 404 202 C378 187 357 166 338 145 C295 98 240 80 177 58 C169 54 160 49 154 42 C130 13 81 -7 57 -7 C29 -7 -11 1 -11 32 C-11 69 9 110 22 150 C78 294 131 453 167 598 C176 635 175 657 215 686 C230 697 245 704 260 704 C273 704 287 699 299 688 C322 666 349 654 377 640 C451 603 520 566 538 487 C544 460 543 433 546 405 L546 405 Z M280 547 C243 423 197 304 173 178 C208 180 227 207 250 227 C315 283 367 322 404 394 C409 404 412 415 412 425 C412 500 357 539 280 547 L280 547 Z " />
<glyph glyph-name="E" unicode="E" horiz-adv-x="444" d="M305 581 C286 555 282 530 280 503 C287 497 294 495 302 495 C322 495 347 508 368 508 C403 508 457 487 457 449 C457 386 401 385 354 385 C332 385 309 387 286 389 C275 389 265 388 254 388 C249 388 244 389 238 389 C228 367 219 347 214 326 C204 288 185 261 185 220 C186 214 186 208 186 202 C186 178 172 153 172 131 C172 115 183 108 200 108 C225 111 250 115 274 115 C317 115 386 107 386 62 C386 28 341 1 296 1 C249 4 202 4 155 4 C126 4 98 -8 69 -8 C24 -8 -8 8 -8 73 C-8 85 -2 99 7 107 C25 123 36 143 40 168 C66 284 116 394 147 510 C165 559 180 612 195 663 C202 688 227 714 257 714 C287 714 323 687 355 687 C387 687 426 703 458 703 C483 703 555 679 555 643 C555 640 555 636 554 632 C540 592 528 583 486 580 C425 580 365 581 305 581 L305 581 Z " />
<glyph glyph-name="F" unicode="F" horiz-adv-x="458" d="M238 376 C209 320 208 265 186 216 C175 191 164 162 163 136 C161 97 142 63 124 30 C109 2 73 -5 44 -5 C7 -5 -7 12 -7 46 C-7 82 5 93 24 130 C43 180 66 229 80 281 C99 355 130 426 151 500 C174 581 203 716 282 716 C315 716 332 685 362 685 C410 685 455 700 502 700 C547 700 601 681 601 640 C601 608 561 575 513 575 C502 575 492 580 482 580 C437 580 316 576 306 562 C296 543 280 525 280 502 C280 482 294 486 307 486 C337 486 367 497 395 497 C440 497 459 486 496 460 C488 424 485 395 448 389 C419 384 389 379 359 379 L342 379 C309 379 274 377 238 376 L238 376 Z " />
<glyph glyph-name="G" unicode="G" horiz-adv-x="450" d="M269 -10 C250 -12 228 -17 214 -17 C178 -17 90 26 74 42 C43 72 18 155 18 197 C18 205 20 213 22 221 C56 367 122 497 229 623 C233 628 239 630 244 634 C297 669 364 696 429 696 C470 696 532 677 532 635 C532 595 497 578 458 578 L449 578 C363 578 297 527 255 449 C239 418 205 365 193 333 C179 297 178 256 157 222 C157 207 153 177 153 156 C153 136 175 105 206 105 C252 114 273 118 290 168 C311 230 326 320 379 320 C415 320 452 293 452 257 C452 251 451 246 449 242 C434 213 428 181 419 150 C409 115 393 85 386 48 C375 -4 321 -7 270 -14 C270 -13 270 -11 269 -10 L269 -10 Z " />
<glyph glyph-name="H" unicode="H" horiz-adv-x="540" d="M390 377 C385 379 382 381 379 382 C332 380 239 388 232 351 C222 313 211 277 205 240 C197 194 166 156 166 110 C166 56 144 -8 91 -8 C34 -8 6 44 6 72 C6 98 33 162 50 202 C85 272 98 348 117 425 C128 473 151 518 163 566 C176 632 214 717 245 717 C258 717 281 704 299 697 C325 686 333 668 333 641 C333 620 327 602 315 584 C301 563 292 537 282 514 C281 513 281 511 281 510 C281 507 282 503 282 499 C334 501 385 502 438 504 C459 561 492 696 540 696 C575 696 628 657 628 630 C628 601 590 525 570 479 C553 441 541 400 527 360 C515 326 501 293 493 258 C481 229 470 217 470 190 C470 182 470 174 471 166 C471 101 447 -15 364 -15 C320 -15 291 17 291 52 C291 86 322 135 331 166 C349 232 370 297 389 363 C390 367 390 372 390 377 L390 377 Z " />
<glyph glyph-name="I" unicode="I" horiz-adv-x="246" d="M89 -12 C26 -6 1 5 1 63 C1 84 20 114 28 138 C68 258 99 381 147 498 C155 516 158 540 164 559 C176 597 186 635 197 673 C204 697 220 707 249 707 C281 707 326 682 326 645 C326 605 299 541 284 506 C245 417 230 324 194 246 C191 240 190 234 189 228 C184 194 179 161 166 128 C156 103 159 73 156 46 C152 14 115 -12 89 -12 L89 -12 Z " />
<glyph glyph-name="J" unicode="J" horiz-adv-x="374" d="M443 601 C444 598 444 595 444 593 C444 580 437 570 434 559 C397 455 361 352 333 245 C314 174 296 92 226 57 C188 38 145 14 106 15 L102 15 C82 15 63 6 43 6 C9 6 -39 35 -39 72 C-39 128 40 122 86 136 C202 171 211 293 253 430 C260 454 270 477 278 501 C292 525 303 577 306 610 C309 637 333 671 358 671 C386 666 415 661 432 640 C440 630 440 614 443 601 L443 601 Z " />
<glyph glyph-name="K" unicode="K" horiz-adv-x="515" d="M184 202 C164 182 149 128 149 96 C149 83 150 70 150 59 C147 14 115 -14 72 -14 C23 -14 0 18 0 66 C0 83 4 98 11 115 C58 226 81 342 130 456 C151 504 157 560 181 606 C199 649 201 708 254 708 C283 708 325 686 325 662 C325 658 324 654 323 650 C305 590 278 531 278 467 C303 478 323 497 343 515 C391 558 434 605 487 642 C511 659 536 680 565 680 C601 680 637 642 637 617 C637 567 518 519 461 454 C417 405 361 357 312 310 C305 304 302 297 302 290 C302 279 310 262 319 257 C370 223 393 163 435 121 C455 100 484 81 484 57 C484 25 438 -2 406 -2 C378 -2 316 22 309 65 C306 82 273 115 256 140 C243 158 233 178 208 183 C199 185 192 194 184 202 L184 202 Z " />
<glyph glyph-name="L" unicode="L" horiz-adv-x="353" d="M172 120 C185 117 196 115 208 115 C229 115 246 129 268 129 C305 129 352 105 352 59 C352 -9 223 1 157 -4 C131 -6 101 -15 74 -15 C36 -15 -9 8 -9 44 C-9 77 20 130 37 173 C45 195 51 215 58 237 C62 245 69 253 70 261 C82 309 104 353 116 402 C127 450 141 500 162 546 C178 603 206 669 263 669 C283 669 329 651 329 622 C329 610 324 589 317 582 C299 565 296 545 289 524 C277 492 261 461 250 427 C233 375 229 316 206 271 C184 228 171 181 172 131 L172 120 L172 120 Z " />
<glyph glyph-name="M" unicode="M" horiz-adv-x="699" d="M415 429 C456 480 492 521 527 568 C558 604 612 679 645 679 C704 679 766 650 766 606 C766 552 720 461 697 406 C678 352 663 291 632 239 C599 176 624 113 595 65 C587 51 583 35 571 28 C551 16 527 6 503 7 C476 8 453 30 453 60 C453 106 490 139 490 186 L490 192 C490 204 498 218 503 229 C519 273 534 316 552 357 C561 377 582 407 581 429 C581 432 581 435 580 437 C577 436 574 437 573 435 C542 403 508 372 483 334 C471 315 446 300 439 287 C426 266 410 263 389 263 C346 263 319 282 309 328 C299 371 275 408 259 448 C257 450 253 451 248 455 C224 419 204 322 204 299 C204 282 194 266 188 251 C162 181 153 111 131 44 C121 14 90 -12 58 -12 C16 -12 -6 30 -6 64 C-6 85 4 86 16 110 C43 190 61 264 87 327 C118 416 125 515 165 593 C172 607 176 623 177 637 C186 675 211 697 246 697 C285 697 313 679 313 648 C313 641 312 633 312 626 C312 594 343 542 361 502 C374 481 386 461 400 441 C404 437 410 435 415 429 L415 429 Z " />
<glyph glyph-name="N" unicode="N" horiz-adv-x="568" d="M269 480 C236 447 224 375 211 323 L160 110 C146 60 139 -11 61 -11 C16 -11 -15 9 -15 58 C-15 77 -10 98 2 110 C23 132 32 155 37 185 C44 224 74 269 77 299 C79 344 101 384 113 426 C130 486 157 542 165 604 C172 658 211 727 250 727 C285 727 324 693 339 639 C349 602 377 559 391 534 C410 499 420 462 452 435 C474 479 486 528 502 575 C528 624 510 696 562 718 C566 718 573 721 580 721 C619 721 663 681 663 642 C663 636 662 620 657 612 C636 585 632 550 620 519 C605 483 601 440 585 407 C557 349 540 289 530 226 C525 194 520 162 504 133 C500 126 496 117 496 109 C494 45 460 -39 399 -39 C344 -39 326 -7 326 26 C326 30 327 34 329 38 C348 95 366 157 390 206 C394 216 397 226 397 236 C397 271 359 294 354 331 C353 336 351 340 349 344 C316 385 299 464 269 480 L269 480 Z " />
<glyph glyph-name="O" unicode="O" horiz-adv-x="526" d="M54 201 C53 216 52 231 52 246 C52 354 95 452 154 540 C207 625 293 710 400 710 C482 710 530 666 558 528 C560 520 561 512 561 504 C561 387 510 278 486 230 C484 226 482 221 481 217 C468 135 407 66 349 12 C321 -14 269 -17 240 -17 C167 -17 87 31 61 102 C53 122 54 151 53 172 C53 182 54 192 54 201 L54 201 Z M404 580 C398 580 395 581 391 581 C325 581 263 482 230 409 C204 351 182 312 182 253 C182 201 195 101 241 101 C291 101 339 207 352 240 C362 265 371 291 381 316 C400 361 407 403 422 450 C423 456 425 462 425 468 C425 502 417 544 404 580 L404 580 Z " />
<glyph glyph-name="P" unicode="P" horiz-adv-x="488" d="M203 239 C188 207 183 207 174 175 C145 93 166 -21 58 -21 C26 -21 -1 -2 -1 30 C-1 74 15 105 29 144 C49 192 53 209 75 257 C82 312 105 365 122 417 C127 431 128 447 132 461 C155 544 193 708 266 708 C271 708 276 707 281 706 C378 686 503 706 549 591 C560 564 570 537 570 507 C570 399 419 324 329 275 C288 253 248 247 203 239 L203 239 Z M233 356 C237 353 241 352 245 352 C264 352 279 377 299 384 C332 396 359 424 389 444 C420 465 432 491 432 520 C432 549 416 577 387 577 C335 577 294 582 281 536 C275 514 273 490 263 469 C245 432 242 395 233 356 L233 356 Z " />
<glyph glyph-name="Q" unicode="Q" horiz-adv-x="601" d="M187 -13 C150 -5 120 1 107 34 C85 90 54 138 54 200 C54 262 88 317 104 377 C116 434 144 483 162 538 C181 598 237 651 286 687 C312 706 367 730 388 730 C444 730 507 678 552 642 C623 584 615 454 615 372 C615 303 572 241 546 181 C517 113 443 40 369 10 C315 -13 282 -127 268 -201 C261 -235 226 -250 194 -250 C152 -250 126 -225 126 -185 C126 -180 127 -174 129 -169 C145 -121 157 -73 182 -28 C184 -25 185 -20 187 -13 L187 -13 Z M355 149 C380 172 402 188 414 216 C434 261 473 314 476 353 C479 400 481 448 481 495 C481 540 429 606 408 606 C381 606 302 531 302 510 C302 487 285 486 273 459 C259 426 239 391 231 353 C221 319 213 284 197 252 C194 246 191 238 191 232 C191 196 191 152 217 126 C226 210 244 337 313 337 C340 337 393 306 393 285 C393 237 355 210 355 149 L355 149 Z " />
<glyph glyph-name="R" unicode="R" horiz-adv-x="487" d="M192 186 C154 101 177 10 78 10 C32 10 4 31 4 62 C4 103 45 159 45 195 C45 244 75 284 82 330 C97 346 98 368 100 389 C102 408 112 425 118 444 C132 491 154 536 163 584 C171 625 187 677 228 684 C259 691 297 696 329 696 C387 696 453 672 497 643 C533 619 565 574 565 540 C565 484 539 442 502 406 C486 391 465 380 444 369 C399 345 296 297 296 280 C296 262 324 239 334 219 C341 192 364 178 380 158 C403 129 458 105 458 61 C458 25 421 4 387 4 C336 4 313 28 289 77 C257 111 233 149 192 186 L192 186 Z M245 406 C251 406 253 406 255 407 C314 435 420 478 420 531 C420 563 386 583 356 583 C332 583 308 568 298 549 C290 535 250 429 245 406 L245 406 Z " />
<glyph glyph-name="S" unicode="S" horiz-adv-x="464" d="M465 464 C426 474 383 480 377 525 C373 558 328 578 315 578 C291 578 231 513 231 484 C231 473 234 461 239 449 C240 448 241 447 241 446 C256 398 290 367 329 338 C390 292 449 205 449 128 C449 108 448 77 432 63 C380 18 342 -28 251 -28 C190 -28 101 -14 68 46 C62 57 54 68 45 78 C26 98 14 141 14 165 C14 193 43 212 62 212 C81 212 113 189 124 161 C141 119 199 87 230 87 C259 87 296 110 296 146 C296 180 264 244 222 263 C204 271 188 289 176 307 C157 334 132 360 122 394 C118 407 115 419 107 430 C84 459 89 503 89 536 C89 566 167 647 215 676 C239 690 266 700 295 700 C315 700 364 695 390 684 C410 675 424 656 444 644 C483 620 522 563 522 519 C522 489 498 465 465 464 L465 464 Z " />
<glyph glyph-name="T" unicode="T" horiz-adv-x="376" d="M579 635 C559 598 529 584 491 584 C457 584 422 587 387 587 C318 587 283 409 269 385 C246 344 233 293 221 250 C220 245 199 183 200 179 C200 175 201 172 201 169 C201 132 171 92 171 69 C171 22 122 -7 77 -7 C40 -7 15 24 15 65 C15 89 23 110 36 129 C56 161 84 245 91 281 C105 357 143 427 171 505 C176 521 187 537 186 553 C186 562 181 567 171 567 C164 567 156 566 149 566 C111 566 76 578 39 583 C18 585 -8 615 -8 633 C-8 710 135 684 183 701 C190 703 198 703 205 703 C215 703 225 702 234 702 C257 702 279 717 301 717 C304 717 307 717 310 716 C334 708 358 707 383 707 L418 707 C491 707 565 717 579 635 L579 635 Z " />
<glyph glyph-name="U" unicode="U" horiz-adv-x="555" d="M311 617 C291 560 240 449 240 385 C238 349 225 340 212 284 C208 269 209 255 208 241 C208 228 209 216 209 204 C209 195 208 185 208 175 C208 149 229 116 246 116 C301 116 340 200 363 254 C383 301 391 352 410 400 C421 427 427 454 430 483 C430 504 447 546 454 576 C464 625 500 685 555 685 C590 685 632 658 632 616 C632 580 607 542 594 509 C569 448 566 384 536 325 C495 243 494 145 425 77 C389 41 352 3 298 -7 C280 -11 259 -18 242 -18 C180 -18 131 21 89 60 C72 81 63 127 63 159 C63 166 64 173 65 180 C71 219 71 261 75 300 C78 326 91 348 96 373 C100 396 107 417 112 439 C130 497 147 557 163 620 C171 655 201 701 244 701 C279 701 312 682 312 636 C312 630 311 623 311 617 L311 617 Z " />
<glyph glyph-name="V" unicode="V" horiz-adv-x="494" d="M231 642 C229 622 227 602 227 580 C227 484 249 374 273 291 C319 337 349 414 384 466 C390 476 432 533 434 544 C443 597 479 628 504 672 C515 692 533 700 555 700 C593 700 606 690 646 667 C649 657 651 648 651 638 C651 583 599 569 577 527 C567 508 524 442 514 423 C471 342 428 265 378 187 C375 182 370 177 370 171 C367 120 332 49 306 23 C272 0 260 -11 229 -11 C206 -11 172 -11 157 13 C136 44 120 95 120 126 C120 160 133 197 133 230 C133 302 104 371 104 435 C104 467 99 541 88 572 C87 573 86 573 86 574 C86 580 87 587 87 593 L87 618 C87 658 99 699 156 699 C186 699 206 679 231 642 L231 642 Z " />
<glyph glyph-name="W" unicode="W" horiz-adv-x="785" d="M252 306 C257 309 264 311 267 315 C299 382 339 445 353 519 C357 541 410 557 426 557 C462 557 497 520 505 484 C514 443 527 404 538 363 C549 317 556 276 571 223 C575 230 578 234 579 239 C590 288 617 338 633 383 C645 423 655 464 671 502 C693 553 706 569 731 619 C756 669 764 721 825 721 C859 721 898 695 898 654 C898 639 893 625 883 615 C862 593 837 517 828 517 C818 517 780 395 769 366 C754 326 734 287 729 244 C729 241 728 239 727 237 C707 192 687 148 667 103 C663 96 659 88 657 80 C639 15 599 -39 537 -39 C487 -39 485 -35 451 83 C443 110 440 138 439 167 C437 211 427 255 421 304 C383 243 354 194 321 141 C307 118 296 95 296 67 L296 53 C296 6 231 -28 212 -28 C154 -28 118 -6 118 47 C118 89 126 129 126 170 C126 232 98 290 98 352 L98 363 C98 396 92 430 82 461 C79 467 76 473 76 479 C76 487 78 495 78 503 C78 558 62 606 62 645 C62 690 73 712 110 712 C206 712 206 611 206 562 C206 519 226 480 226 440 C226 430 223 421 223 411 C223 392 232 371 232 354 C232 350 231 346 231 343 C231 328 239 317 252 306 L252 306 Z " />
<glyph glyph-name="X" unicode="X" horiz-adv-x="469" d="M258 182 C236 154 212 130 202 98 C192 66 169 38 153 11 C132 -25 100 -50 55 -50 C19 -50 -13 -27 -13 25 C-13 53 22 86 43 115 C62 142 84 186 103 204 C131 230 150 263 167 298 C178 321 190 345 211 362 C215 365 219 373 219 379 C219 416 196 454 196 485 C196 556 136 609 136 679 C136 707 146 738 178 738 C215 738 260 729 274 689 C290 641 303 587 320 539 C321 536 325 533 327 530 C343 530 350 542 357 553 C384 599 424 634 453 681 C468 705 485 716 509 716 C546 716 599 703 599 652 C599 620 552 599 536 565 C530 553 520 541 508 534 C472 513 462 473 436 443 C415 419 379 371 379 351 C379 330 391 304 391 280 C391 191 430 126 457 37 C457 35 458 33 458 31 C458 -6 404 -26 377 -26 C277 -26 271 148 267 167 C267 171 263 175 258 182 L258 182 Z " />
<glyph glyph-name="Y" unicode="Y" horiz-adv-x="458" d="M109 712 C158 709 194 679 203 630 C215 593 263 524 303 524 C320 524 352 546 368 563 C423 622 496 659 554 712 C565 722 577 727 589 728 C620 728 672 695 672 664 C672 640 633 581 588 574 C586 574 582 573 580 572 C542 545 499 525 468 488 C458 476 445 468 434 458 C392 421 356 381 340 328 C328 289 315 251 301 214 C283 167 254 128 254 71 C254 24 221 -36 157 -36 C119 -36 88 -12 88 29 C88 52 102 84 112 109 C121 131 122 157 135 178 C177 244 194 310 213 382 C202 406 196 438 178 452 C117 510 53 613 53 641 C53 675 74 712 109 712 L109 712 Z " />
<glyph glyph-name="Z" unicode="Z" horiz-adv-x="580" d="M218 114 C264 103 311 100 358 100 C389 100 419 107 450 107 C494 107 528 78 547 33 C528 -1 502 -20 461 -20 L444 -20 C424 -20 405 -22 386 -22 C366 -22 345 -12 330 -12 C313 -12 297 -16 280 -16 C236 -16 192 -6 147 -6 C132 -6 110 -21 90 -21 C32 -21 11 11 11 45 C11 103 61 125 145 235 C195 300 240 382 297 452 C328 490 363 525 389 567 C379 568 371 571 364 571 C330 569 294 565 260 565 C220 565 162 577 162 629 C162 685 243 689 295 689 C329 689 363 686 397 686 C452 686 500 693 549 704 C555 705 561 706 567 706 C598 706 667 670 667 636 C667 610 626 584 598 563 C525 513 459 457 409 384 C389 356 367 331 346 304 C304 240 262 174 218 114 L218 114 Z " />
<glyph glyph-name="bracketleft" unicode="&#x5b;" horiz-adv-x="317" d="M176 102 C197 103 212 104 228 104 C264 104 312 72 312 35 C312 8 290 -12 261 -16 C205 -25 148 -32 90 -40 C86 -41 82 -41 78 -41 C34 -41 -12 -7 -12 30 C-12 59 17 107 32 144 C44 175 57 206 66 238 C86 308 118 373 138 442 C149 481 161 519 172 559 C187 614 188 702 263 702 C271 702 280 701 288 701 C319 701 351 710 382 710 C430 710 500 694 500 642 C500 598 461 595 418 588 C376 581 320 585 313 551 C306 516 282 485 282 448 C282 407 239 311 226 273 C220 257 209 245 209 226 C209 223 210 220 210 217 C210 208 201 194 193 184 C180 166 175 146 175 123 C175 116 175 109 176 102 L176 102 Z " />
<glyph glyph-name="bracketright" unicode="&#x5d;" horiz-adv-x="274" d="M283 570 C266 578 250 581 233 581 L217 581 C178 581 141 609 141 644 C141 679 190 711 229 711 C245 711 261 705 277 705 C312 705 348 713 382 713 C423 713 464 673 464 637 C464 594 405 548 405 495 C399 404 318 328 315 257 C313 212 272 160 273 99 L273 89 C273 28 256 -9 188 -9 C152 -9 116 -5 80 -5 L60 -5 C17 -5 -33 8 -33 56 C-33 153 111 82 130 157 C140 196 161 229 172 271 C198 367 265 453 282 552 C282 558 282 564 283 570 L283 570 Z " />
<glyph glyph-name="underscore" unicode="&#x5f;" horiz-adv-x="481" d="M282 -246 C271 -244 129 -242 116 -242 C103 -242 90 -241 77 -241 C56 -241 35 -245 14 -245 C-28 -245 -85 -230 -85 -178 C-85 -143 -52 -111 -5 -111 C20 -111 46 -122 72 -122 C80 -122 87 -122 95 -121 C130 -118 294 -118 328 -118 C361 -118 382 -141 404 -161 C405 -162 406 -163 406 -164 C406 -167 405 -169 405 -172 C405 -178 406 -183 406 -189 C406 -206 398 -237 367 -239 C337 -241 314 -242 282 -246 L282 -246 Z " />
<glyph glyph-name="grave" unicode="&#x60;" horiz-adv-x="216" d="M260 751 C307 751 330 698 362 668 C384 647 408 611 408 593 C408 561 359 523 339 520 C331 518 324 518 318 518 C275 518 280 574 244 602 C232 635 212 667 212 704 C212 732 233 751 260 751 L260 751 Z " />
<glyph glyph-name="a" unicode="a" horiz-adv-x="530" d="M364 173 C322 138 286 105 245 75 C212 51 180 19 137 13 C113 10 97 -6 69 -6 C25 -6 -8 27 -8 74 C-6 125 -1 180 26 226 C36 240 53 271 61 277 C115 328 160 391 228 426 C301 463 399 499 483 499 C518 499 558 463 558 434 C558 394 523 309 511 281 C511 280 509 279 509 278 C503 236 484 196 479 153 C476 128 475 103 462 81 C454 68 454 53 453 39 C451 -6 395 -44 360 -44 C332 -44 314 -21 314 16 C314 45 339 86 352 122 C357 136 359 150 364 173 L364 173 Z M122 122 C192 122 258 230 294 259 C315 276 322 305 333 314 C354 331 353 357 363 386 C303 360 262 345 220 304 C197 281 182 253 158 231 C135 211 115 163 115 148 C115 140 117 131 122 122 L122 122 Z " />
<glyph glyph-name="b" unicode="b" horiz-adv-x="508" d="M291 695 C295 683 297 672 297 662 C297 639 288 620 278 600 C249 545 238 485 228 425 C228 423 227 422 227 420 C227 417 228 413 228 408 C279 433 310 460 365 468 C384 468 403 480 420 480 C481 480 534 426 534 351 C534 316 519 293 513 256 C505 211 441 153 396 110 C373 88 349 70 324 51 C308 39 289 31 274 18 C244 -7 193 -16 159 -17 C148 -17 138 -14 129 -14 C96 -14 63 -41 38 -41 C15 -41 -2 -23 -2 7 C-2 40 -3 65 9 102 C16 122 33 170 32 169 C52 189 55 216 64 241 C91 319 120 398 131 481 C140 547 166 608 182 672 C190 703 231 704 251 704 C264 704 278 702 291 695 L291 695 Z M417 322 C416 346 405 359 387 359 C328 359 238 290 221 254 C201 213 177 172 156 131 C153 124 153 116 153 109 C153 96 160 87 171 87 C174 87 178 88 182 90 C219 106 256 122 286 151 C332 196 373 232 409 293 C414 303 415 316 417 322 L417 322 Z " />
<glyph glyph-name="c" unicode="c" horiz-adv-x="418" d="M127 -27 C124 -27 121 -28 118 -28 C94 -28 79 -15 55 -6 C46 -3 33 -6 27 6 C19 21 5 35 5 54 C5 98 14 152 34 193 C43 212 52 233 56 254 C66 304 90 377 124 410 C154 433 185 455 216 478 C219 480 222 482 226 483 C274 490 315 521 365 521 C400 521 468 496 468 454 C468 406 412 371 384 371 C364 371 347 401 322 401 C235 401 176 298 162 216 C156 180 131 141 131 107 C131 89 143 80 168 80 C219 80 339 182 374 182 C389 182 413 170 413 151 C413 136 407 124 394 116 C300 63 248 -11 127 -27 L127 -27 Z " />
<glyph glyph-name="d" unicode="d" horiz-adv-x="575" d="M462 512 C469 548 494 573 500 609 C504 635 524 668 558 668 C566 668 578 671 586 671 C615 671 640 638 640 611 C640 605 637 599 634 594 C614 562 605 527 597 490 C587 445 566 400 554 355 C533 280 508 206 498 130 C490 72 460 -23 421 -41 C406 -48 384 -52 369 -52 C347 -52 325 -35 325 -9 C325 34 357 88 374 142 C353 130 336 113 323 96 C290 52 210 2 177 -9 C147 -19 116 -33 86 -33 C50 -33 19 4 19 42 L19 54 C19 61 18 67 18 74 C19 95 22 116 22 137 L22 149 C22 197 76 282 114 337 C131 361 144 388 166 410 C218 462 277 486 347 498 C378 503 410 513 444 513 C450 513 456 512 462 512 L462 512 Z M402 399 C348 393 303 388 265 357 C210 312 193 246 153 193 C147 187 143 180 143 174 C144 167 145 161 145 154 C145 138 138 121 138 104 C138 98 143 92 150 92 C175 92 214 123 232 141 C271 181 290 237 327 279 C350 305 363 337 386 364 C392 372 395 382 402 399 L402 399 Z " />
<glyph glyph-name="e" unicode="e" horiz-adv-x="398" d="M149 82 C207 95 259 119 308 149 C318 155 327 158 336 158 C352 158 375 148 375 132 C375 115 360 92 345 88 C313 79 295 51 268 37 C247 26 228 10 207 0 C176 -15 133 -32 106 -32 C74 -32 48 -13 22 23 C10 39 12 81 12 108 C12 126 21 141 21 157 C21 167 19 176 19 186 C19 208 31 228 39 253 C47 281 57 309 77 332 C84 340 90 351 92 361 C107 420 161 460 203 496 C225 514 268 519 298 519 C369 519 421 474 421 393 C421 372 417 352 398 336 C393 331 391 324 389 317 C370 260 294 224 236 208 C212 201 190 185 163 180 C140 176 132 155 132 126 C132 109 135 94 149 82 L149 82 Z M280 406 C219 366 196 338 194 300 C233 305 288 330 288 384 C288 391 286 398 280 406 L280 406 Z " />
<glyph glyph-name="f" unicode="f" horiz-adv-x="353" d="M283 514 C295 509 306 508 316 508 C335 508 352 511 370 511 C406 511 438 491 438 466 C438 430 396 395 358 395 C345 395 333 396 320 396 C288 396 238 403 228 373 C209 316 193 273 177 209 C173 185 163 165 157 142 C134 65 132 -54 29 -54 C5 -54 -9 -40 -9 -16 C-9 41 19 105 44 157 C69 210 77 268 96 325 C101 342 105 359 112 378 C94 390 65 404 65 423 C65 469 88 473 157 490 C201 599 230 672 335 707 C370 718 408 719 440 729 C445 731 451 732 456 732 C479 732 511 715 511 691 C511 625 394 610 375 609 C329 605 301 560 283 514 L283 514 Z " />
<glyph glyph-name="g" unicode="g" horiz-adv-x="494" d="M282 80 C223 39 191 18 133 2 C126 0 120 -1 114 -1 C95 -1 53 7 50 13 C37 40 12 55 12 89 C12 104 3 119 3 136 C3 146 5 157 9 166 C33 223 52 281 93 331 C142 391 208 465 285 478 C338 487 391 503 445 503 C473 503 521 492 521 463 L521 459 C521 444 539 431 539 415 C539 393 509 327 505 323 C483 298 472 268 466 236 C465 234 465 231 464 230 C442 206 445 174 438 146 C432 121 415 91 412 76 C398 15 366 -42 348 -102 C343 -112 321 -131 309 -141 C269 -175 232 -214 178 -225 C151 -231 113 -251 94 -251 C53 -251 29 -214 29 -206 C29 -196 43 -152 74 -147 C178 -130 270 -30 287 67 L287 68 C287 70 285 72 282 80 L282 80 Z M151 118 C167 127 181 135 195 143 C230 163 251 197 276 226 C318 274 369 317 377 385 C278 368 235 364 140 184 C136 175 133 166 133 157 C133 144 138 131 151 118 L151 118 Z " />
<glyph glyph-name="h" unicode="h" horiz-adv-x="520" d="M259 396 C282 406 297 420 318 431 C376 461 422 503 486 533 C489 535 493 535 496 535 C512 535 529 532 546 529 C553 513 562 494 562 482 C562 474 559 465 555 458 C532 422 522 348 507 335 C491 321 486 301 481 281 C461 203 433 126 426 53 C421 2 373 -34 331 -34 C302 -34 280 -12 280 20 C280 47 291 77 306 101 C329 138 332 166 340 220 C345 253 361 294 376 334 C341 331 326 309 303 296 C273 279 249 257 230 229 C225 221 216 215 209 210 C187 194 175 175 171 148 C156 60 136 -48 44 -48 C34 -48 28 -46 14 -44 C0 -24 -6 -5 -6 15 C-6 56 29 89 38 131 C41 147 48 162 53 178 C83 285 138 388 154 498 C157 522 169 546 176 569 C196 633 198 699 273 699 C298 699 325 694 325 660 C325 595 256 498 256 423 C256 414 257 406 259 396 L259 396 Z " />
<glyph glyph-name="i" unicode="i" horiz-adv-x="231" d="M14 83 C63 128 66 215 93 283 C122 356 144 433 174 509 C183 533 214 548 242 548 C274 548 295 525 295 499 C295 490 293 481 288 472 C265 430 239 386 229 339 C219 293 194 253 186 207 C176 153 170 87 144 42 C119 -2 142 -17 64 -43 C58 -45 53 -46 47 -46 C21 -46 6 -27 6 3 C6 29 10 52 14 83 L14 83 Z M238 703 C261 717 282 736 308 736 C327 736 363 717 363 683 C363 646 308 617 283 617 C256 617 235 640 235 671 C236 680 237 690 238 703 L238 703 Z " />
<glyph glyph-name="j" unicode="j" horiz-adv-x="236" d="M285 480 C265 422 234 362 214 308 L214 305 L214 301 C214 299 214 298 213 297 C184 256 186 204 163 160 C147 130 128 90 128 58 L128 44 C128 2 104 -30 93 -70 C83 -104 66 -141 61 -172 C53 -221 26 -249 -19 -249 C-57 -249 -70 -218 -70 -188 C-70 -175 -62 -157 -56 -143 C-31 -86 -10 -28 4 32 C28 139 74 235 112 342 C129 391 152 439 165 490 C172 518 201 535 229 535 C269 535 284 511 285 480 L285 480 Z M331 716 C335 702 339 691 339 677 C339 653 314 637 291 621 C291 621 290 620 289 620 C278 620 226 630 226 667 C226 702 253 727 284 727 C299 727 312 721 331 716 L331 716 Z " />
<glyph glyph-name="k" unicode="k" horiz-adv-x="493" d="M283 245 C299 231 328 214 337 190 C339 185 344 180 348 176 C389 138 458 65 458 38 C458 10 417 -13 381 -13 C350 -13 323 5 300 39 C296 45 295 55 290 57 C248 81 233 154 182 154 C144 111 162 -45 64 -45 C34 -45 4 -22 4 9 C4 46 48 113 62 168 C74 215 83 264 96 310 C114 359 135 408 148 458 C159 499 180 535 187 577 C194 621 226 661 233 704 C238 735 259 744 297 744 C335 744 355 714 355 690 C355 678 351 666 343 653 C296 577 269 485 242 400 C241 395 241 389 240 380 C292 391 313 429 348 451 C399 479 445 537 497 537 C536 537 559 516 559 495 C559 465 516 426 484 408 C422 374 365 331 310 288 C298 278 286 268 283 245 L283 245 Z " />
<glyph glyph-name="l" unicode="l" horiz-adv-x="255" d="M15 29 C33 102 81 172 95 247 C114 352 149 456 179 561 C191 605 215 657 218 691 C220 723 251 757 281 757 C310 757 347 735 347 710 C347 706 346 696 342 689 C283 572 252 424 224 317 C217 289 209 261 209 232 L209 229 C209 207 192 182 192 155 L192 145 C192 139 190 132 187 128 C174 114 173 96 167 79 C157 52 143 8 127 0 C108 -10 74 -30 54 -30 C25 -30 17 -1 15 29 L15 29 Z " />
<glyph glyph-name="m" unicode="m" horiz-adv-x="786" d="M247 386 C302 414 351 436 390 479 C413 504 443 530 475 530 C509 530 545 519 545 469 C545 451 532 427 532 406 C532 403 533 400 533 396 C578 406 601 439 632 463 C662 486 691 512 724 531 C739 539 761 541 779 541 C797 541 825 509 825 490 C821 449 808 412 797 373 C791 355 789 335 780 319 C752 268 748 209 725 156 C718 140 715 121 714 103 C708 39 677 -47 601 -47 C581 -45 561 -23 561 -2 C561 14 563 35 571 50 C617 140 635 246 660 344 C657 347 653 348 650 348 C646 348 642 345 639 342 C613 312 576 299 550 270 C533 251 459 219 459 193 C459 189 460 186 460 183 C460 141 432 105 432 62 C429 4 386 -48 324 -48 C299 -48 284 -32 284 -6 C284 10 287 28 294 42 C312 80 325 120 334 161 C345 215 367 268 373 324 L364 324 C286 324 188 199 187 195 C176 162 160 118 160 92 C160 85 162 78 162 71 C162 20 106 -37 63 -37 C31 -37 10 -8 10 20 C10 37 17 68 27 87 C42 116 43 150 62 177 C65 182 66 188 68 194 C93 299 133 404 166 507 C175 535 210 551 239 551 C270 551 283 529 283 499 C283 470 255 432 247 386 L247 386 Z " />
<glyph glyph-name="n" unicode="n" horiz-adv-x="533" d="M213 528 C240 512 275 497 275 468 C275 415 235 391 221 337 C255 352 270 366 297 380 C306 383 314 389 322 395 C374 433 449 505 496 505 C531 505 559 486 559 459 C559 436 541 396 531 369 C492 264 449 171 449 53 C446 10 395 -16 360 -16 C341 -16 314 19 314 40 C314 47 316 54 319 63 C336 104 329 149 353 193 C371 228 377 261 377 303 C342 290 319 255 283 240 C251 221 231 188 196 173 C117 138 191 5 97 -28 C82 -33 66 -45 55 -44 C29 -44 8 -13 8 15 C8 21 9 27 11 33 C26 74 43 115 55 157 C68 202 75 248 86 292 C100 349 132 402 141 455 C148 495 171 500 213 528 L213 528 Z " />
<glyph glyph-name="o" unicode="o" horiz-adv-x="477" d="M136 -14 C54 -8 17 14 17 107 C17 146 30 181 40 219 C53 269 58 294 85 330 C105 358 113 395 141 412 C145 414 149 418 152 422 C196 487 257 502 333 515 C342 517 351 519 360 519 C393 519 414 493 450 470 C482 450 496 425 496 379 C496 337 482 298 471 258 C468 248 458 241 453 231 C435 199 419 166 399 135 C359 72 283 12 206 -2 C186 -6 166 -14 145 -15 C142 -15 139 -14 136 -14 L136 -14 Z M161 99 C209 111 254 120 283 162 C309 199 331 238 356 276 C364 289 370 344 370 359 C370 375 353 397 324 397 C254 397 227 337 191 285 C165 248 148 196 148 148 C148 118 149 111 161 99 L161 99 Z " />
<glyph glyph-name="p" unicode="p" horiz-adv-x="494" d="M254 510 C254 499 243 489 243 478 C243 474 245 469 248 465 C295 484 336 505 386 505 C445 505 506 428 506 360 C506 275 447 205 399 132 C392 118 349 86 328 66 C309 48 289 32 263 22 C258 20 252 17 248 13 C216 -17 175 -21 134 -23 C86 -26 76 -133 66 -187 C59 -222 11 -260 -12 -260 C-48 -260 -57 -226 -57 -195 C-57 -143 -44 -89 -26 -36 C-10 13 13 58 18 110 C22 152 54 187 56 229 C56 257 77 295 89 326 C117 403 104 552 188 552 C206 552 247 535 254 510 L254 510 Z M388 324 C384 373 365 384 332 384 C284 384 255 319 219 284 C172 238 154 173 137 108 C137 107 136 105 136 104 C136 95 144 89 153 89 C186 89 231 121 258 147 C283 171 312 192 329 223 C342 246 356 267 372 288 C381 299 384 316 388 324 L388 324 Z " />
<glyph glyph-name="q" unicode="q" horiz-adv-x="474" d="M219 -230 C192 -202 193 -161 193 -128 C193 -124 196 -118 201 -114 C217 -99 224 -79 230 -58 C235 -40 246 -22 249 -3 C253 33 274 64 279 108 C219 67 171 18 117 18 C45 18 1 60 1 117 C1 123 3 128 6 133 C34 203 64 282 120 338 C132 350 140 366 152 377 C190 411 231 453 278 466 C322 478 378 496 420 496 C465 496 517 468 517 395 C517 379 514 362 507 351 C451 261 423 164 390 64 C389 60 387 55 387 50 L387 42 C387 7 375 -23 355 -53 C349 -63 348 -78 348 -89 C348 -99 349 -110 349 -120 C349 -184 300 -231 236 -231 C231 -231 225 -231 219 -230 L219 -230 Z M144 147 C209 180 246 245 303 286 C322 300 357 329 357 357 L357 368 L357 376 C287 352 241 336 214 277 C206 260 183 245 175 226 C164 203 147 181 144 147 L144 147 Z " />
<glyph glyph-name="r" unicode="r" horiz-adv-x="358" d="M234 424 C285 433 313 454 355 467 C385 479 410 498 440 498 C474 498 514 489 514 447 C514 370 390 393 352 362 C349 360 346 357 343 357 C300 349 265 319 226 304 C187 288 176 235 157 200 C116 125 150 -16 45 -15 C11 -15 -7 6 -7 46 C-7 63 -5 82 3 96 C33 151 50 209 73 268 C76 277 82 286 82 295 C82 327 98 354 107 383 C125 444 133 509 194 534 C201 537 207 538 213 538 C231 538 255 517 255 497 C255 483 234 452 234 435 L234 424 L234 424 Z " />
<glyph glyph-name="s" unicode="s" horiz-adv-x="393" d="M223 98 C206 145 177 168 160 214 C135 279 89 322 72 386 C70 392 70 398 70 404 C70 446 148 538 185 545 C197 547 210 548 222 548 C292 548 366 512 405 454 C416 437 443 406 443 399 L443 372 C443 345 440 319 413 300 C399 290 387 275 367 275 C337 275 312 293 306 324 C297 371 288 425 233 424 C222 424 212 412 212 400 C215 363 257 303 281 263 C310 214 359 156 359 114 C359 27 222 -41 177 -41 C126 -41 96 -17 55 19 C28 43 3 95 3 124 C3 148 23 173 47 173 C104 173 130 76 179 76 C194 76 199 82 223 98 L223 98 Z " />
<glyph glyph-name="t" unicode="t" horiz-adv-x="294" d="M317 628 C311 586 293 556 274 512 C284 509 292 507 300 507 C317 507 331 510 342 510 C362 510 376 508 395 508 C409 508 424 513 445 513 C466 513 496 491 496 473 C496 434 422 396 393 396 C383 396 373 397 363 397 C352 397 341 396 330 396 L304 396 C264 396 228 391 220 363 C214 341 206 301 201 294 C180 256 169 216 162 174 C155 132 131 94 131 53 C131 6 91 -62 35 -62 C5 -62 -31 -39 -31 -9 C-31 26 -11 78 12 109 C45 154 45 216 69 267 C91 314 96 363 116 409 C117 414 120 418 120 423 C119 426 119 429 119 432 C119 470 152 504 165 543 C185 601 193 664 249 664 C277 664 294 644 317 628 L317 628 Z " />
<glyph glyph-name="u" unicode="u" horiz-adv-x="531" d="M149 493 C167 497 187 504 206 504 C236 504 255 484 255 457 C255 402 170 322 168 255 C165 224 148 189 148 167 C148 157 151 146 156 134 C197 160 233 204 268 240 C327 300 377 363 418 433 C436 464 465 497 504 497 C534 497 564 483 564 444 C564 440 563 436 562 432 C550 389 537 345 524 302 C513 266 498 232 496 195 C496 183 491 171 487 160 C474 129 469 97 466 63 C462 16 428 -8 388 -8 C354 -8 331 12 331 48 C331 88 362 135 362 181 C339 164 316 148 297 126 C282 108 272 85 254 71 C205 34 159 1 92 1 C60 2 17 25 17 63 L17 82 L17 115 C17 153 32 192 44 238 C59 293 74 350 106 401 C123 428 133 459 149 493 L149 493 Z " />
<glyph glyph-name="v" unicode="v" horiz-adv-x="464" d="M249 238 C261 252 269 260 276 270 C281 275 282 283 287 288 C328 336 339 399 376 450 C402 485 423 510 466 510 C501 510 527 489 527 458 C527 404 454 378 428 319 C412 284 388 251 372 216 C346 158 310 105 286 47 C273 8 227 -25 186 -25 C167 -25 132 13 132 44 C132 55 136 66 136 76 C136 89 134 102 132 115 C117 203 107 300 81 382 C73 406 66 431 66 457 C66 514 83 514 133 522 C161 522 186 503 191 477 C206 396 213 326 249 238 L249 238 Z " />
<glyph glyph-name="w" unicode="w" horiz-adv-x="709" d="M354 206 C310 146 291 106 263 52 C251 29 234 25 217 8 C204 -5 189 -11 174 -11 C135 -11 112 19 112 49 C112 58 114 67 114 75 C114 143 93 210 88 277 C88 284 86 291 83 297 C65 331 54 385 54 419 C54 459 85 503 127 503 C203 503 185 391 208 334 C218 303 228 273 239 241 C250 244 285 296 304 325 C333 370 341 419 398 419 C501 412 451 222 498 222 C518 222 576 311 581 317 C597 343 606 367 622 391 C629 400 634 412 636 423 C643 461 665 485 699 501 C710 505 721 512 729 520 C744 536 771 546 791 546 C820 546 843 517 843 493 C843 457 765 372 720 334 C675 296 639 231 606 185 C556 121 523 -20 446 -20 C396 -20 378 32 378 89 C378 96 379 103 379 110 C379 133 367 164 354 206 L354 206 Z " />
<glyph glyph-name="x" unicode="x" horiz-adv-x="433" d="M216 142 C196 134 186 118 177 103 C144 50 96 -25 43 -25 C2 -25 -23 -2 -23 28 C-23 71 79 165 134 227 C147 242 160 258 174 275 C153 298 156 328 144 352 C131 378 127 406 117 433 C109 454 105 476 105 498 C105 505 105 511 106 518 C125 532 153 544 175 544 C193 544 209 533 225 523 C246 510 254 419 272 383 C310 416 355 448 385 482 C398 497 413 501 429 501 C470 501 494 484 494 448 C494 437 491 427 481 418 C431 374 324 296 324 260 C324 209 369 91 411 38 C415 32 416 26 416 20 C416 -14 369 -40 338 -40 C272 -40 259 36 237 85 C229 103 224 122 216 142 L216 142 Z " />
<glyph glyph-name="y" unicode="y" horiz-adv-x="440" d="M268 246 C309 278 327 347 354 398 C370 427 394 452 411 481 C427 509 446 521 472 521 C507 521 528 503 528 473 C528 458 525 440 513 427 C494 407 487 379 463 362 C463 362 411 266 403 245 C380 181 324 136 324 64 C324 26 313 -3 283 -27 C205 -92 211 -250 108 -250 C72 -250 51 -223 51 -189 C51 -157 104 -74 137 -26 C151 -6 168 32 168 51 C168 165 107 311 78 379 C64 411 53 452 53 487 C53 525 82 552 114 552 C150 552 184 529 184 496 C184 443 214 402 229 354 C240 318 245 279 268 246 L268 246 Z " />
<glyph glyph-name="z" unicode="z" horiz-adv-x="494" d="M336 398 C319 405 305 408 290 408 C246 408 198 395 153 395 C121 395 98 421 98 449 C98 495 133 514 160 514 C185 514 212 508 239 508 C313 508 392 521 467 521 C481 521 533 498 533 477 C533 429 487 389 460 364 C415 322 375 280 330 236 C298 217 279 185 252 162 C236 148 225 130 209 113 C227 102 243 104 258 102 C288 98 322 92 352 92 C364 92 375 96 387 96 C406 96 424 92 443 87 C456 74 461 47 461 32 C461 -8 386 -17 345 -17 C299 -17 253 -10 207 -10 C161 -10 112 -18 67 -24 C56 -25 46 -28 35 -28 C9 -28 -12 -8 -12 17 C-12 79 64 128 107 173 C134 201 164 226 193 254 C240 299 299 346 336 398 L336 398 Z " />
<glyph glyph-name="braceleft" unicode="&#x7b;" horiz-adv-x="370" d="M50 369 C81 398 113 423 153 435 C184 442 184 471 184 492 C184 496 183 501 183 505 C183 605 247 709 348 709 C428 709 445 649 445 639 C445 613 413 598 395 589 C311 565 346 487 321 406 C308 364 259 324 259 303 C259 289 274 273 274 255 C274 203 223 118 223 87 C223 60 299 54 299 9 C299 -32 251 -46 203 -46 C141 -46 47 -18 47 36 C47 47 50 59 56 74 C78 129 99 186 121 241 C121 251 108 260 95 267 C57 287 47 299 46 331 C46 340 47 356 50 369 L50 369 Z " />
<glyph glyph-name="bar" unicode="&#x7c;" horiz-adv-x="238" d="M212 593 C210 598 209 602 209 606 C209 623 219 644 223 665 C230 702 262 733 297 733 C342 733 376 702 376 660 C376 631 359 603 349 574 C326 509 312 437 283 375 C258 332 253 269 230 220 C222 203 214 184 213 166 C200 104 161 45 161 -18 C161 -65 114 -102 75 -102 C36 -102 -3 -69 -3 -23 C-3 -10 0 3 6 16 C33 71 60 125 65 187 C66 207 91 246 101 273 C140 378 171 483 212 593 L212 593 Z " />
<glyph glyph-name="braceright" unicode="&#x7d;" horiz-adv-x="309" d="M150 673 C174 711 194 725 228 725 C286 725 334 702 355 649 C368 616 381 618 381 593 C381 543 354 492 338 443 C371 428 414 406 414 380 C414 330 353 319 299 308 C288 265 262 228 260 183 C259 169 252 155 248 141 C241 115 230 63 222 55 C179 -3 145 -32 83 -32 C39 -32 -7 -21 -7 37 C-7 98 76 95 95 139 C105 163 120 186 123 210 C128 263 157 309 157 361 C157 375 150 384 150 396 C150 422 173 458 187 484 C200 508 228 547 228 566 C228 598 161 595 156 646 C154 655 152 665 150 673 L150 673 Z " />
<glyph glyph-name="sterling" unicode="&#xa3;" horiz-adv-x="568" d="M646 534 C634 530 622 529 611 529 C579 529 548 550 523 550 C477 550 449 493 436 455 L436 453 C436 450 437 447 437 442 C480 433 531 400 531 362 C531 322 491 305 458 305 C447 305 436 305 425 307 C368 307 365 273 335 197 C368 169 406 150 433 120 C451 99 488 86 505 86 C536 86 555 128 592 128 C632 128 652 113 652 78 C652 22 604 -29 548 -32 C524 -33 502 -37 479 -37 C436 -37 367 23 317 56 C304 64 290 71 274 80 C220 21 191 -24 116 -24 C43 -24 -1 34 -1 109 C3 184 90 287 160 287 C176 287 192 279 207 279 C212 279 219 287 219 291 C219 316 153 309 153 361 C153 376 157 389 173 394 C211 406 273 422 284 444 C325 550 380 684 496 684 C554 684 669 621 669 583 C669 570 660 555 646 534 L646 534 Z " />
<glyph glyph-name="section" unicode="&#xa7;" horiz-adv-x="379" d="M292 103 C300 72 306 46 306 17 C306 -55 289 -136 219 -167 C197 -177 174 -186 150 -186 C142 -186 134 -184 126 -184 L111 -184 C82 -184 41 -168 41 -136 C41 -107 80 -68 109 -68 C149 -60 155 -54 155 -1 C155 10 155 20 154 30 L154 35 C154 37 154 38 153 40 C137 70 128 105 101 127 C83 141 68 158 64 183 C61 202 51 214 51 235 C51 337 123 405 192 479 C219 508 242 543 278 567 C319 608 359 622 404 622 C465 622 478 607 505 575 C509 569 512 562 512 555 C512 495 413 488 389 480 C365 472 354 457 354 435 C354 411 358 388 379 372 C395 360 403 342 403 317 C411 307 413 297 413 286 C413 249 397 223 381 189 C359 144 340 132 292 103 L292 103 Z M270 287 C256 295 242 306 228 306 C204 306 184 280 184 254 C184 239 195 232 214 232 C250 232 253 258 270 287 L270 287 Z " />
<glyph glyph-name="dieresis" unicode="&#xa8;" horiz-adv-x="313" d="M391 691 C391 732 432 757 469 757 C503 757 527 735 527 707 C527 674 480 637 442 637 C411 637 391 657 391 691 L391 691 Z M277 739 L290 739 C319 739 339 720 342 693 C342 660 297 630 264 630 C241 630 206 661 206 686 C206 708 240 740 267 740 C270 740 274 740 277 739 L277 739 Z " />
<glyph glyph-name="copyright" unicode="&#xa9;" horiz-adv-x="707" d="M298 -48 C282 -48 266 -49 250 -49 C136 -49 27 79 27 163 C27 177 37 190 37 204 C36 208 36 213 36 217 C36 265 72 307 84 356 C96 406 140 458 177 498 C250 577 369 589 472 589 C500 589 525 580 539 552 C545 540 556 536 567 533 C610 517 673 475 678 439 C690 403 702 380 702 346 C702 325 698 304 691 283 C690 280 690 278 690 276 L690 270 C690 212 638 151 610 112 C594 90 570 75 553 53 C490 -29 364 -48 310 -48 C306 -48 302 -47 298 -47 L298 -48 L298 -48 Z M311 53 C337 59 366 62 390 72 C435 91 471 122 507 154 C511 157 514 161 516 165 C536 209 572 264 572 310 C572 330 558 353 551 373 C540 406 520 429 485 438 C449 447 417 478 381 478 C260 478 204 356 183 295 C171 261 161 226 153 191 C152 188 151 184 151 181 C151 162 180 139 196 118 C225 79 261 55 311 53 L311 53 Z M441 158 C411 137 380 128 349 128 C328 128 305 133 283 139 C245 140 204 171 204 216 C215 229 221 246 221 266 L221 271 C221 315 268 394 309 398 C315 399 321 400 326 404 C353 426 397 427 427 427 C452 427 485 409 485 378 C485 345 448 316 415 316 L405 316 C386 316 368 311 354 298 C349 281 344 264 340 248 C359 212 443 248 446 190 C446 178 443 169 441 158 L441 158 Z " />
<glyph glyph-name="guillemotleft" unicode="&#xab;" horiz-adv-x="653" d="M740 554 C766 544 799 517 799 490 C799 438 683 392 619 346 C588 320 518 255 518 237 C518 229 533 207 546 197 C574 175 583 120 600 112 C620 106 628 79 628 62 C628 31 588 -2 556 -2 C505 -2 456 20 451 73 C445 144 337 161 337 224 C337 256 404 329 455 364 C463 370 472 377 478 385 C510 428 564 457 610 491 C650 520 694 538 740 554 L740 554 Z M328 51 C316 5 289 -16 251 -16 C179 -16 145 37 125 117 C112 168 42 202 42 244 C42 289 103 365 147 378 C158 381 167 392 176 399 C237 436 269 465 311 502 C339 527 365 541 391 541 C424 541 448 520 448 485 C448 417 220 308 220 264 C220 249 229 232 237 220 C268 174 273 129 317 92 C325 83 331 74 331 64 C331 59 330 55 328 51 L328 51 Z " />
<glyph glyph-name="degree" unicode="&#xb0;" horiz-adv-x="374" d="M326 450 C319 449 312 449 305 449 C223 449 168 517 168 571 C168 686 314 748 423 748 C449 748 493 719 520 699 C537 686 546 664 546 642 C546 614 528 596 517 572 C486 507 399 449 337 449 C333 449 329 449 326 450 L326 450 Z M417 611 C398 627 378 645 352 645 C327 645 287 606 287 589 C287 574 315 553 337 553 C376 553 407 581 417 611 L417 611 Z " />
<glyph glyph-name="acute" unicode="&#xb4;" horiz-adv-x="180" d="M240 560 C196 566 180 581 180 605 C180 665 282 709 318 734 C337 747 363 750 384 750 C398 750 417 721 417 704 C417 653 340 649 318 610 C302 581 266 567 240 560 L240 560 Z " />
<glyph glyph-name="ordmasculine" unicode="&#xba;" horiz-adv-x="477" d="M136 -14 C54 -8 17 14 17 107 C17 146 30 181 40 219 C53 269 58 294 85 330 C105 358 113 395 141 412 C145 414 149 418 152 422 C196 487 257 502 333 515 C342 517 351 519 360 519 C393 519 414 493 450 470 C482 450 496 425 496 379 C496 337 482 298 471 258 C468 248 458 241 453 231 C435 199 419 166 399 135 C359 72 283 12 206 -2 C186 -6 166 -14 145 -15 C142 -15 139 -14 136 -14 L136 -14 Z M161 99 C209 111 254 120 283 162 C309 199 331 238 356 276 C364 289 370 344 370 359 C370 375 353 397 324 397 C254 397 227 337 191 285 C165 248 148 196 148 148 C148 118 149 111 161 99 L161 99 Z " />
<glyph glyph-name="guillemotright" unicode="&#xbb;" horiz-adv-x="686" d="M370 -15 C332 -15 317 -2 317 24 C317 74 361 99 402 124 C414 131 428 137 439 149 C445 157 456 164 465 165 C497 171 540 212 540 234 C540 253 540 272 527 286 C524 289 521 295 520 300 C509 329 493 356 468 375 C457 383 441 414 441 421 C441 448 474 498 498 498 C524 498 556 491 571 472 C600 435 625 396 653 357 C660 346 662 332 670 321 C690 292 717 264 717 231 C717 182 665 142 591 94 C584 89 576 83 568 81 C542 74 523 56 503 41 C462 9 419 -14 370 -15 L370 -15 Z M182 516 C218 495 224 500 242 474 C268 422 304 380 340 334 C362 305 409 270 409 236 C409 203 379 176 342 164 C296 149 260 119 222 87 C201 69 183 46 156 35 C126 15 125 2 98 2 C63 2 11 34 11 61 C11 123 112 169 172 208 C191 220 221 239 222 254 C222 266 204 285 196 299 C166 349 114 387 114 440 C114 480 139 494 182 516 L182 516 Z " />
<glyph glyph-name="Agrave" unicode="&#xc0;" horiz-adv-x="451" d="M260 751 C307 751 330 698 362 668 L378 650 C391 635 408 609 408 593 C408 564 360 526 350 522 C352 518 353 514 353 509 C353 504 352 499 352 495 C352 477 358 461 363 444 C368 427 369 409 372 391 L375 373 C387 340 411 289 411 261 C410 250 410 239 410 229 C410 166 424 110 436 44 C427 9 377 -20 353 -20 C335 -20 304 0 304 42 C304 52 305 60 305 69 C305 90 303 129 269 129 C223 124 157 130 153 85 C149 33 83 -46 33 -46 C24 -46 -4 -35 -4 -20 C-2 -16 -2 -11 -2 -6 C-2 2 -4 11 -4 19 C-4 39 19 56 29 79 C65 158 100 236 132 319 C163 386 205 450 240 517 C250 536 261 548 276 550 L276 551 C268 570 261 589 244 602 C232 635 212 667 212 704 C212 732 233 751 260 751 L260 751 Z M261 363 C234 340 233 307 216 283 C205 268 202 246 195 225 C199 225 202 224 206 224 C235 224 261 235 289 243 L289 258 C289 289 279 342 261 363 L261 363 Z " />
<glyph glyph-name="Aacute" unicode="&#xc1;" horiz-adv-x="451" d="M436 44 C427 9 377 -20 353 -20 C335 -20 304 0 304 42 C304 52 305 60 305 69 C305 90 303 129 269 129 C223 124 157 130 153 85 C149 33 83 -46 33 -46 C24 -46 -4 -35 -4 -20 C-2 -16 -2 -11 -2 -6 C-2 2 -4 11 -4 19 C-4 39 19 56 29 79 C65 158 100 236 132 319 C163 386 205 450 240 517 C252 540 264 551 284 551 C307 551 353 539 353 509 C353 504 352 499 352 495 C352 477 358 461 363 444 C370 422 371 396 375 373 C387 340 411 289 411 261 C410 250 410 239 410 229 C410 166 424 110 436 44 L436 44 Z M261 363 C234 340 233 307 216 283 C205 268 202 246 195 225 C199 225 202 224 206 224 C235 224 261 235 289 243 L289 258 C289 289 279 342 261 363 L261 363 Z M342 557 C298 563 282 578 282 602 C282 662 384 706 420 731 C439 744 465 747 486 747 C500 747 519 718 519 701 C519 650 442 646 420 607 C404 578 368 564 342 557 L342 557 Z " />
<glyph glyph-name="Acircumflex" unicode="&#xc2;" horiz-adv-x="451" d="M436 44 C427 9 377 -20 353 -20 C335 -20 304 0 304 42 C304 52 305 60 305 69 C305 90 303 129 269 129 C223 124 157 130 153 85 C149 33 83 -46 33 -46 C24 -46 -4 -35 -4 -20 C-2 -16 -2 -11 -2 -6 C-2 2 -4 11 -4 19 C-4 39 19 56 29 79 C65 158 100 236 132 319 C163 386 205 450 240 517 C252 540 264 551 284 551 C307 551 353 539 353 509 C353 504 352 499 352 495 C352 477 358 461 363 444 C370 422 371 396 375 373 C387 340 411 289 411 261 C410 250 410 239 410 229 C410 166 424 110 436 44 L436 44 Z M261 363 C234 340 233 307 216 283 C205 268 202 246 195 225 C199 225 202 224 206 224 C235 224 261 235 289 243 L289 258 C289 289 279 342 261 363 L261 363 Z M317 619 C285 591 245 565 203 565 C178 565 148 586 148 608 C148 631 159 654 181 664 C235 688 276 746 331 746 C391 746 487 656 487 623 C487 595 432 549 412 549 C392 549 364 584 340 604 C334 610 325 614 317 619 L317 619 Z " />
<glyph glyph-name="Atilde" unicode="&#xc3;" horiz-adv-x="451" d="M436 44 C427 9 377 -20 353 -20 C335 -20 304 0 304 42 C304 52 305 60 305 69 C305 90 303 129 269 129 C223 124 157 130 153 85 C149 33 83 -46 33 -46 C24 -46 -4 -35 -4 -20 C-2 -16 -2 -11 -2 -6 C-2 2 -4 11 -4 19 C-4 39 19 56 29 79 C65 158 100 236 132 319 C163 386 205 450 240 517 C252 540 264 551 284 551 C307 551 353 539 353 509 C353 504 352 499 352 495 C352 477 358 461 363 444 C370 422 371 396 375 373 C387 340 411 289 411 261 C410 250 410 239 410 229 C410 166 424 110 436 44 L436 44 Z M261 363 C234 340 233 307 216 283 C205 268 202 246 195 225 C199 225 202 224 206 224 C235 224 261 235 289 243 L289 258 C289 289 279 342 261 363 L261 363 Z M381 564 C378 563 375 562 372 562 C350 562 293 625 271 625 C251 625 220 596 195 596 C170 596 152 615 152 643 C152 677 167 703 201 716 C236 730 265 749 309 749 C327 749 359 740 370 718 C383 690 413 678 427 678 C456 678 494 718 534 718 C559 718 587 695 587 663 C587 623 554 634 507 597 C475 572 438 564 396 564 L381 564 L381 564 Z " />
<glyph glyph-name="Adieresis" unicode="&#xc4;" horiz-adv-x="451" d="M436 44 C427 9 377 -20 353 -20 C335 -20 304 0 304 42 C304 52 305 60 305 69 C305 90 303 129 269 129 C223 124 157 130 153 85 C149 33 83 -46 33 -46 C24 -46 -4 -35 -4 -20 C-2 -16 -2 -11 -2 -6 C-2 2 -4 11 -4 19 C-4 39 19 56 29 79 C65 158 100 236 132 319 C163 386 205 450 240 517 C252 540 264 551 284 551 C307 551 353 539 353 509 C353 504 352 499 352 495 C352 477 358 461 363 444 C370 422 371 396 375 373 C387 340 411 289 411 261 C410 250 410 239 410 229 C410 166 424 110 436 44 L436 44 Z M261 363 C234 340 233 307 216 283 C205 268 202 246 195 225 C199 225 202 224 206 224 C235 224 261 235 289 243 L289 258 C289 289 279 342 261 363 L261 363 Z M373 662 C373 703 414 728 451 728 C485 728 509 706 509 678 C509 645 462 608 424 608 C393 608 373 628 373 662 L373 662 Z M259 710 L272 710 C301 710 321 691 324 664 C324 631 279 601 246 601 C223 601 188 632 188 657 C188 679 222 711 249 711 C252 711 256 711 259 710 L259 710 Z " />
<glyph glyph-name="Aring" unicode="&#xc5;" horiz-adv-x="451" d="M436 44 C427 9 377 -20 353 -20 C335 -20 304 0 304 42 C304 52 305 60 305 69 C305 90 303 129 269 129 C223 124 157 130 153 85 C149 33 83 -46 33 -46 C24 -46 -4 -35 -4 -20 C-2 -16 -2 -11 -2 -6 C-2 2 -4 11 -4 19 C-4 39 19 56 29 79 C65 158 100 236 132 319 C155 368 184 415 212 464 C177 491 156 522 156 560 C156 674 301 737 411 737 C437 737 481 708 508 688 C525 675 534 653 534 631 C534 603 516 585 505 561 C481 509 430 473 378 450 L363 444 C368 427 369 409 372 391 L375 373 C387 340 411 289 411 261 C410 250 410 239 410 229 C410 166 424 110 436 44 L436 44 Z M405 600 C386 616 366 634 340 634 C315 634 275 595 275 578 C275 568 289 554 299 549 L310 546 C314 544 320 543 325 542 L330 542 C365 544 395 571 405 600 L405 600 Z M261 363 C234 340 233 307 216 283 C205 268 202 246 195 225 C199 225 202 224 206 224 C235 224 261 235 289 243 L289 258 C289 289 279 342 261 363 L261 363 Z " />
<glyph glyph-name="AE" unicode="&#xc6;" horiz-adv-x="728" d="M500 337 C497 322 495 313 495 303 C496 274 501 245 501 215 C501 197 496 179 496 160 C496 119 517 112 547 112 C588 112 631 120 672 119 C682 119 719 103 728 90 C739 75 751 40 751 23 C751 0 708 -17 681 -17 C662 -15 642 -16 623 -15 C582 -14 542 -11 501 -11 C481 -11 462 -18 443 -18 C343 -18 343 72 331 135 C323 139 316 140 308 140 C284 140 255 134 229 132 C202 130 180 121 172 92 C166 71 152 69 136 45 C106 -1 87 -28 48 -28 C20 -28 -25 -2 -25 36 C-25 46 -17 75 -5 85 C23 110 36 147 57 177 C77 207 97 236 117 266 C126 280 132 296 141 310 C169 354 198 398 226 442 C228 445 230 448 231 451 C245 501 284 536 307 580 C318 601 342 609 350 624 C361 644 377 650 400 650 C505 653 611 658 715 664 C761 664 783 631 803 586 C805 581 806 576 806 571 C806 543 761 518 743 518 C712 518 682 528 651 528 C636 528 620 526 605 526 C582 526 558 529 536 530 C525 530 515 528 502 527 L502 471 C532 464 553 463 580 463 C610 463 640 471 671 471 C716 471 745 439 745 397 C745 325 659 334 639 334 C594 334 549 337 500 337 L500 337 Z M355 415 C330 364 292 320 274 267 C303 274 330 268 356 284 C358 309 360 333 360 358 C360 377 358 396 355 415 L355 415 Z " />
<glyph glyph-name="Ccedilla" unicode="&#xc7;" horiz-adv-x="419" d="M571 675 C571 665 572 654 572 644 C572 617 562 583 527 583 C509 583 488 590 469 590 C429 590 361 575 332 546 C265 464 189 378 189 244 L189 237 C189 211 186 185 186 159 C186 122 227 100 259 100 C316 100 371 141 423 177 C434 184 444 188 455 188 C481 188 497 178 497 158 C497 121 425 36 370 14 C346 4 321 0 294 -9 C291 -32 282 -54 282 -76 C282 -83 285 -90 285 -97 C285 -145 265 -224 214 -224 C172 -224 136 -205 136 -158 C136 -155 137 -153 138 -151 C153 -122 168 -62 168 -38 C168 -18 157 -1 140 8 C83 27 61 120 61 175 C61 263 71 377 119 438 C138 462 138 501 166 526 C172 532 177 539 180 546 C213 608 274 659 343 676 C370 697 400 701 431 701 C477 701 524 705 571 675 L571 675 Z " />
<glyph glyph-name="Egrave" unicode="&#xc8;" horiz-adv-x="378" d="M254 751 C301 751 324 698 356 668 L372 650 C385 635 402 609 402 593 C402 574 368 535 358 530 L374 532 C388 534 401 535 415 535 C452 535 494 518 494 482 C494 444 443 415 400 415 C385 415 369 416 354 416 C312 416 230 417 226 388 C224 371 212 356 212 338 C212 335 212 331 213 328 C241 330 268 334 294 334 C329 334 361 316 361 288 C361 249 301 213 260 213 C252 213 244 215 236 215 C220 215 205 212 188 211 C162 176 165 132 143 93 C152 90 157 88 162 88 C202 88 242 100 279 100 C306 100 331 76 331 54 C331 -12 134 -28 132 -28 C96 -33 61 -40 26 -40 C-1 -40 -20 -17 -20 28 C-20 47 -15 67 -4 83 C20 118 64 184 67 217 C75 308 123 390 134 479 C137 504 171 529 200 529 C223 529 245 518 267 518 C277 518 286 519 296 520 C271 529 267 580 238 602 C226 635 206 667 206 704 C206 732 227 751 254 751 L254 751 Z " />
<glyph glyph-name="Eacute" unicode="&#xc9;" horiz-adv-x="378" d="M213 328 C241 330 268 334 294 334 C329 334 361 316 361 288 C361 249 301 213 260 213 C252 213 244 215 236 215 C220 215 205 212 188 211 C162 176 165 132 143 93 C152 90 157 88 162 88 C202 88 242 100 279 100 C306 100 331 76 331 54 C331 -12 134 -28 132 -28 C96 -33 61 -40 26 -40 C-1 -40 -20 -17 -20 28 C-20 47 -15 67 -4 83 C20 118 64 184 67 217 C75 308 123 390 134 479 C137 504 171 529 200 529 C223 529 244 518 267 518 C317 518 367 535 415 535 C452 535 494 518 494 482 C494 444 443 415 400 415 C385 415 369 416 354 416 C312 416 230 417 226 388 C224 371 212 356 212 338 C212 335 212 331 213 328 L213 328 Z M310 556 C266 562 250 577 250 601 C250 661 352 705 388 730 C407 743 433 746 454 746 C468 746 487 717 487 700 C487 649 410 645 388 606 C372 577 336 563 310 556 L310 556 Z " />
<glyph glyph-name="Ecircumflex" unicode="&#xca;" horiz-adv-x="378" d="M213 328 C241 330 268 334 294 334 C329 334 361 316 361 288 C361 249 301 213 260 213 C252 213 244 215 236 215 C220 215 205 212 188 211 C162 176 165 132 143 93 C152 90 157 88 162 88 C202 88 242 100 279 100 C306 100 331 76 331 54 C331 -12 134 -28 132 -28 C96 -33 61 -40 26 -40 C-1 -40 -20 -17 -20 28 C-20 47 -15 67 -4 83 C20 118 64 184 67 217 C75 308 123 390 134 479 C137 504 171 529 200 529 C223 529 244 518 267 518 C317 518 367 535 415 535 C452 535 494 518 494 482 C494 444 443 415 400 415 C385 415 369 416 354 416 C312 416 230 417 226 388 C224 371 212 356 212 338 C212 335 212 331 213 328 L213 328 Z M350 622 C318 594 278 568 236 568 C211 568 181 589 181 611 C181 634 192 657 214 667 C268 691 309 749 364 749 C424 749 520 659 520 626 C520 598 465 552 445 552 C425 552 397 587 373 607 C367 613 358 617 350 622 L350 622 Z " />
<glyph glyph-name="Edieresis" unicode="&#xcb;" horiz-adv-x="378" d="M213 328 C241 330 268 334 294 334 C329 334 361 316 361 288 C361 249 301 213 260 213 C252 213 244 215 236 215 C220 215 205 212 188 211 C162 176 165 132 143 93 C152 90 157 88 162 88 C202 88 242 100 279 100 C306 100 331 76 331 54 C331 -12 134 -28 132 -28 C96 -33 61 -40 26 -40 C-1 -40 -20 -17 -20 28 C-20 47 -15 67 -4 83 C20 118 64 184 67 217 C75 308 123 390 134 479 C137 504 171 529 200 529 C223 529 244 518 267 518 C317 518 367 535 415 535 C452 535 494 518 494 482 C494 444 443 415 400 415 C385 415 369 416 354 416 C312 416 230 417 226 388 C224 371 212 356 212 338 C212 335 212 331 213 328 L213 328 Z M390 666 C390 707 431 732 468 732 C502 732 526 710 526 682 C526 649 479 612 441 612 C410 612 390 632 390 666 L390 666 Z M276 714 L289 714 C318 714 338 695 341 668 C341 635 296 605 263 605 C240 605 205 636 205 661 C205 683 239 715 266 715 C269 715 273 715 276 714 L276 714 Z " />
<glyph glyph-name="Igrave" unicode="&#xcc;" horiz-adv-x="193" d="M165 502 C186 504 207 507 227 507 C255 507 276 481 276 455 C276 442 269 424 259 414 C226 380 222 329 207 289 C186 232 150 157 150 106 C150 93 154 78 154 65 C154 24 120 -10 73 -10 C33 -10 12 29 12 64 C12 94 32 126 44 159 C64 199 68 241 85 281 C101 318 107 360 124 403 C137 436 151 468 165 502 L165 502 Z M175 751 C222 751 245 698 277 668 C299 647 323 611 323 593 C323 561 274 523 254 520 C246 518 239 518 233 518 C190 518 195 574 159 602 C147 635 127 667 127 704 C127 732 148 751 175 751 L175 751 Z " />
<glyph glyph-name="Iacute" unicode="&#xcd;" horiz-adv-x="193" d="M165 502 C186 504 207 507 227 507 C255 507 276 481 276 455 C276 442 269 424 259 414 C226 380 222 329 207 289 C186 232 150 157 150 106 C150 93 154 78 154 65 C154 24 120 -10 73 -10 C33 -10 12 29 12 64 C12 94 32 126 44 159 C64 199 68 241 85 281 C101 318 107 360 124 403 C137 436 151 468 165 502 L165 502 Z M275 552 C231 558 215 573 215 597 C215 657 317 701 353 726 C372 739 398 742 419 742 C433 742 452 713 452 696 C452 645 375 641 353 602 C337 573 301 559 275 552 L275 552 Z " />
<glyph glyph-name="Icircumflex" unicode="&#xce;" horiz-adv-x="193" d="M165 502 C186 504 207 507 227 507 C255 507 276 481 276 455 C276 442 269 424 259 414 C226 380 222 329 207 289 C186 232 150 157 150 106 C150 93 154 78 154 65 C154 24 120 -10 73 -10 C33 -10 12 29 12 64 C12 94 32 126 44 159 C64 199 68 241 85 281 C101 318 107 360 124 403 C137 436 151 468 165 502 L165 502 Z M240 609 C208 581 168 555 126 555 C101 555 71 576 71 598 C71 621 82 644 104 654 C158 678 199 736 254 736 C314 736 410 646 410 613 C410 585 355 539 335 539 C315 539 287 574 263 594 C257 600 248 604 240 609 L240 609 Z " />
<glyph glyph-name="Idieresis" unicode="&#xcf;" horiz-adv-x="193" d="M165 502 C186 504 207 507 227 507 C255 507 276 481 276 455 C276 442 269 424 259 414 C226 380 222 329 207 289 C186 232 150 157 150 106 C150 93 154 78 154 65 C154 24 120 -10 73 -10 C33 -10 12 29 12 64 C12 94 32 126 44 159 C64 199 68 241 85 281 C101 318 107 360 124 403 C137 436 151 468 165 502 L165 502 Z M301 664 C301 705 342 730 379 730 C413 730 437 708 437 680 C437 647 390 610 352 610 C321 610 301 630 301 664 L301 664 Z M187 712 L200 712 C229 712 249 693 252 666 C252 633 207 603 174 603 C151 603 116 634 116 659 C116 681 150 713 177 713 C180 713 184 713 187 712 L187 712 Z " />
<glyph glyph-name="Ntilde" unicode="&#xd1;" horiz-adv-x="504" d="M201 300 C171 234 164 169 148 103 C146 95 144 87 144 79 L144 68 C144 31 121 10 90 -6 C77 -6 64 -18 51 -18 C26 -18 2 3 2 46 C2 91 41 131 46 181 C51 234 75 289 93 343 C99 363 103 385 110 405 C126 450 127 540 201 540 C225 540 249 533 258 506 C268 473 283 411 299 392 C322 364 346 337 375 314 C392 329 392 349 398 366 C407 391 426 438 426 451 L426 456 C426 493 474 511 489 511 C523 511 560 491 560 452 C560 441 557 430 550 422 C496 350 507 253 464 175 C448 147 446 88 440 52 C433 11 398 -42 357 -42 C312 -42 287 -9 287 21 C287 34 291 48 300 63 C311 83 325 128 325 142 C325 197 257 266 201 300 L201 300 Z M424 561 C421 560 418 559 415 559 C393 559 336 622 314 622 C294 622 263 593 238 593 C213 593 195 612 195 640 C195 674 210 700 244 713 C279 727 308 746 352 746 C370 746 402 737 413 715 C426 687 456 675 470 675 C499 675 537 715 577 715 C602 715 630 692 630 660 C630 620 597 631 550 594 C518 569 481 561 439 561 L424 561 L424 561 Z " />
<glyph glyph-name="Ograve" unicode="&#xd2;" horiz-adv-x="493" d="M355 751 C402 751 425 698 457 668 L473 650 C486 635 503 609 503 593 C503 551 438 519 427 519 C464 495 518 406 518 351 C518 330 508 306 505 282 C494 196 430 136 396 67 C394 64 394 59 391 57 C343 25 321 -15 257 -33 C241 -37 220 -44 207 -44 C185 -44 150 -34 124 -31 C52 -24 36 65 24 118 C37 178 48 236 77 291 C94 323 116 354 138 383 C185 447 202 476 263 499 C299 512 348 527 385 528 C368 544 364 583 339 602 C327 635 307 667 307 704 C307 732 328 751 355 751 L355 751 Z M227 77 L232 77 C256 77 278 89 293 114 C296 119 298 123 301 126 C330 157 353 191 369 231 C383 266 390 309 390 345 C390 383 353 399 326 399 C297 399 277 384 255 352 C247 341 242 329 233 320 C193 279 181 224 162 173 C160 168 159 161 159 155 C159 97 178 78 227 77 L227 77 Z " />
<glyph glyph-name="Oacute" unicode="&#xd3;" horiz-adv-x="493" d="M24 118 C37 178 48 236 77 291 C94 323 116 354 138 383 C185 447 202 476 263 499 C301 513 353 528 391 528 C433 528 453 496 483 448 C502 417 518 386 518 351 C518 330 508 306 505 282 C494 196 430 136 396 67 C394 64 394 59 391 57 C343 25 321 -15 257 -33 C241 -37 220 -44 207 -44 C185 -44 150 -34 124 -31 C52 -24 36 65 24 118 L24 118 Z M227 77 L232 77 C256 77 278 89 293 114 C296 119 298 123 301 126 C330 157 353 191 369 231 C383 266 390 309 390 345 C390 383 353 399 326 399 C297 399 277 384 255 352 C247 341 242 329 233 320 C193 279 181 224 162 173 C160 168 159 161 159 155 C159 97 178 78 227 77 L227 77 Z M436 557 C392 563 376 578 376 602 C376 662 478 706 514 731 C533 744 559 747 580 747 C594 747 613 718 613 701 C613 650 536 646 514 607 C498 578 462 564 436 557 L436 557 Z " />
<glyph glyph-name="Ocircumflex" unicode="&#xd4;" horiz-adv-x="493" d="M24 118 C37 178 48 236 77 291 C94 323 116 354 138 383 C185 447 202 476 263 499 C301 513 353 528 391 528 C433 528 453 496 483 448 C502 417 518 386 518 351 C518 330 508 306 505 282 C494 196 430 136 396 67 C394 64 394 59 391 57 C343 25 321 -15 257 -33 C241 -37 220 -44 207 -44 C185 -44 150 -34 124 -31 C52 -24 36 65 24 118 L24 118 Z M227 77 L232 77 C256 77 278 89 293 114 C296 119 298 123 301 126 C330 157 353 191 369 231 C383 266 390 309 390 345 C390 383 353 399 326 399 C297 399 277 384 255 352 C247 341 242 329 233 320 C193 279 181 224 162 173 C160 168 159 161 159 155 C159 97 178 78 227 77 L227 77 Z M446 622 C414 594 374 568 332 568 C307 568 277 589 277 611 C277 634 288 657 310 667 C364 691 405 749 460 749 C520 749 616 659 616 626 C616 598 561 552 541 552 C521 552 493 587 469 607 C463 613 454 617 446 622 L446 622 Z " />
<glyph glyph-name="Otilde" unicode="&#xd5;" horiz-adv-x="493" d="M24 118 C37 178 48 236 77 291 C94 323 116 354 138 383 C185 447 202 476 263 499 C301 513 353 528 391 528 C433 528 453 496 483 448 C502 417 518 386 518 351 C518 330 508 306 505 282 C494 196 430 136 396 67 C394 64 394 59 391 57 C343 25 321 -15 257 -33 C241 -37 220 -44 207 -44 C185 -44 150 -34 124 -31 C52 -24 36 65 24 118 L24 118 Z M227 77 L232 77 C256 77 278 89 293 114 C296 119 298 123 301 126 C330 157 353 191 369 231 C383 266 390 309 390 345 C390 383 353 399 326 399 C297 399 277 384 255 352 C247 341 242 329 233 320 C193 279 181 224 162 173 C160 168 159 161 159 155 C159 97 178 78 227 77 L227 77 Z M467 562 C464 561 461 560 458 560 C436 560 379 623 357 623 C337 623 306 594 281 594 C256 594 238 613 238 641 C238 675 253 701 287 714 C322 728 351 747 395 747 C413 747 445 738 456 716 C469 688 499 676 513 676 C542 676 580 716 620 716 C645 716 673 693 673 661 C673 621 640 632 593 595 C561 570 524 562 482 562 L467 562 L467 562 Z " />
<glyph glyph-name="Odieresis" unicode="&#xd6;" horiz-adv-x="493" d="M24 118 C37 178 48 236 77 291 C94 323 116 354 138 383 C185 447 202 476 263 499 C301 513 353 528 391 528 C433 528 453 496 483 448 C502 417 518 386 518 351 C518 330 508 306 505 282 C494 196 430 136 396 67 C394 64 394 59 391 57 C343 25 321 -15 257 -33 C241 -37 220 -44 207 -44 C185 -44 150 -34 124 -31 C52 -24 36 65 24 118 L24 118 Z M227 77 L232 77 C256 77 278 89 293 114 C296 119 298 123 301 126 C330 157 353 191 369 231 C383 266 390 309 390 345 C390 383 353 399 326 399 C297 399 277 384 255 352 C247 341 242 329 233 320 C193 279 181 224 162 173 C160 168 159 161 159 155 C159 97 178 78 227 77 L227 77 Z M456 658 C456 699 497 724 534 724 C568 724 592 702 592 674 C592 641 545 604 507 604 C476 604 456 624 456 658 L456 658 Z M342 706 L355 706 C384 706 404 687 407 660 C407 627 362 597 329 597 C306 597 271 628 271 653 C271 675 305 707 332 707 C335 707 339 707 342 706 L342 706 Z " />
<glyph glyph-name="Ugrave" unicode="&#xd9;" horiz-adv-x="450" d="M136 490 C156 503 175 518 196 518 C233 518 263 503 263 468 C263 459 260 450 255 442 C223 394 224 356 206 297 C190 247 182 199 171 141 C169 134 168 130 168 125 C168 116 173 110 187 95 C215 112 265 142 276 164 C290 191 304 218 313 247 C332 312 364 373 373 441 C378 478 400 499 432 499 C487 499 512 468 512 442 C512 399 490 365 472 329 C427 241 423 137 342 80 C334 74 328 67 321 60 C278 18 203 -31 160 -31 C133 -31 77 -12 66 18 C64 24 60 31 54 35 C41 47 37 62 37 77 C37 202 96 306 116 424 C119 445 128 465 136 490 L136 490 Z M280 747 C327 747 350 694 382 664 C404 643 428 607 428 589 C428 557 379 519 359 516 C351 514 344 514 338 514 C295 514 300 570 264 598 C252 631 232 663 232 700 C232 728 253 747 280 747 L280 747 Z " />
<glyph glyph-name="Uacute" unicode="&#xda;" horiz-adv-x="450" d="M136 490 C156 503 175 518 196 518 C233 518 263 503 263 468 C263 459 260 450 255 442 C223 394 224 356 206 297 C190 247 182 199 171 141 C169 134 168 130 168 125 C168 116 173 110 187 95 C215 112 265 142 276 164 C290 191 304 218 313 247 C332 312 364 373 373 441 C378 478 400 499 432 499 C487 499 512 468 512 442 C512 399 490 365 472 329 C427 241 423 137 342 80 C334 74 328 67 321 60 C278 18 203 -31 160 -31 C133 -31 77 -12 66 18 C64 24 60 31 54 35 C41 47 37 62 37 77 C37 202 96 306 116 424 C119 445 128 465 136 490 L136 490 Z M355 545 C311 551 295 566 295 590 C295 650 397 694 433 719 C452 732 478 735 499 735 C513 735 532 706 532 689 C532 638 455 634 433 595 C417 566 381 552 355 545 L355 545 Z " />
<glyph glyph-name="Ucircumflex" unicode="&#xdb;" horiz-adv-x="450" d="M136 490 C156 503 175 518 196 518 C233 518 263 503 263 468 C263 459 260 450 255 442 C223 394 224 356 206 297 C190 247 182 199 171 141 C169 134 168 130 168 125 C168 116 173 110 187 95 C215 112 265 142 276 164 C290 191 304 218 313 247 C332 312 364 373 373 441 C378 478 400 499 432 499 C487 499 512 468 512 442 C512 399 490 365 472 329 C427 241 423 137 342 80 C334 74 328 67 321 60 C278 18 203 -31 160 -31 C133 -31 77 -12 66 18 C64 24 60 31 54 35 C41 47 37 62 37 77 C37 202 96 306 116 424 C119 445 128 465 136 490 L136 490 Z M352 622 C320 594 280 568 238 568 C213 568 183 589 183 611 C183 634 194 657 216 667 C270 691 311 749 366 749 C426 749 522 659 522 626 C522 598 467 552 447 552 C427 552 399 587 375 607 C369 613 360 617 352 622 L352 622 Z " />
<glyph glyph-name="Udieresis" unicode="&#xdc;" horiz-adv-x="450" d="M136 490 C156 503 175 518 196 518 C233 518 263 503 263 468 C263 459 260 450 255 442 C223 394 224 356 206 297 C190 247 182 199 171 141 C169 134 168 130 168 125 C168 116 173 110 187 95 C215 112 265 142 276 164 C290 191 304 218 313 247 C332 312 364 373 373 441 C378 478 400 499 432 499 C487 499 512 468 512 442 C512 399 490 365 472 329 C427 241 423 137 342 80 C334 74 328 67 321 60 C278 18 203 -31 160 -31 C133 -31 77 -12 66 18 C64 24 60 31 54 35 C41 47 37 62 37 77 C37 202 96 306 116 424 C119 445 128 465 136 490 L136 490 Z M388 643 C388 684 429 709 466 709 C500 709 524 687 524 659 C524 626 477 589 439 589 C408 589 388 609 388 643 L388 643 Z M274 691 L287 691 C316 691 336 672 339 645 C339 612 294 582 261 582 C238 582 203 613 203 638 C203 660 237 692 264 692 C267 692 271 692 274 691 L274 691 Z " />
<glyph glyph-name="agrave" unicode="&#xe0;" horiz-adv-x="538" d="M372 173 C330 138 294 105 253 75 C220 51 188 19 145 13 C121 10 105 -6 77 -6 C33 -6 0 27 0 74 C2 125 7 180 34 226 C44 240 61 271 69 277 C123 328 168 391 236 426 C309 463 407 499 491 499 C526 499 566 463 566 434 C566 394 531 309 519 281 C519 280 517 279 517 278 C511 236 492 196 487 153 C484 128 483 103 470 81 C462 68 462 53 461 39 C459 -6 403 -44 368 -44 C340 -44 322 -21 322 16 C322 45 347 86 360 122 C365 136 367 150 372 173 L372 173 Z M130 122 C200 122 266 230 302 259 C323 276 330 305 341 314 C362 331 361 357 371 386 C311 360 270 345 228 304 C205 281 190 253 166 231 C143 211 123 163 123 148 C123 140 125 131 130 122 L130 122 Z M269 748 C316 748 339 695 371 665 C393 644 417 608 417 590 C417 558 368 520 348 517 C340 515 333 515 327 515 C284 515 289 571 253 599 C241 632 221 664 221 701 C221 729 242 748 269 748 L269 748 Z " />
<glyph glyph-name="aacute" unicode="&#xe1;" horiz-adv-x="538" d="M372 173 C330 138 294 105 253 75 C220 51 188 19 145 13 C121 10 105 -6 77 -6 C33 -6 0 27 0 74 C2 125 7 180 34 226 C44 240 61 271 69 277 C123 328 168 391 236 426 C309 463 407 499 491 499 C526 499 566 463 566 434 C566 394 531 309 519 281 C519 280 517 279 517 278 C511 236 492 196 487 153 C484 128 483 103 470 81 C462 68 462 53 461 39 C459 -6 403 -44 368 -44 C340 -44 322 -21 322 16 C322 45 347 86 360 122 C365 136 367 150 372 173 L372 173 Z M130 122 C200 122 266 230 302 259 C323 276 330 305 341 314 C362 331 361 357 371 386 C311 360 270 345 228 304 C205 281 190 253 166 231 C143 211 123 163 123 148 C123 140 125 131 130 122 L130 122 Z M505 559 C461 565 445 580 445 604 C445 664 547 708 583 733 C602 746 628 749 649 749 C663 749 682 720 682 703 C682 652 605 648 583 609 C567 580 531 566 505 559 L505 559 Z " />
<glyph glyph-name="acircumflex" unicode="&#xe2;" horiz-adv-x="538" d="M372 173 C330 138 294 105 253 75 C220 51 188 19 145 13 C121 10 105 -6 77 -6 C33 -6 0 27 0 74 C2 125 7 180 34 226 C44 240 61 271 69 277 C123 328 168 391 236 426 C309 463 407 499 491 499 C526 499 566 463 566 434 C566 394 531 309 519 281 C519 280 517 279 517 278 C511 236 492 196 487 153 C484 128 483 103 470 81 C462 68 462 53 461 39 C459 -6 403 -44 368 -44 C340 -44 322 -21 322 16 C322 45 347 86 360 122 C365 136 367 150 372 173 L372 173 Z M130 122 C200 122 266 230 302 259 C323 276 330 305 341 314 C362 331 361 357 371 386 C311 360 270 345 228 304 C205 281 190 253 166 231 C143 211 123 163 123 148 C123 140 125 131 130 122 L130 122 Z M470 619 C438 591 398 565 356 565 C331 565 301 586 301 608 C301 631 312 654 334 664 C388 688 429 746 484 746 C544 746 640 656 640 623 C640 595 585 549 565 549 C545 549 517 584 493 604 C487 610 478 614 470 619 L470 619 Z " />
<glyph glyph-name="atilde" unicode="&#xe3;" horiz-adv-x="538" d="M372 173 C330 138 294 105 253 75 C220 51 188 19 145 13 C121 10 105 -6 77 -6 C33 -6 0 27 0 74 C2 125 7 180 34 226 C44 240 61 271 69 277 C123 328 168 391 236 426 C309 463 407 499 491 499 C526 499 566 463 566 434 C566 394 531 309 519 281 C519 280 517 279 517 278 C511 236 492 196 487 153 C484 128 483 103 470 81 C462 68 462 53 461 39 C459 -6 403 -44 368 -44 C340 -44 322 -21 322 16 C322 45 347 86 360 122 C365 136 367 150 372 173 L372 173 Z M130 122 C200 122 266 230 302 259 C323 276 330 305 341 314 C362 331 361 357 371 386 C311 360 270 345 228 304 C205 281 190 253 166 231 C143 211 123 163 123 148 C123 140 125 131 130 122 L130 122 Z M534 566 C531 565 528 564 525 564 C503 564 446 627 424 627 C404 627 373 598 348 598 C323 598 305 617 305 645 C305 679 320 705 354 718 C389 732 418 751 462 751 C480 751 512 742 523 720 C536 692 566 680 580 680 C609 680 647 720 687 720 C712 720 740 697 740 665 C740 625 707 636 660 599 C628 574 591 566 549 566 L534 566 L534 566 Z " />
<glyph glyph-name="adieresis" unicode="&#xe4;" horiz-adv-x="538" d="M372 173 C330 138 294 105 253 75 C220 51 188 19 145 13 C121 10 105 -6 77 -6 C33 -6 0 27 0 74 C2 125 7 180 34 226 C44 240 61 271 69 277 C123 328 168 391 236 426 C309 463 407 499 491 499 C526 499 566 463 566 434 C566 394 531 309 519 281 C519 280 517 279 517 278 C511 236 492 196 487 153 C484 128 483 103 470 81 C462 68 462 53 461 39 C459 -6 403 -44 368 -44 C340 -44 322 -21 322 16 C322 45 347 86 360 122 C365 136 367 150 372 173 L372 173 Z M130 122 C200 122 266 230 302 259 C323 276 330 305 341 314 C362 331 361 357 371 386 C311 360 270 345 228 304 C205 281 190 253 166 231 C143 211 123 163 123 148 C123 140 125 131 130 122 L130 122 Z M517 676 C517 717 558 742 595 742 C629 742 653 720 653 692 C653 659 606 622 568 622 C537 622 517 642 517 676 L517 676 Z M403 724 L416 724 C445 724 465 705 468 678 C468 645 423 615 390 615 C367 615 332 646 332 671 C332 693 366 725 393 725 C396 725 400 725 403 724 L403 724 Z " />
<glyph glyph-name="aring" unicode="&#xe5;" horiz-adv-x="538" d="M372 173 C330 138 294 105 253 75 C220 51 188 19 145 13 C121 10 105 -6 77 -6 C33 -6 0 27 0 74 C2 125 7 180 34 226 C44 240 61 271 69 277 C123 328 168 391 236 426 C309 463 407 499 491 499 C526 499 566 463 566 434 C566 394 531 309 519 281 C519 280 517 279 517 278 C511 236 492 196 487 153 C484 128 483 103 470 81 C462 68 462 53 461 39 C459 -6 403 -44 368 -44 C340 -44 322 -21 322 16 C322 45 347 86 360 122 C365 136 367 150 372 173 L372 173 Z M130 122 C200 122 266 230 302 259 C323 276 330 305 341 314 C362 331 361 357 371 386 C311 360 270 345 228 304 C205 281 190 253 166 231 C143 211 123 163 123 148 C123 140 125 131 130 122 L130 122 Z M443 451 C436 450 429 450 422 450 C340 450 285 518 285 572 C285 687 431 749 540 749 C566 749 610 720 637 700 C654 687 663 665 663 643 C663 615 645 597 634 573 C603 508 516 450 454 450 C450 450 446 450 443 451 L443 451 Z M534 612 C515 628 495 646 469 646 C444 646 404 607 404 590 C404 575 432 554 454 554 C493 554 524 582 534 612 L534 612 Z " />
<glyph glyph-name="ae" unicode="&#xe6;" horiz-adv-x="668" d="M701 430 C698 406 698 371 684 362 C663 348 655 327 643 308 C602 245 547 208 492 158 C481 148 470 133 471 123 C471 106 506 78 521 78 C551 78 587 101 613 101 C641 101 661 97 661 66 C661 20 552 -5 492 -30 C486 -33 480 -34 474 -34 C451 -34 435 -17 415 -10 C392 -2 374 10 360 32 C352 44 345 49 335 49 C327 49 310 44 301 37 C252 5 184 -15 126 -15 C70 -15 -12 -1 -12 56 C-12 159 68 246 129 314 C192 385 286 451 383 481 C431 496 500 521 543 521 C579 521 624 507 659 493 C688 482 701 463 701 436 L701 430 L701 430 Z M333 351 C257 298 200 248 158 172 C149 155 129 125 129 116 C129 100 146 96 157 96 C210 96 265 131 313 159 C314 160 315 163 316 163 C316 172 315 180 315 188 C315 232 327 276 340 318 C341 323 343 328 343 333 C343 338 341 344 333 351 L333 351 Z M452 262 C488 287 537 324 537 356 C537 365 531 380 520 380 C493 380 449 307 449 270 C449 268 450 266 452 262 L452 262 Z " />
<glyph glyph-name="egrave" unicode="&#xe8;" horiz-adv-x="398" d="M149 82 C207 95 259 119 308 149 C318 155 327 158 336 158 C352 158 375 148 375 132 C375 115 360 92 345 88 C313 79 295 51 268 37 C247 26 228 10 207 0 C176 -15 133 -32 106 -32 C74 -32 48 -13 22 23 C10 39 12 81 12 108 C12 126 21 141 21 157 C21 167 19 176 19 186 C19 208 31 228 39 253 C47 281 57 309 77 332 C84 340 90 351 92 361 C107 420 161 460 203 496 C225 514 268 519 298 519 C369 519 421 474 421 393 C421 372 417 352 398 336 C393 331 391 324 389 317 C370 260 294 224 236 208 C212 201 190 185 163 180 C140 176 132 155 132 126 C132 109 135 94 149 82 L149 82 Z M280 406 C219 366 196 338 194 300 C233 305 288 330 288 384 C288 391 286 398 280 406 L280 406 Z M203 749 C250 749 273 696 305 666 C327 645 351 609 351 591 C351 559 302 521 282 518 C274 516 267 516 261 516 C218 516 223 572 187 600 C175 633 155 665 155 702 C155 730 176 749 203 749 L203 749 Z " />
<glyph glyph-name="eacute" unicode="&#xe9;" horiz-adv-x="398" d="M149 82 C207 95 259 119 308 149 C318 155 327 158 336 158 C352 158 375 148 375 132 C375 115 360 92 345 88 C313 79 295 51 268 37 C247 26 228 10 207 0 C176 -15 133 -32 106 -32 C74 -32 48 -13 22 23 C10 39 12 81 12 108 C12 126 21 141 21 157 C21 167 19 176 19 186 C19 208 31 228 39 253 C47 281 57 309 77 332 C84 340 90 351 92 361 C107 420 161 460 203 496 C225 514 268 519 298 519 C369 519 421 474 421 393 C421 372 417 352 398 336 C393 331 391 324 389 317 C370 260 294 224 236 208 C212 201 190 185 163 180 C140 176 132 155 132 126 C132 109 135 94 149 82 L149 82 Z M280 406 C219 366 196 338 194 300 C233 305 288 330 288 384 C288 391 286 398 280 406 L280 406 Z M390 557 C346 563 330 578 330 602 C330 662 432 706 468 731 C487 744 513 747 534 747 C548 747 567 718 567 701 C567 650 490 646 468 607 C452 578 416 564 390 557 L390 557 Z " />
<glyph glyph-name="ecircumflex" unicode="&#xea;" horiz-adv-x="398" d="M149 82 C207 95 259 119 308 149 C318 155 327 158 336 158 C352 158 375 148 375 132 C375 115 360 92 345 88 C313 79 295 51 268 37 C247 26 228 10 207 0 C176 -15 133 -32 106 -32 C74 -32 48 -13 22 23 C10 39 12 81 12 108 C12 126 21 141 21 157 C21 167 19 176 19 186 C19 208 31 228 39 253 C47 281 57 309 77 332 C84 340 90 351 92 361 C107 420 161 460 203 496 C225 514 268 519 298 519 C369 519 421 474 421 393 C421 372 417 352 398 336 C393 331 391 324 389 317 C370 260 294 224 236 208 C212 201 190 185 163 180 C140 176 132 155 132 126 C132 109 135 94 149 82 L149 82 Z M280 406 C219 366 196 338 194 300 C233 305 288 330 288 384 C288 391 286 398 280 406 L280 406 Z M313 616 C281 588 241 562 199 562 C174 562 144 583 144 605 C144 628 155 651 177 661 C231 685 272 743 327 743 C387 743 483 653 483 620 C483 592 428 546 408 546 C388 546 360 581 336 601 C330 607 321 611 313 616 L313 616 Z " />
<glyph glyph-name="edieresis" unicode="&#xeb;" horiz-adv-x="398" d="M149 82 C207 95 259 119 308 149 C318 155 327 158 336 158 C352 158 375 148 375 132 C375 115 360 92 345 88 C313 79 295 51 268 37 C247 26 228 10 207 0 C176 -15 133 -32 106 -32 C74 -32 48 -13 22 23 C10 39 12 81 12 108 C12 126 21 141 21 157 C21 167 19 176 19 186 C19 208 31 228 39 253 C47 281 57 309 77 332 C84 340 90 351 92 361 C107 420 161 460 203 496 C225 514 268 519 298 519 C369 519 421 474 421 393 C421 372 417 352 398 336 C393 331 391 324 389 317 C370 260 294 224 236 208 C212 201 190 185 163 180 C140 176 132 155 132 126 C132 109 135 94 149 82 L149 82 Z M280 406 C219 366 196 338 194 300 C233 305 288 330 288 384 C288 391 286 398 280 406 L280 406 Z M370 670 C370 711 411 736 448 736 C482 736 506 714 506 686 C506 653 459 616 421 616 C390 616 370 636 370 670 L370 670 Z M256 718 L269 718 C298 718 318 699 321 672 C321 639 276 609 243 609 C220 609 185 640 185 665 C185 687 219 719 246 719 C249 719 253 719 256 718 L256 718 Z " />
<glyph glyph-name="igrave" unicode="&#xec;" horiz-adv-x="231" d="M153 751 C200 751 223 698 255 668 L271 650 C284 635 301 609 301 593 C301 571 280 557 268 542 C285 533 295 516 295 498 C295 490 293 481 288 472 C265 430 239 386 229 339 C219 293 194 253 186 207 C176 153 170 87 144 42 C119 -2 142 -17 64 -43 C58 -45 53 -46 47 -46 C21 -46 6 -27 6 3 C6 29 10 52 14 83 C63 128 66 215 93 283 C122 356 144 433 174 509 C176 515 180 521 185 526 C168 543 162 583 137 602 C125 635 105 667 105 704 C105 732 126 751 153 751 L153 751 Z " />
<glyph glyph-name="iacute" unicode="&#xed;" horiz-adv-x="231" d="M14 83 C63 128 66 215 93 283 C122 356 144 433 174 509 C183 533 214 548 242 548 C274 548 295 525 295 499 C295 490 293 481 288 472 C265 430 239 386 229 339 C219 293 194 253 186 207 C176 153 170 87 144 42 C119 -2 142 -17 64 -43 C58 -45 53 -46 47 -46 C21 -46 6 -27 6 3 C6 29 10 52 14 83 L14 83 Z M286 561 C242 567 226 582 226 606 C226 666 328 710 364 735 C383 748 409 751 430 751 C444 751 463 722 463 705 C463 653 386 650 364 611 C351 588 329 572 286 561 L286 561 Z " />
<glyph glyph-name="icircumflex" unicode="&#xee;" horiz-adv-x="231" d="M14 83 C63 128 66 215 93 283 C122 356 144 433 174 509 C183 533 214 548 242 548 C274 548 295 525 295 499 C295 490 293 481 288 472 C265 430 239 386 229 339 C219 293 194 253 186 207 C176 153 170 87 144 42 C119 -2 142 -17 64 -43 C58 -45 53 -46 47 -46 C21 -46 6 -27 6 3 C6 29 10 52 14 83 L14 83 Z M256 623 C224 595 184 569 142 569 C117 569 87 590 87 612 C87 635 98 658 120 668 C174 692 215 750 270 750 C330 750 426 660 426 627 C426 599 371 553 351 553 C331 553 303 588 279 608 C273 614 264 618 256 623 L256 623 Z " />
<glyph glyph-name="idieresis" unicode="&#xef;" horiz-adv-x="231" d="M14 83 C63 128 66 215 93 283 C122 356 144 433 174 509 C183 533 214 548 242 548 C274 548 295 525 295 499 C295 490 293 481 288 472 C265 430 239 386 229 339 C219 293 194 253 186 207 C176 153 170 87 144 42 C119 -2 142 -17 64 -43 C58 -45 53 -46 47 -46 C21 -46 6 -27 6 3 C6 29 10 52 14 83 L14 83 Z M309 663 C309 704 350 729 387 729 C421 729 445 707 445 679 C445 646 398 609 360 609 C329 609 309 629 309 663 L309 663 Z M195 711 L208 711 C237 711 257 692 260 665 C260 632 215 602 182 602 C159 602 124 633 124 658 C124 680 158 712 185 712 C188 712 192 712 195 711 L195 711 Z " />
<glyph glyph-name="ntilde" unicode="&#xf1;" horiz-adv-x="533" d="M213 528 C240 512 275 497 275 468 C275 415 235 391 221 337 C255 352 270 366 297 380 C306 383 314 389 322 395 C374 433 449 505 496 505 C531 505 559 486 559 459 C559 436 541 396 531 369 C492 264 449 171 449 53 C446 10 395 -16 360 -16 C341 -16 314 19 314 40 C314 47 316 54 319 63 C336 104 329 149 353 193 C371 228 377 261 377 303 C342 290 319 255 283 240 C251 221 231 188 196 173 C117 138 191 5 97 -28 C82 -33 66 -45 55 -44 C29 -44 8 -13 8 15 C8 21 9 27 11 33 C26 74 43 115 55 157 C68 202 75 248 86 292 C100 349 132 402 141 455 C148 495 171 500 213 528 L213 528 Z M435 562 C432 561 429 560 426 560 C404 560 347 623 325 623 C305 623 274 594 249 594 C224 594 206 613 206 641 C206 675 221 701 255 714 C290 728 319 747 363 747 C381 747 413 738 424 716 C437 688 467 676 481 676 C510 676 548 716 588 716 C613 716 641 693 641 661 C641 621 608 632 561 595 C529 570 492 562 450 562 L435 562 L435 562 Z " />
<glyph glyph-name="ograve" unicode="&#xf2;" horiz-adv-x="477" d="M136 -14 C54 -8 17 14 17 107 C17 146 30 181 40 219 C53 269 58 294 85 330 C105 358 113 395 141 412 C145 414 149 418 152 422 C196 487 257 502 333 515 C342 517 351 519 360 519 C393 519 414 493 450 470 C482 450 496 425 496 379 C496 337 482 298 471 258 C468 248 458 241 453 231 C435 199 419 166 399 135 C359 72 283 12 206 -2 C186 -6 166 -14 145 -15 C142 -15 139 -14 136 -14 L136 -14 Z M161 99 C209 111 254 120 283 162 C309 199 331 238 356 276 C364 289 370 344 370 359 C370 375 353 397 324 397 C254 397 227 337 191 285 C165 248 148 196 148 148 C148 118 149 111 161 99 L161 99 Z M341 747 C388 747 411 694 443 664 C465 643 489 607 489 589 C489 557 440 519 420 516 C412 514 405 514 399 514 C356 514 361 570 325 598 C313 631 293 663 293 700 C293 728 314 747 341 747 L341 747 Z " />
<glyph glyph-name="oacute" unicode="&#xf3;" horiz-adv-x="477" d="M136 -14 C54 -8 17 14 17 107 C17 146 30 181 40 219 C53 269 58 294 85 330 C105 358 113 395 141 412 C145 414 149 418 152 422 C196 487 257 502 333 515 C342 517 351 519 360 519 C393 519 414 493 450 470 C482 450 496 425 496 379 C496 337 482 298 471 258 C468 248 458 241 453 231 C435 199 419 166 399 135 C359 72 283 12 206 -2 C186 -6 166 -14 145 -15 C142 -15 139 -14 136 -14 L136 -14 Z M161 99 C209 111 254 120 283 162 C309 199 331 238 356 276 C364 289 370 344 370 359 C370 375 353 397 324 397 C254 397 227 337 191 285 C165 248 148 196 148 148 C148 118 149 111 161 99 L161 99 Z M448 554 C404 560 388 575 388 599 C388 659 490 703 526 728 C545 741 571 744 592 744 C606 744 625 715 625 698 C625 647 548 643 526 604 C510 575 474 561 448 554 L448 554 Z " />
<glyph glyph-name="ocircumflex" unicode="&#xf4;" horiz-adv-x="477" d="M136 -14 C54 -8 17 14 17 107 C17 146 30 181 40 219 C53 269 58 294 85 330 C105 358 113 395 141 412 C145 414 149 418 152 422 C196 487 257 502 333 515 C342 517 351 519 360 519 C393 519 414 493 450 470 C482 450 496 425 496 379 C496 337 482 298 471 258 C468 248 458 241 453 231 C435 199 419 166 399 135 C359 72 283 12 206 -2 C186 -6 166 -14 145 -15 C142 -15 139 -14 136 -14 L136 -14 Z M161 99 C209 111 254 120 283 162 C309 199 331 238 356 276 C364 289 370 344 370 359 C370 375 353 397 324 397 C254 397 227 337 191 285 C165 248 148 196 148 148 C148 118 149 111 161 99 L161 99 Z M389 616 C357 588 317 562 275 562 C250 562 220 583 220 605 C220 628 231 651 253 661 C307 685 348 743 403 743 C463 743 559 653 559 620 C559 592 504 546 484 546 C464 546 436 581 412 601 C406 607 397 611 389 616 L389 616 Z " />
<glyph glyph-name="otilde" unicode="&#xf5;" horiz-adv-x="477" d="M136 -14 C54 -8 17 14 17 107 C17 146 30 181 40 219 C53 269 58 294 85 330 C105 358 113 395 141 412 C145 414 149 418 152 422 C196 487 257 502 333 515 C342 517 351 519 360 519 C393 519 414 493 450 470 C482 450 496 425 496 379 C496 337 482 298 471 258 C468 248 458 241 453 231 C435 199 419 166 399 135 C359 72 283 12 206 -2 C186 -6 166 -14 145 -15 C142 -15 139 -14 136 -14 L136 -14 Z M161 99 C209 111 254 120 283 162 C309 199 331 238 356 276 C364 289 370 344 370 359 C370 375 353 397 324 397 C254 397 227 337 191 285 C165 248 148 196 148 148 C148 118 149 111 161 99 L161 99 Z M436 563 C433 562 430 561 427 561 C405 561 348 624 326 624 C306 624 275 595 250 595 C225 595 207 614 207 642 C207 676 222 702 256 715 C291 729 320 748 364 748 C382 748 414 739 425 717 C438 689 468 677 482 677 C511 677 549 717 589 717 C614 717 642 694 642 662 C642 622 609 633 562 596 C530 571 493 563 451 563 L436 563 L436 563 Z " />
<glyph glyph-name="odieresis" unicode="&#xf6;" horiz-adv-x="477" d="M136 -14 C54 -8 17 14 17 107 C17 146 30 181 40 219 C53 269 58 294 85 330 C105 358 113 395 141 412 C145 414 149 418 152 422 C196 487 257 502 333 515 C342 517 351 519 360 519 C393 519 414 493 450 470 C482 450 496 425 496 379 C496 337 482 298 471 258 C468 248 458 241 453 231 C435 199 419 166 399 135 C359 72 283 12 206 -2 C186 -6 166 -14 145 -15 C142 -15 139 -14 136 -14 L136 -14 Z M161 99 C209 111 254 120 283 162 C309 199 331 238 356 276 C364 289 370 344 370 359 C370 375 353 397 324 397 C254 397 227 337 191 285 C165 248 148 196 148 148 C148 118 149 111 161 99 L161 99 Z M434 661 C434 702 475 727 512 727 C546 727 570 705 570 677 C570 644 523 607 485 607 C454 607 434 627 434 661 L434 661 Z M320 709 L333 709 C362 709 382 690 385 663 C385 630 340 600 307 600 C284 600 249 631 249 656 C249 678 283 710 310 710 C313 710 317 710 320 709 L320 709 Z " />
<glyph glyph-name="ugrave" unicode="&#xf9;" horiz-adv-x="531" d="M149 493 C167 497 187 504 206 504 C236 504 255 484 255 457 C255 402 170 322 168 255 C165 224 148 189 148 167 C148 157 151 146 156 134 C197 160 233 204 268 240 C327 300 377 363 418 433 C436 464 465 497 504 497 C534 497 564 483 564 444 C564 440 563 436 562 432 C550 389 537 345 524 302 C513 266 498 232 496 195 C496 183 491 171 487 160 C474 129 469 97 466 63 C462 16 428 -8 388 -8 C354 -8 331 12 331 48 C331 88 362 135 362 181 C339 164 316 148 297 126 C282 108 272 85 254 71 C205 34 159 1 92 1 C60 2 17 25 17 63 L17 82 L17 115 C17 153 32 192 44 238 C59 293 74 350 106 401 C123 428 133 459 149 493 L149 493 Z M302 747 C349 747 372 694 404 664 C426 643 450 607 450 589 C450 557 401 519 381 516 C373 514 366 514 360 514 C317 514 322 570 286 598 C274 631 254 663 254 700 C254 728 275 747 302 747 L302 747 Z " />
<glyph glyph-name="uacute" unicode="&#xfa;" horiz-adv-x="531" d="M149 493 C167 497 187 504 206 504 C236 504 255 484 255 457 C255 402 170 322 168 255 C165 224 148 189 148 167 C148 157 151 146 156 134 C197 160 233 204 268 240 C327 300 377 363 418 433 C436 464 465 497 504 497 C534 497 564 483 564 444 C564 440 563 436 562 432 C550 389 537 345 524 302 C513 266 498 232 496 195 C496 183 491 171 487 160 C474 129 469 97 466 63 C462 16 428 -8 388 -8 C354 -8 331 12 331 48 C331 88 362 135 362 181 C339 164 316 148 297 126 C282 108 272 85 254 71 C205 34 159 1 92 1 C60 2 17 25 17 63 L17 82 L17 115 C17 153 32 192 44 238 C59 293 74 350 106 401 C123 428 133 459 149 493 L149 493 Z M397 556 C353 562 337 577 337 601 C337 661 439 705 475 730 C494 743 520 746 541 746 C555 746 574 717 574 700 C574 649 497 645 475 606 C459 577 423 563 397 556 L397 556 Z " />
<glyph glyph-name="ucircumflex" unicode="&#xfb;" horiz-adv-x="531" d="M149 493 C167 497 187 504 206 504 C236 504 255 484 255 457 C255 402 170 322 168 255 C165 224 148 189 148 167 C148 157 151 146 156 134 C197 160 233 204 268 240 C327 300 377 363 418 433 C436 464 465 497 504 497 C534 497 564 483 564 444 C564 440 563 436 562 432 C550 389 537 345 524 302 C513 266 498 232 496 195 C496 183 491 171 487 160 C474 129 469 97 466 63 C462 16 428 -8 388 -8 C354 -8 331 12 331 48 C331 88 362 135 362 181 C339 164 316 148 297 126 C282 108 272 85 254 71 C205 34 159 1 92 1 C60 2 17 25 17 63 L17 82 L17 115 C17 153 32 192 44 238 C59 293 74 350 106 401 C123 428 133 459 149 493 L149 493 Z M404 615 C372 587 332 561 290 561 C265 561 235 582 235 604 C235 627 246 650 268 660 C322 684 363 742 418 742 C478 742 574 652 574 619 C574 591 519 545 499 545 C479 545 451 580 427 600 C421 606 412 610 404 615 L404 615 Z " />
<glyph glyph-name="udieresis" unicode="&#xfc;" horiz-adv-x="531" d="M149 493 C167 497 187 504 206 504 C236 504 255 484 255 457 C255 402 170 322 168 255 C165 224 148 189 148 167 C148 157 151 146 156 134 C197 160 233 204 268 240 C327 300 377 363 418 433 C436 464 465 497 504 497 C534 497 564 483 564 444 C564 440 563 436 562 432 C550 389 537 345 524 302 C513 266 498 232 496 195 C496 183 491 171 487 160 C474 129 469 97 466 63 C462 16 428 -8 388 -8 C354 -8 331 12 331 48 C331 88 362 135 362 181 C339 164 316 148 297 126 C282 108 272 85 254 71 C205 34 159 1 92 1 C60 2 17 25 17 63 L17 82 L17 115 C17 153 32 192 44 238 C59 293 74 350 106 401 C123 428 133 459 149 493 L149 493 Z M451 668 C451 709 492 734 529 734 C563 734 587 712 587 684 C587 651 540 614 502 614 C471 614 451 634 451 668 L451 668 Z M337 716 L350 716 C379 716 399 697 402 670 C402 637 357 607 324 607 C301 607 266 638 266 663 C266 685 300 717 327 717 C330 717 334 717 337 716 L337 716 Z " />
<glyph glyph-name="i_j" unicode="&#x133;" horiz-adv-x="501" d="M145 111 C175 119 193 137 212 154 C250 188 285 226 322 260 C323 261 324 262 324 263 C347 300 379 331 396 371 C415 416 443 470 498 470 C529 470 569 452 569 423 C569 386 521 332 502 280 C463 186 427 91 399 0 C388 -37 399 -76 380 -112 C365 -140 353 -170 338 -199 C319 -235 293 -242 264 -242 C236 -242 215 -226 215 -191 C220 -148 256 -114 259 -76 C271 -20 290 34 309 98 C294 95 286 88 278 80 C254 53 229 29 198 16 C161 -16 103 -18 60 -18 C26 -18 4 33 4 62 C4 110 51 185 64 246 C77 308 111 371 119 428 C129 473 168 528 209 528 C253 528 260 524 277 484 C218 396 187 295 171 185 C168 154 158 149 145 111 L145 111 Z M636 628 C618 597 569 571 548 571 C516 571 495 603 495 633 C495 683 596 691 593 691 C608 691 637 661 637 637 C637 634 636 631 636 628 L636 628 Z M312 713 C337 713 371 710 371 674 C371 641 344 605 296 605 C270 605 252 634 252 661 C252 692 277 713 306 713 L312 713 L312 713 Z " />
<glyph glyph-name="OE" unicode="&#x152;" horiz-adv-x="807" d="M45 119 C44 142 40 161 40 180 L40 183 C50 220 47 259 63 295 C84 345 76 402 106 453 C141 513 166 593 225 624 C291 658 324 700 409 701 C417 701 424 699 432 699 C442 699 452 703 461 703 C483 703 502 687 523 687 C615 687 713 693 803 709 C811 710 818 711 825 711 C866 711 912 681 912 620 C912 576 849 568 818 568 C797 568 776 571 755 571 C707 571 661 566 614 562 C608 554 606 546 606 539 C606 519 613 490 637 490 C726 485 838 503 838 404 C836 367 793 352 758 352 C715 352 669 361 626 361 C602 361 599 354 595 328 C584 259 547 204 511 137 C524 136 537 135 549 135 C592 135 630 151 673 151 C718 151 752 114 752 69 C752 31 718 2 684 2 C657 2 630 8 602 8 C549 8 496 2 443 2 C419 2 396 8 374 8 C337 8 296 -8 262 -8 C235 -8 213 6 185 12 C134 23 91 46 65 94 C60 103 52 111 45 119 L45 119 Z M471 510 C445 536 393 546 368 546 C349 546 300 529 290 495 C288 482 243 432 227 401 C202 351 180 226 180 178 C180 131 233 129 271 127 C383 127 429 282 457 353 C458 357 459 360 459 363 C459 378 437 400 437 419 C437 445 472 464 472 495 C472 499 472 504 471 510 L471 510 Z " />
<glyph glyph-name="oe" unicode="&#x153;" horiz-adv-x="768" d="M325 56 C252 14 208 -20 124 -25 C107 -25 98 -16 86 -14 C16 -1 14 101 14 169 C14 228 88 330 121 359 C140 376 160 400 179 413 C215 432 244 464 282 476 C333 491 385 508 440 508 C466 508 486 498 500 471 C560 487 604 515 668 515 C725 515 774 472 777 414 C777 367 713 293 679 275 C646 257 614 241 580 225 C543 208 482 206 469 175 C461 156 453 136 453 115 C453 78 480 81 507 81 C567 81 635 131 694 131 C713 131 727 114 727 100 C727 65 642 36 598 13 C560 -7 518 -24 474 -24 C434 -24 369 -13 350 14 C341 27 334 41 325 56 L325 56 Z M158 90 C169 87 174 86 179 86 C218 86 323 218 362 302 C371 321 376 349 376 370 C376 387 369 395 358 395 C346 395 319 378 303 365 C271 338 232 327 203 289 C166 241 145 205 145 149 C145 129 147 109 158 90 L158 90 Z M532 319 C581 328 637 358 637 386 C637 392 638 402 628 402 C588 402 550 369 532 319 L532 319 Z " />
<glyph glyph-name="Ydieresis" unicode="&#x178;" horiz-adv-x="376" d="M51 19 C54 43 60 65 79 83 C109 119 139 221 139 251 C139 266 134 282 120 294 C104 307 97 336 83 354 C57 376 41 414 41 449 C41 482 72 519 105 519 C165 519 167 459 188 431 C204 409 222 379 242 379 C252 379 271 387 280 397 C308 426 343 443 374 466 C401 486 426 514 458 514 C487 514 511 501 511 478 C511 447 458 391 417 379 C380 343 330 321 305 273 C269 218 242 196 218 88 C203 21 198 -46 98 -46 C65 -46 50 -25 50 14 C50 16 50 17 51 19 L51 19 Z M326 670 C326 711 367 736 404 736 C438 736 462 714 462 686 C462 653 415 616 377 616 C346 616 326 636 326 670 L326 670 Z M212 718 L225 718 C254 718 274 699 277 672 C277 639 232 609 199 609 C176 609 141 640 141 665 C141 687 175 719 202 719 C205 719 209 719 212 718 L212 718 Z " />
<glyph glyph-name="circumflex" unicode="&#x2c6;" horiz-adv-x="325" d="M350 622 C318 594 278 568 236 568 C211 568 181 589 181 611 C181 634 192 657 214 667 C268 691 309 749 364 749 C424 749 520 659 520 626 C520 598 465 552 445 552 C425 552 397 587 373 607 C367 613 358 617 350 622 L350 622 Z " />
<glyph glyph-name="ring" unicode="&#x2da;" horiz-adv-x="359" d="M328 453 C321 452 314 452 307 452 C225 452 170 520 170 574 C170 689 316 751 425 751 C451 751 495 722 522 702 C539 689 548 667 548 645 C548 617 530 599 519 575 C488 510 401 452 339 452 C335 452 331 452 328 453 L328 453 Z M419 614 C400 630 380 648 354 648 C329 648 289 609 289 592 C289 577 317 556 339 556 C378 556 409 584 419 614 L419 614 Z " />
<glyph glyph-name="tilde" unicode="&#x2dc;" horiz-adv-x="426" d="M420 569 C417 568 414 567 411 567 C389 567 332 630 310 630 C290 630 259 601 234 601 C209 601 191 620 191 648 C191 682 206 708 240 721 C275 735 304 754 348 754 C366 754 398 745 409 723 C422 695 452 683 466 683 C495 683 533 723 573 723 C598 723 626 700 626 668 C626 628 593 639 546 602 C514 577 477 569 435 569 L420 569 L420 569 Z " />
<glyph glyph-name="endash" unicode="&#x2013;" horiz-adv-x="394" d="M277 172 C254 176 226 177 201 177 C180 177 159 173 138 173 C96 173 39 188 39 240 C39 275 72 307 119 307 C144 307 170 296 196 296 C238 296 281 300 323 300 C356 300 377 277 399 257 C400 256 401 255 401 254 C398 224 401 182 362 179 C332 177 309 176 277 172 L277 172 Z " />
<glyph glyph-name="emdash" unicode="&#x2014;" horiz-adv-x="538" d="M404 166 C393 168 251 170 238 170 C225 170 212 171 199 171 C178 171 157 167 136 167 C94 167 37 182 37 234 C37 269 70 301 117 301 C142 301 168 290 194 290 C202 290 209 290 217 291 C252 294 416 294 450 294 C483 294 504 271 526 251 C527 250 528 249 528 248 C528 245 527 243 527 240 C527 234 528 229 528 223 C528 206 520 175 489 173 C459 171 436 170 404 166 L404 166 Z " />
<glyph glyph-name="quoteleft" unicode="&#x2018;" horiz-adv-x="227" d="M185 678 C185 727 201 748 244 748 C275 748 310 718 310 683 C313 638 334 602 361 567 C372 552 376 533 376 516 C376 483 350 457 314 457 C241 457 193 621 185 678 L185 678 Z " />
<glyph glyph-name="quoteright" unicode="&#x2019;" horiz-adv-x="198" d="M188 435 C145 440 121 466 121 504 C121 562 267 694 294 726 C309 743 324 751 339 751 C369 751 419 704 419 682 C419 650 343 581 298 536 C277 515 256 495 240 468 C229 449 207 436 188 435 L188 435 Z " />
<glyph glyph-name="quotesinglbase" unicode="&#x201a;" horiz-adv-x="202" d="M-22 -137 C-65 -132 -89 -106 -89 -68 C-89 -10 57 122 84 154 C99 171 114 179 129 179 C159 179 209 132 209 110 C209 78 133 9 88 -36 C67 -57 46 -77 30 -104 C19 -123 -3 -136 -22 -137 L-22 -137 Z " />
<glyph glyph-name="quotedblleft" unicode="&#x201c;" horiz-adv-x="476" d="M366 698 C368 725 393 754 412 754 C446 754 486 723 498 691 C514 647 538 608 564 570 C574 556 578 536 578 525 C578 505 553 469 516 469 C485 469 422 509 422 537 C422 540 423 544 423 547 C423 572 397 601 387 629 C379 651 373 675 366 698 L366 698 Z M184 667 C184 716 200 737 243 737 C274 737 309 707 309 672 C312 627 333 591 360 556 C371 541 375 522 375 505 C375 472 349 446 313 446 C240 446 192 610 184 667 L184 667 Z " />
<glyph glyph-name="quotedblright" unicode="&#x201d;" horiz-adv-x="390" d="M395 422 C352 427 328 453 328 491 C328 549 474 681 501 713 C516 730 531 738 546 738 C576 738 626 691 626 669 C626 637 550 568 505 523 C484 502 463 482 447 455 C436 436 414 423 395 422 L395 422 Z M196 454 C155 455 127 482 127 517 C127 544 151 588 177 614 C219 655 237 752 286 751 C316 751 375 721 375 686 C375 653 316 578 305 563 C293 545 275 527 268 507 C257 475 229 454 196 454 L196 454 Z " />
<glyph glyph-name="quotedblbase" unicode="&#x201e;" horiz-adv-x="407" d="M177 -166 C134 -161 110 -135 110 -97 C110 -39 256 93 283 125 C298 142 313 150 328 150 C358 150 408 103 408 81 C408 49 332 -20 287 -65 C266 -86 245 -106 229 -133 C218 -152 196 -165 177 -166 L177 -166 Z M-22 -134 C-63 -133 -91 -106 -91 -71 C-91 -44 -67 0 -41 26 C1 67 19 164 68 163 C98 163 157 133 157 98 C157 65 98 -10 87 -25 C75 -43 57 -61 50 -81 C39 -113 11 -134 -22 -134 L-22 -134 Z " />
<glyph glyph-name="bullet" unicode="&#x2022;" horiz-adv-x="258" d="M169 188 C95 188 77 214 66 306 C65 309 65 313 65 316 C65 379 127 414 190 414 C249 414 344 374 344 295 C344 219 254 189 169 188 L169 188 Z " />
<glyph glyph-name="ellipsis" unicode="&#x2026;" horiz-adv-x="591" d="M283 130 C329 107 367 103 378 49 C367 5 342 -19 311 -19 C279 -19 222 16 222 56 C222 84 244 103 283 130 L283 130 Z M5 47 C16 91 41 115 75 115 C102 115 168 88 168 40 C168 16 119 -19 97 -19 C51 -19 31 11 5 47 L5 47 Z M493 111 C531 109 574 85 574 40 C574 13 543 -28 514 -28 C488 -28 430 7 430 53 C430 91 449 99 493 111 L493 111 Z " />
<glyph glyph-name="guilsinglleft" unicode="&#x2039;" horiz-adv-x="425" d="M40 257 C62 310 83 332 146 377 C206 420 268 459 332 494 C366 513 386 547 427 547 C455 547 501 525 501 477 C501 437 411 396 362 364 C317 334 277 309 236 268 C250 246 283 180 290 180 C321 154 342 118 376 96 C393 85 402 67 402 47 C402 3 358 -21 321 -21 C277 -21 247 17 208 57 C165 100 150 175 90 200 C63 211 47 228 40 257 L40 257 Z " />
<glyph glyph-name="guilsinglright" unicode="&#x203a;" horiz-adv-x="433" d="M143 553 C169 566 182 574 203 574 C222 574 238 566 252 550 C255 546 258 541 263 538 C283 527 298 509 313 491 C352 443 395 398 446 355 C461 342 476 307 476 292 C476 275 452 241 431 233 C377 212 336 160 294 127 C270 108 244 90 228 62 C208 28 110 -14 73 -14 C40 -14 3 15 3 41 C3 90 58 100 91 143 C99 154 115 162 128 169 C182 197 280 275 280 299 C280 339 209 405 171 433 C146 451 132 476 132 505 C132 519 135 535 143 553 L143 553 Z " />
<glyph glyph-name="Euro" unicode="&#x20ac;" horiz-adv-x="599" d="M293 350 C365 338 389 340 433 301 C443 292 447 281 447 271 C447 248 420 224 395 224 C365 227 330 230 302 230 C284 230 267 229 267 196 C267 131 337 105 400 105 C439 105 480 120 522 132 C531 134 538 136 544 136 C564 136 587 111 587 88 C587 16 482 -1 418 -17 C412 -19 406 -20 399 -20 C397 -20 395 -19 393 -19 C344 -12 296 -6 248 2 C187 11 133 84 133 141 C133 168 123 192 118 217 C104 226 89 223 75 225 C47 228 28 243 28 273 C28 331 88 329 123 347 C98 367 62 391 62 415 C62 466 145 488 173 488 C195 488 207 500 215 518 C237 566 284 604 326 637 C362 666 398 681 447 699 C484 712 516 709 551 715 C584 715 635 664 635 633 C635 598 599 578 565 578 C559 578 553 579 547 579 C487 579 415 537 385 503 C433 493 457 491 483 454 C491 443 495 433 495 422 C495 361 410 369 345 367 L321 367 C304 367 308 365 293 350 L293 350 Z " />
<glyph glyph-name="f_f" unicode="&#xfb00;" horiz-adv-x="761" d="M451 387 C440 388 429 389 418 389 C388 389 361 386 333 386 L296 386 L221 386 C204 346 189 288 185 240 C183 217 173 195 168 171 C154 102 155 -8 66 -8 C46 -8 28 -1 21 18 C12 41 2 48 2 66 C2 78 6 89 12 100 C36 144 47 192 59 239 C75 300 87 362 111 420 C120 441 123 466 131 488 C136 503 144 516 151 530 C169 565 183 602 205 635 C246 697 306 737 384 737 C438 737 479 722 479 684 C479 655 438 613 408 613 C391 613 376 623 362 623 C335 623 299 593 289 561 C285 549 274 536 274 525 C274 504 315 508 343 508 L425 508 L469 508 C492 508 506 517 515 539 C554 641 625 733 723 733 C740 733 758 727 774 727 C779 727 784 728 788 728 C810 728 836 708 836 689 C836 659 789 608 767 608 C752 608 726 617 711 617 C679 617 635 573 635 524 C642 524 649 522 655 522 C693 522 735 519 770 526 C778 528 787 529 795 529 C835 529 862 515 862 484 C862 377 657 412 617 405 C581 399 566 384 563 349 C559 301 529 273 520 229 C508 172 497 114 488 56 C480 11 442 -35 394 -35 C358 -35 334 11 334 42 C334 75 369 123 379 167 C396 238 425 304 451 387 L451 387 Z " />
<glyph glyph-name="f_i" unicode="&#xfb01;" horiz-adv-x="540" d="M421 406 C401 406 381 408 362 408 C338 408 314 406 291 398 C285 396 277 395 270 395 L258 395 C247 395 245 392 240 376 C229 343 216 311 214 275 C213 257 206 238 199 220 C183 179 180 134 162 93 C159 86 158 78 158 70 C158 63 159 56 159 49 C159 -5 119 -36 78 -51 C77 -52 73 -52 70 -52 C39 -52 2 -17 2 14 C2 35 1 63 19 82 C26 91 34 127 44 149 C65 196 78 247 94 296 C109 343 119 391 123 440 C126 486 167 526 174 576 C177 596 198 618 208 634 C254 708 331 725 414 725 C441 725 468 722 495 704 C495 689 499 665 480 656 C455 645 435 629 406 629 C351 629 285 570 285 509 C368 509 446 538 529 538 C553 538 584 514 584 498 C584 437 538 371 513 310 C498 272 487 233 474 194 C459 150 436 94 436 44 C436 39 437 34 437 29 C437 -12 411 -33 370 -33 C319 -33 308 -11 308 27 C308 55 314 116 326 128 C344 146 348 170 355 192 C377 258 398 324 420 390 C421 393 421 397 421 406 L421 406 Z " />
</font>
</svg>
