<?xml version="1.0" encoding="UTF-8"?>
<svg xmlns="http://www.w3.org/2000/svg" xmlns:xlink="http://www.w3.org/1999/xlink" version="1.2" >
<font id="GAP Bold Italic">
<font-face  font-family="GAP" units-per-em="1000" ascent="750" descent="-250" font-style="italic" font-weight="700" font-stretch="normal" slope="-12" cap-height="625" x-height="425" underline-position="-100" underline-thickness="50" />
<missing-glyph  horiz-adv-x="503" d="M51 -4 C51 -28 75 -41 96 -41 L396 -41 C421 -40 451 -24 451 5 C470 93 570 546 578 599 C578 600 579 602 579 604 C579 628 555 641 534 641 L234 641 C209 641 179 624 179 595 C160 507 60 54 52 1 C52 0 51 -2 51 -4 L51 -4 Z M195 209 L235 395 C244 364 253 333 262 303 L195 209 Z M185 41 L294 193 C297 183 299 174 302 164 L337 41 C333 41 330 41 326 41 L185 41 Z " />
<glyph glyph-name="NULL" d="" />
<glyph glyph-name="CR" unicode="&#xd;" horiz-adv-x="250" d="" />
<glyph glyph-name="space" unicode="&#x20;" horiz-adv-x="450" d="" />
<glyph glyph-name="uni0000" d="" />
<glyph glyph-name="uni000D" horiz-adv-x="250" d="" />
<glyph glyph-name="exclam" unicode="&#x21;" horiz-adv-x="203" d="M94 197 C94 173 118 160 139 160 C159 160 179 169 189 186 C196 198 279 598 279 604 C279 628 255 641 234 641 C214 641 194 631 184 614 C177 602 94 203 94 197 L94 197 Z M67 72 L51 -4 C46 -28 66 -41 88 -41 C112 -41 146 -24 151 4 L167 79 C172 103 152 116 130 116 C106 116 72 99 67 72 L67 72 Z " />
<glyph glyph-name="quotedbl" unicode="&#x22;" horiz-adv-x="385" d="M148 447 C148 423 172 410 193 410 C238 410 245 437 252 472 L263 524 C269 549 280 578 280 604 C280 628 256 641 235 641 C214 641 191 629 183 609 C179 599 178 588 176 578 L165 526 C159 501 148 472 148 447 L148 447 Z M328 447 C328 423 352 410 373 410 C418 410 425 437 432 472 L443 524 C449 549 460 578 460 604 C460 628 436 641 415 641 C394 641 371 629 363 609 C359 599 358 588 356 578 L345 526 C339 501 328 472 328 447 L328 447 Z " />
<glyph glyph-name="numbersign" unicode="&#x23;" horiz-adv-x="563" d="M431 504 C431 528 407 541 386 541 C368 541 350 533 339 519 C328 505 323 486 316 470 L268 366 L212 366 C187 366 157 349 157 322 C157 298 181 285 202 285 L230 285 C223 270 216 255 209 241 L148 241 C123 241 93 224 93 197 C93 173 117 160 138 160 L172 160 C161 138 100 12 100 -4 C100 -28 124 -41 145 -41 C163 -41 181 -33 192 -19 C203 -5 208 14 215 30 L264 135 C267 143 271 151 275 160 L322 160 C311 138 250 12 250 -4 C250 -28 274 -41 295 -41 C313 -41 331 -33 342 -19 C353 -5 358 14 365 30 L414 135 C417 143 421 151 425 160 L463 160 C488 160 518 176 518 204 C518 228 494 241 473 241 L463 241 C470 255 476 270 483 285 L527 285 C552 285 582 301 582 329 C582 353 558 366 537 366 L521 366 C522 369 524 372 525 375 C543 413 561 451 578 490 C579 494 581 499 581 504 C581 528 557 541 536 541 C518 541 500 533 489 519 C478 505 473 486 466 470 L418 366 L371 366 C372 369 374 372 375 375 C393 413 411 451 428 490 C429 494 431 499 431 504 L431 504 Z M313 241 C320 255 326 270 333 285 L380 285 C373 270 366 255 359 241 L313 241 Z " />
<glyph glyph-name="dollar" unicode="&#x24;" horiz-adv-x="451" d="M76 97 C76 27 111 -17 168 -34 C168 -37 167 -41 166 -45 C162 -64 154 -84 154 -104 C154 -128 178 -141 199 -141 C253 -141 254 -96 263 -55 C264 -49 266 -42 268 -36 C356 -16 429 66 429 158 C429 230 384 279 313 289 C294 291 265 287 249 298 C232 309 227 332 227 350 C227 405 269 460 326 460 C366 460 383 438 383 400 C383 390 380 381 380 372 C380 348 404 335 425 335 C447 335 471 347 478 368 C482 380 482 395 482 408 C482 475 444 518 388 534 C389 538 390 542 391 547 C395 565 403 585 403 604 C403 628 379 641 358 641 C303 641 302 594 293 554 C292 548 290 542 289 536 C201 518 128 434 128 343 C128 270 172 222 243 212 C272 207 305 217 322 186 C327 175 330 162 330 150 C330 95 287 41 230 41 C188 41 175 67 175 105 C175 115 178 125 178 135 C178 159 154 172 133 172 C85 172 76 136 76 97 L76 97 Z " />
<glyph glyph-name="percent" unicode="&#x25;" horiz-adv-x="751" d="M657 504 C662 528 641 541 620 541 C572 541 553 498 528 463 L285 122 C270 100 204 15 200 -4 C195 -28 215 -41 237 -41 C285 -41 303 2 328 37 L571 378 C587 400 653 485 657 504 L657 504 Z M240 210 C329 210 404 269 425 354 L435 404 C453 487 400 541 320 541 C236 541 152 482 135 397 L124 347 C106 263 159 210 240 210 L240 210 Z M266 291 C230 291 218 321 225 355 L235 403 C241 432 261 460 293 460 C350 460 335 401 326 361 C325 356 325 351 324 347 C312 320 306 291 266 291 L266 291 Z M537 -41 C626 -41 701 19 722 104 L732 154 C750 237 697 291 616 291 C532 291 449 231 432 147 L421 97 C403 13 456 -41 537 -41 L537 -41 Z M563 41 C527 41 515 71 522 105 L532 153 C538 182 558 210 590 210 C647 210 632 151 623 111 C622 106 622 101 621 97 C609 70 603 41 563 41 L563 41 Z " />
<glyph glyph-name="ampersand" unicode="&#x26;" horiz-adv-x="575" d="M254 41 C201 41 178 69 178 120 C178 179 221 245 281 257 C294 259 307 258 319 261 C340 264 363 281 363 304 C363 312 360 319 355 325 C330 356 282 319 282 381 C282 419 310 460 350 460 C378 460 386 444 386 419 C386 411 384 404 384 397 C384 373 408 360 429 360 C451 360 475 372 482 393 C486 404 485 416 485 427 C485 502 430 541 360 541 C266 541 183 469 183 373 C183 353 188 328 199 311 C129 274 79 191 79 112 C79 11 149 -41 244 -41 C347 -41 428 16 468 110 L501 110 C526 110 556 126 556 154 C556 178 532 191 511 191 L361 191 C336 191 306 174 306 147 C306 123 330 110 351 110 L365 110 C342 67 304 41 254 41 L254 41 Z " />
<glyph glyph-name="quotesingle" unicode="&#x27;" horiz-adv-x="205" d="M148 447 C148 423 172 410 193 410 C238 410 245 437 252 472 L263 524 C269 549 280 578 280 604 C280 628 256 641 235 641 C214 641 191 629 183 609 C179 599 178 588 176 578 L165 526 C159 501 148 472 148 447 L148 447 Z " />
<glyph glyph-name="parenleft" unicode="&#x28;" horiz-adv-x="427" d="M106 196 C106 73 154 -50 263 -115 C281 -126 304 -140 325 -140 C349 -140 380 -123 380 -96 C380 -66 343 -59 323 -46 C238 6 205 108 205 204 C205 269 213 315 239 374 C289 492 372 600 491 653 C503 658 517 662 528 669 C540 677 550 690 550 704 C550 728 526 740 505 740 C479 740 420 710 397 696 C279 624 199 523 146 397 C115 325 106 275 106 196 L106 196 Z " />
<glyph glyph-name="parenright" unicode="&#x29;" horiz-adv-x="427" d="M347 396 C347 323 341 293 314 226 C265 108 182 -1 63 -53 C51 -58 37 -62 26 -69 C14 -77 4 -90 4 -104 C4 -128 28 -140 49 -140 C75 -140 134 -110 157 -96 C274 -24 354 77 407 203 C438 275 447 325 447 404 C447 527 400 649 291 715 C274 726 250 740 229 740 C205 740 174 723 174 696 C174 666 211 659 231 646 C315 592 347 492 347 396 L347 396 Z " />
<glyph glyph-name="asterisk" unicode="&#x2a;" horiz-adv-x="400" d="M285 393 C292 370 307 360 330 360 C355 360 385 377 385 404 C385 417 374 446 370 460 L364 481 C400 497 446 519 452 524 C460 532 467 542 467 554 C467 578 443 591 422 591 C411 591 392 584 373 576 C376 585 378 594 378 604 C378 628 354 641 333 641 C286 641 279 607 272 572 C254 582 235 591 222 591 C197 591 167 574 167 547 C167 538 171 531 176 524 C179 520 212 501 240 485 C218 455 192 418 189 412 C187 407 185 402 185 397 C185 373 209 360 230 360 C257 360 271 372 285 393 L285 393 Z " />
<glyph glyph-name="plus" unicode="&#x2b;" horiz-adv-x="401" d="M140 210 L195 210 L182 147 C176 123 197 110 219 110 C243 110 277 126 282 154 L294 210 L340 210 C364 210 398 226 404 254 C409 278 388 291 366 291 L311 291 L325 354 C330 378 309 391 288 391 C263 391 230 374 224 347 L212 291 L166 291 C142 291 109 274 103 247 C98 223 119 210 140 210 L140 210 Z " />
<glyph glyph-name="comma" unicode="&#x2c;" horiz-adv-x="252" d="M201 4 C206 28 186 41 164 41 L114 41 C90 41 56 24 51 -4 C46 -25 63 -39 83 -40 C69 -70 13 -182 8 -204 C3 -228 24 -241 45 -241 C72 -241 90 -227 105 -207 C115 -190 199 -7 201 4 L201 4 Z " />
<glyph glyph-name="hyphen" unicode="&#x2d;" horiz-adv-x="401" d="M140 210 L340 210 C364 210 398 226 404 254 C409 278 388 291 366 291 L166 291 C142 291 109 274 103 247 C98 223 119 210 140 210 L140 210 Z " />
<glyph glyph-name="period" unicode="&#x2e;" horiz-adv-x="202" d="M67 72 L51 -4 C46 -28 66 -41 88 -41 C112 -41 146 -24 151 4 L167 79 C172 103 152 116 130 116 C106 116 72 99 67 72 L67 72 Z " />
<glyph glyph-name="slash" unicode="&#x2f;" horiz-adv-x="452" d="M550 704 C555 728 535 741 513 741 C481 741 462 723 447 694 L147 123 C130 91 33 -87 29 -104 C24 -128 45 -141 67 -141 C99 -141 118 -123 133 -94 L433 477 C450 510 547 687 550 704 L550 704 Z " />
<glyph glyph-name="zero" unicode="0" horiz-adv-x="501" d="M83 99 C91 8 148 -41 243 -41 C332 -41 411 4 457 90 C469 110 478 132 482 154 L525 354 C530 376 529 398 527 419 C515 502 455 541 370 541 C254 541 150 460 124 347 L87 172 C82 147 81 122 83 99 L83 99 Z M269 41 C193 41 173 111 188 179 L225 353 C237 411 280 460 343 460 C399 460 426 427 426 374 C426 364 424 354 423 344 C422 341 421 337 421 333 C409 277 398 221 386 164 C373 104 341 41 269 41 L269 41 Z " />
<glyph glyph-name="one" unicode="1" horiz-adv-x="326" d="M275 4 L382 504 C387 528 366 541 345 541 L220 541 C195 541 162 524 156 497 C148 457 194 460 222 460 L273 460 C244 322 213 184 184 46 C176 8 158 -41 212 -41 C236 -41 270 -24 275 4 L275 4 Z " />
<glyph glyph-name="two" unicode="2" horiz-adv-x="452" d="M319 460 C357 460 376 442 381 406 C382 395 383 383 380 372 C364 293 198 138 132 79 C110 59 81 40 62 17 C57 11 52 4 51 -4 C46 -28 66 -41 88 -41 L338 -41 C362 -41 396 -24 401 4 C412 51 333 41 303 41 L207 41 C291 116 459 275 481 379 C485 397 485 416 483 434 C473 506 420 541 346 541 C268 541 195 503 153 427 C143 409 134 390 130 372 C125 348 146 335 168 335 C190 335 217 347 228 370 C233 380 234 390 239 400 C255 438 279 460 319 460 L319 460 Z " />
<glyph glyph-name="three" unicode="3" horiz-adv-x="501" d="M378 460 L273 362 C257 347 237 333 223 316 C219 310 215 303 213 297 C204 251 268 260 296 260 C338 260 364 249 378 211 C384 193 386 167 382 146 C366 89 328 41 263 41 C208 41 180 72 180 126 C180 138 184 151 183 162 C182 181 164 191 145 191 C121 191 87 174 82 147 C77 125 77 102 80 81 C91 -2 151 -41 237 -41 C326 -41 407 2 456 88 C468 109 478 132 482 154 C487 175 487 197 484 217 C475 289 434 325 363 338 L470 437 C487 452 507 467 521 485 C526 490 529 497 531 504 C536 528 515 541 494 541 L244 541 C219 541 186 524 180 497 C172 459 214 460 241 460 L378 460 Z " />
<glyph glyph-name="four" unicode="4" horiz-adv-x="501" d="M71 97 C66 73 87 60 108 60 L363 60 L350 -4 C345 -28 365 -41 387 -41 C411 -41 445 -24 450 4 L493 204 C498 228 477 241 456 241 C431 241 398 224 392 197 L380 141 C372 141 365 141 359 141 L202 141 L368 374 C385 397 453 485 457 504 C462 528 441 541 420 541 C372 541 354 499 329 464 L130 186 C118 168 74 113 71 97 L71 97 Z " />
<glyph glyph-name="five" unicode="5" horiz-adv-x="501" d="M495 541 L282 541 C260 541 235 529 223 509 C215 495 211 480 205 466 L179 399 C167 370 144 324 138 297 C131 262 166 259 193 259 C218 259 244 261 270 261 C325 261 367 258 380 202 C384 185 386 165 382 146 C366 89 328 41 263 41 C208 41 180 73 180 126 C180 138 184 151 183 162 C182 181 164 191 145 191 C121 191 87 174 82 147 C77 125 77 102 80 81 C91 -2 151 -41 237 -41 C326 -41 407 2 456 88 C468 109 478 132 482 154 C501 242 459 319 375 336 C337 343 295 341 254 341 L302 460 L456 460 C487 460 524 469 532 504 C537 528 516 541 495 541 L495 541 Z " />
<glyph glyph-name="six" unicode="6" horiz-adv-x="501" d="M419 541 L370 541 C244 541 145 441 119 322 L82 147 C77 124 77 102 80 81 C91 -2 152 -41 237 -41 C326 -41 408 2 456 88 C468 109 478 131 482 154 C487 176 487 198 484 219 C472 301 412 341 327 341 L277 341 C253 341 219 324 213 297 C204 251 267 260 296 260 C338 260 363 248 377 211 C384 193 386 167 381 146 C378 132 372 117 364 104 C340 60 309 41 263 41 C214 41 188 64 181 110 C180 125 179 140 182 155 L219 328 C224 351 235 376 248 397 C276 445 302 460 357 460 L374 459 C406 459 448 467 456 504 C461 528 440 541 419 541 L419 541 Z " />
<glyph glyph-name="seven" unicode="7" horiz-adv-x="501" d="M557 504 C562 528 541 541 520 541 L220 541 C195 541 162 524 156 497 C152 480 162 468 175 463 C192 456 388 460 426 460 L216 159 C198 134 110 15 106 -4 C101 -28 121 -41 143 -41 C190 -41 208 0 232 34 L472 377 C487 398 553 487 557 504 L557 504 Z " />
<glyph glyph-name="eight" unicode="8" horiz-adv-x="501" d="M370 541 C289 541 202 480 185 397 C177 360 184 328 202 304 C143 270 96 213 82 147 C59 39 132 -41 237 -41 C344 -41 459 44 482 154 C496 220 473 277 428 309 C456 334 478 367 485 404 C502 483 446 541 370 541 L370 541 Z M384 395 C383 391 382 387 380 383 C372 361 350 341 327 341 C294 341 279 373 286 404 C291 430 314 459 343 459 C367 459 385 438 386 416 C386 409 385 402 384 395 L384 395 Z M381 145 C378 137 377 130 374 123 C357 78 309 41 263 41 C203 41 170 96 182 154 C194 207 244 259 301 259 C346 259 380 224 384 181 C384 169 381 156 381 145 L381 145 Z " />
<glyph glyph-name="nine" unicode="9" horiz-adv-x="501" d="M186 -42 L243 -42 C371 -42 462 56 487 178 L525 354 C529 376 529 398 526 419 C515 501 454 540 369 540 C254 540 150 459 124 347 C119 324 119 302 122 281 C133 197 193 159 279 159 L329 159 C353 159 387 175 393 203 C402 248 338 239 309 239 C267 239 242 251 229 288 C222 306 220 333 225 354 C237 411 282 459 343 459 C392 459 418 436 425 389 C427 375 427 360 424 346 L387 171 C381 143 370 114 353 89 C328 52 302 39 262 39 C249 39 236 40 222 40 C195 40 156 29 148 -5 C143 -29 164 -42 186 -42 L186 -42 Z " />
<glyph glyph-name="colon" unicode="&#x3a;" horiz-adv-x="202" d="M141 422 L125 347 C120 323 140 310 162 310 C186 310 220 326 225 354 L241 429 C246 453 226 466 204 466 C180 466 146 449 141 422 L141 422 Z M67 72 L51 -4 C46 -28 66 -41 88 -41 C112 -41 146 -24 151 4 L167 79 C172 103 152 116 130 116 C106 116 72 99 67 72 L67 72 Z " />
<glyph glyph-name="semicolon" unicode="&#x3b;" horiz-adv-x="252" d="M165 422 L149 347 C144 323 164 310 186 310 C210 310 244 326 249 354 L265 429 C270 453 250 466 228 466 C204 466 170 449 165 422 L165 422 Z M201 4 C206 28 186 41 164 41 L114 41 C90 41 56 24 51 -4 C46 -25 63 -39 83 -40 C69 -70 13 -182 8 -204 C3 -228 24 -241 45 -241 C72 -241 90 -227 105 -207 C115 -190 199 -7 201 4 L201 4 Z " />
<glyph glyph-name="less" unicode="&#x3c;" horiz-adv-x="301" d="M103 247 C101 240 102 234 104 228 C107 222 187 121 193 117 C200 112 209 110 219 110 C243 110 277 126 282 154 C284 160 283 166 281 172 C274 188 231 236 218 253 C238 270 303 319 315 335 C320 340 323 347 325 354 C330 378 309 391 288 391 C276 391 264 387 253 381 C244 376 121 275 114 267 C109 261 104 254 103 247 L103 247 Z " />
<glyph glyph-name="equal" unicode="&#x3d;" horiz-adv-x="401" d="M156 285 L356 285 C380 285 414 301 419 329 C425 353 404 366 382 366 L182 366 C158 366 125 349 119 322 C114 298 134 285 156 285 L156 285 Z M129 160 L329 160 C354 160 387 176 393 204 C398 228 377 241 356 241 L156 241 C131 241 98 224 92 197 C87 173 108 160 129 160 L129 160 Z " />
<glyph glyph-name="greater" unicode="&#x3e;" horiz-adv-x="301" d="M189 247 C168 231 104 181 91 166 C87 160 83 153 82 147 C76 123 97 110 119 110 C130 110 142 113 154 119 C163 124 285 225 292 233 C298 239 302 246 304 254 C305 260 304 266 302 272 C299 279 219 379 214 383 C206 388 197 391 188 391 C163 391 130 374 124 347 C123 340 123 334 126 328 C132 312 175 264 189 247 L189 247 Z " />
<glyph glyph-name="question" unicode="&#x3f;" horiz-adv-x="451" d="M339 560 C377 560 397 544 402 509 C404 499 404 488 402 477 C399 462 393 446 383 432 C371 418 347 406 331 396 C261 352 240 306 225 234 L217 197 C212 173 233 160 254 160 C265 160 277 163 288 168 C313 182 316 196 321 220 C327 248 333 288 352 313 C364 328 382 338 398 348 C457 384 489 421 503 485 C507 503 506 521 504 538 C493 609 439 641 366 641 C265 641 173 571 151 472 C146 448 166 435 188 435 C210 435 237 447 248 470 C253 480 255 490 259 500 C275 538 299 560 339 560 L339 560 Z M191 72 L175 -4 C170 -28 190 -41 212 -41 C236 -41 270 -24 275 4 L291 79 C296 103 276 116 254 116 C230 116 196 99 191 72 L191 72 Z " />
<glyph glyph-name="at" unicode="&#x40;" horiz-adv-x="553" d="M332 250 C332 290 359 337 396 353 C413 360 442 360 461 360 C467 360 473 360 479 360 L448 216 C444 194 434 169 434 147 C434 123 458 110 479 110 C501 110 526 122 532 145 C536 159 538 173 541 187 L560 276 C571 327 585 379 592 431 C594 444 595 456 595 469 C595 582 518 641 410 641 C289 641 197 572 153 461 C134 412 128 357 117 306 C105 249 86 190 86 131 C86 18 165 -41 272 -41 L397 -41 C422 -41 452 -24 452 4 C452 46 397 41 368 41 L291 40 C225 40 185 66 185 139 C185 190 203 244 214 294 L232 377 C236 400 240 422 248 444 C273 512 326 560 400 560 C465 560 496 525 496 461 C496 454 495 447 495 441 L442 441 C362 441 297 403 258 333 C242 304 233 276 233 243 C233 155 297 110 379 110 C404 110 434 126 434 154 C434 162 431 169 426 175 C402 204 361 175 340 215 C335 225 332 238 332 250 L332 250 Z " />
<glyph glyph-name="A" unicode="A" horiz-adv-x="502" d="M392 641 C372 641 351 631 337 614 C325 600 317 578 310 562 L251 445 C177 299 100 153 29 5 C27 2 26 -1 26 -4 C21 -28 41 -41 63 -41 C82 -41 100 -32 115 -17 C118 -14 134 16 156 58 L368 59 C372 13 376 -19 377 -22 C385 -35 396 -41 413 -41 C437 -41 471 -24 476 4 C481 24 437 515 434 561 C433 576 433 606 429 619 C423 634 409 641 392 641 L392 641 Z M198 141 C256 255 325 395 340 425 C343 396 353 256 362 140 L198 141 Z " />
<glyph glyph-name="B" unicode="B" horiz-adv-x="552" d="M213 -41 L288 -41 C418 -41 511 46 537 173 C542 192 546 213 547 232 C550 297 526 343 483 368 C513 395 544 438 552 479 C556 498 556 518 552 536 C536 612 470 641 392 641 L242 641 C217 641 184 624 178 597 L51 -4 C46 -28 66 -41 88 -41 C109 -41 134 -29 146 -9 C154 4 161 47 164 62 L216 309 C218 309 220 310 222 310 L312 310 C318 309 323 310 329 310 C336 310 344 310 351 310 C364 310 377 310 388 307 C446 295 451 235 440 181 C422 98 398 40 304 40 C289 40 273 41 258 41 C230 41 184 34 176 -4 C171 -28 191 -41 213 -41 L213 -41 Z M234 391 L270 560 L365 560 C408 560 442 547 451 505 C453 494 454 483 452 471 C440 422 397 394 348 391 L234 391 Z " />
<glyph glyph-name="C" unicode="C" horiz-adv-x="551" d="M416 641 C316 641 224 593 170 496 C157 472 145 447 140 422 L87 172 C82 146 82 121 85 97 C98 4 166 -41 262 -41 C394 -41 508 51 538 179 C543 203 522 216 500 216 C478 216 452 203 440 180 C433 167 431 152 425 138 C399 76 353 41 288 41 C227 41 194 69 187 127 C184 143 184 162 188 180 L241 428 C244 446 252 464 262 480 C292 535 332 560 389 560 C458 560 492 521 493 455 C493 432 482 405 502 392 C509 387 518 385 527 385 C552 385 585 401 591 429 C596 454 596 479 593 503 C580 597 512 641 416 641 L416 641 Z " />
<glyph glyph-name="D" unicode="D" horiz-adv-x="552" d="M213 -41 L262 -41 C348 -41 434 -10 492 69 C511 94 527 126 533 154 L592 429 C597 453 597 480 594 503 C581 597 514 641 417 641 L242 641 C217 641 184 624 178 597 L51 -4 C46 -28 66 -41 88 -41 C109 -41 134 -29 146 -9 C154 3 160 46 164 62 L270 560 L390 560 C451 560 484 532 492 474 C494 457 495 439 491 421 L433 147 C429 129 418 109 406 93 C366 39 319 41 265 41 C236 41 184 37 176 -4 C171 -28 191 -41 213 -41 L213 -41 Z " />
<glyph glyph-name="E" unicode="E" horiz-adv-x="501" d="M541 641 L241 641 C216 641 183 624 177 597 L66 72 C51 3 96 -41 162 -41 L387 -41 C411 -41 445 -24 450 4 C458 38 420 42 393 42 C330 42 266 40 203 40 C174 40 160 48 167 80 L226 360 L347 360 C371 360 405 376 410 404 C416 428 395 441 373 441 L243 441 L269 560 C287 560 305 559 324 559 L434 559 C453 559 471 559 490 559 C523 559 570 564 578 604 C583 628 562 641 541 641 L541 641 Z " />
<glyph glyph-name="F" unicode="F" horiz-adv-x="502" d="M579 604 C584 628 563 641 542 641 L242 641 C217 641 184 624 178 597 L51 -4 C46 -28 66 -41 88 -41 C109 -41 135 -29 146 -9 C154 5 160 45 164 62 L227 360 L323 360 C347 360 381 376 386 404 C392 428 371 441 349 441 L244 441 L269 559 L270 560 C344 560 417 559 491 559 C505 559 521 558 535 563 C554 568 575 584 579 604 L579 604 Z " />
<glyph glyph-name="G" unicode="G" horiz-adv-x="551" d="M477 360 L437 172 C433 154 425 136 416 119 C386 65 346 40 288 40 C227 40 194 69 186 126 C184 143 184 161 188 180 L241 428 C245 450 257 474 269 494 C313 560 359 560 423 560 L514 560 C539 560 572 576 578 604 C585 638 549 641 522 641 C395 641 271 653 181 515 C162 486 147 453 140 422 L87 172 C82 147 82 122 85 98 C97 4 163 -42 262 -42 C395 -42 508 51 538 179 L585 404 C591 428 570 441 548 441 L373 441 C349 441 315 424 310 397 C300 351 367 360 397 360 L477 360 Z " />
<glyph glyph-name="H" unicode="H" horiz-adv-x="552" d="M151 4 L227 360 L478 360 L401 -4 C396 -28 416 -41 438 -41 C462 -41 496 -24 501 4 L629 604 C634 628 613 641 592 641 C567 641 534 624 528 597 L495 441 L244 441 L279 604 C284 628 263 641 242 641 C217 641 184 624 178 597 L51 -4 C46 -28 66 -41 88 -41 C112 -41 146 -24 151 4 L151 4 Z " />
<glyph glyph-name="I" unicode="I" horiz-adv-x="202" d="M151 4 L279 604 C284 628 263 641 242 641 C217 641 184 624 178 597 L51 -4 C46 -28 66 -41 88 -41 C112 -41 146 -24 151 4 L151 4 Z " />
<glyph glyph-name="J" unicode="J" horiz-adv-x="451" d="M238 41 C195 41 176 66 175 107 C175 116 178 126 178 136 C177 156 159 166 140 166 C115 166 82 149 76 122 C72 103 72 84 75 66 C85 -7 137 -41 212 -41 C312 -41 406 30 427 129 L528 604 C533 628 512 641 491 641 C470 641 446 630 433 611 C428 602 423 580 421 570 C390 425 360 279 329 134 C319 86 294 41 238 41 L238 41 Z " />
<glyph glyph-name="K" unicode="K" horiz-adv-x="552" d="M151 4 L231 380 C242 385 252 390 261 395 C293 303 324 211 355 119 L388 21 C393 6 395 -12 404 -25 C411 -36 424 -41 438 -41 C462 -41 496 -24 501 4 C503 9 502 14 501 19 C491 54 479 88 467 122 C443 194 418 265 394 337 L361 435 C360 439 359 442 358 446 L458 496 L556 547 C581 559 622 573 629 604 C634 628 613 641 592 641 C563 641 507 606 478 591 L252 476 L279 604 C284 628 263 641 242 641 C217 641 184 624 178 597 L51 -4 C46 -28 66 -41 88 -41 C112 -41 146 -24 151 4 L151 4 Z " />
<glyph glyph-name="L" unicode="L" horiz-adv-x="502" d="M159 41 L275 584 C277 594 281 607 279 616 C276 633 259 641 242 641 C217 641 184 624 178 597 L51 -4 C46 -28 66 -41 88 -41 L388 -41 C412 -41 446 -24 451 4 C455 20 446 32 432 37 C415 44 356 41 333 41 L159 41 Z " />
<glyph glyph-name="M" unicode="M" horiz-adv-x="727" d="M676 4 L804 604 C809 628 788 641 767 641 C754 641 740 636 728 629 C701 612 662 572 637 549 L435 370 L434 370 L322 550 C308 572 289 614 272 630 C264 637 253 641 242 641 C217 641 184 624 178 597 L51 -4 C46 -28 66 -41 88 -41 C109 -41 134 -29 146 -9 C154 4 158 37 162 52 L250 466 L334 329 C350 303 364 260 402 260 C443 260 485 310 516 338 L679 481 C646 325 612 169 579 13 C577 4 574 -7 575 -16 C578 -32 596 -41 613 -41 C637 -41 671 -24 676 4 L676 4 Z " />
<glyph glyph-name="N" unicode="N" horiz-adv-x="552" d="M242 641 C217 641 184 624 178 597 L51 -4 C46 -28 66 -41 88 -41 C109 -41 135 -29 146 -9 C154 4 159 41 163 57 L259 508 L464 336 C467 333 469 331 471 329 L401 -4 C396 -28 416 -41 438 -41 C462 -41 496 -24 501 4 L576 353 C576 354 576 354 576 354 L629 604 C634 628 613 641 592 641 C567 641 534 624 528 597 L495 442 L314 594 C298 608 284 623 266 634 C259 638 251 641 242 641 L242 641 Z " />
<glyph glyph-name="O" unicode="O" horiz-adv-x="551" d="M538 179 L591 429 C596 454 596 479 593 503 C580 597 512 641 416 641 C316 641 224 593 170 496 C157 472 145 447 140 422 L87 172 C82 146 82 121 85 97 C98 4 165 -41 262 -41 C394 -41 508 51 538 179 L538 179 Z M438 176 C433 163 431 151 425 138 C399 76 353 41 288 41 C227 41 194 69 187 127 C184 143 184 162 188 180 L241 428 C244 446 252 464 262 480 C292 535 332 560 389 560 C486 560 504 485 486 400 C471 330 455 261 441 192 C439 186 438 181 438 176 L438 176 Z " />
<glyph glyph-name="P" unicode="P" horiz-adv-x="526" d="M286 310 L361 310 C440 310 512 347 554 423 C564 440 573 460 576 479 C582 507 580 538 571 563 C542 641 472 640 391 641 C346 641 301 641 256 641 C228 641 185 633 177 597 L50 -4 C45 -28 65 -41 87 -41 C108 -41 133 -29 146 -9 C153 4 160 46 163 62 L269 560 C312 560 356 560 399 560 C438 560 465 554 474 516 C478 502 479 487 476 471 C473 457 465 441 456 428 C434 395 412 391 378 391 L323 391 C296 391 257 381 249 347 C244 323 265 310 286 310 L286 310 Z " />
<glyph glyph-name="Q" unicode="Q" horiz-adv-x="577" d="M595 469 C595 582 516 641 409 641 C287 641 197 573 153 461 C134 413 128 358 118 308 C105 250 86 190 86 131 C86 18 165 -41 272 -41 C311 -41 347 -33 380 -20 C406 -53 427 -78 429 -80 C439 -87 449 -91 461 -91 C486 -91 516 -74 516 -47 C516 -39 514 -34 510 -28 C507 -23 487 3 462 35 C493 68 529 125 538 171 C549 210 555 252 563 292 C573 338 586 384 592 431 C594 444 595 456 595 469 L595 469 Z M314 191 C289 191 259 174 259 147 C259 139 261 134 265 128 C268 122 296 87 327 47 C313 43 298 41 282 41 C217 41 185 75 185 139 C185 190 203 244 214 294 L232 379 C249 470 290 560 399 560 C464 560 496 525 496 461 C496 430 487 400 481 370 L452 236 C448 217 441 198 440 179 C436 168 433 156 429 145 C422 131 415 117 407 105 C375 145 348 178 346 180 C336 187 326 191 314 191 L314 191 Z " />
<glyph glyph-name="R" unicode="R" horiz-adv-x="526" d="M371 310 C466 313 557 385 577 479 C581 497 581 517 578 534 C568 607 516 641 441 641 L241 641 C217 641 183 624 178 597 L50 -4 C45 -28 66 -41 87 -41 C108 -41 134 -29 146 -9 C153 4 160 46 163 62 L269 560 L414 560 C452 560 472 542 477 506 C478 495 478 483 476 471 C473 457 465 441 457 428 C434 395 412 391 378 391 L324 391 C296 391 257 381 249 347 C246 330 270 274 277 256 L364 14 C373 -13 375 -41 412 -41 C437 -41 470 -24 476 4 C477 8 477 13 476 17 C474 28 468 38 465 48 L371 310 Z " />
<glyph glyph-name="S" unicode="S" horiz-adv-x="551" d="M262 -41 C394 -41 508 51 538 179 C546 217 542 259 530 292 C507 355 452 385 383 390 C336 393 291 380 278 434 C274 447 273 464 276 479 C279 493 287 508 295 521 C320 558 342 560 379 560 C431 560 474 548 477 492 C477 483 474 473 475 464 C477 445 494 436 513 436 C537 436 571 452 577 480 C582 503 579 529 573 550 C548 624 479 641 401 641 C294 641 199 579 176 472 C169 441 172 411 182 385 C205 321 264 310 331 310 C383 310 416 296 432 249 C440 228 442 196 437 171 C433 154 425 136 416 120 C386 65 346 41 288 41 C219 41 186 79 185 145 C185 168 196 195 176 209 C169 213 160 216 150 216 C126 216 93 199 87 172 C82 146 82 121 85 97 C98 4 165 -41 262 -41 L262 -41 Z " />
<glyph glyph-name="T" unicode="T" horiz-adv-x="501" d="M566 641 L216 641 C191 641 158 624 152 597 C147 573 168 560 189 560 L319 560 L200 -4 C195 -28 215 -41 237 -41 C261 -41 295 -24 300 4 L419 560 L539 560 C564 560 597 576 603 604 C608 628 587 641 566 641 L566 641 Z " />
<glyph glyph-name="U" unicode="U" horiz-adv-x="551" d="M177 597 L87 172 C82 147 82 120 85 97 C98 4 165 -41 262 -41 C396 -41 507 50 538 179 L628 604 C633 628 612 641 591 641 C559 641 532 620 525 588 C496 454 469 321 441 187 C424 108 377 41 288 41 C214 41 182 86 185 157 C186 178 192 200 197 222 L216 310 C236 406 257 501 277 596 C283 625 269 641 241 641 C216 641 183 624 177 597 L177 597 Z " />
<glyph glyph-name="V" unicode="V" horiz-adv-x="501" d="M286 175 C283 224 255 608 250 617 C241 633 226 641 208 641 C183 641 153 624 153 597 C153 586 199 -8 203 -16 C211 -33 227 -41 245 -41 C264 -41 280 -33 292 -19 C305 -2 313 22 323 42 L531 453 C554 498 577 542 599 588 C601 593 603 598 603 604 C603 628 579 641 558 641 C540 641 526 634 514 622 C503 611 457 513 446 491 L286 175 Z " />
<glyph glyph-name="W" unicode="W" horiz-adv-x="751" d="M535 169 C532 200 513 416 508 423 C500 435 490 441 473 441 C454 441 437 433 422 419 C411 408 306 202 289 169 C285 220 257 612 251 622 C243 635 233 641 216 641 C192 641 158 624 152 597 C148 577 191 85 195 39 C196 24 195 -6 200 -19 C206 -34 220 -41 237 -41 C256 -41 273 -33 288 -19 C299 -8 406 203 424 236 C427 205 447 -16 452 -23 C460 -35 471 -41 487 -41 C507 -41 528 -31 542 -14 C553 0 561 22 569 38 L628 155 C702 301 778 447 850 595 C851 598 852 601 853 604 C858 628 837 641 816 641 C796 641 779 632 763 617 C752 605 562 222 535 169 L535 169 Z " />
<glyph glyph-name="X" unicode="X" horiz-adv-x="552" d="M51 -4 C46 -28 66 -41 88 -41 C106 -41 123 -33 137 -20 C156 -3 172 22 188 42 L293 175 C301 185 310 195 318 206 L398 -12 C406 -31 415 -41 438 -41 C462 -41 496 -24 501 4 C505 21 483 67 477 84 L396 303 C436 353 476 403 516 453 C551 497 587 541 621 586 C625 592 628 597 629 604 C634 628 613 641 592 641 C574 641 557 633 542 620 C523 603 508 578 492 558 L387 425 C378 415 370 405 362 394 L281 612 C274 631 265 641 242 641 C217 641 184 624 178 597 C175 579 196 534 203 516 L284 297 C244 247 204 197 164 147 C129 103 93 59 59 14 C55 9 52 3 51 -4 L51 -4 Z " />
<glyph glyph-name="Y" unicode="Y" horiz-adv-x="495" d="M352 470 L278 582 C262 606 251 641 216 641 C191 641 158 624 152 597 C151 590 152 584 154 578 C159 566 250 427 282 383 L200 -4 C195 -28 215 -41 237 -41 C261 -41 295 -24 300 4 L382 389 C390 397 398 405 407 413 L557 555 C567 564 577 573 586 583 C591 589 595 596 597 604 C602 628 581 641 560 641 C520 641 495 606 467 579 L352 470 Z " />
<glyph glyph-name="Z" unicode="Z" horiz-adv-x="552" d="M186 41 L576 530 C589 547 625 586 629 604 C634 628 613 641 592 641 L242 641 C217 641 184 624 178 597 C175 580 184 568 198 563 C216 556 281 560 305 560 L493 560 L104 70 C91 54 54 14 51 -4 C46 -28 66 -41 88 -41 L438 -41 C462 -41 496 -24 501 4 C505 20 496 32 482 37 C464 44 399 41 374 41 L186 41 Z " />
<glyph glyph-name="bracketleft" unicode="&#x5b;" horiz-adv-x="327" d="M380 741 L255 741 C234 741 214 731 204 712 C203 709 30 -86 30 -104 C30 -128 54 -141 75 -141 L200 -141 C225 -141 255 -124 255 -97 C255 -59 212 -60 185 -60 L138 -60 L291 660 L359 659 C387 659 425 669 425 704 C425 728 401 741 380 741 L380 741 Z " />
<glyph glyph-name="backslash" unicode="&#x5c;" horiz-adv-x="451" d="M324 -141 C349 -141 379 -124 379 -97 C379 -69 373 -41 371 -14 L353 157 L300 689 C299 697 300 706 297 714 C291 732 271 741 254 741 C229 741 199 724 199 697 C199 669 205 641 208 614 L278 -89 C279 -97 278 -106 281 -114 C287 -132 307 -141 324 -141 L324 -141 Z " />
<glyph glyph-name="bracketright" unicode="&#x5d;" horiz-adv-x="327" d="M316 660 L163 -60 L95 -59 C67 -59 29 -69 29 -104 C29 -128 53 -141 74 -141 L199 -141 C220 -141 240 -131 250 -112 C252 -109 424 686 424 704 C424 728 400 741 379 741 L254 741 C229 741 199 724 199 697 C199 659 242 660 269 660 L316 660 Z " />
<glyph glyph-name="asciicircum" unicode="&#x5e;" horiz-adv-x="451" d="M340 528 L378 467 C394 440 405 410 441 410 C466 410 496 426 496 454 C496 459 494 464 492 469 C486 482 396 625 391 629 C381 637 370 641 358 641 C346 641 335 637 325 631 C317 626 160 477 154 469 C150 462 146 455 146 447 C146 423 170 410 191 410 C203 410 213 413 223 418 C242 429 318 507 340 528 L340 528 Z " />
<glyph glyph-name="underscore" unicode="&#x5f;" horiz-adv-x="501" d="M74 -141 L374 -141 C399 -141 429 -124 429 -97 C429 -73 405 -60 384 -60 L84 -60 C59 -60 29 -76 29 -104 C29 -128 53 -141 74 -141 L74 -141 Z " />
<glyph glyph-name="grave" unicode="&#x60;" horiz-adv-x="276" d="M274 485 C299 485 332 502 338 529 C339 535 338 541 336 547 C333 554 273 629 267 633 C260 638 251 641 241 641 C217 641 184 624 178 597 C177 590 177 584 180 578 C182 572 243 496 248 492 C256 487 264 485 274 485 L274 485 Z " />
<glyph glyph-name="a" unicode="a" horiz-adv-x="451" d="M178 130 L209 278 C212 290 217 302 224 313 C242 346 264 360 298 360 L377 360 C355 252 331 144 308 36 C300 -1 287 -41 337 -41 C362 -41 395 -24 401 4 L486 404 C491 428 470 441 449 441 L324 441 C224 441 131 371 109 272 L77 122 C73 103 73 84 75 66 C85 -7 138 -41 212 -41 C237 -41 270 -24 276 4 C280 24 265 37 247 40 C240 41 232 41 225 41 C199 45 184 61 179 85 C175 99 175 114 178 130 L178 130 Z " />
<glyph glyph-name="b" unicode="b" horiz-adv-x="451" d="M358 271 L326 122 C324 110 319 98 312 87 C294 54 272 41 237 41 L158 41 L274 584 C276 593 280 607 278 616 C275 633 258 641 241 641 C217 641 183 624 177 597 L50 -4 C45 -28 65 -41 87 -41 L212 -41 C312 -41 406 30 427 129 L459 279 C463 297 463 317 461 334 C450 407 398 441 323 441 C299 441 266 424 260 397 C255 376 270 363 289 360 C296 359 304 360 311 359 C337 356 352 339 357 315 C360 301 361 286 358 271 L358 271 Z " />
<glyph glyph-name="c" unicode="c" horiz-adv-x="451" d="M238 41 C188 41 167 81 177 130 L209 278 C211 290 217 302 223 313 C241 345 263 360 297 360 C340 360 360 334 360 293 C360 284 357 274 357 265 C358 245 376 235 395 235 C420 235 453 251 459 279 C463 297 463 316 461 334 C451 406 398 441 323 441 C223 441 130 370 108 272 L76 122 C72 103 72 84 75 66 C84 -6 137 -41 212 -41 C313 -41 406 30 427 129 C432 153 411 166 390 166 C368 166 341 153 329 130 C325 120 323 110 319 100 C303 62 278 41 238 41 L238 41 Z " />
<glyph glyph-name="d" unicode="d" horiz-adv-x="451" d="M401 5 L486 404 C487 405 487 405 487 406 L529 605 C534 629 513 642 492 642 C468 642 434 625 428 598 L395 442 L324 442 C223 442 131 371 109 272 L83 148 C78 127 77 105 79 85 C85 7 130 -40 213 -40 C237 -40 271 -23 276 5 C278 13 277 20 273 26 C253 60 196 15 183 96 C180 115 179 136 184 155 L210 278 C213 293 220 308 228 321 C256 362 280 361 320 361 C339 361 358 360 378 360 L301 -3 C296 -27 316 -40 338 -40 C362 -40 396 -23 401 5 L401 5 Z " />
<glyph glyph-name="e" unicode="e" horiz-adv-x="451" d="M366 304 C358 267 330 240 293 240 C272 240 253 243 234 225 C228 219 223 211 222 204 C215 171 248 160 276 160 C340 160 396 175 438 238 C450 256 459 276 464 297 C468 317 467 338 463 356 C448 420 396 441 330 441 C255 441 190 421 141 348 C127 327 116 302 111 279 L79 129 C75 110 75 90 77 73 C88 -3 143 -41 222 -41 L272 -41 C293 -41 320 -28 325 -4 C332 30 298 41 271 41 C259 41 247 40 235 40 C207 40 188 47 179 73 C174 86 173 106 177 122 L208 271 C211 285 218 301 227 314 C256 357 283 360 326 360 C335 360 348 360 354 355 C366 344 370 321 366 304 L366 304 Z " />
<glyph glyph-name="f" unicode="f" horiz-adv-x="351" d="M478 604 C483 628 462 641 441 641 C341 641 248 571 226 472 L219 440 L198 441 C174 441 141 424 135 397 C130 373 150 360 172 360 L202 360 L125 -4 C120 -28 140 -41 162 -41 C187 -41 217 -25 225 2 C229 14 231 27 234 40 C242 75 249 111 256 146 L301 357 C301 358 301 359 301 360 L347 360 C371 360 405 376 411 404 C416 428 395 441 373 441 L318 441 C320 448 321 456 323 463 C328 487 336 512 354 533 C381 564 396 554 428 561 C449 565 473 581 478 604 L478 604 Z " />
<glyph glyph-name="g" unicode="g" horiz-adv-x="452" d="M178 130 L209 278 C212 290 217 302 224 313 C242 346 264 360 298 360 L377 360 C355 252 331 144 308 36 C305 20 300 4 300 -9 C297 -27 293 -45 289 -63 C284 -86 276 -111 258 -132 C230 -164 216 -153 183 -160 C162 -164 138 -180 133 -203 C128 -227 149 -240 170 -240 C271 -240 364 -170 386 -71 L487 405 C492 429 472 442 450 442 C446 441 443 441 439 441 L324 441 C224 441 131 371 109 272 L77 122 C73 103 73 84 75 66 C85 -7 138 -41 212 -41 C237 -41 270 -24 276 4 C280 24 265 37 247 40 C240 41 232 41 225 41 C199 45 184 61 179 85 C175 99 175 114 178 130 L178 130 Z " />
<glyph glyph-name="h" unicode="h" horiz-adv-x="451" d="M150 4 L226 360 C240 360 253 360 267 360 C283 360 313 360 327 355 C366 338 363 288 354 248 C337 169 319 89 302 10 C295 -21 303 -41 337 -41 C361 -41 395 -24 400 4 L459 279 C463 297 463 317 461 334 C450 407 398 441 323 441 L243 441 L278 604 C283 628 262 641 241 641 C217 641 183 624 177 597 L50 -4 C45 -28 65 -41 87 -41 C111 -41 145 -24 150 4 L150 4 Z " />
<glyph glyph-name="i" unicode="i" horiz-adv-x="226" d="M267 554 L278 604 C283 628 262 641 241 641 C217 641 183 624 177 597 L167 547 C162 523 182 510 204 510 C228 510 262 526 267 554 L267 554 Z M150 4 L236 404 C241 428 220 441 198 441 C174 441 141 424 135 397 L50 -4 C45 -28 65 -41 87 -41 C111 -41 145 -24 150 4 L150 4 Z " />
<glyph glyph-name="j" unicode="j" horiz-adv-x="301" d="M343 555 L354 605 C359 629 338 642 316 642 C292 642 259 625 253 598 L242 548 C237 524 258 511 279 511 C304 511 337 527 343 555 L343 555 Z M210 -71 L311 405 C316 429 295 442 274 442 C223 442 208 403 202 361 C172 220 143 79 113 -62 C108 -86 100 -111 82 -132 C54 -163 40 -153 8 -160 C-13 -164 -38 -180 -42 -203 C-47 -227 -27 -240 -5 -240 C95 -240 188 -170 210 -71 L210 -71 Z " />
<glyph glyph-name="k" unicode="k" horiz-adv-x="451" d="M150 4 L208 275 C221 280 234 285 246 290 C258 214 299 -19 302 -23 C310 -35 321 -41 337 -41 C361 -41 395 -24 400 4 C401 7 401 11 401 14 C399 39 360 260 347 328 L403 348 C421 355 442 360 459 370 C471 378 483 390 486 404 C491 428 470 441 448 441 C442 441 435 439 428 437 C388 426 348 408 309 393 L227 363 L278 604 C283 628 262 641 241 641 C217 641 183 624 177 597 L50 -4 C45 -28 65 -41 87 -41 C111 -41 145 -24 150 4 L150 4 Z " />
<glyph glyph-name="l" unicode="l" horiz-adv-x="226" d="M150 4 L278 604 C283 628 262 641 241 641 C217 641 183 624 177 597 L50 -4 C45 -28 65 -41 87 -41 C111 -41 145 -24 150 4 L150 4 Z " />
<glyph glyph-name="m" unicode="m" horiz-adv-x="702" d="M51 -4 C51 -28 75 -41 96 -41 C116 -41 136 -31 146 -14 C151 -5 207 259 228 362 C252 360 277 360 302 360 C343 360 362 341 362 300 C362 270 352 242 346 213 L314 61 C310 40 301 18 301 -4 C301 -28 325 -41 346 -41 C365 -41 385 -32 395 -16 C397 -12 398 -9 399 -5 C411 35 417 78 426 119 C437 171 450 222 458 273 C460 285 461 296 461 308 C461 333 456 354 446 373 C458 361 479 359 495 359 C512 359 529 361 546 361 C590 361 612 346 612 300 C612 270 602 242 596 213 L564 61 C560 40 551 18 551 -4 C551 -28 575 -41 596 -41 C615 -41 635 -32 645 -16 C647 -12 648 -9 649 -5 C661 35 667 78 676 119 C687 171 700 222 708 273 C710 285 711 296 711 308 C711 395 648 441 566 441 L491 441 C466 441 436 424 436 397 C436 393 437 389 438 386 C412 422 368 441 316 441 L191 441 C166 441 137 424 136 397 C117 321 51 2 51 -4 L51 -4 Z " />
<glyph glyph-name="n" unicode="n" horiz-adv-x="451" d="M400 4 L459 279 C463 297 463 317 461 334 C450 407 398 441 323 441 L198 441 C174 441 141 424 135 397 L50 -4 C45 -28 65 -41 87 -41 C107 -41 132 -30 144 -11 C155 6 170 96 175 120 L226 360 L296 360 C390 360 355 255 341 190 C328 127 314 64 301 2 C295 -26 311 -41 337 -41 C361 -41 395 -24 400 4 L400 4 Z " />
<glyph glyph-name="o" unicode="o" horiz-adv-x="451" d="M75 66 C85 -7 137 -41 212 -41 C312 -41 406 30 427 129 L459 279 C463 297 463 316 461 334 C451 407 398 441 323 441 C223 441 130 370 108 272 L76 122 C72 103 72 84 75 66 L75 66 Z M297 360 C348 360 368 319 358 271 L326 122 C324 110 318 98 312 87 C294 55 272 41 238 41 C178 41 168 90 180 143 C189 185 199 227 207 269 C208 272 208 274 209 277 C222 322 244 360 297 360 L297 360 Z " />
<glyph glyph-name="p" unicode="p" horiz-adv-x="451" d="M428 129 L459 279 C463 297 464 317 461 334 C451 407 399 441 324 441 L199 441 C175 441 141 424 135 397 L8 -204 C3 -228 23 -241 45 -241 C66 -241 91 -229 104 -209 C111 -196 118 -154 121 -138 L227 360 L297 360 C335 360 354 342 359 306 C361 295 361 283 359 271 L327 122 C319 87 291 46 253 41 C244 40 236 41 228 40 C206 36 180 19 175 -4 C170 -28 191 -41 212 -41 C291 -41 363 -3 405 73 C415 90 424 110 428 129 L428 129 Z " />
<glyph glyph-name="q" unicode="q" horiz-adv-x="452" d="M175 100 C175 133 186 164 192 196 C206 264 215 360 307 360 L378 360 L269 -153 C265 -169 258 -186 258 -204 C258 -228 282 -241 303 -241 C324 -241 344 -231 354 -212 C356 -209 486 387 486 404 C486 428 462 441 441 441 L316 441 C224 441 150 388 118 303 C106 272 102 239 95 206 C87 169 76 131 76 93 C76 5 138 -41 221 -41 C246 -41 276 -24 276 4 C276 11 273 19 268 25 C243 54 203 26 183 63 C178 75 175 88 175 100 L175 100 Z " />
<glyph glyph-name="r" unicode="r" horiz-adv-x="301" d="M108 272 L50 -4 C45 -28 65 -41 87 -41 C108 -41 131 -30 144 -11 C151 -1 162 56 165 67 C177 125 188 182 200 239 C206 270 212 302 233 329 C273 379 308 343 346 379 C353 386 359 395 361 404 C366 428 345 441 323 441 C223 441 130 370 108 272 L108 272 Z " />
<glyph glyph-name="s" unicode="s" horiz-adv-x="427" d="M308 441 C227 441 148 394 129 310 C117 251 146 198 203 188 C231 182 265 191 286 171 C299 159 304 128 300 109 C292 73 265 41 226 41 C189 41 173 63 173 98 C173 107 176 116 175 125 C174 144 156 154 137 154 C113 154 80 137 74 110 C70 92 70 75 72 58 C81 -9 131 -41 200 -41 C293 -41 381 25 401 117 C417 193 375 253 302 264 C289 265 254 264 245 268 C230 277 226 299 230 317 C239 358 261 360 295 360 C365 360 293 273 367 273 C391 273 424 289 430 317 C442 371 416 421 366 435 C348 440 328 441 308 441 L308 441 Z " />
<glyph glyph-name="t" unicode="t" horiz-adv-x="351" d="M270 541 C245 541 212 524 206 497 L194 440 L173 441 C149 441 116 424 110 397 C105 373 125 360 147 360 L177 360 L126 122 C122 103 122 83 125 66 C135 -7 187 -41 262 -41 C286 -41 320 -24 325 4 C330 23 316 36 299 40 C289 41 278 40 268 42 C261 44 253 47 247 52 C215 77 227 127 235 167 C249 231 263 295 277 360 L347 360 C371 360 405 376 411 404 C416 428 395 441 373 441 L294 441 C296 450 298 459 300 468 C308 504 318 541 270 541 L270 541 Z " />
<glyph glyph-name="u" unicode="u" horiz-adv-x="451" d="M309 41 L239 41 C145 41 181 146 194 210 C208 273 221 336 235 398 C241 426 225 441 198 441 C174 441 141 424 135 397 L76 122 C72 103 72 84 75 66 C85 -7 137 -41 212 -41 L337 -41 C361 -41 395 -24 400 4 L486 404 C491 428 470 441 448 441 C428 441 404 430 391 411 C380 394 365 304 360 280 L309 41 Z " />
<glyph glyph-name="v" unicode="v" horiz-adv-x="401" d="M236 164 C233 195 213 416 208 423 C200 435 190 441 173 441 C149 441 116 424 110 397 C107 384 149 -18 151 -22 C159 -35 170 -41 187 -41 C207 -41 224 -32 239 -17 C247 -9 458 390 461 404 C466 428 445 441 423 441 C404 441 388 433 372 419 C361 408 254 197 236 164 L236 164 Z " />
<glyph glyph-name="w" unicode="w" horiz-adv-x="601" d="M435 162 L421 295 C418 323 414 341 381 341 C342 341 327 317 311 288 L237 156 C234 189 214 415 208 423 C200 435 189 441 173 441 C149 441 116 424 110 397 C108 386 148 -17 151 -22 C159 -35 171 -41 187 -41 C226 -41 241 -17 257 12 L332 146 C335 122 347 -16 353 -25 C361 -36 372 -41 387 -41 C406 -41 425 -32 439 -17 C448 -8 658 391 661 404 C666 428 645 441 623 441 C605 441 587 433 572 419 C561 407 453 196 435 162 L435 162 Z " />
<glyph glyph-name="x" unicode="x" horiz-adv-x="451" d="M198 441 C174 441 141 424 135 397 C134 391 134 385 136 380 C146 349 160 320 172 290 C179 274 185 258 192 243 L211 196 L132 102 C115 82 54 16 50 -4 C45 -28 65 -41 87 -41 C130 -41 149 -6 174 24 L247 111 C248 108 249 105 250 102 L286 15 C292 2 295 -14 304 -26 C311 -36 324 -41 337 -41 C361 -41 395 -24 400 4 C402 10 401 15 399 20 C389 51 375 81 363 110 C350 141 337 173 324 204 L403 298 C420 318 481 384 486 404 C491 428 470 441 448 441 C406 441 387 406 361 376 L289 289 C287 292 286 295 285 298 L249 385 C244 398 240 414 231 426 C224 436 212 441 198 441 L198 441 Z " />
<glyph glyph-name="y" unicode="y" horiz-adv-x="402" d="M174 441 C150 441 117 424 111 397 C108 384 143 52 151 -11 L126 -58 C118 -74 110 -91 101 -107 C92 -122 72 -150 55 -157 C48 -160 41 -159 33 -161 C13 -165 -12 -182 -17 -204 C-22 -228 -1 -241 20 -241 C93 -241 154 -189 192 -124 C204 -103 215 -81 226 -59 L290 66 C312 109 458 385 461 404 C467 428 446 441 424 441 C406 441 386 432 372 417 C361 406 325 330 315 311 L238 160 C226 278 211 420 210 422 C201 435 193 441 174 441 L174 441 Z " />
<glyph glyph-name="z" unicode="z" horiz-adv-x="451" d="M188 41 L448 352 C460 366 482 387 486 404 C491 428 470 441 448 441 L198 441 C174 441 141 424 135 397 C127 359 170 360 197 360 L348 360 L87 48 C75 34 53 13 50 -4 C45 -28 65 -41 87 -41 L337 -41 C361 -41 395 -24 400 4 C409 41 366 41 338 41 L188 41 Z " />
<glyph glyph-name="braceleft" unicode="&#x7b;" horiz-adv-x="451" d="M265 419 C240 402 138 337 125 322 C119 315 114 306 114 297 C114 275 136 262 150 249 L215 185 L192 77 C186 49 178 21 178 -8 C178 -95 242 -141 324 -141 C349 -141 379 -124 379 -97 C379 -89 376 -81 371 -75 C347 -46 306 -75 285 -36 C280 -25 277 -12 277 0 C277 22 283 43 288 64 L308 158 C312 173 318 188 318 204 C318 210 316 216 312 222 C303 237 251 282 234 298 C256 313 337 364 349 378 C353 382 355 386 357 391 C363 406 364 422 367 437 L387 528 C394 563 397 589 418 620 C463 683 509 641 540 681 C545 687 549 695 549 704 C549 728 525 741 504 741 C411 741 339 689 306 603 C297 580 293 556 288 532 L265 419 Z " />
<glyph glyph-name="bar" unicode="&#x7c;" horiz-adv-x="202" d="M30 -104 C30 -128 54 -141 75 -141 C100 -141 112 -131 126 -112 C127 -111 154 15 155 23 C201 229 245 436 288 643 C291 657 300 690 300 704 C300 728 276 741 255 741 C230 741 218 731 204 712 C203 711 176 585 175 577 C129 371 85 164 42 -43 C39 -57 30 -90 30 -104 L30 -104 Z " />
<glyph glyph-name="braceright" unicode="&#x7d;" horiz-adv-x="451" d="M300 600 C300 579 294 558 290 538 L269 442 C266 427 260 412 260 397 C260 390 263 384 266 378 C275 364 328 318 344 302 C322 287 241 236 229 222 C225 218 223 214 221 209 C215 194 214 178 210 163 L191 72 C183 38 180 10 159 -20 C148 -35 133 -48 115 -55 C86 -65 60 -52 38 -81 C33 -87 29 -95 29 -104 C29 -128 53 -141 74 -141 C167 -141 238 -88 271 -3 C280 20 284 44 289 69 L313 181 C338 198 440 263 453 278 C459 286 464 294 464 304 C464 325 442 338 428 352 L363 415 L386 526 C392 553 399 580 399 608 C399 695 337 741 254 741 C229 741 199 724 199 697 C199 689 202 681 207 675 C231 646 272 674 292 637 C298 625 300 612 300 600 L300 600 Z " />
<glyph glyph-name="asciitilde" unicode="&#x7e;" horiz-adv-x="401" d="M200 232 C206 226 211 219 217 212 C233 194 257 185 285 185 C339 185 397 222 409 279 C414 303 393 316 372 316 C352 316 324 304 313 284 C310 279 309 273 307 268 C300 274 296 281 290 288 C273 306 249 316 222 316 C168 316 110 278 98 222 C92 198 113 185 135 185 C155 185 182 196 193 216 C196 222 197 227 200 232 L200 232 Z " />
<glyph glyph-name="uni00A0" unicode="&#xa0;" horiz-adv-x="565" d="" />
<glyph glyph-name="exclamdown" unicode="&#xa1;" horiz-adv-x="204" d="M121 322 C121 298 145 285 166 285 C188 285 210 296 218 316 C223 327 237 393 237 404 C237 428 213 441 192 441 C170 441 148 429 140 409 C136 397 121 333 121 322 L121 322 Z M9 -204 C9 -228 33 -241 54 -241 C74 -241 94 -231 104 -214 C111 -202 180 132 187 164 C190 177 195 190 195 204 C195 228 171 241 150 241 C130 241 110 231 100 214 C93 202 24 -132 17 -164 C14 -177 9 -190 9 -204 L9 -204 Z " />
<glyph glyph-name="cent" unicode="&#xa2;" horiz-adv-x="451" d="M238 41 C188 41 167 81 177 130 L209 278 C211 290 217 302 223 313 C241 345 263 360 297 360 C340 360 360 334 360 293 C360 284 357 274 357 265 C358 245 376 235 395 235 C420 235 453 251 459 279 C463 297 463 316 461 334 C453 392 418 425 366 436 C367 439 367 442 368 445 C372 464 380 484 380 504 C380 528 356 541 335 541 C281 541 280 496 271 455 C269 448 267 441 266 433 C190 414 125 349 108 272 L76 122 C72 103 72 84 75 66 C82 9 117 -24 167 -36 C166 -39 166 -42 165 -45 C161 -64 153 -84 153 -104 C153 -128 177 -141 198 -141 C252 -141 253 -96 262 -55 C263 -48 265 -41 267 -34 C344 -15 410 50 427 129 C432 153 411 166 390 166 C368 166 341 153 329 130 C325 120 323 110 319 100 C303 62 278 41 238 41 L238 41 Z " />
<glyph glyph-name="sterling" unicode="&#xa3;" horiz-adv-x="527" d="M551 384 C572 481 515 541 421 541 C342 541 270 503 228 427 C218 409 209 390 205 372 L188 291 L167 291 C143 291 110 274 104 247 C99 223 120 210 141 210 L171 210 L135 41 L114 41 C90 41 56 24 51 -4 C46 -28 66 -41 88 -41 L413 -41 C437 -41 471 -24 476 4 C481 28 461 41 439 41 L235 41 C247 97 258 153 270 210 L341 210 C365 210 399 226 405 254 C410 278 389 291 367 291 L286 291 C290 309 294 328 298 346 C309 398 328 460 394 460 C447 460 460 419 449 372 C444 348 465 335 487 335 C516 335 545 353 551 384 L551 384 Z " />
<glyph glyph-name="currency" unicode="&#xa4;" horiz-adv-x="501" d="M72 97 C72 73 96 60 117 60 C147 60 167 83 188 100 C197 107 208 114 217 123 C235 114 256 110 278 110 C300 110 322 114 343 122 C347 116 353 111 357 105 C374 83 385 60 417 60 C442 60 472 76 472 104 C472 120 458 133 448 145 C438 157 431 170 420 179 C442 206 456 240 456 275 C456 290 453 304 448 317 C464 325 478 339 491 350 C508 363 536 379 536 404 C536 428 512 441 491 441 C461 441 441 418 420 400 C411 393 400 386 391 377 C372 386 351 391 330 391 C308 391 286 386 265 377 C261 384 255 389 251 395 C234 417 223 441 191 441 C166 441 136 424 136 397 C136 380 150 367 160 355 C170 343 177 330 188 321 C166 294 152 261 152 226 C152 211 155 196 160 183 C144 175 130 162 117 150 C100 137 72 121 72 97 L72 97 Z M288 191 C264 191 251 212 251 233 C251 268 285 309 321 309 C343 309 357 289 357 268 C357 259 352 241 348 233 C337 213 312 191 288 191 L288 191 Z " />
<glyph glyph-name="yen" unicode="&#xa5;" horiz-adv-x="451" d="M179 285 L237 285 L228 241 L179 241 C154 241 121 224 115 197 C110 173 131 160 152 160 L210 160 L210 158 L187 47 C183 31 176 14 176 -4 C176 -28 200 -41 221 -41 C240 -41 260 -32 270 -16 C278 -2 286 50 290 68 L310 160 L352 160 C377 160 410 176 416 204 C421 228 400 241 379 241 L327 241 L336 285 L379 285 C403 285 437 301 442 329 C448 353 427 366 405 366 L362 366 C408 403 493 474 498 480 C503 487 507 495 507 504 C507 528 483 541 462 541 C431 541 414 519 393 502 L317 439 L276 491 C258 514 245 541 212 541 C187 541 157 524 157 497 C157 490 159 485 162 480 C165 473 222 402 252 366 L205 366 C181 366 148 349 142 322 C137 298 157 285 179 285 L179 285 Z " />
<glyph glyph-name="brokenbar" unicode="&#xa6;" horiz-adv-x="205" d="M137 397 C137 373 161 360 182 360 C203 360 225 370 234 390 C240 403 241 419 244 434 L259 504 C265 531 280 578 280 604 C280 628 256 641 235 641 C214 641 192 630 184 611 C177 597 176 581 173 566 L158 496 C152 469 137 422 137 397 L137 397 Z M52 -4 C52 -28 76 -41 97 -41 C118 -41 140 -30 149 -11 C155 3 156 19 159 34 L174 104 C180 131 195 178 195 204 C195 228 171 241 150 241 C129 241 107 230 99 211 C92 197 91 181 88 166 L73 96 C67 69 52 22 52 -4 L52 -4 Z " />
<glyph glyph-name="section" unicode="&#xa7;" horiz-adv-x="402" d="M255 484 C255 518 289 559 324 559 C348 559 360 538 360 517 C360 510 357 503 357 497 C357 473 381 460 402 460 C442 460 459 487 459 524 C459 595 402 641 334 641 C247 641 155 567 155 476 C155 447 165 422 182 403 C141 372 113 327 113 276 C113 205 171 160 242 159 C265 156 275 138 275 117 C275 82 242 41 206 41 C179 41 170 66 170 89 L171 99 C171 100 172 102 172 104 C172 128 148 141 127 141 C87 141 70 113 70 76 C70 5 128 -41 196 -41 C283 -41 374 33 374 124 C374 153 364 178 348 197 C377 220 412 264 415 303 C416 309 417 316 417 324 C417 395 359 441 288 441 C266 444 255 462 255 484 L255 484 Z M249 241 C225 241 212 262 212 283 C212 318 245 359 281 359 C309 359 317 334 317 311 L316 304 C314 297 312 290 309 283 C298 263 273 241 249 241 L249 241 Z " />
<glyph glyph-name="dieresis" unicode="&#xa8;" horiz-adv-x="354" d="M177 597 L161 522 C156 498 177 485 199 485 C223 485 256 501 262 529 L278 604 C283 628 262 641 241 641 C216 641 183 624 177 597 L177 597 Z M330 597 L314 522 C309 498 330 485 352 485 C376 485 409 501 415 529 L431 604 C436 628 415 641 394 641 C369 641 336 624 330 597 L330 597 Z " />
<glyph glyph-name="copyright" unicode="&#xa9;" horiz-adv-x="601" d="M592 201 C596 214 597 229 597 244 C597 362 505 441 390 441 C241 441 89 309 89 156 C89 38 180 -41 295 -41 C411 -41 522 35 571 138 C578 153 591 184 592 201 L592 201 Z M305 41 C234 41 188 94 188 163 C188 260 283 360 380 360 C451 360 498 305 498 237 C498 225 495 214 494 203 C492 198 491 192 490 187 C462 110 391 41 305 41 L305 41 Z M416 328 L372 328 C284 328 219 266 219 179 C219 117 266 85 324 85 L370 85 C395 85 425 102 425 129 C425 172 366 165 337 165 C332 165 328 166 323 168 C322 174 318 180 318 187 C318 196 321 205 323 213 C334 255 364 246 398 246 C424 246 461 258 461 291 C461 315 437 328 416 328 L416 328 Z " />
<glyph glyph-name="ordfeminine" unicode="&#xaa;" horiz-adv-x="326" d="M247 268 C254 263 264 260 276 260 C300 260 333 277 339 304 L382 504 C387 528 366 541 345 541 L283 541 C221 541 156 498 143 434 L127 360 C114 298 155 260 214 260 C224 260 236 263 247 268 L247 268 Z M237 340 C227 340 226 361 228 368 L243 439 C244 445 249 454 254 459 C260 460 267 460 273 460 C265 420 256 380 247 340 C244 340 241 340 237 340 L237 340 Z " />
<glyph glyph-name="guillemotleft" unicode="&#xab;" horiz-adv-x="463" d="M103 247 C101 240 102 234 104 228 C107 222 187 121 193 117 C200 112 209 110 219 110 C243 110 277 126 282 154 C284 160 283 166 281 172 C274 188 231 236 218 253 C238 270 303 319 315 335 C320 340 323 347 325 354 C330 378 309 391 288 391 C276 391 264 387 253 381 C244 376 121 275 114 267 C109 261 104 254 103 247 L103 247 Z M290 247 C289 241 289 236 290 231 C292 223 347 123 352 119 C360 113 370 110 381 110 C405 110 439 127 444 154 C449 175 410 234 399 253 C418 273 482 331 487 354 C492 378 471 391 450 391 C437 391 423 386 411 379 C402 373 307 275 298 264 C294 258 291 253 290 247 L290 247 Z " />
<glyph glyph-name="logicalnot" unicode="&#xac;" horiz-adv-x="402" d="M296 210 C293 195 287 181 287 167 C287 143 311 130 332 130 C342 130 352 132 361 137 C389 151 388 178 394 205 C397 221 404 237 404 254 C404 278 380 291 359 291 L159 291 C134 291 104 274 104 247 C104 200 177 210 206 210 L296 210 Z " />
<glyph glyph-name="registered" unicode="&#xae;" horiz-adv-x="601" d="M597 244 C597 362 505 441 390 441 C241 441 89 309 89 156 C89 38 180 -41 295 -41 C411 -41 522 35 571 138 C578 153 591 184 592 201 C596 214 597 229 597 244 L597 244 Z M421 154 C451 169 479 207 479 241 C479 294 444 321 394 321 L294 321 C283 321 273 318 264 313 C297 341 338 360 380 360 C451 360 498 305 498 237 C498 225 495 214 494 203 C492 198 491 192 490 187 C480 159 466 133 446 110 C444 129 428 138 421 154 L421 154 Z M198 111 C191 127 188 145 188 163 C188 211 210 258 245 295 C244 294 243 292 243 291 C237 279 236 265 233 253 L217 190 C213 174 201 133 198 111 L198 111 Z M329 240 L379 240 L379 236 C379 231 376 224 373 221 C365 220 357 221 350 221 C341 221 331 219 323 215 L329 240 Z M231 66 C234 65 238 65 241 65 C293 65 297 108 306 147 C322 123 356 78 361 74 C369 68 379 65 389 65 C363 50 334 41 305 41 C275 41 250 50 231 66 L231 66 Z " />
<glyph glyph-name="macron" unicode="&#xaf;" horiz-adv-x="351" d="M204 510 L354 510 C378 510 412 526 417 554 C422 578 402 591 380 591 L230 591 C206 591 172 574 167 547 C162 523 182 510 204 510 L204 510 Z " />
<glyph glyph-name="degree" unicode="&#xb0;" horiz-adv-x="301" d="M345 451 C346 455 347 459 347 464 C347 512 306 541 261 541 C205 541 145 495 145 436 C145 388 185 360 230 360 C274 360 316 384 336 423 C340 431 345 441 345 451 L345 451 Z " />
<glyph glyph-name="plusminus" unicode="&#xb1;" horiz-adv-x="401" d="M140 210 L195 210 L182 147 C176 123 197 110 219 110 C243 110 277 126 282 154 L294 210 L340 210 C364 210 398 226 404 254 C409 278 388 291 366 291 L311 291 L325 354 C330 378 309 391 288 391 C263 391 230 374 224 347 L212 291 L166 291 C142 291 109 274 103 247 C98 223 119 210 140 210 L140 210 Z M87 -41 L287 -41 C311 -41 345 -24 351 4 C356 28 335 41 313 41 L113 41 C89 41 56 24 50 -4 C45 -28 66 -41 87 -41 L87 -41 Z " />
<glyph glyph-name="twosuperior" unicode="&#xb2;" horiz-adv-x="351" d="M289 560 C310 560 315 539 311 521 C302 480 202 386 166 354 C153 342 136 331 125 317 C119 311 115 304 113 297 C108 273 129 260 151 260 L301 260 C325 260 358 276 364 304 C374 351 298 341 268 341 C316 386 399 467 412 529 C427 597 382 641 316 641 C247 641 177 593 161 522 C156 498 177 485 199 485 C209 485 220 487 231 493 C273 514 259 560 289 560 L289 560 Z " />
<glyph glyph-name="threesuperior" unicode="&#xb3;" horiz-adv-x="351" d="M226 260 C294 260 365 307 380 379 L391 429 C399 467 384 518 347 530 C350 538 410 576 416 604 C421 628 400 641 379 641 L254 641 C229 641 196 624 190 597 C181 555 235 560 263 560 C260 552 211 522 206 497 C201 475 218 462 237 460 C245 459 254 460 262 460 C287 460 295 444 290 420 L280 373 C277 360 269 341 252 341 C205 341 261 416 193 416 C169 416 135 399 129 372 C115 303 160 260 226 260 L226 260 Z " />
<glyph glyph-name="acute" unicode="&#xb4;" horiz-adv-x="276" d="M162 522 C157 498 178 485 199 485 C210 485 221 488 232 493 C242 498 335 574 343 583 C348 589 352 596 354 604 C359 628 338 641 316 641 C306 641 294 638 284 632 C274 627 181 551 173 542 C168 536 164 529 162 522 L162 522 Z " />
<glyph glyph-name="paragraph" unicode="&#xb6;" horiz-adv-x="601" d="M247 450 C247 506 290 560 348 560 L419 560 C414 535 409 513 408 510 C382 390 356 271 331 151 C324 115 316 79 308 43 C306 29 299 11 299 -4 C299 -28 323 -41 344 -41 C369 -41 381 -31 395 -12 C396 -11 416 84 418 90 C444 210 470 329 495 449 C503 485 510 521 518 557 C518 558 518 559 518 560 L569 560 L460 47 C456 31 449 14 449 -4 C449 -28 473 -41 494 -41 C515 -41 535 -31 545 -12 C547 -9 677 587 677 604 C677 628 653 641 632 641 L357 641 C248 641 148 553 148 443 C148 355 210 310 293 310 C318 310 348 326 348 354 C348 361 345 369 340 375 C314 404 275 376 255 413 C249 425 247 438 247 450 L247 450 Z " />
<glyph glyph-name="periodcentered" unicode="&#xb7;" horiz-adv-x="251" d="M160 185 C199 185 245 212 254 254 C262 292 233 316 197 316 C159 316 112 288 103 247 C95 208 125 185 160 185 L160 185 Z " />
<glyph glyph-name="cedilla" unicode="&#xb8;" horiz-adv-x="301" d="M140 -55 L130 -101 C130 -96 131 -91 131 -86 C129 -68 111 -60 93 -60 C69 -60 35 -76 29 -104 C18 -157 55 -191 106 -191 C160 -191 218 -153 230 -97 L241 -47 C252 7 215 41 164 41 C140 41 106 24 101 -4 C96 -24 110 -35 127 -39 C131 -40 135 -39 138 -41 C140 -42 140 -52 140 -55 L140 -55 Z " />
<glyph glyph-name="onesuperior" unicode="&#xb9;" horiz-adv-x="276" d="M244 560 C228 481 210 403 194 324 C192 314 189 304 188 295 C185 271 204 260 226 260 C250 260 283 277 289 304 L353 604 C358 628 337 641 316 641 L241 641 C216 641 183 624 177 597 C169 557 216 559 244 560 L244 560 Z " />
<glyph glyph-name="ordmasculine" unicode="&#xba;" horiz-adv-x="351" d="M226 260 C294 260 365 307 380 379 L412 529 C427 597 382 641 316 641 C247 641 177 593 161 522 L129 372 C115 303 160 260 226 260 L226 260 Z M230 380 C232 384 233 387 234 391 C236 401 238 412 240 422 L252 482 C254 492 256 502 258 513 C261 527 268 560 289 560 C311 560 315 538 311 520 L280 373 C277 360 269 341 252 341 C228 341 231 361 230 380 L230 380 Z " />
<glyph glyph-name="guillemotright" unicode="&#xbb;" horiz-adv-x="476" d="M364 247 C343 231 279 181 266 166 C262 160 258 153 257 147 C251 123 272 110 294 110 C305 110 317 113 329 119 C338 124 460 225 467 233 C473 239 477 246 479 254 C480 260 479 266 477 272 C474 279 394 379 389 383 C381 388 372 391 363 391 C338 391 305 374 299 347 C298 340 298 334 301 328 C307 312 350 264 364 247 L364 247 Z M169 247 C150 227 86 169 82 147 C76 123 97 110 119 110 C132 110 145 114 158 121 C167 127 262 225 270 236 C274 242 277 247 279 254 C280 259 279 264 278 269 C276 277 221 377 216 381 C209 387 199 391 188 391 C163 391 130 374 124 347 C119 325 159 267 169 247 L169 247 Z " />
<glyph glyph-name="onequarter" unicode="&#xbc;" horiz-adv-x="651" d="M649 704 C654 728 634 741 612 741 C580 741 561 723 546 694 L246 123 C229 91 132 -87 128 -104 C123 -128 144 -141 166 -141 C198 -141 217 -123 232 -94 L532 477 C549 510 646 687 649 704 L649 704 Z M244 560 C228 481 210 403 194 324 C192 314 189 304 188 295 C185 271 204 260 226 260 C250 260 283 277 289 304 L353 604 C358 628 337 641 316 641 L241 641 C216 641 183 624 177 597 C169 557 216 559 244 560 L244 560 Z M361 47 C361 23 385 10 406 10 L501 10 C501 5 500 1 500 -4 C500 -28 524 -41 545 -41 C597 -41 600 1 608 40 C609 44 610 48 611 51 C615 68 621 86 621 104 C621 128 597 141 576 141 C537 141 526 118 519 91 L484 91 L553 225 C562 243 589 286 589 304 C589 328 565 341 544 341 C527 341 511 334 500 322 C489 309 361 62 361 47 L361 47 Z " />
<glyph glyph-name="onehalf" unicode="&#xbd;" horiz-adv-x="675" d="M649 704 C654 728 634 741 612 741 C580 741 561 723 546 694 L246 123 C229 91 132 -87 128 -104 C123 -128 144 -141 166 -141 C198 -141 217 -123 232 -94 L532 477 C549 510 646 687 649 704 L649 704 Z M244 560 C228 481 210 403 194 324 C192 314 189 304 188 295 C185 271 204 260 226 260 C250 260 283 277 289 304 L353 604 C358 628 337 641 316 641 L241 641 C216 641 183 624 177 597 C169 557 216 559 244 560 L244 560 Z M550 260 C571 260 576 239 572 221 C563 180 463 86 427 54 C414 42 397 31 386 17 C380 11 376 4 374 -4 C369 -28 390 -41 412 -41 L562 -41 C586 -41 619 -24 625 4 C635 51 559 41 529 41 C577 86 660 167 673 229 C688 297 643 341 577 341 C508 341 438 293 422 222 C417 198 438 185 460 185 C470 185 481 187 492 193 C534 214 520 260 550 260 L550 260 Z " />
<glyph glyph-name="threequarters" unicode="&#xbe;" horiz-adv-x="700" d="M699 704 C704 728 684 741 662 741 C630 741 611 723 596 694 L296 123 C279 91 182 -87 178 -104 C173 -128 194 -141 216 -141 C248 -141 267 -123 282 -94 L582 477 C599 510 696 687 699 704 L699 704 Z M226 260 C294 260 365 307 380 379 L391 429 C399 467 384 518 347 530 C350 538 410 576 416 604 C421 628 400 641 379 641 L254 641 C229 641 196 624 190 597 C181 555 235 560 263 560 C260 552 211 522 206 497 C201 475 218 462 237 460 C245 459 254 460 262 460 C287 460 295 444 290 420 L280 373 C277 360 269 341 252 341 C205 341 261 416 193 416 C169 416 135 399 129 372 C115 303 160 260 226 260 L226 260 Z M410 47 C405 23 426 10 447 10 L552 10 L549 -4 C544 -28 565 -41 587 -41 C611 -41 644 -24 650 4 L660 52 C661 54 661 54 661 55 L671 104 C677 128 656 141 634 141 C610 141 576 124 571 97 L569 91 L531 91 C547 122 635 287 639 304 C644 328 623 341 602 341 C575 341 557 327 542 307 C527 281 413 58 410 47 L410 47 Z " />
<glyph glyph-name="questiondown" unicode="&#xbf;" horiz-adv-x="451" d="M245 329 C240 301 266 285 290 285 C312 285 338 298 343 322 L359 397 C365 424 338 441 314 441 C293 441 266 428 261 404 L245 329 Z M187 -160 C147 -160 132 -138 131 -100 C131 -90 134 -80 134 -70 C132 -47 110 -35 88 -35 C67 -35 40 -48 35 -72 C31 -90 31 -110 34 -127 C44 -203 100 -241 179 -241 C252 -241 319 -209 360 -138 C370 -121 378 -103 382 -85 C395 -21 378 16 335 52 C323 62 309 72 304 87 C295 112 307 152 313 180 C318 204 321 218 301 232 C293 238 283 241 272 241 C250 241 224 228 219 204 L211 166 C195 94 197 48 248 4 C260 -6 278 -18 284 -32 C289 -46 287 -62 284 -77 C276 -123 234 -160 187 -160 L187 -160 Z " />
<glyph glyph-name="Agrave" unicode="&#xc0;" horiz-adv-x="552" d="M411 660 C436 660 469 677 475 704 C476 710 475 716 473 722 C470 729 410 804 404 808 C397 813 388 816 378 816 C354 816 321 799 315 772 C314 765 314 759 317 753 C319 747 380 671 385 667 C393 662 401 660 411 660 L411 660 Z M417 641 C397 641 376 631 362 614 C350 600 342 578 335 562 L276 445 C202 299 125 153 54 5 C52 2 51 -1 51 -4 C46 -28 66 -41 88 -41 C107 -41 125 -32 140 -17 C143 -14 159 16 181 58 L393 59 C397 13 401 -19 402 -22 C410 -35 421 -41 438 -41 C462 -41 496 -24 501 4 C506 24 462 515 459 561 C458 576 458 606 454 619 C448 634 434 641 417 641 L417 641 Z M223 141 C281 255 350 395 365 425 C368 396 378 256 387 140 L223 141 Z " />
<glyph glyph-name="Aacute" unicode="&#xc1;" horiz-adv-x="552" d="M374 697 C369 673 390 660 411 660 C422 660 433 663 444 668 C454 673 547 749 555 758 C560 764 564 771 566 779 C571 803 550 816 528 816 C518 816 506 813 496 807 C486 802 393 726 385 717 C380 711 376 704 374 697 L374 697 Z M417 641 C397 641 376 631 362 614 C350 600 342 578 335 562 L276 445 C202 299 125 153 54 5 C52 2 51 -1 51 -4 C46 -28 66 -41 88 -41 C107 -41 125 -32 140 -17 C143 -14 159 16 181 58 L393 59 C397 13 401 -19 402 -22 C410 -35 421 -41 438 -41 C462 -41 496 -24 501 4 C506 24 462 515 459 561 C458 576 458 606 454 619 C448 634 434 641 417 641 L417 641 Z M223 141 C281 255 350 395 365 425 C368 396 378 256 387 140 L223 141 Z " />
<glyph glyph-name="Acircumflex" unicode="&#xc2;" horiz-adv-x="552" d="M424 711 C440 690 455 660 487 660 C511 660 544 677 550 704 C551 710 551 716 548 722 C546 728 485 804 480 808 C472 813 463 816 454 816 C443 816 432 813 421 807 C411 802 318 726 310 717 C305 711 301 704 299 697 C294 673 315 660 337 660 C371 660 398 689 424 711 L424 711 Z M417 641 C397 641 376 631 362 614 C350 600 342 578 335 562 L276 445 C202 299 125 153 54 5 C52 2 51 -1 51 -4 C46 -28 66 -41 88 -41 C107 -41 125 -32 140 -17 C143 -14 159 16 181 58 L393 59 C397 13 401 -19 402 -22 C410 -35 421 -41 438 -41 C462 -41 496 -24 501 4 C506 24 462 515 459 561 C458 576 458 606 454 619 C448 634 434 641 417 641 L417 641 Z M223 141 C281 255 350 395 365 425 C368 396 378 256 387 140 L223 141 Z " />
<glyph glyph-name="Atilde" unicode="&#xc3;" horiz-adv-x="552" d="M483 743 C477 749 472 756 467 763 C450 781 426 791 398 791 C345 791 286 753 274 697 C269 673 290 660 312 660 C331 660 359 671 370 691 C373 697 374 702 376 707 C383 701 388 694 393 687 C410 669 434 660 462 660 C515 660 574 697 586 754 C591 778 570 791 548 791 C529 791 501 779 490 759 C487 754 486 748 483 743 L483 743 Z M417 641 C397 641 376 631 362 614 C350 600 342 578 335 562 L276 445 C202 299 125 153 54 5 C52 2 51 -1 51 -4 C46 -28 66 -41 88 -41 C107 -41 125 -32 140 -17 C143 -14 159 16 181 58 L393 59 C397 13 401 -19 402 -22 C410 -35 421 -41 438 -41 C462 -41 496 -24 501 4 C506 24 462 515 459 561 C458 576 458 606 454 619 C448 634 434 641 417 641 L417 641 Z M223 141 C281 255 350 395 365 425 C368 396 378 256 387 140 L223 141 Z " />
<glyph glyph-name="Adieresis" unicode="&#xc4;" horiz-adv-x="502" d="M302 772 L286 697 C281 673 302 660 324 660 C348 660 381 676 387 704 L403 779 C408 803 387 816 366 816 C341 816 308 799 302 772 L302 772 Z M455 772 L439 697 C434 673 455 660 477 660 C501 660 534 676 540 704 L556 779 C561 803 540 816 519 816 C494 816 461 799 455 772 L455 772 Z M392 641 C372 641 351 631 337 614 C325 600 317 578 310 562 L251 445 C177 299 100 153 29 5 C27 2 26 -1 26 -4 C21 -28 41 -41 63 -41 C82 -41 100 -32 115 -17 C118 -14 134 16 156 58 L368 59 C372 13 376 -19 377 -22 C385 -35 396 -41 413 -41 C437 -41 471 -24 476 4 C481 24 437 515 434 561 C433 576 433 606 429 619 C423 634 409 641 392 641 L392 641 Z M198 141 C256 255 325 395 340 425 C343 396 353 256 362 140 L198 141 Z " />
<glyph glyph-name="Aring" unicode="&#xc5;" horiz-adv-x="552" d="M552 702 C566 769 519 816 454 816 C386 816 313 765 298 695 C287 646 310 608 348 591 C343 581 339 571 335 562 L276 445 C202 299 125 153 54 5 C52 2 51 -1 51 -4 C46 -28 66 -41 88 -41 C107 -41 125 -32 140 -17 C143 -14 159 16 181 58 L393 59 C397 13 401 -19 402 -22 C410 -35 421 -41 438 -41 C462 -41 496 -24 501 4 C506 24 462 515 459 561 C458 570 458 583 457 595 C502 614 541 653 552 702 L552 702 Z M421 662 C419 663 417 663 416 664 C401 668 395 686 399 702 C401 714 413 734 427 734 C447 734 455 712 451 694 C447 679 437 664 421 662 L421 662 Z M223 141 C281 255 350 395 365 425 C368 396 378 256 387 140 L223 141 Z " />
<glyph glyph-name="AE" unicode="&#xc6;" horiz-adv-x="702" d="M463 -41 L588 -41 C612 -41 646 -24 651 4 C659 38 623 41 597 41 C590 41 583 41 576 41 L534 40 C527 40 520 40 513 40 C498 40 481 39 466 43 C440 50 426 75 425 102 C424 107 425 113 425 118 C427 147 434 253 440 360 L573 360 C597 360 631 376 636 404 C642 428 621 441 599 441 L445 441 C448 487 450 529 452 560 L715 560 C740 560 773 576 779 604 C784 628 763 641 742 641 L417 641 C395 641 370 629 359 610 C348 595 342 577 335 562 L276 445 C202 299 125 153 54 5 C52 2 51 -1 51 -4 C46 -28 66 -41 88 -41 C107 -41 126 -32 140 -17 C144 -13 160 17 182 59 L325 60 C339 -11 395 -41 463 -41 L463 -41 Z M223 141 C271 237 326 347 339 374 L328 188 C328 180 326 160 324 141 L223 141 Z " />
<glyph glyph-name="Ccedilla" unicode="&#xc7;" horiz-adv-x="551" d="M416 641 C316 641 224 593 170 496 C157 472 145 447 140 422 L87 172 C82 146 82 121 85 97 C97 4 165 -40 262 -41 C264 -42 264 -52 264 -55 L254 -101 C254 -96 255 -91 255 -86 C253 -68 235 -60 217 -60 C193 -60 159 -76 153 -104 C142 -157 179 -191 230 -191 C284 -191 342 -153 354 -97 L365 -47 C367 -38 367 -29 367 -21 C451 12 518 91 538 179 C543 203 522 216 500 216 C478 216 452 203 440 180 C433 167 431 152 425 138 C399 76 353 41 288 41 C227 41 194 69 187 127 C184 143 184 162 188 180 L241 428 C244 446 252 464 262 480 C292 535 332 560 389 560 C458 560 492 521 493 455 C493 432 482 405 502 392 C509 387 518 385 527 385 C552 385 585 401 591 429 C596 454 596 479 593 503 C580 597 512 641 416 641 L416 641 Z " />
<glyph glyph-name="Egrave" unicode="&#xc8;" horiz-adv-x="501" d="M385 660 C410 660 443 677 449 704 C450 710 449 716 447 722 C444 729 384 804 378 808 C371 813 362 816 352 816 C328 816 295 799 289 772 C288 765 288 759 291 753 C293 747 354 671 359 667 C367 662 375 660 385 660 L385 660 Z M541 641 L241 641 C216 641 183 624 177 597 L66 72 C51 3 96 -41 162 -41 L387 -41 C411 -41 445 -24 450 4 C458 38 420 42 393 42 C330 42 266 40 203 40 C174 40 160 48 167 80 L226 360 L347 360 C371 360 405 376 410 404 C416 428 395 441 373 441 L243 441 L269 560 C287 560 305 559 324 559 L434 559 C453 559 471 559 490 559 C523 559 570 564 578 604 C583 628 562 641 541 641 L541 641 Z " />
<glyph glyph-name="Eacute" unicode="&#xc9;" horiz-adv-x="501" d="M348 697 C343 673 364 660 385 660 C396 660 407 663 418 668 C428 673 521 749 529 758 C534 764 538 771 540 779 C545 803 524 816 502 816 C492 816 480 813 470 807 C460 802 367 726 359 717 C354 711 350 704 348 697 L348 697 Z M541 641 L241 641 C216 641 183 624 177 597 L66 72 C51 3 96 -41 162 -41 L387 -41 C411 -41 445 -24 450 4 C458 38 420 42 393 42 C330 42 266 40 203 40 C174 40 160 48 167 80 L226 360 L347 360 C371 360 405 376 410 404 C416 428 395 441 373 441 L243 441 L269 560 C287 560 305 559 324 559 L434 559 C453 559 471 559 490 559 C523 559 570 564 578 604 C583 628 562 641 541 641 L541 641 Z " />
<glyph glyph-name="Ecircumflex" unicode="&#xca;" horiz-adv-x="501" d="M398 711 C414 690 429 660 461 660 C485 660 518 677 524 704 C525 710 525 716 522 722 C520 728 459 804 454 808 C446 813 437 816 428 816 C417 816 406 813 395 807 C385 802 292 726 284 717 C279 711 275 704 273 697 C268 673 289 660 311 660 C345 660 372 689 398 711 L398 711 Z M541 641 L241 641 C216 641 183 624 177 597 L66 72 C51 3 96 -41 162 -41 L387 -41 C411 -41 445 -24 450 4 C458 38 420 42 393 42 C330 42 266 40 203 40 C174 40 160 48 167 80 L226 360 L347 360 C371 360 405 376 410 404 C416 428 395 441 373 441 L243 441 L269 560 C287 560 305 559 324 559 L434 559 C453 559 471 559 490 559 C523 559 570 564 578 604 C583 628 562 641 541 641 L541 641 Z " />
<glyph glyph-name="Edieresis" unicode="&#xcb;" horiz-adv-x="501" d="M300 772 L284 697 C279 673 300 660 322 660 C346 660 379 676 385 704 L401 779 C406 803 385 816 364 816 C339 816 306 799 300 772 L300 772 Z M453 772 L437 697 C432 673 453 660 475 660 C499 660 532 676 538 704 L554 779 C559 803 538 816 517 816 C492 816 459 799 453 772 L453 772 Z M541 641 L241 641 C216 641 183 624 177 597 L66 72 C51 3 96 -41 162 -41 L387 -41 C411 -41 445 -24 450 4 C458 38 420 42 393 42 C330 42 266 40 203 40 C174 40 160 48 167 80 L226 360 L347 360 C371 360 405 376 410 404 C416 428 395 441 373 441 L243 441 L269 560 C287 560 305 559 324 559 L434 559 C453 559 471 559 490 559 C523 559 570 564 578 604 C583 628 562 641 541 641 L541 641 Z " />
<glyph glyph-name="Igrave" unicode="&#xcc;" horiz-adv-x="202" d="M236 660 C261 660 294 677 300 704 C301 710 300 716 298 722 C295 729 235 804 229 808 C222 813 213 816 203 816 C179 816 146 799 140 772 C139 765 139 759 142 753 C144 747 205 671 210 667 C218 662 226 660 236 660 L236 660 Z M151 4 L279 604 C284 628 263 641 242 641 C217 641 184 624 178 597 L51 -4 C46 -28 66 -41 88 -41 C112 -41 146 -24 151 4 L151 4 Z " />
<glyph glyph-name="Iacute" unicode="&#xcd;" horiz-adv-x="202" d="M199 697 C194 673 215 660 236 660 C247 660 258 663 269 668 C279 673 372 749 380 758 C385 764 389 771 391 779 C396 803 375 816 353 816 C343 816 331 813 321 807 C311 802 218 726 210 717 C205 711 201 704 199 697 L199 697 Z M151 4 L279 604 C284 628 263 641 242 641 C217 641 184 624 178 597 L51 -4 C46 -28 66 -41 88 -41 C112 -41 146 -24 151 4 L151 4 Z " />
<glyph glyph-name="Icircumflex" unicode="&#xce;" horiz-adv-x="202" d="M249 711 C265 690 280 660 312 660 C336 660 369 677 375 704 C376 710 376 716 373 722 C371 728 310 804 305 808 C297 813 288 816 279 816 C268 816 257 813 246 807 C236 802 143 726 135 717 C130 711 126 704 124 697 C119 673 140 660 162 660 C196 660 223 689 249 711 L249 711 Z M151 4 L279 604 C284 628 263 641 242 641 C217 641 184 624 178 597 L51 -4 C46 -28 66 -41 88 -41 C112 -41 146 -24 151 4 L151 4 Z " />
<glyph glyph-name="Idieresis" unicode="&#xcf;" horiz-adv-x="202" d="M150 772 L134 697 C129 673 150 660 172 660 C196 660 229 676 235 704 L251 779 C256 803 235 816 214 816 C189 816 156 799 150 772 L150 772 Z M303 772 L287 697 C282 673 303 660 325 660 C349 660 382 676 388 704 L404 779 C409 803 388 816 367 816 C342 816 309 799 303 772 L303 772 Z M151 4 L279 604 C284 628 263 641 242 641 C217 641 184 624 178 597 L51 -4 C46 -28 66 -41 88 -41 C112 -41 146 -24 151 4 L151 4 Z " />
<glyph glyph-name="Eth" unicode="&#xd0;" horiz-adv-x="601" d="M262 -41 L311 -41 C397 -41 483 -10 541 69 C560 94 576 126 582 154 L641 429 C646 453 646 480 643 503 C630 597 563 641 466 641 L291 641 C266 641 233 624 227 597 L194 440 C170 439 140 422 135 397 C130 373 151 360 172 360 L177 360 L100 -4 C95 -28 115 -41 137 -41 C158 -41 183 -29 195 -9 C203 3 209 46 213 62 L276 359 L372 360 C396 360 430 376 436 404 C441 428 420 441 398 441 L293 441 L319 560 L439 560 C500 560 533 532 541 474 C543 457 544 439 540 421 L482 147 C478 129 467 109 455 93 C415 39 368 41 314 41 C285 41 233 37 225 -4 C220 -28 240 -41 262 -41 L262 -41 Z " />
<glyph glyph-name="Ntilde" unicode="&#xd1;" horiz-adv-x="552" d="M483 743 C477 749 472 756 467 763 C450 781 426 791 398 791 C345 791 286 753 274 697 C269 673 290 660 312 660 C331 660 359 671 370 691 C373 697 374 702 376 707 C383 701 388 694 393 687 C410 669 434 660 462 660 C515 660 574 697 586 754 C591 778 570 791 548 791 C529 791 501 779 490 759 C487 754 486 748 483 743 L483 743 Z M242 641 C217 641 184 624 178 597 L51 -4 C46 -28 66 -41 88 -41 C109 -41 135 -29 146 -9 C154 4 159 41 163 57 L259 508 L464 336 C467 333 469 331 471 329 L401 -4 C396 -28 416 -41 438 -41 C462 -41 496 -24 501 4 L576 353 C576 354 576 354 576 354 L629 604 C634 628 613 641 592 641 C567 641 534 624 528 597 L495 442 L314 594 C298 608 284 623 266 634 C259 638 251 641 242 641 L242 641 Z " />
<glyph glyph-name="Ograve" unicode="&#xd2;" horiz-adv-x="551" d="M410 660 C435 660 468 677 474 704 C475 710 474 716 472 722 C469 729 409 804 403 808 C396 813 387 816 377 816 C353 816 320 799 314 772 C313 765 313 759 316 753 C318 747 379 671 384 667 C392 662 400 660 410 660 L410 660 Z M538 179 L591 429 C596 454 596 479 593 503 C580 597 512 641 416 641 C316 641 224 593 170 496 C157 472 145 447 140 422 L87 172 C82 146 82 121 85 97 C98 4 165 -41 262 -41 C394 -41 508 51 538 179 L538 179 Z M438 176 C433 163 431 151 425 138 C399 76 353 41 288 41 C227 41 194 69 187 127 C184 143 184 162 188 180 L241 428 C244 446 252 464 262 480 C292 535 332 560 389 560 C486 560 504 485 486 400 C471 330 455 261 441 192 C439 186 438 181 438 176 L438 176 Z " />
<glyph glyph-name="Oacute" unicode="&#xd3;" horiz-adv-x="551" d="M373 697 C368 673 389 660 410 660 C421 660 432 663 443 668 C453 673 546 749 554 758 C559 764 563 771 565 779 C570 803 549 816 527 816 C517 816 505 813 495 807 C485 802 392 726 384 717 C379 711 375 704 373 697 L373 697 Z M538 179 L591 429 C596 454 596 479 593 503 C580 597 512 641 416 641 C316 641 224 593 170 496 C157 472 145 447 140 422 L87 172 C82 146 82 121 85 97 C98 4 165 -41 262 -41 C394 -41 508 51 538 179 L538 179 Z M438 176 C433 163 431 151 425 138 C399 76 353 41 288 41 C227 41 194 69 187 127 C184 143 184 162 188 180 L241 428 C244 446 252 464 262 480 C292 535 332 560 389 560 C486 560 504 485 486 400 C471 330 455 261 441 192 C439 186 438 181 438 176 L438 176 Z " />
<glyph glyph-name="Ocircumflex" unicode="&#xd4;" horiz-adv-x="551" d="M423 711 C439 690 454 660 486 660 C510 660 543 677 549 704 C550 710 550 716 547 722 C545 728 484 804 479 808 C471 813 462 816 453 816 C442 816 431 813 420 807 C410 802 317 726 309 717 C304 711 300 704 298 697 C293 673 314 660 336 660 C370 660 397 689 423 711 L423 711 Z M538 179 L591 429 C596 454 596 479 593 503 C580 597 512 641 416 641 C316 641 224 593 170 496 C157 472 145 447 140 422 L87 172 C82 146 82 121 85 97 C98 4 165 -41 262 -41 C394 -41 508 51 538 179 L538 179 Z M438 176 C433 163 431 151 425 138 C399 76 353 41 288 41 C227 41 194 69 187 127 C184 143 184 162 188 180 L241 428 C244 446 252 464 262 480 C292 535 332 560 389 560 C486 560 504 485 486 400 C471 330 455 261 441 192 C439 186 438 181 438 176 L438 176 Z " />
<glyph glyph-name="Otilde" unicode="&#xd5;" horiz-adv-x="551" d="M482 743 C476 749 471 756 466 763 C449 781 425 791 397 791 C344 791 285 753 273 697 C268 673 289 660 311 660 C330 660 358 671 369 691 C372 697 373 702 375 707 C382 701 387 694 392 687 C409 669 433 660 461 660 C514 660 573 697 585 754 C590 778 569 791 547 791 C528 791 500 779 489 759 C486 754 485 748 482 743 L482 743 Z M538 179 L591 429 C596 454 596 479 593 503 C580 597 512 641 416 641 C316 641 224 593 170 496 C157 472 145 447 140 422 L87 172 C82 146 82 121 85 97 C98 4 165 -41 262 -41 C394 -41 508 51 538 179 L538 179 Z M438 176 C433 163 431 151 425 138 C399 76 353 41 288 41 C227 41 194 69 187 127 C184 143 184 162 188 180 L241 428 C244 446 252 464 262 480 C292 535 332 560 389 560 C486 560 504 485 486 400 C471 330 455 261 441 192 C439 186 438 181 438 176 L438 176 Z " />
<glyph glyph-name="Odieresis" unicode="&#xd6;" horiz-adv-x="551" d="M339 772 L323 697 C318 673 339 660 361 660 C385 660 418 676 424 704 L440 779 C445 803 424 816 403 816 C378 816 345 799 339 772 L339 772 Z M492 772 L476 697 C471 673 492 660 514 660 C538 660 571 676 577 704 L593 779 C598 803 577 816 556 816 C531 816 498 799 492 772 L492 772 Z M538 179 L591 429 C596 454 596 479 593 503 C580 597 512 641 416 641 C316 641 224 593 170 496 C157 472 145 447 140 422 L87 172 C82 146 82 121 85 97 C98 4 165 -41 262 -41 C394 -41 508 51 538 179 L538 179 Z M438 176 C433 163 431 151 425 138 C399 76 353 41 288 41 C227 41 194 69 187 127 C184 143 184 162 188 180 L241 428 C244 446 252 464 262 480 C292 535 332 560 389 560 C486 560 504 485 486 400 C471 330 455 261 441 192 C439 186 438 181 438 176 L438 176 Z " />
<glyph glyph-name="multiply" unicode="&#xd7;" horiz-adv-x="402" d="M425 354 C425 378 401 391 380 391 C348 391 327 365 305 347 L266 315 C237 350 214 378 212 380 C202 387 192 391 180 391 C155 391 125 374 125 347 C125 339 127 334 131 328 C134 323 160 290 190 252 L136 207 C118 192 83 172 83 147 C83 123 107 110 128 110 C160 110 181 135 204 153 L242 185 C271 150 294 122 296 120 C306 113 316 110 328 110 C353 110 383 126 383 154 C383 161 381 166 377 172 C374 177 348 210 318 248 L373 293 C391 308 425 328 425 354 L425 354 Z " />
<glyph glyph-name="Oslash" unicode="&#xd8;" horiz-adv-x="551" d="M538 179 L591 429 C596 454 596 479 593 503 C587 544 571 576 546 598 C573 648 597 695 599 704 C604 728 584 741 562 741 C530 741 511 723 496 694 L465 636 C450 639 433 641 416 641 C316 641 224 593 170 496 C157 472 145 447 140 422 L87 172 C82 146 82 121 85 97 C91 56 107 24 131 2 C105 -48 80 -95 78 -104 C73 -128 94 -141 116 -141 C148 -141 167 -123 182 -94 L212 -36 C228 -39 244 -41 262 -41 C394 -41 508 51 538 179 L538 179 Z M192 115 C188 116 187 121 187 127 C184 143 184 162 188 180 L241 428 C244 446 252 464 262 480 C292 535 332 560 389 560 C402 560 413 558 423 556 L196 123 C195 121 193 118 192 115 L192 115 Z M254 44 L482 477 C483 479 484 482 486 485 C495 464 493 432 486 400 C471 330 455 261 441 192 C439 186 438 181 438 176 C433 163 431 151 425 138 C399 76 353 41 288 41 C276 41 265 42 254 44 L254 44 Z " />
<glyph glyph-name="Ugrave" unicode="&#xd9;" horiz-adv-x="551" d="M410 660 C435 660 468 677 474 704 C475 710 474 716 472 722 C469 729 409 804 403 808 C396 813 387 816 377 816 C353 816 320 799 314 772 C313 765 313 759 316 753 C318 747 379 671 384 667 C392 662 400 660 410 660 L410 660 Z M177 597 L87 172 C82 147 82 120 85 97 C98 4 165 -41 262 -41 C396 -41 507 50 538 179 L628 604 C633 628 612 641 591 641 C559 641 532 620 525 588 C496 454 469 321 441 187 C424 108 377 41 288 41 C214 41 182 86 185 157 C186 178 192 200 197 222 L216 310 C236 406 257 501 277 596 C283 625 269 641 241 641 C216 641 183 624 177 597 L177 597 Z " />
<glyph glyph-name="Uacute" unicode="&#xda;" horiz-adv-x="551" d="M373 697 C368 673 389 660 410 660 C421 660 432 663 443 668 C453 673 546 749 554 758 C559 764 563 771 565 779 C570 803 549 816 527 816 C517 816 505 813 495 807 C485 802 392 726 384 717 C379 711 375 704 373 697 L373 697 Z M177 597 L87 172 C82 147 82 120 85 97 C98 4 165 -41 262 -41 C396 -41 507 50 538 179 L628 604 C633 628 612 641 591 641 C559 641 532 620 525 588 C496 454 469 321 441 187 C424 108 377 41 288 41 C214 41 182 86 185 157 C186 178 192 200 197 222 L216 310 C236 406 257 501 277 596 C283 625 269 641 241 641 C216 641 183 624 177 597 L177 597 Z " />
<glyph glyph-name="Ucircumflex" unicode="&#xdb;" horiz-adv-x="551" d="M423 711 C439 690 454 660 486 660 C510 660 543 677 549 704 C550 710 550 716 547 722 C545 728 484 804 479 808 C471 813 462 816 453 816 C442 816 431 813 420 807 C410 802 317 726 309 717 C304 711 300 704 298 697 C293 673 314 660 336 660 C370 660 397 689 423 711 L423 711 Z M177 597 L87 172 C82 147 82 120 85 97 C98 4 165 -41 262 -41 C396 -41 507 50 538 179 L628 604 C633 628 612 641 591 641 C559 641 532 620 525 588 C496 454 469 321 441 187 C424 108 377 41 288 41 C214 41 182 86 185 157 C186 178 192 200 197 222 L216 310 C236 406 257 501 277 596 C283 625 269 641 241 641 C216 641 183 624 177 597 L177 597 Z " />
<glyph glyph-name="Udieresis" unicode="&#xdc;" horiz-adv-x="551" d="M339 772 L323 697 C318 673 339 660 361 660 C385 660 418 676 424 704 L440 779 C445 803 424 816 403 816 C378 816 345 799 339 772 L339 772 Z M492 772 L476 697 C471 673 492 660 514 660 C538 660 571 676 577 704 L593 779 C598 803 577 816 556 816 C531 816 498 799 492 772 L492 772 Z M177 597 L87 172 C82 147 82 120 85 97 C98 4 165 -41 262 -41 C396 -41 507 50 538 179 L628 604 C633 628 612 641 591 641 C559 641 532 620 525 588 C496 454 469 321 441 187 C424 108 377 41 288 41 C214 41 182 86 185 157 C186 178 192 200 197 222 L216 310 C236 406 257 501 277 596 C283 625 269 641 241 641 C216 641 183 624 177 597 L177 597 Z " />
<glyph glyph-name="Yacute" unicode="&#xdd;" horiz-adv-x="545" d="M373 697 C368 673 389 660 410 660 C421 660 432 663 443 668 C453 673 546 749 554 758 C559 764 563 771 565 779 C570 803 549 816 527 816 C517 816 505 813 495 807 C485 802 392 726 384 717 C379 711 375 704 373 697 L373 697 Z M377 470 L303 582 C287 606 276 641 241 641 C216 641 183 624 177 597 C176 590 177 584 179 578 C184 566 275 427 307 383 L225 -4 C220 -28 240 -41 262 -41 C286 -41 320 -24 325 4 L407 389 C415 397 423 405 432 413 L582 555 C592 564 602 573 611 583 C616 589 620 596 622 604 C627 628 606 641 585 641 C545 641 520 606 492 579 L377 470 Z " />
<glyph glyph-name="Thorn" unicode="&#xde;" horiz-adv-x="451" d="M234 60 C355 60 431 128 454 245 C458 266 462 286 462 308 C462 395 400 441 317 441 L245 441 C245 442 246 443 246 445 C250 464 258 484 258 504 C258 528 234 541 213 541 C159 541 158 496 149 455 C145 436 138 416 137 397 C119 320 52 2 52 -4 C52 -28 76 -41 97 -41 C116 -41 136 -32 146 -16 C155 -1 171 91 176 115 L228 360 L307 360 C347 360 363 339 363 300 C363 285 360 270 357 255 C346 206 325 148 267 141 C258 140 248 141 239 141 C212 141 174 131 174 97 C174 64 208 60 234 60 L234 60 Z " />
<glyph glyph-name="germandbls" unicode="&#xdf;" horiz-adv-x="625" d="M626 269 C626 357 575 421 488 436 L595 535 C613 551 653 578 653 604 C653 628 629 641 608 641 L433 641 C307 641 240 554 218 441 L190 441 C165 441 135 424 135 397 C135 373 159 360 180 360 L202 360 L139 66 C135 43 125 19 125 -4 C125 -28 149 -41 170 -41 C189 -41 207 -32 218 -17 C227 -5 236 52 239 70 L308 394 C309 395 309 397 309 399 L316 431 C319 445 321 460 326 474 C340 522 371 560 424 560 L496 560 L392 464 C374 448 335 422 335 397 C335 351 400 359 429 359 C494 359 527 328 527 261 C527 241 523 221 518 202 C505 140 477 79 415 52 C382 38 356 42 322 42 C294 42 250 33 250 -4 C250 -39 289 -41 315 -41 C356 -41 398 -39 437 -26 C539 9 595 95 616 195 C621 219 626 244 626 269 L626 269 Z " />
<glyph glyph-name="agrave" unicode="&#xe0;" horiz-adv-x="451" d="M386 485 C411 485 444 502 450 529 C451 535 450 541 448 547 C445 554 385 629 379 633 C372 638 363 641 353 641 C329 641 296 624 290 597 C289 590 289 584 292 578 C294 572 355 496 360 492 C368 487 376 485 386 485 L386 485 Z M178 130 L209 278 C212 290 217 302 224 313 C242 346 264 360 298 360 L377 360 C355 252 331 144 308 36 C300 -1 287 -41 337 -41 C362 -41 395 -24 401 4 L486 404 C491 428 470 441 449 441 L324 441 C224 441 131 371 109 272 L77 122 C73 103 73 84 75 66 C85 -7 138 -41 212 -41 C237 -41 270 -24 276 4 C280 24 265 37 247 40 C240 41 232 41 225 41 C199 45 184 61 179 85 C175 99 175 114 178 130 L178 130 Z " />
<glyph glyph-name="aacute" unicode="&#xe1;" horiz-adv-x="451" d="M315 522 C310 498 331 485 352 485 C363 485 374 488 385 493 C395 498 488 574 496 583 C501 589 505 596 507 604 C512 628 491 641 469 641 C459 641 447 638 437 632 C427 627 334 551 326 542 C321 536 317 529 315 522 L315 522 Z M178 130 L209 278 C212 290 217 302 224 313 C242 346 264 360 298 360 L377 360 C355 252 331 144 308 36 C300 -1 287 -41 337 -41 C362 -41 395 -24 401 4 L486 404 C491 428 470 441 449 441 L324 441 C224 441 131 371 109 272 L77 122 C73 103 73 84 75 66 C85 -7 138 -41 212 -41 C237 -41 270 -24 276 4 C280 24 265 37 247 40 C240 41 232 41 225 41 C199 45 184 61 179 85 C175 99 175 114 178 130 L178 130 Z " />
<glyph glyph-name="acircumflex" unicode="&#xe2;" horiz-adv-x="451" d="M362 536 C378 515 393 485 425 485 C449 485 482 502 488 529 C489 535 489 541 486 547 C484 553 423 629 418 633 C410 638 401 641 392 641 C381 641 370 638 359 632 C349 627 256 551 248 542 C243 536 239 529 237 522 C232 498 253 485 275 485 C309 485 336 514 362 536 L362 536 Z M178 130 L209 278 C212 290 217 302 224 313 C242 346 264 360 298 360 L377 360 C355 252 331 144 308 36 C300 -1 287 -41 337 -41 C362 -41 395 -24 401 4 L486 404 C491 428 470 441 449 441 L324 441 C224 441 131 371 109 272 L77 122 C73 103 73 84 75 66 C85 -7 138 -41 212 -41 C237 -41 270 -24 276 4 C280 24 265 37 247 40 C240 41 232 41 225 41 C199 45 184 61 179 85 C175 99 175 114 178 130 L178 130 Z " />
<glyph glyph-name="atilde" unicode="&#xe3;" horiz-adv-x="451" d="M421 568 C415 574 410 581 405 588 C388 606 364 616 336 616 C283 616 224 578 212 522 C207 498 228 485 250 485 C269 485 297 496 308 516 C311 522 312 527 314 532 C321 526 326 519 331 512 C348 494 372 485 400 485 C453 485 512 522 524 579 C529 603 508 616 486 616 C467 616 439 604 428 584 C425 579 424 573 421 568 L421 568 Z M178 130 L209 278 C212 290 217 302 224 313 C242 346 264 360 298 360 L377 360 C355 252 331 144 308 36 C300 -1 287 -41 337 -41 C362 -41 395 -24 401 4 L486 404 C491 428 470 441 449 441 L324 441 C224 441 131 371 109 272 L77 122 C73 103 73 84 75 66 C85 -7 138 -41 212 -41 C237 -41 270 -24 276 4 C280 24 265 37 247 40 C240 41 232 41 225 41 C199 45 184 61 179 85 C175 99 175 114 178 130 L178 130 Z " />
<glyph glyph-name="adieresis" unicode="&#xe4;" horiz-adv-x="451" d="M264 597 L248 522 C243 498 264 485 286 485 C310 485 343 501 349 529 L365 604 C370 628 349 641 328 641 C303 641 270 624 264 597 L264 597 Z M417 597 L401 522 C396 498 417 485 439 485 C463 485 496 501 502 529 L518 604 C523 628 502 641 481 641 C456 641 423 624 417 597 L417 597 Z M178 130 L209 278 C212 290 217 302 224 313 C242 346 264 360 298 360 L377 360 C355 252 331 144 308 36 C300 -1 287 -41 337 -41 C362 -41 395 -24 401 4 L486 404 C491 428 470 441 449 441 L324 441 C224 441 131 371 109 272 L77 122 C73 103 73 84 75 66 C85 -7 138 -41 212 -41 C237 -41 270 -24 276 4 C280 24 265 37 247 40 C240 41 232 41 225 41 C199 45 184 61 179 85 C175 99 175 114 178 130 L178 130 Z " />
<glyph glyph-name="aring" unicode="&#xe5;" horiz-adv-x="451" d="M178 130 L209 278 C212 290 217 302 224 313 C242 346 264 360 298 360 L377 360 C355 252 331 144 308 36 C300 -1 287 -41 337 -41 C362 -41 395 -24 401 4 L486 404 C491 428 470 441 449 441 L432 441 C461 462 483 492 491 527 C505 594 458 641 393 641 C325 641 252 590 237 520 C229 483 240 452 262 432 C189 411 126 347 109 272 L77 122 C73 103 73 84 75 66 C85 -7 138 -41 212 -41 C237 -41 270 -24 276 4 C280 24 265 37 247 40 C240 41 232 41 225 41 C199 45 184 61 179 85 C175 99 175 114 178 130 L178 130 Z M360 487 C358 488 356 488 355 489 C340 493 334 511 338 527 C340 539 352 559 366 559 C386 559 394 537 390 519 C386 504 376 489 360 487 L360 487 Z " />
<glyph glyph-name="ae" unicode="&#xe6;" horiz-adv-x="700" d="M615 304 C607 267 579 240 542 240 C521 240 502 243 483 225 C477 219 472 211 471 204 C464 171 497 160 525 160 C589 160 645 175 687 238 C699 256 708 276 713 297 C717 317 716 338 712 356 C697 420 645 441 579 441 C544 441 512 436 482 425 C476 435 462 441 448 441 L323 441 C223 441 130 370 108 272 L76 122 C71 98 72 73 77 52 C96 -24 155 -41 232 -41 C258 -41 294 -27 300 4 C308 40 269 41 243 41 C210 41 191 48 180 78 C175 92 174 113 177 130 L209 278 C211 290 217 302 223 313 C241 346 263 360 298 360 L377 360 C371 333 365 306 359 280 C359 277 358 274 358 271 L328 129 C324 110 324 90 326 73 C337 -3 392 -41 471 -41 L521 -41 C542 -41 569 -28 574 -4 C581 30 547 41 520 41 C508 41 496 40 484 40 C456 40 437 47 428 73 C423 86 422 106 426 122 L457 271 C460 285 467 301 476 314 C505 357 532 360 575 360 C584 360 597 360 603 355 C615 344 619 321 615 304 L615 304 Z " />
<glyph glyph-name="ccedilla" unicode="&#xe7;" horiz-adv-x="451" d="M238 41 C188 41 167 81 177 130 L209 278 C211 290 217 302 223 313 C241 345 263 360 297 360 C340 360 360 334 360 293 C360 284 357 274 357 265 C358 245 376 235 395 235 C420 235 453 251 459 279 C463 297 463 316 461 334 C451 406 398 441 323 441 C223 441 130 370 108 272 L76 122 C72 103 72 84 75 66 C84 -6 137 -40 211 -41 C213 -42 213 -52 213 -55 L203 -101 C203 -96 204 -91 204 -86 C202 -68 184 -60 166 -60 C142 -60 108 -76 102 -104 C91 -157 128 -191 179 -191 C233 -191 291 -153 303 -97 L314 -47 C316 -35 316 -25 315 -16 C368 12 414 69 427 129 C432 153 411 166 390 166 C368 166 341 153 329 130 C325 120 323 110 319 100 C303 62 278 41 238 41 L238 41 Z " />
<glyph glyph-name="egrave" unicode="&#xe8;" horiz-adv-x="451" d="M324 485 C349 485 382 502 388 529 C389 535 388 541 386 547 C383 554 323 629 317 633 C310 638 301 641 291 641 C267 641 234 624 228 597 C227 590 227 584 230 578 C232 572 293 496 298 492 C306 487 314 485 324 485 L324 485 Z M366 304 C358 267 330 240 293 240 C272 240 253 243 234 225 C228 219 223 211 222 204 C215 171 248 160 276 160 C340 160 396 175 438 238 C450 256 459 276 464 297 C468 317 467 338 463 356 C448 420 396 441 330 441 C255 441 190 421 141 348 C127 327 116 302 111 279 L79 129 C75 110 75 90 77 73 C88 -3 143 -41 222 -41 L272 -41 C293 -41 320 -28 325 -4 C332 30 298 41 271 41 C259 41 247 40 235 40 C207 40 188 47 179 73 C174 86 173 106 177 122 L208 271 C211 285 218 301 227 314 C256 357 283 360 326 360 C335 360 348 360 354 355 C366 344 370 321 366 304 L366 304 Z " />
<glyph glyph-name="eacute" unicode="&#xe9;" horiz-adv-x="451" d="M287 522 C282 498 303 485 324 485 C335 485 346 488 357 493 C367 498 460 574 468 583 C473 589 477 596 479 604 C484 628 463 641 441 641 C431 641 419 638 409 632 C399 627 306 551 298 542 C293 536 289 529 287 522 L287 522 Z M366 304 C358 267 330 240 293 240 C272 240 253 243 234 225 C228 219 223 211 222 204 C215 171 248 160 276 160 C340 160 396 175 438 238 C450 256 459 276 464 297 C468 317 467 338 463 356 C448 420 396 441 330 441 C255 441 190 421 141 348 C127 327 116 302 111 279 L79 129 C75 110 75 90 77 73 C88 -3 143 -41 222 -41 L272 -41 C293 -41 320 -28 325 -4 C332 30 298 41 271 41 C259 41 247 40 235 40 C207 40 188 47 179 73 C174 86 173 106 177 122 L208 271 C211 285 218 301 227 314 C256 357 283 360 326 360 C335 360 348 360 354 355 C366 344 370 321 366 304 L366 304 Z " />
<glyph glyph-name="ecircumflex" unicode="&#xea;" horiz-adv-x="451" d="M337 536 C353 515 368 485 400 485 C424 485 457 502 463 529 C464 535 464 541 461 547 C459 553 398 629 393 633 C385 638 376 641 367 641 C356 641 345 638 334 632 C324 627 231 551 223 542 C218 536 214 529 212 522 C207 498 228 485 250 485 C284 485 311 514 337 536 L337 536 Z M366 304 C358 267 330 240 293 240 C272 240 253 243 234 225 C228 219 223 211 222 204 C215 171 248 160 276 160 C340 160 396 175 438 238 C450 256 459 276 464 297 C468 317 467 338 463 356 C448 420 396 441 330 441 C255 441 190 421 141 348 C127 327 116 302 111 279 L79 129 C75 110 75 90 77 73 C88 -3 143 -41 222 -41 L272 -41 C293 -41 320 -28 325 -4 C332 30 298 41 271 41 C259 41 247 40 235 40 C207 40 188 47 179 73 C174 86 173 106 177 122 L208 271 C211 285 218 301 227 314 C256 357 283 360 326 360 C335 360 348 360 354 355 C366 344 370 321 366 304 L366 304 Z " />
<glyph glyph-name="edieresis" unicode="&#xeb;" horiz-adv-x="451" d="M237 522 C232 498 253 485 275 485 C299 485 332 501 338 529 L354 604 C359 628 338 641 317 641 C292 641 259 624 253 597 L237 522 Z M390 522 C385 498 406 485 428 485 C452 485 485 501 491 529 L507 604 C512 628 491 641 470 641 C445 641 412 624 406 597 L390 522 Z M366 304 C358 267 330 240 293 240 C272 240 253 243 234 225 C228 219 223 211 222 204 C215 171 248 160 276 160 C340 160 396 175 438 238 C450 256 459 276 464 297 C468 317 467 338 463 356 C448 420 396 441 330 441 C255 441 190 421 141 348 C127 327 116 302 111 279 L79 129 C75 110 75 90 77 73 C88 -3 143 -41 222 -41 L272 -41 C293 -41 320 -28 325 -4 C332 30 298 41 271 41 C259 41 247 40 235 40 C207 40 188 47 179 73 C174 86 173 106 177 122 L208 271 C211 285 218 301 227 314 C256 357 283 360 326 360 C335 360 348 360 354 355 C366 344 370 321 366 304 L366 304 Z " />
<glyph glyph-name="igrave" unicode="&#xec;" horiz-adv-x="202" d="M199 485 C224 485 257 502 263 529 C264 535 263 541 261 547 C258 554 198 629 192 633 C185 638 176 641 166 641 C142 641 109 624 103 597 C102 590 102 584 105 578 C107 572 168 496 173 492 C181 487 189 485 199 485 L199 485 Z M136 397 L51 -4 C46 -28 66 -41 88 -41 C112 -41 146 -24 151 4 L236 404 C242 428 221 441 199 441 C175 441 141 424 136 397 L136 397 Z " />
<glyph glyph-name="iacute" unicode="&#xed;" horiz-adv-x="202" d="M162 522 C157 498 178 485 199 485 C210 485 221 488 232 493 C242 498 335 574 343 583 C348 589 352 596 354 604 C359 628 338 641 316 641 C306 641 294 638 284 632 C274 627 181 551 173 542 C168 536 164 529 162 522 L162 522 Z M136 397 L51 -4 C46 -28 66 -41 88 -41 C112 -41 146 -24 151 4 L236 404 C242 428 221 441 199 441 C175 441 141 424 136 397 L136 397 Z " />
<glyph glyph-name="icircumflex" unicode="&#xee;" horiz-adv-x="202" d="M212 536 C228 515 243 485 275 485 C299 485 332 502 338 529 C339 535 339 541 336 547 C334 553 273 629 268 633 C260 638 251 641 242 641 C231 641 220 638 209 632 C199 627 106 551 98 542 C93 536 89 529 87 522 C82 498 103 485 125 485 C159 485 186 514 212 536 L212 536 Z M136 397 L51 -4 C46 -28 66 -41 88 -41 C112 -41 146 -24 151 4 L236 404 C242 428 221 441 199 441 C175 441 141 424 136 397 L136 397 Z " />
<glyph glyph-name="idieresis" unicode="&#xef;" horiz-adv-x="202" d="M128 597 L112 522 C107 498 128 485 150 485 C174 485 207 501 213 529 L229 604 C234 628 213 641 192 641 C167 641 134 624 128 597 L128 597 Z M281 597 L265 522 C260 498 281 485 303 485 C327 485 360 501 366 529 L382 604 C387 628 366 641 345 641 C320 641 287 624 281 597 L281 597 Z M136 397 L51 -4 C46 -28 66 -41 88 -41 C112 -41 146 -24 151 4 L236 404 C242 428 221 441 199 441 C175 441 141 424 136 397 L136 397 Z " />
<glyph glyph-name="eth" unicode="&#xf0;" horiz-adv-x="452" d="M252 472 C252 454 265 442 281 437 C205 425 148 381 118 303 C106 273 102 241 96 209 C88 171 76 132 76 93 C76 5 138 -41 221 -41 C313 -41 386 12 419 97 C428 119 431 143 436 166 L477 359 C482 381 488 403 488 425 C488 456 479 502 454 525 C452 528 449 532 445 537 C472 559 493 577 495 580 C500 587 504 594 504 604 C504 628 480 641 459 641 C448 641 437 638 428 632 C425 631 411 620 392 605 C380 619 371 630 369 631 C360 637 350 641 339 641 C314 641 284 624 284 597 C284 590 286 585 289 580 C291 577 302 561 317 543 C287 518 263 498 262 495 C256 488 252 481 252 472 L252 472 Z M389 419 C389 401 383 384 380 368 L341 183 C337 164 334 144 328 126 C314 79 283 41 231 41 C191 41 175 62 175 100 C175 124 204 263 213 286 C225 319 250 351 286 358 C297 360 308 359 319 359 C347 359 386 368 386 404 C386 437 351 441 324 440 C325 441 327 442 329 443 C332 445 348 458 370 475 C378 464 389 450 389 419 L389 419 Z " />
<glyph glyph-name="ntilde" unicode="&#xf1;" horiz-adv-x="451" d="M394 568 C388 574 383 581 378 588 C361 606 337 616 309 616 C256 616 197 578 185 522 C180 498 201 485 223 485 C242 485 270 496 281 516 C284 522 285 527 287 532 C294 526 299 519 304 512 C321 494 345 485 373 485 C426 485 485 522 497 579 C502 603 481 616 459 616 C440 616 412 604 401 584 C398 579 397 573 394 568 L394 568 Z M400 4 L459 279 C463 297 463 317 461 334 C450 407 398 441 323 441 L198 441 C174 441 141 424 135 397 L50 -4 C45 -28 65 -41 87 -41 C107 -41 132 -30 144 -11 C155 6 170 96 175 120 L226 360 L296 360 C390 360 355 255 341 190 C328 127 314 64 301 2 C295 -26 311 -41 337 -41 C361 -41 395 -24 400 4 L400 4 Z " />
<glyph glyph-name="ograve" unicode="&#xf2;" horiz-adv-x="451" d="M322 485 C347 485 380 502 386 529 C387 535 386 541 384 547 C381 554 321 629 315 633 C308 638 299 641 289 641 C265 641 232 624 226 597 C225 590 225 584 228 578 C230 572 291 496 296 492 C304 487 312 485 322 485 L322 485 Z M75 66 C85 -7 137 -41 212 -41 C312 -41 406 30 427 129 L459 279 C463 297 463 316 461 334 C451 407 398 441 323 441 C223 441 130 370 108 272 L76 122 C72 103 72 84 75 66 L75 66 Z M297 360 C348 360 368 319 358 271 L326 122 C324 110 318 98 312 87 C294 55 272 41 238 41 C178 41 168 90 180 143 C189 185 199 227 207 269 C208 272 208 274 209 277 C222 322 244 360 297 360 L297 360 Z " />
<glyph glyph-name="oacute" unicode="&#xf3;" horiz-adv-x="451" d="M285 522 C280 498 301 485 322 485 C333 485 344 488 355 493 C365 498 458 574 466 583 C471 589 475 596 477 604 C482 628 461 641 439 641 C429 641 417 638 407 632 C397 627 304 551 296 542 C291 536 287 529 285 522 L285 522 Z M75 66 C85 -7 137 -41 212 -41 C312 -41 406 30 427 129 L459 279 C463 297 463 316 461 334 C451 407 398 441 323 441 C223 441 130 370 108 272 L76 122 C72 103 72 84 75 66 L75 66 Z M297 360 C348 360 368 319 358 271 L326 122 C324 110 318 98 312 87 C294 55 272 41 238 41 C178 41 168 90 180 143 C189 185 199 227 207 269 C208 272 208 274 209 277 C222 322 244 360 297 360 L297 360 Z " />
<glyph glyph-name="ocircumflex" unicode="&#xf4;" horiz-adv-x="451" d="M335 536 C351 515 366 485 398 485 C422 485 455 502 461 529 C462 535 462 541 459 547 C457 553 396 629 391 633 C383 638 374 641 365 641 C354 641 343 638 332 632 C322 627 229 551 221 542 C216 536 212 529 210 522 C205 498 226 485 248 485 C282 485 309 514 335 536 L335 536 Z M75 66 C85 -7 137 -41 212 -41 C312 -41 406 30 427 129 L459 279 C463 297 463 316 461 334 C451 407 398 441 323 441 C223 441 130 370 108 272 L76 122 C72 103 72 84 75 66 L75 66 Z M297 360 C348 360 368 319 358 271 L326 122 C324 110 318 98 312 87 C294 55 272 41 238 41 C178 41 168 90 180 143 C189 185 199 227 207 269 C208 272 208 274 209 277 C222 322 244 360 297 360 L297 360 Z " />
<glyph glyph-name="otilde" unicode="&#xf5;" horiz-adv-x="451" d="M394 568 C388 574 383 581 378 588 C361 606 337 616 309 616 C256 616 197 578 185 522 C180 498 201 485 223 485 C242 485 270 496 281 516 C284 522 285 527 287 532 C294 526 299 519 304 512 C321 494 345 485 373 485 C426 485 485 522 497 579 C502 603 481 616 459 616 C440 616 412 604 401 584 C398 579 397 573 394 568 L394 568 Z M75 66 C85 -7 137 -41 212 -41 C312 -41 406 30 427 129 L459 279 C463 297 463 316 461 334 C451 407 398 441 323 441 C223 441 130 370 108 272 L76 122 C72 103 72 84 75 66 L75 66 Z M297 360 C348 360 368 319 358 271 L326 122 C324 110 318 98 312 87 C294 55 272 41 238 41 C178 41 168 90 180 143 C189 185 199 227 207 269 C208 272 208 274 209 277 C222 322 244 360 297 360 L297 360 Z " />
<glyph glyph-name="odieresis" unicode="&#xf6;" horiz-adv-x="451" d="M251 597 L235 522 C230 498 251 485 273 485 C297 485 330 501 336 529 L352 604 C357 628 336 641 315 641 C290 641 257 624 251 597 L251 597 Z M404 597 L388 522 C383 498 404 485 426 485 C450 485 483 501 489 529 L505 604 C510 628 489 641 468 641 C443 641 410 624 404 597 L404 597 Z M75 66 C85 -7 137 -41 212 -41 C312 -41 406 30 427 129 L459 279 C463 297 463 316 461 334 C451 407 398 441 323 441 C223 441 130 370 108 272 L76 122 C72 103 72 84 75 66 L75 66 Z M297 360 C348 360 368 319 358 271 L326 122 C324 110 318 98 312 87 C294 55 272 41 238 41 C178 41 168 90 180 143 C189 185 199 227 207 269 C208 272 208 274 209 277 C222 322 244 360 297 360 L297 360 Z " />
<glyph glyph-name="divide" unicode="&#xf7;" horiz-adv-x="401" d="M140 210 L215 210 C204 204 194 195 190 184 C186 172 171 108 171 97 C171 73 195 60 216 60 C238 60 260 71 268 91 C273 102 287 168 287 179 C287 193 278 203 266 210 L340 210 C364 210 398 226 404 254 C409 278 388 291 366 291 L291 291 C302 296 312 305 316 316 C321 327 335 393 335 404 C335 428 311 441 290 441 C268 441 246 429 238 409 C234 397 219 333 219 322 C219 307 228 297 240 291 L166 291 C142 291 109 274 103 247 C98 223 119 210 140 210 L140 210 Z " />
<glyph glyph-name="oslash" unicode="&#xf8;" horiz-adv-x="451" d="M470 454 C475 478 454 491 433 491 C396 491 377 466 361 437 C349 439 336 441 323 441 C223 441 130 370 108 272 L76 122 C72 103 72 84 75 66 C78 43 86 23 97 8 C87 -9 78 -25 68 -41 C66 -45 64 -49 63 -54 C58 -78 79 -91 100 -91 C137 -91 156 -66 173 -37 C185 -39 198 -41 212 -41 C312 -41 406 30 427 129 L459 279 C463 297 463 316 461 334 C457 358 449 378 437 394 C446 410 456 425 465 441 C467 445 469 449 470 454 L470 454 Z M297 360 C303 360 308 359 313 358 L292 325 C255 264 217 204 180 143 C189 185 199 227 207 269 C208 272 208 274 209 277 C222 322 244 360 297 360 L297 360 Z M221 42 L241 76 C279 137 318 199 356 261 L326 122 C324 110 318 98 312 87 C294 55 272 41 238 41 C232 41 226 41 221 42 L221 42 Z " />
<glyph glyph-name="ugrave" unicode="&#xf9;" horiz-adv-x="451" d="M322 485 C347 485 380 502 386 529 C387 535 386 541 384 547 C381 554 321 629 315 633 C308 638 299 641 289 641 C265 641 232 624 226 597 C225 590 225 584 228 578 C230 572 291 496 296 492 C304 487 312 485 322 485 L322 485 Z M309 41 L239 41 C145 41 181 146 194 210 C208 273 221 336 235 398 C241 426 225 441 198 441 C174 441 141 424 135 397 L76 122 C72 103 72 84 75 66 C85 -7 137 -41 212 -41 L337 -41 C361 -41 395 -24 400 4 L486 404 C491 428 470 441 448 441 C428 441 404 430 391 411 C380 394 365 304 360 280 L309 41 Z " />
<glyph glyph-name="uacute" unicode="&#xfa;" horiz-adv-x="451" d="M285 522 C280 498 301 485 322 485 C333 485 344 488 355 493 C365 498 458 574 466 583 C471 589 475 596 477 604 C482 628 461 641 439 641 C429 641 417 638 407 632 C397 627 304 551 296 542 C291 536 287 529 285 522 L285 522 Z M309 41 L239 41 C145 41 181 146 194 210 C208 273 221 336 235 398 C241 426 225 441 198 441 C174 441 141 424 135 397 L76 122 C72 103 72 84 75 66 C85 -7 137 -41 212 -41 L337 -41 C361 -41 395 -24 400 4 L486 404 C491 428 470 441 448 441 C428 441 404 430 391 411 C380 394 365 304 360 280 L309 41 Z " />
<glyph glyph-name="ucircumflex" unicode="&#xfb;" horiz-adv-x="451" d="M335 536 C351 515 366 485 398 485 C422 485 455 502 461 529 C462 535 462 541 459 547 C457 553 396 629 391 633 C383 638 374 641 365 641 C354 641 343 638 332 632 C322 627 229 551 221 542 C216 536 212 529 210 522 C205 498 226 485 248 485 C282 485 309 514 335 536 L335 536 Z M309 41 L239 41 C145 41 181 146 194 210 C208 273 221 336 235 398 C241 426 225 441 198 441 C174 441 141 424 135 397 L76 122 C72 103 72 84 75 66 C85 -7 137 -41 212 -41 L337 -41 C361 -41 395 -24 400 4 L486 404 C491 428 470 441 448 441 C428 441 404 430 391 411 C380 394 365 304 360 280 L309 41 Z " />
<glyph glyph-name="udieresis" unicode="&#xfc;" horiz-adv-x="451" d="M251 597 L235 522 C230 498 251 485 273 485 C297 485 330 501 336 529 L352 604 C357 628 336 641 315 641 C290 641 257 624 251 597 L251 597 Z M404 597 L388 522 C383 498 404 485 426 485 C450 485 483 501 489 529 L505 604 C510 628 489 641 468 641 C443 641 410 624 404 597 L404 597 Z M309 41 L239 41 C145 41 181 146 194 210 C208 273 221 336 235 398 C241 426 225 441 198 441 C174 441 141 424 135 397 L76 122 C72 103 72 84 75 66 C85 -7 137 -41 212 -41 L337 -41 C361 -41 395 -24 400 4 L486 404 C491 428 470 441 448 441 C428 441 404 430 391 411 C380 394 365 304 360 280 L309 41 Z " />
<glyph glyph-name="yacute" unicode="&#xfd;" horiz-adv-x="452" d="M287 522 C282 498 303 485 324 485 C335 485 346 488 357 493 C367 498 460 574 468 583 C473 589 477 596 479 604 C484 628 463 641 441 641 C431 641 419 638 409 632 C399 627 306 551 298 542 C293 536 289 529 287 522 L287 522 Z M199 441 C175 441 142 424 136 397 C133 384 168 52 176 -11 L151 -58 C143 -74 135 -91 126 -107 C117 -122 97 -150 80 -157 C73 -160 66 -159 58 -161 C38 -165 13 -182 8 -204 C3 -228 24 -241 45 -241 C118 -241 179 -189 217 -124 C229 -103 240 -81 251 -59 L315 66 C337 109 483 385 486 404 C492 428 471 441 449 441 C431 441 411 432 397 417 C386 406 350 330 340 311 L263 160 C251 278 236 420 235 422 C226 435 218 441 199 441 L199 441 Z " />
<glyph glyph-name="thorn" unicode="&#xfe;" horiz-adv-x="526" d="M532 288 C532 389 462 441 367 441 L245 441 L259 504 C265 531 280 578 280 604 C280 628 256 641 235 641 C214 641 192 630 184 611 C177 597 176 581 173 566 L158 496 C152 469 137 422 137 396 C117 304 9 -189 9 -204 C9 -228 33 -241 54 -241 C75 -241 93 -231 104 -214 C110 -204 139 -56 145 -31 L228 360 L357 360 C409 360 433 332 433 281 C433 252 423 224 408 200 C379 157 348 140 297 140 C286 140 276 141 266 141 C238 141 198 132 198 97 C198 61 237 60 263 60 C302 60 337 60 375 72 C464 102 532 194 532 288 L532 288 Z " />
<glyph glyph-name="ydieresis" unicode="&#xff;" horiz-adv-x="402" d="M228 597 L212 522 C207 498 228 485 250 485 C274 485 307 501 313 529 L329 604 C334 628 313 641 292 641 C267 641 234 624 228 597 L228 597 Z M381 597 L365 522 C360 498 381 485 403 485 C427 485 460 501 466 529 L482 604 C487 628 466 641 445 641 C420 641 387 624 381 597 L381 597 Z M174 441 C150 441 117 424 111 397 C108 384 143 52 151 -11 L126 -58 C118 -74 110 -91 101 -107 C92 -122 72 -150 55 -157 C48 -160 41 -159 33 -161 C13 -165 -12 -182 -17 -204 C-22 -228 -1 -241 20 -241 C93 -241 154 -189 192 -124 C204 -103 215 -81 226 -59 L290 66 C312 109 458 385 461 404 C467 428 446 441 424 441 C406 441 386 432 372 417 C361 406 325 330 315 311 L238 160 C226 278 211 420 210 422 C201 435 193 441 174 441 L174 441 Z " />
<glyph glyph-name="Amacron" unicode="&#x100;" horiz-adv-x="552" d="M342 685 L492 685 C516 685 550 701 555 729 C560 753 540 766 518 766 L368 766 C344 766 310 749 305 722 C300 698 320 685 342 685 L342 685 Z M417 641 C397 641 376 631 362 614 C350 600 342 578 335 562 L276 445 C202 299 125 153 54 5 C52 2 51 -1 51 -4 C46 -28 66 -41 88 -41 C107 -41 125 -32 140 -17 C143 -14 159 16 181 58 L393 59 C397 13 401 -19 402 -22 C410 -35 421 -41 438 -41 C462 -41 496 -24 501 4 C506 24 462 515 459 561 C458 576 458 606 454 619 C448 634 434 641 417 641 L417 641 Z M223 141 C281 255 350 395 365 425 C368 396 378 256 387 140 L223 141 Z " />
<glyph glyph-name="amacron" unicode="&#x101;" horiz-adv-x="451" d="M280 510 L430 510 C454 510 488 526 493 554 C498 578 478 591 456 591 L306 591 C282 591 248 574 243 547 C238 523 258 510 280 510 L280 510 Z M178 130 L209 278 C212 290 217 302 224 313 C242 346 264 360 298 360 L377 360 C355 252 331 144 308 36 C300 -1 287 -41 337 -41 C362 -41 395 -24 401 4 L486 404 C491 428 470 441 449 441 L324 441 C224 441 131 371 109 272 L77 122 C73 103 73 84 75 66 C85 -7 138 -41 212 -41 C237 -41 270 -24 276 4 C280 24 265 37 247 40 C240 41 232 41 225 41 C199 45 184 61 179 85 C175 99 175 114 178 130 L178 130 Z " />
<glyph glyph-name="Abreve" unicode="&#x102;" horiz-adv-x="502" d="M382 660 C450 660 525 705 541 779 C546 803 525 816 504 816 C493 816 481 813 470 807 C427 783 446 741 408 741 C368 741 421 816 354 816 C329 816 296 799 290 772 C276 705 316 660 382 660 L382 660 Z M392 641 C372 641 351 631 337 614 C325 600 317 578 310 562 L251 445 C177 299 100 153 29 5 C27 2 26 -1 26 -4 C21 -28 41 -41 63 -41 C82 -41 100 -32 115 -17 C118 -14 134 16 156 58 L368 59 C372 13 376 -19 377 -22 C385 -35 396 -41 413 -41 C437 -41 471 -24 476 4 C481 24 437 515 434 561 C433 576 433 606 429 619 C423 634 409 641 392 641 L392 641 Z M198 141 C256 255 325 395 340 425 C343 396 353 256 362 140 L198 141 Z " />
<glyph glyph-name="abreve" unicode="&#x103;" horiz-adv-x="451" d="M320 485 C388 485 463 530 479 604 C484 628 463 641 442 641 C431 641 419 638 408 632 C365 608 384 566 346 566 C306 566 359 641 292 641 C267 641 234 624 228 597 C214 530 254 485 320 485 L320 485 Z M178 130 L209 278 C212 290 217 302 224 313 C242 346 264 360 298 360 L377 360 C355 252 331 144 308 36 C300 -1 287 -41 337 -41 C362 -41 395 -24 401 4 L486 404 C491 428 470 441 449 441 L324 441 C224 441 131 371 109 272 L77 122 C73 103 73 84 75 66 C85 -7 138 -41 212 -41 C237 -41 270 -24 276 4 C280 24 265 37 247 40 C240 41 232 41 225 41 C199 45 184 61 179 85 C175 99 175 114 178 130 L178 130 Z " />
<glyph glyph-name="Aogonek" unicode="&#x104;" horiz-adv-x="502" d="M392 641 C372 641 351 631 337 614 C325 600 317 578 310 562 L251 445 C177 299 100 153 29 5 C27 2 26 -1 26 -4 C21 -28 41 -41 63 -41 C82 -41 100 -32 115 -17 C118 -14 134 16 156 58 L368 59 C370 44 371 32 372 21 C344 5 322 -21 315 -54 L304 -104 C293 -157 330 -191 381 -191 C435 -191 493 -153 505 -97 C510 -73 489 -60 468 -60 C444 -60 413 -75 405 -101 C405 -99 405 -97 406 -95 L415 -48 C416 -46 417 -43 418 -40 C423 -40 428 -39 432 -37 C458 -32 477 -10 477 16 C474 97 437 518 434 561 C433 576 433 606 429 619 C423 634 409 641 392 641 L392 641 Z M198 141 C256 255 325 395 340 425 C343 396 353 256 362 140 L198 141 Z " />
<glyph glyph-name="aogonek" unicode="&#x105;" horiz-adv-x="451" d="M178 130 L209 278 C212 290 217 302 224 313 C242 346 264 360 298 360 L377 360 C355 252 331 144 308 36 C300 -1 287 -41 337 -41 C362 -41 395 -24 401 4 L486 404 C491 428 470 441 449 441 L324 441 C224 441 131 371 109 272 L77 122 C73 103 73 84 75 66 C81 26 99 -3 128 -20 C121 -30 117 -41 114 -54 L103 -104 C92 -157 129 -191 180 -191 C234 -191 292 -153 304 -97 C309 -73 288 -60 267 -60 C243 -60 212 -75 204 -101 C204 -99 204 -97 205 -95 L214 -48 C215 -46 216 -43 217 -40 C242 -38 271 -22 276 4 C280 24 265 37 247 40 C240 41 232 41 225 41 C199 45 184 61 179 85 C175 99 175 114 178 130 L178 130 Z " />
<glyph glyph-name="Cacute" unicode="&#x106;" horiz-adv-x="551" d="M373 697 C368 673 389 660 410 660 C421 660 432 663 443 668 C453 673 546 749 554 758 C559 764 563 771 565 779 C570 803 549 816 527 816 C517 816 505 813 495 807 C485 802 392 726 384 717 C379 711 375 704 373 697 L373 697 Z M416 641 C316 641 224 593 170 496 C157 472 145 447 140 422 L87 172 C82 146 82 121 85 97 C98 4 166 -41 262 -41 C394 -41 508 51 538 179 C543 203 522 216 500 216 C478 216 452 203 440 180 C433 167 431 152 425 138 C399 76 353 41 288 41 C227 41 194 69 187 127 C184 143 184 162 188 180 L241 428 C244 446 252 464 262 480 C292 535 332 560 389 560 C458 560 492 521 493 455 C493 432 482 405 502 392 C509 387 518 385 527 385 C552 385 585 401 591 429 C596 454 596 479 593 503 C580 597 512 641 416 641 L416 641 Z " />
<glyph glyph-name="cacute" unicode="&#x107;" horiz-adv-x="451" d="M285 522 C280 498 301 485 322 485 C333 485 344 488 355 493 C365 498 458 574 466 583 C471 589 475 596 477 604 C482 628 461 641 439 641 C429 641 417 638 407 632 C397 627 304 551 296 542 C291 536 287 529 285 522 L285 522 Z M238 41 C188 41 167 81 177 130 L209 278 C211 290 217 302 223 313 C241 345 263 360 297 360 C340 360 360 334 360 293 C360 284 357 274 357 265 C358 245 376 235 395 235 C420 235 453 251 459 279 C463 297 463 316 461 334 C451 406 398 441 323 441 C223 441 130 370 108 272 L76 122 C72 103 72 84 75 66 C84 -6 137 -41 212 -41 C313 -41 406 30 427 129 C432 153 411 166 390 166 C368 166 341 153 329 130 C325 120 323 110 319 100 C303 62 278 41 238 41 L238 41 Z " />
<glyph glyph-name="Ccircumflex" unicode="&#x108;" horiz-adv-x="551" d="M423 711 C439 690 454 660 486 660 C510 660 543 677 549 704 C550 710 550 716 547 722 C545 728 484 804 479 808 C471 813 462 816 453 816 C442 816 431 813 420 807 C410 802 317 726 309 717 C304 711 300 704 298 697 C293 673 314 660 336 660 C370 660 397 689 423 711 L423 711 Z M416 641 C316 641 224 593 170 496 C157 472 145 447 140 422 L87 172 C82 146 82 121 85 97 C98 4 166 -41 262 -41 C394 -41 508 51 538 179 C543 203 522 216 500 216 C478 216 452 203 440 180 C433 167 431 152 425 138 C399 76 353 41 288 41 C227 41 194 69 187 127 C184 143 184 162 188 180 L241 428 C244 446 252 464 262 480 C292 535 332 560 389 560 C458 560 492 521 493 455 C493 432 482 405 502 392 C509 387 518 385 527 385 C552 385 585 401 591 429 C596 454 596 479 593 503 C580 597 512 641 416 641 L416 641 Z " />
<glyph glyph-name="ccircumflex" unicode="&#x109;" horiz-adv-x="451" d="M335 536 C351 515 366 485 398 485 C422 485 455 502 461 529 C462 535 462 541 459 547 C457 553 396 629 391 633 C383 638 374 641 365 641 C354 641 343 638 332 632 C322 627 229 551 221 542 C216 536 212 529 210 522 C205 498 226 485 248 485 C282 485 309 514 335 536 L335 536 Z M238 41 C188 41 167 81 177 130 L209 278 C211 290 217 302 223 313 C241 345 263 360 297 360 C340 360 360 334 360 293 C360 284 357 274 357 265 C358 245 376 235 395 235 C420 235 453 251 459 279 C463 297 463 316 461 334 C451 406 398 441 323 441 C223 441 130 370 108 272 L76 122 C72 103 72 84 75 66 C84 -6 137 -41 212 -41 C313 -41 406 30 427 129 C432 153 411 166 390 166 C368 166 341 153 329 130 C325 120 323 110 319 100 C303 62 278 41 238 41 L238 41 Z " />
<glyph glyph-name="Cdotaccent" unicode="&#x10a;" horiz-adv-x="551" d="M389 772 L373 697 C368 673 389 660 411 660 C435 660 468 676 474 704 L490 779 C495 803 474 816 453 816 C428 816 395 799 389 772 L389 772 Z M416 641 C316 641 224 593 170 496 C157 472 145 447 140 422 L87 172 C82 146 82 121 85 97 C98 4 166 -41 262 -41 C394 -41 508 51 538 179 C543 203 522 216 500 216 C478 216 452 203 440 180 C433 167 431 152 425 138 C399 76 353 41 288 41 C227 41 194 69 187 127 C184 143 184 162 188 180 L241 428 C244 446 252 464 262 480 C292 535 332 560 389 560 C458 560 492 521 493 455 C493 432 482 405 502 392 C509 387 518 385 527 385 C552 385 585 401 591 429 C596 454 596 479 593 503 C580 597 512 641 416 641 L416 641 Z " />
<glyph glyph-name="cdotaccent" unicode="&#x10b;" horiz-adv-x="451" d="M301 597 L285 522 C280 498 301 485 323 485 C347 485 380 501 386 529 L402 604 C407 628 386 641 365 641 C340 641 307 624 301 597 L301 597 Z M238 41 C188 41 167 81 177 130 L209 278 C211 290 217 302 223 313 C241 345 263 360 297 360 C340 360 360 334 360 293 C360 284 357 274 357 265 C358 245 376 235 395 235 C420 235 453 251 459 279 C463 297 463 316 461 334 C451 406 398 441 323 441 C223 441 130 370 108 272 L76 122 C72 103 72 84 75 66 C84 -6 137 -41 212 -41 C313 -41 406 30 427 129 C432 153 411 166 390 166 C368 166 341 153 329 130 C325 120 323 110 319 100 C303 62 278 41 238 41 L238 41 Z " />
<glyph glyph-name="Ccaron" unicode="&#x10c;" horiz-adv-x="551" d="M411 660 C421 660 433 663 443 668 C453 673 546 749 554 758 C559 764 563 771 565 779 C570 803 549 816 528 816 C494 816 467 786 440 764 C424 785 409 816 378 816 C353 816 320 799 314 772 C313 765 314 759 316 753 C318 747 379 671 385 667 C392 662 401 660 411 660 L411 660 Z M416 641 C316 641 224 593 170 496 C157 472 145 447 140 422 L87 172 C82 146 82 121 85 97 C98 4 166 -41 262 -41 C394 -41 508 51 538 179 C543 203 522 216 500 216 C478 216 452 203 440 180 C433 167 431 152 425 138 C399 76 353 41 288 41 C227 41 194 69 187 127 C184 143 184 162 188 180 L241 428 C244 446 252 464 262 480 C292 535 332 560 389 560 C458 560 492 521 493 455 C493 432 482 405 502 392 C509 387 518 385 527 385 C552 385 585 401 591 429 C596 454 596 479 593 503 C580 597 512 641 416 641 L416 641 Z " />
<glyph glyph-name="ccaron" unicode="&#x10d;" horiz-adv-x="451" d="M323 485 C333 485 345 488 355 493 C365 498 458 574 466 583 C471 589 475 596 477 604 C482 628 461 641 440 641 C406 641 379 611 352 589 C336 610 321 641 290 641 C265 641 232 624 226 597 C225 590 226 584 228 578 C230 572 291 496 297 492 C304 487 313 485 323 485 L323 485 Z M238 41 C188 41 167 81 177 130 L209 278 C211 290 217 302 223 313 C241 345 263 360 297 360 C340 360 360 334 360 293 C360 284 357 274 357 265 C358 245 376 235 395 235 C420 235 453 251 459 279 C463 297 463 316 461 334 C451 406 398 441 323 441 C223 441 130 370 108 272 L76 122 C72 103 72 84 75 66 C84 -6 137 -41 212 -41 C313 -41 406 30 427 129 C432 153 411 166 390 166 C368 166 341 153 329 130 C325 120 323 110 319 100 C303 62 278 41 238 41 L238 41 Z " />
<glyph glyph-name="Dcaron" unicode="&#x10e;" horiz-adv-x="552" d="M412 660 C422 660 434 663 444 668 C454 673 547 749 555 758 C560 764 564 771 566 779 C571 803 550 816 529 816 C495 816 468 786 441 764 C425 785 410 816 379 816 C354 816 321 799 315 772 C314 765 315 759 317 753 C319 747 380 671 386 667 C393 662 402 660 412 660 L412 660 Z M213 -41 L262 -41 C348 -41 434 -10 492 69 C511 94 527 126 533 154 L592 429 C597 453 597 480 594 503 C581 597 514 641 417 641 L242 641 C217 641 184 624 178 597 L51 -4 C46 -28 66 -41 88 -41 C109 -41 134 -29 146 -9 C154 3 160 46 164 62 L270 560 L390 560 C451 560 484 532 492 474 C494 457 495 439 491 421 L433 147 C429 129 418 109 406 93 C366 39 319 41 265 41 C236 41 184 37 176 -4 C171 -28 191 -41 213 -41 L213 -41 Z " />
<glyph glyph-name="dcaron" unicode="&#x10f;" horiz-adv-x="451" d="M401 5 L486 404 C487 405 487 405 487 406 L529 605 C534 629 513 642 492 642 C468 642 434 625 428 598 L395 442 L324 442 C223 442 131 371 109 272 L83 148 C78 127 77 105 79 85 C85 7 130 -40 213 -40 C237 -40 271 -23 276 5 C278 13 277 20 273 26 C253 60 196 15 183 96 C180 115 179 136 184 155 L210 278 C213 293 220 308 228 321 C256 362 280 361 320 361 C339 361 358 360 378 360 L301 -3 C296 -27 316 -40 338 -40 C362 -40 396 -23 401 5 L401 5 Z M726 604 C731 628 711 641 689 641 L639 641 C615 641 581 624 576 597 C571 575 588 561 608 560 C594 530 538 418 533 397 C528 373 549 360 570 360 C598 360 615 372 630 393 C640 411 724 593 726 604 L726 604 Z " />
<glyph glyph-name="Dcroat" unicode="&#x110;" horiz-adv-x="601" d="M262 -41 L311 -41 C397 -41 483 -10 541 69 C560 94 576 126 582 154 L641 429 C646 453 646 480 643 503 C630 597 563 641 466 641 L291 641 C266 641 233 624 227 597 L194 440 C170 439 140 422 135 397 C130 373 151 360 172 360 L177 360 L100 -4 C95 -28 115 -41 137 -41 C158 -41 183 -29 195 -9 C203 3 209 46 213 62 L276 359 L372 360 C396 360 430 376 436 404 C441 428 420 441 398 441 L293 441 L319 560 L439 560 C500 560 533 532 541 474 C543 457 544 439 540 421 L482 147 C478 129 467 109 455 93 C415 39 368 41 314 41 C285 41 233 37 225 -4 C220 -28 240 -41 262 -41 L262 -41 Z " />
<glyph glyph-name="dcroat" unicode="&#x111;" horiz-adv-x="451" d="M401 5 L486 404 C487 405 487 405 487 406 L509 510 C532 512 562 528 567 554 C572 578 552 591 530 591 L526 591 L529 605 C534 629 513 642 492 642 C468 642 434 625 428 598 L427 590 L380 591 C356 591 322 574 317 547 C312 523 332 510 354 510 L410 510 L395 442 L324 442 C223 442 131 371 109 272 L83 148 C78 127 77 105 79 85 C85 7 130 -40 213 -40 C237 -40 271 -23 276 5 C278 13 277 20 273 26 C253 60 196 15 183 96 C180 115 179 136 184 155 L210 278 C213 293 220 308 228 321 C256 362 280 361 320 361 C339 361 358 360 378 360 L301 -3 C296 -27 316 -40 338 -40 C362 -40 396 -23 401 5 L401 5 Z " />
<glyph glyph-name="Emacron" unicode="&#x112;" horiz-adv-x="501" d="M316 685 L466 685 C490 685 524 701 529 729 C534 753 514 766 492 766 L342 766 C318 766 284 749 279 722 C274 698 294 685 316 685 L316 685 Z M541 641 L241 641 C216 641 183 624 177 597 L66 72 C51 3 96 -41 162 -41 L387 -41 C411 -41 445 -24 450 4 C458 38 420 42 393 42 C330 42 266 40 203 40 C174 40 160 48 167 80 L226 360 L347 360 C371 360 405 376 410 404 C416 428 395 441 373 441 L243 441 L269 560 C287 560 305 559 324 559 L434 559 C453 559 471 559 490 559 C523 559 570 564 578 604 C583 628 562 641 541 641 L541 641 Z " />
<glyph glyph-name="emacron" unicode="&#x113;" horiz-adv-x="451" d="M405 510 C429 510 463 526 468 554 C473 578 453 591 431 591 L281 591 C257 591 223 574 218 547 C213 523 233 510 255 510 L405 510 Z M366 304 C358 267 330 240 293 240 C272 240 253 243 234 225 C228 219 223 211 222 204 C215 171 248 160 276 160 C340 160 396 175 438 238 C450 256 459 276 464 297 C468 317 467 338 463 356 C448 420 396 441 330 441 C255 441 190 421 141 348 C127 327 116 302 111 279 L79 129 C75 110 75 90 77 73 C88 -3 143 -41 222 -41 L272 -41 C293 -41 320 -28 325 -4 C332 30 298 41 271 41 C259 41 247 40 235 40 C207 40 188 47 179 73 C174 86 173 106 177 122 L208 271 C211 285 218 301 227 314 C256 357 283 360 326 360 C335 360 348 360 354 355 C366 344 370 321 366 304 L366 304 Z " />
<glyph glyph-name="Ebreve" unicode="&#x114;" horiz-adv-x="501" d="M381 660 C449 660 524 705 540 779 C545 803 524 816 503 816 C492 816 480 813 469 807 C426 783 445 741 407 741 C367 741 420 816 353 816 C328 816 295 799 289 772 C275 705 315 660 381 660 L381 660 Z M541 641 L241 641 C216 641 183 624 177 597 L66 72 C51 3 96 -41 162 -41 L387 -41 C411 -41 445 -24 450 4 C458 38 420 42 393 42 C330 42 266 40 203 40 C174 40 160 48 167 80 L226 360 L347 360 C371 360 405 376 410 404 C416 428 395 441 373 441 L243 441 L269 560 C287 560 305 559 324 559 L434 559 C453 559 471 559 490 559 C523 559 570 564 578 604 C583 628 562 641 541 641 L541 641 Z " />
<glyph glyph-name="ebreve" unicode="&#x115;" horiz-adv-x="451" d="M320 485 C388 485 463 530 479 604 C484 628 463 641 442 641 C431 641 419 638 408 632 C365 608 384 566 346 566 C306 566 359 641 292 641 C267 641 234 624 228 597 C214 530 254 485 320 485 L320 485 Z M366 304 C358 267 330 240 293 240 C272 240 253 243 234 225 C228 219 223 211 222 204 C215 171 248 160 276 160 C340 160 396 175 438 238 C450 256 459 276 464 297 C468 317 467 338 463 356 C448 420 396 441 330 441 C255 441 190 421 141 348 C127 327 116 302 111 279 L79 129 C75 110 75 90 77 73 C88 -3 143 -41 222 -41 L272 -41 C293 -41 320 -28 325 -4 C332 30 298 41 271 41 C259 41 247 40 235 40 C207 40 188 47 179 73 C174 86 173 106 177 122 L208 271 C211 285 218 301 227 314 C256 357 283 360 326 360 C335 360 348 360 354 355 C366 344 370 321 366 304 L366 304 Z " />
<glyph glyph-name="Edotaccent" unicode="&#x116;" horiz-adv-x="501" d="M364 772 L348 697 C343 673 364 660 386 660 C410 660 443 676 449 704 L465 779 C470 803 449 816 428 816 C403 816 370 799 364 772 L364 772 Z M541 641 L241 641 C216 641 183 624 177 597 L66 72 C51 3 96 -41 162 -41 L387 -41 C411 -41 445 -24 450 4 C458 38 420 42 393 42 C330 42 266 40 203 40 C174 40 160 48 167 80 L226 360 L347 360 C371 360 405 376 410 404 C416 428 395 441 373 441 L243 441 L269 560 C287 560 305 559 324 559 L434 559 C453 559 471 559 490 559 C523 559 570 564 578 604 C583 628 562 641 541 641 L541 641 Z " />
<glyph glyph-name="edotaccent" unicode="&#x117;" horiz-adv-x="451" d="M287 522 C282 498 303 485 325 485 C349 485 382 501 388 529 L404 604 C409 628 388 641 367 641 C342 641 309 624 303 597 L287 522 Z M366 304 C358 267 330 240 293 240 C272 240 253 243 234 225 C228 219 223 211 222 204 C215 171 248 160 276 160 C340 160 396 175 438 238 C450 256 459 276 464 297 C468 317 467 338 463 356 C448 420 396 441 330 441 C255 441 190 421 141 348 C127 327 116 302 111 279 L79 129 C75 110 75 90 77 73 C88 -3 143 -41 222 -41 L272 -41 C293 -41 320 -28 325 -4 C332 30 298 41 271 41 C259 41 247 40 235 40 C207 40 188 47 179 73 C174 86 173 106 177 122 L208 271 C211 285 218 301 227 314 C256 357 283 360 326 360 C335 360 348 360 354 355 C366 344 370 321 366 304 L366 304 Z " />
<glyph glyph-name="Eogonek" unicode="&#x118;" horiz-adv-x="501" d="M541 641 L241 641 C216 641 183 624 177 597 L66 72 C51 3 96 -41 162 -41 L231 -41 C229 -45 228 -49 227 -54 L216 -104 C205 -157 242 -191 293 -191 C347 -191 405 -153 417 -97 C422 -73 401 -60 380 -60 C356 -60 325 -75 317 -101 C317 -99 317 -97 318 -95 L327 -48 C328 -46 329 -43 330 -41 L387 -41 C411 -41 445 -24 450 4 C458 38 420 42 393 42 C330 42 266 40 203 40 C174 40 160 48 167 80 L226 360 L347 360 C371 360 405 376 410 404 C416 428 395 441 373 441 L243 441 L269 560 C287 560 305 559 324 559 L434 559 C453 559 471 559 490 559 C523 559 570 564 578 604 C583 628 562 641 541 641 L541 641 Z " />
<glyph glyph-name="eogonek" unicode="&#x119;" horiz-adv-x="451" d="M366 304 C358 267 330 240 293 240 C272 240 253 243 234 225 C228 219 223 211 222 204 C215 171 248 160 276 160 C340 160 396 175 438 238 C450 256 459 276 464 297 C468 317 467 338 463 356 C448 420 396 441 330 441 C255 441 190 421 141 348 C127 327 116 302 111 279 L79 129 C75 110 75 90 77 73 C85 15 120 -21 171 -34 C168 -40 166 -47 165 -54 L154 -104 C143 -157 180 -191 231 -191 C285 -191 343 -153 355 -97 C360 -73 339 -60 318 -60 C294 -60 263 -75 255 -101 C255 -99 255 -97 256 -95 L265 -48 C266 -46 267 -43 268 -41 L272 -41 C296 -41 322 -25 325 0 C326 1 326 2 326 3 C331 28 311 41 289 41 C287 40 285 40 282 40 C278 41 274 41 271 41 C259 41 247 40 235 40 C207 40 188 47 179 73 C174 86 173 106 177 122 L208 271 C211 285 218 301 227 314 C256 357 283 360 326 360 C335 360 348 360 354 355 C366 344 370 321 366 304 L366 304 Z " />
<glyph glyph-name="Ecaron" unicode="&#x11a;" horiz-adv-x="501" d="M386 660 C396 660 408 663 418 668 C428 673 521 749 529 758 C534 764 538 771 540 779 C545 803 524 816 503 816 C469 816 442 786 415 764 C399 785 384 816 353 816 C328 816 295 799 289 772 C288 765 289 759 291 753 C293 747 354 671 360 667 C367 662 376 660 386 660 L386 660 Z M541 641 L241 641 C216 641 183 624 177 597 L66 72 C51 3 96 -41 162 -41 L387 -41 C411 -41 445 -24 450 4 C458 38 420 42 393 42 C330 42 266 40 203 40 C174 40 160 48 167 80 L226 360 L347 360 C371 360 405 376 410 404 C416 428 395 441 373 441 L243 441 L269 560 C287 560 305 559 324 559 L434 559 C453 559 471 559 490 559 C523 559 570 564 578 604 C583 628 562 641 541 641 L541 641 Z " />
<glyph glyph-name="ecaron" unicode="&#x11b;" horiz-adv-x="451" d="M325 485 C335 485 347 488 357 493 C367 498 460 574 468 583 C473 589 477 596 479 604 C484 628 463 641 442 641 C408 641 381 611 354 589 C338 610 323 641 292 641 C267 641 234 624 228 597 C227 590 228 584 230 578 C232 572 293 496 299 492 C306 487 315 485 325 485 L325 485 Z M366 304 C358 267 330 240 293 240 C272 240 253 243 234 225 C228 219 223 211 222 204 C215 171 248 160 276 160 C340 160 396 175 438 238 C450 256 459 276 464 297 C468 317 467 338 463 356 C448 420 396 441 330 441 C255 441 190 421 141 348 C127 327 116 302 111 279 L79 129 C75 110 75 90 77 73 C88 -3 143 -41 222 -41 L272 -41 C293 -41 320 -28 325 -4 C332 30 298 41 271 41 C259 41 247 40 235 40 C207 40 188 47 179 73 C174 86 173 106 177 122 L208 271 C211 285 218 301 227 314 C256 357 283 360 326 360 C335 360 348 360 354 355 C366 344 370 321 366 304 L366 304 Z " />
<glyph glyph-name="Gcircumflex" unicode="&#x11c;" horiz-adv-x="551" d="M423 711 C439 690 454 660 486 660 C510 660 543 677 549 704 C550 710 550 716 547 722 C545 728 484 804 479 808 C471 813 462 816 453 816 C442 816 431 813 420 807 C410 802 317 726 309 717 C304 711 300 704 298 697 C293 673 314 660 336 660 C370 660 397 689 423 711 L423 711 Z M477 360 L437 172 C433 154 425 136 416 119 C386 65 346 40 288 40 C227 40 194 69 186 126 C184 143 184 161 188 180 L241 428 C245 450 257 474 269 494 C313 560 359 560 423 560 L514 560 C539 560 572 576 578 604 C585 638 549 641 522 641 C395 641 271 653 181 515 C162 486 147 453 140 422 L87 172 C82 147 82 122 85 98 C97 4 163 -42 262 -42 C395 -42 508 51 538 179 L585 404 C591 428 570 441 548 441 L373 441 C349 441 315 424 310 397 C300 351 367 360 397 360 L477 360 Z " />
<glyph glyph-name="gcircumflex" unicode="&#x11d;" horiz-adv-x="452" d="M349 536 C365 515 380 485 412 485 C436 485 469 502 475 529 C476 535 476 541 473 547 C471 553 410 629 405 633 C397 638 388 641 379 641 C368 641 357 638 346 632 C336 627 243 551 235 542 C230 536 226 529 224 522 C219 498 240 485 262 485 C296 485 323 514 349 536 L349 536 Z M178 130 L209 278 C212 290 217 302 224 313 C242 346 264 360 298 360 L377 360 C355 252 331 144 308 36 C305 20 300 4 300 -9 C297 -27 293 -45 289 -63 C284 -86 276 -111 258 -132 C230 -164 216 -153 183 -160 C162 -164 138 -180 133 -203 C128 -227 149 -240 170 -240 C271 -240 364 -170 386 -71 L487 405 C492 429 472 442 450 442 C446 441 443 441 439 441 L324 441 C224 441 131 371 109 272 L77 122 C73 103 73 84 75 66 C85 -7 138 -41 212 -41 C237 -41 270 -24 276 4 C280 24 265 37 247 40 C240 41 232 41 225 41 C199 45 184 61 179 85 C175 99 175 114 178 130 L178 130 Z " />
<glyph glyph-name="Gbreve" unicode="&#x11e;" horiz-adv-x="551" d="M406 660 C474 660 549 705 565 779 C570 803 549 816 528 816 C517 816 505 813 494 807 C451 783 470 741 432 741 C392 741 445 816 378 816 C353 816 320 799 314 772 C300 705 340 660 406 660 L406 660 Z M477 360 L437 172 C433 154 425 136 416 119 C386 65 346 40 288 40 C227 40 194 69 186 126 C184 143 184 161 188 180 L241 428 C245 450 257 474 269 494 C313 560 359 560 423 560 L514 560 C539 560 572 576 578 604 C585 638 549 641 522 641 C395 641 271 653 181 515 C162 486 147 453 140 422 L87 172 C82 147 82 122 85 98 C97 4 163 -42 262 -42 C395 -42 508 51 538 179 L585 404 C591 428 570 441 548 441 L373 441 C349 441 315 424 310 397 C300 351 367 360 397 360 L477 360 Z " />
<glyph glyph-name="gbreve" unicode="&#x11f;" horiz-adv-x="452" d="M332 485 C400 485 475 530 491 604 C496 628 475 641 454 641 C443 641 431 638 420 632 C377 608 396 566 358 566 C318 566 371 641 304 641 C279 641 246 624 240 597 C226 530 266 485 332 485 L332 485 Z M178 130 L209 278 C212 290 217 302 224 313 C242 346 264 360 298 360 L377 360 C355 252 331 144 308 36 C305 20 300 4 300 -9 C297 -27 293 -45 289 -63 C284 -86 276 -111 258 -132 C230 -164 216 -153 183 -160 C162 -164 138 -180 133 -203 C128 -227 149 -240 170 -240 C271 -240 364 -170 386 -71 L487 405 C492 429 472 442 450 442 C446 441 443 441 439 441 L324 441 C224 441 131 371 109 272 L77 122 C73 103 73 84 75 66 C85 -7 138 -41 212 -41 C237 -41 270 -24 276 4 C280 24 265 37 247 40 C240 41 232 41 225 41 C199 45 184 61 179 85 C175 99 175 114 178 130 L178 130 Z " />
<glyph glyph-name="Gdotaccent" unicode="&#x120;" horiz-adv-x="551" d="M389 772 L373 697 C368 673 389 660 411 660 C435 660 468 676 474 704 L490 779 C495 803 474 816 453 816 C428 816 395 799 389 772 L389 772 Z M477 360 L437 172 C433 154 425 136 416 119 C386 65 346 40 288 40 C227 40 194 69 186 126 C184 143 184 161 188 180 L241 428 C245 450 257 474 269 494 C313 560 359 560 423 560 L514 560 C539 560 572 576 578 604 C585 638 549 641 522 641 C395 641 271 653 181 515 C162 486 147 453 140 422 L87 172 C82 147 82 122 85 98 C97 4 163 -42 262 -42 C395 -42 508 51 538 179 L585 404 C591 428 570 441 548 441 L373 441 C349 441 315 424 310 397 C300 351 367 360 397 360 L477 360 Z " />
<glyph glyph-name="gdotaccent" unicode="&#x121;" horiz-adv-x="452" d="M315 597 L299 522 C294 498 315 485 337 485 C361 485 394 501 400 529 L416 604 C421 628 400 641 379 641 C354 641 321 624 315 597 L315 597 Z M178 130 L209 278 C212 290 217 302 224 313 C242 346 264 360 298 360 L377 360 C355 252 331 144 308 36 C305 20 300 4 300 -9 C297 -27 293 -45 289 -63 C284 -86 276 -111 258 -132 C230 -164 216 -153 183 -160 C162 -164 138 -180 133 -203 C128 -227 149 -240 170 -240 C271 -240 364 -170 386 -71 L487 405 C492 429 472 442 450 442 C446 441 443 441 439 441 L324 441 C224 441 131 371 109 272 L77 122 C73 103 73 84 75 66 C85 -7 138 -41 212 -41 C237 -41 270 -24 276 4 C280 24 265 37 247 40 C240 41 232 41 225 41 C199 45 184 61 179 85 C175 99 175 114 178 130 L178 130 Z " />
<glyph glyph-name="uni0122" unicode="&#x122;" horiz-adv-x="551" d="M477 360 L437 172 C423 108 375 48 307 41 L269 41 C220 46 193 75 186 126 C184 143 184 161 188 180 L241 428 C245 450 257 474 269 494 C313 560 359 560 423 560 L514 560 C539 560 572 576 578 604 C585 638 549 641 522 641 C395 641 271 653 181 515 C162 486 147 453 140 422 L87 172 C82 147 82 122 85 98 C96 15 148 -30 227 -39 C229 -40 231 -40 233 -40 C219 -70 163 -182 158 -204 C153 -228 174 -241 195 -241 C222 -241 240 -227 255 -207 C262 -194 311 -89 336 -32 C436 -6 515 79 538 179 L585 404 C591 428 570 441 548 441 L373 441 C349 441 315 424 310 397 C300 351 367 360 397 360 L477 360 Z " />
<glyph glyph-name="uni0123" unicode="&#x123;" horiz-adv-x="452" d="M288 622 C283 598 304 585 326 585 L376 585 C400 585 433 602 439 629 C444 651 424 666 404 666 L433 743 C437 755 443 767 446 779 C451 803 430 816 409 816 C388 816 362 804 350 784 C344 774 341 762 337 752 L319 703 C309 677 294 648 288 622 L288 622 Z M178 130 L209 278 C212 290 217 302 224 313 C242 346 264 360 298 360 L377 360 C355 252 331 144 308 36 C305 20 300 4 300 -9 C297 -27 293 -45 289 -63 C284 -86 276 -111 258 -132 C230 -164 216 -153 183 -160 C162 -164 138 -180 133 -203 C128 -227 149 -240 170 -240 C271 -240 364 -170 386 -71 L487 405 C492 429 472 442 450 442 C446 441 443 441 439 441 L324 441 C224 441 131 371 109 272 L77 122 C73 103 73 84 75 66 C85 -7 138 -41 212 -41 C237 -41 270 -24 276 4 C280 24 265 37 247 40 C240 41 232 41 225 41 C199 45 184 61 179 85 C175 99 175 114 178 130 L178 130 Z " />
<glyph glyph-name="Hcircumflex" unicode="&#x124;" horiz-adv-x="552" d="M424 711 C440 690 455 660 487 660 C511 660 544 677 550 704 C551 710 551 716 548 722 C546 728 485 804 480 808 C472 813 463 816 454 816 C443 816 432 813 421 807 C411 802 318 726 310 717 C305 711 301 704 299 697 C294 673 315 660 337 660 C371 660 398 689 424 711 L424 711 Z M151 4 L227 360 L478 360 L401 -4 C396 -28 416 -41 438 -41 C462 -41 496 -24 501 4 L629 604 C634 628 613 641 592 641 C567 641 534 624 528 597 L495 441 L244 441 L279 604 C284 628 263 641 242 641 C217 641 184 624 178 597 L51 -4 C46 -28 66 -41 88 -41 C112 -41 146 -24 151 4 L151 4 Z " />
<glyph glyph-name="hcircumflex" unicode="&#x125;" horiz-adv-x="451" d="M367 686 C383 665 398 635 430 635 C454 635 487 652 493 679 C494 685 494 691 491 697 C489 703 428 779 423 783 C415 788 406 791 397 791 C386 791 375 788 364 782 C354 777 261 701 253 692 C248 686 244 679 242 672 C237 648 258 635 280 635 C314 635 341 664 367 686 L367 686 Z M150 4 L226 360 C240 360 253 360 267 360 C283 360 313 360 327 355 C366 338 363 288 354 248 C337 169 319 89 302 10 C295 -21 303 -41 337 -41 C361 -41 395 -24 400 4 L459 279 C463 297 463 317 461 334 C450 407 398 441 323 441 L243 441 L278 604 C283 628 262 641 241 641 C217 641 183 624 177 597 L50 -4 C45 -28 65 -41 87 -41 C111 -41 145 -24 150 4 L150 4 Z " />
<glyph glyph-name="Hbar" unicode="&#x126;" horiz-adv-x="552" d="M342 685 L492 685 C516 685 550 701 555 729 C560 753 540 766 518 766 L368 766 C344 766 310 749 305 722 C300 698 320 685 342 685 L342 685 Z M151 4 L227 360 L478 360 L401 -4 C396 -28 416 -41 438 -41 C462 -41 496 -24 501 4 L629 604 C634 628 613 641 592 641 C567 641 534 624 528 597 L495 441 L244 441 L279 604 C284 628 263 641 242 641 C217 641 184 624 178 597 L51 -4 C46 -28 66 -41 88 -41 C112 -41 146 -24 151 4 L151 4 Z " />
<glyph glyph-name="hbar" unicode="&#x127;" horiz-adv-x="451" d="M150 4 L226 360 C240 360 253 360 267 360 C283 360 313 360 327 355 C366 338 363 288 354 248 C337 169 319 89 302 10 C295 -21 303 -41 337 -41 C361 -41 395 -24 400 4 L459 279 C463 297 463 317 461 334 C450 407 398 441 323 441 L243 441 L258 510 L303 510 C327 510 361 526 366 554 C371 578 351 591 329 591 L275 591 L278 604 C283 628 262 641 241 641 C217 641 183 624 177 597 L176 590 C152 589 121 572 116 547 C111 523 131 510 153 510 L159 510 L50 -4 C45 -28 65 -41 87 -41 C111 -41 145 -24 150 4 L150 4 Z " />
<glyph glyph-name="Itilde" unicode="&#x128;" horiz-adv-x="202" d="M308 743 C302 749 297 756 292 763 C275 781 251 791 223 791 C170 791 111 753 99 697 C94 673 115 660 137 660 C156 660 184 671 195 691 C198 697 199 702 201 707 C208 701 213 694 218 687 C235 669 259 660 287 660 C340 660 399 697 411 754 C416 778 395 791 373 791 C354 791 326 779 315 759 C312 754 311 748 308 743 L308 743 Z M151 4 L279 604 C284 628 263 641 242 641 C217 641 184 624 178 597 L51 -4 C46 -28 66 -41 88 -41 C112 -41 146 -24 151 4 L151 4 Z " />
<glyph glyph-name="itilde" unicode="&#x129;" horiz-adv-x="202" d="M271 568 C265 574 260 581 255 588 C238 606 214 616 186 616 C133 616 74 578 62 522 C57 498 78 485 100 485 C119 485 147 496 158 516 C161 522 162 527 164 532 C171 526 176 519 181 512 C198 494 222 485 250 485 C303 485 362 522 374 579 C379 603 358 616 336 616 C317 616 289 604 278 584 C275 579 274 573 271 568 L271 568 Z M136 397 L51 -4 C46 -28 66 -41 88 -41 C112 -41 146 -24 151 4 L236 404 C242 428 221 441 199 441 C175 441 141 424 136 397 L136 397 Z " />
<glyph glyph-name="Imacron" unicode="&#x12a;" horiz-adv-x="202" d="M167 685 L317 685 C341 685 375 701 380 729 C385 753 365 766 343 766 L193 766 C169 766 135 749 130 722 C125 698 145 685 167 685 L167 685 Z M151 4 L279 604 C284 628 263 641 242 641 C217 641 184 624 178 597 L51 -4 C46 -28 66 -41 88 -41 C112 -41 146 -24 151 4 L151 4 Z " />
<glyph glyph-name="imacron" unicode="&#x12b;" horiz-adv-x="202" d="M130 510 L280 510 C304 510 338 526 343 554 C348 578 328 591 306 591 L156 591 C132 591 98 574 93 547 C88 523 108 510 130 510 L130 510 Z M136 397 L51 -4 C46 -28 66 -41 88 -41 C112 -41 146 -24 151 4 L236 404 C242 428 221 441 199 441 C175 441 141 424 136 397 L136 397 Z " />
<glyph glyph-name="Ibreve" unicode="&#x12c;" horiz-adv-x="202" d="M232 660 C300 660 375 705 391 779 C396 803 375 816 354 816 C343 816 331 813 320 807 C277 783 296 741 258 741 C218 741 271 816 204 816 C179 816 146 799 140 772 C126 705 166 660 232 660 L232 660 Z M151 4 L279 604 C284 628 263 641 242 641 C217 641 184 624 178 597 L51 -4 C46 -28 66 -41 88 -41 C112 -41 146 -24 151 4 L151 4 Z " />
<glyph glyph-name="ibreve" unicode="&#x12d;" horiz-adv-x="202" d="M195 485 C263 485 338 530 354 604 C359 628 338 641 317 641 C306 641 294 638 283 632 C240 608 259 566 221 566 C181 566 234 641 167 641 C142 641 109 624 103 597 C89 530 129 485 195 485 L195 485 Z M136 397 L51 -4 C46 -28 66 -41 88 -41 C112 -41 146 -24 151 4 L236 404 C242 428 221 441 199 441 C175 441 141 424 136 397 L136 397 Z " />
<glyph glyph-name="Iogonek" unicode="&#x12e;" horiz-adv-x="202" d="M151 4 L279 604 C284 628 263 641 242 641 C217 641 184 624 178 597 L57 27 C25 11 -2 -17 -10 -54 L-21 -104 C-32 -157 5 -191 56 -191 C110 -191 168 -153 180 -97 C185 -73 164 -60 143 -60 C119 -60 88 -75 80 -101 C80 -99 80 -97 81 -95 L90 -48 C91 -46 92 -43 93 -40 C98 -40 103 -39 107 -37 C126 -33 147 -16 151 4 L151 4 Z " />
<glyph glyph-name="iogonek" unicode="&#x12f;" horiz-adv-x="201" d="M267 554 L278 604 C283 628 262 641 241 641 C217 641 183 624 177 597 L167 547 C162 523 182 510 204 510 C228 510 262 526 267 554 L267 554 Z M150 4 L236 404 C241 428 220 441 198 441 C174 441 141 424 135 397 L56 28 C23 12 -4 -16 -12 -54 L-23 -104 C-34 -157 3 -191 54 -191 C108 -191 166 -153 178 -97 C183 -73 162 -60 141 -60 C117 -60 86 -75 78 -101 C78 -99 78 -97 79 -95 L88 -48 C89 -46 90 -43 91 -40 C115 -38 145 -22 150 4 L150 4 Z " />
<glyph glyph-name="Idotaccent" unicode="&#x130;" horiz-adv-x="202" d="M215 772 L199 697 C194 673 215 660 237 660 C261 660 294 676 300 704 L316 779 C321 803 300 816 279 816 C254 816 221 799 215 772 L215 772 Z M151 4 L279 604 C284 628 263 641 242 641 C217 641 184 624 178 597 L51 -4 C46 -28 66 -41 88 -41 C112 -41 146 -24 151 4 L151 4 Z " />
<glyph glyph-name="dotlessi" unicode="&#x131;" horiz-adv-x="202" d="M136 397 L51 -4 C46 -28 66 -41 88 -41 C112 -41 146 -24 151 4 L236 404 C242 428 221 441 199 441 C175 441 141 424 136 397 L136 397 Z " />
<glyph glyph-name="IJ" unicode="&#x132;" horiz-adv-x="452" d="M239 41 C196 41 177 66 176 107 C176 116 179 126 179 136 C178 156 160 166 141 166 C116 166 83 149 77 122 C73 103 73 84 76 66 C86 -7 138 -41 213 -41 C313 -41 407 30 428 129 L529 604 C534 628 513 641 492 641 C471 641 447 630 434 611 C429 602 424 580 422 570 C391 425 361 279 330 134 C320 86 295 41 239 41 L239 41 Z M104 247 C104 223 128 210 149 210 C208 210 208 269 217 311 L269 556 C273 572 279 587 279 604 C279 628 255 641 234 641 C175 641 176 582 166 539 L114 294 C111 278 104 263 104 247 L104 247 Z " />
<glyph glyph-name="ij" unicode="&#x133;" horiz-adv-x="453" d="M413 522 C413 498 437 485 458 485 C480 485 502 496 510 516 C515 527 529 593 529 604 C529 628 505 641 484 641 C462 641 440 629 432 609 C428 597 413 533 413 522 L413 522 Z M163 522 C163 498 187 485 208 485 C230 485 252 496 260 516 C265 527 279 593 279 604 C279 628 255 641 234 641 C212 641 190 629 182 609 C178 597 163 533 163 522 L163 522 Z M188 -160 C148 -160 132 -138 132 -100 C132 -90 135 -81 135 -72 C135 -48 111 -35 90 -35 C68 -35 44 -47 37 -68 C33 -80 33 -95 33 -108 C33 -195 95 -241 178 -241 C271 -241 343 -189 376 -103 C390 -67 395 -28 403 10 L472 334 C476 357 486 381 486 404 C486 428 462 441 441 441 C422 441 404 432 393 417 C385 405 375 348 372 330 L295 -31 C292 -45 290 -60 285 -74 C271 -121 240 -160 188 -160 L188 -160 Z M72 97 C72 73 96 60 117 60 C173 60 174 110 182 151 L227 360 C230 375 236 389 236 404 C236 428 212 441 191 441 C135 441 134 391 126 349 L81 140 C78 125 72 111 72 97 L72 97 Z " />
<glyph glyph-name="Jcircumflex" unicode="&#x134;" horiz-adv-x="426" d="M473 711 C489 690 504 660 536 660 C560 660 593 677 599 704 C600 710 600 716 597 722 C595 728 534 804 529 808 C521 813 512 816 503 816 C492 816 481 813 470 807 C460 802 367 726 359 717 C354 711 350 704 348 697 C343 673 364 660 386 660 C420 660 447 689 473 711 L473 711 Z M213 41 C170 41 151 66 150 107 C150 116 153 126 153 136 C152 156 134 166 115 166 C90 166 57 149 51 122 C47 103 47 84 50 66 C60 -7 112 -41 187 -41 C287 -41 381 30 402 129 L503 604 C508 628 487 641 466 641 C445 641 421 630 408 611 C403 602 398 580 396 570 C365 425 335 279 304 134 C294 86 269 41 213 41 L213 41 Z " />
<glyph glyph-name="jcircumflex" unicode="&#x135;" horiz-adv-x="302" d="M312 536 C328 515 343 485 375 485 C399 485 432 502 438 529 C439 535 439 541 436 547 C434 553 373 629 368 633 C360 638 351 641 342 641 C331 641 320 638 309 632 C299 627 206 551 198 542 C193 536 189 529 187 522 C182 498 203 485 225 485 C259 485 286 514 312 536 L312 536 Z M235 -72 L336 404 C342 428 321 441 299 441 C275 441 244 425 236 398 C232 386 230 373 227 360 C197 219 168 78 138 -63 C133 -87 125 -112 107 -133 C80 -164 66 -154 33 -161 C12 -165 -12 -181 -17 -204 C-22 -228 -1 -241 20 -241 C99 -241 170 -203 213 -127 C223 -110 232 -90 235 -72 L235 -72 Z " />
<glyph glyph-name="uni0136" unicode="&#x136;" horiz-adv-x="552" d="M151 4 L231 380 C242 385 252 390 261 395 C293 303 324 211 355 119 L388 21 C393 6 395 -12 404 -25 C411 -36 424 -41 438 -41 C462 -41 496 -24 501 4 C503 9 502 14 501 19 C491 54 479 88 467 122 C443 194 418 265 394 337 L361 435 C360 439 359 442 358 446 L458 496 L556 547 C581 559 622 573 629 604 C634 628 613 641 592 641 C563 641 507 606 478 591 L252 476 L279 604 C284 628 263 641 242 641 C217 641 184 624 178 597 L51 -4 C46 -28 66 -41 88 -41 C112 -41 146 -24 151 4 L151 4 Z M351 4 C356 28 336 41 314 41 L264 41 C240 41 206 24 201 -4 C196 -25 213 -39 233 -40 C219 -70 163 -182 158 -204 C153 -228 174 -241 195 -241 C222 -241 240 -227 255 -207 C265 -190 349 -7 351 4 L351 4 Z " />
<glyph glyph-name="uni0137" unicode="&#x137;" horiz-adv-x="451" d="M150 4 L208 275 C221 280 234 285 246 290 C255 236 277 105 291 30 C284 37 273 41 262 41 L212 41 C188 41 154 24 149 -4 C144 -25 161 -39 181 -40 C167 -70 111 -182 106 -204 C101 -228 122 -241 143 -241 C170 -241 188 -227 203 -207 C212 -191 285 -34 298 -2 C300 -15 302 -22 302 -23 C310 -35 321 -41 337 -41 C361 -41 395 -24 400 4 C401 7 401 11 401 14 C399 39 360 260 347 328 L403 348 C421 355 442 360 459 370 C471 378 483 390 486 404 C491 428 470 441 448 441 C442 441 435 439 428 437 C388 426 348 408 309 393 L227 363 L278 604 C283 628 262 641 241 641 C217 641 183 624 177 597 L50 -4 C45 -28 65 -41 87 -41 C111 -41 145 -24 150 4 L150 4 Z " />
<glyph glyph-name="kgreenlandic" unicode="&#x138;" horiz-adv-x="452" d="M151 4 L201 237 L206 240 C210 230 214 220 216 215 L291 10 C300 -16 302 -41 338 -41 C362 -41 396 -24 401 4 C405 20 385 63 379 79 L304 284 C303 286 303 287 302 289 L407 343 C433 356 480 372 486 404 C492 428 471 441 449 441 C426 441 406 427 384 416 L221 332 L236 404 C242 428 221 441 199 441 C175 441 141 424 136 397 L51 -4 C46 -28 66 -41 88 -41 C112 -41 146 -24 151 4 L151 4 Z " />
<glyph glyph-name="Lacute" unicode="&#x139;" horiz-adv-x="502" d="M299 697 C294 673 315 660 336 660 C347 660 358 663 369 668 C379 673 472 749 480 758 C485 764 489 771 491 779 C496 803 475 816 453 816 C443 816 431 813 421 807 C411 802 318 726 310 717 C305 711 301 704 299 697 L299 697 Z M159 41 L275 584 C277 594 281 607 279 616 C276 633 259 641 242 641 C217 641 184 624 178 597 L51 -4 C46 -28 66 -41 88 -41 L388 -41 C412 -41 446 -24 451 4 C455 20 446 32 432 37 C415 44 356 41 333 41 L159 41 Z " />
<glyph glyph-name="lacute" unicode="&#x13a;" horiz-adv-x="201" d="M155 672 C150 648 171 635 192 635 C203 635 214 638 225 643 C235 648 328 724 336 733 C341 739 345 746 347 754 C352 778 331 791 309 791 C299 791 287 788 277 782 C267 777 174 701 166 692 C161 686 157 679 155 672 L155 672 Z M150 4 L278 604 C283 628 262 641 241 641 C217 641 183 624 177 597 L50 -4 C45 -28 65 -41 87 -41 C111 -41 145 -24 150 4 L150 4 Z " />
<glyph glyph-name="uni013B" unicode="&#x13b;" horiz-adv-x="502" d="M159 41 L275 584 C277 594 281 607 279 616 C276 633 259 641 242 641 C217 641 184 624 178 597 L51 -4 C46 -28 66 -41 88 -41 L208 -41 C193 -71 138 -182 133 -204 C128 -228 149 -241 170 -241 C197 -241 215 -227 230 -207 C237 -195 282 -98 308 -40 L388 -41 C412 -41 446 -24 451 4 C455 20 446 32 432 37 C415 44 356 41 333 41 L159 41 Z " />
<glyph glyph-name="uni013C" unicode="&#x13c;" horiz-adv-x="201" d="M174 4 C178 20 170 31 157 36 L278 604 C283 628 262 641 241 641 C217 641 183 624 177 597 L58 34 C41 26 27 13 24 -4 C19 -25 36 -39 56 -40 C42 -70 -14 -182 -19 -204 C-24 -228 -3 -241 18 -241 C45 -241 63 -227 78 -207 C88 -190 172 -7 174 4 L174 4 Z " />
<glyph glyph-name="Lcaron" unicode="&#x13d;" horiz-adv-x="502" d="M159 41 L275 584 C277 594 281 607 279 616 C276 633 259 641 242 641 C217 641 184 624 178 597 L51 -4 C46 -28 66 -41 88 -41 L388 -41 C412 -41 446 -24 451 4 C455 20 446 32 432 37 C415 44 356 41 333 41 L159 41 Z M529 604 C534 628 514 641 492 641 L442 641 C418 641 384 624 379 597 C374 575 391 561 411 560 C397 530 341 418 336 397 C331 373 352 360 373 360 C401 360 418 372 433 393 C443 411 527 593 529 604 L529 604 Z " />
<glyph glyph-name="lcaron" unicode="&#x13e;" horiz-adv-x="201" d="M150 4 L278 604 C283 628 262 641 241 641 C217 641 183 624 177 597 L50 -4 C45 -28 65 -41 87 -41 C111 -41 145 -24 150 4 L150 4 Z M448 604 C453 628 433 641 411 641 L361 641 C337 641 303 624 298 597 C293 575 310 561 330 560 C316 530 260 418 255 397 C250 373 271 360 292 360 C320 360 337 372 352 393 C362 411 446 593 448 604 L448 604 Z " />
<glyph glyph-name="Ldot" unicode="&#x13f;" horiz-adv-x="502" d="M159 41 L275 584 C277 594 281 607 279 616 C276 633 259 641 242 641 C217 641 184 624 178 597 L51 -4 C46 -28 66 -41 88 -41 L388 -41 C412 -41 446 -24 451 4 C455 20 446 32 432 37 C415 44 356 41 333 41 L159 41 Z M316 597 L300 522 C295 498 316 485 338 485 C362 485 395 501 401 529 L417 604 C422 628 401 641 380 641 C355 641 322 624 316 597 L316 597 Z " />
<glyph glyph-name="ldot" unicode="&#x140;" horiz-adv-x="310" d="M150 4 L278 604 C283 628 262 641 241 641 C217 641 183 624 177 597 L50 -4 C45 -28 65 -41 87 -41 C111 -41 145 -24 150 4 L150 4 Z M228 322 C228 298 252 285 273 285 C295 285 317 296 325 316 C330 327 344 393 344 404 C344 428 320 441 299 441 C277 441 255 429 247 409 C243 397 228 333 228 322 L228 322 Z " />
<glyph glyph-name="Lslash" unicode="&#x141;" horiz-adv-x="576" d="M233 41 L284 278 C323 301 358 323 360 325 C368 333 374 342 374 354 C374 378 350 391 329 391 C321 391 314 389 307 387 L349 584 C351 594 355 607 353 616 C350 633 333 641 316 641 C291 641 258 624 252 597 L194 322 C155 299 119 277 117 275 C109 267 103 258 103 247 C103 223 127 210 148 210 C156 210 164 211 171 214 L125 -4 C120 -28 140 -41 162 -41 L462 -41 C486 -41 520 -24 525 4 C529 20 520 32 506 37 C489 44 430 41 407 41 L233 41 Z " />
<glyph glyph-name="lslash" unicode="&#x142;" horiz-adv-x="351" d="M226 4 L285 280 C324 303 359 325 361 327 C369 335 375 344 375 356 C375 380 351 393 330 393 C322 393 315 391 308 389 L354 604 C359 628 338 641 317 641 C293 641 259 624 253 597 L195 324 C155 300 119 277 117 275 C109 267 103 258 103 247 C103 223 127 210 148 210 C157 210 164 211 172 214 L126 -4 C121 -28 141 -41 163 -41 C187 -41 221 -24 226 4 L226 4 Z " />
<glyph glyph-name="Nacute" unicode="&#x143;" horiz-adv-x="552" d="M374 697 C369 673 390 660 411 660 C422 660 433 663 444 668 C454 673 547 749 555 758 C560 764 564 771 566 779 C571 803 550 816 528 816 C518 816 506 813 496 807 C486 802 393 726 385 717 C380 711 376 704 374 697 L374 697 Z M242 641 C217 641 184 624 178 597 L51 -4 C46 -28 66 -41 88 -41 C109 -41 135 -29 146 -9 C154 4 159 41 163 57 L259 508 L464 336 C467 333 469 331 471 329 L401 -4 C396 -28 416 -41 438 -41 C462 -41 496 -24 501 4 L576 353 C576 354 576 354 576 354 L629 604 C634 628 613 641 592 641 C567 641 534 624 528 597 L495 442 L314 594 C298 608 284 623 266 634 C259 638 251 641 242 641 L242 641 Z " />
<glyph glyph-name="nacute" unicode="&#x144;" horiz-adv-x="451" d="M285 522 C280 498 301 485 322 485 C333 485 344 488 355 493 C365 498 458 574 466 583 C471 589 475 596 477 604 C482 628 461 641 439 641 C429 641 417 638 407 632 C397 627 304 551 296 542 C291 536 287 529 285 522 L285 522 Z M400 4 L459 279 C463 297 463 317 461 334 C450 407 398 441 323 441 L198 441 C174 441 141 424 135 397 L50 -4 C45 -28 65 -41 87 -41 C107 -41 132 -30 144 -11 C155 6 170 96 175 120 L226 360 L296 360 C390 360 355 255 341 190 C328 127 314 64 301 2 C295 -26 311 -41 337 -41 C361 -41 395 -24 400 4 L400 4 Z " />
<glyph glyph-name="uni0145" unicode="&#x145;" horiz-adv-x="552" d="M242 641 C217 641 184 624 178 597 L51 -4 C46 -28 66 -41 88 -41 C109 -41 135 -29 146 -9 C154 4 159 41 163 57 L259 508 L464 336 C467 333 469 331 471 329 L401 -4 C396 -28 416 -41 438 -41 C462 -41 496 -24 501 4 L576 353 C576 354 576 354 576 354 L629 604 C634 628 613 641 592 641 C567 641 534 624 528 597 L495 442 L314 594 C298 608 284 623 266 634 C259 638 251 641 242 641 L242 641 Z M351 4 C356 28 336 41 314 41 L264 41 C240 41 206 24 201 -4 C196 -25 213 -39 233 -40 C219 -70 163 -182 158 -204 C153 -228 174 -241 195 -241 C222 -241 240 -227 255 -207 C265 -190 349 -7 351 4 L351 4 Z " />
<glyph glyph-name="uni0146" unicode="&#x146;" horiz-adv-x="451" d="M400 4 L459 279 C463 297 463 317 461 334 C450 407 398 441 323 441 L198 441 C174 441 141 424 135 397 L50 -4 C45 -28 65 -41 87 -41 C107 -41 132 -30 144 -11 C155 6 170 96 175 120 L226 360 L296 360 C390 360 355 255 341 190 C328 127 314 64 301 2 C295 -26 311 -41 337 -41 C361 -41 395 -24 400 4 L400 4 Z M299 4 C304 28 284 41 262 41 L212 41 C188 41 154 24 149 -4 C144 -25 161 -39 181 -40 C167 -70 111 -182 106 -204 C101 -228 122 -241 143 -241 C170 -241 188 -227 203 -207 C213 -190 297 -7 299 4 L299 4 Z " />
<glyph glyph-name="Ncaron" unicode="&#x147;" horiz-adv-x="552" d="M412 660 C422 660 434 663 444 668 C454 673 547 749 555 758 C560 764 564 771 566 779 C571 803 550 816 529 816 C495 816 468 786 441 764 C425 785 410 816 379 816 C354 816 321 799 315 772 C314 765 315 759 317 753 C319 747 380 671 386 667 C393 662 402 660 412 660 L412 660 Z M242 641 C217 641 184 624 178 597 L51 -4 C46 -28 66 -41 88 -41 C109 -41 135 -29 146 -9 C154 4 159 41 163 57 L259 508 L464 336 C467 333 469 331 471 329 L401 -4 C396 -28 416 -41 438 -41 C462 -41 496 -24 501 4 L576 353 C576 354 576 354 576 354 L629 604 C634 628 613 641 592 641 C567 641 534 624 528 597 L495 442 L314 594 C298 608 284 623 266 634 C259 638 251 641 242 641 L242 641 Z " />
<glyph glyph-name="ncaron" unicode="&#x148;" horiz-adv-x="451" d="M323 485 C333 485 345 488 355 493 C365 498 458 574 466 583 C471 589 475 596 477 604 C482 628 461 641 440 641 C406 641 379 611 352 589 C336 610 321 641 290 641 C265 641 232 624 226 597 C225 590 226 584 228 578 C230 572 291 496 297 492 C304 487 313 485 323 485 L323 485 Z M400 4 L459 279 C463 297 463 317 461 334 C450 407 398 441 323 441 L198 441 C174 441 141 424 135 397 L50 -4 C45 -28 65 -41 87 -41 C107 -41 132 -30 144 -11 C155 6 170 96 175 120 L226 360 L296 360 C390 360 355 255 341 190 C328 127 314 64 301 2 C295 -26 311 -41 337 -41 C361 -41 395 -24 400 4 L400 4 Z " />
<glyph glyph-name="napostrophe" unicode="&#x149;" horiz-adv-x="451" d="M201 604 C206 628 186 641 164 641 L114 641 C90 641 56 624 51 597 C46 575 63 561 83 560 C69 530 13 418 8 397 C3 373 24 360 45 360 C73 360 90 372 105 393 C115 411 199 593 201 604 L201 604 Z M400 4 L459 279 C463 297 463 317 461 334 C450 407 398 441 323 441 L198 441 C174 441 141 424 135 397 L50 -4 C45 -28 65 -41 87 -41 C107 -41 132 -30 144 -11 C155 6 170 96 175 120 L226 360 L296 360 C390 360 355 255 341 190 C328 127 314 64 301 2 C295 -26 311 -41 337 -41 C361 -41 395 -24 400 4 L400 4 Z " />
<glyph glyph-name="Eng" unicode="&#x14a;" horiz-adv-x="552" d="M242 641 C217 641 184 624 178 597 L51 -4 C46 -28 66 -41 88 -41 C109 -41 135 -29 146 -9 C154 4 159 41 163 57 L259 508 L464 336 C466 334 468 332 471 330 C453 249 437 168 420 87 L401 -4 C400 -5 400 -7 400 -8 C396 -26 392 -45 388 -63 C383 -87 375 -112 357 -133 C330 -164 316 -154 283 -161 C262 -165 238 -181 233 -204 C228 -228 249 -241 270 -241 C349 -241 420 -203 463 -127 C473 -110 482 -90 485 -72 L501 2 C501 3 501 3 501 4 L576 353 C576 354 576 354 576 354 L629 604 C634 628 613 641 592 641 C567 641 534 624 528 597 L495 442 L314 594 C298 608 284 623 266 634 C259 638 251 641 242 641 L242 641 Z " />
<glyph glyph-name="eng" unicode="&#x14b;" horiz-adv-x="453" d="M461 308 C461 395 399 441 316 441 L191 441 C171 441 151 431 141 414 C135 403 51 2 51 -4 C51 -28 75 -41 96 -41 C116 -41 134 -32 145 -16 C154 -1 170 92 175 115 L227 360 L306 360 C346 360 362 339 362 300 C362 271 353 243 347 215 L339 176 C332 149 324 110 317 72 L314 61 C310 40 301 18 301 -4 C295 -36 289 -61 285 -74 C280 -93 271 -110 259 -125 C216 -179 172 -143 143 -179 C137 -186 133 -194 133 -204 C133 -228 157 -241 178 -241 C270 -241 343 -188 376 -103 C384 -82 388 -59 393 -36 L400 -4 C409 28 415 60 421 93 L434 157 C437 171 442 184 443 198 C449 225 455 252 459 279 C461 288 461 298 461 308 L461 308 Z " />
<glyph glyph-name="Omacron" unicode="&#x14c;" horiz-adv-x="551" d="M341 685 L491 685 C515 685 549 701 554 729 C559 753 539 766 517 766 L367 766 C343 766 309 749 304 722 C299 698 319 685 341 685 L341 685 Z M538 179 L591 429 C596 454 596 479 593 503 C580 597 512 641 416 641 C316 641 224 593 170 496 C157 472 145 447 140 422 L87 172 C82 146 82 121 85 97 C98 4 165 -41 262 -41 C394 -41 508 51 538 179 L538 179 Z M438 176 C433 163 431 151 425 138 C399 76 353 41 288 41 C227 41 194 69 187 127 C184 143 184 162 188 180 L241 428 C244 446 252 464 262 480 C292 535 332 560 389 560 C486 560 504 485 486 400 C471 330 455 261 441 192 C439 186 438 181 438 176 L438 176 Z " />
<glyph glyph-name="omacron" unicode="&#x14d;" horiz-adv-x="451" d="M253 510 L403 510 C427 510 461 526 466 554 C471 578 451 591 429 591 L279 591 C255 591 221 574 216 547 C211 523 231 510 253 510 L253 510 Z M75 66 C85 -7 137 -41 212 -41 C312 -41 406 30 427 129 L459 279 C463 297 463 316 461 334 C451 407 398 441 323 441 C223 441 130 370 108 272 L76 122 C72 103 72 84 75 66 L75 66 Z M297 360 C348 360 368 319 358 271 L326 122 C324 110 318 98 312 87 C294 55 272 41 238 41 C178 41 168 90 180 143 C189 185 199 227 207 269 C208 272 208 274 209 277 C222 322 244 360 297 360 L297 360 Z " />
<glyph glyph-name="Obreve" unicode="&#x14e;" horiz-adv-x="551" d="M406 660 C474 660 549 705 565 779 C570 803 549 816 528 816 C517 816 505 813 494 807 C451 783 470 741 432 741 C392 741 445 816 378 816 C353 816 320 799 314 772 C300 705 340 660 406 660 L406 660 Z M538 179 L591 429 C596 454 596 479 593 503 C580 597 512 641 416 641 C316 641 224 593 170 496 C157 472 145 447 140 422 L87 172 C82 146 82 121 85 97 C98 4 165 -41 262 -41 C394 -41 508 51 538 179 L538 179 Z M438 176 C433 163 431 151 425 138 C399 76 353 41 288 41 C227 41 194 69 187 127 C184 143 184 162 188 180 L241 428 C244 446 252 464 262 480 C292 535 332 560 389 560 C486 560 504 485 486 400 C471 330 455 261 441 192 C439 186 438 181 438 176 L438 176 Z " />
<glyph glyph-name="obreve" unicode="&#x14f;" horiz-adv-x="451" d="M318 485 C386 485 461 530 477 604 C482 628 461 641 440 641 C429 641 417 638 406 632 C363 608 382 566 344 566 C304 566 357 641 290 641 C265 641 232 624 226 597 C212 530 252 485 318 485 L318 485 Z M75 66 C85 -7 137 -41 212 -41 C312 -41 406 30 427 129 L459 279 C463 297 463 316 461 334 C451 407 398 441 323 441 C223 441 130 370 108 272 L76 122 C72 103 72 84 75 66 L75 66 Z M297 360 C348 360 368 319 358 271 L326 122 C324 110 318 98 312 87 C294 55 272 41 238 41 C178 41 168 90 180 143 C189 185 199 227 207 269 C208 272 208 274 209 277 C222 322 244 360 297 360 L297 360 Z " />
<glyph glyph-name="Ohungarumlaut" unicode="&#x150;" horiz-adv-x="551" d="M285 697 C280 673 301 660 322 660 C333 660 344 663 355 668 C365 673 458 749 466 758 C471 764 475 771 477 779 C482 803 461 816 439 816 C429 816 417 813 407 807 C397 802 304 726 296 717 C291 711 287 704 285 697 L285 697 Z M460 697 C455 673 476 660 497 660 C508 660 519 663 530 668 C540 673 633 749 641 758 C646 764 650 771 652 779 C657 803 636 816 614 816 C604 816 592 813 582 807 C572 802 479 726 471 717 C466 711 462 704 460 697 L460 697 Z M538 179 L591 429 C596 454 596 479 593 503 C580 597 512 641 416 641 C316 641 224 593 170 496 C157 472 145 447 140 422 L87 172 C82 146 82 121 85 97 C98 4 165 -41 262 -41 C394 -41 508 51 538 179 L538 179 Z M438 176 C433 163 431 151 425 138 C399 76 353 41 288 41 C227 41 194 69 187 127 C184 143 184 162 188 180 L241 428 C244 446 252 464 262 480 C292 535 332 560 389 560 C486 560 504 485 486 400 C471 330 455 261 441 192 C439 186 438 181 438 176 L438 176 Z " />
<glyph glyph-name="ohungarumlaut" unicode="&#x151;" horiz-adv-x="451" d="M197 522 C192 498 213 485 234 485 C245 485 256 488 267 493 C277 498 370 574 378 583 C383 589 387 596 389 604 C394 628 373 641 351 641 C341 641 329 638 319 632 C309 627 216 551 208 542 C203 536 199 529 197 522 L197 522 Z M372 522 C367 498 388 485 409 485 C420 485 431 488 442 493 C452 498 545 574 553 583 C558 589 562 596 564 604 C569 628 548 641 526 641 C516 641 504 638 494 632 C484 627 391 551 383 542 C378 536 374 529 372 522 L372 522 Z M75 66 C85 -7 137 -41 212 -41 C312 -41 406 30 427 129 L459 279 C463 297 463 316 461 334 C451 407 398 441 323 441 C223 441 130 370 108 272 L76 122 C72 103 72 84 75 66 L75 66 Z M297 360 C348 360 368 319 358 271 L326 122 C324 110 318 98 312 87 C294 55 272 41 238 41 C178 41 168 90 180 143 C189 185 199 227 207 269 C208 272 208 274 209 277 C222 322 244 360 297 360 L297 360 Z " />
<glyph glyph-name="OE" unicode="&#x152;" horiz-adv-x="851" d="M538 179 L576 360 L697 360 C721 360 755 376 760 404 C766 428 745 441 723 441 L593 441 L619 560 C692 560 766 559 840 559 C873 559 920 564 928 604 C933 628 912 641 891 641 L591 641 C570 641 544 629 532 609 C502 630 462 641 416 641 C316 641 224 593 170 496 C157 472 145 447 140 422 L87 172 C82 146 82 121 85 97 C98 4 165 -41 262 -41 C320 -41 375 -25 421 8 C436 -23 470 -41 512 -41 L737 -41 C761 -41 795 -24 800 4 C808 38 770 42 743 42 C680 42 616 40 553 40 C524 40 510 48 517 80 L537 177 C537 178 538 178 538 179 L538 179 Z M438 175 C433 163 430 150 425 138 C399 76 353 41 288 41 C227 41 194 69 187 127 C184 143 184 162 188 180 L241 428 C244 446 252 464 262 480 C292 535 332 560 389 560 C478 560 501 497 490 421 L462 288 C454 256 447 223 441 192 C439 186 439 182 438 177 L438 175 Z " />
<glyph glyph-name="oe" unicode="&#x153;" horiz-adv-x="699" d="M614 304 C606 267 578 240 541 240 C520 240 501 243 482 225 C476 219 471 211 470 204 C463 171 496 160 524 160 C588 160 644 175 686 238 C698 256 707 276 712 297 C716 317 715 338 711 356 C696 420 644 441 578 441 C524 441 475 431 434 398 C410 427 371 441 323 441 C223 441 130 370 108 272 L76 122 C72 103 72 84 75 66 C85 -7 137 -41 212 -41 C263 -41 312 -24 351 8 C377 -24 418 -41 470 -41 L520 -41 C541 -41 568 -28 573 -4 C580 30 546 41 519 41 C507 41 495 40 483 40 C455 40 436 47 427 73 C423 84 422 100 423 114 C425 119 426 124 427 129 L459 279 C459 280 460 282 460 284 C483 341 511 360 574 360 C583 360 596 360 602 355 C614 344 618 321 614 304 L614 304 Z M297 360 C342 360 364 327 360 285 C360 283 359 281 359 279 L327 129 C318 82 291 41 238 41 C178 41 168 90 180 143 C189 185 199 227 207 269 C208 272 208 274 209 277 C222 322 244 360 297 360 L297 360 Z " />
<glyph glyph-name="Racute" unicode="&#x154;" horiz-adv-x="526" d="M373 697 C368 673 389 660 410 660 C421 660 432 663 443 668 C453 673 546 749 554 758 C559 764 563 771 565 779 C570 803 549 816 527 816 C517 816 505 813 495 807 C485 802 392 726 384 717 C379 711 375 704 373 697 L373 697 Z M371 310 C466 313 557 385 577 479 C581 497 581 517 578 534 C568 607 516 641 441 641 L241 641 C217 641 183 624 178 597 L50 -4 C45 -28 66 -41 87 -41 C108 -41 134 -29 146 -9 C153 4 160 46 163 62 L269 560 L414 560 C452 560 472 542 477 506 C478 495 478 483 476 471 C473 457 465 441 457 428 C434 395 412 391 378 391 L324 391 C296 391 257 381 249 347 C246 330 270 274 277 256 L364 14 C373 -13 375 -41 412 -41 C437 -41 470 -24 476 4 C477 8 477 13 476 17 C474 28 468 38 465 48 L371 310 Z " />
<glyph glyph-name="racute" unicode="&#x155;" horiz-adv-x="326" d="M235 522 C230 498 251 485 272 485 C283 485 294 488 305 493 C315 498 408 574 416 583 C421 589 425 596 427 604 C432 628 411 641 389 641 C379 641 367 638 357 632 C347 627 254 551 246 542 C241 536 237 529 235 522 L235 522 Z M108 272 L50 -4 C45 -28 65 -41 87 -41 C108 -41 131 -30 144 -11 C151 -1 162 56 165 67 C177 125 188 182 200 239 C206 270 212 302 233 329 C273 379 308 343 346 379 C353 386 359 395 361 404 C366 428 345 441 323 441 C223 441 130 370 108 272 L108 272 Z " />
<glyph glyph-name="uni0156" unicode="&#x156;" horiz-adv-x="526" d="M371 310 C466 313 557 385 577 479 C581 497 581 517 578 534 C568 607 516 641 441 641 L241 641 C217 641 183 624 178 597 L50 -4 C45 -28 66 -41 87 -41 C108 -41 134 -29 146 -9 C153 4 160 46 163 62 L269 560 L414 560 C452 560 472 542 477 506 C478 495 478 483 476 471 C473 457 465 441 457 428 C434 395 412 391 378 391 L324 391 C296 391 257 381 249 347 C246 330 270 274 277 256 L364 14 C373 -13 375 -41 412 -41 C437 -41 470 -24 476 4 C477 8 477 13 476 17 C474 28 468 38 465 48 L371 310 Z M337 4 C342 28 322 41 300 41 L250 41 C226 41 192 24 187 -4 C182 -25 199 -39 219 -40 C205 -70 149 -182 144 -204 C139 -228 160 -241 181 -241 C208 -241 226 -227 241 -207 C251 -190 335 -7 337 4 L337 4 Z " />
<glyph glyph-name="uni0157" unicode="&#x157;" horiz-adv-x="326" d="M108 272 L58 34 C41 26 27 13 24 -4 C19 -25 36 -39 56 -40 C42 -70 -14 -182 -19 -204 C-24 -228 -3 -241 18 -241 C45 -241 63 -227 78 -207 C88 -190 172 -7 174 4 C178 19 170 30 158 36 C161 50 164 62 165 67 C177 125 188 182 200 239 C206 270 212 302 233 329 C273 379 308 343 346 379 C353 386 359 395 361 404 C366 428 345 441 323 441 C223 441 130 370 108 272 L108 272 Z " />
<glyph glyph-name="Rcaron" unicode="&#x158;" horiz-adv-x="526" d="M398 660 C408 660 420 663 430 668 C440 673 533 749 541 758 C546 764 550 771 552 779 C557 803 536 816 515 816 C481 816 454 786 427 764 C411 785 396 816 365 816 C340 816 307 799 301 772 C300 765 301 759 303 753 C305 747 366 671 372 667 C379 662 388 660 398 660 L398 660 Z M371 310 C466 313 557 385 577 479 C581 497 581 517 578 534 C568 607 516 641 441 641 L241 641 C217 641 183 624 178 597 L50 -4 C45 -28 66 -41 87 -41 C108 -41 134 -29 146 -9 C153 4 160 46 163 62 L269 560 L414 560 C452 560 472 542 477 506 C478 495 478 483 476 471 C473 457 465 441 457 428 C434 395 412 391 378 391 L324 391 C296 391 257 381 249 347 C246 330 270 274 277 256 L364 14 C373 -13 375 -41 412 -41 C437 -41 470 -24 476 4 C477 8 477 13 476 17 C474 28 468 38 465 48 L371 310 Z " />
<glyph glyph-name="rcaron" unicode="&#x159;" horiz-adv-x="326" d="M248 485 C258 485 270 488 280 493 C290 498 383 574 391 583 C396 589 400 596 402 604 C407 628 386 641 365 641 C331 641 304 611 277 589 C261 610 246 641 215 641 C190 641 157 624 151 597 C150 590 151 584 153 578 C155 572 216 496 222 492 C229 487 238 485 248 485 L248 485 Z M108 272 L50 -4 C45 -28 65 -41 87 -41 C108 -41 131 -30 144 -11 C151 -1 162 56 165 67 C177 125 188 182 200 239 C206 270 212 302 233 329 C273 379 308 343 346 379 C353 386 359 395 361 404 C366 428 345 441 323 441 C223 441 130 370 108 272 L108 272 Z " />
<glyph glyph-name="Sacute" unicode="&#x15a;" horiz-adv-x="551" d="M372 697 C367 673 388 660 409 660 C420 660 431 663 442 668 C452 673 545 749 553 758 C558 764 562 771 564 779 C569 803 548 816 526 816 C516 816 504 813 494 807 C484 802 391 726 383 717 C378 711 374 704 372 697 L372 697 Z M262 -41 C394 -41 508 51 538 179 C546 217 542 259 530 292 C507 355 452 385 383 390 C336 393 291 380 278 434 C274 447 273 464 276 479 C279 493 287 508 295 521 C320 558 342 560 379 560 C431 560 474 548 477 492 C477 483 474 473 475 464 C477 445 494 436 513 436 C537 436 571 452 577 480 C582 503 579 529 573 550 C548 624 479 641 401 641 C294 641 199 579 176 472 C169 441 172 411 182 385 C205 321 264 310 331 310 C383 310 416 296 432 249 C440 228 442 196 437 171 C433 154 425 136 416 120 C386 65 346 41 288 41 C219 41 186 79 185 145 C185 168 196 195 176 209 C169 213 160 216 150 216 C126 216 93 199 87 172 C82 146 82 121 85 97 C98 4 165 -41 262 -41 L262 -41 Z " />
<glyph glyph-name="sacute" unicode="&#x15b;" horiz-adv-x="427" d="M274 522 C269 498 290 485 311 485 C322 485 333 488 344 493 C354 498 447 574 455 583 C460 589 464 596 466 604 C471 628 450 641 428 641 C418 641 406 638 396 632 C386 627 293 551 285 542 C280 536 276 529 274 522 L274 522 Z M308 441 C227 441 148 394 129 310 C117 251 146 198 203 188 C231 182 265 191 286 171 C299 159 304 128 300 109 C292 73 265 41 226 41 C189 41 173 63 173 98 C173 107 176 116 175 125 C174 144 156 154 137 154 C113 154 80 137 74 110 C70 92 70 75 72 58 C81 -9 131 -41 200 -41 C293 -41 381 25 401 117 C417 193 375 253 302 264 C289 265 254 264 245 268 C230 277 226 299 230 317 C239 358 261 360 295 360 C365 360 293 273 367 273 C391 273 424 289 430 317 C442 371 416 421 366 435 C348 440 328 441 308 441 L308 441 Z " />
<glyph glyph-name="Scircumflex" unicode="&#x15c;" horiz-adv-x="551" d="M416 711 C432 690 447 660 479 660 C503 660 536 677 542 704 C543 710 543 716 540 722 C538 728 477 804 472 808 C464 813 455 816 446 816 C435 816 424 813 413 807 C403 802 310 726 302 717 C297 711 293 704 291 697 C286 673 307 660 329 660 C363 660 390 689 416 711 L416 711 Z M262 -41 C394 -41 508 51 538 179 C546 217 542 259 530 292 C507 355 452 385 383 390 C336 393 291 380 278 434 C274 447 273 464 276 479 C279 493 287 508 295 521 C320 558 342 560 379 560 C431 560 474 548 477 492 C477 483 474 473 475 464 C477 445 494 436 513 436 C537 436 571 452 577 480 C582 503 579 529 573 550 C548 624 479 641 401 641 C294 641 199 579 176 472 C169 441 172 411 182 385 C205 321 264 310 331 310 C383 310 416 296 432 249 C440 228 442 196 437 171 C433 154 425 136 416 120 C386 65 346 41 288 41 C219 41 186 79 185 145 C185 168 196 195 176 209 C169 213 160 216 150 216 C126 216 93 199 87 172 C82 146 82 121 85 97 C98 4 165 -41 262 -41 L262 -41 Z " />
<glyph glyph-name="scircumflex" unicode="&#x15d;" horiz-adv-x="427" d="M323 536 C339 515 354 485 386 485 C410 485 443 502 449 529 C450 535 450 541 447 547 C445 553 384 629 379 633 C371 638 362 641 353 641 C342 641 331 638 320 632 C310 627 217 551 209 542 C204 536 200 529 198 522 C193 498 214 485 236 485 C270 485 297 514 323 536 L323 536 Z M308 441 C227 441 148 394 129 310 C117 251 146 198 203 188 C231 182 265 191 286 171 C299 159 304 128 300 109 C292 73 265 41 226 41 C189 41 173 63 173 98 C173 107 176 116 175 125 C174 144 156 154 137 154 C113 154 80 137 74 110 C70 92 70 75 72 58 C81 -9 131 -41 200 -41 C293 -41 381 25 401 117 C417 193 375 253 302 264 C289 265 254 264 245 268 C230 277 226 299 230 317 C239 358 261 360 295 360 C365 360 293 273 367 273 C391 273 424 289 430 317 C442 371 416 421 366 435 C348 440 328 441 308 441 L308 441 Z " />
<glyph glyph-name="Scedilla" unicode="&#x15e;" horiz-adv-x="551" d="M257 -55 L247 -101 C247 -96 248 -91 248 -86 C246 -68 228 -60 210 -60 C186 -60 152 -76 146 -104 C135 -157 172 -191 223 -191 C277 -191 335 -153 347 -97 L358 -47 C359 -39 360 -31 360 -24 C448 7 517 89 538 179 C546 217 542 259 530 292 C507 355 452 385 383 390 C336 393 291 380 278 434 C274 447 273 464 276 479 C279 493 287 508 295 521 C320 558 342 560 379 560 C431 560 474 548 477 492 C477 483 474 473 475 464 C477 445 494 436 513 436 C537 436 571 452 577 480 C582 503 579 529 573 550 C548 624 479 641 401 641 C294 641 199 579 176 472 C169 441 172 411 182 385 C205 321 264 310 331 310 C383 310 416 296 432 249 C440 228 442 196 437 171 C433 154 425 136 416 120 C386 65 346 41 288 41 C219 41 186 79 185 145 C185 168 196 195 176 209 C169 213 160 216 150 216 C126 216 93 199 87 172 C82 146 82 121 85 97 C97 6 162 -38 255 -41 C257 -42 257 -52 257 -55 L257 -55 Z " />
<glyph glyph-name="scedilla" unicode="&#x15f;" horiz-adv-x="427" d="M308 441 C227 441 148 394 129 310 C117 251 146 198 203 188 C231 182 265 191 286 171 C299 159 304 128 300 109 C292 73 265 41 226 41 C189 41 173 63 173 98 C173 107 176 116 175 125 C174 144 156 154 137 154 C113 154 80 137 74 110 C70 92 70 75 72 58 C81 -8 130 -40 199 -41 C201 -42 201 -52 201 -55 L191 -101 C191 -96 192 -91 192 -86 C190 -68 172 -60 154 -60 C130 -60 96 -76 90 -104 C79 -157 116 -191 167 -191 C221 -191 279 -153 291 -97 L302 -47 C304 -35 304 -24 303 -14 C348 12 389 64 401 117 C417 193 375 253 302 264 C289 265 254 264 245 268 C230 277 226 299 230 317 C239 358 261 360 295 360 C365 360 293 273 367 273 C391 273 424 289 430 317 C442 371 416 421 366 435 C348 440 328 441 308 441 L308 441 Z " />
<glyph glyph-name="Scaron" unicode="&#x160;" horiz-adv-x="551" d="M411 660 C421 660 433 663 443 668 C453 673 546 749 554 758 C559 764 563 771 565 779 C570 803 549 816 528 816 C494 816 467 786 440 764 C424 785 409 816 378 816 C353 816 320 799 314 772 C313 765 314 759 316 753 C318 747 379 671 385 667 C392 662 401 660 411 660 L411 660 Z M262 -41 C394 -41 508 51 538 179 C546 217 542 259 530 292 C507 355 452 385 383 390 C336 393 291 380 278 434 C274 447 273 464 276 479 C279 493 287 508 295 521 C320 558 342 560 379 560 C431 560 474 548 477 492 C477 483 474 473 475 464 C477 445 494 436 513 436 C537 436 571 452 577 480 C582 503 579 529 573 550 C548 624 479 641 401 641 C294 641 199 579 176 472 C169 441 172 411 182 385 C205 321 264 310 331 310 C383 310 416 296 432 249 C440 228 442 196 437 171 C433 154 425 136 416 120 C386 65 346 41 288 41 C219 41 186 79 185 145 C185 168 196 195 176 209 C169 213 160 216 150 216 C126 216 93 199 87 172 C82 146 82 121 85 97 C98 4 165 -41 262 -41 L262 -41 Z " />
<glyph glyph-name="scaron" unicode="&#x161;" horiz-adv-x="427" d="M312 485 C322 485 334 488 344 493 C354 498 447 574 455 583 C460 589 464 596 466 604 C471 628 450 641 429 641 C395 641 368 611 341 589 C325 610 310 641 279 641 C254 641 221 624 215 597 C214 590 215 584 217 578 C219 572 280 496 286 492 C293 487 302 485 312 485 L312 485 Z M308 441 C227 441 148 394 129 310 C117 251 146 198 203 188 C231 182 265 191 286 171 C299 159 304 128 300 109 C292 73 265 41 226 41 C189 41 173 63 173 98 C173 107 176 116 175 125 C174 144 156 154 137 154 C113 154 80 137 74 110 C70 92 70 75 72 58 C81 -9 131 -41 200 -41 C293 -41 381 25 401 117 C417 193 375 253 302 264 C289 265 254 264 245 268 C230 277 226 299 230 317 C239 358 261 360 295 360 C365 360 293 273 367 273 C391 273 424 289 430 317 C442 371 416 421 366 435 C348 440 328 441 308 441 L308 441 Z " />
<glyph glyph-name="uni0162" unicode="&#x162;" horiz-adv-x="501" d="M566 641 L216 641 C191 641 158 624 152 597 C147 573 168 560 189 560 L319 560 L207 33 C192 26 178 13 175 -4 C170 -25 187 -39 207 -40 C193 -70 137 -182 132 -204 C127 -228 148 -241 169 -241 C196 -241 214 -227 229 -207 C239 -190 323 -7 325 4 C329 20 320 31 307 37 L419 560 L539 560 C564 560 597 576 603 604 C608 628 587 641 566 641 L566 641 Z " />
<glyph glyph-name="uni0163" unicode="&#x163;" horiz-adv-x="351" d="M270 541 C245 541 212 524 206 497 L194 440 L173 441 C149 441 116 424 110 397 C105 373 125 360 147 360 L177 360 L126 122 C122 103 122 83 125 66 C135 -5 185 -39 259 -40 C245 -71 189 -182 184 -204 C179 -228 200 -241 221 -241 C248 -241 266 -227 281 -207 C291 -190 375 -7 377 4 C382 28 362 41 340 41 L291 41 C283 41 276 41 268 42 C261 44 253 47 247 52 C215 77 227 127 235 167 C249 231 263 295 277 360 L347 360 C371 360 405 376 411 404 C416 428 395 441 373 441 L294 441 C296 450 298 459 300 468 C308 504 318 541 270 541 L270 541 Z " />
<glyph glyph-name="Tcaron" unicode="&#x164;" horiz-adv-x="501" d="M386 660 C396 660 408 663 418 668 C428 673 521 749 529 758 C534 764 538 771 540 779 C545 803 524 816 503 816 C469 816 442 786 415 764 C399 785 384 816 353 816 C328 816 295 799 289 772 C288 765 289 759 291 753 C293 747 354 671 360 667 C367 662 376 660 386 660 L386 660 Z M566 641 L216 641 C191 641 158 624 152 597 C147 573 168 560 189 560 L319 560 L200 -4 C195 -28 215 -41 237 -41 C261 -41 295 -24 300 4 L419 560 L539 560 C564 560 597 576 603 604 C608 628 587 641 566 641 L566 641 Z " />
<glyph glyph-name="tcaron" unicode="&#x165;" horiz-adv-x="351" d="M270 541 C245 541 212 524 206 497 L194 440 L173 441 C149 441 116 424 110 397 C105 373 125 360 147 360 L177 360 L126 122 C122 103 122 83 125 66 C135 -7 187 -41 262 -41 C286 -41 320 -24 325 4 C330 23 316 36 299 40 C289 41 278 40 268 42 C261 44 253 47 247 52 C215 77 227 127 235 167 C249 231 263 295 277 360 L347 360 C376 360 393 371 409 393 C419 411 503 593 505 604 C510 628 490 641 468 641 L418 641 C394 641 360 624 355 597 C350 575 367 561 387 560 C377 539 349 482 330 441 L294 441 C296 450 298 459 300 468 C308 504 318 541 270 541 L270 541 Z " />
<glyph glyph-name="Tbar" unicode="&#x166;" horiz-adv-x="501" d="M316 685 L466 685 C490 685 524 701 529 729 C534 753 514 766 492 766 L342 766 C318 766 284 749 279 722 C274 698 294 685 316 685 L316 685 Z M566 641 L216 641 C191 641 158 624 152 597 C147 573 168 560 189 560 L319 560 L200 -4 C195 -28 215 -41 237 -41 C261 -41 295 -24 300 4 L419 560 L539 560 C564 560 597 576 603 604 C608 628 587 641 566 641 L566 641 Z " />
<glyph glyph-name="tbar" unicode="&#x167;" horiz-adv-x="401" d="M398 441 L319 441 C321 450 323 459 325 468 C326 473 327 479 328 485 L376 485 C400 485 434 501 439 529 C444 553 424 566 402 566 L252 566 C228 566 194 549 189 522 C184 498 204 485 226 485 L228 485 L219 441 L198 441 C174 441 141 424 135 397 C130 373 150 360 172 360 L202 360 L151 122 C147 103 147 83 150 66 C160 -7 212 -41 287 -41 C311 -41 345 -24 350 4 C355 23 341 36 324 40 C314 41 303 40 293 42 C286 44 278 47 272 52 C240 77 252 127 260 167 C274 231 288 295 302 360 L372 360 C396 360 430 376 436 404 C441 428 420 441 398 441 L398 441 Z " />
<glyph glyph-name="Utilde" unicode="&#x168;" horiz-adv-x="551" d="M482 743 C476 749 471 756 466 763 C449 781 425 791 397 791 C344 791 285 753 273 697 C268 673 289 660 311 660 C330 660 358 671 369 691 C372 697 373 702 375 707 C382 701 387 694 392 687 C409 669 433 660 461 660 C514 660 573 697 585 754 C590 778 569 791 547 791 C528 791 500 779 489 759 C486 754 485 748 482 743 L482 743 Z M177 597 L87 172 C82 147 82 120 85 97 C98 4 165 -41 262 -41 C396 -41 507 50 538 179 L628 604 C633 628 612 641 591 641 C559 641 532 620 525 588 C496 454 469 321 441 187 C424 108 377 41 288 41 C214 41 182 86 185 157 C186 178 192 200 197 222 L216 310 C236 406 257 501 277 596 C283 625 269 641 241 641 C216 641 183 624 177 597 L177 597 Z " />
<glyph glyph-name="utilde" unicode="&#x169;" horiz-adv-x="451" d="M394 568 C388 574 383 581 378 588 C361 606 337 616 309 616 C256 616 197 578 185 522 C180 498 201 485 223 485 C242 485 270 496 281 516 C284 522 285 527 287 532 C294 526 299 519 304 512 C321 494 345 485 373 485 C426 485 485 522 497 579 C502 603 481 616 459 616 C440 616 412 604 401 584 C398 579 397 573 394 568 L394 568 Z M309 41 L239 41 C145 41 181 146 194 210 C208 273 221 336 235 398 C241 426 225 441 198 441 C174 441 141 424 135 397 L76 122 C72 103 72 84 75 66 C85 -7 137 -41 212 -41 L337 -41 C361 -41 395 -24 400 4 L486 404 C491 428 470 441 448 441 C428 441 404 430 391 411 C380 394 365 304 360 280 L309 41 Z " />
<glyph glyph-name="Umacron" unicode="&#x16a;" horiz-adv-x="551" d="M341 685 L491 685 C515 685 549 701 554 729 C559 753 539 766 517 766 L367 766 C343 766 309 749 304 722 C299 698 319 685 341 685 L341 685 Z M177 597 L87 172 C82 147 82 120 85 97 C98 4 165 -41 262 -41 C396 -41 507 50 538 179 L628 604 C633 628 612 641 591 641 C559 641 532 620 525 588 C496 454 469 321 441 187 C424 108 377 41 288 41 C214 41 182 86 185 157 C186 178 192 200 197 222 L216 310 C236 406 257 501 277 596 C283 625 269 641 241 641 C216 641 183 624 177 597 L177 597 Z " />
<glyph glyph-name="umacron" unicode="&#x16b;" horiz-adv-x="451" d="M253 510 L403 510 C427 510 461 526 466 554 C471 578 451 591 429 591 L279 591 C255 591 221 574 216 547 C211 523 231 510 253 510 L253 510 Z M309 41 L239 41 C145 41 181 146 194 210 C208 273 221 336 235 398 C241 426 225 441 198 441 C174 441 141 424 135 397 L76 122 C72 103 72 84 75 66 C85 -7 137 -41 212 -41 L337 -41 C361 -41 395 -24 400 4 L486 404 C491 428 470 441 448 441 C428 441 404 430 391 411 C380 394 365 304 360 280 L309 41 Z " />
<glyph glyph-name="Ubreve" unicode="&#x16c;" horiz-adv-x="551" d="M406 660 C474 660 549 705 565 779 C570 803 549 816 528 816 C517 816 505 813 494 807 C451 783 470 741 432 741 C392 741 445 816 378 816 C353 816 320 799 314 772 C300 705 340 660 406 660 L406 660 Z M177 597 L87 172 C82 147 82 120 85 97 C98 4 165 -41 262 -41 C396 -41 507 50 538 179 L628 604 C633 628 612 641 591 641 C559 641 532 620 525 588 C496 454 469 321 441 187 C424 108 377 41 288 41 C214 41 182 86 185 157 C186 178 192 200 197 222 L216 310 C236 406 257 501 277 596 C283 625 269 641 241 641 C216 641 183 624 177 597 L177 597 Z " />
<glyph glyph-name="ubreve" unicode="&#x16d;" horiz-adv-x="451" d="M318 485 C386 485 461 530 477 604 C482 628 461 641 440 641 C429 641 417 638 406 632 C363 608 382 566 344 566 C304 566 357 641 290 641 C265 641 232 624 226 597 C212 530 252 485 318 485 L318 485 Z M309 41 L239 41 C145 41 181 146 194 210 C208 273 221 336 235 398 C241 426 225 441 198 441 C174 441 141 424 135 397 L76 122 C72 103 72 84 75 66 C85 -7 137 -41 212 -41 L337 -41 C361 -41 395 -24 400 4 L486 404 C491 428 470 441 448 441 C428 441 404 430 391 411 C380 394 365 304 360 280 L309 41 Z " />
<glyph glyph-name="Uring" unicode="&#x16e;" horiz-adv-x="551" d="M551 702 C565 769 518 816 453 816 C385 816 312 765 297 695 C283 628 330 582 394 582 C462 582 536 633 551 702 L551 702 Z M420 662 C418 663 416 663 415 664 C400 668 394 686 398 702 C400 714 412 734 426 734 C446 734 454 712 450 694 C446 679 436 664 420 662 L420 662 Z M177 597 L87 172 C82 147 82 120 85 97 C98 4 165 -41 262 -41 C396 -41 507 50 538 179 L628 604 C633 628 612 641 591 641 C559 641 532 620 525 588 C496 454 469 321 441 187 C424 108 377 41 288 41 C214 41 182 86 185 157 C186 178 192 200 197 222 L216 310 C236 406 257 501 277 596 C283 625 269 641 241 641 C216 641 183 624 177 597 L177 597 Z " />
<glyph glyph-name="uring" unicode="&#x16f;" horiz-adv-x="451" d="M463 527 C477 594 430 641 365 641 C297 641 224 590 209 520 C195 453 242 407 306 407 C374 407 448 458 463 527 L463 527 Z M332 487 C330 488 328 488 327 489 C312 493 306 511 310 527 C312 539 324 559 338 559 C358 559 366 537 362 519 C358 504 348 489 332 487 L332 487 Z M309 41 L239 41 C145 41 181 146 194 210 C208 273 221 336 235 398 C241 426 225 441 198 441 C174 441 141 424 135 397 L76 122 C72 103 72 84 75 66 C85 -7 137 -41 212 -41 L337 -41 C361 -41 395 -24 400 4 L486 404 C491 428 470 441 448 441 C428 441 404 430 391 411 C380 394 365 304 360 280 L309 41 Z " />
<glyph glyph-name="Uhungarumlaut" unicode="&#x170;" horiz-adv-x="551" d="M289 697 C284 673 305 660 326 660 C337 660 348 663 359 668 C369 673 462 749 470 758 C475 764 479 771 481 779 C486 803 465 816 443 816 C433 816 421 813 411 807 C401 802 308 726 300 717 C295 711 291 704 289 697 L289 697 Z M464 697 C459 673 480 660 501 660 C512 660 523 663 534 668 C544 673 637 749 645 758 C650 764 654 771 656 779 C661 803 640 816 618 816 C608 816 596 813 586 807 C576 802 483 726 475 717 C470 711 466 704 464 697 L464 697 Z M177 597 L87 172 C82 147 82 120 85 97 C98 4 165 -41 262 -41 C396 -41 507 50 538 179 L628 604 C633 628 612 641 591 641 C559 641 532 620 525 588 C496 454 469 321 441 187 C424 108 377 41 288 41 C214 41 182 86 185 157 C186 178 192 200 197 222 L216 310 C236 406 257 501 277 596 C283 625 269 641 241 641 C216 641 183 624 177 597 L177 597 Z " />
<glyph glyph-name="uhungarumlaut" unicode="&#x171;" horiz-adv-x="451" d="M201 522 C196 498 217 485 238 485 C249 485 260 488 271 493 C281 498 374 574 382 583 C387 589 391 596 393 604 C398 628 377 641 355 641 C345 641 333 638 323 632 C313 627 220 551 212 542 C207 536 203 529 201 522 L201 522 Z M376 522 C371 498 392 485 413 485 C424 485 435 488 446 493 C456 498 549 574 557 583 C562 589 566 596 568 604 C573 628 552 641 530 641 C520 641 508 638 498 632 C488 627 395 551 387 542 C382 536 378 529 376 522 L376 522 Z M309 41 L239 41 C145 41 181 146 194 210 C208 273 221 336 235 398 C241 426 225 441 198 441 C174 441 141 424 135 397 L76 122 C72 103 72 84 75 66 C85 -7 137 -41 212 -41 L337 -41 C361 -41 395 -24 400 4 L486 404 C491 428 470 441 448 441 C428 441 404 430 391 411 C380 394 365 304 360 280 L309 41 Z " />
<glyph glyph-name="Uogonek" unicode="&#x172;" horiz-adv-x="551" d="M177 597 L87 172 C82 147 82 120 85 97 C94 35 126 -5 175 -25 C170 -34 166 -43 164 -54 L153 -104 C142 -157 179 -191 230 -191 C284 -191 342 -153 354 -97 C359 -73 338 -60 317 -60 C293 -60 262 -75 254 -101 C254 -99 254 -97 255 -95 L264 -48 C265 -46 266 -43 267 -40 C399 -39 508 53 538 179 L628 604 C633 628 612 641 591 641 C559 641 532 620 525 588 C496 454 469 321 441 187 C424 108 377 41 288 41 C214 41 182 86 185 157 C186 178 192 200 197 222 L216 310 C236 406 257 501 277 596 C283 625 269 641 241 641 C216 641 183 624 177 597 L177 597 Z " />
<glyph glyph-name="uogonek" unicode="&#x173;" horiz-adv-x="451" d="M309 41 L239 41 C145 41 181 146 194 210 C208 273 221 336 235 398 C241 426 225 441 198 441 C174 441 141 424 135 397 L76 122 C72 103 72 84 75 66 C80 26 99 -3 127 -20 C121 -30 117 -41 114 -54 L103 -104 C92 -157 129 -191 180 -191 C234 -191 292 -153 304 -97 C309 -73 288 -60 267 -60 C243 -60 212 -75 204 -101 C204 -99 204 -97 205 -95 L214 -48 C215 -46 216 -43 217 -41 L337 -41 C361 -41 395 -24 400 4 L486 404 C491 428 470 441 448 441 C428 441 404 430 391 411 C380 394 365 304 360 280 L309 41 Z " />
<glyph glyph-name="Wcircumflex" unicode="&#x174;" horiz-adv-x="751" d="M523 711 C539 690 554 660 586 660 C610 660 643 677 649 704 C650 710 650 716 647 722 C645 728 584 804 579 808 C571 813 562 816 553 816 C542 816 531 813 520 807 C510 802 417 726 409 717 C404 711 400 704 398 697 C393 673 414 660 436 660 C470 660 497 689 523 711 L523 711 Z M535 169 C532 200 513 416 508 423 C500 435 490 441 473 441 C454 441 437 433 422 419 C411 408 306 202 289 169 C285 220 257 612 251 622 C243 635 233 641 216 641 C192 641 158 624 152 597 C148 577 191 85 195 39 C196 24 195 -6 200 -19 C206 -34 220 -41 237 -41 C256 -41 273 -33 288 -19 C299 -8 406 203 424 236 C427 205 447 -16 452 -23 C460 -35 471 -41 487 -41 C507 -41 528 -31 542 -14 C553 0 561 22 569 38 L628 155 C702 301 778 447 850 595 C851 598 852 601 853 604 C858 628 837 641 816 641 C796 641 779 632 763 617 C752 605 562 222 535 169 L535 169 Z " />
<glyph glyph-name="wcircumflex" unicode="&#x175;" horiz-adv-x="601" d="M410 536 C426 515 441 485 473 485 C497 485 530 502 536 529 C537 535 537 541 534 547 C532 553 471 629 466 633 C458 638 449 641 440 641 C429 641 418 638 407 632 C397 627 304 551 296 542 C291 536 287 529 285 522 C280 498 301 485 323 485 C357 485 384 514 410 536 L410 536 Z M435 162 L421 295 C418 323 414 341 381 341 C342 341 327 317 311 288 L237 156 C234 189 214 415 208 423 C200 435 189 441 173 441 C149 441 116 424 110 397 C108 386 148 -17 151 -22 C159 -35 171 -41 187 -41 C226 -41 241 -17 257 12 L332 146 C335 122 347 -16 353 -25 C361 -36 372 -41 387 -41 C406 -41 425 -32 439 -17 C448 -8 658 391 661 404 C666 428 645 441 623 441 C605 441 587 433 572 419 C561 407 453 196 435 162 L435 162 Z " />
<glyph glyph-name="Ycircumflex" unicode="&#x176;" horiz-adv-x="495" d="M395 711 C411 690 426 660 458 660 C482 660 515 677 521 704 C522 710 522 716 519 722 C517 728 456 804 451 808 C443 813 434 816 425 816 C414 816 403 813 392 807 C382 802 289 726 281 717 C276 711 272 704 270 697 C265 673 286 660 308 660 C342 660 369 689 395 711 L395 711 Z M352 470 L278 582 C262 606 251 641 216 641 C191 641 158 624 152 597 C151 590 152 584 154 578 C159 566 250 427 282 383 L200 -4 C195 -28 215 -41 237 -41 C261 -41 295 -24 300 4 L382 389 C390 397 398 405 407 413 L557 555 C567 564 577 573 586 583 C591 589 595 596 597 604 C602 628 581 641 560 641 C520 641 495 606 467 579 L352 470 Z " />
<glyph glyph-name="ycircumflex" unicode="&#x177;" horiz-adv-x="402" d="M312 536 C328 515 343 485 375 485 C399 485 432 502 438 529 C439 535 439 541 436 547 C434 553 373 629 368 633 C360 638 351 641 342 641 C331 641 320 638 309 632 C299 627 206 551 198 542 C193 536 189 529 187 522 C182 498 203 485 225 485 C259 485 286 514 312 536 L312 536 Z M174 441 C150 441 117 424 111 397 C108 384 143 52 151 -11 L126 -58 C118 -74 110 -91 101 -107 C92 -122 72 -150 55 -157 C48 -160 41 -159 33 -161 C13 -165 -12 -182 -17 -204 C-22 -228 -1 -241 20 -241 C93 -241 154 -189 192 -124 C204 -103 215 -81 226 -59 L290 66 C312 109 458 385 461 404 C467 428 446 441 424 441 C406 441 386 432 372 417 C361 406 325 330 315 311 L238 160 C226 278 211 420 210 422 C201 435 193 441 174 441 L174 441 Z " />
<glyph glyph-name="Ydieresis" unicode="&#x178;" horiz-adv-x="495" d="M311 772 L295 697 C290 673 311 660 333 660 C357 660 390 676 396 704 L412 779 C417 803 396 816 375 816 C350 816 317 799 311 772 L311 772 Z M464 772 L448 697 C443 673 464 660 486 660 C510 660 543 676 549 704 L565 779 C570 803 549 816 528 816 C503 816 470 799 464 772 L464 772 Z M352 470 L278 582 C262 606 251 641 216 641 C191 641 158 624 152 597 C151 590 152 584 154 578 C159 566 250 427 282 383 L200 -4 C195 -28 215 -41 237 -41 C261 -41 295 -24 300 4 L382 389 C390 397 398 405 407 413 L557 555 C567 564 577 573 586 583 C591 589 595 596 597 604 C602 628 581 641 560 641 C520 641 495 606 467 579 L352 470 Z " />
<glyph glyph-name="Zacute" unicode="&#x179;" horiz-adv-x="552" d="M373 697 C368 673 389 660 410 660 C421 660 432 663 443 668 C453 673 546 749 554 758 C559 764 563 771 565 779 C570 803 549 816 527 816 C517 816 505 813 495 807 C485 802 392 726 384 717 C379 711 375 704 373 697 L373 697 Z M186 41 L576 530 C589 547 625 586 629 604 C634 628 613 641 592 641 L242 641 C217 641 184 624 178 597 C175 580 184 568 198 563 C216 556 281 560 305 560 L493 560 L104 70 C91 54 54 14 51 -4 C46 -28 66 -41 88 -41 L438 -41 C462 -41 496 -24 501 4 C505 20 496 32 482 37 C464 44 399 41 374 41 L186 41 Z " />
<glyph glyph-name="zacute" unicode="&#x17a;" horiz-adv-x="451" d="M285 522 C280 498 301 485 322 485 C333 485 344 488 355 493 C365 498 458 574 466 583 C471 589 475 596 477 604 C482 628 461 641 439 641 C429 641 417 638 407 632 C397 627 304 551 296 542 C291 536 287 529 285 522 L285 522 Z M188 41 L448 352 C460 366 482 387 486 404 C491 428 470 441 448 441 L198 441 C174 441 141 424 135 397 C127 359 170 360 197 360 L348 360 L87 48 C75 34 53 13 50 -4 C45 -28 65 -41 87 -41 L337 -41 C361 -41 395 -24 400 4 C409 41 366 41 338 41 L188 41 Z " />
<glyph glyph-name="Zdotaccent" unicode="&#x17b;" horiz-adv-x="552" d="M390 772 L374 697 C369 673 390 660 412 660 C436 660 469 676 475 704 L491 779 C496 803 475 816 454 816 C429 816 396 799 390 772 L390 772 Z M186 41 L576 530 C589 547 625 586 629 604 C634 628 613 641 592 641 L242 641 C217 641 184 624 178 597 C175 580 184 568 198 563 C216 556 281 560 305 560 L493 560 L104 70 C91 54 54 14 51 -4 C46 -28 66 -41 88 -41 L438 -41 C462 -41 496 -24 501 4 C505 20 496 32 482 37 C464 44 399 41 374 41 L186 41 Z " />
<glyph glyph-name="zdotaccent" unicode="&#x17c;" horiz-adv-x="451" d="M301 597 L285 522 C280 498 301 485 323 485 C347 485 380 501 386 529 L402 604 C407 628 386 641 365 641 C340 641 307 624 301 597 L301 597 Z M188 41 L448 352 C460 366 482 387 486 404 C491 428 470 441 448 441 L198 441 C174 441 141 424 135 397 C127 359 170 360 197 360 L348 360 L87 48 C75 34 53 13 50 -4 C45 -28 65 -41 87 -41 L337 -41 C361 -41 395 -24 400 4 C409 41 366 41 338 41 L188 41 Z " />
<glyph glyph-name="Zcaron" unicode="&#x17d;" horiz-adv-x="552" d="M412 660 C422 660 434 663 444 668 C454 673 547 749 555 758 C560 764 564 771 566 779 C571 803 550 816 529 816 C495 816 468 786 441 764 C425 785 410 816 379 816 C354 816 321 799 315 772 C314 765 315 759 317 753 C319 747 380 671 386 667 C393 662 402 660 412 660 L412 660 Z M186 41 L576 530 C589 547 625 586 629 604 C634 628 613 641 592 641 L242 641 C217 641 184 624 178 597 C175 580 184 568 198 563 C216 556 281 560 305 560 L493 560 L104 70 C91 54 54 14 51 -4 C46 -28 66 -41 88 -41 L438 -41 C462 -41 496 -24 501 4 C505 20 496 32 482 37 C464 44 399 41 374 41 L186 41 Z " />
<glyph glyph-name="zcaron" unicode="&#x17e;" horiz-adv-x="451" d="M323 485 C333 485 345 488 355 493 C365 498 458 574 466 583 C471 589 475 596 477 604 C482 628 461 641 440 641 C406 641 379 611 352 589 C336 610 321 641 290 641 C265 641 232 624 226 597 C225 590 226 584 228 578 C230 572 291 496 297 492 C304 487 313 485 323 485 L323 485 Z M188 41 L448 352 C460 366 482 387 486 404 C491 428 470 441 448 441 L198 441 C174 441 141 424 135 397 C127 359 170 360 197 360 L348 360 L87 48 C75 34 53 13 50 -4 C45 -28 65 -41 87 -41 L337 -41 C361 -41 395 -24 400 4 C409 41 366 41 338 41 L188 41 Z " />
<glyph glyph-name="longs" unicode="&#x17f;" horiz-adv-x="327" d="M404 604 C409 628 388 641 367 641 C267 641 174 571 152 472 L51 -4 C46 -28 66 -41 88 -41 C112 -41 143 -25 151 2 C155 14 157 27 160 40 C190 181 219 322 249 463 C254 487 262 512 280 533 C307 564 322 554 354 561 C375 565 399 581 404 604 L404 604 Z " />
<glyph glyph-name="florin" unicode="&#x192;" horiz-adv-x="453" d="M530 604 C535 628 514 641 493 641 C393 641 300 571 278 472 L271 440 L250 441 C226 441 193 424 187 397 C182 373 202 360 224 360 L254 360 L180 11 C179 10 179 10 179 9 C175 0 174 -10 172 -20 C166 -55 159 -90 139 -120 C94 -183 48 -141 17 -181 C12 -187 8 -195 8 -204 C8 -228 32 -241 53 -241 C146 -241 218 -189 251 -103 C258 -87 274 -21 275 -3 C276 -1 277 0 277 2 C281 14 283 27 286 40 C294 75 301 111 308 146 L353 357 C353 358 353 359 353 360 L399 360 C423 360 457 376 463 404 C468 428 447 441 425 441 L370 441 C372 448 373 456 375 463 C380 487 388 512 406 533 C433 564 448 554 480 561 C501 565 525 581 530 604 L530 604 Z " />
<glyph glyph-name="Aringacute" unicode="&#x1fa;" horiz-adv-x="502" d="M527 702 C538 754 511 794 468 809 C499 833 551 876 557 883 C562 889 566 896 568 904 C573 928 552 941 530 941 C520 941 508 938 498 932 C488 927 395 851 387 842 C382 836 378 829 376 822 C375 816 375 810 377 806 C327 788 284 746 273 695 C262 646 285 608 323 591 C318 581 314 571 310 562 L251 445 C177 299 100 153 29 5 C27 2 26 -1 26 -4 C21 -28 41 -41 63 -41 C82 -41 100 -32 115 -17 C118 -14 134 16 156 58 L368 59 C372 13 376 -19 377 -22 C385 -35 396 -41 413 -41 C437 -41 471 -24 476 4 C481 24 437 515 434 561 C433 570 433 583 432 595 C477 614 516 653 527 702 L527 702 Z M396 662 C394 663 392 663 391 664 C376 668 370 686 374 702 C376 714 388 734 402 734 C422 734 430 712 426 694 C422 679 412 664 396 662 L396 662 Z M198 141 C256 255 325 395 340 425 C343 396 353 256 362 140 L198 141 Z " />
<glyph glyph-name="aringacute" unicode="&#x1fb;" horiz-adv-x="476" d="M203 130 L234 278 C237 290 242 302 249 313 C267 346 289 360 323 360 L402 360 C380 252 356 144 333 36 C325 -1 312 -41 362 -41 C387 -41 420 -24 426 4 L511 404 C516 428 495 441 474 441 L457 441 C486 462 508 492 516 527 C526 578 502 617 461 633 C492 657 546 701 552 708 C557 714 561 721 563 729 C568 753 547 766 525 766 C515 766 503 763 493 757 C483 752 390 676 382 667 C377 661 373 654 371 647 C370 641 370 637 371 633 C320 616 273 573 262 520 C254 483 265 452 287 432 C214 411 151 347 134 272 L102 122 C98 103 98 84 100 66 C110 -7 163 -41 237 -41 C262 -41 295 -24 301 4 C305 24 290 37 272 40 C265 41 257 41 250 41 C224 45 209 61 204 85 C200 99 200 114 203 130 L203 130 Z M385 487 C383 488 381 488 380 489 C365 493 359 511 363 527 C365 539 377 559 391 559 C411 559 419 537 415 519 C411 504 401 489 385 487 L385 487 Z " />
<glyph glyph-name="AEacute" unicode="&#x1fc;" horiz-adv-x="702" d="M424 697 C419 673 440 660 461 660 C472 660 483 663 494 668 C504 673 597 749 605 758 C610 764 614 771 616 779 C621 803 600 816 578 816 C568 816 556 813 546 807 C536 802 443 726 435 717 C430 711 426 704 424 697 L424 697 Z M463 -41 L588 -41 C612 -41 646 -24 651 4 C659 38 623 41 597 41 C590 41 583 41 576 41 L534 40 C527 40 520 40 513 40 C498 40 481 39 466 43 C440 50 426 75 425 102 C424 107 425 113 425 118 C427 147 434 253 440 360 L573 360 C597 360 631 376 636 404 C642 428 621 441 599 441 L445 441 C448 487 450 529 452 560 L715 560 C740 560 773 576 779 604 C784 628 763 641 742 641 L417 641 C395 641 370 629 359 610 C348 595 342 577 335 562 L276 445 C202 299 125 153 54 5 C52 2 51 -1 51 -4 C46 -28 66 -41 88 -41 C107 -41 126 -32 140 -17 C144 -13 160 17 182 59 L325 60 C339 -11 395 -41 463 -41 L463 -41 Z M223 141 C271 237 326 347 339 374 L328 188 C328 180 326 160 324 141 L223 141 Z " />
<glyph glyph-name="aeacute" unicode="&#x1fd;" horiz-adv-x="700" d="M386 522 C381 498 402 485 423 485 C434 485 445 488 456 493 C466 498 559 574 567 583 C572 589 576 596 578 604 C583 628 562 641 540 641 C530 641 518 638 508 632 C498 627 405 551 397 542 C392 536 388 529 386 522 L386 522 Z M615 304 C607 267 579 240 542 240 C521 240 502 243 483 225 C477 219 472 211 471 204 C464 171 497 160 525 160 C589 160 645 175 687 238 C699 256 708 276 713 297 C717 317 716 338 712 356 C697 420 645 441 579 441 C544 441 512 436 482 425 C476 435 462 441 448 441 L323 441 C223 441 130 370 108 272 L76 122 C71 98 72 73 77 52 C96 -24 155 -41 232 -41 C258 -41 294 -27 300 4 C308 40 269 41 243 41 C210 41 191 48 180 78 C175 92 174 113 177 130 L209 278 C211 290 217 302 223 313 C241 346 263 360 298 360 L377 360 C371 333 365 306 359 280 C359 277 358 274 358 271 L328 129 C324 110 324 90 326 73 C337 -3 392 -41 471 -41 L521 -41 C542 -41 569 -28 574 -4 C581 30 547 41 520 41 C508 41 496 40 484 40 C456 40 437 47 428 73 C423 86 422 106 426 122 L457 271 C460 285 467 301 476 314 C505 357 532 360 575 360 C584 360 597 360 603 355 C615 344 619 321 615 304 L615 304 Z " />
<glyph glyph-name="Oslashacute" unicode="&#x1fe;" horiz-adv-x="551" d="M373 697 C368 673 389 660 410 660 C421 660 432 663 443 668 C453 673 546 749 554 758 C559 764 563 771 565 779 C570 803 549 816 527 816 C517 816 505 813 495 807 C485 802 392 726 384 717 C379 711 375 704 373 697 L373 697 Z M538 179 L591 429 C596 454 596 479 593 503 C587 544 571 576 546 598 C573 648 597 695 599 704 C604 728 584 741 562 741 C530 741 511 723 496 694 L465 636 C450 639 433 641 416 641 C316 641 224 593 170 496 C157 472 145 447 140 422 L87 172 C82 146 82 121 85 97 C91 56 107 24 131 2 C105 -48 80 -95 78 -104 C73 -128 94 -141 116 -141 C148 -141 167 -123 182 -94 L212 -36 C228 -39 244 -41 262 -41 C394 -41 508 51 538 179 L538 179 Z M192 115 C188 116 187 121 187 127 C184 143 184 162 188 180 L241 428 C244 446 252 464 262 480 C292 535 332 560 389 560 C402 560 413 558 423 556 L196 123 C195 121 193 118 192 115 L192 115 Z M254 44 L482 477 C483 479 484 482 486 485 C495 464 493 432 486 400 C471 330 455 261 441 192 C439 186 438 181 438 176 C433 163 431 151 425 138 C399 76 353 41 288 41 C276 41 265 42 254 44 L254 44 Z " />
<glyph glyph-name="oslashacute" unicode="&#x1ff;" horiz-adv-x="451" d="M285 522 C280 498 301 485 322 485 C333 485 344 488 355 493 C365 498 458 574 466 583 C471 589 475 596 477 604 C482 628 461 641 439 641 C429 641 417 638 407 632 C397 627 304 551 296 542 C291 536 287 529 285 522 L285 522 Z M470 454 C475 478 454 491 433 491 C396 491 377 466 361 437 C349 439 336 441 323 441 C223 441 130 370 108 272 L76 122 C72 103 72 84 75 66 C78 43 86 23 97 8 C87 -9 78 -25 68 -41 C66 -45 64 -49 63 -54 C58 -78 79 -91 100 -91 C137 -91 156 -66 173 -37 C185 -39 198 -41 212 -41 C312 -41 406 30 427 129 L459 279 C463 297 463 316 461 334 C457 358 449 378 437 394 C446 410 456 425 465 441 C467 445 469 449 470 454 L470 454 Z M297 360 C303 360 308 359 313 358 L292 325 C255 264 217 204 180 143 C189 185 199 227 207 269 C208 272 208 274 209 277 C222 322 244 360 297 360 L297 360 Z M221 42 L241 76 C279 137 318 199 356 261 L326 122 C324 110 318 98 312 87 C294 55 272 41 238 41 C232 41 226 41 221 42 L221 42 Z " />
<glyph glyph-name="uni0218" unicode="&#x218;" horiz-adv-x="551" d="M218 -37 C223 -39 227 -40 232 -40 C218 -70 162 -182 157 -204 C152 -228 173 -241 194 -241 C221 -241 239 -227 254 -207 C261 -194 311 -88 336 -31 C436 -5 515 79 538 179 C546 217 542 259 530 292 C507 355 452 385 383 390 C336 393 291 380 278 434 C274 447 273 464 276 479 C279 493 287 508 295 521 C320 558 342 560 379 560 C431 560 474 548 477 492 C477 483 474 473 475 464 C477 445 494 436 513 436 C537 436 571 452 577 480 C582 503 579 529 573 550 C548 624 479 641 401 641 C294 641 199 579 176 472 C169 441 172 411 182 385 C205 321 264 310 331 310 C383 310 416 296 432 249 C440 228 442 196 437 171 C433 154 425 136 416 120 C386 65 346 41 288 41 C219 41 186 79 185 145 C185 168 196 195 176 209 C169 213 160 216 150 216 C126 216 93 199 87 172 C82 146 82 121 85 97 C96 18 145 -25 218 -37 L218 -37 Z " />
<glyph glyph-name="uni0219" unicode="&#x219;" horiz-adv-x="427" d="M308 441 C227 441 148 394 129 310 C117 251 146 198 203 188 C231 182 265 191 286 171 C299 159 304 128 300 109 C292 73 265 41 226 41 C189 41 173 63 173 98 C173 107 176 116 175 125 C174 144 156 154 137 154 C113 154 80 137 74 110 C70 92 70 75 72 58 C80 0 118 -31 173 -39 C176 -40 179 -40 182 -40 C168 -70 112 -182 107 -204 C102 -228 123 -241 144 -241 C171 -241 189 -227 204 -207 C212 -193 268 -72 291 -20 C342 5 388 60 401 117 C417 193 375 253 302 264 C289 265 254 264 245 268 C230 277 226 299 230 317 C239 358 261 360 295 360 C365 360 293 273 367 273 C391 273 424 289 430 317 C442 371 416 421 366 435 C348 440 328 441 308 441 L308 441 Z " />
<glyph glyph-name="uni021A" unicode="&#x21a;" horiz-adv-x="501" d="M566 641 L216 641 C191 641 158 624 152 597 C147 573 168 560 189 560 L319 560 L207 33 C192 26 178 13 175 -4 C170 -25 187 -39 207 -40 C193 -70 137 -182 132 -204 C127 -228 148 -241 169 -241 C196 -241 214 -227 229 -207 C239 -190 323 -7 325 4 C329 20 320 31 307 37 L419 560 L539 560 C564 560 597 576 603 604 C608 628 587 641 566 641 L566 641 Z " />
<glyph glyph-name="uni021B" unicode="&#x21b;" horiz-adv-x="351" d="M270 541 C245 541 212 524 206 497 L194 440 L173 441 C149 441 116 424 110 397 C105 373 125 360 147 360 L177 360 L126 122 C122 103 122 83 125 66 C134 -2 181 -37 251 -40 C237 -70 181 -182 176 -204 C171 -228 192 -241 213 -241 C240 -241 258 -227 273 -207 C283 -190 367 -7 369 4 C374 28 354 41 332 41 L291 41 C283 41 276 41 268 42 C261 44 253 47 247 52 C215 77 227 127 235 167 C249 231 263 295 277 360 L347 360 C371 360 405 376 411 404 C416 428 395 441 373 441 L294 441 C296 450 298 459 300 468 C308 504 318 541 270 541 L270 541 Z " />
<glyph glyph-name="uni0237" unicode="&#x237;" horiz-adv-x="327" d="M260 -72 L361 404 C367 428 346 441 324 441 C300 441 269 425 261 398 C257 386 255 373 252 360 C222 219 193 78 163 -63 C158 -87 150 -112 132 -133 C105 -164 91 -154 58 -161 C37 -165 13 -181 8 -204 C3 -228 24 -241 45 -241 C124 -241 195 -203 238 -127 C248 -110 257 -90 260 -72 L260 -72 Z " />
<glyph glyph-name="circumflex" unicode="&#x2c6;" horiz-adv-x="351" d="M286 536 C302 515 317 485 349 485 C373 485 406 502 412 529 C413 535 413 541 410 547 C408 553 347 629 342 633 C334 638 325 641 316 641 C305 641 294 638 283 632 C273 627 180 551 172 542 C167 536 163 529 161 522 C156 498 177 485 199 485 C233 485 260 514 286 536 L286 536 Z " />
<glyph glyph-name="caron" unicode="&#x2c7;" horiz-adv-x="351" d="M274 485 C284 485 296 488 306 493 C316 498 409 574 417 583 C422 589 426 596 428 604 C433 628 412 641 391 641 C357 641 330 611 303 589 C287 610 272 641 241 641 C216 641 183 624 177 597 C176 590 177 584 179 578 C181 572 242 496 248 492 C255 487 264 485 274 485 L274 485 Z " />
<glyph glyph-name="uni02C9" unicode="&#x2c9;" horiz-adv-x="326" d="M212 510 L337 510 C362 510 392 526 392 554 C392 578 368 591 347 591 L222 591 C197 591 167 574 167 547 C167 523 191 510 212 510 L212 510 Z " />
<glyph glyph-name="breve" unicode="&#x2d8;" horiz-adv-x="351" d="M269 485 C337 485 412 530 428 604 C433 628 412 641 391 641 C380 641 368 638 357 632 C314 608 333 566 295 566 C255 566 308 641 241 641 C216 641 183 624 177 597 C163 530 203 485 269 485 L269 485 Z " />
<glyph glyph-name="dotaccent" unicode="&#x2d9;" horiz-adv-x="201" d="M177 597 L161 522 C156 498 177 485 199 485 C223 485 256 501 262 529 L278 604 C283 628 262 641 241 641 C216 641 183 624 177 597 L177 597 Z " />
<glyph glyph-name="ring" unicode="&#x2da;" horiz-adv-x="354" d="M415 527 C429 594 382 641 317 641 C249 641 176 590 161 520 C147 453 194 407 258 407 C326 407 400 458 415 527 L415 527 Z M284 487 C282 488 280 488 279 489 C264 493 258 511 262 527 C264 539 276 559 290 559 C310 559 318 537 314 519 C310 504 300 489 284 487 L284 487 Z " />
<glyph glyph-name="ogonek" unicode="&#x2db;" horiz-adv-x="301" d="M40 -54 L29 -104 C18 -157 55 -191 106 -191 C160 -191 218 -153 230 -97 C235 -73 214 -60 193 -60 C169 -60 138 -75 130 -101 C130 -99 130 -97 131 -95 L140 -48 C141 -46 143 -43 143 -40 C149 -38 154 -38 160 -37 C178 -31 197 -15 201 4 C206 28 186 41 164 41 C110 41 52 3 40 -54 L40 -54 Z " />
<glyph glyph-name="tilde" unicode="&#x2dc;" horiz-adv-x="401" d="M370 568 C364 574 359 581 354 588 C337 606 313 616 285 616 C232 616 173 578 161 522 C156 498 177 485 199 485 C218 485 246 496 257 516 C260 522 261 527 263 532 C270 526 275 519 280 512 C297 494 321 485 349 485 C402 485 461 522 473 579 C478 603 457 616 435 616 C416 616 388 604 377 584 C374 579 373 573 370 568 L370 568 Z " />
</font>
</svg>
