<?xml version="1.0" encoding="UTF-8"?>
<svg xmlns="http://www.w3.org/2000/svg" xmlns:xlink="http://www.w3.org/1999/xlink" version="1.2" >
<font id="SPFO GAP Light">
<font-face  font-family="SPFO GAP" units-per-em="1000" ascent="800" descent="-250" font-style="normal" font-weight="300" font-stretch="normal" cap-height="632" x-height="432" underline-position="-100" underline-thickness="50" />
<missing-glyph  horiz-adv-x="350" d="M63 -24 L263 -24 C275 -24 287 -13 287 0 L287 600 C287 613 275 624 263 624 L63 624 C50 624 39 613 39 600 L39 0 C39 -13 50 -24 63 -24 L63 -24 Z M239 576 L239 24 L87 24 C87 200 87 376 87 551 C87 555 87 565 87 576 C135 575 220 576 239 576 L239 576 Z " />
<glyph glyph-name="NULL" d="" />
<glyph glyph-name="CR" unicode="&#xd;" horiz-adv-x="250" d="" />
<glyph glyph-name="space" unicode="&#x20;" horiz-adv-x="225" d="" />
<glyph glyph-name="uni0000" d="" />
<glyph glyph-name="uni000D" horiz-adv-x="250" d="" />
<glyph glyph-name="exclam" unicode="&#x21;" horiz-adv-x="175" d="M64 200 C64 187 75 176 88 176 C101 176 112 187 112 200 L112 600 C112 613 101 624 88 624 C75 624 64 613 64 600 L64 200 Z M64 50 L64 0 C64 -13 75 -24 88 -24 C101 -24 112 -13 112 0 L112 50 C112 63 101 74 88 74 C75 74 64 63 64 50 L64 50 Z " />
<glyph glyph-name="quotedbl" unicode="&#x22;" horiz-adv-x="250" d="M188 476 C200 476 212 487 212 500 L212 700 C212 713 200 724 188 724 C175 724 164 713 164 700 L164 500 C164 487 175 476 188 476 L188 476 Z M39 700 L39 500 C39 487 50 476 63 476 C75 476 87 487 87 500 L87 700 C87 713 75 724 63 724 C50 724 39 713 39 700 L39 700 Z " />
<glyph glyph-name="numbersign" unicode="&#x23;" horiz-adv-x="600" d="M39 150 C39 137 50 126 63 126 L163 126 L145 37 C143 25 139 13 139 0 C139 -13 150 -24 163 -24 C171 -24 179 -19 183 -12 C187 -6 203 80 206 96 L212 126 L313 126 L295 37 C293 25 289 13 289 0 C289 -13 300 -24 313 -24 C321 -24 329 -19 333 -12 C337 -6 353 80 356 96 L362 126 L463 126 C475 126 487 137 487 150 C487 163 475 174 463 174 L372 174 L402 326 L513 326 C525 326 537 337 537 350 C537 363 525 374 513 374 L412 374 L430 463 C432 475 437 488 437 500 C437 513 425 524 413 524 C404 524 396 519 392 512 C388 506 372 420 369 405 L363 374 L262 374 L280 463 C282 475 287 488 287 500 C287 513 275 524 263 524 C254 524 246 519 242 512 C238 506 222 420 219 405 L213 374 L113 374 C100 374 89 363 89 350 C89 337 100 326 113 326 L203 326 L173 174 L63 174 C50 174 39 163 39 150 L39 150 Z M222 174 L252 326 L353 326 L323 174 L222 174 Z " />
<glyph glyph-name="dollar" unicode="&#x24;" horiz-adv-x="350" d="M39 400 C39 287 239 186 239 100 C239 55 208 24 163 24 C124 24 98 43 89 81 C88 89 88 101 85 108 C81 118 73 124 63 124 C50 124 39 113 39 100 C39 37 79 -12 139 -22 L139 -100 C139 -113 150 -124 163 -124 C175 -124 187 -113 187 -100 L187 -22 C246 -12 287 37 287 100 C287 213 87 314 87 400 C87 445 117 476 163 476 C201 476 228 457 236 419 C238 411 237 399 240 392 C244 383 252 376 263 376 C276 376 287 387 287 400 C287 463 246 512 187 522 L187 600 C187 613 175 624 163 624 C150 624 139 613 139 600 L138 522 C79 512 39 463 39 400 L39 400 Z " />
<glyph glyph-name="percent" unicode="&#x25;" horiz-adv-x="659" d="M375 111 C375 35 418 -23 498 -23 C582 -23 622 37 622 116 C622 193 578 250 498 250 C414 250 375 190 375 111 L375 111 Z M25 385 C25 309 69 252 149 252 C233 252 273 312 273 390 C273 467 229 524 149 524 C65 524 25 464 25 385 L25 385 Z M224 -24 C231 -24 238 -21 242 -15 C248 -10 281 77 287 92 C305 139 447 488 447 500 C447 513 436 524 423 524 C416 524 410 521 405 515 C400 510 367 423 361 408 C342 361 200 12 200 0 C200 -13 211 -24 224 -24 L224 -24 Z M423 116 C423 151 435 188 472 199 C480 201 489 201 498 202 C507 201 516 201 523 199 C565 187 574 149 574 111 C574 62 552 25 498 25 C441 25 423 65 423 116 L423 116 Z M73 390 C73 426 86 462 123 473 C131 475 140 475 149 476 C158 475 167 475 174 473 C216 462 225 423 225 385 C225 336 202 300 149 300 C92 300 73 339 73 390 L73 390 Z " />
<glyph glyph-name="ampersand" unicode="&#x26;" horiz-adv-x="512" d="M39 150 C39 49 110 -24 213 -24 C306 -24 373 34 384 126 L463 126 C475 126 487 137 487 150 C487 163 475 174 463 174 L263 174 C250 174 239 163 239 150 C239 137 250 126 263 126 L335 126 C334 121 333 116 332 111 C315 52 272 24 213 24 C154 24 114 49 95 105 C90 119 87 135 87 150 C87 202 118 256 170 271 C184 275 211 273 221 277 C230 282 237 289 237 300 C237 329 205 322 187 327 C155 336 137 368 137 400 C137 445 167 476 213 476 C250 476 278 457 286 419 C288 410 287 400 290 392 C294 383 302 376 313 376 C325 376 337 387 337 400 C337 472 284 524 213 524 C141 524 89 472 89 400 C89 365 104 330 129 306 C72 277 39 212 39 150 L39 150 Z " />
<glyph glyph-name="quotesingle" unicode="&#x27;" horiz-adv-x="125" d="M39 400 C39 387 50 376 63 376 C75 376 87 387 87 400 L87 600 C87 613 75 624 63 624 C50 624 39 613 39 600 L39 400 Z " />
<glyph glyph-name="parenleft" unicode="&#x28;" horiz-adv-x="250" d="M39 100 C39 74 45 46 53 21 C87 -76 161 -124 263 -124 C276 -124 287 -113 287 -100 C287 -92 282 -83 275 -79 C266 -74 243 -75 232 -74 C144 -64 87 12 87 100 L87 500 C87 588 143 664 232 674 C243 675 266 674 275 679 C282 683 287 692 287 700 C287 713 276 724 263 724 C161 724 87 676 53 579 C45 554 39 526 39 500 L39 100 Z " />
<glyph glyph-name="parenright" unicode="&#x29;" horiz-adv-x="275" d="M-37 700 C-37 692 -32 684 -25 679 C-16 674 8 675 19 674 C107 664 164 587 164 500 L164 75 C164 46 151 11 134 -13 C105 -54 56 -72 8 -75 C-1 -76 -13 -75 -21 -77 C-30 -81 -37 -90 -37 -100 C-37 -113 -25 -124 -13 -124 C81 -124 160 -87 196 3 C205 25 212 51 212 75 L212 500 C212 526 206 554 197 579 C163 676 89 724 -13 724 C-25 724 -37 713 -37 700 L-37 700 Z " />
<glyph glyph-name="asterisk" unicode="&#x2a;" horiz-adv-x="325" d="M113 475 C125 475 137 486 137 499 C137 512 125 523 113 523 L63 523 C50 523 39 512 39 499 C39 486 50 475 63 475 L113 475 Z M145 534 C146 532 147 531 149 530 C150 529 150 529 151 529 C152 527 155 527 157 526 C159 526 161 525 163 525 C168 525 173 527 177 530 C184 535 190 543 195 548 C206 559 237 584 237 599 C237 612 225 623 213 623 C208 623 204 622 201 620 C198 619 178 600 162 584 C147 600 127 619 125 620 C121 622 117 623 113 623 C100 623 89 612 89 599 C89 595 90 591 92 587 C94 584 130 547 145 534 L145 534 Z M181 465 C179 466 178 468 175 470 C172 471 170 472 168 473 C166 473 164 473 163 473 C160 473 158 473 156 472 C154 472 152 471 151 470 C150 470 150 470 149 469 C147 468 146 466 144 465 C130 451 94 415 92 411 C90 408 89 404 89 399 C89 386 100 375 113 375 C117 375 121 377 125 379 C127 380 147 399 163 415 C178 399 198 380 201 379 C204 377 208 375 213 375 C225 375 237 386 237 399 C237 404 235 408 233 411 C231 415 195 451 181 465 L181 465 Z M213 523 C200 523 189 512 189 499 C189 486 200 475 213 475 L263 475 C275 475 287 486 287 499 C287 512 275 523 263 523 L213 523 Z " />
<glyph glyph-name="plus" unicode="&#x2b;" horiz-adv-x="425" d="M39 250 C39 237 50 226 63 226 L189 226 L189 100 C189 87 200 76 213 76 C225 76 237 87 237 100 L237 226 L363 226 C375 226 387 237 387 250 C387 263 375 274 363 274 L237 274 L237 400 C237 413 225 424 213 424 C200 424 189 413 189 400 L188 274 L63 274 C50 274 39 263 39 250 L39 250 Z " />
<glyph glyph-name="comma" unicode="&#x2c;" horiz-adv-x="200" d="M43 -15 C59 -38 89 -5 89 -62 C89 -88 88 -114 88 -140 C88 -148 88 -203 90 -208 C94 -217 102 -224 113 -224 C125 -224 137 -213 137 -200 L137 -51 C137 -8 105 24 63 24 C50 24 39 12 39 -1 C39 -6 40 -11 43 -15 L43 -15 Z " />
<glyph glyph-name="hyphen" unicode="&#x2d;" horiz-adv-x="350" d="M39 250 C39 237 50 226 63 226 L287 226 C300 226 311 237 311 250 C311 263 300 274 287 274 L63 274 C50 274 39 263 39 250 L39 250 Z " />
<glyph glyph-name="period" unicode="&#x2e;" horiz-adv-x="150" d="M39 0 C39 -13 50 -24 63 -24 C76 -24 87 -13 87 0 L87 50 C87 63 76 74 63 74 C50 74 39 63 39 50 L39 0 Z " />
<glyph glyph-name="slash" unicode="&#x2f;" horiz-adv-x="300" d="M38 -124 C47 -124 53 -119 58 -112 C63 -106 102 42 108 64 L243 542 C250 567 286 686 286 700 C286 713 275 724 262 724 C253 724 247 719 242 712 C237 706 198 558 192 536 L57 58 C50 33 14 -86 14 -100 C14 -113 25 -124 38 -124 L38 -124 Z " />
<glyph glyph-name="zero" unicode="0" horiz-adv-x="350" d="M39 400 L39 100 C39 28 91 -24 163 -24 C234 -24 287 28 287 100 L287 400 C287 472 234 524 163 524 C91 524 39 472 39 400 L39 400 Z M87 400 C87 431 105 464 137 473 C144 475 154 475 163 476 C171 475 181 475 188 473 C220 464 239 432 239 400 L239 100 C239 55 208 24 163 24 C117 24 87 55 87 100 L87 400 Z M163 176 C175 176 187 187 187 200 L187 300 C187 313 175 324 163 324 C150 324 139 313 139 300 L139 200 C139 187 150 176 163 176 L163 176 Z " />
<glyph glyph-name="one" unicode="1" horiz-adv-x="237" d="M41 477 C49 475 111 476 125 476 L126 475 L126 5 C126 -10 132 -24 150 -24 C162 -24 174 -13 174 0 L174 500 C174 513 162 524 150 524 L50 524 C37 524 26 513 26 500 C26 490 32 481 41 477 L41 477 Z " />
<glyph glyph-name="two" unicode="2" horiz-adv-x="350" d="M63 -24 L263 -24 C275 -24 287 -13 287 0 C287 11 280 18 271 23 C264 26 129 24 107 24 C112 38 141 81 151 96 C191 163 287 325 287 400 C287 472 234 524 163 524 C91 524 39 472 39 400 C39 387 50 376 63 376 C72 376 82 383 85 392 C88 400 87 410 89 419 C97 457 125 476 163 476 C208 476 239 445 239 400 C239 328 109 115 66 50 C59 39 39 12 39 0 C39 -13 50 -24 63 -24 L63 -24 Z " />
<glyph glyph-name="three" unicode="3" horiz-adv-x="350" d="M39 100 C39 28 91 -24 163 -24 C234 -24 287 28 287 100 L287 200 C287 252 252 308 199 320 L257 436 C264 450 287 487 287 500 C287 513 275 524 263 524 L63 524 C50 524 39 513 39 500 C39 489 45 482 54 477 C61 474 201 476 224 476 L167 362 C160 349 139 313 139 300 C139 271 170 278 188 273 C220 264 239 232 239 200 L239 100 C239 55 208 24 163 24 C124 24 98 43 89 81 C87 90 88 100 85 108 C82 117 73 124 63 124 C50 124 39 113 39 100 L39 100 Z " />
<glyph glyph-name="four" unicode="4" horiz-adv-x="361" d="M73 76 L249 76 L249 0 C249 -13 260 -24 273 -24 C286 -24 297 -13 297 0 L297 200 C297 213 286 224 273 224 C260 224 249 213 249 200 L249 124 C203 125 121 124 104 124 L174 403 C178 421 197 487 197 500 C197 513 186 524 173 524 C160 524 152 515 149 503 L74 203 C69 184 49 114 49 100 C49 87 60 76 73 76 L73 76 Z " />
<glyph glyph-name="five" unicode="5" horiz-adv-x="350" d="M71 276 C93 276 114 277 135 277 C172 277 207 278 227 241 C234 230 239 213 239 200 L239 100 C239 55 208 24 163 24 C124 24 98 43 89 81 C87 90 88 100 85 108 C82 118 72 124 63 124 C50 124 39 113 39 100 C39 28 91 -24 163 -24 C234 -24 287 28 287 100 L287 200 C287 222 279 247 268 267 C228 336 155 324 87 324 L87 476 C120 476 154 476 188 476 C197 476 266 475 271 477 C280 481 287 490 287 500 C287 513 275 524 263 524 L63 524 C50 524 39 513 39 500 L39 300 C39 280 55 276 71 276 L71 276 Z " />
<glyph glyph-name="six" unicode="6" horiz-adv-x="350" d="M39 100 C39 28 91 -24 163 -24 C234 -24 287 28 287 100 L287 200 C287 272 234 324 163 324 C150 324 139 313 139 300 C139 271 170 278 188 273 C220 264 239 232 239 200 L239 100 C239 55 208 24 163 24 C117 24 87 55 87 100 L87 400 C87 431 105 464 137 473 C155 478 187 471 187 500 C187 513 175 524 163 524 C91 524 39 472 39 400 L39 100 Z " />
<glyph glyph-name="seven" unicode="7" horiz-adv-x="312" d="M41 477 C48 474 194 476 217 476 L114 133 C108 113 76 11 76 0 C76 -13 87 -24 100 -24 C107 -24 113 -21 118 -15 C124 -9 148 79 153 94 C184 198 216 301 247 404 C250 415 274 492 274 500 C274 513 262 524 250 524 L50 524 C37 524 26 513 26 500 C26 489 32 482 41 477 L41 477 Z " />
<glyph glyph-name="eight" unicode="8" horiz-adv-x="350" d="M163 -24 C234 -24 287 28 287 100 L287 200 C287 242 268 278 238 300 C268 322 287 358 287 400 C287 472 234 524 163 524 C91 524 39 472 39 400 C39 358 57 322 87 300 C57 278 39 242 39 200 L39 100 C39 28 91 -24 163 -24 L163 -24 Z M87 100 L87 200 C87 245 117 276 163 276 C208 276 239 245 239 200 L239 100 C239 69 220 36 188 27 C181 25 171 25 162 24 C154 25 144 25 137 27 C105 36 87 68 87 100 L87 100 Z M87 400 C87 431 105 464 137 473 C144 475 154 475 163 476 C171 475 181 475 188 473 C220 464 239 432 239 400 C239 355 208 324 163 324 C117 324 87 355 87 400 L87 400 Z " />
<glyph glyph-name="nine" unicode="9" horiz-adv-x="350" d="M163 -24 C234 -24 287 28 287 100 L287 400 C287 472 234 524 163 524 C91 524 39 472 39 400 L39 300 C39 228 91 176 163 176 C175 176 187 187 187 200 C187 229 155 222 137 227 C105 236 87 268 87 300 L87 400 C87 445 117 476 163 476 C208 476 239 445 239 400 L239 100 C239 55 208 24 163 24 C124 24 98 43 89 81 C87 90 88 100 85 108 C81 118 73 124 63 124 C50 124 39 113 39 100 C39 28 91 -24 163 -24 L163 -24 Z " />
<glyph glyph-name="colon" unicode="&#x3a;" horiz-adv-x="150" d="M39 0 C39 -13 50 -24 63 -24 C76 -24 87 -13 87 0 L87 50 C87 63 76 74 63 74 C50 74 39 63 39 50 L39 0 Z M39 350 C39 337 50 326 63 326 C76 326 87 337 87 350 L87 400 C87 413 76 424 63 424 C50 424 39 413 39 400 L39 350 Z " />
<glyph glyph-name="semicolon" unicode="&#x3b;" horiz-adv-x="200" d="M43 -15 C59 -38 89 -5 89 -62 C89 -88 88 -114 88 -140 C88 -148 88 -203 90 -208 C94 -217 102 -224 113 -224 C125 -224 137 -213 137 -200 L137 -51 C137 -8 105 24 63 24 C50 24 39 12 39 -1 C39 -6 40 -11 43 -15 L43 -15 Z M39 350 C39 337 50 326 63 326 C76 326 87 337 87 350 L87 400 C87 413 76 424 63 424 C50 424 39 413 39 400 L39 350 Z " />
<glyph glyph-name="less" unicode="&#x3c;" horiz-adv-x="250" d="M44 184 C60 164 80 148 98 130 C114 114 129 95 147 81 C152 77 157 75 163 75 C176 75 187 86 187 99 C187 115 162 133 151 144 L96 199 L151 254 C162 265 187 283 187 299 C187 312 176 323 163 323 C157 323 152 321 147 318 C129 303 114 284 98 268 C80 250 60 234 44 215 C41 210 39 205 39 199 C39 193 41 188 44 184 L44 184 Z " />
<glyph glyph-name="equal" unicode="&#x3d;" horiz-adv-x="350" d="M39 151 C39 138 50 127 63 127 L263 127 C275 127 287 138 287 151 C287 164 275 175 263 175 L63 175 C50 175 39 164 39 151 L39 151 Z M39 301 C39 288 50 277 63 277 L263 277 C275 277 287 288 287 301 C287 314 275 325 263 325 L63 325 C50 325 39 314 39 301 L39 301 Z " />
<glyph glyph-name="greater" unicode="&#x3e;" horiz-adv-x="250" d="M39 299 C39 283 63 265 74 254 L129 199 L74 145 C63 134 39 115 39 99 C39 86 50 75 63 75 C68 75 74 78 78 81 C96 95 111 114 127 130 C145 148 165 164 181 184 C184 188 187 194 187 199 C187 205 184 210 181 215 C165 234 145 251 127 268 C111 285 96 303 78 318 C74 321 68 323 63 323 C50 323 39 312 39 299 L39 299 Z " />
<glyph glyph-name="question" unicode="&#x3f;" horiz-adv-x="300" d="M38 476 C48 476 56 483 60 492 C63 500 62 510 64 519 C72 557 100 576 138 576 C183 576 214 545 214 500 C214 416 114 408 114 300 L114 200 C114 187 125 176 138 176 C162 176 162 201 162 219 C162 241 161 263 161 285 C161 297 161 314 165 326 C186 394 262 400 262 500 C262 572 209 624 138 624 C66 624 14 572 14 500 C14 487 25 476 38 476 L38 476 Z M114 50 L114 0 C114 -13 125 -24 138 -24 C150 -24 162 -13 162 0 L162 50 C162 63 150 74 138 74 C125 74 114 63 114 50 L114 50 Z " />
<glyph glyph-name="at" unicode="&#x40;" horiz-adv-x="450" d="M163 -24 L363 -24 C375 -24 387 -13 387 0 C387 10 380 19 371 23 C359 27 203 23 174 23 C158 23 141 24 126 31 C101 42 87 74 87 100 L87 450 C87 465 90 481 95 495 C114 551 154 576 213 576 C271 576 311 551 330 495 C335 481 339 465 339 450 L339 174 L213 174 C193 174 187 187 187 205 L187 300 C187 331 205 364 237 373 C255 378 287 371 287 400 C287 413 275 424 263 424 C191 424 139 372 139 300 L139 200 C139 158 170 126 213 126 L363 126 C375 126 387 137 387 150 L387 450 C387 467 383 483 379 499 C357 580 296 624 213 624 C110 624 39 551 39 450 L39 100 C39 28 91 -24 163 -24 L163 -24 Z " />
<glyph glyph-name="A" unicode="A" horiz-adv-x="425" d="M63 -24 C80 -24 85 -11 88 4 L106 77 C108 76 110 76 113 76 L313 76 C315 76 317 76 319 77 L337 4 C341 -11 345 -24 363 -24 C375 -24 387 -13 387 0 C387 15 363 98 357 120 L267 482 C262 499 238 606 233 612 C228 619 222 624 213 624 C203 624 197 619 192 612 C188 606 163 499 158 482 L68 120 C62 98 39 15 39 0 C39 -13 50 -24 63 -24 L63 -24 Z M213 501 L307 124 L118 124 L213 501 Z " />
<glyph glyph-name="B" unicode="B" horiz-adv-x="425" d="M39 0 C39 -13 50 -24 63 -24 C73 -24 81 -18 85 -8 C88 0 87 97 87 115 L87 576 L163 576 C208 576 239 545 239 500 C239 469 220 436 188 427 C170 422 139 430 139 400 C139 367 190 376 212 376 C270 376 310 352 330 295 C335 281 339 265 339 250 L339 150 C339 135 335 119 330 105 C304 31 254 24 187 24 C169 24 139 28 139 0 C139 -13 150 -24 163 -24 L213 -24 C296 -24 357 20 379 101 C383 117 387 134 387 150 L387 250 C387 266 384 282 379 297 C362 361 323 403 259 419 C276 442 287 471 287 500 C287 572 234 624 163 624 L63 624 C50 624 39 613 39 600 L39 0 Z " />
<glyph glyph-name="C" unicode="C" horiz-adv-x="450" d="M39 450 L39 150 C39 49 110 -24 213 -24 C296 -24 357 20 379 101 C383 117 387 134 387 150 C387 163 375 174 363 174 C352 174 344 168 340 158 C334 145 336 125 332 111 C315 52 273 24 213 24 C154 24 114 49 95 105 C90 119 87 135 87 150 L87 450 C87 465 90 481 95 495 C114 551 154 576 213 576 C272 576 315 548 332 490 C336 475 334 455 340 442 C344 432 352 426 363 426 C375 426 387 437 387 450 C387 467 383 483 379 499 C357 580 296 624 213 624 C110 624 39 551 39 450 L39 450 Z " />
<glyph glyph-name="D" unicode="D" horiz-adv-x="450" d="M39 0 C39 -13 50 -24 63 -24 C73 -24 81 -18 85 -8 C88 -1 87 97 87 115 L87 576 L213 576 C287 576 339 525 339 450 L339 150 C339 135 335 119 330 105 C304 31 254 24 187 24 C169 24 139 28 139 0 C139 -13 150 -24 163 -24 L213 -24 C296 -24 357 20 379 101 C383 117 387 134 387 150 L387 450 C387 534 343 594 261 617 C246 621 229 624 213 624 L63 624 C50 624 39 613 39 600 L39 0 Z " />
<glyph glyph-name="E" unicode="E" horiz-adv-x="400" d="M39 600 L39 50 C39 8 70 -24 113 -24 L313 -24 C325 -24 337 -13 337 0 C337 31 297 24 278 24 C228 24 178 23 128 23 C103 23 87 24 87 55 L87 376 L213 376 C225 376 237 387 237 400 C237 413 225 424 213 424 L87 424 L87 576 C131 576 175 576 220 576 C230 576 315 575 321 577 C330 581 337 590 337 600 C337 613 325 624 313 624 L63 624 C50 624 39 613 39 600 L39 600 Z " />
<glyph glyph-name="F" unicode="F" horiz-adv-x="350" d="M39 600 L39 0 C39 -13 50 -24 63 -24 C73 -24 81 -18 85 -8 C88 -1 87 97 87 115 L87 376 L213 376 C225 376 237 387 237 400 C237 413 225 424 213 424 L87 424 L87 575 L88 576 C132 576 176 576 220 576 C230 576 315 575 321 577 C330 581 337 590 337 600 C337 613 325 624 313 624 L63 624 C50 624 39 613 39 600 L39 600 Z " />
<glyph glyph-name="G" unicode="G" horiz-adv-x="450" d="M39 450 L39 150 C39 49 110 -24 213 -24 C296 -24 357 20 379 101 C383 117 387 134 387 150 L387 300 C387 313 375 324 363 324 L263 324 C250 324 239 313 239 300 C239 290 245 281 254 277 C262 275 325 276 339 276 L339 150 C339 135 335 119 330 105 C311 49 271 24 213 24 C137 24 87 76 87 150 L87 450 C87 524 137 576 213 576 C272 576 315 548 332 490 C336 474 334 456 340 442 C344 433 352 426 363 426 C375 426 387 437 387 450 C387 467 383 483 379 499 C357 580 296 624 213 624 C110 624 39 551 39 450 L39 450 Z " />
<glyph glyph-name="H" unicode="H" horiz-adv-x="450" d="M39 600 L39 0 C39 -13 50 -24 63 -24 C75 -24 87 -13 87 0 L87 376 L339 376 L339 0 C339 -13 350 -24 363 -24 C375 -24 387 -13 387 0 L387 600 C387 613 375 624 363 624 C350 624 339 613 339 600 L339 424 L87 424 L87 600 C87 613 75 624 63 624 C50 624 39 613 39 600 L39 600 Z " />
<glyph glyph-name="I" unicode="I" horiz-adv-x="150" d="M39 0 C39 -13 50 -24 63 -24 C75 -24 87 -13 87 0 L87 600 C87 613 75 624 63 624 C50 624 39 613 39 600 L39 0 Z " />
<glyph glyph-name="J" unicode="J" horiz-adv-x="450" d="M213 -24 C296 -24 357 20 379 101 C383 117 387 134 387 150 L387 600 C387 613 375 624 363 624 C334 624 339 593 339 573 C339 437 339 300 339 163 C339 82 297 24 213 24 C153 24 110 52 93 111 C89 126 91 144 85 158 C81 167 73 174 63 174 C50 174 39 163 39 150 C39 49 110 -24 213 -24 L213 -24 Z " />
<glyph glyph-name="K" unicode="K" horiz-adv-x="450" d="M39 600 L39 0 C39 -13 50 -24 63 -24 C75 -24 87 -13 87 0 L86 289 C95 297 102 306 108 312 L156 359 C158 356 159 353 160 351 L340 -8 C344 -17 351 -24 363 -24 C375 -24 387 -13 387 0 C387 12 370 38 365 50 L321 136 L192 395 L373 576 C380 583 387 589 387 600 C387 613 375 624 363 624 C346 624 328 599 317 588 L87 358 L87 600 C87 613 75 624 63 624 C50 624 39 613 39 600 L39 600 Z " />
<glyph glyph-name="L" unicode="L" horiz-adv-x="412" d="M39 600 L39 0 C39 -13 50 -24 63 -24 L363 -24 C375 -24 387 -13 387 0 C387 13 375 24 363 24 L87 24 L87 600 C87 613 75 624 63 624 C50 624 39 613 39 600 L39 600 Z " />
<glyph glyph-name="M" unicode="M" horiz-adv-x="550" d="M39 0 C39 -13 50 -24 63 -24 C73 -24 81 -17 85 -8 C88 0 87 85 87 102 L87 521 L194 360 C210 336 225 307 244 285 C249 279 255 276 263 276 C270 276 276 279 281 285 C301 307 315 336 331 360 L439 521 C439 362 438 203 438 43 C438 23 431 -24 463 -24 C475 -24 487 -13 487 0 L487 600 C487 613 475 624 463 624 C444 624 435 602 426 588 L263 343 L99 588 C90 602 81 624 63 624 C50 624 39 613 39 600 L39 0 Z " />
<glyph glyph-name="N" unicode="N" horiz-adv-x="450" d="M63 -24 C73 -24 81 -18 85 -8 C88 0 87 92 87 110 L87 555 L264 437 C277 428 313 401 339 386 L339 0 C339 -13 350 -24 363 -24 C375 -24 387 -13 387 0 L387 600 C387 613 375 624 363 624 C350 624 339 613 339 600 L339 445 L106 600 C96 607 86 615 75 621 C71 623 67 624 63 624 C50 624 39 613 39 600 L39 0 C39 -13 50 -24 63 -24 L63 -24 Z " />
<glyph glyph-name="O" unicode="O" horiz-adv-x="450" d="M39 150 C39 49 110 -24 213 -24 C296 -24 357 20 379 101 C383 117 387 134 387 150 L387 450 C387 467 383 483 379 499 C357 580 296 624 213 624 C110 624 39 551 39 450 L39 150 Z M170 571 C181 574 200 574 213 575 C225 574 244 574 255 571 C307 556 339 502 339 450 L339 150 C339 135 335 119 330 105 C311 49 271 24 213 24 C154 24 114 49 95 105 C90 119 87 135 87 150 L87 450 C87 502 118 556 170 571 L170 571 Z " />
<glyph glyph-name="P" unicode="P" horiz-adv-x="375" d="M63 -24 C73 -24 81 -18 85 -8 C88 -1 87 98 87 115 L87 576 L163 576 C221 576 261 551 280 495 C285 481 289 465 289 450 C289 398 257 344 205 329 C189 325 168 328 154 323 C145 319 139 310 139 300 C139 287 150 276 163 276 C246 276 307 320 329 401 C333 417 337 434 337 450 C337 467 333 483 329 499 C307 580 246 624 163 624 L63 624 C50 624 39 613 39 600 L39 0 C39 -13 50 -24 63 -24 L63 -24 Z " />
<glyph glyph-name="Q" unicode="Q" horiz-adv-x="421" d="M36 185 C36 169 39 154 43 139 C63 63 121 22 198 22 C227 22 254 28 277 40 C301 7 321 -18 321 -18 C326 -22 330 -24 337 -24 C350 -24 361 -13 361 0 C361 4 359 8 357 12 C356 15 338 39 316 69 C342 96 361 147 361 185 L361 462 C361 477 357 493 353 508 C333 583 276 624 198 624 C121 624 63 583 43 508 C39 493 36 477 36 462 L36 185 Z M84 462 C84 509 112 558 160 571 C170 574 187 574 198 575 C209 574 227 574 237 571 C284 558 313 509 313 462 L313 185 C313 161 301 127 286 108 C250 155 214 202 214 203 C209 207 204 209 198 209 C185 209 174 198 174 185 C174 180 175 176 177 173 C180 168 213 124 247 79 C233 73 216 70 198 70 C129 70 84 118 84 185 L84 462 Z " />
<glyph glyph-name="R" unicode="R" horiz-adv-x="375" d="M63 -24 C73 -24 81 -18 85 -8 C88 -1 87 97 87 115 L87 576 L163 576 C221 576 261 551 280 495 C285 481 289 465 289 450 C289 397 257 344 205 329 C189 325 169 329 154 323 C145 319 139 310 139 300 C139 297 139 294 140 292 C144 282 150 272 154 263 L290 -9 C295 -18 302 -24 313 -24 C325 -24 337 -13 337 0 C337 3 336 6 335 8 C332 17 326 26 322 34 L292 96 L200 279 C282 290 337 371 337 450 C337 466 333 483 329 499 C307 580 246 624 163 624 L63 624 C50 624 39 613 39 600 L39 0 C39 -13 50 -24 63 -24 L63 -24 Z " />
<glyph glyph-name="S" unicode="S" horiz-adv-x="425" d="M339 150 C339 135 335 119 330 105 C311 49 271 24 213 24 C153 24 109 52 93 111 C90 123 89 150 85 158 C81 168 73 174 63 174 C50 174 39 163 39 150 C39 49 110 -24 213 -24 C296 -24 357 20 379 101 C383 117 387 134 387 150 C387 318 87 321 87 450 C87 465 90 481 95 495 C114 551 154 576 213 576 C272 576 316 548 332 490 C336 477 336 450 340 442 C344 432 352 426 363 426 C376 426 387 437 387 450 C387 467 383 483 379 499 C357 580 296 624 213 624 C110 624 39 551 39 450 C39 282 339 279 339 150 L339 150 Z " />
<glyph glyph-name="T" unicode="T" horiz-adv-x="399" d="M26 600 C26 587 37 576 50 576 L176 576 L176 0 C176 -13 187 -24 200 -24 C212 -24 224 -13 224 0 L224 576 L350 576 C362 576 374 587 374 600 C374 613 362 624 350 624 L50 624 C37 624 26 613 26 600 L26 600 Z " />
<glyph glyph-name="U" unicode="U" horiz-adv-x="450" d="M39 600 L39 150 C39 49 110 -24 213 -24 C296 -24 357 20 379 101 C383 117 387 134 387 150 L387 600 C387 613 375 624 363 624 C334 624 339 593 339 573 C339 437 339 300 339 163 C339 82 297 24 213 24 C137 24 92 71 87 145 C86 161 87 176 87 192 L87 588 C87 606 84 624 63 624 C50 624 39 613 39 600 L39 600 Z " />
<glyph glyph-name="V" unicode="V" horiz-adv-x="399" d="M55 480 L145 118 C150 101 175 -6 179 -12 C184 -19 190 -24 200 -24 C209 -24 215 -19 220 -12 C225 -6 249 101 254 118 L344 480 C350 502 374 585 374 600 C374 613 362 624 350 624 C332 624 328 611 324 596 L200 99 L75 596 C72 611 67 624 50 624 C37 624 26 613 26 600 C26 585 49 502 55 480 L55 480 Z " />
<glyph glyph-name="W" unicode="W" horiz-adv-x="599" d="M26 600 C26 585 49 502 55 480 L145 118 C149 102 175 -7 179 -12 C184 -19 190 -24 200 -24 C209 -24 215 -19 220 -12 C226 -5 291 265 300 301 C309 265 373 -5 379 -12 C384 -19 390 -24 400 -24 C409 -24 415 -19 420 -12 C424 -7 450 102 454 118 L544 480 C550 502 574 585 574 600 C574 613 563 624 550 624 C532 624 527 610 524 596 L400 99 C391 135 326 405 320 412 C315 419 309 424 300 424 C290 424 284 419 279 412 C273 405 209 135 200 99 L75 596 C72 610 67 624 50 624 C37 624 26 613 26 600 L26 600 Z " />
<glyph glyph-name="X" unicode="X" horiz-adv-x="412" d="M50 -24 C57 -24 63 -21 68 -15 C78 -5 123 93 134 115 L200 246 L265 115 C276 93 322 -5 331 -15 C336 -21 342 -24 350 -24 C362 -24 374 -13 374 0 C374 3 373 6 372 8 C366 26 355 42 347 58 L226 300 L347 542 C354 555 374 587 374 600 C374 613 362 624 350 624 C342 624 336 621 331 615 C322 605 276 507 265 485 L200 354 L134 485 C123 507 78 605 68 615 C63 621 57 624 50 624 C37 624 26 613 26 600 C26 597 26 594 27 592 C33 574 44 558 52 542 L173 300 L52 58 C45 45 26 13 26 0 C26 -13 37 -24 50 -24 L50 -24 Z " />
<glyph glyph-name="Y" unicode="Y" horiz-adv-x="399" d="M26 600 C26 596 27 592 29 588 C33 580 143 434 176 393 L176 0 C176 -13 187 -24 200 -24 C212 -24 224 -13 224 0 L223 393 C242 417 374 583 374 600 C374 613 362 624 350 624 C344 624 339 622 334 618 C329 614 303 577 296 569 L200 440 L103 569 C97 577 71 614 65 618 C60 622 56 624 50 624 C37 624 26 613 26 600 L26 600 Z " />
<glyph glyph-name="Z" unicode="Z" horiz-adv-x="425" d="M39 0 C39 -13 50 -24 63 -24 L363 -24 C375 -24 387 -13 387 0 C387 11 380 18 371 23 C363 26 133 24 101 24 L356 533 C363 547 387 586 387 600 C387 613 375 624 363 624 L63 624 C50 624 39 613 39 600 C39 589 45 582 54 577 C62 574 292 576 324 576 L69 67 C62 53 39 14 39 0 L39 0 Z " />
<glyph glyph-name="bracketleft" unicode="&#x5b;" horiz-adv-x="200" d="M39 700 L39 -100 C39 -113 50 -124 63 -124 L163 -124 C176 -124 187 -113 187 -100 C187 -90 180 -81 171 -78 C163 -75 100 -76 87 -76 L87 676 C101 676 116 676 130 676 C149 676 187 670 187 700 C187 713 176 724 163 724 L63 724 C50 724 39 713 39 700 L39 700 Z " />
<glyph glyph-name="backslash" unicode="&#x5c;" horiz-adv-x="250" d="M32 542 L167 64 C173 42 212 -106 217 -112 C222 -120 228 -124 238 -124 C251 -124 262 -113 262 -100 C262 -86 225 33 218 57 L83 536 C77 558 38 706 33 712 C28 719 22 724 13 724 C0 724 -12 713 -12 700 C-12 686 25 567 32 542 L32 542 Z " />
<glyph glyph-name="bracketright" unicode="&#x5d;" horiz-adv-x="225" d="M29 677 C37 675 100 676 114 676 L114 -76 C99 -76 85 -76 70 -76 C51 -76 14 -70 14 -100 C14 -113 25 -124 38 -124 L138 -124 C150 -124 162 -113 162 -100 L162 700 C162 713 150 724 138 724 L38 724 C25 724 14 713 14 700 C14 690 20 681 29 677 L29 677 Z " />
<glyph glyph-name="asciicircum" unicode="&#x5e;" horiz-adv-x="275" d="M38 576 C43 576 49 578 53 582 C63 590 71 600 80 608 L138 666 L195 608 C204 600 212 590 222 582 C226 578 232 576 238 576 C250 576 262 587 262 600 C262 606 259 611 256 615 C240 635 220 651 202 669 C186 685 171 704 153 718 C149 722 143 724 138 724 C132 724 126 722 122 718 C104 704 89 685 73 669 C55 651 35 635 19 615 C16 611 14 606 14 600 C14 587 25 576 38 576 L38 576 Z " />
<glyph glyph-name="underscore" unicode="&#x5f;" horiz-adv-x="475" d="M14 -100 C14 -113 25 -124 38 -124 L438 -124 C451 -124 462 -113 462 -100 C462 -87 451 -76 438 -76 L38 -76 C25 -76 14 -87 14 -100 L14 -100 Z " />
<glyph glyph-name="grave" unicode="&#x60;" horiz-adv-x="125" d="M69 485 C74 479 80 476 88 476 C100 476 112 487 112 500 C112 503 111 506 110 508 C108 515 58 613 56 615 C51 621 45 624 38 624 C25 624 14 613 14 600 C14 588 63 491 69 485 L69 485 Z " />
<glyph glyph-name="a" unicode="a" horiz-adv-x="338" d="M150 -24 C163 -24 174 -13 174 0 C174 30 142 23 124 27 C93 36 74 69 74 101 C74 129 88 157 114 169 C135 179 192 177 226 176 C226 124 225 72 225 20 C225 2 224 -24 250 -24 C263 -24 274 -13 274 0 L274 195 C274 197 274 198 274 200 C274 201 274 203 274 204 L274 301 C274 372 222 424 150 424 L87 424 C74 424 63 413 63 400 C63 367 116 376 138 376 C210 376 227 344 227 276 C227 258 227 241 226 224 L150 224 C78 224 26 172 26 101 C26 29 78 -24 150 -24 L150 -24 Z " />
<glyph glyph-name="b" unicode="b" horiz-adv-x="350" d="M39 600 L39 0 C39 -13 50 -24 63 -24 L162 -24 C234 -24 286 29 286 100 L286 300 C286 372 234 424 162 424 C150 424 138 413 138 400 C138 371 170 378 188 373 C220 364 238 332 238 300 L238 100 C238 55 208 24 162 24 L87 24 C87 200 87 376 87 551 C87 559 87 603 85 608 C81 618 73 624 63 624 C50 624 39 613 39 600 L39 600 Z " />
<glyph glyph-name="c" unicode="c" horiz-adv-x="350" d="M39 300 L39 100 C39 28 91 -24 163 -24 C234 -24 287 28 287 100 C287 113 275 124 263 124 C252 124 244 118 240 108 C237 100 238 90 236 81 C228 43 200 24 163 24 C117 24 87 55 87 100 L87 300 C87 345 117 376 163 376 C200 376 228 357 236 319 C238 310 237 300 240 292 C244 283 252 276 263 276 C275 276 287 287 287 300 C287 372 234 424 163 424 C91 424 39 372 39 300 L39 300 Z " />
<glyph glyph-name="d" unicode="d" horiz-adv-x="351" d="M39 100 C39 28 92 -24 163 -24 C176 -24 187 -13 187 0 C187 29 156 22 138 27 C106 36 87 68 87 100 L87 300 C87 345 118 376 163 376 L239 376 L239 5 C239 -10 246 -24 263 -24 C276 -24 287 -13 287 0 L287 600 C287 613 276 624 263 624 C250 624 239 613 239 600 L239 424 L163 424 C92 424 39 372 39 300 L39 100 Z " />
<glyph glyph-name="e" unicode="e" horiz-adv-x="326" d="M133 -21 C146 -24 159 -24 172 -24 C191 -24 224 -29 224 0 C224 28 195 24 175 24 C144 24 116 27 99 57 C92 70 87 86 87 100 L87 300 C87 345 118 376 163 376 C208 376 239 345 239 300 L239 224 C225 224 210 224 196 224 C176 224 139 230 139 200 C139 187 150 176 163 176 L263 176 C276 176 287 187 287 200 L287 300 C287 372 235 424 163 424 C91 424 39 372 39 300 L39 100 C39 43 76 -9 133 -21 L133 -21 Z " />
<glyph glyph-name="f" unicode="f" horiz-adv-x="225" d="M-37 400 C-37 387 -25 376 -13 376 L64 376 L64 0 C64 -13 75 -24 88 -24 C98 -24 106 -18 110 -8 C112 -4 112 110 112 121 C112 206 111 291 111 376 L188 376 C200 376 212 387 212 400 C212 413 200 424 188 424 L111 424 C111 442 111 460 111 478 C111 496 112 515 118 533 C146 600 212 556 212 600 C212 613 200 624 188 624 C116 624 64 572 64 500 L64 424 L-13 424 C-25 424 -37 413 -37 400 L-37 400 Z " />
<glyph glyph-name="g" unicode="g" horiz-adv-x="350" d="M76 -9 C52 -31 39 -63 39 -100 C39 -172 91 -224 163 -224 C234 -224 287 -172 287 -100 C287 -28 234 24 163 24 C156 24 149 24 142 23 C127 27 106 26 94 36 C90 40 87 45 87 50 C87 56 90 60 94 64 C106 74 127 73 142 77 C149 76 156 76 163 76 C234 76 287 128 287 200 L287 300 C287 362 247 410 190 421 C194 436 201 448 210 458 C237 485 287 464 287 500 C287 513 275 524 263 524 C199 524 150 482 140 422 C80 413 39 364 39 300 L39 200 C39 163 52 131 76 109 C54 97 39 78 39 50 C39 22 54 3 76 -9 L76 -9 Z M137 373 C144 375 153 375 162 376 C172 375 181 375 188 373 C220 364 239 332 239 300 L239 200 C239 155 208 124 163 124 C117 124 87 155 87 200 L87 300 C87 331 105 364 137 373 L137 373 Z M163 -24 C208 -24 239 -55 239 -100 C239 -131 220 -164 188 -173 C181 -175 171 -175 162 -176 C154 -175 144 -175 137 -173 C105 -164 87 -132 87 -100 C87 -55 117 -24 163 -24 L163 -24 Z " />
<glyph glyph-name="h" unicode="h" horiz-adv-x="350" d="M39 600 L39 0 C39 -13 50 -24 63 -24 C75 -24 87 -13 87 0 L86 376 C108 375 134 376 143 376 C220 376 240 350 240 273 C240 189 238 104 238 19 C238 1 237 -24 263 -24 C275 -24 287 -13 287 0 L287 300 C287 372 234 424 163 424 L87 424 L87 600 C87 613 75 624 63 624 C50 624 39 613 39 600 L39 600 Z " />
<glyph glyph-name="i" unicode="i" horiz-adv-x="150" d="M39 400 L39 0 C39 -13 50 -24 63 -24 C75 -24 87 -13 87 0 L87 400 C87 413 75 424 63 424 C50 424 39 413 39 400 L39 400 Z M63 526 C75 526 87 537 87 550 L87 600 C87 613 75 624 63 624 C50 624 39 613 39 600 L39 550 C39 537 50 526 63 526 L63 526 Z " />
<glyph glyph-name="j" unicode="j" horiz-adv-x="175" d="M-36 -201 C-36 -214 -25 -225 -12 -225 C59 -225 112 -173 112 -101 L112 400 C112 413 101 424 88 424 C77 424 70 417 65 408 C63 403 63 290 63 279 C63 159 65 40 65 -79 C65 -98 64 -117 57 -134 C30 -201 -36 -157 -36 -201 L-36 -201 Z M88 526 C101 526 112 537 112 550 L112 600 C112 613 101 624 88 624 C75 624 64 613 64 600 L64 550 C64 537 75 526 88 526 L88 526 Z " />
<glyph glyph-name="k" unicode="k" horiz-adv-x="350" d="M39 600 L39 0 C39 -13 50 -24 63 -24 C76 -24 87 -13 87 0 L87 285 C100 291 120 301 142 312 C140 309 139 304 139 300 C139 294 238 -8 242 -12 C247 -19 253 -24 263 -24 C276 -24 287 -13 287 0 C287 6 187 308 183 312 C178 319 173 323 165 324 C219 351 277 381 278 382 C283 387 287 392 287 400 C287 413 276 424 263 424 C260 424 257 424 254 423 C246 420 144 368 87 339 L87 600 C87 613 76 624 63 624 C50 624 39 613 39 600 L39 600 Z " />
<glyph glyph-name="l" unicode="l" horiz-adv-x="150" d="M39 0 C39 -13 50 -24 63 -24 C75 -24 87 -13 87 0 L87 600 C87 613 75 624 63 624 C50 624 39 613 39 600 L39 0 Z " />
<glyph glyph-name="m" unicode="m" horiz-adv-x="550" d="M39 400 L39 0 C39 -13 50 -24 63 -24 C75 -24 87 -13 87 0 L86 376 C108 375 134 376 143 376 C210 376 234 356 239 300 C239 299 239 298 239 297 C239 289 240 282 240 273 C240 189 238 104 238 19 C238 1 237 -24 263 -24 C275 -24 287 -13 287 0 L287 297 C288 304 288 312 289 319 C298 357 324 376 363 376 C428 376 440 327 440 272 C440 185 438 98 438 12 C438 -6 441 -24 463 -24 C475 -24 487 -13 487 0 L487 300 C487 372 434 424 363 424 C320 424 285 406 263 376 C240 406 205 424 163 424 L63 424 C50 424 39 413 39 400 L39 400 Z " />
<glyph glyph-name="n" unicode="n" horiz-adv-x="350" d="M39 400 L39 0 C39 -13 50 -24 63 -24 C75 -24 87 -13 87 0 L86 376 C108 375 134 376 143 376 C220 376 240 350 240 273 C240 189 238 104 238 19 C238 1 237 -24 263 -24 C275 -24 287 -13 287 0 L287 300 C287 372 234 424 163 424 L63 424 C50 424 39 413 39 400 L39 400 Z " />
<glyph glyph-name="o" unicode="o" horiz-adv-x="350" d="M163 -24 C234 -24 287 28 287 100 L287 300 C287 372 234 424 163 424 C91 424 39 372 39 300 L39 100 C39 28 91 -24 163 -24 L163 -24 Z M137 373 C144 375 154 375 163 376 C171 375 181 375 188 373 C220 364 239 332 239 300 L239 100 C239 55 208 24 163 24 C117 24 87 55 87 100 L87 300 C87 331 105 364 137 373 L137 373 Z " />
<glyph glyph-name="p" unicode="p" horiz-adv-x="350" d="M63 -224 C73 -224 81 -218 85 -208 C88 -201 87 -103 87 -85 L87 376 L163 376 C208 376 239 345 239 300 L239 100 C239 69 220 36 188 27 C170 22 139 30 139 0 C139 -13 150 -24 163 -24 C234 -24 287 28 287 100 L287 300 C287 372 234 424 163 424 L63 424 C50 424 39 413 39 400 L39 -200 C39 -213 50 -224 63 -224 L63 -224 Z " />
<glyph glyph-name="q" unicode="q" horiz-adv-x="350" d="M39 300 L39 100 C39 28 91 -24 163 -24 C175 -24 187 -13 187 0 C187 29 155 22 137 27 C105 36 87 68 87 100 L87 300 C87 313 91 330 98 341 C118 378 153 377 190 377 C206 377 222 376 239 376 L239 -200 C239 -213 250 -224 263 -224 C275 -224 287 -213 287 -200 L287 400 C287 413 275 424 263 424 L163 424 C91 424 39 372 39 300 L39 300 Z " />
<glyph glyph-name="r" unicode="r" horiz-adv-x="200" d="M39 300 L39 0 C39 -13 50 -24 63 -24 C73 -24 81 -18 85 -8 C89 1 86 241 86 281 C86 308 89 340 111 359 C142 386 187 365 187 400 C187 413 175 424 163 424 C91 424 39 372 39 300 L39 300 Z " />
<glyph glyph-name="s" unicode="s" horiz-adv-x="350" d="M39 100 C39 28 91 -24 163 -24 C234 -24 287 28 287 100 C287 217 87 222 87 300 C87 345 117 376 163 376 C200 376 228 357 236 319 C238 311 237 299 240 292 C244 283 252 276 263 276 C276 276 287 287 287 300 C287 372 234 424 163 424 C91 424 39 372 39 300 C39 183 239 178 239 100 C239 55 208 24 163 24 C125 24 97 43 89 81 C88 89 88 101 85 108 C81 118 73 124 63 124 C50 124 39 113 39 100 L39 100 Z " />
<glyph glyph-name="t" unicode="t" horiz-adv-x="275" d="M13 376 L89 376 L89 100 C89 28 141 -24 213 -24 C225 -24 237 -13 237 0 C237 43 178 2 146 61 C142 70 139 79 138 89 C135 107 137 125 137 143 C137 221 137 298 137 376 L213 376 C225 376 237 387 237 400 C237 413 225 424 213 424 L137 424 C137 459 136 505 135 508 C131 518 123 524 113 524 C100 524 89 513 89 500 L89 424 L13 424 C0 424 -12 413 -12 400 C-12 387 0 376 13 376 L13 376 Z " />
<glyph glyph-name="u" unicode="u" horiz-adv-x="350" d="M39 100 C39 28 91 -24 163 -24 L263 -24 C275 -24 287 -13 287 0 L287 400 C287 413 275 424 263 424 C250 424 239 413 239 400 L239 24 C217 25 191 24 183 24 C105 24 86 50 86 127 C86 212 87 296 87 381 C87 399 88 424 63 424 C50 424 39 413 39 400 L39 100 Z " />
<glyph glyph-name="v" unicode="v" horiz-adv-x="325" d="M39 400 C39 386 59 316 64 297 L139 -3 C142 -15 149 -24 163 -24 C176 -24 184 -15 187 -3 L261 297 C266 316 287 386 287 400 C287 413 276 424 263 424 C253 424 247 419 242 412 C236 405 172 135 163 99 C154 135 89 405 83 412 C78 419 72 424 63 424 C50 424 39 413 39 400 L39 400 Z " />
<glyph glyph-name="w" unicode="w" horiz-adv-x="525" d="M64 297 L139 -3 C142 -15 149 -24 163 -24 C170 -24 176 -21 181 -15 C190 -6 251 123 263 146 C274 123 335 -6 344 -15 C349 -21 355 -24 363 -24 C376 -24 384 -15 387 -3 L461 297 C466 316 487 386 487 400 C487 413 475 424 463 424 C454 424 447 419 442 412 C438 406 420 327 416 313 L355 69 C344 90 289 207 281 215 C276 221 270 224 263 224 C255 224 249 221 244 215 C236 207 181 90 170 69 L109 313 C105 327 87 406 83 412 C79 419 72 424 63 424 C50 424 39 413 39 400 C39 386 59 316 64 297 L64 297 Z " />
<glyph glyph-name="x" unicode="x" horiz-adv-x="325" d="M60 351 L136 200 L60 50 C55 38 39 12 39 0 C39 -13 50 -24 63 -24 C74 -24 81 -17 86 -8 L163 147 L240 -8 C244 -17 251 -24 263 -24 C275 -24 287 -13 287 0 C287 12 270 38 265 50 L189 200 L265 351 C270 362 287 388 287 400 C287 413 275 424 263 424 C251 424 244 417 240 408 L163 254 L86 408 C81 417 74 424 63 424 C50 424 39 413 39 400 C39 388 55 362 60 351 L60 351 Z " />
<glyph glyph-name="y" unicode="y" horiz-adv-x="325" d="M39 400 C39 386 59 315 64 296 L138 0 L118 -80 C112 -102 88 -185 88 -200 C88 -213 100 -224 112 -224 C122 -224 128 -219 133 -212 C138 -206 162 -99 167 -82 L257 279 C262 301 286 384 286 400 C286 413 275 424 262 424 C253 424 246 419 242 412 C237 405 213 299 208 281 L162 99 C162 100 162 102 161 103 L87 402 C84 414 76 424 63 424 C50 424 39 413 39 400 L39 400 Z " />
<glyph glyph-name="z" unicode="z" horiz-adv-x="325" d="M54 377 C62 374 201 376 224 376 L99 126 C98 125 39 13 39 0 C39 -13 50 -24 63 -24 L263 -24 C275 -24 287 -13 287 0 C287 10 280 19 271 23 C263 26 124 24 101 24 L226 274 C227 275 287 387 287 400 C287 413 275 424 263 424 L63 424 C50 424 39 413 39 400 C39 390 45 381 54 377 L54 377 Z " />
<glyph glyph-name="braceleft" unicode="&#x7b;" horiz-adv-x="287" d="M26 300 C26 294 28 289 31 285 C39 274 51 265 60 255 L126 190 C126 134 125 78 125 22 C125 8 125 -6 127 -20 C138 -84 185 -124 250 -124 C262 -124 274 -113 274 -100 C274 -56 208 -100 180 -33 C173 -14 173 6 173 26 C173 66 174 106 174 147 C174 157 175 204 170 212 C166 219 112 272 84 300 C112 328 166 381 170 388 C175 396 174 443 174 453 C174 494 173 534 173 574 C173 594 173 614 180 633 C208 700 274 656 274 700 C274 713 262 724 250 724 C185 724 138 684 127 620 C123 591 126 561 126 532 L126 410 C108 390 36 326 29 312 C27 308 26 304 26 300 L26 300 Z " />
<glyph glyph-name="bar" unicode="&#x7c;" horiz-adv-x="150" d="M38 -98 C38 -111 50 -122 62 -122 C75 -122 86 -111 86 -98 L86 700 C86 713 75 724 62 724 C50 724 38 713 38 700 L38 -98 Z " />
<glyph glyph-name="braceright" unicode="&#x7d;" horiz-adv-x="300" d="M14 -100 C14 -113 25 -124 38 -124 C103 -124 149 -84 160 -20 C164 9 162 39 162 68 L162 190 L227 255 C236 265 248 274 256 285 C259 289 262 294 262 300 C262 306 259 311 256 315 C248 326 236 335 227 345 L162 410 C162 466 162 522 162 578 C162 592 162 606 160 620 C149 684 103 724 38 724 C25 724 14 713 14 700 C14 656 79 700 107 633 C114 614 114 594 114 574 C114 534 113 494 113 453 C113 444 113 395 117 388 C122 378 175 327 204 300 L133 229 C107 204 114 204 114 168 C114 118 114 67 114 16 C114 -23 103 -65 59 -74 C51 -76 42 -75 33 -76 C22 -79 14 -88 14 -100 L14 -100 Z " />
<glyph glyph-name="asciitilde" unicode="&#x7e;" horiz-adv-x="425" d="M63 126 C91 126 86 163 91 182 C97 206 111 226 138 226 C189 226 174 126 263 126 C329 126 362 191 362 250 C362 263 350 274 338 274 C309 274 314 237 309 218 C303 195 289 174 263 174 C211 174 226 274 138 274 C71 274 39 209 39 150 C39 137 50 126 63 126 L63 126 Z " />
<glyph glyph-name="exclamdown" unicode="&#xa1;" horiz-adv-x="150" d="M47 200 L47 -200 C47 -213 58 -224 71 -224 C84 -224 95 -213 95 -200 L95 200 C95 213 84 224 71 224 C58 224 47 213 47 200 L47 200 Z M71 326 C84 326 95 337 95 350 L95 400 C95 413 84 424 71 424 C58 424 47 413 47 400 L47 350 C47 337 58 326 71 326 L71 326 Z " />
<glyph glyph-name="cent" unicode="&#xa2;" horiz-adv-x="350" d="M138 -22 L139 -100 C139 -113 150 -124 163 -124 C175 -124 187 -113 187 -100 L187 -22 C246 -12 287 37 287 100 C287 113 275 124 263 124 C252 124 244 118 240 108 C237 100 238 90 236 81 C228 43 200 24 163 24 C117 24 87 55 87 100 L87 400 C87 445 117 476 163 476 C200 476 228 457 236 419 C238 410 237 400 240 392 C244 383 252 376 263 376 C275 376 287 387 287 400 C287 463 246 512 187 522 L187 600 C187 613 175 624 163 624 C150 624 139 613 139 600 L138 522 C79 512 39 463 39 400 L39 100 C39 37 79 -12 138 -22 L138 -22 Z " />
<glyph glyph-name="sterling" unicode="&#xa3;" horiz-adv-x="387" d="M14 300 C14 287 25 276 38 276 L114 276 L114 24 L38 24 C25 24 14 13 14 0 C14 -13 25 -24 38 -24 L338 -24 C350 -24 362 -13 362 0 C362 13 350 24 338 24 L161 24 C161 108 161 192 161 276 L238 276 C250 276 262 287 262 300 C262 313 250 324 238 324 L161 324 C161 346 161 367 161 389 C161 439 183 476 238 476 C276 476 303 457 311 419 C313 410 312 400 315 392 C318 383 328 376 338 376 C350 376 362 387 362 400 C362 472 309 524 238 524 C166 524 114 472 114 400 L114 324 L38 324 C25 324 14 313 14 300 L14 300 Z " />
<glyph glyph-name="currency" unicode="&#xa4;" horiz-adv-x="400" d="M39 350 C39 346 40 342 42 338 C43 335 68 310 85 294 C71 274 64 250 64 225 C64 200 71 176 85 156 C68 140 43 115 42 112 C40 108 39 104 39 100 C39 87 50 76 63 76 C67 76 71 77 75 79 C77 81 102 105 119 122 C138 109 162 101 188 101 C213 101 237 109 256 122 C273 105 298 81 301 79 C304 77 308 76 313 76 C325 76 337 87 337 100 C337 104 335 108 333 112 C332 115 307 140 290 156 C304 176 312 200 312 225 C312 250 304 274 290 294 C307 310 332 335 333 338 C335 342 337 346 337 350 C337 363 325 374 313 374 C305 374 299 370 294 365 L257 328 C237 341 213 349 188 349 C162 349 138 341 119 328 C102 345 77 369 75 371 C71 373 67 374 63 374 C50 374 39 363 39 350 L39 350 Z M112 225 C112 267 146 301 188 301 C220 301 252 278 261 246 C262 239 263 232 264 225 C263 218 262 211 261 204 C252 172 220 149 188 149 C146 149 112 183 112 225 L112 225 Z " />
<glyph glyph-name="yen" unicode="&#xa5;" horiz-adv-x="450" d="M39 500 C39 496 40 492 42 488 C45 481 120 382 165 324 L111 324 C98 324 87 313 87 300 C87 287 98 276 111 276 L187 276 C187 262 187 244 187 224 L111 224 C98 224 87 213 87 200 C87 187 98 176 111 176 L187 176 C187 92 188 -4 190 -8 C194 -18 202 -24 213 -24 C226 -24 237 -13 237 0 C237 18 236 101 236 176 L311 176 C324 176 335 187 335 200 C335 213 324 224 311 224 L236 224 C235 244 235 261 235 276 L311 276 C324 276 335 287 335 300 C335 313 324 324 311 324 L260 323 C305 382 380 481 383 488 C385 492 387 496 387 500 C387 513 375 524 363 524 C357 524 352 522 347 518 C342 514 316 477 309 469 L213 340 L116 469 C110 477 84 514 78 518 C73 522 69 524 63 524 C50 524 39 513 39 500 L39 500 Z " />
<glyph glyph-name="brokenbar" unicode="&#xa6;" horiz-adv-x="551" d="M268 399 C268 386 280 375 292 375 C305 375 316 386 316 399 L316 700 C316 713 305 724 292 724 C280 724 268 713 268 700 L268 399 Z M268 -101 C268 -114 280 -125 292 -125 C305 -125 316 -114 316 -101 L316 199 C316 212 305 223 292 223 C280 223 268 212 268 199 L268 -101 Z " />
<glyph glyph-name="section" unicode="&#xa7;" horiz-adv-x="350" d="M39 500 C39 457 57 421 88 399 C58 376 39 340 39 300 C39 233 93 178 159 176 C166 175 174 175 182 173 C219 165 239 138 239 100 C239 55 208 24 163 24 C125 24 97 43 89 81 C87 90 88 100 85 108 C82 118 72 124 63 124 C50 124 39 113 39 100 C39 28 91 -24 163 -24 C234 -24 287 28 287 100 C287 143 268 179 237 201 C267 224 287 260 287 300 C287 367 232 422 166 424 C159 425 151 425 144 427 C106 435 87 462 87 500 C87 545 117 576 163 576 C200 576 228 557 236 519 C238 510 237 500 240 492 C243 483 253 476 263 476 C275 476 287 487 287 500 C287 572 234 624 163 624 C91 624 39 572 39 500 L39 500 Z M87 300 C87 342 121 376 163 376 C195 376 227 353 236 321 C237 314 238 307 239 300 C238 293 237 286 236 279 C227 247 195 224 163 224 C121 224 87 258 87 300 L87 300 Z " />
<glyph glyph-name="dieresis" unicode="&#xa8;" horiz-adv-x="225" d="M188 526 C200 526 212 537 212 550 L212 600 C212 613 200 624 188 624 C175 624 164 613 164 600 L164 550 C164 537 175 526 188 526 L188 526 Z M14 550 C14 537 25 526 38 526 C50 526 62 537 62 550 L62 600 C62 613 50 624 38 624 C25 624 14 613 14 600 L14 550 Z " />
<glyph glyph-name="copyright" unicode="&#xa9;" horiz-adv-x="550" d="M263 -24 C386 -24 487 77 487 200 C487 323 386 424 263 424 C139 424 39 323 39 200 C39 77 139 -24 263 -24 L263 -24 Z M87 200 C87 297 166 376 263 376 C337 376 402 330 428 260 C435 240 436 222 438 202 C436 178 435 160 428 140 C402 70 337 24 263 24 C166 24 87 103 87 200 L87 200 Z M263 76 C305 76 337 108 337 150 C337 163 325 174 313 174 C275 174 303 124 263 124 C243 124 237 137 237 155 L237 250 C237 266 246 276 263 276 C303 276 275 226 313 226 C325 226 337 237 337 250 C337 292 305 324 263 324 C220 324 189 292 189 250 L189 150 C189 108 220 76 263 76 L263 76 Z " />
<glyph glyph-name="ordfeminine" unicode="&#xaa;" horiz-adv-x="274" d="M38 350 C38 308 69 276 112 276 C124 276 136 287 136 300 C136 338 86 309 86 350 C86 375 103 376 123 376 L162 376 C162 370 162 365 162 362 C162 354 162 297 164 292 C168 283 176 276 187 276 C199 276 211 287 211 300 L211 475 C211 517 179 549 137 549 L87 549 C74 549 63 538 63 525 C63 492 104 502 125 502 C140 502 156 500 161 484 C163 478 163 451 163 424 L112 424 C69 424 38 392 38 350 L38 350 Z " />
<glyph glyph-name="guillemotleft" unicode="&#xab;" horiz-adv-x="416" d="M60 185 C75 165 96 149 113 131 C130 115 145 96 163 82 C167 78 172 76 178 76 C191 76 202 87 202 100 C202 116 178 134 167 145 L112 200 L167 255 C178 266 202 284 202 300 C202 313 191 324 178 324 C172 324 167 322 163 318 C145 304 130 285 113 269 C96 251 75 235 60 215 C56 211 54 206 54 200 C54 194 56 189 60 185 L60 185 Z M310 85 C315 79 321 76 328 76 C341 76 352 87 352 100 C352 111 313 184 305 200 C313 216 352 289 352 300 C352 313 341 324 328 324 C321 324 315 321 310 315 C308 313 258 215 256 208 C255 206 254 203 254 200 C254 191 307 88 310 85 L310 85 Z " />
<glyph glyph-name="logicalnot" unicode="&#xac;" horiz-adv-x="350" d="M39 250 C39 240 45 231 54 227 C62 224 213 226 238 226 L239 225 L238 188 C238 170 240 151 263 151 C275 151 287 162 287 175 L287 250 C287 263 275 274 263 274 L63 274 C50 274 39 263 39 250 L39 250 Z " />
<glyph glyph-name="registered" unicode="&#xae;" horiz-adv-x="550" d="M39 400 C39 277 139 176 263 176 C386 176 487 277 487 400 C487 523 386 624 263 624 C139 624 39 523 39 400 L39 400 Z M263 576 C337 576 402 530 428 460 C435 440 436 422 439 402 C436 378 435 360 428 340 C402 270 337 224 263 224 C166 224 87 303 87 400 C87 497 166 576 263 576 L263 576 Z M189 300 C189 287 200 276 213 276 C223 276 231 282 235 292 C238 299 237 451 237 476 L262 476 C278 476 289 466 289 450 C289 410 239 438 239 400 C239 397 239 394 240 392 C242 385 292 287 294 285 C299 279 305 276 313 276 C326 276 337 287 337 300 C337 311 304 370 297 384 C323 395 337 423 337 450 C337 492 305 524 263 524 L213 524 C200 524 189 513 189 500 L189 300 Z " />
<glyph glyph-name="macron" unicode="&#xaf;" horiz-adv-x="275" d="M14 550 C14 537 25 526 38 526 L237 526 C250 526 261 537 261 550 C261 563 250 574 237 574 L38 574 C25 574 14 563 14 550 L14 550 Z " />
<glyph glyph-name="degree" unicode="&#xb0;" horiz-adv-x="350" d="M39 500 C39 432 94 376 163 376 C231 376 287 432 287 500 C287 568 231 624 163 624 C94 624 39 568 39 500 L39 500 Z M87 500 C87 542 121 576 163 576 C195 576 227 553 236 521 C237 514 238 507 239 500 C238 493 237 486 236 479 C227 447 195 424 163 424 C121 424 87 458 87 500 L87 500 Z " />
<glyph glyph-name="plusminus" unicode="&#xb1;" horiz-adv-x="450" d="M63 226 L189 226 L189 100 C189 87 200 76 213 76 C225 76 237 87 237 100 L237 226 L363 226 C375 226 387 237 387 250 C387 263 375 274 363 274 L237 274 L237 400 C237 413 225 424 213 424 C200 424 189 413 189 400 L188 274 L63 274 C50 274 39 263 39 250 C39 237 50 226 63 226 L63 226 Z M39 0 C39 -13 50 -24 63 -24 L363 -24 C375 -24 387 -13 387 0 C387 13 375 24 363 24 L63 24 C50 24 39 13 39 0 L39 0 Z " />
<glyph glyph-name="twosuperior" unicode="&#xb2;" horiz-adv-x="250" d="M63 526 C100 526 73 576 113 576 C129 576 139 566 139 550 C139 499 39 372 39 350 C39 337 50 326 63 326 L163 326 C175 326 187 337 187 350 C187 377 160 374 141 374 L106 374 C131 414 187 506 187 550 C187 592 155 624 113 624 C70 624 39 592 39 550 C39 537 50 526 63 526 L63 526 Z " />
<glyph glyph-name="threesuperior" unicode="&#xb3;" horiz-adv-x="250" d="M113 326 C155 326 187 358 187 400 L187 450 C187 481 165 515 134 521 C145 537 187 584 187 600 C187 613 175 624 163 624 L63 624 C50 624 39 613 39 600 C39 574 64 576 83 576 L115 576 C103 561 64 517 64 500 C64 473 92 476 110 476 C132 476 139 467 139 445 L139 401 C139 384 129 374 113 374 C73 374 100 424 63 424 C50 424 39 413 39 400 C39 358 70 326 113 326 L113 326 Z " />
<glyph glyph-name="acute" unicode="&#xb4;" horiz-adv-x="125" d="M14 500 C14 487 25 476 38 476 C45 476 51 479 56 485 C59 488 112 591 112 600 C112 613 100 624 88 624 C80 624 74 621 69 615 C67 613 17 515 15 508 C14 506 14 503 14 500 L14 500 Z " />
<glyph glyph-name="paragraph" unicode="&#xb6;" horiz-adv-x="450" d="M138 376 C150 376 162 387 162 400 C162 429 130 422 112 427 C80 436 62 468 62 500 C62 513 66 530 73 541 C93 578 128 577 165 577 C181 577 197 576 214 576 L214 0 C214 -13 225 -24 238 -24 C248 -24 256 -18 260 -8 C263 0 262 97 262 115 L262 576 L339 576 C339 400 338 224 338 49 C338 41 338 -3 340 -8 C344 -18 352 -24 363 -24 C375 -24 387 -13 387 0 L387 600 C387 613 375 624 363 624 L138 624 C66 624 14 572 14 500 C14 428 66 376 138 376 L138 376 Z " />
<glyph glyph-name="periodcentered" unicode="&#xb7;" horiz-adv-x="300" d="M39 225 C39 170 83 125 138 125 C192 125 237 170 237 225 C237 279 192 324 138 324 C83 324 39 279 39 225 L39 225 Z M87 225 C87 253 110 276 138 276 C170 276 183 253 189 225 C183 197 170 173 138 173 C110 173 87 197 87 225 L87 225 Z " />
<glyph glyph-name="cedilla" unicode="&#xb8;" horiz-adv-x="175" d="M13 -100 C13 -142 45 -174 87 -174 C129 -174 161 -142 161 -100 L161 -50 C161 -8 129 24 87 24 C74 24 63 13 63 0 C63 -5 65 -10 68 -14 C82 -35 113 -10 113 -55 L113 -99 C113 -115 104 -126 87 -126 C47 -126 75 -76 37 -76 C25 -76 13 -87 13 -100 L13 -100 Z " />
<glyph glyph-name="onesuperior" unicode="&#xb9;" horiz-adv-x="200" d="M39 600 C39 572 68 576 88 576 L89 575 C89 531 88 487 88 443 C88 433 88 347 90 342 C94 333 102 326 113 326 C125 326 137 337 137 350 L137 600 C137 613 125 624 113 624 L63 624 C50 624 39 613 39 600 L39 600 Z " />
<glyph glyph-name="ordmasculine" unicode="&#xba;" horiz-adv-x="325" d="M39 500 C39 432 94 376 163 376 C231 376 287 432 287 500 C287 568 231 624 163 624 C94 624 39 568 39 500 L39 500 Z M87 500 C87 542 121 576 163 576 C195 576 227 553 236 521 C237 514 238 507 239 500 C238 493 237 486 236 479 C227 447 195 424 163 424 C121 424 87 458 87 500 L87 500 Z " />
<glyph glyph-name="guillemotright" unicode="&#xbb;" horiz-adv-x="416" d="M213 76 C218 76 224 78 228 82 C246 96 261 115 277 131 C295 149 315 165 331 185 C334 189 337 194 337 200 C337 206 334 211 331 215 C316 233 298 248 282 265 C264 282 247 303 228 318 C224 322 218 324 213 324 C200 324 189 313 189 300 C189 294 191 289 194 285 C202 275 212 267 221 258 L279 200 L220 142 C212 133 202 125 194 115 C191 111 189 106 189 100 C189 87 200 76 213 76 L213 76 Z M39 300 C39 290 72 226 86 200 C72 174 39 110 39 100 C39 87 50 76 63 76 C70 76 76 79 81 85 C83 87 133 185 135 192 C136 194 137 197 137 200 C137 209 84 312 81 315 C76 321 70 324 63 324 C50 324 39 313 39 300 L39 300 Z " />
<glyph glyph-name="onequarter" unicode="&#xbc;" horiz-adv-x="525" d="M139 0 C139 -13 150 -24 163 -24 C172 -24 178 -19 183 -12 C187 -6 207 80 211 95 L286 396 C291 415 312 486 312 500 C312 513 300 524 288 524 C278 524 272 519 267 512 C263 506 243 420 239 406 L164 105 C159 85 139 14 139 0 L139 0 Z M264 75 C264 62 275 51 288 51 L389 51 L389 0 C389 -13 400 -24 413 -24 C425 -24 437 -13 437 0 L437 51 L463 51 C475 51 487 62 487 75 C487 86 480 94 471 98 C468 99 455 99 437 99 L437 125 C437 138 425 149 413 149 C400 149 389 138 389 125 L388 99 C358 99 328 99 319 99 C326 122 362 237 362 250 C362 263 350 274 338 274 C328 274 322 269 317 262 C314 258 264 81 264 75 L264 75 Z M39 500 C39 472 68 476 88 476 L89 475 C89 431 88 387 88 343 C88 333 88 247 90 242 C94 232 102 226 113 226 C125 226 137 237 137 250 L137 500 C137 513 125 524 113 524 L63 524 C50 524 39 513 39 500 L39 500 Z " />
<glyph glyph-name="onehalf" unicode="&#xbd;" horiz-adv-x="475" d="M163 -24 C172 -24 178 -19 183 -12 C187 -6 207 80 211 95 L286 396 C291 415 312 486 312 500 C312 513 300 524 288 524 C278 524 272 519 267 512 C263 506 243 420 239 406 L164 105 C159 85 139 14 139 0 C139 -13 150 -24 163 -24 L163 -24 Z M289 0 C289 -13 300 -24 313 -24 L413 -24 C425 -24 437 -13 437 0 C437 27 410 24 391 24 L356 24 C381 64 437 156 437 200 C437 242 405 274 363 274 C320 274 289 242 289 200 C289 187 300 176 313 176 C350 176 323 226 363 226 C379 226 389 216 389 200 C389 149 289 22 289 0 L289 0 Z M39 500 C39 472 68 476 88 476 L89 475 C89 431 88 387 88 343 C88 333 88 247 90 242 C94 232 102 226 113 226 C125 226 137 237 137 250 L137 500 C137 513 125 524 113 524 L63 524 C50 524 39 513 39 500 L39 500 Z " />
<glyph glyph-name="threequarters" unicode="&#xbe;" horiz-adv-x="550" d="M83 476 L115 476 C103 461 64 417 64 400 C64 373 92 376 110 376 C132 376 139 367 139 345 L139 301 C139 284 129 274 113 274 C73 274 100 324 63 324 C50 324 39 313 39 300 C39 258 70 226 113 226 C155 226 187 258 187 300 L187 350 C187 381 165 415 134 421 C145 437 187 484 187 500 C187 513 175 524 163 524 L63 524 C50 524 39 513 39 500 C39 474 64 476 83 476 L83 476 Z M164 0 C164 -13 175 -24 188 -24 C197 -24 203 -19 208 -12 C212 -6 232 80 236 95 L311 396 C316 415 337 486 337 500 C337 513 325 524 313 524 C303 524 297 519 292 512 C288 506 268 420 264 406 L189 105 C184 85 164 14 164 0 L164 0 Z M313 51 L414 51 L414 0 C414 -13 425 -24 438 -24 C450 -24 462 -13 462 0 L462 51 L488 51 C500 51 512 62 512 75 C512 86 505 94 496 98 C493 99 480 99 462 99 L462 125 C462 138 450 149 438 149 C425 149 414 138 414 125 L413 99 C383 99 353 99 344 99 C351 122 387 237 387 250 C387 263 375 274 363 274 C353 274 347 269 342 262 C339 258 289 81 289 75 C289 62 300 51 313 51 L313 51 Z " />
<glyph glyph-name="questiondown" unicode="&#xbf;" horiz-adv-x="262" d="M150 -224 C221 -224 274 -172 274 -100 C274 -87 262 -76 250 -76 C239 -76 231 -83 227 -92 C224 -100 225 -110 223 -119 C215 -157 187 -176 150 -176 C104 -176 74 -145 74 -100 C74 -16 174 -8 174 100 L174 200 C174 213 162 224 150 224 C125 224 125 199 125 182 C125 159 126 137 126 115 C126 103 126 86 122 74 C101 6 26 0 26 -100 C26 -172 78 -224 150 -224 L150 -224 Z M150 326 C162 326 174 337 174 350 L174 400 C174 413 162 424 150 424 C137 424 126 413 126 400 L126 350 C126 337 137 326 150 326 L150 326 Z " />
<glyph glyph-name="Agrave" unicode="&#xc0;" horiz-adv-x="425" d="M39 0 C39 -13 50 -24 63 -24 C80 -24 85 -11 88 4 L106 77 C108 76 110 76 113 76 L313 76 C315 76 317 76 319 77 L337 4 C341 -11 345 -24 363 -24 C375 -24 387 -13 387 0 C387 15 363 98 357 120 L267 482 C262 499 238 606 233 612 C228 619 222 624 213 624 C203 624 197 619 192 612 C188 606 163 499 158 482 L68 120 C62 98 39 15 39 0 L39 0 Z M213 501 L307 124 L118 124 L213 501 Z M164 799 C164 787 213 690 219 684 C224 678 230 675 238 675 C250 675 262 686 262 699 C262 702 261 705 260 707 C258 714 208 812 206 814 C201 820 195 823 188 823 C175 823 164 812 164 799 L164 799 Z " />
<glyph glyph-name="Aacute" unicode="&#xc1;" horiz-adv-x="425" d="M39 0 C39 -13 50 -24 63 -24 C80 -24 85 -11 88 4 L106 77 C108 76 110 76 113 76 L313 76 C315 76 317 76 319 77 L337 4 C341 -11 345 -24 363 -24 C375 -24 387 -13 387 0 C387 15 363 98 357 120 L267 482 C262 499 238 606 233 612 C228 619 222 624 213 624 C203 624 197 619 192 612 C188 606 163 499 158 482 L68 120 C62 98 39 15 39 0 L39 0 Z M213 501 L307 124 L118 124 L213 501 Z M164 699 C164 686 175 675 188 675 C195 675 201 678 206 684 C209 687 262 790 262 799 C262 812 250 823 238 823 C230 823 224 820 219 814 C217 812 167 714 165 707 C164 705 164 702 164 699 L164 699 Z " />
<glyph glyph-name="Acircumflex" unicode="&#xc2;" horiz-adv-x="425" d="M39 0 C39 -13 50 -24 63 -24 C80 -24 85 -11 88 4 L106 77 C108 76 110 76 113 76 L313 76 C315 76 317 76 319 77 L337 4 C341 -11 345 -24 363 -24 C375 -24 387 -13 387 0 C387 15 363 98 357 120 L267 482 C262 499 238 606 233 612 C228 619 222 624 213 624 C203 624 197 619 192 612 C188 606 163 499 158 482 L68 120 C62 98 39 15 39 0 L39 0 Z M213 501 L307 124 L118 124 L213 501 Z M89 699 C89 686 100 675 113 675 C118 675 124 677 128 681 C138 689 146 699 155 707 L213 765 L270 707 C279 699 287 689 297 681 C301 677 307 675 313 675 C325 675 337 686 337 699 C337 705 334 710 331 714 C315 734 295 750 277 768 C261 784 246 803 228 817 C224 821 218 823 213 823 C207 823 202 821 197 817 C179 803 164 784 148 768 C130 750 110 734 94 714 C91 710 89 705 89 699 L89 699 Z " />
<glyph glyph-name="Atilde" unicode="&#xc3;" horiz-adv-x="425" d="M63 -24 C80 -24 85 -11 88 4 L106 77 C108 76 110 76 113 76 L313 76 C315 76 317 76 319 77 L337 4 C341 -11 345 -24 363 -24 C375 -24 387 -13 387 0 C387 15 363 98 357 120 L267 482 C262 499 238 606 233 612 C228 619 222 624 213 624 C203 624 197 619 192 612 C188 606 163 499 158 482 L68 120 C62 98 39 15 39 0 C39 -13 50 -24 63 -24 L63 -24 Z M213 501 L307 124 L118 124 L213 501 Z M89 723 C89 710 100 699 113 699 C150 699 123 749 163 749 C195 749 206 699 263 699 C305 699 337 731 337 773 C337 786 325 797 313 797 C275 797 303 747 263 747 C230 747 220 797 163 797 C120 797 89 765 89 723 L89 723 Z " />
<glyph glyph-name="Adieresis" unicode="&#xc4;" horiz-adv-x="425" d="M39 0 C39 -13 50 -24 63 -24 C80 -24 85 -11 88 4 L106 77 C108 76 110 76 113 76 L313 76 C315 76 317 76 319 77 L337 4 C341 -11 345 -24 363 -24 C375 -24 387 -13 387 0 C387 15 363 98 357 120 L267 482 C262 499 238 606 233 612 C228 619 222 624 213 624 C203 624 197 619 192 612 C188 606 163 499 158 482 L68 120 C62 98 39 15 39 0 L39 0 Z M213 501 L307 124 L118 124 L213 501 Z M264 749 C264 736 275 725 288 725 C300 725 312 736 312 749 L312 799 C312 812 300 823 288 823 C275 823 264 812 264 799 L264 749 Z M114 799 L114 749 C114 736 125 725 138 725 C151 725 162 736 162 749 L162 799 C162 812 151 823 138 823 C125 823 114 812 114 799 L114 799 Z " />
<glyph glyph-name="Aring" unicode="&#xc5;" horiz-adv-x="425" d="M39 0 C39 -13 50 -24 63 -24 C80 -24 85 -11 88 4 L106 77 C108 76 110 76 113 76 L313 76 C315 76 317 76 319 77 L337 4 C341 -11 345 -24 363 -24 C375 -24 387 -13 387 0 C387 15 363 98 357 120 L267 482 C262 499 238 606 233 612 C228 619 222 624 213 624 C203 624 197 619 192 612 C188 606 163 499 158 482 L68 120 C62 98 39 15 39 0 L39 0 Z M213 625 C269 625 312 667 312 724 C312 781 269 823 213 823 C156 823 114 781 114 724 C114 667 156 625 213 625 L213 625 Z M213 501 L307 124 L118 124 L213 501 Z M162 724 C162 755 182 775 213 775 C256 775 258 746 264 724 C258 702 256 673 213 673 C182 673 162 694 162 724 L162 724 Z " />
<glyph glyph-name="AE" unicode="&#xc6;" horiz-adv-x="537" d="M50 -24 C59 -24 65 -19 70 -12 C73 -8 85 40 94 77 C96 76 98 76 100 76 L250 76 C257 76 264 80 268 85 C271 70 274 54 277 38 C281 0 313 -24 350 -24 L450 -24 C462 -24 474 -13 474 0 C474 24 450 25 432 25 C410 25 388 23 365 23 C351 23 336 22 327 35 C323 42 305 157 301 175 L265 376 L400 376 C412 376 424 387 424 400 C424 413 412 424 400 424 L256 424 L228 576 C272 576 315 576 358 576 C368 576 453 575 458 577 C467 582 474 589 474 600 C474 613 462 624 450 624 L200 624 C191 624 181 618 178 610 C177 608 176 606 176 604 C168 578 149 497 145 482 L55 120 C49 98 26 15 26 0 C26 -13 37 -24 50 -24 L50 -24 Z M105 124 L194 480 C195 481 195 484 196 486 L205 434 C224 329 243 225 262 120 C258 123 254 124 250 124 L105 124 Z " />
<glyph glyph-name="Ccedilla" unicode="&#xc7;" horiz-adv-x="450" d="M39 450 L39 150 C39 40 116 -24 222 -24 C236 -26 251 -24 251 -55 L251 -99 C251 -115 241 -126 225 -126 C185 -126 213 -76 175 -76 C162 -76 151 -87 151 -100 C151 -142 183 -174 225 -174 C267 -174 299 -142 299 -100 L299 -50 C299 -35 295 -21 288 -10 C348 16 387 85 387 150 C387 163 375 174 363 174 C352 174 344 168 340 158 C334 145 336 125 332 111 C315 52 273 24 213 24 C154 24 114 49 95 105 C90 119 87 135 87 150 L87 450 C87 465 90 481 95 495 C114 551 154 576 213 576 C272 576 315 548 332 490 C336 475 334 455 340 442 C344 432 352 426 363 426 C375 426 387 437 387 450 C387 467 383 483 379 499 C357 580 296 624 213 624 C110 624 39 551 39 450 L39 450 Z " />
<glyph glyph-name="Egrave" unicode="&#xc8;" horiz-adv-x="400" d="M39 600 L39 50 C39 8 70 -24 113 -24 L313 -24 C325 -24 337 -13 337 0 C337 31 297 24 278 24 C228 24 178 23 128 23 C103 23 87 24 87 55 L87 376 L213 376 C225 376 237 387 237 400 C237 413 225 424 213 424 L87 424 L87 576 C131 576 175 576 220 576 C230 576 315 575 321 577 C330 581 337 590 337 600 C337 613 325 624 313 624 L63 624 C50 624 39 613 39 600 L39 600 Z M152 791 C155 784 204 686 207 684 C211 678 218 675 225 675 C238 675 249 686 249 699 C249 702 248 705 248 707 C245 714 196 812 193 814 C189 820 182 823 175 823 C162 823 151 812 151 799 C151 796 152 794 152 791 L152 791 Z " />
<glyph glyph-name="Eacute" unicode="&#xc9;" horiz-adv-x="400" d="M39 600 L39 50 C39 8 70 -24 113 -24 L313 -24 C325 -24 337 -13 337 0 C337 31 297 24 278 24 C228 24 178 23 128 23 C103 23 87 24 87 55 L87 376 L213 376 C225 376 237 387 237 400 C237 413 225 424 213 424 L87 424 L87 576 C131 576 175 576 220 576 C230 576 315 575 321 577 C330 581 337 590 337 600 C337 613 325 624 313 624 L63 624 C50 624 39 613 39 600 L39 600 Z M175 675 C182 675 189 678 193 684 C196 686 245 784 248 791 C248 794 249 796 249 799 C249 812 238 823 225 823 C218 823 211 820 207 814 C204 812 155 714 152 707 C152 705 151 702 151 699 C151 686 162 675 175 675 L175 675 Z " />
<glyph glyph-name="Ecircumflex" unicode="&#xca;" horiz-adv-x="400" d="M39 600 L39 50 C39 8 70 -24 113 -24 L313 -24 C325 -24 337 -13 337 0 C337 31 297 24 278 24 C228 24 178 23 128 23 C103 23 87 24 87 55 L87 376 L213 376 C225 376 237 387 237 400 C237 413 225 424 213 424 L87 424 L87 576 C131 576 175 576 220 576 C230 576 315 575 321 577 C330 581 337 590 337 600 C337 613 325 624 313 624 L63 624 C50 624 39 613 39 600 L39 600 Z M76 699 C76 686 87 675 100 675 C106 675 111 677 115 681 C125 689 133 699 142 707 L200 765 L258 707 C267 699 275 689 285 681 C289 677 294 675 300 675 C313 675 324 686 324 699 C324 705 322 710 318 714 C303 734 283 750 265 768 C249 784 234 803 215 817 C211 821 206 823 200 823 C194 823 189 821 185 817 C167 803 152 784 135 768 C118 750 97 734 82 714 C78 710 76 705 76 699 L76 699 Z " />
<glyph glyph-name="Edieresis" unicode="&#xcb;" horiz-adv-x="400" d="M39 600 L39 50 C39 8 70 -24 113 -24 L313 -24 C325 -24 337 -13 337 0 C337 31 297 24 278 24 C228 24 178 23 128 23 C103 23 87 24 87 55 L87 376 L213 376 C225 376 237 387 237 400 C237 413 225 424 213 424 L87 424 L87 576 C131 576 175 576 220 576 C230 576 315 575 321 577 C330 581 337 590 337 600 C337 613 325 624 313 624 L63 624 C50 624 39 613 39 600 L39 600 Z M251 799 L251 749 C251 736 262 725 275 725 C288 725 299 736 299 749 L299 799 C299 812 288 823 275 823 C262 823 251 812 251 799 L251 799 Z M101 749 C101 736 112 725 125 725 C138 725 149 736 149 749 L149 799 C149 812 138 823 125 823 C112 823 101 812 101 799 L101 749 Z " />
<glyph glyph-name="Igrave" unicode="&#xcc;" horiz-adv-x="150" d="M39 600 L39 0 C39 -13 50 -24 63 -24 C75 -24 87 -13 87 0 L87 600 C87 613 75 624 63 624 C50 624 39 613 39 600 L39 600 Z M26 799 C26 796 27 794 27 791 C30 784 79 686 82 684 C86 678 93 675 100 675 C113 675 124 686 124 699 C124 702 123 705 123 707 C120 714 71 812 68 814 C64 820 57 823 50 823 C37 823 26 812 26 799 L26 799 Z " />
<glyph glyph-name="Iacute" unicode="&#xcd;" horiz-adv-x="150" d="M39 0 C39 -13 50 -24 63 -24 C75 -24 87 -13 87 0 L87 600 C87 613 75 624 63 624 C50 624 39 613 39 600 L39 0 Z M50 675 C57 675 64 678 68 684 C71 686 120 784 123 791 C123 794 124 796 124 799 C124 812 113 823 100 823 C93 823 86 820 82 814 C79 812 30 714 27 707 C27 705 26 702 26 699 C26 686 37 675 50 675 L50 675 Z " />
<glyph glyph-name="Icircumflex" unicode="&#xce;" horiz-adv-x="150" d="M39 0 C39 -13 50 -24 63 -24 C75 -24 87 -13 87 0 L87 600 C87 613 75 624 63 624 C50 624 39 613 39 600 L39 0 Z M-25 675 C-19 675 -14 677 -10 681 C0 689 8 699 17 707 L75 765 L133 707 C142 699 150 689 160 681 C164 677 169 675 175 675 C188 675 199 686 199 699 C199 705 197 710 193 714 C178 734 158 750 140 768 C124 784 109 803 90 817 C86 821 81 823 75 823 C69 823 64 821 60 817 C42 803 27 784 10 768 C-8 750 -28 734 -43 714 C-47 710 -49 705 -49 699 C-49 686 -38 675 -25 675 L-25 675 Z " />
<glyph glyph-name="Idieresis" unicode="&#xcf;" horiz-adv-x="150" d="M63 -24 C75 -24 87 -13 87 0 L87 600 C87 613 75 624 63 624 C50 624 39 613 39 600 L39 0 C39 -13 50 -24 63 -24 L63 -24 Z M126 799 L126 749 C126 736 137 725 150 725 C163 725 174 736 174 749 L174 799 C174 812 163 823 150 823 C137 823 126 812 126 799 L126 799 Z M-24 749 C-24 736 -13 725 0 725 C13 725 24 736 24 749 L24 799 C24 812 13 823 0 823 C-13 823 -24 812 -24 799 L-24 749 Z " />
<glyph glyph-name="Eth" unicode="&#xd0;" horiz-adv-x="450" d="M13 276 L39 276 L39 0 C39 -13 50 -24 63 -24 C73 -24 81 -18 85 -8 C88 -1 87 97 87 115 L87 276 L237 276 C250 276 261 287 261 300 C261 313 250 324 237 324 L87 324 L87 576 L213 576 C287 576 339 525 339 450 L339 150 C339 135 335 119 330 105 C304 31 254 24 187 24 C169 24 139 28 139 0 C139 -13 150 -24 163 -24 L213 -24 C296 -24 357 20 379 101 C383 117 387 134 387 150 L387 450 C387 534 343 594 261 617 C246 621 229 624 213 624 L63 624 C50 624 39 613 39 600 L39 324 L13 324 C-1 324 -12 313 -12 300 C-12 287 -1 276 13 276 L13 276 Z " />
<glyph glyph-name="Ntilde" unicode="&#xd1;" horiz-adv-x="450" d="M63 -24 C73 -24 81 -18 85 -8 C88 0 87 92 87 110 L87 555 L264 437 C277 428 313 401 339 386 L339 0 C339 -13 350 -24 363 -24 C375 -24 387 -13 387 0 L387 600 C387 613 375 624 363 624 C350 624 339 613 339 600 L339 445 L106 600 C96 607 86 615 75 621 C71 623 67 624 63 624 C50 624 39 613 39 600 L39 0 C39 -13 50 -24 63 -24 L63 -24 Z M125 699 C163 699 135 749 175 749 C208 749 218 699 275 699 C317 699 349 731 349 773 C349 786 338 797 325 797 C288 797 315 747 275 747 C242 747 232 797 175 797 C133 797 101 765 101 723 C101 710 112 699 125 699 L125 699 Z " />
<glyph glyph-name="Ograve" unicode="&#xd2;" horiz-adv-x="450" d="M39 150 C39 49 110 -24 213 -24 C296 -24 357 20 379 101 C383 117 387 134 387 150 L387 450 C387 467 383 483 379 499 C357 580 296 624 213 624 C110 624 39 551 39 450 L39 150 Z M87 450 C87 502 118 556 170 571 C181 574 200 574 213 575 C225 574 244 574 255 571 C307 556 339 502 339 450 L339 150 C339 135 335 119 330 105 C311 49 271 24 213 24 C154 24 114 49 95 105 C90 119 87 135 87 150 L87 450 Z M176 799 C176 796 177 794 177 791 C180 784 229 686 232 684 C236 678 243 675 250 675 C263 675 274 686 274 699 C274 702 273 705 273 707 C270 714 221 812 218 814 C214 820 207 823 200 823 C187 823 176 812 176 799 L176 799 Z " />
<glyph glyph-name="Oacute" unicode="&#xd3;" horiz-adv-x="450" d="M39 150 C39 49 110 -24 213 -24 C296 -24 357 20 379 101 C383 117 387 134 387 150 L387 450 C387 467 383 483 379 499 C357 580 296 624 213 624 C110 624 39 551 39 450 L39 150 Z M87 450 C87 502 118 556 170 571 C181 574 200 574 213 575 C225 574 244 574 255 571 C307 556 339 502 339 450 L339 150 C339 135 335 119 330 105 C311 49 271 24 213 24 C154 24 114 49 95 105 C90 119 87 135 87 150 L87 450 Z M200 675 C207 675 214 678 218 684 C221 686 270 784 273 791 C273 794 274 796 274 799 C274 812 263 823 250 823 C243 823 236 820 232 814 C229 812 180 714 177 707 C177 705 176 702 176 699 C176 686 187 675 200 675 L200 675 Z " />
<glyph glyph-name="Ocircumflex" unicode="&#xd4;" horiz-adv-x="450" d="M39 150 C39 49 110 -24 213 -24 C296 -24 357 20 379 101 C383 117 387 134 387 150 L387 450 C387 467 383 483 379 499 C357 580 296 624 213 624 C110 624 39 551 39 450 L39 150 Z M170 571 C181 574 200 574 213 575 C225 574 244 574 255 571 C307 556 339 502 339 450 L339 150 C339 135 335 119 330 105 C311 49 271 24 213 24 C154 24 114 49 95 105 C90 119 87 135 87 150 L87 450 C87 502 118 556 170 571 L170 571 Z M125 675 C131 675 136 677 140 681 C150 689 158 699 167 707 L225 765 L283 707 C292 699 300 689 310 681 C314 677 319 675 325 675 C338 675 349 686 349 699 C349 705 347 710 343 714 C328 734 308 750 290 768 C274 784 259 803 240 817 C236 821 231 823 225 823 C219 823 214 821 210 817 C192 803 177 784 160 768 C143 750 122 734 107 714 C103 710 101 705 101 699 C101 686 112 675 125 675 L125 675 Z " />
<glyph glyph-name="Otilde" unicode="&#xd5;" horiz-adv-x="450" d="M39 150 C39 49 110 -24 213 -24 C296 -24 357 20 379 101 C383 117 387 134 387 150 L387 450 C387 467 383 483 379 499 C357 580 296 624 213 624 C110 624 39 551 39 450 L39 150 Z M87 450 C87 502 118 556 170 571 C181 574 200 574 213 575 C225 574 244 574 255 571 C307 556 339 502 339 450 L339 150 C339 135 335 119 330 105 C311 49 271 24 213 24 C154 24 114 49 95 105 C90 119 87 135 87 150 L87 450 Z M125 699 C163 699 135 749 175 749 C208 749 218 699 275 699 C317 699 349 731 349 773 C349 786 338 797 325 797 C288 797 315 747 275 747 C242 747 232 797 175 797 C133 797 101 765 101 723 C101 710 112 699 125 699 L125 699 Z " />
<glyph glyph-name="Odieresis" unicode="&#xd6;" horiz-adv-x="450" d="M39 150 C39 49 110 -24 213 -24 C296 -24 357 20 379 101 C383 117 387 134 387 150 L387 450 C387 467 383 483 379 499 C357 580 296 624 213 624 C110 624 39 551 39 450 L39 150 Z M87 150 L87 450 C87 502 118 556 170 571 C181 574 200 574 213 575 C225 574 244 574 255 571 C307 556 339 502 339 450 L339 150 C339 135 335 119 330 105 C311 49 271 24 213 24 C154 24 114 49 95 105 C90 119 87 135 87 150 L87 150 Z M150 725 C163 725 174 736 174 749 L174 799 C174 812 163 823 150 823 C137 823 126 812 126 799 L126 749 C126 736 137 725 150 725 L150 725 Z M276 749 C276 736 287 725 300 725 C313 725 324 736 324 749 L324 799 C324 812 313 823 300 823 C287 823 276 812 276 799 L276 749 Z " />
<glyph glyph-name="multiply" unicode="&#xd7;" horiz-adv-x="400" d="M39 400 C39 385 57 370 66 359 L156 250 L66 141 C57 130 39 115 39 100 C39 87 50 76 63 76 C73 76 79 82 85 90 L188 212 L290 90 C296 82 302 76 313 76 C325 76 337 87 337 100 C337 115 319 130 310 141 L219 250 L310 359 C319 370 337 385 337 400 C337 413 325 424 313 424 C302 424 296 418 290 410 L188 288 L85 410 C79 418 73 424 63 424 C50 424 39 413 39 400 L39 400 Z " />
<glyph glyph-name="Oslash" unicode="&#xd8;" horiz-adv-x="450" d="M39 150 C39 93 66 33 115 2 C103 -41 89 -91 89 -100 C89 -113 100 -124 113 -124 C122 -124 128 -119 133 -112 C136 -108 149 -62 161 -18 C177 -22 194 -24 213 -24 C296 -24 357 20 379 101 C383 117 387 134 387 150 L387 450 C387 497 364 552 330 583 C343 627 362 690 362 700 C362 713 350 724 338 724 C328 724 322 719 317 712 C314 708 299 657 287 610 C265 619 240 624 213 624 C110 624 39 551 39 450 L39 150 Z M170 571 C181 574 200 574 213 575 C225 574 244 574 255 571 C262 569 268 566 274 563 C270 551 268 541 267 536 L132 58 C131 56 131 53 130 51 C103 75 87 114 87 150 L87 450 C87 502 118 556 170 571 L170 571 Z M174 28 C178 45 182 58 183 64 L314 528 C330 505 339 477 339 450 L339 150 C339 135 335 119 330 105 C311 49 271 24 213 24 C199 24 186 25 174 28 L174 28 Z " />
<glyph glyph-name="Ugrave" unicode="&#xd9;" horiz-adv-x="450" d="M39 600 L39 150 C39 49 110 -24 213 -24 C296 -24 357 20 379 101 C383 117 387 134 387 150 L387 600 C387 613 375 624 363 624 C334 624 339 593 339 573 C339 437 339 300 339 163 C339 82 297 24 213 24 C137 24 92 71 87 145 C86 161 87 176 87 192 L87 588 C87 606 84 624 63 624 C50 624 39 613 39 600 L39 600 Z M177 791 C180 784 229 686 232 684 C236 678 243 675 250 675 C263 675 274 686 274 699 C274 702 273 705 273 707 C270 714 221 812 218 814 C214 820 207 823 200 823 C187 823 176 812 176 799 C176 796 177 794 177 791 L177 791 Z " />
<glyph glyph-name="Uacute" unicode="&#xda;" horiz-adv-x="450" d="M213 -24 C296 -24 357 20 379 101 C383 117 387 134 387 150 L387 600 C387 613 375 624 363 624 C334 624 339 593 339 573 C339 437 339 300 339 163 C339 82 297 24 213 24 C137 24 92 71 87 145 C86 161 87 176 87 192 L87 588 C87 606 84 624 63 624 C50 624 39 613 39 600 L39 150 C39 49 110 -24 213 -24 L213 -24 Z M176 699 C176 686 187 675 200 675 C207 675 214 678 218 684 C221 686 270 784 273 791 C273 794 274 796 274 799 C274 812 263 823 250 823 C243 823 236 820 232 814 C229 812 180 714 177 707 C177 705 176 702 176 699 L176 699 Z " />
<glyph glyph-name="Ucircumflex" unicode="&#xdb;" horiz-adv-x="450" d="M213 -24 C296 -24 357 20 379 101 C383 117 387 134 387 150 L387 600 C387 613 375 624 363 624 C334 624 339 593 339 573 C339 437 339 300 339 163 C339 82 297 24 213 24 C137 24 92 71 87 145 C86 161 87 176 87 192 L87 588 C87 606 84 624 63 624 C50 624 39 613 39 600 L39 150 C39 49 110 -24 213 -24 L213 -24 Z M101 699 C101 686 112 675 125 675 C131 675 136 677 140 681 C150 689 158 699 167 707 L225 765 L283 707 C292 699 300 689 310 681 C314 677 319 675 325 675 C338 675 349 686 349 699 C349 705 347 710 343 714 C328 734 308 750 290 768 C274 784 259 803 240 817 C236 821 231 823 225 823 C219 823 214 821 210 817 C192 803 177 784 160 768 C143 750 122 734 107 714 C103 710 101 705 101 699 L101 699 Z " />
<glyph glyph-name="Udieresis" unicode="&#xdc;" horiz-adv-x="450" d="M39 600 L39 150 C39 49 110 -24 213 -24 C296 -24 357 20 379 101 C383 117 387 134 387 150 L387 600 C387 613 375 624 363 624 C334 624 339 593 339 573 C339 437 339 300 339 163 C339 82 297 24 213 24 C137 24 92 71 87 145 C86 161 87 176 87 192 L87 588 C87 606 84 624 63 624 C50 624 39 613 39 600 L39 600 Z M126 799 L126 749 C126 736 137 725 150 725 C163 725 174 736 174 749 L174 799 C174 812 163 823 150 823 C137 823 126 812 126 799 L126 799 Z M276 799 L276 749 C276 736 287 725 300 725 C313 725 324 736 324 749 L324 799 C324 812 313 823 300 823 C287 823 276 812 276 799 L276 799 Z " />
<glyph glyph-name="Yacute" unicode="&#xdd;" horiz-adv-x="399" d="M26 600 C26 596 27 592 29 588 C33 580 143 434 176 393 L176 0 C176 -13 187 -24 200 -24 C212 -24 224 -13 224 0 L223 393 C242 417 374 583 374 600 C374 613 362 624 350 624 C344 624 339 622 334 618 C329 614 303 577 296 569 L200 440 L103 569 C97 577 71 614 65 618 C60 622 56 624 50 624 C37 624 26 613 26 600 L26 600 Z M151 699 C151 686 162 675 175 675 C182 675 188 678 193 684 C196 687 249 790 249 799 C249 812 237 823 225 823 C217 823 211 820 206 814 C204 812 154 714 152 707 C151 705 151 702 151 699 L151 699 Z " />
<glyph glyph-name="germandbls" unicode="&#xdf;" horiz-adv-x="518" d="M50 370 L101 370 C102 299 103 228 104 157 C105 104 105 50 107 -3 C107 -18 115 -30 131 -30 C144 -30 155 -19 155 -6 C155 160 149 327 149 493 C149 500 151 507 153 513 C165 550 191 570 231 570 L340 570 L251 458 C238 441 220 425 210 406 C208 402 207 398 207 394 C207 361 259 370 280 370 C339 370 379 346 398 289 C403 274 407 259 407 244 L407 144 C407 128 403 113 398 98 C381 49 347 22 295 18 C282 17 268 18 256 18 C237 18 207 21 207 -6 C207 -19 218 -30 231 -30 L281 -30 C364 -30 425 14 447 95 C452 111 455 127 455 144 L455 244 C455 269 448 296 438 319 C407 389 355 415 281 418 L356 512 C368 528 384 543 393 560 C397 565 399 572 399 579 C399 611 363 618 338 618 L231 618 C171 618 127 586 108 529 C104 518 101 506 101 494 C101 468 101 443 101 418 L50 418 C37 418 26 407 26 394 C26 381 37 370 50 370 L50 370 Z " />
<glyph glyph-name="agrave" unicode="&#xe0;" horiz-adv-x="351" d="M39 101 C39 29 91 -24 163 -24 C176 -24 187 -13 187 0 C187 30 155 23 137 27 C106 36 87 69 87 101 C87 129 101 157 127 169 C148 179 205 177 239 176 C239 124 238 72 238 20 C238 2 237 -24 263 -24 C276 -24 287 -13 287 0 L287 195 C287 197 287 198 287 200 C287 201 287 203 287 204 L287 301 C287 372 235 424 163 424 L100 424 C87 424 76 413 76 400 C76 367 129 376 151 376 C223 376 240 344 240 276 C240 258 240 241 239 224 L163 224 C91 224 39 172 39 101 L39 101 Z M182 485 C187 479 193 476 200 476 C213 476 224 487 224 500 C224 503 224 506 223 508 C221 515 171 613 169 615 C164 621 157 624 150 624 C137 624 126 613 126 600 C126 589 180 487 182 485 L182 485 Z " />
<glyph glyph-name="aacute" unicode="&#xe1;" horiz-adv-x="351" d="M39 101 C39 29 91 -24 163 -24 C176 -24 187 -13 187 0 C187 30 155 23 137 27 C106 36 87 69 87 101 C87 129 101 157 127 169 C148 179 205 177 239 176 C239 124 238 72 238 20 C238 2 237 -24 263 -24 C276 -24 287 -13 287 0 L287 195 C287 197 287 198 287 200 C287 201 287 203 287 204 L287 301 C287 372 235 424 163 424 L100 424 C87 424 76 413 76 400 C76 367 129 376 151 376 C223 376 240 344 240 276 C240 258 240 241 239 224 L163 224 C91 224 39 172 39 101 L39 101 Z M150 476 C157 476 164 479 169 485 C175 491 224 588 224 600 C224 613 213 624 200 624 C193 624 187 621 182 615 C179 613 130 515 128 508 C127 506 126 503 126 500 C126 487 137 476 150 476 L150 476 Z " />
<glyph glyph-name="acircumflex" unicode="&#xe2;" horiz-adv-x="351" d="M163 -24 C176 -24 187 -13 187 0 C187 30 155 23 137 27 C106 36 87 69 87 101 C87 129 101 157 127 169 C148 179 205 177 239 176 C239 124 238 72 238 20 C238 2 237 -24 263 -24 C276 -24 287 -13 287 0 L287 195 C287 197 287 198 287 200 C287 201 287 203 287 204 L287 301 C287 372 235 424 163 424 L100 424 C87 424 76 413 76 400 C76 367 129 376 151 376 C223 376 240 344 240 276 C240 258 240 241 239 224 L163 224 C91 224 39 172 39 101 C39 29 91 -24 163 -24 L163 -24 Z M51 500 C51 487 62 476 75 476 C81 476 86 478 91 482 C101 490 109 500 118 508 L175 566 L233 508 C242 500 250 490 260 482 C264 478 270 476 275 476 C288 476 299 487 299 500 C299 506 297 511 294 515 C278 535 258 551 240 569 C224 585 209 604 191 618 C186 622 181 624 175 624 C170 624 164 622 160 618 C142 604 127 585 111 569 C93 551 73 535 57 515 C53 511 51 506 51 500 L51 500 Z " />
<glyph glyph-name="atilde" unicode="&#xe3;" horiz-adv-x="351" d="M39 101 C39 29 91 -24 163 -24 C176 -24 187 -13 187 0 C187 30 155 23 137 27 C106 36 87 69 87 101 C87 129 101 157 127 169 C148 179 205 177 239 176 C239 124 238 72 238 20 C238 2 237 -24 263 -24 C276 -24 287 -13 287 0 L287 195 C287 197 287 198 287 200 C287 201 287 203 287 204 L287 301 C287 372 235 424 163 424 L100 424 C87 424 76 413 76 400 C76 367 129 376 151 376 C223 376 240 344 240 276 C240 258 240 241 239 224 L163 224 C91 224 39 172 39 101 L39 101 Z M26 524 C26 511 37 500 50 500 C88 500 60 550 100 550 C133 550 143 500 200 500 C243 500 274 532 274 574 C274 587 263 598 250 598 C213 598 240 548 200 548 C168 548 157 598 100 598 C58 598 26 566 26 524 L26 524 Z " />
<glyph glyph-name="adieresis" unicode="&#xe4;" horiz-adv-x="351" d="M163 -24 C176 -24 187 -13 187 0 C187 30 155 23 137 27 C106 36 87 69 87 101 C87 129 101 157 127 169 C148 179 205 177 239 176 C239 124 238 72 238 20 C238 2 237 -24 263 -24 C276 -24 287 -13 287 0 L287 195 C287 197 287 198 287 200 C287 201 287 203 287 204 L287 301 C287 372 235 424 163 424 L100 424 C87 424 76 413 76 400 C76 367 129 376 151 376 C223 376 240 344 240 276 C240 258 240 241 239 224 L163 224 C91 224 39 172 39 101 C39 29 91 -24 163 -24 L163 -24 Z M226 600 L226 550 C226 537 237 526 250 526 C263 526 274 537 274 550 L274 600 C274 613 263 624 250 624 C237 624 226 613 226 600 L226 600 Z M100 526 C113 526 124 537 124 550 L124 600 C124 613 113 624 100 624 C87 624 76 613 76 600 L76 550 C76 537 87 526 100 526 L100 526 Z " />
<glyph glyph-name="aring" unicode="&#xe5;" horiz-adv-x="351" d="M176 -24 C189 -24 200 -13 200 0 C200 30 168 23 150 27 C119 36 100 69 100 101 C100 129 114 157 140 169 C161 179 218 177 252 176 C252 124 251 72 251 20 C251 2 250 -24 276 -24 C289 -24 300 -13 300 0 L300 195 C300 197 300 198 300 200 C300 201 300 203 300 204 L300 301 C300 372 248 424 176 424 L113 424 C100 424 89 413 89 400 C89 367 142 376 164 376 C236 376 253 344 253 276 C253 258 253 241 252 224 L176 224 C104 224 52 172 52 101 C52 29 104 -24 176 -24 L176 -24 Z M64 525 C64 468 106 426 163 426 C219 426 262 468 262 525 C262 582 219 624 163 624 C106 624 64 582 64 525 L64 525 Z M112 525 C112 556 132 576 163 576 C206 576 208 547 214 525 C208 503 206 474 163 474 C132 474 112 495 112 525 L112 525 Z " />
<glyph glyph-name="ae" unicode="&#xe6;" horiz-adv-x="525" d="M39 100 C39 28 91 -24 163 -24 C175 -24 187 -13 187 0 C187 29 155 22 137 27 C105 36 87 68 87 100 C87 113 91 130 98 141 C118 178 153 177 190 177 C206 177 222 176 238 176 L238 115 C238 112 238 108 239 105 L239 100 C239 28 291 -24 363 -24 L400 -24 C413 -24 424 -13 424 0 C424 28 394 24 374 24 C343 24 316 28 298 57 C291 70 287 86 287 100 L287 300 C287 345 317 376 363 376 C408 376 439 345 439 300 L439 224 C424 224 410 224 395 224 C376 224 339 230 339 200 C339 187 350 176 363 176 L463 176 C475 176 487 187 487 200 L487 300 C487 372 434 424 363 424 C320 424 285 406 263 376 C240 406 205 424 163 424 L100 424 C87 424 76 413 76 400 C76 366 129 377 151 377 C203 377 234 357 238 303 C238 302 238 302 239 300 L239 250 L238 224 L163 224 C91 224 39 172 39 100 L39 100 Z " />
<glyph glyph-name="ccedilla" unicode="&#xe7;" horiz-adv-x="350" d="M39 300 L39 100 C39 20 96 -24 172 -24 C186 -26 201 -24 201 -55 L201 -99 C201 -115 191 -126 175 -126 C135 -126 163 -76 125 -76 C112 -76 101 -87 101 -100 C101 -142 133 -174 175 -174 C217 -174 249 -142 249 -100 L249 -50 C249 -32 243 -16 233 -4 C266 18 287 55 287 100 C287 113 275 124 263 124 C252 124 244 118 240 108 C237 100 238 90 236 81 C228 43 200 24 163 24 C117 24 87 55 87 100 L87 300 C87 345 117 376 163 376 C200 376 228 357 236 319 C238 310 237 300 240 292 C244 283 252 276 263 276 C275 276 287 287 287 300 C287 372 234 424 163 424 C91 424 39 372 39 300 L39 300 Z " />
<glyph glyph-name="egrave" unicode="&#xe8;" horiz-adv-x="351" d="M39 300 L39 100 C39 43 76 -9 133 -21 C146 -24 159 -24 172 -24 C191 -24 224 -29 224 0 C224 28 195 24 175 24 C144 24 116 27 99 57 C92 70 87 86 87 100 L87 300 C87 345 118 376 163 376 C208 376 239 345 239 300 L239 224 C225 224 210 224 196 224 C176 224 139 230 139 200 C139 187 150 176 163 176 L263 176 C276 176 287 187 287 200 L287 300 C287 372 235 424 163 424 C91 424 39 372 39 300 L39 300 Z M126 600 C126 589 180 487 182 485 C187 479 193 476 200 476 C213 476 224 487 224 500 C224 503 224 506 223 508 C221 515 171 613 169 615 C164 621 157 624 150 624 C137 624 126 613 126 600 L126 600 Z " />
<glyph glyph-name="eacute" unicode="&#xe9;" horiz-adv-x="351" d="M39 300 L39 100 C39 43 76 -9 133 -21 C146 -24 159 -24 172 -24 C191 -24 224 -29 224 0 C224 28 195 24 175 24 C144 24 116 27 99 57 C92 70 87 86 87 100 L87 300 C87 345 118 376 163 376 C208 376 239 345 239 300 L239 224 C225 224 210 224 196 224 C176 224 139 230 139 200 C139 187 150 176 163 176 L263 176 C276 176 287 187 287 200 L287 300 C287 372 235 424 163 424 C91 424 39 372 39 300 L39 300 Z M150 476 C157 476 164 479 169 485 C175 491 224 588 224 600 C224 613 213 624 200 624 C193 624 187 621 182 615 C179 613 130 515 128 508 C127 506 126 503 126 500 C126 487 137 476 150 476 L150 476 Z " />
<glyph glyph-name="ecircumflex" unicode="&#xea;" horiz-adv-x="351" d="M39 100 C39 43 76 -9 133 -21 C146 -24 159 -24 172 -24 C191 -24 224 -29 224 0 C224 28 195 24 175 24 C144 24 116 27 99 57 C92 70 87 86 87 100 L87 300 C87 345 118 376 163 376 C208 376 239 345 239 300 L239 224 C225 224 210 224 196 224 C176 224 139 230 139 200 C139 187 150 176 163 176 L263 176 C276 176 287 187 287 200 L287 300 C287 372 235 424 163 424 C91 424 39 372 39 300 L39 100 Z M75 476 C81 476 86 478 91 482 C101 490 109 500 118 508 L175 566 L233 508 C242 500 250 490 260 482 C264 478 270 476 275 476 C288 476 299 487 299 500 C299 506 297 511 294 515 C278 535 258 551 240 569 C224 585 209 604 191 618 C186 622 181 624 175 624 C170 624 164 622 160 618 C142 604 127 585 110 569 C93 551 73 535 57 515 C53 511 51 506 51 500 C51 487 62 476 75 476 L75 476 Z " />
<glyph glyph-name="edieresis" unicode="&#xeb;" horiz-adv-x="351" d="M39 100 C39 43 76 -9 133 -21 C146 -24 159 -24 172 -24 C191 -24 224 -29 224 0 C224 28 195 24 175 24 C144 24 116 27 99 57 C92 70 87 86 87 100 L87 300 C87 345 118 376 163 376 C208 376 239 345 239 300 L239 224 C225 224 210 224 196 224 C176 224 139 230 139 200 C139 187 150 176 163 176 L263 176 C276 176 287 187 287 200 L287 300 C287 372 235 424 163 424 C91 424 39 372 39 300 L39 100 Z M226 550 C226 537 237 526 250 526 C263 526 274 537 274 550 L274 600 C274 613 263 624 250 624 C237 624 226 613 226 600 L226 550 Z M100 526 C113 526 124 537 124 550 L124 600 C124 613 113 624 100 624 C87 624 76 613 76 600 L76 550 C76 537 87 526 100 526 L100 526 Z " />
<glyph glyph-name="igrave" unicode="&#xec;" horiz-adv-x="150" d="M39 400 L39 0 C39 -13 50 -24 63 -24 C75 -24 87 -13 87 0 L87 400 C87 413 75 424 63 424 C50 424 39 413 39 400 L39 400 Z M26 600 C26 597 27 595 27 592 C30 585 79 487 82 485 C86 479 93 476 100 476 C113 476 124 487 124 500 C124 503 123 506 123 508 C120 515 71 613 68 615 C64 621 57 624 50 624 C37 624 26 613 26 600 L26 600 Z " />
<glyph glyph-name="iacute" unicode="&#xed;" horiz-adv-x="150" d="M39 0 C39 -13 50 -24 63 -24 C75 -24 87 -13 87 0 L87 400 C87 413 75 424 63 424 C50 424 39 413 39 400 L39 0 Z M50 476 C57 476 64 479 68 485 C71 487 120 585 123 592 C123 595 124 597 124 600 C124 613 113 624 100 624 C93 624 86 621 82 615 C79 613 30 515 27 508 C27 506 26 503 26 500 C26 487 37 476 50 476 L50 476 Z " />
<glyph glyph-name="icircumflex" unicode="&#xee;" horiz-adv-x="150" d="M39 0 C39 -13 50 -24 63 -24 C75 -24 87 -13 87 0 L87 400 C87 413 75 424 63 424 C50 424 39 413 39 400 L39 0 Z M-25 476 C-19 476 -14 478 -10 482 C0 490 8 500 17 508 L75 566 L133 508 C142 500 150 490 160 482 C164 478 169 476 175 476 C188 476 199 487 199 500 C199 506 197 511 193 515 C178 535 158 551 140 569 C124 585 109 604 90 618 C86 622 81 624 75 624 C69 624 64 622 60 618 C42 604 27 585 10 569 C-8 551 -28 535 -43 515 C-47 511 -49 506 -49 500 C-49 487 -38 476 -25 476 L-25 476 Z " />
<glyph glyph-name="idieresis" unicode="&#xef;" horiz-adv-x="150" d="M63 -24 C75 -24 87 -13 87 0 L87 400 C87 413 75 424 63 424 C50 424 39 413 39 400 L39 0 C39 -13 50 -24 63 -24 L63 -24 Z M126 600 L126 550 C126 537 137 526 150 526 C163 526 174 537 174 550 L174 600 C174 613 163 624 150 624 C137 624 126 613 126 600 L126 600 Z M-24 550 C-24 537 -13 526 0 526 C13 526 24 537 24 550 L24 600 C24 613 13 624 0 624 C-13 624 -24 613 -24 600 L-24 550 Z " />
<glyph glyph-name="eth" unicode="&#xf0;" horiz-adv-x="350" d="M163 -24 C221 -24 264 8 280 64 C284 76 287 88 287 100 L287 400 C287 426 280 454 266 476 C251 501 221 527 197 550 C209 561 221 572 231 585 C234 589 237 594 237 600 C237 613 225 624 213 624 C207 624 202 622 197 618 C185 609 174 597 163 585 C152 597 140 609 128 618 C123 622 118 624 113 624 C100 624 89 613 89 600 C89 596 90 592 92 588 C95 582 113 565 119 560 C121 557 125 554 128 551 C116 539 104 528 94 515 C91 511 89 506 89 500 C89 487 100 476 113 476 C118 476 124 478 128 482 C141 492 152 504 164 517 C190 491 219 462 225 452 C234 437 239 418 239 400 L239 100 C239 91 236 81 232 72 C220 39 197 24 163 24 C117 24 87 55 87 100 L87 300 C87 331 105 364 137 373 C155 378 187 371 187 400 C187 413 175 424 163 424 C91 424 39 372 39 300 L39 100 C39 28 91 -24 163 -24 L163 -24 Z " />
<glyph glyph-name="ntilde" unicode="&#xf1;" horiz-adv-x="350" d="M39 400 L39 0 C39 -13 50 -24 63 -24 C75 -24 87 -13 87 0 L86 376 C108 375 134 376 143 376 C220 376 240 350 240 273 C240 189 238 104 238 19 C238 1 237 -24 263 -24 C275 -24 287 -13 287 0 L287 300 C287 372 234 424 163 424 L63 424 C50 424 39 413 39 400 L39 400 Z M51 524 C51 511 62 500 75 500 C113 500 85 550 125 550 C158 550 168 500 225 500 C267 500 299 532 299 574 C299 587 288 598 275 598 C238 598 265 548 225 548 C192 548 182 598 125 598 C83 598 51 566 51 524 L51 524 Z " />
<glyph glyph-name="ograve" unicode="&#xf2;" horiz-adv-x="350" d="M163 -24 C234 -24 287 28 287 100 L287 300 C287 372 234 424 163 424 C91 424 39 372 39 300 L39 100 C39 28 91 -24 163 -24 L163 -24 Z M137 373 C144 375 154 375 163 376 C171 375 181 375 188 373 C220 364 239 332 239 300 L239 100 C239 55 208 24 163 24 C117 24 87 55 87 100 L87 300 C87 331 105 364 137 373 L137 373 Z M127 592 C130 585 179 487 182 485 C186 479 193 476 200 476 C213 476 224 487 224 500 C224 503 223 506 223 508 C220 515 171 613 168 615 C164 621 157 624 150 624 C137 624 126 613 126 600 C126 597 127 595 127 592 L127 592 Z " />
<glyph glyph-name="oacute" unicode="&#xf3;" horiz-adv-x="350" d="M163 -24 C234 -24 287 28 287 100 L287 300 C287 372 234 424 163 424 C91 424 39 372 39 300 L39 100 C39 28 91 -24 163 -24 L163 -24 Z M137 373 C144 375 154 375 163 376 C171 375 181 375 188 373 C220 364 239 332 239 300 L239 100 C239 55 208 24 163 24 C117 24 87 55 87 100 L87 300 C87 331 105 364 137 373 L137 373 Z M150 476 C157 476 164 479 168 485 C171 487 220 585 223 592 C223 595 224 597 224 600 C224 613 213 624 200 624 C193 624 186 621 182 615 C179 613 130 515 127 508 C127 506 126 503 126 500 C126 487 137 476 150 476 L150 476 Z " />
<glyph glyph-name="ocircumflex" unicode="&#xf4;" horiz-adv-x="350" d="M163 -24 C234 -24 287 28 287 100 L287 300 C287 372 234 424 163 424 C91 424 39 372 39 300 L39 100 C39 28 91 -24 163 -24 L163 -24 Z M87 100 L87 300 C87 331 105 364 137 373 C144 375 154 375 163 376 C171 375 181 375 188 373 C220 364 239 332 239 300 L239 100 C239 55 208 24 163 24 C117 24 87 55 87 100 L87 100 Z M51 500 C51 487 62 476 75 476 C81 476 86 478 90 482 C100 490 108 500 117 508 L175 566 L233 508 C242 500 250 490 260 482 C264 478 269 476 275 476 C288 476 299 487 299 500 C299 506 297 511 293 515 C278 535 258 551 240 569 C224 585 209 604 190 618 C186 622 181 624 175 624 C169 624 164 622 160 618 C142 604 127 585 110 569 C93 551 72 535 57 515 C53 511 51 506 51 500 L51 500 Z " />
<glyph glyph-name="otilde" unicode="&#xf5;" horiz-adv-x="350" d="M39 300 L39 100 C39 28 91 -24 163 -24 C234 -24 287 28 287 100 L287 300 C287 372 234 424 163 424 C91 424 39 372 39 300 L39 300 Z M137 373 C144 375 154 375 163 376 C171 375 181 375 188 373 C220 364 239 332 239 300 L239 100 C239 55 208 24 163 24 C117 24 87 55 87 100 L87 300 C87 331 105 364 137 373 L137 373 Z M50 500 C88 500 60 550 100 550 C133 550 143 500 200 500 C242 500 274 532 274 574 C274 587 263 598 250 598 C213 598 240 548 200 548 C167 548 157 598 100 598 C58 598 26 566 26 524 C26 511 37 500 50 500 L50 500 Z " />
<glyph glyph-name="odieresis" unicode="&#xf6;" horiz-adv-x="350" d="M39 300 L39 100 C39 28 91 -24 163 -24 C234 -24 287 28 287 100 L287 300 C287 372 234 424 163 424 C91 424 39 372 39 300 L39 300 Z M137 373 C144 375 154 375 163 376 C171 375 181 375 188 373 C220 364 239 332 239 300 L239 100 C239 55 208 24 163 24 C117 24 87 55 87 100 L87 300 C87 331 105 364 137 373 L137 373 Z M226 550 C226 537 237 526 250 526 C263 526 274 537 274 550 L274 600 C274 613 263 624 250 624 C237 624 226 613 226 600 L226 550 Z M76 550 C76 537 87 526 100 526 C113 526 124 537 124 550 L124 600 C124 613 113 624 100 624 C87 624 76 613 76 600 L76 550 Z " />
<glyph glyph-name="divide" unicode="&#xf7;" horiz-adv-x="349" d="M62 219 L262 219 C279 219 294 233 294 251 C294 268 279 283 262 283 L62 283 C45 283 30 268 30 251 C30 233 45 219 62 219 L62 219 Z M130 400 L130 350 C130 333 144 318 162 318 C179 318 194 333 194 350 L194 400 C194 418 179 432 162 432 C144 432 130 418 130 400 L130 400 Z M130 151 L130 101 C130 84 144 69 162 69 C179 69 194 84 194 101 L194 151 C194 169 179 183 162 183 C144 183 130 169 130 151 L130 151 Z " />
<glyph glyph-name="oslash" unicode="&#xf8;" horiz-adv-x="350" d="M50 -74 C57 -74 64 -71 69 -65 C72 -61 85 -33 96 -7 C115 -18 138 -24 163 -24 C234 -24 287 28 287 100 L287 300 C287 327 279 352 266 371 L279 401 C284 412 299 439 299 450 C299 463 288 474 275 474 C268 474 261 471 256 465 C253 462 240 433 228 407 C210 418 187 424 163 424 C91 424 39 372 39 300 L39 100 C39 73 46 49 59 29 L46 -1 C41 -12 26 -39 26 -50 C26 -63 37 -74 50 -74 L50 -74 Z M118 42 L238 310 C238 306 239 303 239 300 L239 100 C239 55 208 24 163 24 C144 24 128 29 116 38 C117 40 117 41 118 42 L118 42 Z M87 91 C87 94 87 97 87 100 L87 300 C87 331 105 364 137 373 C144 375 154 375 163 376 C171 375 181 375 188 373 C196 371 203 367 209 362 C208 361 208 359 207 358 L87 91 Z " />
<glyph glyph-name="ugrave" unicode="&#xf9;" horiz-adv-x="350" d="M39 100 C39 28 91 -24 163 -24 L263 -24 C275 -24 287 -13 287 0 L287 400 C287 413 275 424 263 424 C250 424 239 413 239 400 L239 24 C217 25 191 24 183 24 C105 24 86 50 86 127 C86 212 87 296 87 381 C87 399 88 424 63 424 C50 424 39 413 39 400 L39 100 Z M127 592 C130 585 179 487 182 485 C186 479 193 476 200 476 C213 476 224 487 224 500 C224 503 223 506 223 508 C220 515 171 613 168 615 C164 621 157 624 150 624 C137 624 126 613 126 600 C126 597 127 595 127 592 L127 592 Z " />
<glyph glyph-name="uacute" unicode="&#xfa;" horiz-adv-x="350" d="M39 100 C39 28 91 -24 163 -24 L263 -24 C275 -24 287 -13 287 0 L287 400 C287 413 275 424 263 424 C250 424 239 413 239 400 L239 24 C217 25 191 24 183 24 C105 24 86 50 86 127 C86 212 87 296 87 381 C87 399 88 424 63 424 C50 424 39 413 39 400 L39 100 Z M126 500 C126 487 137 476 150 476 C157 476 164 479 168 485 C171 487 220 585 223 592 C223 595 224 597 224 600 C224 613 213 624 200 624 C193 624 186 621 182 615 C179 613 130 515 127 508 C127 506 126 503 126 500 L126 500 Z " />
<glyph glyph-name="ucircumflex" unicode="&#xfb;" horiz-adv-x="350" d="M39 100 C39 28 91 -24 163 -24 L263 -24 C275 -24 287 -13 287 0 L287 400 C287 413 275 424 263 424 C250 424 239 413 239 400 L239 24 C217 25 191 24 183 24 C105 24 86 50 86 127 C86 212 87 296 87 381 C87 399 88 424 63 424 C50 424 39 413 39 400 L39 100 Z M51 500 C51 487 62 476 75 476 C81 476 86 478 90 482 C100 490 108 500 117 508 L175 566 L233 508 C242 500 250 490 260 482 C264 478 269 476 275 476 C288 476 299 487 299 500 C299 506 297 511 293 515 C278 535 258 551 240 569 C224 585 209 604 190 618 C186 622 181 624 175 624 C169 624 164 622 160 618 C142 604 127 585 110 569 C93 551 72 535 57 515 C53 511 51 506 51 500 L51 500 Z " />
<glyph glyph-name="udieresis" unicode="&#xfc;" horiz-adv-x="350" d="M163 -24 L263 -24 C275 -24 287 -13 287 0 L287 400 C287 413 275 424 263 424 C250 424 239 413 239 400 L239 24 C217 25 191 24 183 24 C105 24 86 50 86 127 C86 212 87 296 87 381 C87 399 88 424 63 424 C50 424 39 413 39 400 L39 100 C39 28 91 -24 163 -24 L163 -24 Z M226 600 L226 550 C226 537 237 526 250 526 C263 526 274 537 274 550 L274 600 C274 613 263 624 250 624 C237 624 226 613 226 600 L226 600 Z M76 550 C76 537 87 526 100 526 C113 526 124 537 124 550 L124 600 C124 613 113 624 100 624 C87 624 76 613 76 600 L76 550 Z " />
<glyph glyph-name="yacute" unicode="&#xfd;" horiz-adv-x="325" d="M39 400 C39 386 59 315 64 296 L138 0 L118 -80 C112 -102 88 -185 88 -200 C88 -213 100 -224 112 -224 C122 -224 128 -219 133 -212 C138 -206 162 -99 167 -82 L257 279 C262 301 286 384 286 400 C286 413 275 424 262 424 C253 424 246 419 242 412 C237 405 213 299 208 281 L162 99 C162 100 162 102 161 103 L87 402 C84 414 76 424 63 424 C50 424 39 413 39 400 L39 400 Z M113 500 C113 487 125 476 137 476 C145 476 151 479 156 485 C162 491 211 588 211 600 C211 613 200 624 187 624 C180 624 174 621 169 615 C167 613 117 515 115 508 C114 506 113 503 113 500 L113 500 Z " />
<glyph glyph-name="ydieresis" unicode="&#xff;" horiz-adv-x="325" d="M64 296 L138 0 L118 -80 C112 -102 88 -185 88 -200 C88 -213 100 -224 112 -224 C122 -224 128 -219 133 -212 C138 -206 162 -99 167 -82 L257 279 C262 301 286 384 286 400 C286 413 275 424 262 424 C253 424 246 419 242 412 C237 405 213 299 208 281 L162 99 C162 100 162 102 161 103 L87 402 C84 414 76 424 63 424 C50 424 39 413 39 400 C39 386 59 315 64 296 L64 296 Z M63 600 L63 550 C63 537 75 526 87 526 C100 526 111 537 111 550 L111 600 C111 613 100 624 87 624 C75 624 63 613 63 600 L63 600 Z M213 600 L213 550 C213 537 224 526 237 526 C250 526 261 537 261 550 L261 600 C261 613 250 624 237 624 C224 624 213 613 213 600 L213 600 Z " />
<glyph glyph-name="Amacron" unicode="&#x100;" horiz-adv-x="425" d="M39 0 C39 -13 50 -24 63 -24 C80 -24 85 -11 88 4 L106 77 C108 76 110 76 113 76 L313 76 C315 76 317 76 319 77 L337 4 C341 -11 345 -24 363 -24 C375 -24 387 -13 387 0 C387 15 363 98 357 120 L267 482 C262 499 238 606 233 612 C228 619 222 624 213 624 C203 624 197 619 192 612 C188 606 163 499 158 482 L68 120 C62 98 39 15 39 0 L39 0 Z M213 501 L307 124 L118 124 L213 501 Z M89 749 C89 736 100 725 113 725 L312 725 C325 725 336 736 336 749 C336 762 325 773 312 773 L113 773 C100 773 89 762 89 749 L89 749 Z " />
<glyph glyph-name="amacron" unicode="&#x101;" horiz-adv-x="351" d="M39 101 C39 29 91 -24 163 -24 C176 -24 187 -13 187 0 C187 30 155 23 137 27 C106 36 87 69 87 101 C87 129 101 157 127 169 C148 179 205 177 239 176 C239 124 238 72 238 20 C238 2 237 -24 263 -24 C276 -24 287 -13 287 0 L287 195 C287 197 287 198 287 200 C287 201 287 203 287 204 L287 301 C287 372 235 424 163 424 L100 424 C87 424 76 413 76 400 C76 367 129 376 151 376 C223 376 240 344 240 276 C240 258 240 241 239 224 L163 224 C91 224 39 172 39 101 L39 101 Z M75 526 L275 526 C288 526 299 537 299 550 C299 563 288 574 275 574 L75 574 C62 574 51 563 51 550 C51 537 62 526 75 526 L75 526 Z " />
<glyph glyph-name="Abreve" unicode="&#x102;" horiz-adv-x="425" d="M39 0 C39 -13 50 -24 63 -24 C80 -24 85 -11 88 4 L106 77 C108 76 110 76 113 76 L313 76 C315 76 317 76 319 77 L337 4 C341 -11 345 -24 363 -24 C375 -24 387 -13 387 0 C387 15 363 98 357 120 L267 482 C262 499 238 606 233 612 C228 619 222 624 213 624 C203 624 197 619 192 612 C188 606 163 499 158 482 L68 120 C62 98 39 15 39 0 L39 0 Z M213 501 L307 124 L118 124 L213 501 Z M213 675 C284 675 337 727 337 799 C337 812 325 823 313 823 C303 823 293 816 290 807 C287 799 288 789 286 780 C278 742 250 723 213 723 C175 723 147 742 139 780 C137 789 138 799 135 807 C132 816 122 823 113 823 C100 823 89 812 89 799 C89 727 141 675 213 675 L213 675 Z " />
<glyph glyph-name="abreve" unicode="&#x103;" horiz-adv-x="351" d="M163 -24 C176 -24 187 -13 187 0 C187 30 155 23 137 27 C106 36 87 69 87 101 C87 129 101 157 127 169 C148 179 205 177 239 176 C239 124 238 72 238 20 C238 2 237 -24 263 -24 C276 -24 287 -13 287 0 L287 195 C287 197 287 198 287 200 C287 201 287 203 287 204 L287 301 C287 372 235 424 163 424 L100 424 C87 424 76 413 76 400 C76 367 129 376 151 376 C223 376 240 344 240 276 C240 258 240 241 239 224 L163 224 C91 224 39 172 39 101 C39 29 91 -24 163 -24 L163 -24 Z M51 600 C51 528 104 476 175 476 C247 476 299 528 299 600 C299 613 288 624 275 624 C265 624 256 617 253 608 C250 600 251 590 249 581 C240 543 213 524 175 524 C137 524 110 543 102 581 C100 590 101 600 98 608 C94 617 85 624 75 624 C62 624 51 613 51 600 L51 600 Z " />
<glyph glyph-name="Aogonek" unicode="&#x104;" horiz-adv-x="425" d="M63 -24 C80 -24 85 -11 88 4 L106 77 C108 76 110 76 113 76 L313 76 C315 76 317 76 319 77 L333 21 C277 8 239 -39 239 -100 L239 -200 C239 -213 250 -224 263 -224 C282 -224 287 -207 287 -191 C287 -170 286 -149 286 -128 C286 -69 292 -34 359 -24 C374 -24 387 -17 387 0 C387 1 386 2 386 3 C384 24 362 100 357 120 L267 482 C262 499 238 606 233 612 C228 619 222 624 213 624 C203 624 197 619 192 612 C188 606 163 499 158 482 L68 120 C62 98 39 15 39 0 C39 -13 50 -24 63 -24 L63 -24 Z M213 501 L307 124 L118 124 L213 501 Z " />
<glyph glyph-name="aogonek" unicode="&#x105;" horiz-adv-x="351" d="M39 101 C39 29 91 -24 163 -24 C148 -44 139 -70 139 -100 L139 -200 C139 -213 150 -224 163 -224 C183 -224 187 -207 187 -191 C187 -170 186 -149 186 -128 C186 -109 187 -85 194 -68 C210 -28 240 -27 261 -24 C266 -24 270 -23 273 -21 C286 -17 287 -9 287 4 L287 195 C287 197 287 198 287 200 C287 201 287 203 287 204 L287 301 C287 372 235 424 163 424 L100 424 C87 424 76 413 76 400 C76 367 129 376 151 376 C223 376 240 344 240 276 C240 258 240 241 239 224 L163 224 C91 224 39 172 39 101 L39 101 Z M127 169 C148 179 205 177 239 176 C239 125 238 73 238 22 C219 18 201 11 187 0 C187 30 155 23 137 27 C106 36 87 69 87 101 C87 129 101 157 127 169 L127 169 Z " />
<glyph glyph-name="Cacute" unicode="&#x106;" horiz-adv-x="450" d="M39 150 C39 49 110 -24 213 -24 C296 -24 357 20 379 101 C383 117 387 134 387 150 C387 163 375 174 363 174 C352 174 344 168 340 158 C334 145 336 125 332 111 C315 52 273 24 213 24 C154 24 114 49 95 105 C90 119 87 135 87 150 L87 450 C87 465 90 481 95 495 C114 551 154 576 213 576 C272 576 315 548 332 490 C336 475 334 455 340 442 C344 432 352 426 363 426 C375 426 387 437 387 450 C387 467 383 483 379 499 C357 580 296 624 213 624 C110 624 39 551 39 450 L39 150 Z M176 699 C176 686 187 675 200 675 C207 675 214 678 218 684 C221 686 270 784 273 791 C273 794 274 796 274 799 C274 812 263 823 250 823 C243 823 236 820 232 814 C229 812 180 714 177 707 C177 705 176 702 176 699 L176 699 Z " />
<glyph glyph-name="cacute" unicode="&#x107;" horiz-adv-x="350" d="M39 300 L39 100 C39 28 91 -24 163 -24 C234 -24 287 28 287 100 C287 113 275 124 263 124 C252 124 244 118 240 108 C237 100 238 90 236 81 C228 43 200 24 163 24 C117 24 87 55 87 100 L87 300 C87 345 117 376 163 376 C200 376 228 357 236 319 C238 310 237 300 240 292 C244 283 252 276 263 276 C275 276 287 287 287 300 C287 372 234 424 163 424 C91 424 39 372 39 300 L39 300 Z M150 476 C157 476 164 479 168 485 C171 487 220 585 223 592 C223 595 224 597 224 600 C224 613 213 624 200 624 C193 624 186 621 182 615 C179 613 130 515 127 508 C127 506 126 503 126 500 C126 487 137 476 150 476 L150 476 Z " />
<glyph glyph-name="Ccircumflex" unicode="&#x108;" horiz-adv-x="450" d="M39 450 L39 150 C39 49 110 -24 213 -24 C296 -24 357 20 379 101 C383 117 387 134 387 150 C387 163 375 174 363 174 C352 174 344 168 340 158 C334 145 336 125 332 111 C315 52 273 24 213 24 C154 24 114 49 95 105 C90 119 87 135 87 150 L87 450 C87 465 90 481 95 495 C114 551 154 576 213 576 C272 576 315 548 332 490 C336 475 334 455 340 442 C344 432 352 426 363 426 C375 426 387 437 387 450 C387 467 383 483 379 499 C357 580 296 624 213 624 C110 624 39 551 39 450 L39 450 Z M101 699 C101 686 112 675 125 675 C131 675 136 677 140 681 C150 689 158 699 167 707 L225 765 L283 707 C292 699 300 689 310 681 C314 677 319 675 325 675 C338 675 349 686 349 699 C349 705 347 710 343 714 C328 734 308 750 290 768 C274 784 259 803 240 817 C236 821 231 823 225 823 C219 823 214 821 210 817 C192 803 177 784 160 768 C143 750 122 734 107 714 C103 710 101 705 101 699 L101 699 Z " />
<glyph glyph-name="ccircumflex" unicode="&#x109;" horiz-adv-x="350" d="M39 300 L39 100 C39 28 91 -24 163 -24 C234 -24 287 28 287 100 C287 113 275 124 263 124 C252 124 244 118 240 108 C237 100 238 90 236 81 C228 43 200 24 163 24 C117 24 87 55 87 100 L87 300 C87 345 117 376 163 376 C200 376 228 357 236 319 C238 310 237 300 240 292 C244 283 252 276 263 276 C275 276 287 287 287 300 C287 372 234 424 163 424 C91 424 39 372 39 300 L39 300 Z M75 476 C81 476 86 478 90 482 C100 490 108 500 117 508 L175 566 L233 508 C242 500 250 490 260 482 C264 478 269 476 275 476 C288 476 299 487 299 500 C299 506 297 511 293 515 C278 535 258 551 240 569 C224 585 209 604 190 618 C186 622 181 624 175 624 C169 624 164 622 160 618 C142 604 127 585 110 569 C93 551 72 535 57 515 C53 511 51 506 51 500 C51 487 62 476 75 476 L75 476 Z " />
<glyph glyph-name="Cdotaccent" unicode="&#x10a;" horiz-adv-x="450" d="M213 -24 C296 -24 357 20 379 101 C383 117 387 134 387 150 C387 163 375 174 363 174 C352 174 344 168 340 158 C334 145 336 125 332 111 C315 52 273 24 213 24 C154 24 114 49 95 105 C90 119 87 135 87 150 L87 450 C87 465 90 481 95 495 C114 551 154 576 213 576 C272 576 315 548 332 490 C336 475 334 455 340 442 C344 432 352 426 363 426 C375 426 387 437 387 450 C387 467 383 483 379 499 C357 580 296 624 213 624 C110 624 39 551 39 450 L39 150 C39 49 110 -24 213 -24 L213 -24 Z M201 749 C201 736 212 725 225 725 C238 725 249 736 249 749 L249 799 C249 812 238 823 225 823 C212 823 201 812 201 799 L201 749 Z " />
<glyph glyph-name="cdotaccent" unicode="&#x10b;" horiz-adv-x="350" d="M39 300 L39 100 C39 28 91 -24 163 -24 C234 -24 287 28 287 100 C287 113 275 124 263 124 C252 124 244 118 240 108 C237 100 238 90 236 81 C228 43 200 24 163 24 C117 24 87 55 87 100 L87 300 C87 345 117 376 163 376 C200 376 228 357 236 319 C238 310 237 300 240 292 C244 283 252 276 263 276 C275 276 287 287 287 300 C287 372 234 424 163 424 C91 424 39 372 39 300 L39 300 Z M151 550 C151 537 162 526 175 526 C188 526 199 537 199 550 L199 600 C199 613 188 624 175 624 C162 624 151 613 151 600 L151 550 Z " />
<glyph glyph-name="Ccaron" unicode="&#x10c;" horiz-adv-x="450" d="M213 -24 C296 -24 357 20 379 101 C383 117 387 134 387 150 C387 163 375 174 363 174 C352 174 344 168 340 158 C334 145 336 125 332 111 C315 52 273 24 213 24 C154 24 114 49 95 105 C90 119 87 135 87 150 L87 450 C87 465 90 481 95 495 C114 551 154 576 213 576 C272 576 315 548 332 490 C336 475 334 455 340 442 C344 432 352 426 363 426 C375 426 387 437 387 450 C387 467 383 483 379 499 C357 580 296 624 213 624 C110 624 39 551 39 450 L39 150 C39 49 110 -24 213 -24 L213 -24 Z M107 784 C122 764 143 748 160 730 C177 714 192 695 210 681 C214 677 219 675 225 675 C231 675 236 677 240 681 C259 695 274 714 290 730 C308 748 328 764 343 784 C347 788 349 793 349 799 C349 812 338 823 325 823 C319 823 314 821 310 817 C300 810 292 800 283 791 L225 733 L167 791 C158 800 150 810 140 817 C136 821 131 823 125 823 C112 823 101 812 101 799 C101 793 103 788 107 784 L107 784 Z " />
<glyph glyph-name="ccaron" unicode="&#x10d;" horiz-adv-x="350" d="M39 300 L39 100 C39 28 91 -24 163 -24 C234 -24 287 28 287 100 C287 113 275 124 263 124 C252 124 244 118 240 108 C237 100 238 90 236 81 C228 43 200 24 163 24 C117 24 87 55 87 100 L87 300 C87 345 117 376 163 376 C200 376 228 357 236 319 C238 310 237 300 240 292 C244 283 252 276 263 276 C275 276 287 287 287 300 C287 372 234 424 163 424 C91 424 39 372 39 300 L39 300 Z M57 585 C72 565 93 549 110 531 C127 515 142 496 160 482 C164 478 169 476 175 476 C181 476 186 478 190 482 C209 496 224 515 240 531 C258 549 278 565 293 585 C297 589 299 594 299 600 C299 613 288 624 275 624 C269 624 264 622 260 618 C250 611 242 601 233 592 L175 534 L117 592 C108 601 100 611 90 618 C86 622 81 624 75 624 C62 624 51 613 51 600 C51 594 53 589 57 585 L57 585 Z " />
<glyph glyph-name="Dcaron" unicode="&#x10e;" horiz-adv-x="450" d="M39 0 C39 -13 50 -24 63 -24 C73 -24 81 -18 85 -8 C88 -1 87 97 87 115 L87 576 L213 576 C287 576 339 525 339 450 L339 150 C339 135 335 119 330 105 C304 31 254 24 187 24 C169 24 139 28 139 0 C139 -13 150 -24 163 -24 L213 -24 C296 -24 357 20 379 101 C383 117 387 134 387 150 L387 450 C387 534 343 594 261 617 C246 621 229 624 213 624 L63 624 C50 624 39 613 39 600 L39 0 Z M101 799 C101 793 103 788 107 784 C122 764 143 748 160 730 C177 714 192 695 210 681 C214 677 219 675 225 675 C231 675 236 677 240 681 C259 695 274 714 290 730 C308 748 328 764 343 784 C347 788 349 793 349 799 C349 812 338 823 325 823 C319 823 314 821 310 817 C300 810 292 800 283 791 L225 733 L167 791 C158 800 150 810 140 817 C136 821 131 823 125 823 C112 823 101 812 101 799 L101 799 Z " />
<glyph glyph-name="dcaron" unicode="&#x10f;" horiz-adv-x="447" d="M39 300 L39 100 C39 28 92 -24 163 -24 C176 -24 187 -13 187 0 C187 29 156 22 138 27 C106 36 87 68 87 100 L87 300 C87 345 118 376 163 376 L239 376 L239 5 C239 -10 246 -24 263 -24 C276 -24 287 -13 287 0 L287 600 C287 613 276 624 263 624 C250 624 239 613 239 600 L239 424 L163 424 C92 424 39 372 39 300 L39 300 Z M361 400 C361 387 372 376 385 376 C397 376 409 387 409 400 L409 600 C409 613 397 624 385 624 C372 624 361 613 361 600 L361 400 Z " />
<glyph glyph-name="Dcroat" unicode="&#x110;" horiz-adv-x="450" d="M13 276 L39 276 L39 0 C39 -13 50 -24 63 -24 C73 -24 81 -18 85 -8 C88 -1 87 97 87 115 L87 276 L237 276 C250 276 261 287 261 300 C261 313 250 324 237 324 L87 324 L87 576 L213 576 C287 576 339 525 339 450 L339 150 C339 135 335 119 330 105 C304 31 254 24 187 24 C169 24 139 28 139 0 C139 -13 150 -24 163 -24 L213 -24 C296 -24 357 20 379 101 C383 117 387 134 387 150 L387 450 C387 534 343 594 261 617 C246 621 229 624 213 624 L63 624 C50 624 39 613 39 600 L39 324 L13 324 C-1 324 -12 313 -12 300 C-12 287 -1 276 13 276 L13 276 Z " />
<glyph glyph-name="dcroat" unicode="&#x111;" horiz-adv-x="351" d="M39 300 L39 100 C39 28 92 -24 163 -24 C176 -24 187 -13 187 0 C187 29 156 22 138 27 C106 36 87 68 87 100 L87 300 C87 345 118 376 163 376 L239 376 L239 5 C239 -10 246 -24 263 -24 C276 -24 287 -13 287 0 L287 526 L313 526 C326 526 337 537 337 550 C337 563 326 574 313 574 L287 574 L287 600 C287 613 276 624 263 624 C250 624 239 613 239 600 L239 574 L114 574 C101 574 90 563 90 550 C90 537 101 526 114 526 L239 526 L239 424 L163 424 C92 424 39 372 39 300 L39 300 Z " />
<glyph glyph-name="Emacron" unicode="&#x112;" horiz-adv-x="400" d="M39 600 L39 50 C39 8 70 -24 113 -24 L313 -24 C325 -24 337 -13 337 0 C337 31 297 24 278 24 C228 24 178 23 128 23 C103 23 87 24 87 55 L87 376 L213 376 C225 376 237 387 237 400 C237 413 225 424 213 424 L87 424 L87 576 C131 576 175 576 220 576 C230 576 315 575 321 577 C330 581 337 590 337 600 C337 613 325 624 313 624 L63 624 C50 624 39 613 39 600 L39 600 Z M100 725 L300 725 C313 725 324 736 324 749 C324 762 313 773 300 773 L100 773 C87 773 76 762 76 749 C76 736 87 725 100 725 L100 725 Z " />
<glyph glyph-name="emacron" unicode="&#x113;" horiz-adv-x="351" d="M133 -21 C146 -24 159 -24 172 -24 C191 -24 224 -29 224 0 C224 28 195 24 175 24 C144 24 116 27 99 57 C92 70 87 86 87 100 L87 300 C87 345 118 376 163 376 C208 376 239 345 239 300 L239 224 C225 224 210 224 196 224 C176 224 139 230 139 200 C139 187 150 176 163 176 L263 176 C276 176 287 187 287 200 L287 300 C287 372 235 424 163 424 C91 424 39 372 39 300 L39 100 C39 43 76 -9 133 -21 L133 -21 Z M75 526 L275 526 C288 526 299 537 299 550 C299 563 288 574 275 574 L75 574 C62 574 51 563 51 550 C51 537 62 526 75 526 L75 526 Z " />
<glyph glyph-name="Ebreve" unicode="&#x114;" horiz-adv-x="400" d="M39 600 L39 50 C39 8 70 -24 113 -24 L313 -24 C325 -24 337 -13 337 0 C337 31 297 24 278 24 C228 24 178 23 128 23 C103 23 87 24 87 55 L87 376 L213 376 C225 376 237 387 237 400 C237 413 225 424 213 424 L87 424 L87 576 C131 576 175 576 220 576 C230 576 315 575 321 577 C330 581 337 590 337 600 C337 613 325 624 313 624 L63 624 C50 624 39 613 39 600 L39 600 Z M200 675 C272 675 324 727 324 799 C324 812 313 823 300 823 C290 823 281 816 277 807 C274 799 275 789 273 780 C265 742 238 723 200 723 C162 723 135 742 127 780 C125 789 126 799 123 807 C119 816 110 823 100 823 C87 823 76 812 76 799 C76 727 128 675 200 675 L200 675 Z " />
<glyph glyph-name="ebreve" unicode="&#x115;" horiz-adv-x="351" d="M133 -21 C146 -24 159 -24 172 -24 C191 -24 224 -29 224 0 C224 28 195 24 175 24 C144 24 116 27 99 57 C92 70 87 86 87 100 L87 300 C87 345 118 376 163 376 C208 376 239 345 239 300 L239 224 C225 224 210 224 196 224 C176 224 139 230 139 200 C139 187 150 176 163 176 L263 176 C276 176 287 187 287 200 L287 300 C287 372 235 424 163 424 C91 424 39 372 39 300 L39 100 C39 43 76 -9 133 -21 L133 -21 Z M175 476 C247 476 299 528 299 600 C299 613 288 624 275 624 C265 624 256 617 253 608 C250 600 251 590 249 581 C240 543 213 524 175 524 C137 524 110 543 102 581 C100 590 101 600 98 608 C94 617 85 624 75 624 C62 624 51 613 51 600 C51 528 104 476 175 476 L175 476 Z " />
<glyph glyph-name="Edotaccent" unicode="&#x116;" horiz-adv-x="400" d="M39 600 L39 50 C39 8 70 -24 113 -24 L313 -24 C325 -24 337 -13 337 0 C337 31 297 24 278 24 C228 24 178 23 128 23 C103 23 87 24 87 55 L87 376 L213 376 C225 376 237 387 237 400 C237 413 225 424 213 424 L87 424 L87 576 C131 576 175 576 220 576 C230 576 315 575 321 577 C330 581 337 590 337 600 C337 613 325 624 313 624 L63 624 C50 624 39 613 39 600 L39 600 Z M200 725 C213 725 224 736 224 749 L224 799 C224 812 213 823 200 823 C187 823 176 812 176 799 L176 749 C176 736 187 725 200 725 L200 725 Z " />
<glyph glyph-name="edotaccent" unicode="&#x117;" horiz-adv-x="351" d="M133 -21 C146 -24 159 -24 172 -24 C191 -24 224 -29 224 0 C224 28 195 24 175 24 C144 24 116 27 99 57 C92 70 87 86 87 100 L87 300 C87 345 118 376 163 376 C208 376 239 345 239 300 L239 224 C225 224 210 224 196 224 C176 224 139 230 139 200 C139 187 150 176 163 176 L263 176 C276 176 287 187 287 200 L287 300 C287 372 235 424 163 424 C91 424 39 372 39 300 L39 100 C39 43 76 -9 133 -21 L133 -21 Z M175 526 C188 526 199 537 199 550 L199 600 C199 613 188 624 175 624 C162 624 151 613 151 600 L151 550 C151 537 162 526 175 526 L175 526 Z " />
<glyph glyph-name="Eogonek" unicode="&#x118;" horiz-adv-x="400" d="M39 600 L39 50 C39 8 70 -24 113 -24 L313 -24 C325 -24 337 -13 337 0 C337 31 297 24 278 24 C228 24 178 23 128 23 C103 23 87 24 87 55 L87 376 L213 376 C225 376 237 387 237 400 C237 413 225 424 213 424 L87 424 L87 576 C131 576 175 576 220 576 C230 576 315 575 321 577 C330 581 337 590 337 600 C337 613 325 624 313 624 L63 624 C50 624 39 613 39 600 L39 600 Z " />
<glyph glyph-name="eogonek" unicode="&#x119;" horiz-adv-x="351" d="M39 100 C39 51 66 6 109 -13 C88 -35 76 -65 76 -100 L76 -200 C76 -213 87 -224 100 -224 C120 -224 124 -207 124 -191 C124 -170 123 -149 123 -128 C123 -74 131 -33 193 -24 C210 -24 224 -19 224 0 C224 11 219 17 212 20 C209 23 204 24 200 24 C198 24 197 24 195 24 C188 24 181 24 175 24 C144 24 116 27 99 57 C92 70 87 86 87 100 L87 300 C87 345 118 376 163 376 C208 376 239 345 239 300 L239 224 C225 224 210 224 196 224 C176 224 139 230 139 200 C139 187 150 176 163 176 L263 176 C276 176 287 187 287 200 L287 300 C287 372 235 424 163 424 C91 424 39 372 39 300 L39 100 Z " />
<glyph glyph-name="Ecaron" unicode="&#x11a;" horiz-adv-x="400" d="M39 600 L39 50 C39 8 70 -24 113 -24 L313 -24 C325 -24 337 -13 337 0 C337 31 297 24 278 24 C228 24 178 23 128 23 C103 23 87 24 87 55 L87 376 L213 376 C225 376 237 387 237 400 C237 413 225 424 213 424 L87 424 L87 576 C131 576 175 576 220 576 C230 576 315 575 321 577 C330 581 337 590 337 600 C337 613 325 624 313 624 L63 624 C50 624 39 613 39 600 L39 600 Z M82 784 C97 764 118 748 135 730 C152 714 167 695 185 681 C189 677 194 675 200 675 C206 675 211 677 215 681 C234 695 249 714 265 730 C283 748 303 764 318 784 C322 788 324 793 324 799 C324 812 313 823 300 823 C294 823 289 821 285 817 C275 810 267 800 258 791 L200 733 L142 791 C133 800 125 810 115 817 C111 821 106 823 100 823 C87 823 76 812 76 799 C76 793 78 788 82 784 L82 784 Z " />
<glyph glyph-name="ecaron" unicode="&#x11b;" horiz-adv-x="351" d="M133 -21 C146 -24 159 -24 172 -24 C191 -24 224 -29 224 0 C224 28 195 24 175 24 C144 24 116 27 99 57 C92 70 87 86 87 100 L87 300 C87 345 118 376 163 376 C208 376 239 345 239 300 L239 224 C225 224 210 224 196 224 C176 224 139 230 139 200 C139 187 150 176 163 176 L263 176 C276 176 287 187 287 200 L287 300 C287 372 235 424 163 424 C91 424 39 372 39 300 L39 100 C39 43 76 -9 133 -21 L133 -21 Z M51 600 C51 594 53 589 57 585 C73 565 93 549 110 531 C127 515 142 496 160 482 C164 478 170 476 175 476 C181 476 186 478 191 482 C209 496 224 515 240 531 C258 549 278 565 294 585 C297 589 299 594 299 600 C299 613 288 624 275 624 C270 624 264 622 260 618 C250 611 242 601 233 592 L175 534 L118 592 C109 601 101 611 91 618 C86 622 81 624 75 624 C62 624 51 613 51 600 L51 600 Z " />
<glyph glyph-name="Gcircumflex" unicode="&#x11c;" horiz-adv-x="450" d="M39 450 L39 150 C39 49 110 -24 213 -24 C296 -24 357 20 379 101 C383 117 387 134 387 150 L387 300 C387 313 375 324 363 324 L263 324 C250 324 239 313 239 300 C239 290 245 281 254 277 C262 275 325 276 339 276 L339 150 C339 135 335 119 330 105 C311 49 271 24 213 24 C137 24 87 76 87 150 L87 450 C87 524 137 576 213 576 C272 576 315 548 332 490 C336 474 334 456 340 442 C344 433 352 426 363 426 C375 426 387 437 387 450 C387 467 383 483 379 499 C357 580 296 624 213 624 C110 624 39 551 39 450 L39 450 Z M101 699 C101 686 112 675 125 675 C131 675 136 677 140 681 C150 689 158 699 167 707 L225 765 L283 707 C292 699 300 689 310 681 C314 677 319 675 325 675 C338 675 349 686 349 699 C349 705 347 710 343 714 C328 734 308 750 290 768 C274 784 259 803 240 817 C236 821 231 823 225 823 C219 823 214 821 210 817 C192 803 177 784 160 768 C143 750 122 734 107 714 C103 710 101 705 101 699 L101 699 Z " />
<glyph glyph-name="gcircumflex" unicode="&#x11d;" horiz-adv-x="350" d="M163 -224 C234 -224 287 -172 287 -100 C287 -28 234 24 163 24 C156 24 149 24 142 23 C127 27 106 26 94 36 C90 40 87 45 87 50 C87 56 90 60 94 64 C106 74 127 73 142 77 C149 76 156 76 163 76 C234 76 287 128 287 200 L287 300 C287 362 247 410 190 421 C194 436 201 448 210 458 C226 474 250 473 267 477 C269 477 272 476 275 476 C288 476 299 487 299 500 C299 506 297 511 293 515 C278 535 258 551 240 569 C224 585 209 604 190 618 C186 622 181 624 175 624 C169 624 164 622 160 618 C142 604 127 585 110 569 C93 551 72 535 57 515 C53 511 51 506 51 500 C51 487 62 476 75 476 C81 476 86 478 90 482 C100 490 108 500 117 508 L175 566 L223 518 C179 505 148 469 140 422 C80 413 39 364 39 300 L39 200 C39 163 52 131 76 109 C54 97 39 78 39 50 C39 22 54 3 76 -9 C52 -31 39 -63 39 -100 C39 -172 91 -224 163 -224 L163 -224 Z M87 300 C87 331 105 364 137 373 C144 375 153 375 162 376 C172 375 181 375 188 373 C220 364 239 332 239 300 L239 200 C239 155 208 124 163 124 C117 124 87 155 87 200 L87 300 Z M87 -100 C87 -55 117 -24 163 -24 C208 -24 239 -55 239 -100 C239 -131 220 -164 188 -173 C181 -175 171 -175 162 -176 C154 -175 144 -175 137 -173 C105 -164 87 -132 87 -100 L87 -100 Z " />
<glyph glyph-name="Gbreve" unicode="&#x11e;" horiz-adv-x="450" d="M39 150 C39 49 110 -24 213 -24 C296 -24 357 20 379 101 C383 117 387 134 387 150 L387 300 C387 313 375 324 363 324 L263 324 C250 324 239 313 239 300 C239 290 245 281 254 277 C262 275 325 276 339 276 L339 150 C339 135 335 119 330 105 C311 49 271 24 213 24 C137 24 87 76 87 150 L87 450 C87 524 137 576 213 576 C272 576 315 548 332 490 C336 474 334 456 340 442 C344 433 352 426 363 426 C375 426 387 437 387 450 C387 467 383 483 379 499 C357 580 296 624 213 624 C110 624 39 551 39 450 L39 150 Z M225 675 C297 675 349 727 349 799 C349 812 338 823 325 823 C315 823 306 816 302 807 C299 799 300 789 298 780 C290 742 263 723 225 723 C187 723 160 742 152 780 C150 789 151 799 148 807 C144 816 135 823 125 823 C112 823 101 812 101 799 C101 727 153 675 225 675 L225 675 Z " />
<glyph glyph-name="gbreve" unicode="&#x11f;" horiz-adv-x="350" d="M76 109 C54 97 39 78 39 50 C39 22 54 3 76 -9 C52 -31 39 -63 39 -100 C39 -172 91 -224 163 -224 C234 -224 287 -172 287 -100 C287 -28 234 24 163 24 C156 24 149 24 142 23 C127 27 106 26 94 36 C90 40 87 45 87 50 C87 56 90 60 94 64 C106 74 127 73 142 77 C149 76 156 76 163 76 C234 76 287 128 287 200 L287 300 C287 362 247 410 190 421 C194 436 201 448 210 458 C237 485 287 464 287 500 C287 509 281 517 273 521 C289 542 299 569 299 600 C299 613 288 624 275 624 C265 624 256 617 252 608 C249 600 250 590 248 581 C240 543 213 524 175 524 C137 524 110 543 102 581 C100 590 101 600 98 608 C94 617 85 624 75 624 C62 624 51 613 51 600 C51 532 98 482 163 477 C151 461 144 443 140 422 C80 413 39 364 39 300 L39 200 C39 163 52 131 76 109 L76 109 Z M137 373 C144 375 153 375 162 376 C172 375 181 375 188 373 C220 364 239 332 239 300 L239 200 C239 155 208 124 163 124 C117 124 87 155 87 200 L87 300 C87 331 105 364 137 373 L137 373 Z M87 -100 C87 -55 117 -24 163 -24 C208 -24 239 -55 239 -100 C239 -131 220 -164 188 -173 C181 -175 171 -175 162 -176 C154 -175 144 -175 137 -173 C105 -164 87 -132 87 -100 L87 -100 Z " />
<glyph glyph-name="Gdotaccent" unicode="&#x120;" horiz-adv-x="450" d="M39 150 C39 49 110 -24 213 -24 C296 -24 357 20 379 101 C383 117 387 134 387 150 L387 300 C387 313 375 324 363 324 L263 324 C250 324 239 313 239 300 C239 290 245 281 254 277 C262 275 325 276 339 276 L339 150 C339 135 335 119 330 105 C311 49 271 24 213 24 C137 24 87 76 87 150 L87 450 C87 524 137 576 213 576 C272 576 315 548 332 490 C336 474 334 456 340 442 C344 433 352 426 363 426 C375 426 387 437 387 450 C387 467 383 483 379 499 C357 580 296 624 213 624 C110 624 39 551 39 450 L39 150 Z M201 799 L201 749 C201 736 212 725 225 725 C238 725 249 736 249 749 L249 799 C249 812 238 823 225 823 C212 823 201 812 201 799 L201 799 Z " />
<glyph glyph-name="gdotaccent" unicode="&#x121;" horiz-adv-x="350" d="M163 -224 C234 -224 287 -172 287 -100 C287 -28 234 24 163 24 C156 24 149 24 142 23 C127 27 106 26 94 36 C90 40 87 45 87 50 C87 56 90 60 94 64 C106 74 127 73 142 77 C149 76 156 76 163 76 C234 76 287 128 287 200 L287 300 C287 362 247 410 190 421 C194 436 201 448 210 458 C237 485 287 464 287 500 C287 513 275 524 263 524 C199 524 150 482 140 422 C80 413 39 364 39 300 L39 200 C39 163 52 131 76 109 C54 97 39 78 39 50 C39 22 54 3 76 -9 C52 -31 39 -63 39 -100 C39 -172 91 -224 163 -224 L163 -224 Z M87 200 L87 300 C87 331 105 364 137 373 C144 375 153 375 162 376 C172 375 181 375 188 373 C220 364 239 332 239 300 L239 200 C239 155 208 124 163 124 C117 124 87 155 87 200 L87 200 Z M163 -24 C208 -24 239 -55 239 -100 C239 -131 220 -164 188 -173 C181 -175 171 -175 162 -176 C154 -175 144 -175 137 -173 C105 -164 87 -132 87 -100 C87 -55 117 -24 163 -24 L163 -24 Z M151 550 C151 537 162 526 175 526 C188 526 199 537 199 550 L199 600 C199 613 188 624 175 624 C162 624 151 613 151 600 L151 550 Z " />
<glyph glyph-name="uni0122" unicode="&#x122;" horiz-adv-x="450" d="M39 450 L39 150 C39 49 110 -24 213 -24 C296 -24 357 20 379 101 C383 117 387 134 387 150 L387 300 C387 313 375 324 363 324 L263 324 C250 324 239 313 239 300 C239 290 245 281 254 277 C262 275 325 276 339 276 L339 150 C339 135 335 119 330 105 C311 49 271 24 213 24 C137 24 87 76 87 150 L87 450 C87 524 137 576 213 576 C272 576 315 548 332 490 C336 474 334 456 340 442 C344 433 352 426 363 426 C375 426 387 437 387 450 C387 467 383 483 379 499 C357 580 296 624 213 624 C110 624 39 551 39 450 L39 450 Z " />
<glyph glyph-name="uni0123" unicode="&#x123;" horiz-adv-x="350" d="M39 300 L39 200 C39 163 52 131 76 109 C54 97 39 78 39 50 C39 22 54 3 76 -9 C52 -31 39 -63 39 -100 C39 -172 91 -224 163 -224 C234 -224 287 -172 287 -100 C287 -28 234 24 163 24 C156 24 149 24 142 23 C127 27 106 26 94 36 C90 40 87 45 87 50 C87 56 90 60 94 64 C106 74 127 73 142 77 C149 76 156 76 163 76 C234 76 287 128 287 200 L287 300 C287 362 247 410 190 421 C194 436 201 448 210 458 C237 485 287 464 287 500 C287 513 275 524 263 524 C199 524 150 482 140 422 C80 413 39 364 39 300 L39 300 Z M87 200 L87 300 C87 331 105 364 137 373 C144 375 153 375 162 376 C172 375 181 375 188 373 C220 364 239 332 239 300 L239 200 C239 155 208 124 163 124 C117 124 87 155 87 200 L87 200 Z M163 -24 C208 -24 239 -55 239 -100 C239 -131 220 -164 188 -173 C181 -175 171 -175 162 -176 C154 -175 144 -175 137 -173 C105 -164 87 -132 87 -100 C87 -55 117 -24 163 -24 L163 -24 Z M225 575 C238 575 249 586 249 599 C249 643 183 599 156 667 C149 684 148 708 148 727 C148 748 149 769 149 790 C149 806 145 823 125 823 C112 823 101 812 101 799 L101 699 C101 627 153 575 225 575 L225 575 Z " />
<glyph glyph-name="Hcircumflex" unicode="&#x124;" horiz-adv-x="450" d="M39 600 L39 0 C39 -13 50 -24 63 -24 C75 -24 87 -13 87 0 L87 376 L339 376 L339 0 C339 -13 350 -24 363 -24 C375 -24 387 -13 387 0 L387 600 C387 613 375 624 363 624 C350 624 339 613 339 600 L339 424 L87 424 L87 600 C87 613 75 624 63 624 C50 624 39 613 39 600 L39 600 Z M125 675 C131 675 136 677 140 681 C150 689 158 699 167 707 L225 765 L283 707 C292 699 300 689 310 681 C314 677 319 675 325 675 C338 675 349 686 349 699 C349 705 347 710 343 714 C328 734 308 750 290 768 C274 784 259 803 240 817 C236 821 231 823 225 823 C219 823 214 821 210 817 C192 803 177 784 160 768 C143 750 122 734 107 714 C103 710 101 705 101 699 C101 686 112 675 125 675 L125 675 Z " />
<glyph glyph-name="hcircumflex" unicode="&#x125;" horiz-adv-x="350" d="M63 -24 C75 -24 87 -13 87 0 L86 376 C108 375 134 376 143 376 C220 376 240 350 240 273 C240 189 238 104 238 19 C238 1 237 -24 263 -24 C275 -24 287 -13 287 0 L287 300 C287 372 234 424 163 424 L87 424 L86 594 C93 600 99 607 105 613 L163 671 L221 613 C230 605 238 595 248 587 C252 583 257 581 263 581 C276 581 287 592 287 605 C287 611 285 616 281 620 C266 640 246 656 228 674 C212 690 197 709 178 723 C174 727 169 729 163 729 C157 729 152 727 148 723 C130 709 115 690 98 674 C81 656 60 640 45 620 C41 616 39 611 39 605 C39 603 39 602 39 600 L39 0 C39 -13 50 -24 63 -24 L63 -24 Z " />
<glyph glyph-name="Hbar" unicode="&#x126;" horiz-adv-x="450" d="M39 600 L39 0 C39 -13 50 -24 63 -24 C75 -24 87 -13 87 0 L87 376 L339 376 L339 0 C339 -13 350 -24 363 -24 C375 -24 387 -13 387 0 L387 600 C387 613 375 624 363 624 C350 624 339 613 339 600 L339 424 L87 424 L87 600 C87 613 75 624 63 624 C50 624 39 613 39 600 L39 600 Z M125 725 L325 725 C338 725 349 736 349 749 C349 762 338 773 325 773 L125 773 C112 773 101 762 101 749 C101 736 112 725 125 725 L125 725 Z " />
<glyph glyph-name="hbar" unicode="&#x127;" horiz-adv-x="350" d="M12 526 L39 526 L39 0 C39 -13 50 -24 63 -24 C75 -24 87 -13 87 0 L86 376 C108 375 134 376 143 376 C220 376 240 350 240 273 C240 189 238 104 238 19 C238 1 237 -24 263 -24 C275 -24 287 -13 287 0 L287 300 C287 372 234 424 163 424 L87 424 L87 526 L212 526 C225 526 236 537 236 550 C236 563 225 574 212 574 L87 574 L87 600 C87 613 75 624 63 624 C50 624 39 613 39 600 L38 574 L12 574 C-1 574 -12 563 -12 550 C-12 537 -1 526 12 526 L12 526 Z " />
<glyph glyph-name="Itilde" unicode="&#x128;" horiz-adv-x="150" d="M39 0 C39 -13 50 -24 63 -24 C75 -24 87 -13 87 0 L87 600 C87 613 75 624 63 624 C50 624 39 613 39 600 L39 0 Z M-25 699 C13 699 -15 749 25 749 C58 749 68 699 125 699 C167 699 199 731 199 773 C199 786 188 797 175 797 C138 797 165 747 125 747 C92 747 82 797 25 797 C-17 797 -49 765 -49 723 C-49 710 -38 699 -25 699 L-25 699 Z " />
<glyph glyph-name="itilde" unicode="&#x129;" horiz-adv-x="150" d="M39 0 C39 -13 50 -24 63 -24 C75 -24 87 -13 87 0 L87 400 C87 413 75 424 63 424 C50 424 39 413 39 400 L39 0 Z M-25 500 C13 500 -15 550 25 550 C58 550 68 500 125 500 C167 500 199 532 199 574 C199 587 188 598 175 598 C138 598 165 548 125 548 C92 548 82 598 25 598 C-17 598 -49 566 -49 524 C-49 511 -38 500 -25 500 L-25 500 Z " />
<glyph glyph-name="Imacron" unicode="&#x12a;" horiz-adv-x="150" d="M39 0 C39 -13 50 -24 63 -24 C75 -24 87 -13 87 0 L87 600 C87 613 75 624 63 624 C50 624 39 613 39 600 L39 0 Z M-49 749 C-49 736 -38 725 -25 725 L175 725 C188 725 199 736 199 749 C199 762 188 773 175 773 L-25 773 C-38 773 -49 762 -49 749 L-49 749 Z " />
<glyph glyph-name="imacron" unicode="&#x12b;" horiz-adv-x="150" d="M39 0 C39 -13 50 -24 63 -24 C75 -24 87 -13 87 0 L87 400 C87 413 75 424 63 424 C50 424 39 413 39 400 L39 0 Z M-49 550 C-49 537 -38 526 -25 526 L175 526 C188 526 199 537 199 550 C199 563 188 574 175 574 L-25 574 C-38 574 -49 563 -49 550 L-49 550 Z " />
<glyph glyph-name="Ibreve" unicode="&#x12c;" horiz-adv-x="150" d="M63 -24 C75 -24 87 -13 87 0 L87 600 C87 613 75 624 63 624 C50 624 39 613 39 600 L39 0 C39 -13 50 -24 63 -24 L63 -24 Z M-49 799 C-49 727 3 675 75 675 C147 675 199 727 199 799 C199 812 188 823 175 823 C165 823 156 816 152 807 C149 799 150 789 148 780 C140 742 113 723 75 723 C37 723 10 742 2 780 C0 789 1 799 -2 807 C-6 816 -15 823 -25 823 C-38 823 -49 812 -49 799 L-49 799 Z " />
<glyph glyph-name="ibreve" unicode="&#x12d;" horiz-adv-x="150" d="M63 -24 C75 -24 87 -13 87 0 L87 400 C87 413 75 424 63 424 C50 424 39 413 39 400 L39 0 C39 -13 50 -24 63 -24 L63 -24 Z M-49 600 C-49 528 3 476 75 476 C147 476 199 528 199 600 C199 613 188 624 175 624 C165 624 156 617 152 608 C149 600 150 590 148 581 C140 543 113 524 75 524 C37 524 10 543 2 581 C0 590 1 600 -2 608 C-6 617 -15 624 -25 624 C-38 624 -49 613 -49 600 L-49 600 Z " />
<glyph glyph-name="Iogonek" unicode="&#x12e;" horiz-adv-x="150" d="M-38 -224 C-18 -224 -13 -207 -13 -191 C-13 -170 -14 -149 -14 -128 C-14 -109 -14 -85 -7 -68 C9 -28 38 -27 59 -24 C74 -24 87 -17 87 0 L87 600 C87 613 75 624 63 624 C50 624 39 613 39 600 L39 22 C-21 12 -62 -37 -62 -100 L-62 -200 C-62 -213 -50 -224 -38 -224 L-38 -224 Z " />
<glyph glyph-name="iogonek" unicode="&#x12f;" horiz-adv-x="150" d="M-61 -200 C-61 -213 -50 -224 -37 -224 C-17 -224 -13 -207 -13 -191 C-13 -170 -14 -149 -14 -128 C-14 -109 -13 -85 -6 -68 C10 -29 38 -27 60 -24 C66 -24 70 -24 75 -20 C87 -15 87 -6 87 5 L87 400 C87 413 75 424 63 424 C50 424 39 413 39 400 L39 22 C-20 11 -61 -37 -61 -100 L-61 -200 Z M39 550 C39 537 50 526 63 526 C75 526 87 537 87 550 L87 600 C87 613 75 624 63 624 C50 624 39 613 39 600 L39 550 Z " />
<glyph glyph-name="Idotaccent" unicode="&#x130;" horiz-adv-x="150" d="M39 0 C39 -13 50 -24 63 -24 C75 -24 87 -13 87 0 L87 600 C87 613 75 624 63 624 C50 624 39 613 39 600 L39 0 Z M51 749 C51 736 62 725 75 725 C88 725 99 736 99 749 L99 799 C99 812 88 823 75 823 C62 823 51 812 51 799 L51 749 Z " />
<glyph glyph-name="dotlessi" unicode="&#x131;" horiz-adv-x="150" d="M39 0 C39 -13 50 -24 63 -24 C75 -24 87 -13 87 0 L87 400 C87 413 75 424 63 424 C50 424 39 413 39 400 L39 0 Z " />
<glyph glyph-name="IJ" unicode="&#x132;" horiz-adv-x="375" d="M-37 150 C-37 134 -33 117 -29 101 C-7 20 54 -24 138 -24 C221 -24 282 20 304 101 C308 117 312 134 312 150 L312 600 C312 613 300 624 288 624 C259 624 264 593 264 573 C264 437 264 300 264 163 C264 82 222 24 138 24 C78 24 35 52 18 111 C14 126 16 144 10 158 C6 167 -2 174 -13 174 C-25 174 -37 163 -37 150 L-37 150 Z M-37 350 C-37 337 -25 326 -13 326 C0 326 12 337 12 350 L12 600 C12 613 0 624 -13 624 C-25 624 -37 613 -37 600 L-37 350 Z " />
<glyph glyph-name="ij" unicode="&#x133;" horiz-adv-x="300" d="M113 -224 C184 -224 237 -172 237 -100 L237 400 C237 413 225 424 213 424 C185 424 189 394 189 375 C189 222 189 68 189 -85 C189 -137 169 -176 113 -176 C75 -176 48 -157 39 -119 C37 -110 38 -100 35 -92 C32 -83 22 -76 13 -76 C0 -76 -12 -87 -12 -100 C-12 -172 41 -224 113 -224 L113 -224 Z M-12 100 C-12 87 0 76 13 76 C25 76 37 87 37 100 L37 400 C37 413 25 424 13 424 C0 424 -12 413 -12 400 L-12 100 Z M189 600 L189 550 C189 537 200 526 213 526 C225 526 237 537 237 550 L237 600 C237 613 225 624 213 624 C200 624 189 613 189 600 L189 600 Z M-12 600 L-12 550 C-12 537 0 526 13 526 C25 526 37 537 37 550 L37 600 C37 613 25 624 13 624 C0 624 -12 613 -12 600 L-12 600 Z " />
<glyph glyph-name="Jcircumflex" unicode="&#x134;" horiz-adv-x="450" d="M213 -24 C296 -24 357 20 379 101 C383 117 387 134 387 150 L387 600 C387 613 375 624 363 624 C334 624 339 593 339 573 C339 437 339 300 339 163 C339 82 297 24 213 24 C153 24 110 52 93 111 C89 126 91 144 85 158 C81 167 73 174 63 174 C50 174 39 163 39 150 C39 49 110 -24 213 -24 L213 -24 Z M236 699 C236 686 247 675 260 675 C266 675 271 677 275 681 C285 689 293 699 302 707 L360 765 L418 707 C427 699 435 689 445 681 C449 677 454 675 460 675 C473 675 484 686 484 699 C484 705 482 710 478 714 C463 734 443 750 425 768 C409 784 394 803 375 817 C371 821 366 823 360 823 C354 823 349 821 345 817 C327 803 312 784 295 768 C278 750 257 734 242 714 C238 710 236 705 236 699 L236 699 Z " />
<glyph glyph-name="jcircumflex" unicode="&#x135;" horiz-adv-x="224" d="M14 -200 C14 -213 25 -224 38 -224 C109 -224 162 -172 162 -100 L162 400 C162 413 150 424 138 424 C127 424 119 418 115 408 C113 404 113 291 113 279 C113 160 114 41 114 -78 C114 -96 114 -115 107 -133 C79 -200 14 -156 14 -200 L14 -200 Z M38 476 C43 476 49 478 53 482 C63 490 71 500 80 508 L138 566 L195 508 C204 500 212 490 222 482 C226 478 232 476 238 476 C250 476 262 487 262 500 C262 506 259 511 256 515 C240 535 220 551 202 569 C186 585 171 604 153 618 C149 622 143 624 138 624 C132 624 126 622 122 618 C104 604 89 585 73 569 C55 551 35 535 19 515 C16 511 14 506 14 500 C14 487 25 476 38 476 L38 476 Z " />
<glyph glyph-name="uni0136" unicode="&#x136;" horiz-adv-x="450" d="M39 600 L39 0 C39 -13 50 -24 63 -24 C75 -24 87 -13 87 0 L86 289 C95 297 102 306 108 312 L156 359 C158 356 159 353 160 351 L340 -8 C344 -17 351 -24 363 -24 C375 -24 387 -13 387 0 C387 12 370 38 365 50 L321 136 L192 395 L373 576 C380 583 387 589 387 600 C387 613 375 624 363 624 C346 624 328 599 317 588 L87 358 L87 600 C87 613 75 624 63 624 C50 624 39 613 39 600 L39 600 Z " />
<glyph glyph-name="uni0137" unicode="&#x137;" horiz-adv-x="350" d="M39 600 L39 0 C39 -13 50 -24 63 -24 C76 -24 87 -13 87 0 L87 285 C100 291 120 301 142 312 C140 309 139 304 139 300 C139 294 238 -8 242 -12 C247 -19 253 -24 263 -24 C276 -24 287 -13 287 0 C287 6 187 308 183 312 C178 319 173 323 165 324 C219 351 277 381 278 382 C283 387 287 392 287 400 C287 413 276 424 263 424 C260 424 257 424 254 423 C246 420 144 368 87 339 L87 600 C87 613 76 624 63 624 C50 624 39 613 39 600 L39 600 Z " />
<glyph glyph-name="kgreenlandic" unicode="&#x138;" horiz-adv-x="400" d="M39 400 L39 0 C39 -13 50 -24 63 -24 C75 -24 87 -13 87 0 L87 236 C102 244 120 256 128 261 L140 268 C140 266 141 265 142 263 C173 198 211 136 246 72 C255 55 284 -5 294 -15 C299 -21 305 -24 313 -24 C325 -24 337 -13 337 0 C337 4 335 8 333 12 C302 77 264 139 229 203 C220 220 191 280 181 290 C180 291 180 292 179 292 L238 328 L302 365 C315 374 337 381 337 400 C337 413 325 424 313 424 C300 424 260 397 247 389 L87 292 L87 400 C87 413 75 424 63 424 C50 424 39 413 39 400 L39 400 Z " />
<glyph glyph-name="Lacute" unicode="&#x139;" horiz-adv-x="412" d="M39 600 L39 0 C39 -13 50 -24 63 -24 L363 -24 C375 -24 387 -13 387 0 C387 13 375 24 363 24 L87 24 L87 600 C87 613 75 624 63 624 C50 624 39 613 39 600 L39 600 Z M157 699 C157 686 168 675 181 675 C188 675 195 678 199 684 C202 686 251 784 254 791 C254 794 255 796 255 799 C255 812 244 823 231 823 C224 823 217 820 213 814 C210 812 161 714 158 707 C158 705 157 702 157 699 L157 699 Z " />
<glyph glyph-name="lacute" unicode="&#x13a;" horiz-adv-x="150" d="M39 0 C39 -13 50 -24 63 -24 C75 -24 87 -13 87 0 L87 600 C87 613 75 624 63 624 C50 624 39 613 39 600 L39 0 Z M50 676 C57 676 64 679 68 685 C71 687 120 785 123 792 C123 795 124 797 124 800 C124 813 113 824 100 824 C93 824 86 821 82 815 C79 813 30 715 27 708 C27 706 26 703 26 700 C26 687 37 676 50 676 L50 676 Z " />
<glyph glyph-name="uni013B" unicode="&#x13b;" horiz-adv-x="412" d="M39 600 L39 0 C39 -13 50 -24 63 -24 L363 -24 C375 -24 387 -13 387 0 C387 13 375 24 363 24 L87 24 L87 600 C87 613 75 624 63 624 C50 624 39 613 39 600 L39 600 Z " />
<glyph glyph-name="uni013C" unicode="&#x13c;" horiz-adv-x="150" d="M39 0 C39 -13 50 -24 63 -24 C75 -24 87 -13 87 0 L87 600 C87 613 75 624 63 624 C50 624 39 613 39 600 L39 0 Z " />
<glyph glyph-name="Lcaron" unicode="&#x13d;" horiz-adv-x="412" d="M39 0 C39 -13 50 -24 63 -24 L363 -24 C375 -24 387 -13 387 0 C387 13 375 24 363 24 L87 24 L87 600 C87 613 75 624 63 624 C50 624 39 613 39 600 L39 0 Z M225 732 C232 714 233 690 233 671 C233 650 232 629 232 608 C232 592 236 575 256 575 C269 575 280 586 280 599 L280 699 C280 771 228 823 156 823 C143 823 132 812 132 799 C132 755 198 799 225 732 L225 732 Z " />
<glyph glyph-name="lcaron" unicode="&#x13e;" horiz-adv-x="325" d="M39 600 L39 0 C39 -13 50 -24 63 -24 C75 -24 87 -13 87 0 L87 600 C87 613 75 624 63 624 C50 624 39 613 39 600 L39 600 Z M232 533 C239 515 239 491 239 472 C239 451 238 430 238 409 C238 393 243 376 263 376 C275 376 287 387 287 400 L287 500 C287 572 234 624 163 624 C150 624 139 613 139 600 C139 556 204 600 232 533 L232 533 Z " />
<glyph glyph-name="Ldot" unicode="&#x13f;" horiz-adv-x="412" d="M39 600 L39 0 C39 -13 50 -24 63 -24 L363 -24 C375 -24 387 -13 387 0 C387 13 375 24 363 24 L87 24 L87 600 C87 613 75 624 63 624 C50 624 39 613 39 600 L39 600 Z M250 125 C304 125 349 170 349 225 C349 279 304 324 250 324 C196 324 151 279 151 225 C151 170 196 125 250 125 L250 125 Z M199 225 C199 253 222 276 250 276 C283 276 294 253 302 225 C294 197 283 173 250 173 C222 173 199 197 199 225 L199 225 Z " />
<glyph glyph-name="ldot" unicode="&#x140;" horiz-adv-x="375" d="M238 125 C292 125 337 170 337 225 C337 279 292 324 238 324 C183 324 139 279 139 225 C139 170 183 125 238 125 L238 125 Z M39 600 L39 0 C39 -13 50 -24 63 -24 C75 -24 87 -13 87 0 L87 600 C87 613 75 624 63 624 C50 624 39 613 39 600 L39 600 Z M238 276 C270 276 283 253 289 225 C283 197 270 173 238 173 C210 173 187 197 187 225 C187 253 210 276 238 276 L238 276 Z " />
<glyph glyph-name="Lslash" unicode="&#x141;" horiz-adv-x="412" d="M-12 247 C-12 234 -1 223 12 223 L39 223 L39 0 C39 -13 50 -24 63 -24 L363 -24 C375 -24 387 -13 387 0 C387 13 375 24 363 24 L87 24 L87 223 L212 223 C225 223 236 234 236 247 C236 260 225 271 212 271 L87 271 L87 600 C87 613 75 624 63 624 C50 624 39 613 39 600 L38 271 L12 271 C-1 271 -12 260 -12 247 L-12 247 Z " />
<glyph glyph-name="lslash" unicode="&#x142;" horiz-adv-x="150" d="M-49 247 C-49 234 -38 223 -25 223 L39 223 L39 0 C39 -13 50 -24 63 -24 C75 -24 87 -13 87 0 L87 223 L175 223 C188 223 199 234 199 247 C199 260 188 271 175 271 L87 271 L87 600 C87 613 75 624 63 624 C50 624 39 613 39 600 L39 271 L-25 271 C-38 271 -49 260 -49 247 L-49 247 Z " />
<glyph glyph-name="Nacute" unicode="&#x143;" horiz-adv-x="450" d="M63 -24 C73 -24 81 -18 85 -8 C88 0 87 92 87 110 L87 555 L264 437 C277 428 313 401 339 386 L339 0 C339 -13 350 -24 363 -24 C375 -24 387 -13 387 0 L387 600 C387 613 375 624 363 624 C350 624 339 613 339 600 L339 445 L106 600 C96 607 86 615 75 621 C71 623 67 624 63 624 C50 624 39 613 39 600 L39 0 C39 -13 50 -24 63 -24 L63 -24 Z M176 699 C176 686 187 675 200 675 C207 675 214 678 218 684 C221 686 270 784 273 791 C273 794 274 796 274 799 C274 812 263 823 250 823 C243 823 236 820 232 814 C229 812 180 714 177 707 C177 705 176 702 176 699 L176 699 Z " />
<glyph glyph-name="nacute" unicode="&#x144;" horiz-adv-x="350" d="M39 400 L39 0 C39 -13 50 -24 63 -24 C75 -24 87 -13 87 0 L86 376 C108 375 134 376 143 376 C220 376 240 350 240 273 C240 189 238 104 238 19 C238 1 237 -24 263 -24 C275 -24 287 -13 287 0 L287 300 C287 372 234 424 163 424 L63 424 C50 424 39 413 39 400 L39 400 Z M126 500 C126 487 137 476 150 476 C157 476 164 479 168 485 C171 487 220 585 223 592 C223 595 224 597 224 600 C224 613 213 624 200 624 C193 624 186 621 182 615 C179 613 130 515 127 508 C127 506 126 503 126 500 L126 500 Z " />
<glyph glyph-name="uni0145" unicode="&#x145;" horiz-adv-x="450" d="M63 -24 C73 -24 81 -18 85 -8 C88 0 87 92 87 110 L87 555 L264 437 C277 428 313 401 339 386 L339 0 C339 -13 350 -24 363 -24 C375 -24 387 -13 387 0 L387 600 C387 613 375 624 363 624 C350 624 339 613 339 600 L339 445 L106 600 C96 607 86 615 75 621 C71 623 67 624 63 624 C50 624 39 613 39 600 L39 0 C39 -13 50 -24 63 -24 L63 -24 Z " />
<glyph glyph-name="uni0146" unicode="&#x146;" horiz-adv-x="350" d="M39 400 L39 0 C39 -13 50 -24 63 -24 C75 -24 87 -13 87 0 L86 376 C108 375 134 376 143 376 C220 376 240 350 240 273 C240 189 238 104 238 19 C238 1 237 -24 263 -24 C275 -24 287 -13 287 0 L287 300 C287 372 234 424 163 424 L63 424 C50 424 39 413 39 400 L39 400 Z " />
<glyph glyph-name="Ncaron" unicode="&#x147;" horiz-adv-x="450" d="M39 0 C39 -13 50 -24 63 -24 C73 -24 81 -18 85 -8 C88 0 87 92 87 110 L87 555 L264 437 C277 428 313 401 339 386 L339 0 C339 -13 350 -24 363 -24 C375 -24 387 -13 387 0 L387 600 C387 613 375 624 363 624 C350 624 339 613 339 600 L339 445 L106 600 C96 607 86 615 75 621 C71 623 67 624 63 624 C50 624 39 613 39 600 L39 0 Z M101 799 C101 793 103 788 107 784 C122 764 143 748 160 730 C177 714 192 695 210 681 C214 677 219 675 225 675 C231 675 236 677 240 681 C259 695 274 714 290 730 C308 748 328 764 343 784 C347 788 349 793 349 799 C349 812 338 823 325 823 C319 823 314 821 310 817 C300 810 292 800 283 791 L225 733 L167 791 C158 800 150 810 140 817 C136 821 131 823 125 823 C112 823 101 812 101 799 L101 799 Z " />
<glyph glyph-name="ncaron" unicode="&#x148;" horiz-adv-x="350" d="M39 400 L39 0 C39 -13 50 -24 63 -24 C75 -24 87 -13 87 0 L86 376 C108 375 134 376 143 376 C220 376 240 350 240 273 C240 189 238 104 238 19 C238 1 237 -24 263 -24 C275 -24 287 -13 287 0 L287 300 C287 372 234 424 163 424 L63 424 C50 424 39 413 39 400 L39 400 Z M51 600 C51 594 53 589 57 585 C72 565 93 549 110 531 C127 515 142 496 160 482 C164 478 169 476 175 476 C181 476 186 478 190 482 C209 496 224 515 240 531 C258 549 278 565 293 585 C297 589 299 594 299 600 C299 613 288 624 275 624 C269 624 264 622 260 618 C250 611 242 601 233 592 L175 534 L117 592 C108 601 100 611 90 618 C86 622 81 624 75 624 C62 624 51 613 51 600 L51 600 Z " />
<glyph glyph-name="napostrophe" unicode="&#x149;" horiz-adv-x="350" d="M39 0 C39 -13 50 -24 63 -24 C75 -24 87 -13 87 0 L86 376 C108 375 134 376 143 376 C220 376 240 350 240 273 C240 189 238 104 238 19 C238 1 237 -24 263 -24 C275 -24 287 -13 287 0 L287 300 C287 372 234 424 163 424 L63 424 C50 424 39 413 39 400 L39 0 Z M-162 600 C-162 556 -97 600 -69 533 C-62 515 -61 491 -61 472 C-61 451 -62 430 -62 409 C-62 393 -58 376 -38 376 C-25 376 -14 387 -14 400 L-14 500 C-14 572 -66 624 -138 624 C-151 624 -162 613 -162 600 L-162 600 Z " />
<glyph glyph-name="Eng" unicode="&#x14a;" horiz-adv-x="450" d="M39 600 L39 0 C39 -13 50 -24 63 -24 C73 -24 81 -18 85 -8 C88 0 87 92 87 110 L87 555 L264 437 C277 428 312 402 338 387 C338 238 339 90 339 -59 C339 -104 340 -163 284 -174 C266 -178 239 -172 239 -200 C239 -213 250 -224 263 -224 C334 -224 387 -172 387 -100 L387 600 C387 613 375 624 363 624 C352 624 344 618 340 608 C338 604 338 472 338 460 C338 455 338 450 338 445 L106 600 C96 607 86 615 75 621 C71 623 67 624 63 624 C50 624 39 613 39 600 L39 600 Z " />
<glyph glyph-name="eng" unicode="&#x14b;" horiz-adv-x="350" d="M39 400 L39 0 C39 -13 50 -24 63 -24 C80 -24 87 -10 87 5 L87 376 L163 376 C208 376 239 345 239 300 L239 -100 C239 -131 220 -164 188 -173 C170 -178 139 -171 139 -200 C139 -213 150 -224 163 -224 C234 -224 287 -172 287 -100 L287 300 C287 372 234 424 163 424 L63 424 C50 424 39 413 39 400 L39 400 Z " />
<glyph glyph-name="Omacron" unicode="&#x14c;" horiz-adv-x="450" d="M39 150 C39 49 110 -24 213 -24 C296 -24 357 20 379 101 C383 117 387 134 387 150 L387 450 C387 467 383 483 379 499 C357 580 296 624 213 624 C110 624 39 551 39 450 L39 150 Z M87 450 C87 502 118 556 170 571 C181 574 200 574 213 575 C225 574 244 574 255 571 C307 556 339 502 339 450 L339 150 C339 135 335 119 330 105 C311 49 271 24 213 24 C154 24 114 49 95 105 C90 119 87 135 87 150 L87 450 Z M101 749 C101 736 112 725 125 725 L325 725 C338 725 349 736 349 749 C349 762 338 773 325 773 L125 773 C112 773 101 762 101 749 L101 749 Z " />
<glyph glyph-name="omacron" unicode="&#x14d;" horiz-adv-x="350" d="M163 -24 C234 -24 287 28 287 100 L287 300 C287 372 234 424 163 424 C91 424 39 372 39 300 L39 100 C39 28 91 -24 163 -24 L163 -24 Z M87 100 L87 300 C87 331 105 364 137 373 C144 375 154 375 163 376 C171 375 181 375 188 373 C220 364 239 332 239 300 L239 100 C239 55 208 24 163 24 C117 24 87 55 87 100 L87 100 Z M75 526 L275 526 C288 526 299 537 299 550 C299 563 288 574 275 574 L75 574 C62 574 51 563 51 550 C51 537 62 526 75 526 L75 526 Z " />
<glyph glyph-name="Obreve" unicode="&#x14e;" horiz-adv-x="450" d="M39 150 C39 49 110 -24 213 -24 C296 -24 357 20 379 101 C383 117 387 134 387 150 L387 450 C387 467 383 483 379 499 C357 580 296 624 213 624 C110 624 39 551 39 450 L39 150 Z M170 571 C181 574 200 574 213 575 C225 574 244 574 255 571 C307 556 339 502 339 450 L339 150 C339 135 335 119 330 105 C311 49 271 24 213 24 C154 24 114 49 95 105 C90 119 87 135 87 150 L87 450 C87 502 118 556 170 571 L170 571 Z M225 675 C297 675 349 727 349 799 C349 812 338 823 325 823 C315 823 306 816 302 807 C299 799 300 789 298 780 C290 742 263 723 225 723 C187 723 160 742 152 780 C150 789 151 799 148 807 C144 816 135 823 125 823 C112 823 101 812 101 799 C101 727 153 675 225 675 L225 675 Z " />
<glyph glyph-name="obreve" unicode="&#x14f;" horiz-adv-x="350" d="M163 -24 C234 -24 287 28 287 100 L287 300 C287 372 234 424 163 424 C91 424 39 372 39 300 L39 100 C39 28 91 -24 163 -24 L163 -24 Z M137 373 C144 375 154 375 163 376 C171 375 181 375 188 373 C220 364 239 332 239 300 L239 100 C239 55 208 24 163 24 C117 24 87 55 87 100 L87 300 C87 331 105 364 137 373 L137 373 Z M51 600 C51 528 103 476 175 476 C247 476 299 528 299 600 C299 613 288 624 275 624 C265 624 256 617 252 608 C249 600 250 590 248 581 C240 543 213 524 175 524 C137 524 110 543 102 581 C100 590 101 600 98 608 C94 617 85 624 75 624 C62 624 51 613 51 600 L51 600 Z " />
<glyph glyph-name="Ohungarumlaut" unicode="&#x150;" horiz-adv-x="450" d="M39 150 C39 49 110 -24 213 -24 C296 -24 357 20 379 101 C383 117 387 134 387 150 L387 450 C387 467 383 483 379 499 C357 580 296 624 213 624 C110 624 39 551 39 450 L39 150 Z M170 571 C181 574 200 574 213 575 C225 574 244 574 255 571 C307 556 339 502 339 450 L339 150 C339 135 335 119 330 105 C311 49 271 24 213 24 C154 24 114 49 95 105 C90 119 87 135 87 150 L87 450 C87 502 118 556 170 571 L170 571 Z M263 675 C270 675 276 678 281 684 C284 687 337 790 337 799 C337 812 325 823 313 823 C305 823 299 820 294 814 C292 812 242 714 240 707 C239 705 239 702 239 699 C239 686 250 675 263 675 L263 675 Z M138 675 C145 675 151 678 156 684 C159 687 212 790 212 799 C212 812 200 823 188 823 C180 823 174 820 169 814 C167 812 117 714 115 707 C114 705 114 702 114 699 C114 686 125 675 138 675 L138 675 Z " />
<glyph glyph-name="ohungarumlaut" unicode="&#x151;" horiz-adv-x="350" d="M163 -24 C234 -24 287 28 287 100 L287 300 C287 372 234 424 163 424 C91 424 39 372 39 300 L39 100 C39 28 91 -24 163 -24 L163 -24 Z M137 373 C144 375 154 375 163 376 C171 375 181 375 188 373 C220 364 239 332 239 300 L239 100 C239 55 208 24 163 24 C117 24 87 55 87 100 L87 300 C87 331 105 364 137 373 L137 373 Z M189 500 C189 487 200 476 213 476 C220 476 226 479 231 485 C234 488 287 591 287 600 C287 613 275 624 263 624 C255 624 249 621 244 615 C242 613 192 515 190 508 C189 506 189 503 189 500 L189 500 Z M64 500 C64 487 75 476 88 476 C95 476 101 479 106 485 C109 488 162 591 162 600 C162 613 150 624 138 624 C130 624 124 621 119 615 C117 613 67 515 65 508 C64 506 64 503 64 500 L64 500 Z " />
<glyph glyph-name="OE" unicode="&#x152;" horiz-adv-x="728" d="M39 150 C39 133 43 116 47 100 C71 20 133 -24 216 -24 C286 -24 341 7 369 66 C412 -1 487 -24 566 -24 L641 -24 C654 -24 665 -13 665 0 C665 29 631 24 612 24 L584 24 C507 24 420 38 395 123 C392 133 392 144 390 154 L390 376 L516 376 C529 376 540 387 540 400 C540 413 529 424 516 424 L390 424 L390 450 C390 494 370 545 340 576 L616 576 C629 576 640 587 640 600 C640 613 629 624 616 624 L216 624 C133 624 71 580 47 500 C43 484 39 467 39 450 L39 150 Z M87 150 L87 450 C87 512 132 568 194 575 C200 576 208 575 215 576 C227 574 247 574 258 571 C311 556 342 502 342 450 L342 150 C342 135 338 119 333 105 C314 49 274 24 216 24 C168 24 125 43 103 88 C95 106 87 129 87 150 L87 150 Z " />
<glyph glyph-name="oe" unicode="&#x153;" horiz-adv-x="550" d="M163 -24 C205 -24 241 -5 263 25 C290 -14 328 -24 372 -24 C391 -24 424 -29 424 0 C424 28 395 24 375 24 C344 24 316 27 299 57 C292 70 287 86 287 100 L287 300 C287 345 318 376 363 376 C408 376 439 345 439 300 L439 224 C425 224 410 224 396 224 C376 224 339 230 339 200 C339 187 350 176 363 176 L463 176 C476 176 487 187 487 200 L487 300 C487 372 435 424 363 424 C321 424 285 406 263 376 C241 406 205 424 163 424 C91 424 39 372 39 300 L39 100 C39 28 91 -24 163 -24 L163 -24 Z M137 373 C144 375 154 375 163 376 C171 375 181 375 188 373 C220 364 239 332 239 300 L239 100 C239 55 208 24 163 24 C117 24 87 55 87 100 L87 300 C87 331 105 364 137 373 L137 373 Z " />
<glyph glyph-name="Racute" unicode="&#x154;" horiz-adv-x="375" d="M39 600 L39 0 C39 -13 50 -24 63 -24 C73 -24 81 -18 85 -8 C88 -1 87 97 87 115 L87 576 L163 576 C221 576 261 551 280 495 C285 481 289 465 289 450 C289 397 257 344 205 329 C189 325 169 329 154 323 C145 319 139 310 139 300 C139 297 139 294 140 292 C144 282 150 272 154 263 L290 -9 C295 -18 302 -24 313 -24 C325 -24 337 -13 337 0 C337 3 336 6 335 8 C332 17 326 26 322 34 L292 96 L200 279 C282 290 337 371 337 450 C337 466 333 483 329 499 C307 580 246 624 163 624 L63 624 C50 624 39 613 39 600 L39 600 Z M163 675 C170 675 176 678 181 684 C184 687 237 790 237 799 C237 812 225 823 213 823 C205 823 199 820 194 814 C192 812 142 714 140 707 C139 705 139 702 139 699 C139 686 150 675 163 675 L163 675 Z " />
<glyph glyph-name="racute" unicode="&#x155;" horiz-adv-x="200" d="M39 300 L39 0 C39 -13 50 -24 63 -24 C73 -24 81 -18 85 -8 C89 1 86 241 86 281 C86 308 89 340 111 359 C142 386 187 365 187 400 C187 413 175 424 163 424 C91 424 39 372 39 300 L39 300 Z M51 500 C51 487 62 476 75 476 C82 476 89 479 93 485 C96 487 145 585 148 592 C148 595 149 597 149 600 C149 613 138 624 125 624 C118 624 111 621 107 615 C104 613 55 515 52 508 C52 506 51 503 51 500 L51 500 Z " />
<glyph glyph-name="uni0156" unicode="&#x156;" horiz-adv-x="375" d="M63 -24 C73 -24 81 -18 85 -8 C88 -1 87 97 87 115 L87 576 L163 576 C221 576 261 551 280 495 C285 481 289 465 289 450 C289 397 257 344 205 329 C189 325 169 329 154 323 C145 319 139 310 139 300 C139 297 139 294 140 292 C144 282 150 272 154 263 L290 -9 C295 -18 302 -24 313 -24 C325 -24 337 -13 337 0 C337 3 336 6 335 8 C332 17 326 26 322 34 L292 96 L200 279 C282 290 337 371 337 450 C337 466 333 483 329 499 C307 580 246 624 163 624 L63 624 C50 624 39 613 39 600 L39 0 C39 -13 50 -24 63 -24 L63 -24 Z " />
<glyph glyph-name="uni0157" unicode="&#x157;" horiz-adv-x="200" d="M39 300 L39 0 C39 -13 50 -24 63 -24 C73 -24 81 -18 85 -8 C89 1 86 241 86 281 C86 308 89 340 111 359 C142 386 187 365 187 400 C187 413 175 424 163 424 C91 424 39 372 39 300 L39 300 Z " />
<glyph glyph-name="Rcaron" unicode="&#x158;" horiz-adv-x="375" d="M39 0 C39 -13 50 -24 63 -24 C73 -24 81 -18 85 -8 C88 -1 87 97 87 115 L87 576 L163 576 C221 576 261 551 280 495 C285 481 289 465 289 450 C289 397 257 344 205 329 C189 325 169 329 154 323 C145 319 139 310 139 300 C139 297 139 294 140 292 C144 282 150 272 154 263 L290 -9 C295 -18 302 -24 313 -24 C325 -24 337 -13 337 0 C337 3 336 6 335 8 C332 17 326 26 322 34 L292 96 L200 279 C282 290 337 371 337 450 C337 466 333 483 329 499 C307 580 246 624 163 624 L63 624 C50 624 39 613 39 600 L39 0 Z M64 799 C64 793 66 788 69 784 C85 764 105 748 123 730 C139 714 154 695 172 681 C177 677 182 675 188 675 C193 675 199 677 203 681 C221 695 236 714 252 730 C270 748 290 764 306 784 C309 788 312 793 312 799 C312 812 300 823 288 823 C282 823 276 821 272 817 C262 810 254 800 245 791 L188 733 L130 791 C121 800 113 810 103 817 C99 821 93 823 88 823 C75 823 64 812 64 799 L64 799 Z " />
<glyph glyph-name="rcaron" unicode="&#x159;" horiz-adv-x="200" d="M63 -24 C73 -24 81 -18 85 -8 C89 1 86 241 86 281 C86 308 89 340 111 359 C142 386 187 365 187 400 C187 413 175 424 163 424 C91 424 39 372 39 300 L39 0 C39 -13 50 -24 63 -24 L63 -24 Z M-18 585 C-3 565 18 549 35 531 C52 515 67 496 85 482 C89 478 94 476 100 476 C106 476 111 478 115 482 C134 496 149 515 165 531 C183 549 203 565 218 585 C222 589 224 594 224 600 C224 613 213 624 200 624 C194 624 189 622 185 618 C175 611 167 601 158 592 L100 534 L42 592 C33 601 25 611 15 618 C11 622 6 624 0 624 C-13 624 -24 613 -24 600 C-24 594 -22 589 -18 585 L-18 585 Z " />
<glyph glyph-name="Sacute" unicode="&#x15a;" horiz-adv-x="425" d="M39 150 C39 49 110 -24 213 -24 C296 -24 357 20 379 101 C383 117 387 134 387 150 C387 318 87 321 87 450 C87 465 90 481 95 495 C114 551 154 576 213 576 C272 576 316 548 332 490 C336 477 336 450 340 442 C344 432 352 426 363 426 C376 426 387 437 387 450 C387 467 383 483 379 499 C357 580 296 624 213 624 C110 624 39 551 39 450 C39 282 339 279 339 150 C339 135 335 119 330 105 C311 49 271 24 213 24 C153 24 109 52 93 111 C90 123 89 150 85 158 C81 168 73 174 63 174 C50 174 39 163 39 150 L39 150 Z M188 675 C195 675 201 678 206 684 C209 687 262 790 262 799 C262 812 250 823 238 823 C230 823 224 820 219 814 C217 812 167 714 165 707 C164 705 164 702 164 699 C164 686 175 675 188 675 L188 675 Z " />
<glyph glyph-name="sacute" unicode="&#x15b;" horiz-adv-x="350" d="M39 100 C39 28 91 -24 163 -24 C234 -24 287 28 287 100 C287 217 87 222 87 300 C87 345 117 376 163 376 C200 376 228 357 236 319 C238 311 237 299 240 292 C244 283 252 276 263 276 C276 276 287 287 287 300 C287 372 234 424 163 424 C91 424 39 372 39 300 C39 183 239 178 239 100 C239 55 208 24 163 24 C125 24 97 43 89 81 C88 89 88 101 85 108 C81 118 73 124 63 124 C50 124 39 113 39 100 L39 100 Z M126 500 C126 487 137 476 150 476 C157 476 164 479 168 485 C171 487 220 585 223 592 C223 595 224 597 224 600 C224 613 213 624 200 624 C193 624 186 621 182 615 C179 613 130 515 127 508 C127 506 126 503 126 500 L126 500 Z " />
<glyph glyph-name="Scircumflex" unicode="&#x15c;" horiz-adv-x="425" d="M339 150 C339 135 335 119 330 105 C311 49 271 24 213 24 C153 24 109 52 93 111 C90 123 89 150 85 158 C81 168 73 174 63 174 C50 174 39 163 39 150 C39 49 110 -24 213 -24 C296 -24 357 20 379 101 C383 117 387 134 387 150 C387 318 87 321 87 450 C87 465 90 481 95 495 C114 551 154 576 213 576 C272 576 316 548 332 490 C336 477 336 450 340 442 C344 432 352 426 363 426 C376 426 387 437 387 450 C387 467 383 483 379 499 C357 580 296 624 213 624 C110 624 39 551 39 450 C39 282 339 279 339 150 L339 150 Z M89 699 C89 686 100 675 113 675 C118 675 124 677 128 681 C138 689 146 699 155 707 L213 765 L270 707 C279 699 287 689 297 681 C301 677 307 675 313 675 C325 675 337 686 337 699 C337 705 334 710 331 714 C315 734 295 750 277 768 C261 784 246 803 228 817 C224 821 218 823 213 823 C207 823 201 821 197 817 C179 803 164 784 148 768 C130 750 110 734 94 714 C91 710 89 705 89 699 L89 699 Z " />
<glyph glyph-name="scircumflex" unicode="&#x15d;" horiz-adv-x="350" d="M239 100 C239 55 208 24 163 24 C125 24 97 43 89 81 C88 89 88 101 85 108 C81 118 73 124 63 124 C50 124 39 113 39 100 C39 28 91 -24 163 -24 C234 -24 287 28 287 100 C287 217 87 222 87 300 C87 345 117 376 163 376 C200 376 228 357 236 319 C238 311 237 299 240 292 C244 283 252 276 263 276 C276 276 287 287 287 300 C287 372 234 424 163 424 C91 424 39 372 39 300 C39 183 239 178 239 100 L239 100 Z M75 476 C81 476 86 478 90 482 C100 490 108 500 117 508 L175 566 L233 508 C242 500 250 490 260 482 C264 478 269 476 275 476 C288 476 299 487 299 500 C299 506 297 511 293 515 C278 535 258 551 240 569 C224 585 209 604 190 618 C186 622 181 624 175 624 C169 624 164 622 160 618 C142 604 127 585 110 569 C93 551 72 535 57 515 C53 511 51 506 51 500 C51 487 62 476 75 476 L75 476 Z " />
<glyph glyph-name="Scedilla" unicode="&#x15e;" horiz-adv-x="425" d="M39 450 C39 282 339 279 339 150 C339 135 335 119 330 105 C311 49 271 24 213 24 C153 24 109 52 93 111 C90 123 89 150 85 158 C81 168 73 174 63 174 C50 174 39 163 39 150 C39 51 109 -23 211 -24 C224 -26 238 -25 238 -55 L238 -99 C238 -115 229 -126 213 -126 C173 -126 200 -76 163 -76 C150 -76 139 -87 139 -100 C139 -142 170 -174 213 -174 C255 -174 286 -142 286 -100 L286 -50 C286 -37 283 -24 277 -14 C344 10 387 80 387 150 C387 318 87 321 87 450 C87 465 90 481 95 495 C114 551 154 576 213 576 C272 576 316 548 332 490 C336 477 336 450 340 442 C344 432 352 426 363 426 C376 426 387 437 387 450 C387 467 383 483 379 499 C357 580 296 624 213 624 C110 624 39 551 39 450 L39 450 Z " />
<glyph glyph-name="scedilla" unicode="&#x15f;" horiz-adv-x="350" d="M172 -24 C186 -26 201 -24 201 -55 L201 -99 C201 -115 191 -126 175 -126 C135 -126 163 -76 125 -76 C112 -76 101 -87 101 -100 C101 -142 133 -174 175 -174 C217 -174 249 -142 249 -100 L249 -50 C249 -32 243 -16 233 -4 C266 18 287 55 287 100 C287 217 87 222 87 300 C87 345 117 376 163 376 C200 376 228 357 236 319 C238 311 237 299 240 292 C244 283 252 276 263 276 C276 276 287 287 287 300 C287 372 234 424 163 424 C91 424 39 372 39 300 C39 183 239 178 239 100 C239 55 208 24 163 24 C125 24 97 43 89 81 C88 89 88 101 85 108 C81 118 73 124 63 124 C50 124 39 113 39 100 C39 20 96 -24 172 -24 L172 -24 Z " />
<glyph glyph-name="Scaron" unicode="&#x160;" horiz-adv-x="425" d="M339 150 C339 135 335 119 330 105 C311 49 271 24 213 24 C153 24 109 52 93 111 C90 123 89 150 85 158 C81 168 73 174 63 174 C50 174 39 163 39 150 C39 49 110 -24 213 -24 C296 -24 357 20 379 101 C383 117 387 134 387 150 C387 318 87 321 87 450 C87 465 90 481 95 495 C114 551 154 576 213 576 C272 576 316 548 332 490 C336 477 336 450 340 442 C344 432 352 426 363 426 C376 426 387 437 387 450 C387 467 383 483 379 499 C357 580 296 624 213 624 C110 624 39 551 39 450 C39 282 339 279 339 150 L339 150 Z M94 784 C110 764 130 748 148 730 C164 714 179 695 197 681 C201 677 207 675 213 675 C218 675 224 677 228 681 C246 695 261 714 277 730 C295 748 315 764 331 784 C334 788 337 793 337 799 C337 812 325 823 313 823 C307 823 301 821 297 817 C287 810 279 800 270 791 L213 733 L155 791 C146 800 138 810 128 817 C124 821 118 823 113 823 C100 823 89 812 89 799 C89 793 91 788 94 784 L94 784 Z " />
<glyph glyph-name="scaron" unicode="&#x161;" horiz-adv-x="350" d="M239 100 C239 55 208 24 163 24 C125 24 97 43 89 81 C88 89 88 101 85 108 C81 118 73 124 63 124 C50 124 39 113 39 100 C39 28 91 -24 163 -24 C234 -24 287 28 287 100 C287 217 87 222 87 300 C87 345 117 376 163 376 C200 376 228 357 236 319 C238 311 237 299 240 292 C244 283 252 276 263 276 C276 276 287 287 287 300 C287 372 234 424 163 424 C91 424 39 372 39 300 C39 183 239 178 239 100 L239 100 Z M51 600 C51 594 53 589 57 585 C72 565 93 549 110 531 C127 515 142 496 160 482 C164 478 169 476 175 476 C181 476 186 478 190 482 C209 496 224 515 240 531 C258 549 278 565 293 585 C297 589 299 594 299 600 C299 613 288 624 275 624 C269 624 264 622 260 618 C250 611 242 601 233 592 L175 534 L117 592 C108 601 100 611 90 618 C86 622 81 624 75 624 C62 624 51 613 51 600 L51 600 Z " />
<glyph glyph-name="uni0162" unicode="&#x162;" horiz-adv-x="399" d="M26 600 C26 587 37 576 50 576 L176 576 L176 0 C176 -13 187 -24 200 -24 C212 -24 224 -13 224 0 L224 576 L350 576 C362 576 374 587 374 600 C374 613 362 624 350 624 L50 624 C37 624 26 613 26 600 L26 600 Z " />
<glyph glyph-name="uni0163" unicode="&#x163;" horiz-adv-x="275" d="M13 376 L89 376 L89 100 C89 28 141 -24 213 -24 C225 -24 237 -13 237 0 C237 43 178 2 146 61 C142 70 139 79 138 89 C135 107 137 125 137 143 C137 221 137 298 137 376 L213 376 C225 376 237 387 237 400 C237 413 225 424 213 424 L137 424 C137 459 136 505 135 508 C131 518 123 524 113 524 C100 524 89 513 89 500 L89 424 L13 424 C0 424 -12 413 -12 400 C-12 387 0 376 13 376 L13 376 Z " />
<glyph glyph-name="Tcaron" unicode="&#x164;" horiz-adv-x="399" d="M26 600 C26 587 37 576 50 576 L176 576 L176 0 C176 -13 187 -24 200 -24 C212 -24 224 -13 224 0 L224 576 L350 576 C362 576 374 587 374 600 C374 613 362 624 350 624 L50 624 C37 624 26 613 26 600 L26 600 Z M76 799 C76 793 78 788 81 784 C97 764 117 748 135 730 C151 714 166 695 184 681 C188 677 194 675 200 675 C205 675 211 677 215 681 C233 695 248 714 264 730 C282 748 302 764 318 784 C321 788 324 793 324 799 C324 812 312 823 300 823 C294 823 288 821 284 817 C274 810 266 800 257 791 L200 733 L142 791 C133 800 125 810 115 817 C111 821 105 823 100 823 C87 823 76 812 76 799 L76 799 Z " />
<glyph glyph-name="tcaron" unicode="&#x165;" horiz-adv-x="375" d="M-12 400 C-12 387 0 376 13 376 L89 376 L89 100 C89 28 141 -24 213 -24 C225 -24 237 -13 237 0 C237 43 178 2 146 61 C142 70 139 79 138 89 C135 107 137 125 137 143 C137 221 137 298 137 376 L213 376 C225 376 237 387 237 400 C237 413 225 424 213 424 L137 424 C137 459 136 505 135 508 C131 518 123 524 113 524 C100 524 89 513 89 500 L89 424 L13 424 C0 424 -12 413 -12 400 L-12 400 Z M189 600 C189 556 254 600 282 533 C289 515 289 491 289 472 C289 451 288 430 288 409 C288 393 293 376 313 376 C325 376 337 387 337 400 L337 500 C337 572 284 624 213 624 C200 624 189 613 189 600 L189 600 Z " />
<glyph glyph-name="Tbar" unicode="&#x166;" horiz-adv-x="399" d="M26 600 C26 587 37 576 50 576 L176 576 L176 0 C176 -13 187 -24 200 -24 C212 -24 224 -13 224 0 L224 576 L350 576 C362 576 374 587 374 600 C374 613 362 624 350 624 L50 624 C37 624 26 613 26 600 L26 600 Z M76 749 C76 736 87 725 100 725 L299 725 C312 725 323 736 323 749 C323 762 312 773 299 773 L100 773 C87 773 76 762 76 749 L76 749 Z " />
<glyph glyph-name="tbar" unicode="&#x167;" horiz-adv-x="275" d="M13 376 L89 376 L89 100 C89 28 141 -24 213 -24 C225 -24 237 -13 237 0 C237 43 178 2 146 61 C142 70 139 79 138 89 C135 107 137 125 137 143 C137 221 137 298 137 376 L213 376 C225 376 237 387 237 400 C237 413 225 424 213 424 L137 424 C137 459 136 505 135 508 C131 518 123 524 113 524 C100 524 89 513 89 500 L89 424 L13 424 C0 424 -12 413 -12 400 C-12 387 0 376 13 376 L13 376 Z M-11 550 C-11 537 0 526 13 526 L212 526 C225 526 236 537 236 550 C236 563 225 574 212 574 L13 574 C0 574 -11 563 -11 550 L-11 550 Z " />
<glyph glyph-name="Utilde" unicode="&#x168;" horiz-adv-x="450" d="M39 600 L39 150 C39 49 110 -24 213 -24 C296 -24 357 20 379 101 C383 117 387 134 387 150 L387 600 C387 613 375 624 363 624 C334 624 339 593 339 573 C339 437 339 300 339 163 C339 82 297 24 213 24 C137 24 92 71 87 145 C86 161 87 176 87 192 L87 588 C87 606 84 624 63 624 C50 624 39 613 39 600 L39 600 Z M101 723 C101 710 112 699 125 699 C163 699 135 749 175 749 C208 749 218 699 275 699 C317 699 349 731 349 773 C349 786 338 797 325 797 C288 797 315 747 275 747 C242 747 232 797 175 797 C133 797 101 765 101 723 L101 723 Z " />
<glyph glyph-name="utilde" unicode="&#x169;" horiz-adv-x="350" d="M39 100 C39 28 91 -24 163 -24 L263 -24 C275 -24 287 -13 287 0 L287 400 C287 413 275 424 263 424 C250 424 239 413 239 400 L239 24 C217 25 191 24 183 24 C105 24 86 50 86 127 C86 212 87 296 87 381 C87 399 88 424 63 424 C50 424 39 413 39 400 L39 100 Z M51 524 C51 511 62 500 75 500 C113 500 85 550 125 550 C158 550 168 500 225 500 C267 500 299 532 299 574 C299 587 288 598 275 598 C238 598 265 548 225 548 C192 548 182 598 125 598 C83 598 51 566 51 524 L51 524 Z " />
<glyph glyph-name="Umacron" unicode="&#x16a;" horiz-adv-x="450" d="M213 -24 C296 -24 357 20 379 101 C383 117 387 134 387 150 L387 600 C387 613 375 624 363 624 C334 624 339 593 339 573 C339 437 339 300 339 163 C339 82 297 24 213 24 C137 24 92 71 87 145 C86 161 87 176 87 192 L87 588 C87 606 84 624 63 624 C50 624 39 613 39 600 L39 150 C39 49 110 -24 213 -24 L213 -24 Z M125 725 L325 725 C338 725 349 736 349 749 C349 762 338 773 325 773 L125 773 C112 773 101 762 101 749 C101 736 112 725 125 725 L125 725 Z " />
<glyph glyph-name="umacron" unicode="&#x16b;" horiz-adv-x="350" d="M39 400 L39 100 C39 28 91 -24 163 -24 L263 -24 C275 -24 287 -13 287 0 L287 400 C287 413 275 424 263 424 C250 424 239 413 239 400 L239 24 C217 25 191 24 183 24 C105 24 86 50 86 127 C86 212 87 296 87 381 C87 399 88 424 63 424 C50 424 39 413 39 400 L39 400 Z M51 550 C51 537 62 526 75 526 L275 526 C288 526 299 537 299 550 C299 563 288 574 275 574 L75 574 C62 574 51 563 51 550 L51 550 Z " />
<glyph glyph-name="Ubreve" unicode="&#x16c;" horiz-adv-x="450" d="M39 600 L39 150 C39 49 110 -24 213 -24 C296 -24 357 20 379 101 C383 117 387 134 387 150 L387 600 C387 613 375 624 363 624 C334 624 339 593 339 573 C339 437 339 300 339 163 C339 82 297 24 213 24 C137 24 92 71 87 145 C86 161 87 176 87 192 L87 588 C87 606 84 624 63 624 C50 624 39 613 39 600 L39 600 Z M225 675 C297 675 349 727 349 799 C349 812 338 823 325 823 C315 823 306 816 302 807 C299 799 300 789 298 780 C290 742 263 723 225 723 C187 723 160 742 152 780 C150 789 151 799 148 807 C144 816 135 823 125 823 C112 823 101 812 101 799 C101 727 153 675 225 675 L225 675 Z " />
<glyph glyph-name="ubreve" unicode="&#x16d;" horiz-adv-x="350" d="M39 400 L39 100 C39 28 91 -24 163 -24 L263 -24 C275 -24 287 -13 287 0 L287 400 C287 413 275 424 263 424 C250 424 239 413 239 400 L239 24 C217 25 191 24 183 24 C105 24 86 50 86 127 C86 212 87 296 87 381 C87 399 88 424 63 424 C50 424 39 413 39 400 L39 400 Z M51 600 C51 528 103 476 175 476 C247 476 299 528 299 600 C299 613 288 624 275 624 C265 624 256 617 252 608 C249 600 250 590 248 581 C240 543 213 524 175 524 C137 524 110 543 102 581 C100 590 101 600 98 608 C94 617 85 624 75 624 C62 624 51 613 51 600 L51 600 Z " />
<glyph glyph-name="Uring" unicode="&#x16e;" horiz-adv-x="450" d="M39 600 L39 150 C39 49 110 -24 213 -24 C296 -24 357 20 379 101 C383 117 387 134 387 150 L387 600 C387 613 375 624 363 624 C334 624 339 593 339 573 C339 437 339 300 339 163 C339 82 297 24 213 24 C137 24 92 71 87 145 C86 161 87 176 87 192 L87 588 C87 606 84 624 63 624 C50 624 39 613 39 600 L39 600 Z M225 625 C282 625 324 667 324 724 C324 781 282 823 225 823 C168 823 126 781 126 724 C126 667 168 625 225 625 L225 625 Z M174 724 C174 755 195 775 225 775 C269 775 271 746 276 724 C271 702 269 673 225 673 C195 673 174 694 174 724 L174 724 Z " />
<glyph glyph-name="uring" unicode="&#x16f;" horiz-adv-x="350" d="M163 -24 L263 -24 C275 -24 287 -13 287 0 L287 400 C287 413 275 424 263 424 C250 424 239 413 239 400 L239 24 C217 25 191 24 183 24 C105 24 86 50 86 127 C86 212 87 296 87 381 C87 399 88 424 63 424 C50 424 39 413 39 400 L39 100 C39 28 91 -24 163 -24 L163 -24 Z M163 426 C220 426 262 468 262 525 C262 582 220 624 163 624 C106 624 64 582 64 525 C64 468 106 426 163 426 L163 426 Z M112 525 C112 556 133 576 163 576 C207 576 209 547 214 525 C209 503 207 474 163 474 C132 474 112 495 112 525 L112 525 Z " />
<glyph glyph-name="Uhungarumlaut" unicode="&#x170;" horiz-adv-x="450" d="M39 150 C39 49 110 -24 213 -24 C296 -24 357 20 379 101 C383 117 387 134 387 150 L387 600 C387 613 375 624 363 624 C334 624 339 593 339 573 C339 437 339 300 339 163 C339 82 297 24 213 24 C137 24 92 71 87 145 C86 161 87 176 87 192 L87 588 C87 606 84 624 63 624 C50 624 39 613 39 600 L39 150 Z M263 675 C270 675 276 678 281 684 C284 687 337 790 337 799 C337 812 325 823 313 823 C305 823 299 820 294 814 C292 812 242 714 240 707 C239 705 239 702 239 699 C239 686 250 675 263 675 L263 675 Z M138 675 C145 675 151 678 156 684 C159 687 212 790 212 799 C212 812 200 823 188 823 C180 823 174 820 169 814 C167 812 117 714 115 707 C114 705 114 702 114 699 C114 686 125 675 138 675 L138 675 Z " />
<glyph glyph-name="uhungarumlaut" unicode="&#x171;" horiz-adv-x="350" d="M163 -24 L263 -24 C275 -24 287 -13 287 0 L287 400 C287 413 275 424 263 424 C250 424 239 413 239 400 L239 24 C217 25 191 24 183 24 C105 24 86 50 86 127 C86 212 87 296 87 381 C87 399 88 424 63 424 C50 424 39 413 39 400 L39 100 C39 28 91 -24 163 -24 L163 -24 Z M189 500 C189 487 200 476 213 476 C220 476 226 479 231 485 C234 488 287 591 287 600 C287 613 275 624 263 624 C255 624 249 621 244 615 C242 613 192 515 190 508 C189 506 189 503 189 500 L189 500 Z M88 476 C95 476 101 479 106 485 C109 488 162 591 162 600 C162 613 150 624 138 624 C130 624 124 621 119 615 C117 613 67 515 65 508 C64 506 64 503 64 500 C64 487 75 476 88 476 L88 476 Z " />
<glyph glyph-name="Uogonek" unicode="&#x172;" horiz-adv-x="450" d="M141 -11 C119 -33 106 -64 106 -100 L106 -200 C106 -213 117 -224 130 -224 C149 -224 154 -207 154 -191 C154 -170 153 -149 153 -128 C153 -109 153 -85 160 -68 C177 -27 208 -27 229 -23 C304 -18 358 25 379 101 C383 117 387 134 387 150 L387 600 C387 613 375 624 363 624 C334 624 339 593 339 573 C339 437 339 300 339 163 C339 82 297 24 213 24 C137 24 92 71 87 145 C86 161 87 176 87 192 L87 588 C87 606 84 624 63 624 C50 624 39 613 39 600 L39 150 C39 83 77 14 141 -11 L141 -11 Z " />
<glyph glyph-name="uogonek" unicode="&#x173;" horiz-adv-x="350" d="M39 100 C39 28 91 -24 163 -24 C147 -45 139 -71 139 -100 L139 -200 C139 -213 150 -224 163 -224 C182 -224 187 -207 187 -191 C187 -170 186 -149 186 -128 C186 -70 192 -33 258 -24 L263 -24 C276 -24 287 -13 287 0 L287 400 C287 413 275 424 263 424 C250 424 239 413 239 400 L239 24 C217 25 191 24 183 24 C105 24 86 50 86 127 C86 212 87 296 87 381 C87 399 88 424 63 424 C50 424 39 413 39 400 L39 100 Z " />
<glyph glyph-name="Wcircumflex" unicode="&#x174;" horiz-adv-x="599" d="M55 480 L145 118 C149 102 175 -7 179 -12 C184 -19 190 -24 200 -24 C209 -24 215 -19 220 -12 C226 -5 291 265 300 301 C309 265 373 -5 379 -12 C384 -19 390 -24 400 -24 C409 -24 415 -19 420 -12 C424 -7 450 102 454 118 L544 480 C550 502 574 585 574 600 C574 613 563 624 550 624 C532 624 527 610 524 596 L400 99 C391 135 326 405 320 412 C315 419 309 424 300 424 C290 424 284 419 279 412 C273 405 209 135 200 99 L75 596 C72 610 67 624 50 624 C37 624 26 613 26 600 C26 585 49 502 55 480 L55 480 Z M200 675 C205 675 211 677 215 681 C225 689 233 699 242 707 L300 765 L357 707 C366 699 374 689 384 681 C388 677 394 675 400 675 C412 675 424 686 424 699 C424 705 421 710 418 714 C402 734 382 750 364 768 C348 784 333 803 315 817 C311 821 305 823 300 823 C294 823 289 821 284 817 C266 803 251 784 235 768 C217 750 197 734 181 714 C178 710 176 705 176 699 C176 686 187 675 200 675 L200 675 Z " />
<glyph glyph-name="wcircumflex" unicode="&#x175;" horiz-adv-x="525" d="M39 400 C39 386 59 316 64 297 L139 -3 C142 -15 149 -24 163 -24 C170 -24 176 -21 181 -15 C190 -6 251 123 263 146 C274 123 335 -6 344 -15 C349 -21 355 -24 363 -24 C376 -24 384 -15 387 -3 L461 297 C466 316 487 386 487 400 C487 413 475 424 463 424 C454 424 447 419 442 412 C438 406 420 327 416 313 L355 69 C344 90 289 207 281 215 C276 221 270 224 263 224 C255 224 249 221 244 215 C236 207 181 90 170 69 L109 313 C105 327 87 406 83 412 C79 419 72 424 63 424 C50 424 39 413 39 400 L39 400 Z M139 500 C139 487 150 476 163 476 C168 476 174 478 178 482 C188 490 196 500 205 508 L263 566 L320 508 C329 500 337 490 347 482 C351 478 357 476 363 476 C375 476 387 487 387 500 C387 506 384 511 381 515 C365 535 345 551 327 569 C311 585 296 604 278 618 C274 622 268 624 263 624 C257 624 252 622 247 618 C229 604 214 585 198 569 C180 551 160 535 144 515 C141 511 139 506 139 500 L139 500 Z " />
<glyph glyph-name="Ycircumflex" unicode="&#x176;" horiz-adv-x="399" d="M26 600 C26 596 27 592 29 588 C33 580 143 434 176 393 L176 0 C176 -13 187 -24 200 -24 C212 -24 224 -13 224 0 L223 393 C242 417 374 583 374 600 C374 613 362 624 350 624 C344 624 339 622 334 618 C329 614 303 577 296 569 L200 440 L103 569 C97 577 71 614 65 618 C60 622 56 624 50 624 C37 624 26 613 26 600 L26 600 Z M100 675 C105 675 111 677 115 681 C125 689 133 699 142 707 L200 765 L257 707 C266 699 274 689 284 681 C288 677 294 675 300 675 C312 675 324 686 324 699 C324 705 321 710 318 714 C302 734 282 750 264 768 C248 784 233 803 215 817 C211 821 205 823 200 823 C194 823 188 821 184 817 C166 803 151 784 135 768 C117 750 97 734 81 714 C78 710 76 705 76 699 C76 686 87 675 100 675 L100 675 Z " />
<glyph glyph-name="ycircumflex" unicode="&#x177;" horiz-adv-x="325" d="M64 296 L138 0 L118 -80 C112 -102 88 -185 88 -200 C88 -213 100 -224 112 -224 C122 -224 128 -219 133 -212 C138 -206 162 -99 167 -82 L257 279 C262 301 286 384 286 400 C286 413 275 424 262 424 C253 424 246 419 242 412 C237 405 213 299 208 281 L162 99 C162 100 162 102 161 103 L87 402 C84 414 76 424 63 424 C50 424 39 413 39 400 C39 386 59 315 64 296 L64 296 Z M62 476 C68 476 74 478 78 482 C88 490 96 500 105 508 L162 566 L220 508 C229 500 237 490 247 482 C251 478 257 476 262 476 C275 476 286 487 286 500 C286 506 284 511 281 515 C265 535 245 551 227 569 C211 585 196 604 178 618 C174 622 168 624 162 624 C157 624 151 622 147 618 C129 604 114 585 98 569 C80 551 60 535 44 515 C41 511 38 506 38 500 C38 487 50 476 62 476 L62 476 Z " />
<glyph glyph-name="Ydieresis" unicode="&#x178;" horiz-adv-x="399" d="M26 600 C26 596 27 592 29 588 C33 580 143 434 176 393 L176 0 C176 -13 187 -24 200 -24 C212 -24 224 -13 224 0 L223 393 C242 417 374 583 374 600 C374 613 362 624 350 624 C344 624 339 622 334 618 C329 614 303 577 296 569 L200 440 L103 569 C97 577 71 614 65 618 C60 622 56 624 50 624 C37 624 26 613 26 600 L26 600 Z M251 749 C251 736 262 725 275 725 C287 725 299 736 299 749 L299 799 C299 812 287 823 275 823 C262 823 251 812 251 799 L251 749 Z M125 725 C138 725 149 736 149 749 L149 799 C149 812 138 823 125 823 C112 823 101 812 101 799 L101 749 C101 736 112 725 125 725 L125 725 Z " />
<glyph glyph-name="Zacute" unicode="&#x179;" horiz-adv-x="425" d="M63 -24 L363 -24 C375 -24 387 -13 387 0 C387 11 380 18 371 23 C363 26 133 24 101 24 L356 533 C363 547 387 586 387 600 C387 613 375 624 363 624 L63 624 C50 624 39 613 39 600 C39 589 45 582 54 577 C62 574 292 576 324 576 L69 67 C62 53 39 14 39 0 C39 -13 50 -24 63 -24 L63 -24 Z M164 699 C164 686 175 675 188 675 C195 675 201 678 206 684 C209 687 262 790 262 799 C262 812 250 823 238 823 C230 823 224 820 219 814 C217 812 167 714 165 707 C164 705 164 702 164 699 L164 699 Z " />
<glyph glyph-name="zacute" unicode="&#x17a;" horiz-adv-x="325" d="M54 377 C62 374 201 376 224 376 L99 126 C98 125 39 13 39 0 C39 -13 50 -24 63 -24 L263 -24 C275 -24 287 -13 287 0 C287 10 280 19 271 23 C263 26 124 24 101 24 L226 274 C227 275 287 387 287 400 C287 413 275 424 263 424 L63 424 C50 424 39 413 39 400 C39 390 45 381 54 377 L54 377 Z M138 476 C145 476 151 479 156 485 C159 488 212 591 212 600 C212 613 200 624 188 624 C180 624 174 621 169 615 C167 613 117 515 115 508 C114 506 114 503 114 500 C114 487 125 476 138 476 L138 476 Z " />
<glyph glyph-name="Zdotaccent" unicode="&#x17b;" horiz-adv-x="425" d="M39 0 C39 -13 50 -24 63 -24 L363 -24 C375 -24 387 -13 387 0 C387 11 380 18 371 23 C363 26 133 24 101 24 L356 533 C363 547 387 586 387 600 C387 613 375 624 363 624 L63 624 C50 624 39 613 39 600 C39 589 45 582 54 577 C62 574 292 576 324 576 L69 67 C62 53 39 14 39 0 L39 0 Z M189 749 C189 736 200 725 213 725 C225 725 237 736 237 749 L237 799 C237 812 225 823 213 823 C200 823 189 812 189 799 L189 749 Z " />
<glyph glyph-name="zdotaccent" unicode="&#x17c;" horiz-adv-x="325" d="M54 377 C62 374 201 376 224 376 L99 126 C98 125 39 13 39 0 C39 -13 50 -24 63 -24 L263 -24 C275 -24 287 -13 287 0 C287 10 280 19 271 23 C263 26 124 24 101 24 L226 274 C227 275 287 387 287 400 C287 413 275 424 263 424 L63 424 C50 424 39 413 39 400 C39 390 45 381 54 377 L54 377 Z M139 550 C139 537 150 526 163 526 C175 526 187 537 187 550 L187 600 C187 613 175 624 163 624 C150 624 139 613 139 600 L139 550 Z " />
<glyph glyph-name="Zcaron" unicode="&#x17d;" horiz-adv-x="425" d="M63 -24 L363 -24 C375 -24 387 -13 387 0 C387 11 380 18 371 23 C363 26 133 24 101 24 L356 533 C363 547 387 586 387 600 C387 613 375 624 363 624 L63 624 C50 624 39 613 39 600 C39 589 45 582 54 577 C62 574 292 576 324 576 L69 67 C62 53 39 14 39 0 C39 -13 50 -24 63 -24 L63 -24 Z M94 784 C110 764 130 748 148 730 C164 714 179 695 197 681 C201 677 207 675 213 675 C218 675 224 677 228 681 C246 695 261 714 277 730 C295 748 315 764 331 784 C334 788 337 793 337 799 C337 812 325 823 313 823 C307 823 301 821 297 817 C287 810 279 800 270 791 L213 733 L155 791 C146 800 138 810 128 817 C124 821 118 823 113 823 C100 823 89 812 89 799 C89 793 91 788 94 784 L94 784 Z " />
<glyph glyph-name="zcaron" unicode="&#x17e;" horiz-adv-x="325" d="M54 377 C62 374 201 376 224 376 L99 126 C98 125 39 13 39 0 C39 -13 50 -24 63 -24 L263 -24 C275 -24 287 -13 287 0 C287 10 280 19 271 23 C263 26 124 24 101 24 L226 274 C227 275 287 387 287 400 C287 413 275 424 263 424 L63 424 C50 424 39 413 39 400 C39 390 45 381 54 377 L54 377 Z M44 585 C60 565 80 549 98 531 C114 515 129 496 147 482 C151 478 157 476 163 476 C168 476 174 478 178 482 C196 496 211 515 227 531 C245 549 265 565 281 585 C284 589 287 594 287 600 C287 613 275 624 263 624 C257 624 251 622 247 618 C237 611 229 601 220 592 L163 534 L105 592 C96 601 88 611 78 618 C74 622 68 624 63 624 C50 624 39 613 39 600 C39 594 41 589 44 585 L44 585 Z " />
<glyph glyph-name="longs" unicode="&#x17f;" horiz-adv-x="225" d="M63 -24 C73 -24 81 -18 85 -8 C87 -4 87 110 87 121 C87 240 86 359 86 478 C86 496 87 515 93 533 C121 600 187 556 187 600 C187 613 175 624 163 624 C91 624 39 572 39 500 L39 0 C39 -13 50 -24 63 -24 L63 -24 Z " />
<glyph glyph-name="florin" unicode="&#x192;" horiz-adv-x="300" d="M63 376 L138 376 C138 222 139 68 139 -85 C139 -103 137 -123 129 -139 C97 -198 39 -157 39 -200 C39 -213 50 -224 63 -224 C116 -224 157 -199 177 -149 C187 -123 188 -80 188 -52 C188 91 187 233 186 376 L263 376 C275 376 287 387 287 400 C287 413 275 424 263 424 L186 424 C186 444 186 465 186 485 C186 503 188 523 196 539 C228 598 287 557 287 600 C287 613 275 624 263 624 C209 624 168 599 148 549 C138 523 138 480 138 452 C138 443 138 433 138 424 L63 424 C50 424 39 413 39 400 C39 387 50 376 63 376 L63 376 Z " />
<glyph glyph-name="Aringacute" unicode="&#x1fa;" horiz-adv-x="425" d="M39 0 C39 -13 50 -24 63 -24 C71 -24 79 -19 83 -12 C89 -3 92 10 96 20 L117 76 L308 76 L329 20 C333 10 336 -3 342 -12 C347 -19 354 -24 363 -24 C376 -24 387 -13 387 0 C387 7 251 374 236 407 C231 417 225 424 213 424 C200 424 194 417 189 407 C174 374 39 7 39 0 L39 0 Z M214 426 C270 426 313 468 313 525 C313 582 270 624 214 624 C157 624 115 582 115 525 C115 468 157 426 214 426 L214 426 Z M135 124 L213 332 L290 124 L135 124 Z M214 576 C257 576 259 547 265 525 C259 503 257 474 214 474 C183 474 163 495 163 525 C163 556 183 576 214 576 L214 576 Z M204 675 C212 675 218 678 223 684 C229 690 278 787 278 799 C278 812 267 823 254 823 C247 823 241 820 236 814 C234 812 184 714 182 707 C181 705 180 702 180 699 C180 686 191 675 204 675 L204 675 Z " />
<glyph glyph-name="aringacute" unicode="&#x1fb;" horiz-adv-x="351" d="M52 101 C52 29 104 -24 176 -24 C189 -24 200 -13 200 0 C200 30 168 23 150 27 C119 36 100 69 100 101 C100 129 114 157 140 169 C161 179 218 177 252 176 C252 124 251 72 251 20 C251 2 250 -24 276 -24 C289 -24 300 -13 300 0 L300 195 C300 197 300 198 300 200 C300 201 300 203 300 204 L300 301 C300 372 248 424 176 424 L113 424 C100 424 89 413 89 400 C89 367 142 376 164 376 C236 376 253 344 253 276 C253 258 253 241 252 224 L176 224 C104 224 52 172 52 101 L52 101 Z M163 426 C219 426 262 468 262 525 C262 582 219 624 163 624 C106 624 64 582 64 525 C64 468 106 426 163 426 L163 426 Z M112 525 C112 556 132 576 163 576 C206 576 208 547 214 525 C208 503 206 474 163 474 C132 474 112 495 112 525 L112 525 Z M127 700 C127 687 138 676 151 676 C158 676 164 679 169 685 C172 688 225 791 225 800 C225 813 213 824 201 824 C193 824 187 821 182 815 C180 813 130 715 128 708 C127 706 127 703 127 700 L127 700 Z " />
<glyph glyph-name="AEacute" unicode="&#x1fc;" horiz-adv-x="537" d="M50 -24 C59 -24 65 -19 70 -12 C73 -8 85 40 94 77 C96 76 98 76 100 76 L250 76 C257 76 264 80 268 85 C271 70 274 54 277 38 C281 0 313 -24 350 -24 L450 -24 C462 -24 474 -13 474 0 C474 24 450 25 432 25 C410 25 388 23 365 23 C351 23 336 22 327 35 C323 42 305 157 301 175 L265 376 L400 376 C412 376 424 387 424 400 C424 413 412 424 400 424 L256 424 L228 576 C272 576 315 576 358 576 C368 576 453 575 458 577 C467 582 474 589 474 600 C474 613 462 624 450 624 L200 624 C191 624 181 618 178 610 C177 608 176 606 176 604 C168 578 149 497 145 482 L55 120 C49 98 26 15 26 0 C26 -13 37 -24 50 -24 L50 -24 Z M105 124 L194 480 C195 481 195 484 196 486 L205 434 C224 329 243 225 262 120 C258 123 254 124 250 124 L105 124 Z M220 699 C220 686 231 675 244 675 C251 675 257 678 262 684 C265 687 318 790 318 799 C318 812 306 823 294 823 C286 823 280 820 275 814 C273 812 223 714 221 707 C220 705 220 702 220 699 L220 699 Z " />
<glyph glyph-name="aeacute" unicode="&#x1fd;" horiz-adv-x="525" d="M39 100 C39 28 91 -24 163 -24 C175 -24 187 -13 187 0 C187 29 155 22 137 27 C105 36 87 68 87 100 C87 113 91 130 98 141 C118 178 153 177 190 177 C206 177 222 176 238 176 L238 115 C238 112 238 108 239 105 L239 100 C239 28 291 -24 363 -24 L400 -24 C413 -24 424 -13 424 0 C424 28 394 24 374 24 C343 24 316 28 298 57 C291 70 287 86 287 100 L287 300 C287 345 317 376 363 376 C408 376 439 345 439 300 L439 224 C424 224 410 224 395 224 C376 224 339 230 339 200 C339 187 350 176 363 176 L463 176 C475 176 487 187 487 200 L487 300 C487 372 434 424 363 424 C320 424 285 406 263 376 C240 406 205 424 163 424 L100 424 C87 424 76 413 76 400 C76 366 129 377 151 377 C203 377 234 357 238 303 C238 302 238 302 239 300 L239 250 L238 224 L163 224 C91 224 39 172 39 100 L39 100 Z M238 476 C245 476 251 479 256 485 C259 488 312 591 312 600 C312 613 300 624 288 624 C280 624 274 621 269 615 C267 613 217 515 215 508 C214 506 214 503 214 500 C214 487 225 476 238 476 L238 476 Z " />
<glyph glyph-name="Oslashacute" unicode="&#x1fe;" horiz-adv-x="450" d="M39 150 C39 93 66 33 115 2 C103 -41 89 -91 89 -100 C89 -113 100 -124 113 -124 C122 -124 128 -119 133 -112 C136 -108 149 -62 161 -18 C177 -22 194 -24 213 -24 C296 -24 357 20 379 101 C383 117 387 134 387 150 L387 450 C387 497 364 552 330 583 C343 627 362 690 362 700 C362 713 350 724 338 724 C328 724 322 719 317 712 C314 708 299 657 287 610 C265 619 240 624 213 624 C110 624 39 551 39 450 L39 150 Z M87 150 L87 450 C87 502 118 556 170 571 C181 574 200 574 213 575 C225 574 244 574 255 571 C262 569 268 566 274 563 C270 551 268 541 267 536 L132 58 C131 56 131 53 130 51 C103 75 87 114 87 150 L87 150 Z M174 28 C178 45 182 58 183 64 L314 528 C330 505 339 477 339 450 L339 150 C339 135 335 119 330 105 C311 49 271 24 213 24 C199 24 186 25 174 28 L174 28 Z M200 675 C207 675 214 678 218 684 C221 686 270 784 273 791 C273 794 274 796 274 799 C274 812 263 823 250 823 C243 823 236 820 232 814 C229 812 180 714 178 707 C177 705 176 702 176 699 C176 686 187 675 200 675 L200 675 Z " />
<glyph glyph-name="oslashacute" unicode="&#x1ff;" horiz-adv-x="350" d="M50 -74 C57 -74 64 -71 69 -65 C72 -61 85 -33 96 -7 C115 -18 138 -24 163 -24 C234 -24 287 28 287 100 L287 300 C287 327 279 352 266 371 L279 401 C284 412 299 439 299 450 C299 463 288 474 275 474 C268 474 261 471 256 465 C253 462 240 433 228 407 C210 418 187 424 163 424 C91 424 39 372 39 300 L39 100 C39 73 46 49 59 29 L46 -1 C41 -12 26 -39 26 -50 C26 -63 37 -74 50 -74 L50 -74 Z M118 42 L238 310 C238 306 239 303 239 300 L239 100 C239 55 208 24 163 24 C144 24 128 29 116 38 C117 40 117 41 118 42 L118 42 Z M87 91 C87 94 87 97 87 100 L87 300 C87 331 105 364 137 373 C144 375 154 375 163 376 C171 375 181 375 188 373 C196 371 203 367 209 362 C208 361 208 359 207 358 L87 91 Z M150 476 C157 476 164 479 168 485 C171 487 220 585 223 592 C223 595 224 597 224 600 C224 613 213 624 200 624 C193 624 186 621 182 615 C179 613 130 515 128 508 C127 506 126 503 126 500 C126 487 137 476 150 476 L150 476 Z " />
<glyph glyph-name="uni0218" unicode="&#x218;" horiz-adv-x="425" d="M339 150 C339 135 335 119 330 105 C311 49 271 24 213 24 C153 24 109 52 93 111 C90 123 89 150 85 158 C81 168 73 174 63 174 C50 174 39 163 39 150 C39 49 110 -24 213 -24 C296 -24 357 20 379 101 C383 117 387 134 387 150 C387 318 87 321 87 450 C87 465 90 481 95 495 C114 551 154 576 213 576 C272 576 316 548 332 490 C336 477 336 450 340 442 C344 432 352 426 363 426 C376 426 387 437 387 450 C387 467 383 483 379 499 C357 580 296 624 213 624 C110 624 39 551 39 450 C39 282 339 279 339 150 L339 150 Z " />
<glyph glyph-name="uni0219" unicode="&#x219;" horiz-adv-x="350" d="M39 100 C39 28 91 -24 163 -24 C234 -24 287 28 287 100 C287 217 87 222 87 300 C87 345 117 376 163 376 C200 376 228 357 236 319 C238 311 237 299 240 292 C244 283 252 276 263 276 C276 276 287 287 287 300 C287 372 234 424 163 424 C91 424 39 372 39 300 C39 183 239 178 239 100 C239 55 208 24 163 24 C125 24 97 43 89 81 C88 89 88 101 85 108 C81 118 73 124 63 124 C50 124 39 113 39 100 L39 100 Z " />
<glyph glyph-name="uni021A" unicode="&#x21a;" horiz-adv-x="399" d="M26 600 C26 587 37 576 50 576 L176 576 L176 0 C176 -13 187 -24 200 -24 C212 -24 224 -13 224 0 L224 576 L350 576 C362 576 374 587 374 600 C374 613 362 624 350 624 L50 624 C37 624 26 613 26 600 L26 600 Z " />
<glyph glyph-name="uni021B" unicode="&#x21b;" horiz-adv-x="275" d="M13 376 L89 376 L89 100 C89 28 141 -24 213 -24 C225 -24 237 -13 237 0 C237 43 178 2 146 61 C142 70 139 79 138 89 C135 107 137 125 137 143 C137 221 137 298 137 376 L213 376 C225 376 237 387 237 400 C237 413 225 424 213 424 L137 424 C137 459 136 505 135 508 C131 518 123 524 113 524 C100 524 89 513 89 500 L89 424 L13 424 C0 424 -12 413 -12 400 C-12 387 0 376 13 376 L13 376 Z " />
<glyph glyph-name="uni0237" unicode="&#x237;" horiz-adv-x="225" d="M14 -200 C14 -213 25 -224 38 -224 C109 -224 162 -172 162 -100 L162 400 C162 413 150 424 138 424 C127 424 119 418 115 408 C113 404 113 291 113 279 C113 160 114 41 114 -78 C114 -96 114 -115 107 -133 C79 -200 14 -156 14 -200 L14 -200 Z " />
<glyph glyph-name="circumflex" unicode="&#x2c6;" horiz-adv-x="275" d="M14 500 C14 487 25 476 38 476 C43 476 49 478 53 482 C63 490 71 500 80 508 L138 566 L195 508 C204 500 212 490 222 482 C226 478 232 476 238 476 C250 476 262 487 262 500 C262 506 259 511 256 515 C240 535 220 551 202 569 C186 585 171 604 153 618 C149 622 143 624 138 624 C132 624 126 622 122 618 C104 604 89 585 73 569 C55 551 35 535 19 515 C16 511 14 506 14 500 L14 500 Z " />
<glyph glyph-name="caron" unicode="&#x2c7;" horiz-adv-x="275" d="M14 600 C14 594 16 589 19 585 C35 565 55 549 73 531 C89 515 104 496 122 482 C126 478 132 476 138 476 C143 476 149 478 153 482 C171 496 186 515 202 531 C220 549 240 565 256 585 C259 589 262 594 262 600 C262 613 250 624 238 624 C232 624 226 622 222 618 C212 611 204 601 195 592 L138 534 L80 592 C71 601 63 611 53 618 C49 622 43 624 38 624 C25 624 14 613 14 600 L14 600 Z " />
<glyph glyph-name="uni02C9" unicode="&#x2c9;" horiz-adv-x="275" d="M38 526 L238 526 C250 526 262 537 262 550 C262 563 250 574 238 574 L38 574 C25 574 14 563 14 550 C14 537 25 526 38 526 L38 526 Z " />
<glyph glyph-name="breve" unicode="&#x2d8;" horiz-adv-x="275" d="M14 600 C14 528 66 476 138 476 C209 476 262 528 262 600 C262 613 250 624 238 624 C228 624 218 617 215 608 C212 600 213 590 211 581 C203 543 175 524 138 524 C100 524 72 543 64 581 C62 590 63 600 60 608 C57 617 47 624 38 624 C25 624 14 613 14 600 L14 600 Z " />
<glyph glyph-name="dotaccent" unicode="&#x2d9;" horiz-adv-x="75" d="M14 550 C14 537 25 526 38 526 C50 526 62 537 62 550 L62 600 C62 613 50 624 38 624 C25 624 14 613 14 600 L14 550 Z " />
<glyph glyph-name="ring" unicode="&#x2da;" horiz-adv-x="225" d="M14 525 C14 468 56 426 113 426 C169 426 212 468 212 525 C212 582 169 624 113 624 C56 624 14 582 14 525 L14 525 Z M62 525 C62 556 82 576 113 576 C156 576 158 547 164 525 C158 503 156 474 113 474 C82 474 62 495 62 525 L62 525 Z " />
<glyph glyph-name="ogonek" unicode="&#x2db;" horiz-adv-x="175" d="M38 -224 C57 -224 62 -207 62 -191 C62 -170 61 -149 61 -128 C61 -109 61 -85 68 -68 C96 0 162 -44 162 0 C162 13 150 24 138 24 C66 24 14 -28 14 -100 L14 -200 C14 -213 25 -224 38 -224 L38 -224 Z " />
<glyph glyph-name="tilde" unicode="&#x2dc;" horiz-adv-x="275" d="M14 524 C14 511 25 500 38 500 C75 500 48 550 88 550 C120 550 131 500 188 500 C230 500 261 532 261 574 C261 587 250 598 237 598 C200 598 227 548 188 548 C155 548 144 598 88 598 C45 598 14 566 14 524 L14 524 Z " />
<glyph glyph-name="hungarumlaut" unicode="&#x2dd;" horiz-adv-x="250" d="M14 500 C14 487 25 476 38 476 C45 476 51 479 56 485 C59 488 112 591 112 600 C112 613 100 624 88 624 C80 624 74 621 69 615 C67 613 17 515 15 508 C14 506 14 503 14 500 L14 500 Z M163 476 C170 476 176 479 181 485 C184 488 237 591 237 600 C237 613 225 624 213 624 C205 624 199 621 194 615 C192 613 142 515 140 508 C139 506 139 503 139 500 C139 487 150 476 163 476 L163 476 Z " />
<glyph glyph-name="acutecomb" unicode="&#x301;" horiz-adv-x="125" d="M14 500 C14 487 25 476 38 476 C45 476 51 479 56 485 C59 488 112 591 112 600 C112 613 100 624 88 624 C80 624 74 621 69 615 C67 613 17 515 15 508 C14 506 14 503 14 500 L14 500 Z " />
<glyph glyph-name="uni0302" unicode="&#x302;" horiz-adv-x="275" d="M14 500 C14 487 25 476 38 476 C43 476 49 478 53 482 C63 490 71 500 80 508 L138 566 L195 508 C204 500 212 490 222 482 C226 478 232 476 238 476 C250 476 262 487 262 500 C262 506 259 511 256 515 C240 535 220 551 202 569 C186 585 171 604 153 618 C149 622 143 624 138 624 C132 624 126 622 122 618 C104 604 89 585 73 569 C55 551 35 535 19 515 C16 511 14 506 14 500 L14 500 Z " />
<glyph glyph-name="tildecomb" unicode="&#x303;" horiz-adv-x="275" d="M14 524 C14 511 25 500 38 500 C75 500 48 550 88 550 C120 550 131 500 188 500 C230 500 261 532 261 574 C261 587 250 598 237 598 C200 598 227 548 188 548 C155 548 144 598 88 598 C45 598 14 566 14 524 L14 524 Z " />
<glyph glyph-name="uni0304" unicode="&#x304;" horiz-adv-x="275" d="M14 550 C14 537 25 526 38 526 L237 526 C250 526 261 537 261 550 C261 563 250 574 237 574 L38 574 C25 574 14 563 14 550 L14 550 Z " />
<glyph glyph-name="uni0306" unicode="&#x306;" horiz-adv-x="275" d="M14 600 C14 528 66 476 138 476 C209 476 262 528 262 600 C262 613 250 624 238 624 C228 624 218 617 215 608 C212 600 213 590 211 581 C203 543 175 524 138 524 C100 524 72 543 64 581 C62 590 63 600 60 608 C57 617 47 624 38 624 C25 624 14 613 14 600 L14 600 Z " />
<glyph glyph-name="uni0307" unicode="&#x307;" horiz-adv-x="75" d="M14 550 C14 537 25 526 38 526 C50 526 62 537 62 550 L62 600 C62 613 50 624 38 624 C25 624 14 613 14 600 L14 550 Z " />
<glyph glyph-name="uni0308" unicode="&#x308;" horiz-adv-x="225" d="M188 526 C200 526 212 537 212 550 L212 600 C212 613 200 624 188 624 C175 624 164 613 164 600 L164 550 C164 537 175 526 188 526 L188 526 Z M14 550 C14 537 25 526 38 526 C50 526 62 537 62 550 L62 600 C62 613 50 624 38 624 C25 624 14 613 14 600 L14 550 Z " />
<glyph glyph-name="uni030A" unicode="&#x30a;" horiz-adv-x="225" d="M14 525 C14 468 56 426 113 426 C169 426 212 468 212 525 C212 582 169 624 113 624 C56 624 14 582 14 525 L14 525 Z M62 525 C62 556 82 576 113 576 C156 576 158 547 164 525 C158 503 156 474 113 474 C82 474 62 495 62 525 L62 525 Z " />
<glyph glyph-name="uni030B" unicode="&#x30b;" horiz-adv-x="250" d="M14 500 C14 487 25 476 38 476 C45 476 51 479 56 485 C59 488 112 591 112 600 C112 613 100 624 88 624 C80 624 74 621 69 615 C67 613 17 515 15 508 C14 506 14 503 14 500 L14 500 Z M163 476 C170 476 176 479 181 485 C184 488 237 591 237 600 C237 613 225 624 213 624 C205 624 199 621 194 615 C192 613 142 515 140 508 C139 506 139 503 139 500 C139 487 150 476 163 476 L163 476 Z " />
<glyph glyph-name="uni030C" unicode="&#x30c;" horiz-adv-x="275" d="M14 600 C14 594 16 589 19 585 C35 565 55 549 73 531 C89 515 104 496 122 482 C126 478 132 476 138 476 C143 476 149 478 153 482 C171 496 186 515 202 531 C220 549 240 565 256 585 C259 589 262 594 262 600 C262 613 250 624 238 624 C232 624 226 622 222 618 C212 611 204 601 195 592 L138 534 L80 592 C71 601 63 611 53 618 C49 622 43 624 38 624 C25 624 14 613 14 600 L14 600 Z " />
<glyph glyph-name="uni0312" unicode="&#x312;" horiz-adv-x="125" d="M14 500 C14 487 25 476 38 476 C45 476 51 479 56 485 C59 488 112 591 112 600 C112 613 100 624 88 624 C80 624 74 621 69 615 C67 613 17 515 15 508 C14 506 14 503 14 500 L14 500 Z " />
<glyph glyph-name="uni0315" unicode="&#x315;" horiz-adv-x="125" d="M14 500 C14 487 25 476 38 476 C45 476 51 479 56 485 C59 488 112 591 112 600 C112 613 100 624 88 624 C80 624 74 621 69 615 C67 613 17 515 15 508 C14 506 14 503 14 500 L14 500 Z " />
<glyph glyph-name="uni0326" unicode="&#x326;" horiz-adv-x="225" d="M68 184 C84 161 114 194 114 137 C114 111 113 85 113 59 C113 51 113 -4 115 -9 C119 -18 127 -25 138 -25 C150 -25 162 -14 162 -1 L162 149 C162 191 130 223 88 223 C75 223 64 211 64 199 C64 193 65 188 68 184 L68 184 Z " />
<glyph glyph-name="uni0327" unicode="&#x327;" horiz-adv-x="175" d="M13 -100 C13 -142 45 -174 87 -174 C129 -174 161 -142 161 -100 L161 -50 C161 -8 129 24 87 24 C74 24 63 13 63 0 C63 -5 65 -10 68 -14 C82 -35 113 -10 113 -55 L113 -99 C113 -115 104 -126 87 -126 C47 -126 75 -76 37 -76 C25 -76 13 -87 13 -100 L13 -100 Z " />
<glyph glyph-name="uni0328" unicode="&#x328;" horiz-adv-x="175" d="M38 -224 C57 -224 62 -207 62 -191 C62 -170 61 -149 61 -128 C61 -109 61 -85 68 -68 C96 0 162 -44 162 0 C162 13 150 24 138 24 C66 24 14 -28 14 -100 L14 -200 C14 -213 25 -224 38 -224 L38 -224 Z " />
<glyph glyph-name="uni0374" unicode="&#x374;" horiz-adv-x="175" d="M14 500 C14 487 25 476 38 476 C45 476 51 479 56 485 C59 488 112 591 112 600 C112 613 100 624 88 624 C80 624 74 621 69 615 C67 613 17 515 15 508 C14 506 14 503 14 500 L14 500 Z " />
<glyph glyph-name="uni0375" unicode="&#x375;" horiz-adv-x="175" d="M14 -199 C14 -212 25 -223 38 -223 C45 -223 51 -220 56 -215 C62 -209 162 -10 162 1 C162 14 150 25 138 25 C130 25 124 22 119 16 C118 14 19 -179 15 -191 C14 -194 14 -197 14 -199 L14 -199 Z " />
<glyph glyph-name="uni037E" unicode="&#x37e;" horiz-adv-x="200" d="M43 -14 C60 -38 89 -2 89 -68 C89 -89 88 -111 88 -133 C88 -150 88 -174 113 -174 C126 -174 137 -163 137 -150 L137 -50 C137 -8 105 24 63 24 C50 24 39 13 39 0 C39 -5 40 -10 43 -14 L43 -14 Z M113 326 C126 326 137 337 137 350 L137 400 C137 413 126 424 113 424 C100 424 89 413 89 400 L89 350 C89 337 100 326 113 326 L113 326 Z " />
<glyph glyph-name="tonos" unicode="&#x384;" horiz-adv-x="125" d="M14 500 C14 487 25 476 38 476 C45 476 51 479 56 485 C59 488 112 591 112 600 C112 613 100 624 88 624 C80 624 74 621 69 615 C67 613 17 515 15 508 C14 506 14 503 14 500 L14 500 Z " />
<glyph glyph-name="dieresistonos" unicode="&#x385;" horiz-adv-x="225" d="M113 676 C120 676 126 679 131 685 C134 688 187 791 187 800 C187 813 175 824 163 824 C155 824 149 821 144 815 C142 813 92 715 90 708 C89 706 89 703 89 700 C89 687 100 676 113 676 L113 676 Z M164 600 L164 550 C164 537 175 526 188 526 C200 526 212 537 212 550 L212 600 C212 613 200 624 188 624 C175 624 164 613 164 600 L164 600 Z M14 600 L14 550 C14 537 25 526 38 526 C50 526 62 537 62 550 L62 600 C62 613 50 624 38 624 C25 624 14 613 14 600 L14 600 Z " />
<glyph glyph-name="Alphatonos" unicode="&#x386;" horiz-adv-x="425" d="M39 0 C39 -13 50 -24 63 -24 C80 -24 85 -11 88 4 L106 77 C108 76 110 76 113 76 L313 76 C315 76 317 76 319 77 L337 4 C341 -11 345 -24 363 -24 C375 -24 387 -13 387 0 C387 15 363 98 357 120 L267 482 C262 499 238 606 233 612 C228 619 222 624 213 624 C203 624 197 619 192 612 C188 606 163 499 158 482 L68 120 C62 98 39 15 39 0 L39 0 Z M213 501 L307 124 L118 124 L213 501 Z M164 699 C164 686 175 675 188 675 C195 675 201 678 206 684 C209 687 262 790 262 799 C262 812 250 823 238 823 C230 823 224 820 219 814 C217 812 167 714 165 707 C164 705 164 702 164 699 L164 699 Z " />
<glyph glyph-name="anoteleia" unicode="&#x387;" horiz-adv-x="268" d="" />
<glyph glyph-name="Epsilontonos" unicode="&#x388;" horiz-adv-x="400" d="M39 600 L39 50 C39 8 70 -24 113 -24 L313 -24 C325 -24 337 -13 337 0 C337 31 297 24 278 24 C228 24 178 23 128 23 C103 23 87 24 87 55 L87 376 L213 376 C225 376 237 387 237 400 C237 413 225 424 213 424 L87 424 L87 576 C131 576 175 576 220 576 C230 576 315 575 321 577 C330 581 337 590 337 600 C337 613 325 624 313 624 L63 624 C50 624 39 613 39 600 L39 600 Z M175 675 C182 675 189 678 193 684 C196 686 245 784 248 791 C248 794 249 796 249 799 C249 812 238 823 225 823 C218 823 211 820 207 814 C204 812 155 714 153 707 C152 705 151 702 151 699 C151 686 162 675 175 675 L175 675 Z " />
<glyph glyph-name="Etatonos" unicode="&#x389;" horiz-adv-x="450" d="M39 600 L39 0 C39 -13 50 -24 63 -24 C75 -24 87 -13 87 0 L87 376 L339 376 L339 0 C339 -13 350 -24 363 -24 C375 -24 387 -13 387 0 L387 600 C387 613 375 624 363 624 C350 624 339 613 339 600 L339 424 L87 424 L87 600 C87 613 75 624 63 624 C50 624 39 613 39 600 L39 600 Z M200 675 C207 675 214 678 218 684 C221 686 270 784 273 791 C273 794 274 796 274 799 C274 812 263 823 250 823 C243 823 236 820 232 814 C229 812 180 714 178 707 C177 705 176 702 176 699 C176 686 187 675 200 675 L200 675 Z " />
<glyph glyph-name="Iotatonos" unicode="&#x38a;" horiz-adv-x="150" d="M39 0 C39 -13 50 -24 63 -24 C75 -24 87 -13 87 0 L87 600 C87 613 75 624 63 624 C50 624 39 613 39 600 L39 0 Z M50 675 C57 675 64 678 68 684 C71 686 120 784 123 791 C123 794 124 796 124 799 C124 812 113 823 100 823 C93 823 86 820 82 814 C79 812 30 714 28 707 C27 705 26 702 26 699 C26 686 37 675 50 675 L50 675 Z " />
<glyph glyph-name="Omicrontonos" unicode="&#x38c;" horiz-adv-x="450" d="M39 150 C39 49 110 -24 213 -24 C296 -24 357 20 379 101 C383 117 387 134 387 150 L387 450 C387 467 383 483 379 499 C357 580 296 624 213 624 C110 624 39 551 39 450 L39 150 Z M87 450 C87 502 118 556 170 571 C181 574 200 574 213 575 C225 574 244 574 255 571 C307 556 339 502 339 450 L339 150 C339 135 335 119 330 105 C311 49 271 24 213 24 C154 24 114 49 95 105 C90 119 87 135 87 150 L87 450 Z M200 675 C207 675 214 678 218 684 C221 686 270 784 273 791 C273 794 274 796 274 799 C274 812 263 823 250 823 C243 823 236 820 232 814 C229 812 180 714 178 707 C177 705 176 702 176 699 C176 686 187 675 200 675 L200 675 Z " />
<glyph glyph-name="Upsilontonos" unicode="&#x38e;" horiz-adv-x="399" d="M26 600 C26 596 27 592 29 588 C33 580 143 434 176 393 L176 0 C176 -13 187 -24 200 -24 C212 -24 224 -13 224 0 L223 393 C242 417 374 583 374 600 C374 613 362 624 350 624 C344 624 339 622 334 618 C329 614 303 577 296 569 L200 440 L103 569 C97 577 71 614 65 618 C60 622 56 624 50 624 C37 624 26 613 26 600 L26 600 Z M151 699 C151 686 162 675 175 675 C182 675 188 678 193 684 C196 687 249 790 249 799 C249 812 237 823 225 823 C217 823 211 820 206 814 C204 812 154 714 152 707 C151 705 151 702 151 699 L151 699 Z " />
<glyph glyph-name="Omegatonos" unicode="&#x38f;" horiz-adv-x="475" d="M39 0 C39 -13 50 -24 63 -24 L188 -24 C200 -24 212 -13 212 0 C212 21 156 61 142 83 C122 114 112 163 112 200 L112 450 C112 465 115 481 120 495 C139 551 179 576 238 576 C296 576 336 551 355 495 C360 481 364 465 364 450 L364 200 C364 164 353 113 333 83 C319 62 264 21 264 0 C264 -13 275 -24 288 -24 L413 -24 C425 -24 437 -13 437 0 C437 29 402 24 383 24 C371 24 358 24 345 24 C356 35 367 46 375 59 C399 97 412 155 412 200 L412 450 C412 467 408 483 404 499 C382 580 321 624 238 624 C135 624 64 551 64 450 L64 200 C64 155 76 97 100 59 C108 46 119 35 130 24 C117 24 104 24 92 24 C73 24 39 29 39 0 L39 0 Z M189 699 C189 686 200 675 213 675 C220 675 226 678 231 684 C234 687 287 790 287 799 C287 812 275 823 263 823 C255 823 249 820 244 814 C242 812 192 714 190 707 C189 705 189 702 189 699 L189 699 Z " />
<glyph glyph-name="iotadieresistonos" unicode="&#x390;" horiz-adv-x="125" d="M63 -24 C75 -24 87 -13 87 0 L87 400 C87 413 75 424 63 424 C50 424 39 413 39 400 L39 0 C39 -13 50 -24 63 -24 L63 -24 Z M39 700 C39 687 50 676 63 676 C70 676 76 679 81 685 C84 688 137 791 137 800 C137 813 125 824 113 824 C105 824 99 821 94 815 C92 813 42 715 40 708 C39 706 39 703 39 700 L39 700 Z M138 526 C150 526 162 537 162 550 L162 600 C162 613 150 624 138 624 C125 624 114 613 114 600 L114 550 C114 537 125 526 138 526 L138 526 Z M-37 550 C-37 537 -26 526 -13 526 C0 526 12 537 12 550 L12 600 C12 613 0 624 -13 624 C-26 624 -37 613 -37 600 L-37 550 Z " />
<glyph glyph-name="Alpha" unicode="&#x391;" horiz-adv-x="425" d="M63 -24 C80 -24 85 -11 88 4 L106 77 C108 76 110 76 113 76 L313 76 C315 76 317 76 319 77 L337 4 C341 -11 345 -24 363 -24 C375 -24 387 -13 387 0 C387 15 363 98 357 120 L267 482 C262 499 238 606 233 612 C228 619 222 624 213 624 C203 624 197 619 192 612 C188 606 163 499 158 482 L68 120 C62 98 39 15 39 0 C39 -13 50 -24 63 -24 L63 -24 Z M213 501 L307 124 L118 124 L213 501 Z " />
<glyph glyph-name="Beta" unicode="&#x392;" horiz-adv-x="425" d="M39 0 C39 -13 50 -24 63 -24 C73 -24 81 -18 85 -8 C88 0 87 97 87 115 L87 576 L163 576 C208 576 239 545 239 500 C239 469 220 436 188 427 C170 422 139 430 139 400 C139 367 190 376 212 376 C270 376 310 352 330 295 C335 281 339 265 339 250 L339 150 C339 135 335 119 330 105 C304 31 254 24 187 24 C169 24 139 28 139 0 C139 -13 150 -24 163 -24 L213 -24 C296 -24 357 20 379 101 C383 117 387 134 387 150 L387 250 C387 266 384 282 379 297 C362 361 323 403 259 419 C276 442 287 471 287 500 C287 572 234 624 163 624 L63 624 C50 624 39 613 39 600 L39 0 Z " />
<glyph glyph-name="Gamma" unicode="&#x393;" horiz-adv-x="350" d="M39 600 L39 0 C39 -13 50 -24 63 -24 C73 -24 81 -18 85 -8 C88 -1 87 97 87 115 L87 575 L88 576 C132 576 176 576 220 576 C230 576 315 575 321 577 C330 581 337 590 337 600 C337 613 325 624 313 624 L63 624 C50 624 39 613 39 600 L39 600 Z " />
<glyph glyph-name="uni0394" unicode="&#x394;" horiz-adv-x="425" d="M39 0 C39 -13 50 -24 63 -24 L363 -24 C375 -24 387 -13 387 0 C387 1 386 3 386 4 C383 26 362 100 357 120 L267 482 C262 499 238 606 233 612 C228 619 222 624 213 624 C203 624 197 619 192 612 C188 606 163 499 158 482 L68 120 C62 98 39 15 39 0 L39 0 Z M213 501 L332 24 C262 25 119 24 93 24 L213 501 Z " />
<glyph glyph-name="Epsilon" unicode="&#x395;" horiz-adv-x="400" d="M39 600 L39 50 C39 8 70 -24 113 -24 L313 -24 C325 -24 337 -13 337 0 C337 31 297 24 278 24 C228 24 178 23 128 23 C103 23 87 24 87 55 L87 376 L213 376 C225 376 237 387 237 400 C237 413 225 424 213 424 L87 424 L87 576 C131 576 175 576 220 576 C230 576 315 575 321 577 C330 581 337 590 337 600 C337 613 325 624 313 624 L63 624 C50 624 39 613 39 600 L39 600 Z " />
</font>
</svg>
