<?xml version="1.0" encoding="UTF-8"?>
<svg xmlns="http://www.w3.org/2000/svg" xmlns:xlink="http://www.w3.org/1999/xlink" version="1.2" >
<font id="SPFO GAP Italic">
<font-face  font-family="SPFO GAP" units-per-em="1000" ascent="800" descent="-250" font-style="italic" font-weight="400" font-stretch="normal" slope="-12" cap-height="632" x-height="432" underline-position="-100" underline-thickness="50" />
<missing-glyph  horiz-adv-x="350" d="M31 0 C31 -17 45 -32 63 -32 L263 -32 C280 -32 291 -20 294 -4 L411 546 C415 563 422 582 422 600 C422 617 407 632 390 632 L190 632 C173 632 162 620 158 604 L41 54 C38 37 31 18 31 0 L31 0 Z M212 549 C213 555 215 561 217 568 C262 567 333 568 351 568 L237 32 L102 32 L212 549 Z " />
<glyph glyph-name="NULL" d="" />
<glyph glyph-name="CR" unicode="&#xd;" horiz-adv-x="250" d="" />
<glyph glyph-name="space" unicode="&#x20;" horiz-adv-x="225" d="" />
<glyph glyph-name="uni0000" d="" />
<glyph glyph-name="uni000D" horiz-adv-x="250" d="" />
<glyph glyph-name="exclam" unicode="&#x21;" horiz-adv-x="175" d="M131 168 C146 168 154 177 161 189 C162 192 248 588 248 600 C248 617 233 632 216 632 C200 632 193 623 185 611 C184 608 99 213 99 200 C99 183 113 168 131 168 L131 168 Z M56 0 C56 -17 71 -32 88 -32 C118 -32 120 -2 125 21 C127 31 131 40 131 50 C131 67 116 82 99 82 C68 82 66 52 61 29 C59 19 56 10 56 0 L56 0 Z " />
<glyph glyph-name="quotedbl" unicode="&#x22;" horiz-adv-x="250" d="M294 468 C306 468 315 474 322 484 C324 488 368 688 368 700 C368 717 354 732 336 732 C324 732 315 726 309 716 C306 712 262 512 262 500 C262 483 276 468 294 468 L294 468 Z M137 500 C137 483 151 468 169 468 C181 468 190 474 197 484 C199 488 243 688 243 700 C243 717 229 732 211 732 C199 732 190 726 184 716 C181 712 137 512 137 500 L137 500 Z " />
<glyph glyph-name="numbersign" unicode="&#x23;" horiz-adv-x="600" d="M62 150 C62 133 77 118 94 118 L177 118 L154 63 C148 49 131 13 131 0 C131 -17 145 -32 163 -32 C177 -32 188 -23 193 -9 L246 118 L327 118 L304 63 C298 49 281 13 281 0 C281 -17 295 -32 313 -32 C327 -32 338 -23 343 -9 L396 118 L494 118 C512 118 526 133 526 150 C526 167 512 182 494 182 L422 182 L478 318 L587 318 C604 318 619 333 619 350 C619 367 604 382 587 382 L505 382 L527 437 C533 451 551 487 551 500 C551 517 536 532 519 532 C504 532 494 523 488 509 L436 382 L355 382 L377 437 C383 451 401 487 401 500 C401 517 386 532 369 532 C354 532 344 523 338 509 L286 382 L187 382 C170 382 155 367 155 350 C155 333 170 318 187 318 L259 318 L203 182 L94 182 C77 182 62 167 62 150 L62 150 Z M272 182 L328 318 L409 318 L353 182 L272 182 Z " />
<glyph glyph-name="dollar" unicode="&#x24;" horiz-adv-x="350" d="M124 -27 C117 -58 109 -95 109 -100 C109 -117 124 -132 141 -132 C153 -132 163 -126 169 -116 C171 -112 183 -63 189 -30 C257 -18 318 50 318 119 C318 217 178 313 178 381 C178 392 182 403 186 413 C202 447 230 468 269 468 C300 468 317 456 317 423 C317 415 316 408 316 400 C316 383 330 368 348 368 C379 368 381 400 381 423 C381 477 353 514 307 527 C314 558 322 595 322 600 C322 617 307 632 290 632 C279 632 268 626 262 616 C260 612 249 563 242 530 C173 518 114 452 114 381 C114 283 254 187 254 119 C254 108 250 97 245 87 C230 53 201 32 163 32 C132 32 114 44 114 77 C114 85 116 92 116 100 C116 117 101 132 84 132 C53 132 50 101 50 77 C50 23 79 -14 124 -27 L124 -27 Z " />
<glyph glyph-name="percent" unicode="&#x25;" horiz-adv-x="659" d="M550 194 C571 191 595 188 595 149 C595 92 562 33 499 33 C468 33 450 46 450 78 C450 131 482 194 542 194 C544 194 547 194 550 194 L550 194 Z M259 469 C280 465 304 462 304 423 C304 367 271 308 208 308 C177 308 159 320 159 352 C159 405 191 468 251 468 C254 468 256 468 259 469 L259 469 Z M562 500 C562 517 547 532 530 532 C515 532 507 524 499 512 L229 69 C219 53 192 16 192 0 C192 -17 207 -32 224 -32 C239 -32 247 -24 254 -12 L525 431 C535 447 562 484 562 500 L562 500 Z M546 258 C447 258 386 171 386 78 C386 10 432 -31 499 -31 C598 -31 659 56 659 149 C659 217 613 258 546 258 L546 258 Z M255 532 C157 532 95 445 95 352 C95 284 141 244 208 244 C307 244 368 331 368 423 C368 491 322 532 255 532 L255 532 Z " />
<glyph glyph-name="ampersand" unicode="&#x26;" horiz-adv-x="512" d="M60 115 C60 22 121 -32 213 -32 C312 -32 384 28 418 118 L494 118 C512 118 526 133 526 150 C526 167 512 182 494 182 L294 182 C277 182 262 167 262 150 C262 133 277 118 294 118 L349 118 C323 64 273 32 213 32 C157 32 124 57 124 115 C124 191 189 268 267 268 C288 268 308 276 308 300 C308 356 228 305 228 377 C228 427 269 468 319 468 C350 468 367 456 367 423 C367 415 366 408 366 400 C366 383 380 368 398 368 C429 368 431 400 431 423 C431 491 385 532 319 532 C234 532 164 462 164 377 C164 356 170 328 183 312 C125 287 75 216 63 156 C60 142 60 129 60 115 L60 115 Z " />
<glyph glyph-name="quotesingle" unicode="&#x27;" horiz-adv-x="125" d="M141 368 C158 368 176 383 180 400 L222 600 C226 617 214 632 197 632 C179 632 162 617 158 600 L116 400 C112 383 123 368 141 368 L141 368 Z " />
<glyph glyph-name="parenleft" unicode="&#x28;" horiz-adv-x="250" d="M241 -132 C259 -132 273 -117 273 -100 C273 -85 262 -71 247 -69 C239 -67 231 -68 223 -67 C150 -61 112 -20 112 54 C112 92 123 129 131 166 L189 439 C200 494 206 528 238 576 C267 620 312 654 365 664 C378 666 414 667 422 670 C435 675 443 686 443 700 C443 717 429 732 411 732 C284 732 194 658 149 542 C137 511 132 478 125 445 L65 166 C57 129 48 92 48 54 C48 -65 126 -132 241 -132 L241 -132 Z " />
<glyph glyph-name="parenright" unicode="&#x29;" horiz-adv-x="275" d="M-66 -100 C-66 -117 -51 -132 -34 -132 C84 -132 180 -74 225 37 C237 68 242 102 249 135 L312 433 C320 470 330 508 330 546 C330 665 252 732 136 732 C119 732 104 717 104 700 C104 685 116 671 131 669 C139 667 147 668 154 667 C228 661 266 620 266 546 C266 533 265 519 262 506 C245 411 222 318 202 224 L181 125 C174 87 167 54 144 21 C113 -27 64 -58 7 -65 C-6 -67 -35 -66 -45 -70 C-57 -75 -66 -87 -66 -100 L-66 -100 Z " />
<glyph glyph-name="asterisk" unicode="&#x2a;" horiz-adv-x="325" d="M208 599 C208 594 210 588 212 583 C214 579 241 545 253 531 C259 523 269 517 279 517 C285 517 290 519 295 522 C296 522 296 522 297 523 C291 517 287 509 287 499 C287 482 301 467 319 467 L369 467 C386 467 401 482 401 499 C401 517 386 531 369 531 L319 531 C312 531 306 529 301 526 C318 539 362 575 364 579 C369 585 372 592 372 599 C372 617 357 631 340 631 C334 631 329 630 324 627 C321 626 302 610 284 595 C273 609 262 622 261 624 C255 629 247 631 240 631 C223 631 208 617 208 599 L208 599 Z M137 499 C137 482 151 467 169 467 L219 467 C225 467 231 469 236 472 C219 460 176 423 173 420 C168 414 165 407 165 399 C165 382 180 367 197 367 C203 367 209 369 213 372 C216 373 236 389 253 403 C264 390 275 376 277 375 C283 370 290 367 297 367 C315 367 329 382 329 399 C329 405 328 410 325 415 C323 420 295 454 284 468 C280 477 267 481 258 481 C252 481 247 480 242 477 C242 477 241 476 240 475 C246 481 251 490 251 499 C251 517 236 531 219 531 L169 531 C151 531 137 517 137 499 L137 499 Z " />
<glyph glyph-name="plus" unicode="&#x2b;" horiz-adv-x="425" d="M84 250 C84 233 98 218 116 218 L225 218 C212 158 202 106 202 100 C202 83 216 68 234 68 C245 68 256 74 262 84 C263 86 277 149 292 218 L416 218 C433 218 448 233 448 250 C448 267 433 282 416 282 L306 282 C319 342 330 394 330 400 C330 417 315 432 298 432 C286 432 276 426 270 416 C269 414 254 351 239 282 L116 282 C98 282 84 267 84 250 L84 250 Z " />
<glyph glyph-name="comma" unicode="&#x2c;" horiz-adv-x="200" d="M33 -20 C45 -43 77 -19 69 -56 L38 -200 C34 -217 46 -232 63 -232 C81 -232 98 -217 102 -200 L134 -51 C144 -4 116 32 69 32 C52 32 34 17 30 -1 C29 -7 30 -14 33 -20 L33 -20 Z " />
<glyph glyph-name="hyphen" unicode="&#x2d;" horiz-adv-x="350" d="M109 218 L334 218 C351 218 369 233 373 250 C376 267 365 282 347 282 L122 282 C105 282 87 267 84 250 C80 233 91 218 109 218 L109 218 Z " />
<glyph glyph-name="period" unicode="&#x2e;" horiz-adv-x="150" d="M56 -32 C73 -32 91 -17 95 0 L105 50 C109 68 98 82 80 82 C63 82 45 68 41 50 L31 0 C27 -17 38 -32 56 -32 L56 -32 Z " />
<glyph glyph-name="slash" unicode="&#x2f;" horiz-adv-x="300" d="M10 -132 C22 -132 32 -126 41 -116 C49 -107 115 33 127 56 L361 532 C375 559 440 684 443 700 C447 717 436 732 418 732 C406 732 396 726 387 716 C379 707 313 567 301 544 L66 69 C53 42 -12 -84 -16 -100 C-19 -117 -8 -132 10 -132 L10 -132 Z " />
<glyph glyph-name="zero" unicode="0" horiz-adv-x="350" d="M50 77 C50 9 96 -32 163 -32 C231 -32 285 10 309 73 C319 99 322 127 328 154 L350 257 C360 305 381 376 381 423 C381 491 335 532 269 532 C200 532 146 490 122 427 C113 401 109 373 104 347 L82 243 C71 195 50 124 50 77 L50 77 Z M124 137 L146 240 C157 291 165 342 179 392 C191 440 222 468 272 468 C294 465 317 462 317 423 C317 403 311 383 307 363 L285 260 C274 209 266 158 253 108 C241 65 211 32 163 32 C132 32 114 44 114 77 C114 97 120 117 124 137 L124 137 Z M205 168 C217 168 227 174 233 184 C236 190 258 291 258 300 C258 317 244 332 226 332 C215 332 205 326 199 316 C195 311 173 209 173 200 C173 183 188 168 205 168 L205 168 Z " />
<glyph glyph-name="one" unicode="1" horiz-adv-x="237" d="M118 0 C118 -17 132 -32 150 -32 C167 -32 178 -20 181 -4 L279 454 C282 469 288 484 288 500 C288 517 273 532 256 532 L156 532 C138 532 124 517 124 500 C124 466 158 468 182 468 C194 468 205 468 216 468 L126 43 C123 29 118 15 118 0 L118 0 Z " />
<glyph glyph-name="two" unicode="2" horiz-adv-x="350" d="M31 0 C31 -17 45 -32 63 -32 L263 -32 C280 -32 295 -17 295 0 C295 14 286 25 273 30 C264 34 153 32 132 32 C198 112 345 287 375 379 C380 393 381 408 381 423 C381 491 335 532 269 532 C205 532 154 497 128 439 C123 429 116 411 116 400 C116 383 130 368 148 368 C178 368 178 398 188 418 C205 450 233 468 269 468 C300 468 317 456 317 423 C317 416 317 408 315 401 C293 327 149 152 94 86 C78 67 46 36 35 16 C32 11 31 6 31 0 L31 0 Z " />
<glyph glyph-name="three" unicode="3" horiz-adv-x="350" d="M50 77 C50 9 96 -32 163 -32 C232 -32 285 10 309 73 C319 103 339 193 339 223 C339 264 320 304 281 321 L358 430 C371 448 387 465 397 484 C399 489 401 494 401 500 C401 517 386 532 369 532 L169 532 C151 532 137 517 137 500 C137 486 145 475 158 470 C168 466 285 468 307 468 L234 366 C222 349 208 334 199 316 C196 311 194 306 194 300 C194 244 275 296 275 223 C275 203 256 116 249 95 C235 57 205 32 163 32 C132 32 114 44 114 77 C114 85 116 92 116 100 C116 117 101 132 84 132 C53 132 50 101 50 77 L50 77 Z " />
<glyph glyph-name="four" unicode="4" horiz-adv-x="361" d="M62 100 C62 83 77 68 94 68 L254 68 C247 33 241 4 241 0 C241 -17 256 -32 273 -32 C285 -32 294 -26 301 -16 C304 -12 348 188 348 200 C348 217 333 232 316 232 C303 232 294 226 288 216 C287 214 278 176 268 132 C226 133 160 132 144 132 L256 374 C258 378 311 485 311 500 C311 517 297 532 279 532 C265 532 255 524 249 511 C206 422 166 331 125 241 L82 150 C76 137 69 125 64 111 C63 107 62 104 62 100 L62 100 Z " />
<glyph glyph-name="five" unicode="5" horiz-adv-x="350" d="M163 -32 C231 -32 285 10 309 73 C319 103 339 193 339 223 C339 247 333 272 319 290 C281 341 221 332 166 332 L195 468 C228 468 262 467 296 467 C306 467 373 467 380 470 C392 475 401 486 401 500 C401 517 386 532 369 532 L169 532 C157 532 147 526 141 516 C138 511 94 312 94 300 C94 286 103 275 115 270 C125 266 214 268 233 268 C260 268 275 250 275 223 C275 203 256 116 249 95 C235 57 205 32 163 32 C132 32 114 44 114 77 C114 85 116 92 116 100 C116 117 101 132 84 132 C53 132 50 101 50 77 C50 9 96 -32 163 -32 L163 -32 Z " />
<glyph glyph-name="six" unicode="6" horiz-adv-x="350" d="M50 77 C50 9 96 -32 163 -32 C231 -32 286 10 309 73 C319 103 339 193 339 223 C339 291 293 332 226 332 C209 332 194 317 194 300 C194 244 275 296 275 223 C275 203 256 116 249 95 C234 57 205 32 163 32 C132 32 114 44 114 77 C114 97 120 117 124 137 L146 240 C157 291 165 342 179 392 C189 432 219 468 264 468 C284 468 301 479 301 500 C301 517 286 532 269 532 C200 532 146 490 122 427 C113 401 109 373 104 347 L82 243 C71 195 50 124 50 77 L50 77 Z " />
<glyph glyph-name="seven" unicode="7" horiz-adv-x="312" d="M100 -32 C114 -32 123 -24 130 -12 L360 438 C368 453 388 484 388 500 C388 517 373 532 356 532 L156 532 C138 532 124 517 124 500 C124 487 132 475 145 470 C156 466 280 468 304 468 L93 58 C86 43 68 15 68 0 C68 -17 82 -32 100 -32 L100 -32 Z " />
<glyph glyph-name="eight" unicode="8" horiz-adv-x="350" d="M163 -32 C231 -32 285 10 309 73 C319 103 339 193 339 223 C339 253 330 278 314 296 C355 324 381 371 381 423 C381 491 335 532 269 532 C184 532 114 462 114 377 C114 347 122 323 138 304 C112 286 92 259 80 227 C70 197 50 107 50 77 C50 9 96 -32 163 -32 L163 -32 Z M114 77 C114 97 133 184 140 205 C154 243 184 268 226 268 C257 268 275 256 275 223 C275 203 256 115 249 95 C234 53 203 32 159 32 C138 35 114 38 114 77 L114 77 Z M272 468 C294 465 317 462 317 423 C317 374 276 332 226 332 C195 332 178 344 178 377 C178 430 220 468 272 468 L272 468 Z " />
<glyph glyph-name="nine" unicode="9" horiz-adv-x="350" d="M50 77 C50 9 96 -32 163 -32 C231 -32 285 10 309 73 C319 99 322 127 328 154 L350 257 C360 305 381 376 381 423 C381 491 335 532 269 532 C200 532 146 490 122 427 C113 402 92 301 92 277 C92 209 139 168 205 168 C222 168 237 183 237 200 C237 256 156 205 156 277 C156 300 164 322 168 344 C173 365 175 385 183 405 C197 443 227 468 269 468 C300 468 317 456 317 423 C317 403 311 383 307 363 L285 260 C274 209 266 158 253 108 C241 65 211 32 163 32 C132 32 114 44 114 77 C114 85 116 92 116 100 C116 117 101 132 84 132 C53 132 50 101 50 77 L50 77 Z " />
<glyph glyph-name="colon" unicode="&#x3a;" horiz-adv-x="150" d="M130 318 C148 318 165 333 169 350 L180 400 C183 418 172 432 155 432 C137 432 119 418 116 400 L105 350 C101 333 113 318 130 318 L130 318 Z M56 -32 C73 -32 91 -17 95 0 L105 50 C109 68 98 82 80 82 C63 82 45 68 41 50 L31 0 C27 -17 38 -32 56 -32 L56 -32 Z " />
<glyph glyph-name="semicolon" unicode="&#x3b;" horiz-adv-x="200" d="M33 -20 C45 -43 77 -19 69 -56 L38 -200 C34 -217 46 -232 63 -232 C81 -232 98 -217 102 -200 L134 -51 C144 -4 116 32 69 32 C52 32 34 17 30 -1 C29 -7 30 -14 33 -20 L33 -20 Z M130 318 C148 318 165 333 169 350 L180 400 C183 418 172 432 155 432 C137 432 119 418 116 400 L105 350 C101 333 113 318 130 318 L130 318 Z " />
<glyph glyph-name="less" unicode="&#x3c;" horiz-adv-x="250" d="M77 183 C81 176 159 78 163 75 C169 70 176 67 184 67 C201 67 216 82 216 99 C216 115 202 128 192 140 L149 194 L218 251 C233 264 258 277 258 299 C258 317 244 331 226 331 C221 331 215 330 210 327 C203 323 85 225 80 220 C76 214 73 207 73 199 C73 193 75 188 77 183 L77 183 Z " />
<glyph glyph-name="equal" unicode="&#x3d;" horiz-adv-x="350" d="M120 269 L320 269 C337 269 355 284 359 301 C362 319 351 333 333 333 L133 333 C116 333 98 319 95 301 C91 284 102 269 120 269 L120 269 Z M88 119 L288 119 C305 119 323 134 327 151 C330 169 319 183 301 183 L101 183 C84 183 66 169 63 151 C59 134 70 119 88 119 L88 119 Z " />
<glyph glyph-name="greater" unicode="&#x3e;" horiz-adv-x="250" d="M84 67 C89 67 95 69 100 72 C106 75 225 173 229 179 C234 185 237 192 237 199 C237 205 235 210 233 215 C229 222 151 320 147 324 C141 329 134 331 126 331 C109 331 94 317 94 299 C94 283 108 271 117 259 L160 204 L92 148 C77 135 52 122 52 99 C52 82 66 67 84 67 L84 67 Z " />
<glyph glyph-name="question" unicode="&#x3f;" horiz-adv-x="300" d="M112 500 C112 483 126 468 144 468 C175 468 174 498 185 518 C202 550 229 568 265 568 C296 568 314 556 314 523 C314 447 218 414 185 349 C172 324 168 295 162 267 C157 246 148 222 148 200 C148 183 163 168 180 168 C192 168 201 174 208 184 C214 194 229 280 234 299 C257 385 378 394 378 523 C378 591 332 632 265 632 C201 632 150 597 124 539 C119 529 112 511 112 500 L112 500 Z M138 -32 C168 -32 170 -2 175 21 C177 31 180 40 180 50 C180 67 166 82 148 82 C118 82 116 52 111 29 C109 19 106 10 106 0 C106 -17 120 -32 138 -32 L138 -32 Z " />
<glyph glyph-name="at" unicode="&#x40;" horiz-adv-x="450" d="M50 77 C50 9 96 -32 163 -32 L363 -32 C380 -32 395 -17 395 0 C395 14 386 25 373 30 C364 34 186 32 156 32 C129 32 114 50 114 77 C114 83 114 89 115 94 C129 173 149 250 165 328 C174 372 179 420 196 463 C220 527 270 568 340 568 C396 568 429 543 429 485 C429 448 417 411 410 375 L369 182 L244 182 C241 182 239 183 236 184 L237 183 C236 185 236 187 236 189 C236 201 256 291 261 305 C274 340 304 368 343 368 C363 368 380 379 380 400 C380 417 365 432 348 432 C279 432 225 390 201 327 C193 305 172 213 172 192 C172 148 199 118 244 118 L394 118 C406 118 416 124 422 134 C427 141 484 413 490 444 C492 458 493 471 493 485 C493 578 431 632 340 632 C242 632 170 574 135 484 C125 458 121 430 115 402 L63 156 C57 130 50 104 50 77 L50 77 Z " />
<glyph glyph-name="A" unicode="A" horiz-adv-x="425" d="M56 -32 C68 -32 79 -26 87 -16 C91 -11 111 31 127 68 L327 68 C328 31 329 -11 331 -16 C336 -26 344 -32 356 -32 C373 -32 391 -17 395 0 C399 20 391 125 390 152 L373 604 C372 620 364 632 347 632 C329 632 316 620 309 604 L100 152 C87 125 35 20 31 0 C27 -17 38 -32 56 -32 L56 -32 Z M156 132 L312 468 L325 132 L156 132 Z " />
<glyph glyph-name="B" unicode="B" horiz-adv-x="425" d="M56 -32 C79 -32 92 -14 96 7 L215 568 L283 568 C324 568 346 541 337 500 C329 463 297 432 259 432 C239 432 220 421 216 400 C208 364 248 368 273 368 L302 368 C365 368 397 311 384 250 L362 150 C349 88 294 32 228 32 L203 32 C178 32 138 37 131 0 C127 -17 138 -32 156 -32 L206 -32 C292 -32 367 14 407 98 C416 115 423 133 426 150 L448 250 C451 267 452 283 451 299 C448 361 420 403 363 424 L362 424 C378 439 397 480 401 500 C417 576 373 632 297 632 L197 632 C179 632 162 617 158 600 L31 0 C27 -17 38 -32 56 -32 L56 -32 Z " />
<glyph glyph-name="C" unicode="C" horiz-adv-x="450" d="M59 98 C64 14 119 -32 206 -32 C292 -32 367 14 407 98 C416 115 423 133 426 150 C430 167 419 182 401 182 C366 182 363 145 352 121 C326 61 279 32 219 32 C182 32 146 44 133 78 C125 99 121 125 126 150 L190 450 C207 520 260 568 333 568 C393 568 428 539 428 479 C429 455 416 418 451 418 C469 418 487 433 490 450 C494 467 494 485 493 502 C488 586 433 632 347 632 C237 632 151 554 126 450 L62 150 C59 133 59 115 59 98 L59 98 Z " />
<glyph glyph-name="D" unicode="D" horiz-adv-x="450" d="M56 -32 C79 -32 92 -14 96 7 L215 568 L333 568 C358 568 382 559 401 546 C430 527 434 487 426 450 L362 150 C349 88 294 32 228 32 L203 32 C178 32 138 37 131 0 C127 -17 138 -32 156 -32 L206 -32 C292 -32 367 14 407 98 C416 115 423 133 426 150 L490 450 C509 537 476 601 397 624 C381 629 364 632 347 632 L197 632 C179 632 162 617 158 600 L31 0 C27 -17 38 -32 56 -32 L56 -32 Z " />
<glyph glyph-name="E" unicode="E" horiz-adv-x="400" d="M106 -32 L306 -32 C323 -32 341 -17 345 0 C351 30 325 32 303 32 C245 32 187 31 130 31 C113 31 101 32 106 53 L173 368 L291 368 C308 368 326 383 330 400 C333 417 322 432 304 432 L186 432 L215 568 C257 568 298 568 339 568 C351 568 437 567 445 570 C458 575 469 586 472 600 C476 617 464 632 447 632 L197 632 C179 632 162 617 158 600 L116 402 C116 401 116 401 115 398 L41 50 C31 3 59 -32 106 -32 L106 -32 Z " />
<glyph glyph-name="F" unicode="F" horiz-adv-x="350" d="M63 -32 C85 -32 92 -15 96 4 L173 368 L298 368 C315 368 330 383 330 400 C330 417 315 432 298 432 L187 432 L216 568 C259 568 301 567 344 567 C355 567 444 567 451 570 C464 575 472 586 472 600 C472 617 457 632 440 632 L190 632 C173 632 162 620 158 604 L117 408 C116 407 116 406 116 405 L41 54 C38 37 31 18 31 0 C31 -17 45 -32 63 -32 L63 -32 Z " />
<glyph glyph-name="G" unicode="G" horiz-adv-x="450" d="M59 98 C64 14 119 -32 206 -32 C292 -32 367 14 407 98 C416 115 423 133 426 150 L458 300 C462 317 451 332 433 332 L333 332 C316 332 298 317 294 300 C287 264 325 268 349 268 C362 268 375 268 388 268 L362 150 C357 125 342 99 325 78 C298 44 256 32 219 32 C182 32 146 44 133 78 C125 99 121 125 126 150 L190 450 C207 520 260 568 333 568 C393 568 428 539 428 479 C429 455 416 418 451 418 C469 418 487 433 490 450 C494 467 494 485 493 502 C488 586 434 632 347 632 C237 632 151 554 126 450 L62 150 C59 133 59 115 59 98 L59 98 Z " />
<glyph glyph-name="H" unicode="H" horiz-adv-x="450" d="M56 -32 C73 -32 91 -17 95 0 L173 368 L409 368 L331 0 C327 -17 338 -32 356 -32 C373 -32 391 -17 395 0 L522 600 C526 617 514 632 497 632 C479 632 462 617 458 600 L422 432 L186 432 L222 600 C226 617 214 632 197 632 C179 632 162 617 158 600 L116 402 C116 401 115 399 115 398 L31 0 C27 -17 38 -32 56 -32 L56 -32 Z " />
<glyph glyph-name="I" unicode="I" horiz-adv-x="150" d="M56 -32 C73 -32 91 -17 95 0 L222 600 C226 617 214 632 197 632 C179 632 162 617 158 600 L31 0 C27 -17 38 -32 56 -32 L56 -32 Z " />
<glyph glyph-name="J" unicode="J" horiz-adv-x="450" d="M59 98 C65 14 119 -32 206 -32 C292 -32 367 14 407 98 C416 115 423 133 426 150 L522 600 C526 617 514 632 497 632 C472 632 461 612 456 590 L366 166 C350 88 302 32 219 32 C159 32 125 61 124 121 C124 145 137 182 101 182 C84 182 66 167 62 150 C59 133 58 115 59 98 L59 98 Z " />
<glyph glyph-name="K" unicode="K" horiz-adv-x="450" d="M56 -32 C73 -32 91 -17 95 0 L155 285 C173 299 191 316 202 325 L227 346 L330 -12 C334 -24 342 -32 356 -32 C373 -32 391 -17 395 0 C398 15 387 40 383 54 L285 394 L452 531 C471 547 517 578 522 600 C526 617 514 632 497 632 C474 632 434 591 414 575 L175 377 L222 600 C226 617 214 632 197 632 C179 632 162 617 158 600 L31 0 C27 -17 38 -32 56 -32 L56 -32 Z " />
<glyph glyph-name="L" unicode="L" horiz-adv-x="412" d="M101 32 L222 600 C226 617 214 632 197 632 C179 632 162 617 158 600 L31 0 C27 -17 38 -32 56 -32 L356 -32 C373 -32 391 -17 395 0 C398 17 387 32 369 32 L101 32 Z " />
<glyph glyph-name="M" unicode="M" horiz-adv-x="550" d="M56 -32 C79 -32 92 -14 96 7 L200 494 L266 349 C276 326 284 300 297 279 C302 272 310 268 320 268 C329 268 339 272 346 279 C369 300 388 326 408 349 L536 494 L432 7 C428 -14 433 -32 456 -32 C473 -32 491 -17 495 0 L622 600 C626 617 614 632 597 632 C574 632 560 610 546 594 L339 358 L231 594 C224 610 220 632 197 632 C179 632 162 617 158 600 L31 0 C27 -17 38 -32 56 -32 L56 -32 Z " />
<glyph glyph-name="N" unicode="N" horiz-adv-x="450" d="M56 -32 C79 -32 92 -14 96 7 L209 540 L355 427 C366 419 390 396 412 382 L331 0 C327 -17 338 -32 356 -32 C373 -32 391 -17 395 0 L522 600 C526 617 514 632 497 632 C479 632 462 617 458 600 L428 460 L258 592 C245 602 215 632 197 632 C179 632 162 617 158 600 L31 0 C27 -17 38 -32 56 -32 L56 -32 Z " />
<glyph glyph-name="O" unicode="O" horiz-adv-x="450" d="M59 98 C64 14 119 -32 206 -32 C292 -32 367 14 407 98 C416 115 423 133 426 150 L490 450 C494 467 494 485 493 502 C488 586 433 632 347 632 C237 632 151 554 126 450 L62 150 C59 133 59 115 59 98 L59 98 Z M126 150 L190 450 C203 512 259 568 324 568 C327 568 331 568 334 568 C337 568 341 568 344 568 C408 568 439 511 426 450 L362 150 C357 125 342 99 325 78 C298 44 256 32 219 32 C182 32 146 44 133 78 C125 99 121 125 126 150 L126 150 Z " />
<glyph glyph-name="P" unicode="P" horiz-adv-x="375" d="M56 -32 C79 -32 92 -14 96 7 L215 568 L283 568 C320 568 357 556 370 522 C378 501 382 475 376 450 C363 388 307 332 242 332 C221 332 199 324 194 300 C191 283 202 268 220 268 C306 268 380 314 421 398 C429 415 437 433 440 450 C444 467 444 485 443 502 C438 586 384 632 297 632 L197 632 C179 632 162 617 158 600 L31 0 C27 -17 38 -32 56 -32 L56 -32 Z " />
<glyph glyph-name="Q" unicode="Q" horiz-adv-x="421" d="M208 14 C236 14 261 19 284 29 C299 1 311 -20 312 -21 C319 -28 327 -32 337 -32 C354 -32 369 -17 369 0 C369 4 368 7 367 11 C366 14 354 35 340 63 C391 108 404 161 417 224 L438 322 C449 375 469 439 469 494 C469 581 411 632 326 632 C235 632 166 578 134 494 C126 471 122 446 117 422 L96 325 C85 271 64 207 64 153 C64 65 122 14 208 14 L208 14 Z M137 211 L178 401 C182 420 184 439 190 457 C208 517 247 562 313 568 C317 568 321 568 326 568 C330 568 334 568 338 568 C390 563 405 535 405 486 C405 469 400 452 396 435 L356 245 C352 227 350 207 344 189 C336 163 324 140 308 122 C285 165 263 204 262 205 C255 212 247 217 237 217 C220 217 205 202 205 185 C205 181 206 177 207 174 C209 169 230 128 254 85 C240 81 225 78 208 78 C151 78 128 104 128 160 C128 178 134 195 137 211 L137 211 Z " />
<glyph glyph-name="R" unicode="R" horiz-adv-x="375" d="M56 -32 C79 -32 92 -14 96 7 L215 568 L283 568 C320 568 357 556 370 522 C378 501 382 475 376 450 C363 388 307 332 242 332 C221 332 199 324 194 300 C194 296 193 293 194 289 C196 271 282 -18 284 -21 C289 -28 296 -32 306 -32 C323 -32 341 -17 345 0 C348 17 326 76 321 95 L270 273 C355 292 423 368 440 450 C444 467 444 485 443 502 C438 586 384 632 297 632 L197 632 C179 632 162 617 158 600 L31 0 C27 -17 38 -32 56 -32 L56 -32 Z " />
<glyph glyph-name="S" unicode="S" horiz-adv-x="425" d="M59 98 C64 14 119 -32 206 -32 C292 -32 367 14 407 98 C416 115 423 133 426 150 C463 324 164 329 190 450 C195 475 210 501 227 522 C255 556 296 568 333 568 C393 568 428 539 428 479 C429 455 416 418 451 418 C469 418 487 433 490 450 C494 467 494 485 493 502 C488 586 433 632 347 632 C238 632 150 554 126 450 C89 276 388 271 362 150 C357 125 342 99 325 78 C298 44 257 32 219 32 C159 32 125 61 124 121 C124 145 137 182 101 182 C84 182 66 167 62 150 C59 133 59 115 59 98 L59 98 Z " />
<glyph glyph-name="T" unicode="T" horiz-adv-x="399" d="M170 568 L288 568 L168 0 C164 -17 175 -32 193 -32 C210 -32 228 -17 232 0 L352 568 L470 568 C488 568 505 583 509 600 C513 617 501 632 484 632 L184 632 C166 632 149 617 145 600 C141 583 153 568 170 568 L170 568 Z " />
<glyph glyph-name="U" unicode="U" horiz-adv-x="450" d="M59 98 C65 14 119 -32 206 -32 C293 -32 366 14 407 98 C416 115 423 133 426 150 L522 600 C526 617 514 632 497 632 C472 632 461 612 456 590 L366 166 C350 88 302 32 219 32 C154 32 121 68 124 132 C126 152 131 173 136 193 L220 590 C225 612 222 632 197 632 C179 632 162 617 158 600 L62 150 C59 133 58 115 59 98 L59 98 Z " />
<glyph glyph-name="V" unicode="V" horiz-adv-x="399" d="M148 535 L167 3 C168 -16 179 -32 200 -32 C215 -32 224 -23 230 -9 L478 527 C486 543 509 585 509 600 C509 617 495 632 477 632 C468 632 459 628 453 621 C444 611 402 513 392 493 L227 134 L209 595 C209 615 199 632 177 632 C160 632 145 617 145 600 C145 578 147 557 148 535 L148 535 Z " />
<glyph glyph-name="W" unicode="W" horiz-adv-x="599" d="M150 448 L167 -4 C167 -20 175 -32 193 -32 C205 -32 215 -26 224 -16 C232 -7 340 233 356 268 L357 268 C358 233 364 -7 368 -16 C373 -26 380 -32 393 -32 C410 -32 423 -20 431 -4 L640 448 C652 476 705 581 709 600 C713 617 701 632 684 632 C672 632 662 626 653 616 C646 609 597 498 589 480 L428 132 C426 167 420 407 416 416 C411 426 404 432 391 432 C379 432 369 426 360 416 C352 407 244 167 228 132 L215 480 C214 498 212 609 208 616 C204 626 196 632 184 632 C167 632 149 617 145 600 C141 581 149 476 150 448 L150 448 Z " />
<glyph glyph-name="X" unicode="X" horiz-adv-x="412" d="M43 -32 C58 -32 69 -23 78 -10 L248 229 L317 -10 C320 -23 328 -32 343 -32 C360 -32 378 -17 382 0 C385 17 369 56 364 73 L299 300 L461 527 C473 544 506 583 509 600 C513 617 501 632 484 632 C469 632 458 623 449 610 L278 371 L210 610 C206 623 199 632 184 632 C167 632 149 617 145 600 C142 583 158 544 162 527 L228 300 L66 73 C54 56 21 17 18 0 C14 -17 25 -32 43 -32 L43 -32 Z " />
<glyph glyph-name="Y" unicode="Y" horiz-adv-x="399" d="M146 584 C148 576 224 436 250 390 L168 0 C164 -17 175 -32 193 -32 C210 -32 228 -17 232 0 L314 390 C360 436 496 576 501 584 C505 589 508 594 509 600 C513 617 501 632 484 632 C459 632 429 592 412 574 L296 453 L231 574 C221 592 209 632 184 632 C166 632 149 617 145 600 C144 594 145 589 146 584 L146 584 Z " />
<glyph glyph-name="Z" unicode="Z" horiz-adv-x="425" d="M56 -32 L356 -32 C373 -32 391 -17 395 0 C397 14 391 25 380 30 C370 35 155 32 121 32 L477 532 C489 548 519 584 522 600 C526 617 514 632 497 632 L197 632 C179 632 162 617 158 600 C155 586 161 575 173 570 C182 566 398 568 432 568 L75 68 C64 52 34 16 31 0 C27 -17 38 -32 56 -32 L56 -32 Z " />
<glyph glyph-name="bracketleft" unicode="&#x5b;" horiz-adv-x="200" d="M9 -100 C9 -118 24 -132 41 -132 L141 -132 C159 -132 173 -118 173 -100 C173 -66 139 -68 115 -68 C103 -68 92 -68 81 -68 L237 668 C251 668 265 668 279 668 C303 668 343 663 343 700 C343 717 329 732 311 732 L211 732 C200 732 189 726 184 716 C177 705 151 568 145 543 L48 88 L21 -43 C17 -61 9 -81 9 -100 L9 -100 Z " />
<glyph glyph-name="backslash" unicode="&#x5c;" horiz-adv-x="250" d="M129 700 C129 677 132 654 134 632 L173 60 C175 37 182 -102 186 -111 C192 -124 202 -132 216 -132 C234 -132 248 -118 248 -100 C248 -77 245 -55 244 -32 L204 540 C203 563 196 701 191 711 C186 723 175 732 161 732 C144 732 129 717 129 700 L129 700 Z " />
<glyph glyph-name="bracketright" unicode="&#x5d;" horiz-adv-x="225" d="M16 -132 L116 -132 C128 -132 138 -126 144 -116 C150 -105 177 32 182 57 L307 642 C311 661 318 681 318 700 C318 717 304 732 286 732 L186 732 C169 732 154 717 154 700 C154 666 189 668 213 668 C224 668 235 668 247 668 L90 -68 C77 -68 63 -68 49 -68 C24 -68 -16 -63 -16 -100 C-16 -117 -1 -132 16 -132 L16 -132 Z " />
<glyph glyph-name="asciicircum" unicode="&#x5e;" horiz-adv-x="275" d="M165 568 C184 568 201 588 214 599 L281 655 C295 638 331 586 344 576 C350 571 358 568 365 568 C382 568 397 583 397 600 C397 606 395 611 393 616 C390 622 311 722 307 725 C301 729 294 732 286 732 C281 732 275 730 270 728 C265 725 144 625 141 621 C136 615 133 608 133 600 C133 583 148 568 165 568 L165 568 Z " />
<glyph glyph-name="underscore" unicode="&#x5f;" horiz-adv-x="475" d="M-16 -100 C-16 -117 -1 -132 16 -132 L416 -132 C434 -132 448 -117 448 -100 C448 -82 434 -68 416 -68 L16 -68 C-1 -68 -16 -82 -16 -100 L-16 -100 Z " />
<glyph glyph-name="grave" unicode="&#x60;" horiz-adv-x="125" d="M133 589 C134 582 163 483 165 479 C170 472 178 468 187 468 C204 468 222 483 226 500 C227 504 227 507 226 511 C225 519 196 617 194 621 C189 628 181 632 172 632 C154 632 137 617 133 600 C132 596 132 593 133 589 L133 589 Z " />
<glyph glyph-name="a" unicode="a" horiz-adv-x="338" d="M163 -32 C180 -32 195 -17 195 0 C195 56 114 5 114 77 C114 113 127 151 135 186 L149 252 C153 270 155 288 161 305 C174 340 204 368 243 368 L296 368 C298 368 302 368 308 368 C285 264 230 10 230 0 C230 -17 245 -32 262 -32 C278 -32 285 -23 292 -11 C293 -9 366 328 378 390 C379 393 380 397 380 400 C380 417 365 432 348 432 L248 432 C179 432 125 390 101 327 C86 287 82 244 73 203 C64 162 50 119 50 77 C50 9 96 -32 163 -32 L163 -32 Z " />
<glyph glyph-name="b" unicode="b" horiz-adv-x="350" d="M63 -32 L163 -32 C232 -32 285 10 309 74 C324 113 328 156 337 197 C346 238 360 281 360 323 C360 391 314 432 248 432 C230 432 216 418 216 400 C216 344 296 396 296 323 C296 288 283 250 275 215 L262 150 C258 132 255 113 249 96 C236 62 206 32 169 32 L102 32 L212 549 C215 566 222 583 222 600 C222 617 207 632 190 632 C173 632 162 620 158 604 L41 55 C38 37 31 19 31 0 C31 -17 45 -32 63 -32 L63 -32 Z " />
<glyph glyph-name="c" unicode="c" horiz-adv-x="350" d="M156 -32 C232 -32 300 24 316 100 C320 117 308 132 291 132 C233 132 265 32 169 32 C129 32 107 59 116 100 L158 300 C167 341 200 368 241 368 C336 368 262 268 320 268 C337 268 355 283 358 300 C374 376 330 432 254 432 C178 432 110 376 94 300 L52 100 C36 24 80 -32 156 -32 L156 -32 Z " />
<glyph glyph-name="d" unicode="d" horiz-adv-x="351" d="M157 -32 C174 -32 192 -17 195 0 C200 23 184 32 164 32 C127 32 109 65 117 100 L159 300 C167 335 198 368 235 368 L310 368 C295 297 279 227 264 156 C261 142 229 -5 231 -11 C234 -23 242 -32 257 -32 C274 -32 292 -17 295 0 L423 600 C427 617 415 632 398 632 C380 632 363 617 359 600 L323 432 L255 432 C179 432 111 376 95 300 L53 100 C37 24 81 -32 157 -32 L157 -32 Z " />
<glyph glyph-name="e" unicode="e" horiz-adv-x="326" d="M55 64 C59 3 98 -30 160 -30 C177 -30 193 -17 197 0 C200 12 194 25 183 29 C178 30 172 31 167 31 C151 31 135 37 127 49 C118 62 115 83 118 100 L161 300 C168 340 205 370 245 370 C264 370 282 365 292 351 C300 339 304 318 300 302 C291 262 262 231 220 231 C201 231 183 220 179 200 C175 184 186 170 203 170 C281 170 343 226 361 300 C363 312 364 325 363 336 C359 397 320 430 258 430 C196 430 142 397 113 336 C107 325 103 312 100 300 L57 100 C55 88 55 76 55 64 L55 64 Z " />
<glyph glyph-name="f" unicode="f" horiz-adv-x="225" d="M41 400 C41 383 55 368 73 368 L133 368 L70 71 C65 48 56 23 56 0 C56 -17 70 -32 88 -32 C99 -32 109 -26 115 -16 C120 -8 135 72 139 88 L197 359 C197 362 198 365 198 368 L273 368 C290 368 305 383 305 400 C305 417 290 432 273 432 L211 432 C218 467 226 503 235 518 C250 547 277 568 311 568 C330 568 347 579 347 600 C347 617 332 632 315 632 C238 632 185 582 164 511 C156 485 152 458 146 432 L73 432 C55 432 41 417 41 400 L41 400 Z " />
<glyph glyph-name="g" unicode="g" horiz-adv-x="350" d="M163 -32 C180 -32 195 -17 195 0 C195 56 114 5 114 77 C114 113 127 151 135 186 L149 252 C153 270 155 288 161 305 C174 340 204 368 243 368 L296 368 C298 368 302 368 307 368 C304 353 302 340 301 334 L218 -49 C207 -106 195 -159 125 -167 C117 -168 109 -167 102 -169 C87 -171 76 -185 76 -200 C76 -217 90 -232 108 -232 C187 -232 248 -187 270 -111 C279 -79 284 -46 291 -14 L366 332 C370 354 380 378 380 400 C380 417 365 432 348 432 L248 432 C179 432 125 390 101 327 C86 287 82 244 73 203 C64 162 50 119 50 77 C50 9 96 -32 163 -32 L163 -32 Z " />
<glyph glyph-name="h" unicode="h" horiz-adv-x="350" d="M56 -32 C73 -32 91 -17 95 0 L173 368 C202 367 236 368 247 368 C300 368 299 318 290 276 C272 192 253 108 235 24 C230 0 223 -32 256 -32 C273 -32 291 -17 295 0 L358 300 C374 376 330 432 254 432 L186 432 L222 600 C226 617 214 632 197 632 C179 632 162 617 158 600 L116 402 C116 401 116 401 115 398 L31 0 C27 -17 38 -32 56 -32 L56 -32 Z " />
<glyph glyph-name="i" unicode="i" horiz-adv-x="150" d="M56 -32 C73 -32 91 -17 95 0 L180 400 C183 417 172 432 154 432 C137 432 119 417 116 400 L31 0 C27 -17 38 -32 56 -32 L56 -32 Z M173 518 C190 518 208 533 211 550 L222 600 C226 617 214 632 197 632 C179 632 162 617 158 600 L147 550 C144 533 155 518 173 518 L173 518 Z " />
<glyph glyph-name="j" unicode="j" horiz-adv-x="175" d="M-62 -233 C14 -233 82 -177 98 -101 L205 400 C208 417 197 432 180 432 C152 432 143 409 138 386 C104 229 72 72 38 -86 C29 -128 6 -169 -44 -169 C-63 -169 -83 -180 -87 -201 C-91 -219 -80 -233 -62 -233 L-62 -233 Z M198 518 C215 518 233 533 237 550 L247 600 C251 617 240 632 222 632 C205 632 187 617 183 600 L173 550 C169 533 180 518 198 518 L198 518 Z " />
<glyph glyph-name="k" unicode="k" horiz-adv-x="350" d="M56 -32 C73 -32 91 -17 95 0 L154 280 C165 284 179 291 194 298 C194 295 194 292 194 289 C199 219 211 150 219 81 C221 61 226 -2 231 -16 C236 -26 244 -32 256 -32 C273 -32 291 -17 295 0 C295 4 295 7 295 11 C290 81 278 150 270 219 C267 239 263 302 257 316 C256 319 254 322 252 324 C308 349 361 374 363 376 C371 382 377 390 380 400 C383 417 372 432 354 432 C351 432 347 431 343 430 C334 427 235 382 169 352 L222 600 C226 617 214 632 197 632 C180 632 162 617 158 600 L31 0 C27 -17 38 -32 56 -32 L56 -32 Z " />
<glyph glyph-name="l" unicode="l" horiz-adv-x="150" d="M56 -32 C73 -32 91 -17 95 0 L222 600 C226 617 214 632 197 632 C179 632 162 617 158 600 L31 0 C27 -17 38 -32 56 -32 L56 -32 Z " />
<glyph glyph-name="m" unicode="m" horiz-adv-x="550" d="M448 368 C478 368 496 356 496 323 C496 294 486 265 480 237 L444 68 C440 46 431 22 431 0 C431 -17 445 -32 463 -32 C474 -32 484 -26 490 -16 C495 -9 552 263 558 294 C559 304 560 314 560 323 C560 391 514 432 448 432 C405 432 368 416 341 389 C321 417 288 432 248 432 L148 432 C139 432 133 430 129 426 C122 421 117 413 116 403 C103 349 31 12 31 0 C31 -17 45 -32 63 -32 C78 -32 86 -23 93 -11 C94 -9 154 271 174 368 C204 367 242 368 254 368 C282 368 296 350 296 323 C296 318 296 313 295 308 C295 305 294 303 294 300 C291 279 285 258 280 237 L244 68 C240 46 231 22 231 0 C231 -17 245 -32 263 -32 C274 -32 284 -26 290 -16 C295 -8 351 255 358 293 C361 301 363 311 367 318 C384 350 411 368 448 368 L448 368 Z " />
<glyph glyph-name="n" unicode="n" horiz-adv-x="350" d="M56 -32 C73 -32 91 -17 95 0 L173 368 C202 367 236 368 247 368 C300 368 299 318 290 276 C272 192 253 108 235 24 C230 0 223 -32 256 -32 C273 -32 291 -17 295 0 L358 300 C374 376 330 432 254 432 L154 432 C137 432 119 417 116 400 L31 0 C27 -17 38 -32 56 -32 L56 -32 Z " />
<glyph glyph-name="o" unicode="o" horiz-adv-x="350" d="M156 -32 C232 -32 300 24 316 100 L358 300 C374 376 330 432 254 432 C178 432 110 376 94 300 L52 100 C36 24 80 -32 156 -32 L156 -32 Z M116 100 L158 300 C168 345 202 368 247 368 C284 368 302 335 294 300 L252 100 C243 59 210 32 169 32 C129 32 107 59 116 100 L116 100 Z " />
<glyph glyph-name="p" unicode="p" horiz-adv-x="350" d="M13 -232 C36 -232 49 -214 53 -193 L173 368 L241 368 C282 368 303 341 294 300 L252 100 C244 63 212 32 174 32 C154 32 135 21 131 0 C127 -17 138 -32 156 -32 C232 -32 300 24 316 100 L358 300 C374 376 330 432 254 432 L154 432 C137 432 119 417 116 400 L-12 -200 C-16 -217 -4 -232 13 -232 L13 -232 Z " />
<glyph glyph-name="q" unicode="q" horiz-adv-x="350" d="M163 -32 C180 -32 195 -17 195 0 C195 56 114 5 114 77 C114 113 127 151 135 186 L149 252 C153 270 155 288 161 305 C174 340 204 368 243 368 L296 368 C298 368 303 368 308 368 L199 -146 C195 -163 188 -182 188 -200 C188 -217 203 -232 220 -232 C237 -232 248 -220 252 -204 L369 346 C372 363 380 382 380 400 C380 417 365 432 348 432 L248 432 C179 432 125 390 101 327 C86 287 82 244 73 203 C64 162 50 119 50 77 C50 9 96 -32 163 -32 L163 -32 Z " />
<glyph glyph-name="r" unicode="r" horiz-adv-x="200" d="M56 -32 C89 -32 95 0 100 24 C118 108 134 192 152 276 C182 416 266 335 280 400 C283 417 272 432 254 432 C178 432 110 376 94 300 L31 0 C27 -17 38 -32 56 -32 L56 -32 Z " />
<glyph glyph-name="s" unicode="s" horiz-adv-x="350" d="M156 -32 C232 -32 300 24 316 100 C342 222 144 231 158 300 C167 341 200 368 241 368 C336 368 262 268 320 268 C337 268 355 283 358 300 C374 376 330 432 254 432 C178 432 110 376 94 300 C68 178 267 170 252 100 C243 59 210 32 169 32 C74 32 148 132 91 132 C73 132 56 117 52 100 C36 24 80 -32 156 -32 L156 -32 Z " />
<glyph glyph-name="t" unicode="t" horiz-adv-x="275" d="M91 368 L159 368 L102 100 C86 24 130 -32 206 -32 C223 -32 241 -17 245 0 C255 49 186 16 170 58 C160 82 166 106 172 133 C189 211 206 290 223 368 L291 368 C308 368 326 383 330 400 C333 417 322 432 304 432 L237 432 C239 444 242 456 244 468 C250 493 262 532 226 532 C208 532 191 517 187 500 L172 432 L104 432 C87 432 69 417 66 400 C62 383 73 368 91 368 L91 368 Z " />
<glyph glyph-name="u" unicode="u" horiz-adv-x="350" d="M156 -32 L256 -32 C273 -32 291 -17 295 0 L380 400 C383 417 372 432 354 432 C337 432 319 417 316 400 L237 32 C208 33 174 32 163 32 C110 32 111 82 120 124 C138 208 157 292 175 377 C180 400 187 432 154 432 C137 432 119 417 116 400 L52 100 C36 24 80 -32 156 -32 L156 -32 Z " />
<glyph glyph-name="v" unicode="v" horiz-adv-x="325" d="M131 -16 C137 -26 143 -32 156 -32 C169 -32 177 -26 187 -16 C188 -15 376 385 380 400 C383 417 372 432 354 432 C341 432 333 426 323 416 C316 408 206 166 191 132 C189 166 183 408 179 416 C173 426 167 432 154 432 C137 432 119 417 116 400 C112 385 131 -15 131 -16 L131 -16 Z " />
<glyph glyph-name="w" unicode="w" horiz-adv-x="525" d="M131 -16 C136 -26 143 -32 156 -32 C166 -32 174 -28 183 -21 C192 -13 275 108 290 129 C296 108 327 -13 334 -21 C339 -28 345 -32 356 -32 C368 -32 378 -26 387 -16 C389 -14 577 387 580 400 C583 417 572 432 554 432 C543 432 532 426 523 416 C517 409 494 356 489 344 L410 175 C398 147 386 119 372 92 C367 110 340 213 334 221 C328 228 322 232 312 232 C301 232 294 228 285 221 C276 213 205 110 192 92 C191 131 184 406 179 416 C174 426 167 432 154 432 C137 432 119 417 116 400 C113 387 130 -14 131 -16 L131 -16 Z " />
<glyph glyph-name="x" unicode="x" horiz-adv-x="325" d="M56 -32 C70 -32 81 -24 90 -12 L190 129 L230 -12 C234 -24 242 -32 256 -32 C273 -32 291 -17 295 0 C298 15 287 40 283 54 L241 200 L345 347 C355 360 376 385 380 400 C383 417 372 432 354 432 C340 432 329 424 320 412 L220 271 L180 412 C176 424 169 432 154 432 C137 432 119 417 116 400 C112 385 123 360 127 347 L169 200 L65 54 C55 40 34 15 31 0 C27 -17 38 -32 56 -32 L56 -32 Z " />
<glyph glyph-name="y" unicode="y" horiz-adv-x="325" d="M63 -232 C81 -232 94 -220 101 -204 L191 -10 C192 -8 192 -7 193 -6 L310 247 C323 275 375 380 379 400 C383 417 372 432 354 432 C337 432 324 420 316 404 L191 133 C186 254 179 415 179 416 C173 425 167 432 154 432 C137 432 119 417 115 400 C113 387 126 80 130 2 L107 -48 C95 -76 42 -181 38 -200 C34 -217 46 -232 63 -232 L63 -232 Z " />
<glyph glyph-name="z" unicode="z" horiz-adv-x="325" d="M56 -32 L256 -32 C273 -32 291 -17 295 0 C297 14 291 25 280 30 C270 34 145 32 121 32 L351 354 C359 367 377 386 380 400 C383 417 372 432 354 432 L154 432 C137 432 119 417 116 400 C113 387 119 375 130 370 C140 366 265 368 289 368 L60 46 C51 34 33 14 31 0 C27 -17 38 -32 56 -32 L56 -32 Z " />
<glyph glyph-name="braceleft" unicode="&#x7b;" horiz-adv-x="287" d="M86 284 C91 274 100 265 108 255 L158 192 L130 61 C124 33 116 5 116 -23 C116 -91 162 -132 228 -132 C246 -132 260 -117 260 -100 C260 -44 180 -96 180 -23 C180 -2 186 19 191 40 L215 152 C218 168 224 184 224 200 C224 206 222 211 220 216 C215 225 207 233 201 241 L158 295 C173 308 257 374 262 384 C270 398 294 524 295 531 C300 556 303 581 312 605 C325 640 355 668 394 668 C413 668 430 679 430 700 C430 717 416 732 398 732 C329 732 276 690 252 627 C241 599 238 568 231 539 L206 418 L125 351 C109 338 81 323 81 300 C81 294 83 289 86 284 L86 284 Z " />
<glyph glyph-name="bar" unicode="&#x7c;" horiz-adv-x="150" d="M35 -130 C52 -130 70 -115 74 -98 L243 700 C243 700 243 700 243 700 C247 717 235 732 218 732 C201 732 183 717 179 700 L10 -98 C6 -115 17 -130 35 -130 L35 -130 Z " />
<glyph glyph-name="braceright" unicode="&#x7d;" horiz-adv-x="300" d="M-16 -100 C-16 -117 -1 -132 16 -132 C86 -132 139 -90 163 -27 C173 2 177 32 183 61 L209 182 L289 249 C305 262 333 277 333 300 C333 306 332 311 329 316 C324 326 314 335 307 345 L257 408 L285 539 C291 567 299 595 299 623 C299 691 253 732 186 732 C169 732 154 717 154 700 C154 644 235 696 235 623 C235 602 228 581 224 560 L200 448 C197 432 191 416 191 400 C191 394 192 389 195 384 C200 375 208 367 214 359 L257 305 C241 292 158 226 152 216 C145 202 121 76 120 69 C114 44 111 19 103 -5 C90 -40 60 -68 21 -68 C1 -68 -16 -79 -16 -100 L-16 -100 Z " />
<glyph glyph-name="asciitilde" unicode="&#x7e;" horiz-adv-x="425" d="M94 118 C106 118 117 124 122 134 C126 140 127 148 129 155 C138 182 158 218 191 218 C194 218 197 217 200 217 L202 216 C209 201 212 186 218 171 C232 137 258 118 294 118 C354 118 393 163 413 215 C416 223 423 241 423 250 C423 267 408 282 391 282 C379 282 369 276 363 266 C359 260 358 252 356 245 C347 218 327 182 294 182 C291 182 288 183 285 183 L283 184 C276 199 273 214 267 229 C254 264 228 282 191 282 C131 282 93 237 72 186 C69 177 62 159 62 150 C62 133 77 118 94 118 L94 118 Z " />
<glyph glyph-name="exclamdown" unicode="&#xa1;" horiz-adv-x="150" d="M-3 -200 C-3 -217 11 -232 29 -232 C45 -232 52 -223 59 -211 C60 -208 146 188 146 200 C146 217 131 232 114 232 C98 232 91 223 84 211 C82 208 -3 -188 -3 -200 L-3 -200 Z M146 318 C176 318 178 349 183 371 C185 381 188 390 188 400 C188 417 174 432 156 432 C126 432 124 402 119 379 C117 369 114 360 114 350 C114 333 128 318 146 318 L146 318 Z " />
<glyph glyph-name="cent" unicode="&#xa2;" horiz-adv-x="350" d="M124 -27 C117 -58 109 -95 109 -100 C109 -117 124 -132 141 -132 C153 -132 163 -126 169 -116 C171 -112 183 -63 189 -30 C241 -21 281 12 304 61 C308 71 316 89 316 100 C316 117 301 132 284 132 C253 132 254 102 243 82 C226 50 199 32 163 32 C132 32 114 44 114 77 C114 97 120 117 124 137 L146 240 C157 291 165 342 179 392 C182 406 188 419 196 431 C215 456 238 468 269 468 C300 468 317 456 317 423 C317 415 316 408 316 400 C316 383 330 368 348 368 C379 368 381 400 381 423 C381 477 353 514 307 527 C314 558 322 595 322 600 C322 617 307 632 290 632 C279 632 268 626 262 616 C260 612 249 563 242 530 C186 520 143 482 122 427 C113 401 109 373 104 347 L82 243 C71 195 50 124 50 77 C50 23 79 -14 124 -27 L124 -27 Z " />
<glyph glyph-name="sterling" unicode="&#xa3;" horiz-adv-x="387" d="M31 -32 L331 -32 C348 -32 366 -17 370 0 C373 17 362 32 344 32 L177 32 C193 111 209 189 226 268 L295 268 C312 268 330 283 333 300 C337 317 326 332 308 332 L239 332 C242 344 244 355 247 367 C257 417 273 468 337 468 C432 468 359 368 416 368 C433 368 451 383 455 400 C471 476 427 532 351 532 C275 532 207 476 191 400 L176 332 L108 332 C91 332 73 317 69 300 C66 283 77 268 95 268 L162 268 L112 32 L44 32 C27 32 9 17 6 0 C2 -17 13 -32 31 -32 L31 -32 Z " />
<glyph glyph-name="currency" unicode="&#xa4;" horiz-adv-x="400" d="M52 100 C52 83 66 68 84 68 C89 68 95 70 100 72 C103 74 130 96 149 112 C167 100 190 93 214 93 C239 93 262 100 284 111 C296 95 311 77 313 76 C319 71 326 68 334 68 C351 68 366 83 366 100 C366 106 364 111 362 116 C360 119 346 137 334 152 C348 170 364 198 367 221 C369 229 370 237 370 245 C370 260 367 275 362 288 C382 304 409 327 411 329 C416 335 419 343 419 350 C419 367 404 382 387 382 C381 382 376 380 371 378 C368 376 341 354 322 338 C303 350 281 357 257 357 C232 357 208 350 187 339 C175 354 160 373 158 375 C152 379 144 382 137 382 C120 382 105 367 105 350 C105 344 107 339 109 334 C111 331 125 313 137 298 C115 272 101 239 101 205 C101 190 104 175 109 162 C89 146 61 123 59 121 C55 115 52 108 52 100 L52 100 Z M165 205 C165 250 212 293 257 293 C286 293 306 275 306 245 C306 199 258 157 214 157 C185 157 165 175 165 205 L165 205 Z " />
<glyph glyph-name="yen" unicode="&#xa5;" horiz-adv-x="450" d="M153 168 L214 168 C207 135 202 108 200 97 C194 70 181 26 181 0 C181 -17 195 -32 213 -32 C224 -32 234 -26 240 -16 C246 -6 268 107 280 168 L353 168 C370 168 385 183 385 200 C385 217 370 232 353 232 L294 232 C297 244 300 256 302 268 L374 268 C392 268 406 282 406 300 C406 317 392 332 374 332 L351 332 L460 445 C471 456 484 467 493 479 C498 485 501 492 501 500 C501 517 486 532 469 532 C445 532 411 486 395 469 L284 354 L221 470 C210 491 198 532 169 532 C151 532 137 517 137 500 C137 496 138 493 139 489 C141 482 190 391 222 332 L174 332 C157 332 142 317 142 300 C142 282 157 268 174 268 L234 268 C232 257 229 245 226 232 L153 232 C136 232 121 217 121 200 C121 183 136 168 153 168 L153 168 Z " />
<glyph glyph-name="brokenbar" unicode="&#xa6;" horiz-adv-x="551" d="M271 -133 C282 -133 293 -127 299 -117 C302 -112 367 183 367 199 C367 217 352 231 335 231 C323 231 313 225 307 215 C304 211 239 -85 239 -101 C239 -118 254 -133 271 -133 L271 -133 Z M345 399 C345 382 360 367 377 367 C389 367 399 374 405 383 C408 388 473 684 473 700 C473 717 459 732 441 732 C430 732 419 725 413 716 C411 711 345 415 345 399 L345 399 Z " />
<glyph glyph-name="section" unicode="&#xa7;" horiz-adv-x="350" d="M50 77 C50 9 96 -32 163 -32 C228 -32 278 4 304 63 C313 83 319 104 319 126 C319 154 308 179 292 197 C321 217 354 260 358 297 C360 304 361 313 361 320 C361 385 312 432 248 432 C224 437 198 438 198 474 C198 525 239 568 290 568 C321 568 339 556 339 523 C339 515 337 508 337 500 C337 483 351 468 369 468 C400 468 403 500 403 523 C403 591 357 632 290 632 C204 632 134 560 134 474 C134 446 144 421 161 403 C121 375 92 329 92 280 C92 215 141 168 205 168 C229 163 255 162 255 126 C255 76 213 32 163 32 C132 32 114 44 114 77 C114 85 116 92 116 100 C116 117 101 132 84 132 C53 132 50 101 50 77 L50 77 Z M248 368 C277 368 297 350 297 320 C297 275 248 232 205 232 C176 232 156 250 156 280 C156 325 203 368 248 368 L248 368 Z " />
<glyph glyph-name="dieresis" unicode="&#xa8;" horiz-adv-x="225" d="M148 518 C165 518 183 533 186 550 L197 600 C201 617 189 632 172 632 C154 632 137 617 133 600 L122 550 C119 533 130 518 148 518 L148 518 Z M298 518 C315 518 333 533 336 550 L347 600 C351 617 339 632 322 632 C304 632 287 617 283 600 L272 550 C269 533 280 518 298 518 L298 518 Z " />
<glyph glyph-name="copyright" unicode="&#xa9;" horiz-adv-x="550" d="M263 -32 C371 -32 472 41 517 137 C523 151 535 178 537 195 C541 210 542 228 542 240 C542 352 459 432 348 432 C206 432 69 303 69 160 C69 48 151 -32 263 -32 L263 -32 Z M348 368 C424 368 478 317 478 240 C478 228 474 217 473 205 C469 194 466 181 464 173 C436 96 345 32 263 32 C187 32 133 83 133 160 C133 268 241 368 348 368 L348 368 Z M212 142 C212 98 238 68 284 68 C322 68 353 90 369 125 C373 132 376 142 376 150 C376 167 362 182 344 182 C304 182 322 132 284 132 C281 132 278 133 275 134 L276 133 C276 135 275 137 275 139 C275 156 282 173 286 189 L293 224 C297 244 301 268 326 268 C329 268 332 267 335 267 L334 267 C334 244 336 218 366 218 C388 218 399 238 399 258 C399 303 372 332 326 332 C285 332 253 307 238 269 C230 249 228 227 224 206 C219 185 212 164 212 142 L212 142 Z " />
<glyph glyph-name="ordfeminine" unicode="&#xaa;" horiz-adv-x="274" d="M175 268 C193 268 207 283 207 300 C207 315 196 329 181 332 C176 332 171 332 167 334 L168 333 L167 342 C178 365 181 369 208 369 C216 369 224 369 232 368 L227 346 C224 331 218 316 218 300 C218 283 233 268 250 268 C262 268 272 274 278 284 C282 291 320 470 320 483 C320 528 294 557 248 557 L198 557 C181 557 166 542 166 525 C166 486 212 493 239 493 C245 493 251 493 257 492 L256 492 C256 490 257 488 257 486 C257 472 251 459 249 447 L246 432 L197 432 C149 432 103 391 103 342 C103 298 130 268 175 268 L175 268 Z " />
<glyph glyph-name="guillemotleft" unicode="&#xab;" horiz-adv-x="416" d="M89 200 C89 194 90 189 93 184 C96 177 174 79 179 76 C185 71 192 68 199 68 C217 68 231 83 231 100 C231 116 218 129 208 141 L165 195 L234 252 C249 264 274 278 274 300 C274 317 259 332 242 332 C236 332 231 330 226 328 C219 324 101 226 96 221 C91 215 89 208 89 200 L89 200 Z M325 79 C331 72 340 68 349 68 C367 68 381 83 381 100 C381 112 360 178 356 194 L399 255 C406 265 414 274 420 284 C422 289 424 294 424 300 C424 317 409 332 392 332 C384 332 377 329 371 325 C367 321 298 225 293 216 C290 211 289 206 289 200 C289 189 318 88 325 79 L325 79 Z " />
<glyph glyph-name="logicalnot" unicode="&#xac;" horiz-adv-x="350" d="M105 220 C116 216 251 218 276 218 C273 204 268 190 268 175 C268 158 282 143 300 143 C311 143 322 149 327 159 C331 165 348 241 348 250 C348 267 333 282 316 282 L116 282 C98 282 84 267 84 250 C84 236 92 225 105 220 L105 220 Z " />
<glyph glyph-name="registered" unicode="&#xae;" horiz-adv-x="550" d="M111 360 C111 248 194 168 305 168 C413 168 515 241 560 337 C566 350 577 378 579 395 C584 410 584 428 584 440 C584 552 501 632 390 632 C249 632 111 503 111 360 L111 360 Z M175 360 C175 468 284 568 390 568 C466 568 520 517 520 440 C520 428 517 417 516 405 C512 394 509 381 506 373 C478 296 388 232 305 232 C229 232 175 283 175 360 L175 360 Z M244 300 C244 283 259 268 276 268 C288 268 298 274 304 284 C307 288 315 325 324 365 C333 331 347 285 352 279 C358 272 367 268 376 268 C394 268 408 283 408 300 C408 311 391 363 387 377 C423 393 442 428 442 467 C442 505 405 532 369 532 L319 532 C307 532 297 526 291 516 C288 511 244 312 244 300 L244 300 Z M345 468 L366 468 C370 468 375 467 378 465 C374 455 378 449 369 441 C361 433 348 432 337 429 C340 447 343 462 345 468 L345 468 Z " />
<glyph glyph-name="macron" unicode="&#xaf;" horiz-adv-x="275" d="M148 518 L348 518 C365 518 383 533 386 550 C390 568 379 582 361 582 L161 582 C144 582 126 568 123 550 C119 533 130 518 148 518 L148 518 Z " />
<glyph glyph-name="degree" unicode="&#xb0;" horiz-adv-x="350" d="M135 480 C135 415 183 368 248 368 C327 368 403 440 403 520 C403 585 354 632 290 632 C211 632 135 560 135 480 L135 480 Z M199 480 C199 525 246 568 290 568 C319 568 339 550 339 520 C339 515 338 509 337 504 C324 465 291 432 248 432 C218 432 199 450 199 480 L199 480 Z " />
<glyph glyph-name="plusminus" unicode="&#xb1;" horiz-adv-x="450" d="M116 218 L225 218 C212 158 202 106 202 100 C202 83 216 68 234 68 C245 68 256 74 262 84 C263 86 277 149 292 218 L416 218 C433 218 448 233 448 250 C448 267 433 282 416 282 L306 282 C319 342 330 394 330 400 C330 417 315 432 298 432 C286 432 276 426 270 416 C269 414 254 351 239 282 L116 282 C98 282 84 267 84 250 C84 233 98 218 116 218 L116 218 Z M63 -32 L363 -32 C380 -32 395 -17 395 0 C395 17 380 32 363 32 L63 32 C45 32 31 17 31 0 C31 -17 45 -32 63 -32 L63 -32 Z " />
<glyph glyph-name="twosuperior" unicode="&#xb2;" horiz-adv-x="250" d="M105 350 C105 333 120 318 137 318 L237 318 C254 318 269 333 269 350 C269 386 231 382 206 382 C236 420 312 511 312 558 C312 603 286 632 240 632 C201 632 171 610 155 575 C151 568 147 559 147 550 C147 533 162 518 179 518 C220 518 202 568 240 568 C243 568 246 567 249 567 L248 567 C248 565 249 563 249 561 C249 535 161 428 140 403 C130 392 117 380 109 366 C107 361 105 356 105 350 L105 350 Z " />
<glyph glyph-name="threesuperior" unicode="&#xb3;" horiz-adv-x="250" d="M187 318 C228 318 261 343 275 381 C280 393 291 445 291 458 C291 484 283 508 259 522 C270 533 312 574 318 584 C320 589 322 594 322 600 C322 617 307 632 290 632 L190 632 C173 632 158 617 158 600 C158 566 190 568 215 568 C200 553 162 521 162 500 C162 470 189 468 211 468 C217 468 222 468 228 467 L226 467 C227 465 227 463 227 461 C227 451 224 442 222 432 C217 411 215 382 187 382 C184 382 181 383 178 384 L179 383 C179 385 178 387 178 389 C178 393 180 396 180 400 C180 417 165 432 148 432 C125 432 115 413 115 392 C115 348 142 318 187 318 L187 318 Z " />
<glyph glyph-name="acute" unicode="&#xb4;" horiz-adv-x="125" d="M137 468 C147 468 156 472 164 479 C168 483 239 582 243 589 C245 593 246 596 247 600 C251 617 239 632 222 632 C212 632 203 628 195 621 C184 610 116 517 112 500 C108 483 120 468 137 468 L137 468 Z " />
<glyph glyph-name="paragraph" unicode="&#xb6;" horiz-adv-x="450" d="M110 477 C110 409 156 368 223 368 C240 368 255 383 255 400 C255 456 174 405 174 477 C174 523 213 568 261 568 L314 568 C316 568 320 568 325 568 L216 54 C213 37 206 18 206 0 C206 -17 220 -32 238 -32 C260 -32 267 -15 271 4 L391 568 L451 568 L365 167 L341 51 C337 34 331 17 331 0 C331 -17 345 -32 363 -32 C380 -32 391 -20 394 -4 L511 546 C515 563 522 582 522 600 C522 617 507 632 490 632 L265 632 C180 632 110 562 110 477 L110 477 Z " />
<glyph glyph-name="periodcentered" unicode="&#xb7;" horiz-adv-x="300" d="M163 117 C221 117 280 166 292 225 C305 283 267 332 208 332 C149 332 91 283 78 225 C66 166 104 117 163 117 L163 117 Z M142 225 C147 248 171 268 195 268 C214 268 230 253 229 234 C229 231 229 227 228 224 C222 201 202 181 176 181 C153 181 137 201 142 225 L142 225 Z " />
<glyph glyph-name="cedilla" unicode="&#xb8;" horiz-adv-x="175" d="M49 -182 C95 -182 138 -146 148 -100 L159 -50 C168 -4 141 32 94 32 C77 32 59 17 55 0 C54 -7 55 -14 58 -19 C68 -41 101 -20 94 -53 L85 -97 C82 -109 76 -118 62 -118 C35 -118 59 -90 41 -74 C36 -70 30 -68 23 -68 C6 -68 -12 -83 -16 -100 C-26 -146 2 -182 49 -182 L49 -182 Z " />
<glyph glyph-name="onesuperior" unicode="&#xb9;" horiz-adv-x="200" d="M155 350 C155 333 170 318 187 318 C199 318 209 324 215 334 C218 339 272 587 272 600 C272 617 257 632 240 632 L190 632 C173 632 158 617 158 600 C158 574 179 568 201 568 L168 416 C164 395 155 372 155 350 L155 350 Z " />
<glyph glyph-name="ordmasculine" unicode="&#xba;" horiz-adv-x="325" d="M135 480 C135 415 183 368 248 368 C327 368 403 440 403 520 C403 585 354 632 290 632 C211 632 135 560 135 480 L135 480 Z M199 480 C199 525 246 568 290 568 C319 568 339 550 339 520 C339 515 338 509 337 504 C324 465 291 432 248 432 C218 432 199 450 199 480 L199 480 Z " />
<glyph glyph-name="guillemotright" unicode="&#xbb;" horiz-adv-x="416" d="M202 100 C202 83 216 68 234 68 C239 68 245 70 250 72 C256 76 375 174 380 179 C384 185 387 192 387 200 C387 206 385 211 383 216 C379 223 301 321 297 324 C291 329 284 332 276 332 C259 332 244 317 244 300 C244 284 258 271 268 259 L311 205 L242 148 C227 136 202 122 202 100 L202 100 Z M52 100 C52 83 66 68 84 68 C91 68 98 71 104 75 C108 79 178 175 183 184 C185 189 187 194 187 200 C187 211 158 312 151 321 C145 328 136 332 126 332 C109 332 94 317 94 300 C94 288 115 222 120 206 L76 145 C70 135 62 126 56 116 C53 111 52 106 52 100 L52 100 Z " />
<glyph glyph-name="onequarter" unicode="&#xbc;" horiz-adv-x="525" d="M131 0 C131 -17 145 -32 163 -32 C178 -32 186 -24 193 -11 C210 25 226 62 243 98 L399 436 C408 454 417 471 424 489 C425 493 426 496 426 500 C426 517 411 532 394 532 C379 532 370 524 364 511 C346 476 330 439 313 403 L157 64 C149 46 139 29 132 11 C131 8 131 4 131 0 L131 0 Z M303 43 L388 43 C384 21 381 4 381 0 C381 -17 395 -32 413 -32 C424 -32 434 -26 440 -16 C442 -14 448 13 455 43 L478 43 C496 43 510 58 510 75 C510 89 502 100 489 105 C487 106 479 107 468 107 C470 116 471 123 471 125 C471 142 457 157 439 157 C427 157 418 151 411 141 C410 139 407 126 403 107 C381 107 363 107 355 107 L400 197 C407 210 423 235 423 250 C423 267 408 282 391 282 C381 282 372 278 366 271 C363 267 277 97 273 86 C272 82 271 79 271 75 C271 58 286 43 303 43 L303 43 Z M134 250 C134 233 148 218 166 218 C177 218 187 224 193 234 C196 239 251 487 251 500 C251 517 236 532 219 532 L169 532 C151 532 137 517 137 500 C137 474 158 468 179 468 L147 316 C143 295 134 272 134 250 L134 250 Z " />
<glyph glyph-name="onehalf" unicode="&#xbd;" horiz-adv-x="475" d="M131 0 C131 -17 145 -32 163 -32 C178 -32 186 -24 193 -11 C210 25 226 62 243 98 L399 436 C408 454 417 471 424 489 C425 493 426 496 426 500 C426 517 411 532 394 532 C379 532 370 524 364 511 C346 476 330 439 313 403 L157 64 C149 46 139 29 132 11 C131 8 131 4 131 0 L131 0 Z M281 0 C281 -17 295 -32 313 -32 L413 -32 C430 -32 445 -17 445 0 C445 36 407 32 381 32 C412 70 488 161 488 208 C488 253 461 282 416 282 C377 282 346 260 330 225 C327 218 323 209 323 200 C323 183 338 168 355 168 C395 168 378 218 416 218 C418 218 421 217 423 217 C424 215 424 213 424 211 C424 185 337 78 316 53 C306 42 292 30 285 16 C282 11 281 6 281 0 L281 0 Z M134 250 C134 233 148 218 166 218 C177 218 187 224 193 234 C196 239 251 487 251 500 C251 517 236 532 219 532 L169 532 C151 532 137 517 137 500 C137 474 158 468 179 468 L147 316 C143 295 134 272 134 250 L134 250 Z " />
<glyph glyph-name="threequarters" unicode="&#xbe;" horiz-adv-x="550" d="M188 -32 C203 -32 211 -24 218 -11 C235 25 251 62 268 98 L424 436 C433 454 442 471 449 489 C450 493 451 496 451 500 C451 517 436 532 419 532 C404 532 395 524 389 511 C371 476 355 439 338 403 L182 64 C174 46 164 29 157 11 C156 8 156 4 156 0 C156 -17 170 -32 188 -32 L188 -32 Z M166 218 C207 218 239 243 254 281 C260 298 270 341 270 358 C270 384 261 408 238 422 C249 433 291 474 297 484 C299 489 301 494 301 500 C301 517 286 532 269 532 L169 532 C151 532 137 517 137 500 C137 466 169 468 194 468 C179 453 141 421 141 400 C141 370 167 368 190 368 C196 368 201 368 206 367 L205 367 C206 365 206 363 206 361 C206 351 202 342 200 332 C196 311 194 282 166 282 C163 282 160 283 157 284 L158 283 C158 306 156 332 126 332 C104 332 93 313 93 292 C93 248 120 218 166 218 L166 218 Z M296 75 C296 58 311 43 328 43 L413 43 C409 21 406 4 406 0 C406 -17 420 -32 438 -32 C449 -32 459 -26 465 -16 C467 -14 473 13 480 43 L503 43 C521 43 535 58 535 75 C535 89 527 100 514 105 C512 106 504 107 493 107 C495 116 496 123 496 125 C496 142 482 157 464 157 C452 157 443 151 436 141 C435 139 432 126 428 107 C406 107 388 107 380 107 L425 197 C432 210 448 235 448 250 C448 267 433 282 416 282 C406 282 397 278 391 271 C388 267 302 97 298 86 C297 82 296 79 296 75 L296 75 Z " />
<glyph glyph-name="questiondown" unicode="&#xbf;" horiz-adv-x="262" d="M-6 -123 C-6 -191 40 -232 107 -232 C171 -232 222 -197 248 -139 C253 -129 260 -111 260 -100 C260 -83 246 -68 228 -68 C197 -68 198 -98 187 -118 C170 -150 144 -168 107 -168 C76 -168 58 -156 58 -123 C58 -47 154 -14 187 51 C200 76 204 105 210 133 C215 154 224 178 224 200 C224 217 209 232 192 232 C180 232 171 226 164 216 C158 206 144 121 138 101 C115 15 -6 6 -6 -123 L-6 -123 Z M192 350 C192 333 207 318 224 318 C254 318 256 349 261 371 C263 381 267 390 267 400 C267 417 252 432 235 432 C204 432 202 402 197 379 C195 369 192 360 192 350 L192 350 Z " />
<glyph glyph-name="Agrave" unicode="&#xc0;" horiz-adv-x="425" d="M56 -32 C68 -32 79 -26 87 -16 C91 -11 111 31 127 68 L327 68 C328 31 329 -11 331 -16 C336 -26 344 -32 356 -32 C373 -32 391 -17 395 0 C399 20 391 125 390 152 L373 604 C372 620 364 632 347 632 C329 632 316 620 309 604 L100 152 C87 125 35 20 31 0 C27 -17 38 -32 56 -32 L56 -32 Z M156 132 L312 468 L325 132 L156 132 Z M325 788 C326 781 355 682 357 678 C362 671 370 667 379 667 C402 667 419 688 419 710 C418 718 389 816 386 820 C382 827 374 831 364 831 C347 831 329 816 325 799 C325 795 325 792 325 788 L325 788 Z " />
<glyph glyph-name="Aacute" unicode="&#xc1;" horiz-adv-x="425" d="M56 -32 C68 -32 79 -26 87 -16 C91 -11 111 31 127 68 L327 68 C328 31 329 -11 331 -16 C336 -26 344 -32 356 -32 C373 -32 391 -17 395 0 C399 20 391 125 390 152 L373 604 C372 620 364 632 347 632 C329 632 316 620 309 604 L100 152 C87 125 35 20 31 0 C27 -17 38 -32 56 -32 L56 -32 Z M156 132 L312 468 L325 132 L156 132 Z M329 667 C339 667 349 671 356 678 C360 682 431 781 435 788 C437 792 439 795 439 799 C443 816 432 831 414 831 C405 831 395 827 387 820 C383 816 312 718 308 710 C307 706 305 703 304 699 C300 682 312 667 329 667 L329 667 Z " />
<glyph glyph-name="Acircumflex" unicode="&#xc2;" horiz-adv-x="425" d="M56 -32 C68 -32 79 -26 87 -16 C91 -11 111 31 127 68 L327 68 C328 31 329 -11 331 -16 C336 -26 344 -32 356 -32 C373 -32 391 -17 395 0 C399 20 391 125 390 152 L373 604 C372 620 364 632 347 632 C329 632 316 620 309 604 L100 152 C87 125 35 20 31 0 C27 -17 38 -32 56 -32 L56 -32 Z M156 132 L312 468 L325 132 L156 132 Z M254 667 C260 667 266 669 271 671 C282 677 356 740 372 753 L373 754 L373 753 C384 740 430 677 439 671 C444 669 449 667 454 667 C472 667 489 682 493 699 C495 707 493 714 490 720 C479 738 463 754 450 771 C436 788 424 808 408 824 C403 828 397 831 389 831 C382 831 374 828 367 824 C345 808 324 788 303 771 C283 754 260 738 241 720 C235 714 231 707 229 699 C225 682 237 667 254 667 L254 667 Z " />
<glyph glyph-name="Atilde" unicode="&#xc3;" horiz-adv-x="425" d="M56 -32 C68 -32 79 -26 87 -16 C91 -11 111 31 127 68 L327 68 C328 31 329 -11 331 -16 C336 -26 344 -32 356 -32 C373 -32 391 -17 395 0 C399 20 391 125 390 152 L373 604 C372 620 364 632 347 632 C329 632 316 620 309 604 L100 152 C87 125 35 20 31 0 C27 -17 38 -32 56 -32 L56 -32 Z M156 132 L312 468 L325 132 L156 132 Z M259 691 C266 691 274 693 280 697 C305 713 293 741 320 741 C347 741 350 691 409 691 C456 691 499 726 509 773 C513 790 501 805 484 805 C477 805 470 803 463 799 C438 783 450 755 423 755 C396 755 393 805 334 805 C287 805 244 770 234 723 C231 706 242 691 259 691 L259 691 Z " />
<glyph glyph-name="Adieresis" unicode="&#xc4;" horiz-adv-x="425" d="M56 -32 C68 -32 79 -26 87 -16 C91 -11 111 31 127 68 L327 68 C328 31 329 -11 331 -16 C336 -26 344 -32 356 -32 C373 -32 391 -17 395 0 C399 20 391 125 390 152 L373 604 C372 620 364 632 347 632 C329 632 316 620 309 604 L100 152 C87 125 35 20 31 0 C27 -17 38 -32 56 -32 L56 -32 Z M156 132 L312 468 L325 132 L156 132 Z M440 717 C457 717 475 732 479 749 L489 799 C493 816 482 831 464 831 C447 831 429 816 425 799 L415 749 C411 732 423 717 440 717 L440 717 Z M290 717 C307 717 325 732 329 749 L339 799 C343 816 332 831 314 831 C297 831 279 816 275 799 L265 749 C261 732 273 717 290 717 L290 717 Z " />
<glyph glyph-name="Aring" unicode="&#xc5;" horiz-adv-x="425" d="M56 -32 C68 -32 79 -26 87 -16 C91 -11 111 31 127 68 L327 68 C328 31 329 -11 331 -16 C336 -26 344 -32 356 -32 C373 -32 391 -17 395 0 C399 20 391 125 390 152 L373 604 C373 610 371 615 369 620 C420 630 462 671 473 724 C486 785 450 831 389 831 C328 831 273 785 259 724 C248 671 273 630 319 620 C315 615 312 610 309 604 L100 152 C87 125 35 20 31 0 C27 -17 38 -32 56 -32 L56 -32 Z M156 132 L312 468 L325 132 L156 132 Z M324 724 C329 750 349 767 376 767 C411 767 410 744 410 724 C401 704 393 681 357 681 C331 681 318 698 324 724 L324 724 Z " />
<glyph glyph-name="AE" unicode="&#xc6;" horiz-adv-x="537" d="M43 -32 C60 -32 73 -20 81 -4 L114 68 C114 68 114 68 114 68 L264 68 C269 68 273 69 278 71 C277 60 277 48 277 37 C276 27 277 18 280 9 C288 -18 313 -32 343 -32 L443 -32 C460 -32 478 -17 482 0 C488 31 460 33 438 33 C416 33 395 31 373 31 C368 31 352 31 347 34 C338 39 343 72 344 83 L352 368 L478 368 C495 368 513 383 517 400 C520 417 509 432 491 432 L354 432 L359 568 C399 568 439 568 479 568 C490 568 575 567 582 570 C595 575 606 586 609 600 C613 617 601 632 584 632 L334 632 C317 632 302 619 296 604 L87 152 C74 125 22 20 18 0 C14 -17 25 -32 43 -32 L43 -32 Z M290 448 C290 448 290 448 290 449 L289 432 C286 332 283 232 280 132 C279 132 278 132 278 132 L143 132 L290 448 Z " />
<glyph glyph-name="Ccedilla" unicode="&#xc7;" horiz-adv-x="450" d="M59 98 C65 1 129 -32 218 -32 C228 -33 236 -35 232 -53 L223 -97 C220 -109 213 -118 200 -118 C173 -118 197 -90 178 -74 C174 -70 168 -68 161 -68 C143 -68 126 -83 122 -100 C112 -146 140 -182 186 -182 C233 -182 276 -146 286 -100 L296 -50 C299 -37 299 -24 296 -13 C343 7 382 45 407 98 C416 115 423 133 426 150 C430 167 419 182 401 182 C366 182 363 145 352 121 C326 61 279 32 219 32 C182 32 146 44 133 78 C125 99 121 125 126 150 L190 450 C207 520 260 568 333 568 C393 568 428 539 428 479 C429 455 416 418 451 418 C469 418 487 433 490 450 C494 467 494 485 493 502 C488 586 433 632 347 632 C237 632 151 554 126 450 L62 150 C59 133 59 115 59 98 L59 98 Z " />
<glyph glyph-name="Egrave" unicode="&#xc8;" horiz-adv-x="400" d="M106 -32 L306 -32 C323 -32 341 -17 345 0 C351 30 325 32 303 32 C245 32 187 31 130 31 C113 31 101 32 106 53 L173 368 L291 368 C308 368 326 383 330 400 C333 417 322 432 304 432 L186 432 L215 568 C257 568 298 568 339 568 C351 568 437 567 445 570 C458 575 469 586 472 600 C476 617 464 632 447 632 L197 632 C179 632 162 617 158 600 L116 402 C116 401 116 401 115 398 L41 50 C31 3 59 -32 106 -32 L106 -32 Z M313 788 C313 781 342 682 345 678 C349 671 357 667 367 667 C384 667 402 682 406 699 C406 703 406 706 406 710 C405 718 376 816 374 820 C369 827 361 831 352 831 C334 831 317 816 313 799 C312 795 312 792 313 788 L313 788 Z " />
<glyph glyph-name="Eacute" unicode="&#xc9;" horiz-adv-x="400" d="M106 -32 L306 -32 C323 -32 341 -17 345 0 C351 30 325 32 303 32 C245 32 187 31 130 31 C113 31 101 32 106 53 L173 368 L291 368 C308 368 326 383 330 400 C333 417 322 432 304 432 L186 432 L215 568 C257 568 298 568 339 568 C351 568 437 567 445 570 C458 575 469 586 472 600 C476 617 464 632 447 632 L197 632 C179 632 162 617 158 600 L116 402 C116 401 116 401 115 398 L41 50 C31 3 59 -32 106 -32 L106 -32 Z M317 667 C326 667 336 671 344 678 C348 682 419 781 423 788 C425 792 426 795 427 799 C431 816 419 831 402 831 C392 831 382 827 375 820 C366 811 292 710 292 699 C288 682 299 667 317 667 L317 667 Z " />
<glyph glyph-name="Ecircumflex" unicode="&#xca;" horiz-adv-x="400" d="M106 -32 L306 -32 C323 -32 341 -17 345 0 C351 30 325 32 303 32 C245 32 187 31 130 31 C113 31 101 32 106 53 L173 368 L291 368 C308 368 326 383 330 400 C333 417 322 432 304 432 L186 432 L215 568 C257 568 298 568 339 568 C351 568 437 567 445 570 C458 575 469 586 472 600 C476 617 464 632 447 632 L197 632 C179 632 162 617 158 600 L116 402 C116 401 116 401 115 398 L41 50 C31 3 59 -32 106 -32 L106 -32 Z M242 667 C247 667 253 669 259 671 C270 677 343 740 360 753 L360 754 L361 753 C371 740 418 677 427 671 C431 669 436 667 442 667 C459 667 477 682 481 699 C482 707 481 714 478 720 C467 738 451 754 437 771 C424 788 412 808 396 824 C391 828 384 831 377 831 C369 831 361 828 355 824 C332 808 312 788 291 771 C270 754 247 738 229 720 C223 714 218 707 217 699 C213 682 224 667 242 667 L242 667 Z " />
<glyph glyph-name="Edieresis" unicode="&#xcb;" horiz-adv-x="400" d="M106 -32 L306 -32 C323 -32 341 -17 345 0 C351 30 325 32 303 32 C245 32 187 31 130 31 C113 31 101 32 106 53 L173 368 L291 368 C308 368 326 383 330 400 C333 417 322 432 304 432 L186 432 L215 568 C257 568 298 568 339 568 C351 568 437 567 445 570 C458 575 469 586 472 600 C476 617 464 632 447 632 L197 632 C179 632 162 617 158 600 L116 402 C116 401 116 401 115 398 L41 50 C31 3 59 -32 106 -32 L106 -32 Z M427 717 C445 717 463 732 466 749 L477 799 C481 816 469 831 452 831 C434 831 417 816 413 799 L402 749 C399 732 410 717 427 717 L427 717 Z M277 717 C295 717 313 732 316 749 L327 799 C331 816 319 831 302 831 C284 831 267 816 263 799 L252 749 C249 732 260 717 277 717 L277 717 Z " />
<glyph glyph-name="Igrave" unicode="&#xcc;" horiz-adv-x="150" d="M56 -32 C73 -32 91 -17 95 0 L222 600 C226 617 214 632 197 632 C179 632 162 617 158 600 L31 0 C27 -17 38 -32 56 -32 L56 -32 Z M188 788 C188 781 217 682 220 678 C224 671 232 667 242 667 C259 667 277 682 281 699 C281 703 281 706 281 710 C280 718 251 816 249 820 C244 827 236 831 227 831 C209 831 192 816 188 799 C187 795 187 792 188 788 L188 788 Z " />
<glyph glyph-name="Iacute" unicode="&#xcd;" horiz-adv-x="150" d="M56 -32 C73 -32 91 -17 95 0 L222 600 C226 617 214 632 197 632 C179 632 162 617 158 600 L31 0 C27 -17 38 -32 56 -32 L56 -32 Z M192 667 C201 667 211 671 219 678 C223 682 294 781 298 788 C300 792 301 795 302 799 C306 816 294 831 277 831 C267 831 257 827 250 820 C241 811 167 710 167 699 C163 682 174 667 192 667 L192 667 Z " />
<glyph glyph-name="Icircumflex" unicode="&#xce;" horiz-adv-x="150" d="M56 -32 C73 -32 91 -17 95 0 L222 600 C226 617 214 632 197 632 C179 632 162 617 158 600 L31 0 C27 -17 38 -32 56 -32 L56 -32 Z M117 667 C122 667 128 669 134 671 C145 677 218 740 235 753 L235 754 L236 753 C246 740 293 677 302 671 C306 669 311 667 317 667 C334 667 352 682 356 699 C357 707 356 714 353 720 C342 738 326 754 312 771 C299 788 287 808 271 824 C266 828 259 831 252 831 C244 831 236 828 230 824 C207 808 187 788 166 771 C145 754 122 738 104 720 C98 714 93 707 92 699 C88 682 99 667 117 667 L117 667 Z " />
<glyph glyph-name="Idieresis" unicode="&#xcf;" horiz-adv-x="150" d="M56 -32 C73 -32 91 -17 95 0 L222 600 C226 617 214 632 197 632 C179 632 162 617 158 600 L31 0 C27 -17 38 -32 56 -32 L56 -32 Z M302 717 C320 717 338 732 341 749 L352 799 C356 816 344 831 327 831 C309 831 292 816 288 799 L277 749 C274 732 285 717 302 717 L302 717 Z M152 717 C170 717 188 732 191 749 L202 799 C206 816 194 831 177 831 C159 831 142 816 138 799 L127 749 C124 732 135 717 152 717 L152 717 Z " />
<glyph glyph-name="Eth" unicode="&#xd0;" horiz-adv-x="450" d="M56 -32 C79 -32 92 -14 96 7 L151 268 L294 268 C312 268 329 283 333 300 C337 317 325 332 308 332 L165 332 L215 568 L333 568 C358 568 382 559 401 546 C430 527 434 487 426 450 L362 150 C349 88 294 32 228 32 L203 32 C178 32 138 37 131 0 C127 -17 138 -32 156 -32 L206 -32 C292 -32 367 14 407 98 C416 115 423 133 426 150 L490 450 C509 537 476 601 397 624 C381 629 364 632 347 632 L197 632 C179 632 162 617 158 600 L101 332 L83 332 C66 332 48 317 44 300 C41 283 52 268 70 268 L87 268 L31 0 C27 -17 38 -32 56 -32 L56 -32 Z " />
<glyph glyph-name="Ntilde" unicode="&#xd1;" horiz-adv-x="450" d="M56 -32 C79 -32 92 -14 96 7 L209 540 L355 427 C366 419 390 396 412 382 L331 0 C327 -17 338 -32 356 -32 C373 -32 391 -17 395 0 L522 600 C526 617 514 632 497 632 C479 632 462 617 458 600 L428 460 L258 592 C245 602 215 632 197 632 C179 632 162 617 158 600 L31 0 C27 -17 38 -32 56 -32 L56 -32 Z M272 691 C279 691 286 693 292 697 C318 713 305 741 333 741 C360 741 363 691 422 691 C469 691 511 726 521 773 C525 790 514 805 496 805 C489 805 482 803 476 799 C450 783 463 755 436 755 C409 755 405 805 346 805 C300 805 257 770 247 723 C243 706 255 691 272 691 L272 691 Z " />
<glyph glyph-name="Ograve" unicode="&#xd2;" horiz-adv-x="450" d="M59 98 C64 14 119 -32 206 -32 C292 -32 367 14 407 98 C416 115 423 133 426 150 L490 450 C494 467 494 485 493 502 C488 586 433 632 347 632 C237 632 151 554 126 450 L62 150 C59 133 59 115 59 98 L59 98 Z M126 150 L190 450 C203 512 259 568 324 568 C327 568 331 568 334 568 C337 568 341 568 344 568 C408 568 439 511 426 450 L362 150 C357 125 342 99 325 78 C298 44 256 32 219 32 C182 32 146 44 133 78 C125 99 121 125 126 150 L126 150 Z M338 788 C338 781 367 682 370 678 C374 671 382 667 392 667 C409 667 427 682 431 699 C431 703 431 706 431 710 C430 718 401 816 399 820 C394 827 386 831 377 831 C359 831 342 816 338 799 C337 795 337 792 338 788 L338 788 Z " />
<glyph glyph-name="Oacute" unicode="&#xd3;" horiz-adv-x="450" d="M59 98 C64 14 119 -32 206 -32 C292 -32 367 14 407 98 C416 115 423 133 426 150 L490 450 C494 467 494 485 493 502 C488 586 433 632 347 632 C237 632 151 554 126 450 L62 150 C59 133 59 115 59 98 L59 98 Z M126 150 L190 450 C203 512 259 568 324 568 C327 568 331 568 334 568 C337 568 341 568 344 568 C408 568 439 511 426 450 L362 150 C357 125 342 99 325 78 C298 44 256 32 219 32 C182 32 146 44 133 78 C125 99 121 125 126 150 L126 150 Z M342 667 C351 667 361 671 369 678 C373 682 444 781 448 788 C450 792 451 795 452 799 C456 816 444 831 427 831 C417 831 407 827 400 820 C391 811 317 710 317 699 C313 682 324 667 342 667 L342 667 Z " />
<glyph glyph-name="Ocircumflex" unicode="&#xd4;" horiz-adv-x="450" d="M59 98 C64 14 119 -32 206 -32 C292 -32 367 14 407 98 C416 115 423 133 426 150 L490 450 C494 467 494 485 493 502 C488 586 433 632 347 632 C237 632 151 554 126 450 L62 150 C59 133 59 115 59 98 L59 98 Z M126 150 L190 450 C203 512 259 568 324 568 C327 568 331 568 334 568 C337 568 341 568 344 568 C408 568 439 511 426 450 L362 150 C357 125 342 99 325 78 C298 44 256 32 219 32 C182 32 146 44 133 78 C125 99 121 125 126 150 L126 150 Z M267 667 C272 667 278 669 284 671 C295 677 368 740 385 753 L385 754 L386 753 C396 740 443 677 452 671 C456 669 461 667 467 667 C484 667 502 682 506 699 C507 707 506 714 503 720 C492 738 476 754 462 771 C449 788 437 808 421 824 C416 828 409 831 402 831 C394 831 386 828 380 824 C357 808 337 788 316 771 C295 754 272 738 254 720 C248 714 243 707 242 699 C238 682 249 667 267 667 L267 667 Z " />
<glyph glyph-name="Otilde" unicode="&#xd5;" horiz-adv-x="450" d="M59 98 C64 14 119 -32 206 -32 C292 -32 367 14 407 98 C416 115 423 133 426 150 L490 450 C494 467 494 485 493 502 C488 586 433 632 347 632 C237 632 151 554 126 450 L62 150 C59 133 59 115 59 98 L59 98 Z M126 150 L190 450 C203 512 259 568 324 568 C327 568 331 568 334 568 C337 568 341 568 344 568 C408 568 439 511 426 450 L362 150 C357 125 342 99 325 78 C298 44 256 32 219 32 C182 32 146 44 133 78 C125 99 121 125 126 150 L126 150 Z M272 691 C279 691 286 693 292 697 C318 713 305 741 333 741 C360 741 363 691 422 691 C469 691 511 726 521 773 C525 790 514 805 496 805 C489 805 482 803 476 799 C450 783 463 755 436 755 C409 755 405 805 346 805 C300 805 257 770 247 723 C243 706 255 691 272 691 L272 691 Z " />
<glyph glyph-name="Odieresis" unicode="&#xd6;" horiz-adv-x="450" d="M59 98 C64 14 119 -32 206 -32 C292 -32 367 14 407 98 C416 115 423 133 426 150 L490 450 C494 467 494 485 493 502 C488 586 433 632 347 632 C237 632 151 554 126 450 L62 150 C59 133 59 115 59 98 L59 98 Z M126 150 L190 450 C203 512 259 568 324 568 C327 568 331 568 334 568 C337 568 341 568 344 568 C408 568 439 511 426 450 L362 150 C357 125 342 99 325 78 C298 44 256 32 219 32 C182 32 146 44 133 78 C125 99 121 125 126 150 L126 150 Z M452 717 C470 717 488 732 491 749 L502 799 C506 816 494 831 477 831 C459 831 442 816 438 799 L427 749 C424 732 435 717 452 717 L452 717 Z M302 717 C320 717 338 732 341 749 L352 799 C356 816 344 831 327 831 C309 831 292 816 288 799 L277 749 C274 732 285 717 302 717 L302 717 Z " />
<glyph glyph-name="multiply" unicode="&#xd7;" horiz-adv-x="400" d="M52 100 C52 83 66 68 84 68 C106 68 145 115 162 131 L234 200 L285 118 C297 99 308 68 334 68 C351 68 366 83 366 100 C366 117 334 160 324 177 L281 245 L376 335 C392 351 430 377 430 400 C430 417 415 432 398 432 C375 432 336 386 319 369 L247 300 L196 382 C185 401 173 432 148 432 C130 432 116 417 116 400 C116 383 147 340 157 323 L200 255 L105 165 C89 150 52 123 52 100 L52 100 Z " />
<glyph glyph-name="Oslash" unicode="&#xd8;" horiz-adv-x="450" d="M85 -132 C97 -132 107 -126 116 -116 C120 -111 141 -69 161 -27 C175 -30 190 -32 206 -32 C292 -32 367 14 407 98 C416 115 423 133 426 150 L490 450 C494 467 494 485 493 502 C491 536 481 564 463 585 C487 631 516 689 518 700 C522 717 511 732 493 732 C481 732 471 726 462 716 C457 711 434 665 413 621 C394 628 372 632 347 632 C237 632 151 554 126 450 L62 150 C59 133 59 115 59 98 C62 54 78 20 106 -2 C84 -44 61 -90 59 -100 C56 -117 67 -132 85 -132 L85 -132 Z M140 65 C137 69 135 73 133 78 C125 99 121 125 126 150 L190 450 C203 512 259 568 324 568 C327 568 331 568 334 568 C352 568 367 568 383 559 C380 552 378 547 376 544 L141 69 C141 68 140 66 140 65 L140 65 Z M202 56 L425 508 C430 491 431 470 426 450 L362 150 C357 125 342 99 325 78 C298 44 256 32 219 32 C210 32 200 33 191 35 C196 45 199 52 202 56 L202 56 Z " />
<glyph glyph-name="Ugrave" unicode="&#xd9;" horiz-adv-x="450" d="M59 98 C65 14 119 -32 206 -32 C293 -32 366 14 407 98 C416 115 423 133 426 150 L522 600 C526 617 514 632 497 632 C472 632 461 612 456 590 L366 166 C350 88 302 32 219 32 C154 32 121 68 124 132 C126 152 131 173 136 193 L220 590 C225 612 222 632 197 632 C179 632 162 617 158 600 L62 150 C59 133 58 115 59 98 L59 98 Z M338 788 C338 781 367 682 370 678 C374 671 382 667 392 667 C409 667 427 682 431 699 C431 703 431 706 431 710 C430 718 401 816 399 820 C394 827 386 831 377 831 C359 831 342 816 338 799 C337 795 337 792 338 788 L338 788 Z " />
<glyph glyph-name="Uacute" unicode="&#xda;" horiz-adv-x="450" d="M59 98 C65 14 119 -32 206 -32 C293 -32 366 14 407 98 C416 115 423 133 426 150 L522 600 C526 617 514 632 497 632 C472 632 461 612 456 590 L366 166 C350 88 302 32 219 32 C154 32 121 68 124 132 C126 152 131 173 136 193 L220 590 C225 612 222 632 197 632 C179 632 162 617 158 600 L62 150 C59 133 58 115 59 98 L59 98 Z M342 667 C351 667 361 671 369 678 C373 682 444 781 448 788 C450 792 451 795 452 799 C456 816 444 831 427 831 C417 831 407 827 400 820 C391 811 317 710 317 699 C313 682 324 667 342 667 L342 667 Z " />
<glyph glyph-name="Ucircumflex" unicode="&#xdb;" horiz-adv-x="450" d="M59 98 C65 14 119 -32 206 -32 C293 -32 366 14 407 98 C416 115 423 133 426 150 L522 600 C526 617 514 632 497 632 C472 632 461 612 456 590 L366 166 C350 88 302 32 219 32 C154 32 121 68 124 132 C126 152 131 173 136 193 L220 590 C225 612 222 632 197 632 C179 632 162 617 158 600 L62 150 C59 133 58 115 59 98 L59 98 Z M267 667 C272 667 278 669 284 671 C295 677 368 740 385 753 L385 754 L386 753 C396 740 443 677 452 671 C456 669 461 667 467 667 C484 667 502 682 506 699 C507 707 506 714 503 720 C492 738 476 754 462 771 C449 788 437 808 421 824 C416 828 409 831 402 831 C394 831 386 828 380 824 C357 808 337 788 316 771 C295 754 272 738 254 720 C248 714 243 707 242 699 C238 682 249 667 267 667 L267 667 Z " />
<glyph glyph-name="Udieresis" unicode="&#xdc;" horiz-adv-x="450" d="M59 98 C65 14 119 -32 206 -32 C293 -32 366 14 407 98 C416 115 423 133 426 150 L522 600 C526 617 514 632 497 632 C472 632 461 612 456 590 L366 166 C350 88 302 32 219 32 C154 32 121 68 124 132 C126 152 131 173 136 193 L220 590 C225 612 222 632 197 632 C179 632 162 617 158 600 L62 150 C59 133 58 115 59 98 L59 98 Z M452 717 C470 717 488 732 491 749 L502 799 C506 816 494 831 477 831 C459 831 442 816 438 799 L427 749 C424 732 435 717 452 717 L452 717 Z M302 717 C320 717 338 732 341 749 L352 799 C356 816 344 831 327 831 C309 831 292 816 288 799 L277 749 C274 732 285 717 302 717 L302 717 Z " />
<glyph glyph-name="Yacute" unicode="&#xdd;" horiz-adv-x="399" d="M146 584 C148 576 224 436 250 390 L168 0 C164 -17 175 -32 193 -32 C210 -32 228 -17 232 0 L314 390 C360 436 496 576 501 584 C505 589 508 594 509 600 C513 617 501 632 484 632 C459 632 429 592 412 574 L296 453 L231 574 C221 592 209 632 184 632 C166 632 149 617 145 600 C144 594 145 589 146 584 L146 584 Z M316 667 C326 667 336 671 343 678 C347 682 418 781 422 788 C424 792 426 795 426 799 C430 816 419 831 401 831 C392 831 382 827 374 820 C370 816 299 718 295 710 C294 706 292 703 291 699 C287 682 299 667 316 667 L316 667 Z " />
<glyph glyph-name="germandbls" unicode="&#xdf;" horiz-adv-x="518" d="M97 -6 C97 -24 112 -38 129 -38 C141 -38 151 -32 157 -22 C162 -14 175 59 178 75 L252 446 C255 459 256 472 260 485 C272 523 308 562 351 562 L438 562 L438 561 L339 462 C323 447 282 416 282 394 C282 357 322 361 347 361 L375 361 C426 361 453 327 453 278 C453 254 447 231 442 208 C430 149 426 111 382 65 C359 42 321 26 289 26 L263 26 C238 26 197 31 197 -6 C197 -24 212 -38 229 -38 L279 -38 C377 -38 450 20 484 109 C497 145 517 241 517 278 C517 357 470 416 390 424 C412 445 516 543 524 559 C528 566 531 573 531 581 C531 617 493 626 464 626 L357 626 C282 626 222 575 199 505 C193 484 190 462 186 440 L183 426 L133 426 C116 426 101 411 101 394 C101 376 116 362 133 362 L170 362 L116 89 C110 61 97 21 97 -6 L97 -6 Z " />
<glyph glyph-name="agrave" unicode="&#xe0;" horiz-adv-x="351" d="M63 77 C63 9 109 -32 176 -32 C193 -32 208 -17 208 0 C208 56 127 5 127 77 C127 113 140 151 148 186 L162 252 C166 270 168 288 174 305 C187 340 217 368 256 368 L309 368 C311 368 315 368 321 368 C298 264 243 10 243 0 C243 -17 258 -32 275 -32 C291 -32 298 -23 305 -11 C306 -9 379 328 391 390 C392 393 393 397 393 400 C393 417 378 432 361 432 L261 432 C192 432 138 390 114 327 C99 287 95 244 86 203 C77 162 63 119 63 77 L63 77 Z M245 589 C246 582 275 483 278 479 C282 472 290 468 300 468 C317 468 335 483 339 500 C339 504 339 507 339 511 C338 519 309 617 307 621 C302 628 294 632 285 632 C262 632 245 611 245 589 L245 589 Z " />
<glyph glyph-name="aacute" unicode="&#xe1;" horiz-adv-x="351" d="M63 77 C63 9 109 -32 176 -32 C193 -32 208 -17 208 0 C208 56 127 5 127 77 C127 113 140 151 148 186 L162 252 C166 270 168 288 174 305 C187 340 217 368 256 368 L309 368 C311 368 315 368 321 368 C298 264 243 10 243 0 C243 -17 258 -32 275 -32 C291 -32 298 -23 305 -11 C306 -9 379 328 391 390 C392 393 393 397 393 400 C393 417 378 432 361 432 L261 432 C192 432 138 390 114 327 C99 287 95 244 86 203 C77 162 63 119 63 77 L63 77 Z M250 468 C259 468 269 472 277 479 C281 483 352 582 356 589 C358 593 359 596 360 600 C364 617 352 632 335 632 C325 632 315 628 308 621 C299 612 225 511 225 500 C221 483 232 468 250 468 L250 468 Z " />
<glyph glyph-name="acircumflex" unicode="&#xe2;" horiz-adv-x="351" d="M63 77 C63 9 109 -32 176 -32 C193 -32 208 -17 208 0 C208 56 127 5 127 77 C127 113 140 151 148 186 L162 252 C166 270 168 288 174 305 C187 340 217 368 256 368 L309 368 C311 368 315 368 321 368 C298 264 243 10 243 0 C243 -17 258 -32 275 -32 C291 -32 298 -23 305 -11 C306 -9 379 328 391 390 C392 393 393 397 393 400 C393 417 378 432 361 432 L261 432 C192 432 138 390 114 327 C99 287 95 244 86 203 C77 162 63 119 63 77 L63 77 Z M175 468 C180 468 186 470 192 472 C203 478 276 541 293 554 L293 555 L294 554 C304 541 351 478 360 472 C364 470 369 468 375 468 C392 468 410 483 414 500 C415 508 414 515 410 521 C400 539 383 555 370 572 C356 589 345 609 329 625 C324 629 317 632 310 632 C302 632 294 629 288 625 C265 609 245 589 224 572 C203 555 180 539 161 521 C156 515 151 508 150 500 C146 483 157 468 175 468 L175 468 Z " />
<glyph glyph-name="atilde" unicode="&#xe3;" horiz-adv-x="351" d="M176 -32 C193 -32 208 -17 208 0 C208 56 127 5 127 77 C127 113 140 151 148 186 L162 252 C166 270 168 288 174 305 C187 340 217 368 256 368 L309 368 C311 368 315 368 321 368 C298 264 243 10 243 0 C243 -17 258 -32 275 -32 C291 -32 298 -23 305 -11 C306 -9 379 328 391 390 C392 393 393 397 393 400 C393 417 378 432 361 432 L261 432 C192 432 138 390 114 327 C99 287 95 244 86 203 C77 162 63 119 63 77 C63 9 109 -32 176 -32 L176 -32 Z M155 492 C162 492 169 494 175 498 C201 514 188 542 216 542 C243 542 246 492 305 492 C352 492 395 527 404 574 C408 591 397 606 379 606 C372 606 365 604 359 600 C333 584 346 556 319 556 C292 556 288 606 229 606 C183 606 140 571 130 524 C126 507 138 492 155 492 L155 492 Z " />
<glyph glyph-name="adieresis" unicode="&#xe4;" horiz-adv-x="351" d="M176 -32 C193 -32 208 -17 208 0 C208 56 127 5 127 77 C127 113 140 151 148 186 L162 252 C166 270 168 288 174 305 C187 340 217 368 256 368 L309 368 C311 368 315 368 321 368 C298 264 243 10 243 0 C243 -17 258 -32 275 -32 C291 -32 298 -23 305 -11 C306 -9 379 328 391 390 C392 393 393 397 393 400 C393 417 378 432 361 432 L261 432 C192 432 138 390 114 327 C99 287 95 244 86 203 C77 162 63 119 63 77 C63 9 109 -32 176 -32 L176 -32 Z M210 518 C228 518 246 533 249 550 L260 600 C264 617 252 632 235 632 C217 632 200 617 196 600 L185 550 C182 533 193 518 210 518 L210 518 Z M360 518 C378 518 396 533 399 550 L410 600 C414 617 402 632 385 632 C367 632 350 617 346 600 L335 550 C332 533 343 518 360 518 L360 518 Z " />
<glyph glyph-name="aring" unicode="&#xe5;" horiz-adv-x="351" d="M76 77 C76 9 122 -32 189 -32 C206 -32 221 -17 221 0 C221 56 140 5 140 77 C140 113 153 151 161 186 L175 252 C179 270 181 288 187 305 C200 340 230 368 269 368 L322 368 C324 368 328 368 334 368 C311 264 256 10 256 0 C256 -17 271 -32 288 -32 C304 -32 311 -23 318 -11 C319 -9 392 328 404 390 C405 393 406 397 406 400 C406 417 391 432 374 432 L309 432 C345 450 372 484 381 525 C394 586 358 632 297 632 C236 632 180 586 167 525 C157 475 178 436 220 423 C177 407 144 372 127 327 C112 287 108 244 99 203 C90 162 76 119 76 77 L76 77 Z M231 525 C237 551 257 568 283 568 C319 568 317 545 317 525 C309 505 301 482 265 482 C239 482 226 499 231 525 L231 525 Z " />
<glyph glyph-name="ae" unicode="&#xe6;" horiz-adv-x="525" d="M53 64 C57 3 95 -30 158 -30 C174 -30 191 -17 195 0 C197 12 192 24 181 29 C176 31 170 31 164 31 C149 31 132 37 124 49 C116 62 112 83 116 100 L158 300 C168 341 200 370 243 370 L312 370 C310 357 307 344 304 330 C303 326 300 314 299 304 C298 303 298 301 298 300 L255 100 C252 88 252 76 253 64 C256 3 295 -30 358 -30 C374 -30 391 -17 395 0 C397 12 392 25 381 29 C376 30 370 31 364 31 C349 31 332 37 324 49 C316 62 312 83 316 100 L358 300 C368 341 400 370 443 370 C461 370 479 365 489 351 C497 339 501 318 498 302 C489 263 460 231 418 231 C399 231 381 220 376 200 C373 184 384 170 400 170 C463 170 516 203 545 264 C551 276 556 288 558 300 C561 312 561 325 561 336 C557 397 518 430 456 430 C428 430 402 424 380 411 C378 422 368 430 356 430 L256 430 C193 430 140 397 111 336 C105 325 100 312 98 300 L55 100 C52 88 52 76 53 64 L53 64 Z " />
<glyph glyph-name="ccedilla" unicode="&#xe7;" horiz-adv-x="350" d="M156 -32 C160 -32 163 -32 167 -32 C177 -33 186 -35 182 -53 L173 -97 C170 -109 163 -118 150 -118 C123 -118 147 -90 128 -74 C124 -70 118 -68 111 -68 C93 -68 76 -83 72 -100 C62 -146 90 -182 136 -182 C183 -182 226 -146 236 -100 L246 -50 C250 -33 248 -18 243 -5 C279 18 306 56 316 100 C320 117 308 132 291 132 C233 132 265 32 169 32 C129 32 107 59 116 100 L158 300 C167 341 200 368 241 368 C336 368 262 268 320 268 C337 268 355 283 358 300 C374 376 330 432 254 432 C178 432 110 376 94 300 L52 100 C36 24 80 -32 156 -32 L156 -32 Z " />
<glyph glyph-name="egrave" unicode="&#xe8;" horiz-adv-x="351" d="M55 64 C59 3 98 -30 160 -30 C177 -30 193 -17 197 0 C200 12 194 25 183 29 C178 30 172 31 167 31 C151 31 135 37 127 49 C118 62 115 83 118 100 L161 300 C168 340 205 370 245 370 C264 370 282 365 292 351 C300 339 304 318 300 302 C291 262 262 231 220 231 C201 231 183 220 179 200 C175 184 186 170 203 170 C281 170 343 226 361 300 C363 312 364 325 363 336 C359 397 320 430 258 430 C196 430 142 397 113 336 C107 325 103 312 100 300 L57 100 C55 88 55 76 55 64 L55 64 Z M245 589 C246 582 275 483 278 479 C282 472 290 468 300 468 C317 468 335 483 339 500 C339 504 339 507 339 511 C338 519 309 617 307 621 C302 628 294 632 285 632 C262 632 245 611 245 589 L245 589 Z " />
<glyph glyph-name="eacute" unicode="&#xe9;" horiz-adv-x="351" d="M55 64 C59 3 98 -30 160 -30 C177 -30 193 -17 197 0 C200 12 194 25 183 29 C178 30 172 31 167 31 C151 31 135 37 127 49 C118 62 115 83 118 100 L161 300 C168 340 205 370 245 370 C264 370 282 365 292 351 C300 339 304 318 300 302 C291 262 262 231 220 231 C201 231 183 220 179 200 C175 184 186 170 203 170 C281 170 343 226 361 300 C363 312 364 325 363 336 C359 397 320 430 258 430 C196 430 142 397 113 336 C107 325 103 312 100 300 L57 100 C55 88 55 76 55 64 L55 64 Z M250 468 C259 468 269 472 277 479 C281 483 352 582 356 589 C358 593 359 596 360 600 C364 617 352 632 335 632 C325 632 315 628 308 621 C299 612 225 511 225 500 C221 483 232 468 250 468 L250 468 Z " />
<glyph glyph-name="ecircumflex" unicode="&#xea;" horiz-adv-x="351" d="M55 64 C59 3 98 -30 160 -30 C177 -30 193 -17 197 0 C200 12 194 25 183 29 C178 30 172 31 167 31 C151 31 135 37 127 49 C118 62 115 83 118 100 L161 300 C168 340 205 370 245 370 C264 370 282 365 292 351 C300 339 304 318 300 302 C291 262 262 231 220 231 C201 231 183 220 179 200 C175 184 186 170 203 170 C281 170 343 226 361 300 C363 312 364 325 363 336 C359 397 320 430 258 430 C196 430 142 397 113 336 C107 325 103 312 100 300 L57 100 C55 88 55 76 55 64 L55 64 Z M175 468 C180 468 186 470 192 472 C203 478 276 541 293 554 L293 555 L294 554 C304 541 351 478 360 472 C364 470 369 468 375 468 C392 468 410 483 414 500 C415 508 414 515 410 521 C400 539 383 555 370 572 C356 589 345 609 329 625 C324 629 317 632 310 632 C302 632 294 629 288 625 C265 609 245 589 224 572 C203 555 180 539 161 521 C156 515 151 508 150 500 C146 483 157 468 175 468 L175 468 Z " />
<glyph glyph-name="edieresis" unicode="&#xeb;" horiz-adv-x="351" d="M55 64 C59 3 98 -30 160 -30 C177 -30 193 -17 197 0 C200 12 194 25 183 29 C178 30 172 31 167 31 C151 31 135 37 127 49 C118 62 115 83 118 100 L161 300 C168 340 205 370 245 370 C264 370 282 365 292 351 C300 339 304 318 300 302 C291 262 262 231 220 231 C201 231 183 220 179 200 C175 184 186 170 203 170 C281 170 343 226 361 300 C363 312 364 325 363 336 C359 397 320 430 258 430 C196 430 142 397 113 336 C107 325 103 312 100 300 L57 100 C55 88 55 76 55 64 L55 64 Z M360 518 C378 518 396 533 399 550 L410 600 C414 617 402 632 385 632 C367 632 350 617 346 600 L335 550 C332 533 343 518 360 518 L360 518 Z M210 518 C228 518 246 533 249 550 L260 600 C264 617 252 632 235 632 C217 632 200 617 196 600 L185 550 C182 533 193 518 210 518 L210 518 Z " />
<glyph glyph-name="igrave" unicode="&#xec;" horiz-adv-x="150" d="M56 -32 C73 -32 91 -17 95 0 L180 400 C183 417 172 432 154 432 C137 432 119 417 116 400 L31 0 C27 -17 38 -32 56 -32 L56 -32 Z M145 589 C146 582 175 483 177 479 C182 472 190 468 200 468 C217 468 235 483 238 500 C239 504 239 507 239 511 C238 519 209 617 206 621 C202 628 194 632 184 632 C167 632 149 617 146 600 C145 596 145 593 145 589 L145 589 Z " />
<glyph glyph-name="iacute" unicode="&#xed;" horiz-adv-x="150" d="M56 -32 C73 -32 91 -17 95 0 L180 400 C183 417 172 432 154 432 C137 432 119 417 116 400 L31 0 C27 -17 38 -32 56 -32 L56 -32 Z M150 468 C159 468 169 472 176 479 C180 483 251 582 255 589 C257 593 259 596 260 600 C263 617 252 632 234 632 C225 632 215 628 207 621 C204 617 133 519 129 511 C127 507 125 504 124 500 C121 483 132 468 150 468 L150 468 Z " />
<glyph glyph-name="icircumflex" unicode="&#xee;" horiz-adv-x="150" d="M56 -32 C73 -32 91 -17 95 0 L180 400 C183 417 172 432 154 432 C137 432 119 417 116 400 L31 0 C27 -17 38 -32 56 -32 L56 -32 Z M75 468 C80 468 86 470 91 472 C103 478 176 541 192 554 L193 555 L193 554 C204 541 251 478 259 472 C264 470 269 468 275 468 C292 468 310 483 313 500 C315 508 314 515 310 521 C299 539 283 555 270 572 C256 589 244 609 228 625 C224 629 217 632 209 632 C202 632 194 629 187 625 C165 609 144 589 123 572 C103 555 80 539 61 521 C55 515 51 508 49 500 C46 483 57 468 75 468 L75 468 Z " />
<glyph glyph-name="idieresis" unicode="&#xef;" horiz-adv-x="150" d="M56 -32 C73 -32 91 -17 95 0 L180 400 C183 417 172 432 154 432 C137 432 119 417 116 400 L31 0 C27 -17 38 -32 56 -32 L56 -32 Z M110 518 C128 518 145 533 149 550 L160 600 C163 617 152 632 134 632 C117 632 99 617 96 600 L85 550 C81 533 93 518 110 518 L110 518 Z M260 518 C278 518 295 533 299 550 L310 600 C313 617 302 632 284 632 C267 632 249 617 246 600 L235 550 C231 533 243 518 260 518 L260 518 Z " />
<glyph glyph-name="eth" unicode="&#xf0;" horiz-adv-x="350" d="M163 -32 C231 -32 284 11 309 73 C319 100 323 129 329 157 L372 360 C376 382 383 403 383 426 C383 447 379 468 369 486 C367 490 347 516 324 545 C346 563 363 578 365 579 C369 586 372 592 372 600 C372 617 357 632 340 632 C334 632 329 630 324 628 C322 627 305 613 284 596 C271 612 262 624 261 625 C254 629 248 632 240 632 C223 632 208 617 208 600 C208 594 210 589 212 584 C218 573 227 564 235 555 C213 537 196 522 194 521 C190 515 187 508 187 500 C187 483 201 468 219 468 C225 468 230 470 235 472 C237 473 254 487 275 504 L293 481 C300 472 309 464 314 454 C317 448 319 437 319 430 C319 406 311 383 306 360 L261 148 C252 92 231 32 163 32 C132 32 114 44 114 77 C114 113 127 151 135 186 L149 252 C153 270 155 288 161 305 C174 340 204 368 243 368 C263 368 280 379 280 400 C280 417 265 432 248 432 C178 432 125 390 101 327 C86 288 82 244 73 203 C64 162 50 119 50 77 C50 9 96 -32 163 -32 L163 -32 Z " />
<glyph glyph-name="ntilde" unicode="&#xf1;" horiz-adv-x="350" d="M56 -32 C73 -32 91 -17 95 0 L173 368 C202 367 236 368 247 368 C300 368 299 318 290 276 C272 192 253 108 235 24 C230 0 223 -32 256 -32 C273 -32 291 -17 295 0 L358 300 C374 376 330 432 254 432 L154 432 C137 432 119 417 116 400 L31 0 C27 -17 38 -32 56 -32 L56 -32 Z M180 492 C186 492 194 494 200 498 C225 514 213 542 240 542 C267 542 270 492 330 492 C376 492 419 527 429 574 C433 591 421 606 404 606 C397 606 390 604 383 600 C358 584 371 556 343 556 C316 556 313 606 254 606 C207 606 164 571 154 524 C151 507 162 492 180 492 L180 492 Z " />
<glyph glyph-name="ograve" unicode="&#xf2;" horiz-adv-x="350" d="M156 -32 C232 -32 300 24 316 100 L358 300 C374 376 330 432 254 432 C178 432 110 376 94 300 L52 100 C36 24 80 -32 156 -32 L156 -32 Z M116 100 L158 300 C168 345 202 368 247 368 C284 368 302 335 294 300 L252 100 C243 59 210 32 169 32 C129 32 107 59 116 100 L116 100 Z M245 589 C246 582 275 483 277 479 C282 472 290 468 300 468 C317 468 335 483 338 500 C339 504 339 507 339 511 C338 519 309 617 306 621 C302 628 294 632 284 632 C267 632 249 617 246 600 C245 596 245 593 245 589 L245 589 Z " />
<glyph glyph-name="oacute" unicode="&#xf3;" horiz-adv-x="350" d="M156 -32 C232 -32 300 24 316 100 L358 300 C374 376 330 432 254 432 C178 432 110 376 94 300 L52 100 C36 24 80 -32 156 -32 L156 -32 Z M116 100 L158 300 C168 345 202 368 247 368 C284 368 302 335 294 300 L252 100 C243 59 210 32 169 32 C129 32 107 59 116 100 L116 100 Z M250 468 C259 468 269 472 276 479 C280 483 351 582 355 589 C357 593 359 596 360 600 C363 617 352 632 334 632 C325 632 315 628 307 621 C304 617 233 519 229 511 C227 507 225 504 224 500 C221 483 232 468 250 468 L250 468 Z " />
<glyph glyph-name="ocircumflex" unicode="&#xf4;" horiz-adv-x="350" d="M156 -32 C232 -32 300 24 316 100 L358 300 C374 376 330 432 254 432 C178 432 110 376 94 300 L52 100 C36 24 80 -32 156 -32 L156 -32 Z M116 100 L158 300 C168 345 202 368 247 368 C284 368 302 335 294 300 L252 100 C243 59 210 32 169 32 C129 32 107 59 116 100 L116 100 Z M175 468 C180 468 186 470 191 472 C203 478 276 541 292 554 L293 555 L293 554 C304 541 351 478 359 472 C364 470 369 468 375 468 C392 468 410 483 413 500 C415 508 414 515 410 521 C399 539 383 555 370 572 C356 589 344 609 328 625 C324 629 317 632 309 632 C302 632 294 629 287 625 C265 609 244 589 223 572 C203 555 180 539 161 521 C155 515 151 508 149 500 C146 483 157 468 175 468 L175 468 Z " />
<glyph glyph-name="otilde" unicode="&#xf5;" horiz-adv-x="350" d="M156 -32 C232 -32 300 24 316 100 L358 300 C374 376 330 432 254 432 C178 432 110 376 94 300 L52 100 C36 24 80 -32 156 -32 L156 -32 Z M116 100 L158 300 C168 345 202 368 247 368 C284 368 302 335 294 300 L252 100 C243 59 210 32 169 32 C129 32 107 59 116 100 L116 100 Z M155 492 C162 492 169 494 175 498 C201 514 188 542 215 542 C242 542 246 492 305 492 C351 492 394 527 404 574 C408 591 396 606 379 606 C372 606 365 604 359 600 C333 584 346 556 318 556 C291 556 288 606 229 606 C182 606 139 571 130 524 C126 507 137 492 155 492 L155 492 Z " />
<glyph glyph-name="odieresis" unicode="&#xf6;" horiz-adv-x="350" d="M156 -32 C232 -32 300 24 316 100 L358 300 C374 376 330 432 254 432 C178 432 110 376 94 300 L52 100 C36 24 80 -32 156 -32 L156 -32 Z M116 100 L158 300 C168 345 202 368 247 368 C284 368 302 335 294 300 L252 100 C243 59 210 32 169 32 C129 32 107 59 116 100 L116 100 Z M360 518 C378 518 395 533 399 550 L410 600 C413 617 402 632 384 632 C367 632 349 617 346 600 L335 550 C331 533 343 518 360 518 L360 518 Z M210 518 C228 518 245 533 249 550 L260 600 C263 617 252 632 234 632 C217 632 199 617 196 600 L185 550 C181 533 193 518 210 518 L210 518 Z " />
<glyph glyph-name="divide" unicode="&#xf7;" horiz-adv-x="349" d="M84 251 C84 233 98 219 116 219 L315 219 C332 219 347 233 347 251 C347 268 332 283 315 283 L116 283 C98 283 84 268 84 251 L84 251 Z M204 350 C204 333 219 318 236 318 C267 318 269 349 274 371 C276 381 279 390 279 400 C279 417 264 432 247 432 C217 432 215 402 210 379 C208 370 204 360 204 350 L204 350 Z M151 101 C151 84 166 69 183 69 C214 69 216 100 221 122 C223 132 226 141 226 151 C226 169 211 183 194 183 C164 183 162 153 157 130 C155 121 151 111 151 101 L151 101 Z " />
<glyph glyph-name="oslash" unicode="&#xf8;" horiz-adv-x="350" d="M33 -82 C48 -82 58 -74 67 -61 C77 -47 87 -32 97 -18 C113 -27 133 -32 156 -32 C232 -32 300 24 316 100 L358 300 C364 327 362 351 354 372 L362 385 C374 403 388 420 398 439 C400 443 402 446 403 450 C406 468 395 482 377 482 C362 482 352 474 343 461 C333 447 323 432 313 418 C297 427 277 432 254 432 C178 432 110 376 94 300 L52 100 C46 73 48 49 56 28 L48 16 C36 -3 22 -20 12 -39 C10 -42 8 -46 7 -50 C4 -67 15 -82 33 -82 L33 -82 Z M135 41 C185 117 236 193 286 269 L289 273 L252 100 C243 59 210 32 169 32 C156 32 144 35 135 41 L135 41 Z M122 127 L158 300 C168 345 202 368 247 368 C258 368 268 365 275 360 C274 358 273 356 272 355 C222 280 173 205 124 131 L122 127 Z " />
<glyph glyph-name="ugrave" unicode="&#xf9;" horiz-adv-x="350" d="M156 -32 L256 -32 C273 -32 291 -17 295 0 L380 400 C383 417 372 432 354 432 C337 432 319 417 316 400 L237 32 C208 33 174 32 163 32 C110 32 111 82 120 124 C138 208 157 292 175 377 C180 400 187 432 154 432 C137 432 119 417 116 400 L52 100 C36 24 80 -32 156 -32 L156 -32 Z M245 589 C246 582 275 483 277 479 C282 472 290 468 300 468 C317 468 335 483 338 500 C339 504 339 507 339 511 C338 519 309 617 306 621 C302 628 294 632 284 632 C267 632 249 617 246 600 C245 596 245 593 245 589 L245 589 Z " />
<glyph glyph-name="uacute" unicode="&#xfa;" horiz-adv-x="350" d="M156 -32 L256 -32 C273 -32 291 -17 295 0 L380 400 C383 417 372 432 354 432 C337 432 319 417 316 400 L237 32 C208 33 174 32 163 32 C110 32 111 82 120 124 C138 208 157 292 175 377 C180 400 187 432 154 432 C137 432 119 417 116 400 L52 100 C36 24 80 -32 156 -32 L156 -32 Z M250 468 C259 468 269 472 276 479 C280 483 351 582 355 589 C357 593 359 596 360 600 C363 617 352 632 334 632 C325 632 315 628 307 621 C304 617 233 519 229 511 C227 507 225 504 224 500 C221 483 232 468 250 468 L250 468 Z " />
<glyph glyph-name="ucircumflex" unicode="&#xfb;" horiz-adv-x="350" d="M156 -32 L256 -32 C273 -32 291 -17 295 0 L380 400 C383 417 372 432 354 432 C337 432 319 417 316 400 L237 32 C208 33 174 32 163 32 C110 32 111 82 120 124 C138 208 157 292 175 377 C180 400 187 432 154 432 C137 432 119 417 116 400 L52 100 C36 24 80 -32 156 -32 L156 -32 Z M175 468 C180 468 186 470 191 472 C203 478 276 541 292 554 L293 555 L293 554 C304 541 351 478 359 472 C364 470 369 468 375 468 C392 468 410 483 413 500 C415 508 414 515 410 521 C399 539 383 555 370 572 C356 589 344 609 328 625 C324 629 317 632 309 632 C302 632 294 629 287 625 C265 609 244 589 223 572 C203 555 180 539 161 521 C155 515 151 508 149 500 C146 483 157 468 175 468 L175 468 Z " />
<glyph glyph-name="udieresis" unicode="&#xfc;" horiz-adv-x="350" d="M156 -32 L256 -32 C273 -32 291 -17 295 0 L380 400 C383 417 372 432 354 432 C337 432 319 417 316 400 L237 32 C208 33 174 32 163 32 C110 32 111 82 120 124 C138 208 157 292 175 377 C180 400 187 432 154 432 C137 432 119 417 116 400 L52 100 C36 24 80 -32 156 -32 L156 -32 Z M360 518 C378 518 395 533 399 550 L410 600 C413 617 402 632 384 632 C367 632 349 617 346 600 L335 550 C331 533 343 518 360 518 L360 518 Z M210 518 C228 518 245 533 249 550 L260 600 C263 617 252 632 234 632 C217 632 199 617 196 600 L185 550 C181 533 193 518 210 518 L210 518 Z " />
<glyph glyph-name="yacute" unicode="&#xfd;" horiz-adv-x="325" d="M63 -232 C81 -232 94 -220 101 -204 L191 -10 C192 -8 192 -7 193 -6 L310 247 C323 275 375 380 379 400 C383 417 372 432 354 432 C337 432 324 420 316 404 L191 133 C186 254 179 415 179 416 C173 425 167 432 154 432 C137 432 119 417 115 400 C113 387 126 80 130 2 L107 -48 C95 -76 42 -181 38 -200 C34 -217 46 -232 63 -232 L63 -232 Z M237 468 C246 468 256 472 264 479 C268 483 339 582 343 589 C345 593 346 596 347 600 C351 617 339 632 322 632 C312 632 303 628 295 621 C284 610 216 517 212 500 C208 483 220 468 237 468 L237 468 Z " />
<glyph glyph-name="ydieresis" unicode="&#xff;" horiz-adv-x="325" d="M63 -232 C81 -232 94 -220 101 -204 L191 -10 C192 -8 192 -7 193 -6 L310 247 C323 275 375 380 379 400 C383 417 372 432 354 432 C337 432 324 420 316 404 L191 133 C186 254 179 415 179 416 C173 425 167 432 154 432 C137 432 119 417 115 400 C113 387 126 80 130 2 L107 -48 C95 -76 42 -181 38 -200 C34 -217 46 -232 63 -232 L63 -232 Z M348 518 C365 518 383 533 386 550 L397 600 C401 617 389 632 372 632 C354 632 337 617 333 600 L322 550 C319 533 330 518 348 518 L348 518 Z M198 518 C215 518 233 533 236 550 L247 600 C251 617 239 632 222 632 C204 632 187 617 183 600 L172 550 C169 533 180 518 198 518 L198 518 Z " />
<glyph glyph-name="Amacron" unicode="&#x100;" horiz-adv-x="425" d="M56 -32 C68 -32 79 -26 87 -16 C91 -11 111 31 127 68 L327 68 C328 31 329 -11 331 -16 C336 -26 344 -32 356 -32 C373 -32 391 -17 395 0 C399 20 391 125 390 152 L373 604 C372 620 364 632 347 632 C329 632 316 620 309 604 L100 152 C87 125 35 20 31 0 C27 -17 38 -32 56 -32 L56 -32 Z M156 132 L312 468 L325 132 L156 132 Z M265 717 L465 717 C482 717 500 732 504 749 C507 767 496 781 479 781 L279 781 C261 781 244 767 240 749 C236 732 248 717 265 717 L265 717 Z " />
<glyph glyph-name="amacron" unicode="&#x101;" horiz-adv-x="351" d="M63 77 C63 9 109 -32 176 -32 C193 -32 208 -17 208 0 C208 56 127 5 127 77 C127 113 140 151 148 186 L162 252 C166 270 168 288 174 305 C187 340 217 368 256 368 L309 368 C311 368 315 368 321 368 C298 264 243 10 243 0 C243 -17 258 -32 275 -32 C291 -32 298 -23 305 -11 C306 -9 379 328 391 390 C392 393 393 397 393 400 C393 417 378 432 361 432 L261 432 C192 432 138 390 114 327 C99 287 95 244 86 203 C77 162 63 119 63 77 L63 77 Z M186 518 L385 518 C403 518 421 533 424 550 C428 568 416 582 399 582 L199 582 C182 582 164 568 160 550 C157 533 168 518 186 518 L186 518 Z " />
<glyph glyph-name="Abreve" unicode="&#x102;" horiz-adv-x="425" d="M56 -32 C68 -32 79 -26 87 -16 C91 -11 111 31 127 68 L327 68 C328 31 329 -11 331 -16 C336 -26 344 -32 356 -32 C373 -32 391 -17 395 0 C399 20 391 125 390 152 L373 604 C372 620 364 632 347 632 C329 632 316 620 309 604 L100 152 C87 125 35 20 31 0 C27 -17 38 -32 56 -32 L56 -32 Z M156 132 L312 468 L325 132 L156 132 Z M354 667 C430 667 498 723 514 799 C518 816 507 831 489 831 C432 831 463 731 368 731 C273 731 346 831 289 831 C272 831 254 816 250 799 C234 723 278 667 354 667 L354 667 Z " />
<glyph glyph-name="abreve" unicode="&#x103;" horiz-adv-x="351" d="M63 77 C63 9 109 -32 176 -32 C193 -32 208 -17 208 0 C208 56 127 5 127 77 C127 113 140 151 148 186 L162 252 C166 270 168 288 174 305 C187 340 217 368 256 368 L309 368 C311 368 315 368 321 368 C298 264 243 10 243 0 C243 -17 258 -32 275 -32 C291 -32 298 -23 305 -11 C306 -9 379 328 391 390 C392 393 393 397 393 400 C393 417 378 432 361 432 L261 432 C192 432 138 390 114 327 C99 287 95 244 86 203 C77 162 63 119 63 77 L63 77 Z M275 468 C351 468 419 524 435 600 C439 617 427 632 410 632 C353 632 384 532 288 532 C193 532 267 632 210 632 C192 632 175 617 171 600 C155 524 199 468 275 468 L275 468 Z " />
<glyph glyph-name="Aogonek" unicode="&#x104;" horiz-adv-x="425" d="M56 -32 C68 -32 79 -26 87 -16 C91 -11 111 31 127 68 L327 68 C327 54 327 40 328 26 C270 10 222 -38 209 -100 L188 -200 C184 -217 196 -232 213 -232 C238 -232 250 -212 254 -192 C259 -170 262 -149 266 -128 C277 -78 296 -32 355 -32 C375 -32 394 -15 395 5 C398 33 391 126 390 152 L373 604 C372 620 364 632 347 632 C329 632 316 620 309 604 L100 152 C87 125 35 20 31 0 C27 -17 38 -32 56 -32 L56 -32 Z M156 132 L312 468 L325 132 L156 132 Z " />
<glyph glyph-name="aogonek" unicode="&#x105;" horiz-adv-x="351" d="M63 77 C63 20 95 -18 144 -29 C128 -49 115 -73 110 -100 L89 -200 C85 -217 96 -232 114 -232 C138 -232 150 -212 155 -192 C159 -170 162 -149 167 -128 C176 -84 195 -32 252 -32 C256 -32 261 -32 265 -30 C268 -31 272 -32 275 -32 C291 -32 298 -23 305 -11 C306 -9 379 328 391 390 C392 393 393 397 393 400 C393 417 378 432 361 432 L261 432 C192 432 138 390 114 327 C99 287 95 244 86 203 C77 162 63 119 63 77 L63 77 Z M204 17 C187 44 127 14 127 77 C127 113 140 151 148 186 L162 252 C166 270 168 288 174 305 C187 340 217 368 256 368 L309 368 C311 368 315 368 321 368 C302 284 263 103 249 31 C233 28 218 24 204 17 L204 17 Z " />
<glyph glyph-name="Cacute" unicode="&#x106;" horiz-adv-x="450" d="M59 98 C64 14 119 -32 206 -32 C292 -32 367 14 407 98 C416 115 423 133 426 150 C430 167 419 182 401 182 C366 182 363 145 352 121 C326 61 279 32 219 32 C182 32 146 44 133 78 C125 99 121 125 126 150 L190 450 C207 520 260 568 333 568 C393 568 428 539 428 479 C429 455 416 418 451 418 C469 418 487 433 490 450 C494 467 494 485 493 502 C488 586 433 632 347 632 C237 632 151 554 126 450 L62 150 C59 133 59 115 59 98 L59 98 Z M342 667 C351 667 361 671 369 678 C373 682 444 781 448 788 C450 792 451 795 452 799 C456 816 444 831 427 831 C417 831 407 827 400 820 C391 811 317 710 317 699 C313 682 324 667 342 667 L342 667 Z " />
<glyph glyph-name="cacute" unicode="&#x107;" horiz-adv-x="350" d="M156 -32 C232 -32 300 24 316 100 C320 117 308 132 291 132 C233 132 265 32 169 32 C129 32 107 59 116 100 L158 300 C167 341 200 368 241 368 C336 368 262 268 320 268 C337 268 355 283 358 300 C374 376 330 432 254 432 C178 432 110 376 94 300 L52 100 C36 24 80 -32 156 -32 L156 -32 Z M250 468 C259 468 269 472 276 479 C280 483 351 582 355 589 C357 593 359 596 360 600 C363 617 352 632 334 632 C325 632 315 628 307 621 C304 617 233 519 229 511 C227 507 225 504 224 500 C221 483 232 468 250 468 L250 468 Z " />
<glyph glyph-name="Ccircumflex" unicode="&#x108;" horiz-adv-x="450" d="M59 98 C64 14 119 -32 206 -32 C292 -32 367 14 407 98 C416 115 423 133 426 150 C430 167 419 182 401 182 C366 182 363 145 352 121 C326 61 279 32 219 32 C182 32 146 44 133 78 C125 99 121 125 126 150 L190 450 C207 520 260 568 333 568 C393 568 428 539 428 479 C429 455 416 418 451 418 C469 418 487 433 490 450 C494 467 494 485 493 502 C488 586 433 632 347 632 C237 632 151 554 126 450 L62 150 C59 133 59 115 59 98 L59 98 Z M267 667 C272 667 278 669 284 671 C295 677 368 740 385 753 L385 754 L386 753 C396 740 443 677 452 671 C456 669 461 667 467 667 C484 667 502 682 506 699 C507 707 506 714 503 720 C492 738 476 754 462 771 C449 788 437 808 421 824 C416 828 409 831 402 831 C394 831 386 828 380 824 C357 808 337 788 316 771 C295 754 272 738 254 720 C248 714 243 707 242 699 C238 682 249 667 267 667 L267 667 Z " />
<glyph glyph-name="ccircumflex" unicode="&#x109;" horiz-adv-x="350" d="M156 -32 C232 -32 300 24 316 100 C320 117 308 132 291 132 C233 132 265 32 169 32 C129 32 107 59 116 100 L158 300 C167 341 200 368 241 368 C336 368 262 268 320 268 C337 268 355 283 358 300 C374 376 330 432 254 432 C178 432 110 376 94 300 L52 100 C36 24 80 -32 156 -32 L156 -32 Z M175 468 C180 468 186 470 191 472 C203 478 276 541 292 554 L293 555 L293 554 C304 541 351 478 359 472 C364 470 369 468 375 468 C392 468 410 483 413 500 C415 508 414 515 410 521 C399 539 383 555 370 572 C356 589 344 609 328 625 C324 629 317 632 309 632 C302 632 294 629 287 625 C265 609 244 589 223 572 C203 555 180 539 161 521 C155 515 151 508 149 500 C146 483 157 468 175 468 L175 468 Z " />
<glyph glyph-name="Cdotaccent" unicode="&#x10a;" horiz-adv-x="450" d="M59 98 C64 14 119 -32 206 -32 C292 -32 367 14 407 98 C416 115 423 133 426 150 C430 167 419 182 401 182 C366 182 363 145 352 121 C326 61 279 32 219 32 C182 32 146 44 133 78 C125 99 121 125 126 150 L190 450 C207 520 260 568 333 568 C393 568 428 539 428 479 C429 455 416 418 451 418 C469 418 487 433 490 450 C494 467 494 485 493 502 C488 586 433 632 347 632 C237 632 151 554 126 450 L62 150 C59 133 59 115 59 98 L59 98 Z M377 717 C395 717 413 732 416 749 L427 799 C431 816 419 831 402 831 C384 831 367 816 363 799 L352 749 C349 732 360 717 377 717 L377 717 Z " />
<glyph glyph-name="cdotaccent" unicode="&#x10b;" horiz-adv-x="350" d="M156 -32 C232 -32 300 24 316 100 C320 117 308 132 291 132 C233 132 265 32 169 32 C129 32 107 59 116 100 L158 300 C167 341 200 368 241 368 C336 368 262 268 320 268 C337 268 355 283 358 300 C374 376 330 432 254 432 C178 432 110 376 94 300 L52 100 C36 24 80 -32 156 -32 L156 -32 Z M285 518 C303 518 320 533 324 550 L335 600 C338 617 327 632 309 632 C292 632 274 617 271 600 L260 550 C256 533 268 518 285 518 L285 518 Z " />
<glyph glyph-name="Ccaron" unicode="&#x10c;" horiz-adv-x="450" d="M59 98 C64 14 119 -32 206 -32 C292 -32 367 14 407 98 C416 115 423 133 426 150 C430 167 419 182 401 182 C366 182 363 145 352 121 C326 61 279 32 219 32 C182 32 146 44 133 78 C125 99 121 125 126 150 L190 450 C207 520 260 568 333 568 C393 568 428 539 428 479 C429 455 416 418 451 418 C469 418 487 433 490 450 C494 467 494 485 493 502 C488 586 433 632 347 632 C237 632 151 554 126 450 L62 150 C59 133 59 115 59 98 L59 98 Z M266 778 C277 760 293 744 306 727 C320 710 332 690 348 675 C353 670 359 667 367 667 C374 667 382 670 389 675 C412 690 432 710 453 727 C473 744 496 760 515 778 C521 784 525 792 527 799 C531 816 519 831 502 831 C496 831 490 829 485 827 C474 821 400 758 384 745 L383 744 L383 745 C372 758 326 821 317 827 C312 829 307 831 302 831 C284 831 267 816 263 799 C261 792 263 784 266 778 L266 778 Z " />
<glyph glyph-name="ccaron" unicode="&#x10d;" horiz-adv-x="350" d="M156 -32 C232 -32 300 24 316 100 C320 117 308 132 291 132 C233 132 265 32 169 32 C129 32 107 59 116 100 L158 300 C167 341 200 368 241 368 C336 368 262 268 320 268 C337 268 355 283 358 300 C374 376 330 432 254 432 C178 432 110 376 94 300 L52 100 C36 24 80 -32 156 -32 L156 -32 Z M174 579 C180 568 246 485 256 476 C260 471 267 468 275 468 C282 468 290 471 297 476 C319 491 340 511 361 528 C381 545 404 561 423 579 C429 585 433 593 435 600 C438 617 427 632 409 632 C404 632 398 630 392 628 C381 622 308 559 292 546 L291 545 L291 546 C280 559 233 622 225 628 C220 630 215 632 209 632 C192 632 174 617 171 600 C169 593 170 585 174 579 L174 579 Z " />
<glyph glyph-name="Dcaron" unicode="&#x10e;" horiz-adv-x="450" d="M56 -32 C79 -32 92 -14 96 7 L215 568 L333 568 C358 568 382 559 401 546 C430 527 434 487 426 450 L362 150 C349 88 294 32 228 32 L203 32 C178 32 138 37 131 0 C127 -17 138 -32 156 -32 L206 -32 C292 -32 367 14 407 98 C416 115 423 133 426 150 L490 450 C509 537 476 601 397 624 C381 629 364 632 347 632 L197 632 C179 632 162 617 158 600 L31 0 C27 -17 38 -32 56 -32 L56 -32 Z M266 778 C277 760 293 744 306 727 C320 710 332 690 348 675 C353 670 359 667 367 667 C374 667 382 670 389 675 C412 690 432 710 453 727 C473 744 496 760 515 778 C521 784 525 792 527 799 C531 816 519 831 502 831 C496 831 490 829 485 827 C474 821 400 758 384 745 L383 744 L383 745 C372 758 326 821 317 827 C312 829 307 831 302 831 C284 831 267 816 263 799 C261 792 263 784 266 778 L266 778 Z " />
<glyph glyph-name="dcaron" unicode="&#x10f;" horiz-adv-x="447" d="M157 -32 C174 -32 192 -17 195 0 C200 23 184 32 164 32 C127 32 109 65 117 100 L159 300 C167 335 198 368 235 368 L310 368 C295 297 279 227 264 156 C261 142 229 -5 231 -11 C234 -23 242 -32 257 -32 C274 -32 292 -17 295 0 L423 600 C427 617 415 632 398 632 C380 632 363 617 359 600 L323 432 L255 432 C179 432 111 376 95 300 L53 100 C37 24 81 -32 157 -32 L157 -32 Z M463 368 C480 368 498 383 502 400 L544 600 C548 617 536 632 519 632 C501 632 484 617 480 600 L438 400 C434 383 445 368 463 368 L463 368 Z " />
<glyph glyph-name="Dcroat" unicode="&#x110;" horiz-adv-x="450" d="M56 -32 C79 -32 92 -14 96 7 L151 268 L294 268 C312 268 329 283 333 300 C337 317 325 332 308 332 L165 332 L215 568 L333 568 C358 568 382 559 401 546 C430 527 434 487 426 450 L362 150 C349 88 294 32 228 32 L203 32 C178 32 138 37 131 0 C127 -17 138 -32 156 -32 L206 -32 C292 -32 367 14 407 98 C416 115 423 133 426 150 L490 450 C509 537 476 601 397 624 C381 629 364 632 347 632 L197 632 C179 632 162 617 158 600 L101 332 L83 332 C66 332 48 317 44 300 C41 283 52 268 70 268 L87 268 L31 0 C27 -17 38 -32 56 -32 L56 -32 Z " />
<glyph glyph-name="dcroat" unicode="&#x111;" horiz-adv-x="351" d="M157 -32 C174 -32 192 -17 195 0 C200 23 184 32 164 32 C127 32 109 65 117 100 L159 300 C167 335 198 368 235 368 L310 368 C295 297 279 227 264 156 C261 142 229 -5 231 -11 C234 -23 242 -32 257 -32 C274 -32 292 -17 295 0 L406 518 L424 518 C441 518 459 533 462 550 C466 568 455 582 437 582 L419 582 L423 600 C427 617 415 632 398 632 C380 632 363 617 359 600 L355 582 L237 582 C220 582 202 568 199 550 C195 533 206 518 224 518 L342 518 L323 432 L255 432 C179 432 111 376 95 300 L53 100 C37 24 81 -32 157 -32 L157 -32 Z " />
<glyph glyph-name="Emacron" unicode="&#x112;" horiz-adv-x="400" d="M106 -32 L306 -32 C323 -32 341 -17 345 0 C351 30 325 32 303 32 C245 32 187 31 130 31 C113 31 101 32 106 53 L173 368 L291 368 C308 368 326 383 330 400 C333 417 322 432 304 432 L186 432 L215 568 C257 568 298 568 339 568 C351 568 437 567 445 570 C458 575 469 586 472 600 C476 617 464 632 447 632 L197 632 C179 632 162 617 158 600 L116 402 C116 401 116 401 115 398 L41 50 C31 3 59 -32 106 -32 L106 -32 Z M253 717 L452 717 C470 717 488 732 491 749 C495 767 483 781 466 781 L266 781 C249 781 231 767 227 749 C224 732 235 717 253 717 L253 717 Z " />
<glyph glyph-name="emacron" unicode="&#x113;" horiz-adv-x="351" d="M55 64 C59 3 98 -30 160 -30 C177 -30 193 -17 197 0 C200 12 194 25 183 29 C178 30 172 31 167 31 C151 31 135 37 127 49 C118 62 115 83 118 100 L161 300 C168 340 205 370 245 370 C264 370 282 365 292 351 C300 339 304 318 300 302 C291 262 262 231 220 231 C201 231 183 220 179 200 C175 184 186 170 203 170 C281 170 343 226 361 300 C363 312 364 325 363 336 C359 397 320 430 258 430 C196 430 142 397 113 336 C107 325 103 312 100 300 L57 100 C55 88 55 76 55 64 L55 64 Z M186 518 L385 518 C403 518 421 533 424 550 C428 568 416 582 399 582 L199 582 C182 582 164 568 160 550 C157 533 168 518 186 518 L186 518 Z " />
<glyph glyph-name="Ebreve" unicode="&#x114;" horiz-adv-x="400" d="M106 -32 L306 -32 C323 -32 341 -17 345 0 C351 30 325 32 303 32 C245 32 187 31 130 31 C113 31 101 32 106 53 L173 368 L291 368 C308 368 326 383 330 400 C333 417 322 432 304 432 L186 432 L215 568 C257 568 298 568 339 568 C351 568 437 567 445 570 C458 575 469 586 472 600 C476 617 464 632 447 632 L197 632 C179 632 162 617 158 600 L116 402 C116 401 116 401 115 398 L41 50 C31 3 59 -32 106 -32 L106 -32 Z M342 667 C418 667 486 723 502 799 C506 816 494 831 477 831 C420 831 451 731 355 731 C260 731 334 831 277 831 C259 831 242 816 238 799 C222 723 266 667 342 667 L342 667 Z " />
<glyph glyph-name="ebreve" unicode="&#x115;" horiz-adv-x="351" d="M55 64 C59 3 98 -30 160 -30 C177 -30 193 -17 197 0 C200 12 194 25 183 29 C178 30 172 31 167 31 C151 31 135 37 127 49 C118 62 115 83 118 100 L161 300 C168 340 205 370 245 370 C264 370 282 365 292 351 C300 339 304 318 300 302 C291 262 262 231 220 231 C201 231 183 220 179 200 C175 184 186 170 203 170 C281 170 343 226 361 300 C363 312 364 325 363 336 C359 397 320 430 258 430 C196 430 142 397 113 336 C107 325 103 312 100 300 L57 100 C55 88 55 76 55 64 L55 64 Z M275 468 C351 468 419 524 435 600 C439 617 427 632 410 632 C353 632 384 532 288 532 C193 532 267 632 210 632 C192 632 175 617 171 600 C155 524 199 468 275 468 L275 468 Z " />
<glyph glyph-name="Edotaccent" unicode="&#x116;" horiz-adv-x="400" d="M106 -32 L306 -32 C323 -32 341 -17 345 0 C351 30 325 32 303 32 C245 32 187 31 130 31 C113 31 101 32 106 53 L173 368 L291 368 C308 368 326 383 330 400 C333 417 322 432 304 432 L186 432 L215 568 C257 568 298 568 339 568 C351 568 437 567 445 570 C458 575 469 586 472 600 C476 617 464 632 447 632 L197 632 C179 632 162 617 158 600 L116 402 C116 401 116 401 115 398 L41 50 C31 3 59 -32 106 -32 L106 -32 Z M352 717 C370 717 388 732 391 749 L402 799 C406 816 394 831 377 831 C359 831 342 816 338 799 L327 749 C324 732 335 717 352 717 L352 717 Z " />
<glyph glyph-name="edotaccent" unicode="&#x117;" horiz-adv-x="351" d="M55 64 C59 3 98 -30 160 -30 C177 -30 193 -17 197 0 C200 12 194 25 183 29 C178 30 172 31 167 31 C151 31 135 37 127 49 C118 62 115 83 118 100 L161 300 C168 340 205 370 245 370 C264 370 282 365 292 351 C300 339 304 318 300 302 C291 262 262 231 220 231 C201 231 183 220 179 200 C175 184 186 170 203 170 C281 170 343 226 361 300 C363 312 364 325 363 336 C359 397 320 430 258 430 C196 430 142 397 113 336 C107 325 103 312 100 300 L57 100 C55 88 55 76 55 64 L55 64 Z M285 518 C303 518 321 533 324 550 L335 600 C339 617 327 632 310 632 C292 632 275 617 271 600 L260 550 C257 533 268 518 285 518 L285 518 Z " />
<glyph glyph-name="Eogonek" unicode="&#x118;" horiz-adv-x="400" d="M106 -32 L306 -32 C323 -32 341 -17 345 0 C351 30 325 32 303 32 C245 32 187 31 130 31 C113 31 101 32 106 53 L173 368 L291 368 C308 368 326 383 330 400 C333 417 322 432 304 432 L186 432 L215 568 C257 568 298 568 339 568 C351 568 437 567 445 570 C458 575 469 586 472 600 C476 617 464 632 447 632 L197 632 C179 632 162 617 158 600 L116 402 C116 401 116 401 115 398 L41 50 C31 3 59 -32 106 -32 L106 -32 Z " />
<glyph glyph-name="eogonek" unicode="&#x119;" horiz-adv-x="351" d="M51 -232 C75 -232 87 -212 92 -192 C96 -170 99 -149 104 -128 C113 -84 132 -32 189 -32 C208 -32 228 -21 232 0 C236 17 224 32 207 32 C198 32 188 31 179 30 C161 30 138 33 127 49 C118 62 115 83 118 100 L161 300 C168 340 205 370 245 370 C264 370 282 365 292 351 C300 339 304 318 300 302 C291 262 262 231 220 231 C201 231 183 220 179 200 C175 184 186 170 203 170 C281 170 343 226 361 300 C363 312 364 325 363 336 C359 397 320 430 258 430 C196 430 142 397 113 336 C107 325 103 312 100 300 L57 100 C55 88 55 76 55 64 C57 28 71 2 95 -14 C71 -36 54 -66 47 -100 L26 -200 C22 -217 33 -232 51 -232 L51 -232 Z " />
<glyph glyph-name="Ecaron" unicode="&#x11a;" horiz-adv-x="400" d="M106 -32 L306 -32 C323 -32 341 -17 345 0 C351 30 325 32 303 32 C245 32 187 31 130 31 C113 31 101 32 106 53 L173 368 L291 368 C308 368 326 383 330 400 C333 417 322 432 304 432 L186 432 L215 568 C257 568 298 568 339 568 C351 568 437 567 445 570 C458 575 469 586 472 600 C476 617 464 632 447 632 L197 632 C179 632 162 617 158 600 L116 402 C116 401 116 401 115 398 L41 50 C31 3 59 -32 106 -32 L106 -32 Z M241 778 C252 760 268 744 281 727 C295 710 307 690 323 675 C328 670 334 667 342 667 C349 667 357 670 364 675 C387 690 407 710 428 727 C448 744 471 760 490 778 C496 784 500 792 502 799 C506 816 494 831 477 831 C471 831 465 829 460 827 C449 821 375 758 359 745 L358 744 L358 745 C347 758 301 821 292 827 C287 829 282 831 277 831 C259 831 242 816 238 799 C236 792 238 784 241 778 L241 778 Z " />
<glyph glyph-name="ecaron" unicode="&#x11b;" horiz-adv-x="351" d="M55 64 C59 3 98 -30 160 -30 C177 -30 193 -17 197 0 C200 12 194 25 183 29 C178 30 172 31 167 31 C151 31 135 37 127 49 C118 62 115 83 118 100 L161 300 C168 340 205 370 245 370 C264 370 282 365 292 351 C300 339 304 318 300 302 C291 262 262 231 220 231 C201 231 183 220 179 200 C175 184 186 170 203 170 C281 170 343 226 361 300 C363 312 364 325 363 336 C359 397 320 430 258 430 C196 430 142 397 113 336 C107 325 103 312 100 300 L57 100 C55 88 55 76 55 64 L55 64 Z M174 579 C185 561 201 545 214 528 C228 511 240 491 256 476 C261 471 267 468 275 468 C282 468 290 471 297 476 C320 491 340 511 361 528 C381 545 404 561 423 579 C429 585 433 593 435 600 C439 617 427 632 410 632 C404 632 398 630 393 628 C382 622 308 559 292 546 L291 545 L291 546 C280 559 234 622 225 628 C220 630 215 632 210 632 C192 632 175 617 171 600 C169 593 171 585 174 579 L174 579 Z " />
<glyph glyph-name="Gcircumflex" unicode="&#x11c;" horiz-adv-x="450" d="M59 98 C64 14 119 -32 206 -32 C292 -32 367 14 407 98 C416 115 423 133 426 150 L458 300 C462 317 451 332 433 332 L333 332 C316 332 298 317 294 300 C287 264 325 268 349 268 C362 268 375 268 388 268 L362 150 C357 125 342 99 325 78 C298 44 256 32 219 32 C182 32 146 44 133 78 C125 99 121 125 126 150 L190 450 C207 520 260 568 333 568 C393 568 428 539 428 479 C429 455 416 418 451 418 C469 418 487 433 490 450 C494 467 494 485 493 502 C488 586 434 632 347 632 C237 632 151 554 126 450 L62 150 C59 133 59 115 59 98 L59 98 Z M267 667 C272 667 278 669 284 671 C295 677 368 740 385 753 L385 754 L386 753 C396 740 443 677 452 671 C456 669 461 667 467 667 C484 667 502 682 506 699 C507 707 506 714 503 720 C492 738 476 754 462 771 C449 788 437 808 421 824 C416 828 409 831 402 831 C394 831 386 828 380 824 C357 808 337 788 316 771 C295 754 272 738 254 720 C248 714 243 707 242 699 C238 682 249 667 267 667 L267 667 Z " />
<glyph glyph-name="gcircumflex" unicode="&#x11d;" horiz-adv-x="350" d="M50 77 C50 9 96 -32 163 -32 C180 -32 195 -17 195 0 C195 56 114 5 114 77 C114 113 127 151 135 186 L149 252 C153 270 155 288 161 305 C174 340 204 368 243 368 L296 368 C298 368 302 368 307 368 C304 353 302 340 301 334 L218 -49 C207 -106 195 -159 125 -167 C117 -168 109 -167 102 -169 C87 -171 76 -185 76 -200 C76 -217 90 -232 108 -232 C187 -232 248 -187 270 -111 C279 -79 284 -46 291 -14 L366 332 C370 354 380 378 380 400 C380 417 365 432 348 432 L248 432 C179 432 125 390 101 327 C86 287 82 244 73 203 C64 162 50 119 50 77 L50 77 Z M175 468 C180 468 186 470 191 472 C203 478 276 541 292 554 L293 555 L293 554 C304 541 351 478 359 472 C364 470 369 468 375 468 C392 468 410 483 413 500 C415 508 414 515 410 521 C399 539 383 555 370 572 C356 589 344 609 328 625 C324 629 317 632 309 632 C302 632 294 629 287 625 C265 609 244 589 223 572 C203 555 180 539 161 521 C155 515 151 508 149 500 C146 483 157 468 175 468 L175 468 Z " />
<glyph glyph-name="Gbreve" unicode="&#x11e;" horiz-adv-x="450" d="M59 98 C64 14 119 -32 206 -32 C292 -32 367 14 407 98 C416 115 423 133 426 150 L458 300 C462 317 451 332 433 332 L333 332 C316 332 298 317 294 300 C287 264 325 268 349 268 C362 268 375 268 388 268 L362 150 C357 125 342 99 325 78 C298 44 256 32 219 32 C182 32 146 44 133 78 C125 99 121 125 126 150 L190 450 C207 520 260 568 333 568 C393 568 428 539 428 479 C429 455 416 418 451 418 C469 418 487 433 490 450 C494 467 494 485 493 502 C488 586 434 632 347 632 C237 632 151 554 126 450 L62 150 C59 133 59 115 59 98 L59 98 Z M367 667 C443 667 511 723 527 799 C531 816 519 831 502 831 C445 831 476 731 380 731 C285 731 359 831 302 831 C284 831 267 816 263 799 C247 723 291 667 367 667 L367 667 Z " />
<glyph glyph-name="gbreve" unicode="&#x11f;" horiz-adv-x="350" d="M50 77 C50 9 96 -32 163 -32 C180 -32 195 -17 195 0 C195 56 114 5 114 77 C114 113 127 151 135 186 L149 252 C153 270 155 288 161 305 C174 340 204 368 243 368 L296 368 C298 368 302 368 307 368 C304 353 302 340 301 334 L218 -49 C207 -106 195 -159 125 -167 C117 -168 109 -167 102 -169 C87 -171 76 -185 76 -200 C76 -217 90 -232 108 -232 C187 -232 248 -187 270 -111 C279 -79 284 -46 291 -14 L366 332 C370 354 380 378 380 400 C380 417 365 432 348 432 L248 432 C179 432 125 390 101 327 C86 287 82 244 73 203 C64 162 50 119 50 77 L50 77 Z M275 468 C350 468 418 524 435 600 C438 617 427 632 409 632 C352 632 383 532 288 532 C193 532 266 632 209 632 C192 632 174 617 171 600 C154 524 199 468 275 468 L275 468 Z " />
<glyph glyph-name="Gdotaccent" unicode="&#x120;" horiz-adv-x="450" d="M59 98 C64 14 119 -32 206 -32 C292 -32 367 14 407 98 C416 115 423 133 426 150 L458 300 C462 317 451 332 433 332 L333 332 C316 332 298 317 294 300 C287 264 325 268 349 268 C362 268 375 268 388 268 L362 150 C357 125 342 99 325 78 C298 44 256 32 219 32 C182 32 146 44 133 78 C125 99 121 125 126 150 L190 450 C207 520 260 568 333 568 C393 568 428 539 428 479 C429 455 416 418 451 418 C469 418 487 433 490 450 C494 467 494 485 493 502 C488 586 434 632 347 632 C237 632 151 554 126 450 L62 150 C59 133 59 115 59 98 L59 98 Z M377 717 C395 717 413 732 416 749 L427 799 C431 816 419 831 402 831 C384 831 367 816 363 799 L352 749 C349 732 360 717 377 717 L377 717 Z " />
<glyph glyph-name="gdotaccent" unicode="&#x121;" horiz-adv-x="350" d="M50 77 C50 9 96 -32 163 -32 C180 -32 195 -17 195 0 C195 56 114 5 114 77 C114 113 127 151 135 186 L149 252 C153 270 155 288 161 305 C174 340 204 368 243 368 L296 368 C298 368 302 368 307 368 C304 353 302 340 301 334 L218 -49 C207 -106 195 -159 125 -167 C117 -168 109 -167 102 -169 C87 -171 76 -185 76 -200 C76 -217 90 -232 108 -232 C187 -232 248 -187 270 -111 C279 -79 284 -46 291 -14 L366 332 C370 354 380 378 380 400 C380 417 365 432 348 432 L248 432 C179 432 125 390 101 327 C86 287 82 244 73 203 C64 162 50 119 50 77 L50 77 Z M285 518 C303 518 320 533 324 550 L335 600 C338 617 327 632 309 632 C292 632 274 617 271 600 L260 550 C256 533 268 518 285 518 L285 518 Z " />
<glyph glyph-name="uni0122" unicode="&#x122;" horiz-adv-x="450" d="M59 98 C64 14 119 -32 206 -32 C292 -32 367 14 407 98 C416 115 423 133 426 150 L458 300 C462 317 451 332 433 332 L333 332 C316 332 298 317 294 300 C287 264 325 268 349 268 C362 268 375 268 388 268 L362 150 C357 125 342 99 325 78 C298 44 256 32 219 32 C182 32 146 44 133 78 C125 99 121 125 126 150 L190 450 C207 520 260 568 333 568 C393 568 428 539 428 479 C429 455 416 418 451 418 C469 418 487 433 490 450 C494 467 494 485 493 502 C488 586 434 632 347 632 C237 632 151 554 126 450 L62 150 C59 133 59 115 59 98 L59 98 Z " />
<glyph glyph-name="uni0123" unicode="&#x123;" horiz-adv-x="350" d="M163 -32 C180 -32 195 -17 195 0 C195 56 114 5 114 77 C114 113 127 151 135 186 L149 252 C153 270 155 288 161 305 C174 340 204 368 243 368 L296 368 C298 368 302 368 307 368 C304 353 302 340 301 334 L218 -49 C207 -106 195 -159 125 -167 C117 -168 109 -167 102 -169 C87 -171 76 -185 76 -200 C76 -217 90 -232 108 -232 C187 -232 248 -187 270 -111 C279 -79 284 -46 291 -14 L366 332 C370 354 380 378 380 400 C380 417 365 432 348 432 L248 432 C179 432 125 390 101 327 C86 287 82 244 73 203 C64 162 50 119 50 77 C50 9 96 -32 163 -32 L163 -32 Z M346 567 C363 567 381 582 384 599 C398 665 280 581 311 727 C315 748 321 769 325 791 C330 811 326 831 302 831 C284 831 267 816 263 799 L242 699 C226 623 270 567 346 567 L346 567 Z " />
<glyph glyph-name="Hcircumflex" unicode="&#x124;" horiz-adv-x="450" d="M56 -32 C73 -32 91 -17 95 0 L173 368 L409 368 L331 0 C327 -17 338 -32 356 -32 C373 -32 391 -17 395 0 L522 600 C526 617 514 632 497 632 C479 632 462 617 458 600 L422 432 L186 432 L222 600 C226 617 214 632 197 632 C179 632 162 617 158 600 L116 402 C116 401 115 399 115 398 L31 0 C27 -17 38 -32 56 -32 L56 -32 Z M267 667 C272 667 278 669 284 671 C295 677 368 740 385 753 L385 754 L386 753 C396 740 443 677 452 671 C456 669 461 667 467 667 C484 667 502 682 506 699 C507 707 506 714 503 720 C492 738 476 754 462 771 C449 788 437 808 421 824 C416 828 409 831 402 831 C394 831 386 828 380 824 C357 808 337 788 316 771 C295 754 272 738 254 720 C248 714 243 707 242 699 C238 682 249 667 267 667 L267 667 Z " />
<glyph glyph-name="hcircumflex" unicode="&#x125;" horiz-adv-x="350" d="M56 -32 C73 -32 91 -17 95 0 L173 368 C202 367 236 368 247 368 C300 368 299 318 290 276 C272 192 253 108 235 24 C230 0 223 -32 256 -32 C273 -32 291 -17 295 0 L358 300 C374 376 330 432 254 432 L186 432 L220 591 C246 611 291 649 303 659 L303 660 L304 659 C314 646 361 583 370 577 C374 575 379 573 385 573 C402 573 420 588 424 605 C425 613 424 620 421 626 C410 644 394 660 380 677 C367 694 355 714 339 730 C334 734 327 737 320 737 C312 737 304 734 298 730 C275 714 255 694 234 677 C213 660 190 644 172 626 C166 620 161 613 160 605 C159 604 158 602 158 600 L116 402 C116 401 116 401 115 398 L31 0 C27 -17 38 -32 56 -32 L56 -32 Z " />
<glyph glyph-name="Hbar" unicode="&#x126;" horiz-adv-x="450" d="M56 -32 C73 -32 91 -17 95 0 L173 368 L409 368 L331 0 C327 -17 338 -32 356 -32 C373 -32 391 -17 395 0 L522 600 C526 617 514 632 497 632 C479 632 462 617 458 600 L422 432 L186 432 L222 600 C226 617 214 632 197 632 C179 632 162 617 158 600 L116 402 C116 401 115 399 115 398 L31 0 C27 -17 38 -32 56 -32 L56 -32 Z M278 717 L477 717 C495 717 513 732 516 749 C520 767 508 781 491 781 L291 781 C274 781 256 767 252 749 C249 732 260 717 278 717 L278 717 Z " />
<glyph glyph-name="hbar" unicode="&#x127;" horiz-adv-x="350" d="M56 -32 C73 -32 91 -17 95 0 L173 368 C202 367 236 368 247 368 C300 368 299 318 290 276 C272 192 253 108 235 24 C230 0 223 -32 256 -32 C273 -32 291 -17 295 0 L358 300 C374 376 330 432 254 432 L186 432 L205 518 L322 518 C340 518 357 533 361 550 C365 568 353 582 336 582 L218 582 L222 600 C226 617 214 632 197 632 C179 632 162 617 158 600 L154 582 L136 582 C118 582 101 568 97 550 C93 533 105 518 122 518 L141 518 L116 402 C116 401 116 401 115 398 L31 0 C27 -17 38 -32 56 -32 L56 -32 Z " />
<glyph glyph-name="Itilde" unicode="&#x128;" horiz-adv-x="150" d="M56 -32 C73 -32 91 -17 95 0 L222 600 C226 617 214 632 197 632 C179 632 162 617 158 600 L31 0 C27 -17 38 -32 56 -32 L56 -32 Z M122 691 C129 691 136 693 142 697 C168 713 155 741 183 741 C210 741 213 691 272 691 C319 691 361 726 371 773 C375 790 364 805 346 805 C339 805 332 803 326 799 C300 783 313 755 286 755 C259 755 255 805 196 805 C150 805 107 770 97 723 C93 706 105 691 122 691 L122 691 Z " />
<glyph glyph-name="itilde" unicode="&#x129;" horiz-adv-x="150" d="M56 -32 C73 -32 91 -17 95 0 L180 400 C183 417 172 432 154 432 C137 432 119 417 116 400 L31 0 C27 -17 38 -32 56 -32 L56 -32 Z M80 492 C86 492 94 494 100 498 C125 514 113 542 140 542 C167 542 170 492 230 492 C276 492 319 527 329 574 C333 591 321 606 304 606 C297 606 290 604 283 600 C258 584 271 556 243 556 C216 556 213 606 154 606 C107 606 64 571 54 524 C51 507 62 492 80 492 L80 492 Z " />
<glyph glyph-name="Imacron" unicode="&#x12a;" horiz-adv-x="150" d="M56 -32 C73 -32 91 -17 95 0 L222 600 C226 617 214 632 197 632 C179 632 162 617 158 600 L31 0 C27 -17 38 -32 56 -32 L56 -32 Z M128 717 L327 717 C345 717 363 732 366 749 C370 767 358 781 341 781 L141 781 C124 781 106 767 102 749 C99 732 110 717 128 717 L128 717 Z " />
<glyph glyph-name="imacron" unicode="&#x12b;" horiz-adv-x="150" d="M56 -32 C73 -32 91 -17 95 0 L180 400 C183 417 172 432 154 432 C137 432 119 417 116 400 L31 0 C27 -17 38 -32 56 -32 L56 -32 Z M85 518 L285 518 C303 518 320 533 324 550 C328 568 316 582 299 582 L99 582 C81 582 64 568 60 550 C56 533 68 518 85 518 L85 518 Z " />
<glyph glyph-name="Ibreve" unicode="&#x12c;" horiz-adv-x="150" d="M56 -32 C73 -32 91 -17 95 0 L222 600 C226 617 214 632 197 632 C179 632 162 617 158 600 L31 0 C27 -17 38 -32 56 -32 L56 -32 Z M217 667 C293 667 361 723 377 799 C381 816 369 831 352 831 C295 831 326 731 230 731 C135 731 209 831 152 831 C134 831 117 816 113 799 C97 723 141 667 217 667 L217 667 Z " />
<glyph glyph-name="ibreve" unicode="&#x12d;" horiz-adv-x="150" d="M56 -32 C73 -32 91 -17 95 0 L180 400 C183 417 172 432 154 432 C137 432 119 417 116 400 L31 0 C27 -17 38 -32 56 -32 L56 -32 Z M175 468 C250 468 318 524 335 600 C338 617 327 632 309 632 C252 632 283 532 188 532 C93 532 166 632 109 632 C92 632 74 617 71 600 C54 524 99 468 175 468 L175 468 Z " />
<glyph glyph-name="Iogonek" unicode="&#x12e;" horiz-adv-x="150" d="M-87 -232 C-62 -232 -50 -212 -46 -192 C-42 -170 -38 -149 -34 -128 C-23 -78 -4 -32 55 -32 C74 -32 91 -17 95 0 L222 600 C226 617 214 632 197 632 C179 632 162 617 158 600 L37 28 C-25 15 -77 -35 -91 -100 L-112 -200 C-116 -217 -104 -232 -87 -232 L-87 -232 Z " />
<glyph glyph-name="iogonek" unicode="&#x12f;" horiz-adv-x="150" d="M-86 -232 C-62 -232 -50 -212 -46 -192 C-41 -170 -38 -149 -33 -128 C-23 -78 -3 -32 55 -32 C75 -32 95 -14 96 6 L180 400 C183 417 172 432 154 432 C137 432 119 417 116 400 L37 28 C-25 15 -77 -35 -90 -100 L-112 -200 C-115 -217 -104 -232 -86 -232 L-86 -232 Z M173 518 C190 518 208 533 211 550 L222 600 C226 617 214 632 197 632 C179 632 162 617 158 600 L147 550 C144 533 155 518 173 518 L173 518 Z " />
<glyph glyph-name="Idotaccent" unicode="&#x130;" horiz-adv-x="150" d="M56 -32 C73 -32 91 -17 95 0 L222 600 C226 617 214 632 197 632 C179 632 162 617 158 600 L31 0 C27 -17 38 -32 56 -32 L56 -32 Z M227 717 C245 717 263 732 266 749 L277 799 C281 816 269 831 252 831 C234 831 217 816 213 799 L202 749 C199 732 210 717 227 717 L227 717 Z " />
<glyph glyph-name="dotlessi" unicode="&#x131;" horiz-adv-x="150" d="M56 -32 C73 -32 91 -17 95 0 L180 400 C183 417 172 432 154 432 C137 432 119 417 116 400 L31 0 C27 -17 38 -32 56 -32 L56 -32 Z " />
<glyph glyph-name="IJ" unicode="&#x132;" horiz-adv-x="375" d="M138 -32 C235 -32 308 26 342 116 C356 153 361 192 369 231 L403 387 L434 536 C438 556 447 579 447 600 C447 617 432 632 415 632 C389 632 385 610 380 589 L297 200 C293 179 290 158 282 138 C258 73 208 32 138 32 C82 32 49 57 49 115 C49 127 51 138 51 150 C51 167 37 182 19 182 C-15 182 -15 140 -15 115 C-15 22 46 -32 138 -32 L138 -32 Z M30 350 C30 333 45 318 62 318 C74 318 83 324 90 334 C92 338 147 586 147 600 C147 617 133 632 115 632 C103 632 94 626 87 616 C85 613 30 364 30 350 L30 350 Z " />
<glyph glyph-name="ij" unicode="&#x133;" horiz-adv-x="300" d="M-43 -123 C-43 -191 3 -232 70 -232 C147 -232 201 -182 221 -111 C230 -80 235 -49 242 -17 L315 329 C320 352 330 377 330 400 C330 417 315 432 298 432 C286 432 276 426 270 416 C265 408 250 328 246 312 L189 41 C180 0 167 -92 147 -125 C129 -153 103 -168 70 -168 C39 -168 21 -156 21 -123 C21 -115 23 -108 23 -100 C23 -83 9 -68 -9 -68 C-40 -68 -43 -100 -43 -123 L-43 -123 Z M2 100 C2 83 16 68 34 68 C45 68 56 74 62 84 C64 89 130 384 130 400 C130 417 115 432 98 432 C86 432 76 426 70 416 C67 411 2 116 2 100 L2 100 Z M297 550 C297 533 312 518 329 518 C360 518 362 549 367 571 C369 581 372 590 372 600 C372 617 357 632 340 632 C310 632 308 602 303 579 C301 569 297 560 297 550 L297 550 Z M97 550 C97 533 112 518 129 518 C160 518 162 549 167 571 C169 581 172 590 172 600 C172 617 157 632 140 632 C110 632 108 602 103 579 C101 569 97 560 97 550 L97 550 Z " />
<glyph glyph-name="Jcircumflex" unicode="&#x134;" horiz-adv-x="450" d="M59 98 C65 14 119 -32 206 -32 C292 -32 367 14 407 98 C416 115 423 133 426 150 L522 600 C526 617 514 632 497 632 C472 632 461 612 456 590 L366 166 C350 88 302 32 219 32 C159 32 125 61 124 121 C124 145 137 182 101 182 C84 182 66 167 62 150 C59 133 58 115 59 98 L59 98 Z M402 667 C407 667 413 669 419 671 C430 677 503 740 520 753 L520 754 L521 753 C531 740 578 677 587 671 C591 669 596 667 602 667 C619 667 637 682 641 699 C642 707 641 714 638 720 C627 738 611 754 597 771 C584 788 572 808 556 824 C551 828 544 831 537 831 C529 831 521 828 515 824 C492 808 472 788 451 771 C430 754 407 738 389 720 C383 714 378 707 377 699 C373 682 384 667 402 667 L402 667 Z " />
<glyph glyph-name="jcircumflex" unicode="&#x135;" horiz-adv-x="175" d="M-37 -200 C-37 -217 -22 -232 -5 -232 C72 -232 126 -182 146 -111 C155 -80 160 -49 167 -17 L240 329 C245 352 255 377 255 400 C255 417 240 432 223 432 C211 432 201 426 195 416 C190 408 175 328 171 312 L114 41 C106 5 90 -90 75 -118 C60 -147 33 -168 0 -168 C-20 -168 -37 -179 -37 -200 L-37 -200 Z M137 468 C143 468 148 470 154 472 C165 478 239 541 255 554 L256 555 L256 554 C266 541 313 478 322 472 C326 470 331 468 337 468 C354 468 372 483 376 500 C377 508 376 515 373 521 C362 539 346 555 332 572 C319 589 307 609 291 625 C286 629 279 632 272 632 C264 632 257 629 250 625 C227 609 207 589 186 572 C165 555 142 539 124 521 C118 515 113 508 112 500 C108 483 120 468 137 468 L137 468 Z " />
<glyph glyph-name="uni0136" unicode="&#x136;" horiz-adv-x="450" d="M56 -32 C73 -32 91 -17 95 0 L155 285 C173 299 191 316 202 325 L227 346 L330 -12 C334 -24 342 -32 356 -32 C373 -32 391 -17 395 0 C398 15 387 40 383 54 L285 394 L452 531 C471 547 517 578 522 600 C526 617 514 632 497 632 C474 632 434 591 414 575 L175 377 L222 600 C226 617 214 632 197 632 C179 632 162 617 158 600 L31 0 C27 -17 38 -32 56 -32 L56 -32 Z " />
<glyph glyph-name="uni0137" unicode="&#x137;" horiz-adv-x="350" d="M56 -32 C73 -32 91 -17 95 0 L154 280 C165 284 179 291 194 298 C194 295 194 292 194 289 C199 219 211 150 219 81 C221 61 226 -2 231 -16 C236 -26 244 -32 256 -32 C273 -32 291 -17 295 0 C295 4 295 7 295 11 C290 81 278 150 270 219 C267 239 263 302 257 316 C256 319 254 322 252 324 C308 349 361 374 363 376 C371 382 377 390 380 400 C383 417 372 432 354 432 C351 432 347 431 343 430 C334 427 235 382 169 352 L222 600 C226 617 214 632 197 632 C180 632 162 617 158 600 L31 0 C27 -17 38 -32 56 -32 L56 -32 Z " />
<glyph glyph-name="kgreenlandic" unicode="&#x138;" horiz-adv-x="400" d="M56 -32 C73 -32 91 -17 95 0 L144 231 C160 239 176 249 186 254 L190 257 C196 236 204 216 211 196 L253 70 C260 47 272 -4 284 -21 C288 -28 296 -32 306 -32 C323 -32 341 -17 345 0 C346 6 345 11 344 16 C338 37 330 58 323 79 L281 205 C274 226 263 269 253 290 L380 358 C400 368 424 376 430 400 C433 417 422 432 404 432 C388 432 345 405 328 396 L160 307 L180 400 C183 417 172 432 154 432 C137 432 119 417 116 400 L31 0 C27 -17 38 -32 56 -32 L56 -32 Z " />
<glyph glyph-name="Lacute" unicode="&#x139;" horiz-adv-x="412" d="M101 32 L222 600 C226 617 214 632 197 632 C179 632 162 617 158 600 L31 0 C27 -17 38 -32 56 -32 L356 -32 C373 -32 391 -17 395 0 C398 17 387 32 369 32 L101 32 Z M298 699 C294 682 305 667 323 667 C332 667 342 671 350 678 C354 682 425 781 429 788 C431 792 432 795 433 799 C437 816 425 831 408 831 C398 831 388 827 381 820 C372 811 298 710 298 699 L298 699 Z " />
<glyph glyph-name="lacute" unicode="&#x13a;" horiz-adv-x="150" d="M56 -32 C73 -32 91 -17 95 0 L222 600 C226 617 214 632 197 632 C179 632 162 617 158 600 L31 0 C27 -17 38 -32 56 -32 L56 -32 Z M192 668 C202 668 211 672 219 679 C223 683 294 782 298 789 C300 793 301 796 302 800 C306 817 294 832 277 832 C267 832 258 828 250 821 C239 810 171 717 167 700 C163 683 175 668 192 668 L192 668 Z " />
<glyph glyph-name="uni013B" unicode="&#x13b;" horiz-adv-x="412" d="M101 32 L222 600 C226 617 214 632 197 632 C179 632 162 617 158 600 L31 0 C27 -17 38 -32 56 -32 L356 -32 C373 -32 391 -17 395 0 C398 17 387 32 369 32 L101 32 Z " />
<glyph glyph-name="uni013C" unicode="&#x13c;" horiz-adv-x="150" d="M56 -32 C73 -32 91 -17 95 0 L222 600 C226 617 214 632 197 632 C179 632 162 617 158 600 L31 0 C27 -17 38 -32 56 -32 L56 -32 Z " />
<glyph glyph-name="Lcaron" unicode="&#x13d;" horiz-adv-x="412" d="M101 32 L222 600 C226 617 214 632 197 632 C179 632 162 617 158 600 L31 0 C27 -17 38 -32 56 -32 L356 -32 C373 -32 391 -17 395 0 C398 17 387 32 369 32 L101 32 Z M437 699 C453 775 409 831 333 831 C315 831 298 816 294 799 C280 733 399 817 368 671 C363 650 357 629 353 608 C349 587 352 567 377 567 C394 567 412 582 415 599 L437 699 Z " />
<glyph glyph-name="lcaron" unicode="&#x13e;" horiz-adv-x="325" d="M56 -32 C73 -32 91 -17 95 0 L222 600 C226 617 214 632 197 632 C179 632 162 617 158 600 L31 0 C27 -17 38 -32 56 -32 L56 -32 Z M332 472 C327 451 322 430 317 409 C313 388 316 368 341 368 C358 368 376 383 380 400 L401 500 C417 576 373 632 297 632 C279 632 262 617 258 600 C244 534 363 618 332 472 L332 472 Z " />
<glyph glyph-name="Ldot" unicode="&#x13f;" horiz-adv-x="412" d="M289 181 C265 181 250 201 255 225 C260 248 283 268 307 268 C326 268 342 253 342 234 C342 231 341 228 341 225 C340 221 339 218 338 215 C330 196 308 181 289 181 L289 181 Z M101 32 L222 600 C226 617 214 632 197 632 C179 632 162 617 158 600 L31 0 C27 -17 38 -32 56 -32 L356 -32 C373 -32 391 -17 395 0 C398 17 387 32 369 32 L101 32 Z M405 225 C417 283 379 332 321 332 C262 332 203 283 191 225 C178 166 216 117 275 117 C334 117 392 166 405 225 L405 225 Z " />
<glyph glyph-name="ldot" unicode="&#x140;" horiz-adv-x="375" d="M56 -32 C73 -32 91 -17 95 0 L222 600 C226 617 214 632 197 632 C179 632 162 617 158 600 L31 0 C27 -17 38 -32 56 -32 L56 -32 Z M263 117 C321 117 380 166 392 225 C405 283 367 332 308 332 C249 332 191 283 178 225 C166 166 204 117 263 117 L263 117 Z M242 225 C247 248 271 268 295 268 C314 268 330 253 329 234 C329 231 329 227 328 224 C322 201 302 181 276 181 C253 181 237 201 242 225 L242 225 Z " />
<glyph glyph-name="Lslash" unicode="&#x141;" horiz-adv-x="412" d="M76 215 L31 0 C27 -17 38 -32 56 -32 L356 -32 C373 -32 391 -17 395 0 C398 17 387 32 369 32 L101 32 L140 215 L258 215 C275 215 293 230 296 247 C300 264 289 279 271 279 L154 279 L222 600 C226 617 214 632 197 632 C179 632 162 617 158 600 L90 279 L72 279 C54 279 36 264 33 247 C29 230 40 215 58 215 L76 215 Z " />
<glyph glyph-name="lslash" unicode="&#x142;" horiz-adv-x="150" d="M21 215 L76 215 L31 0 C27 -17 38 -32 56 -32 C73 -32 91 -17 95 0 L140 215 L221 215 C238 215 256 230 259 247 C263 264 252 279 234 279 L154 279 L222 600 C226 617 214 632 197 632 C179 632 162 617 158 600 L90 279 L35 279 C17 279 -1 264 -4 247 C-8 230 3 215 21 215 L21 215 Z " />
<glyph glyph-name="Nacute" unicode="&#x143;" horiz-adv-x="450" d="M56 -32 C79 -32 92 -14 96 7 L209 540 L355 427 C366 419 390 396 412 382 L331 0 C327 -17 338 -32 356 -32 C373 -32 391 -17 395 0 L522 600 C526 617 514 632 497 632 C479 632 462 617 458 600 L428 460 L258 592 C245 602 215 632 197 632 C179 632 162 617 158 600 L31 0 C27 -17 38 -32 56 -32 L56 -32 Z M342 667 C351 667 361 671 369 678 C373 682 444 781 448 788 C450 792 451 795 452 799 C456 816 444 831 427 831 C417 831 407 827 400 820 C391 811 317 710 317 699 C313 682 324 667 342 667 L342 667 Z " />
<glyph glyph-name="nacute" unicode="&#x144;" horiz-adv-x="350" d="M56 -32 C73 -32 91 -17 95 0 L173 368 C202 367 236 368 247 368 C300 368 299 318 290 276 C272 192 253 108 235 24 C230 0 223 -32 256 -32 C273 -32 291 -17 295 0 L358 300 C374 376 330 432 254 432 L154 432 C137 432 119 417 116 400 L31 0 C27 -17 38 -32 56 -32 L56 -32 Z M250 468 C259 468 269 472 276 479 C280 483 351 582 355 589 C357 593 359 596 360 600 C363 617 352 632 334 632 C325 632 315 628 307 621 C304 617 233 519 229 511 C227 507 225 504 224 500 C221 483 232 468 250 468 L250 468 Z " />
<glyph glyph-name="uni0145" unicode="&#x145;" horiz-adv-x="450" d="M56 -32 C79 -32 92 -14 96 7 L209 540 L355 427 C366 419 390 396 412 382 L331 0 C327 -17 338 -32 356 -32 C373 -32 391 -17 395 0 L522 600 C526 617 514 632 497 632 C479 632 462 617 458 600 L428 460 L258 592 C245 602 215 632 197 632 C179 632 162 617 158 600 L31 0 C27 -17 38 -32 56 -32 L56 -32 Z " />
<glyph glyph-name="uni0146" unicode="&#x146;" horiz-adv-x="350" d="M56 -32 C73 -32 91 -17 95 0 L173 368 C202 367 236 368 247 368 C300 368 299 318 290 276 C272 192 253 108 235 24 C230 0 223 -32 256 -32 C273 -32 291 -17 295 0 L358 300 C374 376 330 432 254 432 L154 432 C137 432 119 417 116 400 L31 0 C27 -17 38 -32 56 -32 L56 -32 Z " />
<glyph glyph-name="Ncaron" unicode="&#x147;" horiz-adv-x="450" d="M56 -32 C79 -32 92 -14 96 7 L209 540 L355 427 C366 419 390 396 412 382 L331 0 C327 -17 338 -32 356 -32 C373 -32 391 -17 395 0 L522 600 C526 617 514 632 497 632 C479 632 462 617 458 600 L428 460 L258 592 C245 602 215 632 197 632 C179 632 162 617 158 600 L31 0 C27 -17 38 -32 56 -32 L56 -32 Z M266 778 C277 760 293 744 306 727 C320 710 332 690 348 675 C353 670 359 667 367 667 C374 667 382 670 389 675 C412 690 432 710 453 727 C473 744 496 760 515 778 C521 784 525 792 527 799 C531 816 519 831 502 831 C496 831 490 829 485 827 C474 821 400 758 384 745 L383 744 L383 745 C372 758 326 821 317 827 C312 829 307 831 302 831 C284 831 267 816 263 799 C261 792 263 784 266 778 L266 778 Z " />
<glyph glyph-name="ncaron" unicode="&#x148;" horiz-adv-x="350" d="M56 -32 C73 -32 91 -17 95 0 L173 368 C202 367 236 368 247 368 C300 368 299 318 290 276 C272 192 253 108 235 24 C230 0 223 -32 256 -32 C273 -32 291 -17 295 0 L358 300 C374 376 330 432 254 432 L154 432 C137 432 119 417 116 400 L31 0 C27 -17 38 -32 56 -32 L56 -32 Z M174 579 C185 561 201 545 214 528 C228 511 240 491 256 476 C260 471 267 468 275 468 C282 468 290 471 297 476 C319 491 340 511 361 528 C381 545 404 561 423 579 C429 585 433 593 435 600 C438 617 427 632 409 632 C404 632 398 630 392 628 C381 622 308 559 292 546 L291 545 L291 546 C280 559 233 622 225 628 C220 630 215 632 209 632 C192 632 174 617 171 600 C169 593 170 585 174 579 L174 579 Z " />
<glyph glyph-name="napostrophe" unicode="&#x149;" horiz-adv-x="350" d="M56 -32 C73 -32 91 -17 95 0 L173 368 C202 367 236 368 247 368 C300 368 299 318 290 276 C272 192 253 108 235 24 C230 0 223 -32 256 -32 C273 -32 291 -17 295 0 L358 300 C374 376 330 432 254 432 L154 432 C137 432 119 417 116 400 L31 0 C27 -17 38 -32 56 -32 L56 -32 Z M31 472 C27 451 21 430 17 409 C12 388 16 368 40 368 C58 368 75 383 79 400 L100 500 C116 576 72 632 -4 632 C-21 632 -39 617 -42 600 C-56 534 62 618 31 472 L31 472 Z " />
<glyph glyph-name="Eng" unicode="&#x14a;" horiz-adv-x="450" d="M31 0 C31 -17 45 -32 63 -32 C85 -32 92 -15 96 4 L211 543 L361 427 C376 415 394 398 412 385 L326 -19 C320 -48 313 -94 300 -118 C285 -147 258 -168 225 -168 C205 -168 188 -179 188 -200 C188 -217 203 -232 220 -232 C298 -232 355 -179 373 -106 C386 -51 396 5 408 60 L479 393 L509 538 C514 558 522 579 522 600 C522 617 507 632 490 632 C461 632 458 605 454 583 L427 457 C353 515 214 624 206 628 C201 630 196 632 190 632 C173 632 162 620 158 604 L41 54 C38 37 31 18 31 0 L31 0 Z " />
<glyph glyph-name="eng" unicode="&#x14b;" horiz-adv-x="350" d="M63 -32 C75 -32 84 -26 90 -16 C96 -7 164 324 173 368 L248 368 C278 368 296 356 296 323 C296 299 289 276 284 253 L225 -21 C220 -49 213 -94 200 -118 C185 -147 158 -168 125 -168 C105 -168 88 -179 88 -200 C88 -217 103 -232 120 -232 C229 -232 268 -147 283 -56 L343 224 C350 257 360 289 360 323 C360 391 314 432 248 432 L148 432 C133 432 123 423 118 411 C114 403 31 11 31 0 C31 -17 45 -32 63 -32 L63 -32 Z " />
<glyph glyph-name="Omacron" unicode="&#x14c;" horiz-adv-x="450" d="M59 98 C64 14 119 -32 206 -32 C292 -32 367 14 407 98 C416 115 423 133 426 150 L490 450 C494 467 494 485 493 502 C488 586 433 632 347 632 C237 632 151 554 126 450 L62 150 C59 133 59 115 59 98 L59 98 Z M126 150 L190 450 C203 512 259 568 324 568 C327 568 331 568 334 568 C337 568 341 568 344 568 C408 568 439 511 426 450 L362 150 C357 125 342 99 325 78 C298 44 256 32 219 32 C182 32 146 44 133 78 C125 99 121 125 126 150 L126 150 Z M278 717 L477 717 C495 717 513 732 516 749 C520 767 508 781 491 781 L291 781 C274 781 256 767 252 749 C249 732 260 717 278 717 L278 717 Z " />
<glyph glyph-name="omacron" unicode="&#x14d;" horiz-adv-x="350" d="M156 -32 C232 -32 300 24 316 100 L358 300 C374 376 330 432 254 432 C178 432 110 376 94 300 L52 100 C36 24 80 -32 156 -32 L156 -32 Z M116 100 L158 300 C168 345 202 368 247 368 C284 368 302 335 294 300 L252 100 C243 59 210 32 169 32 C129 32 107 59 116 100 L116 100 Z M185 518 L385 518 C403 518 420 533 424 550 C428 568 416 582 399 582 L199 582 C181 582 164 568 160 550 C156 533 168 518 185 518 L185 518 Z " />
<glyph glyph-name="Obreve" unicode="&#x14e;" horiz-adv-x="450" d="M59 98 C64 14 119 -32 206 -32 C292 -32 367 14 407 98 C416 115 423 133 426 150 L490 450 C494 467 494 485 493 502 C488 586 433 632 347 632 C237 632 151 554 126 450 L62 150 C59 133 59 115 59 98 L59 98 Z M126 150 L190 450 C203 512 259 568 324 568 C327 568 331 568 334 568 C337 568 341 568 344 568 C408 568 439 511 426 450 L362 150 C357 125 342 99 325 78 C298 44 256 32 219 32 C182 32 146 44 133 78 C125 99 121 125 126 150 L126 150 Z M367 667 C443 667 511 723 527 799 C531 816 519 831 502 831 C445 831 476 731 380 731 C285 731 359 831 302 831 C284 831 267 816 263 799 C247 723 291 667 367 667 L367 667 Z " />
<glyph glyph-name="obreve" unicode="&#x14f;" horiz-adv-x="350" d="M156 -32 C232 -32 300 24 316 100 L358 300 C374 376 330 432 254 432 C178 432 110 376 94 300 L52 100 C36 24 80 -32 156 -32 L156 -32 Z M116 100 L158 300 C168 345 202 368 247 368 C284 368 302 335 294 300 L252 100 C243 59 210 32 169 32 C129 32 107 59 116 100 L116 100 Z M275 468 C350 468 418 524 435 600 C438 617 427 632 409 632 C352 632 383 532 288 532 C193 532 266 632 209 632 C192 632 174 617 171 600 C154 524 199 468 275 468 L275 468 Z " />
<glyph glyph-name="Ohungarumlaut" unicode="&#x150;" horiz-adv-x="450" d="M59 98 C64 14 119 -32 206 -32 C292 -32 367 14 407 98 C416 115 423 133 426 150 L490 450 C494 467 494 485 493 502 C488 586 433 632 347 632 C237 632 151 554 126 450 L62 150 C59 133 59 115 59 98 L59 98 Z M126 150 L190 450 C203 512 259 568 324 568 C327 568 331 568 334 568 C337 568 341 568 344 568 C408 568 439 511 426 450 L362 150 C357 125 342 99 325 78 C298 44 256 32 219 32 C182 32 146 44 133 78 C125 99 121 125 126 150 L126 150 Z M279 667 C289 667 299 671 306 678 C310 682 381 781 385 788 C387 792 389 795 389 799 C393 816 382 831 364 831 C355 831 345 827 337 820 C333 816 262 718 258 710 C257 706 255 703 254 699 C250 682 262 667 279 667 L279 667 Z M404 667 C414 667 424 671 431 678 C435 682 506 781 510 788 C512 792 514 795 514 799 C518 816 507 831 489 831 C480 831 470 827 462 820 C458 816 387 718 383 710 C382 706 380 703 379 699 C375 682 387 667 404 667 L404 667 Z " />
<glyph glyph-name="ohungarumlaut" unicode="&#x151;" horiz-adv-x="350" d="M156 -32 C232 -32 300 24 316 100 L358 300 C374 376 330 432 254 432 C178 432 110 376 94 300 L52 100 C36 24 80 -32 156 -32 L156 -32 Z M116 100 L158 300 C168 345 202 368 247 368 C284 368 302 335 294 300 L252 100 C243 59 210 32 169 32 C129 32 107 59 116 100 L116 100 Z M312 468 C322 468 331 472 339 479 C343 483 414 582 418 589 C420 593 421 596 422 600 C426 617 414 632 397 632 C387 632 378 628 370 621 C359 610 291 517 287 500 C283 483 295 468 312 468 L312 468 Z M187 468 C197 468 206 472 214 479 C218 483 289 582 293 589 C295 593 296 596 297 600 C301 617 289 632 272 632 C262 632 253 628 245 621 C234 610 166 517 162 500 C158 483 170 468 187 468 L187 468 Z " />
<glyph glyph-name="OE" unicode="&#x152;" horiz-adv-x="728" d="M60 127 C60 28 116 -32 216 -32 C287 -32 345 -1 385 51 C421 -13 494 -32 566 -32 L641 -32 C658 -32 673 -17 673 0 C673 14 664 25 652 30 C641 34 557 32 537 33 C482 38 428 65 428 127 C428 133 429 139 429 146 C433 162 436 178 440 194 L462 299 C466 320 472 344 478 368 L601 368 C618 368 633 383 633 400 C633 417 618 432 601 432 L491 432 C494 450 496 468 496 485 C496 518 489 546 475 568 L743 568 C761 568 775 583 775 600 C775 617 761 632 743 632 L343 632 C245 632 172 574 136 484 C126 460 122 435 117 410 L72 197 C67 174 60 150 60 127 L60 127 Z M124 127 C124 147 131 166 135 185 L179 392 C188 436 193 466 219 504 C248 547 292 568 343 568 L348 568 C402 568 432 540 432 485 C432 456 424 429 418 402 L375 198 C371 178 368 157 360 138 C336 73 286 32 216 32 C151 32 124 63 124 127 L124 127 Z " />
<glyph glyph-name="oe" unicode="&#x153;" horiz-adv-x="550" d="M156 -32 C198 -32 239 -14 269 15 C285 -15 317 -30 360 -30 C377 -30 393 -17 397 0 C400 12 394 25 383 29 C378 30 372 31 367 31 C351 31 335 37 327 49 C318 62 315 83 318 100 L361 300 C368 340 405 370 445 370 C464 370 482 365 492 351 C500 339 504 318 500 302 C491 262 462 231 420 231 C401 231 383 220 379 200 C375 184 386 170 403 170 C481 170 543 226 561 300 C563 312 564 325 563 336 C559 397 520 430 458 430 C415 430 377 415 347 385 C330 414 297 432 254 432 C178 432 110 376 94 300 L52 100 C36 24 80 -32 156 -32 L156 -32 Z M116 100 L158 300 C168 345 202 368 247 368 C284 368 302 335 294 300 L252 100 C243 59 210 32 169 32 C129 32 107 59 116 100 L116 100 Z " />
<glyph glyph-name="Racute" unicode="&#x154;" horiz-adv-x="375" d="M56 -32 C79 -32 92 -14 96 7 L215 568 L283 568 C320 568 357 556 370 522 C378 501 382 475 376 450 C363 388 307 332 242 332 C221 332 199 324 194 300 C194 296 193 293 194 289 C196 271 282 -18 284 -21 C289 -28 296 -32 306 -32 C323 -32 341 -17 345 0 C348 17 326 76 321 95 L270 273 C355 292 423 368 440 450 C444 467 444 485 443 502 C438 586 384 632 297 632 L197 632 C179 632 162 617 158 600 L31 0 C27 -17 38 -32 56 -32 L56 -32 Z M304 667 C314 667 324 671 331 678 C335 682 406 781 410 788 C412 792 414 795 414 799 C418 816 407 831 389 831 C380 831 370 827 362 820 C358 816 287 718 283 710 C282 706 280 703 279 699 C275 682 287 667 304 667 L304 667 Z " />
<glyph glyph-name="racute" unicode="&#x155;" horiz-adv-x="200" d="M56 -32 C89 -32 95 0 100 24 C118 108 134 192 152 276 C182 416 266 335 280 400 C283 417 272 432 254 432 C178 432 110 376 94 300 L31 0 C27 -17 38 -32 56 -32 L56 -32 Z M175 468 C184 468 194 472 201 479 C205 483 276 582 280 589 C282 593 284 596 285 600 C288 617 277 632 259 632 C250 632 240 628 232 621 C229 617 158 519 154 511 C152 507 150 504 149 500 C146 483 157 468 175 468 L175 468 Z " />
<glyph glyph-name="uni0156" unicode="&#x156;" horiz-adv-x="375" d="M56 -32 C79 -32 92 -14 96 7 L215 568 L283 568 C320 568 357 556 370 522 C378 501 382 475 376 450 C363 388 307 332 242 332 C221 332 199 324 194 300 C194 296 193 293 194 289 C196 271 282 -18 284 -21 C289 -28 296 -32 306 -32 C323 -32 341 -17 345 0 C348 17 326 76 321 95 L270 273 C355 292 423 368 440 450 C444 467 444 485 443 502 C438 586 384 632 297 632 L197 632 C179 632 162 617 158 600 L31 0 C27 -17 38 -32 56 -32 L56 -32 Z " />
<glyph glyph-name="uni0157" unicode="&#x157;" horiz-adv-x="200" d="M56 -32 C89 -32 95 0 100 24 C118 108 134 192 152 276 C182 416 266 335 280 400 C283 417 272 432 254 432 C178 432 110 376 94 300 L31 0 C27 -17 38 -32 56 -32 L56 -32 Z " />
<glyph glyph-name="Rcaron" unicode="&#x158;" horiz-adv-x="375" d="M56 -32 C79 -32 92 -14 96 7 L215 568 L283 568 C320 568 357 556 370 522 C378 501 382 475 376 450 C363 388 307 332 242 332 C221 332 199 324 194 300 C194 296 193 293 194 289 C196 271 282 -18 284 -21 C289 -28 296 -32 306 -32 C323 -32 341 -17 345 0 C348 17 326 76 321 95 L270 273 C355 292 423 368 440 450 C444 467 444 485 443 502 C438 586 384 632 297 632 L197 632 C179 632 162 617 158 600 L31 0 C27 -17 38 -32 56 -32 L56 -32 Z M229 778 C239 760 256 744 269 727 C283 710 294 690 310 675 C315 670 322 667 329 667 C337 667 345 670 352 675 C374 690 394 710 415 727 C436 744 459 760 478 778 C483 784 488 792 489 799 C493 816 482 831 464 831 C459 831 453 829 447 827 C436 821 363 758 346 745 L346 744 L345 745 C335 758 288 821 279 827 C275 829 270 831 264 831 C247 831 229 816 225 799 C224 792 225 784 229 778 L229 778 Z " />
<glyph glyph-name="rcaron" unicode="&#x159;" horiz-adv-x="200" d="M56 -32 C89 -32 95 0 100 24 C118 108 134 192 152 276 C182 416 266 335 280 400 C283 417 272 432 254 432 C178 432 110 376 94 300 L31 0 C27 -17 38 -32 56 -32 L56 -32 Z M99 579 C110 561 126 545 139 528 C153 511 165 491 181 476 C185 471 192 468 200 468 C207 468 215 471 222 476 C244 491 265 511 286 528 C306 545 329 561 348 579 C354 585 358 593 360 600 C363 617 352 632 334 632 C329 632 323 630 317 628 C306 622 233 559 217 546 L216 545 L216 546 C205 559 158 622 150 628 C145 630 140 632 134 632 C117 632 99 617 96 600 C94 593 95 585 99 579 L99 579 Z " />
<glyph glyph-name="Sacute" unicode="&#x15a;" horiz-adv-x="425" d="M59 98 C64 14 119 -32 206 -32 C292 -32 367 14 407 98 C416 115 423 133 426 150 C463 324 164 329 190 450 C195 475 210 501 227 522 C255 556 296 568 333 568 C393 568 428 539 428 479 C429 455 416 418 451 418 C469 418 487 433 490 450 C494 467 494 485 493 502 C488 586 433 632 347 632 C238 632 150 554 126 450 C89 276 388 271 362 150 C357 125 342 99 325 78 C298 44 257 32 219 32 C159 32 125 61 124 121 C124 145 137 182 101 182 C84 182 66 167 62 150 C59 133 59 115 59 98 L59 98 Z M329 667 C339 667 349 671 356 678 C360 682 431 781 435 788 C437 792 439 795 439 799 C443 816 432 831 414 831 C405 831 395 827 387 820 C383 816 312 718 308 710 C307 706 305 703 304 699 C300 682 312 667 329 667 L329 667 Z " />
<glyph glyph-name="sacute" unicode="&#x15b;" horiz-adv-x="350" d="M156 -32 C232 -32 300 24 316 100 C342 222 144 231 158 300 C167 341 200 368 241 368 C336 368 262 268 320 268 C337 268 355 283 358 300 C374 376 330 432 254 432 C178 432 110 376 94 300 C68 178 267 170 252 100 C243 59 210 32 169 32 C74 32 148 132 91 132 C73 132 56 117 52 100 C36 24 80 -32 156 -32 L156 -32 Z M250 468 C259 468 269 472 276 479 C280 483 351 582 355 589 C357 593 359 596 360 600 C363 617 352 632 334 632 C325 632 315 628 307 621 C304 617 233 519 229 511 C227 507 225 504 224 500 C221 483 232 468 250 468 L250 468 Z " />
<glyph glyph-name="Scircumflex" unicode="&#x15c;" horiz-adv-x="425" d="M59 98 C64 14 119 -32 206 -32 C292 -32 367 14 407 98 C416 115 423 133 426 150 C463 324 164 329 190 450 C195 475 210 501 227 522 C255 556 296 568 333 568 C393 568 428 539 428 479 C429 455 416 418 451 418 C469 418 487 433 490 450 C494 467 494 485 493 502 C488 586 433 632 347 632 C238 632 150 554 126 450 C89 276 388 271 362 150 C357 125 342 99 325 78 C298 44 257 32 219 32 C159 32 125 61 124 121 C124 145 137 182 101 182 C84 182 66 167 62 150 C59 133 59 115 59 98 L59 98 Z M254 667 C260 667 266 669 271 671 C282 677 356 740 372 753 L373 754 L373 753 C384 740 430 677 439 671 C444 669 449 667 454 667 C472 667 489 682 493 699 C495 707 493 714 490 720 C479 738 463 754 450 771 C436 788 424 808 408 824 C403 828 397 831 389 831 C382 831 374 828 367 824 C344 808 324 788 303 771 C283 754 260 738 241 720 C235 714 231 707 229 699 C225 682 237 667 254 667 L254 667 Z " />
<glyph glyph-name="scircumflex" unicode="&#x15d;" horiz-adv-x="350" d="M156 -32 C232 -32 300 24 316 100 C342 222 144 231 158 300 C167 341 200 368 241 368 C336 368 262 268 320 268 C337 268 355 283 358 300 C374 376 330 432 254 432 C178 432 110 376 94 300 C68 178 267 170 252 100 C243 59 210 32 169 32 C74 32 148 132 91 132 C73 132 56 117 52 100 C36 24 80 -32 156 -32 L156 -32 Z M175 468 C180 468 186 470 191 472 C203 478 276 541 292 554 L293 555 L293 554 C304 541 351 478 359 472 C364 470 369 468 375 468 C392 468 410 483 413 500 C415 508 414 515 410 521 C399 539 383 555 370 572 C356 589 344 609 328 625 C324 629 317 632 309 632 C302 632 294 629 287 625 C265 609 244 589 223 572 C203 555 180 539 161 521 C155 515 151 508 149 500 C146 483 157 468 175 468 L175 468 Z " />
<glyph glyph-name="Scedilla" unicode="&#x15e;" horiz-adv-x="425" d="M59 98 C64 14 119 -32 207 -32 C216 -34 223 -36 219 -53 L210 -97 C207 -109 201 -118 188 -118 C160 -118 184 -90 166 -74 C161 -70 155 -68 148 -68 C131 -68 113 -83 109 -100 C100 -146 127 -182 174 -182 C220 -182 263 -146 273 -100 L284 -50 C286 -39 286 -28 284 -18 C337 1 380 41 407 98 C416 115 423 133 426 150 C463 324 164 329 190 450 C195 475 210 501 227 522 C255 556 296 568 333 568 C393 568 428 539 428 479 C429 455 416 418 451 418 C469 418 487 433 490 450 C494 467 494 485 493 502 C488 586 433 632 347 632 C238 632 150 554 126 450 C89 276 388 271 362 150 C357 125 342 99 325 78 C298 44 257 32 219 32 C159 32 125 61 124 121 C124 145 137 182 101 182 C84 182 66 167 62 150 C59 133 59 115 59 98 L59 98 Z " />
<glyph glyph-name="scedilla" unicode="&#x15f;" horiz-adv-x="350" d="M156 -32 C160 -32 163 -32 167 -32 C177 -33 186 -35 182 -53 L173 -97 C170 -109 163 -118 150 -118 C123 -118 147 -90 128 -74 C124 -70 118 -68 111 -68 C93 -68 76 -83 72 -100 C62 -146 90 -182 136 -182 C183 -182 226 -146 236 -100 L246 -50 C250 -33 248 -18 243 -5 C279 18 306 56 316 100 C342 222 144 231 158 300 C167 341 200 368 241 368 C336 368 262 268 320 268 C337 268 355 283 358 300 C374 376 330 432 254 432 C178 432 110 376 94 300 C68 178 267 170 252 100 C243 59 210 32 169 32 C74 32 148 132 91 132 C73 132 56 117 52 100 C36 24 80 -32 156 -32 L156 -32 Z " />
<glyph glyph-name="Scaron" unicode="&#x160;" horiz-adv-x="425" d="M59 98 C64 14 119 -32 206 -32 C292 -32 367 14 407 98 C416 115 423 133 426 150 C463 324 164 329 190 450 C195 475 210 501 227 522 C255 556 296 568 333 568 C393 568 428 539 428 479 C429 455 416 418 451 418 C469 418 487 433 490 450 C494 467 494 485 493 502 C488 586 433 632 347 632 C238 632 150 554 126 450 C89 276 388 271 362 150 C357 125 342 99 325 78 C298 44 257 32 219 32 C159 32 125 61 124 121 C124 145 137 182 101 182 C84 182 66 167 62 150 C59 133 59 115 59 98 L59 98 Z M254 778 C264 760 281 744 294 727 C308 710 319 690 335 675 C340 670 347 667 354 667 C362 667 370 670 377 675 C399 690 419 710 440 727 C461 744 484 760 503 778 C508 784 513 792 514 799 C518 816 507 831 489 831 C484 831 478 829 472 827 C461 821 388 758 371 745 L371 744 L370 745 C360 758 313 821 304 827 C300 829 295 831 289 831 C272 831 254 816 250 799 C249 792 250 784 254 778 L254 778 Z " />
<glyph glyph-name="scaron" unicode="&#x161;" horiz-adv-x="350" d="M156 -32 C232 -32 300 24 316 100 C342 222 144 231 158 300 C167 341 200 368 241 368 C336 368 262 268 320 268 C337 268 355 283 358 300 C374 376 330 432 254 432 C178 432 110 376 94 300 C68 178 267 170 252 100 C243 59 210 32 169 32 C74 32 148 132 91 132 C73 132 56 117 52 100 C36 24 80 -32 156 -32 L156 -32 Z M174 579 C185 561 201 545 214 528 C228 511 240 491 256 476 C260 471 267 468 275 468 C282 468 290 471 297 476 C319 491 340 511 361 528 C381 545 404 561 423 579 C429 585 433 593 435 600 C438 617 427 632 409 632 C404 632 398 630 392 628 C381 622 308 559 292 546 L291 545 L291 546 C280 559 233 622 225 628 C220 630 215 632 209 632 C192 632 174 617 171 600 C169 593 170 585 174 579 L174 579 Z " />
<glyph glyph-name="uni0162" unicode="&#x162;" horiz-adv-x="399" d="M170 568 L288 568 L168 0 C164 -17 175 -32 193 -32 C210 -32 228 -17 232 0 L352 568 L470 568 C488 568 505 583 509 600 C513 617 501 632 484 632 L184 632 C166 632 149 617 145 600 C141 583 153 568 170 568 L170 568 Z " />
<glyph glyph-name="uni0163" unicode="&#x163;" horiz-adv-x="275" d="M91 368 L159 368 L102 100 C86 24 130 -32 206 -32 C223 -32 241 -17 245 0 C255 49 186 16 170 58 C160 82 166 106 172 133 C189 211 206 290 223 368 L291 368 C308 368 326 383 330 400 C333 417 322 432 304 432 L237 432 C239 444 242 456 244 468 C250 493 262 532 226 532 C208 532 191 517 187 500 L172 432 L104 432 C87 432 69 417 66 400 C62 383 73 368 91 368 L91 368 Z " />
<glyph glyph-name="Tcaron" unicode="&#x164;" horiz-adv-x="399" d="M170 568 L288 568 L168 0 C164 -17 175 -32 193 -32 C210 -32 228 -17 232 0 L352 568 L470 568 C488 568 505 583 509 600 C513 617 501 632 484 632 L184 632 C166 632 149 617 145 600 C141 583 153 568 170 568 L170 568 Z M241 778 C251 760 268 744 281 727 C295 710 306 690 322 675 C327 670 334 667 341 667 C349 667 357 670 364 675 C386 690 406 710 427 727 C448 744 471 760 490 778 C495 784 500 792 501 799 C505 816 494 831 476 831 C471 831 465 829 459 827 C448 821 375 758 358 745 L358 744 L357 745 C347 758 300 821 291 827 C287 829 282 831 276 831 C259 831 241 816 237 799 C236 792 237 784 241 778 L241 778 Z " />
<glyph glyph-name="tcaron" unicode="&#x165;" horiz-adv-x="375" d="M91 368 L159 368 L102 100 C86 24 130 -32 206 -32 C223 -32 241 -17 245 0 C255 49 186 16 170 58 C160 82 166 106 172 133 C189 211 206 290 223 368 L291 368 C308 368 326 383 330 400 C333 417 322 432 304 432 L237 432 C239 444 242 456 244 468 C250 493 262 532 226 532 C208 532 191 517 187 500 L172 432 L104 432 C87 432 69 417 66 400 C62 383 73 368 91 368 L91 368 Z M382 472 C377 451 372 430 367 409 C363 388 366 368 391 368 C408 368 426 383 430 400 L451 500 C467 576 423 632 347 632 C329 632 312 617 308 600 C294 534 413 618 382 472 L382 472 Z " />
<glyph glyph-name="Tbar" unicode="&#x166;" horiz-adv-x="399" d="M170 568 L288 568 L168 0 C164 -17 175 -32 193 -32 C210 -32 228 -17 232 0 L352 568 L470 568 C488 568 505 583 509 600 C513 617 501 632 484 632 L184 632 C166 632 149 617 145 600 C141 583 153 568 170 568 L170 568 Z M252 717 L452 717 C469 717 487 732 491 749 C494 767 483 781 466 781 L266 781 C248 781 231 767 227 749 C223 732 235 717 252 717 L252 717 Z " />
<glyph glyph-name="tbar" unicode="&#x167;" horiz-adv-x="275" d="M91 368 L159 368 L102 100 C86 24 130 -32 206 -32 C223 -32 241 -17 245 0 C255 49 186 16 170 58 C160 82 166 106 172 133 C189 211 206 290 223 368 L291 368 C308 368 326 383 330 400 C333 417 322 432 304 432 L237 432 C239 444 242 456 244 468 C248 484 254 505 249 518 L323 518 C340 518 358 533 361 550 C365 568 354 582 336 582 L136 582 C119 582 101 568 98 550 C94 533 105 518 123 518 L197 518 C192 513 188 507 187 500 L172 432 L104 432 C87 432 69 417 66 400 C62 383 73 368 91 368 L91 368 Z " />
<glyph glyph-name="Utilde" unicode="&#x168;" horiz-adv-x="450" d="M59 98 C65 14 119 -32 206 -32 C293 -32 366 14 407 98 C416 115 423 133 426 150 L522 600 C526 617 514 632 497 632 C472 632 461 612 456 590 L366 166 C350 88 302 32 219 32 C154 32 121 68 124 132 C126 152 131 173 136 193 L220 590 C225 612 222 632 197 632 C179 632 162 617 158 600 L62 150 C59 133 58 115 59 98 L59 98 Z M272 691 C279 691 286 693 292 697 C318 713 305 741 333 741 C360 741 363 691 422 691 C469 691 511 726 521 773 C525 790 514 805 496 805 C489 805 482 803 476 799 C450 783 463 755 436 755 C409 755 405 805 346 805 C300 805 257 770 247 723 C243 706 255 691 272 691 L272 691 Z " />
<glyph glyph-name="utilde" unicode="&#x169;" horiz-adv-x="350" d="M156 -32 L256 -32 C273 -32 291 -17 295 0 L380 400 C383 417 372 432 354 432 C337 432 319 417 316 400 L237 32 C208 33 174 32 163 32 C110 32 111 82 120 124 C138 208 157 292 175 377 C180 400 187 432 154 432 C137 432 119 417 116 400 L52 100 C36 24 80 -32 156 -32 L156 -32 Z M180 492 C186 492 194 494 200 498 C225 514 213 542 240 542 C267 542 270 492 330 492 C376 492 419 527 429 574 C433 591 421 606 404 606 C397 606 390 604 383 600 C358 584 371 556 343 556 C316 556 313 606 254 606 C207 606 164 571 154 524 C151 507 162 492 180 492 L180 492 Z " />
<glyph glyph-name="Umacron" unicode="&#x16a;" horiz-adv-x="450" d="M59 98 C65 14 119 -32 206 -32 C293 -32 366 14 407 98 C416 115 423 133 426 150 L522 600 C526 617 514 632 497 632 C472 632 461 612 456 590 L366 166 C350 88 302 32 219 32 C154 32 121 68 124 132 C126 152 131 173 136 193 L220 590 C225 612 222 632 197 632 C179 632 162 617 158 600 L62 150 C59 133 58 115 59 98 L59 98 Z M278 717 L477 717 C495 717 513 732 516 749 C520 767 508 781 491 781 L291 781 C274 781 256 767 252 749 C249 732 260 717 278 717 L278 717 Z " />
<glyph glyph-name="umacron" unicode="&#x16b;" horiz-adv-x="350" d="M156 -32 L256 -32 C273 -32 291 -17 295 0 L380 400 C383 417 372 432 354 432 C337 432 319 417 316 400 L237 32 C208 33 174 32 163 32 C110 32 111 82 120 124 C138 208 157 292 175 377 C180 400 187 432 154 432 C137 432 119 417 116 400 L52 100 C36 24 80 -32 156 -32 L156 -32 Z M185 518 L385 518 C403 518 420 533 424 550 C428 568 416 582 399 582 L199 582 C181 582 164 568 160 550 C156 533 168 518 185 518 L185 518 Z " />
<glyph glyph-name="Ubreve" unicode="&#x16c;" horiz-adv-x="450" d="M59 98 C65 14 119 -32 206 -32 C293 -32 366 14 407 98 C416 115 423 133 426 150 L522 600 C526 617 514 632 497 632 C472 632 461 612 456 590 L366 166 C350 88 302 32 219 32 C154 32 121 68 124 132 C126 152 131 173 136 193 L220 590 C225 612 222 632 197 632 C179 632 162 617 158 600 L62 150 C59 133 58 115 59 98 L59 98 Z M367 667 C443 667 511 723 527 799 C531 816 519 831 502 831 C445 831 476 731 380 731 C285 731 359 831 302 831 C284 831 267 816 263 799 C247 723 291 667 367 667 L367 667 Z " />
<glyph glyph-name="ubreve" unicode="&#x16d;" horiz-adv-x="350" d="M156 -32 L256 -32 C273 -32 291 -17 295 0 L380 400 C383 417 372 432 354 432 C337 432 319 417 316 400 L237 32 C208 33 174 32 163 32 C110 32 111 82 120 124 C138 208 157 292 175 377 C180 400 187 432 154 432 C137 432 119 417 116 400 L52 100 C36 24 80 -32 156 -32 L156 -32 Z M275 468 C350 468 418 524 435 600 C438 617 427 632 409 632 C352 632 383 532 288 532 C193 532 266 632 209 632 C192 632 174 617 171 600 C154 524 199 468 275 468 L275 468 Z " />
<glyph glyph-name="Uring" unicode="&#x16e;" horiz-adv-x="450" d="M59 98 C65 14 119 -32 206 -32 C293 -32 366 14 407 98 C416 115 423 133 426 150 L522 600 C526 617 514 632 497 632 C472 632 461 612 456 590 L366 166 C350 88 302 32 219 32 C154 32 121 68 124 132 C126 152 131 173 136 193 L220 590 C225 612 222 632 197 632 C179 632 162 617 158 600 L62 150 C59 133 58 115 59 98 L59 98 Z M356 617 C418 617 473 663 486 724 C499 785 463 831 402 831 C340 831 285 785 272 724 C259 663 295 617 356 617 L356 617 Z M336 724 C342 750 362 767 388 767 C424 767 422 744 422 724 C413 704 405 681 370 681 C344 681 330 698 336 724 L336 724 Z " />
<glyph glyph-name="uring" unicode="&#x16f;" horiz-adv-x="350" d="M156 -32 L256 -32 C273 -32 291 -17 295 0 L380 400 C383 417 372 432 354 432 C337 432 319 417 316 400 L237 32 C208 33 174 32 163 32 C110 32 111 82 120 124 C138 208 157 292 175 377 C180 400 187 432 154 432 C137 432 119 417 116 400 L52 100 C36 24 80 -32 156 -32 L156 -32 Z M252 418 C313 418 368 464 382 525 C395 586 359 632 297 632 C236 632 181 586 168 525 C155 464 191 418 252 418 L252 418 Z M232 525 C237 551 257 568 284 568 C319 568 318 545 318 525 C309 505 301 482 265 482 C240 482 226 499 232 525 L232 525 Z " />
<glyph glyph-name="Uhungarumlaut" unicode="&#x170;" horiz-adv-x="450" d="M59 98 C65 14 119 -32 206 -32 C293 -32 366 14 407 98 C416 115 423 133 426 150 L522 600 C526 617 514 632 497 632 C472 632 461 612 456 590 L366 166 C350 88 302 32 219 32 C154 32 121 68 124 132 C126 152 131 173 136 193 L220 590 C225 612 222 632 197 632 C179 632 162 617 158 600 L62 150 C59 133 58 115 59 98 L59 98 Z M279 667 C289 667 299 671 306 678 C310 682 381 781 385 788 C387 792 389 795 389 799 C393 816 382 831 364 831 C355 831 345 827 337 820 C333 816 262 718 258 710 C257 706 255 703 254 699 C250 682 262 667 279 667 L279 667 Z M404 667 C414 667 424 671 431 678 C435 682 506 781 510 788 C512 792 514 795 514 799 C518 816 507 831 489 831 C480 831 470 827 462 820 C458 816 387 718 383 710 C382 706 380 703 379 699 C375 682 387 667 404 667 L404 667 Z " />
<glyph glyph-name="uhungarumlaut" unicode="&#x171;" horiz-adv-x="350" d="M156 -32 L256 -32 C273 -32 291 -17 295 0 L380 400 C383 417 372 432 354 432 C337 432 319 417 316 400 L237 32 C208 33 174 32 163 32 C110 32 111 82 120 124 C138 208 157 292 175 377 C180 400 187 432 154 432 C137 432 119 417 116 400 L52 100 C36 24 80 -32 156 -32 L156 -32 Z M312 468 C322 468 331 472 339 479 C343 483 414 582 418 589 C420 593 421 596 422 600 C426 617 414 632 397 632 C387 632 378 628 370 621 C359 610 291 517 287 500 C283 483 295 468 312 468 L312 468 Z M187 468 C197 468 206 472 214 479 C218 483 289 582 293 589 C295 593 296 596 297 600 C301 617 289 632 272 632 C262 632 253 628 245 621 C234 610 166 517 162 500 C158 483 170 468 187 468 L187 468 Z " />
<glyph glyph-name="Uogonek" unicode="&#x172;" horiz-adv-x="450" d="M80 -232 C105 -232 117 -212 121 -192 C126 -170 129 -149 133 -128 C143 -84 162 -32 218 -32 C222 -32 226 -32 230 -31 C306 -23 370 22 407 98 C416 115 423 133 426 150 L522 600 C526 617 514 632 497 632 C472 632 461 612 456 590 L366 166 C350 88 302 32 219 32 C154 32 121 68 124 132 C126 152 131 173 136 193 L220 590 C225 612 222 632 197 632 C179 632 162 617 158 600 L62 150 C59 133 58 115 59 98 C63 45 86 7 124 -14 C101 -37 83 -66 76 -100 L55 -200 C51 -217 63 -232 80 -232 L80 -232 Z " />
<glyph glyph-name="uogonek" unicode="&#x173;" horiz-adv-x="350" d="M52 100 C37 29 74 -25 142 -31 C126 -51 115 -74 109 -100 L88 -200 C84 -217 96 -232 113 -232 C138 -232 150 -212 154 -192 C159 -170 162 -149 166 -128 C177 -79 196 -32 254 -32 L256 -32 C273 -32 290 -18 295 0 L380 400 C383 417 372 432 354 432 C337 432 319 417 316 400 L237 32 C208 33 174 32 163 32 C110 32 111 82 120 124 C138 208 157 292 175 377 C180 400 187 432 154 432 C137 432 119 417 116 400 L52 100 Z " />
<glyph glyph-name="Wcircumflex" unicode="&#x174;" horiz-adv-x="599" d="M150 448 L167 -4 C167 -20 175 -32 193 -32 C205 -32 215 -26 224 -16 C232 -7 340 233 356 268 L357 268 C358 233 364 -7 368 -16 C373 -26 380 -32 393 -32 C410 -32 423 -20 431 -4 L640 448 C652 476 705 581 709 600 C713 617 701 632 684 632 C672 632 662 626 653 616 C646 609 597 498 589 480 L428 132 C426 167 420 407 416 416 C411 426 404 432 391 432 C379 432 369 426 360 416 C352 407 244 167 228 132 L215 480 C214 498 212 609 208 616 C204 626 196 632 184 632 C167 632 149 617 145 600 C141 581 149 476 150 448 L150 448 Z M341 667 C347 667 353 669 358 671 C369 677 443 740 459 753 L460 754 L460 753 C471 740 517 677 526 671 C531 669 536 667 541 667 C559 667 576 682 580 699 C582 707 580 714 577 720 C566 738 550 754 537 771 C523 788 511 808 495 824 C490 828 484 831 476 831 C469 831 461 828 454 824 C432 808 411 788 390 771 C370 754 347 738 328 720 C322 714 318 707 316 699 C312 682 324 667 341 667 L341 667 Z " />
<glyph glyph-name="wcircumflex" unicode="&#x175;" horiz-adv-x="525" d="M131 -16 C136 -26 143 -32 156 -32 C166 -32 174 -28 183 -21 C192 -13 275 108 290 129 C296 108 327 -13 334 -21 C339 -28 345 -32 356 -32 C368 -32 378 -26 387 -16 C389 -14 577 387 580 400 C583 417 572 432 554 432 C543 432 532 426 523 416 C517 409 494 356 489 344 L410 175 C398 147 386 119 372 92 C367 110 340 213 334 221 C328 228 322 232 312 232 C301 232 294 228 285 221 C276 213 205 110 192 92 C191 131 184 406 179 416 C174 426 167 432 154 432 C137 432 119 417 116 400 C113 387 130 -14 131 -16 L131 -16 Z M262 468 C268 468 273 470 279 472 C290 478 364 541 380 554 L381 555 L381 554 C391 541 438 478 447 472 C451 470 456 468 462 468 C479 468 497 483 501 500 C502 508 501 515 498 521 C487 539 471 555 457 572 C444 589 432 609 416 625 C411 629 404 632 397 632 C389 632 382 629 375 625 C352 609 332 589 311 572 C290 555 267 539 249 521 C243 515 238 508 237 500 C233 483 245 468 262 468 L262 468 Z " />
<glyph glyph-name="Ycircumflex" unicode="&#x176;" horiz-adv-x="399" d="M146 584 C148 576 224 436 250 390 L168 0 C164 -17 175 -32 193 -32 C210 -32 228 -17 232 0 L314 390 C360 436 496 576 501 584 C505 589 508 594 509 600 C513 617 501 632 484 632 C459 632 429 592 412 574 L296 453 L231 574 C221 592 209 632 184 632 C166 632 149 617 145 600 C144 594 145 589 146 584 L146 584 Z M241 667 C247 667 253 669 258 671 C269 677 343 740 359 753 L360 754 L360 753 C371 740 417 677 426 671 C431 669 436 667 441 667 C459 667 476 682 480 699 C482 707 480 714 477 720 C466 738 450 754 437 771 C423 788 411 808 395 824 C390 828 384 831 376 831 C369 831 361 828 354 824 C331 808 311 788 290 771 C270 754 247 738 228 720 C222 714 218 707 216 699 C212 682 224 667 241 667 L241 667 Z " />
<glyph glyph-name="ycircumflex" unicode="&#x177;" horiz-adv-x="325" d="M63 -232 C81 -232 94 -220 101 -204 L191 -10 C192 -8 192 -7 193 -6 L310 247 C323 275 375 380 379 400 C383 417 372 432 354 432 C337 432 324 420 316 404 L191 133 C186 254 179 415 179 416 C173 425 167 432 154 432 C137 432 119 417 115 400 C113 387 126 80 130 2 L107 -48 C95 -76 42 -181 38 -200 C34 -217 46 -232 63 -232 L63 -232 Z M162 468 C168 468 173 470 179 472 C190 478 264 541 280 554 L280 555 L281 554 C291 541 338 478 347 472 C351 470 356 468 362 468 C379 468 397 483 401 500 C402 508 401 515 398 521 C387 539 371 555 357 572 C344 589 332 609 316 625 C311 629 304 632 297 632 C289 632 281 629 275 625 C252 609 232 589 211 572 C190 555 167 539 149 521 C143 515 138 508 137 500 C133 483 145 468 162 468 L162 468 Z " />
<glyph glyph-name="Ydieresis" unicode="&#x178;" horiz-adv-x="399" d="M146 584 C148 576 224 436 250 390 L168 0 C164 -17 175 -32 193 -32 C210 -32 228 -17 232 0 L314 390 C360 436 496 576 501 584 C505 589 508 594 509 600 C513 617 501 632 484 632 C459 632 429 592 412 574 L296 453 L231 574 C221 592 209 632 184 632 C166 632 149 617 145 600 C144 594 145 589 146 584 L146 584 Z M427 717 C444 717 462 732 466 749 L476 799 C480 816 469 831 451 831 C434 831 416 816 412 799 L402 749 C398 732 410 717 427 717 L427 717 Z M277 717 C294 717 312 732 316 749 L326 799 C330 816 319 831 301 831 C284 831 266 816 262 799 L252 749 C248 732 260 717 277 717 L277 717 Z " />
<glyph glyph-name="Zacute" unicode="&#x179;" horiz-adv-x="425" d="M56 -32 L356 -32 C373 -32 391 -17 395 0 C397 14 391 25 380 30 C370 35 155 32 121 32 L477 532 C489 548 519 584 522 600 C526 617 514 632 497 632 L197 632 C179 632 162 617 158 600 C155 586 161 575 173 570 C182 566 398 568 432 568 L75 68 C64 52 34 16 31 0 C27 -17 38 -32 56 -32 L56 -32 Z M329 667 C339 667 349 671 356 678 C360 682 431 781 435 788 C437 792 439 795 439 799 C443 816 432 831 414 831 C405 831 395 827 387 820 C383 816 312 718 308 710 C307 706 305 703 304 699 C300 682 312 667 329 667 L329 667 Z " />
<glyph glyph-name="zacute" unicode="&#x17a;" horiz-adv-x="325" d="M56 -32 L256 -32 C273 -32 291 -17 295 0 C297 14 291 25 280 30 C270 34 145 32 121 32 L351 354 C359 367 377 386 380 400 C383 417 372 432 354 432 L154 432 C137 432 119 417 116 400 C113 387 119 375 130 370 C140 366 265 368 289 368 L60 46 C51 34 33 14 31 0 C27 -17 38 -32 56 -32 L56 -32 Z M237 468 C247 468 256 472 264 479 C268 483 339 582 343 589 C345 593 346 596 347 600 C351 617 339 632 322 632 C312 632 303 628 295 621 C284 610 216 517 212 500 C208 483 220 468 237 468 L237 468 Z " />
<glyph glyph-name="Zdotaccent" unicode="&#x17b;" horiz-adv-x="425" d="M56 -32 L356 -32 C373 -32 391 -17 395 0 C397 14 391 25 380 30 C370 35 155 32 121 32 L477 532 C489 548 519 584 522 600 C526 617 514 632 497 632 L197 632 C179 632 162 617 158 600 C155 586 161 575 173 570 C182 566 398 568 432 568 L75 68 C64 52 34 16 31 0 C27 -17 38 -32 56 -32 L56 -32 Z M365 717 C382 717 400 732 404 749 L414 799 C418 816 407 831 389 831 C372 831 354 816 350 799 L340 749 C336 732 348 717 365 717 L365 717 Z " />
<glyph glyph-name="zdotaccent" unicode="&#x17c;" horiz-adv-x="325" d="M56 -32 L256 -32 C273 -32 291 -17 295 0 C297 14 291 25 280 30 C270 34 145 32 121 32 L351 354 C359 367 377 386 380 400 C383 417 372 432 354 432 L154 432 C137 432 119 417 116 400 C113 387 119 375 130 370 C140 366 265 368 289 368 L60 46 C51 34 33 14 31 0 C27 -17 38 -32 56 -32 L56 -32 Z M273 518 C290 518 308 533 311 550 L322 600 C326 617 314 632 297 632 C279 632 262 617 258 600 L247 550 C244 533 255 518 273 518 L273 518 Z " />
<glyph glyph-name="Zcaron" unicode="&#x17d;" horiz-adv-x="425" d="M56 -32 L356 -32 C373 -32 391 -17 395 0 C397 14 391 25 380 30 C370 35 155 32 121 32 L477 532 C489 548 519 584 522 600 C526 617 514 632 497 632 L197 632 C179 632 162 617 158 600 C155 586 161 575 173 570 C182 566 398 568 432 568 L75 68 C64 52 34 16 31 0 C27 -17 38 -32 56 -32 L56 -32 Z M254 778 C264 760 281 744 294 727 C308 710 319 690 335 675 C340 670 347 667 354 667 C362 667 370 670 377 675 C399 690 419 710 440 727 C461 744 484 760 503 778 C508 784 513 792 514 799 C518 816 507 831 489 831 C484 831 478 829 472 827 C461 821 388 758 371 745 L371 744 L370 745 C360 758 313 821 304 827 C300 829 295 831 289 831 C272 831 254 816 250 799 C249 792 250 784 254 778 L254 778 Z " />
<glyph glyph-name="zcaron" unicode="&#x17e;" horiz-adv-x="325" d="M56 -32 L256 -32 C273 -32 291 -17 295 0 C297 14 291 25 280 30 C270 34 145 32 121 32 L351 354 C359 367 377 386 380 400 C383 417 372 432 354 432 L154 432 C137 432 119 417 116 400 C113 387 119 375 130 370 C140 366 265 368 289 368 L60 46 C51 34 33 14 31 0 C27 -17 38 -32 56 -32 L56 -32 Z M161 579 C172 561 188 545 202 528 C215 511 227 491 243 476 C248 471 255 468 262 468 C270 468 277 471 284 476 C307 491 327 511 348 528 C369 545 391 561 410 579 C416 585 420 593 422 600 C426 617 414 632 397 632 C391 632 385 630 380 628 C369 622 295 559 279 546 L278 545 L278 546 C268 559 221 622 212 628 C208 630 203 632 197 632 C180 632 162 617 158 600 C157 593 158 585 161 579 L161 579 Z " />
<glyph glyph-name="longs" unicode="&#x17f;" horiz-adv-x="225" d="M31 0 C31 -17 45 -32 63 -32 C74 -32 84 -26 90 -16 C95 -8 110 72 114 88 L172 359 C179 395 195 490 210 518 C225 547 252 568 286 568 C305 568 322 579 322 600 C322 617 307 632 290 632 C213 632 160 582 139 511 C130 480 125 449 119 417 L79 233 L45 71 C40 48 31 23 31 0 L31 0 Z " />
<glyph glyph-name="florin" unicode="&#x192;" horiz-adv-x="300" d="M20 -232 C96 -232 151 -182 171 -111 C177 -93 180 -74 184 -55 L273 368 L348 368 C365 368 380 383 380 400 C380 417 365 432 348 432 L286 432 C293 465 301 502 310 518 C326 547 351 568 386 568 C405 568 422 579 422 600 C422 617 407 632 390 632 C314 632 259 582 239 511 C233 493 231 474 227 455 L222 432 L148 432 C130 432 116 417 116 400 C116 383 130 368 148 368 L208 368 L134 18 C127 -14 114 -93 100 -118 C84 -147 59 -168 25 -168 C5 -168 -12 -179 -12 -200 C-12 -217 3 -232 20 -232 L20 -232 Z " />
<glyph glyph-name="Aringacute" unicode="&#x1fa;" horiz-adv-x="399" d="M18 0 C18 -17 32 -32 50 -32 C59 -32 68 -28 74 -21 C82 -12 87 0 92 10 L127 68 L305 68 C313 22 319 -12 322 -16 C328 -26 338 -32 350 -32 C367 -32 382 -17 382 0 C382 18 318 404 315 411 C313 414 312 416 310 419 C355 424 389 451 408 493 C412 502 418 514 418 524 C419 530 420 536 420 542 C420 598 381 632 327 632 C259 632 203 575 203 508 C203 464 226 434 262 423 C260 420 257 417 255 413 L47 59 C39 45 29 31 22 16 C19 11 18 6 18 0 L18 0 Z M164 132 L267 307 C270 288 283 208 295 132 L164 132 Z M317 667 C327 667 336 671 344 678 C348 682 419 781 423 788 C425 792 426 795 427 799 C431 816 419 831 402 831 C393 831 383 827 375 820 C364 809 296 716 292 699 C288 682 300 667 317 667 L317 667 Z M267 508 C267 540 294 568 327 568 C333 568 351 566 353 558 C353 553 356 548 356 542 C356 539 355 535 354 531 C345 509 337 482 295 482 C289 482 271 485 270 492 C269 497 267 502 267 508 L267 508 Z " />
<glyph glyph-name="aringacute" unicode="&#x1fb;" horiz-adv-x="351" d="M189 -32 C206 -32 221 -17 221 0 C221 56 140 5 140 77 C140 113 153 151 161 186 L175 252 C179 270 181 288 187 305 C200 340 230 368 269 368 L322 368 C324 368 328 368 334 368 C311 264 256 10 256 0 C256 -17 271 -32 288 -32 C304 -32 311 -23 318 -11 C319 -9 392 328 404 390 C405 393 406 397 406 400 C406 417 391 432 374 432 L309 432 C345 450 372 484 381 525 C394 586 358 632 297 632 C236 632 180 586 167 525 C157 475 178 436 220 423 C177 407 144 372 127 327 C112 287 108 244 99 203 C90 162 76 119 76 77 C76 9 122 -32 189 -32 L189 -32 Z M293 668 C302 668 312 672 320 679 C323 683 394 782 398 789 C400 793 402 796 403 800 C406 817 395 832 377 832 C368 832 358 828 350 821 C347 817 276 719 272 711 C270 707 268 704 267 700 C264 683 275 668 293 668 L293 668 Z M231 525 C237 551 257 568 283 568 C319 568 317 545 317 525 C309 505 301 482 265 482 C239 482 226 499 231 525 L231 525 Z " />
<glyph glyph-name="AEacute" unicode="&#x1fc;" horiz-adv-x="537" d="M43 -32 C60 -32 73 -20 81 -4 L114 68 C114 68 114 68 114 68 L264 68 C269 68 273 69 278 71 C277 60 277 48 277 37 C276 27 277 18 280 9 C288 -18 313 -32 343 -32 L443 -32 C460 -32 478 -17 482 0 C488 31 460 33 438 33 C416 33 395 31 373 31 C368 31 352 31 347 34 C338 39 343 72 344 83 L352 368 L478 368 C495 368 513 383 517 400 C520 417 509 432 491 432 L354 432 L359 568 C399 568 439 568 479 568 C490 568 575 567 582 570 C595 575 606 586 609 600 C613 617 601 632 584 632 L334 632 C317 632 302 619 296 604 L87 152 C74 125 22 20 18 0 C14 -17 25 -32 43 -32 L43 -32 Z M290 448 C290 448 290 448 290 449 L289 432 C286 332 283 232 280 132 C279 132 278 132 278 132 L143 132 L290 448 Z M385 667 C395 667 405 671 412 678 C416 682 487 781 491 788 C493 792 495 795 495 799 C499 816 488 831 470 831 C461 831 451 827 443 820 C439 816 368 718 364 710 C363 706 361 703 360 699 C356 682 368 667 385 667 L385 667 Z " />
<glyph glyph-name="aeacute" unicode="&#x1fd;" horiz-adv-x="525" d="M53 64 C57 3 95 -30 158 -30 C174 -30 191 -17 195 0 C197 12 192 24 181 29 C176 31 170 31 164 31 C149 31 132 37 124 49 C116 62 112 83 116 100 L158 300 C168 341 200 370 243 370 L312 370 C310 357 307 344 304 330 C303 326 300 314 299 304 C298 303 298 301 298 300 L255 100 C252 88 252 76 253 64 C256 3 295 -30 358 -30 C374 -30 391 -17 395 0 C397 12 392 25 381 29 C376 30 370 31 364 31 C349 31 332 37 324 49 C316 62 312 83 316 100 L358 300 C368 341 400 370 443 370 C461 370 479 365 489 351 C497 339 501 318 498 302 C489 263 460 231 418 231 C399 231 381 220 376 200 C373 184 384 170 400 170 C463 170 516 203 545 264 C551 276 556 288 558 300 C561 312 561 325 561 336 C557 397 518 430 456 430 C428 430 402 424 380 411 C378 422 368 430 356 430 L256 430 C193 430 140 397 111 336 C105 325 100 312 98 300 L55 100 C52 88 52 76 53 64 L53 64 Z M337 468 C347 468 356 472 364 479 C368 483 439 582 443 589 C445 593 446 596 447 600 C451 617 439 632 422 632 C412 632 403 628 395 621 C384 610 316 517 312 500 C308 483 320 468 337 468 L337 468 Z " />
<glyph glyph-name="Oslashacute" unicode="&#x1fe;" horiz-adv-x="450" d="M85 -132 C97 -132 107 -126 116 -116 C120 -111 141 -69 161 -27 C175 -30 190 -32 206 -32 C292 -32 367 14 407 98 C416 115 423 133 426 150 L490 450 C494 467 494 485 493 502 C491 536 481 564 463 585 C487 631 516 689 518 700 C522 717 511 732 493 732 C481 732 471 726 462 716 C457 711 434 665 413 621 C394 628 372 632 347 632 C237 632 151 554 126 450 L62 150 C59 133 59 115 59 98 C62 54 78 20 106 -2 C84 -44 61 -90 59 -100 C56 -117 67 -132 85 -132 L85 -132 Z M140 65 C137 69 135 73 133 78 C125 99 121 125 126 150 L190 450 C203 512 259 568 324 568 C327 568 331 568 334 568 C352 568 367 568 383 559 C380 552 378 547 376 544 L141 69 C141 68 140 66 140 65 L140 65 Z M202 56 L425 508 C430 491 431 470 426 450 L362 150 C357 125 342 99 325 78 C298 44 256 32 219 32 C210 32 200 33 191 35 C196 45 199 52 202 56 L202 56 Z M342 667 C351 667 361 671 369 678 C373 682 444 781 448 788 C450 792 451 795 452 799 C456 816 444 831 427 831 C417 831 407 827 400 820 C391 811 317 710 317 699 C313 682 324 667 342 667 L342 667 Z " />
<glyph glyph-name="oslashacute" unicode="&#x1ff;" horiz-adv-x="350" d="M33 -82 C48 -82 58 -74 67 -61 C77 -47 87 -32 97 -18 C113 -27 133 -32 156 -32 C232 -32 300 24 316 100 L358 300 C364 327 362 351 354 372 L362 385 C374 403 388 420 398 439 C400 443 402 446 403 450 C406 468 395 482 377 482 C362 482 352 474 343 461 C333 447 323 432 313 418 C297 427 277 432 254 432 C178 432 110 376 94 300 L52 100 C46 73 48 49 56 28 L48 16 C36 -3 22 -20 12 -39 C10 -42 8 -46 7 -50 C4 -67 15 -82 33 -82 L33 -82 Z M135 41 C185 117 236 193 286 269 L289 273 L252 100 C243 59 210 32 169 32 C156 32 144 35 135 41 L135 41 Z M122 127 L158 300 C168 345 202 368 247 368 C258 368 268 365 275 360 C274 358 273 356 272 355 C222 280 173 205 124 131 L122 127 Z M250 468 C259 468 269 472 276 479 C280 483 351 582 355 589 C357 593 359 596 360 600 C363 617 352 632 334 632 C325 632 315 628 307 621 C304 617 233 519 229 511 C227 507 225 504 224 500 C221 483 232 468 250 468 L250 468 Z " />
<glyph glyph-name="uni0218" unicode="&#x218;" horiz-adv-x="425" d="M59 98 C64 14 119 -32 206 -32 C292 -32 367 14 407 98 C416 115 423 133 426 150 C463 324 164 329 190 450 C195 475 210 501 227 522 C255 556 296 568 333 568 C393 568 428 539 428 479 C429 455 416 418 451 418 C469 418 487 433 490 450 C494 467 494 485 493 502 C488 586 433 632 347 632 C238 632 150 554 126 450 C89 276 388 271 362 150 C357 125 342 99 325 78 C298 44 257 32 219 32 C159 32 125 61 124 121 C124 145 137 182 101 182 C84 182 66 167 62 150 C59 133 59 115 59 98 L59 98 Z " />
<glyph glyph-name="uni0219" unicode="&#x219;" horiz-adv-x="350" d="M156 -32 C232 -32 300 24 316 100 C342 222 144 231 158 300 C167 341 200 368 241 368 C336 368 262 268 320 268 C337 268 355 283 358 300 C374 376 330 432 254 432 C178 432 110 376 94 300 C68 178 267 170 252 100 C243 59 210 32 169 32 C74 32 148 132 91 132 C73 132 56 117 52 100 C36 24 80 -32 156 -32 L156 -32 Z " />
<glyph glyph-name="uni021A" unicode="&#x21a;" horiz-adv-x="399" d="M170 568 L288 568 L168 0 C164 -17 175 -32 193 -32 C210 -32 228 -17 232 0 L352 568 L470 568 C488 568 505 583 509 600 C513 617 501 632 484 632 L184 632 C166 632 149 617 145 600 C141 583 153 568 170 568 L170 568 Z " />
<glyph glyph-name="uni021B" unicode="&#x21b;" horiz-adv-x="275" d="M91 368 L159 368 L102 100 C86 24 130 -32 206 -32 C223 -32 241 -17 245 0 C255 49 186 16 170 58 C160 82 166 106 172 133 C189 211 206 290 223 368 L291 368 C308 368 326 383 330 400 C333 417 322 432 304 432 L237 432 C239 444 242 456 244 468 C250 493 262 532 226 532 C208 532 191 517 187 500 L172 432 L104 432 C87 432 69 417 66 400 C62 383 73 368 91 368 L91 368 Z " />
<glyph glyph-name="uni0237" unicode="&#x237;" horiz-adv-x="225" d="M-37 -200 C-37 -217 -22 -232 -5 -232 C72 -232 126 -182 146 -111 C155 -80 160 -49 167 -17 L240 329 C245 352 255 377 255 400 C255 417 240 432 223 432 C211 432 201 426 195 416 C190 408 175 328 171 312 L114 41 C106 5 90 -90 75 -118 C60 -147 33 -168 0 -168 C-20 -168 -37 -179 -37 -200 L-37 -200 Z " />
<glyph glyph-name="circumflex" unicode="&#x2c6;" horiz-adv-x="275" d="M137 468 C143 468 148 470 154 472 C165 478 239 541 255 554 L256 555 L256 554 C266 541 313 478 322 472 C326 470 331 468 337 468 C354 468 372 483 376 500 C377 508 376 515 373 521 C362 539 346 555 332 572 C319 589 307 609 291 625 C286 629 279 632 272 632 C264 632 257 629 250 625 C227 609 207 589 186 572 C165 555 142 539 124 521 C118 515 113 508 112 500 C108 483 120 468 137 468 L137 468 Z " />
<glyph glyph-name="caron" unicode="&#x2c7;" horiz-adv-x="275" d="M136 579 C147 561 163 545 177 528 C190 511 202 491 218 476 C223 471 229 468 237 468 C245 468 252 471 259 476 C282 491 302 511 323 528 C344 545 366 561 385 579 C391 585 395 593 397 600 C401 617 389 632 372 632 C366 632 360 630 355 628 C344 622 270 559 254 546 L253 545 L253 546 C242 559 196 622 187 628 C183 630 178 632 172 632 C154 632 137 617 133 600 C132 593 133 585 136 579 L136 579 Z " />
<glyph glyph-name="uni02C9" unicode="&#x2c9;" horiz-adv-x="275" d="M154 518 L354 518 C372 518 386 532 386 550 C386 567 372 582 354 582 L154 582 C137 582 122 567 122 550 C122 532 137 518 154 518 L154 518 Z " />
<glyph glyph-name="breve" unicode="&#x2d8;" horiz-adv-x="275" d="M237 468 C313 468 381 524 397 600 C401 617 389 632 372 632 C315 632 346 532 251 532 C155 532 229 632 172 632 C154 632 137 617 133 600 C117 524 161 468 237 468 L237 468 Z " />
<glyph glyph-name="dotaccent" unicode="&#x2d9;" horiz-adv-x="75" d="M148 518 C165 518 183 533 186 550 L197 600 C201 617 189 632 172 632 C154 632 137 617 133 600 L122 550 C119 533 130 518 148 518 L148 518 Z " />
<glyph glyph-name="ring" unicode="&#x2da;" horiz-adv-x="225" d="M201 418 C263 418 318 464 331 525 C344 586 308 632 247 632 C186 632 130 586 117 525 C104 464 140 418 201 418 L201 418 Z M181 525 C187 551 207 568 233 568 C269 568 267 545 267 525 C259 505 251 482 215 482 C189 482 176 499 181 525 L181 525 Z " />
<glyph glyph-name="ogonek" unicode="&#x2db;" horiz-adv-x="175" d="M-12 -232 C13 -232 25 -212 29 -192 C34 -170 37 -149 41 -128 C51 -84 70 -32 126 -32 C146 -32 165 -21 170 0 C173 17 162 32 144 32 C68 32 0 -24 -16 -100 L-37 -200 C-41 -217 -29 -232 -12 -232 L-12 -232 Z " />
<glyph glyph-name="tilde" unicode="&#x2dc;" horiz-adv-x="275" d="M142 492 C149 492 156 494 163 498 C188 514 175 542 203 542 C230 542 233 492 292 492 C339 492 382 527 392 574 C395 591 384 606 366 606 C360 606 352 604 346 600 C321 584 333 556 306 556 C279 556 276 606 216 606 C170 606 127 571 117 524 C113 507 125 492 142 492 L142 492 Z " />
<glyph glyph-name="hungarumlaut" unicode="&#x2dd;" horiz-adv-x="250" d="M262 468 C272 468 281 472 289 479 C293 483 364 582 368 589 C370 593 371 596 372 600 C376 617 364 632 347 632 C337 632 328 628 320 621 C309 610 241 517 237 500 C233 483 245 468 262 468 L262 468 Z M137 468 C147 468 156 472 164 479 C168 483 239 582 243 589 C245 593 246 596 247 600 C251 617 239 632 222 632 C212 632 203 628 195 621 C184 610 116 517 112 500 C108 483 120 468 137 468 L137 468 Z " />
<glyph glyph-name="acutecomb" unicode="&#x301;" horiz-adv-x="125" d="M137 468 C147 468 156 472 164 479 C168 483 239 582 243 589 C245 593 246 596 247 600 C251 617 239 632 222 632 C212 632 203 628 195 621 C184 610 116 517 112 500 C108 483 120 468 137 468 L137 468 Z " />
<glyph glyph-name="uni0302" unicode="&#x302;" horiz-adv-x="275" d="M137 468 C143 468 148 470 154 472 C165 478 239 541 255 554 L256 555 L256 554 C266 541 313 478 322 472 C326 470 331 468 337 468 C354 468 372 483 376 500 C377 508 376 515 373 521 C362 539 346 555 332 572 C319 589 307 609 291 625 C286 629 279 632 272 632 C264 632 257 629 250 625 C227 609 207 589 186 572 C165 555 142 539 124 521 C118 515 113 508 112 500 C108 483 120 468 137 468 L137 468 Z " />
<glyph glyph-name="tildecomb" unicode="&#x303;" horiz-adv-x="275" d="M142 492 C149 492 156 494 163 498 C188 514 175 542 203 542 C230 542 233 492 292 492 C339 492 382 527 392 574 C395 591 384 606 366 606 C360 606 352 604 346 600 C321 584 333 556 306 556 C279 556 276 606 216 606 C170 606 127 571 117 524 C113 507 125 492 142 492 L142 492 Z " />
<glyph glyph-name="uni0304" unicode="&#x304;" horiz-adv-x="275" d="M148 518 L348 518 C365 518 383 533 386 550 C390 568 379 582 361 582 L161 582 C144 582 126 568 123 550 C119 533 130 518 148 518 L148 518 Z " />
<glyph glyph-name="uni0306" unicode="&#x306;" horiz-adv-x="275" d="M237 468 C313 468 381 524 397 600 C401 617 389 632 372 632 C315 632 346 532 251 532 C155 532 229 632 172 632 C154 632 137 617 133 600 C117 524 161 468 237 468 L237 468 Z " />
<glyph glyph-name="uni0307" unicode="&#x307;" horiz-adv-x="75" d="M148 518 C165 518 183 533 186 550 L197 600 C201 617 189 632 172 632 C154 632 137 617 133 600 L122 550 C119 533 130 518 148 518 L148 518 Z " />
<glyph glyph-name="uni0308" unicode="&#x308;" horiz-adv-x="225" d="M148 518 C165 518 183 533 186 550 L197 600 C201 617 189 632 172 632 C154 632 137 617 133 600 L122 550 C119 533 130 518 148 518 L148 518 Z M298 518 C315 518 333 533 336 550 L347 600 C351 617 339 632 322 632 C304 632 287 617 283 600 L272 550 C269 533 280 518 298 518 L298 518 Z " />
<glyph glyph-name="uni030A" unicode="&#x30a;" horiz-adv-x="225" d="M201 418 C263 418 318 464 331 525 C344 586 308 632 247 632 C186 632 130 586 117 525 C104 464 140 418 201 418 L201 418 Z M181 525 C187 551 207 568 233 568 C269 568 267 545 267 525 C259 505 251 482 215 482 C189 482 176 499 181 525 L181 525 Z " />
<glyph glyph-name="uni030B" unicode="&#x30b;" horiz-adv-x="250" d="M262 468 C272 468 281 472 289 479 C293 483 364 582 368 589 C370 593 371 596 372 600 C376 617 364 632 347 632 C337 632 328 628 320 621 C309 610 241 517 237 500 C233 483 245 468 262 468 L262 468 Z M137 468 C147 468 156 472 164 479 C168 483 239 582 243 589 C245 593 246 596 247 600 C251 617 239 632 222 632 C212 632 203 628 195 621 C184 610 116 517 112 500 C108 483 120 468 137 468 L137 468 Z " />
<glyph glyph-name="uni030C" unicode="&#x30c;" horiz-adv-x="275" d="M136 579 C147 561 163 545 177 528 C190 511 202 491 218 476 C223 471 229 468 237 468 C245 468 252 471 259 476 C282 491 302 511 323 528 C344 545 366 561 385 579 C391 585 395 593 397 600 C401 617 389 632 372 632 C366 632 360 630 355 628 C344 622 270 559 254 546 L253 545 L253 546 C242 559 196 622 187 628 C183 630 178 632 172 632 C154 632 137 617 133 600 C132 593 133 585 136 579 L136 579 Z " />
<glyph glyph-name="uni0312" unicode="&#x312;" horiz-adv-x="125" d="M112 500 C112 483 126 468 144 468 C151 468 159 471 164 476 C168 478 239 576 243 584 C245 589 247 594 247 600 C247 617 232 632 215 632 C208 632 200 629 195 625 C191 622 120 524 116 516 C114 511 112 506 112 500 L112 500 Z " />
<glyph glyph-name="uni0315" unicode="&#x315;" horiz-adv-x="125" d="M112 500 C112 483 126 468 144 468 C151 468 159 471 164 476 C168 478 239 576 243 584 C245 589 247 594 247 600 C247 617 232 632 215 632 C208 632 200 629 195 625 C191 622 120 524 116 516 C114 511 112 506 112 500 L112 500 Z " />
<glyph glyph-name="uni0326" unicode="&#x326;" horiz-adv-x="225" d="M100 179 C112 156 144 181 136 144 L105 -1 C102 -18 113 -33 131 -33 C148 -33 166 -18 169 -1 L201 149 C211 195 183 231 137 231 C119 231 101 216 98 199 C96 192 97 185 100 179 L100 179 Z " />
<glyph glyph-name="uni0327" unicode="&#x327;" horiz-adv-x="175" d="M49 -182 C95 -182 138 -146 148 -100 L159 -50 C168 -4 141 32 94 32 C77 32 59 17 55 0 C54 -7 55 -14 58 -19 C68 -41 101 -20 94 -53 L85 -97 C82 -109 76 -118 62 -118 C35 -118 59 -90 41 -74 C36 -70 30 -68 23 -68 C6 -68 -12 -83 -16 -100 C-26 -146 2 -182 49 -182 L49 -182 Z " />
<glyph glyph-name="uni0328" unicode="&#x328;" horiz-adv-x="175" d="M-12 -232 C13 -232 25 -212 29 -192 C34 -170 37 -149 41 -128 C51 -84 70 -32 126 -32 C146 -32 165 -21 170 0 C173 17 162 32 144 32 C68 32 0 -24 -16 -100 L-37 -200 C-41 -217 -29 -232 -12 -232 L-12 -232 Z " />
<glyph glyph-name="uni0374" unicode="&#x374;" horiz-adv-x="175" d="M112 500 C112 483 126 468 144 468 C151 468 159 471 164 476 C168 478 239 576 243 584 C245 589 247 594 247 600 C247 617 232 632 215 632 C208 632 200 629 195 625 C191 622 120 524 116 516 C114 511 112 506 112 500 L112 500 Z " />
<glyph glyph-name="uni0375" unicode="&#x375;" horiz-adv-x="175" d="M-37 -199 C-37 -217 -22 -231 -5 -231 C19 -231 31 -204 43 -187 L144 -46 C153 -33 170 -16 170 1 C170 18 155 33 138 33 C114 33 102 5 90 -11 L39 -84 L-11 -153 C-20 -166 -37 -183 -37 -199 L-37 -199 Z " />
<glyph glyph-name="uni037E" unicode="&#x37e;" horiz-adv-x="200" d="M57 -32 C61 -32 66 -32 70 -33 C71 -35 71 -37 71 -40 C71 -47 68 -54 67 -61 C61 -86 49 -126 49 -150 C49 -168 63 -182 81 -182 C92 -182 102 -176 108 -166 C113 -159 135 -54 135 -42 C135 2 108 32 63 32 C45 32 31 17 31 0 C31 -16 42 -29 57 -32 L57 -32 Z M155 350 C155 333 170 318 187 318 C217 318 219 349 224 371 C226 381 230 390 230 400 C230 417 215 432 198 432 C167 432 165 402 160 379 C158 369 155 360 155 350 L155 350 Z " />
<glyph glyph-name="tonos" unicode="&#x384;" horiz-adv-x="125" d="M137 468 C147 468 156 472 164 479 C168 483 239 582 243 589 C245 593 246 596 247 600 C251 617 239 632 222 632 C212 632 203 628 195 621 C184 610 116 517 112 500 C108 483 120 468 137 468 L137 468 Z " />
<glyph glyph-name="dieresistonos" unicode="&#x385;" horiz-adv-x="225" d="M255 668 C264 668 274 672 281 679 C285 683 356 782 360 789 C362 793 364 796 365 800 C368 817 357 832 339 832 C330 832 320 828 312 821 C309 817 238 719 234 711 C232 707 230 704 229 700 C226 683 237 668 255 668 L255 668 Z M148 518 C165 518 183 533 186 550 L197 600 C201 617 189 632 172 632 C154 632 137 617 133 600 L122 550 C119 533 130 518 148 518 L148 518 Z M298 518 C315 518 333 533 336 550 L347 600 C351 617 339 632 322 632 C304 632 287 617 283 600 L272 550 C269 533 280 518 298 518 L298 518 Z " />
<glyph glyph-name="Alphatonos" unicode="&#x386;" horiz-adv-x="425" d="M56 -32 C68 -32 79 -26 87 -16 C91 -11 111 31 127 68 L327 68 C328 31 329 -11 331 -16 C336 -26 344 -32 356 -32 C373 -32 391 -17 395 0 C399 20 391 125 390 152 L373 604 C372 620 364 632 347 632 C329 632 316 620 309 604 L100 152 C87 125 35 20 31 0 C27 -17 38 -32 56 -32 L56 -32 Z M156 132 L312 468 L325 132 L156 132 Z M329 667 C339 667 349 671 356 678 C360 682 431 781 435 788 C437 792 439 795 439 799 C443 816 432 831 414 831 C405 831 395 827 387 820 C383 816 312 718 308 710 C307 706 305 703 304 699 C300 682 312 667 329 667 L329 667 Z " />
<glyph glyph-name="anoteleia" unicode="&#x387;" horiz-adv-x="268" d="" />
<glyph glyph-name="Epsilontonos" unicode="&#x388;" horiz-adv-x="400" d="M106 -32 L306 -32 C323 -32 341 -17 345 0 C351 30 325 32 303 32 C245 32 187 31 130 31 C113 31 101 32 106 53 L173 368 L291 368 C308 368 326 383 330 400 C333 417 322 432 304 432 L186 432 L215 568 C257 568 298 568 339 568 C351 568 437 567 445 570 C458 575 469 586 472 600 C476 617 464 632 447 632 L197 632 C179 632 162 617 158 600 L116 402 C116 401 116 401 115 398 L41 50 C31 3 59 -32 106 -32 L106 -32 Z M317 667 C326 667 336 671 344 678 C348 682 419 781 423 788 C425 792 426 795 427 799 C431 816 419 831 402 831 C392 831 382 827 375 820 C366 811 292 710 292 699 C288 682 299 667 317 667 L317 667 Z " />
<glyph glyph-name="Etatonos" unicode="&#x389;" horiz-adv-x="450" d="M56 -32 C73 -32 91 -17 95 0 L173 368 L409 368 L331 0 C327 -17 338 -32 356 -32 C373 -32 391 -17 395 0 L522 600 C526 617 514 632 497 632 C479 632 462 617 458 600 L422 432 L186 432 L222 600 C226 617 214 632 197 632 C179 632 162 617 158 600 L116 402 C116 401 115 399 115 398 L31 0 C27 -17 38 -32 56 -32 L56 -32 Z M342 667 C351 667 361 671 369 678 C373 682 444 781 448 788 C450 792 451 795 452 799 C456 816 444 831 427 831 C417 831 407 827 400 820 C391 811 317 710 317 699 C313 682 324 667 342 667 L342 667 Z " />
<glyph glyph-name="Iotatonos" unicode="&#x38a;" horiz-adv-x="150" d="M56 -32 C73 -32 91 -17 95 0 L222 600 C226 617 214 632 197 632 C179 632 162 617 158 600 L31 0 C27 -17 38 -32 56 -32 L56 -32 Z M192 667 C201 667 211 671 219 678 C223 682 294 781 298 788 C300 792 301 795 302 799 C306 816 294 831 277 831 C267 831 257 827 250 820 C241 811 167 710 167 699 C163 682 174 667 192 667 L192 667 Z " />
<glyph glyph-name="Omicrontonos" unicode="&#x38c;" horiz-adv-x="450" d="M59 98 C64 14 119 -32 206 -32 C292 -32 367 14 407 98 C416 115 423 133 426 150 L490 450 C494 467 494 485 493 502 C488 586 433 632 347 632 C237 632 151 554 126 450 L62 150 C59 133 59 115 59 98 L59 98 Z M126 150 L190 450 C203 512 259 568 324 568 C327 568 331 568 334 568 C337 568 341 568 344 568 C408 568 439 511 426 450 L362 150 C357 125 342 99 325 78 C298 44 256 32 219 32 C182 32 146 44 133 78 C125 99 121 125 126 150 L126 150 Z M342 667 C351 667 361 671 369 678 C373 682 444 781 448 788 C450 792 451 795 452 799 C456 816 444 831 427 831 C417 831 407 827 400 820 C391 811 317 710 317 699 C313 682 324 667 342 667 L342 667 Z " />
<glyph glyph-name="Upsilontonos" unicode="&#x38e;" horiz-adv-x="399" d="M146 584 C148 576 224 436 250 390 L168 0 C164 -17 175 -32 193 -32 C210 -32 228 -17 232 0 L314 390 C360 436 496 576 501 584 C505 589 508 594 509 600 C513 617 501 632 484 632 C459 632 429 592 412 574 L296 453 L231 574 C221 592 209 632 184 632 C166 632 149 617 145 600 C144 594 145 589 146 584 L146 584 Z M316 667 C326 667 336 671 343 678 C347 682 418 781 422 788 C424 792 426 795 426 799 C430 816 419 831 401 831 C392 831 382 827 374 820 C370 816 299 718 295 710 C294 706 292 703 291 699 C287 682 299 667 316 667 L316 667 Z " />
</font>
</svg>
