<svg xmlns="http://www.w3.org/2000/svg" viewBox="0 0 560 560"><defs><style>.cls-1{fill:#e7ecc8;}.cls-2{fill:#bac561;}.cls-3{fill:#8e9e05;}</style></defs><title>sproetsstijl_2018-avatar-groen-web</title><g id="bg"><path class="cls-1" d="M211.57,145.93c-39.62,19.81-67.82,57.89-73.4,99s-5.32,81.48-5.32,81.48S105,329.7,100.21,353.47s6.13,41.64,22.74,43.76,27-.13,27-.13,38.55,53.12,61.59,68.48,69.4,39,119,10.56,84.65-78.84,85-158.45-19.76-136.25-68.72-159.28S244.2,129.61,211.57,145.93Z"/></g><g id="schaduw"><path class="cls-2" d="M402.85,233.6c-9.9-27.16-25.34-51.74-49.52-68.22a200.18,200.18,0,0,0-39.5-20.46A167.38,167.38,0,0,0,292.24,138c-7.49-1.8-14.93-1.49-22.54-1.48-2.15,0-4.19-8.17-5.34-5-1.3-1.39-2.75,8.24-4,6.81-10-11.42-22.26-9.21-5.8,12.23,13.5,17.57,22.62,37.83,29.17,59.12,3.54,11.48,6.2,23.56,6.67,35.59a38.1,38.1,0,0,1-2.46,15.29c-1.72,4.54-6.21,7.46-8.43,11.72a10.74,10.74,0,0,0-.56,1.31c-19.47.63-39.07,5.23-57.62,10-11.89,3.07-23.85,6.43-35.12,11.35C174,300.29,161.54,309,160.69,323.66c-.23,3.92.68,10.9,5.73,11.78,8.57,1.49,15.47-1.11,23.08-4.83s15.48-7.31,23.32-10.74c14.7-6.41,29.71-12.75,45.21-17,8.1-2.2,20.08-4.4,28.69-.81,3.12,10.81,7,21.41,9.26,32.48.85,4.23,2.2,13.56-.06,16.23-2.69,3.2-10.72,3.83-15,4.87a11.52,11.52,0,0,0-1.69.55l-.66-1c-1.37-2.06-4.06.9-4.76,1.95-1.61,2.42-2.77,5.95-2.12,8.93-.09.43-.17.87-.23,1.31-.48,3.61.56,8.93,4.27,10.24,3.2,9.47,5.65,19.06,4.44,29.17a20.44,20.44,0,0,1-5.57,12.27c-4,4.57-11.26,6.41-15.89,11.22-2.57,2.67-3.74,7.26-3.53,10.86.17,3.07,2.31,8.54,6.47,7.58h0c16.21,2.8,12.64,24.79,7.69,39.41-1.89,5.59,5.49,10,10.69,5.9a21.08,21.08,0,0,0,2.73-2.6,8.21,8.21,0,0,0,4.14-.39c46.78-15.27,88.67-39.39,110.73-83.07,25.31-50.13,24.39-121.88,5.25-174.39Zm-69,136.89c-8,.59-19.94-6.44-16.67-16.72,1.58-5.55,14.18-10.72,19-12.13,8.16-2.36,25.28-6.22,38.34-5.46,11,.65,26.44,3.55,21.12,10.75C382.62,364.6,356.51,368.82,333.86,370.49Z"/><path class="cls-2" d="M154.11,385c-.5-4.55-6.37-10.35-8.4-14.46-1.91-3.89,2.85-7-.21-9.86a52.65,52.65,0,0,1-6.95-8c-1.89-2.68-3-6.87-5.63-8.88-1-.67-2.47-.53-3.94.73-7.79,7.61-7.25,19.93-2.78,28.94,1.92,3.87,5,7.21,8,10.29,1,1.06,2.75,1.82,3.65,2.84,1.3,1.46,1.91,3.66,2.62,5.43,1.61,4,5,6.91,9.53,5.13C155.55,394.91,154.74,390.67,154.11,385Z"/></g><g id="lijn"><path class="cls-3" d="M497.55,123.1c-51.8-28.41-112.08-38.61-170.64-32.35-29.19,3.12-58.54,9.37-84.82,22.45-35.32,17.58-46.25,29.53-49,31.35,0-.47-.3-.65-.8-.67-7-16.8-27.8-27.39-43.67-33.4-22.74-8.61-47.11-9.24-71-7.15-5.69.5-10.11,17.32-3.12,17.19,21.66-.43,43.85.47,64.77,6.51a108.5,108.5,0,0,1,26.06,11.49c5.34,3.22,11.44,7.43,15.72,12.66l-.14.16-.25.31c-10.25-.4-20.76,1.71-30.59,4a164.13,164.13,0,0,0-35.34,13.1,163.8,163.8,0,0,0-59.85,50.12A16,16,0,0,0,52,230.13c.57,3.58,4,5.26,6.59,2.14a190.44,190.44,0,0,1,54.16-45,182.24,182.24,0,0,1,32.37-13.49,156.09,156.09,0,0,1,21.37-5.39c-3.92,4.62-9.5,14.23-13.71,22.89-3.31,2.06-6.77,4.92-7.75,5.62-4.88,3.54-9.56,7.35-14.11,11.3a220.61,220.61,0,0,0-25,25.64,205.53,205.53,0,0,0-36.11,63.9c-.83,2.35-1.63,6.51.25,8.63,2.37,2.66,5.74-2.31,6.45-4.09a229,229,0,0,1,33.42-58c6.9-8.62,35.41-34.27,36.69-35.2-12.06,30.11-16,79.76-14,112.85-10.45-.27-20.19,2.77-27.68,10.88-8.44,9.13-12.53,22.55-11.51,34.83a43.5,43.5,0,0,0,16.42,30.16c10.91,8.76,24.67,10.94,38.15,8.62,1.76-.3,3.42-1.84,4.75-3.92a196.84,196.84,0,0,0,24.05,39.2l-.18.12a255.48,255.48,0,0,0-22.24,17.65,14.27,14.27,0,0,0-4.55,9.87c-.2,3.6,1.68,6.18,4.81,3.24a268.91,268.91,0,0,1,21.07-17.8q3.67-2.79,7.41-5.51a171,171,0,0,0,40.87,34l.27.15c-1.17,2.38-2.24,4.8-3.3,7.23a103.28,103.28,0,0,0-5.61,17.85c-.35,1.52-.84,5.49,1.27,6.17s4-2.82,4.65-4.24c3.49-7.62,6.84-15.39,10.72-22.84a110.5,110.5,0,0,0,43.24,11.25,82.93,82.93,0,0,0,1.63,19.71c.77,3.55,3.39,4.81,6.15,2a15.93,15.93,0,0,0,4-12.36c-.32-3.13-.6-6.24-.79-9.35a111.54,111.54,0,0,0,26.9-4.71,127.3,127.3,0,0,0,23.62-10c.31.69.62,1.39,1,2.08a64.48,64.48,0,0,0,4.14,7.27,53.55,53.55,0,0,0,9.95,11.65c5.07,4.45,10.63-11.27,7.29-15.28a97.42,97.42,0,0,1-9.58-13.58,154.51,154.51,0,0,0,34.36-33.08c-.82,3.48-.6,7,1.61,8.36l3.7,2.18c2.44,1.41,4.93,2.73,7.42,4,5.61,2.94,11.4,5.53,17.26,7.93,5.4,2.21,11.26-14.54,5.48-16.86a215.65,215.65,0,0,1-28.39-13.92,2.12,2.12,0,0,0-1-.28c16.37-24.59,26-53.43,31.12-82.36,5.85-33,6.4-68.13-1.37-100.86-8.93-37.67-29.58-71.76-58.83-95.72a279.9,279.9,0,0,1,120.89,78.5c4,4.47,10.82-10.89,7.18-15.09C446.12,169.55,381,126.73,264.37,121.5a297.45,297.45,0,0,1,76.5-12.94c51.95-2.13,104.24,9.68,150.73,32.84C497.43,144.3,503.8,126.53,497.55,123.1ZM106.92,364.55c-2.75-5.88-2.88-12.87,1.54-17.93,5.84-6.67,15.89-7.79,24.19-7a3.66,3.66,0,0,0,1.67-.22A224.34,224.34,0,0,0,146.25,387C130.25,386.12,114.07,379.81,106.92,364.55Zm215-209.45c28.68,13.12,52.08,36,67.74,63.17,16.33,28.36,23.22,60.38,23.13,92.9-.17,61.61-21.83,127.26-79.79,157a106.26,106.26,0,0,1-44.08,11.78c-.79-1.81-3.74-2.19-6.27-1.28a15.9,15.9,0,0,0-2.57,1.28,107,107,0,0,1-35.85-7.86l-1.82-.77c1-2.33,1.22-4.31-.6-5.14-2.44-1.11-5.06-.19-7.38,1.43a150.57,150.57,0,0,1-38-27.93,61.74,61.74,0,0,0,5.6-6.22c.5-.6,2.55-3.22.72-3.69-4.77-1.24-3.6-1.74-7.34.34-1.76,1-3.5,2-5.23,3a193.86,193.86,0,0,1-16.73-21.32c-29-42.8-37.54-96.18-32.29-146.86a227.06,227.06,0,0,1,16.07-64.12c18.1-32.14,48-48.87,74.31-55.63C261.82,137.39,293.72,142.21,321.88,155.1Z"/><path class="cls-3" d="M385.52,451.54l-.06,0C384.72,451.07,384.44,450.91,385.52,451.54Z"/><path class="cls-3" d="M377.1,273.79c-17.14-7.64-37.45-8.28-56-8.78a289.32,289.32,0,0,0-45.48,2.51c-.5-.57-1-1.14-1.52-1.7-1.06-1.16-2.5.23-3.64,2.41-1.89.28-3.77.57-5.66.88-37.73,6.26-74.26,19.68-106.56,40.21-3.7,2.35-6.76,17.54-.79,14.16A347,347,0,0,1,211.1,298.8c0,.43,0,.76,0,.88l-.42,6.29c-.34,4.87-.71,9.74-1,14.62-.19,3.86,2.5,8.76,6.92,6.41s6.77-8.89,6.43-13.66c-.43-6.07-.95-12.13-1.91-18.2h0a379.82,379.82,0,0,1,38.33-9.64c4.6-.86,9.41-1.61,14.05-2.24a192.09,192.09,0,0,1,18.72,33.56,71.72,71.72,0,0,1,5.85,21.7c.28,3.1-.83,3.23-3.86,4.28a52.28,52.28,0,0,1-10.08,1.91c-6,.82-15.67.12-20.22,4.66-6,6-4.48,13.78-2.34,20.87,4.53,15,8.51,30.3,13.71,45.08a57.67,57.67,0,0,0-6.22,2.37c-4.66,2-8.63,5.17-12.47,8.38-2.68,2.24-4,6.93-4.07,10.25-.08,2.38,1.39,7.61,4.83,5a81.82,81.82,0,0,1,19.59-11c3.49-1.35,5.2-5.59,5.85-9,0-.12,0-.25.06-.4l.22-.2c2.9-2.91,5.13-8.59,4.13-12.72-2.28-9.48-5.41-18.74-8.32-28q-2-6.52-4.06-13c-.34-1.08-.67-2.15-1-3.22l7.16-1.25a55.2,55.2,0,0,0,14.34-4.06c10.85-5.08,13-19.06,12.09-29.61-1.47-16.59-10-32.93-20.26-47,9.32-.87,18.67-1.33,28-1.45,2.54,0,5.12-.05,7.72,0-.09,9.87-1.15,20,.28,29.73.41,2.74,2.51,5,5.29,3.31,3.17-1.87,5-6.2,5.56-9.68,1.16-7.62.47-15.47-.77-23.18,13.51.49,27.23,2.05,39.64,6.22C376.58,287.84,380.76,275.42,377.1,273.79Z"/><path class="cls-3" d="M451.56,398.88c-10.36-.37-20.76-.82-31.09-1.64-6.13-.49-10.41,15.88-5.32,16.39a219.94,219.94,0,0,0,32.36,1C452.27,414.42,456.05,399,451.56,398.88Z"/></g></svg>