<?xml version="1.0" encoding="UTF-8"?>
<svg xmlns="http://www.w3.org/2000/svg" width="1996.202mm" height="442.706mm" viewBox="0 0 5658.526 1254.915">
  <g id="a" data-name="bg-vlak">
    <rect x="-8.504" y="-2.442" width="5662.855" height="1254.915" rx="138.291" ry="138.291" fill="#f9f0e1"/>
  </g>
  <g id="b" data-name="bg-kader">
    <path d="M3904.801,186.494c178.648,1.154,357.296,2.308,535.944,3.461,284.327,1.836,568.654,3.673,852.981,5.509,64.704,.418,129.408,.836,194.111,1.254-15.383-12.434-30.766-24.868-46.149-37.301v960.129c17.453-14.077,34.907-28.153,52.36-42.23H402.254c-68.563,0-137.895-2.997-206.411,0-2.996,.131-6.024,0-9.024,0,15.383,12.434,30.766,24.868,46.149,37.301V154.488c-17.453,14.077-34.907,28.153-52.36,42.23,189.029-1.357,378.057-2.714,567.086-4.072,299.184-2.148,598.367-4.296,897.551-6.444,68.964-.495,137.927-.99,206.891-1.485,22.867-.164,50.552-17.775,52.36-42.23,1.916-25.915-24.457-37.457-46.149-37.301-189.029,1.357-378.057,2.714-567.086,4.072-299.184,2.148-598.367,4.296-897.551,6.444-68.964,.495-137.927,.99-206.891,1.485-21.377,.153-52.36,17.86-52.36,42.23v960.129c0,25.832,22.878,37.301,46.149,37.301H5272.403c68.748,0,137.674,1.443,206.411,0,3.005-.063,6.018,0,9.024,0,21.374,0,52.36-17.977,52.36-42.23V154.488c0-25.939-22.885-37.151-46.149-37.301-178.648-1.154-357.296-2.308-535.944-3.461-284.327-1.836-568.654-3.673-852.981-5.509-64.704-.418-129.408-.836-194.111-1.254-22.847-.148-50.568,17.991-52.36,42.23-1.933,26.145,24.483,37.162,46.149,37.301h0Z" fill="#d35106"/>
  </g>
  <g id="c" data-name="tekst">
    <g>
      <path d="M399.303,371.65c0-26.372,56.26-41.316,76.479-41.316h131.858c47.47,0,102.851,10.549,117.795,63.292,5.273,17.581,4.395,36.042,4.395,54.501v14.065c0,43.953-32.525,76.478-67.688,98.455,61.534,13.186,80.874,50.106,87.027,109.003,3.516,30.767,2.637,62.413,2.637,93.18s-.879,76.478-14.064,103.729c-45.711,91.422-194.272,98.455-287.453,98.455-15.822,0-50.985,.879-50.985-21.977V371.65Zm219.765,109.882v-18.46c0-20.219-1.758-50.985-19.339-63.292-9.67-7.032-22.855-6.153-34.283-6.153h-55.381v155.593c43.074-4.395,109.003-11.428,109.003-67.688Zm-109.003,131.859v288.332h4.396c20.218,0,94.938-3.517,108.124-15.823,18.46-17.581,18.46-74.72,18.46-98.455,0-38.679,2.638-118.673-20.218-149.44-6.153-7.912-14.065-13.186-23.735-16.702-20.218-7.033-60.654-7.912-87.026-7.912Z" fill="#345b91"/>
      <path d="M791.729,657.344c0-49.228,.879-98.455,7.033-147.682,7.911-65.05,22.855-122.189,85.269-155.593,36.041-19.339,76.478-23.735,116.035-23.735,59.776,0,102.851,15.823,124.826,73.841,21.098,58.897,19.34,174.054,19.34,239.104s0,211.853-40.437,262.838c-35.163,44.832-91.423,58.897-145.924,58.897-36.042,0-75.6-6.153-103.729-29.888-63.292-51.864-62.413-201.304-62.413-277.782Zm110.762-19.339c0,60.655,1.758,205.7,48.349,247.895,17.581,14.944,30.767,15.823,51.864,15.823,31.646-42.195,30.767-209.216,30.767-266.355,0-48.348,.879-198.667-35.162-229.435-15.823-13.186-24.613-12.307-43.953-12.307-4.396,0-9.67-.879-14.064,0-37.8,42.195-37.8,187.239-37.8,244.378Z" fill="#345b91"/>
      <path d="M1183.02,936.885V371.65c0-26.372,56.26-41.316,76.478-41.316h175.812c13.186,0,34.283,5.274,34.283,21.977,0,6.153-6.153,13.186-10.549,17.582-26.372,24.613-62.413,24.613-95.817,24.613-22.855,0-46.591-.879-69.446-.879v156.473h97.576c13.186,0,34.283,5.274,34.283,21.976,0,26.372-56.26,41.316-76.479,41.316h-55.381v290.089c17.582,.879,36.042,.879,53.623,.879,29.009,0,58.896-2.637,87.906-2.637,13.186,0,34.283,5.274,34.283,21.976,0,17.582-34.283,33.404-48.349,36.92-30.767,7.912-105.487,6.154-140.649,6.154-20.219,0-97.575,.879-97.575-29.888Z" fill="#345b91"/>
      <path d="M1503.721,943.038V371.65c0-26.372,56.26-41.316,76.479-41.316h109.883c14.943,0,30.767,4.396,44.832,9.67,60.654,24.614,77.356,84.39,77.356,144.166,0,80.874-42.194,124.826-99.333,147.682,1.758,4.395,2.637,9.669,4.395,14.065l65.051,187.239c.879,1.758,29.888,79.115,29.888,90.543,0,26.372-56.26,41.316-76.478,41.316-37.8,0-36.921-25.493-46.591-54.501l-65.05-187.24c0-.879-4.396-10.549-8.791-23.734,0,118.673,0,225.918-1.758,229.434-11.428,24.614-50.106,36.042-75.599,36.042-13.187,0-34.284-5.274-34.284-21.977Zm167.021-357.777c27.251-14.944,30.768-53.623,30.768-81.752,0-35.163-7.912-81.752-39.558-102.85-2.638-1.758-13.187-7.032-14.944-7.032h-32.525c0,20.218,0,103.729,.879,199.546,21.098-.879,45.711-2.637,55.381-7.912Z" fill="#345b91"/>
      <path d="M1848.043,371.65c0-4.395,2.637-8.791,5.274-12.307,26.372-30.767,71.204-29.009,108.124-29.009,43.953,0,120.432-4.395,158.23,15.823,79.994,43.074,80.874,190.756,80.874,269.871,0,116.036-14.944,281.299-137.134,334.042-21.977,9.669-46.59,14.944-71.203,14.944h-109.883c-13.186,0-34.283-5.274-34.283-21.977V371.65Zm110.762,21.977v508.096h65.05c56.26-49.228,65.93-194.272,65.93-266.355,0-58.897-3.517-145.924-28.13-198.667-16.702-35.162-30.768-43.074-69.445-43.074h-33.404Z" fill="#345b91"/>
      <path d="M2241.531,936.885V371.65c0-26.372,56.26-41.316,76.478-41.316h175.812c13.186,0,34.283,5.274,34.283,21.977,0,6.153-6.153,13.186-10.549,17.582-26.372,24.613-62.413,24.613-95.817,24.613-22.855,0-46.591-.879-69.446-.879v156.473h97.576c13.186,0,34.283,5.274,34.283,21.976,0,26.372-56.26,41.316-76.479,41.316h-55.381v290.089c17.582,.879,36.042,.879,53.623,.879,29.009,0,58.896-2.637,87.906-2.637,13.186,0,34.283,5.274,34.283,21.976,0,17.582-34.283,33.404-48.349,36.92-30.767,7.912-105.487,6.154-140.649,6.154-20.219,0-97.575,.879-97.575-29.888Z" fill="#345b91"/>
      <path d="M2564.232,943.038V371.65c0-26.372,56.26-41.316,76.479-41.316h109.883c14.943,0,30.767,4.396,44.832,9.67,60.654,24.614,77.356,84.39,77.356,144.166,0,80.874-42.194,124.826-99.333,147.682,1.758,4.395,2.637,9.669,4.395,14.065l65.051,187.239c.879,1.758,29.888,79.115,29.888,90.543,0,26.372-56.26,41.316-76.478,41.316-37.8,0-36.921-25.493-46.591-54.501l-65.05-187.24c0-.879-4.396-10.549-8.791-23.734,0,118.673,0,225.918-1.758,229.434-11.428,24.614-50.106,36.042-75.599,36.042-13.187,0-34.284-5.274-34.284-21.977Zm167.021-357.777c27.251-14.944,30.768-53.623,30.768-81.752,0-35.163-7.912-81.752-39.558-102.85-2.638-1.758-13.187-7.032-14.944-7.032h-32.525c0,20.218,0,103.729,.879,199.546,21.098-.879,45.711-2.637,55.381-7.912Z" fill="#345b91"/>
      <path d="M2922.353,603.039v-230.354c0-26.372,56.26-41.316,76.479-41.316,13.186,0,34.283,5.274,34.283,21.977v230.354c0,26.372-56.26,41.316-76.478,41.316-13.187,0-34.284-5.274-34.284-21.977Z" fill="#345b91"/>
      <path d="M2928.232,723.274c0-26.372,56.26-41.316,76.479-41.316,10.549,0,24.613,3.517,31.646,12.307,9.67,12.307-5.79,162.626,30.251,202.184,38.134-8.288,54.343-80.874,54.343-116.036,0-125.705-1.759-251.411-1.759-377.116,0-6.153,0-32.525,1.759-36.92,9.669-24.613,51.864-36.042,75.599-36.042,13.186,0,34.283,5.274,34.283,21.977v439.529c0,103.729-95.142,173.175-202.388,173.175-28.13,0-56.26-9.669-73.841-32.525-26.372-35.162-27.251-123.068-27.251-167.021l.879-42.195Z" fill="#345b91"/>
      <path d="M3345.178,330.334c11.428,0,24.613,3.517,31.646,12.307,3.517,4.395,63.292,319.098,70.325,357.777,3.516-13.186,17.581-67.688,22.855-75.599,14.064-20.218,49.228-30.767,72.962-30.767,11.428,0,24.613,3.516,31.646,12.307,2.638,3.516,23.735,78.236,27.251,89.664,14.944-77.357,29.009-153.835,43.953-231.192l13.186-67.688c1.759-10.549,2.638-20.218,6.153-30.767,7.912-23.734,52.744-36.042,75.6-36.042,13.186,0,34.283,5.274,34.283,21.977,0,14.065-5.274,29.009-7.911,43.074l-20.219,102.85c-22.855,115.157-43.953,230.313-65.93,345.47-2.637,15.823-13.186,81.752-19.339,90.543-14.065,20.218-49.228,30.767-72.962,30.767-11.428,0-23.734-3.516-31.646-12.307-2.637-3.517-34.283-115.157-38.679-130.101-5.274,17.582-27.251,103.729-32.524,111.641-14.944,20.218-49.228,30.767-72.962,30.767-11.428,0-24.614-3.516-31.646-12.307-3.517-4.396-15.823-77.357-18.46-89.664l-86.148-444.804c-2.637-15.823-7.911-30.767-7.911-46.59,0-26.372,56.26-41.316,76.479-41.316Z" fill="#345b91"/>
      <path d="M3804.146,943.038V371.65c0-26.372,56.26-41.316,76.479-41.316,13.186,0,34.283,5.274,34.283,21.977V923.699c0,26.372-56.26,41.316-76.478,41.316-13.187,0-34.284-5.274-34.284-21.977Z" fill="#345b91"/>
      <path d="M3972.266,371.65c0-26.372,56.26-41.316,76.478-41.316,9.67,0,20.219,1.758,28.13,7.912,1.758,.879,58.897,70.325,115.157,138.012,0-60.655,.879-108.124,1.758-109.882,13.186-25.493,48.348-36.042,75.599-36.042,13.187,0,34.283,5.274,34.283,21.977v215.37c0,28.13,.88,356.898-1.758,361.293-13.186,25.493-48.348,36.042-75.599,36.042-13.187,0-34.283-5.274-34.283-21.977v-297.122c-11.428-10.549-20.219-26.372-29.889-37.8l-79.115-94.938c0,44.832,2.638,408.763-.879,415.795-10.549,24.614-50.985,36.042-75.599,36.042-13.187,0-34.283-5.274-34.283-21.977V371.65Z" fill="#345b91"/>
      <path d="M4436.783,330.334c13.186,0,34.283,5.274,34.283,21.977v154.714l93.181-101.971c35.162-38.679,55.381-74.72,114.277-74.72,13.186,0,34.283,5.274,34.283,21.977,0,11.428-26.371,35.163-34.283,43.953l-116.915,128.342c17.581,43.953,98.455,250.532,105.487,268.992l29.888,75.599c5.274,13.186,12.308,28.13,15.823,42.195v5.274c0,4.395-2.637,8.791-5.274,12.307-16.702,19.339-46.59,29.009-71.203,29.009-12.308,0-22.855-3.517-31.646-12.307-.879-.879-101.092-256.685-109.003-276.903l-19.34-49.228c-1.758,1.758-3.516,3.516-5.274,5.274v298.88c0,26.372-56.26,41.316-76.478,41.316-13.187,0-34.283-5.274-34.283-21.977V371.65c0-26.372,56.26-41.316,76.478-41.316Z" fill="#345b91"/>
      <path d="M4746.062,936.885V371.65c0-26.372,56.26-41.316,76.478-41.316h175.812c13.186,0,34.283,5.274,34.283,21.977,0,6.153-6.153,13.186-10.549,17.582-26.372,24.613-62.413,24.613-95.817,24.613-22.855,0-46.591-.879-69.446-.879v156.473h97.576c13.186,0,34.283,5.274,34.283,21.976,0,26.372-56.26,41.316-76.479,41.316h-55.381v290.089c17.582,.879,36.042,.879,53.623,.879,29.009,0,58.896-2.637,87.906-2.637,13.186,0,34.283,5.274,34.283,21.976,0,17.582-34.283,33.404-48.349,36.92-30.767,7.912-105.487,6.154-140.649,6.154-20.219,0-97.575,.879-97.575-29.888Z" fill="#345b91"/>
      <path d="M5145.242,330.334c12.307,0,29.888,3.517,34.283,16.702,.879,3.517,.879,39.558,.879,44.832,0,170.538-.879,340.196-.879,510.733,10.549,.879,20.219,0,30.768,0,29.888,0,58.896-2.637,88.784-2.637,13.187,0,34.283,5.274,34.283,21.977,0,6.153-6.153,13.186-10.548,17.581-33.404,30.767-104.608,26.372-147.683,26.372-21.097,0-78.236-.879-94.938-9.669-7.032-3.516-11.428-8.791-11.428-16.702V371.65c0-26.372,56.26-41.316,76.479-41.316Z" fill="#345b91"/>
    </g>
    <g>
      <path d="M2005.441,94.159c10.208-11.2,28.864-10.56,43.297-10.56,16.544,0,43.296-1.28,58.433,2.88,33.792,8.96,37.312,41.921,37.312,69.121,0,57.602-10.208,95.042-83.426,95.042h-44c-5.28,0-13.729-1.92-13.729-8V98.64c0-1.601,1.057-3.2,2.112-4.48Zm42.24,12.48v120.963h32.385c2.112,0,3.872,.32,5.984,0,12.32-9.92,14.08-50.241,14.08-64.962,0-16-2.112-46.081-20.064-54.081-4.576-1.92-10.561-1.92-15.488-1.92h-16.896Z" fill="#d35106"/>
      <path d="M2195.166,239.443V98.64c0-9.601,22.528-15.04,30.625-15.04h70.4c5.28,0,13.729,1.92,13.729,8,0,2.24-2.464,4.8-4.225,6.4-10.56,8.96-24.992,8.96-38.368,8.96-9.152,0-18.656-.32-27.809-.32v24.961h39.073c5.279,0,13.728,1.92,13.728,8,0,9.601-22.528,15.04-30.624,15.04h-22.177v72.322c2.816,0,5.633,.319,8.448,.319,16.192,0,32.032-1.279,48.225-1.279,5.28,0,13.729,1.92,13.729,8,0,7.68-16.544,13.44-23.232,14.4-5.984,.96-11.968,.64-18.305,.96-13.023,.319-26.048,.64-39.072,.64-8.096,0-34.145,0-34.145-10.561Z" fill="#d35106"/>
      <path d="M2445.782,98.64c0-9.601,22.528-15.04,30.625-15.04h52.801c14.784,0,40.48,.64,47.168,15.36,2.112,4.479,1.761,10.56,1.761,15.36,0,11.2-9.505,17.92-19.009,23.36,25.696,8.32,27.809,28.16,27.809,49.921,0,11.521-1.408,24.001-8.097,33.921-19.008,28.16-70.753,29.12-102.785,29.12-7.04,0-30.272,2.24-30.272-8V98.64Zm88.001,26.24h-.352c.352-.64,.352-1.6,.352-2.24,0-11.84-.703-16-14.432-16h-29.217v24.961c11.265-.641,34.849-2.24,43.648-6.721Zm-43.648,30.081v72.642c7.393,0,39.425-.32,44.001-2.88,7.744-4.801,8.448-22.4,8.448-30.081,0-10.561-.704-28.16-11.265-34.561-2.111-1.28-8.448-3.521-10.912-3.521h-.352c-10.208-.96-20.064-1.6-29.921-1.6Z" fill="#d35106"/>
      <path d="M2637.266,239.443V98.64c0-9.601,22.528-15.04,30.625-15.04h70.4c5.28,0,13.729,1.92,13.729,8,0,2.24-2.464,4.8-4.225,6.4-10.56,8.96-24.992,8.96-38.368,8.96-9.152,0-18.656-.32-27.809-.32v24.961h39.073c5.279,0,13.728,1.92,13.728,8,0,9.601-22.528,15.04-30.624,15.04h-22.177v72.322c2.816,0,5.633,.319,8.448,.319,16.192,0,32.032-1.279,48.225-1.279,5.28,0,13.729,1.92,13.729,8,0,7.68-16.544,13.44-23.232,14.4-5.984,.96-11.968,.64-18.305,.96-13.023,.319-26.048,.64-39.072,.64-8.096,0-34.145,0-34.145-10.561Z" fill="#d35106"/>
      <path d="M2796.015,242.643V98.64c0-9.601,22.528-15.04,30.624-15.04h44.001c32.032,0,48.929,8.64,48.929,40.001,0,22.4-17.952,34.24-40.48,40.32,6.688,15.36,14.08,30.4,20.768,45.761,2.464,5.44,9.505,18.881,10.912,24.001v1.92c0,9.601-22.528,15.04-30.624,15.04-4.576,0-9.504-1.279-12.672-4.479-.353-.32-4.576-9.92-4.929-10.561-7.04-15.681-14.432-31.36-21.472-47.041,0-.32-.353-.64-.353-.96,0,26.24,0,48.642-.704,49.921-4.224,8.961-20.416,13.12-30.272,13.12-5.279,0-13.728-1.92-13.728-8Zm74.977-98.242c3.521-1.6,4.225-10.56,4.225-13.76,0-7.04-1.057-19.201-9.152-22.721-3.521-1.601-8.448-1.28-12.32-1.28h-13.376c0,5.12,0,21.12,.352,40.641,5.28,0,25.696-.319,30.272-2.88Z" fill="#d35106"/>
      <path d="M3002.987,92.88c15.136-7.36,33.088-9.28,49.984-9.28,30.977,0,58.785,6.72,58.785,40.001,0,9.6-22.528,15.04-30.625,15.04-3.872,0-10.56-1.28-12.672-4.48-1.408-2.24-1.056-5.12-1.408-7.36-1.056-9.28-5.28-16.96-15.84-19.521-4.929-1.279-10.208-.64-15.137-.64-3.168,0-6.688-.32-9.855,.32-10.912,9.28-12.32,38.721-12.32,54.081,.352-.96,1.056-1.92,1.76-2.88,5.984-7.04,19.009-10.561,28.513-10.561h52.801c5.28,0,13.728,1.92,13.728,8v32.001c0,9.92-.352,21.44-4.928,30.721-11.616,24.641-42.593,32.32-69.697,32.32-58.08,0-66.528-35.521-66.528-80.001,0-29.761,1.056-62.082,33.44-77.762Zm10.912,72.001c0,23.681,2.815,63.042,37.312,63.042,2.464,0,5.28,0,7.744-.96v-.32l.352-.32c6.688-8.96,7.04-21.44,7.04-31.681v-24c-8.448,0-39.776,.64-45.761-.96-3.168-.641-5.632-2.24-6.688-4.801Z" fill="#d35106"/>
      <path d="M3162.439,239.443V98.64c0-9.601,22.528-15.04,30.625-15.04h70.4c5.28,0,13.729,1.92,13.729,8,0,2.24-2.464,4.8-4.225,6.4-10.56,8.96-24.992,8.96-38.368,8.96-9.152,0-18.656-.32-27.809-.32v24.961h39.073c5.279,0,13.728,1.92,13.728,8,0,9.601-22.528,15.04-30.624,15.04h-22.177v72.322c2.816,0,5.633,.319,8.448,.319,16.192,0,32.032-1.279,48.225-1.279,5.28,0,13.729,1.92,13.729,8,0,7.68-16.544,13.44-23.232,14.4-5.984,.96-11.968,.64-18.305,.96-13.023,.319-26.048,.64-39.072,.64-8.096,0-34.145,0-34.145-10.561Z" fill="#d35106"/>
      <path d="M3320.836,242.643V98.64c0-9.601,22.528-15.04,30.625-15.04,9.504,0,16.896,6.08,24.64,10.24l32.736,17.92c.353-8.64,.353-14.4,.704-15.04,4.929-8.96,20.064-13.12,30.272-13.12,5.28,0,13.729,1.92,13.729,8v53.441c0,7.68,.352,90.562-.704,92.481-4.928,8.961-20.064,13.12-30.272,13.12-5.28,0-13.729-1.92-13.729-8v-91.842c-3.872-1.92-7.392-4.48-11.264-6.4l-32.385-17.601c0,11.841,1.057,107.843-.352,110.723-4.225,8.961-20.769,13.12-30.272,13.12-5.28,0-13.729-1.92-13.729-8Z" fill="#d35106"/>
      <path d="M3503.523,198.802c0-1.28,0-5.44,.704-6.72,3.872-6.08,20.768-8.961,30.272-8.961,5.279,0,13.728,1.28,13.728,5.44,0,9.92-1.76,31.041,9.505,38.721,3.871,2.561,9.855,4.16,15.84,4.16,8.096-6.4,9.504-21.761,9.504-29.761,0-36.48-79.201-29.12-79.201-64.321,0-19.2,5.632-36.801,36.608-45.441,11.969-3.199,24.992-4.8,38.017-4.8,41.185,0,48.929,17.601,48.929,53.441,0,.96-1.056,2.24-2.112,3.2-6.688,4.8-18.656,7.04-28.512,7.04-4.929,0-9.152-.64-12.673-2.88-3.52-2.561,3.169-45.121-22.176-45.121h-2.464c-.704,.96-1.76,1.6-2.464,2.24-7.744,7.04-8.801,19.2-8.801,27.521,0,27.841,79.201,22.08,79.201,64.321,0,17.92-3.52,35.841-31.681,45.121-10.208,3.52-22.528,5.12-34.145,5.12-55.969,0-58.08-19.521-58.08-48.321Z" fill="#d35106"/>
      <path d="M3677.763,239.443V98.64c0-9.601,22.528-15.04,30.625-15.04h70.4c5.28,0,13.729,1.92,13.729,8,0,2.24-2.464,4.8-4.225,6.4-10.56,8.96-24.992,8.96-38.368,8.96-9.152,0-18.656-.32-27.809-.32v24.961h39.073c5.279,0,13.728,1.92,13.728,8,0,9.601-22.528,15.04-30.624,15.04h-22.177v72.322c2.816,0,5.633,.319,8.448,.319,16.192,0,32.032-1.279,48.225-1.279,5.28,0,13.729,1.92,13.729,8,0,7.68-16.544,13.44-23.232,14.4-5.984,.96-11.968,.64-18.305,.96-13.023,.319-26.048,.64-39.072,.64-8.096,0-34.145,0-34.145-10.561Z" fill="#d35106"/>
    </g>
  </g>
</svg>