<?xml version="1.0" encoding="UTF-8"?>
<svg xmlns="http://www.w3.org/2000/svg" width="300mm" height="300mm" viewBox="0 0 850.394 850.394">
  <g id="a" data-name="bg">
    <rect x="124.537" y="124.537" width="601.319" height="601.319" transform="translate(-176.122 425.197) rotate(-45)" fill="#fff"/>
    <rect width="850.394" height="850.394" fill="#141515"/>
  </g>
  <g id="b" data-name="bg-2">
    <rect x="125.537" y="124.537" width="601.319" height="601.319" transform="translate(-175.829 425.904) rotate(-45)" fill="#fff"/>
  </g>
  <g id="d" data-name="logo-2">
    <g>
      <polygon points="713.467 539.901 580.519 613.945 400.163 613.811 123.438 499.901 365.484 486.396 713.467 539.901" fill="#141515"/>
      <g>
        <path d="M153.693,479.666v4.683c0,2.395,1.755,6.231,1.755,10.066s1.917,6.708,1.917,6.708c0,0,0,1.921,1.438,3.358,1.438,1.437,.479,6.23,.479,6.23,0,0,2.156,4.899,4.072,7.292,1.916,2.394,1.83,4.793,1.83,4.793,0,0,24.533,10.203,31.004,3.732,6.471-6.471,26.362-42.18,21.09-60.392-5.272-18.212,.005-57.638-22.046-65.726-22.05-8.087-38.054-5.047-40.743,4.854-2.689,9.9-8.628,52.723-8.628,59.435s7.831,14.968,7.831,14.968Z" fill="#8fa1a0" fill-rule="evenodd"/>
        <path d="M371.865,465.406s-8.624,33.151-8.624,38.041,1.663,11.577,1.663,13.975,.959,9.105,.959,11.503,2.397,7.19,2.397,7.19c0,0-.479,6.231-.479,9.107s4.793,9.585,3.355,11.022c-1.438,1.437,1.917,7.19,1.917,7.19,0,0,3.651,2.834,3.202,5.974-.449,3.14,6.237,12.069,7.381,11.868,1.144-.201,3.869,7.011,3.869,7.011,0,0,4.16,3.497,5.796,7.857s12.535,2.24,15.201,4.017c2.666,1.777,42.679,21.751,58.974,5.454,16.295-16.297,26.363-39.784,26.363-65.187s-2.027-61.678-24.446-84.095c-22.419-22.417-37.386-35.731-61.351-26.624-23.965,9.107-36.177,35.698-36.177,35.698Z" fill="#8fa1a0" fill-rule="evenodd"/>
        <path d="M624.305,223.318s35.508,35.68,46.964,52.682c11.455,17.002,11.568,11.515,6.662,16.421-4.906,4.906-43.454,2.592-43.454,2.592l21.546,11.887,60.436-2.204s-37.466-46.684-51.882-61.1c-14.417-14.416-31.601-21.881-34.353-23.735-2.752-1.854-5.919,3.456-5.919,3.456Z" fill="#8fa1a0" fill-rule="evenodd"/>
        <g>
          <path d="M695.737,353.129c1.548-.625,2.742-3.503,4.398-3.287,1.161-2.478,3.527-4.107,5.271-5.981-4.481,1.176-10.356,.959-15.317,1.654,.027,2.593,.168,5.656,.842,8.36,1.439-.413,2.675-1.026,4.806-.746Z" fill="#f17a00" fill-rule="evenodd"/>
          <path d="M759.454,386.334c-2.856-.917-4.446,2.523-7.628,2.692-4.174-5.543-10.977-2.718-18.846-1.347-13.29,2.316-27.681,5.751-39.936,5.833-2.107-11.952-1.53-26.589-2.693-39.487,.199-.045,.393-.097,.581-.152-.674-2.704-.814-5.768-.842-8.36-.838,.118-1.656,.255-2.43,.435-.886,16.366-.104,33.604,2.244,48.91-9.346,1.422-14.26,7.279-16.602,15.705-24.481,3.604-49.059,9.409-76.282,7.628-2.154-18.021-2.691-35.501-2.691-53.397,0-5.258-.979-11.805,.896-14.807,2.03-3.251,11.638-3.534,18.399-4.039,44.608-3.333,85.97-4.579,126.985-9.423,5.445-.643,16.768-.25,15.255-6.731-1.59-2.809-5.085,1.005-6.281,0-15.016-22.906-33.867-44.605-52.05-65.96-15.481-18.18-33.108-36.5-52.052-51.153-1.808-1.399-5.662-6.417-8.525-2.693-.663,1.924,1.798,2.476,2.693,3.141,4.256,3.172,7.964,6.025,11.665,9.423,24.13,22.15,46.891,46.625,67.307,72.243,6.02,7.553,12.881,15.823,17.95,23.781,1.859,2.92,3.292,6.759,5.384,8.975,1.242,1.315,4.482,1.785,4.486,3.59-38.928,4.412-83.197,8.56-122.048,9.423-3.924,.087-9.051,2.081-12.116,1.346-2.746-.658-4.471-4.959-6.73-8.974-5.724-10.176-12.512-21.109-17.5-29.615-8.043-13.716-14.966-27.931-22.885-40.384-8.172-12.853-17.108-25.376-25.576-37.692-6.52-9.482-12.735-18.95-19.295-27.82-2.235-3.022-5.09-5.692-5.832-9.423,36.726,2.807,72.103,9.544,105.895,16.602,4.9,1.024,9.785,2.517,14.807,2.244-.066-2.261-3-2.914-4.488-3.59-2.319-1.054-4.732-1.659-7.179-2.244-35.079-8.381-72.655-14.242-110.83-17.948-2.038-.839-.612,1.783-2.244,1.347-1.101-1.331-2.626-1.547-4.039-1.795-10.694-1.878-30.991-.97-42.18-.449-44.476,2.069-90.227,6.574-132.369,11.218-6.786,.749-13.933,2.346-20.64,3.141-6.833,.81-16.129-.407-18.398,5.834,2.772,2.49,7.057,1.608,10.32,1.346,12.419-.999,23.954-2.823,35.897-4.487,43.883-6.116,89.667-9.502,137.305-11.667,4.482-.203,8.724-.907,13.013-.896,4.762,.01,11.378,.162,15.706,2.243,2.054,.989,4.979,4.447,7.628,7.628,4.897,5.885,8.461,12.415,12.563,18.397,25.749,37.555,48.979,76.093,70.896,116.216,1.771,3.241,4.19,6.265,4.935,9.871-2.403,1.844-6.264,1.259-8.525,3.59-1.819,1.875-2.806,5.701-3.142,8.975-2.133,20.837,2.467,45.887,.449,64.166-11.07,1.377-24.256-1.899-34.999-.449-11.019,1.488-8.877,9.962-9.423,21.988-.621,13.659-.57,29.129,0,40.383,.307,6.062-.887,14.345,1.795,17.5,2.47,2.905,10.533,4.112,16.153,4.935,7.04,1.03,13.535,2.297,18.846,2.693,11.643,.865,20.495-2.098,30.962-4.039,20.04-3.717,41.453-7.486,58.333-13.013,3.602-1.181,7.65-1.654,9.423-4.937,1.592-6.425,.897-13.639,.897-20.641,0-15.308-1.052-24.95-.897-39.487,.115-10.9,2.49-18.463,9.87-21.537,7.72-3.217,17.853-4.505,28.269-6.282,4.782-.816,9.438-1.162,15.256-2.244,4.161-.773,10.988-3.38,14.807-1.795,6.432,2.667,1.218,26.084,3.589,32.756,.21-9.432,.462-18.59-.449-31.409,1.616-2.722,6.858-1.819,7.181-5.833Zm-87.051,96.025c-18.24,6.86-38.134,9.496-59.678,13.46-3.276,.604-6.814,1.441-10.319,1.795-10.621,1.075-19.651,1.01-32.308-.447-7.099-.818-15.065-1.568-17.95-5.384-4.659-6.168-2.691-23.92-2.691-35.001,0-9.29-1.276-23.159,2.244-30.96,2.173-4.818,7.995-3.504,16.602-3.142,14.373,.606,33.04,1.41,45.768,.449,19.832-1.497,37.497-4.685,54.743-7.179,.865-.124,1.534-.833,3.14-.449,2.364,.566,1.857,3.807,1.795,8.077-.137,9.578-.131,16.323,0,23.781,.243,13.65,1.24,26.394-1.346,35.001Z" fill="#8fa1a0" fill-rule="evenodd"/>
          <path d="M700.135,349.842c.175,.024,.351,.047,.537,.147-.882,7.164-2.138,14.68,3.59,17.5-1.793-7.297,.643-16.993,3.14-21.538,.374-.682,1.704-1.949,1.373-2.711,0,.142,.002,.283,.002,.426,0-.143-.002-.285-.002-.426-.075-.17-.203-.323-.475-.43-.86,.456-1.851,.778-2.894,1.052-1.744,1.874-4.11,3.504-5.271,5.981Z" fill="#8fa1a0" fill-rule="evenodd"/>
          <path d="M147.411,225.246c.976-5.438,7.647-5.338,11.666-6.282,14.397-3.38,29.147-6.358,44.423-9.423,20.792-4.172,41.224-8.985,60.576-11.218,5.012-.578,14.221-.658,20.192,.448,3.113,.578,4.711-.402,4.936,2.244,.357,4.196-8.245,3.218-10.769,3.141-14.486-.443-27.16,1.7-41.282,4.038-20.707,3.429-41.125,7.432-61.025,11.667-4.854,1.033-9.702,2.318-14.359,3.59-4.655,1.272-9.621,3.316-14.358,1.795Z" fill="#8fa1a0" fill-rule="evenodd"/>
          <path d="M527.917,200.119c11.225,.443,21.685,1.649,32.757,2.244-1.475,1.223-4.369,.486-7.628,.448-3.186-.036-7.301-.1-10.769-.448-6.441-.646-12.94,2.412-14.36-2.244Z" fill="#f17a00" fill-rule="evenodd"/>
          <path d="M562.918,202.811c-.986,1.371-2.874-.518,0,0h0Z" fill="#f17a00" fill-rule="evenodd"/>
          <path d="M566.508,203.26c-1.086,1.472-2.145-1.248,0,0h0Z" fill="#f17a00" fill-rule="evenodd"/>
          <path d="M501.445,231.08c3.124-6.073-3.369-10.681-4.937-16.154-37.882,1.425-77.48,4.025-115.318,6.731-6.463,22.393-11.446,49.402-14.359,75.832-.435,3.95-.36,8.418-1.347,11.666-.669,2.207-3.716,4.258-4.038,7.18,36.768,.982,74.193,1.887,114.421,2.243,.739-5.524-1.41-8.163-4.039-10.32-12.952-.574-23.635,.15-36.794-.448-14.978-.68-28.654-.789-44.871-1.795-5.975-.371-13.027-.392-14.807-1.795-2.405-1.896-2.121-8.08-1.795-12.115,.683-8.445,2.994-19.28,4.487-30.961,.612-4.794,1.378-9.91,2.244-14.807,1.787-10.116,2.562-18.894,11.218-21.09,6.732-1.708,18.971-1.271,30.512-1.795,17.696-.803,35.775-1.443,53.396-2.244,5.441-.247,13.728-.84,17.051,.898,3.248,1.696,6.146,8.507,7.513,12.665,.76-1.116,1.337-2.353,2.023-3.337-.206-.098-.4-.21-.561-.354Z" fill="#f17a00" fill-rule="evenodd"/>
          <path d="M491.29,234.746c.462-2.743-.993-3.716-1.961-5.91-12.649-3.313-28.099-1.496-41.731-.897-8.454,.371-17.618-.028-26.922,.449-5.891,.302-12.579,.686-18.398,1.346-4.911,.558-12.297,.536-13.461,6.283,18.293-1.125,40.836-1.306,61.473-2.244,11.888-.54,26.243-2.529,32.308,3.141-.517,.433-1.097,.842-1.698,1.249,3.714-1.595,6.723-3.64,10.389-3.416Z" fill="#fff" fill-rule="evenodd"/>
          <path d="M507.276,234.669c.3-3.135-3.343-2.327-5.271-3.235-.687,.984-1.263,2.22-2.023,3.337,.039,.116,.079,.237,.115,.348-.121-.011-.226-.008-.343-.016-.59,.803-1.296,1.519-2.246,1.994,.949-.475,1.656-1.19,2.246-1.994-3.243-.21-5.3,.764-8.631,.465,.082-.298,.12-.557,.166-.821-3.666-.224-6.675,1.821-10.389,3.416-2.222,1.508-4.774,2.985-5.93,5.481-1.083,2.337-.093,5.142-1.795,7.628,.124-2.816-.088-5.297-1.348-6.73-5.399-.65-12.525-1.536-18.397-.898-9.66,1.049-10.212,7.666-10.769,18.846-.623,12.501-.911,24.467,.896,32.308,10.164-.676,18.631-5.937,26.027-10.769,1.357-1.035,1.037-3.747,3.14-4.038,.372,6.297-2.111,17.959,.896,22.436,2.794,4.156,8.914,11.769,12.565,6.73,.331-1.613,3.829-.059,4.039-1.795-1.651-.97-4.95-.329-6.732,0-10.13-5-3.358-21.542-5.833-34.101-2.235-2.01-3.288,.83-4.486,.448v-3.14c.968-1.575,4.794-.29,6.281-1.347-.668-4.19,2.164-9.264-1.795-10.32,1.603-.685,1.528-1.9,1.795-3.14,1.346-6.233-.491-10.982,4.937-14.808,4.387-3.093,10.515-2.132,18.846-2.243,1.097-.398,.803-2.187,1.795-2.692,.495-.964,2.677,1.201,2.242-1.347Z" fill="#8fa1a0" fill-rule="evenodd"/>
          <path d="M246.576,359.412c-30.266-.986-60.402-3.832-89.742-6.731-9.603-.949-19.248-1.064-27.821-3.141,1.121-40.011,6.386-75.879,13.911-109.486,34.27-8.977,74.703-14.719,114.421-19.742,2.503-.317,7.605-1.023,8.077-.898,2.077,.55,1.636-.616,1.346,3.141-.315,4.082-.394,1.757-.897,4.039-3.249,14.721-5.602,27.343-8.076,42.627-4.552,28.107-8.821,61.974-11.218,90.192Zm3.59-132.819c-2.873,.47-6.137,.685-7.628,2.692,5.512,.261,13.698-.242,17.051-3.59-3.089,.132-6.463,.413-9.423,.897Zm-8.526,7.179c5.271-1.011,12.416-.148,15.257-3.59-4.672-.147-12.934-.099-15.257,3.59Zm6.731,.897c-2.772,.34-6.455,.376-7.628,2.244,4.849,.968,11.935-.016,16.154-2.244-2.349-.75-5.675-.349-8.526,0Zm-92.884,6.731c-3.313-.069-9.302,1.989-10.769,3.59,4.236,.493,9.806-1.557,13.91-2.692-.939-.417-1.851-.871-3.141-.897Zm-11.218,7.179c.974,.234,2.173,.2,3.59,0,2.738-.385,7.636-1.126,8.975-2.692-4.542-.894-10.839,.283-12.564,2.692Zm-1.346,3.589c3.237,.037,10.379,.253,12.563-2.243-3.265-1.534-10.538,.066-12.563,2.243Z" fill="#f17a00" fill-rule="evenodd"/>
          <path d="M282.473,221.208c-1.268,3.762-5.874,8.238-1.795,12.116-2.279,7.086-5.2,15.526-7.179,24.679-2.826,13.066-3.772,25.896-6.731,37.692-.894,3.565-1.431,7.754-2.692,9.871-1.824,3.061-5.987,4.745-8.076,7.18,3.92-32.426,10.527-62.164,17.05-91.986,2.97,.249,7.026,1.034,9.423,.448Z" fill="#f17a00" fill-rule="evenodd"/>
          <path d="M356.51,316.335c-3.054,.362-4.912-.473-7.179-.897,.717-2.528,2.882-4.098,3.59-6.283,1.092-3.371,.787-7.67,1.346-11.666,3.454-24.706,9.766-52.47,15.706-74.935,1.985-.857,5.75,.067,7.628-.897,.382-.082,.423,.175,.448,.449-5.77,22.573-10.87,47.977-14.359,74.486-.486,3.697-.365,8.042-1.346,11.218-.987,3.195-4.352,5.273-5.833,8.526Z" fill="#f17a00" fill-rule="evenodd"/>
          <path d="M365.484,222.554h.898c.221,6.86-2.529,13.592-4.039,20.641-3.572,16.671-7.447,34.647-10.32,52.948-.609,3.878-.246,8.092-1.347,11.218-.959,2.725-4.217,4.666-5.384,7.628-26.129,1.849-54.789-1.312-83.909-.448,.366-3.019,6.406-5.053,8.974-7.628,1.154-13.717,4.227-26.76,6.731-39.487,2.468-12.537,5.728-24.666,9.871-35.896,24.991-4.177,52.162-6.171,78.524-8.975Zm-20.192,6.282c-7.585,.614-17.555,1.667-27.82,2.693-6.505,.649-21.909,.475-26.922,4.038-3.03,2.154-5.036,9.32-6.283,14.807-3.102,13.653-4.1,21.885-7.179,35.897-.974,4.432-4.067,14.463-.897,17.949,2.117,2.328,12.083,2.186,15.705,2.243,12.808,.205,19.035-.686,34.551-.448,6.027,.092,14.632,1.452,17.949-.449,3.157-1.809,5.022-10.646,6.282-17.051,1.471-7.47,2.289-15.081,3.141-19.294,1.417-6.997,2.929-13.152,4.039-18.397,1.062-5.015,2.832-11.881,2.692-18.398-2.901-4.94-8.694-4.12-15.256-3.59Z" fill="#f17a00" fill-rule="evenodd"/>
          <path d="M259.589,225.696c-3.353,3.348-11.539,3.851-17.051,3.59,1.492-2.008,4.755-2.222,7.628-2.692,2.96-.485,6.334-.765,9.423-.897Z" fill-rule="evenodd"/>
          <path d="M360.549,232.426c.14,6.517-1.63,13.382-2.692,18.398-1.11,5.245-2.622,11.4-4.039,18.397-.853,4.213-1.671,11.824-3.141,19.294-1.26,6.405-3.125,15.242-6.282,17.051-3.317,1.901-11.922,.541-17.949,.449-15.516-.237-21.743,.654-34.551,.448-3.621-.058-13.588,.085-15.705-2.243-3.17-3.485-.077-13.516,.897-17.949,3.079-14.012,4.077-22.244,7.179-35.897,1.247-5.488,3.253-12.654,6.283-14.807,5.014-3.563,20.417-3.389,26.922-4.038,10.265-1.026,20.235-2.079,27.82-2.693,6.563-.53,12.355-1.35,15.256,3.59Zm-43.526,3.141c-7.33,.591-21.831,1.245-25.576,4.936-2.345,2.31-3.205,10.006-4.039,14.358-2.159,11.273-4.67,21.246-6.282,31.41-.78,4.919-1.995,10.199-.897,15.257,4.468,1.313,9.448,1.538,14.807,1.346,14.697-.527,31.637,.047,46.217-1.346,5.196-9.253,6.325-21.089,8.526-32.756,2.15-11.392,5.761-23.355,5.385-35-12.714-.541-23.834,.643-38.141,1.795Z" fill-rule="evenodd"/>
          <path d="M256.897,230.182c-2.84,3.442-9.985,2.579-15.257,3.59,2.322-3.688,10.584-3.737,15.257-3.59Z" fill-rule="evenodd"/>
          <path d="M355.164,233.772c.376,11.645-3.235,23.608-5.385,35-2.201,11.667-3.329,23.503-8.526,32.756-14.58,1.393-31.52,.819-46.217,1.346-5.36,.193-10.34-.033-14.807-1.346-1.097-5.058,.117-10.338,.897-15.257,1.611-10.164,4.123-20.137,6.282-31.41,.833-4.352,1.693-12.048,4.039-14.358,3.745-3.691,18.246-4.346,25.576-4.936,14.307-1.152,25.427-2.336,38.141-1.795Zm-14.808,2.244c-7.604,.353-14.801,.664-22.884,1.346-6.865,.579-20.205,.51-23.782,3.589-2.489,2.143-3.691,8.978-4.487,13.014-2.086,10.573-3.872,20.246-5.834,29.615-1.009,4.818-3.477,9.938-1.346,14.807,7.29,3.108,17.475,2.168,28.269,1.795,4.27-.148,10.264,0,15.256,0,5.188,0,11.629,.356,14.359-1.346,2.658-1.658,4.056-9.365,4.936-13.911,2.238-11.569,4.33-21.359,6.282-31.859,1.042-5.602,2.14-11.16,1.346-16.153-3.192-2.631-8.152-1.082-12.115-.897Z" fill="#fff" fill-rule="evenodd"/>
          <path d="M256.897,234.669c-4.219,2.228-11.305,3.212-16.154,2.244,1.173-1.868,4.856-1.904,7.628-2.244,2.851-.349,6.177-.75,8.526,0Z" fill-rule="evenodd"/>
          <path d="M352.471,236.913c.794,4.993-.304,10.551-1.346,16.153-1.952,10.499-4.044,20.289-6.282,31.859-.88,4.546-2.278,12.253-4.936,13.911-2.73,1.702-9.171,1.346-14.359,1.346-4.992,0-10.986-.148-15.256,0-10.794,.373-20.979,1.313-28.269-1.795-2.132-4.869,.337-9.989,1.346-14.807,1.962-9.368,3.747-19.041,5.834-29.615,.796-4.036,1.998-10.871,4.487-13.014,3.578-3.079,16.917-3.011,23.782-3.589,8.083-.681,15.28-.992,22.884-1.346,3.963-.185,8.923-1.734,12.115,.897Z" fill-rule="evenodd"/>
          <path d="M158.629,242.298c-4.103,1.135-9.674,3.185-13.91,2.692,1.467-1.6,7.456-3.659,10.769-3.59,1.29,.027,2.202,.48,3.141,.897Z" fill-rule="evenodd"/>
          <path d="M156.834,245.887c-1.338,1.566-6.237,2.307-8.975,2.692-1.417,.2-2.616,.234-3.59,0,1.725-2.409,8.023-3.586,12.564-2.692Z" fill-rule="evenodd"/>
          <path d="M488.88,245.887c1.669,1.444,.659,5.049,.449,7.628-1.287,15.757-2.719,31.845-3.59,48.461h-4.935c-.411-1.599,1.375-2.452,1.795-4.039,1.746-6.608,.749-17.151,1.346-24.679,.36-4.541,1.001-9,1.346-13.462,.347-4.481,.263-9.038,1.795-12.563-.308-1.207,.928-.867,1.346-1.347h.449Z" fill="#fff" fill-rule="evenodd"/>
          <path d="M507.725,246.785h5.384c5.93,11.745,11.329,22.978,17.051,34.551,5.565,11.252,12.326,22.976,13.462,38.14-18.888-.161-37.418-.251-54.743-.897,.988-2.751,2.459-5.02,4.488-6.73,.568-1.508-1.758-2.373-.449-3.141,9.178-.277,17.283,.74,25.576,.448,3.975-.139,8.934-.193,12.116-2.692,1.722-13.991-5.494-24.283-10.321-34.102-4.13-8.406-7.952-16.452-12.114-24.23-.526-.073-.378-.818-.449-1.347Z" fill="#f17a00" fill-rule="evenodd"/>
          <path d="M155.487,249.926c-2.184,2.496-9.326,2.28-12.563,2.243,2.026-2.177,9.298-3.777,12.563-2.243Z" fill-rule="evenodd"/>
          <path d="M558.879,275.951c4.754,5.566,8.328,12.313,11.667,19.294-2.14,.106-3.182,1.304-5.386,1.347-2.616-6.357-4.566-13.382-6.281-20.641Z" fill="#141515" fill-rule="evenodd"/>
          <path d="M645.032,304.668c-15.583-.574-33.991-.677-49.808,0-2.315-1.423-3.376-4.102-4.486-6.731,10.875-1.15,23.224-.619,35.448,0,4.512,.229,9.281,1.011,13.909,2.693,1.899,.689,5.045,2.051,4.937,4.038Z" fill="#8fa1a0" fill-rule="evenodd"/>
          <path d="M572.788,299.284c.871,1.373,1.84,2.646,2.244,4.487-2.766-.524-5.163-1.417-6.73-3.14,.962-.982,2.47-1.419,4.486-1.347Z" fill="#141515" fill-rule="evenodd"/>
          <path d="M709.196,312.297c-11.457-.285-29.426,1.103-41.729,1.347-1.992,.002,.73-1.571,.896-2.244-1.015-.78-.416-3.173-1.795-3.59,7.866-1.375,16.432-.468,24.68-.449,7.566,.018,14.192-1.186,17.948,4.936Z" fill="#f17a00" fill-rule="evenodd"/>
          <path d="M661.185,314.091c-20.02,.771-39.759,1.821-59.229,3.141-1.15-1.841-2.565-3.419-3.142-5.833,15.994-1.311,35.634-1.119,51.154-2.244,1.307-.094,2.699-.69,4.039-.448,2.978,.537,5.163,3.279,7.179,5.384Z" fill="#f17a00" fill-rule="evenodd"/>
          <path d="M727.146,328.45c-15.846,1.38-39.85,2.686-59.678,4.039-6.206,.423-14.652,2.343-18.397,.896-5.235-2.02-5.417-8.889-9.423-11.218-7.358,.439-17.747,.549-26.025,.898-4.015,.169-10.391,1.917-10.321-4.039,37.584-1.545,80.182-2.571,112.627-4.487,1.221-.072,.772-.748,1.795,0,3.279,2.399,7.811,9.903,9.423,13.91Z" fill="#f17a00" fill-rule="evenodd"/>
          <path d="M338.113,317.681c-1.007,6.336-1.399,14.48,5.833,13.91-.374,2.615,.685,4.658,0,6.283-29.64-1.172-59.301-2.322-87.947-4.488,.935-4.542-.561-13.544,2.692-17.05,22.024,.242,56.437,.611,79.422,1.346Z" fill="#f17a00" fill-rule="evenodd"/>
          <path d="M348.882,317.681c.36,1.706-2.122,.57-3.14,.897-1.639,2.102-.867,6.612-1.795,9.423-4.418-2.481-1.454-15.782,4.935-10.32Z" fill="#f17a00" fill-rule="evenodd"/>
          <path d="M353.37,318.13h3.59c-.546,6.156-.756,14.634-.897,19.743-1.085,.86-3.606,.283-5.385,.448-.07-2.164-1.209-4.166-.897-5.832,.368-1.961,2.997-3.017,3.59-5.385,.743-2.973-.524-4.916,0-8.974Z" fill="#f17a00" fill-rule="evenodd"/>
          <path d="M360.997,318.13c33.645-.045,74.474,2.009,107.691,2.243,1.756,.013,4.517-.428,5.833,0,2.952,.961,4.928,6.757,11.218,4.936,2.103-.14,1.172-3.316,2.244-4.487,18.386,.356,37.466,.926,56.089,1.346,1.004,8.386,.239,16.284,0,24.231-60.192-1.021-122.716-5.365-184.421-7.628,.422-8.283-.018-12.47,.448-19.295-.019-.767,.334-1.162,.897-1.346Z" fill="#f17a00" fill-rule="evenodd"/>
          <path d="M644.134,334.284c-9.186,.213-22.605,1.561-31.859,1.795-1.844-2.942-3.707-5.865-4.935-9.423,7.511-.94,16.073-.755,23.781-1.347,1.974-.151,3.986-.875,5.384-.448,3.23,.984,4.884,7.248,7.628,9.423Z" fill="#f17a00" fill-rule="evenodd"/>
          <path d="M346.639,342.809c-.647,3.392-.984,7.093-2.692,9.423-29.545-.665-60.871-3.77-88.845-6.282-2.075-.47,2.29-3.656,.448-5.384v-1.347c31.415-.137,63.177,1.714,91.089,3.589Zm-74.038-1.346c-6.841-.319-14.646-2.84-14.807,2.692,7.484,.609,16.745,1.778,24.23,.897,1.609-4.676-4.721-3.37-9.423-3.59Z" fill="#f17a00" fill-rule="evenodd"/>
          <path d="M749.582,339.219h1.346c1.797,13.764,2.591,30.907,2.693,44.871-2.443-1.634-1.95-6.212-2.244-9.871-.831-10.312-1.725-22.668-2.244-33.653,.526-.072,.378-.818,.449-1.347Z" fill="#f17a00" fill-rule="evenodd"/>
          <path d="M282.024,345.053c-7.485,.881-16.746-.288-24.23-.897,.162-5.532,7.966-3.011,14.807-2.692,4.702,.219,11.032-1.086,9.423,3.59Z" fill-rule="evenodd"/>
          <path d="M726.697,370.18c-2.129,1.188-1.032,3.864-1.795,5.833-1.815,4.681-7.108,9.765-13.013,5.834-4.168-2.776-6.314-16.999-4.935-26.474,.876-6.025,5.755-11.13,8.974-11.666,5.689-.95,9.082,2.897,9.423,9.871,1.714-1.646,1.39-4.396,2.244-6.282,.949-2.099,3.863-4.55,5.832-6.283,6.604-1.402,10.336,5.382,11.218,11.218,1.256,8.304-1.121,26.235-6.281,28.718-7.135,3.432-11.269-4.208-11.667-10.77Zm13.462-22.436c-6.862-11.64-12.965,6.587-12.116,14.359,.108,.982,1.598,2.626,.898,4.039,5.532,.553,.036-7.962,4.935-8.526,.347,2.196-.013,5.098,1.795,5.832,2.364,.57,.559-3.031,1.795-3.589,1.256,.988-.005,4.494,2.244,4.487,1.065-.58,1.034-2.256,2.693-2.243,.537-6.155-.405-11.239-2.244-14.359Zm-22.436-.897c-7.851-.845-8.886,11.03-8.527,20.641,1.797,2.845,1.203,8.01,5.386,9.423,1.355-1.188,3.082-2.002,2.691-4.936-1.453-.916-3.058-.987-4.935-.448-1.839-3.108-.82-10.124,.896-12.564,.641,2.351,.438,5.545,2.244,6.731,3.153-.308-.778-4.943,1.795-5.833,1.337,1.357,.013,5.372,2.244,5.833,1.848,.053,.08-3.51,1.346-4.039,2.478-.235,.74,3.748,3.59,3.141,.21-6.693-.77-17.307-6.73-17.949Zm20.192,25.577c-2.827-.732-1.992,2.196-4.039,2.243-.402-2.048,.747-2.543,.898-4.038-2.195-.631-3.621-1.268-6.283-2.244-.411,8.162,8.454,14.459,9.423,4.039Zm-21.537,5.384c2.052-.79,3.022-2.661,4.037-4.487-.606-.142-.856-.639-1.795-.449-.067,2.324-1.192,3.593-2.242,4.936Z" fill="#fff" fill-rule="evenodd"/>
          <path d="M352.023,342.809c1.911-.265,2.968,.323,4.487,.449-.408,3.48-1.3,6.477-1.795,9.871-1.912-.182-4.622,.435-5.833-.448,1.144-3.194,1.975-6.7,3.141-9.872Z" fill="#f17a00" fill-rule="evenodd"/>
          <path d="M363.689,343.258c60.348,2.83,119.828,5.608,180.83,7.628,.288,1.357,.701,2.589,2.244,2.692,.31,3.152-.758,4.924-.447,8.077-50.602-1.263-106.786-4.615-161.986-6.73,1.831-2.103,5.188-1.762,4.039-5.834-.913-3.234-5.242-2.029-10.32-2.244-2.844-.119-7.009-.371-10.769-.448-2.115-.044-4.905,.742-5.385-.897,.526-.073,.379-.819,.449-1.347,.329-.419,.816-.68,1.346-.897Z" fill="#f17a00" fill-rule="evenodd"/>
          <path d="M742.403,362.104c-1.66-.013-1.629,1.663-2.693,2.243-2.249,.007-.988-3.499-2.244-4.487-1.236,.559,.57,4.159-1.795,3.589-1.808-.735-1.448-3.636-1.795-5.832-4.899,.563,.597,9.079-4.935,8.526,.699-1.412-.791-3.056-.898-4.039-.849-7.772,5.255-25.999,12.116-14.359,1.839,3.12,2.781,8.204,2.244,14.359Z" fill-rule="evenodd"/>
          <path d="M724.453,364.796c-2.85,.607-1.112-3.376-3.59-3.141-1.265,.529,.502,4.091-1.346,4.039-2.231-.461-.907-4.477-2.244-5.833-2.573,.89,1.358,5.525-1.795,5.833-1.806-1.186-1.603-4.38-2.244-6.731-1.716,2.44-2.735,9.456-.896,12.564,1.877-.538,3.482-.467,4.935,.448,.391,2.934-1.336,3.748-2.691,4.936-4.183-1.413-3.59-6.578-5.386-9.423-.36-9.611,.675-21.486,8.527-20.641,5.959,.642,6.94,11.255,6.73,17.949Z" fill-rule="evenodd"/>
          <path d="M678.685,349.539v4.487c-26.905,3.035-52.151,5.489-81.218,6.731,.387-1.857,.23-4.258,.898-5.832,25.587-.521,52.523-3.785,80.319-5.385Z" fill="#f17a00" fill-rule="evenodd"/>
          <path d="M342.6,355.373c-1.043,10.359-.217,26.699,0,39.935,.126,7.681-1.421,15.085,0,21.986-1.692,1.176-3.67-.703-4.936,.898,.316,5.894,.213,6.525,.449,13.013-5.066,1.053-9.827-2.001-14.807-2.693-2.881-.4-5.575,.04-8.526-.447-18.871-3.126-39.491-6.662-58.781-10.321-3.996-18.667-4.649-44.839-3.141-67.755,30.364,1.345,59.588,3.829,89.742,5.384Z" fill="#f17a00" fill-rule="evenodd"/>
          <path d="M375.356,353.578c-4.145,1.013-10.689,.528-15.256-.449-.164-.763,.351-.846,.897-.897,4.965,.27,9.042,1.428,14.359,1.347Z" fill="#f17a00" fill-rule="evenodd"/>
          <path d="M354.266,356.27c.101,10.99-.767,22.993-.896,31.859-.037,2.533-.078,6.151,.896,8.077,1.335,2.639,3.786,2.513,6.731,4.038,2.42,1.254,5.486,3.504,8.526,5.386,2.913,1.802,6.08,3.327,8.077,5.384-.186,5.998-3.47,9.206-5.833,13.462-.648,1.167-1.309,2.835-2.692,3.59-.217,3.073-1.662,4.919-2.692,7.179-5.343,.407-8.475-1.397-13.462-1.347,.342-3.177,1.117-10.966-.897-14.358-1.458-.785-3.927-.561-5.384-1.346-.247-17.897-2.551-42.263,0-62.371,2.577,.115,5.72-.336,7.627,.449Z" fill="#f17a00" fill-rule="evenodd"/>
          <path d="M359.651,356.27c66.667,4.26,126.948,7.396,185.766,10.769-.606,12.781-1.289,23.474-1.795,35.001-.164,3.75,.298,8.114-.449,11.665-.661,3.146-3.696,6.107-4.486,9.423-2.273,9.534,.077,19.178-1.347,29.615-20.679,.19-39.85-1.13-58.78-2.691-5.819-11.232-11.342-22.761-21.09-30.064-7.128-3.128-16.423-7.532-26.025-8.974-11.256-1.693-23.954-1.691-35.897-2.244-4.003-.186-8.218,.192-11.666-.449-4.85-.9-10.075-4.059-13.91-6.281-4.506-2.613-8.702-5.164-12.115-8.078,1.03-11.692-.283-24.187,.897-36.345-.02-.768,.333-1.162,.897-1.347Z" fill="#f17a00" fill-rule="evenodd"/>
          <path d="M184.205,363.001c-.325,1.372,.774,1.32,.449,2.692-6.273,.414-14.499-1.037-21.538-1.347-.323-4.035,4.519-3.172,7.179-3.14,4.648,.056,10.786,.334,13.91,1.795Z" fill-rule="evenodd"/>
          <path d="M640.544,365.693c3.12,5.482,1.7,17.639,1.346,25.128-4.42,3.736-13.363,4.194-21.537,4.936-3.805,.345-8.231,.904-12.116,1.346-3.611,.413-8.495,1.581-9.87-2.243,9.571,1.221,18.43-1.416,27.82-1.795,.385-7.143,.568-16.236,.449-25.128-9.894,.138-19.806,2.615-28.718,2.243,1.114-2.778,4.698-1.921,7.179-2.243,10.676-1.388,24.004-2.968,35.448-2.244Zm-11.218,1.795c-1.079,7.928-.657,16.636-.896,25.128,5.182-.652,11.7,.033,12.114-5.384-3.319,.269-8.072,3.389-11.218,.897,1.636-2.403-.049-8.126,2.244-9.872,.131-2.262-.698-5.484,1.795-5.384,.99,.655,.356,2.935,1.346,3.589,.277-1.218-.57-3.56,.449-4.038,1.676,.04,1.278,.503,2.693,0,.708,2.431,1.492,4.788,3.14,6.282-.084-3.591,.172-8.782-1.795-11.667-3.553-.113-6.851,.03-9.872,.449Z" fill="#fff" fill-rule="evenodd"/>
          <path d="M194.077,389.026c-4.404-3.815-4.125-22.488,3.59-22.436,7.367,.049,9.21,22.455,.897,23.782-1.764,.281-3.168-.205-4.487-1.347Z" fill-rule="evenodd"/>
          <path d="M639.199,367.039c1.966,2.885,1.711,8.076,1.795,11.667-1.649-1.493-2.432-3.851-3.14-6.282-1.415,.503-1.017,.04-2.693,0-1.019,.478-.172,2.82-.449,4.038-.99-.655-.356-2.934-1.346-3.589-2.492-.1-1.663,3.122-1.795,5.384-2.293,1.746-.608,7.469-2.244,9.872,3.146,2.491,7.898-.628,11.218-.897-.414,5.417-6.933,4.733-12.114,5.384,.239-8.492-.183-17.2,.896-25.128,3.022-.419,6.319-.562,9.872-.449Z" fill-rule="evenodd"/>
          <path d="M184.654,371.078c-.62,1.432-3.262,1.373-4.936,1.347-5.224-.084-12.358-1.242-17.05-1.795-.067-1.113-.084-2.178,.896-2.244,5.776-.793,17.577-.431,21.09,2.692Z" fill-rule="evenodd"/>
          <path d="M728.492,368.386c2.662,.976,4.088,1.613,6.283,2.244-.152,1.494-1.3,1.99-.898,4.038,2.047-.047,1.212-2.975,4.039-2.243-.97,10.42-9.834,4.124-9.423-4.039Z" fill-rule="evenodd"/>
          <path d="M718.619,372.872c.939-.19,1.189,.308,1.795,.449-1.015,1.826-1.985,3.697-4.037,4.487,1.05-1.343,2.175-2.612,2.242-4.936Z" fill-rule="evenodd"/>
          <path d="M184.205,378.257c-7.081,.834-12.768-1.819-21.537-1.346v-2.692c.363-.086,.446-.45,.896-.449,2.364,.103,4.999-.134,7.628,0,5.414,.278,12.18,.047,13.013,4.487Z" fill-rule="evenodd"/>
          <path d="M619.454,373.77c5.123,1.608,4.937,8.845,4.488,14.808-1.643,1.955-4.957,1.404-8.525,1.795-6.748,.738-14.57,3.365-17.5-.898,.265-4.579-.621-7.993,1.795-9.871,1.36-.014,.435,2.258,1.795,2.244,1.397-.998,.889-3.897,1.795-5.385,1.913,.48,.739,4.047,1.795,5.385,1.994-.832-.446-5.334,2.693-5.834,.876,1.665,.767,4.318,1.795,5.834,.519-1.957,.489-4.572,1.346-7.18,1.512,1.629,2.281,4.001,2.693,6.731,.988-1.703,.446-4.938,1.346-6.731,2.029,.664,1.149,4.235,3.14,4.936,1.968-.425,.062-4.725,1.346-5.833Z" fill="#fff" fill-rule="evenodd"/>
          <path d="M247.922,376.462c-.053,13.347,3.495,27.65,4.039,40.385-12.348-1.713-24.049-4.07-35.897-6.283-4.167-8.488-3.709-23.687-3.59-35-.019-.767,.334-1.162,.897-1.346,11.661,.564,21.185,1.435,34.551,2.243Z" fill="#f17a00" fill-rule="evenodd"/>
          <path d="M741.953,398.45c.226,5.629-1.61,12.102,.896,16.153-.659,3.378,1.614,9.69-1.795,10.319-.792-8.629-3.617-15.227-2.691-25.576-3.681,2.602-1.764,10.8-6.283,12.564-1.753-.623-.747-3.177-.896-4.935-.128-1.484-.845-3.445-.449-4.935-8.284,.579-17.258,4.25-26.923,4.935,9.626-6.109,24.581-10.275,38.141-8.525Z" fill="#8fa1a0" fill-rule="evenodd"/>
          <path d="M672.403,398.897c.044,1.252-2.941,3.332-3.589,5.384-3.748,.949-8.152,1.013-13.013,1.795-1.671,.27-3.319,1.061-4.935,1.347-3.456,.61-7.024,.006-9.872,1.795-11.786,.338-26.186,4.32-39.936,2.691,.371-1.267-.632-1.161-.449-2.244,1.24-1.8,4.397-.71,7.181-.896,10.588-.71,21.557-2.432,32.306-4.039,10.981-1.639,22.301-4.062,32.308-5.833Z" fill="#f17a00" fill-rule="evenodd"/>
          <path d="M152.795,421.333c-2.185,.084-3.464-2.62-4.936-4.486-1.386-1.758-3.445-3.787-4.487-5.833-1.519-2.987-1.168-7.252-4.487-8.525-1.62,2.688,2.42,7.026,1.347,12.114-6.106-1.373-5.928-9.031-7.628-14.807,5.398-.006,12.461,1.78,17.5,3.59,.942,5.938,1.623,12.136,2.692,17.948Z" fill="#f17a00" fill-rule="evenodd"/>
          <path d="M491.573,496.268c-10.997,.358-13.536-7.939-17.5-15.704-2.658-5.209-4.747-10.464-6.73-14.809-4.199-9.195-8.497-20.376-15.706-26.922-7.148-6.492-16.925-8.51-27.371-10.769-11.39-2.465-34.18-6.129-43.526,.896-6.934,5.213-10.298,14.831-11.666,26.025-.894,7.309-.261,17.555-2.244,24.23-1.681-1.229-2.179-4.466-2.243-6.281-.09-2.531,.289-5.594,.448-8.527,1.054-19.434,9.136-36.954,17.051-49.806,18.476-.551,40.967,.055,59.23,4.935,9.794,2.618,16.447,9.312,21.537,17.501,1.645,2.647,3.714,5.183,4.937,7.628,7.946,15.901,10.791,38.282,23.781,51.601Z" fill="#8fa1a0" fill-rule="evenodd"/>
          <path d="M205.295,414.603c3.385,.005,3.02,1.139,6.282,.896,1.171,8.282,1.72,16.775,4.487,23.334,.954,2.259,2.815,3.307,3.59,5.384,5.602-.508,10.77,1.943,16.154,3.14,16.277,3.626,33.032,6.562,49.807,9.872,22.148,4.369,44.591,9.264,67.756,12.116,1.418-2.2-.103-4.077-.898-6.283-2.147-5.961-3.81-14.086-3.59-23.334,5.589,.394,10.142,1.824,15.256,2.693-1.052,11.07-3.968,21.32-2.244,31.859-12.186-.442-24.551-3.533-37.243-5.833-29.941-5.426-60.088-11.105-90.19-18.846-2.15-.553-5.329-1.57-8.526-2.244-8.83-1.857-9.192-.929-12.564-8.525-2.689-6.054-5.042-12.235-6.731-19.295-.515-2.156-.51-2.981-1.346-4.935Z" fill="#f17a00" fill-rule="evenodd"/>
          <path d="M730.286,415.052c1.347,.895,.734,3.752,1.795,4.935,.206,1.141,1.939,.752,2.244,1.795,.013,3.033-.476,3.314-.898,6.283-2.417,2.067-6.856,2.116-8.525,4.935-2.014-.38-3.825-.96-6.283-.898,3.683-2.6,10.199-2.365,14.36-4.486-.303-2.246,.415-3.473,.447-5.384-3.767-.382-8.444,.108-11.665-1.795,.462-2.757,6.107-1.952,7.628-2.244,.747-.599,.15-2.543,.896-3.14Z" fill="#8fa1a0" fill-rule="evenodd"/>
          <path d="M672.403,482.359c-18.24,6.86-38.134,9.496-59.678,13.46-3.276,.604-6.814,1.441-10.319,1.795-10.621,1.075-19.651,1.01-32.308-.447-7.099-.818-15.065-1.568-17.95-5.384-4.659-6.168-2.691-23.92-2.691-35.001,0-9.29-1.276-23.159,2.244-30.96,2.173-4.818,7.995-3.504,16.602-3.142,14.373,.606,33.04,1.41,45.768,.449,19.832-1.497,37.497-4.685,54.743-7.179,.865-.124,1.534-.833,3.14-.449,2.364,.566,1.857,3.807,1.795,8.077-.137,9.578-.131,16.323,0,23.781,.243,13.65,1.24,26.394-1.346,35.001Zm-104.999-49.808c5.417-3.199,13.964-.376,22.885-1.346h3.589c-11.119-1.167-25.076-1.819-35.448-2.244-2.71,6.067-2.178,17.221-2.693,22.885,1.181,.464,2.755,.537,4.488,.449,3.546-6.615,.988-16.087,7.179-19.744Zm1.347,2.693c-3.27,3.723-4.019,11.983-3.591,17.948,5.127,1.711,21.335,2.943,24.23-1.346,2.958-4.38,.301-10.15,1.797-16.602-6.109-1.959-14.924-1.11-22.436,0Zm90.189-.449c-9.757,.904-24.415,1.631-33.204,4.039-.53,8.109-1.505,22.956,.898,30.96,9.08-.02,18.985-2.638,28.269-4.486,3.142-.626,7.692-.982,8.974-2.693,1.773-2.368,1.223-8.651,1.346-11.667,.203-4.99,.082-9.792,0-14.358-1.353-2.717-4.528-1.957-6.283-1.795Zm-39.487,.898c-3.453,.303-16.091,.274-19.743,1.795-3.991,1.66-2.899,10.117-3.14,14.807,6.757,.601,14.451-1.685,21.088-2.693,.796-4.439,.053-10.418,1.795-13.909Zm-1.346,21.537c-16.084,4.493-41.765,2.662-61.922,3.59-.162,9.679-.088,16.378,.898,24.679,2.366,3.942,7.338,4.451,14.807,5.384,10.719,1.338,22.178,2.947,30.064,1.795,.834-1.557,.942-3.845,2.244-4.935,20.181-3.239,40.478-8.165,58.331-13.013,2.436-.663,5.855-.444,7.628-2.693-10.613,.022-22.047,5.426-34.55,7.628-6.155,1.085-12.426,2.202-18.846,3.14-9.345,1.367-18.437,4.203-28.269,3.59-1.698-.106-3.602-1.152-5.384-1.346-4.707-.509-10.663-.265-15.257-3.14,3.1-1.547,7.458-1.01,11.218-.898,1.561-3.829,1.935-7.502,4.935-9.87,4.43-3.496,13.447-2.684,20.641-4.039,5.516-1.039,10.528-2.003,14.36-3.142-.022-2.521,.248-5.333-.898-6.73Zm-30.064,20.641c.124,1.769-1.919,1.371-1.795,3.14,9.304-1.054,18.713-2.865,26.474-4.935,1.638-.436,4.658-.615,4.935-2.693-8.399-.217-20.608,2.439-29.615,4.488Z" fill-rule="evenodd"/>
          <path d="M216.063,416.398c12.657,1.851,24.959,4.059,37.243,6.281-1.532,8.842,1.965,16.907,3.59,25.129-12.546-2.412-25.02-4.893-36.346-8.525-3.564-6.533-5.235-12.532-4.488-22.885Zm12.115,22.436c5.415,1.614,11.416,2.644,17.5,3.59,.088-1.735,.016-3.307-.449-4.488-2.616-1.123-6.252-1.225-8.076-3.14-1.697,1.713-5.251-.922-8.975,0v4.039Z" fill="#f17a00" fill-rule="evenodd"/>
          <path d="M341.703,420.884h.897c2.279,1.163,1.002,5.879,1.346,8.976-3.915,.175-1.633-5.846-2.244-8.976Z" fill="#f17a00" fill-rule="evenodd"/>
          <path d="M257.345,423.128c29.411,5.844,58.701,9.857,87.499,16.155,1.418,9.102,1.657,17.106,3.59,25.127-22.827-1.913-45.444-7.093-66.409-11.667-6.347-1.384-14.349-2.271-20.641-4.486-1.741-7.446-6.618-16.332-4.039-25.129Z" fill="#f17a00" fill-rule="evenodd"/>
          <path d="M560.225,452.295c-1.733,.088-3.306,.015-4.488-.449,.515-5.664-.016-16.818,2.693-22.885,10.372,.425,24.329,1.077,35.448,2.244h-3.589c-8.921,.969-17.468-1.853-22.885,1.346-6.191,3.657-3.633,13.129-7.179,19.744Z" fill="#f17a00" fill-rule="evenodd"/>
          <path d="M755.862,430.307c.982,.067,.964,1.132,.898,2.244-1.508,.462-.699-1.395-.898-2.244Z" fill="#f17a00" fill-rule="evenodd"/>
          <path d="M173.885,497.166c-.185-1.083,.819-.977,.448-2.244,1.545-.699,4.043-.444,4.487-2.244,.236-2.18-1.908-1.981-1.795-4.039-1.049,.747-1.085,2.505-3.14,2.244-.413-1.632-1.811-2.775-.898-4.488-.156-1.488-2.761-.529-2.243-2.691,1.929-2.105,3.562,1.514,5.384,2.244,3.977-.918,6.45-3.102,7.628-7.181,.601-2.08-.188-5.435,2.243-5.832-1.123-.971-.924-3.265-1.346-4.937,.188-2.054,2.341-2.145,3.141-3.59-.761-.884-2.087-1.203-3.59-1.346,.279-2.468-1.85-6.045,1.347-6.283-.698-1.245-2.639-1.249-2.692-3.14-.372-2.317,1.749-2.14,2.244-3.59-1.005-1.377-4.829,.471-5.833-1.795,.062-1.583,1.284-2.007,1.346-3.59-2.333,.248-3.001,3.401-5.833,1.795-1.152,1.839-3.985,1.998-3.59,5.384,1.805,1.366,2.093-1.888,4.488-1.346,6.198,1.017,7.941,15.925,6.282,25.127-.469,2.604-1.212,6.084-3.59,6.283-.974-.935,.055-1.45,.448-2.244-1.039-1.205-2.403-2.083-4.039-2.693-2.866-3.177-.105-8.537-1.795-11.665,1.336-.909,.541-3.947,3.141-3.59-.324-1.371,.459-1.636,.449-2.693-6.94-.562-5.876,12.14-5.385,17.948-4.552-3.329-1.236-15.421-.448-21.537-6.089,2.288-4.753,11.999-4.936,20.192-1.85-3.75-3.106-10.405-3.59-17.051-.613-8.43,.692-19.841,4.039-23.781,4.238-4.992,12.656-3.191,16.153,1.346,2.122,2.755,5.497,11.183,6.283,15.706,.769,4.422,.73,8.978,.897,13.462,.103,2.768,.896,5.456,.897,8.075,.005,8.282-1.903,16.314-4.936,22.436-2.265,2.945-8.237,4.349-11.666,1.347Z" fill-rule="evenodd"/>
          <path d="M689.005,448.256c-.058-1.587-1.419-1.872-2.691-2.244,1.457-3.79-.504-6.659,.447-11.667,9.492-3.369,10.991,12.671,2.244,13.911Z" fill="#8fa1a0" fill-rule="evenodd"/>
          <path d="M665.224,436.589c.082,4.566,.203,9.368,0,14.358-.122,3.016,.427,9.299-1.346,11.667-1.282,1.711-5.832,2.067-8.974,2.693-9.284,1.848-19.189,4.466-28.269,4.486-2.403-8.004-1.428-22.852-.898-30.96,8.789-2.408,23.447-3.135,33.204-4.039,1.755-.162,4.93-.922,6.283,1.795Zm-10.32,.898c-8.691,.814-19.593,2.551-26.027,3.59-2.31,4.791-1.734,16.504-.447,21.986,1.126-5.903-.261-14.32,1.346-19.744,11.731-2.841,23.83-2.341,33.653-4.935-1.526-2.034-5.572-1.174-8.525-.896Zm8.525,3.14c-9.076,1.406-22.724,2.096-31.859,4.935-.8,6.215-.904,15.539,.898,20.641,7.926-.502,13.599-1.026,19.293-2.244,3.36-.718,7.384-1.017,10.321-3.59,.953-6.074,1.086-12.971,1.346-19.743Z" fill="#8fa1a0" fill-rule="evenodd"/>
          <path d="M228.178,434.795c3.724-.922,7.278,1.713,8.975,0,1.824,1.915,5.46,2.018,8.076,3.14,.465,1.181,.537,2.753,.449,4.488-6.085-.946-12.085-1.976-17.5-3.59v-4.039Z" fill-rule="evenodd"/>
          <path d="M617.659,449.602c-6.637,1.008-14.331,3.294-21.088,2.693,.241-4.691-.851-13.148,3.14-14.807,3.652-1.521,16.29-1.492,19.743-1.795-1.742,3.491-.999,9.47-1.795,13.909Z" fill="#f17a00" fill-rule="evenodd"/>
          <path d="M587.596,437.039c.555,1.451-1.452,.343-.896,1.795-1.632,.436-.208-2.185-2.244-1.346-1.156,.108,.617,.77,0,1.795-1.629,.431-.376-2.018-1.795-1.795-1.448-.402-.63,1.462-1.346,1.795-1.24,.192-.422-1.674-1.346-1.795-1.172-.126-2.246-.151-1.797,1.346-.957,.21-.854-.641-.896-1.346-2.616,1.263-3.578,.687-5.833,.896-1.808,2.286-3.469,6.927-2.244,10.769,.796-1.298,.752-3.434,1.347-4.935,1.026,.769,.164,3.425,.447,4.935,1.753-.939,1.459-3.925,1.795-6.281,1.375,1.99-.564,4.506,0,7.179,2.191-.203,1.001-3.787,1.795-5.384,1.324,.92-.425,4.913,.898,5.833,1.482-.754,.884-2.251,1.795-2.693,1.842-.385-.533,2.009,.896,2.693,1.576-.67,1.116-3.374,1.797-4.937,.856,1.103,1.11,3.075,.447,4.488,2.814-.029,1.674-4.009,2.693-5.833,1.031,1.063,.161,4.028,.449,5.833,1.581-.811,1.406-3.38,2.242-4.937,1.019,.478,.172,2.821,.449,4.039,.798-.847,1.479-1.811,1.346-3.59,1.028,.769,.166,3.425,.449,4.937-4.121,2.501-14.959,2.425-20.192,.896-.991-5.246-.005-11.411,2.693-14.358,5.928,.239,11.03-1.125,17.05,0Z" fill-rule="evenodd"/>
          <path d="M663.429,438.384c-9.823,2.594-21.923,2.094-33.653,4.935-1.607,5.424-.219,13.841-1.346,19.744-1.287-5.483-1.862-17.196,.447-21.986,6.434-1.039,17.336-2.775,26.027-3.59,2.952-.277,6.998-1.137,8.525,.896Z" fill-rule="evenodd"/>
          <path d="M662.083,460.371c-2.938,2.573-6.962,2.872-10.321,3.59-5.695,1.218-11.368,1.742-19.293,2.244-1.802-5.101-1.698-14.426-.898-20.641,9.134-2.839,22.782-3.529,31.859-4.935-.259,6.772-.392,13.668-1.346,19.743Zm-9.872-8.974c-1.097-.398-.486-2.505-2.244-2.244-1.997-.053-1.707,2.182-2.691,3.142-1.059-.139-.836-1.559-2.244-1.347-.853,.794-1.065,2.227-1.795,3.142-1.598-.349-.844-3.047-2.693-3.142-1.998-.053-1.707,2.182-2.691,3.142-1.386-.858-.716-3.772-3.591-3.142-.794,3.593-1.346,8.371,.449,11.218,5.592,.06,10.484-1.088,13.462-1.795,1.137-.268,3.013,.031,3.14-1.346-3.805,.022-8.932,2.45-10.769,.449,.582-1.764,3.14-1.866,4.935-2.244,3.818-.803,8.552-.389,11.218-2.244-.175-2.365,.581-5.666-.896-6.73-2.452-.21-2.364,2.121-3.59,3.14Zm0,8.526c.926-1.169,3.56-.628,4.486-1.795-1.567,.245-5.651,.307-4.486,1.795Z" fill-rule="evenodd"/>
          <path d="M655.801,448.256c1.477,1.064,.721,4.365,.896,6.73-2.666,1.855-7.4,1.441-11.218,2.244-1.795,.378-4.353,.48-4.935,2.244,1.837,2.001,6.964-.427,10.769-.449-.128,1.377-2.003,1.077-3.14,1.346-2.978,.707-7.869,1.855-13.462,1.795-1.795-2.846-1.243-7.625-.449-11.218,2.876-.63,2.206,2.284,3.591,3.142,.984-.96,.694-3.195,2.691-3.142,1.849,.095,1.095,2.794,2.693,3.142,.73-.915,.942-2.348,1.795-3.142,1.408-.212,1.185,1.209,2.244,1.347,.984-.96,.694-3.195,2.691-3.142,1.758-.261,1.147,1.846,2.244,2.244,1.225-1.019,1.137-3.35,3.59-3.14Z" fill="#fff" fill-rule="evenodd"/>
          <path d="M480.355,456.332c19.439,2.023,38.539,2.37,57.434,4.039,.809,9.741,.19,21.528,.898,31.411-15.58,.904-28.83,.371-43.975-1.347-6.783-9.37-11.229-21.077-14.358-34.103Z" fill="#f17a00" fill-rule="evenodd"/>
          <path d="M619.007,463.96c-3.833,1.139-8.844,2.103-14.36,3.142-7.194,1.355-16.211,.542-20.641,4.039-3,2.368-3.374,6.042-4.935,9.87-3.759-.111-8.118-.648-11.218,.898,4.594,2.876,10.55,2.631,15.257,3.14,1.782,.194,3.686,1.24,5.384,1.346,9.832,.613,18.925-2.222,28.269-3.59,6.42-.939,12.691-2.056,18.846-3.14,12.503-2.202,23.937-7.606,34.55-7.628-1.773,2.249-5.193,2.03-7.628,2.693-17.853,4.848-38.15,9.774-58.331,13.013-1.302,1.09-1.41,3.378-2.244,4.935-7.886,1.152-19.344-.456-30.064-1.795-7.47-.933-12.441-1.442-14.807-5.384-.986-8.302-1.061-15.001-.898-24.679,20.157-.928,45.839,.904,61.922-3.59,1.147,1.397,.876,4.209,.898,6.73Z" fill="#f17a00" fill-rule="evenodd"/>
          <path d="M656.697,458.129c-.926,1.167-3.56,.626-4.486,1.795,2.437-.458,4.486-.672,4.486-1.795Z" fill="#fff" fill-rule="evenodd"/>
          <path d="M727.146,462.165c2.662-.268,3.858,.928,3.59,3.59-1.114,1.063-2.642,.005-4.039,0-.099-1.444,.794-1.897,.449-3.59Z" fill="#8fa1a0" fill-rule="evenodd"/>
          <path d="M617.659,473.383c-.277,2.078-3.297,2.257-4.935,2.693-7.762,2.07-17.17,3.882-26.474,4.935-.124-1.769,1.919-1.371,1.795-3.14,9.007-2.049,21.216-4.705,29.615-4.488Z" fill="#f17a00" fill-rule="evenodd"/>
          <path d="M744.645,478.768c.765-.164,.847,.351,.898,.898-3.739,4.25-9.68,4.732-14.807,6.73-14.448,5.631-29.885,12.854-45.32,17.95-1.147-4.442,2.251-5.052,6.732-6.732,7.234-2.711,14.919-5.857,21.537-8.075,12.773-4.282,22.076-7.126,30.96-10.771Z" fill="#f17a00" fill-rule="evenodd"/>
          <path d="M675.992,492.678c.725-.126,.772,.424,1.346,.449-.632,6.456,.911,11.57-.447,16.153-2.182,7.36-11.262,6.412-18.846,4.488-1.362-.285-1.232-2.058-2.244-2.693-1.733-1.408-5.308-.975-4.935-4.486,7.78,.696,17.617,4.727,23.781-.449,1.574-3.275,.424-10.947,1.346-13.462Z" fill="#8fa1a0" fill-rule="evenodd"/>
          <path d="M416.189,494.024c.132,2.525-.247,4.539-.897,6.283-.744,.75-2.634,.358-4.038,.449-1.279-2.863-1.333-9.712,4.935-6.732Z" fill-rule="evenodd"/>
          <path d="M426.509,494.922c.045,2.138-.836,3.352-1.346,4.935-2.049,.403-2.543-.747-4.039-.896-.465-1.181-.537-2.753-.448-4.488,1.84-1.061,4.532-1.198,5.832,.449Z" fill-rule="evenodd"/>
          <path d="M435.931,499.408c.59,1.53,.891,4.932-.447,5.833-1.882,.237-2.507-.783-4.039-.896-1.86-3.796,1.466-8.437,4.486-4.937Z" fill-rule="evenodd"/>
          <path d="M365.036,500.307c2.092,.464,.216,3.876,0,4.935-1.266,.071-1.125-1.267-1.795-1.795,.183-1.461,.937-2.353,1.795-3.14Z" fill-rule="evenodd"/>
          <path d="M366.382,507.486c-.082,2.162-.938,3.549-3.141,3.589-1.632-2.105,1.335-4.922,3.141-3.589Z" fill-rule="evenodd"/>
          <path d="M425.163,509.73c-.815,2.111-2.95,2.45-4.487,3.59-5.732,4.25-9.133,10.447-10.77,18.846-14.545-6.341,1.442-32.642,15.257-22.436Z" fill-rule="evenodd"/>
          <path d="M440.868,508.831c4.19,.099,4.789,4.911,2.244,7.181-1.494-.602-2.492-1.696-3.591-2.693-.316-2.262,.807-3.084,1.347-4.488Z" fill-rule="evenodd"/>
          <path d="M397.792,519.602c.275-2.43-2.392-5.087-.449-8.526,1.495-.78,1.991,.226,4.039,0,1.448,6.675,.619,14.104,0,21.09-5.003,1.194-4.063-9.629-4.487-13.013,.521-.073,.798,.099,.897,.449Z" fill-rule="evenodd"/>
          <path d="M426.509,516.909c2.508,2.279,2.851,6.721,5.832,8.527-.201,7.444,1.03,16.982-4.038,22.436-1.415-.979-2.782-2.005-4.935-2.244-.635-3.179,2.457-2.629,3.14-4.488-1.829-1.079-2.216,.761-4.487,.449-2.967-5.64-2.663-13.485,3.141-15.706-1.187-4.311-2.665,.217-5.833,0-1.839-3.909,1.142-10.024,7.179-8.974Z" fill-rule="evenodd"/>
          <path d="M448.945,529.921c-4.738,.456-5.731-8.32-.449-8.077,1.74,1.229,1.879,6.337,.449,8.077Z" fill-rule="evenodd"/>
          <path d="M441.766,529.025c3.447,.588,2.315,5.76,3.14,8.974,.509-.402,2.912-2.761,6.281-1.795,.957,1.735,1.026,4.358,.898,7.179,.281,1.066,2.762-.069,3.14,.896-1.534,9.456-9.158,24.017-17.05,25.578-3.442,.681-6.776-.225-8.976-1.795-1.594,.049-1.63,1.66-3.59,1.346-2.594-.546-3.537-2.746-6.731-2.693-2.26-2.525-4.25-5.32-4.038-10.32,2.026,1.713,7.002,.477,6.73,4.488,13.436-3.914,19.825-14.877,20.193-31.859Zm2.242,19.742c2.273,.27,3.087,1.998,4.937,2.693,.498-2.644,1.072-5.211,2.242-7.181-2.388-.153-3.768-1.315-5.832-1.795-.92,1.623-1.373,3.714-1.347,6.283Zm-.896,12.564c.27-1.673,2.061-1.826,2.244-3.59-1.718-1.123-2.344-3.34-4.039-4.486-1.384,2.814-.533,6.613,1.795,8.076Zm-9.872,1.795c-.121,1.616,.829,2.164,.898,3.59,2.859,.175,2.529-3.896,1.346-5.384-.358,.99-.9,1.793-2.244,1.795Zm-10.32,3.142c.97-.696,3.197-2.461,1.795-4.039-.478,1.185-3.177,2.48-1.795,4.039Z" fill-rule="evenodd"/>
          <path d="M398.689,535.306c6.085-.248,6.994,6.556,5.833,12.116-4.02-1.963-5.066-6.9-5.833-12.116Z" fill-rule="evenodd"/>
          <path d="M445.356,542.485c2.063,.48,3.443,1.641,5.832,1.795-1.17,1.97-1.744,4.537-2.242,7.181-1.85-.696-2.664-2.423-4.937-2.693-.026-2.569,.427-4.659,1.347-6.283Z" fill="#8fa1a0" fill-rule="evenodd"/>
          <path d="M410.355,551.46c1.145,1.099,2.594,3.779,1.347,5.832-4.771,1.579-7.436-6.902-1.347-5.832Z" fill-rule="evenodd"/>
          <path d="M441.317,553.255c1.694,1.147,2.321,3.363,4.039,4.486-.183,1.764-1.974,1.917-2.244,3.59-2.328-1.463-3.179-5.262-1.795-8.076Z" fill="#8fa1a0" fill-rule="evenodd"/>
          <path d="M435.484,561.331c1.183,1.488,1.514,5.56-1.346,5.384-.069-1.426-1.019-1.974-.898-3.59,1.344-.002,1.886-.805,2.244-1.795Z" fill="#8fa1a0" fill-rule="evenodd"/>
          <path d="M424.714,562.229c1.402,1.578-.824,3.343-1.795,4.039-1.382-1.559,1.316-2.854,1.795-4.039Z" fill="#8fa1a0" fill-rule="evenodd"/>
          <path d="M379.395,570.307c.526,1.265,.089,1.904-.449,3.14-1.611,.265-2.171-.522-3.14-.898-.645-2.783,1.797-3.171,3.59-2.242Z" fill-rule="evenodd"/>
          <path d="M384.779,581.075c-2.728,.767-5.74-.413-5.384-4.039,2.578-1.901,7.023,.546,5.384,4.039Z" fill-rule="evenodd"/>
          <path d="M389.266,586.01c.818,1.682,.371,4.066-.448,5.384-2.394-.597-4.062-1.921-3.59-5.384,.938-.884,2.98-.343,4.039,0Z" fill-rule="evenodd"/>
          <path d="M149.654,398.45c-7.371-.438-12.613-3.301-18.397-3.142-3.402-12.602-7.056-24.952-7.179-40.833,23.044,2.269,47.202,4.667,73.588,6.731,16.688,1.305,33.646,2.45,51.153,4.038-.336,2.058-.371,4.416-.897,6.283-12.984-.327-25.107-1.517-37.243-2.692-2.158,5.832-2.124,14.071-1.795,21.538,.296,6.723,1.626,13.195,2.244,19.293-2.829-.909-6.923-.555-8.975-2.242,.063-2.182,2.796-1.691,3.141-3.591,1.202-3.604,1.084-10.848-2.692-11.217-2.518-.245-2.548,1.974-4.487,3.59-3.073-10.081-17.991-18.24-31.859-17.949-10.831,.228-17.122,8.605-16.603,20.193Zm48.91-8.077c8.313-1.327,6.47-23.733-.897-23.782-7.714-.052-7.993,18.621-3.59,22.436,1.319,1.142,2.723,1.628,4.487,1.347Zm-28.269-29.166c-2.66-.032-7.502-.895-7.179,3.14,7.04,.309,15.265,1.76,21.538,1.347,.325-1.372-.774-1.32-.449-2.692-3.124-1.461-9.262-1.739-13.91-1.795Zm-6.731,7.179c-.98,.066-.963,1.131-.896,2.244,4.692,.552,11.827,1.711,17.05,1.795,1.674,.027,4.316,.086,4.936-1.347-3.513-3.123-15.314-3.485-21.09-2.692Zm7.628,5.384c-2.629-.134-5.264,.103-7.628,0-.45,0-.533,.363-.896,.449v2.692c8.769-.473,14.456,2.18,21.537,1.346-.833-4.44-7.598-4.209-13.013-4.487Z" fill="#f17a00" fill-rule="evenodd"/>
          <path d="M152.795,394.86c-1.103-9.959,11.655-13.536,21.538-11.667,5.015,.949,8.746,2.199,12.115,4.936,14.677,11.921,15.03,44.179,26.025,56.538-5.979-3.038-9.498-14.559-13.012-22.436-2.683-6.016-5.072-12.33-8.526-17.5-1.346-2.016-3.29-4.115-4.936-6.281-1.546-2.038-3.216-4.57-4.935-5.834-5.959-4.383-23.083-9.495-28.269,2.244Z" fill="#8fa1a0" fill-rule="evenodd"/>
          <path d="M755.415,414.603v-2.693c3.453-.199-.122,1.921,1.795,2.244-.391,.678-.672-.124-1.795,.449Z" fill="#f17a00" fill-rule="evenodd"/>
          <path d="M752.722,424.026c.303,3.111,.354,10.738,0,13.909-1.247-4.439-.628-8.605,0-13.909Z" fill="#f17a00" fill-rule="evenodd"/>
          <path d="M753.171,454.09c1.112,2.116,.896,6.964,.896,12.114,0,8.368,1.298,17.108-4.037,19.295,4.513-6.06,1.236-21.134,3.14-31.409Z" fill="#8fa1a0" fill-rule="evenodd"/>
          <path d="M513.559,203.708c-2.171,1.42-5.388,1.791-6.283,4.487,5.956,16.696,15.611,32.804,24.679,49.359,4.327,7.898,8.802,15.665,13.462,23.333,4.681,7.704,8.791,15.961,13.911,22.884,4.106,5.553,10.522,9.446,21.088,8.526,.869,2.122,2.662,3.32,3.142,5.833-1.636-.139-2.921,.071-4.039,.448,.767,1.027,3.425,.165,4.935,.449,2.826,5.999,6.153,11.496,8.526,17.949-2.333,3.293-6.587,4.908-8.077,9.423-1.866,5.655-1.34,13.045-1.346,20.192-.013,14.456-.692,31.516,0,44.87-7.464,1.072-25.795-1.349-35.448-.447,1.159-15.07,4.066-36.333,4.935-56.089,.119-1.826,2.93-.959,4.039-1.796,.542-16.834,1.386-32.207-3.59-44.871-3.135-7.979-7.079-15.777-10.77-23.333-11.079-22.679-23.376-43.749-35.448-66.409-.796-3.989-2.342-7.229-3.14-11.218-75.579,4.965-147.618,11.257-218.073,20.193,3.633-9.531,11.739-9.923,25.128-12.115,47.487-7.776,99.841-12.766,146.28-14.807,12.005-.529,26.049-.817,37.243-1.347,3.036-.143,7.855-.373,11.667,0,3.871,.38,5.6,1.278,7.179,4.487Z" fill="#f17a00" fill-rule="evenodd"/>
          <path d="M753.62,338.322c-.57,13.213,1.597,29.637,1.795,44.871,1.521,2.069,5.107,2.073,6.73,4.039v4.487c-2.304,1.734-4.932,3.145-7.179,4.936,.124,4.542-.247,8.084,.449,11.217,.453,.298,3.265-.288,4.039,.898,1.221,9.545,.8,17.042,.447,25.576-1.882,1.408-4.413,2.169-4.039,5.833,.718,1.258,2.021-.63,3.591,0,.659,6.492-5.647,6.02-5.833,11.667,3.71-1.948,13.323-8.702,7.179-13.911,3.538,.422,6.542,1.587,7.179,4.039,1.808,6.956-8.558,10.676-11.218,14.358-.959,12.312,2.401,25.594-4.039,30.064-4.621,3.21-8.895,1.028-15.257,1.795-4.081,.493-8.369,3.823-13.012,5.833-12.51,5.417-28.382,10.701-39.934,16.155-1.537,9.472-15.162,11.672-25.129,8.525-1.017,1.643-2.339,4.944-5.834,5.384-1.064,.917,.617,1.776-.449,2.693-3.21,2.175-6.031,4.738-8.075,8.075-1.054,.144-1.685,.71-3.142,.449-1.295,.648-1.731,2.158-2.691,3.142-12.512,5.631-37.838,6.478-51.154,.896-.725-.732-1.877,.4-3.59,0-4.225-3.851-11.181-4.972-13.462-10.769-1.077-.568-2.713-.577-3.59-1.346-.913-2.229-2.439-3.843-2.691-6.732-1.658-.287-3.166-.723-4.488-1.346-.761-2.229-1.572-4.411-1.346-7.628-8.242,1.207-19.399,7.626-25.578,.449-8.422,1.448-16.525,3.217-23.781,5.833,.323,1.231,1.187,2.176,1.346,3.59,.121,1.057-.86,1.888-.896,3.14-.035,1.225,.931,2.629,.896,3.59-.117,3.316-2.421,6.907,1.347,9.423-.719,1.525-.707,3.781-2.244,4.488,3.767,2.801,.566,7.188-2.244,8.525,1.198,2.527,2.16,6.365-.449,8.077,2.699,2.956,.195,8.857-2.691,10.32,3.073,3.803-2.52,8.627-4.937,11.218,1.934,4.807-1.169,11.455-6.281,12.116,.314,1.959-.763,2.527-.449,4.486-2.498,2.589-6.874,3.297-7.628,7.628-5.965,.318-6.945,5.62-13.012,5.833-1.473,.174-1.977,1.313-3.14,1.795-2.337,.033-3.327,.719-5.384,0-1.997,.099-1.514,2.677-3.142,3.142-4.59,.195-8.488,1.083-11.218,3.14-1.775-1.448-4.247-1.274-7.179-2.244-2.974-.984-9.191,.61-11.666-2.244-6.822,.091-11.537-1.924-15.705-4.486-.15-1.645-1.778-1.813-1.347-4.039-3.461-.469-4.504,1.479-7.628,1.346-1.993-.999-3.067-2.916-3.59-5.384-3.123,.851-5.234-.719-8.076-1.346-.294-3.137,.473-5.211,1.346-7.179,10.755,7.791,23.794,13.299,43.526,12.114,1.152,.793,.641,3.246,1.795,4.039,.944-.403,1.994-.697,2.691-1.346,.626-2.72-2.29-1.899-1.793-4.488,1.939-.564,4.912,.739,6.281,0-.299,2.543,.409,4.077,.898,5.833,2.624,.529,3.064-1.123,5.384-.898,.962-5.598-3.854-5.419-4.039-9.87,.457-1.787,3.515-.971,4.935-1.795,.517,2.923,2.784,4.095,5.833,4.486,2.669-4.181-3.517-6.025-3.14-10.769,3.809-1.74,4.899,2.383,7.179,3.59,2.098-1.043,4.09-2.191,5.384-4.039-.789-3.1-5.087-2.691-4.488-7.179,2.302-1.234,4.541,1.021,6.732,1.346,2.301-.391,2.081-3.301,3.59-4.486-1.081-2.66-4.002-3.476-4.488-6.732,2.594-3.013,7.285-3.243,7.181-7.179-.099-3.661-6.379-3.805-4.488-8.525,3.809,.292,8.072,1.893,10.319-.898-.734-5.994-7.112-6.348-8.974-11.218,1.141-3.796,6.556-3.314,9.872-4.935-2.255-4.327-7.429-5.735-10.769-8.974,1.873-3.511,8.129-2.64,10.769-5.384-2.845-5.233-8.855-7.3-14.358-9.872,.374-4.411,6.688-2.885,10.319-4.039-.19-7.438-10.25-5.006-13.462-9.423,.442-3.747,4.024-4.353,4.937-7.628-1.353-5.379-10.159-3.303-13.462-6.73-.325-5.112,7.32-2.253,8.974-5.384-.738-6.544-11.238-2.722-15.257-4.937,.382-3.807,3.768-4.608,6.732-5.833,.31-6.144-1.262-10.404-4.039-13.46-1.039,1.802-.157,5.527-.449,8.075-4.422,1.313-8.112,1.382-13.462,2.244-.666-5.602,4.574-5.299,8.974-5.833,1.231-5.965-2.752-10.338-6.281-13.013-.581,1.647,.986,4.574,.449,7.628-3.535,1.105-6.606,2.669-11.218,2.693-.358-4.846,5.191-3.783,6.73-6.732-1.234-5.046-3.126-9.438-8.527-10.319,.245,3.323,4.588,7.785,0,9.423-4.04-2.242-2.108-10.456-9.422-9.423-1.535,1.285,1.815,3.005,.449,4.039-1.812,2.134-5.75,4.34-8.526,4.037-1.379-2.447,2.587-2.97,3.59-4.486,.194-1.691-.948-2.043-1.795-2.693-3.668,.52-5.711,2.666-7.179,5.384-1.97-.329-.064-3.537-.898-4.039-3.694,1.094-7.112,2.461-9.423,4.937-1.081,.183-.975-.82-2.243-.449-3.78,.312-4.545,5.85-8.526,4.488-3.265,4.961-9.591,6.861-11.218,13.46-.855,.192-.812,1.284-2.244,.898-1.051,3.286-2.306,6.368-4.487,8.525,.499,4.073-4.073,8.108-1.795,12.565-2.852,.885-.874,6.604-3.141,8.075-1.82-1.141-.657-4.667-.896-7.179-.161-1.685-.539-3-.898-4.039-8.745-5.815-20.929-7.354-32.755-9.87-5.795-1.234-11.754-2.328-17.5-3.59-5.854-1.287-11.507-3.135-17.051-3.142-3.909-1.678-8.282-2.618-12.563-3.59-12.433-2.819-26.07-5.253-39.038-8.075-3.719,1.515-7.704,2.766-11.667,4.037-.394,.946,.041,3.056-1.346,4.039,1.137,2.005,2.161,4.121,1.795,7.628-3.006,2.379-2.232,8.537-5.385,10.769,.487,1.459,2.599,1.291,2.692,3.142,.799,2.136-1.876,2.151-2.243,4.039-.28,1.435,.8,3.054,.448,4.486-.635,2.593-3.951,4.396-1.795,7.179-.865,1.378-2.164,2.324-3.14,3.59,.192,2.052,.682,3.805,.448,6.283-1.074,.572-1.652,1.638-3.589,1.346,.729,1.446,.214,2.432,0,4.039-4.559,.825-4.86,5.91-9.423,6.732-.713,1.231-.968,2.919-1.795,4.037-.802-.002-2.61,1.209-3.141,0-.765,1.03-1.662,1.928-2.692,2.693-2.178-1.656-4.326,.568-6.731,.896-2.78,.382-5.984-.929-8.525,.898-2.824-1.63-4.981-1.097-8.526-.449-.984-.661-2.325-.966-2.244-2.691-3.677,.237-5.807-1.074-8.974-1.347-1.967-5.255-5.128-6.545-5.833-13.012,4.46-1.842,5.732,3.188,7.179,5.833,3.284-2.717,5.703,.876,7.18,2.693,2.176-.515,1.861-3.524,3.59-4.488,1.394,.4,3.128,.462,3.14,2.244,1.217-.279,1.117-1.875,2.693-1.795,.852,.792,1.064,2.226,1.795,3.14,2.11-1.329,1.184-5.695,5.832-4.486-.304-1.639-.625-3.263-.448-5.384,.641-1.304,2.181-1.709,3.59-2.244-1.402-3.02,.542-6.25,2.692-7.179,.152-3.515-2.743-4.042-1.346-7.628,1.096-.4,1.945-1.046,3.59-.898-2.271-3.412,.637-8.154,.448-12.564-.117-2.748-1.855-4.57-1.795-7.179,2.081,.135,3.885-.005,4.936-.898-.772-4.312-5.829-4.342-5.384-9.872,.913-1.18,3.638-.55,4.935-1.346-.635-5.046-6.879-4.488-6.73-10.319,1.443-1.22,3.124,.197,4.487,.447,.771-5.855-5.124-5.047-5.833-9.423,.862-3.08,4.26-1.353,4.039-4.486-.227-3.215-6.082-2.664-8.975-4.488-.395-3.237,2.342-3.341,5.385-3.14,.992-5.952-7.161-3.02-7.628-6.73-.457-3.63,3.44-1.209,3.59-4.937-1.196-2.016-8.556,1.61-8.526-2.691,1.235-2.205,3.449-3.432,6.282-4.039-1.609-3.361-7.611,2.171-10.32-.898,.471-3.119,4.305-2.874,4.487-6.281-2.358-.407-4.868,2.903-9.422,1.795,.932-2.658,4.335-2.845,5.384-5.386-3.035-.637-6.617-.082-9.423,.898-.992,.347-1.3,1.304-2.244,1.795-1.074,.559-2.415,.46-3.14,.898-5.477,3.303-8.298,9.317-11.218,16.153-.159,.372-.696,1.028-.897,1.346-2.403,3.792-4.132,13.075-4.936,18.846-1.296,9.301-.478,19.399,1.795,28.269-.41,.787-.154,2.239-.897,2.693,.27,2.273,3.343,1.742,2.692,4.935-.418,.478-1.655,.139-1.347,1.346-2.136-.566-4.083-2.658-2.692-5.384-2.645-.402-4.575,1.798-6.73,.449,.277-14.744-.692-30.801-1.346-44.871-.108-2.315,.624-4.975,0-7.179-.793-2.804-5.329-4.24-7.179-7.179-2.529-4.017-4.336-14.329-4.039-19.744-.476-1.319-1.805-1.785-2.244-3.14-2.195-13.671-8.253-27.487-4.935-42.628-.063-1.433-1.508-1.484-1.795-2.692,.843-4.843,1.498-9.064,1.346-15.705-1.756-3.139-5.03-6.785-4.038-11.218-.92-2.026-1.995-1.19-3.591-2.244-2.106-3.055-2.045-7.217-.448-10.769-3.734-.129-4.513-6.043-2.692-8.975,.32-1.218-2.116,.321-1.795-.896-1.023-2.249-.1-5.147,0-7.628,2.02-.224,2.489-1.998,3.59-3.141-1.619-.557-1.444-1.201-1.795-2.244,.297-2.694,2.388-3.594,4.487-4.487-.09-1.705-1.887-1.702-1.795-3.59,.488-2.054,2.193-2.892,2.243-5.384,2.049,.403,2.543-.748,4.039-.897,.171-1.516-.778-1.914-1.346-2.692,3.251-4.975,6.941-9.512,13.91-10.77,1.491-8.68,2.018-18.323,6.282-24.23,4.248-.987,9.055-1.415,11.667-4.039-4.257,.56-9.993-2.058-7.628-8.076,17.153-8.673,42.361-11.57,64.165-16.602,19.165-4.423,38.78-8.762,56.537-10.769,10.184-1.15,23.191,1.089,33.653,.449,4.909-.3,10.175-1.19,15.256-1.795,27.467-3.266,55.21-7.399,83.461-9.423,19.329-1.385,38.197-3.432,58.781-4.487,12.279-.63,29.434-1.728,42.178-.449,7.269,.73,13.936-.249,20.641,.449,9.407,.979,19.237,2.675,28.718,4.038,23.832,3.425,46.361,7.928,68.652,13.462,11.97,2.971,21.165,5.971,30.064,12.115,8.211,5.669,16.39,14.102,23.783,21.089,29.206,27.612,51.232,56.066,76.281,89.294,2.019,2.679,4.581,7.524,6.281,8.526,.453,.267,3.717,.159,5.384,1.346,4.718,3.359,1.78,8.279-4.037,9.423Zm-122.948-135.062c-2.319-1.054-4.732-1.659-7.179-2.244-35.079-8.381-72.655-14.242-110.83-17.948-2.038-.839-.612,1.783-2.244,1.347-1.101-1.331-2.626-1.547-4.039-1.795-10.694-1.878-30.991-.97-42.18-.449-44.476,2.069-90.227,6.574-132.369,11.218-6.786,.749-13.933,2.346-20.64,3.141-6.833,.81-16.129-.407-18.398,5.834,2.772,2.49,7.057,1.608,10.32,1.346,12.419-.999,23.954-2.823,35.897-4.487,43.883-6.116,89.667-9.502,137.305-11.667,4.482-.203,8.724-.907,13.013-.896,4.762,.01,11.378,.162,15.706,2.243,2.054,.989,4.979,4.447,7.628,7.628,4.897,5.885,8.461,12.415,12.563,18.397,25.749,37.555,48.979,76.093,70.896,116.216,1.771,3.241,4.19,6.265,4.935,9.871-2.403,1.844-6.264,1.259-8.525,3.59-1.819,1.875-2.806,5.701-3.142,8.975-2.133,20.837,2.467,45.887,.449,64.166-11.07,1.377-24.256-1.899-34.999-.449-11.019,1.488-8.877,9.962-9.423,21.988-.621,13.659-.57,29.129,0,40.383,.307,6.062-.887,14.345,1.795,17.5,2.47,2.905,10.533,4.112,16.153,4.935,7.04,1.03,13.535,2.297,18.846,2.693,11.643,.865,20.495-2.098,30.962-4.039,20.04-3.717,41.453-7.486,58.333-13.013,3.602-1.181,7.65-1.654,9.423-4.937,1.592-6.425,.897-13.639,.897-20.641,0-15.308-1.052-24.95-.897-39.487,.115-10.9,2.49-18.463,9.87-21.537,7.72-3.217,17.853-4.505,28.269-6.282,4.782-.816,9.438-1.162,15.256-2.244,4.161-.773,10.988-3.38,14.807-1.795,6.432,2.667,1.218,26.084,3.589,32.756,.21-9.432,.462-18.59-.449-31.409,1.616-2.722,6.858-1.819,7.181-5.833-2.856-.917-4.446,2.523-7.628,2.692-4.174-5.543-10.977-2.718-18.846-1.347-13.29,2.316-27.681,5.751-39.936,5.833-2.107-11.952-1.53-26.589-2.693-39.487,1.709-.385,2.974-1.214,5.386-.897,1.713-.691,2.985-4.178,4.935-3.14-.882,7.164-2.138,14.68,3.59,17.5-1.793-7.297,.643-16.993,3.14-21.538,.458-.833,2.388-2.557,.898-3.141-5.178,2.75-14.218,1.639-20.641,3.141-.886,16.366-.104,33.604,2.244,48.91-9.346,1.422-14.26,7.279-16.602,15.705-24.481,3.604-49.059,9.409-76.282,7.628-2.154-18.021-2.691-35.501-2.691-53.397,0-5.258-.979-11.805,.896-14.807,2.03-3.251,11.638-3.534,18.399-4.039,44.608-3.333,85.97-4.579,126.985-9.423,5.445-.643,16.768-.25,15.255-6.731-1.59-2.809-5.085,1.005-6.281,0-15.016-22.906-33.867-44.605-52.05-65.96-15.481-18.18-33.108-36.5-52.052-51.153-1.808-1.399-5.662-6.417-8.525-2.693-.663,1.924,1.798,2.476,2.693,3.141,4.256,3.172,7.964,6.025,11.665,9.423,24.13,22.15,46.891,46.625,67.307,72.243,6.02,7.553,12.881,15.823,17.95,23.781,1.859,2.92,3.292,6.759,5.384,8.975,1.242,1.315,4.482,1.785,4.486,3.59-38.928,4.412-83.197,8.56-122.048,9.423-3.924,.087-9.051,2.081-12.116,1.346-2.746-.658-4.471-4.959-6.73-8.974-5.724-10.176-12.512-21.109-17.5-29.615-8.043-13.716-14.966-27.931-22.885-40.384-8.172-12.853-17.108-25.376-25.576-37.692-6.52-9.482-12.735-18.95-19.295-27.82-2.235-3.022-5.09-5.692-5.832-9.423,36.726,2.807,72.103,9.544,105.895,16.602,4.9,1.024,9.785,2.517,14.807,2.244-.066-2.261-3-2.914-4.488-3.59Zm-161.086-10.769c-12.62,.587-25.958,.817-38.59,1.795-13.042,1.01-25.645,1.114-36.345,4.039,38.009-1.613,75.713-2.517,112.179-2.692m24.678,1.346c16.555,.796,39.016,4.451,55.642,4.488-21.154-3.526-42.468-6.892-65.065-8.975,1.063,4.9,4.404,4.246,9.423,4.487Zm-369.738,26.474c4.658-1.272,9.505-2.557,14.359-3.59,19.9-4.235,40.317-8.238,61.025-11.667,14.122-2.338,26.796-4.481,41.282-4.038,2.524,.077,11.126,1.054,10.769-3.141-.225-2.646-1.823-1.666-4.936-2.244-5.97-1.106-15.18-1.026-20.192-.448-19.352,2.233-39.784,7.046-60.576,11.218-15.276,3.065-30.026,6.042-44.423,9.423-4.019,.944-10.69,.844-11.666,6.282,4.737,1.521,9.703-.523,14.358-1.795Zm344.611-24.23c-3.812-.373-8.631-.143-11.667,0-11.194,.529-25.238,.818-37.243,1.347-46.439,2.041-98.792,7.031-146.28,14.807-13.389,2.192-21.494,2.584-25.128,12.115,70.455-8.936,142.494-15.227,218.073-20.193,.798,3.989,2.344,7.228,3.14,11.218,12.072,22.66,24.369,43.73,35.448,66.409,3.692,7.556,7.636,15.354,10.77,23.333,4.975,12.664,4.132,28.037,3.59,44.871-1.108,.837-3.92-.03-4.039,1.796-.869,19.756-3.776,41.019-4.935,56.089,9.653-.902,27.984,1.519,35.448,.447-.692-13.354-.013-30.414,0-44.87,.005-7.147-.52-14.536,1.346-20.192,1.49-4.515,5.744-6.13,8.077-9.423-2.373-6.452-5.7-11.949-8.526-17.949-1.51-.284-4.168,.578-4.935-.449,1.117-.377,2.403-.587,4.039-.448-.48-2.513-2.273-3.711-3.142-5.833-10.566,.92-16.982-2.973-21.088-8.526-5.12-6.922-9.229-15.18-13.911-22.884-4.66-7.668-9.134-15.435-13.462-23.333-9.069-16.555-18.724-32.663-24.679-49.359,.895-2.696,4.112-3.067,6.283-4.487-1.579-3.209-3.309-4.107-7.179-4.487Zm35.897,3.141c3.467,.348,7.583,.412,10.769,.448,3.259,.037,6.153,.775,7.628-.448-11.072-.595-21.532-1.801-32.757-2.244,1.421,4.656,7.919,1.598,14.36,2.244Zm20.641,.448c-2.874-.518-.986,1.371,0,0h0Zm3.59,.449c-2.145-1.248-1.086,1.472,0,0h0Zm-275.958,10.769c1.176-.147,2.325-1.023,3.59-1.346,4.978-1.275,10.254-1.312,14.807-3.141-13.975-.216-27.732-2.598-41.73-1.347-.896,1.993-.225,3.306-.897,4.936m-74.487,7.628c22.639-.279,42.86-3.595,63.717-6.731v-4.487c-21.917,3.061-43.601,6.356-63.717,11.218Zm498.967,52.948c7.878,9.105,15.757,18.044,22.885,27.372,5.512,7.214,11.165,14.288,15.706,21.987,1.384,2.347,2.689,6.355,6.73,4.935-5.47-11.216-14.033-21.065-22.436-31.409-4.05-4.985-7.794-10.174-12.116-15.257-14.48-17.029-30.003-34.398-45.318-50.255-4.618-4.78-9.069-8.58-14.36-13.012-4.762-3.991-8.059-7.444-14.807-5.384-.188,1.637,2.18,1.772,3.142,2.243,4.019,1.97,9.292,4.292,12.563,6.731,2.835,2.114,6.914,6.544,9.423,8.974,1.149,1.114,2.186,2.161,3.14,3.141m-274.162-12.115c-6.463,22.393-11.446,49.402-14.359,75.832-.435,3.95-.36,8.418-1.347,11.666-.669,2.207-3.716,4.258-4.038,7.18,36.768,.982,74.193,1.887,114.421,2.243,.739-5.524-1.41-8.163-4.039-10.32-12.952-.574-23.635,.15-36.794-.448-14.978-.68-28.654-.789-44.871-1.795-5.975-.371-13.027-.392-14.807-1.795-2.405-1.896-2.121-8.08-1.795-12.115,.683-8.445,2.994-19.28,4.487-30.961,.612-4.794,1.378-9.91,2.244-14.807,1.787-10.116,2.562-18.894,11.218-21.09,6.732-1.708,18.971-1.271,30.512-1.795,17.696-.803,35.775-1.443,53.396-2.244,5.441-.247,13.728-.84,17.051,.898,3.337,1.744,6.31,8.897,7.628,13.013-3.451-.31-5.523,.759-8.974,.448,.94-3.415-.734-4.326-1.795-6.731-12.649-3.313-28.099-1.496-41.731-.897-8.454,.371-17.618-.028-26.922,.449-5.891,.302-12.579,.686-18.398,1.346-4.911,.558-12.297,.536-13.461,6.283,18.293-1.125,40.836-1.306,61.473-2.244,11.888-.54,26.243-2.529,32.308,3.141-2.43,2.036-6.16,3.56-7.628,6.73-1.083,2.337-.093,5.142-1.795,7.628,.124-2.816-.088-5.297-1.348-6.73-5.399-.65-12.525-1.536-18.397-.898-9.66,1.049-10.212,7.666-10.769,18.846-.623,12.501-.911,24.467,.896,32.308,10.164-.676,18.631-5.937,26.027-10.769,1.357-1.035,1.037-3.747,3.14-4.038,.372,6.297-2.111,17.959,.896,22.436,2.794,4.156,8.914,11.769,12.565,6.73,.331-1.613,3.829-.059,4.039-1.795-1.651-.97-4.95-.329-6.732,0-10.13-5-3.358-21.542-5.833-34.101-2.235-2.01-3.288,.83-4.486,.448v-3.14c.968-1.575,4.794-.29,6.281-1.347-.668-4.19,2.164-9.264-1.795-10.32,1.603-.685,1.528-1.9,1.795-3.14,1.346-6.233-.491-10.982,4.937-14.808,4.387-3.093,10.515-2.132,18.846-2.243,1.097-.398,.803-2.187,1.795-2.692,.495-.964,2.677,1.201,2.242-1.347,.332-3.473-4.181-2.1-5.832-3.59,3.124-6.073-3.369-10.681-4.937-16.154-37.882,1.425-77.48,4.025-115.318,6.731Zm-123.396,47.563c2.475-15.284,4.827-27.906,8.076-42.627,.504-2.281,.582,.043,.897-4.039,.29-3.758,.731-2.592-1.346-3.141-.472-.124-5.574,.581-8.077,.898-39.718,5.024-80.151,10.765-114.421,19.742-7.525,33.607-12.79,69.475-13.911,109.486,8.573,2.078,18.218,2.193,27.821,3.141,29.341,2.898,59.477,5.745,89.742,6.731,2.397-28.218,6.666-62.084,11.218-90.192Zm379.161-40.384c2.355,2.693,4.86,5.081,7.179,7.628,9.525,10.461,18.389,21.277,26.923,32.308,4.258,5.505,9.094,10.83,12.563,17.05-5.34,1.962-7.834-3.878-10.319-7.179-2.545-3.38-5.585-7.081-8.077-10.321-4.515-5.869-9.231-13.267-14.358-17.948-.223-.203-1.667-2.274-2.244-.897,2.468,10.843,4.265,22.359,6.283,33.653-1.479,.019-2.235,.758-4.039,.449-1.103-7.32-3.084-15.867-4.488-22.436-.608-2.846-.561-5.994-1.346-8.077-3.69-9.784-20.844-10.345-34.552-10.319-17.416,.031-36.969,1.178-51.601,2.692,.681,4.505,4.311,7.867,6.73,11.666,5.048,7.927,10.225,15.832,14.807,23.782,2.366,4.104,4.473,8.305,7.628,11.666,11.353-2.013,25.423-.721,37.692-.448,6.348,.141,16.158-1.116,18.397,2.692-.199,1.595-2.715,.875-3.59,1.795,3.396,1.053,6.808,2.038,10.769,3.59,3.206,1.255,6.564,3.927,9.872,4.487,2.699,.456,5.39-.331,8.077-.448,9.293-.409,19.317,.682,29.165-.449-1.851-2.096-4.495-3.896-7.179-5.833-2.412-1.739-5.384-4.154-8.525-4.935-3.845-.957-8.853-.42-13.462-.897-4.258-.442-8.433-1.899-12.116-2.244-3.812-.357-7.628,.649-10.769-1.347,11.669-2.036,25.496-2.246,37.243-.448,5.173,.791,11.331,1.891,12.116,6.282-1.074,.274-3.257-.563-3.59,.449,5.107,2.072,8.727,5.629,14.807,6.731-3.463-8.993-11.207-15.288-17.051-22.436-3.005-3.674-5.483-7.705-8.527-11.218-3.044-3.513-6.374-6.836-9.423-10.32-12.138-13.879-23.573-29.869-41.729-37.692h-.898c-.274,.026-.531,.067-.449,.449,2.903,2.611,5.403,5.467,8.078,8.525Zm-363.905-8.076c-6.524,29.822-13.13,59.561-17.05,91.986,2.09-2.435,6.252-4.119,8.076-7.18,1.262-2.117,1.798-6.306,2.692-9.871,2.959-11.796,3.905-24.626,6.731-37.692,1.979-9.153,4.9-17.592,7.179-24.679-4.079-3.878,.527-8.354,1.795-12.116-2.397,.586-6.453-.199-9.423-.448Zm89.294,87.05c.98-3.176,.859-7.521,1.346-11.218,3.489-26.509,8.589-51.913,14.359-74.486-.026-.274-.067-.531-.448-.449-1.878,.965-5.643,.04-7.628,.897-5.939,22.465-12.251,50.229-15.706,74.935-.559,3.996-.254,8.295-1.346,11.666-.707,2.184-2.873,3.755-3.59,6.283,2.268,.425,4.126,1.259,7.179,.897,1.481-3.253,4.846-5.331,5.833-8.526Zm-75.384-76.281c-4.144,11.23-7.404,23.359-9.871,35.896-2.504,12.727-5.577,25.769-6.731,39.487-2.568,2.575-8.608,4.609-8.974,7.628,29.12-.864,57.78,2.297,83.909,.448,1.167-2.962,4.426-4.903,5.384-7.628,1.101-3.126,.738-7.34,1.347-11.218,2.873-18.301,6.748-36.277,10.32-52.948,1.51-7.049,4.26-13.78,4.039-20.641h-.898c-26.363,2.804-53.534,4.798-78.524,8.975Zm-116.216-4.936c3.369-.252-.088-.538-2.244-.449-1.975,.081-5.314,.106-4.936,1.347,2.19,1.277,4.929-.745,7.18-.897Zm348.199,58.781c-4.577-9.84-8.641-17.666-13.909-28.269-1.851-3.724-5.79-15.812-10.771-11.666-1.645,18.675-3.832,38.767-4.935,56.537,13.277-.309,21.793,.939,33.653-.448,1.083-5.624-1.738-11.211-4.039-16.154Zm-30.513-39.487c-.418,.479-1.654,.14-1.346,1.347-1.532,3.526-1.448,8.083-1.795,12.563-.345,4.461-.986,8.921-1.346,13.462-.597,7.528,.4,18.071-1.346,24.679-.42,1.587-2.206,2.439-1.795,4.039h4.935c.871-16.616,2.302-32.704,3.59-48.461,.21-2.579,1.22-6.184-.449-7.628h-.449Zm19.744,2.244c4.163,7.778,7.984,15.824,12.114,24.23,4.827,9.818,12.043,20.11,10.321,34.102-3.182,2.499-8.141,2.553-12.116,2.692-8.293,.291-16.398-.725-25.576-.448-1.309,.768,1.017,1.633,.449,3.141-2.029,1.71-3.5,3.979-4.488,6.73,17.325,.646,35.855,.737,54.743,.897-1.136-15.164-7.897-26.889-13.462-38.14-5.722-11.573-11.121-22.806-17.051-34.551h-5.384c.071,.529-.077,1.274,.449,1.347Zm56.985,48.461c2.204-.042,3.246-1.241,5.386-1.347-3.339-6.981-6.912-13.728-11.667-19.294,1.714,7.259,3.664,14.284,6.281,20.641Zm74.935,4.039c-4.628-1.682-9.397-2.464-13.909-2.693-12.224-.619-24.574-1.15-35.448,0,1.11,2.629,2.171,5.308,4.486,6.731,15.817-.677,34.225-.574,49.808,0,.108-1.986-3.038-3.349-4.937-4.038Zm-71.793,0c1.567,1.724,3.964,2.616,6.73,3.14-.403-1.84-1.373-3.114-2.244-4.487-2.016-.072-3.524,.364-4.486,1.347Zm122.947,6.73c-8.247-.019-16.814-.926-24.68,.449,1.378,.416,.78,2.81,1.795,3.59-.166,.673-2.889,2.246-.896,2.244,12.302-.244,30.272-1.631,41.729-1.347-3.756-6.122-10.381-4.918-17.948-4.936Zm-37.243,1.347c-1.34-.242-2.732,.354-4.039,.448-15.519,1.125-35.16,.933-51.154,2.244,.577,2.415,1.992,3.992,3.142,5.833,19.471-1.32,39.209-2.37,59.229-3.141-2.016-2.105-4.201-4.847-7.179-5.384Zm63.717,5.834c-1.023-.748-.573-.072-1.795,0-32.445,1.916-75.043,2.942-112.627,4.487-.069,5.956,6.306,4.208,10.321,4.039,8.278-.35,18.667-.459,26.025-.898,4.006,2.329,4.188,9.197,9.423,11.218,3.745,1.447,12.191-.474,18.397-.896,19.828-1.353,43.832-2.658,59.678-4.039-1.612-4.007-6.144-11.511-9.423-13.91Zm-459.032,1.795c-3.254,3.506-1.757,12.509-2.692,17.05,28.646,2.166,58.307,3.316,87.947,4.488,.685-1.625-.374-3.667,0-6.283-7.233,.57-6.84-7.573-5.833-13.91-22.985-.735-57.398-1.104-79.422-1.346Zm85.255,11.666c.928-2.811,.156-7.321,1.795-9.423,1.019-.327,3.5,.809,3.14-.897-6.389-5.462-9.354,7.839-4.935,10.32Zm9.423-.897c-.593,2.368-3.223,3.424-3.59,5.385-.312,1.666,.827,3.668,.897,5.832,1.779-.165,4.301,.412,5.385-.448,.142-5.11,.351-13.588,.897-19.743h-3.59c-.524,4.058,.743,6.001,0,8.974Zm6.73-7.628c-.466,6.825-.027,11.012-.448,19.295,61.704,2.263,124.229,6.608,184.421,7.628,.239-7.947,1.004-15.845,0-24.231-18.623-.42-37.703-.99-56.089-1.346-1.072,1.171-.141,4.347-2.244,4.487-6.29,1.821-8.265-3.975-11.218-4.936-1.316-.428-4.077,.013-5.833,0-33.217-.234-74.046-2.288-107.691-2.243-.563,.183-.917,.579-.897,1.346Zm276.406,5.385c-1.398-.427-3.411,.297-5.384,.448-7.708,.592-16.27,.406-23.781,1.347,1.229,3.558,3.091,6.481,4.935,9.423,9.253-.234,22.673-1.582,31.859-1.795-2.744-2.175-4.398-8.439-7.628-9.423Zm-380.955,14.358v1.347c1.841,1.728-2.523,4.914-.448,5.384,27.974,2.511,59.3,5.616,88.845,6.282,1.708-2.33,2.045-6.031,2.692-9.423-27.912-1.875-59.674-3.727-91.089-3.589Zm493.582,1.347c.518,10.985,1.413,23.341,2.244,33.653,.294,3.659-.199,8.237,2.244,9.871-.102-13.964-.896-31.107-2.693-44.871h-1.346c-.071,.529,.077,1.274-.449,1.347Zm-10.769,40.384c5.16-2.483,7.537-20.414,6.281-28.718-.882-5.835-4.614-12.62-11.218-11.218-1.968,1.733-4.882,4.184-5.832,6.283-.854,1.885-.529,4.636-2.244,6.282-.341-6.974-3.734-10.821-9.423-9.871-3.219,.536-8.098,5.641-8.974,11.666-1.378,9.475,.767,23.698,4.935,26.474,5.905,3.932,11.198-1.153,13.013-5.834,.763-1.969-.334-4.646,1.795-5.833,.398,6.562,4.532,14.202,11.667,10.77Zm-389.482-28.269c1.211,.883,3.921,.266,5.833,.448,.495-3.394,1.387-6.391,1.795-9.871-1.519-.126-2.576-.714-4.487-.449-1.166,3.172-1.998,6.678-3.141,9.872Zm13.462-8.526c-.07,.528,.077,1.274-.449,1.347,.48,1.64,3.27,.854,5.385,.897,3.76,.078,7.925,.329,10.769,.448,5.078,.215,9.407-.99,10.32,2.244,1.149,4.072-2.207,3.73-4.039,5.834,55.2,2.115,111.384,5.467,161.986,6.73-.31-3.152,.758-4.924,.447-8.077-1.543-.103-1.955-1.335-2.244-2.692-61.002-2.02-120.483-4.798-180.83-7.628-.529,.217-1.017,.478-1.346,.897Zm236.023,10.77c-.668,1.575-.511,3.976-.898,5.832,29.067-1.242,54.312-3.696,81.218-6.731v-4.487c-27.796,1.6-54.732,4.864-80.319,5.385Zm-345.508-4.936c-1.508,22.916-.854,49.088,3.141,67.755,19.29,3.659,39.91,7.195,58.781,10.321,2.951,.487,5.645,.047,8.526,.447,4.98,.692,9.742,3.747,14.807,2.693-.236-6.487-.133-7.119-.449-13.013,1.266-1.601,3.244,.277,4.936-.898-1.421-6.902,.126-14.305,0-21.986-.217-13.236-1.043-29.576,0-39.935-30.154-1.556-59.378-4.04-89.742-5.384Zm108.139,2.243c-.547,.051-1.062,.134-.897,.897,4.567,.977,11.111,1.462,15.256,.449-5.317,.081-9.394-1.076-14.359-1.347Zm-194.74,26.025c13.867-.291,28.786,7.867,31.859,17.949,1.939-1.616,1.969-3.835,4.487-3.59,3.776,.369,3.894,7.613,2.692,11.217-.345,1.901-3.078,1.41-3.141,3.591,2.051,1.687,6.146,1.333,8.975,2.242-.618-6.098-1.948-12.571-2.244-19.293-.329-7.467-.363-15.707,1.795-21.538,12.136,1.175,24.259,2.365,37.243,2.692,.527-1.867,.561-4.225,.897-6.283-17.507-1.587-34.465-2.733-51.153-4.038-26.387-2.064-50.545-4.462-73.588-6.731,.123,15.881,3.777,28.231,7.179,40.833,5.784-.159,11.026,2.704,18.397,3.142-.519-11.588,5.772-19.965,16.603-20.193Zm180.382-22.436c-2.551,20.108-.247,44.475,0,62.371,1.457,.785,3.926,.561,5.384,1.346,2.015,3.392,1.24,11.181,.897,14.358,4.986-.049,8.118,1.755,13.462,1.347,1.03-2.26,2.475-4.106,2.692-7.179,1.383-.754,2.044-2.423,2.692-3.59,2.364-4.256,5.647-7.464,5.833-13.462-1.997-2.058-5.164-3.582-8.077-5.384-3.039-1.883-6.105-4.132-8.526-5.386-2.945-1.524-5.396-1.398-6.731-4.038-.974-1.925-.934-5.543-.896-8.077,.13-8.865,.998-20.869,.896-31.859-1.907-.785-5.05-.334-7.627-.449Zm12.115,1.796c-1.18,12.158,.132,24.653-.897,36.345,3.413,2.913,7.609,5.465,12.115,8.078,3.835,2.222,9.06,5.381,13.91,6.281,3.448,.641,7.663,.263,11.666,.449,11.944,.553,24.641,.551,35.897,2.244,9.602,1.442,18.897,5.846,26.025,8.974,9.748,7.303,15.271,18.831,21.09,30.064,18.93,1.561,38.101,2.881,58.78,2.691,1.424-10.436-.926-20.08,1.347-29.615,.79-3.316,3.825-6.277,4.486-9.423,.747-3.551,.285-7.915,.449-11.665,.506-11.526,1.189-22.22,1.795-35.001-58.819-3.373-119.099-6.508-185.766-10.769-.564,.184-.917,.579-.897,1.347Zm246.342,10.32c-2.481,.322-6.065-.535-7.179,2.243,8.912,.372,18.824-2.105,28.718-2.243,.119,8.892-.064,17.984-.449,25.128-9.39,.379-18.249,3.015-27.82,1.795,1.375,3.824,6.259,2.656,9.87,2.243,3.885-.442,8.311-1,12.116-1.346,8.174-.742,17.117-1.2,21.537-4.936,.354-7.489,1.775-19.646-1.346-25.128-11.444-.724-24.773,.856-35.448,2.244Zm13.013,11.666c-1.992-.701-1.112-4.272-3.14-4.936-.9,1.793-.358,5.027-1.346,6.731-.413-2.729-1.181-5.102-2.693-6.731-.856,2.608-.827,5.223-1.346,7.18-1.028-1.516-.918-4.168-1.795-5.834-3.139,.499-.699,5.002-2.693,5.834-1.055-1.338,.119-4.905-1.795-5.385-.906,1.488-.398,4.387-1.795,5.385-1.36,.014-.435-2.258-1.795-2.244-2.416,1.878-1.53,5.292-1.795,9.871,2.93,4.263,10.752,1.636,17.5,.898,3.568-.391,6.882,.16,8.525-1.795,.449-5.963,.635-13.201-4.488-14.808-1.284,1.108,.623,5.409-1.346,5.833Zm-404.738-5.384c-.563,.183-.916,.579-.897,1.346-.119,11.313-.578,26.512,3.59,35,11.848,2.213,23.549,4.57,35.897,6.283-.543-12.735-4.092-27.038-4.039-40.385-13.366-.808-22.89-1.679-34.551-2.243Zm-32.307,18.397c1.719,1.264,3.39,3.797,4.935,5.834,1.646,2.165,3.59,4.265,4.936,6.281,3.454,5.171,5.843,11.484,8.526,17.5,3.515,7.877,7.034,19.397,13.012,22.436-10.995-12.359-11.348-44.617-26.025-56.538-3.369-2.737-7.1-3.987-12.115-4.936-9.883-1.87-22.641,1.708-21.538,11.667,5.186-11.739,22.31-6.627,28.269-2.244Zm522.748,14.359c9.666-.685,18.64-4.356,26.923-4.935-.396,1.49,.321,3.451,.449,4.935,.15,1.758-.856,4.312,.896,4.935,4.519-1.764,2.602-9.962,6.283-12.564-.926,10.349,1.899,16.947,2.691,25.576,3.409-.63,1.136-6.942,1.795-10.319-2.507-4.051-.67-10.524-.896-16.153-13.56-1.75-28.515,2.416-38.141,8.525Zm-63.717-2.244c-10.749,1.607-21.718,3.329-32.306,4.039-2.784,.186-5.941-.904-7.181,.896-.182,1.083,.82,.977,.449,2.244,13.75,1.628,28.15-2.353,39.936-2.691,2.848-1.789,6.416-1.185,9.872-1.795,1.616-.287,3.265-1.077,4.935-1.347,4.86-.781,9.264-.845,13.013-1.795,.648-2.052,3.633-4.132,3.589-5.384-10.007,1.771-21.327,4.194-32.308,5.833Zm-489.992-1.346c-5.038-1.809-12.102-3.595-17.5-3.59,1.7,5.777,1.522,13.434,7.628,14.807,1.074-5.089-2.967-9.427-1.347-12.114,3.319,1.273,2.968,5.538,4.487,8.525,1.042,2.047,3.101,4.075,4.487,5.833,1.472,1.866,2.751,4.57,4.936,4.486-1.069-5.812-1.75-12.01-2.692-17.948Zm607.107,10.769c-1.917-.323,1.658-2.443-1.795-2.244v2.693c1.123-.573,1.404,.228,1.795-.449Zm-289.418,30.513c-1.223-2.445-3.292-4.981-4.937-7.628-5.09-8.189-11.744-14.882-21.537-17.501-18.263-4.88-40.754-5.486-59.23-4.935-7.915,12.852-15.997,30.372-17.051,49.806-.159,2.932-.539,5.996-.448,8.527,.064,1.815,.562,5.052,2.243,6.281,1.983-6.675,1.35-16.922,2.244-24.23,1.368-11.194,4.732-20.812,11.666-26.025,9.346-7.026,32.135-3.361,43.526-.896,10.445,2.259,20.223,4.276,27.371,10.769,7.208,6.546,11.506,17.727,15.706,26.922,1.983,4.345,4.072,9.6,6.73,14.809,3.964,7.765,6.504,16.062,17.5,15.704-12.991-13.319-15.835-35.7-23.781-51.601Zm-261.151-25.129c1.689,7.06,4.042,13.241,6.731,19.295,3.372,7.595,3.734,6.668,12.564,8.525,3.197,.674,6.376,1.691,8.526,2.244,30.102,7.741,60.249,13.42,90.19,18.846,12.692,2.301,25.057,5.392,37.243,5.833-1.724-10.539,1.192-20.789,2.244-31.859-5.114-.869-9.668-2.299-15.256-2.693-.221,9.248,1.442,17.373,3.59,23.334,.795,2.206,2.316,4.083,.898,6.283-23.165-2.852-45.608-7.747-67.756-12.116-16.775-3.31-33.53-6.246-49.807-9.872-5.383-1.198-10.552-3.648-16.154-3.14-.775-2.078-2.636-3.126-3.59-5.384-2.767-6.558-3.316-15.052-4.487-23.334-3.262,.243-2.897-.891-6.282-.896,.835,1.954,.831,2.779,1.346,4.935Zm522.75-1.346c-1.521,.292-7.166-.513-7.628,2.244,3.221,1.903,7.898,1.413,11.665,1.795-.033,1.912-.75,3.139-.447,5.384-4.161,2.122-10.677,1.886-14.36,4.486,2.458-.062,4.269,.518,6.283,.898,1.669-2.819,6.107-2.868,8.525-4.935,.422-2.969,.911-3.25,.898-6.283-.305-1.043-2.038-.654-2.244-1.795-1.061-1.183-.447-4.041-1.795-4.935-.747,.597-.15,2.542-.896,3.14Zm-508.839,21.09c11.326,3.632,23.799,6.113,36.346,8.525-1.625-8.222-5.122-16.286-3.59-25.129-12.284-2.222-24.586-4.429-37.243-6.281-.747,10.353,.924,16.352,4.488,22.885Zm123.396-9.423c-.345-3.096,.932-7.813-1.346-8.976h-.897c.611,3.129-1.671,9.151,2.244,8.976Zm-82.563,18.397c6.292,2.215,14.293,3.102,20.641,4.486,20.965,4.574,43.582,9.753,66.409,11.667-1.933-8.021-2.172-16.025-3.59-25.127-28.798-6.297-58.088-10.31-87.499-16.155-2.579,8.797,2.298,17.683,4.039,25.129Zm491.338-10.321c.354-3.171,.303-10.798,0-13.909-.628,5.304-1.247,9.471,0,13.909Zm4.039-5.384c.066-1.112,.084-2.176-.898-2.244,.199,.849-.61,2.706,.898,2.244Zm-70,1.795c-.951,5.008,1.01,7.876-.447,11.667,1.272,.372,2.633,.657,2.691,2.244,8.747-1.24,7.249-17.279-2.244-13.911Zm63.27,51.154c5.335-2.187,4.037-10.927,4.037-19.295,0-5.151,.215-9.998-.896-12.114-1.904,10.276,1.373,25.35-3.14,31.409Zm-255.318,4.935c15.145,1.718,28.395,2.251,43.975,1.347-.708-9.883-.09-21.671-.898-31.411-18.895-1.669-37.995-2.016-57.434-4.039,3.129,13.025,7.575,24.732,14.358,34.103Zm231.984-24.679c1.397,.005,2.925,1.063,4.039,0,.268-2.662-.927-3.858-3.59-3.59,.345,1.693-.548,2.145-.449,3.59Zm-13.013,23.783c-6.618,2.218-14.303,5.364-21.537,8.075-4.481,1.68-7.878,2.29-6.732,6.732,15.435-5.096,30.873-12.319,45.32-17.95,5.127-1.998,11.068-2.48,14.807-6.73-.051-.548-.133-1.063-.898-.898-8.884,3.644-18.187,6.489-30.96,10.771Zm-27.82,1.346c.274,1.074-.564,3.255,.449,3.59,3.732-1.952,8.463-2.903,12.114-4.935-3.299-.811-9.03-.117-12.563,1.346Zm-11.218,15.256c-6.164,5.176-16.001,1.145-23.781,.449-.372,3.511,3.202,3.078,4.935,4.486,1.012,.635,.882,2.408,2.244,2.693,7.585,1.924,16.664,2.872,18.846-4.488,1.358-4.583-.184-9.697,.447-16.153-.573-.026-.621-.575-1.346-.449-.922,2.514,.228,10.186-1.346,13.462Zm-11.218-9.872c1.063,2.003-.367,3.675-.449,5.833-.924,1.19-2.275-.144-2.244,1.346,2.167,1.837,7.725,1.744,9.872,0,.915-2.375,1.024-5.558,.898-8.974-3.08,.212-5.541,1.041-8.077,1.795Zm-154.358,13.012c4.291-1.094,9.492-1.276,13.012-3.14-5.216-.466-9.304-2.061-14.807-2.244,.422,1.972,2.217,2.571,1.795,5.384Z" fill="#141515" fill-rule="evenodd"/>
          <path d="M591.187,435.244c-1.495,6.452,1.161,12.222-1.797,16.602-2.896,4.289-19.103,3.056-24.23,1.346-.427-5.965,.321-14.225,3.591-17.948,7.511-1.11,16.326-1.959,22.436,0Zm-20.641,1.795c-2.698,2.947-3.684,9.113-2.693,14.358,5.233,1.528,16.071,1.605,20.192-.896-.283-1.512,.579-4.168-.449-4.937,.133,1.778-.548,2.742-1.346,3.59-.277-1.218,.57-3.56-.449-4.039-.836,1.557-.661,4.126-2.242,4.937-.288-1.806,.582-4.771-.449-5.833-1.019,1.824,.12,5.804-2.693,5.833,.663-1.413,.409-3.385-.447-4.488-.681,1.563-.221,4.267-1.797,4.937-1.43-.685,.946-3.078-.896-2.693-.911,.442-.312,1.939-1.795,2.693-1.324-.92,.425-4.913-.898-5.833-.794,1.598,.396,5.181-1.795,5.384-.564-2.673,1.375-5.189,0-7.179-.336,2.355-.042,5.342-1.795,6.281-.283-1.51,.579-4.166-.447-4.935-.595,1.501-.551,3.637-1.347,4.935-1.225-3.842,.436-8.483,2.244-10.769,2.255-.21,3.217,.367,5.833-.896,.042,.705-.06,1.556,.896,1.346-.449-1.497,.624-1.472,1.797-1.346,.924,.121,.106,1.986,1.346,1.795,.716-.332-.102-2.196,1.346-1.795,1.419-.223,.166,2.226,1.795,1.795,.617-1.024-1.156-1.687,0-1.795,2.036-.84,.612,1.782,2.244,1.346-.555-1.451,1.451-.343,.896-1.795-6.02-1.125-11.121,.239-17.05,0Z" fill="#8fa1a0" fill-rule="evenodd"/>
          <path d="M436.829,495.819c-6.351,1.114-10.796-3.56-13.91-7.179-9.459-.184-15.798,2.75-20.192,7.628,1.276,3.372,7.984,7.223,3.14,11.218-2.382,.288-2.558-1.631-3.59-2.691-1.753,.489-1.312,3.175-2.692,4.037-1.366,.65-2.294,.079-2.244-1.795-6.555,10.969-5.001,28.57-1.346,41.282-6.844-6.796-9.246-19.863-8.077-32.306,1.616-17.192,11.906-33.389,28.718-31.411,9.038,1.065,13.557,6.159,20.192,11.218Z" fill-rule="evenodd"/>
        </g>
      </g>
    </g>
  </g>
  <g id="k" data-name="tekst-zwart_vlak">
    <rect y="612.283" width="850.394" height="173.767" fill="#141515"/>
  </g>
  <g id="l" data-name="tekst-outline">
    <g>
      <path d="M84.381,751.083v-111.578h35.049c13.104,0,22.811,2.891,29.123,8.672,6.406,5.926,9.611,13.586,9.611,22.98,0,13.972-6.938,21.535-20.812,22.691,7.9,1.156,13.694,3.758,17.38,7.805s5.528,9.877,5.528,17.488c0,9.588-3.107,17.296-9.322,23.125-6.168,5.878-14.285,8.816-24.354,8.816h-42.203Zm30.135-68.219h2.023c3.613,0,6.468-.843,8.563-2.529,2.096-1.686,3.144-4.047,3.144-7.082,0-6.455-3.541-9.684-10.623-9.684-.338,0-.759,.013-1.265,.036-.506,.024-1.12,.061-1.843,.108v19.15Zm0,44.01c.578,.049,1.084,.085,1.518,.108,.434,.024,.795,.036,1.084,.036,3.758,0,6.757-.987,8.997-2.963,2.24-1.975,3.36-4.625,3.36-7.949s-1.12-5.926-3.36-7.805-5.312-2.818-9.214-2.818h-2.385v21.391Z" fill="#fff"/>
      <path d="M214.832,639.505h30.135v78.914c0,6.601-1.037,11.948-3.107,16.043-2.023,4.288-5.396,8.166-10.117,11.635-6.359,4.625-14.092,6.938-23.197,6.938-10.311,0-18.959-2.553-25.943-7.66-8.865-6.504-13.297-16.91-13.297-31.219v-74.65h30.135v71.977c0,4.866,.59,8.311,1.771,10.334s3.167,3.035,5.962,3.035c2.891,0,4.889-.939,5.998-2.818,1.107-1.975,1.662-5.468,1.662-10.479v-72.049Z" fill="#fff"/>
      <path d="M255.409,748.337v-35.049c5.926,8.094,12.333,12.141,19.223,12.141,2.602,0,4.722-.687,6.359-2.06s2.457-3.095,2.457-5.167c0-2.986-1.782-5.901-5.348-8.744l-4.914-3.83c-3.276-2.457-6.07-4.901-8.383-7.335-2.312-2.433-4.191-4.938-5.637-7.516-1.445-2.577-2.505-5.239-3.18-7.985s-1.012-5.637-1.012-8.672c0-5.203,1.204-10.646,3.613-16.332,1.204-2.649,2.602-5.07,4.191-7.263,1.59-2.191,3.421-4.131,5.492-5.817,5.685-4.817,12.55-7.227,20.596-7.227,7.179,0,14.405,1.903,21.68,5.709v34.109c-2.457-3.806-5.251-6.805-8.383-8.997-3.132-2.191-6.215-3.288-9.25-3.288-2.312,0-4.216,.675-5.709,2.023-1.542,1.301-2.312,2.867-2.312,4.697,0,2.987,2.048,5.95,6.143,8.889l4.77,3.541c6.359,4.577,10.912,9.274,13.658,14.092,2.794,4.818,4.191,10.455,4.191,16.91,0,10.984-3.349,20.042-10.045,27.172-6.696,7.131-15.176,10.695-25.438,10.695-7.082,0-14.67-1.566-22.764-4.697Z" fill="#fff"/>
      <path d="M435.736,751.083h-31.508l-2.24-50.875-.939-20.307c-.338,3.902-.723,7.624-1.156,11.165s-.965,6.974-1.59,10.298l-9.467,49.719h-24.57l-8.094-49.791c-.482-2.891-1.133-7.853-1.951-14.887-.098-1.06-.314-3.228-.65-6.504l-.723,20.596-2.674,50.586h-32.086l13.008-111.578h37.506l6.287,37.578c.529,3.084,.999,6.432,1.408,10.045s.783,7.54,1.121,11.779c.625-7.082,1.492-13.417,2.602-19.006l7.66-40.396h37.217l10.84,111.578Z" fill="#fff"/>
      <path d="M527.496,751.083h-31.146l-2.24-14.164h-20.307l-2.457,14.164h-31.146l26.811-111.578h36.855l23.631,111.578Zm-36.928-38.084l-1.951-13.008c-.049-.048-.145-.698-.289-1.951-.098-1.06-.604-5.251-1.518-12.574-.098-.818-.217-1.938-.361-3.36-.145-1.421-.338-3.216-.578-5.384l-.939-10.551c-.098,1.012-.229,2.145-.398,3.396-.169,1.253-.35,2.626-.541,4.119-.338,2.987-.578,5.059-.723,6.215s-.242,1.855-.289,2.096l-2.096,13.514-3.035,17.488h12.719Z" fill="#fff"/>
      <path d="M532.998,751.083v-111.578h28.762l15.104,39.168c.819,2.312,1.746,4.963,2.783,7.949,1.035,2.987,2.179,6.432,3.432,10.334l3.107,9.828c-1.108-9.684-1.951-17.97-2.529-24.859-.578-6.889-.867-12.67-.867-17.344v-25.076h28.762v111.578h-28.762l-15.176-41.047c-1.59-4.384-3.023-8.491-4.299-12.321-1.277-3.83-2.397-7.479-3.361-10.948,.626,7.854,1.084,14.694,1.373,20.523,.289,5.83,.434,10.937,.434,15.32v28.473h-28.762Z" fill="#fff"/>
      <path d="M624.453,751.083v-111.578h56.006v26.232h-25.871v16.26h23.197v25.221h-23.197v17.055h25.871v26.811h-56.006Z" fill="#f17a00"/>
      <path d="M736.081,639.505h30.135v78.914c0,6.601-1.036,11.948-3.107,16.043-2.023,4.288-5.396,8.166-10.117,11.635-6.359,4.625-14.092,6.938-23.197,6.938-10.31,0-18.958-2.553-25.943-7.66-8.864-6.504-13.297-16.91-13.297-31.219v-74.65h30.135v71.977c0,4.866,.589,8.311,1.771,10.334,1.18,2.023,3.168,3.035,5.962,3.035,2.891,0,4.89-.939,5.998-2.818,1.108-1.975,1.662-5.468,1.662-10.479v-72.049Z" fill="#f17a00"/>
    </g>
  </g>
</svg>