<?xml version="1.0" encoding="UTF-8"?>
<svg xmlns="http://www.w3.org/2000/svg" width="300mm" height="300mm" viewBox="0 0 850.394 850.394">
  <g id="a" data-name="bg">
    <rect width="850.394" height="850.394" fill="#141515"/>
  </g>
  <g id="b" data-name="bg-2">
    <rect x="125.537" y="124.537" width="601.319" height="601.319" transform="translate(-175.829 425.904) rotate(-45)" fill="#fff"/>
  </g>
  <g id="d" data-name="logo-2">
    <g>
      <g>
        <g>
          <g>
            <path d="M768.496,430.984c-.433-8.661-5.024-19.993-15.351-37.893-4.417-7.656-8.452-16.751-12.012-24.776-4.452-10.036-7.968-17.963-11.026-20.638-13.091-11.455-50.14-13.86-78.914-13.86-32.124,0-220.781-1.207-222.688-1.218-.48,0-48.037-.119-75.719,2.098-27.897,2.235-37.179,6.741-37.561,6.932s-.656,.545-.747,.962c-.09,.417,.013,.853,.281,1.185l4.825,5.971-50.32,61.916h-.072c-3.32,0-14.822,.254-18.053,3.699-5.103,5.444-14.084,19.756-14.464,20.363-.296,.473-.284,1.075,.029,1.538,.313,.462,.869,.694,1.419,.596,.056-.011,5.563-.971,8.901,1.741,1.663,1.349,2.545,3.456,2.624,6.263,.223,7.976-.115,15.118-.178,16.342-.23,.637-1.406,3.391-4.518,3.54-3.143,.149-6.859-.336-6.897-.341-.448-.058-.903,.103-1.215,.436-.311,.332-.442,.795-.351,1.241,.136,.673,3.36,16.569,5.306,23.055,1.93,6.437,3.812,12.345,3.831,12.403,.186,.584,.729,.982,1.343,.982h18.328l-.24,11.558c-.015,.726,.523,1.344,1.244,1.429l55.24,6.499c.762,.102,1.46-.451,1.562-1.214,.037-.273,3.816-27.498,18.215-35.124,11.533-6.11,49.121-4.812,55.86,1.925,14.729,14.729,12.828,39.148,12.806,39.392-.033,.394,.1,.784,.366,1.074,.267,.291,.644,.457,1.038,.457h202.329c.631,0,1.185-.42,1.357-1.028,.1-.355,10.115-35.514,21.866-39.803,12.729-4.645,41.686-3.809,52.47,.282,12.361,4.69,15.592,32.516,15.623,32.795,.082,.74,.736,1.303,1.468,1.252l40.942-1.95c.751-.036,1.342-.655,1.342-1.407v-14.681h8.339c.61,0,1.15-.392,1.34-.972,.061-.185,6.087-18.649,8.47-27.523,2.851-10.617,2.39-28.956,1.563-45.495Zm-489.931,73.417l-.97-84.277c-.032-2.771,.911-5.484,2.654-7.639l45.044-55.66c1.015-1.323,2.617-2.113,4.285-2.113h84.695c2.978,0,5.4,2.422,5.4,5.4v108.241l-12.982,6.804h-48.503c-.578-.008-14.238-.264-22.365,4.651-12.478,7.545-17.402,23.876-18.585,28.543l-38.673-3.949Zm163.056-101.222l.355-35.363c.028-2.809,2.337-5.095,5.146-5.095h113.712c2.838,0,5.146,2.309,5.146,5.146v35.364c0,2.837-2.309,5.146-5.146,5.146h-114.067c-1.385,0-2.684-.542-3.658-1.526-.974-.984-1.502-2.287-1.488-3.672Zm254.195,3.198c-.975,1.272-2.453,2-4.055,2h-99.036c-2.818,0-5.111-2.293-5.111-5.111v-35.434c0-2.818,2.292-5.111,5.111-5.111h89.534c2.309,0,4.339,1.557,4.936,3.788l9.501,35.434c.415,1.547,.093,3.163-.882,4.434Z" fill="#fff"/>
            <path d="M769.473,161.463c-2.383-8.875-8.409-27.338-8.47-27.523-.189-.58-.73-.972-1.34-.972h-8.339v-14.682c0-.752-.591-1.372-1.342-1.407l-40.943-1.95c-.733-.029-1.385,.513-1.468,1.252-.031,.28-3.262,28.107-15.622,32.795-10.785,4.091-39.742,4.929-52.471,.283-11.751-4.289-21.766-39.448-21.866-39.803-.171-.607-.725-1.028-1.357-1.028h-202.329c-.395,0-.771,.166-1.038,.457-.267,.29-.4,.68-.366,1.074,.021,.245,1.922,24.662-12.806,39.392-6.738,6.738-44.326,8.034-55.86,1.925-14.398-7.627-18.179-34.852-18.215-35.125-.101-.762-.792-1.314-1.562-1.214l-55.24,6.499c-.721,.084-1.259,.703-1.244,1.429l.24,11.559h-18.327c-.613,0-1.157,.397-1.343,.982-.019,.059-1.9,5.967-3.831,12.403-1.946,6.485-5.17,22.381-5.306,23.055-.09,.447,.041,.909,.352,1.242,.311,.333,.763,.496,1.215,.435,.037-.006,3.756-.487,6.896-.342,3.114,.149,4.286,2.896,4.518,3.541,.063,1.222,.401,8.365,.178,16.342-.078,2.807-.961,4.913-2.624,6.263-3.338,2.71-8.845,1.75-8.898,1.741-.553-.107-1.108,.131-1.422,.593-.314,.462-.326,1.067-.029,1.541,.38,.606,9.361,14.92,14.464,20.362,3.23,3.446,14.734,3.7,18.053,3.7h.072l50.32,61.916-4.825,5.971c-.268,.331-.372,.767-.281,1.185,.09,.417,.365,.771,.747,.962s9.664,4.697,37.561,6.932c24.902,1.994,65.885,2.1,74.219,2.1,.931,0,1.456-.002,1.505-.002,1.902-.012,190.559-1.218,222.683-1.218,28.773,0,65.82-2.405,78.914-13.861,3.057-2.676,6.574-10.601,11.026-20.637,3.56-8.025,7.595-17.121,12.013-24.777,10.327-17.9,14.918-29.233,15.35-37.892,.827-16.539,1.288-34.878-1.563-45.495Zm-200.954,73.249v35.364c0,2.838-2.309,5.146-5.146,5.146h-113.712c-2.809,0-5.118-2.286-5.146-5.094l-.355-35.364c-.014-1.385,.515-2.689,1.489-3.673,.974-.985,2.273-1.526,3.657-1.526h114.067c2.837,0,5.146,2.309,5.146,5.146Zm-287.415-101.17l38.673-3.95c1.183,4.667,6.107,20.999,18.585,28.544,8.127,4.914,21.789,4.661,22.333,4.651h48.535l12.982,6.804v108.242c0,2.977-2.422,5.4-5.4,5.4h-84.695c-1.668,0-3.27-.79-4.307-2.142l-45.022-55.632c-1.743-2.154-2.686-4.867-2.654-7.638l.97-84.277Zm309.05,101.134c0-2.818,2.292-5.111,5.111-5.111h99.035c1.602,0,3.08,.729,4.055,2,.975,1.271,1.296,2.887,.881,4.434l-9.501,35.434c-.598,2.231-2.628,3.788-4.936,3.788h-89.534c-2.818,0-5.111-2.293-5.111-5.111v-35.435Z" fill="#fff"/>
          </g>
          <path d="M208.365,285.819H124.292c-2.102,0-4.084,.978-5.363,2.645l-44.691,55.224c-1.94,2.397-2.982,5.396-2.946,8.479l.978,84.907,40.853,4.172s4.223-20.267,18.092-28.653c7.812-4.723,21.445-4.415,21.445-4.415h48.523l13.942-7.307v-108.293c0-3.733-3.026-6.759-6.759-6.759Zm-5.351,56.403H98.062c-3.74,0-5.878-4.268-3.638-7.263l28.773-38.479c.858-1.147,2.206-1.822,3.638-1.822h76.179c2.509,0,4.543,2.034,4.543,4.543v38.479c0,2.509-2.034,4.543-4.543,4.543Z" fill="#fff"/>
          <path d="M215.125,259.916v-108.293l-13.942-7.307h-48.523s-13.634,.309-21.445-4.415c-13.87-8.386-18.092-28.653-18.092-28.653l-40.853,4.172-.978,84.907c-.036,3.083,1.007,6.082,2.946,8.479l44.691,55.224c1.279,1.668,3.262,2.645,5.363,2.645h84.074c3.733,0,6.759-3.026,6.759-6.759Zm-7.568-45.101v38.479c0,2.509-2.034,4.543-4.543,4.543H126.835c-1.432,0-2.78-.675-3.638-1.822l-28.773-38.479c-2.24-2.996-.102-7.263,3.638-7.263h104.952c2.509,0,4.543,2.034,4.543,4.543Z" fill="#fff"/>
          <path d="M751.828,567.089H89.679c-26.609,0-48.257-21.648-48.257-48.258V119.112c0-26.609,21.648-48.258,48.257-48.258H751.828c26.609,0,48.258,21.648,48.258,48.258v399.72c0,26.609-21.648,48.258-48.258,48.258ZM89.679,85.887c-18.32,0-33.224,14.904-33.224,33.225v399.72c0,18.32,14.904,33.225,33.224,33.225H751.828c18.32,0,33.225-14.904,33.225-33.225V119.112c0-18.32-14.904-33.225-33.225-33.225H89.679Z" fill="#fff"/>
          <path d="M103.447,535.656c-.59,0-1.181-.014-1.775-.041-9.947-.462-19.12-4.772-25.826-12.133-6.707-7.36-10.146-16.894-9.683-26.841,.463-9.948,4.772-19.121,12.133-25.827,7.361-6.707,16.891-10.142,26.842-9.683h0c9.948,.462,19.12,4.772,25.827,12.133,6.707,7.36,10.146,16.894,9.683,26.841-.462,9.948-4.771,19.12-12.133,25.827-6.922,6.307-15.765,9.724-25.067,9.724Zm-.067-58.593c-5.317,0-10.37,1.953-14.327,5.558-4.208,3.833-6.67,9.076-6.935,14.761-.264,5.686,1.701,11.135,5.535,15.343,3.833,4.207,9.076,6.67,14.762,6.934,5.679,.273,11.134-1.701,15.342-5.534,4.207-3.833,6.67-9.076,6.935-14.761,.264-5.687-1.701-11.135-5.535-15.343-3.833-4.207-9.076-6.67-14.762-6.934h0c-.339-.017-.678-.024-1.015-.024Z" fill="#fff"/>
          <path d="M186.857,535.656c-.59,0-1.181-.014-1.775-.041-9.947-.462-19.12-4.772-25.826-12.133-6.707-7.36-10.146-16.894-9.683-26.841,.463-9.948,4.772-19.121,12.133-25.827,7.361-6.707,16.89-10.142,26.842-9.683h0c9.948,.462,19.12,4.772,25.827,12.133,6.707,7.36,10.145,16.893,9.683,26.841-.463,9.948-4.772,19.12-12.133,25.827-6.922,6.307-15.765,9.724-25.067,9.724Zm-.067-58.593c-5.317,0-10.37,1.953-14.327,5.558-4.208,3.833-6.67,9.076-6.935,14.761-.264,5.686,1.701,11.135,5.535,15.343,3.833,4.207,9.076,6.67,14.762,6.934,5.683,.273,11.134-1.701,15.342-5.534,4.208-3.833,6.67-9.076,6.935-14.762,.264-5.685-1.701-11.134-5.535-15.342-3.834-4.207-9.076-6.67-14.762-6.934h0c-.339-.017-.678-.024-1.015-.024Z" fill="#fff"/>
        </g>
        <g>
          <g>
            <path d="M768.496,446.017c-.433-8.661-5.024-19.993-15.351-37.893-4.417-7.656-8.452-16.751-12.012-24.776-4.452-10.036-7.968-17.963-11.026-20.638-13.091-11.455-50.14-13.86-78.914-13.86-32.124,0-220.781-1.207-222.688-1.218-.48,0-48.037-.119-75.719,2.098-27.897,2.235-37.179,6.741-37.561,6.932s-.656,.545-.747,.962c-.09,.417,.013,.853,.281,1.185l4.825,5.971-50.32,61.916h-.072c-3.32,0-14.822,.254-18.053,3.699-5.103,5.444-14.084,19.756-14.464,20.363-.296,.473-.284,1.075,.029,1.538,.313,.462,.869,.694,1.419,.596,.056-.011,5.563-.971,8.901,1.741,1.663,1.349,2.545,3.456,2.624,6.263,.223,7.976-.115,15.118-.178,16.342-.23,.637-1.406,3.391-4.518,3.54-3.143,.149-6.859-.336-6.897-.341-.448-.058-.903,.103-1.215,.436-.311,.332-.442,.795-.351,1.241,.136,.673,3.36,16.569,5.306,23.055,1.93,6.437,3.812,12.345,3.831,12.403,.186,.584,.729,.982,1.343,.982h18.328l-.24,11.558c-.015,.726,.523,1.344,1.244,1.429l55.24,6.499c.762,.102,1.46-.451,1.562-1.214,.037-.273,3.816-27.498,18.215-35.124,11.533-6.11,49.121-4.812,55.86,1.925,14.729,14.729,12.828,39.148,12.806,39.392-.033,.394,.1,.784,.366,1.074,.267,.291,.644,.457,1.038,.457h202.329c.631,0,1.185-.42,1.357-1.028,.1-.355,10.115-35.514,21.866-39.803,12.729-4.645,41.686-3.809,52.47,.282,12.361,4.69,15.592,32.516,15.623,32.795,.082,.74,.736,1.303,1.468,1.252l40.942-1.95c.751-.036,1.342-.655,1.342-1.407v-14.681h8.339c.61,0,1.15-.392,1.34-.972,.061-.185,6.087-18.649,8.47-27.523,2.851-10.617,2.39-28.956,1.563-45.495Zm-489.931,73.417l-.97-84.277c-.032-2.771,.911-5.484,2.654-7.639l45.044-55.66c1.015-1.323,2.617-2.113,4.285-2.113h84.695c2.978,0,5.4,2.422,5.4,5.4v108.241l-12.982,6.804h-48.503c-.578-.008-14.238-.264-22.365,4.651-12.478,7.545-17.402,23.876-18.585,28.543l-38.673-3.949Zm163.056-101.222l.355-35.363c.028-2.809,2.337-5.095,5.146-5.095h113.712c2.838,0,5.146,2.309,5.146,5.146v35.364c0,2.837-2.309,5.146-5.146,5.146h-114.067c-1.385,0-2.684-.542-3.658-1.526-.974-.984-1.502-2.287-1.488-3.672Zm254.195,3.198c-.975,1.272-2.453,2-4.055,2h-99.036c-2.818,0-5.111-2.293-5.111-5.111v-35.434c0-2.818,2.292-5.111,5.111-5.111h89.534c2.309,0,4.339,1.557,4.936,3.788l9.501,35.434c.415,1.547,.093,3.163-.882,4.434Z" fill="#141515"/>
            <path d="M769.473,176.496c-2.383-8.875-8.409-27.338-8.47-27.523-.189-.58-.73-.972-1.34-.972h-8.339v-14.682c0-.752-.591-1.372-1.342-1.407l-40.943-1.95c-.733-.029-1.385,.513-1.468,1.252-.031,.28-3.262,28.107-15.622,32.795-10.785,4.091-39.742,4.929-52.471,.283-11.751-4.289-21.766-39.448-21.866-39.803-.171-.607-.725-1.028-1.357-1.028h-202.329c-.395,0-.771,.166-1.038,.457-.267,.29-.4,.68-.366,1.074,.021,.245,1.922,24.662-12.806,39.392-6.738,6.738-44.326,8.034-55.86,1.925-14.398-7.627-18.179-34.852-18.215-35.125-.101-.762-.792-1.314-1.562-1.214l-55.24,6.499c-.721,.084-1.259,.703-1.244,1.429l.24,11.559h-18.327c-.613,0-1.157,.397-1.343,.982-.019,.059-1.9,5.967-3.831,12.403-1.946,6.485-5.17,22.381-5.306,23.055-.09,.447,.041,.909,.352,1.242,.311,.333,.763,.496,1.215,.435,.037-.006,3.756-.487,6.896-.342,3.114,.149,4.286,2.896,4.518,3.541,.063,1.222,.401,8.365,.178,16.342-.078,2.807-.961,4.913-2.624,6.263-3.338,2.71-8.845,1.75-8.898,1.741-.553-.107-1.108,.131-1.422,.593-.314,.462-.326,1.067-.029,1.541,.38,.606,9.361,14.92,14.464,20.362,3.23,3.446,14.734,3.7,18.053,3.7h.072l50.32,61.916-4.825,5.971c-.268,.331-.372,.767-.281,1.185,.09,.417,.365,.771,.747,.962s9.664,4.697,37.561,6.932c24.902,1.994,65.885,2.1,74.219,2.1,.931,0,1.456-.002,1.505-.002,1.902-.012,190.559-1.218,222.683-1.218,28.773,0,65.82-2.405,78.914-13.861,3.057-2.676,6.574-10.601,11.026-20.637,3.56-8.025,7.595-17.121,12.013-24.777,10.327-17.9,14.918-29.233,15.35-37.892,.827-16.539,1.288-34.878-1.563-45.495Zm-200.954,73.249v35.364c0,2.838-2.309,5.146-5.146,5.146h-113.712c-2.809,0-5.118-2.286-5.146-5.094l-.355-35.364c-.014-1.385,.515-2.689,1.489-3.673,.974-.985,2.273-1.526,3.657-1.526h114.067c2.837,0,5.146,2.309,5.146,5.146Zm-287.415-101.17l38.673-3.95c1.183,4.667,6.107,20.999,18.585,28.544,8.127,4.914,21.789,4.661,22.333,4.651h48.535l12.982,6.804v108.242c0,2.977-2.422,5.4-5.4,5.4h-84.695c-1.668,0-3.27-.79-4.307-2.142l-45.022-55.632c-1.743-2.154-2.686-4.867-2.654-7.638l.97-84.277Zm309.05,101.134c0-2.818,2.292-5.111,5.111-5.111h99.035c1.602,0,3.08,.729,4.055,2,.975,1.271,1.296,2.887,.881,4.434l-9.501,35.434c-.598,2.231-2.628,3.788-4.936,3.788h-89.534c-2.818,0-5.111-2.293-5.111-5.111v-35.435Z" fill="#141515"/>
          </g>
          <path d="M208.365,300.852H124.292c-2.102,0-4.084,.978-5.363,2.645l-44.691,55.224c-1.94,2.397-2.982,5.396-2.946,8.479l.978,84.907,40.853,4.172s4.223-20.267,18.092-28.653c7.812-4.723,21.445-4.415,21.445-4.415h48.523l13.942-7.307v-108.293c0-3.733-3.026-6.759-6.759-6.759Zm-5.351,56.403H98.062c-3.74,0-5.878-4.268-3.638-7.263l28.773-38.479c.858-1.147,2.206-1.822,3.638-1.822h76.179c2.509,0,4.543,2.034,4.543,4.543v38.479c0,2.509-2.034,4.543-4.543,4.543Z" fill="#141515"/>
          <path d="M215.125,274.948v-108.293l-13.942-7.307h-48.523s-13.634,.309-21.445-4.415c-13.87-8.386-18.092-28.653-18.092-28.653l-40.853,4.172-.978,84.907c-.036,3.083,1.007,6.082,2.946,8.479l44.691,55.224c1.279,1.668,3.262,2.645,5.363,2.645h84.074c3.733,0,6.759-3.026,6.759-6.759Zm-7.568-45.101v38.479c0,2.509-2.034,4.543-4.543,4.543H126.835c-1.432,0-2.78-.675-3.638-1.822l-28.773-38.479c-2.24-2.996-.102-7.263,3.638-7.263h104.952c2.509,0,4.543,2.034,4.543,4.543Z" fill="#141515"/>
          <path d="M751.828,582.122H89.679c-26.609,0-48.257-21.648-48.257-48.258V134.144c0-26.609,21.648-48.258,48.257-48.258H751.828c26.609,0,48.258,21.648,48.258,48.258v399.72c0,26.609-21.648,48.258-48.258,48.258ZM89.679,100.92c-18.32,0-33.224,14.904-33.224,33.225v399.72c0,18.32,14.904,33.225,33.224,33.225H751.828c18.32,0,33.225-14.904,33.225-33.225V134.144c0-18.32-14.904-33.225-33.225-33.225H89.679Z" fill="#141515"/>
          <path d="M103.447,550.689c-.59,0-1.181-.014-1.775-.041-9.947-.462-19.12-4.772-25.826-12.133-6.707-7.36-10.146-16.894-9.683-26.841,.463-9.948,4.772-19.121,12.133-25.827,7.361-6.707,16.891-10.142,26.842-9.683h0c9.948,.462,19.12,4.772,25.827,12.133,6.707,7.36,10.146,16.894,9.683,26.841-.462,9.948-4.771,19.12-12.133,25.827-6.922,6.307-15.765,9.724-25.067,9.724Zm-.067-58.593c-5.317,0-10.37,1.953-14.327,5.558-4.208,3.833-6.67,9.076-6.935,14.761-.264,5.686,1.701,11.135,5.535,15.343,3.833,4.207,9.076,6.67,14.762,6.934,5.679,.273,11.134-1.701,15.342-5.534,4.207-3.833,6.67-9.076,6.935-14.761,.264-5.687-1.701-11.135-5.535-15.343-3.833-4.207-9.076-6.67-14.762-6.934h0c-.339-.017-.678-.024-1.015-.024Z" fill="#141515"/>
          <path d="M186.857,550.689c-.59,0-1.181-.014-1.775-.041-9.947-.462-19.12-4.772-25.826-12.133-6.707-7.36-10.146-16.894-9.683-26.841,.463-9.948,4.772-19.121,12.133-25.827,7.361-6.707,16.89-10.142,26.842-9.683h0c9.948,.462,19.12,4.772,25.827,12.133,6.707,7.36,10.145,16.893,9.683,26.841-.463,9.948-4.772,19.12-12.133,25.827-6.922,6.307-15.765,9.724-25.067,9.724Zm-.067-58.593c-5.317,0-10.37,1.953-14.327,5.558-4.208,3.833-6.67,9.076-6.935,14.761-.264,5.686,1.701,11.135,5.535,15.343,3.833,4.207,9.076,6.67,14.762,6.934,5.683,.273,11.134-1.701,15.342-5.534,4.208-3.833,6.67-9.076,6.935-14.762,.264-5.685-1.701-11.134-5.535-15.342-3.834-4.207-9.076-6.67-14.762-6.934h0c-.339-.017-.678-.024-1.015-.024Z" fill="#141515"/>
        </g>
        <g>
          <path d="M753.984,399.184c-4.387-7.603-8.407-16.663-11.966-24.684-4.499-10.144-8.053-18.157-11.273-20.975-13.318-11.653-50.611-14.1-79.551-14.1-32.18,0-220.791-1.206-222.702-1.219-1.971-.003-48.553-.079-75.783,2.101-28.096,2.251-37.529,6.838-37.917,7.031-.647,.323-1.107,.914-1.261,1.623-.153,.708,.02,1.436,.475,1.997l4.332,5.361-49.536,60.95c-4.718,.023-15.074,.49-18.37,4.004-5.036,5.371-13.616,18.977-14.578,20.511-.499,.796-.48,1.814,.048,2.595,.526,.775,1.464,1.168,2.396,1.005,.051-.009,5.133-.881,8.116,1.54,1.433,1.164,2.196,3.027,2.266,5.54,.213,7.637-.088,14.466-.17,16.114-.304,.765-1.29,2.662-3.605,2.773-3.025,.142-6.682-.328-6.728-.335-.758-.091-1.524,.177-2.046,.735-.523,.561-.744,1.343-.592,2.095,.136,.674,3.362,16.589,5.327,23.141,1.768,5.895,3.496,11.352,3.835,12.419,.316,.991,1.226,1.656,2.265,1.656h17.34l-.22,10.57c-.026,1.23,.877,2.266,2.099,2.411l55.224,6.496c.624,.085,1.25-.087,1.753-.479,.495-.387,.813-.942,.897-1.566,.036-.269,3.763-27.01,17.709-34.396,11.001-5.829,48.335-4.631,54.723,1.754,14.387,14.387,12.546,38.383,12.526,38.625-.056,.663,.169,1.323,.618,1.809,.45,.491,1.088,.771,1.751,.771h202.329c1.06,0,2.001-.713,2.289-1.734,2.73-9.728,11.871-35.727,21.266-39.156,12.565-4.586,41.151-3.759,51.795,.277,11.803,4.479,14.974,31.723,15.004,31.998,.139,1.252,1.278,2.202,2.476,2.113l40.943-1.949c1.27-.061,2.264-1.104,2.264-2.375v-13.714h7.371c1.031,0,1.939-.659,2.26-1.639,.249-.761,6.114-18.743,8.485-27.572,2.886-10.747,2.425-29.18,1.594-45.795-.441-8.824-5.071-20.287-15.479-38.328Zm-58.937,13.18c-.79,1.03-1.988,1.621-3.286,1.621h-99.036c-2.284,0-4.142-1.859-4.142-4.142v-35.435c0-2.284,1.859-4.142,4.142-4.142h89.535c1.872,0,3.517,1.262,4.001,3.069l9.501,35.435c.336,1.254,.076,2.564-.715,3.594Zm-130.036-37.92v35.364c0,2.304-1.875,4.177-4.178,4.177h-114.066c-1.124,0-2.179-.441-2.97-1.238-.79-.799-1.219-1.859-1.208-2.983l.355-35.362c.023-2.281,1.897-4.137,4.178-4.137h113.711c2.304,0,4.178,1.875,4.178,4.178Zm-146.307-7.756v107.656l-12.252,6.422h-48.269c-1.484-.023-14.802-.084-22.863,4.791-12.119,7.327-17.266,22.63-18.809,28.323l-36.989-3.777-.96-83.413c-.03-2.546,.837-5.039,2.439-7.019l45.06-55.68c.833-1.086,2.148-1.735,3.517-1.735h84.695c2.444,0,4.432,1.988,4.432,4.432Z" fill="#f17a00"/>
          <path d="M761.924,140.216c-.321-.98-1.229-1.639-2.26-1.639h-7.371v-13.714c0-1.271-.994-2.314-2.265-2.375l-40.95-1.95c-1.232-.089-2.33,.878-2.468,2.113-.031,.274-3.201,27.52-15.004,31.998-10.647,4.038-39.232,4.863-51.796,.278-9.371-3.419-18.528-29.423-21.266-39.155-.287-1.021-1.228-1.734-2.288-1.734h-202.33c-.664,0-1.302,.281-1.75,.769-.45,.488-.675,1.149-.618,1.812,.02,.24,1.857,24.239-12.527,38.623-6.385,6.386-43.721,7.583-54.723,1.754-13.946-7.387-17.673-34.128-17.709-34.397-.173-1.296-1.357-2.219-2.634-2.048l-55.239,6.499c-1.223,.143-2.126,1.179-2.1,2.41l.22,10.572h-17.339c-1.039,0-1.95,.666-2.276,1.689-.329,1.033-2.057,6.49-3.825,12.386-1.978,6.591-5.294,22.976-5.327,23.141-.152,.752,.069,1.535,.593,2.095,.526,.562,1.292,.84,2.056,.733,.035-.004,3.686-.472,6.717-.334,2.319,.111,3.303,2.01,3.605,2.775,.082,1.644,.383,8.469,.17,16.114-.07,2.512-.833,4.375-2.266,5.539-2.964,2.407-8.068,1.547-8.105,1.542-.928-.183-1.872,.213-2.406,.999-.529,.78-.548,1.8-.049,2.598,.382,.611,9.415,15.004,14.578,20.51,3.28,3.501,13.557,3.979,18.369,4.006l49.536,60.951-4.332,5.361c-.455,.562-.627,1.29-.474,1.998,.154,.707,.614,1.299,1.262,1.623,.39,.194,9.873,4.782,37.915,7.029,24.996,2.002,66.276,2.103,74.297,2.103l3.495-.014c44.656-.284,192.543-1.206,220.693-1.206,28.939,0,66.231-2.447,79.551-14.101,3.219-2.818,6.773-10.83,11.274-20.975,3.55-8.002,7.574-17.074,11.966-24.684,10.409-18.043,15.038-29.505,15.479-38.328,.831-16.613,1.291-35.046-1.594-45.795-2.371-8.833-8.236-26.811-8.484-27.572Zm-73.123,137.545c-.484,1.807-2.13,3.07-4.001,3.07h-89.534c-2.284,0-4.142-1.859-4.142-4.143v-35.435c0-2.284,1.859-4.142,4.142-4.142h99.035c1.299,0,2.497,.591,3.287,1.621,.79,1.03,1.051,2.341,.714,3.594l-9.501,35.435Zm-121.25-36.472v35.363c0,2.305-1.874,4.179-4.178,4.179h-113.711c-2.281,0-4.155-1.856-4.178-4.136l-.355-35.364c-.011-1.125,.417-2.184,1.209-2.983,.79-.799,1.844-1.238,2.969-1.238h114.067c2.304,0,4.178,1.875,4.178,4.178Zm-150.738,47.551h-84.695c-1.369,0-2.692-.659-3.555-1.783l-45.022-55.633c-1.602-1.98-2.468-4.472-2.438-7.018l.96-83.412,36.989-3.778c1.544,5.693,6.69,20.996,18.81,28.325,8.109,4.902,21.364,4.814,22.834,4.791h48.297l12.252,6.421v107.656c0,2.444-1.988,4.432-4.432,4.432Z" fill="#f17a00"/>
          <path d="M72.17,444.615l40.853,4.172c.033,.003,.066,.005,.099,.005,.453,0,.852-.318,.947-.77,.041-.199,4.291-19.947,17.646-28.022,7.475-4.521,20.784-4.279,20.944-4.275h48.523c.156,0,.311-.038,.45-.111l13.942-7.307c.319-.167,.519-.497,.519-.857v-108.293c0-4.261-3.467-7.727-7.727-7.727H124.292c-2.387,0-4.679,1.131-6.116,3.005l-44.691,55.223c-2.077,2.568-3.2,5.799-3.162,9.099l.977,84.908c.006,.493,.38,.902,.87,.952Zm23.029-102.499l28.773-38.48c.672-.898,1.742-1.434,2.863-1.434h76.179c1.971,0,3.575,1.604,3.575,3.575v38.479c0,1.971-1.604,3.575-3.575,3.575H98.062c-1.382,0-2.577-.738-3.196-1.974-.619-1.236-.494-2.635,.333-3.742Z" fill="#f17a00"/>
          <path d="M118.16,271.196c1.453,1.893,3.745,3.024,6.131,3.024h84.074c4.261,0,7.727-3.467,7.727-7.727v-108.293c0-.36-.2-.69-.519-.857l-13.942-7.307c-.139-.073-.293-.111-.45-.111h-48.545c-.136,.011-13.439,.251-20.923-4.275-13.34-8.066-17.604-27.824-17.646-28.022-.102-.486-.563-.811-1.046-.766l-40.853,4.172c-.49,.05-.864,.459-.87,.952l-.977,84.908c-.038,3.301,1.084,6.533,3.162,9.099l44.675,55.204Zm-23.294-51.405c.619-1.236,1.814-1.974,3.196-1.974h104.952c1.971,0,3.575,1.604,3.575,3.575v38.479c0,1.971-1.604,3.575-3.575,3.575H126.835c-1.121,0-2.191-.536-2.863-1.434l-28.773-38.479c-.828-1.107-.952-2.506-.333-3.743Z" fill="#f17a00"/>
          <path d="M751.828,76.462H89.678c-27.143,0-49.225,22.083-49.225,49.226v399.72c0,27.143,22.082,49.225,49.225,49.225H751.828c27.143,0,49.226-22.082,49.226-49.225V125.689c0-27.143-22.082-49.226-49.226-49.226Zm32.257,49.226v399.72c0,17.786-14.471,32.257-32.257,32.257H89.678c-17.786,0-32.256-14.47-32.256-32.257V125.689c0-17.786,14.47-32.257,32.256-32.257H751.828c17.786,0,32.257,14.47,32.257,32.257Z" fill="#f17a00"/>
          <path d="M105.183,466.741c-10.211-.465-19.99,3.056-27.538,9.934-7.552,6.88-11.973,16.291-12.449,26.498-.475,10.206,3.053,19.985,9.934,27.537,6.88,7.552,16.29,11.974,26.497,12.449,.608,.028,1.215,.042,1.819,.042,9.525,0,18.658-3.543,25.719-9.976,7.553-6.881,11.973-16.292,12.448-26.497,.475-10.207-3.053-19.986-9.934-27.538-6.882-7.553-16.291-11.974-26.497-12.448Zm18.542,39.154c-.252,5.427-2.603,10.432-6.619,14.091-4.027,3.667-9.214,5.552-14.646,5.283-5.428-.252-10.432-2.603-14.091-6.619-3.659-4.016-5.535-9.217-5.283-14.645,.252-5.428,2.603-10.433,6.62-14.091,3.754-3.421,8.611-5.305,13.675-5.305,.322,0,.645,.008,.97,.023,5.428,.252,10.432,2.603,14.091,6.619,3.659,4.016,5.535,9.217,5.283,14.645Z" fill="#f17a00"/>
          <path d="M188.593,466.741c-10.204-.46-19.991,3.056-27.538,9.934-7.553,6.88-11.973,16.291-12.448,26.498-.475,10.206,3.053,19.985,9.934,27.537,6.88,7.552,16.29,11.974,26.497,12.449,.608,.028,1.215,.042,1.819,.042,9.525,0,18.658-3.543,25.719-9.976,7.552-6.881,11.973-16.291,12.449-26.497,.474-10.208-3.054-19.987-9.934-27.538-6.882-7.553-16.292-11.974-26.497-12.448Zm18.542,39.153c-.252,5.429-2.603,10.434-6.62,14.092-4.026,3.668-9.227,5.552-14.646,5.283-5.427-.252-10.432-2.603-14.091-6.619-3.659-4.016-5.535-9.217-5.283-14.645,.252-5.428,2.603-10.433,6.62-14.091,3.754-3.421,8.611-5.305,13.675-5.305,.322,0,.645,.008,.97,.023,5.428,.252,10.432,2.603,14.092,6.619,3.659,4.016,5.535,9.217,5.283,14.644Z" fill="#f17a00"/>
        </g>
      </g>
      <g>
        <rect x="418.705" y="431.055" width="351.388" height="4.381" fill="#141515"/>
        <rect x="418.705" y="437.632" width="351.388" height="4.381" fill="#fff"/>
      </g>
      <g>
        <rect x="421.722" y="211.219" width="351.388" height="4.381" fill="#141515"/>
        <rect x="421.722" y="217.796" width="351.388" height="4.381" fill="#fff"/>
      </g>
      <g>
        <rect x="70.322" y="362.994" width="145.771" height="4.726" fill="#141515"/>
        <rect x="70.322" y="370.089" width="145.771" height="4.726" fill="#fff"/>
      </g>
      <g>
        <rect x="70.322" y="194.57" width="145.771" height="4.726" fill="#141515"/>
        <rect x="70.322" y="201.665" width="145.771" height="4.726" fill="#fff"/>
      </g>
    </g>
  </g>
  <g id="k" data-name="tekst-zwart_vlak">
    <rect y="612.283" width="850.394" height="173.767" fill="#141515"/>
  </g>
  <g id="l" data-name="tekst-outline">
    <g>
      <path d="M31.591,747.561v-108.562h34.102c12.749,0,22.193,2.812,28.336,8.438,6.232,5.766,9.352,13.219,9.352,22.359,0,13.595-6.75,20.953-20.25,22.078,7.687,1.125,13.324,3.656,16.91,7.594s5.379,9.609,5.379,17.016c0,9.328-3.023,16.829-9.07,22.5-6.002,5.72-13.899,8.578-23.695,8.578H31.591Zm29.32-66.375h1.969c3.516,0,6.293-.819,8.332-2.461,2.039-1.641,3.059-3.938,3.059-6.891,0-6.281-3.445-9.422-10.336-9.422-.329,0-.738,.012-1.23,.035-.492,.024-1.09,.06-1.793,.105v18.633Zm0,42.82c.562,.047,1.055,.082,1.477,.105,.422,.024,.773,.035,1.055,.035,3.656,0,6.574-.96,8.754-2.883,2.18-1.922,3.27-4.5,3.27-7.734s-1.09-5.766-3.27-7.594-5.168-2.742-8.965-2.742h-2.32v20.812Z" fill="#fff"/>
      <path d="M159.956,638.999h29.32v76.781c0,6.423-1.01,11.626-3.023,15.609-1.969,4.173-5.251,7.945-9.844,11.32-6.188,4.5-13.711,6.75-22.57,6.75-10.032,0-18.447-2.484-25.242-7.453-8.626-6.328-12.938-16.453-12.938-30.375v-72.633h29.32v70.031c0,4.735,.572,8.086,1.723,10.055,1.147,1.969,3.081,2.953,5.801,2.953,2.812,0,4.756-.914,5.836-2.742,1.077-1.922,1.617-5.319,1.617-10.195v-70.102Z" fill="#fff"/>
      <path d="M200.876,744.889v-34.102c5.766,7.875,11.999,11.812,18.703,11.812,2.531,0,4.594-.668,6.188-2.004,1.593-1.336,2.391-3.012,2.391-5.027,0-2.906-1.734-5.741-5.203-8.508l-4.781-3.727c-3.188-2.391-5.906-4.77-8.156-7.137-2.25-2.366-4.078-4.805-5.484-7.312-1.406-2.507-2.438-5.098-3.094-7.77-.657-2.672-.984-5.484-.984-8.438,0-5.062,1.171-10.359,3.516-15.891,1.171-2.577,2.531-4.933,4.078-7.066,1.547-2.133,3.328-4.019,5.344-5.66,5.53-4.687,12.21-7.031,20.039-7.031,6.984,0,14.016,1.853,21.094,5.555v33.188c-2.391-3.702-5.109-6.62-8.156-8.754-3.048-2.133-6.047-3.199-9-3.199-2.25,0-4.103,.657-5.555,1.969-1.501,1.266-2.25,2.789-2.25,4.57,0,2.907,1.992,5.79,5.977,8.648l4.641,3.445c6.188,4.454,10.617,9.024,13.289,13.711,2.718,4.688,4.078,10.172,4.078,16.453,0,10.688-3.259,19.501-9.773,26.438-6.516,6.938-14.766,10.406-24.75,10.406-6.891,0-14.273-1.523-22.148-4.57Z" fill="#fff"/>
      <path d="M377.768,747.561h-30.656l-2.18-49.5-.914-19.758c-.328,3.797-.703,7.418-1.125,10.863s-.938,6.785-1.547,10.02l-9.211,48.375h-23.906l-7.875-48.445c-.469-2.812-1.102-7.64-1.898-14.484-.094-1.03-.305-3.14-.633-6.328l-.703,20.039-2.602,49.219h-31.219l12.656-108.562h36.492l6.117,36.562c.516,3,.973,6.258,1.371,9.773s.762,7.337,1.09,11.461c.609-6.891,1.453-13.054,2.531-18.492l7.453-39.305h36.211l10.547,108.562Z" fill="#fff"/>
      <path d="M468.489,747.561h-30.305l-2.18-13.781h-19.758l-2.391,13.781h-30.305l26.086-108.562h35.859l22.992,108.562Zm-35.93-37.055l-1.898-12.656c-.047-.046-.141-.679-.281-1.898-.095-1.03-.587-5.108-1.477-12.234-.095-.797-.211-1.887-.352-3.27-.141-1.382-.328-3.129-.562-5.238l-.914-10.266c-.095,.984-.223,2.086-.387,3.305-.165,1.22-.341,2.556-.527,4.008-.328,2.907-.562,4.922-.703,6.047s-.235,1.805-.281,2.039l-2.039,13.148-2.953,17.016h12.375Z" fill="#fff"/>
      <path d="M475.283,747.561v-108.562h27.984l14.695,38.109c.796,2.25,1.698,4.828,2.707,7.734,1.007,2.907,2.12,6.258,3.34,10.055l3.023,9.562c-1.079-9.422-1.898-17.483-2.461-24.188-.562-6.703-.844-12.328-.844-16.875v-24.398h27.984v108.562h-27.984l-14.766-39.938c-1.547-4.265-2.942-8.262-4.184-11.988-1.243-3.727-2.333-7.277-3.27-10.652,.608,7.641,1.055,14.298,1.336,19.969,.281,5.672,.422,10.642,.422,14.906v27.703h-27.984Z" fill="#fff"/>
      <path d="M564.924,638.999h19.266c9.281,0,16.031,2.345,20.25,7.031,4.219,4.735,6.328,12.234,6.328,22.5,0,14.438-4.243,23.766-12.727,27.984-4.267,1.923-10.431,2.883-18.492,2.883v48.164h-14.625v-108.562Zm14.625,47.883c6.047,0,10.218-1.219,12.516-3.656,2.343-2.484,3.516-6.891,3.516-13.219,0-6.469-1.125-11.203-3.375-14.203-2.25-2.999-5.79-4.5-10.617-4.5h-2.039v35.578Z" fill="#f17a00"/>
      <path d="M631.438,638.999h11.391l23.273,108.562h-14.484l-4.078-21.164h-21.516l-4.148,21.164h-14.062l23.625-108.562Zm13.992,76.078l-3.234-17.297c-2.156-11.766-3.914-24.328-5.273-37.688-.657,6.516-1.501,13.113-2.531,19.793-1.031,6.68-2.25,13.771-3.656,21.27l-2.672,13.922h17.367Z" fill="#f17a00"/>
      <path d="M674.004,638.999h19.266c7.968,0,13.897,1.898,17.789,5.695,4.922,4.922,7.383,12.445,7.383,22.57,0,7.781-1.301,14.027-3.902,18.738s-6.317,7.629-11.145,8.754l19.969,52.805h-14.836l-19.898-53.156v53.156h-14.625v-108.562Zm14.625,48.094c5.671,0,9.679-1.312,12.023-3.938,2.343-2.625,3.516-7.055,3.516-13.289,0-3.375-.246-6.258-.738-8.648s-1.266-4.335-2.32-5.836c-1.055-1.5-2.415-2.602-4.078-3.305-1.665-.703-3.646-1.055-5.941-1.055h-2.461v36.07Z" fill="#f17a00"/>
      <path d="M724.84,638.999h47.602v12.797h-16.383v95.766h-14.344v-95.766h-16.875v-12.797Z" fill="#f17a00"/>
      <path d="M817.257,641.249v14.273c-4.454-3.188-8.462-4.781-12.023-4.781-3.844,0-6.985,1.36-9.422,4.078-2.438,2.578-3.656,6.023-3.656,10.336,0,3.797,.867,7.056,2.602,9.773,.89,1.453,2.355,3.329,4.395,5.625,2.039,2.297,4.676,5.062,7.91,8.297,5.952,6.047,10.008,11.274,12.164,15.68,2.155,4.266,3.234,9.492,3.234,15.68,0,8.392-2.367,15.305-7.102,20.742-4.735,5.298-10.805,7.945-18.211,7.945-6.234,0-11.556-1.711-15.961-5.133v-14.484c5.203,3.797,9.938,5.695,14.203,5.695,3.983,0,7.102-1.324,9.352-3.973,2.25-2.647,3.375-6.246,3.375-10.793,0-3.938-.868-7.477-2.602-10.617-.891-1.5-2.134-3.223-3.727-5.168-1.594-1.944-3.586-4.113-5.977-6.504-3.703-3.656-6.774-6.891-9.211-9.703-2.438-2.812-4.243-5.273-5.414-7.383-2.25-4.124-3.375-9.327-3.375-15.609,0-8.483,2.203-15.211,6.609-20.18,4.453-5.016,10.43-7.523,17.93-7.523,5.203,0,10.171,1.242,14.906,3.727Z" fill="#f17a00"/>
    </g>
  </g>
</svg>