<?xml version="1.0" encoding="UTF-8"?>
<svg xmlns="http://www.w3.org/2000/svg" width="174.449mm" height="93.662mm" xmlns:xlink="http://www.w3.org/1999/xlink" viewBox="0 0 494.5 265.5">
  <defs>
    <linearGradient id="c" x1="200.061" y1="1.298" x2="295.761" y2="264.233" gradientUnits="userSpaceOnUse">
      <stop offset=".104" stop-color="#8de196"/>
      <stop offset=".2" stop-color="#83d78f"/>
      <stop offset=".359" stop-color="#6abe7e"/>
      <stop offset=".562" stop-color="#419462"/>
      <stop offset=".799" stop-color="#095c3c"/>
      <stop offset=".834" stop-color="#005336"/>
      <stop offset="1" stop-color="#000"/>
    </linearGradient>
    <linearGradient id="k" x1="261.564" y1="236.845" x2="238.617" y2="187.635" gradientUnits="userSpaceOnUse">
      <stop offset="0" stop-color="#003f26"/>
      <stop offset="1" stop-color="#000"/>
    </linearGradient>
  </defs>
  <g id="b" data-name="Groen">
    <ellipse cx="247.911" cy="132.766" rx="236.145" ry="121.554" fill="url(#c)"/>
  </g>
  <g id="d" data-name="Grijse rand">
    <path d="M248.1,7.45C115.414,7.45,7.85,63.415,7.85,132.45s107.563,125,240.249,125,240.25-55.965,240.25-125S380.786,7.45,248.1,7.45Zm0,241.5c-127.301,0-230.499-52.159-230.499-116.5S120.798,15.95,248.1,15.95s230.5,52.159,230.5,116.5-103.198,116.5-230.5,116.5Z" fill="#d9e0e7" stroke="#686867" stroke-miterlimit="10"/>
  </g>
  <g id="e" data-name="Beige rand donker">
    <path d="M250.1,27.2c-122.745,0-222.249,48.018-222.249,107.25s99.505,107.25,222.249,107.25,222.25-48.018,222.25-107.25S372.845,27.2,250.1,27.2Zm0,208.75c-119.155,0-215.749-45.443-215.749-101.5S130.945,32.95,250.1,32.95s215.75,45.443,215.75,101.5-96.595,101.5-215.75,101.5Z" fill="#10140f"/>
  </g>
  <g id="f" data-name="Beige rand wit">
    <path d="M246.1,23.2c-122.745,0-222.249,48.018-222.249,107.25s99.505,107.25,222.249,107.25,222.25-48.018,222.25-107.25S368.845,23.2,246.1,23.2Zm0,208.75c-119.155,0-215.749-45.443-215.749-101.5S126.945,28.95,246.1,28.95s215.75,45.443,215.75,101.5-96.595,101.5-215.75,101.5Z" fill="#fff"/>
  </g>
  <g id="g" data-name="Beige rand">
    <path d="M248.1,25.2c-122.745,0-222.249,48.018-222.249,107.25s99.505,107.25,222.249,107.25,222.25-48.018,222.25-107.25S370.845,25.2,248.1,25.2Zm0,208.75c-119.155,0-215.749-45.443-215.749-101.5S128.945,30.95,248.1,30.95s215.75,45.443,215.75,101.5-96.595,101.5-215.75,101.5Z" fill="#eef9cd"/>
  </g>
  <g id="h" data-name="Busman vlak donker">
    <rect x="203.264" y="203.418" width="92.572" height="16.744" fill="#141515"/>
  </g>
  <g id="i" data-name="Busman vlak licht">
    <rect x="204.164" y="204.318" width="92.572" height="16.744" fill="#fff"/>
  </g>
  <g id="j" data-name="Busman vlak">
    <rect x="203.805" y="203.868" width="92.572" height="16.743" fill="url(#k)"/>
  </g>
  <g id="l" data-name="busman.be donker">
    <g>
      <path d="M206.994,207.61h4.849c2.126,0,3.304,1.092,3.304,2.763,0,1.106-.582,1.873-1.574,2.1,1.375,.283,2.041,1.077,2.041,2.41,0,1.871-1.275,2.863-3.785,2.863h-4.834v-10.136Zm3.416,3.829h.482c.596,0,.907-.258,.907-.711s-.311-.708-.907-.708h-.482v1.419Zm0,3.798h.609c.752,0,1.135-.299,1.135-.809s-.383-.809-1.135-.809h-.609v1.617Z" fill="#141515"/>
      <path d="M216.805,207.61h3.643v5.528c0,1.063,.156,1.688,1.008,1.688,.836,0,1.019-.624,1.019-1.688v-5.528h3.644v5.5c0,1.218-.112,2.184-.595,2.948-.766,1.22-2.24,1.956-4.068,1.956s-3.305-.751-4.07-1.956c-.48-.765-.58-1.73-.58-2.948v-5.5Z" fill="#141515"/>
      <path d="M228.245,214.046c.978,.666,1.77,1.05,2.538,1.05,.523,0,.807-.199,.807-.524,0-.47-.51-.525-1.347-.71-1.729-.367-2.608-1.318-2.608-2.791,0-2.127,1.659-3.686,4.239-3.686,1.163,0,2.254,.297,3.417,.921l-1.106,2.65c-.709-.523-1.446-.793-2.084-.793-.512,0-.795,.184-.795,.482,0,.496,.682,.566,1.886,.835,1.347,.299,2.254,1.304,2.254,2.723,0,2.169-1.729,3.812-4.38,3.812-1.333,0-2.68-.382-3.982-1.134l1.161-2.835Z" fill="#141515"/>
      <path d="M245.484,213.734c-.043-.411-.086-1.035-.156-1.857-.113,.738-.284,1.391-.454,1.971l-1.163,3.898h-2.169l-1.161-3.898c-.171-.58-.341-1.233-.454-1.971-.058,.695-.101,1.318-.156,1.857l-.438,4.012h-3.574l1.73-10.136h3.756l.725,2.509c.197,.68,.51,1.631,.665,2.963h.056c.186-1.346,.498-2.325,.695-3.006l.752-2.466h3.758l1.602,10.136h-3.572l-.439-4.012Z" fill="#141515"/>
      <path d="M252.769,207.61h4.057l3.543,10.136h-3.912l-.326-1.276h-2.75l-.312,1.276h-3.913l3.614-10.136Zm2.738,6.449l-.312-1.148c-.143-.538-.355-1.248-.412-2.226h-.07c-.057,.978-.269,1.688-.41,2.226l-.313,1.148h1.518Z" fill="#141515"/>
      <path d="M260.935,207.61h3.572l3.147,5.302c-.099-.639-.112-1.176-.112-1.615v-3.686h3.515v10.136h-3.601l-3.117-5.26c.098,.652,.111,1.19,.111,1.602v3.658h-3.516v-10.136Z" fill="#141515"/>
      <path d="M273.732,214.642c1.119,0,1.971,.778,1.971,1.657s-.838,1.66-1.971,1.66-1.971-.766-1.971-1.66,.85-1.657,1.971-1.657Z" fill="#141515"/>
      <path d="M277.119,207.61h4.85c2.127,0,3.303,1.092,3.303,2.763,0,1.106-.582,1.873-1.573,2.1,1.376,.283,2.04,1.077,2.04,2.41,0,1.871-1.275,2.863-3.784,2.863h-4.835v-10.136Zm3.416,3.829h.482c.597,0,.908-.258,.908-.711s-.311-.708-.908-.708h-.482v1.419Zm0,3.798h.61c.751,0,1.135-.299,1.135-.809s-.384-.809-1.135-.809h-.61v1.617Z" fill="#141515"/>
      <path d="M287.043,207.61h6.776v2.749h-3.204v.98h2.906v2.593h-2.906v1.065h3.291v2.75h-6.863v-10.136Z" fill="#141515"/>
    </g>
  </g>
  <g id="n" data-name="busman.be">
    <g>
      <path d="M206.635,207.15h4.849c2.126,0,3.304,1.092,3.304,2.765,0,1.105-.582,1.872-1.574,2.099,1.375,.283,2.041,1.076,2.041,2.41,0,1.871-1.275,2.862-3.785,2.862h-4.834v-10.136Zm3.416,3.828h.482c.596,0,.907-.255,.907-.709s-.311-.709-.907-.709h-.482v1.418Zm0,3.799h.609c.752,0,1.135-.297,1.135-.808s-.383-.807-1.135-.807h-.609v1.615Z" fill="#eef9cd"/>
      <path d="M216.445,207.15h3.643v5.529c0,1.062,.156,1.688,1.008,1.688,.836,0,1.019-.625,1.019-1.688v-5.529h3.644v5.5c0,1.22-.112,2.184-.595,2.949-.766,1.22-2.24,1.957-4.068,1.957s-3.305-.751-4.07-1.957c-.48-.766-.58-1.729-.58-2.949v-5.5Z" fill="#eef9cd"/>
      <path d="M227.886,213.586c.978,.667,1.771,1.049,2.538,1.049,.523,0,.807-.197,.807-.523,0-.469-.51-.525-1.348-.709-1.728-.368-2.607-1.318-2.607-2.793,0-2.127,1.658-3.686,4.239-3.686,1.163,0,2.253,.298,3.417,.922l-1.106,2.65c-.708-.523-1.446-.793-2.083-.793-.512,0-.795,.184-.795,.481,0,.495,.681,.567,1.886,.836,1.347,.298,2.253,1.304,2.253,2.722,0,2.17-1.728,3.814-4.379,3.814-1.334,0-2.68-.383-3.983-1.135l1.162-2.836Z" fill="#eef9cd"/>
      <path d="M245.125,213.275c-.043-.412-.086-1.035-.156-1.857-.113,.737-.285,1.389-.454,1.971l-1.163,3.897h-2.169l-1.161-3.897c-.172-.582-.341-1.233-.454-1.971-.058,.695-.101,1.318-.157,1.857l-.437,4.011h-3.574l1.73-10.136h3.756l.725,2.51c.197,.68,.51,1.631,.665,2.963h.056c.185-1.347,.498-2.325,.695-3.006l.752-2.467h3.758l1.6,10.136h-3.571l-.439-4.011Z" fill="#eef9cd"/>
      <path d="M252.41,207.15h4.056l3.544,10.136h-3.913l-.325-1.275h-2.751l-.311,1.275h-3.913l3.614-10.136Zm2.737,6.449l-.312-1.147c-.142-.538-.355-1.247-.412-2.226h-.07c-.057,.978-.269,1.688-.41,2.226l-.313,1.147h1.518Z" fill="#eef9cd"/>
      <path d="M260.576,207.15h3.572l3.147,5.302c-.099-.638-.112-1.176-.112-1.615v-3.686h3.515v10.136h-3.6l-3.117-5.259c.098,.652,.111,1.191,.111,1.602v3.657h-3.516v-10.136Z" fill="#eef9cd"/>
      <path d="M273.373,214.182c1.119,0,1.971,.779,1.971,1.658s-.838,1.66-1.971,1.66-1.971-.766-1.971-1.66,.85-1.658,1.971-1.658Z" fill="#eef9cd"/>
      <path d="M276.76,207.15h4.85c2.127,0,3.303,1.092,3.303,2.765,0,1.105-.582,1.872-1.574,2.099,1.376,.283,2.041,1.076,2.041,2.41,0,1.871-1.275,2.862-3.784,2.862h-4.835v-10.136Zm3.416,3.828h.482c.597,0,.908-.255,.908-.709s-.311-.709-.908-.709h-.482v1.418Zm0,3.799h.61c.751,0,1.135-.297,1.135-.808s-.384-.807-1.135-.807h-.61v1.615Z" fill="#eef9cd"/>
      <path d="M286.683,207.15h6.777v2.75h-3.204v.979h2.906v2.593h-2.906v1.064h3.291v2.749h-6.864v-10.136Z" fill="#eef9cd"/>
    </g>
  </g>
  <g id="p" data-name="Font Wit donker">
    <path d="M126.828,125.81h-16.679l7.217-58.09h14.284l-5.615,38.668,23.531-38.668h14.284l-37.022,58.09Z" fill="#10140f"/>
    <path d="M167.377,126.682c-14.779,0-21.674-9.667-13.961-29.96,7.778-20.466,22.005-29.873,36.701-29.873,14.614,0,21.674,9.667,13.994,29.873-7.713,20.293-22.037,29.96-36.734,29.96Zm18.735-49.294c-6.77,0-13.315,5.923-18.412,19.334-5.197,13.674-2.823,19.16,3.781,19.16s13.116-5.399,18.347-19.16c5.064-13.325,3.055-19.334-3.716-19.334Z" fill="#10140f"/>
    <path d="M199.681,125.81l22.078-58.09h13.871l-17.311,45.548h18.164l-4.767,12.542h-32.035Z" fill="#10140f"/>
    <path d="M236.69,125.81l22.078-58.09h13.871l-22.078,58.09h-13.871Zm28.897,0l-2.781-30.917,24.859-27.173h15.192l-25.14,26.824,3.061,31.266h-15.192Z" fill="#10140f"/>
    <path d="M301.109,126.682c-9.412,0-15.04-4.529-17.416-6.532l8.1-10.451c3.366,2.438,8.252,5.226,12.793,5.226,4.046,0,7.118-1.132,8.542-4.877,1.655-4.354-1.434-5.138-4.668-6.618l-4.011-1.83c-4.49-2.09-10.233-5.66-5.897-17.07,4.336-11.409,14.563-17.679,26.535-17.679,9.33,0,14.082,4.007,16.047,5.574l-7.407,10.363c-2.592-1.654-7.015-4.354-11.969-4.354-4.211,0-7.185,1.306-8.476,4.703-1.225,3.223,1.12,4.442,3.909,5.574l3.995,1.655c5.546,2.351,11.273,6.183,6.705,18.202-5.098,13.412-14.811,18.115-26.783,18.115Z" fill="#10140f"/>
    <path d="M195.234,194.515h-17.504l4.967-35.011-21.646,35.011h-17.503l9.197-58.091h14.697l-6.77,38.233,23.448-38.233h14.696l-5.283,38.233,21.879-38.233h14.779l-34.958,58.091Z" fill="#10140f"/>
    <path d="M237.987,194.515l1.761-12.454h-13.293l-7.706,12.454h-14.283l37.27-58.091h17.422l-6.887,58.091h-14.283Zm7.039-44.155l-12.071,20.03h9.082l2.989-20.03Z" fill="#10140f"/>
    <path d="M284.307,194.515l1.092-2.874c-2.197,1.654-6.294,3.745-11.908,3.745-9,0-18.673-5.399-9.669-29.089,8.771-23.079,25.06-30.743,37.528-30.743,9.494,0,13.817,4.268,15.813,6.619l-7.456,9.841c-2.096-1.654-6.139-4.703-12.414-4.703-6.027,0-13.825,4.878-18.89,18.203-5.196,13.672-2.839,18.114,2.28,18.114,4.046,0,6.853-1.307,8.588-2.177l3.575-9.406h-8.339l4.436-11.67h22.209l-12.975,34.14h-13.871Z" fill="#10140f"/>
    <path d="M306.537,194.515l22.078-58.091h36.081l-4.436,11.67h-22.21l-4.204,11.061h17.008l-4.402,11.583h-17.008l-4.6,12.106h22.209l-4.434,11.67h-36.081Z" fill="#10140f"/>
    <path d="M379.379,194.515l-5.34-30.918-11.751,30.918h-13.871l22.078-58.091h14.696l5.029,27.608,10.493-27.608h13.871l-22.078,58.091h-13.128Z" fill="#10140f"/>
    <polygon points="127.903 170.84 92.47 170.84 96.608 157.649 137.666 144.333 136.166 150.167 110.833 157.586 132 157.586 127.903 170.84" fill="#10140f"/>
    <polygon points="353.4 89.833 388.833 89.833 384.694 103.023 343.637 116.34 345.137 110.506 370.469 103.088 349.303 103.088 353.4 89.833" fill="#10140f"/>
  </g>
  <g id="q" data-name="Font Wit">
    <path d="M123.828,122.81h-16.679l7.217-58.09h14.284l-5.615,38.668,23.531-38.668h14.284l-37.022,58.09Z" fill="#fff"/>
    <path d="M164.377,123.682c-14.779,0-21.674-9.667-13.961-29.96,7.778-20.466,22.005-29.873,36.701-29.873,14.614,0,21.674,9.667,13.994,29.873-7.713,20.293-22.037,29.96-36.734,29.96Zm18.735-49.294c-6.77,0-13.315,5.923-18.412,19.334-5.197,13.674-2.823,19.16,3.781,19.16s13.116-5.399,18.347-19.16c5.064-13.325,3.055-19.334-3.716-19.334Z" fill="#fff"/>
    <path d="M196.681,122.81l22.078-58.09h13.871l-17.311,45.548h18.164l-4.767,12.542h-32.035Z" fill="#fff"/>
    <path d="M233.69,122.81l22.078-58.09h13.871l-22.078,58.09h-13.871Zm28.897,0l-2.781-30.917,24.859-27.173h15.192l-25.14,26.824,3.061,31.266h-15.192Z" fill="#fff"/>
    <path d="M298.109,123.682c-9.412,0-15.04-4.529-17.416-6.532l8.1-10.451c3.366,2.438,8.252,5.226,12.793,5.226,4.046,0,7.118-1.132,8.542-4.877,1.655-4.354-1.434-5.138-4.668-6.618l-4.011-1.83c-4.49-2.09-10.233-5.66-5.897-17.07,4.336-11.409,14.563-17.679,26.535-17.679,9.33,0,14.082,4.007,16.047,5.574l-7.407,10.363c-2.592-1.654-7.015-4.354-11.969-4.354-4.211,0-7.185,1.306-8.476,4.703-1.225,3.223,1.12,4.442,3.909,5.574l3.995,1.655c5.546,2.351,11.273,6.183,6.705,18.202-5.098,13.412-14.811,18.115-26.783,18.115Z" fill="#fff"/>
    <path d="M192.234,191.515h-17.504l4.967-35.011-21.646,35.011h-17.503l9.197-58.091h14.697l-6.77,38.233,23.448-38.233h14.696l-5.283,38.233,21.879-38.233h14.779l-34.958,58.091Z" fill="#fff"/>
    <path d="M234.987,191.515l1.761-12.454h-13.293l-7.706,12.454h-14.283l37.27-58.091h17.422l-6.887,58.091h-14.283Zm7.039-44.155l-12.071,20.03h9.082l2.989-20.03Z" fill="#fff"/>
    <path d="M281.307,191.515l1.092-2.874c-2.197,1.654-6.294,3.745-11.908,3.745-9,0-18.673-5.399-9.669-29.089,8.771-23.079,25.06-30.743,37.528-30.743,9.494,0,13.817,4.268,15.813,6.619l-7.456,9.841c-2.096-1.654-6.139-4.703-12.414-4.703-6.027,0-13.825,4.878-18.89,18.203-5.196,13.672-2.839,18.114,2.28,18.114,4.046,0,6.853-1.307,8.588-2.177l3.575-9.406h-8.339l4.436-11.67h22.209l-12.975,34.14h-13.871Z" fill="#fff"/>
    <path d="M303.537,191.515l22.078-58.091h36.081l-4.436,11.67h-22.21l-4.204,11.061h17.008l-4.402,11.583h-17.008l-4.6,12.106h22.209l-4.434,11.67h-36.081Z" fill="#fff"/>
    <path d="M376.379,191.515l-5.34-30.918-11.751,30.918h-13.871l22.078-58.091h14.696l5.029,27.608,10.493-27.608h13.871l-22.078,58.091h-13.128Z" fill="#fff"/>
    <polygon points="124.903 167.84 89.47 167.84 93.608 154.649 134.666 141.333 133.166 147.167 107.833 154.586 129 154.586 124.903 167.84" fill="#fff"/>
    <polygon points="350.4 86.833 385.833 86.833 381.694 100.023 340.637 113.34 342.137 107.506 367.469 100.088 346.303 100.088 350.4 86.833" fill="#fff"/>
  </g>
  <g id="r" data-name="Font">
    <path d="M124.828,123.81h-16.679l7.217-58.09h14.284l-5.615,38.668,23.531-38.668h14.284l-37.022,58.09Z" fill="#eef9cd"/>
    <path d="M165.377,124.682c-14.779,0-21.674-9.667-13.961-29.96,7.778-20.466,22.005-29.873,36.701-29.873,14.614,0,21.674,9.667,13.994,29.873-7.713,20.293-22.037,29.96-36.734,29.96Zm18.735-49.294c-6.77,0-13.315,5.923-18.412,19.334-5.197,13.674-2.823,19.16,3.781,19.16s13.116-5.399,18.347-19.16c5.064-13.325,3.055-19.334-3.716-19.334Z" fill="#eef9cd"/>
    <path d="M197.681,123.81l22.078-58.09h13.871l-17.311,45.548h18.164l-4.767,12.542h-32.035Z" fill="#eef9cd"/>
    <path d="M234.69,123.81l22.078-58.09h13.871l-22.078,58.09h-13.871Zm28.897,0l-2.781-30.917,24.859-27.173h15.192l-25.14,26.824,3.061,31.266h-15.192Z" fill="#eef9cd"/>
    <path d="M299.109,124.682c-9.412,0-15.04-4.529-17.416-6.532l8.1-10.451c3.366,2.438,8.252,5.226,12.793,5.226,4.046,0,7.118-1.132,8.542-4.877,1.655-4.354-1.434-5.138-4.668-6.618l-4.011-1.83c-4.49-2.09-10.233-5.66-5.897-17.07,4.336-11.409,14.563-17.679,26.535-17.679,9.33,0,14.082,4.007,16.047,5.574l-7.407,10.363c-2.592-1.654-7.015-4.354-11.969-4.354-4.211,0-7.185,1.306-8.476,4.703-1.225,3.223,1.12,4.442,3.909,5.574l3.995,1.655c5.546,2.351,11.273,6.183,6.705,18.202-5.098,13.412-14.811,18.115-26.783,18.115Z" fill="#eef9cd"/>
    <path d="M193.234,192.515h-17.504l4.967-35.011-21.646,35.011h-17.503l9.197-58.091h14.697l-6.77,38.233,23.448-38.233h14.696l-5.283,38.233,21.879-38.233h14.779l-34.958,58.091Z" fill="#eef9cd"/>
    <path d="M235.987,192.515l1.761-12.454h-13.293l-7.706,12.454h-14.283l37.27-58.091h17.422l-6.887,58.091h-14.283Zm7.039-44.155l-12.071,20.03h9.082l2.989-20.03Z" fill="#eef9cd"/>
    <path d="M282.307,192.515l1.092-2.874c-2.197,1.654-6.294,3.745-11.908,3.745-9,0-18.673-5.399-9.669-29.089,8.771-23.079,25.06-30.743,37.528-30.743,9.494,0,13.817,4.268,15.813,6.619l-7.456,9.841c-2.096-1.654-6.139-4.703-12.414-4.703-6.027,0-13.825,4.878-18.89,18.203-5.196,13.672-2.839,18.114,2.28,18.114,4.046,0,6.853-1.307,8.588-2.177l3.575-9.406h-8.339l4.436-11.67h22.209l-12.975,34.14h-13.871Z" fill="#eef9cd"/>
    <path d="M304.537,192.515l22.078-58.091h36.081l-4.436,11.67h-22.21l-4.204,11.061h17.008l-4.402,11.583h-17.008l-4.6,12.106h22.209l-4.434,11.67h-36.081Z" fill="#eef9cd"/>
    <path d="M377.379,192.515l-5.34-30.918-11.751,30.918h-13.871l22.078-58.091h14.696l5.029,27.608,10.493-27.608h13.871l-22.078,58.091h-13.128Z" fill="#eef9cd"/>
    <polygon points="125.903 168.84 90.47 168.84 94.608 155.649 135.666 142.333 134.166 148.167 108.833 155.586 130 155.586 125.903 168.84" fill="#eef9cd"/>
    <polygon points="351.4 87.833 386.833 87.833 382.694 101.023 341.637 114.34 343.137 108.506 368.469 101.088 347.303 101.088 351.4 87.833" fill="#eef9cd"/>
  </g>
</svg>