<svg xmlns="http://www.w3.org/2000/svg" viewBox="0 0 293.98 103.5"><defs><style>.cls-1{fill:#fff;}.cls-2{fill:#cd511e;}.cls-3{fill:#acc880;}.cls-4{fill:#d8c769;}.cls-5{fill:#7896b5;}.cls-6{fill:#4c4b52;}</style></defs><title>excelland-logo_3</title><g id="wit"><rect class="cls-1" x="7.88" y="57.82" width="38.92" height="36.45"/><rect class="cls-1" x="82.26" y="26.29" width="20.2" height="20.2"/><polygon class="cls-1" points="123.74 27.94 132.07 44.94 146.41 35.6 140.07 22.94 123.74 27.94"/><polygon class="cls-1" points="173.41 6.6 166.74 24.27 185.74 31.6 191.07 15.27 173.41 6.6"/><polygon class="cls-1" points="227.74 18.27 213.07 22.27 216.74 42.94 234.07 36.94 227.74 18.27"/></g><g id="Laag_3" data-name="Laag 3"><path class="cls-2" d="M150.17,33.89l-7-15.81a4.92,4.92,0,0,0-6.49-2.49l-15.81,7a4.92,4.92,0,0,0-2.5,6.49l7,15.81a4.91,4.91,0,0,0,6.49,2.5l15.81-7A4.92,4.92,0,0,0,150.17,33.89Zm-12.86-1.25-6.79,2.8a3.16,3.16,0,0,1-1.44-1.65,2.21,2.21,0,0,1,1.39-3l5-2.22L138,27.36A3.94,3.94,0,0,1,139.32,29C140.07,30.66,139.15,31.89,137.31,32.64Z"/><path class="cls-3" d="M192,9.42,175.73,3.5a4.91,4.91,0,0,0-6.3,2.93L163.51,22.7a4.92,4.92,0,0,0,2.94,6.3l16.27,5.92A4.91,4.91,0,0,0,189,32l5.92-16.26A4.92,4.92,0,0,0,192,9.42Zm-4.91,7.88c-.35,1-.85,1.6-2.62,2.45l-1.9.95.9,2.73,1.22.38a3.14,3.14,0,0,1-.2,1.63c-.57,1.59-1.87,1.72-4.26.85-2.2-.8-2.78-1.19-3-2.2l-.4-2.09-2.72,1.87a6.77,6.77,0,0,1-1.37-.32c-1.5-.55-2-1.37-1.61-2.5a3.07,3.07,0,0,1,1.53-1.69l2.93-1.64L174.88,15l-1.11-.37A3.06,3.06,0,0,1,174,13c.44-1.21,1.71-1.75,4.26-.83,2.33.85,2.62,1.32,2.84,2.47l.34,1.73,2.76-1.73a6.36,6.36,0,0,1,1.57.36C187.1,15.45,187.46,16.28,187.09,17.3Z"/><path class="cls-4" d="M237,35.4l-3.6-16.93a4.92,4.92,0,0,0-5.83-3.78l-16.93,3.59a4.92,4.92,0,0,0-3.79,5.84l3.6,16.93a4.91,4.91,0,0,0,5.83,3.78l16.93-3.59A4.93,4.93,0,0,0,237,35.4Zm-19.61-9c-.4-1.91.92-3.63,3.3-4.14s3.74.47,4.13,2.31-.51,3.55-3.22,4.12C219.46,29.18,217.92,28.84,217.4,26.43Zm5.9,10.77c-2.18.46-3.76.1-4.27-2.32-.43-2,.93-3.7,3.34-4.21s3.78.45,4.18,2.33S226.05,36.61,223.3,37.2Z"/><path class="cls-5" d="M101.33,23H84a4.91,4.91,0,0,0-4.92,4.91V45.18A4.92,4.92,0,0,0,84,50.1h17.31a4.91,4.91,0,0,0,4.91-4.92V27.87A4.91,4.91,0,0,0,101.33,23Zm-4.82,16-1.37,0,0,1.79a2.37,2.37,0,0,1-2.51,2.64,4.76,4.76,0,0,1-2.4-.55l-.06-4-4-.07a3.18,3.18,0,0,1-.65-2.09c0-1.3,1-2.19,2.54-2.19h2l0-1.24c0-2.19.79-3.46,3-3.46a4.47,4.47,0,0,1,2.29.51l-.1,4.19h1.34l2.78-.07a3.69,3.69,0,0,1,.61,2C99.87,38.24,98.5,39,96.51,38.93Z"/><path class="cls-5" d="M42.62,52.21H12.68A8.38,8.38,0,0,0,4.3,60.6V90.53a8.39,8.39,0,0,0,8.38,8.39H42.62A8.39,8.39,0,0,0,51,90.53V60.6A8.38,8.38,0,0,0,42.62,52.21ZM28.84,90.64c-9,0-15-3.26-16.07-11H9.93a6.63,6.63,0,0,1-1.1-3.74c0-2.56,1-4.15,4.36-4.15,1.94-7.41,8.24-12.33,18.63-12.33,7.9,0,10,3.26,10,6.51a4.07,4.07,0,0,1-2,3.74,28,28,0,0,0-6.1-.55c-4.43,0-6.72,1-7.41,2.84l8.86-.07a5.74,5.74,0,0,1,1,3.39c0,2.91-1.93,4.16-5.26,4.09l-4.5-.14c.41,1.66,3.12,2.21,5.33,2.21a27.08,27.08,0,0,0,8.17-1.17,4.27,4.27,0,0,1,2.22,4.08C42.07,88.49,38.68,90.64,28.84,90.64Z"/><path class="cls-6" d="M76.37,90.34c-3,0-4.22-.48-5.62-2.86l-3-5.23L62.94,90a16.13,16.13,0,0,1-2.9.25c-3,0-4.47-1.07-4.47-3.35,0-1.21.54-2.37,1.8-4.17l5.09-7.51-4.07-6.3H56.25a5.49,5.49,0,0,1-.87-3.11c0-2.57,1.84-4.12,7.42-4.12,2.67,0,5,.29,6.4,2.72l2.37,4.31,4.32-6.54a11.91,11.91,0,0,1,3.34-.44c2.67,0,3.93,1.12,3.93,2.91,0,1.55-.63,3-3.3,6.74l-3,4.12,5.23,8.34h2a4.67,4.67,0,0,1,.63,2.28C84.81,89.33,82.82,90.34,76.37,90.34Z"/><path class="cls-6" d="M100.49,90.44c-9,0-14.06-3.88-14.06-13.14s6.44-15.8,17.06-15.8c6.21,0,8.15,1.6,8.15,4.65a5.13,5.13,0,0,1-2.53,4.37,13.57,13.57,0,0,0-3.87-.49c-4.9,0-7.42,2.72-7.42,6.5,0,4.36,1.79,5.86,5.14,5.86a14.4,14.4,0,0,0,6.2-1.35A4.3,4.3,0,0,1,112,85C112,88.6,107.81,90.44,100.49,90.44Z"/><path class="cls-6" d="M135.18,69.3c-1,0-4.46,0-6.49-.09v4l8.14-.09a5.93,5.93,0,0,1,.58,2.76c0,2.23-1.26,3.68-4.65,3.68-1.31,0-4.07-.09-4.07-.09v4l10.81-.1a6.26,6.26,0,0,1,.77,2.86c0,3-1.6,4-10.86,4-8.43,0-10.52-.2-11-1.94-.39-1.21-.39-6.16-.39-11,0-3.63.1-6.25.2-8.19l-2.33,0a6.54,6.54,0,0,1-.92-3.54c0-2.18,1.65-3.58,5.18-3.58l14.79,0,4.85-.14a5.21,5.21,0,0,1,1.11,3.2C140.85,68.09,139.06,69.3,135.18,69.3Z"/><path class="cls-6" d="M156.32,90.2c-7.56,0-8.68-.34-9.16-2.13-.25-.88-.34-4.8-.34-10.77,0-3.68.09-6.49.24-8.43l-2.42,0a6.06,6.06,0,0,1-.83-3.35c0-2.91,1.8-3.88,8.19-3.88,4.8,0,6,.58,6,2.72L158,83.65l7.9-.09a6.39,6.39,0,0,1,.63,2.91C166.5,90,163,90.2,156.32,90.2Z"/><path class="cls-6" d="M179.25,90.2c-7.56,0-8.68-.34-9.16-2.13-.25-.88-.34-4.8-.34-10.77,0-3.68.09-6.49.24-8.43l-2.42,0a6.06,6.06,0,0,1-.83-3.35c0-2.91,1.79-3.88,8.19-3.88,4.8,0,6,.58,6,2.72l0,19.24,7.9-.09a6.39,6.39,0,0,1,.63,2.91C189.43,90,185.94,90.2,179.25,90.2Z"/><path class="cls-6" d="M214.51,90.34c-3,0-4.31-.38-5.14-2.61L208,84l-6.16,0-2.18,6a21.17,21.17,0,0,1-3.83.34c-3.15,0-4.32-1-4.32-3.44a8.35,8.35,0,0,1,1.12-3.93l7.9-17.41c1.31-2.81,2.81-3.83,6.4-3.83a14.43,14.43,0,0,1,4.56.73l9.26,21.48,1.55-.1a5.55,5.55,0,0,1,.68,2.47C223,89.37,220.67,90.34,214.51,90.34Zm-9.4-17.11-2,5.72,3.68,0Z"/><path class="cls-6" d="M255.62,89.37a9.4,9.4,0,0,1-4.22.83c-2.57,0-3.73-.29-4.7-1.16-2.23-2.09-9.6-10.72-11.06-13.29a27.72,27.72,0,0,1,.34,4.17l0,9.75a12.22,12.22,0,0,1-3.87.48c-3.4,0-4.42-.73-4.56-2.08-.19-1.8-.29-6-.29-10.77,0-3.63.1-6.49.19-8.43l-2.42,0a6.3,6.3,0,0,1-.83-3.4c0-2.76,2-3.83,7.18-3.83,4.7,0,6.06.73,8.24,3.35l5.87,7a13.56,13.56,0,0,1,2.13,3.15V72.55c0-4.8,0-7.42-.19-9.94a8.17,8.17,0,0,1,4.31-1c3.73,0,4.36,1.17,4.36,8.54C256.05,79.05,255.86,85.4,255.62,89.37Z"/><path class="cls-6" d="M272.28,90.05a46.15,46.15,0,0,1-6.06-.29c-2-.29-2.91-1.11-3.1-2.42a79.73,79.73,0,0,1-.39-10c0-3.63.1-6.35.2-8.29l-2.28.1a4.38,4.38,0,0,1-1-3c0-3.73,2.52-4.55,14.2-4.55,11.3,0,16.2,5.28,16.2,13.28C290,85.69,282.85,90.05,272.28,90.05Zm2-21h-.82V83.17a7.18,7.18,0,0,0,1,0c2.57-.24,5.43-2.42,5.43-7.37C279.89,69.89,276.79,69,274.27,69Z"/></g></svg>