<?xml version="1.0" encoding="UTF-8"?>
<svg id="a" data-name="letters" xmlns="http://www.w3.org/2000/svg" width="1920" height="290.454" viewBox="0 0 1920 290.454">
  <path d="M539.624,258.705c-.137-.562-.245-1.116-.493-1.625-.051-.105-.042-.221-.098-.324L415.306,26.075c-.137-.257-.373-.412-.534-.648-.307-.453-.631-.865-1.031-1.252-.409-.397-.84-.716-1.317-1.013-.24-.151-.401-.38-.661-.508-.195-.096-.405-.081-.602-.16-.521-.208-1.04-.326-1.592-.422-.516-.09-1.01-.166-1.523-.155-.475,.009-.929,.097-1.403,.192-.577,.116-1.12,.259-1.658,.498-.191,.084-.397,.075-.584,.175-.253,.135-.403,.368-.634,.525-.467,.315-.89,.652-1.287,1.066-.383,.398-.691,.818-.98,1.278-.155,.246-.389,.412-.519,.678l-113.422,230.681c-1.966,3.992-.322,8.823,3.676,10.783,1.144,.566,2.354,.833,3.542,.833,2.976,0,5.841-1.655,7.24-4.508l20.581-41.859h90.105l22.791,42.136c.1,.185,.302,.255,.414,.428,.575,.896,1.292,1.638,2.166,2.244,.286,.198,.527,.403,.835,.562,1.104,.575,2.304,.977,3.633,.983,.017,0,.031,.013,.048,.013,.008,0,.014-.006,.022-.006h89.317c.007,0,.013,.006,.02,.006,.051,0,.101-.037,.152-.038,1.207-.025,2.318-.346,3.338-.845,.099-.048,.21-.025,.307-.078,.332-.178,.538-.475,.834-.691,.467-.339,.924-.655,1.308-1.084,.338-.378,.57-.798,.828-1.227,.278-.456,.554-.888,.737-1.398,.184-.513,.241-1.038,.319-1.578,.056-.383,.227-.725,.227-1.123,0-.133-.069-.244-.076-.375-.023-.505-.179-.985-.3-1.485Zm-209.104-52.558l34.984-71.15,38.484,71.15h-73.468Zm116.858,46.362l-73.154-135.248,34.298-69.756,109.955,205.004h-71.099Z" fill="#757575"/>
  <path d="M1611.192,21.827c-4.453,0-8.062,3.603-8.062,8.056V234.066L1463.235,25.397c-.146-.217-.372-.33-.534-.529-.357-.437-.739-.813-1.178-1.167-.396-.319-.791-.594-1.232-.829-.45-.242-.908-.419-1.405-.573-.532-.164-1.049-.271-1.603-.323-.257-.024-.479-.15-.743-.15-.256,0-.471,.121-.721,.145-.546,.048-1.06,.16-1.593,.321-.527,.161-1.011,.352-1.486,.611-.223,.12-.472,.139-.686,.282-.22,.148-.335,.376-.536,.541-.435,.355-.808,.735-1.16,1.172-.318,.396-.593,.788-.829,1.228-.245,.455-.424,.917-.579,1.419-.162,.524-.266,1.033-.319,1.579-.026,.262-.153,.489-.153,.758v230.681c0,4.453,3.609,8.056,8.062,8.056s8.062-3.603,8.062-8.056v-47.756l35.079,52.248c.113,.169,.307,.229,.431,.387,.564,.721,1.231,1.304,2.005,1.798,.275,.174,.5,.394,.791,.532,1.057,.509,2.206,.848,3.458,.848h104.827s.004-.001,.006-.001,.003,.001,.005,.001c.943,0,1.873-.225,2.781-.563,.29-.108,.546-.249,.819-.388,.29-.147,.598-.228,.875-.415,.214-.144,.327-.366,.523-.526,.442-.36,.822-.745,1.179-1.189,.316-.393,.589-.781,.822-1.219,.246-.455,.425-.919,.58-1.421,.162-.523,.267-1.032,.319-1.578,.026-.262,.153-.489,.153-.758V29.884c0-4.453-3.609-8.056-8.062-8.056Zm-100.535,230.681l-46.056-68.597V56.383l131.487,196.126h-85.43Z" fill="#757575"/>
  <path d="M1250.726,21.827c-.762,0-1.45,.236-2.149,.433-.699-.197-1.387-.433-2.149-.433h-82.485c-4.453,0-8.062,3.603-8.062,8.056v230.681c0,4.453,3.609,8.056,8.062,8.056h82.485c4.453,0,8.062-3.603,8.062-8.056v-34.12c6.55-.21,12.972-.881,19.184-2.128l35.362,41.478c1.588,1.866,3.853,2.826,6.13,2.826,1.854,0,3.709-.633,5.23-1.927,3.387-2.887,3.787-7.973,.899-11.36l-30.593-35.884c40.61-14.98,69.47-51.969,69.47-95.222,0-56.467-49.104-102.401-109.447-102.401Zm-12.359,230.681h-66.361V37.94h66.361V252.508Zm16.124-42.174V38.116c49.707,1.847,89.558,39.709,89.558,86.112s-39.852,84.26-89.558,86.106Z" fill="#757575"/>
  <path d="M1907.774,222.898c4.453,0,8.062-3.603,8.062-8.056s-3.609-8.056-8.062-8.056h-72.18V37.94h72.18c4.453,0,8.062-3.603,8.062-8.056s-3.609-8.056-8.062-8.056h-169.834c-4.453,0-8.062,3.603-8.062,8.056v230.681c0,4.453,3.609,8.056,8.062,8.056h169.834c4.453,0,8.062-3.603,8.062-8.056s-3.609-8.056-8.062-8.056h-72.18v-29.61h72.18Zm-88.304,29.61h-73.468V37.94h73.468V252.508Z" fill="#757575"/>
  <path d="M243.791,257.46c-.156-.534-.33-1.033-.588-1.514-.105-.2-.116-.423-.24-.617L160.445,126.878,230.759,34.775c2.698-3.537,2.021-8.595-1.521-11.299-3.531-2.693-8.595-2.01-11.293,1.516L104.444,173.663V29.884c0-4.453-3.609-8.056-8.062-8.056H13.897c-4.453,0-8.062,3.603-8.062,8.056v230.681c0,4.453,3.609,8.056,8.062,8.056H96.382c4.453,0,8.062-3.603,8.062-8.056v-35.238l24.452,38.664c.117,.186,.328,.255,.457,.428,.561,.751,1.226,1.364,2.012,1.88,.285,.187,.523,.407,.827,.557,1.056,.518,2.204,.863,3.456,.872,.023,0,.042,.017,.065,.017,.013,0,.026-.006,.04-.006h100.413c.008,0,.015,.006,.022,.006,.937,0,1.867-.229,2.775-.568,.269-.1,.512-.222,.766-.349,.265-.132,.547-.202,.801-.366,.239-.153,.369-.394,.586-.568,.447-.355,.841-.727,1.203-1.168,.318-.387,.58-.778,.817-1.21,.255-.462,.457-.925,.618-1.436,.163-.515,.256-1.02,.314-1.556,.032-.29,.17-.543,.17-.841,0-.237-.115-.437-.135-.668-.043-.532-.164-1.032-.314-1.553Zm-155.47-4.952H21.959V37.94H88.32V252.508Zm51.82-.883l-33.95-53.682,43.848-57.435,71.383,111.117h-81.281Z" fill="#757575"/>
  <path d="M1068.322,37.94c4.453,0,8.062-3.603,8.062-8.056s-3.609-8.056-8.062-8.056h-169.834c-4.453,0-8.062,3.603-8.062,8.056v230.681c0,4.453,3.609,8.056,8.062,8.056h169.834c4.453,0,8.062-3.603,8.062-8.056s-3.609-8.056-8.062-8.056h-72.18v-29.61h72.18c4.453,0,8.062-3.603,8.062-8.056s-3.609-8.056-8.062-8.056h-72.18V37.94h72.18Zm-88.304,214.568h-73.468V37.94h73.468V252.508Z" fill="#757575"/>
  <path d="M804.366,33.185c.218-.481,.27-1.023,.391-1.548,.12-.53,.307-1.045,.319-1.577,.001-.062,.035-.114,.035-.176,0-.408-.174-.759-.233-1.151-.088-.593-.135-1.184-.352-1.742-.192-.497-.509-.901-.791-1.344-.272-.43-.491-.876-.845-1.251-.421-.448-.945-.755-1.458-1.097-.319-.213-.552-.512-.908-.682-.055-.026-.115-.018-.169-.043-.462-.21-.982-.258-1.486-.378-.559-.133-1.103-.326-1.665-.336-.055-.001-.101-.031-.155-.031h-201.426c-4.453,0-8.062,3.603-8.062,8.056s3.609,8.056,8.062,8.056h99.826l-105.403,216.626c-.537,1.183-.695,2.167-.706,3.099-.067,.419-.249,.795-.249,1.233,0,3.495,2.271,6.388,5.393,7.48,.703,.349,1.531,.603,2.762,.603l84.747-.076h115.055c4.453,0,8.062-3.603,8.062-8.056s-3.609-8.056-8.062-8.056h-96.736l104.009-217.433c.027-.056,.018-.117,.044-.174Zm-121.925,217.608h-72.775l103.703-212.853h70.89l-101.818,212.853Z" fill="#757575"/>
</svg>