<?xml version="1.0" encoding="UTF-8"?>
<svg id="b" data-name="letters" xmlns="http://www.w3.org/2000/svg" width="185.841" height="28.114" viewBox="0 0 185.841 28.114">
  <path d="M55.663,23.95c-.012-.049-.022-.098-.043-.143-.004-.009-.004-.019-.009-.029L44.73,3.492c-.012-.023-.033-.036-.047-.057-.027-.04-.055-.076-.091-.11-.036-.035-.074-.063-.116-.089-.021-.013-.035-.033-.058-.045-.017-.008-.036-.007-.053-.014-.046-.018-.091-.029-.14-.037-.045-.008-.089-.015-.134-.014-.042,0-.082,.009-.123,.017-.051,.01-.099,.023-.146,.044-.017,.007-.035,.007-.051,.015-.022,.012-.035,.032-.056,.046-.041,.028-.078,.057-.113,.094-.034,.035-.061,.072-.086,.112-.014,.022-.034,.036-.046,.06l-9.975,20.287c-.173,.351-.028,.776,.323,.948,.101,.05,.207,.073,.312,.073,.262,0,.514-.146,.637-.396l1.81-3.681h7.924l2.004,3.706c.009,.016,.027,.022,.036,.038,.051,.079,.114,.144,.19,.197,.025,.017,.046,.035,.073,.049,.097,.051,.203,.086,.32,.086,.001,0,.003,.001,.004,.001,0,0,.001,0,.002,0h7.855s.001,0,.002,0c.005,0,.009-.003,.013-.003,.106-.002,.204-.03,.294-.074,.009-.004,.018-.002,.027-.007,.029-.016,.047-.042,.073-.061,.041-.03,.081-.058,.115-.095,.03-.033,.05-.07,.073-.108,.024-.04,.049-.078,.065-.123,.016-.045,.021-.091,.028-.139,.005-.034,.02-.064,.02-.099,0-.012-.006-.021-.007-.033-.002-.044-.016-.087-.026-.131Zm-18.389-4.622l3.077-6.257,3.384,6.257h-6.461Zm10.277,4.077l-6.433-11.894,3.016-6.134,9.67,18.029h-6.253Z" fill="#757575"/>
  <path d="M149.899,3.118c-.392,0-.709,.317-.709,.708V21.783l-12.303-18.351c-.013-.019-.033-.029-.047-.047-.031-.038-.065-.071-.104-.103-.035-.028-.07-.052-.108-.073-.04-.021-.08-.037-.124-.05-.047-.014-.092-.024-.141-.028-.023-.002-.042-.013-.065-.013-.023,0-.041,.011-.063,.013-.048,.004-.093,.014-.14,.028-.046,.014-.089,.031-.131,.054-.02,.011-.042,.012-.06,.025-.019,.013-.029,.033-.047,.048-.038,.031-.071,.065-.102,.103-.028,.035-.052,.069-.073,.108-.022,.04-.037,.081-.051,.125-.014,.046-.023,.091-.028,.139-.002,.023-.013,.043-.013,.067V24.113c0,.392,.317,.708,.709,.708s.709-.317,.709-.708v-4.2l3.085,4.595c.01,.015,.027,.02,.038,.034,.05,.063,.108,.115,.176,.158,.024,.015,.044,.035,.07,.047,.093,.045,.194,.075,.304,.075h9.219s0,0,0,0,0,0,0,0c.083,0,.165-.02,.245-.049,.026-.01,.048-.022,.072-.034,.026-.013,.053-.02,.077-.036,.019-.013,.029-.032,.046-.046,.039-.032,.072-.066,.104-.105,.028-.035,.052-.069,.072-.107,.022-.04,.037-.081,.051-.125,.014-.046,.023-.091,.028-.139,.002-.023,.013-.043,.013-.067V3.827c0-.392-.317-.708-.709-.708Zm-8.841,20.287l-4.05-6.033V6.157l11.563,17.248h-7.513Z" fill="#757575"/>
  <path d="M118.199,3.118c-.067,0-.128,.021-.189,.038-.061-.017-.122-.038-.189-.038h-7.254c-.392,0-.709,.317-.709,.708V24.113c0,.392,.317,.708,.709,.708h7.254c.392,0,.709-.317,.709-.708v-3.001c.576-.018,1.141-.078,1.687-.187l3.11,3.648c.14,.164,.339,.249,.539,.249,.163,0,.326-.056,.46-.169,.298-.254,.333-.701,.079-.999l-2.69-3.156c3.571-1.317,6.109-4.57,6.109-8.374,0-4.966-4.318-9.005-9.625-9.005Zm-1.087,20.287h-5.836V4.535h5.836V23.405Zm1.418-3.709V4.551c4.371,.162,7.876,3.492,7.876,7.573s-3.505,7.41-7.876,7.572Z" fill="#757575"/>
  <path d="M175.981,20.801c.392,0,.709-.317,.709-.708s-.317-.708-.709-.708h-6.348V4.535h6.348c.392,0,.709-.317,.709-.708s-.317-.708-.709-.708h-14.936c-.392,0-.709,.317-.709,.708V24.113c0,.392,.317,.708,.709,.708h14.936c.392,0,.709-.317,.709-.708s-.317-.708-.709-.708h-6.348v-2.604h6.348Zm-7.766,2.604h-6.461V4.535h6.461V23.405Z" fill="#757575"/>
  <path d="M29.647,23.84c-.014-.047-.029-.091-.052-.133-.009-.018-.01-.037-.021-.054l-7.257-11.296,6.184-8.1c.237-.311,.178-.756-.134-.994-.311-.237-.756-.177-.993,.133l-9.981,13.074V3.827c0-.392-.317-.708-.709-.708h-7.254c-.392,0-.709,.317-.709,.708V24.113c0,.392,.317,.708,.709,.708h7.254c.392,0,.709-.317,.709-.708v-3.099l2.15,3.4c.01,.016,.029,.022,.04,.038,.049,.066,.108,.12,.177,.165,.025,.016,.046,.036,.073,.049,.093,.046,.194,.076,.304,.077,.002,0,.004,.001,.006,.001,.001,0,.002,0,.003,0h8.831s.001,0,.002,0c.082,0,.164-.02,.244-.05,.024-.009,.045-.02,.067-.031,.023-.012,.048-.018,.07-.032,.021-.013,.032-.035,.052-.05,.039-.031,.074-.064,.106-.103,.028-.034,.051-.068,.072-.106,.022-.041,.04-.081,.054-.126,.014-.045,.023-.09,.028-.137,.003-.026,.015-.048,.015-.074,0-.021-.01-.038-.012-.059-.004-.047-.014-.091-.028-.137Zm-13.672-.435h-5.836V4.535h5.836V23.405Zm4.557-.078l-2.986-4.721,3.856-5.051,6.278,9.772h-7.148Z" fill="#757575"/>
  <path d="M102.158,4.535c.392,0,.709-.317,.709-.708s-.317-.708-.709-.708h-14.936c-.392,0-.709,.317-.709,.708V24.113c0,.392,.317,.708,.709,.708h14.936c.392,0,.709-.317,.709-.708s-.317-.708-.709-.708h-6.348v-2.604h6.348c.392,0,.709-.317,.709-.708s-.317-.708-.709-.708h-6.348V4.535h6.348Zm-7.766,18.87h-6.461V4.535h6.461V23.405Z" fill="#757575"/>
  <path d="M78.945,4.117c.019-.042,.024-.09,.034-.136,.011-.047,.027-.092,.028-.139,0-.005,.003-.01,.003-.016,0-.036-.015-.067-.02-.101-.008-.052-.012-.104-.031-.153-.017-.044-.045-.079-.07-.118-.024-.038-.043-.077-.074-.11-.037-.039-.083-.066-.128-.096-.028-.019-.049-.045-.08-.06-.005-.002-.01-.002-.015-.004-.041-.018-.086-.023-.131-.033-.049-.012-.097-.029-.146-.03-.005,0-.009-.003-.014-.003h-17.714c-.392,0-.709,.317-.709,.708s.317,.708,.709,.708h8.779l-9.269,19.051c-.047,.104-.061,.191-.062,.273-.006,.037-.022,.07-.022,.108,0,.307,.2,.562,.474,.658,.062,.031,.135,.053,.243,.053l7.453-.007h10.118c.392,0,.709-.317,.709-.708s-.317-.708-.709-.708h-8.507l9.147-19.122s.002-.01,.004-.015Zm-10.722,19.137h-6.4l9.12-18.719h6.234l-8.954,18.719Z" fill="#757575"/>
</svg>