<svg xmlns="http://www.w3.org/2000/svg" viewBox="0 0 348.86 181.76"><defs><style>.cls-1{fill:#0f0f0d;}</style></defs><g id="letters"><path class="cls-1" d="M69.92,122.33l-8.67,0-7.41,0-8.56,0-6.91,0c0-2,0-5.83.06-11.37s.06-15,.06-28.31q0-7.26-.06-16.1t-.06-20.07H46.3c0,1.48,0,5.3,0,11.48s-.06,13.33-.06,21.46,0,15.62.06,22.82,0,11.7,0,13.52c1.36,0,3,0,5,0s4.11,0,6.45,0l6.21,0c2.24,0,4.23,0,6,0ZM64.71,96.89H57.4q0-1.69.06-9.38t.06-15.06q0-6.92-.06-15.42T57.4,46.6h7.31c0,3.66,0,7.54-.06,11.62s-.05,8.83-.05,14.23v9.64Q64.6,85.95,64.71,96.89Z"/><path class="cls-1" d="M119.48,46.48q0,9.52-.06,22.58t0,16.51q0,12.23,0,22.74t.06,12.43l-6.4,2.15q-8.83-19.29-16.71-36T85,63.18l-.12.06q0,15.67.12,34.95t.11,24.14H77.57q0-3.06.05-10.4t.06-24.16q0-7.58-.06-17.89t-.05-21.75l7.3-2q1.59,3.51,12,25.42t15,31l.11-.06q0-11.73-.06-27.4t0-28.6Zm34.22,71.93-6.86,4.71q-3.92-6.12-13.09-19.34T121,85.79v-.22q3.06-5.22,10.14-17.76t12.18-22.12L150,49.27q-5,8.48-12.11,21t-8.1,14.43l0,.27q1.59,2.49,10.91,15.45T153.7,118.41Z"/><path class="cls-1" d="M210.44,118.47l-5.5,4.93L193.1,109.86h0a30.52,30.52,0,0,1-7.08,9.65,15.81,15.81,0,0,1-11.16,4.4,15.33,15.33,0,0,1-11.75-5.29q-4.84-5.28-4.85-15.81a30.79,30.79,0,0,1,2.58-13,40.49,40.49,0,0,1,6.37-9.9v-.11a28,28,0,0,1-3.85-6.91,24.54,24.54,0,0,1-1.75-9.35q0-8.55,4.61-13.68t10.62-5.12a13.94,13.94,0,0,1,11,4.75q4.18,4.76,4.14,13.87a31.34,31.34,0,0,1-3.06,13.22,57.93,57.93,0,0,1-6.29,10.61v.12q2.43,3,9.4,11h.12q3.61-7.6,6.28-14.3t3.91-10l6.57,3Q207.61,80.13,203.7,89t-7,14.33v.11ZM188.52,105v-.11c-2-2.3-4.57-5.28-7.71-8.92s-6.28-7.35-9.46-11.13h0a25.64,25.64,0,0,0-3.71,7.6,34.21,34.21,0,0,0-1.45,10.32q0,7.35,2.64,10.86a7.75,7.75,0,0,0,6.37,3.5,10.57,10.57,0,0,0,7.25-3.21A28.56,28.56,0,0,0,188.52,105Zm-4-40.77c0-4.31-.67-7.55-2-9.75a6.36,6.36,0,0,0-5.77-3.29,6.23,6.23,0,0,0-5.33,3.12c-1.4,2.08-2.09,5.18-2.09,9.3a19.21,19.21,0,0,0,2.35,8.9,54.55,54.55,0,0,0,6.65,9.69h.06a29.52,29.52,0,0,0,4.27-7.82A27.84,27.84,0,0,0,184.5,64.22Z"/><path class="cls-1" d="M226.87,122.33h-7.93q0-2.16.06-11.3t.06-26.77q0-7.41-.06-17t-.06-20.76h7.93q0,9.47-.05,20.28T226.76,84q0,11.67.06,23.45T226.87,122.33Zm34.23-3.92-6.87,4.71q-3.9-6.12-13.08-19.34t-12.75-18v-.22q3.06-5.28,10.06-17.82t12.26-22.06l6.7,3.58q-5,8.48-20.21,35.41l0,.27q2.1,3.06,11.25,15.85T261.1,118.41Z"/><path class="cls-1" d="M307,84.43a86.88,86.88,0,0,1-1.47,16.6,37.24,37.24,0,0,1-4.87,12.91,22.9,22.9,0,0,1-7.5,7.65,17.67,17.67,0,0,1-18.24,0,22.57,22.57,0,0,1-7.51-7.68A38.64,38.64,0,0,1,262.5,101,85.81,85.81,0,0,1,261,84.43a87.83,87.83,0,0,1,1.42-16.56,39,39,0,0,1,5.38-13.68A20.75,20.75,0,0,1,275,47.28,17.73,17.73,0,0,1,284,44.73a17.51,17.51,0,0,1,9.09,2.55,21.06,21.06,0,0,1,7.05,6.91,39.42,39.42,0,0,1,5.32,13.68A86.9,86.9,0,0,1,307,84.43Zm-8.09,0A89.3,89.3,0,0,0,297.7,70,34.73,34.73,0,0,0,294,58.38a15.76,15.76,0,0,0-4.53-5.3,9.47,9.47,0,0,0-5.55-1.78A9.28,9.28,0,0,0,278.59,53,15.38,15.38,0,0,0,274,58.38a35.1,35.1,0,0,0-3.68,11.67,89.69,89.69,0,0,0-1.19,14.38,81.43,81.43,0,0,0,1.33,15.44,35.59,35.59,0,0,0,3.94,11.3,13.86,13.86,0,0,0,4.33,4.76,9.51,9.51,0,0,0,5.24,1.64,9.66,9.66,0,0,0,5.27-1.59,13.62,13.62,0,0,0,4.36-4.81,36.41,36.41,0,0,0,4-11.27A81.42,81.42,0,0,0,298.87,84.43Z"/><polygon class="cls-1" points="16.32 157.95 16.29 25.22 46.27 25.22 46.27 31.22 24.25 31.22 24.37 151.54 312.63 132.7 326.82 31.22 78.27 31.22 78.27 25.22 335.72 25.22 319.9 138.37 16.32 157.95"/><circle class="cls-1" cx="61.62" cy="27.63" r="11.1"/></g></svg>