<?xml version="1.0" encoding="UTF-8"?>
<svg xmlns="http://www.w3.org/2000/svg" width="223.685mm" height="210mm" viewBox="0 0 634.067 595.275">
  <g id="a" data-name="Layer 14">
    <path d="M157.669,128.723l14.771-3.38-1.21-20.448s.351-2.683-2.27-2.056c-2.95,.716-6.027,.981-9.773,1.966-2.175,.575-3.629,1.183-4.977,1.756-1.125,.477-.987,2.865-.987,2.865l.976,17.837s.52,1.48,.945,1.706c.562,.292,2.525-.247,2.525-.247Z" fill="#141515"/>
    <path d="M166.942,183.078h0c-1.578,0-2.661-.262-3.408-.826-2.393-1.808-2.582-8.384-2.098-19.132,.356-8.208,.725-16.698,11.052-18.814,.353-.073,49.158-8.593,104.468-13.909,43.758-4.208,97.411-7.631,119.602-7.631,5.278,0,8.367,.195,9.442,.596,4.986,1.854,4.957,9.209,4.905,22.562l-.008,2.072c-.022,8.983-4.984,11.023-9.305,11.797-1.376,.246-6.754,.519-15.663,.972-21.886,1.112-62.624,3.181-111.178,8.169-43.367,4.456-74.236,9.256-92.68,12.124-3.462,.539-6.432,1-8.9,1.368-2.685,.401-4.664,.65-6.229,.65h0Zm229.616-59.312c-22.164,0-75.774,3.421-119.506,7.626-55.694,5.353-104.002,13.82-104.363,13.893-8.898,1.823-9.837,8.263-10.254,17.878-.358,7.957-.551,16.588,1.701,18.29,.565,.426,1.457,.624,2.806,.624h0c1.504,0,3.442-.245,6.082-.64,2.467-.367,5.435-.829,8.894-1.367,18.453-2.87,49.339-7.673,92.731-12.132,48.58-4.991,89.334-7.061,111.229-8.173,8.565-.435,14.224-.722,15.538-.957,4.393-.787,8.46-2.642,8.48-10.815l.008-2.074c.05-12.903,.078-20.01-4.254-21.621-.652-.243-2.759-.533-9.094-.533h0Z" fill="#141515"/>
    <path d="M169.937,174.595h0c-1.184,0-2.09-.237-2.694-.703-2.009-1.544-1.551-3.814-1.531-3.911l.393-11.879c.006-.098,.151-1.943,1.059-2.905,1.548-1.657,4.611-2.032,4.741-2.047l17.31-2.669c-.06,.025,.353-.13,.933-.129,.573,0,1.435,.138,2.283,.793,1.576,1.217,1.378,3.014,1.369,3.089l-.145,12.589c-.008,.104-.154,1.585-.669,2.737-.581,1.27-2.265,2.065-2.336,2.098l-.139,.041-18.718,2.721c-.007,.002-.851,.174-1.853,.174h0Zm20.209-23.244c-.409,0-.686,.094-.689,.095l-17.419,2.694c-.046,.006-2.848,.351-4.146,1.741-.555,.588-.758,1.84-.79,2.273l-.402,11.947c-.024,.157-.347,1.845,1.153,2.997,.419,.324,1.14,.495,2.083,.495,.896,0,1.674-.157,1.682-.158l18.67-2.715c.437-.218,1.449-.84,1.784-1.573,.447-1,.582-2.364,.583-2.378l.146-12.602c.009-.104,.132-1.37-.984-2.232-.502-.388-1.064-.584-1.671-.584h0Z" fill="#141515"/>
    <path d="M197.092,170.502l-.052-.004c-.055-.004-1.359-.116-2.163-.802-.899-.783-1.143-2.053-1.153-2.106l.192-14.018c.012-.123,.221-1.742,1.025-2.799,.96-1.27,2.461-1.596,2.524-1.609l11.326-1.662,.08,.014c.17,.03,1.687,.32,2.41,1.192,.676,.83,.922,1.977,.932,2.025l.011,.102,.032,14.072-.017,.063c-.014,.055-.359,1.359-.878,2.365-.445,.877-1.762,1.506-1.911,1.575l-.147,.043-12.211,1.55h0Zm-2.376-3.053c.045,.195,.261,1.008,.814,1.489,.437,.373,1.219,.524,1.542,.559l12.025-1.527c.449-.221,1.165-.681,1.373-1.091,.409-.794,.712-1.841,.785-2.102l-.032-13.883c-.048-.198-.263-.996-.715-1.551-.386-.466-1.336-.745-1.736-.828l-11.132,1.633h0c.006,0-1.177,.269-1.902,1.229-.64,.841-.824,2.25-.826,2.264l-.196,13.808h0Z" fill="#141515"/>
    <path d="M354.762,154.131l-.045-.006c-.058-.008-1.422-.201-2.226-.908-.918-.785-1.141-2.012-1.149-2.064l-.01-.055,.671-13.159c.018-.124,.287-1.664,1.186-2.62,1.057-1.125,2.646-1.324,2.714-1.332l12.025-.749,.07,.016c.177,.04,1.744,.415,2.47,1.277,.702,.837,.916,1.948,.925,1.995l.011,.053-.452,13.401c-.017,.051-.429,1.263-1.006,2.178-.503,.808-1.917,1.307-2.076,1.361l-.139,.026-12.97,.585h0Zm-2.425-3.103c.045,.198,.25,.955,.81,1.434,.466,.41,1.319,.612,1.663,.666l12.803-.578c.481-.174,1.258-.556,1.486-.923,.442-.701,.791-1.642,.883-1.899l.419-13.065c-.044-.195-.238-.94-.697-1.488-.408-.485-1.44-.824-1.858-.929l-11.851,.738h0c.008,0-1.274,.169-2.075,1.021-.69,.734-.921,2.031-.923,2.044l-.658,12.979h0Z" fill="#141515"/>
    <path d="M405.826,123.831c-5.476-2.042-73.261,1.722-128.821,7.064-55.561,5.34-103.811,13.776-104.415,13.901-9.593,1.966-10.271,9.537-10.653,18.347-.446,9.916-.35,17.011,1.899,18.71,1.464,1.104,4.477,.796,9.263,.08,15.302-2.279,49.884-8.182,101.603-13.496,68.421-7.03,122.167-8.306,126.804-9.136,4.638-.831,8.872-2.969,8.892-11.307,.043-14.32,.329-22.342-4.572-24.164Zm-212.523,30.343l-.148,12.643s-.138,1.448-.626,2.539c-.509,1.114-2.09,1.849-2.09,1.849l-18.718,2.721s-2.854,.586-4.17-.43c-1.783-1.371-1.348-3.411-1.348-3.411l.403-11.967s.127-1.734,.923-2.578c1.442-1.544,4.435-1.894,4.435-1.894l17.329-2.671s1.432-.517,2.832,.565c1.369,1.058,1.178,2.634,1.178,2.634Zm17.614,12.932c-.381,.75-1.676,1.35-1.676,1.35l-12.16,1.544s-1.188-.095-1.878-.684c-.774-.674-.986-1.817-.986-1.817l.201-13.919s.191-1.541,.923-2.504c.859-1.136,2.228-1.422,2.228-1.422l11.216-1.645s1.486,.263,2.112,1.019c.604,.742,.828,1.809,.828,1.809l.032,14.007s-.34,1.294-.839,2.263Zm159.562-17.285s-.403,1.196-.955,2.071c-.425,.682-1.814,1.154-1.814,1.154l-12.925,.583s-1.263-.172-1.963-.788c-.797-.682-.987-1.774-.987-1.774l.668-13.102s.245-1.445,1.052-2.302c.944-1.006,2.408-1.178,2.408-1.178l11.927-.743s1.559,.353,2.197,1.111c.626,.746,.816,1.765,.816,1.765l-.424,13.203Zm32.544-14.731l-.169,12.439s-.171,1.416-.743,2.443c-.583,1.056-2.419,1.64-2.419,1.64l-21.712,1.031s-3.31,.326-4.838-.79c-2.059-1.506-1.561-3.48-1.561-3.48l.468-11.744s.149-1.7,1.071-2.459c1.677-1.396,5.146-1.48,5.146-1.48l20.099-1.101s1.676-.381,3.289,.804c1.592,1.167,1.368,2.698,1.368,2.698Z" fill="#141515"/>
    <path d="M376.885,153.187h0c-1.261,0-2.984-.162-4.038-.931-2.126-1.556-1.839-3.571-1.764-3.948l.466-11.7c.009-.101,.181-1.943,1.254-2.825,1.787-1.488,5.303-1.59,5.452-1.594l20.079-1.1c-.027,0,.26-.06,.697-.06,.736,0,1.84,.166,2.919,.96,1.813,1.329,1.578,3.098,1.567,3.173l-.164,12.374c-.011,.115-.193,1.58-.807,2.679-.659,1.194-2.496,1.808-2.704,1.873l-.128,.023-21.711,1.031s-.463,.045-1.119,.045h0Zm22.146-21.158c-.34,0-.556,.046-.558,.047l-20.18,1.112c-.048,.001-3.332,.099-4.853,1.366-.622,.511-.855,1.703-.893,2.119l-.481,11.821c-.015,.065-.373,1.679,1.371,2.955,.652,.476,1.876,.738,3.448,.738h0c.608,0,1.035-.041,1.046-.042l21.669-1.03c.501-.171,1.692-.695,2.073-1.386,.517-.927,.683-2.248,.685-2.261l.165-12.386c.011-.112,.148-1.326-1.164-2.288-.861-.633-1.741-.766-2.327-.766h0Z" fill="#141515"/>
    <path d="M288.772,150.118c-.371,6.518-5.571,11.519-11.609,11.176-6.049-.345-10.653-5.905-10.282-12.418,.371-6.517,5.57-11.523,11.619-11.179,6.038,.343,10.643,5.905,10.272,12.421Z" fill="#fff"/>
    <path d="M277.747,161.811c-.203,0-.407-.006-.612-.018-6.316-.36-11.139-6.168-10.753-12.946,.385-6.762,5.793-12.002,12.146-11.649,3.061,.174,5.865,1.621,7.896,4.076,2.023,2.444,3.034,5.595,2.847,8.872-.372,6.541-5.434,11.665-11.524,11.665h0Zm.164-23.63c-5.563,0-10.188,4.71-10.532,10.724-.354,6.228,4.047,11.562,9.811,11.891,5.81,.313,10.728-4.495,11.081-10.705,.172-3.024-.758-5.929-2.619-8.178-1.851-2.238-4.402-3.557-7.182-3.715-.188-.011-.374-.016-.56-.016h0Z" fill="#141515"/>
    <path d="M367.719,174.834s-45.841,1.754-92.975,6.401c-47.125,4.647-77.93,9.626-77.93,9.626,0,0-2.695,.424-3.682,1.146-1.199,.889-1.623,3.44-1.623,3.44l.265,18.371s.148,2.012,.679,2.849c.658,1.035,2.112,1.205,2.112,1.205,0,0,31.282-4.489,81.824-9.312,50.467-4.815,91.83-6.789,91.83-6.789,0,0,2.367-.132,3.672-1.021,1.061-.727,1.475-3.868,1.475-3.868l.266-18.671s-.446-1.498-1.783-2.589c-1.252-1.032-4.128-.79-4.128-.79Z" fill="#141515"/>
    <path d="M194.571,218.378l-.064-.008c-.069-.008-1.699-.211-2.476-1.433-.581-.917-.74-2.862-.756-3.081l-.266-18.4c.054-.371,.502-2.869,1.825-3.85,1.057-.773,3.614-1.193,3.902-1.239,.306-.049,31.356-5.034,77.958-9.63,46.573-4.592,92.473-6.383,93.003-6.403,0,0,.305-.025,.752-.025,1.181,0,2.783,.161,3.715,.929,1.437,1.172,1.924,2.765,1.944,2.832l.021,.073-.267,18.747c-.078,.619-.508,3.461-1.692,4.273-1.404,.956-3.824,1.102-3.926,1.107-.418,.02-41.934,2.029-91.811,6.788-49.949,4.767-81.487,9.264-81.8,9.309l-.064,.009h0Zm173.879-43.068c-.406,0-.68,.022-.689,.022-.481,.019-46.389,1.808-92.968,6.401-46.568,4.593-77.591,9.573-77.899,9.623-.719,.113-2.738,.523-3.466,1.056-.845,.626-1.315,2.464-1.425,3.12l.271,18.281c.038,.496,.222,1.99,.602,2.589,.454,.714,1.443,.925,1.691,.967,1.729-.246,32.97-4.647,81.774-9.304,49.902-4.761,91.44-6.771,91.854-6.791,.018,0,2.241-.136,3.414-.935,.603-.414,1.101-2.308,1.26-3.52l.261-18.527c-.102-.285-.556-1.429-1.599-2.279-.542-.447-1.664-.703-3.08-.703h0Z" fill="#141515"/>
    <path d="M409.921,195.674s3.831-.01,7.023,.51c3.184,.522,5.826,1.308,5.826,1.308,0,0,.732,.014,1.093-.254,.372-.263,.585-1.538,.585-1.538l-.065-14.992s.032-1.462-.859-2.393c-.499-.517-1.624-1.132-1.624-1.132,0,0-2.101-.524-5.824-1.12-3.927-.626-6.038-.122-6.038-.122,0,0-.912,.258-1.57,.975-.5,.543-.584,1.722-.584,1.722l-.393,15.163s.181,.796,.796,1.205c.986,.661,1.635,.67,1.635,.67Z" fill="#141515"/>
    <path d="M414.589,57.415c.828,3.671,4.224,16.843,6.304,27.085,2.068,10.25,5.613,23.576,5.613,23.576,0,0,11.502,10.895,15.811,16.315,4.31,5.414,13.709,14.899,13.709,14.899,0,0-1.209-7.794-6.515-24.048-5.307-16.251-6.525-22.798-10.251-28.083-5.771-8.186-24.671-29.743-24.671-29.743Z" fill="#141515"/>
    <path d="M468.686,108.322l-.149-22.7s-.849-3.06-2.674-3.406c-1.814-.342-18.707-.835-18.707-.835,0,0-1.718,1.64-1.751,3.162-.022,1.523-.212,3.04-.212,3.04l.71,17.535-11.958,4.324s-2.907,.248-2.791,1.927c.127,1.679,4.754,6.035,4.754,6.035,0,0,.329-1.212,2.324-1.936,1.994-.717,8.436-2.566,8.436-2.566,0,0,6.388,.279,10.653,.219,4.267-.072,9.297,.032,9.297,.032,0,0,1.22-.43,1.538-1.033,.317-.605,.53-3.796,.53-3.796Z" fill="#141515"/>
    <path d="M436.151,118.308l-.586-.54c-.796-.75-4.775-4.58-4.91-6.361-.116-1.686,1.912-2.332,3.181-2.457l11.553-4.178-.695-17.169c.006-.097,.191-1.591,.212-3.067,.037-1.714,1.829-3.444,1.905-3.517l.151-.144,.209,.006c.691,.02,16.954,.499,18.785,.844,2.106,.399,3.024,3.626,3.062,3.764l.018,.13,.149,22.7c-.053,.81-.247,3.384-.588,4.032-.391,.739-1.58,1.189-1.814,1.272l-.086,.03-.091-.002s-5.022-.102-9.277-.032c-3.977,.055-9.84-.184-10.602-.216-.738,.213-6.487,1.873-8.326,2.534-1.688,.613-2.001,1.564-2.013,1.604l-.237,.766h0Zm11.207-36.421c-.501,.525-1.432,1.696-1.453,2.667-.022,1.529-.208,3.028-.216,3.092l.728,17.818-12.43,4.477c-.024,.002-2.415,.244-2.335,1.394,.074,.986,2.405,3.572,4.13,5.256,.352-.489,1.026-1.138,2.278-1.593,1.988-.715,8.205-2.501,8.469-2.577l.078-.022,.081,.003c.058,.002,6.42,.274,10.625,.218,3.924-.066,8.507,.017,9.219,.03,.421-.163,1.037-.492,1.181-.764,.165-.314,.375-2.112,.474-3.596l-.15-22.595c-.239-.811-1.058-2.758-2.267-2.987-1.387-.261-12.522-.647-18.412-.82h0Z" fill="#141515"/>
    <path d="M425.234,126.781s34.484,29.937,62.52,65.599c28.024,35.66,43.399,58.882,43.399,58.882l.171,3.416s-47.242-61.399-73.759-88.01c-26.508-26.61-30.359-28.881-30.359-28.881l-1.973-11.006Z" fill="#141515"/>
    <path d="M406.917,75.428c-1.847-16.111-3.237-29.59-8.309-31.407-10.76-3.855-56.409-1.258-89.994,1.581-24.099,2.038-71.042,10.453-81.6,13.935-10.537,3.487-14.633,5.619-21.244,14.657-8.107,11.071-22.623,33.843-25.795,39.883-2.961,5.637,.721,5.711,7.321,4.525,7.641-1.379,36.37-6.824,73.427-11.446-.738-.396-1.421-.834-1.992-1.303-3.353-2.751-10.633-4.603-10.633-4.603,0,0-8.043,.082-24.905,2.419-16.235,2.25-22.506,4.42-31.324,6.675-8.892,2.276-5.603-.114-5.603-.114,0,0,11.863-8.29,43.856-11.778,25.783-2.818,36.157,4.656,39.215,7.665,15.673-1.831,32.58-3.461,49.845-4.555,28.265-1.79,47.599-2.757,60.68-3.415-1.742-1.301-3.803-3.234-7.561-4.854-6.525-2.809-11.884-2.929-18.951-2.823-13.656,.215-56.61,3.969-61.736,4.353-5.125,.382-3.629-1.535,4.202-3.326,7.831-1.791,29.584-4.517,44.217-5.195,14.633-.679,21.679,.194,34.529,3.868,8.481,2.429,10.329,5.742,10.197,7.73,12.407-.631,17.905-.979,19.876-1.692,4.032-1.457,3.703-8.343,2.28-20.779Z" fill="#141515"/>
    <path d="M163.612,219.146s1.974-.212,2.483-.933c.509-.727,.541-2.456,.541-2.456l-.18-15.283s-.457-1.735-1.2-1.751c-.743-.013-2.461-.045-2.461-.045l-5.688,.619s-1.242,.471-1.273,2.193c-.032,1.725,.404,16.521,.404,16.521,0,0-.032,1.729,.944,1.989,.987,.271,6.43-.854,6.43-.854Z" fill="#141515"/>
    <path d="M448.906,275.248c.098,1.677-.87,3.099-2.143,3.167-1.273,.075-2.387-1.225-2.483-2.902-.095-1.686,.859-3.103,2.134-3.172,1.272-.085,2.388,1.226,2.492,2.907Z" fill="#141515"/>
    <path d="M445.393,279.8c.097,1.677-.859,3.099-2.132,3.173-1.284,.075-2.387-1.226-2.483-2.902-.105-1.682,.859-3.103,2.134-3.178,1.273-.068,2.388,1.231,2.481,2.907Z" fill="#141515"/>
    <path d="M455.878,327.529c.095,1.687-.859,3.104-2.133,3.185-1.274,.069-2.388-1.231-2.483-2.913-.106-1.677,.859-3.099,2.133-3.173,1.274-.075,2.388,1.225,2.483,2.901Z" fill="#141515"/>
    <path d="M443.569,285.859c.096,1.677-.859,3.099-2.144,3.174-1.272,.073-2.388-1.231-2.482-2.908-.096-1.682,.859-3.099,2.133-3.173,1.283-.074,2.398,1.221,2.493,2.907Z" fill="#141515"/>
    <path d="M450.827,324.262c.096,1.682-.859,3.104-2.133,3.173-1.273,.074-2.387-1.221-2.482-2.902-.096-1.682,.859-3.104,2.133-3.173,1.272-.073,2.388,1.226,2.482,2.902Z" fill="#141515"/>
    <path d="M443.411,305.835c.095,1.682-.86,3.104-2.143,3.178-1.274,.069-2.389-1.23-2.483-2.917-.096-1.677,.859-3.094,2.132-3.168,1.285-.068,2.399,1.23,2.495,2.907Z" fill="#141515"/>
    <path d="M443.198,292.189c.095,1.676-.86,3.098-2.144,3.167-1.274,.075-2.389-1.226-2.482-2.907-.097-1.677,.859-3.099,2.133-3.173,1.283-.069,2.397,1.23,2.493,2.913Z" fill="#141515"/>
    <path d="M443.061,299.007c.094,1.682-.86,3.099-2.145,3.173-1.272,.074-2.388-1.231-2.481-2.908-.097-1.676,.859-3.099,2.132-3.172,1.284-.074,2.397,1.23,2.495,2.907Z" fill="#141515"/>
    <path d="M447.293,318.644c.054,1.681-.944,3.082-2.218,3.125-1.273,.043-2.355-1.284-2.409-2.972-.063-1.676,.935-3.077,2.207-3.12,1.285-.043,2.356,1.284,2.42,2.967Z" fill="#141515"/>
    <path d="M453.788,274.855c.097,1.677-.86,3.099-2.144,3.173-1.273,.074-2.387-1.231-2.483-2.907-.094-1.677,.859-3.099,2.134-3.174,1.283-.073,2.397,1.231,2.493,2.908Z" fill="#141515"/>
    <path d="M445.213,312.451c.106,1.687-.849,3.099-2.134,3.173-1.271,.075-2.387-1.231-2.481-2.907-.096-1.677,.859-3.093,2.134-3.173,1.282-.074,2.396,1.231,2.481,2.907Z" fill="#141515"/>
    <path d="M457.873,277.376c.097,1.682-.859,3.099-2.133,3.173-1.272,.074-2.387-1.226-2.494-2.907-.094-1.683,.859-3.094,2.144-3.173,1.273-.075,2.389,1.226,2.482,2.907Z" fill="#141515"/>
    <path d="M461.247,327.402c.097,1.677-.87,3.099-2.143,3.173-1.273,.075-2.387-1.231-2.483-2.907-.095-1.682,.859-3.099,2.144-3.179,1.262-.074,2.387,1.226,2.481,2.913Z" fill="#141515"/>
    <path d="M468.41,298.71c.096,1.676-.859,3.099-2.144,3.172-1.272,.075-2.388-1.225-2.481-2.907-.097-1.682,.859-3.099,2.132-3.173,1.272-.073,2.387,1.231,2.493,2.908Z" fill="#141515"/>
    <path d="M466.023,324.252c.094,1.676-.859,3.098-2.144,3.173-1.273,.067-2.387-1.231-2.482-2.913-.097-1.678,.859-3.095,2.133-3.168,1.283-.074,2.397,1.225,2.494,2.908Z" fill="#141515"/>
    <path d="M469.015,308.552c.106,1.677-.859,3.098-2.133,3.173-1.273,.068-2.388-1.226-2.483-2.913-.095-1.677,.86-3.099,2.133-3.173,1.274-.068,2.399,1.231,2.483,2.913Z" fill="#141515"/>
    <path d="M468.06,319.582c.096,1.677-.859,3.099-2.134,3.162-1.272,.08-2.387-1.221-2.481-2.902-.098-1.682,.859-3.099,2.132-3.173,1.272-.069,2.388,1.226,2.483,2.913Z" fill="#141515"/>
    <path d="M468.995,313.91c.095,1.683-.86,3.104-2.134,3.178-1.284,.069-2.398-1.23-2.493-2.918-.097-1.676,.859-3.098,2.132-3.161,1.284-.075,2.398,1.22,2.495,2.901Z" fill="#141515"/>
    <path d="M467.041,294.131c.096,1.682-.859,3.103-2.144,3.179-1.274,.068-2.388-1.231-2.483-2.913-.095-1.683,.859-3.099,2.133-3.168,1.274-.074,2.398,1.226,2.494,2.902Z" fill="#141515"/>
    <path d="M461.311,280.288c.085,1.678-.86,3.1-2.142,3.173-1.274,.074-2.388-1.226-2.484-2.907-.095-1.677,.859-3.099,2.134-3.172,1.283-.069,2.388,1.229,2.493,2.906Z" fill="#141515"/>
    <path d="M456.769,300.646c.308,5.316-1.442,9.736-3.905,9.879-2.472,.144-4.711-4.049-5.019-9.364-.307-5.316,1.442-9.736,3.905-9.879,2.472-.138,4.712,4.054,5.018,9.364Z" fill="#141515"/>
    <path d="M465.672,289.228c.106,1.683-.86,3.104-2.133,3.178-1.272,.069-2.388-1.23-2.483-2.907-.095-1.682,.859-3.099,2.134-3.173,1.272-.074,2.387,1.221,2.482,2.902Z" fill="#141515"/>
    <path d="M463.74,284.188c.139,1.676-.794,3.114-2.067,3.215-1.273,.101-2.41-1.173-2.548-2.85-.127-1.676,.796-3.119,2.07-3.22,1.273-.101,2.408,1.178,2.545,2.854Z" fill="#141515"/>
    <path d="M468.802,303.262c.096,1.687-.859,3.099-2.133,3.173-1.283,.074-2.388-1.221-2.492-2.907-.098-1.677,.859-3.099,2.142-3.173,1.274-.074,2.388,1.23,2.483,2.907Z" fill="#141515"/>
    <path d="M460.283,300.025c.18,3.077-2.06,5.698-4.989,5.863-2.937,.17-5.464-2.181-5.633-5.248-.181-3.066,2.058-5.687,4.986-5.857,2.939-.165,5.464,2.181,5.636,5.242Z" fill="#141515"/>
    <path d="M527.854,348.784c.51,4.044-.19,7.448-1.549,7.618-1.358,.17-2.876-2.965-3.375-7.008-.499-4.038,.192-7.454,1.55-7.62,1.358-.174,2.875,2.968,3.374,7.01Z" fill="#141515"/>
    <path d="M529.584,349.092c.147,2.637-1.093,4.85-2.78,4.95-1.699,.096-3.185-1.964-3.343-4.601-.148-2.631,1.103-4.849,2.791-4.944,1.687-.095,3.183,1.958,3.332,4.595Z" fill="#141515"/>
    <g>
      <path d="M306.079,536.004l3.364-12.563h-12.553c-3.364,12.563,9.188,12.563,9.188,12.563Z" fill="#141515"/>
      <path d="M223.417,504.605c-6.282,0-9.646,12.563-9.646,12.563l12.564-.006s3.364-12.558-2.918-12.558Z" fill="#141515"/>
      <path d="M534.422,384.179c-3.363,12.564-5.051,18.846-5.051,18.846,0,0,12.563,0,15.938-12.563,3.363-12.56,5.051-18.842,5.051-18.842,0,0-12.563,0-15.938,12.559Z" fill="#141515"/>
      <path d="M533.77,340.551c-.034-.61-.053-1.208-.06-1.745,1.892-.217,4.653-.792,5.466-2.331,1.264-2.414,4.022-18.198,1.37-19.716-2.195-1.256-5.55-2.89-6.644-3.417-.026,.267-.042,.404-.042,.404,0,0-.003-.155-.011-.429-.193-.094-.312-.15-.312-.15,0,0,.094-1.26,.173-3.337-.234-4.631-.815-12.341-2.194-17.35-1.878-6.812-3.512-11.703-9.349-15.269-5.846-3.577-5.952,15.301-9.125,26.071-3.174,10.781-7.396,25.043-7.396,25.043l-16.865-13.337c.058-.238,.119-.462,.184-.66,.945-2.918-.307-7.141-1.155-9.253-.85-2.116-1.084-8.849-1.539-12.197-.468-3.406-1.157-9.259-2.452-10.968-1.305-1.696-2.546-6.759-2.929-9.703-.392-2.944-2.068-8.017-3.819-9.726-.865-.849-1.822-2.416-2.724-4.191,.835-10.615,1.203-23.53-.894-31.261-2.791-10.303-13.687-21.331-18.814-24.029-5.125-2.692-7.279,10.543-8.754,23.467-1.506,13.122-9.306,30.9-9.306,30.9l-13.18-15.811s5.899-8.69,6.09-18.007c.149-7.491-10.77-15.822-16.648-16.36-5.767-.533-20.721-.004-42.455,1.326-16.092,1.075-35.935,2.469-55.826,4.041v18.087s-18.676,1.48-40.323,3.135c-23.366,1.777-41.086,3.863-41.086,3.863v-17.045c-14.564,1.782-28.36,3.624-39.979,5.24-8.995,1.476-19.392,3.191-32.262,5.241,0,0-.02-.175-.058-.536-.786,.121-1.204,.186-1.204,.186,0,0-6.675,.674-8.288,2.828-1.613,2.165-1.91,4.807-1.91,4.807,0,0-.414,5.322-.17,8.458,.254,3.141,.816,6.292,.816,6.292,0,0,.807,3.311,1.518,3.841,2.642,2.006,7.247,3.321,7.247,3.321l9.009-.063s5.145,3.577,9.885,7.452c-.32,.577-.601,1.159-.78,1.685-.711,2.074,.785,5.358,.785,5.358,0,0-3.852,2.25-3.895,4.34-.042,2.091,1.252,4.446,1.252,4.446,0,0-2.101,4.372-2.367,6.224-.254,1.857,1.953,3.061,1.953,3.061,0,0-2.791,5.062-2.377,7.163,.403,2.101,1.464,4.68,1.464,4.68,0,0-.552,5.571-.138,6.972,.424,1.401,1.528,2.123,1.528,2.123,0,0-.976,3.702-.351,6.27,.616,2.568,2.823,4.477,2.823,4.477,0,0-.339,5.571,.743,7.216,1.083,1.655,3.067,3.55,3.067,3.55,0,0-.243,3.368,.426,5.322H94.087c-10.654,0-21.71,8.717-24.565,19.365l-51.496,192.201c-.021,.101-.043,.196-.064,.293h-.01l-5.115,19.078H540.057c10.654,0,21.7-8.717,24.554-19.371l56.696-211.566h-87.537Zm-12.346-16.82c1.637-.175,5.57,6.848,7.574,16.82h-9.086c-.538-8.58-.231-16.643,1.512-16.82Zm-76.954-56.186c10.314-10.6,21.646,3.941,25.723,20.14,3.799,15.1,4.127,26.894,.541,40.727-3.247,12.515-15.058,13.337-25.031-1.889-9.975-15.233-10.591-49.37-1.232-58.978Zm-112.277,97.792c12.564,0,9.2,12.564,7.513,18.847-1.676,6.281-6.727,25.127-6.727,25.127h-31.41s3.374-12.563,6.738-25.127c3.364-12.564-9.2-12.564-9.2-12.564l-10.091,37.691h-31.41l11.778-43.974h62.808Zm68.517,83.958l-1.687,6.282c-3.363,12.558-11.333,18.839-17.604,18.839H243.228l1.677-6.281c3.374-12.558,11.333-18.84,17.615-18.84h25.127s3.364-12.565-9.2-12.565h-25.127l1.687-6.28h56.537c6.282,0,10.876,6.28,7.513,18.846l-1.687,6.282h-25.128c-12.553,0-15.928,12.558-15.928,12.558h75.372c12.564,0,15.938-12.558,15.938-12.558h-37.691l6.727-25.128h69.09l-1.678,6.28h-37.691l-3.363,12.565h37.69Zm-148.376-109.137s1.835-2.054,2.324-4.14c.488-2.079-.34-5.358-.34-5.358,0,0,2.717-1.104,2.971-2.727,.035-.221,.048-.506,.049-.828,.022-.004,.045-.006,.068-.011,7.587-1.55,21.297-4.68,21.297-4.68l15.877,6.797c-.675,2.828-.581,7.598-.396,8.59,.08,.455,.183,1.52,.265,2.749h-42.129c.011-.244,.014-.393,.014-.393Zm-162.64,62.871h25.128c12.564,0,15.928-12.564,15.928-12.564h-37.691l1.686-6.281c3.364-12.564,11.334-18.847,17.615-18.847h100.499s-3.374,12.564-6.738,25.128c-3.364,12.564,9.2,12.564,9.2,12.564l10.091-37.692h31.41l-6.728,25.128c-8.415,31.409-39.824,31.409-39.824,31.409l3.364-12.563s-18.846-.004-31.41,0c-12.553,0-9.189-12.563-7.513-18.846,1.687-6.281,5.051-18.846,5.051-18.846,0,0-25.106,.012-37.691,0-12.532-.011-15.917,12.564-15.917,12.564h37.681l-1.677,6.281c-3.417,12.564-11.333,18.846-17.71,18.846h-56.431l1.676-6.281Zm81.176,120.416c-8.425,31.409-39.823,31.409-39.823,31.409l3.363-12.563h-31.409c-6.282,0-10.877-6.282-7.502-18.846,1.676-6.282,6.727-25.122,6.727-25.122h31.41s-3.375,12.564-6.738,25.122c-3.364,12.563,9.189,12.563,9.189,12.563l10.102-37.685h31.41l-6.728,25.122Zm86.875-6.282c-.966,3.603-1.687,6.282-1.687,6.282h-43.973c-3.364,12.563,9.2,12.563,8.807,12.563h31.802l-1.688,6.282h-62.808c-5.889,0-10.887-6.282-7.513-18.846l1.677-6.282c3.364-12.558,11.725-18.84,17.614-18.84h50.245c6.282,0,10.887,6.282,7.523,18.84Zm251.466-12.558c-6.516,0-14.867,.006-25.117,0-12.542-.011-15.937,12.558-15.937,12.558h37.691l-1.677,6.282c-3.418,12.563-11.333,18.846-17.711,18.846h-56.441l1.688-6.282h25.127c12.562,0,15.927-12.563,15.927-12.563h-37.681l1.677-6.282h-37.691c-12.563,0-17.614,18.846-17.614,18.846l-1.677,6.282h-106.781c-6.282,0-10.876-6.287-7.513-18.85l1.687-6.281h43.963c3.363-12.559-2.919-12.559-9.2-12.559h-31.399l1.676-6.283h62.818c6.282,0,10.877,6.283,7.513,18.842l-5.051,18.845h12.564l10.091-37.686h31.409l-5.051,18.842s11.333-18.842,23.896-18.842h31.41l-5.052,18.846c3.363-12.558,11.333-18.84,17.614-18.84l56.527-.006-1.687,6.288Zm67.498-114.141c-1.676,6.277-5.051,18.842-17.604,18.842h-50.255c-12.562,0-7.512-18.846-7.512-18.846l1.676-6.282h-37.681c-12.563,0-17.603,18.846-17.603,18.846l-1.687,6.282h-87.935c-12.563,0-9.2-12.564-7.513-18.842,1.677-6.281,0,0,1.677-6.286,1.686-6.277,5.05-18.842,17.614-18.842h43.973l-1.685,6.282h-18.847s-6.282,0-9.645,12.559c-1.687,6.282,0,0-1.687,6.286,0,0-3.364,12.559,2.919,12.559h31.409l10.091-37.687h31.409l-5.051,18.842s11.333-18.842,23.896-18.842h31.399l-5.052,18.842c1.687-6.282,5.052-18.842,17.615-18.842h50.254c12.554,0,9.191,12.564,7.514,18.847l-1.687,6.281Z" fill="#141515"/>
    </g>
  </g>
  <g id="b" data-name="Logo">
    <g>
      <path d="M266.159,150.497c.066-6.554,5.343-12.315,11.786-12.868,6.443-.552,11.614,4.312,11.549,10.865-.066,6.553-5.342,12.314-11.787,12.868-6.443,.553-11.613-4.311-11.548-10.865h0Z" fill="#141515"/>
      <path d="M268.714,150.277c-.038,3.761,2.132,6.809,5.281,7.991l-4.823-10.852c-.288,.914-.448,1.876-.457,2.86h0Zm1.764-5.552l4.184,9.416,1.817-4.203,2.69-.232,1.736,3.895,4.379-10.149c-.714-.962-1.631-1.751-2.692-2.311l-3.418,7.91-2.689,.231-3.263-7.338c-1.075,.744-2.01,1.691-2.744,2.779h0Zm16.059,1.202l-5.049,11.699c3.18-1.725,5.414-5.151,5.452-8.913,.009-.985-.132-1.921-.403-2.786h0Zm-6.122,12.202l-2.615-5.882-2.736,6.342c.843,.189,1.739,.256,2.67,.175,.932-.08,1.831-.299,2.681-.635h0Zm-5.174-17.266l2.614,5.881,2.737-6.339c-.845-.192-1.741-.257-2.672-.178-.932,.081-1.83,.299-2.679,.636h0Zm-8.42,9.578c.062-6.183,5.039-11.617,11.119-12.139,6.078-.522,10.954,4.067,10.893,10.249s-5.039,11.617-11.118,12.139c-6.079,.522-10.956-4.066-10.895-10.249h0Z" fill="#fff" fill-rule="evenodd"/>
    </g>
  </g>
</svg>