<?xml version="1.0" encoding="UTF-8"?>
<svg xmlns="http://www.w3.org/2000/svg" width="120mm" height="120mm" viewBox="0 0 340.157 340.157">
  <g id="b" data-name="kleur">
    <circle cx="170.079" cy="170.079" r="170.079" fill="#c63c1b"/>
  </g>
  <g id="c" data-name="lijn">
    <g>
      <path d="M67.043,258.765V65.461c-4.111,1.83-8.222,3.661-12.333,5.491,19.178,17.646,38.356,35.291,57.534,52.937,2.77,2.549,5.54,5.097,8.309,7.646,2.484,2.286,8.375-.556,10.245-2.272,13.183-12.093,26.366-24.186,39.549-36.279l-11.002,.572v169c3.353-2.057,6.707-4.113,10.06-6.17H64.013c-3.189,0-7.067,1.392-9.044,4.026-1.602,2.134-1.01,4.522,2.013,4.522h105.392c3.038,0,10.06-2.128,10.06-6.17V89.765c0-5.054-9.282-1.006-11.002,.572-13.183,12.093-26.366,24.186-39.549,36.279l10.245-2.272c-19.178-17.646-38.356-35.291-57.534-52.937-2.77-2.549-5.54-5.097-8.309-7.646-2.958-2.721-12.333,1.526-12.333,5.491v193.303c0,5.295,13.09,.883,13.09-3.791Z" fill="#fff"/>
      <path d="M80.339,93.556v168c0,5.295,13.09,.883,13.09-3.791V89.765c0-5.295-13.09-.883-13.09,3.791h0Z" fill="#fff"/>
      <path d="M170.347,92.984c13.346-11.787,27.742-21.613,46.207-21.341,8.811,.13,17.516,1.676,25.764,4.804,21.561,8.177,35.499,27.141,42.318,48.595,5.33,16.768,6.811,34.649,6.435,52.165-.349,16.252-2.696,32.742-9.047,47.803-4.427,10.498-10.767,20.261-19.371,27.812-6.683,5.865-14.433,10.118-21.54,12.442-9.552,3.124-17.447,3.777-27.875,2.862-14.451-1.269-29.43-5.217-42.544-11.539-3.952-1.905-15.46,5.322-9.606,8.144,22.388,10.793,49.938,15.845,74.302,9.681,22.864-5.785,42.558-20.778,54.255-41.232,7.824-13.681,11.885-29.383,13.579-44.964,2.14-19.684,1.226-40.256-3.256-59.569-5.893-25.392-20.242-48.234-44.694-58.977-10.124-4.448-21.366-6.507-32.397-6.585-23.965-.169-43.979,11.826-61.442,27.25-1.772,1.565-3.215,4.213-.346,5.396,2.77,1.143,7.233-.958,9.26-2.748h0Z" fill="#fff"/>
      <path d="M185.727,76.338v194.217c0,5.295,13.09,.883,13.09-3.791V72.547c0-5.295-13.09-.883-13.09,3.791h0Z" fill="#fff"/>
      <path d="M212.11,70.352v201.628c0,5.295,13.09,.883,13.09-3.791V66.561c0-5.295-13.09-.883-13.09,3.791h0Z" fill="#fff"/>
    </g>
  </g>
</svg>