<?xml version="1.0" encoding="UTF-8"?>
<svg xmlns="http://www.w3.org/2000/svg" width="720" height="274.186" viewBox="0 0 720 274.186">
  <g id="a" data-name="Pen wit">
    <path d="M299.844,2.974c-54.783,0-99.192,38.278-99.192,85.493,0,38.833,30.041,71.613,71.186,82.033l-.015-.294c-.066-1.26,7.647,21.155,7.647,21.155h48.616l1.903-21.425c40.042-10.999,69.048-43.313,69.048-81.469,0-47.215-44.411-85.493-99.194-85.493Zm65.235,45.419c2.258,2.691,4.296,5.525,6.094,8.486-1.857-2.938-3.888-5.774-6.094-8.486Z" fill="#fff"/>
  </g>
  <g id="b" data-name="Pen">
    <path d="M380.321,88.989c0-38.306-36.031-69.362-80.477-69.362s-80.479,31.056-80.479,69.362c0,26.629,17.416,49.752,42.962,61.374,1.625,1.891,4.18,4.534,5.803,7.333,4.731,8.158,3.604,15.421,3.604,15.421l-1.213,24.518,11.104-.671,41.254-2.504,10.801-.654-4.14-26.201c-1.016-7.37,1.667-11.976,3.404-15.374,27.937-10.878,47.378-35.105,47.378-63.243Zm-67.891,96.259l-22.736,1.381-8.665,.525,.549-8.665,.216-3.424s12.446-.791,19.481-1.249c9.147-.595,19.102-1.252,19.102-1.252l.01,.076,.507,3.195,1.392,8.816-9.855,.597Zm8.456-29.296c-2.137,7.205-1.52,11.202-1.52,11.202,.495-.093-5.907,1.287-9.618,1.732-2.815,.338-8.179,.898-8.179,.898l-.452-5.798-.3-3.832-.015-.17-.128-1.64-.574-9.145s7.467-2.57,5.722-8.763c-1.65-5.854-15.124-2.532-15.754,3.732-.668,6.64,7.771,5.588,7.771,5.588l.368,8.58,.048,1.144,.006,.09,.017,.394,.004,.142,.172,4.014,.245,5.664s-6.235,.386-9.754,.351c-.767-.008-7.309,.116-7.309,.116,0,0-.595-9.226-5.47-18.208-2.717-5.007-8.582-10.578-8.582-10.578,0,0,7.633-5.609,7.941-5.863,2.297-1.898,10.574-7.699,14.971-17.041,4.41-9.369,5.76-18.914,5.831-19.397-1.087-.138-2.123-.369-3.107-.669-3.511-1.065-6.272-3.087-7.679-5.684-.624-1.148-.988-2.403-1.032-3.742-.061-1.929,.55-3.748,1.675-5.347,2.416-3.428,7.217-5.829,12.936-6.045,8.385-.32,15.107,4.182,15.302,10.254,.138,4.322-3.09,8.091-7.985,10.023-.963,.381-1.985,.696-3.063,.925,.136,.612,3.037,12.326,6.044,19.625,1.904,4.621,6.225,10.144,9.642,13.124,3.822,3.334,9.462,7.96,9.462,7.96,0,0-4.982,7.407-7.637,16.363Zm-2.269-40.935c-1.25-2.816-2.437-6.294-3.465-9.799,5.215-3.63,8.649-9.069,8.994-15.208,.078-.787,.126-1.584,.098-2.393-.157-4.947-2.343-9.626-6.149-13.175-4.799-4.473-11.85-6.873-19.349-6.585-13.862,.528-24.428,9.983-24.057,21.529,.216,6.753,4.116,12.597,10.219,16.149-.898,3.195-2.114,6.596-3.676,9.57-10.166-5.394-16.948-15.071-16.948-26.115,0-16.928,15.92-30.65,35.559-30.65s35.559,13.722,35.559,30.65c0,10.985-6.71,20.617-16.786,26.027Zm7.114,9.48c13.677-7.424,22.774-20.546,22.774-35.507,0-23.162-21.786-41.94-48.661-41.94s-48.661,18.777-48.661,41.94c0,14.813,8.916,27.822,22.37,35.281-6.371,5.885-11.012,8.763-11.067,8.796l-.253,.154c-15.775-9.981-26.023-26.071-26.023-44.231,0-30.289,28.489-54.847,63.634-54.847s63.634,24.558,63.634,54.847c0,18.359-10.476,34.598-26.549,44.555-1.428-1.038-2.642-1.917-2.642-1.917-2.267-1.646-5.617-4.348-8.556-7.131Z" fill="#007dbf"/>
  </g>
  <g id="c" data-name="Letters">
    <path d="M35.635,248.564c.622-.574,1.42-2.286,1.774-3.805l2.628-11.274c.354-1.518,1.127-1.688,1.717-.376s1.325,3.635,1.633,5.163l4.838,24.056c.307,1.528,1.604,3.378,2.882,4.11s2.802,1.272,3.387,1.199,1.712-.995,2.505-2.05,1.326-3.189,1.186-4.742l-.789-8.708c-.141-1.553-.437-4.07-.66-5.594s-.632-4.025-.911-5.559l-3.526-19.407c-.279-1.534-.619-4.06-.757-5.613l-2.811-31.726c-.138-1.553-1.031-3.455-1.984-4.227s-3.008-1.342-4.565-1.266l-2.325,.113c-1.557,.076-3.404,.964-4.103,1.975s-1.491,3.093-1.76,4.629l-1.34,7.659c-.269,1.536-.554,4.066-.633,5.623l-.13,2.546c-.079,1.557-.451,4.069-.825,5.583l-.078,.315c-.375,1.513-.75,4.025-.833,5.582l-.131,2.43c-.084,1.557-.504,4.057-.933,5.555l-.112,.392c-.43,1.499-.99,2.562-1.246,2.364s-.849-.852-1.319-1.453-1.397-2.247-2.06-3.658l-.04-.085c-.663-1.411-1.714-3.736-2.335-5.165l-4.961-11.42c-.621-1.43-1.472-3.829-1.89-5.331l-1.933-6.942c-.418-1.502-1.766-3.515-2.996-4.474l-.974-.76c-1.229-.959-3.326-1.393-4.658-.964s-3.178,1.656-4.102,2.727-1.487,3.209-1.252,4.751l2.393,15.706c.235,1.541,.895,3.989,1.468,5.439l.536,1.358c.573,1.45,.716,3.055,.319,3.567s-.627,1.486-.511,2.164,.337,2.503,.491,4.054l1.33,13.435c.154,1.551,.297,4.096,.319,5.655l.088,6.308c.022,1.559,.222,4.097,.444,5.64l1.723,11.946c.223,1.543,.836,3.238,1.363,3.767s1.882,1.225,3.01,1.547,3.004-.263,4.167-1.3l.306-.273c1.164-1.037,2.027-2.387,1.918-3s-.214-2.389-.234-3.948l-.01-.804c-.02-1.559-.172-4.103-.338-5.653l-1.694-15.789c-.166-1.55-.102-3.598,.143-4.552s.86-1.433,1.367-1.067,1.289,1.888,1.738,3.381v.003c.45,1.493,1.361,3.869,2.025,5.279l1.163,2.467c.665,1.41,1.757,2.847,2.427,3.193s2.493,.585,4.051,.53l2.458-.086c1.558-.054,3.342-.569,3.963-1.143Zm622.643-85.762c-.557-1.456-1.188-3.911-1.402-5.455l-.186-1.339c-.214-1.544,.201-3.828,.922-5.074s1.338-3.35,1.37-4.673-.529-2.683-1.248-3.02-1.351-.985-1.407-1.44,.199-1.189,.565-1.631,1.338-.917,2.161-1.055,1.45-.622,1.394-1.077-1.072-1.433-2.258-2.173-2.193-1.638-2.237-1.994-.33-1.183-.635-1.838,.002-2.044,.683-3.087,1.244-3.141,1.252-4.66-.588-3.387-1.324-4.151-2.268-1.432-3.405-1.486-2.474,.467-2.971,1.157-.727,2.518-.512,4.062l.105,.749c.216,1.544,.642,4.058,.949,5.587l1.863,9.302c.306,1.529,.289,3.407-.038,4.173s-1.857,1.579-3.399,1.804l-6.726,.985c-1.543,.226-3.258-.071-3.813-.66s-1.181-2.334-1.391-3.879l-.327-2.402c-.211-1.545-.499-4.079-.64-5.632l-.924-10.13c-.142-1.553,.06-3.242,.449-3.755s1.967-1.124,3.509-1.359l3.5-.534c1.541-.235,3.732-1.248,4.868-2.25s2.017-2.005,1.958-2.229-.894-1.224-1.856-2.225-2.846-2.165-4.187-2.587-3.713-.733-5.272-.69l-7.659,.211c-1.558,.043-3.617,1.084-4.576,2.314l-1.391,1.785c-.958,1.23-1.609,3.505-1.446,5.055l3.173,30.237c.163,1.551,.487,4.08,.72,5.622l.31,2.047c.233,1.541,.422,4.078,.418,5.637l-.012,5.734c-.003,1.559,.136,4.102,.31,5.652l2.305,20.505c.174,1.549,.743,3.276,1.263,3.838s2.222,1.004,3.781,.983l.653-.009c1.559-.021,3.582-1.071,4.496-2.334l.595-.821c.914-1.263,1.481-3.559,1.26-5.102l-2.252-15.717c-.221-1.543-.587-4.068-.813-5.611l-.542-3.699c-.226-1.543,.015-3.641,.536-4.664s1.828-1.782,2.905-1.688,2.569,.634,3.315,1.2,1.62,2.277,1.943,3.802l1.299,6.136c.323,1.525,.944,3.106,1.381,3.513s1.113,1.975,1.503,3.484l2.335,9.031c.39,1.509,1.492,3.752,2.449,4.983l1.526,1.964c.956,1.231,2.777,2.081,4.045,1.888s2.871-1.125,3.562-2.072,.941-2.957,.557-4.468l-3.54-13.914c-.384-1.511-1.155-3.939-1.712-5.395l-2.089-5.462Zm57.818-10.552c-.217-1.544-.148-3.216,.153-3.715s.575-1.991,.608-3.315-.6-2.298-1.408-2.164-2.333-.405-3.388-1.198-2.422-1.351-3.035-1.243-2.346-.136-3.851-.544l-.61-.165c-1.505-.408-3.749-1.516-4.988-2.463l-2.651-2.026c-1.239-.947-2.889-2.827-3.666-4.178l-1.299-2.257c-.778-1.351-1.739-3.69-2.136-5.198l-.605-2.296c-.397-1.508-.432-3.983-.078-5.502l.672-2.879c.354-1.518,1.427-3.767,2.385-4.997l.035-.045c.958-1.23,2.406-2.32,3.219-2.422s1.269-.347,1.013-.544-.487-.546-.515-.774,.275-.833,.673-1.344,.932-.767,1.187-.567,.533,.92,.618,1.603,1.398,1.523,2.918,1.869l.28,.064c1.52,.346,3.792,1.384,5.049,2.307l.177,.13c1.257,.923,2.348,2.184,2.425,2.802s.491,2.214,.92,3.547,1.485,2.443,2.347,2.469,1.872-.316,2.244-.758,.585-1.548,.473-2.458-.746-2.809-1.407-4.221l-.039-.084c-.662-1.412-1.73-3.554-2.374-4.76s-2.232-2.251-3.529-2.322-2.406-.311-2.465-.534,.055-.615,.254-.871-.448-.904-1.439-1.441-2.306-.915-2.923-.839-2.394,.224-3.949,.33l-.652,.044c-1.555,.106-4.013,.663-5.461,1.239s-3.397,2.068-4.33,3.316l-4.115,5.502c-.934,1.249-1.519,3.533-1.301,5.077l3.125,22.097c.218,1.544,1.064,3.399,1.878,4.124s2.619,1.894,4.009,2.599l.069,.035c1.39,.705,3.754,1.634,5.253,2.064l.395,.113c1.499,.43,3.989,.609,5.533,.398l3.938-.538c1.545-.211,2.918-.586,3.052-.832s.653-.203,1.153,.098,.955,.919,1.01,1.374,.597,2.003,1.203,3.439l.345,.818c.606,1.436,1.445,3.622,1.863,4.856s.759,3.52,.757,5.08l-.008,5.852c-.002,1.559-.64,3.94-1.418,5.292l-2.3,3.999c-.777,1.351-1.786,2.503-2.242,2.56s-1.357-.021-2.003-.172-2.296-.88-3.668-1.62l-5.683-3.065c-1.372-.74-2.676-2.608-2.897-4.152l-.09-.632c-.221-1.543-.819-3.132-1.329-3.53s-1.404-.639-1.986-.535-1.594,.446-2.249,.759-1.009,1.833-.788,3.376l1.003,6.998c.221,1.543,1.267,3.743,2.325,4.889l.727,.788c1.057,1.146,3.078,2.623,4.491,3.283l.341,.159c1.412,.66,3.841,1.124,5.397,1.03l3.752-.226c1.556-.094,3.155-.589,3.552-1.1s1.463-1.049,2.368-1.194,2.079-.696,2.609-1.223,1.177-2.065,1.438-3.417,.892-3.455,1.401-4.673,.748-3.478,.531-5.022l-2.293-16.32Zm-446.185,82.596c.881-.341,1.702-1.334,1.826-2.208s-.564-1.842-1.526-2.151-1.869-1.302-2.015-2.208-.927-2.736-1.736-4.069l-1.123-1.849c-.809-1.333-2.092-2.859-2.851-3.391s-1.616-.048-1.905,1.077-.121,3.254,.375,4.733l1.053,3.146c.495,1.478,1.434,3.846,2.087,5.262l.086,.186c.653,1.416,1.603,2.874,2.11,3.24s1.638,.767,2.511,.89,1.12-.285,.547-.907-.32-1.41,.561-1.751Zm213.833-57.715c-.873-1.179-1.371-3.223-1.105-4.544s.573-3.195,.685-4.165-.325-2.751-.969-3.956-1.008-2.401-.809-2.656,.645-1.013,.991-1.683,.455-2.483,.241-4.027l-.43-3.115c-.213-1.544-.728-4.037-1.143-5.54l-.221-.8c-.415-1.503-1.299-3.886-1.963-5.297l-.038-.081c-.664-1.41-.744-3.189-.178-3.952s.918-2.076,.781-2.917-.733-2.388-1.325-3.437-1.821-1.815-2.732-1.702-2.203-.077-2.872-.422-2.369-.889-3.778-1.21-3.831-.582-5.383-.582-2.782,.422-2.734,.938,.369,1.47,.713,2.12,.324,1.786-.045,2.525-.23,1.715,.309,2.168,1.844,.824,2.901,.824,2.97,.552,4.252,1.226,2.374,1.571,2.426,1.993,1.032,1.136,2.176,1.588,2.105,1.008,2.133,1.236-.771,1.388-1.778,2.579l-.421,.498c-1.007,1.19-1.696,3.433-1.532,4.983l1.511,14.253c.164,1.55,.759,4.009,1.32,5.463l.789,2.042c.562,1.454,1.367,2.6,1.789,2.547s.923,.073,1.113,.281,.44,.933,.556,1.61,.102,1.435-.03,1.683-.659,.125-1.17-.273-.86-.165-.776,.518,.032,2.511-.117,4.063l-.088,.911c-.149,1.552-.164,4.093-.033,5.646l.785,9.317c.131,1.554-.172,3.442-.673,4.196s-2.173,1.557-3.715,1.784l-4.758,.7c-1.542,.227-3.562-.034-4.489-.579s-1.869-2.254-2.094-3.796l-2.38-16.307c-.225-1.543-1.097-3.879-1.938-5.192l-.218-.34c-.841-1.313-1.205-2.833-.81-3.377s.647-2.263,.56-3.82l-.177-3.154c-.087-1.557-.341-4.093-.563-5.636l-.891-6.174c-.223-1.543-.084-3.925,.307-5.293s.17-3.642-.492-5.054l-.039-.083c-.662-1.411-2.148-2.989-3.301-3.507s-1.634-1.78-1.068-2.806,2.233-2.288,3.704-2.804l1.553-.544c1.471-.516,2.578-1.493,2.459-2.171s-.135-2.105-.036-3.172-.265-2.263-.808-2.657-2.251-.54-3.795-.324l-1.464,.205c-1.544,.217-3.116,.946-3.494,1.62s-.01,1.898,.818,2.72,1.178,1.912,.78,2.424-1.492,.837-2.43,.722-2.112,.435-2.609,1.222-.719,2.693-.494,4.236l.78,5.346c.225,1.543,.319,4.077,.208,5.632l-.123,1.733c-.111,1.555,.341,3.982,1.003,5.394l.039,.083c.662,1.411,.879,2.984,.482,3.496s-.538,2.192-.313,3.735l.779,5.346c.225,1.543,.589,4.068,.81,5.611l1.001,7.002c.221,1.543,.547,4.073,.725,5.622l2.357,20.512c.178,1.549,.998,3.461,1.822,4.249s2.766,1.571,4.316,1.74l3.122,.341c1.55,.169,4.062,.027,5.583-.316l11.04-2.488c1.521-.343,3.687-1.505,4.814-2.583l.084-.08c1.127-1.078,2.472-2.902,2.991-4.054s1.115-3.358,1.327-4.903l.05-.366c.212-1.545,.198-4.07-.031-5.612l-2.105-14.185c-.229-1.542-1.131-3.768-2.004-4.947Zm-19.291-46.256c-.902-.349-.975-.718-.163-.82s1.549,.184,1.639,.635-.574,.534-1.476,.185Zm123.354,60.048c-1.543,.226-3.407,.133-4.144-.206s-1.682-1.845-2.102-3.346l-.425-1.521c-.419-1.502-.948-3.992-1.176-5.535l-2.222-15.082c-.227-1.542-.086-3.224,.314-3.737s1.99-1.11,3.534-1.327l1.485-.209c1.544-.217,4.034-.044,5.533,.385l.421,.12c1.499,.428,3.602,.644,4.674,.478s2.783-1.001,3.802-1.857,1.861-2.802,1.87-4.326-.606-3.208-1.367-3.743-2.644-.782-4.185-.55l-7.869,1.185c-1.542,.232-4.01,.735-5.486,1.118s-3.124,.425-3.663,.094-1.025-.975-1.08-1.431,.391-1.459,.991-2.229,.843-2.651,.541-4.18l-2.455-12.42c-.302-1.529-1.179-3.271-1.948-3.87s-2.175-1.67-3.124-2.381-.966-2.145-.037-3.188,2.963-1.958,4.52-2.034l2.359-.116c1.557-.076,3.941,.076,5.297,.338s3.737,.381,5.292,.264l6.637-.499c1.555-.117,3.544-1.195,4.421-2.397s1.712-2.768,1.855-3.481-.232-1.994-.833-2.846-1.691-1.773-2.421-2.047-2.6-.409-4.156-.3l-5.445,.38c-1.555,.109-4.051,.558-5.547,.998l-3.736,1.1c-1.496,.44-3.753,1.549-5.016,2.463l-4.245,3.072c-1.263,.914-2.195,2.933-2.071,4.488l.632,7.936c.124,1.554,.288,4.1,.364,5.657l.116,2.356c.077,1.557-.08,4.088-.349,5.623l-.294,1.68c-.269,1.536,.441,3.666,1.577,4.734l.507,.476c1.136,1.068,1.731,2.308,1.323,2.756s-.928,.836-1.156,.864-.249,1.168-.047,2.534,.16,3.213-.093,4.105-.271,2.883-.04,4.425l1.926,12.835c.231,1.542,.442,4.079,.468,5.638l.131,7.785c.026,1.559,.597,3.986,1.268,5.393l.812,1.703c.671,1.407,2.384,2.766,3.806,3.02s3.858,.36,5.412,.235l19.021-1.524c1.554-.125,3.748-1.108,4.875-2.185l.1-.095c1.127-1.077,2.264-3.069,2.526-4.425s-.322-3.234-1.298-4.172-3.037-1.521-4.58-1.295l-15.798,2.312Zm-44.463-28.104c-.228-1.542-.57-3.839-.759-5.103s-.234-3.57-.1-5.123l.151-1.744c.135-1.553,.273-3.907,.306-5.232s-.38-2.705-.919-3.068-1.044-1.165-1.121-1.782-.323-2.384-.547-3.927l-.024-.164c-.224-1.543-.585-4.025-.802-5.516s-.891-3.887-1.497-5.323l-.345-.817c-.606-1.437-1.898-3.377-2.871-4.312s-2.978-2.09-4.456-2.566-3.352-.784-4.164-.684-2.74,.362-4.283,.583l-.757,.108c-1.543,.221-4.077,.505-5.631,.632l-5.628,.459c-1.554,.127-3.308,.479-3.898,.783s-1.536,1.177-2.102,1.939-.972,2.661-.902,4.218l.495,11.043c.07,1.557,.31,4.094,.533,5.637l4.221,29.157c.223,1.543,.914,3.632,1.535,4.643s1.684,1.743,2.364,1.628,1.653,.116,2.165,.513,.082,1.676-.955,2.841l-.551,.619c-1.036,1.165-2.071,3.005-2.3,4.089s-.225,3.233,.007,4.775l1.888,12.531c.232,1.542,.787,3.136,1.233,3.543s2.08,.606,3.63,.443l13.309-1.399c1.551-.163,4.031-.696,5.511-1.184l3.951-1.303c1.481-.488,3.465-1.902,4.41-3.142l1.309-1.718c.945-1.24,1.583-3.523,1.416-5.073l-1.705-15.913c-.166-1.55-.489-4.08-.717-5.623l-1.402-9.469Zm-8.327,31.107c-.834,.73-2.785,1.456-4.336,1.612l-4.551,.459c-1.551,.156-3.358-.783-4.015-2.086s-1.373-3.633-1.592-5.177l-1.111-7.832c-.219-1.544-.276-4.076-.128-5.628l.087-.911c.149-1.552,.091-4.085-.129-5.628l-2.001-14.077c-.219-1.544-.586-4.068-.815-5.61l-1.369-9.234c-.229-1.542-.854-3.29-1.39-3.883s-.885-1.657-.775-2.364,.138-1.79,.062-2.408,.347-1.561,.941-2.097,2.349-.852,3.901-.704l.914,.087c1.552,.148,4.083,.22,5.625,.16s3.793,.686,5.002,1.659,2.335,2.643,2.502,3.711-.113,2.939-.623,4.157-.744,3.477-.521,5.02l4.298,29.751c.223,1.543,.586,4.068,.807,5.612l.107,.75c.221,1.543,.429,4.081,.462,5.64l.103,4.861c.033,1.559-.622,3.432-1.455,4.162Zm-401.373,60.46c.823,.789,2.765,1.572,4.315,1.74l3.121,.338c1.55,.168,4.063,.025,5.584-.317l11.04-2.485c1.521-.342,3.687-1.504,4.814-2.581l.085-.082c1.127-1.077,2.473-2.902,2.991-4.055s1.116-3.36,1.328-4.905l.05-.362c.212-1.545,.198-4.07-.031-5.612l-2.107-14.185c-.229-1.542-1.13-3.769-2.001-4.948s-1.369-3.224-1.104-4.544,.571-3.194,.682-4.164-.326-2.751-.97-3.957-1.009-2.402-.81-2.658,.645-1.013,.991-1.683,.454-2.482,.241-4.026l-.431-3.113c-.214-1.544-.728-4.037-1.144-5.54l-.221-.801c-.415-1.503-1.296-3.887-1.958-5.299l-.038-.081c-.661-1.412-.741-3.191-.177-3.953s.914-2.074,.778-2.915-.733-2.386-1.325-3.435-1.822-1.815-2.732-1.703-2.202-.079-2.871-.424-2.369-.679-3.778-.743-3.831-.115-5.384-.115-2.783,.212-2.734,.472,.37,1.004,.714,1.655,.324,1.787-.045,2.524-.23,1.923,.31,2.633,1.844,1.292,2.899,1.292,2.967,.342,4.25,.761,2.375,1.106,2.426,1.527,1.033,1.136,2.179,1.588,2.108,1.009,2.135,1.236-.774,1.388-1.781,2.578l-.42,.497c-1.007,1.19-1.696,3.432-1.532,4.983l1.512,14.258c.164,1.55,.758,4.009,1.319,5.464l.786,2.037c.561,1.455,1.365,2.602,1.786,2.549s.924,.074,1.116,.282,.446,.932,.563,1.611,.102,1.436-.034,1.683-.665,.123-1.177-.275-.86-.166-.776,.517,.033,2.51-.115,4.062l-.087,.911c-.148,1.552-.162,4.093-.031,5.647l.783,9.316c.131,1.554-.173,3.442-.674,4.197s-2.174,1.558-3.716,1.785l-4.761,.701c-1.542,.227-3.562-.034-4.488-.579s-1.867-2.254-2.092-3.797l-2.377-16.309c-.225-1.543-1.097-3.879-1.938-5.192l-.217-.339c-.841-1.313-1.206-2.832-.812-3.377s.647-2.263,.56-3.82l-.175-3.152c-.086-1.557-.339-4.093-.562-5.636l-.893-6.177c-.223-1.543-.087-3.924,.303-5.292s.168-3.641-.493-5.053l-.04-.085c-.661-1.412-2.145-2.99-3.297-3.507s-1.633-1.78-1.068-2.806,2.232-2.289,3.703-2.805l1.546-.542c1.471-.516,2.579-1.493,2.462-2.171s-.132-2.106-.032-3.173-.265-2.263-.809-2.657-2.252-.539-3.796-.322l-1.462,.205c-1.544,.217-3.116,.945-3.494,1.619s-.01,1.897,.818,2.718,1.178,1.912,.78,2.423-1.492,.836-2.43,.721-2.112,.436-2.609,1.224-.719,2.695-.494,4.237l.779,5.347c.225,1.543,.319,4.077,.209,5.633l-.123,1.731c-.11,1.555,.341,3.982,1.004,5.394l.04,.085c.662,1.411,.878,2.985,.481,3.496s-.539,2.192-.314,3.734l.78,5.346c.225,1.543,.59,4.068,.811,5.611l1,7.001c.221,1.543,.547,4.073,.725,5.622l2.357,20.512c.178,1.549,.997,3.462,1.82,4.251Zm9.892-83.71c-.9-.35-.972-.719-.159-.82s1.55,.185,1.637,.636-.578,.534-1.478,.184Zm82.83,68.782c.059,1.558,.526,3.159,1.038,3.557s1.063,.709,1.225,.689,.873,.054,1.58,.164,1.797-.241,2.423-.78,1.106-2.256,1.066-3.815l-.041-1.625c-.039-1.559-.12-3.881-.179-5.161s.272-3.545,.736-5.033l1.232-3.949c.464-1.488,2.106-2.89,3.649-3.116l5.344-.78c1.543-.225,3.66-.921,4.705-1.545s3.137-1.446,4.649-1.825l2.065-.518c1.512-.379,2.569-1.952,2.347-3.495l-.108-.754c-.221-1.543-.069-3.171,.339-3.618s.253-1.48-.343-2.297-1.564-1.425-2.149-1.353-.994,.69-.908,1.372-.639,2.23-1.612,3.439-2.457,2.31-3.298,2.446-2.429,.388-3.529,.558-3.263,.487-4.806,.704l-1.581,.222c-1.544,.217-3.381-.101-4.082-.706s-1.335-1.578-1.409-2.163-.671-2.131-1.327-3.437-.933-3.107-.615-4.004,1.409-2.111,2.425-2.699,1.831-2.344,1.812-3.903l-.01-.801c-.02-1.559-.076-4.109-.125-5.668l-.025-.787c-.049-1.558-.505-3.133-1.012-3.499s-.986-1.171-1.064-1.789,.187-1.541,.586-2.053,.912-.952,1.139-.98,.341-.419,.253-.869-.082-1.72,.012-2.821-.274-2.325-.818-2.718-1.032-1.991-1.085-3.549l-.08-2.343c-.053-1.558-.469-2.787-.924-2.73s-.684,1.03-.51,2.163-.015,2.426-.421,2.872-.926,.835-1.156,.863-.303,1.321-.163,2.873l.443,4.912c.14,1.553-.191,3.582-.737,4.509s-1.324,2.917-1.731,4.422l-.164,.608c-.407,1.505-.212,3.724,.432,4.931s.862,2.746,.484,3.42-.842,2.491-1.031,4.039l-.324,2.655c-.189,1.548-.3,4.089-.247,5.647l.08,2.342c.053,1.558-.445,3.988-1.107,5.399l-.819,1.746c-.662,1.412-1.155,3.841-1.097,5.399l.575,15.227Zm32.514-36.475c.508,.366,1.296,.618,1.751,.561s.759-.661,.674-1.343-.4-1.695-.701-2.252-1.065-.625-1.697-.151-1.105,1.235-1.05,1.691,.515,1.128,1.023,1.494Zm-71.791-26.011c.173,1.135,.446,3.333,.608,4.884l1.302,12.483c.162,1.551,.799,3.62,1.415,4.599s.731,2.989,.253,4.466-.606,3.934-.286,5.46l1.78,8.484c.32,1.526,.622,4.049,.67,5.608l.266,8.556c.048,1.558,.281,4.094,.516,5.635l1.069,6.995c.236,1.541,1.291,3.452,2.346,4.246s2.948,1.261,4.207,1.038,2.914-1.239,3.678-2.257,1.211-3.114,.993-4.658l-.173-1.23c-.218-1.544-.737-4.036-1.153-5.539l-.445-1.607c-.416-1.502-1.747-3.527-2.956-4.499s-2.242-2.113-2.295-2.536,.158-1.124,.467-1.558,.077-1.863-.515-3.177-.96-2.538-.816-2.72,.746-.769,1.339-1.304,1.009-1.532,.925-2.214-.217-2.515-.295-4.072l-.123-2.447c-.078-1.557-1.019-3.585-2.09-4.507s-1.113-2.347-.093-3.168,1.746-2.369,1.613-3.442-1.101-2.573-2.153-3.333-1.975-1.887-2.052-2.503-.191-2.396-.253-3.953l-.06-1.498c-.063-1.558,.555-3.32,1.373-3.916s1.418-1.641,1.334-2.323-.563-1.487-1.064-1.788-1.54-.848-2.31-1.214-.631-1.683,.309-2.927l.086-.114c.94-1.244,1.531-3.524,1.312-5.068l-.19-1.344c-.218-1.544-1.28-3.615-2.36-4.602s-2.464-1.706-3.078-1.597-1.624,.45-2.245,.758-1.43,1.191-1.795,1.963-.473,2.665-.238,4.206l.437,2.868c.235,1.541,.568,3.731,.741,4.867Zm48.96-13.452c.681-.085,1.64,1.056,2.133,2.535l.512,1.539c.492,1.479,1.45,2.593,2.128,2.475s1.678,.108,2.221,.503,.644-.511,.223-2.012l-.193-.687c-.421-1.501-1.419-3.215-2.217-3.809s-1.994-1.309-2.656-1.59-1.482-1.232-1.822-2.114-1.174-1.507-1.852-1.389-1.327,.983-1.442,1.92,.226,1.947,.759,2.243,1.525,.47,2.206,.385Zm12.991,29.129c.671,1.407,1.944,3.602,2.828,4.877s1.77,2.109,1.969,1.854,.346-1.74,.328-3.299l-.058-4.996c-.018-1.559-.394-4.058-.835-5.553l-1.093-3.705c-.441-1.495-1.328-3.705-1.971-4.911s-1.911-2.074-2.818-1.93-1.768,.386-1.915,.536-.074,1.535,.16,3.077l1.117,7.347c.234,1.541,.975,3.954,1.646,5.361l.64,1.341Zm137.299,5.651c-.528-1.467-1.455-3.843-2.06-5.28l-.346-.821c-.605-1.437-.509-3.742,.215-5.123l2.412-4.602c.724-1.381,1.13-3.773,.903-5.315l-1.48-10.062c-.227-1.542-.601-4.066-.831-5.608l-.588-3.935c-.23-1.542-.858-4.001-1.396-5.465l-1.668-4.545c-.537-1.464-1.601-3.124-2.364-3.69s-2.509-1.375-3.882-1.798-3.769-.727-5.328-.675l-8.907,.297c-1.558,.052-3.714,.393-4.792,.758s-3.057,1.313-4.399,2.106l-.261,.154c-1.342,.793-2.603,1.651-2.802,1.907s-.498,1.733-.666,3.283l-.008,.077c-.168,1.55-.167,4.086,.002,5.636l1.896,17.447c.168,1.55,.441,3.693,.606,4.761s.463,3.208,.662,4.755l5.4,41.846c.2,1.546,1.184,3.762,2.187,4.925s2.938,1.949,4.298,1.748,2.753-.724,3.094-1.162,.896-1.398,1.233-2.134,.435-2.557,.219-4.046-.578-3.971-.803-5.513l-3.222-22.086c-.225-1.543,.054-3.429,.621-4.191s1.532-1.476,2.145-1.585,1.925,.24,2.916,.777,2.308,1.804,2.928,2.818,1.48,3.068,1.913,4.566l1.37,4.744c.433,1.498,1.329,3.878,1.992,5.289l.039,.082c.663,1.411,1.569,3.762,2.014,5.224s1.213,3.868,1.709,5.346l1.056,3.151c.495,1.478,1.595,3.492,2.443,4.476s2.252,1.861,3.12,1.95,2.592-.613,3.83-1.56l.539-.412c1.238-.947,2.459-2.883,2.712-4.301s.002-3.008-.558-3.532-1.45-2.153-1.978-3.621l-6.135-17.058Zm-10.961-22.52c-.55,1.157-2.239,2.404-3.754,2.773l-3.577,.87c-1.515,.368-3.309,.765-3.986,.882s-1.42-1.049-1.65-2.591l-.603-4.052c-.23-1.542-.41-4.047-.401-5.566s-.093-4.033-.227-5.587l-.608-7.05c-.134-1.553,1.018-3.011,2.561-3.239l4.527-.67c1.542-.228,3.501,.417,4.352,1.434s1.737,3.11,1.967,4.652l1.98,13.239c.231,1.542-.031,3.75-.58,4.906Zm-307.177,24.503c.076,1.557-.081,4.088-.349,5.624l-.293,1.677c-.268,1.536,.442,3.667,1.577,4.735l.506,.476c1.135,1.068,1.731,2.309,1.324,2.756s-.928,.836-1.157,.864-.251,1.17-.048,2.537,.161,3.215-.092,4.106-.271,2.882-.04,4.424l1.924,12.832c.231,1.542,.442,4.079,.468,5.638l.131,7.788c.026,1.559,.598,3.985,1.27,5.392l.813,1.702c.672,1.407,2.385,2.766,3.807,3.022s3.857,.362,5.411,.237l19.021-1.528c1.554-.125,3.748-1.108,4.876-2.184l.099-.094c1.128-1.076,2.265-3.068,2.526-4.425s-.323-3.236-1.3-4.174-3.038-1.521-4.581-1.295l-15.79,2.316c-1.543,.226-3.408,.134-4.146-.205s-1.685-1.845-2.104-3.346l-.426-1.525c-.42-1.502-.949-3.992-1.176-5.534l-2.221-15.081c-.227-1.542-.086-3.224,.314-3.737s1.99-1.11,3.534-1.327l1.491-.209c1.544-.217,4.033-.043,5.532,.386l.411,.118c1.499,.429,3.602,.645,4.674,.48s2.783-1,3.802-1.855,1.863-2.803,1.874-4.327-.603-3.21-1.366-3.745-2.647-.782-4.188-.55l-7.869,1.188c-1.542,.233-4.01,.735-5.486,1.117s-3.122,.424-3.66,.093-1.024-.975-1.082-1.431,.387-1.46,.987-2.23,.845-2.651,.542-4.18l-2.457-12.42c-.303-1.529-1.178-3.271-1.946-3.87s-2.173-1.67-3.123-2.38-.966-2.144-.037-3.188,2.964-1.959,4.521-2.035l2.356-.115c1.557-.076,3.941,.076,5.298,.339s3.738,.382,5.293,.265l6.637-.497c1.555-.116,3.544-1.195,4.421-2.398s1.712-2.77,1.855-3.483-.233-1.994-.836-2.846-1.693-1.771-2.422-2.044-2.598-.407-4.153-.299l-5.445,.379c-1.555,.108-4.051,.558-5.547,.999l-3.737,1.102c-1.495,.441-3.752,1.549-5.016,2.463l-4.245,3.07c-1.263,.914-2.195,2.933-2.071,4.487l.633,7.938c.124,1.554,.288,4.1,.363,5.657l.115,2.353Zm341.848-50.963c.174,1.134,.448,3.331,.61,4.882l1.301,12.483c.162,1.551,.798,3.62,1.414,4.598s.731,2.988,.255,4.466-.603,3.935-.284,5.461l1.776,8.482c.319,1.526,.621,4.049,.669,5.608l.267,8.557c.049,1.558,.281,4.094,.515,5.636l1.066,6.994c.235,1.541,1.291,3.452,2.348,4.245s2.95,1.262,4.207,1.04,2.913-1.237,3.678-2.256,1.214-3.117,.995-4.66l-.173-1.226c-.218-1.544-.737-4.036-1.154-5.538l-.446-1.611c-.416-1.502-1.746-3.527-2.955-4.499s-2.241-2.113-2.293-2.535,.157-1.123,.466-1.557,.077-1.863-.514-3.175-.958-2.536-.814-2.719,.746-.771,1.339-1.306,1.009-1.532,.924-2.214-.218-2.515-.296-4.072l-.123-2.446c-.078-1.557-1.018-3.586-2.09-4.509s-1.113-2.348-.092-3.169,1.746-2.368,1.612-3.44-1.103-2.571-2.153-3.33-1.972-1.887-2.05-2.505-.191-2.398-.254-3.956l-.06-1.499c-.062-1.558,.555-3.319,1.372-3.914s1.416-1.641,1.332-2.324-.563-1.489-1.064-1.79-1.54-.847-2.311-1.213-.632-1.682,.309-2.925l.083-.11c.941-1.243,1.532-3.523,1.314-5.067l-.19-1.345c-.218-1.544-1.28-3.614-2.36-4.601s-2.463-1.707-3.075-1.6-1.622,.447-2.244,.756-1.432,1.192-1.798,1.963-.475,2.663-.24,4.204l.438,2.874c.235,1.541,.569,3.73,.743,4.865Zm-163.144,15.135c.055,.456,.38,.038,.722-.928s.42-1.867,.174-2.002-.634-.222-.861-.194-.351,.556-.274,1.174,.184,1.496,.24,1.951Zm15.928,45.234c.823,.789,1.58,1.235,1.682,.991s.14-.816,.084-1.271-.667-1.242-1.359-1.75-1.403-.581-1.581-.164,.35,1.405,1.173,2.194Z" fill="#ae0f23"/>
  </g>
</svg>