<svg xmlns="http://www.w3.org/2000/svg" viewBox="0 0 425.2 425.2"><defs><style>.cls-1{fill:#fff;}.cls-2{fill:none;stroke:#aa0058;stroke-miterlimit:10;stroke-width:5.8px;}.cls-3{fill:#aa0058;}</style></defs><title>mees-logo_electrificatie_oldtimer-kleur</title><g id="bg_wit"><circle class="cls-1" cx="212.6" cy="212.6" r="155.1"/></g><g id="basis_wiit"><circle class="cls-2" cx="212.6" cy="212.6" r="155.91"/></g><g id="illu-cirkel"><path class="cls-3" d="M209.57,160.25a.71.71,0,0,0,1-.07.7.7,0,0,0-.08-1l-7.89-6.74a.72.72,0,0,0-1,.08.71.71,0,0,0,.08,1Z"/><path class="cls-3" d="M213.71,155.4a.71.71,0,1,0,.92-1.07l-7.89-6.74a.71.71,0,0,0-1,.08.7.7,0,0,0,.08,1Z"/><path class="cls-3" d="M211.64,157.83a.71.71,0,0,0,1-.08.7.7,0,0,0-.08-1L204.67,150a.7.7,0,0,0-1,.08.71.71,0,0,0,.08,1Z"/><path class="cls-3" d="M221.47,196.38a2.46,2.46,0,0,0-2.42-2H195.38c-4.38,0-6.54,1.85-8.13,5.25a24.52,24.52,0,0,0-1.57,4.59,2.46,2.46,0,0,0,2.39,3h32.29a2.45,2.45,0,0,0,2.42-2.85Z"/><path class="cls-3" d="M169.09,231.17a7.59,7.59,0,1,0,7.59,7.59A7.59,7.59,0,0,0,169.09,231.17Z"/><path class="cls-3" d="M212.6,106.3A106.3,106.3,0,1,0,318.9,212.6,106.3,106.3,0,0,0,212.6,106.3Zm-9.8,28.35,1.4-1.65a1,1,0,0,1,1.4-.11l6,5.15,10.48-12.29a1.46,1.46,0,0,1,2-.16l.31.26a1.46,1.46,0,0,1,.16,2.05l-10.48,12.29,6.61,5.64,10.48-12.29a1.46,1.46,0,0,1,2.05-.16l.31.26a1.46,1.46,0,0,1,.16,2.05L223.29,148l6,5.15a1,1,0,0,1,.11,1.4L228,156.17a1,1,0,0,1-1.39.11L202.91,136A1,1,0,0,1,202.8,134.65ZM169.09,254a15.19,15.19,0,1,1,15.18-15.19A15.19,15.19,0,0,1,169.09,254Zm103.64.24A15.19,15.19,0,1,1,287.92,239,15.18,15.18,0,0,1,272.73,254.19Zm19.37-24.26a1.68,1.68,0,0,1-1.91-.83c-3.21-6-8.62-10-17.24-10.12-11.22-.1-22.89,11.79-36.06,14.72s-49.76,2.44-49.76,2.44-.73-16.29-18-16.29c-14,0-18,13.45-18.48,16.28a1.33,1.33,0,0,1-.57.9c-.82.6-2.38,1.3-2.19-2.11a32.93,32.93,0,0,1,5.56-15.45c-4.11-1.58-18.29-7.71-23.46-18.38a18.4,18.4,0,0,1-.75-14.59c4.11-11.71,16.82-10.86,29.11-10.05,10.63.7,21.61,1.43,29.66-4.31a59.11,59.11,0,0,0,6.58-5.83,5.78,5.78,0,0,1,.78-2c1-1.69,1.83-3.3,2.39-4.36L195,157.6a2.3,2.3,0,0,1-.47-3l9.23-15,10.1,8.7c2.63,2.29,9.05,7.63,9.05,7.63l-12.87,11.08a3,3,0,0,1-3.93,0l-2.24-1.91c-1,.71-2.41,1.81-3.93,3a5.13,5.13,0,0,1-2.51,1.23,63.69,63.69,0,0,1-7,6.16c-9.28,6.63-21.57,5.81-32.41,5.09-13.5-.89-21.93-1-24.82,7.22a14.1,14.1,0,0,0,.56,11.32c5.16,10.67,22,16.57,22.13,16.63l.09,0c.24-.29.47-.58.71-.86,5.67-6.67,11.5-7.17,11.5-7.17s4.29-17.26,12.78-17.26c9.27,0,32.43.17,40.19.23a3.16,3.16,0,0,1,3.08,2.55l2.66,13.27,39,.49s4.39-.49,5.61,2.19a62.17,62.17,0,0,1,2.44,7s7,.11,12.07,4a29.84,29.84,0,0,1,6.76,7.94A1.14,1.14,0,0,1,292.1,229.93Z"/><path class="cls-3" d="M272.73,231.41a7.6,7.6,0,1,0,7.6,7.59A7.59,7.59,0,0,0,272.73,231.41Z"/></g><g id="tekst_onder"><path class="cls-3" d="M88.65,262.84c3.3-1.26,7.44-2.81,11.39-4.07l0-.12c-3.88.42-8.32.7-11.65.83L75.78,260l-1.6-4.85,10.39-6.7c2.81-1.82,6.61-4.09,10.12-5.94l0-.1c-3.82,1.13-8.22,2.36-11.73,3.33l-11.36,3.14-1.92-5.8,31.41-8.06,2.59,7.85-9.77,6.26c-3.39,2.14-6.75,4.2-10.08,6l0,.13c3.71-.49,7.76-.86,11.71-1.13l11.6-.65,2.56,7.76L79.56,273.15l-2-6.08Z"/><path class="cls-3" d="M112.27,294.19c-9.5,6.26-17.25,4.87-21.58-1.71-4.69-7.11-.81-14.86,6.75-19.84,7.75-5.11,16.68-5.08,21.3,1.94C123.65,282,119.13,289.67,112.27,294.19Zm-10.85-15.58c-5.69,3.74-7.92,7.87-5.84,11s7.16,2.25,12.51-1.28c4.82-3.17,8-7.5,5.82-10.84C111.82,274.35,106.93,275,101.42,278.61Z"/><path class="cls-3" d="M126.87,287.5a45.22,45.22,0,0,1,6.49,5.3c2.72,2.6,4.49,4.87,5,7.63a7.11,7.11,0,0,1-1.95,6.65,7.37,7.37,0,0,1-8.43,1.56l-.1.11a7.88,7.88,0,0,1-1,9.87,8.59,8.59,0,0,1-6.67,2.78c-2.94,0-6.31-1.75-10.61-5.87a48.65,48.65,0,0,1-4.7-5.1Zm-13.73,24.13a12.76,12.76,0,0,0,1.46,1.57c2.14,2,5,2.76,7.26.35s1.41-5.19-.82-7.34l-1.41-1.35Zm9.92-10.35,1.36,1.3c2.25,2.16,4.82,2.2,6.56.38s1.65-3.91-.48-5.95a9.52,9.52,0,0,0-1.9-1.52Z"/><path class="cls-3" d="M151.37,307.56,133,334.19l-5.62-3.88,18.38-26.63Z"/><path class="cls-3" d="M155.11,310.13l6.11,3.07L149.3,337l9.55,4.79-2.58,5.15-15.66-7.86Z"/><path class="cls-3" d="M180.12,320.85l-10.24,30.69-6.48-2.17,10.23-30.68Z"/><path class="cls-3" d="M188.35,329.09l-7.18-1.26,1-5.91,21.18,3.74-1,5.9-7.27-1.28-4.58,26-6.73-1.19Z"/><path class="cls-3" d="M212.6,357.92l-.31-12.84-9.21-19.3,7.59-.18,3,7.68c.86,2.19,1.57,4.23,2.27,6.46H216c.52-2.18,1.13-4.31,1.85-6.63l2.43-7.74,7.42-.18-8.57,19.48.31,13.08Z"/><path class="cls-3" d="M266.61,347.19a17,17,0,0,1-6,3.05c-9.35,3-16.12-2.13-18.9-10.91-3.5-11,1.88-18.48,9.6-20.92a14.14,14.14,0,0,1,6.33-.8l.46,5.69a11,11,0,0,0-4.69.49c-4.51,1.43-7.23,5.77-4.94,13,2.14,6.74,6.46,9.12,11.45,7.54a14.2,14.2,0,0,0,4.2-2.15Z"/><path class="cls-3" d="M282.5,324.12l-8.56,4.65,3.91,7.21,9.61-5.22,2.74,5-15.62,8.48-15.43-28.42,15.06-8.18,2.74,5-9.06,4.92,3.37,6.21,8.57-4.65Z"/><path class="cls-3" d="M298.16,330.59l-21-24.59,5.49-4.69,12.44,5.49a108.87,108.87,0,0,1,10.06,5l.08-.08c-2.76-2.71-6.2-6.31-9.7-10.4l-5.43-6.35,4.68-4,21,24.59-5.14,4.4L298,314.39a106.79,106.79,0,0,1-10.34-5.13l-.09.09c2.62,2.75,5.84,6.28,9.66,10.73l5.56,6.51Z"/><path class="cls-3" d="M305.06,287.47l-4.43,5.8-4.76-3.64,13.06-17.09,4.75,3.64L309.21,282l20.94,16L326,303.48Z"/><path class="cls-3" d="M333.69,264.22l-4.39,8.7,7.33,3.7,4.92-9.76,5.12,2.58-8,15.87-28.88-14.58,7.72-15.3,5.13,2.58L318,267.22l6.31,3.18,4.4-8.7Z"/><path class="cls-3" d="M319.3,252.33a48.3,48.3,0,0,1,1.59-8.24c1.1-4,2.56-7,4.95-8.58a8.27,8.27,0,0,1,7.25-.9,8.62,8.62,0,0,1,6.3,7.31l.12,0c1.45-1.9,3.79-2.5,7.08-2.34,3.71.17,7.93.38,9.26.12L354,246.52a41.6,41.6,0,0,1-7.88-.16c-4.08-.36-5.47.5-6.17,3l-.42,1.53,12.33,3.4-1.8,6.54Zm15.31-2.81.54-2c.85-3.09-.6-5.44-3.31-6.19s-4.85.31-5.71,3.28a9,9,0,0,0-.44,2.42Z"/></g><g id="tekst_boven"><path class="cls-3" d="M177.91,91.57c-1.52-3.73-3.15-7.89-5.14-13.14l-.14,0c.56,4.72.93,10,1.21,14.28l.88,12.19-6.78,2.57-6.83-9.88c-2.31-3.39-5.09-7.72-7.6-11.91l-.09,0c1.58,4.69,3.27,9.54,4.56,13.36l3.83,11.44-8,3-9.77-30.9,12.11-4.59L161.08,85c2.08,2.91,4.6,6.72,6.72,10.28l.18-.07c-.46-4.19-1-9.1-1.24-12.46l-.48-8.45,11.8-4.47,12.87,29.71-8.43,3.21Z"/><path class="cls-3" d="M216.51,86l-13.13.72.3,5.51,14.67-.8.4,7.28L195,100l-1.76-32.3,23-1.26.4,7.28-13.95.77.27,4.93,13.14-.72Z"/><path class="cls-3" d="M246.6,90.55l-12.93-2.42-1,5.43,14.44,2.69-1.34,7.17-23.35-4.35,5.93-31.8L251,71.49l-1.34,7.17L235.92,76.1,235,81l12.93,2.41Z"/><path class="cls-3" d="M253.86,96.83a22.19,22.19,0,0,0,7.53,5.93c2.75,1.26,4.54,1,5.22-.46.58-1.26-.39-2.71-3.51-5.35-4.38-3.7-7.35-8.17-5-13.28,2.44-5.32,9-7,16.67-3.56A24.14,24.14,0,0,1,283,85.89l-4.83,5.6a20.42,20.42,0,0,0-6.54-4.85c-2.45-1.11-4.2-1-4.78.3-.72,1.57.91,3,4.2,5.93,4.87,4.45,6.32,8.44,4.28,12.89-2.25,4.93-8.21,7.69-17.6,3.4a25.9,25.9,0,0,1-8.64-6.38Z"/></g></svg>