<svg xmlns="http://www.w3.org/2000/svg" viewBox="0 0 216 216"><defs><style>.cls-1{fill:#fff;}.cls-2{fill:#c1c3c3;}.cls-3{fill:#e43700;}</style></defs><g id="bg"><circle class="cls-1" cx="108" cy="108" r="100"/></g><g id="kader"><path class="cls-2" d="M108,216A108,108,0,1,1,216,108,108.12,108.12,0,0,1,108,216ZM108,8A100,100,0,1,0,208,108,100.11,100.11,0,0,0,108,8Z"/></g><g id="plu"><path class="cls-2" d="M91.71,130.2a4,4,0,0,1,4.09-4.09,4.12,4.12,0,0,1,4.1,4.09v6.4a4.13,4.13,0,0,1-4.1,4.1,4,4,0,0,1-4.09-4.1Z"/><path class="cls-2" d="M138.94,55.7H97.54a4.16,4.16,0,0,0-4.23,4.1,4.24,4.24,0,0,0,4.23,4.09h15V136.6a4.16,4.16,0,0,0,8.32,0V63.89h14.71c1.19,5,3.45,12.77,4.1,15.36L154,137.11c.64,2,1.92,3.59,4.22,3.59s3.58-1.54,4.1-3.59l14.46-57.86c.77-3.58,4.74-17,4.74-19.45a4.12,4.12,0,0,0-4.1-4.1,4.08,4.08,0,0,0-3.58,2c-.77,1-4,15-4.61,17.41l-11,44.54L147.07,75.16c-.64-2.43-3.84-16.39-4.6-17.41a4,4,0,0,0-3.46-2"/><path class="cls-3" d="M77.05,148.86h0a4,4,0,0,0-4,3.94c0,1.7-.65,5.66-5.63,5.66s-5.59-4-5.63-5.63V136.74a13.56,13.56,0,0,0,0-1.75,5.25,5.25,0,0,1,1.11-2.91c.26-.28,1.05-1.13,3.51-1.13a6.15,6.15,0,0,1,6.1,4l.65,2.61a4,4,0,0,0,3.88,3,3.39,3.39,0,0,0,.7-.07A4,4,0,0,0,81,136.16a15.65,15.65,0,0,0-.85-3.58l-18.51-74a4,4,0,0,0-7.76,0l-18.5,74a15.21,15.21,0,0,0-.86,3.58,4,4,0,0,0,7.86,1.38l.69-2.73A6.12,6.12,0,0,1,49.12,131c2.47,0,3.26.85,3.52,1.13a5.21,5.21,0,0,1,1.1,2.9,16,16,0,0,0,0,1.76v16.09c0,5.48,3.63,13.63,13.63,13.63S81,158.31,81,152.83A4,4,0,0,0,77.05,148.86ZM49.12,123a17.56,17.56,0,0,0-3.17.28L57.75,76l11.8,47.2a17.47,17.47,0,0,0-3.17-.28,12.54,12.54,0,0,0-8.63,3A12.54,12.54,0,0,0,49.12,123Z"/></g></svg>