<?xml version="1.0" encoding="UTF-8"?>
<svg xmlns="http://www.w3.org/2000/svg" width="1296" height="381.119" viewBox="0 0 1296 381.119">
  <g id="a" data-name="schaduw">
    <g opacity=".5">
      <path d="M304.028,217.758c.608-2.234,.886-4.577,.814-6.973-.675-22.192-3.957-48.953-23.515-59.003-10.02-5.146-20.494-5.157-30.291-.024-9.12,4.781-16.472,13.436-21.886,22.859-1.224-2.32-2.685-4.494-4.492-6.427-7.688-8.216-15.51-8.755-20.711-7.749-6.319,1.213-12.371,5.441-18.229,12.781,.264-20.775,1.257-42.795,2.989-66.56,.769-10.538-5.7-18.409-15.731-19.14-10.162-.753-21.981,6.439-24.548,17.447,.069-1.201,.141-2.396,.213-3.585,.43-6.934-2.25-12.849-7.346-16.226-5.609-3.712-13.513-3.813-20.646-.267-7.52,3.747-12.289,10.479-12.75,18.011-1.254,20.333-2.081,42.188-2.516,66.575-23.288,1.891-45.619,5.198-66.505,9.854-9.054,2.017-18.64,9.1-19.64,20.373-.528,5.958,1.767,11.807,6.143,15.646,4.083,3.577,9.529,4.942,14.925,3.732,20.671-4.607,42.39-7.833,64.709-9.616-.035,24.35,.208,48.945,.446,72.946,.093,9.448,6.466,16.005,15.526,16.005h.184c11.467-.115,25.212-10.89,25.084-24.106-.08-8.072-.155-15.906-.219-23.581,.587,7.298,2.655,15.075,9.359,19.953,5.639,4.104,12.078,5.234,18.151,3.182,6.268-2.12,11.467-7.367,15.942-14.54-.881,4.815-1.916,9.572-3.104,14.253-1.321,5.205-.096,10.525,3.357,14.598,3.835,4.525,10.076,6.998,16.155,6.499,9.834-.825,17.951-8.302,20.679-19.047,.841-3.312,1.588-6.673,2.288-10.055,5.869,11.611,14.314,21.408,25.851,26.82,5.487,2.572,11.048,3.861,16.513,3.861,4.894,0,9.713-1.033,14.335-3.101,22.864-10.237,33.914-42.06,36.756-51.571,2.113-7.068,.833-13.759-3.514-18.36-3.611-3.824-9.033-5.767-14.776-5.464Zm-29.015,37.42c-.278-.159-.664-.414-1.161-.815-4.905-3.979-8.918-10.627-11.565-18.948h.024c5.601,0,11.683,.055,17.813,.221,1.054,.037,2.1-.009,3.138-.115l-.123,.415c-3.821,13.096-6.469,17.77-8.126,19.242Z" fill="#232f27"/>
      <path d="M1288.131,187.038c-15.298-13.292-38.907-30.887-67.836-30.268-17.36,.372-33.823,8.335-45.287,21.41-1.894-4.21-5.301-6.913-8.71-8.219-7.74-2.967-18.386,.008-24.745,6.513,.406-2.99,.569-6.026,.462-9.088-.342-9.767-4.352-18.576-10.999-24.168-5.859-4.929-13.153-6.954-21.146-5.871-17.673,2.415-30.47,17.376-39.647,30.142-3.811,5.303-7.621,11.598-11.046,18.476-2.848-8.931-8.374-15.751-16.304-19.851h0c-8.853-4.585-18.56-4.909-27.348-3.655,.736-3.469,1.513-6.866,2.327-10.178,1.283-5.217,.035-10.537-3.429-14.594-3.826-4.487-10.038-6.962-16.097-6.438-11.278,.946-18.52,10.282-20.691,19.113-.967,3.929-1.843,7.868-2.673,11.812-1.528-6.176-3.805-12.056-7.217-17.383-6.281-9.815-16.201-14.677-27.951-13.675-6.766,.574-13.744,3.17-20.189,7.159,14.806-13.054,26.714-28.319,30.825-46.459,3.325-14.672,.58-30.205-8.532-42.176-14.521-19.078-40.997-27.615-60.525-29.258-36.129-3.038-71.84,4.738-95.549,20.805-16.823,11.404-26.372,27.148-27.613,45.529-1.074,15.904,4.478,32.612,15.218,46.994-2.119,.126-4.36,.413-6.763,.936-17.423,3.791-36.587,19.173-46.728,40.599-.137-.517-.244-1.041-.389-1.557-2.455-8.762-7.087-15.111-13.397-18.361-3.863-1.993-10.238-3.725-18.645-.691-8.594,3.102-14.643,9.915-18.96,16.752-.24-2.994-.488-5.984-.747-8.966-.864-9.843-8.309-16.146-17.898-15.272-3.85,.337-7.802,1.83-11.324,4.121-2.018-4.968-6.337-8.481-12.203-9.41-10.923-1.727-25.286,6.316-27.343,19.299-.036,.228-.063,.452-.099,.68,2.059-35.679,5.859-70.489,11.412-104.202,1.17,12.076-.766,25.353-2.673,38.25-.694,4.699-1.411,9.56-1.964,14.273-.792,6.79,1.481,12.717,6.241,16.262,2.943,2.192,6.585,3.301,10.499,3.301,3.074,0,6.315-.683,9.517-2.064,7.983-3.444,13.495-10.325,14.389-17.959,.536-4.59,1.195-9.205,1.894-14.093,2.487-17.39,5.059-35.37,2.113-53.212-1.67-10.118-9.96-16.009-20.112-14.329-6.924,1.143-13.773,5.663-17.59,11.882-.508-5.529-3.352-8.873-5.33-10.54-4.779-4.027-11.945-4.871-19.184-2.251-6.748,2.442-14.557,8.397-16.23,17.784-5.652,31.689-9.75,63.919-12.343,97.015,1.579-33.553,4.428-65.878,7.005-95.058,.923-10.457-5.352-18.37-15.262-19.246-11.054-.973-24.309,7.475-25.441,20.249v.003c-3.994,45.244-7.377,88.034-8.241,129.499-6.173-10.597-15.625-19.169-26.765-23.928-13.058-5.58-27.164-5.256-39.721,.901-10.617,5.206-16.348,14.684-14.603,24.149,.768,4.164,2.986,7.773,6.089,10.361-3.362,12.518-5.935,27.132-4.691,42.812-4.808-5.652-9.409-11.362-13.756-17.133-8.092-10.744-15.665-22.278-22.986-33.434-.664-1.013-1.329-2.025-1.993-3.037,10.275-4.853,20.777-11.253,31.327-19.1,17.471-12.993,63.886-47.504,50.142-85.621-10.766-29.86-50.126-34.095-66.549-34.528-35.726-.966-69.009,10.924-93.929,33.411-15.243,13.758-23.458,30.383-23.754,48.08-.293,17.516,7.599,34.938,22.226,49.056,7.276,7.02,18.536,6.613,27.124-.634-.467,4.058,.528,8.012,2.932,11.423,2.167,3.071,4.474,6.426,7.161,10.411-.547,27.579-.558,57.67-.037,91.858,.144,9.439,6.532,15.963,15.571,15.963,.096,0-.691-.003-.595-.003,11.469-.176,25.162-10.993,24.961-24.168-.134-8.689-.23-17.068-.289-25.226,18.571,23.565,40.679,46.047,65.843,66.95,3.599,2.989,7.697,4.283,11.809,4.283,7.002,0,14.031-3.76,18.656-9.313,7.342-8.82,6.949-19.971-.932-26.519h0c-1.969-1.637-3.877-3.299-5.805-4.953,5.473-1.337,10.921-3.894,16.129-7.676,7.633-5.545,13.328-12.846,17.354-21.068,.755,10.516,1.735,20.991,3.031,31.434,1.135,9.122,7.753,15.012,16.468,15.012,.815,0,1.648-.053,2.498-.157,6.415-.796,12.883-4.567,17.104-9.925,1.28,3.812,3.76,6.869,7.235,8.687,2.298,1.204,4.892,1.799,7.622,1.799,4.165,0,8.653-1.38,12.912-4.072,2.971-1.879,5.472-4.187,7.423-6.744,1.297,4.053,3.929,7.271,7.613,9.13,2.276,1.145,4.817,1.711,7.483,1.711,4.288,0,8.899-1.46,13.243-4.302,7.577-4.957,12.017-12.745,11.59-20.326-.469-8.299-.695-16.647-.723-25.055,.616,5.275,1.62,10.633,3.512,15.741,2.6,7.008,7.355,11.983,13.39,14.01,5.899,1.981,12.514,.925,18.635-2.971,4.032-2.568,7.029-5.988,9.332-9.743-.78,3.911-1.608,7.87-2.45,11.898-2.38,11.405,4.446,18.249,11.798,19.781,1.237,.259,2.53,.384,3.858,.384,10.208,0,22.362-7.409,24.769-18.919,2.823-13.506,5.486-27.308,7.153-41.087,1.365,1.748,2.813,3.405,4.434,4.845,3.088,2.741,7.416,5.591,13.104,7.196-.419,.841-.834,1.685-1.242,2.532-9.458,19.59-16.196,42.687-18.974,65.036-1.44,11.616-2.295,28.673,6.901,42.646,8.64,13.129,22.909,20.687,38.704,20.687,1.242,0,2.495-.048,3.754-.141,18.838-1.414,35.327-12.684,43.038-29.407,7.606-16.497,3.796-28.577-.737-35.806-9.073-14.466-28.434-21.682-45.912-24.12,4.269-15.164,10.606-29.333,18.587-41.461,4.852-7.372,9.925-13.63,15.512-19.125,.46-.454,1.039-.905,1.622-1.38,1.392-1.137,3.064-2.502,4.467-4.135,.812-.64,1.614-1.282,2.407-1.923,9.498-7.669,9.327-19.87,3.676-27.234-1.376-1.795-3.107-3.344-5.087-4.531,.214-.747,.385-1.513,.513-2.296,1.892-11.678,1.428-26.264-4.106-37.502,.417-.11,.833-.192,1.25-.329,8.194-2.682,15.081-10.095,16.749-18.029,1.328-6.319-.644-12.389-5.41-16.654-11.216-10.031-17.879-22.837-16.58-31.869,.81-5.617,4.74-10.035,12.014-13.501,7.283-3.47,15.544-6.128,24.261-7.892-.174,.778-.302,1.568-.379,2.364-4.796,49.319-7.865,93.316-9.383,134.505-1.074,29.15-2.295,62.189,.879,94.847,.617,6.375,3.989,11.403,9.252,13.794,2.148,.977,4.531,1.452,7.016,1.452,4.651,0,9.658-1.671,14.144-4.87,7.2-5.137,11.063-12.673,10.337-20.153-3.126-32.227-3.457-67.285-1.015-109.959l.291-.172c12.996-7.636,27.823-16.355,41.452-26.555-4.816,4.987-8.825,10.767-11.452,16.964-4.459,10.521-4.451,21.178-.171,30.296-.545,.129-1.093,.271-1.64,.426-12.388,3.489-20.983,12.199-24.202,24.527-5.474,20.968,5.204,47.986,18.234,60.993,9.442,9.423,18.979,12.08,26.735,12.08,2.573,0,4.951-.294,7.064-.729,20.396-4.202,35.764-24.747,43.599-39.748-.343,35.089,2.312,69.281,5.255,100.884,.593,6.37,3.941,11.4,9.18,13.807,2.159,.99,4.555,1.473,7.058,1.473,4.619,0,9.597-1.652,14.066-4.814,7.246-5.129,11.154-12.67,10.454-20.169-1.686-18.103-3.668-41.429-4.547-65.553,16.677-5.502,30.789-16.9,40.444-31.65,1.625,7.726,4.894,14.923,10.32,21.101,6.105,6.95,13.786,10.772,22.212,11.052,17.299,.51,33.698-13.344,47.438-27.036,2.594-2.583,5.199-5.272,7.812-8.056,.697,5.839,1.646,11.555,2.859,17.211,.297,1.385,.598,3.533,.916,5.808,1.635,11.688,3.874,27.694,15.744,33.466,2.883,1.404,5.904,2.103,8.918,2.103,2.861,0,5.712-.632,8.424-1.9,8.691-4.07,13.708-13.356,15.362-20.071,2.541-10.311,3.615-20.692,4.654-30.73,1.229-11.867,2.388-23.078,5.784-33.84,4.034-12.774,8.373-17.822,16.011-18.622,15.83-1.646,32.786,11.287,44.157,21.17,9.404,8.175,22.706,4.236,30.131-4.287,7.681-8.822,7.569-20.169-.27-26.982Zm-810.376,33.574c-.536-7.468,.534-15.057,2.26-22.288,1.687,2.606,3.015,5.547,3.763,8.523,3.245,12.924,1.481,28.428-2.204,32-1.22-2.263-3.063-7.716-3.819-18.235Zm5.841,28.085l-3.112-9.17c.019-.005,.04-.009,.061-.013l3.05,9.184h0Zm-81.127-171.017c10.898-.18,21.06,1.538,29.405,5.024h0c6.09,2.544,9.212,5.396,9.284,8.475,.229,9.835-18.781,28.044-42.678,42.127,.99-19.221,2.308-37.598,3.989-55.626Zm-53.789,60.13c-10.079-9.728-14.282-18.42-12.497-25.835,1.94-8.064,10.685-16.574,24.26-23.747-1.735,20.236-3.034,41.005-3.941,62.947-.881,.582-1.751,1.225-2.591,1.924,.809-5.599-.915-11.124-5.23-15.288Zm413.082,196.186c-.897-1.171-1.484-2.637-1.855-4.232,5.092,.974,9.465,2.594,12.625,4.739,1.665,1.131,2.212,2.527,2.167,3.144-.035,.435-.843,.971-1.526,1.3-2.17,1.022-8.766-1.497-11.411-4.95Zm8.272-132.082c-1.324,.817-2.591,1.557-3.84,2.248-2.362,1.302-8.451,4.663-10.84,4.746-.259-.346-.755-1.151-1.305-2.787-3.365-9.992,2.604-24.675,12.579-31.334,.31,2.877,.275,7.296-.523,12.223-.971,5.996,.555,11.289,3.928,14.904Zm139.613-113.904c-3.456,9.968-15.096,19.312-22.795,25.495-5.831,4.679-11.926,9.042-17.786,12.985,1.422-16.261,3.013-32.489,4.569-48.331l1.465-15.012c.107-1.086,.133-2.148,.088-3.182,12.35,1.63,27.934,7.844,33.415,16.537,2.215,3.512,2.546,7.169,1.043,11.508Zm24.804,84.998c.483,1.524,.846,3.317,1.121,5.21-.512-1.518-1.236-2.983-2.167-4.366,.291-.266,.643-.554,1.046-.845Zm1.892,13.966c.069,1.405,.115,2.711,.155,3.84l.101,2.733c.259,5.936,.147,11.601-.331,16.965-2.783-3.3-5.676-6.142-8.662-8.515,4.988-4.251,7.966-9.627,8.737-15.023Zm70.303,47.721c.347-11.044,1.027-21.566,2.049-31.785,3.853-1.229,8.974-2.575,10.808-1.582,.229,.259,1.3,1.965-.029,10.196-1.038,6.425-4.064,16.428-12.828,23.171Z" fill="#232f27"/>
    </g>
  </g>
  <g id="b" data-name="outline_wit">
    <path d="M115.813,77.238c4.399,0,8.06,2.575,7.675,8.817-1.578,25.606-2.317,51.151-2.631,76.692,4.727-.124,9.441-.174,14.145-.174,1.362,0,2.723,.004,4.083,.012,.295-22.904,1.386-45.791,3.053-68.652,.493-6.761,7.887-11.517,13.86-11.516,4.391,0,8.014,2.572,7.56,8.807-2.456,33.681-3.712,67.394-2.775,101.155,.04,1.417,.092,2.834,.134,4.251,6.811-17.428,18.524-41.607,31.366-41.607,3.219,0,6.512,1.522,9.813,5.05,9.663,10.327,6.98,33.062,6.667,45.803-.435,17.694-2.704,35.447-7.066,52.637-1.414,5.571-5.658,11.238-12.102,11.779-.262,.022-.524,.033-.788,.033-4.908,0-9.885-3.768-8.531-9.103,4.175-16.45,6.455-33.433,6.989-50.365,.191-6.059,.118-12.112-.307-18.161-.112-1.592-.56-3.583-.972-5.604-.554,.892-1.039,1.716-1.329,2.374-3.126,7.082-14.927,60.99-32.653,60.99-2.056,0-4.196-.727-6.407-2.336-7.134-5.191-5.315-18.826-5.536-26.32-.288-9.75-.698-19.494-.896-29.246-.061-2.999-.089-5.998-.118-8.997-2.963-.055-5.935-.082-8.913-.082-3.142,0-6.292,.029-9.448,.085-.095,25.34,.138,50.691,.391,76.113,.074,7.41-9.212,14.328-15.582,14.328-3.288,0-5.801-1.845-5.847-6.418-.277-27.799-.55-55.52-.413-83.232-25.848,1.538-51.745,5.022-76.531,10.547-.613,.137-1.205,.201-1.772,.201-4.86,0-7.949-4.726-7.546-9.271,.547-6.165,6.36-10.5,12.101-11.779,24.024-5.355,48.964-8.668,73.944-10.293,.34-24.975,1.093-49.956,2.635-74.99,.417-6.77,7.764-11.527,13.745-11.526m.001-13.555v13.555s0-13.555,0-13.555c-12.451-.001-26.382,9.742-27.276,24.248-1.196,19.418-2.004,40.209-2.454,63.248-22.21,1.946-43.532,5.178-63.544,9.639C10.004,163.611,.9,173.181-.115,184.629c-.563,6.342,1.544,12.634,5.78,17.262,3.991,4.36,9.413,6.762,15.269,6.762,1.568,0,3.156-.177,4.721-.526,19.202-4.28,39.323-7.358,59.991-9.183-.004,23.119,.226,46.263,.45,68.772,.114,11.495,8.274,19.838,19.401,19.838,7.275,0,15.145-3.562,21.052-9.529,5.279-5.332,8.15-11.898,8.084-18.49-.01-1.027-.02-2.049-.031-3.068,.904,.927,1.907,1.801,3.02,2.611,4.496,3.272,9.336,4.931,14.383,4.931,5.859,0,10.824-2.207,14.967-5.419-1.28,5.888,.076,11.926,3.767,16.671,4.197,5.395,10.951,8.616,18.068,8.616,.641,0,1.287-.027,1.922-.08,11.504-.966,20.966-9.583,24.106-21.952,4.49-17.692,7.006-36.411,7.479-55.638,.04-1.639,.128-3.555,.22-5.583,.707-15.513,1.676-36.759-10.54-49.815-7.226-7.723-14.708-9.344-19.712-9.344-6.364,0-12.327,2.353-18.003,7.138,.415-17.763,1.345-36.462,2.798-56.395,.614-8.42-2.618-13.802-5.437-16.835-3.905-4.2-9.459-6.513-15.641-6.513-7.108,0-14.737,3.192-20.143,8.641-1.117-3.263-2.833-5.674-4.413-7.355-3.919-4.168-9.469-6.464-15.628-6.465h0Z" fill="#fef0df"/>
    <path d="M250.586,142.876c3.453,0,7.072,.859,10.825,2.787,16.033,8.237,17.79,35.237,18.26,50.685,.244,8.006-6.194,14.39-14.35,14.39-.142,0-.285-.002-.427-.006-5.993-.163-11.99-.224-17.987-.224-4.078,0-8.156,.028-12.233,.072,2.115,13.924,7.635,28.005,17.589,36.078,2.768,2.245,5.255,3.201,7.494,3.201,10.206,0,15.221-19.899,17.776-28.449,1.713-5.732,7.308-8.74,12.238-8.74,5.45,0,10.089,3.675,7.778,11.408-5.367,17.957-19.619,47.776-41.832,47.776-3.885,0-8.017-.913-12.383-2.962-26.407-12.386-33.765-53.808-30.503-78.633,2.127-16.186,16.939-47.384,37.755-47.383m-16.565,46.893c6.097-.08,12.196-.131,18.295-.131,1.608,0,3.216,.004,4.824,.011-.763-5.773-2.002-11.484-4.086-16.712-2.114-5.301-4.373-7.367-6.571-7.366-5.865,.002-11.279,14.732-12.231,21.979-.094,.718-.158,1.474-.231,2.219m16.566-60.448s0,0,0,0c-13.96,0-26.807,8.174-37.153,23.64-7.194,10.755-12.575,24.37-14.042,35.532-2.04,15.522-.306,34.148,4.637,49.824,6.564,20.816,18.166,35.632,33.549,42.848,6.005,2.816,12.108,4.244,18.14,4.244,17.987,0,30.711-12.382,38.219-22.769,9.595-13.276,14.806-28.676,16.6-34.681,3.051-10.208-.507-17.12-2.899-20.332-3.404-4.57-8.579-7.493-14.519-8.291,.102-1.121,.136-2.256,.102-3.401-.267-8.76-.93-20.202-3.717-31.016-3.954-15.344-11.322-25.879-21.899-31.313-5.533-2.843-11.26-4.284-17.018-4.285h0Zm8.117,104.854c-2.444-2.59-4.59-6.019-6.349-10.093,3.578,.025,6.954,.075,10.196,.151-.699,2.236-1.492,4.576-2.397,6.776-.533,1.295-1.02,2.336-1.45,3.167h0Z" fill="#fef0df"/>
    <path d="M394.163,31.993c1.224,0,2.45,.016,3.678,.049,20.689,.547,49.885,6.436,57.708,28.133,10.713,29.715-26.339,59.34-46.819,74.567-10.996,8.176-23.843,16.105-37.399,21.46-.045,1.613-.091,3.226-.131,4.84,9.552,14.414,18.795,29.023,29.225,42.868,19.978,26.519,43.297,50.128,68.964,71.472,7.634,6.348-2.355,18.701-11.408,18.701-2.017,0-3.988-.613-5.706-2.042-26.587-22.109-50.608-46.657-71.069-74.293-3.645-4.923-7.163-9.925-10.612-14.971-.084,18.363,.048,36.74,.329,55.134,.113,7.416-9.15,14.337-15.533,14.337-3.297,0-5.826-1.848-5.896-6.427-.482-31.562-.575-63.082,.099-94.57-2.953-4.406-5.934-8.794-8.994-13.133-4.426-6.276,3.674-14.468,9.861-16.387,1.065-28.086,2.852-56.149,5.614-84.196-3.693,1.192-7.26,2.558-10.605,4.129-13.437,6.309-30.536,17.367-34.192,32.553-3.288,13.657,5.79,26,15.186,35.068,7.097,6.849-2.671,18.998-11.325,18.998-2.076,0-4.089-.7-5.789-2.34-25.978-25.069-25.855-58.485,1.292-82.979,22.898-20.66,52.651-30.97,83.522-30.97m-22.088,102.326c35.511-16.824,89.444-58.548,47.58-76.041-9.51-3.974-20.416-5.79-31.476-5.79-3.498,0-7.013,.182-10.502,.535-2.709,27.085-4.5,54.18-5.602,81.296m22.088-115.881c-35.086,0-67.973,12.239-92.603,34.461-16.064,14.494-24.722,32.092-25.037,50.89-.312,18.602,8.003,37.036,23.413,51.908,4.104,3.96,9.502,6.141,15.202,6.141,3.833,0,7.687-.994,11.245-2.76,.6,2.425,1.651,4.743,3.137,6.852,1.989,2.82,4.037,5.791,6.432,9.333-.524,27.307-.528,57.054-.013,90.765,.175,11.459,8.354,19.776,19.449,19.776,7.299,0,15.177-3.575,21.075-9.564,5.267-5.348,8.113-11.931,8.012-18.536-.073-4.798-.135-9.496-.185-14.11,17.186,20.63,37.066,40.366,59.317,58.869,4.072,3.386,9.042,5.175,14.373,5.175,11.084,0,22.383-8.135,26.282-18.924,3.188-8.819,.809-17.921-6.207-23.755-26.056-21.667-48.532-44.951-66.804-69.206-7.865-10.441-15.27-21.689-22.43-32.595,9.223-4.679,18.595-10.548,27.996-17.537,11.625-8.643,26.402-20.345,37.578-34.228,6.785-8.429,11.548-16.862,14.155-25.064,3.369-10.598,3.285-20.944-.25-30.75-11.577-32.107-52.881-36.631-70.102-37.086-1.342-.035-2.7-.053-4.036-.053h0Zm-7.368,92.154c.864-15.26,1.943-30.016,3.256-44.528,9.037,.196,17.43,1.819,24.377,4.722,4.5,1.88,6.88,3.934,6.904,4.992,.063,2.687-3.354,10.252-16.558,21.561-5.257,4.502-11.439,9.042-17.98,13.254h0Zm-49.019,11.019c-.581-.725-1.214-1.42-1.899-2.081-9.02-8.704-12.862-16.154-11.421-22.141,1.361-5.65,7.132-11.887,16.023-17.577-1.088,13.603-1.985,27.476-2.703,41.799h0Z" fill="#fef0df"/>
    <path d="M455.825,142.7c18.825,0,35.955,14.597,41.694,32.671,7.436,23.416,4.25,56.418-17.32,72.106-6.476,4.71-13.058,6.899-19.177,6.899-11.912,0-22.066-8.298-26.253-22.452-6.547-22.131-3.073-43.689,3.5-64.97-3.897-.029-7.495-2.709-8.226-6.669-1.141-6.179,4.266-11.207,9.344-13.697,5.468-2.681,11.022-3.888,16.439-3.888m9.48,90.991c.872,0,1.804-.154,2.799-.485,14.344-4.766,12.254-33.529,9.573-44.208-2.351-9.366-9.191-19.372-18.188-23.36-4.356,12.995-7.862,26.509-6.882,40.174,.494,6.883,2.528,27.878,12.698,27.878m-9.48-104.546c-7.733,0-15.271,1.774-22.406,5.272-12.22,5.992-18.778,17.112-16.706,28.329,.776,4.205,2.763,7.945,5.567,10.896-4.525,17.681-7.288,39.212-.509,62.127,2.79,9.43,7.797,17.399,14.481,23.044,7.062,5.965,15.627,9.118,24.77,9.118,9.223,0,18.612-3.282,27.15-9.491,26.639-19.374,31.366-58.517,22.267-87.171-3.631-11.437-10.865-21.941-20.368-29.577-10.069-8.091-22.231-12.547-34.245-12.547h0Z" fill="#fef0df"/>
    <path d="M533.523,20.776c4.38,0,7.953,2.565,7.404,8.79-6.591,74.647-12.902,152.283-3.634,227.004,.926,7.465-7.928,14.43-14.565,14.43-3.441,0-6.287-1.873-6.863-6.52-9.473-76.375-3.093-155.917,3.643-232.205,.596-6.746,8.054-11.499,14.016-11.499m0-13.555c-5.921,0-12.191,2.174-17.2,5.966-6.039,4.57-9.703,10.926-10.318,17.896-7.451,84.384-12.864,160.316-3.593,235.066,1.366,11.01,9.53,18.407,20.315,18.407,7.686,0,15.947-3.945,21.558-10.296,5.011-5.671,7.305-12.546,6.46-19.358-9.409-75.856-2.149-158.077,3.685-224.143,.747-8.462-2.441-13.893-5.248-16.958-3.885-4.243-9.446-6.579-15.658-6.579h0Z" fill="#fef0df"/>
    <path d="M580.36,18.848c4.308,0,7.589,2.507,6.501,8.605-13.544,75.909-17.598,152.642-14.452,229.578,.304,7.44-8.857,14.377-15.3,14.377-3.334,0-5.94-1.859-6.129-6.467-3.216-78.655,.612-157.16,14.461-234.779,1.179-6.611,9.014-11.314,14.918-11.314m0-13.555c-11.663,0-25.785,8.598-28.263,22.488-13.347,74.806-18.142,152.562-14.66,237.713,.469,11.462,8.558,19.468,19.673,19.468,7.304,0,15.423-3.731,21.188-9.736,5.209-5.427,7.928-12.086,7.656-18.749-3.24-79.226,1.556-155.48,14.253-226.643,1.623-9.098-1.87-14.918-4.097-17.577-3.76-4.491-9.354-6.964-15.749-6.964h0Z" fill="#fef0df"/>
    <path d="M607.316,134.825c4.325,0,7.671,2.523,6.699,8.658-5.99,37.817-8.526,75.301-6.368,113.548,.42,7.451-8.681,14.395-15.16,14.395-3.355,0-6.008-1.864-6.269-6.485-2.255-39.963,.115-79.215,6.377-118.749,1.053-6.649,8.804-11.367,14.721-11.367m0-13.555c-11.781,0-25.878,8.718-28.109,22.801-6.641,41.931-8.775,81.717-6.522,121.633,.64,11.35,8.783,19.277,19.803,19.277,7.374,0,15.519-3.771,21.257-9.841,5.174-5.474,7.815-12.176,7.437-18.873-1.998-35.413,.037-71.611,6.223-110.663,1.064-6.72-.483-12.918-4.357-17.454-3.789-4.436-9.375-6.88-15.73-6.88h0Z" fill="#fef0df"/>
    <path d="M635.617,140.274c3.397,0,6.14,1.871,6.546,6.511,1.526,17.425,2.585,34.876,3.813,52.32,2.32-9.178,4.664-18.381,8.588-27.052,4.087-9.031,9.949-21.076,20.241-24.792,2.029-.733,3.894-1.069,5.604-1.069,7.279,0,11.723,6.095,13.833,13.626,8.917,31.818,2.206,68.266-4.38,99.814-1.366,6.547-9.328,11.222-15.213,11.222-4.283,0-7.467-2.478-6.207-8.513,3.307-15.843,6.635-31.713,7.515-47.895,.511-9.385,.104-18.774-.616-28.139-.278-3.618-.418-7.408-.938-11.085-.163,.295-.293,.539-.357,.684-2.055,4.646-3.61,9.453-4.987,14.324-3.249,11.487-5.831,23.146-9.113,34.626-2.421,8.467-4.924,19.999-13.063,25.188-2.617,1.668-5.095,2.437-7.35,2.437-4.65,0-8.35-3.272-10.35-8.673-3.602-9.73-3.522-21.142-4.255-31.321-1.388-19.267-2.509-38.545-4.195-57.791-.653-7.464,8.331-14.421,14.882-14.421m.002-13.555h0c-7.516,0-15.714,3.85-21.395,10.049-5.101,5.566-7.584,12.353-6.993,19.109,1.133,12.933,2.027,26.166,2.892,38.963,.412,6.098,.839,12.404,1.286,18.62,.131,1.818,.235,3.692,.345,5.676,.51,9.176,1.089,19.576,4.718,29.377,4.001,10.808,12.838,17.522,23.062,17.522,4.964,0,9.888-1.535,14.637-4.563,.253-.161,.501-.324,.746-.491-1.295,8.335,1.872,13.771,3.957,16.336,3.716,4.572,9.319,7.09,15.777,7.09,11.488,0,25.645-8.414,28.482-22.007,7.33-35.117,13.69-72.247,4.163-106.241-4.128-14.729-14.179-23.523-26.886-23.523-3.329,0-6.763,.631-10.208,1.874-5.951,2.149-10.752,5.808-14.651,10.03-1.39-10.546-9.45-17.821-19.932-17.822h0Z" fill="#fef0df"/>
    <path d="M759.721,126.823c21.343,.003,24.789,25.524,21.873,43.533-1.075,6.642-8.842,11.358-14.756,11.358-4.322,0-7.656-2.52-6.664-8.649,1.281-7.915,2.268-24.918-6.542-24.918-1.826,0-4.073,.731-6.826,2.424-13.632,8.387-22.557,27.901-17.424,43.146,2.337,6.941,5.95,9.371,10.255,9.371,4.679,0,10.176-2.87,15.742-5.943,4.304-2.376,8.421-5.102,12.429-7.923,1.017-.716,5.171-3.894,5.732-4.267,.585-.444,1.16-.901,1.754-1.332,2.207-1.603,4.344-2.283,6.275-2.283,7.711,0,12.11,10.855,4.393,17.095-1.051,.85-2.122,1.701-3.203,2.55-.007,.01-.009,.013-.016,.023-1.423,1.965-4.235,3.781-5.973,5.494-6.389,6.295-11.894,13.256-16.791,20.706-10.8,16.431-18.448,35.888-22.581,55.498,27.468,.545,64.948,14.496,49.908,47.158-6.957,15.108-22.606,23.916-37.967,23.916-11.657,0-23.151-5.076-30.543-16.323-6.978-10.615-6.874-24.04-5.374-36.136,2.6-20.969,8.851-42.921,18.063-62.022,2.553-5.295,5.385-10.575,8.5-15.736-2.181,.414-4.254,.611-6.224,.611-19.391,0-28.542-19.099-27.214-38.226,1.658-23.889,20.969-52.833,46.201-58.322,2.514-.547,4.832-.803,6.973-.803m-3.291,206.508c1.922,0,3.771-.351,5.428-1.144,9.935-4.749,8.609-15.766,.621-21.188-7.736-5.252-18.539-7.252-28.13-7.44-.53,7.083-.249,14.97,4.232,20.825,3.609,4.715,11.177,8.947,17.85,8.947m3.288-220.063c-3.143,0-6.457,.374-9.852,1.113-14.916,3.245-29.086,12.965-39.899,27.368-9.761,13.003-15.937,28.771-16.943,43.261-1.112,16.02,3.511,30.847,12.685,40.679,3.742,4.011,8.094,7.059,12.917,9.085-9.287,19.668-15.898,42.643-18.656,64.88-1.515,12.222-2.387,30.21,7.499,45.249,9.371,14.256,24.632,22.433,41.87,22.433,10.229,0,20.325-2.862,29.197-8.277,9.327-5.693,16.618-13.827,21.083-23.524,8.321-18.07,4.063-31.445-.973-39.484-5.581-8.907-15.279-16.115-28.046-20.844-5.019-1.859-10.487-3.327-16.129-4.354,4.104-13.202,9.818-25.52,16.836-36.198,4.692-7.139,9.592-13.189,14.977-18.496,.216-.212,.901-.771,1.353-1.141,1.415-1.157,3.094-2.53,4.663-4.293,.735-.582,1.464-1.165,2.184-1.748,8.045-6.505,11.082-16.817,7.738-26.272-1.458-4.121-4.013-7.618-7.247-10.188,1.165-7.2,3.913-31.884-9.533-47.684-6.437-7.564-15.331-11.563-25.72-11.564h-.005Zm-17.689,75.47c-1.68-6.015,.59-14.087,5.092-20.206-.089,.771-.197,1.562-.328,2.367-.854,5.277-.095,10.235,2.141,14.322-.035,.019-.07,.039-.104,.058-1.41,.778-4.447,2.455-6.801,3.459h0Z" fill="#fef0df"/>
    <path d="M850.407,12.96c4.846,0,9.604,.202,14.194,.588,29.127,2.45,65.156,20.179,61.419,53.814-4.356,39.21-53.703,66.357-85.27,85.022-2.398,39.082-2.981,78.246,.74,116.616,.724,7.466-8.226,14.425-14.8,14.425-3.408,0-6.179-1.872-6.629-6.515-3.006-31.001-1.982-62.49-.837-93.558,1.647-44.721,5.007-89.379,9.332-133.925,.654-6.737,8.149-11.487,14.105-11.487,4.374,0,7.918,2.561,7.314,8.778-2.652,27.312-5.503,55.076-7.66,82.969,12.129-7.446,24.063-15.257,35.108-24.123,9.851-7.908,21.656-17.684,25.881-29.873,8.724-25.173-23.666-38.731-43.579-40.969-4.798-.539-9.749-.812-14.774-.812-18.5,0-37.963,3.695-54.051,11.37-29.639,14.14-17.188,43.898,2.267,61.323,7.375,6.605-2.494,18.852-11.35,18.852-2.051,0-4.048-.657-5.764-2.194-28.382-25.42-35.817-66.788-.766-90.541,20.681-14.015,49.231-19.76,75.123-19.76m0-13.555c-18.72,0-54.36,2.87-82.728,22.094-17.597,11.924-28.006,29.14-29.312,48.475-1.504,22.281,9.202,45.976,28.639,63.385,4.128,3.697,9.249,5.652,14.808,5.652,10.922,0,21.821-7.771,25.914-18.478,3.353-8.768,1.237-17.975-5.52-24.027-10.116-9.06-16.411-20.753-15.308-28.434,.224-1.557,.904-6.297,9.835-10.557,5.501-2.625,11.585-4.772,18.038-6.398-4.63,48.179-7.607,91.3-9.096,131.737-1.078,29.268-2.301,62.44,.892,95.365,1.071,11.047,9.345,18.762,20.121,18.762,7.56,0,15.774-3.875,21.437-10.114,5.077-5.593,7.512-12.403,6.855-19.175-3.054-31.5-3.418-65.756-1.121-107.297,15.741-9.263,34.947-20.699,51.041-34.64,21.049-18.233,32.364-36.844,34.591-56.895,1.625-14.63-2.464-28.382-11.828-39.771C912.141,10.207,885.496,1.703,865.737,.041c-5.012-.422-10.17-.635-15.33-.635h0Zm7.759,103.708c1.229-13.546,2.552-27.032,3.849-40.249,.454-4.625,.906-9.239,1.354-13.841,10.665,2.205,22.337,7.501,26.468,14.052,1.6,2.537,1.791,4.906,.657,8.176-3.09,8.914-14.204,17.837-21.559,23.741-3.525,2.83-7.154,5.545-10.77,8.121h0Z" fill="#fef0df"/>
    <path d="M926.764,124.191c6.609,0,12.668,2.76,16.882,9.339,7.743,12.091,8.605,28.811,8.709,42.624,.123,16.267-1.627,33.147-7.708,48.425-6.851,17.211-25.291,42.407-45.351,42.407-6.561,0-13.297-2.697-19.855-9.251-15.994-15.984-28.803-60.737,1.746-69.353,2.472-.697,4.862-1.021,7.171-1.021,16.964,.001,29.49,17.489,36.996,32.881,.646-1.944,1.188-3.737,1.612-5.219,3.418-11.968,4.352-25.019,3.817-37.389-.364-8.428-.252-22.916-6.168-29.847-1.511-1.77-1.811-2.419-2.362-2.419-.498,0-1.201,.53-3.188,1.242-6.612,2.369-15.388,9.504-9.676,16.492,6.134,7.505-3.445,19.397-11.455,19.397-2.097,0-4.087-.815-5.659-2.739-18.138-22.191,11.505-55.571,34.491-55.571m-21.273,121.421c.791,0,1.607-.103,2.447-.326,.869-.231,1.699-.614,2.511-1.059-.3-.467-.593-.949-.823-1.541-5.309-13.674-12.375-26.551-25.39-33.15-.009,.097-.017,.194-.026,.291,.74,1.871,.535,5.444,.948,7.447,1.132,5.492,3.262,10.871,5.942,15.821,2.719,5.022,7.656,12.516,14.391,12.516m21.273-134.976c-18.728,0-39.814,14.686-49.048,34.16-5.083,10.72-5.947,21.61-2.717,31.329-12.403,4.307-21.008,13.628-24.362,26.489-5.814,22.295,5.45,50.949,19.221,64.711,6.034,6.03,16.039,13.218,29.437,13.218,12.795,0,25.758-6.571,37.488-19.002,8.383-8.884,16.031-20.827,20.457-31.948,5.992-15.053,8.828-32.566,8.669-53.54-.13-17.287-1.535-35.289-10.849-49.832-6.437-10.05-16.486-15.584-28.297-15.584h0Z" fill="#fef0df"/>
    <path d="M983.99,124.38c4.926,0,9.836,3.766,8.523,9.103-2.072,8.417-3.792,16.872-5.238,25.354,6.567-2.072,13.801-3.816,20.813-3.816,5.024,0,9.935,.896,14.4,3.207,11.096,5.744,13.771,18.211,13.213,29.49-1.457,29.478-21.254,58.253-51.315,66.056-1.078,.28-2.059,.41-2.985,.462,.635,24.725,2.538,49.461,4.824,74.03,.695,7.465-8.269,14.423-14.834,14.423-3.403,0-6.163-1.872-6.595-6.513-6.184-66.458-9.823-134.485,6.297-199.984,1.372-5.575,5.691-11.241,12.102-11.779,.265-.022,.53-.033,.796-.033m-2.787,110.072c.154-.046,.285-.12,.442-.161,18.152-4.712,29.013-18.89,31.895-36.713,1.084-6.705,2.124-16.468-5.012-20.312-1.899-1.023-4.1-1.425-6.427-1.425-5.853,0-12.499,2.544-17.109,4.153-.259,.09-.503,.155-.753,.23-2.066,17.998-2.956,36.097-3.036,54.227m2.787-123.627h0c-.644,0-1.294,.027-1.931,.081-11.422,.959-21.119,9.819-24.129,22.048-17.18,69.806-12.431,142.15-6.631,204.479,1.031,11.077,9.293,18.813,20.092,18.813,7.542,0,15.749-3.865,21.419-10.087,5.087-5.582,7.542-12.382,6.912-19.147-1.613-17.331-3.498-39.462-4.419-62.477,14.248-5.289,26.691-14.696,36.312-27.526,10.508-14.014,16.768-31.28,17.625-48.619,.981-19.853-6.306-34.839-20.52-42.197-6.056-3.135-12.998-4.725-20.632-4.725-1.174,0-2.36,.036-3.565,.108,.375-1.636,.759-3.254,1.152-4.851,1.505-6.117,.16-12.444-3.692-17.358-4.191-5.348-10.918-8.54-17.993-8.54h0Zm12.821,79.525c1.394-.393,2.762-.712,3.956-.861-.004,1.202-.146,3.063-.608,5.924-.585,3.62-1.87,8.509-4.679,13.131,.33-6.203,.772-12.254,1.331-18.194h0Z" fill="#fef0df"/>
    <path d="M1097.938,130.264c11.394,0,17.977,10.221,18.353,20.977,1.012,28.968-27.036,55.35-54.259,63.905,.25,5.385,1.769,10.399,5.513,14.263,1.325,1.368,2.581,1.931,3.842,1.931,2.809,0,5.642-2.796,9.316-5.714,8.689-6.903,16.281-15.352,23.565-23.61,9.579-10.86,18.617-22.245,27.066-33.963,2.569-3.562,7.813-6.081,12.206-6.081,4.316,0,7.81,2.432,7.132,8.696-1.315,12.159-2.195,24.548-1.758,36.785,2.347-10.67,5.659-21.168,11.032-30.59,9.034-15.842,25.657-26.494,44.416-26.897,.423-.009,.843-.014,1.264-.014,23.032,0,43.382,13.513,59.927,27.907,7.478,6.506-2.435,18.794-11.369,18.794-2.039,0-4.027-.64-5.745-2.135-12.537-10.907-29.671-23.695-47.627-23.694-1.277,0-2.56,.065-3.844,.2-14.577,1.53-20.364,13.126-24.215,25.341-6.723,21.322-5.326,43.759-10.594,65.167-1.553,6.31-7.098,14.611-14.364,14.611-1.489,0-3.05-.348-4.663-1.134-9.149-4.453-9.657-24.411-11.41-32.597-2.821-13.174-4.012-26.147-4.079-39.213-7.258,8.761-14.87,17.237-22.885,25.232-9.544,9.519-25.054,24.225-39.522,24.225-5.602,0-11.049-2.206-15.931-7.771-20.505-23.374-2.722-66.583,12.819-88.233,7.66-10.672,18.817-24.247,33.046-26.195,.952-.13,1.874-.193,2.767-.193m-32.345,63.472c11.203-4.647,20.651-14.044,25.869-24.515,2.377-4.769,5.093-16.811,.824-16.811-1.135,0-2.764,.852-5.025,2.919-9.289,8.491-15.868,20.5-19.692,32.198-.622,1.903-1.305,4.003-1.976,6.209m32.346-77.027h0s0,0,0,0c-1.513,0-3.062,.107-4.606,.318-19.117,2.616-32.605,18.326-42.219,31.72-10.075,14.036-18.343,32.092-22.117,48.301-5.445,23.389-1.946,43.022,10.12,56.776,7.109,8.104,16.142,12.387,26.121,12.387,18.364,0,35.123-14.247,49.095-28.183,.779-.776,1.559-1.563,2.339-2.358,.519,3.219,1.118,6.408,1.797,9.58,.267,1.248,.558,3.329,.866,5.533,1.654,11.843,4.155,29.74,17.867,36.414,3.41,1.66,6.974,2.501,10.596,2.501,14.044,0,24.478-12.54,27.526-24.927,2.601-10.571,3.688-21.086,4.739-31.255,1.206-11.667,2.344-22.686,5.62-33.074,4.398-13.947,8.517-15.497,12.701-15.936,.794-.083,1.611-.126,2.43-.126,13.732,0,28.68,11.623,38.729,20.366,4.109,3.574,9.172,5.464,14.643,5.464,10.877,0,22.079-8.018,26.057-18.652,3.288-8.788,1.069-17.955-5.791-23.924-15.412-13.409-39.315-31.235-68.824-31.236-.518,0-1.035,.005-1.555,.017-16.725,.36-32.66,7.353-44.552,19.015-.113-.132-.225-.261-.337-.386-3.835-4.273-9.391-6.626-15.643-6.626-4.653,0-9.445,1.307-13.675,3.569-.005-.407-.015-.812-.029-1.219-.295-8.429-3.137-16.424-8.003-22.512-5.951-7.445-14.438-11.546-23.896-11.547h0Z" fill="#fef0df"/>
    <path d="M617.607,20.986c3.486,0,6.441,1.868,7.207,6.505,3.485,21.112-1.616,43.617-4.071,64.602-.785,6.713-8.363,11.455-14.306,11.455-4.358,0-7.838-2.552-7.114-8.746,2.236-19.12,7.236-40.17,4.062-59.402-1.23-7.448,7.489-14.415,14.222-14.415m0-13.555c-7.88,0-16.212,4.05-21.744,10.57-4.907,5.784-6.986,12.748-5.853,19.608,2.072,12.548-.086,27.134-2.172,41.24-.699,4.725-1.421,9.61-1.979,14.378-.998,8.532,2.108,14.048,4.888,17.173,3.847,4.323,9.418,6.703,15.689,6.703,5.86,0,12.112-2.139,17.152-5.87,6.046-4.475,9.817-10.713,10.618-17.566,.531-4.541,1.188-9.133,1.883-13.995,2.528-17.679,5.141-35.961,2.099-54.39-1.763-10.678-10.034-17.852-20.581-17.852h0Z" fill="#fef0df"/>
  </g>
  <g id="c" data-name="outline_rood">
    <path d="M115.813,77.238c4.399,0,8.06,2.575,7.675,8.817-1.578,25.606-2.317,51.151-2.631,76.692,4.728-.124,9.442-.174,14.147-.174,1.361,0,2.722,.004,4.081,.012,.295-22.904,1.386-45.791,3.053-68.652,.493-6.761,7.887-11.516,13.86-11.516,4.391,0,8.014,2.572,7.56,8.807-2.456,33.681-3.712,67.394-2.775,101.155,.04,1.417,.092,2.834,.134,4.251,6.811-17.428,18.524-41.607,31.366-41.607,3.219,0,6.512,1.522,9.813,5.05,9.663,10.327,6.98,33.062,6.667,45.803-.435,17.694-2.704,35.447-7.066,52.637-1.414,5.572-5.658,11.238-12.102,11.779-.262,.022-.524,.033-.787,.033-4.909,0-9.885-3.768-8.531-9.103,4.175-16.45,6.455-33.433,6.989-50.365,.191-6.059,.118-12.112-.307-18.161-.112-1.592-.56-3.583-.972-5.603-.554,.892-1.039,1.716-1.329,2.374-3.126,7.082-14.927,60.99-32.653,60.99-2.056,0-4.196-.727-6.407-2.336-7.134-5.191-5.315-18.826-5.536-26.32-.288-9.75-.698-19.494-.896-29.246-.061-2.999-.089-5.998-.118-8.997-2.963-.055-5.933-.082-8.911-.082-3.142,0-6.292,.029-9.449,.085-.095,25.34,.138,50.691,.391,76.113,.074,7.41-9.212,14.328-15.582,14.328-3.288,0-5.801-1.845-5.847-6.418-.277-27.799-.55-55.52-.413-83.232-25.848,1.538-51.745,5.022-76.531,10.547-.613,.137-1.205,.201-1.772,.201-4.86,0-7.949-4.726-7.546-9.271,.547-6.165,6.36-10.5,12.101-11.779,24.024-5.355,48.964-8.668,73.944-10.293,.34-24.975,1.093-49.956,2.635-74.99,.417-6.77,7.764-11.527,13.745-11.526m0-5.809v5.809s0-5.809,0-5.809c-4.298,0-8.858,1.616-12.51,4.435-4.24,3.273-6.738,7.728-7.035,12.543-1.309,21.255-2.151,44.18-2.566,69.924-24.376,1.822-47.724,5.197-69.479,10.046-10.657,2.376-16.029,10.218-16.624,16.936-.366,4.122,1.047,8.364,3.778,11.348,2.506,2.738,5.899,4.245,9.555,4.245,1.002,0,2.023-.114,3.036-.34,22.138-4.935,45.467-8.298,69.434-10.013-.073,25.853,.186,51.865,.437,77.085,.072,7.279,4.756,12.169,11.656,12.169,5.173,0,11.131-2.771,15.548-7.232,3.813-3.851,5.888-8.455,5.843-12.963-.248-24.902-.45-47.557-.407-70.317,1.232-.009,2.453-.013,3.656-.013,1.058,0,2.114,.003,3.165,.01,.015,1.125,.034,2.254,.056,3.377,.126,6.224,.342,12.529,.55,18.627,.121,3.558,.243,7.115,.348,10.673,.036,1.215,.01,2.71-.017,4.292-.147,8.66-.349,20.521,7.942,26.554,3.144,2.288,6.45,3.449,9.825,3.449,12.947,0,21.886-16.547,28.988-36.395-.958,13.682-3.086,27.072-6.347,39.923-.972,3.831-.188,7.636,2.207,10.715,2.699,3.47,7.28,5.626,11.954,5.626,.425,0,.854-.018,1.274-.053,6.198-.52,14.434-5.06,17.246-16.139,4.348-17.131,6.785-35.274,7.243-53.923,.042-1.72,.131-3.675,.226-5.745,.644-14.137,1.527-33.498-8.458-44.17-4.278-4.572-9.007-6.89-14.055-6.89-8.981,0-17.569,7.258-25.999,22.063-.046-24.588,.969-50.839,3.068-79.63,.411-5.638-1.614-9.092-3.385-10.997-2.423-2.606-5.963-4.041-9.969-4.042-4.286,0-8.848,1.61-12.517,4.419-4.253,3.256-6.788,7.69-7.137,12.484-1.626,22.304-2.604,43.06-2.978,63.255-2.278,.006-4.475,.023-6.618,.053,.393-26.013,1.226-49.098,2.539-70.407,.346-5.624-1.705-9.064-3.487-10.959-2.44-2.595-5.986-4.024-9.986-4.025h0Z" fill="#b52b16"/>
    <path d="M250.586,142.876c3.453,0,7.072,.859,10.825,2.787,16.033,8.237,17.79,35.237,18.26,50.685,.244,8.006-6.194,14.39-14.35,14.39-.142,0-.285-.002-.427-.006-5.993-.163-11.99-.224-17.987-.224-4.078,0-8.156,.028-12.233,.072,2.115,13.924,7.635,28.005,17.589,36.078,2.768,2.245,5.255,3.201,7.494,3.201,10.206,0,15.221-19.899,17.776-28.448,1.713-5.732,7.308-8.74,12.238-8.74,5.45,0,10.089,3.675,7.778,11.408-5.367,17.957-19.619,47.776-41.832,47.776-3.885,0-8.017-.913-12.383-2.962-26.407-12.386-33.765-53.808-30.503-78.633,2.127-16.186,16.939-47.384,37.755-47.383m-16.565,46.893c6.097-.08,12.195-.131,18.294-.131,1.608,0,3.217,.004,4.824,.011-.763-5.773-2.002-11.484-4.086-16.712-2.114-5.301-4.373-7.367-6.571-7.366-5.865,.002-11.279,14.732-12.231,21.979-.094,.718-.158,1.474-.231,2.219m16.566-52.702c-11.253,0-21.874,6.985-30.715,20.201-6.474,9.678-11.499,22.331-12.8,32.235-3.536,26.909,4.612,70.961,33.796,84.65,4.968,2.33,9.964,3.511,14.85,3.511,30.343,0,44.806-43.251,47.398-51.922,1.978-6.617,.173-10.987-1.69-13.487-2.553-3.428-6.801-5.394-11.655-5.394-2.692,0-5.661,.647-8.422,1.993,2.816-3.594,4.271-8.025,4.129-12.683-.254-8.359-.879-19.245-3.475-29.319-3.378-13.109-9.413-21.977-17.937-26.356-4.428-2.275-8.963-3.428-13.479-3.429h0Zm-9.637,46.815c1.322-4.73,3.577-9.604,5.293-11.711,.378,.61,.864,1.537,1.415,2.917,1.045,2.621,1.906,5.513,2.6,8.742-2.974,.005-6.061,.022-9.308,.052h0Zm24.372,32.665c3.321,0,6.495-.757,9.325-2.189-1.142,1.544-2.067,3.337-2.68,5.389-.187,.625-.387,1.31-.6,2.042-1.322,4.531-3.132,10.737-5.658,15.7-2.091,4.108-4.316,6.56-5.951,6.56-.959,0-2.321-.676-3.835-1.904-6.454-5.234-11.48-14.442-14.213-25.814,1.808-.01,3.533-.014,5.198-.014,6.511,0,12.343,.073,17.829,.222,.196,.005,.391,.008,.586,.008h0Z" fill="#b52b16"/>
    <path d="M394.163,31.993c1.222,0,2.452,.016,3.678,.049,20.689,.547,49.885,6.436,57.708,28.133,10.713,29.715-26.339,59.34-46.819,74.566-10.996,8.176-23.843,16.105-37.399,21.46-.045,1.613-.091,3.226-.131,4.84,9.552,14.414,18.795,29.023,29.225,42.868,19.978,26.519,43.297,50.128,68.964,71.472,7.634,6.348-2.355,18.701-11.408,18.701-2.017,0-3.988-.613-5.706-2.042-26.587-22.109-50.608-46.657-71.069-74.293-3.645-4.923-7.163-9.925-10.612-14.971-.084,18.363,.048,36.74,.329,55.135,.113,7.416-9.15,14.337-15.533,14.337-3.297,0-5.826-1.848-5.896-6.427-.482-31.562-.575-63.082,.099-94.57-2.953-4.406-5.934-8.794-8.994-13.133-4.426-6.276,3.674-14.468,9.861-16.387,1.065-28.086,2.852-56.149,5.614-84.196-3.693,1.193-7.26,2.558-10.605,4.129-13.437,6.309-30.536,17.367-34.192,32.553-3.288,13.657,5.79,26,15.186,35.068,7.097,6.849-2.671,18.998-11.325,18.998-2.076,0-4.089-.7-5.789-2.34-25.978-25.069-25.855-58.485,1.292-82.979,22.9-20.662,52.649-30.971,83.522-30.97m-22.088,102.326c35.511-16.824,89.444-58.548,47.58-76.041-9.51-3.974-20.416-5.79-31.476-5.79-3.498,0-7.013,.182-10.502,.535-2.709,27.085-4.5,54.18-5.602,81.296m22.089-108.135v5.809s0-5.809,0-5.809c-33.164-.001-64.208,11.529-87.414,32.466-14.429,13.019-22.203,28.673-22.481,45.269-.28,16.669,6.998,32.646,21.047,46.204,2.691,2.597,6.087,3.969,9.823,3.969,7.435,0,15.331-5.669,18.367-13.187,2.347-5.812,1.222-11.718-3.008-15.801-11.293-10.898-15.732-20.557-13.573-29.528,1.429-5.934,7.358-17.547,31.013-28.654,.482-.226,.973-.45,1.474-.671-2.092,22.974-3.61,46.54-4.617,71.653-4.409,2.464-8.773,6.708-10.507,11.805-1.412,4.15-.857,8.325,1.563,11.756,2.39,3.39,4.86,6.986,7.895,11.499-.57,27.885-.59,58.314-.061,92.945,.111,7.266,4.814,12.148,11.704,12.148,5.189,0,11.15-2.779,15.557-7.253,3.8-3.858,5.854-8.469,5.785-12.982-.197-12.892-.311-25.068-.344-36.82,.05,.067,.1,.135,.149,.202,19.699,26.607,43.931,51.942,72.023,75.303,2.663,2.214,5.921,3.385,9.421,3.385,7.854,0,16.198-6.066,18.997-13.811,2.078-5.751,.63-11.42-3.875-15.166-26.516-22.049-49.407-45.769-68.038-70.501-8.176-10.853-15.79-22.451-23.153-33.668-1.487-2.265-2.973-4.529-4.466-6.791,11.323-4.909,22.993-11.81,34.75-20.551,11.256-8.369,25.539-19.668,36.166-32.869,13.784-17.123,18.041-33.384,12.652-48.329-4.101-11.373-13.311-19.931-27.376-25.438-12.658-4.956-26.37-6.288-35.643-6.533-1.27-.034-2.559-.051-3.831-.051h0Zm-11.18,32.254c1.743-.093,3.479-.14,5.196-.14,10.764,0,20.873,1.847,29.236,5.341,11.495,4.803,11.62,10.188,11.662,11.958,.162,6.932-6.859,17.001-19.263,27.624-8.835,7.567-20.155,15.228-31.5,21.402,1.081-23.054,2.618-44.835,4.67-66.185h0Z" fill="#b52b16"/>
    <path d="M455.825,142.7c18.825,0,35.955,14.597,41.694,32.671,7.436,23.416,4.25,56.418-17.32,72.106-6.476,4.71-13.058,6.899-19.177,6.899-11.912,0-22.066-8.298-26.253-22.452-6.547-22.131-3.073-43.689,3.5-64.97-3.897-.029-7.495-2.709-8.226-6.669-1.141-6.179,4.266-11.207,9.344-13.697,5.468-2.681,11.022-3.888,16.439-3.888m9.48,90.991c.871,0,1.804-.155,2.799-.485,14.344-4.766,12.254-33.529,9.573-44.208-2.351-9.366-9.191-19.372-18.188-23.36-4.356,12.995-7.862,26.509-6.882,40.175,.494,6.883,2.528,27.878,12.698,27.878m-9.48-96.8c-6.541,0-12.932,1.508-18.997,4.481-6.847,3.357-14.229,10.601-12.499,19.968,.752,4.075,3.287,7.471,6.736,9.474-4.948,17.501-8.741,39.522-1.867,62.758,4.856,16.416,17.05,26.613,31.823,26.613,7.575,0,15.388-2.77,22.594-8.01,11.173-8.125,18.719-20.83,21.823-36.741,2.636-13.51,1.767-28.754-2.382-41.822-6.756-21.278-26.62-36.722-47.231-36.722h0Zm9.48,90.991c-1.657,0-5.697-5.662-6.904-22.484-.755-10.524,1.461-21.122,4.307-30.712,4.292,3.902,7.817,9.685,9.334,15.727,1.279,5.096,2.28,14.253,1.453,22.314-.498,4.858-2.099,13.263-7.224,14.966-.372,.123-.706,.189-.967,.189h0Z" fill="#b52b16"/>
    <path d="M533.523,20.776c4.38,0,7.953,2.565,7.404,8.789-6.591,74.647-12.902,152.283-3.634,227.004,.926,7.465-7.928,14.43-14.565,14.43-3.441,0-6.287-1.873-6.863-6.52-9.473-76.375-3.093-155.917,3.643-232.205,.596-6.746,8.054-11.499,14.016-11.499m0-5.809c-8.847,0-18.916,6.75-19.803,16.797-7.411,83.936-12.799,159.436-3.621,233.431,.875,7.055,5.832,11.614,12.629,11.614,5.448,0,11.632-3.014,15.753-7.679,3.52-3.983,5.145-8.698,4.577-13.276-9.51-76.671-2.21-159.347,3.656-225.778,.499-5.655-1.489-9.128-3.245-11.046-2.4-2.621-5.932-4.064-9.946-4.064h0Z" fill="#b52b16"/>
    <path d="M580.36,18.848c4.308,0,7.589,2.507,6.501,8.605-13.544,75.909-17.598,152.642-14.452,229.578,.304,7.44-8.857,14.377-15.3,14.377-3.334,0-5.94-1.859-6.129-6.467-3.216-78.655,.612-157.159,14.461-234.779,1.179-6.611,9.014-11.314,14.918-11.314m0-5.809c-4.167,0-8.75,1.544-12.575,4.237-4.385,3.087-7.248,7.301-8.062,11.866-13.247,74.246-18.005,151.454-14.547,236.036,.299,7.313,4.983,12.039,11.933,12.039,5.268,0,11.245-2.818,15.6-7.355,3.735-3.891,5.69-8.532,5.504-13.069-3.263-79.787,1.571-156.605,14.366-228.32,1.017-5.7-.749-9.26-2.41-11.244-2.263-2.703-5.747-4.191-9.81-4.191h0Z" fill="#b52b16"/>
    <path d="M607.316,134.825c4.325,0,7.671,2.523,6.699,8.658-5.99,37.817-8.526,75.301-6.368,113.548,.42,7.451-8.681,14.395-15.16,14.395-3.355,0-6.008-1.864-6.269-6.485-2.255-39.963,.115-79.215,6.377-118.749,1.053-6.649,8.804-11.367,14.721-11.367m0-5.809c-4.189,0-8.769,1.558-12.565,4.276-4.36,3.12-7.163,7.379-7.893,11.992-6.554,41.379-8.66,80.626-6.439,119.985,.41,7.27,5.148,11.967,12.069,11.967,5.316,0,11.304-2.842,15.627-7.416,3.696-3.91,5.589-8.568,5.333-13.116-2.03-35.97,.033-72.708,6.306-112.312,.903-5.697-.914-9.242-2.596-11.212-2.293-2.685-5.788-4.164-9.84-4.164h0Z" fill="#b52b16"/>
    <path d="M635.617,140.274c3.397,0,6.14,1.871,6.546,6.511,1.526,17.425,2.585,34.876,3.813,52.32,2.32-9.178,4.664-18.381,8.588-27.052,4.087-9.031,9.949-21.076,20.241-24.792,2.029-.733,3.894-1.069,5.604-1.069,7.279,0,11.723,6.095,13.833,13.626,8.917,31.818,2.206,68.266-4.38,99.814-1.367,6.547-9.328,11.222-15.213,11.222-4.283,0-7.467-2.478-6.207-8.513,3.307-15.843,6.635-31.713,7.515-47.895,.511-9.385,.104-18.774-.616-28.139-.278-3.618-.418-7.408-.938-11.085-.163,.295-.293,.539-.357,.684-2.055,4.646-3.61,9.453-4.987,14.324-3.249,11.487-5.831,23.146-9.113,34.626-2.421,8.467-4.924,19.999-13.063,25.188-2.617,1.668-5.095,2.437-7.35,2.437-4.65,0-8.35-3.272-10.35-8.673-3.602-9.73-3.522-21.142-4.255-31.321-1.388-19.267-2.509-38.545-4.195-57.791-.653-7.464,8.331-14.421,14.882-14.421m0-5.809s0,0,0,0c-5.332,0-11.487,2.957-15.683,7.536-3.616,3.946-5.387,8.634-4.987,13.201,1.139,13.01,2.036,26.283,2.904,39.118,.412,6.089,.837,12.386,1.284,18.585,.135,1.881,.241,3.786,.354,5.803,.503,9.051,1.024,18.411,4.248,27.118,2.89,7.805,8.795,12.465,15.798,12.465,3.465,0,6.988-1.126,10.473-3.348,9.252-5.898,12.355-17.082,14.848-26.069,.23-.828,.454-1.638,.678-2.421,1.707-5.968,3.24-12.039,4.724-17.91,.035-.14,.071-.28,.106-.421-.03,2.057-.099,4.05-.205,6.008-.852,15.648-4.152,31.457-7.344,46.747l-.058,.277c-1.189,5.696,.501,9.278,2.128,11.28,2.217,2.727,5.685,4.229,9.766,4.229,8.496,0,18.921-6.367,20.899-15.844,7.135-34.18,13.343-70.255,4.287-102.568-3.182-11.355-10.263-17.867-19.427-17.867-2.429,0-4.979,.476-7.577,1.414-12.589,4.546-19.371,18.64-23.127,26.903-.532-7.459-1.104-14.974-1.755-22.421-.628-7.175-5.47-11.812-12.333-11.813h0Z" fill="#b52b16"/>
    <path d="M759.721,126.823c21.343,.003,24.789,25.524,21.873,43.533-1.075,6.642-8.842,11.358-14.756,11.358-4.322,0-7.656-2.52-6.664-8.649,1.281-7.915,2.268-24.918-6.542-24.918-1.826,0-4.073,.731-6.826,2.424-13.632,8.387-22.557,27.901-17.424,43.146,2.337,6.941,5.95,9.371,10.255,9.371,4.679,0,10.176-2.87,15.742-5.943,4.304-2.376,8.421-5.103,12.429-7.923,1.017-.716,5.171-3.894,5.732-4.267,.585-.444,1.16-.901,1.754-1.332,2.207-1.603,4.344-2.283,6.275-2.283,7.711,0,12.11,10.855,4.393,17.095-1.051,.85-2.122,1.701-3.203,2.55-.007,.01-.009,.013-.016,.023-1.423,1.965-4.235,3.781-5.973,5.494-6.389,6.295-11.894,13.256-16.791,20.706-10.8,16.431-18.448,35.888-22.581,55.498,27.468,.545,64.948,14.496,49.908,47.158-6.957,15.108-22.606,23.916-37.968,23.916-11.657,0-23.15-5.076-30.543-16.323-6.978-10.615-6.874-24.04-5.374-36.136,2.6-20.969,8.851-42.921,18.063-62.022,2.553-5.295,5.385-10.574,8.5-15.736-2.181,.414-4.254,.611-6.224,.611-19.391,0-28.542-19.099-27.214-38.226,1.658-23.889,20.969-52.833,46.201-58.322,2.514-.547,4.832-.803,6.973-.803m-3.291,206.508c1.922,0,3.771-.351,5.428-1.144,9.935-4.749,8.609-15.766,.621-21.188-7.736-5.252-18.539-7.252-28.13-7.44-.53,7.082-.249,14.97,4.232,20.825,3.609,4.715,11.177,8.947,17.85,8.947m3.292-212.317h-.005c-2.589,0-5.35,.315-8.204,.936-13.1,2.85-25.655,11.533-35.351,24.45-8.888,11.84-14.505,26.108-15.41,39.147-.95,13.681,3.021,26.713,10.621,34.859,4.954,5.31,11.269,8.499,18.436,9.349-1.224,2.305-2.411,4.65-3.555,7.023-9.271,19.224-15.875,41.893-18.596,63.83-2.85,22.985,2.222,33.861,6.284,40.042,7.912,12.038,20.814,18.942,35.397,18.942,8.804,0,17.505-2.47,25.162-7.143,8.01-4.889,14.263-11.857,18.083-20.152,6.873-14.926,3.521-25.711-.501-32.131-4.665-7.445-13.024-13.564-24.173-17.693-7.081-2.623-15.155-4.401-23.297-5.166,4.344-17.188,11.274-33.289,20.223-46.904,4.996-7.601,10.234-14.065,16.013-19.759,.462-.456,1.154-1.021,1.886-1.62,1.381-1.129,2.922-2.389,4.176-3.909,.912-.719,1.815-1.439,2.705-2.159,5.458-4.413,7.54-11.347,5.305-17.666-1.596-4.512-5.014-7.808-9.208-9.125,.778-1.512,1.336-3.144,1.617-4.878,2.123-13.113,1.193-30.883-7.785-41.433-4.92-5.781-11.774-8.838-19.822-8.839h0Zm-20.083,76.266c-1.022,0-2.926,0-4.75-5.416-4.032-11.976,2.959-28.96,14.962-36.344,2.298-1.414,3.457-1.552,3.744-1.562,1.383,1.453,2.353,8.863,.844,18.18-.923,5.698,.885,9.245,2.564,11.218,1.194,1.403,2.716,2.477,4.475,3.183-3.307,2.242-6.137,3.994-8.905,5.522-3.765,2.078-9.456,5.22-12.934,5.22h0Zm16.792,130.242c-4.865,0-10.772-3.448-13.236-6.668-2.335-3.051-3.095-7.137-3.219-11.144,7.833,.796,14.535,2.902,19.24,6.096,2.516,1.708,4.029,4.314,3.853,6.639-.141,1.875-1.392,3.39-3.717,4.501-.799,.382-1.782,.575-2.922,.575h0Z" fill="#b52b16"/>
    <path d="M850.407,12.96c4.846,0,9.604,.202,14.194,.588,29.127,2.45,65.156,20.179,61.419,53.814-4.356,39.21-53.703,66.357-85.27,85.022-2.398,39.082-2.981,78.246,.74,116.616,.724,7.466-8.226,14.425-14.8,14.425-3.408,0-6.179-1.872-6.629-6.515-3.006-31.001-1.982-62.49-.837-93.558,1.647-44.721,5.007-89.379,9.332-133.925,.654-6.737,8.149-11.487,14.105-11.487,4.374,0,7.918,2.561,7.314,8.778-2.652,27.312-5.503,55.076-7.66,82.969,12.129-7.446,24.063-15.257,35.108-24.123,9.851-7.908,21.656-17.684,25.881-29.873,8.724-25.173-23.666-38.731-43.579-40.969-4.797-.539-9.749-.812-14.774-.812-18.5,0-37.963,3.695-54.051,11.37-29.639,14.14-17.188,43.898,2.267,61.323,7.375,6.605-2.494,18.852-11.35,18.852-2.051,0-4.048-.657-5.764-2.194-28.382-25.42-35.817-66.788-.766-90.541,20.681-14.015,49.231-19.76,75.123-19.76m0-5.809c-30.344,0-58.913,7.567-78.382,20.76-15.805,10.71-24.771,25.436-25.929,42.585-1.345,19.92,8.404,41.263,26.078,57.093,2.685,2.405,6.018,3.676,9.64,3.676,7.58,0,15.785-5.929,18.679-13.498,2.211-5.783,.92-11.574-3.453-15.491-12.314-11.029-19.304-24.887-17.808-35.305,.991-6.902,5.757-12.436,14.167-16.447,9.492-4.529,20.55-7.735,32.247-9.424-1.552,2.26-2.593,4.876-2.874,7.767-4.78,49.235-7.84,93.156-9.355,134.273-1.07,29.025-2.282,61.923,.861,94.332,.693,7.146,5.564,11.764,12.411,11.764,5.362,0,11.525-2.973,15.701-7.574,3.591-3.956,5.324-8.651,4.881-13.221-3.194-32.945-3.487-68.802-.908-112.621,.683-.402,1.373-.808,2.07-1.218,15.737-9.257,35.322-20.777,51.396-34.701,19.507-16.897,29.962-33.872,31.965-51.895,1.389-12.504-2.108-24.26-10.113-33.997-13.992-17.019-38.409-24.718-56.593-26.248-4.797-.404-9.736-.608-14.681-.608h0Zm-1.372,111.466c1.591-18.997,3.457-38.016,5.272-56.51,.486-4.956,.971-9.899,1.45-14.827,.287-2.957-.112-5.319-.808-7.176,1.388,.108,2.765,.238,4.125,.391,13.735,1.544,30.963,8.376,37.315,18.449,2.853,4.523,3.319,9.379,1.424,14.845-3.82,11.022-15.5,20.399-24.028,27.245-8.203,6.585-16.899,12.535-24.75,17.584h0Z" fill="#b52b16"/>
    <path d="M926.764,124.191c6.609,0,12.668,2.76,16.882,9.339,7.743,12.091,8.605,28.811,8.709,42.624,.123,16.267-1.627,33.147-7.708,48.425-6.851,17.211-25.291,42.408-45.351,42.408-6.561,0-13.297-2.697-19.855-9.251-15.994-15.984-28.803-60.737,1.746-69.353,2.472-.697,4.862-1.021,7.171-1.021,16.964,.001,29.49,17.489,36.996,32.881,.646-1.944,1.188-3.737,1.612-5.219,3.418-11.968,4.352-25.018,3.817-37.389-.364-8.428-.252-22.916-6.168-29.847-1.511-1.77-1.811-2.418-2.362-2.418-.498,0-1.201,.53-3.188,1.242-6.612,2.369-15.388,9.504-9.676,16.492,6.134,7.505-3.445,19.397-11.455,19.397-2.097,0-4.087-.815-5.659-2.739-18.138-22.191,11.506-55.571,34.491-55.571m-21.273,121.421c.791,0,1.607-.103,2.447-.326,.869-.231,1.699-.614,2.511-1.059-.3-.467-.593-.949-.823-1.541-5.309-13.674-12.375-26.551-25.39-33.15-.009,.097-.017,.194-.026,.291,.74,1.871,.535,5.444,.948,7.447,1.132,5.492,3.262,10.871,5.942,15.821,2.719,5.022,7.656,12.516,14.391,12.516m21.273-127.23c-15.673,0-34.144,13.06-42.05,29.733-5.655,11.925-5.017,24.002,1.677,33.502-2.252,.145-4.525,.539-6.782,1.175-11.156,3.146-18.583,10.676-21.477,21.776-4.96,19.022,4.89,44.973,17.202,57.277,7.271,7.266,15.333,10.951,23.961,10.951,10.609,0,21.624-5.73,31.854-16.572,7.747-8.21,14.811-19.237,18.894-29.497,5.615-14.105,8.271-30.662,8.12-50.617-.122-16.126-1.372-32.824-9.626-45.713-4.963-7.749-12.695-12.016-21.774-12.016h0Zm-21.528,68.075c4.209-2.106,7.988-5.848,10.139-10.386,2.827-5.961,2.284-12.028-1.49-16.644-.639-.782-.555-1.087-.487-1.332,.465-1.675,3.545-4.454,7.293-5.892,3.554,5.067,3.946,16.204,4.184,22.975,.033,.954,.065,1.861,.102,2.708,.421,9.743-.125,18.799-1.627,27.037-6.078-9.189-12.274-14.958-18.115-18.466h0Zm-4.193,50.827c-1.385-1.411-3.015-3.593-4.835-6.954-1.018-1.88-1.913-3.756-2.684-5.622,3.036,3.834,5.467,8.165,7.519,12.577h0Z" fill="#b52b16"/>
    <path d="M983.99,124.38c4.927,0,9.836,3.766,8.523,9.103-2.072,8.417-3.792,16.872-5.238,25.354,6.567-2.072,13.801-3.816,20.813-3.816,5.024,0,9.935,.896,14.4,3.207,11.096,5.744,13.771,18.211,13.213,29.49-1.457,29.478-21.254,58.253-51.315,66.056-1.078,.28-2.059,.41-2.985,.462,.635,24.725,2.538,49.461,4.824,74.03,.695,7.465-8.269,14.423-14.834,14.423-3.403,0-6.163-1.872-6.595-6.513-6.184-66.458-9.823-134.485,6.297-199.984,1.372-5.575,5.691-11.241,12.102-11.779,.265-.022,.53-.033,.796-.033m-2.787,110.072c.154-.046,.285-.12,.442-.161,18.152-4.712,29.013-18.89,31.895-36.713,1.084-6.705,2.124-16.468-5.012-20.312-1.899-1.023-4.1-1.425-6.427-1.425-5.853,0-12.499,2.544-17.109,4.153-.259,.09-.503,.155-.753,.23-2.066,17.998-2.956,36.097-3.036,54.227m2.787-115.881h0c-.427,0-.858,.018-1.281,.054-9.364,.786-15.414,8.693-17.257,16.18-16.892,68.636-12.181,140.21-6.44,201.911,.666,7.159,5.525,11.784,12.379,11.784,5.349,0,11.51-2.967,15.694-7.559,3.601-3.951,5.35-8.644,4.925-13.212-1.758-18.893-3.838-43.462-4.658-68.739,15.046-4.266,28.183-13.448,38.067-26.629,9.591-12.79,15.304-28.543,16.085-44.355,.823-16.646-4.981-29.053-16.344-34.936-4.945-2.56-10.688-3.858-17.071-3.858-4.148,0-8.54,.519-13.441,1.605,1.071-5.477,2.244-10.814,3.507-15.945,.946-3.846,.141-7.656-2.267-10.728-2.735-3.489-7.182-5.573-11.897-5.573h0Zm5.618,65.959c3.853-1.343,8.64-2.878,12.493-2.879,1.537,0,2.772,.246,3.672,.73,2.761,1.487,3.388,5.888,2.032,14.27-2.229,13.781-9.631,24.198-20.698,29.501,.272-14.665,1.097-28.379,2.501-41.622h0Z" fill="#b52b16"/>
    <path d="M1097.938,130.264c11.394,0,17.977,10.221,18.353,20.977,1.012,28.968-27.036,55.35-54.259,63.905,.25,5.386,1.769,10.399,5.513,14.263,1.325,1.368,2.581,1.931,3.842,1.931,2.809,0,5.642-2.796,9.316-5.714,8.689-6.903,16.281-15.352,23.565-23.61,9.579-10.86,18.617-22.245,27.066-33.963,2.569-3.562,7.813-6.081,12.206-6.081,4.316,0,7.81,2.432,7.132,8.696-1.315,12.159-2.195,24.548-1.758,36.785,2.347-10.67,5.659-21.168,11.032-30.59,9.034-15.842,25.657-26.494,44.416-26.897,.423-.009,.843-.014,1.264-.014,23.032,0,43.382,13.513,59.927,27.907,7.478,6.506-2.435,18.794-11.369,18.794-2.039,0-4.027-.64-5.745-2.135-12.537-10.907-29.671-23.695-47.627-23.694-1.277,0-2.56,.065-3.844,.2-14.577,1.53-20.364,13.126-24.215,25.341-6.723,21.322-5.326,43.759-10.594,65.167-1.553,6.31-7.098,14.611-14.364,14.611-1.489,0-3.05-.348-4.663-1.134-9.149-4.453-9.657-24.411-11.41-32.597-2.821-13.174-4.012-26.146-4.079-39.213-7.258,8.761-14.87,17.237-22.885,25.232-9.544,9.519-25.054,24.225-39.522,24.225-5.602,0-11.049-2.206-15.931-7.771-20.505-23.374-2.722-66.583,12.819-88.233,7.66-10.672,18.817-24.247,33.046-26.195,.952-.13,1.874-.193,2.767-.193m-32.345,63.472c11.203-4.646,20.651-14.044,25.869-24.515,2.377-4.769,5.093-16.811,.824-16.811-1.135,0-2.764,.852-5.025,2.919-9.289,8.491-15.868,20.501-19.692,32.198-.622,1.903-1.305,4.003-1.976,6.209m32.345-69.281s0,0,0,0c-1.163,0-2.359,.083-3.555,.247-16.193,2.216-28.267,16.429-36.978,28.563-17.403,24.243-35.084,69.67-12.467,95.452,5.675,6.469,12.504,9.749,20.298,9.749,15.542,0,30.774-13.104,43.625-25.922,4.49-4.479,9.023-9.28,13.555-14.354,.652,8.752,1.854,17.165,3.625,25.439,.326,1.522,.635,3.737,.963,6.083,1.512,10.826,3.583,25.653,13.585,30.521,2.344,1.141,4.769,1.72,7.206,1.72,5.025,0,9.766-2.399,13.71-6.938,2.943-3.387,5.238-7.795,6.295-12.094,2.473-10.05,3.531-20.294,4.555-30.201,1.247-12.069,2.425-23.469,5.938-34.607,4.526-14.354,9.932-20.329,19.281-21.31,1.061-.111,2.151-.168,3.238-.168,16.33,0,32.826,12.708,43.813,22.268,2.678,2.33,5.984,3.562,9.559,3.562,7.686,0,15.945-5.983,18.803-13.62,2.159-5.771,.805-11.515-3.621-15.366-14.474-12.592-36.829-29.333-63.74-29.334-.463,0-.925,.005-1.389,.015-19.221,.414-37.279,10.794-47.806,27.291,.006-.052,.011-.104,.017-.156,.615-5.68-1.308-9.158-3.029-11.076-2.347-2.614-5.855-4.054-9.879-4.055-6.355,0-13.312,3.492-16.918,8.492-4.182,5.8-8.488,11.482-12.885,17.009,5.54-9.421,8.736-19.841,8.359-30.626-.237-6.776-2.479-13.15-6.313-17.947-4.451-5.569-10.79-8.637-17.846-8.637h0Zm-20.699,54.55c2.872-5.949,6.359-11.272,10.274-15.664-.365,1.215-.792,2.369-1.251,3.29-2.272,4.56-5.377,8.777-9.024,12.374h0Zm-8.837,40.073c9.792-3.738,19.443-9.512,27.804-16.731-6.303,7.034-12.336,13.344-19.116,18.73-.648,.515-1.272,1.026-1.874,1.521-1.146,.941-2.636,2.163-3.559,2.706-1.568-1.642-2.646-3.698-3.254-6.225h0Z" fill="#b52b16"/>
    <path d="M617.607,20.986c3.486,0,6.441,1.868,7.207,6.505,3.485,21.112-1.616,43.617-4.071,64.603-.785,6.713-8.363,11.455-14.306,11.455-4.359,0-7.838-2.551-7.114-8.746,2.236-19.12,7.236-40.17,4.062-59.402-1.23-7.448,7.489-14.415,14.222-14.415m0-5.809c-5.582,0-11.799,3.076-15.837,7.835-3.411,4.02-4.873,8.756-4.117,13.335,2.269,13.744,.022,28.94-2.152,43.635-.69,4.667-1.404,9.494-1.948,14.145-.664,5.679,1.255,9.184,2.981,11.124,2.356,2.648,5.873,4.106,9.902,4.106,4.236,0,8.808-1.586,12.543-4.35,4.308-3.188,6.983-7.535,7.533-12.24,.543-4.64,1.206-9.279,1.908-14.191,2.445-17.099,4.972-34.78,2.124-52.033-1.158-7.012-6.115-11.368-12.938-11.368h0Z" fill="#b52b16"/>
  </g>
  <g id="d" data-name="rood">
    <path d="M160.917,196.63c-.042-1.417-.095-2.834-.134-4.251-.937-33.761,.319-67.474,2.775-101.155,1.073-14.716-20.564-9.022-21.42,2.709-1.667,22.861-2.758,45.747-3.053,68.652-6.058-.035-12.133,.003-18.228,.162,.315-25.542,1.054-51.086,2.631-76.692,.907-14.727-20.696-9.04-21.42,2.709-1.542,25.034-2.294,50.015-2.635,74.99-24.981,1.625-49.921,4.939-73.944,10.293-5.741,1.28-11.555,5.615-12.101,11.779-.45,5.076,3.454,10.377,9.318,9.07,24.786-5.525,50.683-9.009,76.531-10.547-.137,27.712,.136,55.433,.413,83.232,.134,13.431,21.541,3.325,21.429-7.91-.253-25.421-.486-50.773-.391-76.113,6.148-.108,12.271-.117,18.36-.003,.03,2.999,.057,5.998,.118,8.997,.198,9.752,.608,19.497,.896,29.246,.221,7.494-1.597,21.129,5.536,26.32,21.275,15.482,35.571-50.75,39.06-58.653,.291-.658,.775-1.482,1.329-2.374,.412,2.02,.86,4.012,.972,5.604,.425,6.049,.498,12.102,.307,18.161-.534,16.932-2.814,33.915-6.989,50.365-1.427,5.621,4.173,9.502,9.318,9.07,6.444-.541,10.688-6.208,12.102-11.779,4.363-17.189,6.631-34.943,7.066-52.637,.313-12.741,2.996-35.476-6.667-45.803-16.47-17.603-32.66,14.76-41.179,36.557Z" fill="#f16542" stroke="#b52b16" stroke-miterlimit="10" stroke-width="3.873"/>
    <path d="M277.532,221.41c-3.116,10.425-9.886,37.723-25.27,25.247-9.955-8.073-15.474-22.154-17.589-36.078,10.074-.107,20.152-.122,30.22,.153,8.358,.228,15.026-6.239,14.778-14.384-.47-15.448-2.227-42.448-18.261-50.685-26.377-13.551-46.099,25.726-48.579,44.596-3.262,24.825,4.095,66.247,30.503,78.633,29.334,13.759,47.909-23.716,54.215-44.814,4.402-14.728-16.41-14.737-20.017-2.668Zm-24.48-48.473c2.084,5.227,3.323,10.939,4.086,16.712-7.707-.036-15.414,.019-23.119,.12,.073-.745,.136-1.501,.231-2.219,1.309-9.961,11.046-34.063,18.802-14.613Z" fill="#f16542" stroke="#b52b16" stroke-miterlimit="10" stroke-width="3.873"/>
    <path d="M469.39,275.381c-25.667-21.344-48.986-44.953-68.964-71.472-10.43-13.845-19.674-28.454-29.225-42.868,.04-1.613,.086-3.226,.131-4.84,13.556-5.355,26.403-13.284,37.399-21.46,20.479-15.227,57.532-44.852,46.819-74.567-7.823-21.698-37.019-27.587-57.708-28.133-32.179-.85-63.394,9.441-87.2,30.921-27.147,24.494-27.269,57.91-1.292,82.979,8.783,8.476,25.914-8.167,17.114-16.658-9.397-9.068-18.474-21.41-15.186-35.068,3.656-15.186,20.755-26.244,34.192-32.553,3.345-1.571,6.912-2.936,10.605-4.129-2.763,28.047-4.549,56.11-5.614,84.196-6.187,1.919-14.287,10.111-9.861,16.387,3.06,4.339,6.041,8.727,8.994,13.133-.674,31.488-.581,63.008-.099,94.57,.205,13.447,21.6,3.336,21.429-7.91-.281-18.394-.413-36.771-.329-55.134,3.45,5.046,6.967,10.048,10.612,14.971,20.461,27.636,44.482,52.184,71.069,74.293,9.434,7.845,26.449-8.896,17.114-16.658Zm-49.735-217.103c41.863,17.493-12.069,59.217-47.58,76.041,1.102-27.116,2.893-54.212,5.602-81.296,14.52-1.468,29.46,.024,41.978,5.255Z" fill="#f16542" stroke="#b52b16" stroke-miterlimit="10" stroke-width="3.873"/>
    <path d="M439.385,146.588c-5.078,2.49-10.485,7.518-9.344,13.697,.731,3.96,4.329,6.64,8.226,6.669-6.573,21.281-10.046,42.839-3.5,64.97,6.338,21.425,26.347,29.431,45.43,15.553,21.571-15.688,24.756-48.69,17.32-72.106-7.39-23.274-33.663-40.781-58.133-28.783Zm28.718,86.618c-12.608,4.189-14.961-19.92-15.497-27.393-.98-13.665,2.526-27.179,6.882-40.175,8.997,3.988,15.837,13.994,18.188,23.36,2.681,10.679,4.771,39.442-9.573,44.207Z" fill="#f16542" stroke="#b52b16" stroke-miterlimit="10" stroke-width="3.873"/>
    <path d="M519.507,32.275c-6.736,76.288-13.116,155.83-3.643,232.205,1.688,13.609,22.835,3.425,21.429-7.91-9.268-74.722-2.957-152.357,3.634-227.004,1.298-14.696-20.386-8.994-21.42,2.709Z" fill="#f16542" stroke="#b52b16" stroke-miterlimit="10" stroke-width="3.873"/>
    <path d="M586.861,27.453c2.579-14.455-19.379-8.726-21.42,2.709-13.849,77.619-17.677,156.124-14.461,234.779,.553,13.513,21.89,3.38,21.429-7.91-3.146-76.936,.908-153.669,14.452-229.578Z" fill="#f16542" stroke="#b52b16" stroke-miterlimit="10" stroke-width="3.873"/>
    <path d="M592.595,146.192c-6.262,39.534-8.632,78.785-6.377,118.749,.764,13.544,22.067,3.4,21.429-7.91-2.158-38.246,.378-75.73,6.368-113.548,2.301-14.526-19.597-8.8-21.42,2.709Z" fill="#f16542" stroke="#b52b16" stroke-miterlimit="10" stroke-width="3.873"/>
    <path d="M674.806,147.26c-10.292,3.717-16.154,15.762-20.241,24.792-3.925,8.671-6.268,17.874-8.589,27.052-1.228-17.444-2.287-34.895-3.813-52.32-1.19-13.589-22.421-3.424-21.429,7.91,1.685,19.247,2.806,38.524,4.194,57.791,.733,10.18,.653,21.592,4.255,31.321,2.969,8.02,9.686,11.345,17.7,6.236,8.139-5.189,10.642-16.721,13.063-25.188,3.283-11.48,5.865-23.139,9.113-34.626,1.378-4.871,2.932-9.678,4.987-14.324,.064-.144,.194-.389,.357-.684,.519,3.677,.659,7.467,.938,11.085,.721,9.365,1.127,18.754,.616,28.139-.881,16.182-4.208,32.052-7.515,47.895-2.991,14.328,19.059,8.602,21.42-2.709,6.585-31.547,13.297-67.995,4.38-99.813-2.606-9.299-8.77-16.409-19.437-12.557Z" fill="#f16542" stroke="#b52b16" stroke-miterlimit="10" stroke-width="3.873"/>
    <path d="M737.398,282.707c4.134-19.61,11.782-39.067,22.581-55.498,4.897-7.45,10.402-14.411,16.791-20.706,1.739-1.713,4.551-3.529,5.974-5.494,.007-.01,.009-.013,.016-.023,1.08-.85,2.151-1.7,3.203-2.55,9.649-7.802,.357-22.817-10.668-14.812-.594,.431-1.169,.888-1.754,1.332-.562,.373-4.715,3.551-5.732,4.267-4.007,2.821-8.125,5.548-12.429,7.923-10.689,5.9-21.121,11.055-25.997-3.428-5.133-15.245,3.792-34.759,17.424-43.146,16.032-9.864,14.915,12.938,13.367,22.494-2.35,14.514,19.558,8.787,21.42-2.709,3.208-19.817-1.281-48.727-28.846-42.73-25.232,5.489-44.543,34.433-46.201,58.322-1.463,21.071,9.788,42.105,33.439,37.616-3.115,5.162-5.947,10.442-8.5,15.736-9.212,19.101-15.463,41.053-18.063,62.022-1.5,12.096-1.604,25.52,5.374,36.136,17.134,26.067,56.274,18.981,68.51-7.593,15.04-32.662-22.44-46.613-49.908-47.158Zm24.46,49.48c-7.409,3.542-18.629-1.73-23.277-7.803-4.481-5.855-4.762-13.743-4.232-20.825,9.591,.188,20.394,2.188,28.131,7.44,7.988,5.423,9.314,16.439-.621,21.188Z" fill="#f16542" stroke="#b52b16" stroke-miterlimit="10" stroke-width="3.873"/>
    <path d="M840.749,152.384c31.567-18.665,80.914-45.812,85.27-85.022,3.737-33.635-32.292-51.364-61.419-53.814-29.116-2.45-64.765,2.534-89.317,19.172-35.051,23.752-27.616,65.121,.766,90.541,9.123,8.17,26.197-8.524,17.114-16.659-19.455-17.425-31.906-47.182-2.267-61.323,20.459-9.761,46.368-13.083,68.825-10.559,19.914,2.238,52.303,15.796,43.579,40.969-4.225,12.19-16.03,21.965-25.881,29.873-11.044,8.866-22.978,16.678-35.107,24.123,2.157-27.893,5.009-55.657,7.66-82.969,1.425-14.682-20.285-8.975-21.42,2.709-4.325,44.547-7.684,89.204-9.332,133.925-1.145,31.067-2.168,62.556,.837,93.558,1.318,13.597,22.528,3.427,21.429-7.91-3.72-38.369-3.138-77.534-.74-116.615Z" fill="#f16542" stroke="#b52b16" stroke-miterlimit="10" stroke-width="3.873"/>
    <path d="M892.274,179.762c7.575,9.268,24.855-7.188,17.114-16.658-5.711-6.987,3.065-14.123,9.676-16.492,4.186-1.5,2.674-2.192,5.55,1.177,5.917,6.931,5.804,21.42,6.168,29.847,.535,12.371-.399,25.421-3.817,37.389-.423,1.482-.966,3.275-1.612,5.219-8.528-17.488-23.533-37.679-44.167-31.861-30.549,8.615-17.74,53.369-1.746,69.353,26.608,26.59,56.114-10.316,65.205-33.157,6.082-15.278,7.831-32.157,7.709-48.425-.104-13.813-.965-30.533-8.709-42.624-18.868-29.461-74.726,17.66-51.372,46.231Zm-1.173,53.334c-2.68-4.949-4.81-10.329-5.942-15.821-.413-2.003-.208-5.576-.948-7.447,.009-.097,.017-.194,.026-.291,13.016,6.598,20.081,19.475,25.39,33.15,.23,.591,.522,1.073,.823,1.541-.812,.445-1.642,.828-2.511,1.059-7.99,2.121-13.799-6.578-16.837-12.19Z" fill="#f16542" stroke="#b52b16" stroke-miterlimit="10" stroke-width="3.873"/>
    <path d="M1022.488,158.229c-10.697-5.538-23.94-2.949-35.213,.608,1.445-8.482,3.166-16.937,5.238-25.354,1.384-5.625-4.144-9.505-9.318-9.07-6.411,.538-10.729,6.204-12.101,11.779-16.12,65.499-12.481,133.526-6.297,199.984,1.265,13.594,22.484,3.426,21.429-7.91-2.286-24.569-4.189-49.305-4.824-74.03,.926-.052,1.907-.182,2.985-.462,30.061-7.803,49.858-36.578,51.315-66.056,.558-11.279-2.117-23.746-13.213-29.49Zm-8.948,39.349c-2.882,17.823-13.744,32.002-31.895,36.713-.157,.041-.289,.114-.442,.161,.081-18.13,.97-36.229,3.036-54.227,.25-.075,.494-.14,.753-.23,6.442-2.249,16.861-6.323,23.536-2.728,7.137,3.844,6.097,13.607,5.012,20.312Z" fill="#f16542" stroke="#b52b16" stroke-miterlimit="10" stroke-width="3.873"/>
    <path d="M1265.555,177.86c-16.847-14.657-37.639-28.4-61.191-27.894-18.759,.404-35.382,11.055-44.416,26.897-5.373,9.422-8.685,19.92-11.032,30.59-.437-12.237,.443-24.626,1.758-36.785,1.367-12.638-14.246-9.678-19.338-2.616-8.45,11.718-17.487,23.103-27.066,33.963-7.284,8.258-14.876,16.707-23.566,23.61-5.323,4.228-8.879,8.199-13.157,3.784-3.744-3.864-5.263-8.878-5.513-14.263,27.222-8.556,55.27-34.937,54.258-63.905-.405-11.6-8.028-22.576-21.12-20.784-14.229,1.947-25.385,15.523-33.046,26.195-15.541,21.65-33.324,64.859-12.819,88.233,17.491,19.938,42.215-3.249,55.453-16.454,8.015-7.995,15.627-16.471,22.885-25.232,.067,13.067,1.258,26.039,4.079,39.213,1.753,8.186,2.262,28.144,11.41,32.597,9.489,4.619,17.156-5.874,19.027-13.477,5.268-21.408,3.87-43.845,10.594-65.167,3.851-12.214,9.637-23.811,24.215-25.341,19.337-2.029,38.043,11.811,51.471,23.495,9.247,8.045,26.299-8.668,17.114-16.658Zm-178.293-22.532c10.762-9.838,7.21,7.855,4.201,13.892-5.218,10.471-14.666,19.868-25.869,24.515,.67-2.206,1.353-4.306,1.976-6.209,3.824-11.698,10.404-23.707,19.693-32.198Zm53.901,106.938" fill="#f16542" stroke="#b52b16" stroke-miterlimit="10" stroke-width="3.873"/>
    <path d="M624.813,27.491c-2.244-13.591-23.295-3.394-21.429,7.91,3.175,19.232-1.825,40.282-4.061,59.402-1.712,14.642,20.059,8.926,21.42-2.709,2.454-20.985,7.556-43.49,4.07-64.603Z" fill="#f16542" stroke="#b52b16" stroke-miterlimit="10" stroke-width="3.873"/>
  </g>
</svg>