<?xml version="1.0" encoding="UTF-8"?>
<svg id="b" data-name="logo" xmlns="http://www.w3.org/2000/svg" width="103.055mm" height="43.146mm" viewBox="0 0 292.123 122.303">
  <circle cx="165.723" cy="51.896" r="51.896" fill="#fff"/>
  <g>
    <circle cx="165.723" cy="51.896" r="44.529" fill="#ec7e15"/>
    <g>
      <path d="M140.678,55.665c.141,.522,.641,2.168,1.91,4.603,1.677,3.218,4.156,6.61,4.931,7.645,.152,.202,.387,.318,.64,.318h8.333l3.333,9.724-2.365,.755,.503,1.428c.145,.412,.592,.632,1.007,.496l29.728-9.744c.33-.108,.553-.416,.553-.763v-1.896s1.487-7.151,1.558-10.621c.053-2.617-.377-5.476-.591-6.722-.064-.374-.384-.65-.763-.663l-2.71-.093c-.74,2.268-2.872,3.913-5.384,3.913-2.646,0-4.868-1.827-5.487-4.284l-.288-.01h-17.141c-.615,2.462-2.84,4.294-5.49,4.294s-4.874-1.832-5.49-4.294h-.555c-2.236,0-4.331,.897-5.154,1.298-.231,.113-.393,.328-.438,.581l-.655,3.686c-.021,.117-.016,.234,.015,.349Zm34.201,4.731c0-.443,.36-.803,.803-.803h9.307c.445,0,.804,.361,.803,.806-.002,.594-.021,1.424-.099,2.168-.084,.797-.211,1.694-.3,2.292-.059,.393-.396,.682-.794,.682h-8.917c-.443,0-.803-.359-.803-.803v-4.342Zm-16.073,0c0-.443,.36-.803,.803-.803h11.509c.443,0,.803,.359,.803,.803v4.342c0,.443-.359,.803-.803,.803h-11.509c-.443,0-.803-.359-.803-.803v-4.342Zm-13.119-.803h9.484c.443,0,.803,.359,.803,.803v4.342c0,.443-.36,.803-.803,.803h-6.589c-.262,0-.508-.128-.658-.343-.332-.476-.972-1.387-1.681-2.358-.658-.902-1.053-1.601-1.29-2.116-.243-.529,.152-1.13,.734-1.13Z" fill="#fff"/>
      <path d="M140.699,46.381c.005,.44,.363,.791,.803,.791h5.922c.556-2.543,2.823-4.455,5.531-4.455s4.975,1.911,5.531,4.455h17.344c.556-2.543,2.823-4.455,5.531-4.455s4.975,1.911,5.531,4.455h.856c.336,0,.636-.206,.752-.521,.284-.767,.751-2.311,.751-4.152,0-2.437-3.796-2.826-5.589-3.496,0,0-1.211-2.57-2.455-4.162-1.385-1.774-2.549-3.224-2.549-3.224h5.023c2.218,0,.378-4.271-1.369-6.253-1.205-1.367-3.965-1.463-6.42-1.463s-6.297,.614-8.091,.614h-24.509c-.261,0-.504,.126-.656,.339-.573,.805-1.898,3.015-1.971,6.352-.079,3.597,.005,12.475,.033,15.175Zm32.59-14.706l3.486-.004c.238,0,.461,.102,.614,.284,.438,.521,1.432,1.744,2.706,3.582,.54,.779,.907,1.497,1.148,2.057,.234,.544-.189,1.142-.78,1.111-1.898-.101-5.479-.351-6.268-.831-.805-.49-1.428-3.657-1.696-5.264-.082-.49,.294-.934,.791-.934Zm-11.052,.804c0-.443,.36-.803,.803-.803h3.806c.443,0,.803,.359,.803,.803v3.806c0,.443-.359,.803-.803,.803h-3.806c-.443,0-.803-.359-.803-.803v-3.806Zm-18.205-.006c0-.443,.36-.803,.803-.803h6.655c.443,0,.803,.359,.803,.803v1.341c0,.443-.36,.803-.803,.803h-6.655c-.443,0-.803-.359-.803-.803v-1.341Z" fill="#fff"/>
      <circle cx="181.362" cy="48.381" r="3.484" fill="#fff"/>
      <circle cx="152.955" cy="48.381" r="3.484" fill="#fff"/>
    </g>
  </g>
  <path d="M287.688,68.646c-2.979-2.158-7.05-2.414-12.046-.774-3.688,1.168-6.291,2.543-8.943,4.228-3.984,1.331-8.901,3.174-10.335,7.835-1.289-3.537-4.761-6.488-11.396-5.825-4.435,.436-8.54,1.648-11.56,3.415-.954,.558-1.688,1.427-2.077,2.461-.684,1.817-1.35,3.741-1.991,5.709,.008-1.136,.012-2.155,.012-2.981,0-7.614-8.351-7.958-11.467-8.086-3.603-.171-6.512,1.524-8.711,5.085-.525,.875-1.287,2.347-2.252,4.211l-.023,.045c-1.186-2.579-2.376-4.953-3.48-6.605-.028-.043-.058-.086-.088-.128-2.326-3.25-5.04-4.208-8.394-4.646-4.649-.611-8.831,.373-11.48,2.699-1.771,1.554-2.745,3.633-2.745,5.853,0,1.854,.514,4.055,1.021,5.778,0,1.055,.002,2.149,.003,3.257-1.074-.625-2.311-1.077-3.698-1.316-2.58-.44-5.285,.291-7.716,2.051-.931-1.359-2.3-2.394-3.989-2.913,.779-1.777,1.101-3.273,1.101-4.798,0-4.23-2.411-7.229-6.449-8.02-3.299-.647-5.628,.428-7.008,1.442-.711,.523-1.336,1.147-1.898,1.873-.97-1.114-2.452-2.077-4.73-2.537-1.857-.375-3.702-.161-5.346,.594-.468-8.865-5.417-14.634-14.081-16.299-3.878-.739-6.657-.569-9.477-.032-4.374-.352-7.799-.081-10.194,2.099-.627,.57-1.126,1.229-1.507,1.965-.811-5.033-4.802-8.466-10.788-9.214-4.52-.562-8.844-.04-12.177,1.469-1.138,.515-2.03,1.452-2.491,2.612-.031,.078-.062,.159-.093,.238-1.465-3.879-4.767-5.99-9.78-6.153-3.144-.105-5.587,1.391-6.491,2.037-.586,.417-1.062,.955-1.404,1.567-1.293-2.121-3.385-3.613-6.888-3.481-3.933,.16-7.25,1.691-9.376,4.074-1.715-2.303-4.222-3.238-7.49-2.793-4.68,.642-8.298,2.498-10.479,5.187-2.38-1.271-6.07-2.085-11.488-.55-.015,.004-.028,.008-.042,.012-5.482,1.606-8.67,4.155-11.177,9-3.022,3.541-4.811,8.271-4.812,12.802,0,3.244,.801,5.823,2.47,7.829-2.491,2.406-4.033,5.878-4.034,9.541,.002,4.376,1.948,6.733,3.58,7.94,1.832,1.354,4.031,1.844,6.319,1.844,2.795,0,5.725-.732,8.276-1.514,6.67-1.993,11.762-5.969,14.449-10.927,1.09,2.873,3.3,5.772,8.234,5.772,.585,0,1.21-.041,1.874-.127,1.575-.201,6.491-1.047,9.63-4.022,1.252,1.562,3.266,2.813,6.511,2.724,2.794-.08,4.937-.608,6.994-1.744,3.307-.835,5.495-1.932,7.106-3.719,1.352,3.51,4.926,5.882,9.877,6.307,2.874,.235,5.132-.361,6.696-1.781,.621-.564,1.077-1.237,1.334-1.99,1.151,2.629,3.178,4.836,7.117,5.358,1.096,.146,2.312,.248,3.568,.248,2.069,0,4.24-.29,6.167-1.105,1.276,1.531,3.338,2.69,6.686,3.264,.988,.172,2.032,.309,3.082,.309,1.701,0,3.418-.36,4.931-1.513,1.787-1.361,2.524-3.31,2.854-4.831,2.963,.131,5.697-.517,8.076-1.898-.237,1.308-.291,2.15-.291,2.739,0,5.634,3.427,9.825,8.939,10.937,.672,.136,1.334,.197,1.981,.197,1.659,0,3.217-.411,4.613-.988,1.331,1.327,3.003,2.293,4.835,2.658,1.081,.217,2.018,.23,2.823,.114,1.072,.843,2.415,1.436,3.996,1.745,.53,.104,1.061,.152,1.588,.152,1.797,0,3.554-.554,5.088-1.28,1.583,1.603,3.674,2.694,6.197,3.145,.687,.125,1.392,.185,2.109,.185,2.337,0,4.803-.658,7.149-1.872,.891,1.563,2.746,3.552,6.538,4.098,3.089,.443,5.672-.111,7.67-1.649,.622-.478,1.319-1.162,1.92-2.115,1.322,.801,2.933,1.33,4.714,1.51,1.927,.187,3.727-.149,5.29-.987,.087,.744,.347,1.459,.762,2.089,1.583,2.402,4.558,3.872,8.165,4.034,.233,.01,.463,.015,.689,.015,2.885,0,5.251-.831,7.039-2.476h0c2.595,2.393,6.077,2.747,7.839,2.747,.166,0,.317-.003,.45-.007,3.482-.105,5.404-1.377,6.403-2.426,.784-.822,1.249-1.892,1.32-3.019,1.341,2.614,3.698,4.727,8.07,4.218,4.039-.467,7.427-1.804,9.854-3.729,1.273,.815,2.668,1.065,3.947,1.065,1.337,0,2.549-.272,3.362-.455,6.001-1.413,8.668-4.366,9.205-10.193,.002-.024,.004-.049,.006-.073v-.01c9.919-3.288,16.287-14.066,16.286-27.689,0-1.949,0-7.878-4.436-11.091Z" fill="#fff"/>
  <g>
    <path d="M24.349,80.271c-7.624-2.917-7.965-3.034-7.965-4.855,0-.817,.136-1.813,.408-2.509,3.269,.097,4.428,1.04,4.969,3.405,.749,.004,1.363-.022,2.384-.279,3.065-.77,5.583-3.054,5.582-7.413,0-3.641-3.402-6.753-10.62-4.709-4.628,1.356-6.672,3.328-8.51,7.101-2.724,2.951-4.017,6.816-4.018,10.078,0,3.757,1.294,5.721,5.106,7.103,7.081,2.513,8.102,3.346,8.102,4.185-.002,.819-.542,1.716-1.906,2.121-1.975,.595-3.538-.075-6.264-4.035-.544-.015-1.089,.179-1.565,.351-2.927,1.058-5.036,4.176-5.037,7.645,.002,5.74,4.835,5.847,11.981,3.659,8.782-2.624,13.138-8.682,13.14-14.521,0-3.935-1.498-5.722-5.787-7.327Z" fill="#6a392e"/>
    <path d="M71.258,58.051c-1.431-.046-2.793,.61-3.54,1.143-.204,3.95-1.021,13.659-3.745,24.692-.41-3.816-2.586-15.909-2.928-18.691-.885-5.084-1.428-7.131-4.221-7.024-4.219,.172-7.285,2.56-7.284,5.891,0,1.907,.202,3.046,1.089,6.995-1.271,4.544-2.541,9.102-3.812,13.675-.272-3.31-.546-6.414-.818-9.177-.544-4.71-.954-9.839-1.157-11.11-.748-4.477-1.975-5.368-4.425-5.034-4.835,.663-8.643,3.01-8.646,7.023,0,1.636,.544,2.886,1.701,4.034,1.428,6.819,1.975,13.672,3.064,20.368,.748,4.452,1.565,6.386,5.786,5.836,3.063-.391,6.196-1.622,7.421-3.284,1.088-1.518,2.521-5.636,3.812-10.41,.271,1.549,1.365,7.14,1.635,8.558,.751,3.436,1.839,3.859,3.745,3.801,2.11-.06,3.676-.419,5.31-1.445,4.699-1.081,5.718-2.238,6.808-4.94,4.359-11.499,6.195-21.3,6.196-24.236-.002-5.169-2.178-6.543-5.991-6.667Z" fill="#6a392e"/>
    <path d="M106.39,90.252c-1.907-7.101-3.542-18.027-4.356-24.951-.339-2.767-2.317-4.906-6.673-5.45-3.743-.464-7.216-.001-9.599,1.077-4.766,12.023-8.374,28.718-8.375,30.486,.002,3.467,3.608,4.573,6.061,4.784,1.565,.129,2.587-.115,3.063-.547,0-.748,.545-4.919,.815-5.913,2.724,.262,5.308,.557,6.944,.549,.887,5.35,1.703,7.145,4.562,7.523,4.902,.652,9.67-.146,9.669-3.892,.002-1.429-.616-2.278-2.111-3.666Zm-17.905-7.209c.817-4.207,2.178-10.122,2.995-12.958,.543,3.804,1.361,10.501,1.907,13.22-1.227,.057-3.882-.164-4.902-.262Z" fill="#6a392e"/>
    <path d="M127.019,64.984c-3.269-.622-5.514-.492-8.306,.096-6.469-.602-8.03,.401-8.034,3.115,0,1.293,.139,2.677,.478,4.163-.067,2.508-.137,5.015-.204,7.387-.204,4.12-.273,9.011-.273,12.483,.002,6.132,.274,7.248,4.767,8.019,4.016,.7,5.173-.03,5.515-3.579,.09-1.141,.181-2.282,.271-3.422,.886,.367,1.701,.518,2.52,.67,7.964,1.493,13.479-3.983,13.48-15.972-.002-6.189-2.314-11.441-10.213-12.959Zm-1.838,20.96c-1.021-.193-2.859-.875-3.608-1.42,.182-3.825,.363-7.649,.545-11.474,4.288,1.135,5.106,3.004,5.106,5.724,0,4.085-.207,7.517-2.043,7.169Z" fill="#6a392e"/>
    <path d="M184.39,102.98c-2.244,3.075-5.71,4.784-8.386,4.313-1.537-.269-1.892-1.318-1.892-3.09,5.396-.265,7.325-2.53,7.324-5.832,.002-2.757-1.496-4.297-4.213-4.765-3.458-.592-7.737,3.583-8.522,8.786-1.971,2.024-3.667,2.967-4.235,2.858-.354-.068-.553-.263-.552-.697,0-.984,1.301-3.923,1.969-5.53,.592-1.384,.945-2.537,.945-3.758,0-1.379-.787-2.471-2.283-2.757-1.535-.294-3.978,.493-6.812,2.531,.315-1.171,.631-2.343,.946-3.514,3.067-4.475,3.938-6.594,3.938-8.326,0-2.009-.865-2.962-2.56-3.294-4.834-.951-6.517,4.452-8.001,17.304-2.648,3.167-5.325,4.483-6.922,4.16-.824-.167-1.065-.648-1.062-1.592,0-.591,.314-2.732,1.378-6.848,1.146,.427,1.969,.633,2.874,.816,1.301,.262,2.282-.682,2.283-2.178,.002-.591-.275-1.354-.747-1.804-.514,.015-2.163-.201-3.386-.407,2.087-3.752,2.56-4.602,2.56-5.823,0-1.693-.827-2.49-2.64-2.856-2.679-.54-4.801,1.512-5.157,4.906-.156,1.425-.197,2.047-.236,2.866-1.614-.286-2.48,.645-2.479,1.865,0,.867,.667,1.079,1.456,1.316-1.494,4.7-1.89,7.023-1.89,8.165,0,3.623,2.046,5.606,5.078,6.217,2.438,.493,5.304-.975,7.436-2.795,.175,1.991,1.801,4.224,3.983,4.66,.787,.157,1.455,.134,1.811-.19,.042-3.653,.315-6.552,.709-9.269,1.061-.695,2.011-.942,2.678-.811,.435,.085,.552,.423,.551,.738-.002,.866-2.047,4.992-2.047,7.59,.002,2.165,.787,3.346,3.109,3.799,2.078,.411,5.162-1.274,7.418-3.254,.593,2.856,2.321,4.709,5.379,5.256,5.117,.927,11.695-4.303,11.694-7.225,.002-.63-.551-1.345-1.496-1.532Zm-8.15-5.41c.47,.082,.787,.609,.787,1.436,0,1.18-.473,2.322-2.678,2.326,.274-2.707,1.341-3.858,1.891-3.762Z" fill="#6a392e"/>
    <path d="M217.658,79.438c-1.771-.083-3.062,.657-4.356,2.752-.747,1.245-2.383,4.538-4.017,7.604-.886,1.767-1.838,3.659-2.859,5.745-.748-2.111-1.566-4.164-2.383-6.152-1.431-3.273-3.2-7.209-4.63-9.35-1.224-1.71-2.381-2.319-5.105-2.674-4.901-.645-8.783,1.12-8.782,3.778,0,1.362,.478,3.341,1.021,5.059-.002,9.191,.069,21.319,.068,25.881,.475,1.162,1.633,1.814,3.198,2.039,3.334,.478,5.177-.792,5.516-3.673,.544-3.675,.613-10.066,.612-15.036,.771,2.049,1.543,4.096,2.314,6.139,.816,2.208,1.431,4.866,1.703,8.096,.339,.922,1.7,1.967,3.947,2.193,4.155,.41,5.514-3.728,5.719-8.335,1.634-2.389,3.064-5.016,3.745-6.742,.046,6.107,.091,12.215,.136,18.322,.75,1.138,2.518,1.791,4.356,1.873,4.018,.177,5.925-1.721,6.128-6.817,.342-6.326,.545-21.232,.545-27.428,0-1.655-.545-3.015-6.877-3.277Z" fill="#6a392e"/>
    <path d="M256.466,106.31c-1.908-6.487-3.54-16.941-4.357-23.636-.34-2.685-2.313-4.208-6.671-3.772-3.744,.368-7.218,1.386-9.601,2.779-4.765,12.661-8.374,29.508-8.373,31.284-.002,3.478,3.609,4.355,6.059,4.27,1.566-.047,2.589-.436,3.063-.935-.002-.749,.546-4.996,.817-6.031,2.723-.137,5.309-.342,6.944-.697,.884,5.156,1.701,6.798,4.562,6.465,4.901-.566,9.665-3.014,9.667-6.762,0-1.431-.613-2.063-2.11-2.967Zm-17.905-2.911c.818-4.334,2.181-10.484,2.995-13.473,.546,3.704,1.362,10.242,1.906,12.85-1.226,.316-3.88,.571-4.901,.624Z" fill="#6a392e"/>
    <path d="M277.095,72.463c-3.268,1.035-5.513,2.208-8.305,4.016-6.467,2.146-8.034,3.552-8.034,6.309,0,1.293,.137,2.629,.478,3.99-.069,2.533-.137,5.065-.204,7.461-.204,4.194-.275,9.109-.273,12.581,0,6.111,.272,7.205,4.767,6.195,4.016-.945,5.174-2.259,5.514-5.948,.091-1.182,.182-2.364,.272-3.546,.886-.039,1.7-.271,2.52-.511,7.966-2.342,13.48-11.315,13.479-23.273,0-6.25-2.313-9.866-10.213-7.275Zm-1.838,21.882c-1.019,.315-2.859,.505-3.607,.3,.181-3.908,.363-7.817,.544-11.726,4.288-.888,5.106,.49,5.106,3.229,0,4.082-.203,7.631-2.043,8.196Z" fill="#6a392e"/>
  </g>
</svg>