<?xml version="1.0" encoding="utf-8"?>
<!-- Generator: Adobe Illustrator 27.0.1, SVG Export Plug-In . SVG Version: 6.00 Build 0)  -->
<svg version="1.1" id="Laag_1" xmlns="http://www.w3.org/2000/svg" xmlns:xlink="http://www.w3.org/1999/xlink" x="0px" y="0px"
	 viewBox="0 0 512 512" style="enable-background:new 0 0 512 512;" xml:space="preserve">
<style type="text/css">
	.st0{fill:#FFFFFF;}
	.st1{fill:#D37D27;}
</style>
<g id="wit">
	<path class="st0" d="M256,38c120.4,0.1,218,97.8,217.9,218.3c-0.1,87.5-52.5,166.5-133,200.6C229.5,502.7,102,449.6,56.2,338.2
		c-45.3-109.9,5.9-235.9,115-283.1C198,43.8,226.9,37.9,256,38 M256,0C114.6,0,0,114.6,0,256s114.6,256,256,256s256-114.6,256-256
		S397.4,0,256,0z"/>
</g>
<g id="orange">
	<circle class="st1" cx="256" cy="256" r="219.7"/>
</g>
<g id="afbeelding">
	<path class="st0" d="M128.2,289.2c0.7,2.7,3.3,11.1,9.7,23.5c8.6,16.4,21.2,33.7,25.2,39c0.8,1,2,1.6,3.3,1.6h42.5l17,49.6
		l-12.1,3.9l2.6,7.3c0.7,2.1,3,3.2,5.1,2.5l151.6-49.7c1.7-0.6,2.8-2.1,2.8-3.9v-9.7c0,0,7.6-36.5,8-54.2c0.3-13.4-1.9-27.9-3-34.3
		c-0.3-1.9-2-3.3-3.9-3.4l-13.8-0.5c-4.9,15.2-21.2,23.5-36.3,18.6c-9.5-3.1-16.7-10.8-19.1-20.5l-1.5,0h-87.4
		c-3.9,15.5-19.5,24.9-35,21c-10.3-2.6-18.4-10.7-21-21H160c-11.4,0-22.1,4.6-26.3,6.6c-1.2,0.6-2,1.7-2.2,3l-3.3,18.8
		C128,288.1,128.1,288.7,128.2,289.2z M302.7,313.4c0-2.3,1.8-4.1,4.1-4.1l0,0h47.5c2.3,0,4.1,1.8,4.1,4.1c0,0,0,0,0,0
		c0,3-0.1,7.3-0.5,11.1c-0.4,4.1-1.1,8.6-1.5,11.7c-0.3,2-2,3.5-4,3.5h-45.5c-2.3,0-4.1-1.8-4.1-4.1l0,0L302.7,313.4z M220.7,313.4
		c0-2.3,1.8-4.1,4.1-4.1h58.7c2.3,0,4.1,1.8,4.1,4.1c0,0,0,0,0,0v22.1c0,2.3-1.8,4.1-4.1,4.1c0,0,0,0,0,0h-58.7
		c-2.3,0-4.1-1.8-4.1-4.1L220.7,313.4z M153.8,309.3h48.4c2.3,0,4.1,1.8,4.1,4.1l0,0v22.1c0,2.3-1.8,4.1-4.1,4.1h0h-33.6
		c-1.3,0-2.6-0.7-3.4-1.8c-1.7-2.4-5-7.1-8.6-12c-2.6-3.4-4.8-7-6.6-10.9c-0.9-2.1,0-4.5,2.1-5.4
		C152.6,309.4,153.2,309.3,153.8,309.3L153.8,309.3z"/>
	<path class="st0" d="M128.3,241.9c0,2.2,1.9,4,4.1,4h30.2c3.4-15.6,18.8-25.5,34.4-22.1c11,2.4,19.6,11,22.1,22.1h88.5
		c3.4-15.6,18.8-25.5,34.4-22.1c11,2.4,19.6,11,22.1,22.1h4.4c1.7,0,3.2-1.1,3.8-2.7c2.5-6.8,3.8-13.9,3.8-21.1
		c0-12.4-19.4-14.4-28.5-17.8c0,0-6.2-13.1-12.5-21.2c-7.1-9.1-13-16.4-13-16.4h25.6c11.3,0,1.9-21.8-7-31.9
		c-6.1-7-20.2-7.5-32.8-7.5s-32.1,3.1-41.3,3.1h-125c-1.3,0-2.6,0.6-3.4,1.7c-2.9,4.1-9.7,15.4-10.1,32.4
		C127.8,182.8,128.2,228.1,128.3,241.9z M294.6,166.9h17.8c1.2,0,2.4,0.5,3.1,1.4c2.2,2.7,7.3,8.9,13.8,18.3
		c2.3,3.3,4.3,6.8,5.9,10.4c0.9,2.1-0.1,4.5-2.2,5.4c-0.6,0.2-1.2,0.4-1.8,0.3c-9.7-0.5-28-1.8-32-4.2s-7.3-18.6-8.6-26.9
		c-0.4-2.2,1.2-4.3,3.4-4.7C294.1,166.9,294.4,166.8,294.6,166.9L294.6,166.9z M238.2,171c0-2.3,1.8-4.1,4.1-4.1h0h19.4
		c2.3,0,4.1,1.8,4.1,4.1c0,0,0,0,0,0v19.4c0,2.3-1.8,4.1-4.1,4.1c0,0,0,0,0,0h-19.4c-2.3,0-4.1-1.8-4.1-4.1v0L238.2,171z M145.3,171
		c0-2.3,1.8-4.1,4.1-4.1h0h33.9c2.3,0,4.1,1.8,4.1,4.1v0v6.8c0,2.3-1.8,4.1-4.1,4.1h0h-34c-2.3,0-4.1-1.8-4.1-4.1v0L145.3,171z"/>
	<circle class="st0" cx="335.8" cy="252.1" r="17.8"/>
	<circle class="st0" cx="190.9" cy="252.1" r="17.8"/>
</g>
</svg>
