<?xml version="1.0" encoding="UTF-8"?>
<svg xmlns="http://www.w3.org/2000/svg" width="260.842mm" height="78.313mm" xmlns:xlink="http://www.w3.org/1999/xlink" viewBox="0 0 739.394 221.989">
  <defs>
    <linearGradient id="d" data-name="Naamloos verloop 5" x1="367.883" y1="194.7" x2="367.883" y2="17.121" gradientUnits="userSpaceOnUse">
      <stop offset="0" stop-color="#ec5014"/>
      <stop offset="1" stop-color="#feb53a"/>
    </linearGradient>
    <linearGradient id="e" data-name="Naamloos verloop 9" x1="367.883" y1="195.7" x2="367.883" y2="16.121" gradientUnits="userSpaceOnUse">
      <stop offset="0" stop-color="#feb53a"/>
      <stop offset="1" stop-color="#f8e534"/>
    </linearGradient>
  </defs>
  <g id="a" data-name="schaduw">
    <path d="M726.788,49.404c-3.5-17.5-141.564-13.67-196.764-11.317-1.279-5.481-1.081-7.445-8.014-9.056-14.383-3.344-28.161,3.033-39.569,10.981-38.224,1.238-78.497,2.836-117.614,4.903-58.321,3.081-167.614,8.553-210.152,14.093,2.929-6.242,12.903-10.922,3.833-15.215-16.556-6.149-23.365,8.672-31.108,19.697-14.857,2.256-28.527,5.644-43.326,9.725-2.822-6.52-6.345-12.557-2.933-19.478,4.527-5.484,10.17-6.866,24.05,6.288,8.296-7.204,14.378-18.557,4.354-27.068-6.452-5.479-14.936-5.051-22.71-2.911-13.402,3.689-23.722,10.268-30.267,22.275-5.921,10.862-3.596,20.612,1.296,30.904-17.053,8.07-35.287,22.615-40.414,41.657-4.031,14.972,3.762,28.966,19.475,31.019,15.196,1.986,30.289-4.875,41.783-14.329,8.053-6.624,13.583-15.171,15.258-25.559,1.529-9.484-1.348-17.689-3.388-26.788,8.554-2.089,15.799-4.879,28.618-6.966-5.825,9.836-10.178,20.732-13.522,31.642-2.226,7.263-6.474,19.764-1.261,26.915,9.285,12.739,40.131-6.544,47.299-14.451,3.417,26.769,36.371,13.778,47.905,.663,6.195,3.633,11.942,2.176,17.936-3.43-2.004,5.219-.815,12.918,4.095,16.171,6.501,4.307,15.267,.831,17.408-6.137,2.254-7.336,2.19-16.28,6.2-22.957,2.296-3.823,6.673-6.843,10.427-9.123,.646-.392,7.923-4.162,6.038-1.547-2.365,6.16-5.685,12.083-8.612,17.987-2.619,5.285-6.995,12.449-4.848,18.635,4.003,11.535,23.5,5.863,39.897-7.697h0c1.1,9.284,7.158,14.378,18.869,14.423,12.663,.05,28.67-6.4,40.042-14.057,4.568,23.39,24.891,14.914,35.444,5.188-.846,1.506-5.197,8.869-7.263,13.207-30.781-2.152-60.562-4.606-91.443-3.779-29.364,.786-67.859,4.322-93.489,20.819-35.343,22.747,24.115,35.079,35.885,36.937,51.525,8.136,126.296,7.601,162.848-36.768,62.77,5.614,124.313,12.84,182.757,15.671,23.805,1.153,48.013,1.529,71.744-1.184,15.616-1.786,34.493-5.006,45.805-17.013,18.899-20.061-1.423-46.889-15.553-62.815,5.931-6.773,37.189-37.827,12.788-40.887-8.296-1.04-19.224,2.869-26.03,7.466-10.338,6.984-9.732,18.427-5.571,28.746-4.002,3.591-21.386,26.023-31.189,28.148-9.46,2.532,2.071-15.586,10.185-26.332,5.329-7.395,3.17-14.324-6.021-15.315,4.784-8.707,8.07-24.983-8.154-19.006-8.966,3.303-20.098,10.948-24.117,21.973-.756,2.367-2.679,7.483-.067,9.354-5.639,8.083-12.627,15.489-20.323,21.645-.591,.473-11.486,8.788-11.561,5.017,2.645-14.406,11.395-27.902,17.811-43.151,3.674-6.548-5.217-20.366-18.992-13.295-.538,3.08-1.245,6.122-2.065,9.137-7.74-4.724-19.476,4.314-24.236,7.881-8.954,6.71-15.961,16.586-21.265,26.316-8.969,7.734-18.736,14.062-30.58,16.285-5.39,1.012-12.719,2.002-17.176-2.09-4.147-3.807-4.573-17.946,3.176-36.269,5.672-13.412,13.714-24.697,25.167-33.751,4.008-2.841,10.436-5.496,9.312,1.686-1.3,8.299-8.903,15.583-7.355,23.661,5.107,20.793,31.568-16.013,31.944-24.663,65.138-2.33,164.135-3.88,192.59,13.286,.061-.328,7.362-5.5,4.711-16ZM63,129.939c-5.909,5.247-21.609,2.195-21.728-7.177-.111-8.744,16.493-18.667,23.387-20.941,3.451,5.873,8.308,19.268-1.659,28.118Zm230.088,53.791c-37.198,2.149-75.842-3.614-72.491-10.483,4.372-8.961,24.784-14.148,51.225-15.815,29.123-1.836,66.217,.894,94.112,4.175-8.429,15.401-43.381,20.421-72.846,22.123Zm-100.736-70.502c-2.233,4.061-6.609,10.601-12.109,10.352-5.939-.269-4.564-7.566-3.647-11.548,2.917-12.668,11.656-21.623,22.107-28.604-4.638,9.441-6.019,24.401-6.351,29.8Zm355.575-22.942c1.907-1.855,5.778-5.048,9.374-6.997-3.643,10.456-8.13,20.701-11.502,31.15-5.171,4.618-9.581,4.282-9.581-1.857,.848-8.766,5.501-16.26,11.709-22.296Zm-107.611,5.129c-6.162,18.861-10.299,47.871,15.891,50.638,19.985,2.112,39.539-7.229,54.55-19.596-.722,6.549,3.324,12.003,9.866,12.872,9.208,1.223,17.85-4.944,22.271-12.619-1.888,8.343,.732,14.014,9.884,15.203,7.881,1.024,15.46-2.822,21.682-7.274,13.148-9.407,22.654-22.337,33.409-34.166-4.327,8.414-8.852,17.007-11.998,25.962-3.813,10.855,2.787,17.233,13.637,16.025,19.588-2.18,38.966-17.772,52.702-30.963,6.577,12.983,21.064,30.429,3.613,41.679-14.752,9.51-33.822,10.204-50.611,11.07-32.73,1.687-93.898-2.782-135.852-6.271-25.213-2.097-56.674-5.337-81.894-7.362,11.375-15.667,15.574-31.712,19.155-44.497,3.825-13.657,11.567-32.741-7.963-36.753-9.617-2.151-16.652,26.457-18.14,32.018-1.935,7.231-25.622,42.734-29.305,17.1,9.074-6.263,42.367-41.415,21.779-48.009-9.803-3.14-15.916,5.545-21.601,12.959-6.404,8.351-11.703,25.149-13.054,30.255-11.359,9.001-20.769,10.921-29.992,10.885-6.381-.025-7.499-1.389-6.088-8.386,21.508-9.656,33.868-17.337,36.501-30.399,2.193-10.883-2.989-16.039-14.278-16.083-15.204-.06-38.735,21.849-44.841,44.337-8.208,7.849-17.44,11.986-17.901,9.56,2.782-15.521,18.842-26.938,20.387-42.909,2.042-21.102-35.129,7.33-39.664,11.727,3.276-4.466,7.395-10.492,7.903-16.132,.712-7.897-7.066-5.688-11.724-3.609-7.909,3.53-34.047,19.989-22.846,31.15-11.732,13.333-15.374,12.406-15.746,9.617,4.781-6.633,12.488-34.52,1.042-37.775-3.189-.907-5.841-.107-8.053,1.78-.066-3.266-3.007-6.69-13.363-4.945-14.703,1.006-30.431,25.251-33.328,35.484-2.336,2.441-29.667,22.932-29.667,13.103,.053-11.5,11.635-30.559,18.729-45.687,40.776-7.236,151.079-13.322,215.278-16.572,33.501-1.685,69.157-2.978,105.982-4.05-12.672,11.47-22.393,28.509-26.354,40.635Zm-124.329,6.735c3.34-10.88,8.822-16.149,11.113-16.14,1.963,.007,3.458,2.044,2.237,5.144-1.306,3.317-4.366,7.456-13.351,10.996Z" fill="#bc2324" stroke="#bc2324" stroke-miterlimit="10" stroke-width="3"/>
  </g>
  <g id="b" data-name="lijn">
    <path d="M722.788,38.403c-3.5-17.5-141.564-13.67-196.764-11.317-1.279-5.481-1.081-7.445-8.014-9.056-14.383-3.344-28.161,3.033-39.569,10.981-38.224,1.238-78.497,2.836-117.614,4.903-58.321,3.081-167.614,8.553-210.152,14.093,2.929-6.242,12.903-10.922,3.833-15.215-16.556-6.149-23.365,8.672-31.108,19.697-14.857,2.256-28.527,5.644-43.326,9.725-2.822-6.52-6.345-12.557-2.933-19.478,4.527-5.484,10.17-6.866,24.05,6.288,8.296-7.204,14.378-18.557,4.354-27.068-6.452-5.479-14.936-5.051-22.71-2.911-13.402,3.689-23.722,10.268-30.267,22.275-5.921,10.862-3.596,20.612,1.296,30.904-17.053,8.07-35.287,22.615-40.414,41.657-4.031,14.972,3.762,28.966,19.475,31.019,15.196,1.986,30.289-4.875,41.783-14.329,8.053-6.624,13.583-15.171,15.258-25.559,1.529-9.484-1.348-17.689-3.388-26.788,8.554-2.089,15.799-4.879,28.618-6.966-5.825,9.836-10.178,20.732-13.522,31.642-2.226,7.263-6.474,19.764-1.261,26.915,9.285,12.739,40.131-6.544,47.299-14.451,3.417,26.769,36.371,13.778,47.905,.663,6.195,3.633,11.942,2.176,17.936-3.43-2.004,5.219-.815,12.918,4.095,16.171,6.501,4.307,15.267,.831,17.408-6.137,2.254-7.336,2.19-16.28,6.2-22.957,2.296-3.823,6.673-6.843,10.427-9.123,.646-.392,7.923-4.162,6.038-1.547-2.365,6.16-5.685,12.083-8.612,17.987-2.619,5.285-6.995,12.449-4.848,18.635,4.003,11.535,23.5,5.863,39.897-7.697h0c1.1,9.284,7.158,14.378,18.869,14.423,12.663,.05,28.67-6.4,40.042-14.057,4.568,23.39,24.891,14.914,35.444,5.188-.846,1.506-5.197,8.869-7.263,13.207-30.781-2.152-60.562-4.606-91.443-3.779-29.364,.786-67.859,4.322-93.489,20.819-35.343,22.747,24.115,35.079,35.885,36.937,51.525,8.136,126.296,7.601,162.848-36.768,62.77,5.614,124.313,12.84,182.757,15.671,23.805,1.153,48.013,1.529,71.744-1.184,15.616-1.786,34.493-5.006,45.805-17.013,18.899-20.061-1.423-46.889-15.553-62.815,5.931-6.773,37.189-37.827,12.788-40.887-8.296-1.04-19.224,2.869-26.03,7.466-10.338,6.984-9.732,18.427-5.571,28.746-4.002,3.591-21.386,26.023-31.189,28.148-9.46,2.532,2.071-15.586,10.185-26.332,5.329-7.395,3.17-14.324-6.021-15.315,4.784-8.707,8.07-24.983-8.154-19.006-8.966,3.303-20.098,10.948-24.117,21.973-.756,2.367-2.679,7.483-.067,9.354-5.639,8.083-12.627,15.489-20.323,21.645-.591,.473-11.486,8.788-11.561,5.017,2.645-14.406,11.395-27.902,17.811-43.151,3.674-6.548-5.217-20.366-18.992-13.295-.538,3.08-1.245,6.122-2.065,9.137-7.74-4.724-19.476,4.314-24.236,7.881-8.954,6.71-15.961,16.586-21.265,26.316-8.969,7.734-18.736,14.062-30.58,16.285-5.39,1.012-12.719,2.002-17.176-2.09-4.147-3.807-4.573-17.946,3.176-36.269,5.672-13.412,13.714-24.697,25.167-33.751,4.008-2.841,10.436-5.496,9.312,1.686-1.3,8.299-8.903,15.583-7.355,23.661,5.107,20.793,31.568-16.013,31.944-24.663,65.138-2.33,164.135-3.88,192.59,13.286,.061-.328,7.362-5.5,4.711-16ZM59,118.938c-5.909,5.247-21.609,2.195-21.728-7.177-.111-8.744,16.493-18.667,23.387-20.941,3.451,5.873,8.308,19.268-1.659,28.118Zm230.088,53.791c-37.198,2.149-75.842-3.614-72.491-10.483,4.372-8.961,24.784-14.148,51.225-15.815,29.123-1.836,66.217,.894,94.112,4.175-8.429,15.401-43.381,20.421-72.846,22.123Zm-100.736-70.502c-2.233,4.061-6.609,10.601-12.109,10.352-5.939-.269-4.564-7.566-3.647-11.548,2.917-12.668,11.656-21.623,22.107-28.604-4.638,9.441-6.019,24.401-6.351,29.8Zm355.575-22.942c1.907-1.855,5.778-5.048,9.374-6.997-3.643,10.456-8.13,20.701-11.502,31.15-5.171,4.618-9.581,4.282-9.581-1.857,.848-8.766,5.501-16.26,11.709-22.296Zm-107.611,5.129c-6.162,18.861-10.299,47.871,15.891,50.638,19.985,2.112,39.539-7.229,54.55-19.596-.722,6.549,3.324,12.003,9.866,12.872,9.208,1.223,17.85-4.944,22.271-12.619-1.888,8.343,.732,14.014,9.884,15.203,7.881,1.024,15.46-2.822,21.682-7.274,13.148-9.407,22.654-22.337,33.409-34.166-4.327,8.414-8.852,17.007-11.998,25.962-3.813,10.855,2.787,17.233,13.637,16.025,19.588-2.18,38.966-17.772,52.702-30.963,6.577,12.983,21.064,30.429,3.613,41.679-14.752,9.51-33.822,10.204-50.611,11.07-32.73,1.687-93.898-2.782-135.852-6.271-25.213-2.097-56.674-5.337-81.894-7.362,11.375-15.667,15.574-31.712,19.155-44.497,3.825-13.657,11.567-32.741-7.963-36.753-9.617-2.151-16.652,26.457-18.14,32.018-1.935,7.231-25.622,42.734-29.305,17.1,9.074-6.263,42.367-41.415,21.779-48.009-9.803-3.14-15.916,5.545-21.601,12.959-6.404,8.351-11.703,25.149-13.054,30.255-11.359,9.001-20.769,10.921-29.992,10.885-6.381-.025-7.499-1.389-6.088-8.386,21.508-9.656,33.868-17.337,36.501-30.399,2.193-10.883-2.989-16.039-14.278-16.083-15.204-.06-38.735,21.849-44.841,44.337-8.208,7.849-17.44,11.986-17.901,9.56,2.782-15.521,18.842-26.938,20.387-42.909,2.042-21.102-35.129,7.33-39.664,11.727,3.276-4.466,7.395-10.492,7.903-16.132,.712-7.897-7.066-5.688-11.724-3.609-7.909,3.53-34.047,19.989-22.846,31.15-11.732,13.333-15.374,12.406-15.746,9.617,4.781-6.633,12.488-34.52,1.042-37.775-3.189-.907-5.841-.107-8.053,1.78-.066-3.266-3.007-6.69-13.363-4.945-14.703,1.006-30.431,25.251-33.328,35.484-2.336,2.441-29.667,22.932-29.667,13.103,.053-11.5,11.635-30.559,18.729-45.687,40.776-7.236,151.079-13.322,215.278-16.572,33.501-1.685,69.157-2.978,105.982-4.05-12.672,11.47-22.393,28.509-26.354,40.635Zm-124.329,6.735c3.34-10.88,8.822-16.149,11.113-16.14,1.963,.007,3.458,2.044,2.237,5.144-1.306,3.317-4.366,7.456-13.351,10.996Z" fill="none" stroke="#ed5c01" stroke-miterlimit="10" stroke-width="6"/>
  </g>
  <g id="c" data-name="inhoud">
    <path d="M722.788,38.403c-3.5-17.5-141.564-13.67-196.764-11.317-1.279-5.481-1.081-7.445-8.014-9.056-14.383-3.344-28.161,3.033-39.569,10.981-38.224,1.238-78.497,2.836-117.614,4.903-58.321,3.081-167.614,8.553-210.152,14.093,2.929-6.242,12.903-10.922,3.833-15.215-16.556-6.149-23.365,8.672-31.108,19.697-14.857,2.256-28.527,5.644-43.326,9.725-2.822-6.52-6.345-12.557-2.933-19.478,4.527-5.484,10.17-6.866,24.05,6.288,8.296-7.204,14.378-18.557,4.354-27.068-6.452-5.479-14.936-5.051-22.71-2.911-13.402,3.689-23.722,10.268-30.267,22.275-5.921,10.862-3.596,20.612,1.296,30.904-17.053,8.07-35.287,22.615-40.414,41.657-4.031,14.972,3.762,28.966,19.475,31.019,15.196,1.986,30.289-4.875,41.783-14.329,8.053-6.624,13.583-15.171,15.258-25.559,1.529-9.484-1.348-17.689-3.388-26.788,8.554-2.089,15.799-4.879,28.618-6.966-5.825,9.836-10.178,20.732-13.522,31.642-2.226,7.263-6.474,19.764-1.261,26.915,9.285,12.739,40.131-6.544,47.299-14.451,3.417,26.769,36.371,13.778,47.905,.663,6.195,3.633,11.942,2.176,17.936-3.43-2.004,5.219-.815,12.918,4.095,16.171,6.501,4.307,15.267,.831,17.408-6.137,2.254-7.336,2.19-16.28,6.2-22.957,2.296-3.823,6.673-6.843,10.427-9.123,.646-.392,7.923-4.162,6.038-1.547-2.365,6.16-5.685,12.083-8.612,17.987-2.619,5.285-6.995,12.449-4.848,18.635,4.003,11.535,23.5,5.863,39.897-7.697h0c1.1,9.284,7.158,14.378,18.869,14.423,12.663,.05,28.67-6.4,40.042-14.057,4.568,23.39,24.891,14.914,35.444,5.188-.846,1.506-5.197,8.869-7.263,13.207-30.781-2.152-60.562-4.606-91.443-3.779-29.364,.786-67.859,4.322-93.489,20.819-35.343,22.747,24.115,35.079,35.885,36.937,51.525,8.136,126.296,7.601,162.848-36.768,62.77,5.614,124.313,12.84,182.757,15.671,23.805,1.153,48.013,1.529,71.744-1.184,15.616-1.786,34.493-5.006,45.805-17.013,18.899-20.061-1.423-46.889-15.553-62.815,5.931-6.773,37.189-37.827,12.788-40.887-8.296-1.04-19.224,2.869-26.03,7.466-10.338,6.984-9.732,18.427-5.571,28.746-4.002,3.591-21.386,26.023-31.189,28.148-9.46,2.532,2.071-15.586,10.185-26.332,5.329-7.395,3.17-14.324-6.021-15.315,4.784-8.707,8.07-24.983-8.154-19.006-8.966,3.303-20.098,10.948-24.117,21.973-.756,2.367-2.679,7.483-.067,9.354-5.639,8.083-12.627,15.489-20.323,21.645-.591,.473-11.486,8.788-11.561,5.017,2.645-14.406,11.395-27.902,17.811-43.151,3.674-6.548-5.217-20.366-18.992-13.295-.538,3.08-1.245,6.122-2.065,9.137-7.74-4.724-19.476,4.314-24.236,7.881-8.954,6.71-15.961,16.586-21.265,26.316-8.969,7.734-18.736,14.062-30.58,16.285-5.39,1.012-12.719,2.002-17.176-2.09-4.147-3.807-4.573-17.946,3.176-36.269,5.672-13.412,13.714-24.697,25.167-33.751,4.008-2.841,10.436-5.496,9.312,1.686-1.3,8.299-8.903,15.583-7.355,23.661,5.107,20.793,31.568-16.013,31.944-24.663,65.138-2.33,164.135-3.88,192.59,13.286,.061-.328,7.362-5.5,4.711-16ZM59,118.938c-5.909,5.247-21.609,2.195-21.728-7.177-.111-8.744,16.493-18.667,23.387-20.941,3.451,5.873,8.308,19.268-1.659,28.118Zm230.088,53.791c-37.198,2.149-75.842-3.614-72.491-10.483,4.372-8.961,24.784-14.148,51.225-15.815,29.123-1.836,66.217,.894,94.112,4.175-8.429,15.401-43.381,20.421-72.846,22.123Zm-100.736-70.502c-2.233,4.061-6.609,10.601-12.109,10.352-5.939-.269-4.564-7.566-3.647-11.548,2.917-12.668,11.656-21.623,22.107-28.604-4.638,9.441-6.019,24.401-6.351,29.8Zm355.575-22.942c1.907-1.855,5.778-5.048,9.374-6.997-3.643,10.456-8.13,20.701-11.502,31.15-5.171,4.618-9.581,4.282-9.581-1.857,.848-8.766,5.501-16.26,11.709-22.296Zm-107.611,5.129c-6.162,18.861-10.299,47.871,15.891,50.638,19.985,2.112,39.539-7.229,54.55-19.596-.722,6.549,3.324,12.003,9.866,12.872,9.208,1.223,17.85-4.944,22.271-12.619-1.888,8.343,.732,14.014,9.884,15.203,7.881,1.024,15.46-2.822,21.682-7.274,13.148-9.407,22.654-22.337,33.409-34.166-4.327,8.414-8.852,17.007-11.998,25.962-3.813,10.855,2.787,17.233,13.637,16.025,19.588-2.18,38.966-17.772,52.702-30.963,6.577,12.983,21.064,30.429,3.613,41.679-14.752,9.51-33.822,10.204-50.611,11.07-32.73,1.687-93.898-2.782-135.852-6.271-25.213-2.097-56.674-5.337-81.894-7.362,11.375-15.667,15.574-31.712,19.155-44.497,3.825-13.657,11.567-32.741-7.963-36.753-9.617-2.151-16.652,26.457-18.14,32.018-1.935,7.231-25.622,42.734-29.305,17.1,9.074-6.263,42.367-41.415,21.779-48.009-9.803-3.14-15.916,5.545-21.601,12.959-6.404,8.351-11.703,25.149-13.054,30.255-11.359,9.001-20.769,10.921-29.992,10.885-6.381-.025-7.499-1.389-6.088-8.386,21.508-9.656,33.868-17.337,36.501-30.399,2.193-10.883-2.989-16.039-14.278-16.083-15.204-.06-38.735,21.849-44.841,44.337-8.208,7.849-17.44,11.986-17.901,9.56,2.782-15.521,18.842-26.938,20.387-42.909,2.042-21.102-35.129,7.33-39.664,11.727,3.276-4.466,7.395-10.492,7.903-16.132,.712-7.897-7.066-5.688-11.724-3.609-7.909,3.53-34.047,19.989-22.846,31.15-11.732,13.333-15.374,12.406-15.746,9.617,4.781-6.633,12.488-34.52,1.042-37.775-3.189-.907-5.841-.107-8.053,1.78-.066-3.266-3.007-6.69-13.363-4.945-14.703,1.006-30.431,25.251-33.328,35.484-2.336,2.441-29.667,22.932-29.667,13.103,.053-11.5,11.635-30.559,18.729-45.687,40.776-7.236,151.079-13.322,215.278-16.572,33.501-1.685,69.157-2.978,105.982-4.05-12.672,11.47-22.393,28.509-26.354,40.635Zm-124.329,6.735c3.34-10.88,8.822-16.149,11.113-16.14,1.963,.007,3.458,2.044,2.237,5.144-1.306,3.317-4.366,7.456-13.351,10.996Z" fill="url(#d)" stroke="url(#e)" stroke-miterlimit="10" stroke-width="2"/>
  </g>
</svg>