<?xml version="1.0" encoding="UTF-8"?>
<svg xmlns="http://www.w3.org/2000/svg" width="720" height="601.5" viewBox="0 0 720 601.5">
  <g id="a" data-name="Remco">
    <path d="M146.883,197.45s-3.447-.028-5.467,1.536c-2.021,1.563-6.029,4.784-12.662,8.441-6.634,3.655-10.821,5.882-12.182,6.905s-1.63,2.11-1.63,2.11c0,0-1.055,.091-1.439,.863-.383,.772-.383,1.822-.383,1.822,0,0-.829,.403-1.152,1.247-.322,.844,0,1.727,0,1.727,0,0-.41,.518-.863,1.15-.453,.633-.768,2.015-.768,2.015,0,0-1.868,.891-2.206,2.493-.338,1.602-.643,4.855,0,5.563,.641,.709,1.247,1.63,1.247,1.63,0,0-.613,2.597,1.247,3.645,1.861,1.049,3.204-.222,5.275-.574,2.074-.354,3.13-.568,4.989-1.824,1.858-1.255,3.221-.816,5.564-2.686,2.342-1.867,4.298-3.588,7.866-5.658,3.567-2.069,6.426-3.165,6.426-3.165,0,0,.752,2.496,2.111,4.316,1.358,1.82,.601,2.497,2.301,2.686,1.701,.189,7.098-.48,7.098-.48,0,0,3.42,.221,7.483-1.055,4.063-1.276,14.484-6.523,14.484-6.523,0,0,5.615-1.058,15.252-1.918,9.636-.859,18.896-2.687,18.896-2.687,0,0,7.75,3.508,15.54,2.877,7.79-.63,13.141-1.438,13.141-1.438,0,0,1.736,1.105,2.782,.961,1.047-.146,1.919-.961,1.919-.961,0,0,15-4.267,29.256-6.905,14.257-2.638,19.816-5.105,32.135-4.605,12.317,.502,15.43,.235,17.553,3.646,2.123,3.409,6.416,13.03,8.441,17.36,2.027,4.33,2.974,6.618,2.974,6.618,0,0-2.29,3.537-3.165,6.809-.877,3.273-1.533,4.64-4.412,7.004-2.881,2.361-5.046,3.362-4.222,5.945,.825,2.583,1.655,4.598,1.439,7.481-.215,2.885,.289,4.988,.289,4.988,0,0-3.748-.471-5.757,2.014-2.007,2.486-2.721,3.376,0,11.414,2.722,8.038,3.881,11.05,2.782,15.826-1.099,4.775-1.784,7.321-.48,9.399,1.305,2.078,1.264,1.607,1.726,4.316,.463,2.711,2.963,7.669,6.811,5.467,3.848-2.199,6.517-3.611,6.331-7.193s-.818-4.228-.384-7.001c.435-2.773,1.07-5.073,.384-7.77-.687-2.697-1.506-2.658-1.247-4.22,.258-1.562,.575-2.686,.575-2.686,0,0,1.499,.261,4.795-2.3,3.297-2.563,6.428-4.125,6.428-4.125,0,0,1.079-1.854,1.534-4.22,.455-2.367,2.379-5.386,3.549-6.331,1.17-.945,5.631-1.758,7.482-3.166,1.851-1.407,4.795-8.631,4.795-8.631,0,0,6.656-6.157,7.675-9.113,1.02-2.955-.575-9.303-.575-9.303,0,0,4.057-3.745,3.068-4.988-.989-1.242-2.832-1.31-3.74-3.453-.908-2.141-1.921-3.933-1.921-3.933,0,0,1.16-4.493,1.632-10.645,.472-6.155,.864-8.729,.864-8.729,0,0,1.169,.456,2.397-2.973,1.231-3.43,2.111-9.401,2.111-9.401,0,0,5.969-2.891,10.168-4.891,4.197-2.001,4.396-2.935,8.058-4.124,3.662-1.19,9.575-5.924,15.251-10.263,5.676-4.338,10.905-6.673,15.634-10.839,4.732-4.166,9.304-10.455,9.304-10.455l4.893-1.055s.92,1.346,7.483,2.111c6.563,.765,11.198-.45,13.333,.767,2.136,1.219,5.341,4.326,8.826,7.002,3.482,2.676,8.533,5.433,14.194,8.632,5.664,3.199,6.926,2.565,11.129,6.235,4.203,3.67,2.123,4.243,10.74,6.523,8.62,2.279,20.782,4.414,33.67,4.22,12.889-.195,25.532-.981,28.202-.768,2.667,.213,3.746,2.096,8.44,1.727,4.697-.37,11.316-3.679,11.801-3.837,.482-.157,4.315-.958,4.315-.958,0,0,5.338,.759,9.401,1.63,4.063,.871,5.521,.797,7.001-.191,1.483-.988,1.918-1.917-1.15-2.399-3.071-.481-3.329-.517-5.754-1.534-2.428-1.017-2.207-1.483-4.222-1.918-2.014-.435-3.261-.671-3.261-.671,0,0,1.648-.601,4.89-.768,3.245-.167,4.955-.595,8.636-.768,3.678-.173,5.72-.107,6.522-2.109,.802-2.004-.513-2.433-3.743-2.303-3.227,.131-8.44-.575-8.44-.575,0,0,4.93-.071,8.154-.383,3.224-.313,5.456-1.575,5.083-3.071-.37-1.497-6.329-2.301-6.329-2.301,0,0,1.803-.961,1.343-2.206-.46-1.246-1.072-1.892-4.125-1.439-3.053,.452-4.632,.845-7.29,.959-2.658,.113-3.451,.521-4.7,1.152-1.25,.629-5.959,2.117-8.058,2.974-2.098,.854-2.879,1.15-2.879,1.15,0,0-.385-1.613-1.629-2.302-1.247-.689-2.08-.442-2.686,.671-.606,1.113-2.872,3.219-4.99,4.7-2.114,1.48-3.454,2.206-3.454,2.206,0,0-5.468,1.09-15.251-.959-9.783-2.049-13.231-2.453-18.223-4.316-4.996-1.864-7.371-3.848-13.237-4.892-5.869-1.044-8.446-1.986-11.704-2.206s-6.544-.461-10.361-2.686c-3.811-2.224-8.568-6.292-13.33-8.824-4.766-2.531-7.738-3.594-8.922-5.754-1.184-2.161-3.351-8.536-8.633-12.756-5.282-4.222-10.927-8.74-12.276-9.112-1.352-.371-1.865,.024-2.496-1.055-.631-1.079-1.486-3.657-2.879-3.453-1.39,.205-2.53,.871-3.547,.096-1.02-.775-2.4-2.782-2.4-2.782,0,0,4.592-4.252,6.429-8.537,1.837-4.285,3.18-5.512,4.797-7.769,1.613-2.257,3.068-6.618,3.068-6.618,0,0,3.609-2.221,4.125-4.508,.516-2.287-.672-3.453-.672-3.453,0,0,4.514-4.15,1.918-10.071-2.596-5.921-6.942-12.78-12.565-15.538-5.624-2.761-8.027-3.185-13.719-3.262-5.689-.077-12.32-1.451-16.594,3.644-4.274,5.096-7.162,10.923-8.247,16.883-1.088,5.957-2.4,12.564-2.4,12.564,0,0-6.003,.145-12.758-.191-6.755-.336-9.115,.207-11.701-.768-2.59-.975-2.052-1.102-7.483-1.534s-6.603-.905-10.169-.096c-3.566,.808-4.797,1.727-4.797,1.727l-3.74-1.919s.572-2.849,3.261-7.865c2.692-5.016,4.98-9.389,7.004-11.701,2.021-2.314,1.464-2.985,3.454-2.974,1.986,.012,4.974,1.344,7.576-.192,2.602-1.536,4.306-2.983,7.483-4.221,3.177-1.237,3.18-2.684,5.083-3.741,1.903-1.055,12.774-5.105,11.99-8.728-.783-3.623-5.148-2.91-7.383-2.303-2.238,.608-9.018,5.372-9.018,5.372,0,0-.41-4.871,1.15-8.249,1.564-3.378,4.47-7.812,6.236-10.934,1.766-3.123,2.816-6.029,.479-6.618-2.338-.59-3.92,.577-5.468,2.782-1.545,2.205-4.794,5.275-4.794,5.275,0,0,3.6-5.565,1.533-7.098-2.064-1.533-3.939-1.698-5.275-.096-1.334,1.602-5.083,6.714-5.083,6.714,0,0,1.76-4.692-.096-5.851-1.856-1.158-4.017-.584-5.565,2.494-1.545,3.078-2.876,5.947-2.876,5.947,0,0-.591-1.85-2.496-1.439-1.906,.412-3.81,1.943-4.315,3.741-.507,1.798,.72,3.68,.382,5.755-.336,2.076-2.36,5.576-4.411,9.4-2.055,3.824-5.093,8.85-9.114,13.236-4.019,4.386-8.314,11.178-10.934,16.881-2.621,5.704-4.62,11.681-4.029,13.429,.591,1.747,5.343,6.561,8.057,7.673,2.714,1.112,5.862,3.882,9.305,5.946,3.441,2.065,5.083,2.686,5.083,2.686l-1.918,4.316s-4.514,1.153-8.249,4.509c-3.734,3.355-14.41,13.653-18.226,16.017-3.815,2.365-6.697,.473-10.167,.864-3.472,.391-3.549,.348-4.413,3.068-.863,2.721-.377,3.012-3.07,4.125-2.692,1.112-8.378,2.747-9.208,4.7-.832,1.952-1.166,4.413-4.508,6.042-3.343,1.628-11.017,4.877-13.909,7.961-2.891,3.084-3.453,5.084-3.453,5.084,0,0-5.13,2.751-9.017,4.604-3.887,1.853-6.127,2.304-7.77,2.014-1.642-.289-1.127-2.862-4.604-2.109-3.476,.752-7.482,5.371-7.482,5.371,0,0-3.125,1.17-4.891,2.878-1.768,1.708-2.303,2.398-2.303,2.398,0,0-3.042-1.444-5.083-.384-2.043,1.059-7.866,6.426-7.866,6.426,0,0-9.399-.71-17.65-2.398-8.251-1.688-30.503,.873-36.739,3.165-6.235,2.293-9.785,4.126-9.785,4.126,0,0-4.723-.584-5.563-.194-.839,.392-2.206,.767-2.206,.767l-11.127-.672Z" fill="#141515" fill-rule="evenodd"/>
  </g>
  <g id="b" data-name="Tekst">
    <g>
      <path d="M69.276,337.203c-6.04-.972-9.06-1.471-15.097-2.493,0,62.398-.003,124.797,.002,187.194-10.428,3.09-15.64,4.696-26.06,8.05-.002-66.616,.002-133.232-.002-199.848-7.403-1.362-11.104-2.059-18.503-3.497v-57.131c20.907,6.937,41.865,13.601,63.093,19.501-1.155,16.073-2.297,32.149-3.432,48.224Z" fill="#141515"/>
      <path d="M111.164,506.61c-.714-16.321-1.072-24.514-1.786-40.973-.825-19.838-2.335-32.868-4.533-39.675-1.319,.433-1.978,.651-3.297,1.091-.001,27.305-.002,54.608,0,81.913-10.442,2.61-15.661,3.981-26.096,6.855-.006-75.361-.001-150.722-.001-226.083,12.467,3.434,18.703,5.056,31.18,8.112,29.555,6.023,29.952,40.834,30.653,64.381,.485,16.275-10.702,41.455-11.275,49.154-.594,7.98,8.589,31.025,10.036,47.482,1.045,16.696,1.568,24.995,2.614,41.5-11.001,2.352-16.501,3.598-27.495,6.242Zm-6.869-170.748c-1.099-.173-1.649-.26-2.748-.435v56.431c7.832-2.528,9.617-6.58,9.617-30.904,0-18.394-2.06-24.338-6.869-25.092Z" fill="#141515"/>
      <path d="M189.816,490.705c-.825-11.521-1.24-17.301-2.065-28.912-6.827,.758-10.238,1.158-17.064,1.991-.825,12.197-1.238,18.316-2.063,30.615-10.898,2.012-16.345,3.088-27.237,5.387,6.91-63.261,14.103-126.488,21.595-189.684,13.042,2.478,19.567,3.617,32.617,5.684,6.928,56.965,14.085,113.9,21.477,170.806-10.906,1.501-16.358,2.324-27.259,4.112Zm-6.193-89.956c-1.471-22.65-4.405-67.95-4.405-67.95-.049,0-3.047,45.269-4.403,67.914-.661,10.754-.991,16.147-1.652,26.971,4.844-.239,7.266-.356,12.111-.58-.661-10.51-.99-15.779-1.651-26.356Z" fill="#141515"/>
      <path d="M283.302,479.602c-.22-15.874-.33-23.814-.551-39.706-.111-17.136,.731-34.273,1.929-51.363,0,0-5.236,20.99-10.746,36.186-3.196,8.76-4.791,13.177-7.987,22.103-3.416-9.126-5.127-13.727-8.543-23.033-5.371-14.541-10.189-36.342-10.189-36.342,1.389,18.499,1.805,36.966,1.928,55.512-.221,15.9-.329,23.856-.55,39.779-10.411,1.114-15.62,1.738-26.032,3.116,1.101-55.239,2.2-110.477,3.305-165.715,8.648,1.117,12.975,1.63,21.623,2.565,6.008,20.179,12.168,40.314,18.456,60.407,6.094-19.054,12.299-38.072,18.595-57.06,8.596,.623,12.894,.889,21.492,1.334,1.1,50.21,2.199,100.42,3.308,150.631-10.416,.505-15.624,.822-26.039,1.589Z" fill="#141515"/>
      <path d="M347.897,433.049c0,17.525,0,26.286-.002,43.811-10.472,.118-15.707,.244-26.179,.626v-149.412c10.858,.397,16.287,.525,27.145,.637,28.975-1.097,34.97,27.423,33.899,50.728-1.089,23.712-4.282,53.204-34.863,53.609Zm2.482-77.24c-.992-.005-1.489-.007-2.482-.014v52.066c7.855-2.335,9.37-7.615,9.37-28.34,0-17.553-1.652-23.682-6.889-23.712Z" fill="#141515"/>
      <path d="M424.071,480.968c-34.158-2.346-34.446-55.209-34.444-78.185,.002-23.018,.152-75.871,34.444-78.192,35.396-2.396,34.429,57.308,34.437,78.19,.008,20.894,.954,80.618-34.437,78.187Zm0-127.054c-7.893,.039-8.275,37.119-8.266,48.869,.009,11.854,.423,48.511,8.266,48.864,7.817,.351,8.148-37.835,8.266-48.866,.129-12.129-.597-48.905-8.266-48.867Z" fill="#141515"/>
      <path d="M512.9,488.127c-17.073-2.527-25.62-3.615-42.696-5.437v-159.823c10.465-1.117,15.704-1.741,26.171-3.123v130.719c7.988,.605,11.981,.932,19.966,1.626-1.377,14.501-2.063,21.708-3.44,36.038Z" fill="#141515"/>
      <path d="M523.216,489.708v-173.859c10.573-1.671,15.857-2.571,26.426-4.512,0,60.962-.003,121.923,.002,182.885-10.568-1.941-15.854-2.843-26.427-4.514Z" fill="#141515"/>
      <path d="M606.575,506.251c-3.409-17.607-5.112-26.234-8.521-43.169-4.276-21.627-11.687-65.101-11.687-65.101-.033,.004,2.12,41.214,2.201,61.839,0,16.914-.001,25.375-.001,42.288-10.065-2.229-15.097-3.286-25.167-5.269v-188.121c9.244-1.821,13.863-2.782,23.104-4.809,3.081,14.24,4.623,21.478,7.702,36.218,4.11,19.997,10.722,60.299,10.722,60.299,.028-.003-1.977-40.628-2.063-60.961,0-15.712-.003-23.567-.003-39.279,10.06-2.368,15.093-3.612,25.146-6.226,0,72.547-.003,145.095,.002,217.642-8.571-2.227-12.859-3.3-21.434-5.35Z" fill="#141515"/>
      <path d="M682.475,527.212c-.822-16.754-1.236-25.087-2.058-41.669-6.802-1.416-10.206-2.105-17.012-3.446-.824,15.565-1.23,23.307-2.053,38.714-10.868-3.18-16.305-4.699-27.183-7.591,7.529-75.581,14.693-151.195,21.551-226.84,13.011-3.736,19.515-5.708,32.512-9.855,7.5,86.488,14.602,173.009,21.383,259.556-10.851-3.69-16.279-5.465-27.141-8.869Zm-6.175-127.23c-1.422-30.575-4.386-91.718-4.386-91.718-.036,0-3.017,61.182-4.391,91.779-.659,14.251-.987,21.347-1.646,35.48,4.829,.393,7.245,.595,12.073,1.003-.658-14.679-.99-21.986-1.649-36.544Z" fill="#141515"/>
    </g>
    <g>
      <path d="M259.895,524.7c-1.862,3.211-5.938,4.494-9.437,3.917-1.648,3.497-4.655,7.281-8.871,7.276-5.716-.009-6.563-7.083-6.557-11.37,.008-5.86,4.398-28.218,11.829-28.208,3.43,.005,4.568,3.866,4.564,6.651-.011,7.86-7.241,16.782-12.607,21.848-.002,2.072,.704,7.289,3.491,7.292,2,.003,4.219-2.922,4.937-4.637-1.641-1.146-2.282-3.074-2.279-5.003,.002-1.573,1.576-3,3.077-2.998,2.215,.003,3.499,1.864,3.496,3.936,0,.644-.074,1.357-.218,1.999,.285,.073,.571,.073,.857,.073,4.144,.006,4.863-3.065,6.506-3.062,.715,.001,1.429,.644,1.427,1.43,0,.286-.072,.572-.215,.858Zm-13.47-24.456c-3.72,2.425-6.667,15.282-7.388,19.782,4.007-4.139,8.59-10.849,8.598-16.922,.002-.786-.067-2.787-1.21-2.86Z" fill="#141515"/>
      <path d="M267.825,526.067c.003-2.286,.942-9.144,4.086-9.14,1.571,.002,1.854,1.932,1.853,3.148-.005,3.357-1.794,5.283-1.797,7.927-.001,1.001,.212,2,.495,3.001,3.076-1.853,6.938-4.633,8.871-7.705,.357-.57,.787-1.069,1.573-1.068,1,.002,1.5,.858,1.498,1.716-.004,3.001-8.373,8.92-10.947,10.487,1.494,4.433,2.917,9.651,2.91,14.367-.01,7.431-4.016,10.497-11.161,10.487-5.574-.008-11.428-2.373-11.42-8.804,.011-7.573,9.379-13.992,15.171-17.27-.214-.572-.355-1.144-.497-1.643-2.217,1.783-5.435,3.707-8.365,3.703-2.787-.003-5.071-2.007-5.067-4.865,.004-2.787,3.091-12.359,6.449-12.354,.929,.001,1.571,.718,1.57,1.648-.001,.714-.431,1.498-1.147,1.784-1.359,2.142-3.08,5.498-3.083,8.069-.002,1.573,.783,2.004,2.212,2.005,2.572,.003,5.362-2.136,6.794-4.136l.002-1.357Zm4.969,23.516c.005-4.145-1.488-9.22-2.841-13.153-4.576,2.566-12.229,7.986-12.237,13.988-.006,4.573,4.78,5.509,8.424,5.515,4.573,.006,6.647-1.634,6.654-6.35Z" fill="#141515"/>
      <path d="M354.417,533.978c-3.507,3.71-9.152,4.773-14.011,4.767-4.859-.008-9.717-.942-14.36-2.235-2.148,3.713-5.51,5.852-9.796,5.846-5.788-.008-16.212-5.74-16.203-12.314,.004-2.858,2.221-4.498,4.936-4.494,5.002,.006,13.784,4.449,18.855,6.172,1.722-5.215,2.087-10.716,2.809-16.073-8.43-1.798-20.426-6.388-20.412-16.748,.005-3.216,1.794-5,4.937-4.996,1.501,.003,6.001,.653,5.998,2.725-.001,1.142-1.217,1.568-2.146,1.568-1.215-.002-2.285-.647-3.5-.648-.929-.002-1.073,.57-1.074,1.357-.011,8.002,10.271,12.161,16.844,13.17,1.583-7.285,6.031-20.213,15.391-20.199,5.073,.006,9.996,4.587,9.988,9.73-.006,4.716-3.656,8.784-7.517,11.065-4.361,2.638-9.508,3.415-14.581,3.409-1.007,5.572-1.73,11.215-3.239,16.716,4.287,1.363,9.001,2.513,13.503,2.52,7.573,.011,10.723-4.271,12.581-4.27,.93,.001,1.57,.647,1.568,1.574,0,.501-.288,1-.572,1.357Zm-49.725-4.144c-.286,0-.786,.215-.787,.572,1.209,4.074,8.706,8.801,12.85,8.805,2.644,.005,4.718-1.707,5.865-3.992-4.001-1.363-14.212-5.379-17.928-5.386Zm37.99-34.314c-6.86-.009-10.235,11.917-11.313,16.918,.499,.073,.928,.073,1.428,.074,6.287,.008,15.652-3.337,15.662-10.911,.005-3.143-2.563-6.076-5.777-6.081Z" fill="#141515"/>
      <path d="M384.015,525.373c-1.506,3.356-6.158,9.065-10.159,9.06-2.501-.005-4.929-1.651-6.068-3.867-2.218,1.997-5.223,4.638-8.367,4.633-3.929-.006-5.139-3.58-5.134-6.939,.005-2.787,1.368-7.787,2.799-10.212,.431-.643,1.217-1.071,2.004-1.071,1.071,.002,1.857,.79,1.856,1.86-.003,1.857-2.938,4.854-2.944,9.213-.002,1.358,.424,3.504,2.139,3.505,2.358,.003,5.364-3.137,6.653-4.85,.075-2.215,1.298-8.715,4.226-8.711,1.358,.002,2,1.36,1.999,2.574-.003,2.716-1.794,4.214-2.296,6,.283,1.714,1.209,4.002,3.281,4.006,4.501,.006,6.298-7.495,8.728-7.49,.786,0,1.5,.717,1.5,1.503-.002,.286-.073,.57-.216,.785Z" fill="#141515"/>
      <path d="M417.884,525.205c-1.433,3.572-5.084,8.712-9.373,8.706-6.931-.009-5.271-10.798-6.769-12.729-2.217,.426-7.086,8.064-7.517,10.207-.216,1.142-.86,2.07-2.074,2.069-1.001-.002-1.716-.859-1.714-1.788,.003-1.93,1.579-4.571,1.584-7.716,.002-.93-.067-2.716-1.354-2.717-3.357-.005-7.587,8.135-8.303,10.919-.288,1.144-.863,2.501-2.22,2.498-1.073-.001-1.999-1.001-1.997-2.002,.002-.644,2.369-7.5,2.728-9.429,.361-2,.94-8.286,3.727-8.283,1.357,.003,2.07,1.003,2.069,2.29-.002,.786-.647,2.501-.934,3.356,1.505-1.568,3.578-2.851,5.793-2.848,2.644,.003,4.069,1.934,4.352,4.365,1.358-1.641,4.222-4.783,6.508-4.78,5.789,.009,2.411,12.937,6.626,12.941,3.717,.006,4.87-7.423,7.442-7.42,.93,.002,1.57,.788,1.57,1.646-.001,.286-.073,.501-.145,.713Z" fill="#141515"/>
      <path d="M441.755,524.311c-.507,4.571-4.587,10.139-9.66,10.131-2.286-.003-4.071-1.363-5.212-3.294-1.648,2.642-4.438,5.21-7.725,5.206-3.572-.005-6.283-2.866-6.278-6.368,.008-5.572,6.665-14.78,12.668-14.772,1.714,.003,4.071,1.006,4.068,3.006,0,.429-.143,.786-.359,1.144,.358,.357,.501,.858,.499,1.357-.002,1.358-.432,2.644-.435,4.002-.002,2,.493,6.144,3.137,6.147,4.786,.008,5.156-8.566,7.871-8.561,.93,0,1.429,.786,1.427,1.573v.429Zm-16.927-5.24c-3.643-.006-8.156,7.276-8.16,10.563-.002,1.715,1.066,3.002,2.852,3.005,3.287,.005,5.939-4.636,5.942-7.565,.001-.786-.212-1.573-.212-2.358,.002-1.144,.218-2.358,.861-3.286-.356-.216-.783-.359-1.284-.359Z" fill="#141515"/>
      <path d="M451.678,532.398c-1.219,2.285-4.15,3.996-6.723,3.993-2.072-.003-5.93-1.153-5.927-3.726,.002-.856,.647-1.641,1.505-1.64,.856,.001,1.999,1.146,3.928,1.147,1.428,.003,3.001-.494,4.145-1.351,.214-.429,.287-1.001,.287-1.5,.005-2.501-3.779-5.436-5.563-6.939-.572,1.071-1.721,3.856-3.078,3.853-.858,0-1.357-.502-1.357-1.358,.003-1.788,1.293-3.643,1.937-5.213-.354-.787-.496-1.643-.496-2.501,.003-2.001,1.652-6.357,4.082-6.354,1.429,.003,1.784,1.074,1.783,2.29-.003,1.857-.72,3.856-1.293,5.571,2.569,2.433,6.637,5.512,7.347,9.227,1.43-1.425,2.503-2.995,3.507-4.711,.286-.497,.717-.855,1.287-.853,.858,0,1.357,.644,1.355,1.43-.003,2.572-4.654,7.354-6.727,8.636Z" fill="#141515"/>
      <path d="M473.544,529.5c-2.005,3.785-6.726,6.564-11.012,6.559-4.716-.008-8.139-3.872-8.132-8.516,.009-6.287,6.017-10.994,12.02-10.986,1.214,.002,3.429,.005,4.142,1.15,3-.068,4.495,4.222,4.492,6.651-.002,.644-.073,1.214-.218,1.857,3.715,.005,4.721-3.21,6.149-3.208,.787,.002,1.429,.645,1.427,1.432-.005,3.429-6.009,5.421-8.868,5.061Zm-8.062-7.871c.002-.572,.073-1.214,.289-1.715-4.144,.21-7.293,3.205-7.299,7.422-.003,2.785,1.778,5.504,4.78,5.507,2.644,.005,5.363-2.279,6.723-4.492-2.355-1.503-4.495-3.793-4.492-6.723Zm3.717-1.279c-.501-.002-.501,.783-.502,1.141-.001,1.571,1.284,2.932,2.568,3.789,.071-.427,.073-.785,.073-1.214,.002-1.001-.923-3.715-2.139-3.716Z" fill="#141515"/>
      <path d="M487.044,534.806c-6.43-.009-7.776-8.156-7.77-13.158,.008-5.216,2.751-24.719,9.539-24.709,2.716,.005,3.855,3.006,3.852,5.292-.011,7.217-4.954,16.427-9.391,22.066,.426,2.074,1.634,6.791,4.492,6.794,4.287,.006,4.941-7.996,7.371-7.992,.999,.002,1.427,.717,1.427,1.646-.006,4.215-4.874,10.068-9.519,10.061Zm1.548-34.009c-.213,.071-.427,.214-.642,.356-3.507,3.211-4.735,13.141-4.884,17.57,2.434-3.855,6.16-11.137,6.166-15.781,.002-.786-.068-1.571-.64-2.145Z" fill="#141515"/>
    </g>
  </g>
</svg>