<?xml version="1.0" encoding="UTF-8"?>
<svg id="d" data-name="Tekst copy" xmlns="http://www.w3.org/2000/svg" width="814.144mm" height="332.326mm" viewBox="0 0 2307.81 942.025">
  <polygon points="2256.633 902.334 34.455 902.334 34.669 203.846 398.475 43.223 573.713 117.964 614.563 106.267 716.082 198.053 831.727 164.452 948.655 226.982 1003.614 212.957 1085.855 256.765 1131.318 245.827 1395.197 324.074 1413.134 326.119 1506.618 396.825 1624.899 384.31 1705.11 415.156 1725.126 412.875 1852.291 458.137 1866.837 457.054 1980.547 510.948 2064.595 503.949 2101.411 538.077 2142.727 530.347 2196.336 550.051 2206.307 550.288 2256.633 902.334" fill="#141515" stroke="#141515" stroke-width="34.656"/>
  <path d="M502.834,655.455v247.962l-94.828-.379V38.471l98.323,27.413c81.852,22.825,122.776,91.636,122.776,309.809,0,219.33-45.419,280.824-126.272,279.762Zm8.985-435.16l-8.985-2.058v294.674c28.449-9.3,33.938-38.17,33.938-154.248,0-98.324-5.987-134.036-24.953-138.368Z" fill="#fff" stroke="#141515" stroke-width="20.794"/>
  <path d="M777.16,904.486l-146.982-.568V100.419l90.083,25.112V738.502l68.751,4.291-11.852,161.693Z" fill="#fff" stroke="#141515" stroke-width="20.794"/>
  <path d="M930.555,905.095l-6.738-119.808-55.698-2.748-6.738,122.285-88.936-.351,70.521-744.732,106.453,29.674,70.071,716.025-88.936-.345Zm-20.212-371.635c-3.594-70.145-14.373-278.604-14.373-278.604,0,0-11.229,207.843-14.373,274.448l-5.392,108.558,39.527,4.095-5.388-108.497Z" fill="#fff" stroke="#141515" stroke-width="20.794"/>
  <path d="M1150.44,905.955l-26.301-135.559c-13.575-70.829-36.057-219.96-36.057-219.96,0,0,6.786,129.393,6.786,211.458v143.844l-77.632-.305V208.32l71.269,19.867,23.755,133.156c12.729,69.638,33.089,206.076,33.089,206.076,0,0-6.363-114.684-6.363-198.116v-127.037l77.632,21.64V906.219l-66.178-.264Z" fill="#fff" stroke="#141515" stroke-width="20.794"/>
  <path d="M1390.834,439.848l-43.916-9.653v476.531l-75.862-.298V413.517l-53.897-11.859v-137.597l183.655,51.2-9.98,124.587Z" fill="#fff" stroke="#141515" stroke-width="20.794"/>
  <path d="M1489.842,907.288l-5.615-94.269-46.414-2.294-5.611,96.333-74.111-.284,58.763-587.045,88.708,24.733,58.392,563.118-74.112-.291Zm-16.844-292.521c-2.992-55.247-11.977-219.458-11.977-219.458,0,0-9.358,163.555-11.978,215.993l-4.491,85.476,32.937,3.412-4.491-85.422Z" fill="#fff" stroke="#141515" stroke-width="20.794"/>
  <path d="M1642.431,915.397c-35.983,0-91.528-7.865-91.528-275.22,0-263.415,67.425-271.876,105.851-261.019,33.885,9.585,56.594,37.675,56.594,37.675v101.885s-28.998-24.598-54.848-30.426-41.222,16.564-41.222,161.01c0,137.604,12.577,152.041,25.85,152.826,5.591,.325,16.07-2.768,16.07-2.768v-109.337l-17.464-2.085-3.493-103.441,87.331,15.088v291.404s-45.764,24.408-83.141,24.408Z" fill="#fff" stroke="#141515" stroke-width="20.794"/>
  <path d="M1854.179,541.069l-53.521-11.792v83.283l50.279,8.678v92.259l-50.279-5.956v98.418l58.388,3.642v99.136l-120.018-.474V409.551l121.642,33.911-6.491,97.607Z" fill="#fff" stroke="#141515" stroke-width="20.794"/>
  <path d="M1925.32,909.001l-58.984-.237V445.04l58.984,16.442c41.316,11.52,81.74,37.364,81.74,235.311,0,192.492-37.73,212.378-81.74,212.209Zm2.098-356.906l-4.196-.941v266.935l3.892,.23c17.368,1.043,23.359-11.818,23.359-129.521,0-113.926-5.395-132.757-23.055-136.703Z" fill="#fff" stroke="#141515" stroke-width="20.794"/>
  <path d="M2078.572,915.397c-30.737,0-68.615-20.008-68.615-218.193,0-196.37,37.601-207.559,68.615-198.793,31.834,9.002,68.616,42.041,68.616,218.193s-35.956,198.793-68.616,198.793Zm0-338.799c-12.075-2.775-16.468,12.617-16.468,127.977s5.212,132.032,16.468,132.628c10.979,.582,16.469-11.141,16.469-127.971,0-104.794-2.748-129.487-16.469-132.635Z" fill="#fff" stroke="#141515" stroke-width="20.794"/>
  <path d="M2155.175,909.902v-384.334l47.402,13.213v371.31l-47.402-.189Zm76.095,5.496l-28.192-201.494,24.699-168.096,52.147,14.539-31.935,157.686,34.426,192.37-51.145,4.995Z" fill="#fff" stroke="#141515" stroke-width="20.794"/>
  <path d="M502.834,655.455v247.962l-94.828-.379V38.471l98.323,27.413c81.852,22.825,122.776,91.636,122.776,309.809,0,219.33-45.419,280.824-126.272,279.762Zm8.985-435.16l-8.985-2.058v294.674c28.449-9.3,33.938-38.17,33.938-154.248,0-98.324-5.987-134.036-24.953-138.368Z" fill="#fff" stroke="#141515" stroke-width="6.931"/>
  <path d="M777.16,904.486l-146.982-.568V100.419l90.083,25.112V738.502l68.751,4.291-11.852,161.693Z" fill="#fff" stroke="#141515" stroke-width="6.931"/>
  <path d="M930.555,905.095l-6.738-119.808-55.698-2.748-6.738,122.285-88.936-.351,70.521-744.732,106.453,29.674,70.071,716.025-88.936-.345Zm-20.212-371.635c-3.594-70.145-14.373-278.604-14.373-278.604,0,0-11.229,207.843-14.373,274.448l-5.392,108.558,39.527,4.095-5.388-108.497Z" fill="#fff" stroke="#141515" stroke-width="6.931"/>
  <path d="M1150.44,905.955l-26.301-135.559c-13.575-70.829-36.057-219.96-36.057-219.96,0,0,6.786,129.393,6.786,211.458v143.844l-77.632-.305V208.32l71.269,19.867,23.755,133.156c12.729,69.638,33.089,206.076,33.089,206.076,0,0-6.363-114.684-6.363-198.116v-127.037l77.632,21.64V906.219l-66.178-.264Z" fill="#fff" stroke="#141515" stroke-width="6.931"/>
  <path d="M1390.834,439.848l-43.916-9.653v476.531l-75.862-.298V413.517l-53.897-11.859v-137.597l183.655,51.2-9.98,124.587Z" fill="#fff" stroke="#141515" stroke-width="6.931"/>
  <path d="M1489.842,907.288l-5.615-94.269-46.414-2.294-5.611,96.333-74.111-.284,58.763-587.045,88.708,24.733,58.392,563.118-74.112-.291Zm-16.844-292.521c-2.992-55.247-11.977-219.458-11.977-219.458,0,0-9.358,163.555-11.978,215.993l-4.491,85.476,32.937,3.412-4.491-85.422Z" fill="#fff" stroke="#141515" stroke-width="6.931"/>
  <path d="M1642.431,915.397c-35.983,0-91.528-7.865-91.528-275.22,0-263.415,67.425-271.876,105.851-261.019,33.885,9.585,56.594,37.675,56.594,37.675v101.885s-28.998-24.598-54.848-30.426-41.222,16.564-41.222,161.01c0,137.604,12.577,152.041,25.85,152.826,5.591,.325,16.07-2.768,16.07-2.768v-109.337l-17.464-2.085-3.493-103.441,87.331,15.088v291.404s-45.764,24.408-83.141,24.408Z" fill="#fff" stroke="#141515" stroke-width="6.931"/>
  <path d="M1854.179,541.069l-53.521-11.792v83.283l50.279,8.678v92.259l-50.279-5.956v98.418l58.388,3.642v99.136l-120.018-.474V409.551l121.642,33.911-6.491,97.607Z" fill="#fff" stroke="#141515" stroke-width="6.931"/>
  <path d="M1925.32,909.001l-58.984-.237V445.04l58.984,16.442c41.316,11.52,81.74,37.364,81.74,235.311,0,192.492-37.73,212.378-81.74,212.209Zm2.098-356.906l-4.196-.941v266.935l3.892,.23c17.368,1.043,23.359-11.818,23.359-129.521,0-113.926-5.395-132.757-23.055-136.703Z" fill="#fff" stroke="#141515" stroke-width="6.931"/>
  <path d="M2078.572,915.397c-30.737,0-68.615-20.008-68.615-218.193,0-196.37,37.601-207.559,68.615-198.793,31.834,9.002,68.616,42.041,68.616,218.193s-35.956,198.793-68.616,198.793Zm0-338.799c-12.075-2.775-16.468,12.617-16.468,127.977s5.212,132.032,16.468,132.628c10.979,.582,16.469-11.141,16.469-127.971,0-104.794-2.748-129.487-16.469-132.635Z" fill="#fff" stroke="#141515" stroke-width="6.931"/>
  <path d="M2155.175,909.902v-384.334l47.402,13.213v371.31l-47.402-.189Zm76.095,5.496l-28.192-201.494,24.699-168.096,52.147,14.539-31.935,157.686,34.426,192.37-51.145,4.995Z" fill="#fff" stroke="#141515" stroke-width="6.931"/>
</svg>