<?xml version="1.0" encoding="UTF-8"?>
<svg xmlns="http://www.w3.org/2000/svg" width="112.212mm" height="111.272mm" viewBox="0 0 318.081 315.415">
  <g id="a" data-name="bus">
    <circle cx="159.041" cy="158.276" r="150.236" transform="translate(-65.336 158.817) rotate(-45)"/>
    <circle cx="159.041" cy="158.277" r="98.016" transform="translate(-59.21 210.354) rotate(-58.283)" fill="#fff"/>
  </g>
  <g id="b" data-name="logo">
    <g>
      <g>
        <path d="M235.773,104.856c.858,.798,.789,1.822,.71,3.139-.282,4.659-2.699,16.41-3.968,17.384-1.155,.889-4.279,.804-5.45,.74-2.242-.118-7.806-.184-7.806-3.627,0-5.491,.934-10.085,1.942-15.415,.385-1.392,.473-2.014,1.214-2.577,1.269-.964,12.143-1.008,13.357,.356"/>
        <g>
          <path d="M213.402,163.22c-.002,.016-.004,.03-.004,.041v-.041h.004Z"/>
          <path d="M131.452,195.315c-.023,.005-.048,.011-.074,.017,.017-.012,.04-.017,.074-.017Z"/>
          <path d="M132.689,201.563c1.355-1.493,1.755-1.716,3.308-2.796,.546,.29-5.04-3.158-4.619-3.435,.025-.006,.05-.012,.074-.017-.034,0-.057,.005-.074,.017-.958,.208-2.491,.59-3.348,.92,2.183,.546,3.228,1.175,3.274,2.885,.041,1.593-.997,3.78,.183,3.745l1.201-1.318Zm80.709-38.3c-.002,.014-.002,.023,0,.023v-.023Zm-23.157,31.775c.339-.334,.612-.675,.949-.948-2.861,.287-3.739,1.762-5.891,3.591,1.527,1.894,3.063,2.163,4.605,.812,0-1.103-.504-2.601,.336-3.455Zm-43.646-15.697c-12.966-.162-36.281-.82-42.578-3.454,1.741,5.108,16.658,6.669,33.064,7.723,0,.27,.396,5.299,.396,7.522,9.591,.372,28.927,.747,38.859-.459,.27-2.03,.555-4.9,.702-7.01,11.08-.681,36.466-4.852,37.194-9.477-12.142,4.055-31.505,4.913-45.766,5.117,11.744-.562,20.943-2.21,35.181-5.723,0-.158,7.79-2.2,7.79-5.349-4.387,1.821-7.614,2.804-8.896,1.741-1.647-1.374-1.35-5.487-.369-9.34,.687-1.937,6.11-2.355,9.332-3.443,3.14-.887,1.985,5.317,1.897,6.03h-.004v.041c0-.011,.002-.025,.004-.041,16.758,2.766,20.325,5.826,22.144,8.598,2.439,4.208-4.786,2.525-5.2,5.851-.494,3.929,4.279,3.146,3.845,7.174-.398,3.728-6.731,2.76-6.862,4.887-.206,3.43,4.588,2.965,3.642,6.756-1.144,4.578-6.239,1.248-6.653,5.403,0,2.666,3.53,2.81,3.117,6.97-.52,3.844-5.406,2.077-5.821,4.568-.208,3.122,2.704,3.227,2.39,6.24-.831,3.222-4.362,1.949-4.678,4.363-.309,2.393,3.947,4.682-1.244,5.617-4.398,.786-10.777,.581-19.704-.751-8.426-1.256-13.59-3.195-15.852-5.059-3.865-5.066,5.327-4.533,2.664-7.063-3.33-2.936-2.726-4.355,1.197-5.996,3.462-1.463-5.326-4.13,1.35-6.113-6.729-1.351-11.03-3.249-18.22-3.249-5.676,0-10.984,1.358-16.771,.75-5.708-.589-12.958-.303-18.214,2.836,.831,1.562,.364,1.77-1.975,4.212-1.82,2.288,3.793,1.15,4.157,4.158-.052,2.648-4.313,3.949,.779,4.99,3.638,1.765-2.858,5.455-5.978,6.936-7.252,3.254-11.255,4.35-23.105,5.181-2.599,.311-5.613,0-7.381-2.808-.93-1.671,3.016-3.224,1.975-5.508-1.558-2.809-4.678-.622-6.028-3.327-1.248-3.639,3.897-5.326,2.183-7.279-1.87-2.728-4.469-.103-6.548-3.427-1.352-2.911,3.222-4.86,1.974-6.655-1.949-2.417-4.055-.729-5.509-3.741-1.248-2.804,3.118-4.157,2.079-6.86-1.143-2.081-3.43,.204-4.782-2.285-1.456-3.224,2.91-4.057,2.391-6.029-1.352-2.291-3.949-.674-4.99-2.914-.833-1.787-3.303-9.03,18.634-13.597-.449-3.05-1.468-6.105,0-6.442,.984-.717,4.845-.284,9.817,.433,1.509,.623,1.15,2.187,1.197,6.612-.043,2.557-.11,4.924-.404,5.364-.802,1.208-7.153-.302-9.253-1.109,1.054,3.32,4.083,4.179,7.895,4.986,11.152,1.979,24.138,3.048,34.936,3.45Zm44.122,23.622c-.066-.07-.137-.07-.201-.07,0,.07,.065,.07,.201,.07Z"/>
        </g>
        <path d="M213.133,136.665c.23,2.075,1.109,12.831-3.047,14.424-2.543,.975-5.266,1.277-8.059,1.624-1.692,.137-28.97,1.293-36.893,1.226-.204,0-16.155-.119-24.891-.119-1.559,0-25.427-.742-31.048-.908-1.444-.042-5.099,.043-7.266-1.572-1.954-1.316-2.016-7.884-1.916-11.697,.061-2.331,.791-3.025,.791-3.052,2.239-3.201,8.409-2.502,19.89-2.972,23.824-.978,56.546-.814,56.546-.814,21.212,.348,32.091,1.494,32.091,1.494,1.436,.143,3.535,.965,3.801,2.367m-84.216,10.705c.235-2.826,.336-4.708,.168-7.23,0-.474-.034-1.884-.572-2.59-.837-1.1-2.119-.807-3.733-.741-1.312,.035-2.758,.305-3.363,.978-.386,.428-.605,1.646-.639,2.253-.097,1.746-.135,3.06-.135,4.977,0,1.018-.202,3.093,.37,3.8,.774,.975,1.648,.772,3.068,.852,2.312,.125,4.663-.226,4.836-2.298Zm-10.5-1.894c.297-2.552,.212-6.757-.633-7.66-1.491-1.264-5.612-.966-8.395-.818-5.168,.276-6.864,.617-6.729,5.234,.035,1.219,.059,3.945,.622,4.984,.902,1.658,5.489,1.618,7.232,1.743,1.275,.084,5.512,.211,6.799-.468,.677-.269,.977-1.953,1.105-3.016Zm-11.064,3.515v-.069h-.068s.068,0,.068,.069Z"/>
        <path d="M206.202,144.815c-.042,.048-.042,.056-.042,.112,0-.066-.069-.066-.069-.066,0,0,.053,0,.111-.046Z"/>
        <path d="M201.352,140.866h.066c-.059,.058-.119,.222-.131,.307,.012-.085,.064-.249,.064-.307Z"/>
        <path d="M168.127,121.685c0,1.495-2.463,1.314-3.048,.135-.37-2.199,2.983-1.195,3.048-.135"/>
        <path d="M116.346,161.277c25.869,1.986,63.224,1.483,80.989-.614-.13,.016,.177-.056,0,0-4.335,1.414-5.573,1.479-5.573,1.479-.311,4.188-.37,7.787-1.928,9.666-.793,1.218-3.762,2.091-7.346,2.507-16.263,1.591-26.624,1.691-41.445,1.336-6.108-.144-11.579,.141-13.975-2.062-1.881-1.73-2.485-5.677-2.788-10.199-.105-1.574-3.017-.295-7.935-2.112"/>
        <path d="M145.074,121.429c.668,1.358-2.575,2.197-2.575,.405,.283-.844,2.033-1.852,2.575-.405"/>
        <path d="M120.152,112.76c-.492-3.569,2.801-6.338,5.289-8.503,2.515-2.192-1.219-1.828-2.562-2.633-1.833-1.101,5.409-5.124,6.16-5.636,.624-.426,3.418-1.994,1.931-2.879-.218-.13-2.721-.789-2.721-.745,.36-1.739,2.216-3.053,3.64-3.898,1.063-.633,3.943-1.248,4.45-2.253-3.981,.28-9.667,.696-12.869,3.527-3.94,3.485-6.948,8.605-9.619,13.079-2.531,4.243-4.923,9.551-5.295,14.52-.111,1.488,2.612,.5,6.923,.039,2.485-.267,4.47-.52,7.18-1.301-.362,.017-4.47,.041-4.47-.137,0-1.312,17.535-1.501,20.21-1.518,1.888-.011,5.25-.268,7.15,.707,2.883,1.52,5.28,2.924,7.749,4.539,1.267,.826,3.153,1.015,3.153,1.015-.743,1.164-2.074,1.208-2.615,1.06-1.143-.31-2.525-1.13-3.926-2.079-1.375-.935-2.727-1.142-4.337-1.055-7.557,.413-15.061,.507-22.606,1.319-5.038,.542-10.179,1.003-15.147,2.025-2.153,.443-4.596,.96-6.628,1.777-.704-.355-.107-2.116,.071-2.798,1.838-7.039,4.477-13.964,8.36-20.156,3.172-5.056,7.627-10.917,12.405-14.585,4.471-3.431,6.91-3.445,22.35-4.365,8.731-.52,19.864-.264,28.357,.143,4.297,.206,15.512,.895,19.205,2.82,2.959,1.816,9.873,13.59,11.774,17.243,1.843,3.543,6.338,15.016,7.051,17.071,.56,1.616,1.489,3.279,1.489,5.031-4.246-3.025-10.428-1.125-14.764-3.993-2.073-1.353-4.323-3.269-6.636-4.133,.614-1.208-5.533-2.12-6.12-2.253-3.955-.886-19.29-1.438-22.782-1.431-2.472,.008-6.461-.624-8.278,1.177,5.539,.802,11.243,.421,16.833,.77,2.797,.175,11.999,.925,16.488,1.938,2.895,1.158,9.461,5.985,10.844,6.846,2.361,1.474,3.641-.425,2.767,1.418-3.058,3.062-7.561-3.794-10.386-4.04-4.144-.362-29.518-1.84-31.345-1.903-2.167-.073-2.646-.396-4.456-1.305-3.39-1.721-7.963-3.904-11.309-5.012-4.152-.516-22.381-.01-22.958,.543m79.844-9.413-5.3-9.855c-1.45-2.175-2.612-4.134-4.167-5.208-1.875-1.298-4.249-1.509-7.464-1.865,10.973,5.466,12.986,17.537,15.369,28.526,.569,2.624,.415,3.584,3.17,4.263,1.688,.418,3.785,.871,3.878-.488-.812-3.627-5.282-17.037-10.786-25.228m-1.134,16.287c.84-1.654-6.178-2.296-7.009-2.365-3.823-.321-9.218-.56-12.428,1.894,3.421,.886,6.666-.951,10.066-.68,.543,.069,.913,.362,1.108,.882,1.149-.316,2.344-.455,3.535-.403,1.59,.068,3.141,.529,4.727,.673m-42.056,8.738c0-.126,0-.07,0,0"/>
      </g>
      <path d="M195.032,148.229c1.25,.678,5.495,.552,6.774,.467,1.752-.126,6.336-.086,7.331-1.743,.623-1.037,.8-3.767,.903-4.984,.397-4.618-1.28-4.959-6.433-5.233-2.776-.148-6.88-.447-8.441,.816-1.12,1.154-1.22,5.11-1.065,7.659,.067,1.063,.271,2.747,.931,3.018Z" fill="#fff"/>
      <path d="M187.806,149.347c1.425-.078,2.286,.123,3.122-.851,.617-.704,.55-2.781,.615-3.801,.123-1.916,.171-3.23,.185-4.978,.007-.604,.06-1.867-.297-2.298-.562-.672-2.041-1.066-3.351-1.1-1.609-.068-3.039-.044-3.946,1.056-.584,.705-.688,1.971-.718,2.445-.329,2.522-.484,4.781-.431,7.606,.039,2.072,2.501,2.049,4.82,1.921Z" fill="#fff"/>
      <path d="M77.442,108.294c1.126-1.353,11.822-1.886,13.117-1.038,.756,.494,.873,1.079,1.32,2.378,1.253,4.999,2.395,9.301,2.665,14.505,.169,3.262-5.297,3.617-7.497,3.847-1.148,.121-4.216,.367-5.395-.415-1.296-.858-4.249-11.863-4.755-16.265-.143-1.243-.261-2.21,.545-3.012"/>
      <g>
        <path d="M164.946,143.493c0,4.33-3.51,7.84-7.839,7.84s-7.84-3.51-7.84-7.84,3.51-7.839,7.84-7.839,7.839,3.51,7.839,7.839Z" fill="#fff"/>
        <g>
          <path d="M157.106,135.329c-4.508,0-8.163,3.656-8.163,8.164s3.655,8.163,8.163,8.163,8.164-3.655,8.164-8.163-3.655-8.164-8.164-8.164h0Zm0,15.594c-4.104,0-7.432-3.326-7.432-7.43s3.327-7.433,7.432-7.433,7.431,3.328,7.431,7.433-3.326,7.43-7.431,7.43h0Z" fill="#0f0f0d" fill-rule="evenodd"/>
          <path d="M155.479,137.941c.517-.151,1.062-.233,1.627-.233s1.109,.081,1.625,.233h0l-1.625,3.6-1.627-3.6h0Z" fill="#0f0f0d" fill-rule="evenodd"/>
          <path d="M160.212,138.613c.609,.388,1.141,.887,1.566,1.469h0l-2.666,5.903-1.029-2.289h-1.952l-1.028,2.289-2.664-5.908h0c.426-.58,.956-1.078,1.563-1.464h0l2.129,4.725h1.957l2.124-4.725h0Z" fill="#0f0f0d" fill-rule="evenodd"/>
          <path d="M151.518,141.996c-.127,.477-.195,.979-.195,1.498,0,2.267,1.304,4.229,3.202,5.176h0l-3.006-6.674h0Z" fill="#0f0f0d" fill-rule="evenodd"/>
          <path d="M155.506,149.053c.507,.145,1.045,.225,1.6,.225s1.091-.079,1.598-.225h0l-1.598-3.55-1.6,3.55h0Z" fill="#0f0f0d" fill-rule="evenodd"/>
          <path d="M159.688,148.669c1.898-.946,3.202-2.909,3.202-5.176,0-.515-.066-1.011-.191-1.486h0l-3.01,6.662h0Z" fill="#0f0f0d" fill-rule="evenodd"/>
        </g>
      </g>
    </g>
  </g>
  <g id="c" data-name="tekst boven">
    <g>
      <path d="M43.518,150.884c.163-1.368,1.777-2.98,2.115-5.819,.257-2.155-.744-3.072-1.941-3.215-1.847-.22-2.476,1.856-3.877,4.881-1.266,2.764-2.851,5.593-7.264,5.067-5.302-.632-7.306-5.068-6.756-9.686,.53-4.447,2.362-6.726,4.483-6.474,1.505,.179,2.481,1.302,2.306,2.772-.212,1.778-1.205,2.25-1.486,4.61-.179,1.505,.485,2.625,1.683,2.768,1.402,.167,1.736-1.182,3.458-4.861,1.35-2.892,3.236-5.616,7.854-5.066,5.609,.668,7.648,5.108,7.033,10.273-.387,3.25-2.239,8.024-4.976,7.699-1.505-.18-2.831-1.274-2.632-2.95Z" fill="#fff"/>
      <path d="M51.498,130.973l-11.752,1.453c-1.561,.205-2.928,.357-3.524,.189-1.525-.429-2.076-1.907-1.712-3.201,.354-1.26,1.269-1.969,2.703-2.102l8.75-.831-6.219-4.862c-1.405-1.111-2.427-2.186-2.025-3.611,.448-1.592,1.774-2.364,3.366-1.916,.763,.214,1.556,.831,2.078,1.264l15.719,12.688c1.191,.978,2.164,1.718,1.661,3.509-.522,1.856-2.178,2.142-3.04,1.9-.895-.252-1.417-.686-2.609-1.665l-3.395-2.815Z" fill="#fff"/>
      <path d="M42.431,112.744c-1.403-.659-2.056-2.185-1.382-3.619,.616-1.309,1.838-1.724,2.702-1.698-.849-1.351-.888-2.968,.094-5.057,1.583-3.367,4.589-5.227,8.579-3.351l9.009,4.235c1.403,.659,2.056,2.185,1.382,3.619-.674,1.434-2.265,1.903-3.668,1.244l-7.7-3.62c-1.683-.792-3.399-.381-4.19,1.303s-.014,3.268,1.669,4.059l7.7,3.62c1.403,.66,2.056,2.186,1.382,3.619-.674,1.434-2.266,1.904-3.668,1.244l-11.908-5.599Z" fill="#fff"/>
      <path d="M54.145,84.871c1.359-1.992,4.161-4.875,6.523-3.264,1.195,.815,1.533,2.214,.834,3.238-.776,1.138-1.73,.946-2.914,2.682-1.534,2.248-.545,4.466,1.503,5.864,2.049,1.397,4.494,1.481,5.833-.481,1.301-1.906,1.135-3.312,1.582-3.967,.699-1.024,2.267-1.122,3.205-.481,2.22,1.515,.685,5.597-.519,7.36-3.068,4.496-8.664,5.057-13.131,2.008-4.467-3.049-5.985-8.464-2.916-12.959Z" fill="#fff"/>
      <path d="M62.66,78.724c-1.156-1.032-1.347-2.681-.292-3.862,.964-1.079,2.254-1.128,3.075-.856-.2-1.38-.073-3.021,.936-4.152,.917-1.027,2.658-1.321,3.916-.196,1.388,1.238,.781,2.591-.09,4.445-1.046,2.206-1.089,3.184,.967,5.019l4.882,4.359c1.156,1.033,1.347,2.681,.291,3.863-1.056,1.182-2.715,1.178-3.871,.145l-9.815-8.766Z" fill="#fff"/>
      <path d="M89.69,62.006c3.489,4.132,3.503,9.756-.656,13.267-4.159,3.512-9.7,2.555-13.189-1.578-3.489-4.132-3.503-9.756,.656-13.267,4.159-3.512,9.7-2.555,13.189,1.578Zm-9.739,8.222c1.6,1.895,3.934,2.63,5.749,1.097,1.816-1.533,1.483-3.957-.117-5.852-1.6-1.895-3.934-2.63-5.749-1.097s-1.483,3.957,.117,5.852Z" fill="#fff"/>
      <path d="M89.174,54.428c-.779-1.341-.449-2.967,.921-3.763,1.251-.727,2.493-.372,3.188,.14,.069-1.595,.957-2.947,2.953-4.106,3.217-1.869,6.747-1.689,8.962,2.123l5.002,8.607c.779,1.341,.449,2.967-.921,3.763-1.37,.796-2.946,.277-3.725-1.062l-4.275-7.357c-.935-1.608-2.58-2.245-4.188-1.31-1.608,.934-1.869,2.68-.935,4.288l4.274,7.356c.779,1.34,.449,2.966-.921,3.763-1.37,.796-2.946,.277-3.725-1.062l-6.611-11.378Z" fill="#fff"/>
      <path d="M129.134,50.251c.529,1.457-.083,2.999-1.573,3.54-1.23,.446-2.313-.113-2.952-.761-.627,1.804-1.723,2.824-3.633,3.519-4.403,1.599-9.273-1.215-11.119-6.298-1.846-5.084,.084-10.365,4.488-11.965,1.911-.693,3.405-.613,5.044,.368,.074-.907,.545-2.031,1.776-2.477,1.489-.541,2.949,.248,3.478,1.705l4.491,12.369Zm-14.226-1.834c.846,2.331,2.782,3.827,5.016,3.016,2.234-.812,2.759-3.2,1.913-5.532-.847-2.331-2.783-3.827-5.017-3.016-2.234,.811-2.759,3.201-1.913,5.532Z" fill="#fff"/>
      <path d="M147.759,42.771c.83,4.891-2.605,7.71-7.02,8.459-4.415,.75-8.588-.778-9.418-5.669l-1.528-8.999c-.259-1.528,.62-2.936,2.182-3.201,1.562-.265,2.856,.773,3.116,2.302l1.401,8.252c.34,2.004,2.024,2.662,3.416,2.426,1.393-.237,2.765-1.413,2.425-3.417l-1.401-8.253c-.26-1.528,.62-2.935,2.182-3.2,1.562-.266,2.856,.773,3.116,2.301l1.528,9Z" fill="#fff"/>
      <path d="M152.523,35.91l-.62,.017c-1.722,.047-2.844-.681-2.891-2.402-.047-1.722,1.034-2.509,2.756-2.557l.62-.017-.096-3.513c-.042-1.549,1.025-2.818,2.609-2.862,1.584-.043,2.72,1.167,2.762,2.716l.096,3.513,1.481-.041c1.722-.047,2.844,.681,2.891,2.402,.047,1.722-1.034,2.51-2.756,2.557l-1.48,.04,.294,10.778c.042,1.55-1.026,2.819-2.61,2.862-1.584,.044-2.72-1.166-2.762-2.716l-.294-10.777Z" fill="#fff"/>
      <path d="M165.027,43.445c1.681,.156,2.703,1.809,5.001,2.022,1.098,.103,1.557-.374,1.607-.923,.103-1.098-1.054-1.309-3.923-2.821-2.638-1.388-4.017-2.555-3.749-5.436,.285-3.053,3.173-5.828,7.46-5.429,2.161,.202,6.078,1.604,5.819,4.383-.125,1.338-1.172,2.175-2.44,2.056-1.063-.099-2.517-1.583-4.163-1.737-.721-.066-1.438,.212-1.512,1.001-.195,2.093,8.219,2.393,7.672,8.258-.352,3.772-3.749,5.705-7.419,5.362-3.361-.313-7.009-2.002-6.789-4.369,.141-1.509,1.235-2.479,2.435-2.367Z" fill="#fff"/>
      <path d="M194.13,31.976c.616-1.864,2.041-2.445,3.579-1.937,1.537,.508,2.336,1.823,1.72,3.687l-5.206,15.767,5.691,1.88c1.668,.551,2.347,1.791,1.839,3.328-.485,1.472-1.791,2.129-3.459,1.578l-8.342-2.755c-1.373-.453-2.336-1.823-1.774-3.524l5.952-18.023Z" fill="#fff"/>
      <path d="M221.156,57.175c-2.475,4.809-7.661,6.982-12.501,4.492-4.839-2.49-6.085-7.975-3.61-12.783s7.661-6.982,12.5-4.492c4.84,2.49,6.086,7.975,3.611,12.783Zm-11.333-5.832c-1.135,2.205-.917,4.642,1.196,5.729,2.113,1.088,4.224-.151,5.358-2.356,1.135-2.205,.916-4.643-1.197-5.729-2.113-1.088-4.223,.151-5.357,2.356Z" fill="#fff"/>
      <path d="M225.96,55.399c.408-1.219,.686-2.058,1.237-2.852,.887-1.099,2.347-1.427,3.74-.302,.992,.8,1.283,1.92,.795,3.075l-3.434,8.427,.054,.043,6.612-4.357c1.235-.818,2.676-1.781,4.178-.57,1.501,1.212,.865,2.823,.327,4.203l-2.859,7.386,.054,.043,7.509-5.14c1.025-.722,2.182-.674,3.174,.126,1.394,1.125,1.383,2.62,.496,3.72-.659,.707-1.419,1.156-2.525,1.813l-9.519,5.82c-1.585,.978-2.845,1.113-4.266-.033-1.502-1.211-1.384-2.399-.721-4.21l2.345-6.253-.054-.043-5.615,3.614c-1.629,1.031-2.766,1.398-4.267,.187-1.422-1.146-1.557-2.406-.936-4.163l3.674-10.535Z" fill="#fff"/>
      <path d="M255.494,66.856c1.145-1.043,2.805-1.063,3.872,.108,1.066,1.172,.892,2.821-.255,3.865l-15.638,14.24c-1.146,1.044-2.806,1.063-3.872-.108-1.067-1.171-.892-2.821,.254-3.865l15.639-14.24Z" fill="#fff"/>
      <path d="M255.485,101.187c-1.268,.892-2.916,.705-3.829-.59-.753-1.07-.497-2.263-.039-3.048-1.905-.133-3.178-.923-4.348-2.585-2.697-3.83-1.259-9.267,3.164-12.38,4.422-3.113,10.024-2.636,12.722,1.195,1.17,1.662,1.484,3.125,.968,4.964,.893-.166,2.102-.006,2.855,1.064,.912,1.296,.533,2.911-.734,3.804l-10.759,7.575Zm-1.958-14.209c-2.028,1.428-2.965,3.688-1.597,5.632,1.369,1.943,3.812,1.823,5.84,.395,2.028-1.428,2.965-3.687,1.597-5.631-1.369-1.944-3.812-1.824-5.84-.396Z" fill="#fff"/>
      <path d="M268.9,98.281c1.406-.651,2.995-.173,3.661,1.266,.607,1.312,.141,2.517-.434,3.162,1.581,.217,2.845,1.226,3.815,3.319,1.563,3.376,1.058,6.875-2.942,8.727l-9.033,4.185c-1.407,.651-2.995,.172-3.661-1.266-.666-1.437-.004-2.959,1.402-3.61l7.721-3.576c1.687-.782,2.475-2.361,1.692-4.049-.781-1.688-2.495-2.109-4.183-1.327l-7.721,3.575c-1.406,.652-2.995,.173-3.661-1.265-.666-1.438-.004-2.96,1.402-3.611l11.94-5.53Z" fill="#fff"/>
      <path d="M269.353,138.45c-1.5,.392-2.978-.362-3.379-1.896-.33-1.267,.327-2.293,1.031-2.868-1.737-.792-2.652-1.978-3.165-3.944-1.184-4.533,2.069-9.12,7.302-10.486,5.233-1.366,10.314,1.046,11.496,5.579,.583,2.233,.18,3.55-.344,4.683l6.166-1.609c1.5-.392,2.979,.362,3.379,1.896,.4,1.533-.521,2.912-2.021,3.304l-20.465,5.343Zm3.146-13.994c-2.399,.626-4.068,2.415-3.469,4.715,.6,2.3,2.931,3.044,5.331,2.418,2.399-.627,4.069-2.415,3.469-4.715-.601-2.301-2.931-3.045-5.331-2.418Z" fill="#fff"/>
      <path d="M272.936,142.371c.161,1.681-1.27,2.994-1.05,5.292,.105,1.097,.659,1.459,1.208,1.406,1.098-.105,1.088-1.28,2.036-4.383,.868-2.852,1.756-4.425,4.636-4.701,3.052-.293,6.319,2.023,6.731,6.31,.208,2.16-.436,6.271-3.213,6.538-1.338,.128-2.355-.743-2.478-2.012-.101-1.063,1.084-2.768,.926-4.415-.069-.72-.477-1.373-1.267-1.297-2.091,.2-.809,8.521-6.672,9.084-3.771,.362-6.307-2.613-6.658-6.282-.323-3.36,.652-7.261,3.019-7.487,1.509-.144,2.667,.747,2.782,1.947Z" fill="#fff"/>
    </g>
  </g>
  <g id="d" data-name="tekst onder">
    <g>
      <path d="M45.632,187.002c.954-.816,1.607-1.379,2.468-1.767,1.294-.476,2.681-.018,3.284,1.624,.429,1.168,.111,2.252-.878,2.974l-7.105,5.334,.023,.062,7.725-.33c1.445-.065,3.134-.148,3.784,1.619,.649,1.768-.691,2.798-1.835,3.684l-6.101,4.75,.023,.063,8.868-.536c1.221-.09,2.165,.53,2.594,1.698,.603,1.642-.157,2.889-1.451,3.364-.907,.261-1.769,.256-3.024,.251l-10.892,.098c-1.819,.023-2.941-.496-3.556-2.169-.649-1.768,.046-2.704,1.51-3.887l5.101-4.061-.023-.062-6.516,.208c-1.882,.047-3.018-.217-3.667-1.984-.615-1.673-.096-2.795,1.306-3.955l8.363-6.978Z" fill="#fff"/>
      <path d="M55.085,211.921c.744-1.012,1.252-1.708,2.002-2.281,1.152-.758,2.606-.627,3.567,.835,.684,1.04,.62,2.168-.179,3.096l-5.707,6.809,.037,.056,7.448-2.077c1.392-.392,3.018-.856,4.053,.717,1.034,1.574-.038,2.883-.95,4.005l-4.862,6.013,.037,.056,8.514-2.537c1.168-.365,2.229,.024,2.913,1.064,.96,1.462,.503,2.849-.649,3.605-.824,.461-1.665,.651-2.888,.933l-10.585,2.569c-1.766,.437-2.977,.186-3.956-1.304-1.034-1.574-.57-2.643,.587-4.129l4.045-5.112-.037-.057-6.298,1.685c-1.822,.473-2.988,.475-4.022-1.1-.978-1.489-.728-2.7,.373-4.148l6.559-8.696Z" fill="#fff"/>
      <path d="M69.943,234.037c.497-1.153,.835-1.946,1.437-2.674,.952-.997,2.399-1.197,3.663,.011,.9,.859,1.092,1.973,.522,3.057l-4.027,7.919,.049,.046,6.789-3.701c1.268-.695,2.748-1.514,4.11-.214,1.362,1.301,.612,2.816-.024,4.116l-3.384,6.952,.049,.047,7.724-4.389c1.056-.619,2.178-.478,3.078,.381,1.265,1.207,1.132,2.661,.18,3.659-.699,.634-1.476,1.009-2.604,1.559l-9.735,4.887c-1.622,.822-2.858,.851-4.147-.38-1.362-1.301-1.151-2.447-.358-4.154l2.79-5.893-.049-.046-5.757,3.059c-1.669,.871-2.805,1.135-4.166-.166-1.289-1.23-1.318-2.467-.571-4.125l4.433-9.95Z" fill="#fff"/>
      <path d="M87.672,259.269c1.29,.914,1.61,2.789,.697,4.079-.933,1.317-2.788,1.61-4.079,.697-1.29-.914-1.63-2.762-.697-4.079,.913-1.29,2.788-1.61,4.079-.697Z" fill="#fff"/>
      <path d="M96.145,256.531c.162-1.258,.328-2.243,.721-2.948,.688-1.233,2.306-1.717,3.569-1.013,.911,.508,1.54,1.244,1.236,2.962l-1.43,8.291,.059,.032,6.305-5.57c1.302-1.16,2.259-1.012,3.169-.503,1.263,.704,1.701,2.335,1.013,3.568-.394,.705-1.146,1.363-2.131,2.162l-8.908,7.198c-1.047,.841-2.266,1.162-3.558,.441-1.292-.722-1.659-1.928-1.493-3.26l1.449-11.361Z" fill="#fff"/>
      <path d="M111.088,264.99c-.047-1.255-.082-2.116,.148-3.031,.432-1.309,1.651-2.111,3.312-1.564,1.182,.389,1.834,1.311,1.785,2.535l-.234,8.881,.064,.021,4.54-6.259c.847-1.173,1.831-2.549,3.62-1.96,1.789,.59,1.763,2.28,1.747,3.728l-.068,7.731,.064,.021,5.089-7.281c.687-1.013,1.76-1.367,2.942-.978,1.661,.547,2.166,1.917,1.734,3.226-.358,.874-.898,1.546-1.682,2.527l-6.69,8.595c-1.111,1.44-2.216,1.997-3.909,1.439-1.789-.589-2.09-1.716-2.108-3.598l-.013-6.519-.063-.02-3.885,5.235c-1.132,1.504-2.044,2.23-3.833,1.641-1.693-.558-2.25-1.661-2.289-3.479l-.272-10.89Z" fill="#fff"/>
      <path d="M137.312,279.814c1.632,.226,2.558,1.881,4.789,2.19,1.066,.147,1.535-.297,1.609-.83,.147-1.066-.971-1.323-3.704-2.923-2.513-1.468-3.807-2.666-3.42-5.464,.41-2.965,3.348-5.546,7.512-4.971,2.099,.291,5.858,1.829,5.485,4.527-.18,1.3-1.237,2.07-2.47,1.899-1.033-.143-2.385-1.654-3.984-1.875-.699-.097-1.412,.144-1.518,.91-.281,2.032,7.912,2.69,7.123,8.387-.507,3.664-3.904,5.401-7.469,4.908-3.265-.452-6.75-2.258-6.432-4.557,.203-1.466,1.312-2.364,2.477-2.203Z" fill="#fff"/>
      <path d="M157.18,285.573l-4.645-10.587c-.628-1.402-1.152-2.638-1.162-3.243-.025-1.547,1.204-2.475,2.516-2.496,1.278-.02,2.196,.637,2.722,1.94l3.223,7.952,2.81-7.176c.646-1.625,1.366-2.881,2.812-2.904,1.614-.026,2.707,.998,2.733,2.612,.012,.773-.343,1.687-.602,2.297l-7.473,18.25c-.583,1.389-1.002,2.506-2.818,2.535-1.883,.03-2.613-1.437-2.627-2.312-.015-.908,.245-1.517,.827-2.906l1.685-3.963Z" fill="#fff"/>
      <path d="M170.183,271.63c-.253-1.491,.606-2.865,2.131-3.124,1.392-.236,2.406,.513,2.867,1.219,.609-1.434,1.884-2.366,4.106-2.743,3.581-.608,6.747,.765,7.468,5.009l1.626,9.582c.254,1.492-.604,2.866-2.13,3.125-1.525,.259-2.789-.755-3.042-2.247l-1.391-8.189c-.304-1.791-1.59-2.937-3.38-2.633-1.791,.304-2.626,1.81-2.322,3.6l1.39,8.189c.253,1.492-.605,2.866-2.13,3.125-1.525,.259-2.789-.755-3.042-2.247l-2.15-12.666Z" fill="#fff"/>
      <path d="M196.019,262.496c2.229-.756,6.108-1.359,7.004,1.284,.453,1.338-.103,2.627-1.25,3.016-1.274,.432-1.905-.277-3.849,.381-2.516,.853-3.047,3.163-2.269,5.456,.776,2.294,2.635,3.795,4.832,3.05,2.135-.723,2.83-1.918,3.563-2.166,1.146-.389,2.427,.456,2.783,1.507,.842,2.484-2.753,4.768-4.727,5.436-5.032,1.706-9.726-1.143-11.421-6.143-1.694-5,.302-10.115,5.334-11.82Z" fill="#fff"/>
      <path d="M205.344,262.156c-.674-1.355-.25-2.918,1.135-3.607,1.266-.629,2.452-.205,3.098,.337,.319-1.322,1.028-2.765,2.353-3.424,1.204-.599,2.889-.234,3.622,1.241,.809,1.626-.23,2.631-1.692,3.997-1.748,1.62-2.141,2.492-.942,4.9l2.846,5.722c.674,1.355,.249,2.918-1.136,3.607-1.385,.688-2.888,.084-3.561-1.271l-5.722-11.502Z" fill="#fff"/>
      <path d="M234.48,252.052c3.003,4.343,2.488,9.809-1.883,12.83-4.37,3.021-9.666,1.572-12.668-2.771-3.003-4.343-2.488-9.809,1.883-12.831,4.371-3.021,9.666-1.571,12.668,2.773Zm-10.235,7.075c1.377,1.992,3.575,2.925,5.484,1.605,1.909-1.319,1.812-3.706,.435-5.697-1.377-1.992-3.575-2.926-5.484-1.605-1.908,1.319-1.812,3.706-.436,5.697Z" fill="#fff"/>
      <path d="M241.615,250.321c1.177-1.056,3.076-.953,4.132,.223,1.078,1.201,.954,3.076-.223,4.132-1.176,1.057-3.054,.979-4.132-.223-1.056-1.176-.953-3.075,.223-4.132Z" fill="#fff"/>
      <path d="M242.848,230.376c1.561-1.762,4.629-4.21,6.718-2.359,1.058,.937,1.214,2.333,.41,3.239-.892,1.007-1.791,.704-3.151,2.239-1.763,1.988-1.077,4.258,.735,5.864,1.813,1.605,4.17,1.987,5.709,.25,1.494-1.686,1.506-3.069,2.019-3.647,.803-.906,2.334-.808,3.164-.072,1.964,1.739-.024,5.505-1.407,7.065-3.523,3.977-9.012,3.832-12.964,.331-3.952-3.502-4.757-8.933-1.233-12.91Z" fill="#fff"/>
      <path d="M265.022,215.355c4.449,2.843,6.09,8.082,3.228,12.56s-8.305,5.19-12.754,2.347c-4.449-2.843-6.09-8.082-3.229-12.56,2.86-4.477,8.305-5.189,12.754-2.347Zm-6.7,10.485c2.04,1.304,4.429,1.313,5.678-.642,1.25-1.955,.237-4.119-1.803-5.423-2.04-1.304-4.429-1.313-5.679,.643-1.249,1.955-.237,4.118,1.804,5.422Z" fill="#fff"/>
      <path d="M260.858,210.412c-1.418-.531-2.174-1.964-1.631-3.412,.495-1.323,1.652-1.823,2.495-1.867-.934-1.247-.97-3.164-.309-4.928,.53-1.417,1.767-3.181,3.726-3.811-.445-1.495-1.024-3.4-.234-5.51,1.274-3.401,4.053-5.449,8.084-3.939l9.101,3.409c1.417,.531,2.174,1.964,1.631,3.412-.543,1.449-2.054,2.032-3.471,1.501l-7.779-2.914c-1.543-.578-3.278-.259-3.88,1.348-.602,1.605,.496,2.987,2.039,3.565l7.779,2.914c1.417,.531,2.173,1.963,1.63,3.412-.542,1.448-2.054,2.031-3.471,1.501l-7.778-2.915c-1.543-.578-3.279-.259-3.881,1.348-.602,1.606,.497,2.987,2.04,3.565l7.778,2.914c1.417,.531,2.174,1.964,1.631,3.412-.543,1.449-2.054,2.032-3.472,1.501l-12.029-4.507Z" fill="#fff"/>
    </g>
  </g>
  <g id="e" data-name="stans">
    <circle cx="159.041" cy="158.277" r="141.732" fill="none" stroke="#e10085"/>
  </g>
</svg>