<svg xmlns="http://www.w3.org/2000/svg" viewBox="0 0 425 425"><defs><style>.cls-1{fill:#fff;}.cls-2{fill:#98d34a;}</style></defs><g id="bg"><polygon class="cls-1" points="213 9.88 13 209.88 214.56 411.44 413 213 213 9.88"/></g><g id="lijn"><path class="cls-2" d="M259.49,206.25A18.74,18.74,0,0,0,240.74,225c0,17.18-4.06,29.94-12.06,37.94-4.74,4.75-11.17,8.09-19.19,10V187.5h18.75c22.58,0,40.19-10.34,49.58-29.11a64.64,64.64,0,0,0,6.67-27.14,64.64,64.64,0,0,0-6.67-27.14C268.43,85.34,250.82,75,228.24,75S188,85.34,178.65,104.11A64.73,64.73,0,0,0,172,131.25v20.23a85.5,85.5,0,0,0-30.72,11A75.17,75.17,0,0,0,114.15,191a90.2,90.2,0,0,0-10.91,40.29,90.2,90.2,0,0,0,10.91,40.29A75.17,75.17,0,0,0,141.27,300,85.5,85.5,0,0,0,172,311v32.73a18.75,18.75,0,0,0,37.5,0V311.16c18.76-2.81,34.08-10.08,45.71-21.7,15.29-15.29,23-37,23-64.46A18.75,18.75,0,0,0,259.49,206.25ZM228.24,112.5c10.08,0,13.58,3.89,15.67,7.69A28.37,28.37,0,0,1,247,131.25a28.37,28.37,0,0,1-3.07,11.06c-2.09,3.8-5.59,7.69-15.67,7.69H209.49V131.43a28.19,28.19,0,0,1,3.07-11.24C214.65,116.39,218.15,112.5,228.24,112.5Zm-18.75,18.88v0ZM147.57,254.45a53.89,53.89,0,0,1-6.83-23.27A53.81,53.81,0,0,1,147,209c5.37-9.76,13.61-16.14,25-19.27v83C161,269.71,153,263.66,147.57,254.45Z"/><path class="cls-2" d="M213.57,425A75.56,75.56,0,0,1,160,402.94L22.48,266.48a76,76,0,0,1,0-108L160,22.06A75.54,75.54,0,0,1,213.57,0h.3a75.52,75.52,0,0,1,53.68,22.48L402.94,159a76,76,0,0,1,0,107.1L267.55,402.52h0A75.52,75.52,0,0,1,213.87,425Zm40.67-35.69h0ZM213.57,37.5a38.29,38.29,0,0,0-27.14,11.18L48.89,185.14a38.56,38.56,0,0,0,0,54.72L186.43,376.32a38.29,38.29,0,0,0,27.14,11.18h.16a38.27,38.27,0,0,0,27.2-11.4L376.32,239.64a38.64,38.64,0,0,0,0-54.28L240.93,48.9a38.27,38.27,0,0,0-27.2-11.4Z"/></g></svg>