<?xml version="1.0" encoding="UTF-8"?>
<svg id="c" data-name="lijnen" xmlns="http://www.w3.org/2000/svg" width="850" height="850" viewBox="0 0 850 850">
  <path d="M578.832,288.557c1.688-13.988-8.283-26.696-22.271-28.385-13.99-1.688-26.697,8.283-28.385,22.271-3.078,25.5-14.276,48.488-31.532,64.729-15.89,14.955-36.524,24.333-61.543,28.022-.045-4.915-.074-10.039-.082-15.381,41.143-9.163,71.997-45.95,71.997-89.813,0-50.735-41.276-92.012-92.012-92.012s-92.012,41.276-92.012,92.012c0,39.858,25.477,73.874,61,86.629,0,5.987,.025,11.717,.07,17.197-37.04-8.993-72.531-36.441-76.173-72.865-1.402-14.02-13.906-24.248-27.924-22.847-14.02,1.402-24.249,13.904-22.847,27.924,3.507,35.066,23.127,67.092,55.246,90.177,21.398,15.38,47.021,25.761,72.866,29.846,.475,12.257,.99,21.214,1.357,26.796-9.137,21.283-33.698,89.138-19.249,175.837,2.08,12.479,12.887,21.322,25.134,21.321,1.393,0,2.806-.114,4.225-.351,13.898-2.316,23.287-15.46,20.97-29.359-9.67-58.021,1.629-106.429,10.075-131.931,8.607,2.575,18.996,5.816,29.718,9.471,10.301,3.511,18.822,6.686,25.858,9.515-9.614,1.028-21.729,1.967-36.963,2.654-14.075,.634-24.972,12.558-24.338,26.634,.616,13.685,11.905,24.364,25.467,24.364,.387,0,.777-.008,1.167-.026,33.136-1.493,57.465-4.287,74.377-8.543,9.693-2.439,17.269-5.454,23.16-9.215,13.291-8.485,16.349-19.77,16.99-25.742,2.666-24.862-23.039-39.157-31.486-43.855-11.491-6.391-27.289-13.219-46.954-20.295-17.718-6.375-35.358-11.816-47.899-15.488-.169-3.332-.345-7.137-.518-11.392,37.984-4.524,70.57-18.859,95.292-42.128,25.942-24.416,42.711-58.428,47.218-95.771Zm-163.828-59.545c22.601,0,40.988,18.387,40.988,40.988s-18.387,40.988-40.988,40.988-40.988-18.387-40.988-40.988,18.387-40.988,40.988-40.988Z" fill="#3e94bc"/>
  <path d="M427.132,850c-40.394,0-78.402-15.653-107.094-44.121L44.964,532.954C15.969,504.185,0,465.846,0,424.999s15.969-79.185,44.964-107.954L320.039,44.121C348.875,15.51,387.117-.137,427.748,0c40.621,.16,78.749,16.129,107.358,44.966l270.776,272.925c28.45,28.676,44.117,66.714,44.117,107.107s-15.668,78.432-44.117,107.107l-270.776,272.925c-28.61,28.837-66.737,44.807-107.358,44.966-.204,0-.413,.001-.616,.001Zm.008-775c-20.472,0-39.735,7.934-54.277,22.361L97.789,370.286c-14.695,14.581-22.789,34.012-22.789,54.713s8.093,40.133,22.789,54.714l275.074,272.925c14.541,14.427,33.806,22.361,54.277,22.361,.104,0,.208,0,.312,0,20.588-.081,39.912-8.174,54.412-22.79h0l270.776-272.925c29.697-29.932,29.696-78.636,0-108.568L481.864,97.79c-14.5-14.615-33.824-22.709-54.412-22.79-.103,0-.209,0-.312,0Z" fill="#3e94bc"/>
</svg>