<?xml version="1.0" encoding="UTF-8"?>
<svg id="a" data-name="Layer 1" xmlns="http://www.w3.org/2000/svg" width="720mm" height="139.412mm" viewBox="0 0 2040.945 395.184">
  <g>
    <path d="M214.003,252.601h-23.67L137.657,62.573l-52.673,190.028h-23.67L.638,15.231H27.641l46.342,191.367L126.324,15.231h22.669l52.341,191.367L247.677,15.231h27.003l-60.676,237.37Z" fill="#868888"/>
    <path d="M438.277,252.601l-19.003-53.674h-103.681l-19.003,53.674h-27.003L356.933,15.231h21.336l87.011,237.37h-27.003ZM367.933,51.573l-44.674,125.35h88.679l-44.006-125.35Z" fill="#868888"/>
    <path d="M505.098,252.601V15.231h25.338V229.928h121.352v22.673h-146.69Z" fill="#868888"/>
    <path d="M740.254,37.903V252.601h-25.338V37.903h-68.679V15.231h162.692v22.673h-68.676Z" fill="#868888"/>
    <path d="M851.382,252.601V15.231h147.355v22.673h-122.017V121.581h104.014v22.669h-104.014v85.678h122.017v22.673h-147.355Z" fill="#868888"/>
    <path d="M1181.477,252.601l-54.009-105.35h-57.007v105.35h-25.338V15.231h91.016c41.337,0,70.341,25.006,70.341,66.01,0,34.673-21.001,57.343-51.673,63.677l56.342,107.683h-29.672Zm-47.675-214.698h-63.341V124.914h63.341c27.671,0,47.342-14.334,47.342-43.338s-19.671-43.673-47.342-43.673Z" fill="#868888"/>
    <path d="M1352.481,252.601h-43.341L1230.797,15.231h60.344l40.004,132.688,39.34-132.688h60.676l-78.679,237.37Z" fill="#868888"/>
    <path d="M1574.866,252.601l-42.008-88.347h-19.668v88.347h-58.346V15.231h94.02c52.67,0,81.005,37.342,81.005,76.346,0,32.337-20,52.673-38.672,62.009l51.341,99.015h-67.672Zm-28.675-185.026h-33.002v48.007h33.002c16.006,0,25.338-11.669,25.338-24.005s-9.332-24.002-25.338-24.002Z" fill="#868888"/>
    <path d="M1668.886,252.601V15.231h161.36v52.009h-103.013v39.672h88.011v52.009h-88.011v41.673h103.013v52.009h-161.36Z" fill="#868888"/>
    <path d="M1868.267,252.601V15.231h161.353v52.009h-103.013v39.672h88.011v52.009h-88.011v41.673h103.013v52.009h-161.353Z" fill="#868888"/>
  </g>
  <g>
    <path d="M774.517,378.606v-59.52l-20.506,43.392h-10.004l-21.008-43.392v59.52h-13.507v-89.029h13.507l26.009,55.396,25.507-55.396h13.507v89.029h-13.507Z" fill="#868888"/>
    <path d="M811.123,378.606v-89.029h56.898v12.133h-43.392v26.003h37.013v12.004h-37.013v26.762h43.392v12.126h-56.898Z" fill="#868888"/>
    <path d="M917.016,379.358c-18.132,0-31.886-12.377-31.886-30.757v-59.025h13.503v58.401c0,11.875,7.253,19.248,18.383,19.248s18.505-7.372,18.505-19.248v-58.401h13.507v59.025c0,18.379-13.88,30.757-32.012,30.757Z" fill="#868888"/>
    <path d="M1006.896,378.606h-36.013v-89.029h34.64c16.504,0,26.884,9.38,26.884,24.382,0,9.631-6.002,16.508-12.004,18.881,6.877,2.754,13.381,9.38,13.381,20.631,0,16.386-11.129,25.134-26.888,25.134Zm-2.499-76.895h-20.007v25.501h20.007c8.627,0,14.504-4.497,14.504-12.75s-5.877-12.75-14.504-12.75Zm1.251,37.634h-21.259v27.135h21.259c9.376,0,14.629-5.751,14.629-13.632s-5.253-13.503-14.629-13.503Z" fill="#868888"/>
    <path d="M1053.76,378.606v-89.029h56.898v12.133h-43.392v26.003h37.013v12.004h-37.013v26.762h43.392v12.126h-56.898Z" fill="#868888"/>
    <path d="M1129.14,378.606v-89.029h13.507v76.902h42.89v12.126h-56.397Z" fill="#868888"/>
    <path d="M1224.53,379.358c-13.381,0-23.008-3.127-31.513-11.753l9.003-8.878c6.504,6.504,13.632,8.498,22.761,8.498,11.628,0,18.379-4.998,18.379-13.625,0-3.873-1.126-7.128-3.5-9.258-2.252-2.123-4.503-2.998-9.756-3.744l-10.502-1.506c-7.253-.997-13.005-3.5-16.881-7.121-4.378-4.13-6.504-9.759-6.504-17.01,0-15.504,11.255-26.138,29.76-26.138,11.757,0,20.007,3.004,27.637,10.132l-8.627,8.505c-5.504-5.256-11.882-6.877-19.383-6.877-10.505,0-16.257,5.995-16.257,13.876,0,3.255,1,6.131,3.377,8.254,2.252,2.001,5.877,3.5,10.004,4.13l10.129,1.492c8.25,1.255,12.879,3.255,16.63,6.633,4.876,4.246,7.253,10.628,7.253,18.257,0,16.379-13.381,26.131-32.012,26.131Z" fill="#868888"/>
    <path d="M1362.169,378.606l-7.253-8.749c-3.876,3.377-11.129,9.502-24.633,9.502-18.508,0-28.763-10.377-28.763-26.511,0-12.377,8.881-19.383,17.633-25.134-4.001-4.625-9.254-10.878-9.254-19.126,0-11.38,8.505-19.763,21.757-19.763,12.632,0,21.133,8.505,21.133,19.885,0,6.999-3.876,11.882-9.502,15.755,0,0-4.378,3.004-6.504,4.503l18.756,22.381c3.252-4.625,4.629-9.753,4.754-17.884h12.255c-.376,11.38-2.879,20.387-8.881,27.386l14.883,17.756h-16.382Zm-36.013-42.89c-6.504,4.503-12.004,8.627-12.004,16.887,0,8.871,6.877,15.124,16.131,15.124,6.002,0,11.129-1.621,17.006-6.877l-21.133-25.134Zm5.5-35.755c-5.5,0-8.752,3.744-8.752,8.749,0,3.622,2.377,6.999,6.877,12.255,1.377-.875,4.252-2.876,4.252-2.876,3.5-2.381,6.504-5.127,6.504-9.258,0-4.998-3.628-8.871-8.881-8.871Z" fill="#868888"/>
    <path d="M1425.904,378.606v-89.029h13.507v89.029h-13.507Z" fill="#868888"/>
    <path d="M1517.3,378.606l-41.137-62.639v62.639h-13.507v-89.029h12.381l41.137,62.524v-62.524h13.51v89.029h-12.384Z" fill="#868888"/>
    <path d="M1583.045,301.71v76.895h-13.503v-76.895h-24.511v-12.133h62.524v12.133h-24.511Z" fill="#868888"/>
    <path d="M1622.911,378.606v-89.029h56.902v12.133h-43.392v26.003h37.017v12.004h-37.017v26.762h43.392v12.126h-56.902Z" fill="#868888"/>
    <path d="M1747.43,378.606l-18.753-37.512h-16.881v37.512h-13.51v-89.029h34.521c16.874,0,27.63,10.878,27.63,26.009,0,12.75-7.752,20.882-17.756,23.629l20.509,39.39h-15.762Zm-15.626-76.895h-20.007v27.881h20.007c9.007,0,15.131-5.127,15.131-13.883s-6.124-13.998-15.131-13.998Z" fill="#868888"/>
    <path d="M1780.174,378.606v-89.029h13.503v89.029h-13.503Z" fill="#868888"/>
    <path d="M1816.919,378.606v-89.029h56.902v12.133h-43.392v26.003h37.017v12.004h-37.017v26.762h43.392v12.126h-56.902Z" fill="#868888"/>
    <path d="M1922.815,379.358c-18.135,0-31.889-12.377-31.889-30.757v-59.025h13.51v58.401c0,11.875,7.25,19.248,18.379,19.248s18.502-7.372,18.502-19.248v-58.401h13.51v59.025c0,18.379-13.876,30.757-32.012,30.757Z" fill="#868888"/>
    <path d="M2025.822,378.606l-18.753-37.512h-16.881v37.512h-13.51v-89.029h34.521c16.874,0,27.63,10.878,27.63,26.009,0,12.75-7.752,20.882-17.756,23.629l20.509,39.39h-15.762Zm-15.626-76.895h-20.007v27.881h20.007c9.007,0,15.131-5.127,15.131-13.883s-6.124-13.998-15.131-13.998Z" fill="#868888"/>
  </g>
</svg>